<?xml version="1.0" encoding="UTF-8" standalone="no"?>
<!DOCTYPE svg PUBLIC "-//W3C//DTD SVG 1.1//EN"
 "http://www.w3.org/Graphics/SVG/1.1/DTD/svg11.dtd">
<!-- Generated by graphviz version 2.42.4 (0)
 -->
<!-- Title: /__w/vulpes/vulpes/vulpes/geometry/agglomeration/abs_agg_model.hpp Pages: 1 -->
<svg width="804pt" height="280pt"
 viewBox="0.00 0.00 804.00 280.00" xmlns="http://www.w3.org/2000/svg" xmlns:xlink="http://www.w3.org/1999/xlink">
<g id="graph0" class="graph" transform="scale(1 1) rotate(0) translate(4 276)">
<title>/__w/vulpes/vulpes/vulpes/geometry/agglomeration/abs_agg_model.hpp</title>
<!-- Node1 -->
<g id="Node000001" class="node">
<title>Node1</title>
<g id="a_Node000001"><a xlink:title=" ">
<polygon fill="#999999" stroke="#666666" points="408,-272 232,-272 232,-231 408,-231 408,-272"/>
<text text-anchor="start" x="240" y="-260" font-family="Helvetica,sans-Serif" font-size="10.00">/__w/vulpes/vulpes</text>
<text text-anchor="start" x="240" y="-249" font-family="Helvetica,sans-Serif" font-size="10.00">/vulpes/geometry/agglomeration</text>
<text text-anchor="middle" x="320" y="-238" font-family="Helvetica,sans-Serif" font-size="10.00">/abs_agg_model.hpp</text>
</a>
</g>
</g>
<!-- Node2 -->
<g id="Node000002" class="node">
<title>Node2</title>
<g id="a_Node000002"><a xlink:href="abs__agg__model_8cpp.html" target="_top" xlink:title=" ">
<polygon fill="white" stroke="#666666" points="176,-195 0,-195 0,-154 176,-154 176,-195"/>
<text text-anchor="start" x="8" y="-183" font-family="Helvetica,sans-Serif" font-size="10.00">/__w/vulpes/vulpes</text>
<text text-anchor="start" x="8" y="-172" font-family="Helvetica,sans-Serif" font-size="10.00">/vulpes/geometry/agglomeration</text>
<text text-anchor="middle" x="88" y="-161" font-family="Helvetica,sans-Serif" font-size="10.00">/abs_agg_model.cpp</text>
</a>
</g>
</g>
<!-- Node1&#45;&gt;Node2 -->
<g id="edge1_Node000001_Node000002" class="edge">
<title>Node1&#45;&gt;Node2</title>
<g id="a_edge1_Node000001_Node000002"><a xlink:title=" ">
<path fill="none" stroke="#63b8ff" d="M249.81,-227.81C217.48,-217.36 179.49,-205.08 148.45,-195.04"/>
<polygon fill="#63b8ff" stroke="#63b8ff" points="249.06,-231.24 259.65,-230.99 251.21,-224.58 249.06,-231.24"/>
</a>
</g>
</g>
<!-- Node3 -->
<g id="Node000003" class="node">
<title>Node3</title>
<g id="a_Node000003"><a xlink:href="gnn__agglomeration_8hpp.html" target="_top" xlink:title=" ">
<polygon fill="white" stroke="#666666" points="214,-118 38,-118 38,-77 214,-77 214,-118"/>
<text text-anchor="start" x="46" y="-106" font-family="Helvetica,sans-Serif" font-size="10.00">/__w/vulpes/vulpes</text>
<text text-anchor="start" x="46" y="-95" font-family="Helvetica,sans-Serif" font-size="10.00">/vulpes/geometry/agglomeration</text>
<text text-anchor="middle" x="126" y="-84" font-family="Helvetica,sans-Serif" font-size="10.00">/gnn_agglomeration.hpp</text>
</a>
</g>
</g>
<!-- Node1&#45;&gt;Node3 -->
<g id="edge2_Node000001_Node000003" class="edge">
<title>Node1&#45;&gt;Node3</title>
<g id="a_edge2_Node000001_Node000003"><a xlink:title=" ">
<path fill="none" stroke="#63b8ff" d="M270.43,-225.95C254.61,-217.13 237.47,-206.5 223,-195 203.55,-179.54 202.5,-171.63 185,-154 172.91,-141.82 158.95,-128.65 147.64,-118.19"/>
<polygon fill="#63b8ff" stroke="#63b8ff" points="269.1,-229.21 279.56,-230.92 272.45,-223.06 269.1,-229.21"/>
</a>
</g>
</g>
<!-- Node5 -->
<g id="Node000005" class="node">
<title>Node5</title>
<g id="a_Node000005"><a xlink:href="gnn__graph_8hpp.html" target="_top" xlink:title=" ">
<polygon fill="white" stroke="#666666" points="408,-195 232,-195 232,-154 408,-154 408,-195"/>
<text text-anchor="start" x="240" y="-183" font-family="Helvetica,sans-Serif" font-size="10.00">/__w/vulpes/vulpes</text>
<text text-anchor="start" x="240" y="-172" font-family="Helvetica,sans-Serif" font-size="10.00">/vulpes/geometry/agglomeration</text>
<text text-anchor="middle" x="320" y="-161" font-family="Helvetica,sans-Serif" font-size="10.00">/gnn_graph.hpp</text>
</a>
</g>
</g>
<!-- Node1&#45;&gt;Node5 -->
<g id="edge4_Node000001_Node000005" class="edge">
<title>Node1&#45;&gt;Node5</title>
<g id="a_edge4_Node000001_Node000005"><a xlink:title=" ">
<path fill="none" stroke="#63b8ff" d="M320,-220.69C320,-212.08 320,-202.9 320,-195.07"/>
<polygon fill="#63b8ff" stroke="#63b8ff" points="316.5,-220.79 320,-230.79 323.5,-220.79 316.5,-220.79"/>
</a>
</g>
</g>
<!-- Node7 -->
<g id="Node000007" class="node">
<title>Node7</title>
<g id="a_Node000007"><a xlink:href="kmeans__agglomeration_8hpp.html" target="_top" xlink:title=" ">
<polygon fill="white" stroke="#666666" points="602,-195 426,-195 426,-154 602,-154 602,-195"/>
<text text-anchor="start" x="434" y="-183" font-family="Helvetica,sans-Serif" font-size="10.00">/__w/vulpes/vulpes</text>
<text text-anchor="start" x="434" y="-172" font-family="Helvetica,sans-Serif" font-size="10.00">/vulpes/geometry/agglomeration</text>
<text text-anchor="middle" x="514" y="-161" font-family="Helvetica,sans-Serif" font-size="10.00">/kmeans_agglomeration.hpp</text>
</a>
</g>
</g>
<!-- Node1&#45;&gt;Node7 -->
<g id="edge7_Node000001_Node000007" class="edge">
<title>Node1&#45;&gt;Node7</title>
<g id="a_edge7_Node000001_Node000007"><a xlink:title=" ">
<path fill="none" stroke="#63b8ff" d="M380.09,-227.27C406.82,-216.94 437.94,-204.9 463.45,-195.04"/>
<polygon fill="#63b8ff" stroke="#63b8ff" points="378.53,-224.12 370.46,-230.99 381.05,-230.65 378.53,-224.12"/>
</a>
</g>
</g>
<!-- Node9 -->
<g id="Node000009" class="node">
<title>Node9</title>
<g id="a_Node000009"><a xlink:href="parmetis__agglomeration_8hpp.html" target="_top" xlink:title=" ">
<polygon fill="white" stroke="#666666" points="796,-195 620,-195 620,-154 796,-154 796,-195"/>
<text text-anchor="start" x="628" y="-183" font-family="Helvetica,sans-Serif" font-size="10.00">/__w/vulpes/vulpes</text>
<text text-anchor="start" x="628" y="-172" font-family="Helvetica,sans-Serif" font-size="10.00">/vulpes/geometry/agglomeration</text>
<text text-anchor="middle" x="708" y="-161" font-family="Helvetica,sans-Serif" font-size="10.00">/parmetis_agglomeration.hpp</text>
</a>
</g>
</g>
<!-- Node1&#45;&gt;Node9 -->
<g id="edge9_Node000001_Node000009" class="edge">
<title>Node1&#45;&gt;Node9</title>
<g id="a_edge9_Node000001_Node000009"><a xlink:title=" ">
<path fill="none" stroke="#63b8ff" d="M418.22,-232.02C474.65,-221.34 546.84,-207.57 611,-195 613.95,-194.42 616.95,-193.83 619.98,-193.23"/>
<polygon fill="#63b8ff" stroke="#63b8ff" points="417.41,-228.61 408.23,-233.91 418.71,-235.49 417.41,-228.61"/>
</a>
</g>
</g>
<!-- Node4 -->
<g id="Node000004" class="node">
<title>Node4</title>
<g id="a_Node000004"><a xlink:href="gnn__agglomeration_8cpp.html" target="_top" xlink:title=" ">
<polygon fill="white" stroke="#666666" points="214,-41 38,-41 38,0 214,0 214,-41"/>
<text text-anchor="start" x="46" y="-29" font-family="Helvetica,sans-Serif" font-size="10.00">/__w/vulpes/vulpes</text>
<text text-anchor="start" x="46" y="-18" font-family="Helvetica,sans-Serif" font-size="10.00">/vulpes/geometry/agglomeration</text>
<text text-anchor="middle" x="126" y="-7" font-family="Helvetica,sans-Serif" font-size="10.00">/gnn_agglomeration.cpp</text>
</a>
</g>
</g>
<!-- Node3&#45;&gt;Node4 -->
<g id="edge3_Node000003_Node000004" class="edge">
<title>Node3&#45;&gt;Node4</title>
<g id="a_edge3_Node000003_Node000004"><a xlink:title=" ">
<path fill="none" stroke="#63b8ff" d="M126,-66.69C126,-58.08 126,-48.9 126,-41.07"/>
<polygon fill="#63b8ff" stroke="#63b8ff" points="122.5,-66.79 126,-76.79 129.5,-66.79 122.5,-66.79"/>
</a>
</g>
</g>
<!-- Node5&#45;&gt;Node3 -->
<g id="edge5_Node000005_Node000003" class="edge">
<title>Node5&#45;&gt;Node3</title>
<g id="a_edge5_Node000005_Node000003"><a xlink:title=" ">
<path fill="none" stroke="#63b8ff" d="M259.91,-150.27C233.18,-139.94 202.06,-127.9 176.55,-118.04"/>
<polygon fill="#63b8ff" stroke="#63b8ff" points="258.95,-153.65 269.54,-153.99 261.47,-147.12 258.95,-153.65"/>
</a>
</g>
</g>
<!-- Node6 -->
<g id="Node000006" class="node">
<title>Node6</title>
<g id="a_Node000006"><a xlink:href="gnn__graph_8cpp.html" target="_top" xlink:title=" ">
<polygon fill="white" stroke="#666666" points="408,-118 232,-118 232,-77 408,-77 408,-118"/>
<text text-anchor="start" x="240" y="-106" font-family="Helvetica,sans-Serif" font-size="10.00">/__w/vulpes/vulpes</text>
<text text-anchor="start" x="240" y="-95" font-family="Helvetica,sans-Serif" font-size="10.00">/vulpes/geometry/agglomeration</text>
<text text-anchor="middle" x="320" y="-84" font-family="Helvetica,sans-Serif" font-size="10.00">/gnn_graph.cpp</text>
</a>
</g>
</g>
<!-- Node5&#45;&gt;Node6 -->
<g id="edge6_Node000005_Node000006" class="edge">
<title>Node5&#45;&gt;Node6</title>
<g id="a_edge6_Node000005_Node000006"><a xlink:title=" ">
<path fill="none" stroke="#63b8ff" d="M320,-143.69C320,-135.08 320,-125.9 320,-118.07"/>
<polygon fill="#63b8ff" stroke="#63b8ff" points="316.5,-143.79 320,-153.79 323.5,-143.79 316.5,-143.79"/>
</a>
</g>
</g>
<!-- Node8 -->
<g id="Node000008" class="node">
<title>Node8</title>
<g id="a_Node000008"><a xlink:href="kmeans__agglomeration_8cpp.html" target="_top" xlink:title=" ">
<polygon fill="white" stroke="#666666" points="602,-118 426,-118 426,-77 602,-77 602,-118"/>
<text text-anchor="start" x="434" y="-106" font-family="Helvetica,sans-Serif" font-size="10.00">/__w/vulpes/vulpes</text>
<text text-anchor="start" x="434" y="-95" font-family="Helvetica,sans-Serif" font-size="10.00">/vulpes/geometry/agglomeration</text>
<text text-anchor="middle" x="514" y="-84" font-family="Helvetica,sans-Serif" font-size="10.00">/kmeans_agglomeration.cpp</text>
</a>
</g>
</g>
<!-- Node7&#45;&gt;Node8 -->
<g id="edge8_Node000007_Node000008" class="edge">
<title>Node7&#45;&gt;Node8</title>
<g id="a_edge8_Node000007_Node000008"><a xlink:title=" ">
<path fill="none" stroke="#63b8ff" d="M514,-143.69C514,-135.08 514,-125.9 514,-118.07"/>
<polygon fill="#63b8ff" stroke="#63b8ff" points="510.5,-143.79 514,-153.79 517.5,-143.79 510.5,-143.79"/>
</a>
</g>
</g>
<!-- Node10 -->
<g id="Node000010" class="node">
<title>Node10</title>
<g id="a_Node000010"><a xlink:href="parmetis__agglomeration_8cpp.html" target="_top" xlink:title=" ">
<polygon fill="white" stroke="#666666" points="796,-118 620,-118 620,-77 796,-77 796,-118"/>
<text text-anchor="start" x="628" y="-106" font-family="Helvetica,sans-Serif" font-size="10.00">/__w/vulpes/vulpes</text>
<text text-anchor="start" x="628" y="-95" font-family="Helvetica,sans-Serif" font-size="10.00">/vulpes/geometry/agglomeration</text>
<text text-anchor="middle" x="708" y="-84" font-family="Helvetica,sans-Serif" font-size="10.00">/parmetis_agglomeration.cpp</text>
</a>
</g>
</g>
<!-- Node9&#45;&gt;Node10 -->
<g id="edge10_Node000009_Node000010" class="edge">
<title>Node9&#45;&gt;Node10</title>
<g id="a_edge10_Node000009_Node000010"><a xlink:title=" ">
<path fill="none" stroke="#63b8ff" d="M708,-143.69C708,-135.08 708,-125.9 708,-118.07"/>
<polygon fill="#63b8ff" stroke="#63b8ff" points="704.5,-143.79 708,-153.79 711.5,-143.79 704.5,-143.79"/>
</a>
</g>
</g>
</g>
</svg>
