<?xml version="1.0" encoding="UTF-8" standalone="no"?>
<!DOCTYPE svg PUBLIC "-//W3C//DTD SVG 1.1//EN"
 "http://www.w3.org/Graphics/SVG/1.1/DTD/svg11.dtd">
<!-- Generated by graphviz version 2.42.4 (0)
 -->
<!-- Title: /__w/vulpes/vulpes/vulpes/geometry/cell.hpp Pages: 1 -->
<svg width="1654pt" height="775pt"
 viewBox="0.00 0.00 1654.39 775.00" xmlns="http://www.w3.org/2000/svg" xmlns:xlink="http://www.w3.org/1999/xlink">
<g id="graph0" class="graph" transform="scale(1 1) rotate(0) translate(4 771)">
<title>/__w/vulpes/vulpes/vulpes/geometry/cell.hpp</title>
<!-- Node1 -->
<g id="Node000001" class="node">
<title>Node1</title>
<g id="a_Node000001"><a xlink:title=" ">
<polygon fill="#999999" stroke="#666666" points="1124.89,-767 981.89,-767 981.89,-737 1124.89,-737 1124.89,-767"/>
<text text-anchor="start" x="989.89" y="-755" font-family="Helvetica,sans-Serif" font-size="10.00">/__w/vulpes/vulpes</text>
<text text-anchor="middle" x="1053.39" y="-744" font-family="Helvetica,sans-Serif" font-size="10.00">/vulpes/geometry/cell.hpp</text>
</a>
</g>
</g>
<!-- Node2 -->
<g id="Node000002" class="node">
<title>Node2</title>
<g id="a_Node000002"><a xlink:href="cell__manager_8hpp.html" target="_top" xlink:title=" ">
<polygon fill="white" stroke="#666666" points="1348.39,-569 1226.39,-569 1226.39,-528 1348.39,-528 1348.39,-569"/>
<text text-anchor="start" x="1234.39" y="-557" font-family="Helvetica,sans-Serif" font-size="10.00">/__w/vulpes/vulpes</text>
<text text-anchor="start" x="1234.39" y="-546" font-family="Helvetica,sans-Serif" font-size="10.00">/vulpes/assemble/cell</text>
<text text-anchor="middle" x="1287.39" y="-535" font-family="Helvetica,sans-Serif" font-size="10.00">_manager.hpp</text>
</a>
</g>
</g>
<!-- Node1&#45;&gt;Node2 -->
<g id="edge1_Node000001_Node000002" class="edge">
<title>Node1&#45;&gt;Node2</title>
<g id="a_edge1_Node000001_Node000002"><a xlink:title=" ">
<path fill="none" stroke="#63b8ff" d="M1035,-728.57C1023.93,-712.18 1013.69,-689.66 1023.39,-671 1046.93,-625.71 1071.74,-627.84 1117.39,-605 1136.82,-595.28 1185.85,-579.59 1226.28,-567.37"/>
<polygon fill="#63b8ff" stroke="#63b8ff" points="1032.41,-730.95 1041.12,-736.98 1038.07,-726.83 1032.41,-730.95"/>
</a>
</g>
</g>
<!-- Node9 -->
<g id="Node000009" class="node">
<title>Node9</title>
<g id="a_Node000009"><a xlink:href="dof__policy_8hpp.html" target="_top" xlink:title=" ">
<polygon fill="white" stroke="#666666" points="855.89,-701 718.89,-701 718.89,-671 855.89,-671 855.89,-701"/>
<text text-anchor="start" x="726.89" y="-689" font-family="Helvetica,sans-Serif" font-size="10.00">/__w/vulpes/vulpes</text>
<text text-anchor="middle" x="787.39" y="-678" font-family="Helvetica,sans-Serif" font-size="10.00">/vulpes/fe/dof_policy.hpp</text>
</a>
</g>
</g>
<!-- Node1&#45;&gt;Node9 -->
<g id="edge9_Node000001_Node000009" class="edge">
<title>Node1&#45;&gt;Node9</title>
<g id="a_edge9_Node000001_Node000009"><a xlink:title=" ">
<path fill="none" stroke="#63b8ff" d="M985.15,-734.58C941.97,-724.19 886.74,-710.9 845.63,-701.01"/>
<polygon fill="#63b8ff" stroke="#63b8ff" points="984.47,-738.02 995.01,-736.95 986.11,-731.21 984.47,-738.02"/>
</a>
</g>
</g>
<!-- Node10 -->
<g id="Node000010" class="node">
<title>Node10</title>
<g id="a_Node000010"><a xlink:href="fe__space_8hpp.html" target="_top" xlink:title=" ">
<polygon fill="white" stroke="#666666" points="644.39,-635 512.39,-635 512.39,-605 644.39,-605 644.39,-635"/>
<text text-anchor="start" x="520.39" y="-623" font-family="Helvetica,sans-Serif" font-size="10.00">/__w/vulpes/vulpes</text>
<text text-anchor="middle" x="578.39" y="-612" font-family="Helvetica,sans-Serif" font-size="10.00">/vulpes/fe/fe_space.hpp</text>
</a>
</g>
</g>
<!-- Node1&#45;&gt;Node10 -->
<g id="edge43_Node000001_Node000010" class="edge">
<title>Node1&#45;&gt;Node10</title>
<g id="a_edge43_Node000001_Node000010"><a xlink:title=" ">
<path fill="none" stroke="#63b8ff" d="M971.62,-748.35C900.47,-743.89 795.55,-732.09 709.39,-701 665.52,-685.17 620.41,-653.6 596.26,-635.21"/>
<polygon fill="#63b8ff" stroke="#63b8ff" points="971.67,-751.85 981.86,-748.95 972.09,-744.87 971.67,-751.85"/>
</a>
</g>
</g>
<!-- Node25 -->
<g id="Node000025" class="node">
<title>Node25</title>
<g id="a_Node000025"><a xlink:href="fe__values_8hpp.html" target="_top" xlink:title=" ">
<polygon fill="white" stroke="#666666" points="882.39,-563.5 746.39,-563.5 746.39,-533.5 882.39,-533.5 882.39,-563.5"/>
<text text-anchor="start" x="754.39" y="-551.5" font-family="Helvetica,sans-Serif" font-size="10.00">/__w/vulpes/vulpes</text>
<text text-anchor="middle" x="814.39" y="-540.5" font-family="Helvetica,sans-Serif" font-size="10.00">/vulpes/fe/fe_values.hpp</text>
</a>
</g>
</g>
<!-- Node1&#45;&gt;Node25 -->
<g id="edge44_Node000001_Node000025" class="edge">
<title>Node1&#45;&gt;Node25</title>
<g id="a_edge44_Node000001_Node000025"><a xlink:title=" ">
<path fill="none" stroke="#63b8ff" d="M1028.75,-730.22C980.05,-689.17 872.64,-598.61 831.18,-563.65"/>
<polygon fill="#63b8ff" stroke="#63b8ff" points="1026.68,-733.06 1036.58,-736.83 1031.19,-727.71 1026.68,-733.06"/>
</a>
</g>
</g>
<!-- Node26 -->
<g id="Node000026" class="node">
<title>Node26</title>
<g id="a_Node000026"><a xlink:href="cell_8cpp.html" target="_top" xlink:title=" ">
<polygon fill="white" stroke="#666666" points="1174.89,-701 1031.89,-701 1031.89,-671 1174.89,-671 1174.89,-701"/>
<text text-anchor="start" x="1039.89" y="-689" font-family="Helvetica,sans-Serif" font-size="10.00">/__w/vulpes/vulpes</text>
<text text-anchor="middle" x="1103.39" y="-678" font-family="Helvetica,sans-Serif" font-size="10.00">/vulpes/geometry/cell.cpp</text>
</a>
</g>
</g>
<!-- Node1&#45;&gt;Node26 -->
<g id="edge45_Node000001_Node000026" class="edge">
<title>Node1&#45;&gt;Node26</title>
<g id="a_edge45_Node000001_Node000026"><a xlink:title=" ">
<path fill="none" stroke="#63b8ff" d="M1070.73,-728.81C1077.89,-719.64 1085.98,-709.28 1092.32,-701.16"/>
<polygon fill="#63b8ff" stroke="#63b8ff" points="1067.88,-726.76 1064.49,-736.8 1073.4,-731.07 1067.88,-726.76"/>
</a>
</g>
</g>
<!-- Node27 -->
<g id="Node000027" class="node">
<title>Node27</title>
<g id="a_Node000027"><a xlink:href="frugal_8hpp.html" target="_top" xlink:title=" ">
<polygon fill="white" stroke="#666666" points="1286.89,-635 1125.89,-635 1125.89,-605 1286.89,-605 1286.89,-635"/>
<text text-anchor="start" x="1133.89" y="-623" font-family="Helvetica,sans-Serif" font-size="10.00">/__w/vulpes/vulpes</text>
<text text-anchor="middle" x="1206.39" y="-612" font-family="Helvetica,sans-Serif" font-size="10.00">/vulpes/quadrature/frugal.hpp</text>
</a>
</g>
</g>
<!-- Node1&#45;&gt;Node27 -->
<g id="edge46_Node000001_Node000027" class="edge">
<title>Node1&#45;&gt;Node27</title>
<g id="a_edge46_Node000001_Node000027"><a xlink:title=" ">
<path fill="none" stroke="#63b8ff" d="M1134.28,-733.5C1152.84,-726.14 1171.02,-715.72 1184.39,-701 1201.04,-682.66 1205.25,-652.85 1206.22,-635.26"/>
<polygon fill="#63b8ff" stroke="#63b8ff" points="1133.04,-730.23 1124.87,-736.98 1135.46,-736.8 1133.04,-730.23"/>
</a>
</g>
</g>
<!-- Node28 -->
<g id="Node000028" class="node">
<title>Node28</title>
<g id="a_Node000028"><a xlink:href="qfree_8hpp.html" target="_top" xlink:title=" ">
<polygon fill="white" stroke="#666666" points="1389.39,-701 1231.39,-701 1231.39,-671 1389.39,-671 1389.39,-701"/>
<text text-anchor="start" x="1239.39" y="-689" font-family="Helvetica,sans-Serif" font-size="10.00">/__w/vulpes/vulpes</text>
<text text-anchor="middle" x="1310.39" y="-678" font-family="Helvetica,sans-Serif" font-size="10.00">/vulpes/quadrature/qfree.hpp</text>
</a>
</g>
</g>
<!-- Node1&#45;&gt;Node28 -->
<g id="edge47_Node000001_Node000028" class="edge">
<title>Node1&#45;&gt;Node28</title>
<g id="a_edge47_Node000001_Node000028"><a xlink:title=" ">
<path fill="none" stroke="#63b8ff" d="M1113.85,-734.45C1154.39,-724.08 1207.57,-710.86 1248.43,-701.01"/>
<polygon fill="#63b8ff" stroke="#63b8ff" points="1112.91,-731.08 1104.09,-736.95 1114.65,-737.86 1112.91,-731.08"/>
</a>
</g>
</g>
<!-- Node3 -->
<g id="Node000003" class="node">
<title>Node3</title>
<g id="a_Node000003"><a xlink:href="integrator__base_8hpp.html" target="_top" xlink:title=" ">
<polygon fill="white" stroke="#666666" points="1152.89,-195 999.89,-195 999.89,-154 1152.89,-154 1152.89,-195"/>
<text text-anchor="start" x="1007.89" y="-183" font-family="Helvetica,sans-Serif" font-size="10.00">/__w/vulpes/vulpes</text>
<text text-anchor="start" x="1007.89" y="-172" font-family="Helvetica,sans-Serif" font-size="10.00">/vulpes/assemble/integrator</text>
<text text-anchor="middle" x="1076.39" y="-161" font-family="Helvetica,sans-Serif" font-size="10.00">_base.hpp</text>
</a>
</g>
</g>
<!-- Node2&#45;&gt;Node3 -->
<g id="edge2_Node000002_Node000003" class="edge">
<title>Node2&#45;&gt;Node3</title>
<g id="a_edge2_Node000002_Node000003"><a xlink:title=" ">
<path fill="none" stroke="#63b8ff" d="M1287.39,-517.8C1287.39,-487.16 1287.39,-437.99 1287.39,-395.5 1287.39,-395.5 1287.39,-395.5 1287.39,-322 1287.39,-254.44 1213.49,-215.53 1153.16,-195.03"/>
<polygon fill="#63b8ff" stroke="#63b8ff" points="1283.89,-517.82 1287.39,-527.82 1290.89,-517.82 1283.89,-517.82"/>
</a>
</g>
</g>
<!-- Node8 -->
<g id="Node000008" class="node">
<title>Node8</title>
<g id="a_Node000008"><a xlink:href="project__solution_8hpp.html" target="_top" xlink:title=" ">
<polygon fill="white" stroke="#666666" points="1259.39,-492 1131.39,-492 1131.39,-451 1259.39,-451 1259.39,-492"/>
<text text-anchor="start" x="1139.39" y="-480" font-family="Helvetica,sans-Serif" font-size="10.00">/__w/vulpes/vulpes</text>
<text text-anchor="start" x="1139.39" y="-469" font-family="Helvetica,sans-Serif" font-size="10.00">/vulpes/postprocessing</text>
<text text-anchor="middle" x="1195.39" y="-458" font-family="Helvetica,sans-Serif" font-size="10.00">/project_solution.hpp</text>
</a>
</g>
</g>
<!-- Node2&#45;&gt;Node8 -->
<g id="edge8_Node000002_Node000008" class="edge">
<title>Node2&#45;&gt;Node8</title>
<g id="a_edge8_Node000002_Node000008"><a xlink:title=" ">
<path fill="none" stroke="#63b8ff" d="M1255.31,-521.35C1243.51,-511.73 1230.36,-501.01 1219.4,-492.07"/>
<polygon fill="#63b8ff" stroke="#63b8ff" points="1253.25,-524.19 1263.22,-527.79 1257.68,-518.76 1253.25,-524.19"/>
</a>
</g>
</g>
<!-- Node4 -->
<g id="Node000004" class="node">
<title>Node4</title>
<g id="a_Node000004"><a xlink:href="integrator__gauss_8hpp.html" target="_top" xlink:title=" ">
<polygon fill="white" stroke="#666666" points="562.89,-118 409.89,-118 409.89,-77 562.89,-77 562.89,-118"/>
<text text-anchor="start" x="417.89" y="-106" font-family="Helvetica,sans-Serif" font-size="10.00">/__w/vulpes/vulpes</text>
<text text-anchor="start" x="417.89" y="-95" font-family="Helvetica,sans-Serif" font-size="10.00">/vulpes/assemble/integrator</text>
<text text-anchor="middle" x="486.39" y="-84" font-family="Helvetica,sans-Serif" font-size="10.00">_gauss.hpp</text>
</a>
</g>
</g>
<!-- Node3&#45;&gt;Node4 -->
<g id="edge3_Node000003_Node000004" class="edge">
<title>Node3&#45;&gt;Node4</title>
<g id="a_edge3_Node000003_Node000004"><a xlink:title=" ">
<path fill="none" stroke="#63b8ff" d="M989.68,-162.48C874.59,-147.85 673.15,-122.24 563.25,-108.27"/>
<polygon fill="#63b8ff" stroke="#63b8ff" points="989.5,-165.98 999.86,-163.77 990.38,-159.04 989.5,-165.98"/>
</a>
</g>
</g>
<!-- Node5 -->
<g id="Node000005" class="node">
<title>Node5</title>
<g id="a_Node000005"><a xlink:href="integrator__qfree_8hpp.html" target="_top" xlink:title=" ">
<polygon fill="white" stroke="#666666" points="1419.89,-118 1266.89,-118 1266.89,-77 1419.89,-77 1419.89,-118"/>
<text text-anchor="start" x="1274.89" y="-106" font-family="Helvetica,sans-Serif" font-size="10.00">/__w/vulpes/vulpes</text>
<text text-anchor="start" x="1274.89" y="-95" font-family="Helvetica,sans-Serif" font-size="10.00">/vulpes/assemble/integrator</text>
<text text-anchor="middle" x="1343.39" y="-84" font-family="Helvetica,sans-Serif" font-size="10.00">_qfree.hpp</text>
</a>
</g>
</g>
<!-- Node3&#45;&gt;Node5 -->
<g id="edge4_Node000003_Node000005" class="edge">
<title>Node3&#45;&gt;Node5</title>
<g id="a_edge4_Node000003_Node000005"><a xlink:title=" ">
<path fill="none" stroke="#63b8ff" d="M1155.73,-151.21C1193.24,-140.68 1237.63,-128.21 1273.82,-118.04"/>
<polygon fill="#63b8ff" stroke="#63b8ff" points="1154.52,-147.92 1145.84,-153.99 1156.42,-154.66 1154.52,-147.92"/>
</a>
</g>
</g>
<!-- Node7 -->
<g id="Node000007" class="node">
<title>Node7</title>
<g id="a_Node000007"><a xlink:href="integrator__simplexify_8hpp.html" target="_top" xlink:title=" ">
<polygon fill="white" stroke="#666666" points="1184.89,-118 1031.89,-118 1031.89,-77 1184.89,-77 1184.89,-118"/>
<text text-anchor="start" x="1039.89" y="-106" font-family="Helvetica,sans-Serif" font-size="10.00">/__w/vulpes/vulpes</text>
<text text-anchor="start" x="1039.89" y="-95" font-family="Helvetica,sans-Serif" font-size="10.00">/vulpes/assemble/integrator</text>
<text text-anchor="middle" x="1108.39" y="-84" font-family="Helvetica,sans-Serif" font-size="10.00">_simplexify.hpp</text>
</a>
</g>
</g>
<!-- Node3&#45;&gt;Node7 -->
<g id="edge6_Node000003_Node000007" class="edge">
<title>Node3&#45;&gt;Node7</title>
<g id="a_edge6_Node000003_Node000007"><a xlink:title=" ">
<path fill="none" stroke="#63b8ff" d="M1088.74,-144.55C1092.52,-135.69 1096.59,-126.15 1100.04,-118.07"/>
<polygon fill="#63b8ff" stroke="#63b8ff" points="1085.5,-143.22 1084.8,-153.79 1091.94,-145.97 1085.5,-143.22"/>
</a>
</g>
</g>
<!-- Node6 -->
<g id="Node000006" class="node">
<title>Node6</title>
<g id="a_Node000006"><a xlink:href="integrator__vem_8hpp.html" target="_top" xlink:title=" ">
<polygon fill="white" stroke="#666666" points="1301.89,-41 1148.89,-41 1148.89,0 1301.89,0 1301.89,-41"/>
<text text-anchor="start" x="1156.89" y="-29" font-family="Helvetica,sans-Serif" font-size="10.00">/__w/vulpes/vulpes</text>
<text text-anchor="start" x="1156.89" y="-18" font-family="Helvetica,sans-Serif" font-size="10.00">/vulpes/assemble/integrator</text>
<text text-anchor="middle" x="1225.39" y="-7" font-family="Helvetica,sans-Serif" font-size="10.00">_vem.hpp</text>
</a>
</g>
</g>
<!-- Node5&#45;&gt;Node6 -->
<g id="edge5_Node000005_Node000006" class="edge">
<title>Node5&#45;&gt;Node6</title>
<g id="a_edge5_Node000005_Node000006"><a xlink:title=" ">
<path fill="none" stroke="#63b8ff" d="M1303.85,-71.37C1288.37,-61.53 1270.87,-50.41 1256.34,-41.17"/>
<polygon fill="#63b8ff" stroke="#63b8ff" points="1302.38,-74.58 1312.69,-76.99 1306.13,-68.67 1302.38,-74.58"/>
</a>
</g>
</g>
<!-- Node7&#45;&gt;Node6 -->
<g id="edge7_Node000007_Node000006" class="edge">
<title>Node7&#45;&gt;Node6</title>
<g id="a_edge7_Node000007_Node000006"><a xlink:title=" ">
<path fill="none" stroke="#63b8ff" d="M1147.59,-71.37C1162.94,-61.53 1180.29,-50.41 1194.7,-41.17"/>
<polygon fill="#63b8ff" stroke="#63b8ff" points="1145.35,-68.65 1138.82,-76.99 1149.13,-74.54 1145.35,-68.65"/>
</a>
</g>
</g>
<!-- Node9&#45;&gt;Node10 -->
<g id="edge10_Node000009_Node000010" class="edge">
<title>Node9&#45;&gt;Node10</title>
<g id="a_edge10_Node000009_Node000010"><a xlink:title=" ">
<path fill="none" stroke="#63b8ff" d="M731.84,-667.99C698.21,-657.69 655.84,-644.72 624.15,-635.01"/>
<polygon fill="#63b8ff" stroke="#63b8ff" points="730.94,-671.37 741.52,-670.95 732.99,-664.68 730.94,-671.37"/>
</a>
</g>
</g>
<!-- Node10&#45;&gt;Node4 -->
<g id="edge11_Node000010_Node000004" class="edge">
<title>Node10&#45;&gt;Node4</title>
<g id="a_edge11_Node000010_Node000004"><a xlink:title=" ">
<path fill="none" stroke="#63b8ff" d="M502.3,-616.94C359.33,-612.37 61.75,-599.31 26.39,-569 -7.17,-540.24 2.39,-516.7 2.39,-472.5 2.39,-472.5 2.39,-472.5 2.39,-250.5 2.39,-206.3 -6.73,-183.26 26.39,-154 81.63,-105.2 293.49,-97.83 409.44,-97.58"/>
<polygon fill="#63b8ff" stroke="#63b8ff" points="502.21,-620.44 512.32,-617.25 502.43,-613.44 502.21,-620.44"/>
</a>
</g>
</g>
<!-- Node10&#45;&gt;Node5 -->
<g id="edge12_Node000010_Node000005" class="edge">
<title>Node10&#45;&gt;Node5</title>
<g id="a_edge12_Node000010_Node000005"><a xlink:title=" ">
<path fill="none" stroke="#63b8ff" d="M654.74,-616.6C845.82,-610.25 1331.24,-591.94 1357.39,-569 1390.24,-540.17 1376.39,-516.21 1376.39,-472.5 1376.39,-472.5 1376.39,-472.5 1376.39,-250.5 1376.39,-202.16 1360.25,-147.11 1350.55,-118.36"/>
<polygon fill="#63b8ff" stroke="#63b8ff" points="654.38,-613.11 644.5,-616.93 654.61,-620.1 654.38,-613.11"/>
</a>
</g>
</g>
<!-- Node10&#45;&gt;Node7 -->
<g id="edge13_Node000010_Node000007" class="edge">
<title>Node10&#45;&gt;Node7</title>
<g id="a_edge13_Node000010_Node000007"><a xlink:title=" ">
<path fill="none" stroke="#63b8ff" d="M501.94,-618.14C422.18,-615.19 294.47,-604.63 190.39,-569 115.39,-543.33 40.39,-551.77 40.39,-472.5 40.39,-472.5 40.39,-472.5 40.39,-250.5 40.39,-150.3 786.7,-111.41 1031.58,-101.34"/>
<polygon fill="#63b8ff" stroke="#63b8ff" points="502.27,-621.65 512.39,-618.49 502.51,-614.65 502.27,-621.65"/>
</a>
</g>
</g>
<!-- Node11 -->
<g id="Node000011" class="node">
<title>Node11</title>
<g id="a_Node000011"><a xlink:href="dof__handler_8hpp.html" target="_top" xlink:title=" ">
<polygon fill="white" stroke="#666666" points="1057.89,-563.5 900.89,-563.5 900.89,-533.5 1057.89,-533.5 1057.89,-563.5"/>
<text text-anchor="start" x="908.89" y="-551.5" font-family="Helvetica,sans-Serif" font-size="10.00">/__w/vulpes/vulpes</text>
<text text-anchor="middle" x="979.39" y="-540.5" font-family="Helvetica,sans-Serif" font-size="10.00">/vulpes/dofs/dof_handler.hpp</text>
</a>
</g>
</g>
<!-- Node10&#45;&gt;Node11 -->
<g id="edge14_Node000010_Node000011" class="edge">
<title>Node10&#45;&gt;Node11</title>
<g id="a_edge14_Node000010_Node000011"><a xlink:title=" ">
<path fill="none" stroke="#63b8ff" d="M654.47,-608.14C717.99,-598.77 810.83,-584.35 891.39,-569 900.15,-567.33 909.37,-565.44 918.42,-563.5"/>
<polygon fill="#63b8ff" stroke="#63b8ff" points="653.92,-604.69 644.54,-609.6 654.94,-611.61 653.92,-604.69"/>
</a>
</g>
</g>
<!-- Node13 -->
<g id="Node000013" class="node">
<title>Node13</title>
<g id="a_Node000013"><a xlink:href="fe__expr__base_8hpp.html" target="_top" xlink:title=" ">
<polygon fill="white" stroke="#666666" points="755.89,-492 614.89,-492 614.89,-451 755.89,-451 755.89,-492"/>
<text text-anchor="start" x="622.89" y="-480" font-family="Helvetica,sans-Serif" font-size="10.00">/__w/vulpes/vulpes</text>
<text text-anchor="start" x="622.89" y="-469" font-family="Helvetica,sans-Serif" font-size="10.00">/vulpes/fe/fe_expressions</text>
<text text-anchor="middle" x="685.39" y="-458" font-family="Helvetica,sans-Serif" font-size="10.00">/fe_expr_base.hpp</text>
</a>
</g>
</g>
<!-- Node10&#45;&gt;Node13 -->
<g id="edge17_Node000010_Node000013" class="edge">
<title>Node10&#45;&gt;Node13</title>
<g id="a_edge17_Node000010_Node000013"><a xlink:title=" ">
<path fill="none" stroke="#63b8ff" d="M578.41,-594.48C579.55,-574.9 583.78,-547.59 597.39,-528 607.9,-512.87 624,-500.98 639.58,-492.16"/>
<polygon fill="#63b8ff" stroke="#63b8ff" points="574.9,-594.61 578.05,-604.73 581.9,-594.86 574.9,-594.61"/>
</a>
</g>
</g>
<!-- Node16 -->
<g id="Node000016" class="node">
<title>Node16</title>
<g id="a_Node000016"><a xlink:href="fe__vem_8hpp.html" target="_top" xlink:title=" ">
<polygon fill="white" stroke="#666666" points="598.39,-272 482.39,-272 482.39,-231 598.39,-231 598.39,-272"/>
<text text-anchor="start" x="490.39" y="-260" font-family="Helvetica,sans-Serif" font-size="10.00">/__w/vulpes/vulpes</text>
<text text-anchor="start" x="490.39" y="-249" font-family="Helvetica,sans-Serif" font-size="10.00">/vulpes/fe/fe_spaces</text>
<text text-anchor="middle" x="540.39" y="-238" font-family="Helvetica,sans-Serif" font-size="10.00">/fe_vem.hpp</text>
</a>
</g>
</g>
<!-- Node10&#45;&gt;Node16 -->
<g id="edge37_Node000010_Node000016" class="edge">
<title>Node10&#45;&gt;Node16</title>
<g id="a_edge37_Node000010_Node000016"><a xlink:title=" ">
<path fill="none" stroke="#63b8ff" d="M574.12,-594.8C567.21,-560.48 551.12,-496.77 520.39,-451 506.87,-430.87 489.39,-437.09 479.39,-415 456.58,-364.63 497.81,-302.98 522.99,-272.1"/>
<polygon fill="#63b8ff" stroke="#63b8ff" points="570.73,-595.69 576.05,-604.85 577.6,-594.37 570.73,-595.69"/>
</a>
</g>
</g>
<!-- Node20 -->
<g id="Node000020" class="node">
<title>Node20</title>
<g id="a_Node000020"><a xlink:href="fe__lagrange__simplex_8hpp.html" target="_top" xlink:title=" ">
<polygon fill="white" stroke="#666666" points="410.89,-569 267.89,-569 267.89,-528 410.89,-528 410.89,-569"/>
<text text-anchor="start" x="275.89" y="-557" font-family="Helvetica,sans-Serif" font-size="10.00">/__w/vulpes/vulpes</text>
<text text-anchor="start" x="275.89" y="-546" font-family="Helvetica,sans-Serif" font-size="10.00">/vulpes/fe/fe_spaces</text>
<text text-anchor="middle" x="339.39" y="-535" font-family="Helvetica,sans-Serif" font-size="10.00">/fe_lagrange_simplex.hpp</text>
</a>
</g>
</g>
<!-- Node10&#45;&gt;Node20 -->
<g id="edge30_Node000010_Node000020" class="edge">
<title>Node10&#45;&gt;Node20</title>
<g id="a_edge30_Node000010_Node000020"><a xlink:title=" ">
<path fill="none" stroke="#63b8ff" d="M520.16,-602.07C485.9,-592.11 442.43,-579.46 406.7,-569.07"/>
<polygon fill="#63b8ff" stroke="#63b8ff" points="519.44,-605.5 530.02,-604.94 521.4,-598.78 519.44,-605.5"/>
</a>
</g>
</g>
<!-- Node22 -->
<g id="Node000022" class="node">
<title>Node22</title>
<g id="a_Node000022"><a xlink:href="fe__lagrange__tensor_8hpp.html" target="_top" xlink:title=" ">
<polygon fill="white" stroke="#666666" points="202.39,-492 68.39,-492 68.39,-451 202.39,-451 202.39,-492"/>
<text text-anchor="start" x="76.39" y="-480" font-family="Helvetica,sans-Serif" font-size="10.00">/__w/vulpes/vulpes</text>
<text text-anchor="start" x="76.39" y="-469" font-family="Helvetica,sans-Serif" font-size="10.00">/vulpes/fe/fe_spaces</text>
<text text-anchor="middle" x="135.39" y="-458" font-family="Helvetica,sans-Serif" font-size="10.00">/fe_lagrange_tensor.hpp</text>
</a>
</g>
</g>
<!-- Node10&#45;&gt;Node22 -->
<g id="edge34_Node000010_Node000022" class="edge">
<title>Node10&#45;&gt;Node22</title>
<g id="a_edge34_Node000010_Node000022"><a xlink:title=" ">
<path fill="none" stroke="#63b8ff" d="M502.23,-617.85C435.43,-614.38 336.99,-603.17 258.39,-569 216.32,-550.71 176.19,-514.51 153.78,-492.02"/>
<polygon fill="#63b8ff" stroke="#63b8ff" points="502.1,-621.35 512.26,-618.33 502.44,-614.36 502.1,-621.35"/>
</a>
</g>
</g>
<!-- Node23 -->
<g id="Node000023" class="node">
<title>Node23</title>
<g id="a_Node000023"><a xlink:href="fe__modal__simplex_8hpp.html" target="_top" xlink:title=" ">
<polygon fill="white" stroke="#666666" points="511.89,-492 380.89,-492 380.89,-451 511.89,-451 511.89,-492"/>
<text text-anchor="start" x="388.89" y="-480" font-family="Helvetica,sans-Serif" font-size="10.00">/__w/vulpes/vulpes</text>
<text text-anchor="start" x="388.89" y="-469" font-family="Helvetica,sans-Serif" font-size="10.00">/vulpes/fe/fe_spaces</text>
<text text-anchor="middle" x="446.39" y="-458" font-family="Helvetica,sans-Serif" font-size="10.00">/fe_modal_simplex.hpp</text>
</a>
</g>
</g>
<!-- Node10&#45;&gt;Node23 -->
<g id="edge35_Node000010_Node000023" class="edge">
<title>Node10&#45;&gt;Node23</title>
<g id="a_edge35_Node000010_Node000023"><a xlink:title=" ">
<path fill="none" stroke="#63b8ff" d="M555.53,-598.08C546.25,-589.32 535.58,-578.89 526.39,-569 502.69,-543.49 477.36,-512.17 461.7,-492.27"/>
<polygon fill="#63b8ff" stroke="#63b8ff" points="553.23,-600.72 562.93,-604.99 558.01,-595.61 553.23,-600.72"/>
</a>
</g>
</g>
<!-- Node24 -->
<g id="Node000024" class="node">
<title>Node24</title>
<g id="a_Node000024"><a xlink:href="fe__modal__tensor_8hpp.html" target="_top" xlink:title=" ">
<polygon fill="white" stroke="#666666" points="728.39,-569 606.39,-569 606.39,-528 728.39,-528 728.39,-569"/>
<text text-anchor="start" x="614.39" y="-557" font-family="Helvetica,sans-Serif" font-size="10.00">/__w/vulpes/vulpes</text>
<text text-anchor="start" x="614.39" y="-546" font-family="Helvetica,sans-Serif" font-size="10.00">/vulpes/fe/fe_spaces</text>
<text text-anchor="middle" x="667.39" y="-535" font-family="Helvetica,sans-Serif" font-size="10.00">/fe_modal_tensor.hpp</text>
</a>
</g>
</g>
<!-- Node10&#45;&gt;Node24 -->
<g id="edge36_Node000010_Node000024" class="edge">
<title>Node10&#45;&gt;Node24</title>
<g id="a_edge36_Node000010_Node000024"><a xlink:title=" ">
<path fill="none" stroke="#63b8ff" d="M604.29,-598.77C616.27,-589.42 630.45,-578.35 642.32,-569.07"/>
<polygon fill="#63b8ff" stroke="#63b8ff" points="602.13,-596.02 596.4,-604.94 606.43,-601.54 602.13,-596.02"/>
</a>
</g>
</g>
<!-- Node10&#45;&gt;Node25 -->
<g id="edge38_Node000010_Node000025" class="edge">
<title>Node10&#45;&gt;Node25</title>
<g id="a_edge38_Node000010_Node000025"><a xlink:title=" ">
<path fill="none" stroke="#63b8ff" d="M635.8,-602.09C675.93,-590.28 728.89,-574.68 766.7,-563.54"/>
<polygon fill="#63b8ff" stroke="#63b8ff" points="634.75,-598.75 626.15,-604.94 636.73,-605.47 634.75,-598.75"/>
</a>
</g>
</g>
<!-- Node11&#45;&gt;Node8 -->
<g id="edge16_Node000011_Node000008" class="edge">
<title>Node11&#45;&gt;Node8</title>
<g id="a_edge16_Node000011_Node000008"><a xlink:title=" ">
<path fill="none" stroke="#63b8ff" d="M1029.57,-530.08C1062.28,-518.72 1105.02,-503.88 1138.92,-492.11"/>
<polygon fill="#63b8ff" stroke="#63b8ff" points="1028.06,-526.89 1019.76,-533.48 1030.36,-533.51 1028.06,-526.89"/>
</a>
</g>
</g>
<!-- Node12 -->
<g id="Node000012" class="node">
<title>Node12</title>
<g id="a_Node000012"><a xlink:href="dg__utils_8hpp.html" target="_top" xlink:title=" ">
<polygon fill="white" stroke="#666666" points="1047.89,-272 930.89,-272 930.89,-231 1047.89,-231 1047.89,-272"/>
<text text-anchor="start" x="938.89" y="-260" font-family="Helvetica,sans-Serif" font-size="10.00">/__w/vulpes/vulpes</text>
<text text-anchor="start" x="938.89" y="-249" font-family="Helvetica,sans-Serif" font-size="10.00">/vulpes/assemble/dg</text>
<text text-anchor="middle" x="989.39" y="-238" font-family="Helvetica,sans-Serif" font-size="10.00">_utils.hpp</text>
</a>
</g>
</g>
<!-- Node11&#45;&gt;Node12 -->
<g id="edge15_Node000011_Node000012" class="edge">
<title>Node11&#45;&gt;Node12</title>
<g id="a_edge15_Node000011_Node000012"><a xlink:title=" ">
<path fill="none" stroke="#63b8ff" d="M1011.79,-527.12C1023.39,-517.95 1035.13,-506.01 1041.39,-492 1075.68,-415.28 1026.11,-314.39 1001.67,-272.29"/>
<polygon fill="#63b8ff" stroke="#63b8ff" points="1009.41,-524.54 1003.46,-533.3 1013.58,-530.16 1009.41,-524.54"/>
</a>
</g>
</g>
<!-- Node14 -->
<g id="Node000014" class="node">
<title>Node14</title>
<g id="a_Node000014"><a xlink:href="fe__expression_8hpp.html" target="_top" xlink:title=" ">
<polygon fill="white" stroke="#666666" points="809.89,-338 652.89,-338 652.89,-308 809.89,-308 809.89,-338"/>
<text text-anchor="start" x="660.89" y="-326" font-family="Helvetica,sans-Serif" font-size="10.00">/__w/vulpes/vulpes</text>
<text text-anchor="middle" x="731.39" y="-315" font-family="Helvetica,sans-Serif" font-size="10.00">/vulpes/fe/fe_expression.hpp</text>
</a>
</g>
</g>
<!-- Node13&#45;&gt;Node14 -->
<g id="edge18_Node000013_Node000014" class="edge">
<title>Node13&#45;&gt;Node14</title>
<g id="a_edge18_Node000013_Node000014"><a xlink:title=" ">
<path fill="none" stroke="#63b8ff" d="M604.83,-458.91C536.57,-445.69 455.24,-419.73 492.39,-374 512.44,-349.32 591.04,-336.4 652.71,-329.93"/>
<polygon fill="#63b8ff" stroke="#63b8ff" points="604.32,-462.38 614.79,-460.77 605.6,-455.5 604.32,-462.38"/>
</a>
</g>
</g>
<!-- Node17 -->
<g id="Node000017" class="node">
<title>Node17</title>
<g id="a_Node000017"><a xlink:href="fe__expr__basis_8hpp.html" target="_top" xlink:title=" ">
<polygon fill="white" stroke="#666666" points="642.89,-415 501.89,-415 501.89,-374 642.89,-374 642.89,-415"/>
<text text-anchor="start" x="509.89" y="-403" font-family="Helvetica,sans-Serif" font-size="10.00">/__w/vulpes/vulpes</text>
<text text-anchor="start" x="509.89" y="-392" font-family="Helvetica,sans-Serif" font-size="10.00">/vulpes/fe/fe_expressions</text>
<text text-anchor="middle" x="572.39" y="-381" font-family="Helvetica,sans-Serif" font-size="10.00">/fe_expr_basis.hpp</text>
</a>
</g>
</g>
<!-- Node13&#45;&gt;Node17 -->
<g id="edge24_Node000013_Node000017" class="edge">
<title>Node13&#45;&gt;Node17</title>
<g id="a_edge24_Node000013_Node000017"><a xlink:title=" ">
<path fill="none" stroke="#63b8ff" d="M647.52,-445.37C632.7,-435.53 615.95,-424.41 602.03,-415.17"/>
<polygon fill="#63b8ff" stroke="#63b8ff" points="645.73,-448.38 655.99,-450.99 649.6,-442.54 645.73,-448.38"/>
</a>
</g>
</g>
<!-- Node18 -->
<g id="Node000018" class="node">
<title>Node18</title>
<g id="a_Node000018"><a xlink:href="fe__expr__func_8hpp.html" target="_top" xlink:title=" ">
<polygon fill="white" stroke="#666666" points="801.89,-415 660.89,-415 660.89,-374 801.89,-374 801.89,-415"/>
<text text-anchor="start" x="668.89" y="-403" font-family="Helvetica,sans-Serif" font-size="10.00">/__w/vulpes/vulpes</text>
<text text-anchor="start" x="668.89" y="-392" font-family="Helvetica,sans-Serif" font-size="10.00">/vulpes/fe/fe_expressions</text>
<text text-anchor="middle" x="731.39" y="-381" font-family="Helvetica,sans-Serif" font-size="10.00">/fe_expr_func.hpp</text>
</a>
</g>
</g>
<!-- Node13&#45;&gt;Node18 -->
<g id="edge26_Node000013_Node000018" class="edge">
<title>Node13&#45;&gt;Node18</title>
<g id="a_edge26_Node000013_Node000018"><a xlink:title=" ">
<path fill="none" stroke="#63b8ff" d="M702.8,-442.11C708.33,-433.09 714.32,-423.33 719.38,-415.07"/>
<polygon fill="#63b8ff" stroke="#63b8ff" points="699.72,-440.44 697.47,-450.79 705.69,-444.1 699.72,-440.44"/>
</a>
</g>
</g>
<!-- Node19 -->
<g id="Node000019" class="node">
<title>Node19</title>
<g id="a_Node000019"><a xlink:href="fe__expr__op_8hpp.html" target="_top" xlink:title=" ">
<polygon fill="white" stroke="#666666" points="960.89,-415 819.89,-415 819.89,-374 960.89,-374 960.89,-415"/>
<text text-anchor="start" x="827.89" y="-403" font-family="Helvetica,sans-Serif" font-size="10.00">/__w/vulpes/vulpes</text>
<text text-anchor="start" x="827.89" y="-392" font-family="Helvetica,sans-Serif" font-size="10.00">/vulpes/fe/fe_expressions</text>
<text text-anchor="middle" x="890.39" y="-381" font-family="Helvetica,sans-Serif" font-size="10.00">/fe_expr_op.hpp</text>
</a>
</g>
</g>
<!-- Node13&#45;&gt;Node19 -->
<g id="edge28_Node000013_Node000019" class="edge">
<title>Node13&#45;&gt;Node19</title>
<g id="a_edge28_Node000013_Node000019"><a xlink:title=" ">
<path fill="none" stroke="#63b8ff" d="M748.15,-447.54C776.56,-437.15 809.78,-424.99 836.97,-415.04"/>
<polygon fill="#63b8ff" stroke="#63b8ff" points="746.9,-444.27 738.71,-450.99 749.31,-450.84 746.9,-444.27"/>
</a>
</g>
</g>
<!-- Node14&#45;&gt;Node3 -->
<g id="edge20_Node000014_Node000003" class="edge">
<title>Node14&#45;&gt;Node3</title>
<g id="a_edge20_Node000014_Node000003"><a xlink:title=" ">
<path fill="none" stroke="#63b8ff" d="M729.5,-297.46C729.35,-276.81 732.75,-247.99 750.39,-231 785.12,-197.54 914.66,-184.09 999.62,-178.8"/>
<polygon fill="#63b8ff" stroke="#63b8ff" points="726.01,-297.83 729.86,-307.69 733.01,-297.58 726.01,-297.83"/>
</a>
</g>
</g>
<!-- Node14&#45;&gt;Node12 -->
<g id="edge19_Node000014_Node000012" class="edge">
<title>Node14&#45;&gt;Node12</title>
<g id="a_edge19_Node000014_Node000012"><a xlink:title=" ">
<path fill="none" stroke="#63b8ff" d="M796.8,-305.35C833.74,-295.82 880.71,-283.52 922.39,-272 925.07,-271.26 927.82,-270.49 930.59,-269.71"/>
<polygon fill="#63b8ff" stroke="#63b8ff" points="795.47,-302.07 786.66,-307.95 797.22,-308.85 795.47,-302.07"/>
</a>
</g>
</g>
<!-- Node15 -->
<g id="Node000015" class="node">
<title>Node15</title>
<g id="a_Node000015"><a xlink:href="integrator__traits_8hpp.html" target="_top" xlink:title=" ">
<polygon fill="white" stroke="#666666" points="912.89,-272 759.89,-272 759.89,-231 912.89,-231 912.89,-272"/>
<text text-anchor="start" x="767.89" y="-260" font-family="Helvetica,sans-Serif" font-size="10.00">/__w/vulpes/vulpes</text>
<text text-anchor="start" x="767.89" y="-249" font-family="Helvetica,sans-Serif" font-size="10.00">/vulpes/assemble/integrator</text>
<text text-anchor="middle" x="836.39" y="-238" font-family="Helvetica,sans-Serif" font-size="10.00">_traits.hpp</text>
</a>
</g>
</g>
<!-- Node14&#45;&gt;Node15 -->
<g id="edge21_Node000014_Node000015" class="edge">
<title>Node14&#45;&gt;Node15</title>
<g id="a_edge21_Node000014_Node000015"><a xlink:title=" ">
<path fill="none" stroke="#63b8ff" d="M761.13,-302.31C775.44,-292.84 792.54,-281.53 806.82,-272.07"/>
<polygon fill="#63b8ff" stroke="#63b8ff" points="759.04,-299.5 752.64,-307.94 762.91,-305.33 759.04,-299.5"/>
</a>
</g>
</g>
<!-- Node14&#45;&gt;Node16 -->
<g id="edge23_Node000014_Node000016" class="edge">
<title>Node14&#45;&gt;Node16</title>
<g id="a_edge23_Node000014_Node000016"><a xlink:title=" ">
<path fill="none" stroke="#63b8ff" d="M683.08,-304.42C655.99,-294.56 622.12,-282.24 594.18,-272.07"/>
<polygon fill="#63b8ff" stroke="#63b8ff" points="682.14,-307.81 692.74,-307.94 684.54,-301.23 682.14,-307.81"/>
</a>
</g>
</g>
<!-- Node15&#45;&gt;Node3 -->
<g id="edge22_Node000015_Node000003" class="edge">
<title>Node15&#45;&gt;Node3</title>
<g id="a_edge22_Node000015_Node000003"><a xlink:title=" ">
<path fill="none" stroke="#63b8ff" d="M908.56,-227.94C942.1,-217.46 981.6,-205.12 1013.85,-195.04"/>
<polygon fill="#63b8ff" stroke="#63b8ff" points="907.32,-224.67 898.82,-230.99 909.41,-231.35 907.32,-224.67"/>
</a>
</g>
</g>
<!-- Node17&#45;&gt;Node14 -->
<g id="edge25_Node000017_Node000014" class="edge">
<title>Node17&#45;&gt;Node14</title>
<g id="a_edge25_Node000017_Node000014"><a xlink:title=" ">
<path fill="none" stroke="#63b8ff" d="M626.51,-369.85C650.64,-359.3 678.26,-347.22 699.1,-338.11"/>
<polygon fill="#63b8ff" stroke="#63b8ff" points="624.86,-366.74 617.1,-373.96 627.67,-373.16 624.86,-366.74"/>
</a>
</g>
</g>
<!-- Node18&#45;&gt;Node14 -->
<g id="edge27_Node000018_Node000014" class="edge">
<title>Node18&#45;&gt;Node14</title>
<g id="a_edge27_Node000018_Node000014"><a xlink:title=" ">
<path fill="none" stroke="#63b8ff" d="M731.39,-363.66C731.39,-354.76 731.39,-345.42 731.39,-338.04"/>
<polygon fill="#63b8ff" stroke="#63b8ff" points="727.89,-363.77 731.39,-373.77 734.89,-363.77 727.89,-363.77"/>
</a>
</g>
</g>
<!-- Node19&#45;&gt;Node14 -->
<g id="edge29_Node000019_Node000014" class="edge">
<title>Node19&#45;&gt;Node14</title>
<g id="a_edge29_Node000019_Node000014"><a xlink:title=" ">
<path fill="none" stroke="#63b8ff" d="M836.27,-369.85C812.14,-359.3 784.51,-347.22 763.68,-338.11"/>
<polygon fill="#63b8ff" stroke="#63b8ff" points="835.11,-373.16 845.67,-373.96 837.91,-366.74 835.11,-373.16"/>
</a>
</g>
</g>
<!-- Node21 -->
<g id="Node000021" class="node">
<title>Node21</title>
<g id="a_Node000021"><a xlink:href="fe__lagrange__simplex_8cpp.html" target="_top" xlink:title=" ">
<polygon fill="white" stroke="#666666" points="362.39,-492 220.39,-492 220.39,-451 362.39,-451 362.39,-492"/>
<text text-anchor="start" x="228.39" y="-480" font-family="Helvetica,sans-Serif" font-size="10.00">/__w/vulpes/vulpes</text>
<text text-anchor="start" x="228.39" y="-469" font-family="Helvetica,sans-Serif" font-size="10.00">/vulpes/fe/fe_spaces</text>
<text text-anchor="middle" x="291.39" y="-458" font-family="Helvetica,sans-Serif" font-size="10.00">/fe_lagrange_simplex.cpp</text>
</a>
</g>
</g>
<!-- Node20&#45;&gt;Node21 -->
<g id="edge31_Node000020_Node000021" class="edge">
<title>Node20&#45;&gt;Node21</title>
<g id="a_edge31_Node000020_Node000021"><a xlink:title=" ">
<path fill="none" stroke="#63b8ff" d="M321.22,-519.11C315.45,-510.09 309.2,-500.33 303.92,-492.07"/>
<polygon fill="#63b8ff" stroke="#63b8ff" points="318.44,-521.26 326.78,-527.79 324.33,-517.49 318.44,-521.26"/>
</a>
</g>
</g>
<!-- Node20&#45;&gt;Node22 -->
<g id="edge32_Node000020_Node000022" class="edge">
<title>Node20&#45;&gt;Node22</title>
<g id="a_edge32_Node000020_Node000022"><a xlink:title=" ">
<path fill="none" stroke="#63b8ff" d="M276.94,-524.54C248.67,-514.15 215.6,-501.99 188.54,-492.04"/>
<polygon fill="#63b8ff" stroke="#63b8ff" points="275.73,-527.82 286.32,-527.99 278.14,-521.25 275.73,-527.82"/>
</a>
</g>
</g>
<!-- Node20&#45;&gt;Node23 -->
<g id="edge33_Node000020_Node000023" class="edge">
<title>Node20&#45;&gt;Node23</title>
<g id="a_edge33_Node000020_Node000023"><a xlink:title=" ">
<path fill="none" stroke="#63b8ff" d="M375.64,-522.09C389.58,-512.32 405.27,-501.32 418.32,-492.17"/>
<polygon fill="#63b8ff" stroke="#63b8ff" points="373.4,-519.38 367.22,-527.99 377.42,-525.12 373.4,-519.38"/>
</a>
</g>
</g>
<!-- Node25&#45;&gt;Node3 -->
<g id="edge40_Node000025_Node000003" class="edge">
<title>Node25&#45;&gt;Node3</title>
<g id="a_edge40_Node000025_Node000003"><a xlink:title=" ">
<path fill="none" stroke="#63b8ff" d="M873.99,-529.91C896.59,-521.14 921.42,-508.76 940.39,-492 1034.06,-409.24 1065.43,-250.66 1073.79,-195.22"/>
<polygon fill="#63b8ff" stroke="#63b8ff" points="872.62,-526.69 864.47,-533.45 875.06,-533.25 872.62,-526.69"/>
</a>
</g>
</g>
<!-- Node25&#45;&gt;Node12 -->
<g id="edge39_Node000025_Node000012" class="edge">
<title>Node25&#45;&gt;Node12</title>
<g id="a_edge39_Node000025_Node000012"><a xlink:title=" ">
<path fill="none" stroke="#63b8ff" d="M849.94,-528.22C886.85,-506.13 942.95,-466.26 970.39,-415 995.26,-368.55 994.06,-304.09 991.52,-272.12"/>
<polygon fill="#63b8ff" stroke="#63b8ff" points="847.86,-525.38 841,-533.45 851.4,-531.42 847.86,-525.38"/>
</a>
</g>
</g>
<!-- Node25&#45;&gt;Node13 -->
<g id="edge42_Node000025_Node000013" class="edge">
<title>Node25&#45;&gt;Node13</title>
<g id="a_edge42_Node000025_Node000013"><a xlink:title=" ">
<path fill="none" stroke="#63b8ff" d="M781.48,-528.37C762.43,-517.29 738.49,-503.38 719.28,-492.2"/>
<polygon fill="#63b8ff" stroke="#63b8ff" points="779.72,-531.39 790.12,-533.39 783.24,-525.34 779.72,-531.39"/>
</a>
</g>
</g>
<!-- Node25&#45;&gt;Node15 -->
<g id="edge41_Node000025_Node000015" class="edge">
<title>Node25&#45;&gt;Node15</title>
<g id="a_edge41_Node000025_Node000015"><a xlink:title=" ">
<path fill="none" stroke="#63b8ff" d="M852.09,-528.26C889.99,-506.55 946.18,-467.32 970.39,-415 997.72,-355.93 922.26,-300.44 873.74,-272.11"/>
<polygon fill="#63b8ff" stroke="#63b8ff" points="849.9,-525.47 842.88,-533.4 853.31,-531.58 849.9,-525.47"/>
</a>
</g>
</g>
<!-- Node28&#45;&gt;Node1 -->
<g id="edge49_Node000028_Node000001" class="edge">
<title>Node28&#45;&gt;Node1</title>
<g id="a_edge49_Node000028_Node000001"><a xlink:title=" ">
<path fill="none" stroke="#63b8ff" d="M1250.07,-703.51C1209.55,-713.88 1156.37,-727.1 1115.49,-736.95"/>
<polygon fill="#63b8ff" stroke="#63b8ff" points="1251,-706.89 1259.82,-701.01 1249.26,-700.11 1251,-706.89"/>
</a>
</g>
</g>
<!-- Node28&#45;&gt;Node5 -->
<g id="edge48_Node000028_Node000005" class="edge">
<title>Node28&#45;&gt;Node5</title>
<g id="a_edge48_Node000028_Node000005"><a xlink:title=" ">
<path fill="none" stroke="#63b8ff" d="M1392.93,-668.78C1492.41,-646.81 1646.39,-604 1646.39,-549.5 1646.39,-549.5 1646.39,-549.5 1646.39,-250.5 1646.39,-149.42 1510.01,-115.55 1420.24,-104.21"/>
<polygon fill="#63b8ff" stroke="#63b8ff" points="1391.91,-665.42 1382.88,-670.97 1393.4,-672.26 1391.91,-665.42"/>
</a>
</g>
</g>
<!-- Node28&#45;&gt;Node27 -->
<g id="edge55_Node000028_Node000027" class="edge">
<title>Node28&#45;&gt;Node27</title>
<g id="a_edge55_Node000028_Node000027"><a xlink:title=" ">
<path fill="none" stroke="#63b8ff" d="M1279.02,-665.69C1262.96,-655.82 1243.78,-644.01 1229.16,-635.01"/>
<polygon fill="#63b8ff" stroke="#63b8ff" points="1277.21,-668.69 1287.57,-670.95 1280.88,-662.73 1277.21,-668.69"/>
</a>
</g>
</g>
<!-- Node29 -->
<g id="Node000029" class="node">
<title>Node29</title>
<g id="a_Node000029"><a xlink:href="simplexify_8hpp.html" target="_top" xlink:title=" ">
<polygon fill="white" stroke="#666666" points="1495.39,-635 1319.39,-635 1319.39,-605 1495.39,-605 1495.39,-635"/>
<text text-anchor="start" x="1327.39" y="-623" font-family="Helvetica,sans-Serif" font-size="10.00">/__w/vulpes/vulpes</text>
<text text-anchor="middle" x="1407.39" y="-612" font-family="Helvetica,sans-Serif" font-size="10.00">/vulpes/geometry/simplexify.hpp</text>
</a>
</g>
</g>
<!-- Node28&#45;&gt;Node29 -->
<g id="edge50_Node000028_Node000029" class="edge">
<title>Node28&#45;&gt;Node29</title>
<g id="a_edge50_Node000028_Node000029"><a xlink:title=" ">
<path fill="none" stroke="#63b8ff" d="M1340.66,-665.03C1355.34,-655.34 1372.62,-643.94 1385.92,-635.16"/>
<polygon fill="#63b8ff" stroke="#63b8ff" points="1338.34,-662.37 1331.92,-670.8 1342.19,-668.21 1338.34,-662.37"/>
</a>
</g>
</g>
<!-- Node29&#45;&gt;Node7 -->
<g id="edge51_Node000029_Node000007" class="edge">
<title>Node29&#45;&gt;Node7</title>
<g id="a_edge51_Node000029_Node000007"><a xlink:title=" ">
<path fill="none" stroke="#63b8ff" d="M1409.25,-594.84C1411.32,-565.81 1414.39,-515.63 1414.39,-472.5 1414.39,-472.5 1414.39,-472.5 1414.39,-322 1414.39,-208.52 1275.45,-146.49 1184.82,-118.1"/>
<polygon fill="#63b8ff" stroke="#63b8ff" points="1405.76,-594.64 1408.51,-604.87 1412.74,-595.15 1405.76,-594.64"/>
</a>
</g>
</g>
<!-- Node30 -->
<g id="Node000030" class="node">
<title>Node30</title>
<g id="a_Node000030"><a xlink:href="mesh__exporter_8hpp.html" target="_top" xlink:title=" ">
<polygon fill="white" stroke="#666666" points="1208.39,-569 1076.39,-569 1076.39,-528 1208.39,-528 1208.39,-569"/>
<text text-anchor="start" x="1084.39" y="-557" font-family="Helvetica,sans-Serif" font-size="10.00">/__w/vulpes/vulpes</text>
<text text-anchor="start" x="1084.39" y="-546" font-family="Helvetica,sans-Serif" font-size="10.00">/vulpes/geometry/mesh</text>
<text text-anchor="middle" x="1142.39" y="-535" font-family="Helvetica,sans-Serif" font-size="10.00">_exporter.hpp</text>
</a>
</g>
</g>
<!-- Node29&#45;&gt;Node30 -->
<g id="edge52_Node000029_Node000030" class="edge">
<title>Node29&#45;&gt;Node30</title>
<g id="a_edge52_Node000029_Node000030"><a xlink:title=" ">
<path fill="none" stroke="#63b8ff" d="M1343.91,-602.35C1303.05,-591.63 1250.02,-577.73 1208.62,-566.87"/>
<polygon fill="#63b8ff" stroke="#63b8ff" points="1343.2,-605.78 1353.76,-604.94 1344.98,-599.01 1343.2,-605.78"/>
</a>
</g>
</g>
<!-- Node31 -->
<g id="Node000031" class="node">
<title>Node31</title>
<g id="a_Node000031"><a xlink:href="simplexify_8cpp.html" target="_top" xlink:title=" ">
<polygon fill="white" stroke="#666666" points="1617.89,-563.5 1442.89,-563.5 1442.89,-533.5 1617.89,-533.5 1617.89,-563.5"/>
<text text-anchor="start" x="1450.89" y="-551.5" font-family="Helvetica,sans-Serif" font-size="10.00">/__w/vulpes/vulpes</text>
<text text-anchor="middle" x="1530.39" y="-540.5" font-family="Helvetica,sans-Serif" font-size="10.00">/vulpes/geometry/simplexify.cpp</text>
</a>
</g>
</g>
<!-- Node29&#45;&gt;Node31 -->
<g id="edge54_Node000029_Node000031" class="edge">
<title>Node29&#45;&gt;Node31</title>
<g id="a_edge54_Node000029_Node000031"><a xlink:title=" ">
<path fill="none" stroke="#63b8ff" d="M1441.23,-599.88C1461.58,-588.38 1487.04,-573.99 1505.53,-563.54"/>
<polygon fill="#63b8ff" stroke="#63b8ff" points="1439.26,-596.97 1432.28,-604.94 1442.71,-603.06 1439.26,-596.97"/>
</a>
</g>
</g>
<!-- Node30&#45;&gt;Node8 -->
<g id="edge53_Node000030_Node000008" class="edge">
<title>Node30&#45;&gt;Node8</title>
<g id="a_edge53_Node000030_Node000008"><a xlink:title=" ">
<path fill="none" stroke="#63b8ff" d="M1162.25,-519.39C1168.68,-510.3 1175.66,-500.41 1181.56,-492.07"/>
<polygon fill="#63b8ff" stroke="#63b8ff" points="1159.23,-517.61 1156.31,-527.79 1164.94,-521.65 1159.23,-517.61"/>
</a>
</g>
</g>
</g>
</svg>
