<?xml version="1.0" encoding="UTF-8" standalone="no"?>
<!DOCTYPE svg PUBLIC "-//W3C//DTD SVG 1.1//EN"
 "http://www.w3.org/Graphics/SVG/1.1/DTD/svg11.dtd">
<!-- Generated by graphviz version 12.2.1 (20241206.2353)
 -->
<!-- Title: /Users/ilariomazzieri/Desktop/vulpes/vulpes/datastructure/ckdtree/ckdtree_decl.hpp Pages: 1 -->
<svg width="938pt" height="116pt"
 viewBox="0.00 0.00 938.38 116.25" xmlns="http://www.w3.org/2000/svg" xmlns:xlink="http://www.w3.org/1999/xlink">
<g id="graph0" class="graph" transform="scale(1 1) rotate(0) translate(4 112.25)">
<title>/Users/ilariomazzieri/Desktop/vulpes/vulpes/datastructure/ckdtree/ckdtree_decl.hpp</title>
<!-- Node1 -->
<g id="Node000001" class="node">
<title>Node1</title>
<g id="a_Node000001"><a xlink:title=" ">
<polygon fill="#999999" stroke="#666666" points="516.25,-108.25 397.5,-108.25 397.5,-55.25 516.25,-55.25 516.25,-108.25"/>
<text text-anchor="start" x="405.5" y="-94.75" font-family="Helvetica,sans-Serif" font-size="10.00">/Users/ilariomazzieri</text>
<text text-anchor="start" x="405.5" y="-83.5" font-family="Helvetica,sans-Serif" font-size="10.00">/Desktop/vulpes/vulpes</text>
<text text-anchor="start" x="405.5" y="-72.25" font-family="Helvetica,sans-Serif" font-size="10.00">/datastructure/ckdtree</text>
<text text-anchor="middle" x="456.88" y="-61" font-family="Helvetica,sans-Serif" font-size="10.00">/ckdtree_decl.hpp</text>
</a>
</g>
</g>
<!-- Node2 -->
<g id="Node000002" class="node">
<title>Node2</title>
<g id="a_Node000002"><a xlink:title=" ">
<polygon fill="#e0e0e0" stroke="#999999" points="55.75,-19.25 0,-19.25 0,0 55.75,0 55.75,-19.25"/>
<text text-anchor="middle" x="27.88" y="-5.75" font-family="Helvetica,sans-Serif" font-size="10.00">algorithm</text>
</a>
</g>
</g>
<!-- Node1&#45;&gt;Node2 -->
<g id="edge1_Node000001_Node000002" class="edge">
<title>Node1&#45;&gt;Node2</title>
<g id="a_edge1_Node000001_Node000002"><a xlink:title=" ">
<path fill="none" stroke="#63b8ff" d="M397.2,-72.78C322.4,-62.48 190.06,-43.23 67.21,-19.58"/>
<polygon fill="#63b8ff" stroke="#63b8ff" points="68.08,-16.19 57.6,-17.72 66.75,-23.06 68.08,-16.19"/>
</a>
</g>
</g>
<!-- Node3 -->
<g id="Node000003" class="node">
<title>Node3</title>
<g id="a_Node000003"><a xlink:title=" ">
<polygon fill="#e0e0e0" stroke="#999999" points="122,-19.25 73.75,-19.25 73.75,0 122,0 122,-19.25"/>
<text text-anchor="middle" x="97.88" y="-5.75" font-family="Helvetica,sans-Serif" font-size="10.00">cassert</text>
</a>
</g>
</g>
<!-- Node1&#45;&gt;Node3 -->
<g id="edge2_Node000001_Node000003" class="edge">
<title>Node1&#45;&gt;Node3</title>
<g id="a_edge2_Node000001_Node000003"><a xlink:title=" ">
<path fill="none" stroke="#63b8ff" d="M397.13,-70.76C333.93,-59.9 231.08,-41.42 133.31,-19.68"/>
<polygon fill="#63b8ff" stroke="#63b8ff" points="134.34,-16.32 123.81,-17.55 132.81,-23.15 134.34,-16.32"/>
</a>
</g>
</g>
<!-- Node4 -->
<g id="Node000004" class="node">
<title>Node4</title>
<g id="a_Node000004"><a xlink:title=" ">
<polygon fill="#e0e0e0" stroke="#999999" points="183.38,-19.25 140.38,-19.25 140.38,0 183.38,0 183.38,-19.25"/>
<text text-anchor="middle" x="161.88" y="-5.75" font-family="Helvetica,sans-Serif" font-size="10.00">cmath</text>
</a>
</g>
</g>
<!-- Node1&#45;&gt;Node4 -->
<g id="edge3_Node000001_Node000004" class="edge">
<title>Node1&#45;&gt;Node4</title>
<g id="a_edge3_Node000001_Node000004"><a xlink:title=" ">
<path fill="none" stroke="#63b8ff" d="M397.19,-67.83C345.87,-56.51 269.61,-39.18 194.82,-19.92"/>
<polygon fill="#63b8ff" stroke="#63b8ff" points="195.82,-16.57 185.26,-17.45 194.06,-23.34 195.82,-16.57"/>
</a>
</g>
</g>
<!-- Node5 -->
<g id="Node000005" class="node">
<title>Node5</title>
<g id="a_Node000005"><a xlink:title=" ">
<polygon fill="#e0e0e0" stroke="#999999" points="246.5,-19.25 201.25,-19.25 201.25,0 246.5,0 246.5,-19.25"/>
<text text-anchor="middle" x="223.88" y="-5.75" font-family="Helvetica,sans-Serif" font-size="10.00">cstdint</text>
</a>
</g>
</g>
<!-- Node1&#45;&gt;Node5 -->
<g id="edge4_Node000001_Node000005" class="edge">
<title>Node1&#45;&gt;Node5</title>
<g id="a_edge4_Node000001_Node000005"><a xlink:title=" ">
<path fill="none" stroke="#63b8ff" d="M397.17,-62.78C353.01,-49.49 294.43,-31.86 257.95,-20.88"/>
<polygon fill="#63b8ff" stroke="#63b8ff" points="258.96,-17.53 248.38,-18 256.94,-24.23 258.96,-17.53"/>
</a>
</g>
</g>
<!-- Node6 -->
<g id="Node000006" class="node">
<title>Node6</title>
<g id="a_Node000006"><a xlink:title=" ">
<polygon fill="#e0e0e0" stroke="#999999" points="309.12,-19.25 264.62,-19.25 264.62,0 309.12,0 309.12,-19.25"/>
<text text-anchor="middle" x="286.88" y="-5.75" font-family="Helvetica,sans-Serif" font-size="10.00">cstdlib</text>
</a>
</g>
</g>
<!-- Node1&#45;&gt;Node6 -->
<g id="edge5_Node000001_Node000006" class="edge">
<title>Node1&#45;&gt;Node6</title>
<g id="a_edge5_Node000001_Node000006"><a xlink:title=" ">
<path fill="none" stroke="#63b8ff" d="M397.42,-56.22C371.21,-45.41 341.42,-33.13 319.38,-24.03"/>
<polygon fill="#63b8ff" stroke="#63b8ff" points="320.9,-20.88 310.32,-20.3 318.23,-27.35 320.9,-20.88"/>
</a>
</g>
</g>
<!-- Node7 -->
<g id="Node000007" class="node">
<title>Node7</title>
<g id="a_Node000007"><a xlink:title=" ">
<polygon fill="#e0e0e0" stroke="#999999" points="372.5,-19.25 327.25,-19.25 327.25,0 372.5,0 372.5,-19.25"/>
<text text-anchor="middle" x="349.88" y="-5.75" font-family="Helvetica,sans-Serif" font-size="10.00">cstring</text>
</a>
</g>
</g>
<!-- Node1&#45;&gt;Node7 -->
<g id="edge6_Node000001_Node000007" class="edge">
<title>Node1&#45;&gt;Node7</title>
<g id="a_edge6_Node000001_Node000007"><a xlink:title=" ">
<path fill="none" stroke="#63b8ff" d="M417.34,-54.84C402.49,-45.11 386.11,-34.37 373.2,-25.91"/>
<polygon fill="#63b8ff" stroke="#63b8ff" points="375.24,-23.07 364.96,-20.51 371.41,-28.92 375.24,-23.07"/>
</a>
</g>
</g>
<!-- Node8 -->
<g id="Node000008" class="node">
<title>Node8</title>
<g id="a_Node000008"><a xlink:title=" ">
<polygon fill="#e0e0e0" stroke="#999999" points="419.27,-19.25 390.48,-19.25 390.48,0 419.27,0 419.27,-19.25"/>
<text text-anchor="middle" x="404.88" y="-5.75" font-family="Helvetica,sans-Serif" font-size="10.00">ios</text>
</a>
</g>
</g>
<!-- Node1&#45;&gt;Node8 -->
<g id="edge7_Node000001_Node000008" class="edge">
<title>Node1&#45;&gt;Node8</title>
<g id="a_edge7_Node000001_Node000008"><a xlink:title=" ">
<path fill="none" stroke="#63b8ff" d="M437.81,-55.04C431.37,-46.35 424.31,-36.84 418.39,-28.86"/>
<polygon fill="#63b8ff" stroke="#63b8ff" points="421.3,-26.9 412.53,-20.95 415.68,-31.07 421.3,-26.9"/>
</a>
</g>
</g>
<!-- Node9 -->
<g id="Node000009" class="node">
<title>Node9</title>
<g id="a_Node000009"><a xlink:title=" ">
<polygon fill="#e0e0e0" stroke="#999999" points="476.5,-19.25 437.25,-19.25 437.25,0 476.5,0 476.5,-19.25"/>
<text text-anchor="middle" x="456.88" y="-5.75" font-family="Helvetica,sans-Serif" font-size="10.00">limits</text>
</a>
</g>
</g>
<!-- Node1&#45;&gt;Node9 -->
<g id="edge8_Node000001_Node000009" class="edge">
<title>Node1&#45;&gt;Node9</title>
<g id="a_edge8_Node000001_Node000009"><a xlink:title=" ">
<path fill="none" stroke="#63b8ff" d="M456.88,-55.04C456.88,-47.12 456.88,-38.52 456.88,-31.02"/>
<polygon fill="#63b8ff" stroke="#63b8ff" points="460.38,-31.25 456.88,-21.25 453.38,-31.25 460.38,-31.25"/>
</a>
</g>
</g>
<!-- Node10 -->
<g id="Node000010" class="node">
<title>Node10</title>
<g id="a_Node000010"><a xlink:title=" ">
<polygon fill="#e0e0e0" stroke="#999999" points="528.88,-19.25 494.88,-19.25 494.88,0 528.88,0 528.88,-19.25"/>
<text text-anchor="middle" x="511.88" y="-5.75" font-family="Helvetica,sans-Serif" font-size="10.00">new</text>
</a>
</g>
</g>
<!-- Node1&#45;&gt;Node10 -->
<g id="edge9_Node000001_Node000010" class="edge">
<title>Node1&#45;&gt;Node10</title>
<g id="a_edge9_Node000001_Node000010"><a xlink:title=" ">
<path fill="none" stroke="#63b8ff" d="M477.04,-55.04C483.93,-46.25 491.48,-36.63 497.78,-28.59"/>
<polygon fill="#63b8ff" stroke="#63b8ff" points="500.38,-30.96 503.79,-20.93 494.87,-26.64 500.38,-30.96"/>
</a>
</g>
</g>
<!-- Node11 -->
<g id="Node000011" class="node">
<title>Node11</title>
<g id="a_Node000011"><a xlink:title=" ">
<polygon fill="#e0e0e0" stroke="#999999" points="597.12,-19.25 546.62,-19.25 546.62,0 597.12,0 597.12,-19.25"/>
<text text-anchor="middle" x="571.88" y="-5.75" font-family="Helvetica,sans-Serif" font-size="10.00">numeric</text>
</a>
</g>
</g>
<!-- Node1&#45;&gt;Node11 -->
<g id="edge10_Node000001_Node000011" class="edge">
<title>Node1&#45;&gt;Node11</title>
<g id="a_edge10_Node000001_Node000011"><a xlink:title=" ">
<path fill="none" stroke="#63b8ff" d="M499.37,-54.84C515.48,-45.01 533.28,-34.16 547.22,-25.66"/>
<polygon fill="#63b8ff" stroke="#63b8ff" points="549.02,-28.66 555.73,-20.47 545.37,-22.69 549.02,-28.66"/>
</a>
</g>
</g>
<!-- Node12 -->
<g id="Node000012" class="node">
<title>Node12</title>
<g id="a_Node000012"><a xlink:title=" ">
<polygon fill="#e0e0e0" stroke="#999999" points="666.5,-19.25 615.25,-19.25 615.25,0 666.5,0 666.5,-19.25"/>
<text text-anchor="middle" x="640.88" y="-5.75" font-family="Helvetica,sans-Serif" font-size="10.00">sstream</text>
</a>
</g>
</g>
<!-- Node1&#45;&gt;Node12 -->
<g id="edge11_Node000001_Node000012" class="edge">
<title>Node1&#45;&gt;Node12</title>
<g id="a_edge11_Node000001_Node000012"><a xlink:title=" ">
<path fill="none" stroke="#63b8ff" d="M516.61,-57.98C546.41,-46.63 581.38,-33.3 606.62,-23.68"/>
<polygon fill="#63b8ff" stroke="#63b8ff" points="607.62,-27.04 615.72,-20.21 605.13,-20.5 607.62,-27.04"/>
</a>
</g>
</g>
<!-- Node13 -->
<g id="Node000013" class="node">
<title>Node13</title>
<g id="a_Node000013"><a xlink:title=" ">
<polygon fill="#e0e0e0" stroke="#999999" points="743.25,-19.25 684.5,-19.25 684.5,0 743.25,0 743.25,-19.25"/>
<text text-anchor="middle" x="713.88" y="-5.75" font-family="Helvetica,sans-Serif" font-size="10.00">stdexcept</text>
</a>
</g>
</g>
<!-- Node1&#45;&gt;Node13 -->
<g id="edge12_Node000001_Node000013" class="edge">
<title>Node1&#45;&gt;Node13</title>
<g id="a_edge12_Node000001_Node000013"><a xlink:title=" ">
<path fill="none" stroke="#63b8ff" d="M516.48,-64.49C564.57,-51.37 630.92,-33.26 673.12,-21.75"/>
<polygon fill="#63b8ff" stroke="#63b8ff" points="673.89,-25.16 682.62,-19.15 672.05,-18.41 673.89,-25.16"/>
</a>
</g>
</g>
<!-- Node14 -->
<g id="Node000014" class="node">
<title>Node14</title>
<g id="a_Node000014"><a xlink:title=" ">
<polygon fill="#e0e0e0" stroke="#999999" points="800.88,-19.25 760.88,-19.25 760.88,0 800.88,0 800.88,-19.25"/>
<text text-anchor="middle" x="780.88" y="-5.75" font-family="Helvetica,sans-Serif" font-size="10.00">string</text>
</a>
</g>
</g>
<!-- Node1&#45;&gt;Node14 -->
<g id="edge13_Node000001_Node000014" class="edge">
<title>Node1&#45;&gt;Node14</title>
<g id="a_edge13_Node000001_Node000014"><a xlink:title=" ">
<path fill="none" stroke="#63b8ff" d="M516.54,-69.83C573.91,-58.99 663.27,-41.21 749.6,-19.66"/>
<polygon fill="#63b8ff" stroke="#63b8ff" points="750.34,-23.08 759.19,-17.24 748.63,-16.29 750.34,-23.08"/>
</a>
</g>
</g>
<!-- Node15 -->
<g id="Node000015" class="node">
<title>Node15</title>
<g id="a_Node000015"><a xlink:title=" ">
<polygon fill="#e0e0e0" stroke="#999999" points="869.12,-19.25 818.62,-19.25 818.62,0 869.12,0 869.12,-19.25"/>
<text text-anchor="middle" x="843.88" y="-5.75" font-family="Helvetica,sans-Serif" font-size="10.00">typeinfo</text>
</a>
</g>
</g>
<!-- Node1&#45;&gt;Node15 -->
<g id="edge14_Node000001_Node000015" class="edge">
<title>Node1&#45;&gt;Node15</title>
<g id="a_edge14_Node000001_Node000015"><a xlink:title=" ">
<path fill="none" stroke="#63b8ff" d="M516.48,-71.78C584.53,-61.23 699.42,-42.45 807.22,-19.69"/>
<polygon fill="#63b8ff" stroke="#63b8ff" points="807.77,-23.15 816.82,-17.65 806.31,-16.31 807.77,-23.15"/>
</a>
</g>
</g>
<!-- Node16 -->
<g id="Node000016" class="node">
<title>Node16</title>
<g id="a_Node000016"><a xlink:title=" ">
<polygon fill="#e0e0e0" stroke="#999999" points="930.38,-19.25 887.38,-19.25 887.38,0 930.38,0 930.38,-19.25"/>
<text text-anchor="middle" x="908.88" y="-5.75" font-family="Helvetica,sans-Serif" font-size="10.00">vector</text>
</a>
</g>
</g>
<!-- Node1&#45;&gt;Node16 -->
<g id="edge15_Node000001_Node000016" class="edge">
<title>Node1&#45;&gt;Node16</title>
<g id="a_edge15_Node000001_Node000016"><a xlink:title=" ">
<path fill="none" stroke="#63b8ff" d="M516.56,-74.44C596.29,-65.47 742.07,-47.23 875.7,-19.46"/>
<polygon fill="#63b8ff" stroke="#63b8ff" points="876.4,-22.89 885.46,-17.41 874.96,-16.04 876.4,-22.89"/>
</a>
</g>
</g>
</g>
</svg>
