<?xml version="1.0" encoding="UTF-8" standalone="no"?>
<!DOCTYPE svg PUBLIC "-//W3C//DTD SVG 1.1//EN"
 "http://www.w3.org/Graphics/SVG/1.1/DTD/svg11.dtd">
<!-- Generated by graphviz version 12.2.1 (20241206.2353)
 -->
<!-- Title: vulpes::geometry::Mesh2D&lt; FloatType, IndexType &gt; Pages: 1 -->
<svg width="567pt" height="161pt"
 viewBox="0.00 0.00 567.00 161.13" xmlns="http://www.w3.org/2000/svg" xmlns:xlink="http://www.w3.org/1999/xlink">
<g id="graph0" class="graph" transform="scale(1 1) rotate(0) translate(4 157.13)">
<title>vulpes::geometry::Mesh2D&lt; FloatType, IndexType &gt;</title>
<!-- Node1 -->
<g id="Node000001" class="node">
<title>Node1</title>
<g id="a_Node000001"><a xlink:title="A class for a 2D mesh, inheriting from MeshBase.">
<polygon fill="#999999" stroke="#666666" points="559,-84.5 425.25,-84.5 425.25,-54 559,-54 559,-84.5"/>
<text text-anchor="start" x="433.25" y="-71" font-family="Helvetica,sans-Serif" font-size="10.00">vulpes::geometry::Mesh2D</text>
<text text-anchor="middle" x="492.12" y="-59.75" font-family="Helvetica,sans-Serif" font-size="10.00">&lt; FloatType, IndexType &gt;</text>
</a>
</g>
</g>
<!-- Node2 -->
<g id="Node000002" class="node">
<title>Node2</title>
<g id="a_Node000002"><a xlink:href="classvulpes_1_1geometry_1_1MeshBase.html" target="_top" xlink:title=" ">
<polygon fill="white" stroke="#666666" points="388.25,-95.75 244.75,-95.75 244.75,-42.75 388.25,-42.75 388.25,-95.75"/>
<text text-anchor="start" x="252.75" y="-82.25" font-family="Helvetica,sans-Serif" font-size="10.00">vulpes::geometry::MeshBase</text>
<text text-anchor="start" x="252.75" y="-71" font-family="Helvetica,sans-Serif" font-size="10.00">&lt; FloatType, IndexType,</text>
<text text-anchor="start" x="252.75" y="-59.75" font-family="Helvetica,sans-Serif" font-size="10.00"> 2, 2, Mesh2D&lt; FloatType,</text>
<text text-anchor="middle" x="316.5" y="-48.5" font-family="Helvetica,sans-Serif" font-size="10.00"> IndexType &gt; &gt;</text>
</a>
</g>
</g>
<!-- Node2&#45;&gt;Node1 -->
<g id="edge1_Node000001_Node000002" class="edge">
<title>Node2&#45;&gt;Node1</title>
<g id="a_edge1_Node000001_Node000002"><a xlink:title=" ">
<path fill="none" stroke="#63b8ff" d="M399.95,-69.25C408.31,-69.25 416.71,-69.25 424.87,-69.25"/>
<polygon fill="#63b8ff" stroke="#63b8ff" points="400.13,-65.75 390.13,-69.25 400.13,-72.75 400.13,-65.75"/>
</a>
</g>
</g>
<!-- Node3 -->
<g id="Node000003" class="node">
<title>Node3</title>
<g id="a_Node000003"><a xlink:href="classvulpes_1_1datastructure_1_1CrsMap.html" target="_top" xlink:title=" ">
<polygon fill="white" stroke="#666666" points="125.12,-150.12 11.62,-150.12 11.62,-108.38 125.12,-108.38 125.12,-150.12"/>
<text text-anchor="start" x="19.62" y="-136.62" font-family="Helvetica,sans-Serif" font-size="10.00">vulpes::datastructure</text>
<text text-anchor="start" x="19.62" y="-125.38" font-family="Helvetica,sans-Serif" font-size="10.00">::CrsMap&lt; IndexType,</text>
<text text-anchor="middle" x="68.38" y="-114.12" font-family="Helvetica,sans-Serif" font-size="10.00"> IndexType &gt;</text>
</a>
</g>
</g>
<!-- Node3&#45;&gt;Node2 -->
<g id="edge2_Node000002_Node000003" class="edge">
<title>Node3&#45;&gt;Node2</title>
<g id="a_edge2_Node000002_Node000003"><a xlink:title=" ">
<path fill="none" stroke="#9a32cd" stroke-dasharray="5,2" d="M136.6,-112.86C170.1,-104.7 210.6,-94.82 244.59,-86.54"/>
<polygon fill="#9a32cd" stroke="#9a32cd" points="135.89,-109.43 127,-115.2 137.55,-116.23 135.89,-109.43"/>
</a>
</g>
<text text-anchor="middle" x="190.75" y="-143.63" font-family="Helvetica,sans-Serif" font-size="10.00" fill="grey"> m_cell_to_facet</text>
<text text-anchor="middle" x="190.75" y="-132.38" font-family="Helvetica,sans-Serif" font-size="10.00" fill="grey">m_cell_to_vtx</text>
<text text-anchor="middle" x="190.75" y="-121.13" font-family="Helvetica,sans-Serif" font-size="10.00" fill="grey">m_dual_graph</text>
<text text-anchor="middle" x="190.75" y="-109.88" font-family="Helvetica,sans-Serif" font-size="10.00" fill="grey">m_vtx_to_cell</text>
</g>
<!-- Node4 -->
<g id="Node000004" class="node">
<title>Node4</title>
<g id="a_Node000004"><a xlink:href="classvulpes_1_1datastructure_1_1CrsMap.html" target="_top" xlink:title=" ">
<polygon fill="white" stroke="#666666" points="136,-90.12 0.75,-90.12 0.75,-48.38 136,-48.38 136,-90.12"/>
<text text-anchor="start" x="8.75" y="-76.62" font-family="Helvetica,sans-Serif" font-size="10.00">vulpes::datastructure</text>
<text text-anchor="start" x="8.75" y="-65.38" font-family="Helvetica,sans-Serif" font-size="10.00">::CrsMap&lt; IndexType,</text>
<text text-anchor="middle" x="68.38" y="-54.12" font-family="Helvetica,sans-Serif" font-size="10.00"> IndexType, vtx_per_face &gt;</text>
</a>
</g>
</g>
<!-- Node4&#45;&gt;Node2 -->
<g id="edge3_Node000002_Node000004" class="edge">
<title>Node4&#45;&gt;Node2</title>
<g id="a_edge3_Node000002_Node000004"><a xlink:title=" ">
<path fill="none" stroke="#9a32cd" stroke-dasharray="5,2" d="M147.52,-69.25C178.54,-69.25 213.97,-69.25 244.28,-69.25"/>
<polygon fill="#9a32cd" stroke="#9a32cd" points="147.82,-65.75 137.82,-69.25 147.82,-72.75 147.82,-65.75"/>
</a>
</g>
<text text-anchor="middle" x="190.75" y="-71" font-family="Helvetica,sans-Serif" font-size="10.00" fill="grey"> m_facet_to_vtx</text>
</g>
<!-- Node5 -->
<g id="Node000005" class="node">
<title>Node5</title>
<g id="a_Node000005"><a xlink:href="structvulpes_1_1geometry_1_1MeshTag.html" target="_top" xlink:title=" ">
<polygon fill="white" stroke="#666666" points="136.75,-30.5 0,-30.5 0,0 136.75,0 136.75,-30.5"/>
<text text-anchor="start" x="8" y="-17" font-family="Helvetica,sans-Serif" font-size="10.00">vulpes::geometry::MeshTag</text>
<text text-anchor="middle" x="68.38" y="-5.75" font-family="Helvetica,sans-Serif" font-size="10.00">&lt; SelfDim, IndexType &gt;</text>
</a>
</g>
</g>
<!-- Node5&#45;&gt;Node2 -->
<g id="edge4_Node000002_Node000005" class="edge">
<title>Node5&#45;&gt;Node2</title>
<g id="a_edge4_Node000002_Node000005"><a xlink:title=" ">
<path fill="none" stroke="#9a32cd" stroke-dasharray="5,2" d="M148.16,-32.54C179.15,-39.33 214.46,-47.08 244.63,-53.7"/>
<polygon fill="#9a32cd" stroke="#9a32cd" points="148.95,-29.13 138.43,-30.4 147.45,-35.96 148.95,-29.13"/>
</a>
</g>
<text text-anchor="middle" x="190.75" y="-50.42" font-family="Helvetica,sans-Serif" font-size="10.00" fill="grey"> m_mesh_tags</text>
</g>
</g>
</svg>
