<?xml version="1.0" encoding="UTF-8" standalone="no"?>
<!DOCTYPE svg PUBLIC "-//W3C//DTD SVG 1.1//EN"
 "http://www.w3.org/Graphics/SVG/1.1/DTD/svg11.dtd">
<!-- Generated by graphviz version 2.42.4 (0)
 -->
<!-- Title: vulpes::geometry::Tetrahedralization Pages: 1 -->
<svg width="203pt" height="214pt"
 viewBox="0.00 0.00 203.00 214.00" xmlns="http://www.w3.org/2000/svg" xmlns:xlink="http://www.w3.org/1999/xlink">
<g id="graph0" class="graph" transform="scale(1 1) rotate(0) translate(4 210)">
<title>vulpes::geometry::Tetrahedralization</title>
<!-- Node1 -->
<g id="Node000001" class="node">
<title>Node1</title>
<g id="a_Node000001"><a xlink:title="Performs tetrahedralization of a 3D cell using the TetGen library.">
<polygon fill="#999999" stroke="#666666" points="195,-19 0,-19 0,0 195,0 195,-19"/>
<text text-anchor="middle" x="97.5" y="-7" font-family="Helvetica,sans-Serif" font-size="10.00">vulpes::geometry::Tetrahedralization</text>
</a>
</g>
</g>
<!-- Node2 -->
<g id="Node000002" class="node">
<title>Node2</title>
<g id="a_Node000002"><a xlink:href="classvulpes_1_1geometry_1_1Cell3D.html" target="_top" xlink:title=" ">
<polygon fill="white" stroke="#666666" points="167.5,-96 27.5,-96 27.5,-66 167.5,-66 167.5,-96"/>
<text text-anchor="start" x="35.5" y="-84" font-family="Helvetica,sans-Serif" font-size="10.00">vulpes::geometry::Cell3D</text>
<text text-anchor="middle" x="97.5" y="-73" font-family="Helvetica,sans-Serif" font-size="10.00">&lt; float_t, index_t &gt;</text>
</a>
</g>
</g>
<!-- Node2&#45;&gt;Node1 -->
<g id="edge1_Node000001_Node000002" class="edge">
<title>Node2&#45;&gt;Node1</title>
<g id="a_edge1_Node000001_Node000002"><a xlink:title=" ">
<path fill="none" stroke="#9a32cd" stroke-dasharray="5,2" d="M97.5,-55.56C97.5,-42.95 97.5,-28.35 97.5,-19.27"/>
<polygon fill="#9a32cd" stroke="#9a32cd" points="94,-55.94 97.5,-65.94 101,-55.94 94,-55.94"/>
</a>
</g>
<text text-anchor="middle" x="115.5" y="-40" font-family="Helvetica,sans-Serif" font-size="10.00" fill="grey"> m_cell</text>
</g>
<!-- Node3 -->
<g id="Node000003" class="node">
<title>Node3</title>
<g id="a_Node000003"><a xlink:href="classvulpes_1_1datastructure_1_1CrsMap.html" target="_top" xlink:title=" ">
<polygon fill="white" stroke="#666666" points="177.5,-206 17.5,-206 17.5,-176 177.5,-176 177.5,-206"/>
<text text-anchor="start" x="25.5" y="-194" font-family="Helvetica,sans-Serif" font-size="10.00">vulpes::datastructure</text>
<text text-anchor="middle" x="97.5" y="-183" font-family="Helvetica,sans-Serif" font-size="10.00">::CrsMap&lt; index_t, index_t &gt;</text>
</a>
</g>
</g>
<!-- Node3&#45;&gt;Node2 -->
<g id="edge2_Node000002_Node000003" class="edge">
<title>Node3&#45;&gt;Node2</title>
<g id="a_edge2_Node000002_Node000003"><a xlink:title=" ">
<path fill="none" stroke="#9a32cd" stroke-dasharray="5,2" d="M97.5,-165.61C97.5,-144.18 97.5,-113.75 97.5,-96.12"/>
<polygon fill="#9a32cd" stroke="#9a32cd" points="94,-165.88 97.5,-175.88 101,-165.88 94,-165.88"/>
</a>
</g>
<text text-anchor="middle" x="139.5" y="-150" font-family="Helvetica,sans-Serif" font-size="10.00" fill="grey"> m_face_to_edge</text>
<text text-anchor="middle" x="139.5" y="-139" font-family="Helvetica,sans-Serif" font-size="10.00" fill="grey">m_faces</text>
<text text-anchor="middle" x="139.5" y="-128" font-family="Helvetica,sans-Serif" font-size="10.00" fill="grey">m_vtx_to_edge</text>
<text text-anchor="middle" x="139.5" y="-117" font-family="Helvetica,sans-Serif" font-size="10.00" fill="grey">m_vtx_to_faces</text>
</g>
</g>
</svg>
