<?xml version="1.0" encoding="UTF-8" standalone="no"?>
<!DOCTYPE svg PUBLIC "-//W3C//DTD SVG 1.1//EN"
 "http://www.w3.org/Graphics/SVG/1.1/DTD/svg11.dtd">
<!-- Generated by graphviz version 2.42.4 (0)
 -->
<!-- Title: vulpes::polynomial::Polynomial2D&lt; T, IsSpaceP &gt; Pages: 1 -->
<svg width="417pt" height="108pt"
 viewBox="0.00 0.00 417.00 108.00" xmlns="http://www.w3.org/2000/svg" xmlns:xlink="http://www.w3.org/1999/xlink">
<g id="graph0" class="graph" transform="scale(1 1) rotate(0) translate(4 104)">
<title>vulpes::polynomial::Polynomial2D&lt; T, IsSpaceP &gt;</title>
<!-- Node1 -->
<g id="Node000001" class="node">
<title>Node1</title>
<g id="a_Node000001"><a xlink:title="Template class to represent and operate on polynomials in 2D.">
<polygon fill="#999999" stroke="#666666" points="409,-64.5 240,-64.5 240,-34.5 409,-34.5 409,-64.5"/>
<text text-anchor="start" x="248" y="-52.5" font-family="Helvetica,sans-Serif" font-size="10.00">vulpes::polynomial</text>
<text text-anchor="middle" x="324.5" y="-41.5" font-family="Helvetica,sans-Serif" font-size="10.00">::Polynomial2D&lt; T, IsSpaceP &gt;</text>
</a>
</g>
</g>
<!-- Node2 -->
<g id="Node000002" class="node">
<title>Node2</title>
<g id="a_Node000002"><a xlink:href="classvulpes_1_1polynomial_1_1PolynomialBase.html" target="_top" xlink:title="Base template class for a general polynomial.">
<polygon fill="white" stroke="#666666" points="125.5,-100 3.5,-100 3.5,-59 125.5,-59 125.5,-100"/>
<text text-anchor="start" x="11.5" y="-88" font-family="Helvetica,sans-Serif" font-size="10.00">vulpes::polynomial</text>
<text text-anchor="start" x="11.5" y="-77" font-family="Helvetica,sans-Serif" font-size="10.00">::PolynomialBase&lt; T,</text>
<text text-anchor="middle" x="64.5" y="-66" font-family="Helvetica,sans-Serif" font-size="10.00"> Dim, Polynomial &gt;</text>
</a>
</g>
</g>
<!-- Node2&#45;&gt;Node1 -->
<g id="edge1_Node000001_Node000002" class="edge">
<title>Node2&#45;&gt;Node1</title>
<g id="a_edge1_Node000001_Node000002"><a xlink:title=" ">
<path fill="none" stroke="#63b8ff" d="M135.85,-71.32C167.95,-67.59 206.19,-63.14 239.75,-59.24"/>
<polygon fill="#63b8ff" stroke="#63b8ff" points="135.19,-67.87 125.66,-72.5 136,-74.83 135.19,-67.87"/>
</a>
</g>
</g>
<!-- Node3 -->
<g id="Node000003" class="node">
<title>Node3</title>
<g id="a_Node000003"><a xlink:href="classvulpes_1_1datastructure_1_1TriMatrix.html" target="_top" xlink:title=" ">
<polygon fill="white" stroke="#666666" points="129,-41 0,-41 0,0 129,0 129,-41"/>
<text text-anchor="start" x="8" y="-29" font-family="Helvetica,sans-Serif" font-size="10.00">vulpes::datastructure</text>
<text text-anchor="start" x="8" y="-18" font-family="Helvetica,sans-Serif" font-size="10.00">::TriMatrix&lt; true, false,</text>
<text text-anchor="middle" x="64.5" y="-7" font-family="Helvetica,sans-Serif" font-size="10.00"> T, std::size_t &gt;</text>
</a>
</g>
</g>
<!-- Node3&#45;&gt;Node1 -->
<g id="edge2_Node000001_Node000003" class="edge">
<title>Node3&#45;&gt;Node1</title>
<g id="a_edge2_Node000001_Node000003"><a xlink:title=" ">
<path fill="none" stroke="#9a32cd" stroke-dasharray="5,2" d="M139.24,-28.79C170.54,-32.31 207.19,-36.43 239.52,-40.06"/>
<polygon fill="#9a32cd" stroke="#9a32cd" points="139.6,-25.31 129.28,-27.67 138.82,-32.26 139.6,-25.31"/>
</a>
</g>
<text text-anchor="middle" x="184.5" y="-40.5" font-family="Helvetica,sans-Serif" font-size="10.00" fill="grey"> m_coefficients</text>
</g>
</g>
</svg>
