<?xml version="1.0" encoding="UTF-8" standalone="no"?>
<!DOCTYPE svg PUBLIC "-//W3C//DTD SVG 1.1//EN"
 "http://www.w3.org/Graphics/SVG/1.1/DTD/svg11.dtd">
<!-- Generated by graphviz version 2.43.0 (0)
 -->
<!-- Title: vulpes::assemble::WeakFormIntegratorSimplexify&lt; MeshType, FeExpressionTuple, FeExpressionFaceTuple &gt; Pages: 1 -->
<svg width="514pt" height="156pt"
 viewBox="0.00 0.00 514.00 156.00" xmlns="http://www.w3.org/2000/svg" xmlns:xlink="http://www.w3.org/1999/xlink">
<g id="graph0" class="graph" transform="scale(1 1) rotate(0) translate(4 152)">
<title>vulpes::assemble::WeakFormIntegratorSimplexify&lt; MeshType, FeExpressionTuple, FeExpressionFaceTuple &gt;</title>
<!-- Node1 -->
<g id="Node000001" class="node">
<title>Node1</title>
<g id="a_Node000001"><a xlink:title=" ">
<polygon fill="#999999" stroke="#666666" points="506,-89 304,-89 304,-37 506,-37 506,-89"/>
<text text-anchor="start" x="312" y="-77" font-family="Helvetica,sans-Serif" font-size="10.00">vulpes::assemble::WeakForm</text>
<text text-anchor="start" x="312" y="-66" font-family="Helvetica,sans-Serif" font-size="10.00">IntegratorSimplexify&lt; MeshType,</text>
<text text-anchor="start" x="312" y="-55" font-family="Helvetica,sans-Serif" font-size="10.00"> FeExpressionTuple, FeExpressionFace</text>
<text text-anchor="middle" x="405" y="-44" font-family="Helvetica,sans-Serif" font-size="10.00">Tuple &gt;</text>
</a>
</g>
</g>
<!-- Node2 -->
<g id="Node000002" class="node">
<title>Node2</title>
<g id="a_Node000002"><a xlink:href="classvulpes_1_1assemble_1_1WeakFormIntegratorBase.html" target="_top" xlink:title=" ">
<polygon fill="white" stroke="#666666" points="180,-148 0,-148 0,-96 180,-96 180,-148"/>
<text text-anchor="start" x="8" y="-136" font-family="Helvetica,sans-Serif" font-size="10.00">vulpes::assemble::WeakForm</text>
<text text-anchor="start" x="8" y="-125" font-family="Helvetica,sans-Serif" font-size="10.00">IntegratorBase&lt; MeshType,</text>
<text text-anchor="start" x="8" y="-114" font-family="Helvetica,sans-Serif" font-size="10.00"> FeExpressionTuple, FeExpression</text>
<text text-anchor="middle" x="90" y="-103" font-family="Helvetica,sans-Serif" font-size="10.00">FaceTuple &gt;</text>
</a>
</g>
</g>
<!-- Node2&#45;&gt;Node1 -->
<g id="edge1_Node000001_Node000002" class="edge">
<title>Node2&#45;&gt;Node1</title>
<g id="a_edge1_Node000001_Node000002"><a xlink:title=" ">
<path fill="none" stroke="#63b8ff" d="M190.36,-103.27C226.6,-96.44 267.57,-88.72 303.87,-81.87"/>
<polygon fill="#63b8ff" stroke="#63b8ff" points="189.45,-99.88 180.27,-105.17 190.75,-106.76 189.45,-99.88"/>
</a>
</g>
</g>
<!-- Node3 -->
<g id="Node000003" class="node">
<title>Node3</title>
<g id="a_Node000003"><a xlink:href="classvulpes_1_1fe_1_1FeValues.html" target="_top" xlink:title=" ">
<polygon fill="white" stroke="#666666" points="147,-78 33,-78 33,-48 147,-48 147,-78"/>
<text text-anchor="start" x="41" y="-66" font-family="Helvetica,sans-Serif" font-size="10.00">vulpes::fe::FeValues</text>
<text text-anchor="middle" x="90" y="-55" font-family="Helvetica,sans-Serif" font-size="10.00">&lt; dim &gt;</text>
</a>
</g>
</g>
<!-- Node3&#45;&gt;Node1 -->
<g id="edge2_Node000001_Node000003" class="edge">
<title>Node3&#45;&gt;Node1</title>
<g id="a_edge2_Node000001_Node000003"><a xlink:title=" ">
<path fill="none" stroke="#9a32cd" stroke-dasharray="5,2" d="M157.55,-63C200.07,-63 256,-63 303.83,-63"/>
<polygon fill="#9a32cd" stroke="#9a32cd" points="157.32,-59.5 147.32,-63 157.32,-66.5 157.32,-59.5"/>
</a>
</g>
<text text-anchor="middle" x="242" y="-66" font-family="Helvetica,sans-Serif" font-size="10.00" fill="grey"> m_fe_values</text>
</g>
<!-- Node4 -->
<g id="Node000004" class="node">
<title>Node4</title>
<g id="a_Node000004"><a xlink:href="structvulpes_1_1qrule_1_1QuadratureRule.html" target="_top" xlink:title=" ">
<polygon fill="white" stroke="#666666" points="160,-30 20,-30 20,0 160,0 160,-30"/>
<text text-anchor="start" x="28" y="-18" font-family="Helvetica,sans-Serif" font-size="10.00">vulpes::qrule::Quadrature</text>
<text text-anchor="middle" x="90" y="-7" font-family="Helvetica,sans-Serif" font-size="10.00">Rule&lt; double, dim &gt;</text>
</a>
</g>
</g>
<!-- Node4&#45;&gt;Node1 -->
<g id="edge3_Node000001_Node000004" class="edge">
<title>Node4&#45;&gt;Node1</title>
<g id="a_edge3_Node000001_Node000004"><a xlink:title=" ">
<path fill="none" stroke="#9a32cd" stroke-dasharray="5,2" d="M170.57,-22.08C206.03,-25.72 248.22,-30.72 286,-37 291.79,-37.96 297.73,-39.03 303.71,-40.16"/>
<polygon fill="#9a32cd" stroke="#9a32cd" points="170.58,-18.56 160.28,-21.04 169.88,-25.53 170.58,-18.56"/>
</a>
</g>
<text text-anchor="middle" x="242" y="-51" font-family="Helvetica,sans-Serif" font-size="10.00" fill="grey"> m_qrule_bndry_d</text>
<text text-anchor="middle" x="242" y="-40" font-family="Helvetica,sans-Serif" font-size="10.00" fill="grey">m_qrule_d</text>
</g>
</g>
</svg>
