<?xml version="1.0" encoding="UTF-8" standalone="no"?>
<!DOCTYPE svg PUBLIC "-//W3C//DTD SVG 1.1//EN"
 "http://www.w3.org/Graphics/SVG/1.1/DTD/svg11.dtd">
<!-- Generated by graphviz version 2.42.4 (0)
 -->
<!-- Title: vulpes::geometry::KMeansAgglomeration&lt; MeshType &gt; Pages: 1 -->
<svg width="198pt" height="182pt"
 viewBox="0.00 0.00 198.00 182.00" xmlns="http://www.w3.org/2000/svg" xmlns:xlink="http://www.w3.org/1999/xlink">
<g id="graph0" class="graph" transform="scale(1 1) rotate(0) translate(4 178)">
<title>vulpes::geometry::KMeansAgglomeration&lt; MeshType &gt;</title>
<!-- Node1 -->
<g id="Node000001" class="node">
<title>Node1</title>
<g id="a_Node000001"><a xlink:title="Agglomeration model that clusters cell barycenters with K&#45;Means.">
<polygon fill="#999999" stroke="#666666" points="175,-30 15,-30 15,0 175,0 175,-30"/>
<text text-anchor="start" x="23" y="-18" font-family="Helvetica,sans-Serif" font-size="10.00">vulpes::geometry::KMeans</text>
<text text-anchor="middle" x="95" y="-7" font-family="Helvetica,sans-Serif" font-size="10.00">Agglomeration&lt; MeshType &gt;</text>
</a>
</g>
</g>
<!-- Node2 -->
<g id="Node000002" class="node">
<title>Node2</title>
<g id="a_Node000002"><a xlink:href="classvulpes_1_1geometry_1_1AbstractAgglomerationModel.html" target="_top" xlink:title="Defines an abstract interface for mesh agglomeration strategies.">
<polygon fill="white" stroke="#666666" points="190,-97 0,-97 0,-67 190,-67 190,-97"/>
<text text-anchor="start" x="8" y="-85" font-family="Helvetica,sans-Serif" font-size="10.00">vulpes::geometry::Abstract</text>
<text text-anchor="middle" x="95" y="-74" font-family="Helvetica,sans-Serif" font-size="10.00">AgglomerationModel&lt; MeshType &gt;</text>
</a>
</g>
</g>
<!-- Node2&#45;&gt;Node1 -->
<g id="edge1_Node000001_Node000002" class="edge">
<title>Node2&#45;&gt;Node1</title>
<g id="a_edge1_Node000001_Node000002"><a xlink:title=" ">
<path fill="none" stroke="#63b8ff" d="M95,-56.61C95,-47.65 95,-37.82 95,-30.08"/>
<polygon fill="#63b8ff" stroke="#63b8ff" points="91.5,-56.9 95,-66.9 98.5,-56.9 91.5,-56.9"/>
</a>
</g>
</g>
<!-- Node3 -->
<g id="Node000003" class="node">
<title>Node3</title>
<g id="a_Node000003"><a xlink:href="classvulpes_1_1datastructure_1_1CrsMap.html" target="_top" xlink:title=" ">
<polygon fill="white" stroke="#666666" points="175,-174 15,-174 15,-144 175,-144 175,-174"/>
<text text-anchor="start" x="23" y="-162" font-family="Helvetica,sans-Serif" font-size="10.00">vulpes::datastructure</text>
<text text-anchor="middle" x="95" y="-151" font-family="Helvetica,sans-Serif" font-size="10.00">::CrsMap&lt; index_t, index_t &gt;</text>
</a>
</g>
</g>
<!-- Node3&#45;&gt;Node2 -->
<g id="edge2_Node000002_Node000003" class="edge">
<title>Node3&#45;&gt;Node2</title>
<g id="a_edge2_Node000002_Node000003"><a xlink:title=" ">
<path fill="none" stroke="#9a32cd" stroke-dasharray="5,2" d="M95,-133.54C95,-121.45 95,-107.29 95,-97.04"/>
<polygon fill="#9a32cd" stroke="#9a32cd" points="91.5,-133.89 95,-143.89 98.5,-133.89 91.5,-133.89"/>
</a>
</g>
<text text-anchor="middle" x="128.5" y="-118" font-family="Helvetica,sans-Serif" font-size="10.00" fill="grey"> m_dual_map</text>
</g>
</g>
</svg>
