<?xml version="1.0" encoding="UTF-8" standalone="no"?>
<!DOCTYPE svg PUBLIC "-//W3C//DTD SVG 1.1//EN"
 "http://www.w3.org/Graphics/SVG/1.1/DTD/svg11.dtd">
<!-- Generated by graphviz version 12.2.1 (20241206.2353)
 -->
<!-- Title: vulpes::geometry::MeshExporterSubmesh&lt; MeshDerived &gt; Pages: 1 -->
<svg width="167pt" height="173pt"
 viewBox="0.00 0.00 167.12 172.50" xmlns="http://www.w3.org/2000/svg" xmlns:xlink="http://www.w3.org/1999/xlink">
<g id="graph0" class="graph" transform="scale(1 1) rotate(0) translate(4 168.5)">
<title>vulpes::geometry::MeshExporterSubmesh&lt; MeshDerived &gt;</title>
<!-- Node1 -->
<g id="Node000001" class="node">
<title>Node1</title>
<g id="a_Node000001"><a xlink:title="Exports a mesh as multiple VTK grids, one for each cell.">
<polygon fill="#999999" stroke="#666666" points="157.75,-30.5 0,-30.5 0,0 157.75,0 157.75,-30.5"/>
<text text-anchor="start" x="8" y="-17" font-family="Helvetica,sans-Serif" font-size="10.00">vulpes::geometry::MeshExporter</text>
<text text-anchor="middle" x="78.88" y="-5.75" font-family="Helvetica,sans-Serif" font-size="10.00">Submesh&lt; MeshDerived &gt;</text>
</a>
</g>
</g>
<!-- Node2 -->
<g id="Node000002" class="node">
<title>Node2</title>
<g id="a_Node000002"><a xlink:href="classvulpes_1_1geometry_1_1MeshExporterBase.html" target="_top" xlink:title="Base class for exporting a mesh to VTK file formats.">
<polygon fill="white" stroke="#666666" points="157.75,-98 0,-98 0,-67.5 157.75,-67.5 157.75,-98"/>
<text text-anchor="start" x="8" y="-84.5" font-family="Helvetica,sans-Serif" font-size="10.00">vulpes::geometry::MeshExporter</text>
<text text-anchor="middle" x="78.88" y="-73.25" font-family="Helvetica,sans-Serif" font-size="10.00">Base&lt; MeshDerived &gt;</text>
</a>
</g>
</g>
<!-- Node2&#45;&gt;Node1 -->
<g id="edge1_Node000001_Node000002" class="edge">
<title>Node2&#45;&gt;Node1</title>
<g id="a_edge1_Node000001_Node000002"><a xlink:title=" ">
<path fill="none" stroke="#63b8ff" d="M78.88,-55.84C78.88,-47.3 78.88,-38.12 78.88,-30.75"/>
<polygon fill="#63b8ff" stroke="#63b8ff" points="75.38,-55.7 78.88,-65.7 82.38,-55.7 75.38,-55.7"/>
</a>
</g>
</g>
<!-- Node3 -->
<g id="Node000003" class="node">
<title>Node3</title>
<g id="a_Node000003"><a xlink:href="structvulpes_1_1geometry_1_1VtuOptions.html" target="_top" xlink:title="Configuration options for VTU file export.">
<polygon fill="white" stroke="#666666" points="151.75,-164.5 6,-164.5 6,-145.25 151.75,-145.25 151.75,-164.5"/>
<text text-anchor="middle" x="78.88" y="-151" font-family="Helvetica,sans-Serif" font-size="10.00">vulpes::geometry::VtuOptions</text>
</a>
</g>
</g>
<!-- Node3&#45;&gt;Node2 -->
<g id="edge2_Node000002_Node000003" class="edge">
<title>Node3&#45;&gt;Node2</title>
<g id="a_edge2_Node000002_Node000003"><a xlink:title=" ">
<path fill="none" stroke="#9a32cd" stroke-dasharray="5,2" d="M78.88,-133.67C78.88,-122.41 78.88,-108.64 78.88,-98.42"/>
<polygon fill="#9a32cd" stroke="#9a32cd" points="75.38,-133.48 78.88,-143.48 82.38,-133.48 75.38,-133.48"/>
</a>
</g>
<text text-anchor="middle" x="119" y="-117.75" font-family="Helvetica,sans-Serif" font-size="10.00" fill="grey"> m_export_options</text>
</g>
</g>
</svg>
