<?xml version="1.0" encoding="UTF-8" standalone="no"?>
<!DOCTYPE svg PUBLIC "-//W3C//DTD SVG 1.1//EN"
 "http://www.w3.org/Graphics/SVG/1.1/DTD/svg11.dtd">
<!-- Generated by graphviz version 2.42.4 (0)
 -->
<!-- Title: vulpes::assemble::WeakFormIntegratorQFree&lt; MeshType, FeExpressionTuple, FeExpressionFaceTuple &gt; Pages: 1 -->
<!--zoomable 147 -->

<svg id="main" version="1.1" xmlns="http://www.w3.org/2000/svg" xmlns:xlink="http://www.w3.org/1999/xlink" xml:space="preserve" onload="init(evt)">
<style type="text/css"><![CDATA[
.node, .edge {opacity: 0.7;}
.node.selected, .edge.selected {opacity: 1;}
.edge:hover path { stroke: red; }
.edge:hover polygon { stroke: red; fill: red; }
]]></style>

<defs>
  <circle id="rim" cx="0" cy="0" r="7"/>
  <circle id="rim2" cx="0" cy="0" r="3.5"/>
  <g id="zoomPlus">
    <use xlink:href="#rim" fill="#404040"><set attributeName="fill" to="#808080" begin="zoomplus.mouseover" end="zoomplus.mouseout"/></use>
    <path d="M-4,0h8M0,-4v8" fill="none" stroke="white" stroke-width="1.5" pointer-events="none"/>
  </g>
  <g id="zoomMin">
    <use xlink:href="#rim" fill="#404040"><set attributeName="fill" to="#808080" begin="zoomminus.mouseover" end="zoomminus.mouseout"/></use>
    <path d="M-4,0h8" fill="none" stroke="white" stroke-width="1.5" pointer-events="none"/>
  </g>
  <g id="arrowUp" transform="translate(30 24)">
    <use xlink:href="#rim"/>
    <path pointer-events="none" fill="none" stroke="white" stroke-width="1.5" d="M0,-3.0v7 M-2.5,-0.5L0,-3.0L2.5,-0.5"/>
  </g>
  <g id="arrowRight" transform="rotate(90) translate(36 -43)">
    <use xlink:href="#rim"/>
    <path pointer-events="none" fill="none" stroke="white" stroke-width="1.5" d="M0,-3.0v7 M-2.5,-0.5L0,-3.0L2.5,-0.5"/>
  </g>
  <g id="arrowDown" transform="rotate(180) translate(-30 -48)">
    <use xlink:href="#rim"/>
    <path pointer-events="none" fill="none" stroke="white" stroke-width="1.5" d="M0,-3.0v7 M-2.5,-0.5L0,-3.0L2.5,-0.5"/>
  </g>
  <g id="arrowLeft" transform="rotate(270) translate(-36 17)">
    <use xlink:href="#rim"/>
    <path pointer-events="none" fill="none" stroke="white" stroke-width="1.5" d="M0,-3.0v7 M-2.5,-0.5L0,-3.0L2.5,-0.5"/>
  </g>
  <g id="resetDef">
    <use xlink:href="#rim2" fill="#404040"><set attributeName="fill" to="#808080" begin="reset.mouseover" end="reset.mouseout"/></use>
  </g>
</defs>
<script type="application/ecmascript">
var viewWidth = 1104;
var viewHeight = 147;
var sectionId = 'dynsection-1';
</script>
<script type="application/ecmascript" xlink:href="svg.min.js"/>
<svg id="graph" class="graph">
<g id="viewport">
<title>vulpes::assemble::WeakFormIntegratorQFree&lt; MeshType, FeExpressionTuple, FeExpressionFaceTuple &gt;</title>
<!-- Node1 -->
<g id="Node000001" class="node">
<title>Node1</title>
<g id="a_Node000001"><a xlink:title="Implements a quadrature&#45;free finite element integrator.">
<polygon fill="#999999" stroke="#666666" points="1096,-59.5 916,-59.5 916,-7.5 1096,-7.5 1096,-59.5"/>
<text text-anchor="start" x="924" y="-47.5" font-family="Helvetica,sans-Serif" font-size="10.00">vulpes::assemble::WeakForm</text>
<text text-anchor="start" x="924" y="-36.5" font-family="Helvetica,sans-Serif" font-size="10.00">IntegratorQFree&lt; MeshType,</text>
<text text-anchor="start" x="924" y="-25.5" font-family="Helvetica,sans-Serif" font-size="10.00"> FeExpressionTuple, FeExpression</text>
<text text-anchor="middle" x="1006" y="-14.5" font-family="Helvetica,sans-Serif" font-size="10.00">FaceTuple &gt;</text>
</a>
</g>
</g>
<!-- Node2 -->
<g id="Node000002" class="node">
<title>Node2</title>
<g id="a_Node000002"><a xlink:href="classvulpes_1_1assemble_1_1WeakFormIntegratorBase.html" target="_top" xlink:title="Base class for weak form integrators.">
<polygon fill="white" stroke="#666666" points="780,-111.5 600,-111.5 600,-59.5 780,-59.5 780,-111.5"/>
<text text-anchor="start" x="608" y="-99.5" font-family="Helvetica,sans-Serif" font-size="10.00">vulpes::assemble::WeakForm</text>
<text text-anchor="start" x="608" y="-88.5" font-family="Helvetica,sans-Serif" font-size="10.00">IntegratorBase&lt; MeshType,</text>
<text text-anchor="start" x="608" y="-77.5" font-family="Helvetica,sans-Serif" font-size="10.00"> FeExpressionTuple, FeExpression</text>
<text text-anchor="middle" x="690" y="-66.5" font-family="Helvetica,sans-Serif" font-size="10.00">FaceTuple &gt;</text>
</a>
</g>
</g>
<!-- Node2&#45;&gt;Node1 -->
<g id="edge1_Node000001_Node000002" class="edge">
<title>Node2&#45;&gt;Node1</title>
<g id="a_edge1_Node000001_Node000002"><a xlink:title=" ">
<path fill="none" stroke="#63b8ff" d="M790.25,-69.06C830.54,-62.39 876.72,-54.74 915.91,-48.25"/>
<polygon fill="#63b8ff" stroke="#63b8ff" points="789.43,-65.65 780.14,-70.74 790.58,-72.56 789.43,-65.65"/>
</a>
</g>
</g>
<!-- Node3 -->
<g id="Node000003" class="node">
<title>Node3</title>
<g id="a_Node000003"><a xlink:href="classvulpes_1_1assemble_1_1CellManager.html" target="_top" xlink:title=" ">
<polygon fill="white" stroke="#666666" points="475,-127.5 305,-127.5 305,-97.5 475,-97.5 475,-127.5"/>
<text text-anchor="start" x="313" y="-115.5" font-family="Helvetica,sans-Serif" font-size="10.00">vulpes::assemble::CellManager</text>
<text text-anchor="middle" x="390" y="-104.5" font-family="Helvetica,sans-Serif" font-size="10.00">&lt; MeshType, FeType &gt;</text>
</a>
</g>
</g>
<!-- Node3&#45;&gt;Node2 -->
<g id="edge2_Node000002_Node000003" class="edge">
<title>Node3&#45;&gt;Node2</title>
<g id="a_edge2_Node000002_Node000003"><a xlink:title=" ">
<path fill="none" stroke="#9a32cd" stroke-dasharray="5,2" d="M485.38,-103.95C521.99,-100.63 563.71,-96.85 599.81,-93.58"/>
<polygon fill="#9a32cd" stroke="#9a32cd" points="484.84,-100.48 475.2,-104.87 485.47,-107.45 484.84,-100.48"/>
</a>
</g>
<text text-anchor="middle" x="537.5" y="-116.5" font-family="Helvetica,sans-Serif" font-size="10.00" fill="grey"> m_cell_manager</text>
<text text-anchor="middle" x="537.5" y="-105.5" font-family="Helvetica,sans-Serif" font-size="10.00" fill="grey">m_cell_neigh_info</text>
</g>
<!-- Node4 -->
<g id="Node000004" class="node">
<title>Node4</title>
<g id="a_Node000004"><a xlink:href="classvulpes_1_1datastructure_1_1CrsMap.html" target="_top" xlink:title=" ">
<polygon fill="white" stroke="#666666" points="156,-138.5 0,-138.5 0,-86.5 156,-86.5 156,-138.5"/>
<text text-anchor="start" x="8" y="-126.5" font-family="Helvetica,sans-Serif" font-size="10.00">vulpes::datastructure</text>
<text text-anchor="start" x="8" y="-115.5" font-family="Helvetica,sans-Serif" font-size="10.00">::CrsMap&lt; vulpes::assemble</text>
<text text-anchor="start" x="8" y="-104.5" font-family="Helvetica,sans-Serif" font-size="10.00">::CellManager::NeighInfo,</text>
<text text-anchor="middle" x="78" y="-93.5" font-family="Helvetica,sans-Serif" font-size="10.00"> index_t &gt;</text>
</a>
</g>
</g>
<!-- Node4&#45;&gt;Node3 -->
<g id="edge3_Node000003_Node000004" class="edge">
<title>Node4&#45;&gt;Node3</title>
<g id="a_edge3_Node000003_Node000004"><a xlink:title=" ">
<path fill="none" stroke="#9a32cd" stroke-dasharray="5,2" d="M166.28,-112.5C209.64,-112.5 261.8,-112.5 304.74,-112.5"/>
<polygon fill="#9a32cd" stroke="#9a32cd" points="166.03,-109 156.03,-112.5 166.03,-116 166.03,-109"/>
</a>
</g>
<text text-anchor="middle" x="230.5" y="-115.5" font-family="Helvetica,sans-Serif" font-size="10.00" fill="grey"> m_cell_to_facet_neigh</text>
</g>
<!-- Node5 -->
<g id="Node000005" class="node">
<title>Node5</title>
<g id="a_Node000005"><a xlink:href="classvulpes_1_1fe_1_1FeValues.html" target="_top" xlink:title=" ">
<polygon fill="white" stroke="#666666" points="447,-79.5 333,-79.5 333,-49.5 447,-49.5 447,-79.5"/>
<text text-anchor="start" x="341" y="-67.5" font-family="Helvetica,sans-Serif" font-size="10.00">vulpes::fe::FeValues</text>
<text text-anchor="middle" x="390" y="-56.5" font-family="Helvetica,sans-Serif" font-size="10.00">&lt; dim &gt;</text>
</a>
</g>
</g>
<!-- Node5&#45;&gt;Node2 -->
<g id="edge4_Node000002_Node000005" class="edge">
<title>Node5&#45;&gt;Node2</title>
<g id="a_edge4_Node000002_Node000005"><a xlink:title=" ">
<path fill="none" stroke="#9a32cd" stroke-dasharray="5,2" d="M457.17,-65.99C493.98,-67.13 540.58,-69.12 582,-72.5 587.78,-72.97 593.73,-73.52 599.73,-74.12"/>
<polygon fill="#9a32cd" stroke="#9a32cd" points="457.17,-62.48 447.07,-65.68 456.96,-69.48 457.17,-62.48"/>
</a>
</g>
<text text-anchor="middle" x="537.5" y="-75.5" font-family="Helvetica,sans-Serif" font-size="10.00" fill="grey"> m_fe_values</text>
</g>
<!-- Node6 -->
<g id="Node000006" class="node">
<title>Node6</title>
<g id="a_Node000006"><a xlink:href="classvulpes_1_1datastructure_1_1CrsMap.html" target="_top" xlink:title=" ">
<polygon fill="white" stroke="#666666" points="771.5,-41 608.5,-41 608.5,0 771.5,0 771.5,-41"/>
<text text-anchor="start" x="616.5" y="-29" font-family="Helvetica,sans-Serif" font-size="10.00">vulpes::datastructure</text>
<text text-anchor="start" x="616.5" y="-18" font-family="Helvetica,sans-Serif" font-size="10.00">::CrsMap&lt; std::pair&lt;</text>
<text text-anchor="middle" x="690" y="-7" font-family="Helvetica,sans-Serif" font-size="10.00"> double, uint16_t &gt;, index_t &gt;</text>
</a>
</g>
</g>
<!-- Node6&#45;&gt;Node1 -->
<g id="edge5_Node000001_Node000006" class="edge">
<title>Node6&#45;&gt;Node1</title>
<g id="a_edge5_Node000001_Node000006"><a xlink:title=" ">
<path fill="none" stroke="#9a32cd" stroke-dasharray="5,2" d="M782.11,-24.27C824.2,-26.01 874,-28.08 915.85,-29.81"/>
<polygon fill="#9a32cd" stroke="#9a32cd" points="782,-20.76 771.86,-23.85 781.71,-27.76 782,-20.76"/>
</a>
</g>
<text text-anchor="middle" x="848" y="-32.5" font-family="Helvetica,sans-Serif" font-size="10.00" fill="grey"> m_gathered_monos</text>
</g>
</g>
</svg>

<g id="navigator" transform="translate(0 0)" fill="#404254">
  <rect fill="#f2f5e9" fill-opacity="0.5" stroke="#606060" stroke-width=".5" x="0" y="0" width="60" height="60"/>
  <use id="zoomplus" xlink:href="#zoomPlus" x="17" y="9" onmousedown="handleZoom(evt,'in')"/>
  <use id="zoomminus" xlink:href="#zoomMin" x="42" y="9" onmousedown="handleZoom(evt,'out')"/>
  <use id="reset" xlink:href="#resetDef" x="30" y="36" onmousedown="handleReset()"/>
   <use id="arrowup" xlink:href="#arrowUp" x="0" y="0" onmousedown="handlePan(0,-1)"/>
  <use id="arrowright" xlink:href="#arrowRight" x="0" y="0" onmousedown="handlePan(1,0)"/>
  <use id="arrowdown" xlink:href="#arrowDown" x="0" y="0" onmousedown="handlePan(0,1)"/>
  <use id="arrowleft" xlink:href="#arrowLeft" x="0" y="0" onmousedown="handlePan(-1,0)"/>
</g>
<svg viewBox="0 0 15 15" width="100%" height="30px" preserveAspectRatio="xMaxYMin meet">
 <g id="arrow_out" transform="scale(0.3 0.3)">
  <a xlink:href="classvulpes_1_1assemble_1_1WeakFormIntegratorQFree__coll__graph_org.svg" target="_base">
   <rect id="button" ry="5" rx="5" y="6" x="6" height="38" width="38"
        fill="#f2f5e9" fill-opacity="0.5" stroke="#606060" stroke-width="1.0"/>
   <path id="arrow"
     d="M 11.500037,31.436501 C 11.940474,20.09759 22.043105,11.32322 32.158766,21.979434 L 37.068811,17.246167 C 37.068811,17.246167 37.088388,32 37.088388,32 L 22.160133,31.978069 C 22.160133,31.978069 26.997745,27.140456 26.997745,27.140456 C 18.528582,18.264221 13.291696,25.230495 11.500037,31.436501 z"
     style="fill:#404040;"/>
  </a>
 </g>
</svg>

<style type='text/css'>
<![CDATA[
[data-mouse-over-selected='false'] { opacity: 0.7; }
[data-mouse-over-selected='true']  { opacity: 1.0; }
]]>
</style>
<script type="application/ecmascript"><![CDATA[
document.addEventListener('DOMContentLoaded', (event) => {
  highlightEdges();
  highlightAdjacentNodes();
});
]]></script>
</svg>
