<?xml version="1.0" encoding="UTF-8" standalone="no"?>
<!DOCTYPE svg PUBLIC "-//W3C//DTD SVG 1.1//EN"
 "http://www.w3.org/Graphics/SVG/1.1/DTD/svg11.dtd">
<!-- Generated by graphviz version 2.42.4 (0)
 -->
<!-- Title: vulpes::assemble::WeakFormIntegratorBase&lt; MeshType, FeExpressionTuple, FeExpressionFaceTuple &gt; Pages: 1 -->
<!--zoomable 97 -->

<svg id="main" version="1.1" xmlns="http://www.w3.org/2000/svg" xmlns:xlink="http://www.w3.org/1999/xlink" xml:space="preserve" onload="init(evt)">
<style type="text/css"><![CDATA[
.node, .edge {opacity: 0.7;}
.node.selected, .edge.selected {opacity: 1;}
.edge:hover path { stroke: red; }
.edge:hover polygon { stroke: red; fill: red; }
]]></style>

<defs>
  <circle id="rim" cx="0" cy="0" r="7"/>
  <circle id="rim2" cx="0" cy="0" r="3.5"/>
  <g id="zoomPlus">
    <use xlink:href="#rim" fill="#404040"><set attributeName="fill" to="#808080" begin="zoomplus.mouseover" end="zoomplus.mouseout"/></use>
    <path d="M-4,0h8M0,-4v8" fill="none" stroke="white" stroke-width="1.5" pointer-events="none"/>
  </g>
  <g id="zoomMin">
    <use xlink:href="#rim" fill="#404040"><set attributeName="fill" to="#808080" begin="zoomminus.mouseover" end="zoomminus.mouseout"/></use>
    <path d="M-4,0h8" fill="none" stroke="white" stroke-width="1.5" pointer-events="none"/>
  </g>
  <g id="arrowUp" transform="translate(30 24)">
    <use xlink:href="#rim"/>
    <path pointer-events="none" fill="none" stroke="white" stroke-width="1.5" d="M0,-3.0v7 M-2.5,-0.5L0,-3.0L2.5,-0.5"/>
  </g>
  <g id="arrowRight" transform="rotate(90) translate(36 -43)">
    <use xlink:href="#rim"/>
    <path pointer-events="none" fill="none" stroke="white" stroke-width="1.5" d="M0,-3.0v7 M-2.5,-0.5L0,-3.0L2.5,-0.5"/>
  </g>
  <g id="arrowDown" transform="rotate(180) translate(-30 -48)">
    <use xlink:href="#rim"/>
    <path pointer-events="none" fill="none" stroke="white" stroke-width="1.5" d="M0,-3.0v7 M-2.5,-0.5L0,-3.0L2.5,-0.5"/>
  </g>
  <g id="arrowLeft" transform="rotate(270) translate(-36 17)">
    <use xlink:href="#rim"/>
    <path pointer-events="none" fill="none" stroke="white" stroke-width="1.5" d="M0,-3.0v7 M-2.5,-0.5L0,-3.0L2.5,-0.5"/>
  </g>
  <g id="resetDef">
    <use xlink:href="#rim2" fill="#404040"><set attributeName="fill" to="#808080" begin="reset.mouseover" end="reset.mouseout"/></use>
  </g>
</defs>
<script type="application/ecmascript">
var viewWidth = 788;
var viewHeight = 97;
var sectionId = 'dynsection-1';
</script>
<script type="application/ecmascript" xlink:href="svg.min.js"/>
<svg id="graph" class="graph">
<g id="viewport">
<title>vulpes::assemble::WeakFormIntegratorBase&lt; MeshType, FeExpressionTuple, FeExpressionFaceTuple &gt;</title>
<!-- Node1 -->
<g id="Node000001" class="node">
<title>Node1</title>
<g id="a_Node000001"><a xlink:title="Base class for weak form integrators.">
<polygon fill="#999999" stroke="#666666" points="780,-58 600,-58 600,-6 780,-6 780,-58"/>
<text text-anchor="start" x="608" y="-46" font-family="Helvetica,sans-Serif" font-size="10.00">vulpes::assemble::WeakForm</text>
<text text-anchor="start" x="608" y="-35" font-family="Helvetica,sans-Serif" font-size="10.00">IntegratorBase&lt; MeshType,</text>
<text text-anchor="start" x="608" y="-24" font-family="Helvetica,sans-Serif" font-size="10.00"> FeExpressionTuple, FeExpression</text>
<text text-anchor="middle" x="690" y="-13" font-family="Helvetica,sans-Serif" font-size="10.00">FaceTuple &gt;</text>
</a>
</g>
</g>
<!-- Node2 -->
<g id="Node000002" class="node">
<title>Node2</title>
<g id="a_Node000002"><a xlink:href="classvulpes_1_1assemble_1_1CellManager.html" target="_top" xlink:title=" ">
<polygon fill="white" stroke="#666666" points="475,-78 305,-78 305,-48 475,-48 475,-78"/>
<text text-anchor="start" x="313" y="-66" font-family="Helvetica,sans-Serif" font-size="10.00">vulpes::assemble::CellManager</text>
<text text-anchor="middle" x="390" y="-55" font-family="Helvetica,sans-Serif" font-size="10.00">&lt; MeshType, FeType &gt;</text>
</a>
</g>
</g>
<!-- Node2&#45;&gt;Node1 -->
<g id="edge1_Node000001_Node000002" class="edge">
<title>Node2&#45;&gt;Node1</title>
<g id="a_edge1_Node000001_Node000002"><a xlink:title=" ">
<path fill="none" stroke="#9a32cd" stroke-dasharray="5,2" d="M485.38,-53.18C521.99,-49.37 563.71,-45.03 599.81,-41.28"/>
<polygon fill="#9a32cd" stroke="#9a32cd" points="484.78,-49.72 475.2,-54.24 485.51,-56.69 484.78,-49.72"/>
</a>
</g>
<text text-anchor="middle" x="537.5" y="-67" font-family="Helvetica,sans-Serif" font-size="10.00" fill="grey"> m_cell_manager</text>
<text text-anchor="middle" x="537.5" y="-56" font-family="Helvetica,sans-Serif" font-size="10.00" fill="grey">m_cell_neigh_info</text>
</g>
<!-- Node3 -->
<g id="Node000003" class="node">
<title>Node3</title>
<g id="a_Node000003"><a xlink:href="classvulpes_1_1datastructure_1_1CrsMap.html" target="_top" xlink:title=" ">
<polygon fill="white" stroke="#666666" points="156,-89 0,-89 0,-37 156,-37 156,-89"/>
<text text-anchor="start" x="8" y="-77" font-family="Helvetica,sans-Serif" font-size="10.00">vulpes::datastructure</text>
<text text-anchor="start" x="8" y="-66" font-family="Helvetica,sans-Serif" font-size="10.00">::CrsMap&lt; vulpes::assemble</text>
<text text-anchor="start" x="8" y="-55" font-family="Helvetica,sans-Serif" font-size="10.00">::CellManager::NeighInfo,</text>
<text text-anchor="middle" x="78" y="-44" font-family="Helvetica,sans-Serif" font-size="10.00"> index_t &gt;</text>
</a>
</g>
</g>
<!-- Node3&#45;&gt;Node2 -->
<g id="edge2_Node000002_Node000003" class="edge">
<title>Node3&#45;&gt;Node2</title>
<g id="a_edge2_Node000002_Node000003"><a xlink:title=" ">
<path fill="none" stroke="#9a32cd" stroke-dasharray="5,2" d="M166.28,-63C209.64,-63 261.8,-63 304.74,-63"/>
<polygon fill="#9a32cd" stroke="#9a32cd" points="166.03,-59.5 156.03,-63 166.03,-66.5 166.03,-59.5"/>
</a>
</g>
<text text-anchor="middle" x="230.5" y="-66" font-family="Helvetica,sans-Serif" font-size="10.00" fill="grey"> m_cell_to_facet_neigh</text>
</g>
<!-- Node4 -->
<g id="Node000004" class="node">
<title>Node4</title>
<g id="a_Node000004"><a xlink:href="classvulpes_1_1fe_1_1FeValues.html" target="_top" xlink:title=" ">
<polygon fill="white" stroke="#666666" points="447,-30 333,-30 333,0 447,0 447,-30"/>
<text text-anchor="start" x="341" y="-18" font-family="Helvetica,sans-Serif" font-size="10.00">vulpes::fe::FeValues</text>
<text text-anchor="middle" x="390" y="-7" font-family="Helvetica,sans-Serif" font-size="10.00">&lt; dim &gt;</text>
</a>
</g>
</g>
<!-- Node4&#45;&gt;Node1 -->
<g id="edge3_Node000001_Node000004" class="edge">
<title>Node4&#45;&gt;Node1</title>
<g id="a_edge3_Node000001_Node000004"><a xlink:title=" ">
<path fill="none" stroke="#9a32cd" stroke-dasharray="5,2" d="M457.13,-17.09C493.92,-18.42 540.52,-20.39 582,-23 587.86,-23.37 593.9,-23.78 599.98,-24.23"/>
<polygon fill="#9a32cd" stroke="#9a32cd" points="457.15,-13.58 447.03,-16.73 456.9,-20.58 457.15,-13.58"/>
</a>
</g>
<text text-anchor="middle" x="537.5" y="-26" font-family="Helvetica,sans-Serif" font-size="10.00" fill="grey"> m_fe_values</text>
</g>
</g>
</svg>

<g id="navigator" transform="translate(0 0)" fill="#404254">
  <rect fill="#f2f5e9" fill-opacity="0.5" stroke="#606060" stroke-width=".5" x="0" y="0" width="60" height="60"/>
  <use id="zoomplus" xlink:href="#zoomPlus" x="17" y="9" onmousedown="handleZoom(evt,'in')"/>
  <use id="zoomminus" xlink:href="#zoomMin" x="42" y="9" onmousedown="handleZoom(evt,'out')"/>
  <use id="reset" xlink:href="#resetDef" x="30" y="36" onmousedown="handleReset()"/>
   <use id="arrowup" xlink:href="#arrowUp" x="0" y="0" onmousedown="handlePan(0,-1)"/>
  <use id="arrowright" xlink:href="#arrowRight" x="0" y="0" onmousedown="handlePan(1,0)"/>
  <use id="arrowdown" xlink:href="#arrowDown" x="0" y="0" onmousedown="handlePan(0,1)"/>
  <use id="arrowleft" xlink:href="#arrowLeft" x="0" y="0" onmousedown="handlePan(-1,0)"/>
</g>
<svg viewBox="0 0 15 15" width="100%" height="30px" preserveAspectRatio="xMaxYMin meet">
 <g id="arrow_out" transform="scale(0.3 0.3)">
  <a xlink:href="classvulpes_1_1assemble_1_1WeakFormIntegratorBase__coll__graph_org.svg" target="_base">
   <rect id="button" ry="5" rx="5" y="6" x="6" height="38" width="38"
        fill="#f2f5e9" fill-opacity="0.5" stroke="#606060" stroke-width="1.0"/>
   <path id="arrow"
     d="M 11.500037,31.436501 C 11.940474,20.09759 22.043105,11.32322 32.158766,21.979434 L 37.068811,17.246167 C 37.068811,17.246167 37.088388,32 37.088388,32 L 22.160133,31.978069 C 22.160133,31.978069 26.997745,27.140456 26.997745,27.140456 C 18.528582,18.264221 13.291696,25.230495 11.500037,31.436501 z"
     style="fill:#404040;"/>
  </a>
 </g>
</svg>

<style type='text/css'>
<![CDATA[
[data-mouse-over-selected='false'] { opacity: 0.7; }
[data-mouse-over-selected='true']  { opacity: 1.0; }
]]>
</style>
<script type="application/ecmascript"><![CDATA[
document.addEventListener('DOMContentLoaded', (event) => {
  highlightEdges();
  highlightAdjacentNodes();
});
]]></script>
</svg>
