<?xml version="1.0" encoding="UTF-8" standalone="no"?>
<!DOCTYPE svg PUBLIC "-//W3C//DTD SVG 1.1//EN"
 "http://www.w3.org/Graphics/SVG/1.1/DTD/svg11.dtd">
<!-- Generated by graphviz version 12.2.1 (20241206.2353)
 -->
<!-- Title: vulpes::geometry::GNNAgglomeration&lt; MeshType &gt; Pages: 1 -->
<svg width="672pt" height="76pt"
 viewBox="0.00 0.00 671.75 75.88" xmlns="http://www.w3.org/2000/svg" xmlns:xlink="http://www.w3.org/1999/xlink">
<g id="graph0" class="graph" transform="scale(1 1) rotate(0) translate(4 71.88)">
<title>vulpes::geometry::GNNAgglomeration&lt; MeshType &gt;</title>
<!-- Node1 -->
<g id="Node000001" class="node">
<title>Node1</title>
<g id="a_Node000001"><a xlink:title="GNN&#45;based agglomeration model (GraphSAGE via TorchScript).">
<polygon fill="#999999" stroke="#666666" points="663.75,-47.88 482,-47.88 482,-17.38 663.75,-17.38 663.75,-47.88"/>
<text text-anchor="start" x="490" y="-34.38" font-family="Helvetica,sans-Serif" font-size="10.00">vulpes::geometry::GNNAgglomeration</text>
<text text-anchor="middle" x="572.88" y="-23.12" font-family="Helvetica,sans-Serif" font-size="10.00">&lt; MeshType &gt;</text>
</a>
</g>
</g>
<!-- Node2 -->
<g id="Node000002" class="node">
<title>Node2</title>
<g id="a_Node000002"><a xlink:href="classvulpes_1_1geometry_1_1AbstractAgglomerationModel.html" target="_top" xlink:title="Defines an abstract interface for mesh agglomeration strategies.">
<polygon fill="white" stroke="#666666" points="405.5,-67.88 238,-67.88 238,-37.38 405.5,-37.38 405.5,-67.88"/>
<text text-anchor="start" x="246" y="-54.38" font-family="Helvetica,sans-Serif" font-size="10.00">vulpes::geometry::Abstract</text>
<text text-anchor="middle" x="321.75" y="-43.12" font-family="Helvetica,sans-Serif" font-size="10.00">AgglomerationModel&lt; MeshType &gt;</text>
</a>
</g>
</g>
<!-- Node2&#45;&gt;Node1 -->
<g id="edge1_Node000001_Node000002" class="edge">
<title>Node2&#45;&gt;Node1</title>
<g id="a_edge1_Node000001_Node000002"><a xlink:title=" ">
<path fill="none" stroke="#63b8ff" d="M416.98,-45.06C438.15,-43.36 460.57,-41.56 481.57,-39.87"/>
<polygon fill="#63b8ff" stroke="#63b8ff" points="416.9,-41.56 407.21,-45.84 417.46,-48.53 416.9,-41.56"/>
</a>
</g>
</g>
<!-- Node3 -->
<g id="Node000003" class="node">
<title>Node3</title>
<g id="a_Node000003"><a xlink:href="classvulpes_1_1datastructure_1_1CrsMap.html" target="_top" xlink:title=" ">
<polygon fill="white" stroke="#666666" points="143.5,-45.88 0,-45.88 0,-15.37 143.5,-15.37 143.5,-45.88"/>
<text text-anchor="start" x="8" y="-32.38" font-family="Helvetica,sans-Serif" font-size="10.00">vulpes::datastructure</text>
<text text-anchor="middle" x="71.75" y="-21.12" font-family="Helvetica,sans-Serif" font-size="10.00">::CrsMap&lt; index_t, index_t &gt;</text>
</a>
</g>
</g>
<!-- Node3&#45;&gt;Node2 -->
<g id="edge2_Node000002_Node000003" class="edge">
<title>Node3&#45;&gt;Node2</title>
<g id="a_edge2_Node000002_Node000003"><a xlink:title=" ">
<path fill="none" stroke="#9a32cd" stroke-dasharray="5,2" d="M155.03,-37.92C181.65,-40.29 211.18,-42.9 237.85,-45.27"/>
<polygon fill="#9a32cd" stroke="#9a32cd" points="155.59,-34.46 145.32,-37.06 154.98,-41.43 155.59,-34.46"/>
</a>
</g>
<text text-anchor="middle" x="190.75" y="-45.35" font-family="Helvetica,sans-Serif" font-size="10.00" fill="grey"> m_dual_map</text>
</g>
<!-- Node4 -->
<g id="Node000004" class="node">
<title>Node4</title>
<g id="a_Node000004"><a xlink:href="classvulpes_1_1geometry_1_1GNNGraph.html" target="_top" xlink:title="Graph wrapper with Torch tensors for features and edges.">
<polygon fill="white" stroke="#666666" points="394.62,-19.25 248.88,-19.25 248.88,0 394.62,0 394.62,-19.25"/>
<text text-anchor="middle" x="321.75" y="-5.75" font-family="Helvetica,sans-Serif" font-size="10.00">vulpes::geometry::GNNGraph</text>
</a>
</g>
</g>
<!-- Node3&#45;&gt;Node4 -->
<g id="edge4_Node000004_Node000003" class="edge">
<title>Node3&#45;&gt;Node4</title>
<g id="a_edge4_Node000004_Node000003"><a xlink:title=" ">
<path fill="none" stroke="#9a32cd" stroke-dasharray="5,2" d="M155.24,-17.05C157.35,-16.81 159.44,-16.58 161.5,-16.38 189.86,-13.51 221.18,-11.85 248.48,-10.9"/>
<polygon fill="#9a32cd" stroke="#9a32cd" points="154.86,-13.57 145.36,-18.27 155.72,-20.52 154.86,-13.57"/>
</a>
</g>
<text text-anchor="middle" x="190.75" y="-18.12" font-family="Helvetica,sans-Serif" font-size="10.00" fill="grey"> m_dual_map</text>
</g>
<!-- Node4&#45;&gt;Node1 -->
<g id="edge3_Node000001_Node000004" class="edge">
<title>Node4&#45;&gt;Node1</title>
<g id="a_edge3_Node000001_Node000004"><a xlink:title=" ">
<path fill="none" stroke="#9a32cd" stroke-dasharray="5,2" d="M406.16,-17.33C430.46,-19.57 457.11,-22.03 481.81,-24.31"/>
<polygon fill="#9a32cd" stroke="#9a32cd" points="406.59,-13.85 396.31,-16.42 405.95,-20.82 406.59,-13.85"/>
</a>
</g>
<text text-anchor="middle" x="443.75" y="-24.25" font-family="Helvetica,sans-Serif" font-size="10.00" fill="grey"> m_graph</text>
</g>
</g>
</svg>
