<?xml version="1.0" encoding="UTF-8" standalone="no"?>
<!DOCTYPE svg PUBLIC "-//W3C//DTD SVG 1.1//EN"
 "http://www.w3.org/Graphics/SVG/1.1/DTD/svg11.dtd">
<!-- Generated by graphviz version 12.2.1 (20241206.2353)
 -->
<!-- Title: vulpes::assemble::WeakFormIntegratorSimplexify&lt; MeshType, FeExpressionTuple, FeExpressionFaceTuple &gt; Pages: 1 -->
<svg width="1004pt" height="138pt"
 viewBox="0.00 0.00 1003.50 137.75" xmlns="http://www.w3.org/2000/svg" xmlns:xlink="http://www.w3.org/1999/xlink">
<g id="graph0" class="graph" transform="scale(1 1) rotate(0) translate(4 133.75)">
<title>vulpes::assemble::WeakFormIntegratorSimplexify&lt; MeshType, FeExpressionTuple, FeExpressionFaceTuple &gt;</title>
<!-- Node1 -->
<g id="Node000001" class="node">
<title>Node1</title>
<g id="a_Node000001"><a xlink:title="Integrator that simplexifies cells and integrates weak forms on them.">
<polygon fill="#999999" stroke="#666666" points="995.5,-60.75 804.75,-60.75 804.75,-7.75 995.5,-7.75 995.5,-60.75"/>
<text text-anchor="start" x="812.75" y="-47.25" font-family="Helvetica,sans-Serif" font-size="10.00">vulpes::assemble::WeakForm</text>
<text text-anchor="start" x="812.75" y="-36" font-family="Helvetica,sans-Serif" font-size="10.00">IntegratorSimplexify&lt; MeshType,</text>
<text text-anchor="start" x="812.75" y="-24.75" font-family="Helvetica,sans-Serif" font-size="10.00"> FeExpressionTuple, FeExpressionFace</text>
<text text-anchor="middle" x="900.12" y="-13.5" font-family="Helvetica,sans-Serif" font-size="10.00">Tuple &gt;</text>
</a>
</g>
</g>
<!-- Node2 -->
<g id="Node000002" class="node">
<title>Node2</title>
<g id="a_Node000002"><a xlink:href="classvulpes_1_1assemble_1_1WeakFormIntegratorBase.html" target="_top" xlink:title=" ">
<polygon fill="white" stroke="#666666" points="691.5,-101.75 545.75,-101.75 545.75,-48.75 691.5,-48.75 691.5,-101.75"/>
<text text-anchor="start" x="553.75" y="-88.25" font-family="Helvetica,sans-Serif" font-size="10.00">vulpes::assemble::WeakForm</text>
<text text-anchor="start" x="553.75" y="-77" font-family="Helvetica,sans-Serif" font-size="10.00">IntegratorBase&lt; MeshType,</text>
<text text-anchor="start" x="553.75" y="-65.75" font-family="Helvetica,sans-Serif" font-size="10.00"> FeExpressionTuple, std::</text>
<text text-anchor="middle" x="618.62" y="-54.5" font-family="Helvetica,sans-Serif" font-size="10.00">tuple&lt;&gt; &gt;</text>
</a>
</g>
</g>
<!-- Node2&#45;&gt;Node1 -->
<g id="edge1_Node000001_Node000002" class="edge">
<title>Node2&#45;&gt;Node1</title>
<g id="a_edge1_Node000001_Node000002"><a xlink:title=" ">
<path fill="none" stroke="#63b8ff" d="M703.04,-63.01C734.94,-58.33 771.54,-52.96 804.42,-48.14"/>
<polygon fill="#63b8ff" stroke="#63b8ff" points="702.85,-59.5 693.46,-64.42 703.87,-66.43 702.85,-59.5"/>
</a>
</g>
</g>
<!-- Node3 -->
<g id="Node000003" class="node">
<title>Node3</title>
<g id="a_Node000003"><a xlink:href="classvulpes_1_1assemble_1_1CellManager.html" target="_top" xlink:title=" ">
<polygon fill="white" stroke="#666666" points="431.75,-118.5 278.5,-118.5 278.5,-88 431.75,-88 431.75,-118.5"/>
<text text-anchor="start" x="286.5" y="-105" font-family="Helvetica,sans-Serif" font-size="10.00">vulpes::assemble::CellManager</text>
<text text-anchor="middle" x="355.12" y="-93.75" font-family="Helvetica,sans-Serif" font-size="10.00">&lt; MeshType, FeType &gt;</text>
</a>
</g>
</g>
<!-- Node3&#45;&gt;Node2 -->
<g id="edge2_Node000002_Node000003" class="edge">
<title>Node3&#45;&gt;Node2</title>
<g id="a_edge2_Node000002_Node000003"><a xlink:title=" ">
<path fill="none" stroke="#9a32cd" stroke-dasharray="5,2" d="M443.19,-93.93C476.39,-90.37 513.83,-86.36 545.49,-82.97"/>
<polygon fill="#9a32cd" stroke="#9a32cd" points="443.19,-90.41 433.62,-94.95 443.93,-97.37 443.19,-90.41"/>
</a>
</g>
<text text-anchor="middle" x="488.75" y="-105.58" font-family="Helvetica,sans-Serif" font-size="10.00" fill="grey"> m_cell_manager</text>
<text text-anchor="middle" x="488.75" y="-94.33" font-family="Helvetica,sans-Serif" font-size="10.00" fill="grey">m_cell_neigh_info</text>
</g>
<!-- Node4 -->
<g id="Node000004" class="node">
<title>Node4</title>
<g id="a_Node000004"><a xlink:href="classvulpes_1_1datastructure_1_1CrsMap.html" target="_top" xlink:title=" ">
<polygon fill="white" stroke="#666666" points="142,-129.75 0,-129.75 0,-76.75 142,-76.75 142,-129.75"/>
<text text-anchor="start" x="8" y="-116.25" font-family="Helvetica,sans-Serif" font-size="10.00">vulpes::datastructure</text>
<text text-anchor="start" x="8" y="-105" font-family="Helvetica,sans-Serif" font-size="10.00">::CrsMap&lt; vulpes::assemble</text>
<text text-anchor="start" x="8" y="-93.75" font-family="Helvetica,sans-Serif" font-size="10.00">::CellManager::NeighInfo,</text>
<text text-anchor="middle" x="71" y="-82.5" font-family="Helvetica,sans-Serif" font-size="10.00"> index_t &gt;</text>
</a>
</g>
</g>
<!-- Node4&#45;&gt;Node3 -->
<g id="edge3_Node000003_Node000004" class="edge">
<title>Node4&#45;&gt;Node3</title>
<g id="a_edge3_Node000003_Node000004"><a xlink:title=" ">
<path fill="none" stroke="#9a32cd" stroke-dasharray="5,2" d="M153.84,-103.25C193.05,-103.25 239.71,-103.25 278.13,-103.25"/>
<polygon fill="#9a32cd" stroke="#9a32cd" points="153.98,-99.75 143.98,-103.25 153.98,-106.75 153.98,-99.75"/>
</a>
</g>
<text text-anchor="middle" x="210.25" y="-105" font-family="Helvetica,sans-Serif" font-size="10.00" fill="grey"> m_cell_to_facet_neigh</text>
</g>
<!-- Node5 -->
<g id="Node000005" class="node">
<title>Node5</title>
<g id="a_Node000005"><a xlink:href="classvulpes_1_1fe_1_1FeValues.html" target="_top" xlink:title=" ">
<polygon fill="white" stroke="#666666" points="407.75,-69.5 302.5,-69.5 302.5,-39 407.75,-39 407.75,-69.5"/>
<text text-anchor="start" x="310.5" y="-56" font-family="Helvetica,sans-Serif" font-size="10.00">vulpes::fe::FeValues</text>
<text text-anchor="middle" x="355.12" y="-44.75" font-family="Helvetica,sans-Serif" font-size="10.00">&lt; dim &gt;</text>
</a>
</g>
</g>
<!-- Node5&#45;&gt;Node2 -->
<g id="edge4_Node000002_Node000005" class="edge">
<title>Node5&#45;&gt;Node2</title>
<g id="a_edge4_Node000002_Node000005"><a xlink:title=" ">
<path fill="none" stroke="#9a32cd" stroke-dasharray="5,2" d="M419.19,-55.57C451.68,-56.64 491.9,-58.56 527.75,-62 533.56,-62.56 539.57,-63.23 545.59,-63.98"/>
<polygon fill="#9a32cd" stroke="#9a32cd" points="419.66,-52.08 409.56,-55.27 419.44,-59.08 419.66,-52.08"/>
</a>
</g>
<text text-anchor="middle" x="488.75" y="-63.75" font-family="Helvetica,sans-Serif" font-size="10.00" fill="grey"> m_fe_values</text>
</g>
<!-- Node6 -->
<g id="Node000006" class="node">
<title>Node6</title>
<g id="a_Node000006"><a xlink:href="structvulpes_1_1qrule_1_1QuadratureRule.html" target="_top" xlink:title=" ">
<polygon fill="white" stroke="#666666" points="681.38,-30.5 555.88,-30.5 555.88,0 681.38,0 681.38,-30.5"/>
<text text-anchor="start" x="563.88" y="-17" font-family="Helvetica,sans-Serif" font-size="10.00">vulpes::qrule::Quadrature</text>
<text text-anchor="middle" x="618.62" y="-5.75" font-family="Helvetica,sans-Serif" font-size="10.00">Rule&lt; double, dim &gt;</text>
</a>
</g>
</g>
<!-- Node6&#45;&gt;Node1 -->
<g id="edge5_Node000001_Node000006" class="edge">
<title>Node6&#45;&gt;Node1</title>
<g id="a_edge5_Node000001_Node000006"><a xlink:title=" ">
<path fill="none" stroke="#9a32cd" stroke-dasharray="5,2" d="M692.93,-20.23C726.99,-22.55 767.92,-25.33 804.3,-27.8"/>
<polygon fill="#9a32cd" stroke="#9a32cd" points="693.38,-16.76 683.17,-19.57 692.9,-23.74 693.38,-16.76"/>
</a>
</g>
<text text-anchor="middle" x="748.12" y="-39.45" font-family="Helvetica,sans-Serif" font-size="10.00" fill="grey"> m_qrule_bndry_d</text>
<text text-anchor="middle" x="748.12" y="-28.2" font-family="Helvetica,sans-Serif" font-size="10.00" fill="grey">m_qrule_d</text>
</g>
</g>
</svg>
