<?xml version="1.0" encoding="UTF-8" standalone="no"?>
<!DOCTYPE svg PUBLIC "-//W3C//DTD SVG 1.1//EN"
 "http://www.w3.org/Graphics/SVG/1.1/DTD/svg11.dtd">
<!-- Generated by graphviz version 12.2.1 (20241206.2353)
 -->
<!-- Title: vulpes::geometry::Mesh2D&lt; FloatType, IndexType &gt; Pages: 1 -->
<!--zoomable 161 -->

<svg id="main" version="1.1" xmlns="http://www.w3.org/2000/svg" xmlns:xlink="http://www.w3.org/1999/xlink" xml:space="preserve" onload="init(evt)">
<style type="text/css"><![CDATA[
.node, .edge {opacity: 0.7;}
.node.selected, .edge.selected {opacity: 1;}
.edge:hover path { stroke: red; }
.edge:hover polygon { stroke: red; fill: red; }
]]></style>

<defs>
  <circle id="rim" cx="0" cy="0" r="7"/>
  <circle id="rim2" cx="0" cy="0" r="3.5"/>
  <g id="zoomPlus">
    <use xlink:href="#rim" fill="#404040"><set attributeName="fill" to="#808080" begin="zoomplus.mouseover" end="zoomplus.mouseout"/></use>
    <path d="M-4,0h8M0,-4v8" fill="none" stroke="white" stroke-width="1.5" pointer-events="none"/>
  </g>
  <g id="zoomMin">
    <use xlink:href="#rim" fill="#404040"><set attributeName="fill" to="#808080" begin="zoomminus.mouseover" end="zoomminus.mouseout"/></use>
    <path d="M-4,0h8" fill="none" stroke="white" stroke-width="1.5" pointer-events="none"/>
  </g>
  <g id="arrowUp" transform="translate(30 24)">
    <use xlink:href="#rim"/>
    <path pointer-events="none" fill="none" stroke="white" stroke-width="1.5" d="M0,-3.0v7 M-2.5,-0.5L0,-3.0L2.5,-0.5"/>
  </g>
  <g id="arrowRight" transform="rotate(90) translate(36 -43)">
    <use xlink:href="#rim"/>
    <path pointer-events="none" fill="none" stroke="white" stroke-width="1.5" d="M0,-3.0v7 M-2.5,-0.5L0,-3.0L2.5,-0.5"/>
  </g>
  <g id="arrowDown" transform="rotate(180) translate(-30 -48)">
    <use xlink:href="#rim"/>
    <path pointer-events="none" fill="none" stroke="white" stroke-width="1.5" d="M0,-3.0v7 M-2.5,-0.5L0,-3.0L2.5,-0.5"/>
  </g>
  <g id="arrowLeft" transform="rotate(270) translate(-36 17)">
    <use xlink:href="#rim"/>
    <path pointer-events="none" fill="none" stroke="white" stroke-width="1.5" d="M0,-3.0v7 M-2.5,-0.5L0,-3.0L2.5,-0.5"/>
  </g>
  <g id="resetDef">
    <use xlink:href="#rim2" fill="#404040"><set attributeName="fill" to="#808080" begin="reset.mouseover" end="reset.mouseout"/></use>
  </g>
</defs>
<script type="application/ecmascript">
var viewWidth = 567;
var viewHeight = 161;
var sectionId = 'dynsection-1';
</script>
<script type="application/ecmascript" xlink:href="svg.min.js"/>
<svg id="graph" class="graph">
<g id="viewport">
<title>vulpes::geometry::Mesh2D&lt; FloatType, IndexType &gt;</title>
<!-- Node1 -->
<g id="Node000001" class="node">
<title>Node1</title>
<g id="a_Node000001"><a xlink:title="A class for a 2D mesh, inheriting from MeshBase.">
<polygon fill="#999999" stroke="#666666" points="559,-84.5 425.25,-84.5 425.25,-54 559,-54 559,-84.5"/>
<text text-anchor="start" x="433.25" y="-71" font-family="Helvetica,sans-Serif" font-size="10.00">vulpes::geometry::Mesh2D</text>
<text text-anchor="middle" x="492.12" y="-59.75" font-family="Helvetica,sans-Serif" font-size="10.00">&lt; FloatType, IndexType &gt;</text>
</a>
</g>
</g>
<!-- Node2 -->
<g id="Node000002" class="node">
<title>Node2</title>
<g id="a_Node000002"><a xlink:href="classvulpes_1_1geometry_1_1MeshBase.html" target="_top" xlink:title=" ">
<polygon fill="white" stroke="#666666" points="388.25,-95.75 244.75,-95.75 244.75,-42.75 388.25,-42.75 388.25,-95.75"/>
<text text-anchor="start" x="252.75" y="-82.25" font-family="Helvetica,sans-Serif" font-size="10.00">vulpes::geometry::MeshBase</text>
<text text-anchor="start" x="252.75" y="-71" font-family="Helvetica,sans-Serif" font-size="10.00">&lt; FloatType, IndexType,</text>
<text text-anchor="start" x="252.75" y="-59.75" font-family="Helvetica,sans-Serif" font-size="10.00"> 2, 2, Mesh2D&lt; FloatType,</text>
<text text-anchor="middle" x="316.5" y="-48.5" font-family="Helvetica,sans-Serif" font-size="10.00"> IndexType &gt; &gt;</text>
</a>
</g>
</g>
<!-- Node2&#45;&gt;Node1 -->
<g id="edge1_Node000001_Node000002" class="edge">
<title>Node2&#45;&gt;Node1</title>
<g id="a_edge1_Node000001_Node000002"><a xlink:title=" ">
<path fill="none" stroke="#63b8ff" d="M399.95,-69.25C408.31,-69.25 416.71,-69.25 424.87,-69.25"/>
<polygon fill="#63b8ff" stroke="#63b8ff" points="400.13,-65.75 390.13,-69.25 400.13,-72.75 400.13,-65.75"/>
</a>
</g>
</g>
<!-- Node3 -->
<g id="Node000003" class="node">
<title>Node3</title>
<g id="a_Node000003"><a xlink:href="classvulpes_1_1datastructure_1_1CrsMap.html" target="_top" xlink:title=" ">
<polygon fill="white" stroke="#666666" points="125.12,-150.12 11.62,-150.12 11.62,-108.38 125.12,-108.38 125.12,-150.12"/>
<text text-anchor="start" x="19.62" y="-136.62" font-family="Helvetica,sans-Serif" font-size="10.00">vulpes::datastructure</text>
<text text-anchor="start" x="19.62" y="-125.38" font-family="Helvetica,sans-Serif" font-size="10.00">::CrsMap&lt; IndexType,</text>
<text text-anchor="middle" x="68.38" y="-114.12" font-family="Helvetica,sans-Serif" font-size="10.00"> IndexType &gt;</text>
</a>
</g>
</g>
<!-- Node3&#45;&gt;Node2 -->
<g id="edge2_Node000002_Node000003" class="edge">
<title>Node3&#45;&gt;Node2</title>
<g id="a_edge2_Node000002_Node000003"><a xlink:title=" ">
<path fill="none" stroke="#9a32cd" stroke-dasharray="5,2" d="M136.6,-112.86C170.1,-104.7 210.6,-94.82 244.59,-86.54"/>
<polygon fill="#9a32cd" stroke="#9a32cd" points="135.89,-109.43 127,-115.2 137.55,-116.23 135.89,-109.43"/>
</a>
</g>
<text text-anchor="middle" x="190.75" y="-143.63" font-family="Helvetica,sans-Serif" font-size="10.00" fill="grey"> m_cell_to_facet</text>
<text text-anchor="middle" x="190.75" y="-132.38" font-family="Helvetica,sans-Serif" font-size="10.00" fill="grey">m_cell_to_vtx</text>
<text text-anchor="middle" x="190.75" y="-121.13" font-family="Helvetica,sans-Serif" font-size="10.00" fill="grey">m_dual_graph</text>
<text text-anchor="middle" x="190.75" y="-109.88" font-family="Helvetica,sans-Serif" font-size="10.00" fill="grey">m_vtx_to_cell</text>
</g>
<!-- Node4 -->
<g id="Node000004" class="node">
<title>Node4</title>
<g id="a_Node000004"><a xlink:href="classvulpes_1_1datastructure_1_1CrsMap.html" target="_top" xlink:title=" ">
<polygon fill="white" stroke="#666666" points="136,-90.12 0.75,-90.12 0.75,-48.38 136,-48.38 136,-90.12"/>
<text text-anchor="start" x="8.75" y="-76.62" font-family="Helvetica,sans-Serif" font-size="10.00">vulpes::datastructure</text>
<text text-anchor="start" x="8.75" y="-65.38" font-family="Helvetica,sans-Serif" font-size="10.00">::CrsMap&lt; IndexType,</text>
<text text-anchor="middle" x="68.38" y="-54.12" font-family="Helvetica,sans-Serif" font-size="10.00"> IndexType, vtx_per_face &gt;</text>
</a>
</g>
</g>
<!-- Node4&#45;&gt;Node2 -->
<g id="edge3_Node000002_Node000004" class="edge">
<title>Node4&#45;&gt;Node2</title>
<g id="a_edge3_Node000002_Node000004"><a xlink:title=" ">
<path fill="none" stroke="#9a32cd" stroke-dasharray="5,2" d="M147.52,-69.25C178.54,-69.25 213.97,-69.25 244.28,-69.25"/>
<polygon fill="#9a32cd" stroke="#9a32cd" points="147.82,-65.75 137.82,-69.25 147.82,-72.75 147.82,-65.75"/>
</a>
</g>
<text text-anchor="middle" x="190.75" y="-71" font-family="Helvetica,sans-Serif" font-size="10.00" fill="grey"> m_facet_to_vtx</text>
</g>
<!-- Node5 -->
<g id="Node000005" class="node">
<title>Node5</title>
<g id="a_Node000005"><a xlink:href="structvulpes_1_1geometry_1_1MeshTag.html" target="_top" xlink:title=" ">
<polygon fill="white" stroke="#666666" points="136.75,-30.5 0,-30.5 0,0 136.75,0 136.75,-30.5"/>
<text text-anchor="start" x="8" y="-17" font-family="Helvetica,sans-Serif" font-size="10.00">vulpes::geometry::MeshTag</text>
<text text-anchor="middle" x="68.38" y="-5.75" font-family="Helvetica,sans-Serif" font-size="10.00">&lt; SelfDim, IndexType &gt;</text>
</a>
</g>
</g>
<!-- Node5&#45;&gt;Node2 -->
<g id="edge4_Node000002_Node000005" class="edge">
<title>Node5&#45;&gt;Node2</title>
<g id="a_edge4_Node000002_Node000005"><a xlink:title=" ">
<path fill="none" stroke="#9a32cd" stroke-dasharray="5,2" d="M148.16,-32.54C179.15,-39.33 214.46,-47.08 244.63,-53.7"/>
<polygon fill="#9a32cd" stroke="#9a32cd" points="148.95,-29.13 138.43,-30.4 147.45,-35.96 148.95,-29.13"/>
</a>
</g>
<text text-anchor="middle" x="190.75" y="-50.42" font-family="Helvetica,sans-Serif" font-size="10.00" fill="grey"> m_mesh_tags</text>
</g>
</g>
</svg>

<g id="navigator" transform="translate(0 0)" fill="#404254">
  <rect fill="#f2f5e9" fill-opacity="0.5" stroke="#606060" stroke-width=".5" x="0" y="0" width="60" height="60"/>
  <use id="zoomplus" xlink:href="#zoomPlus" x="17" y="9" onmousedown="handleZoom(evt,'in')"/>
  <use id="zoomminus" xlink:href="#zoomMin" x="42" y="9" onmousedown="handleZoom(evt,'out')"/>
  <use id="reset" xlink:href="#resetDef" x="30" y="36" onmousedown="handleReset()"/>
   <use id="arrowup" xlink:href="#arrowUp" x="0" y="0" onmousedown="handlePan(0,-1)"/>
  <use id="arrowright" xlink:href="#arrowRight" x="0" y="0" onmousedown="handlePan(1,0)"/>
  <use id="arrowdown" xlink:href="#arrowDown" x="0" y="0" onmousedown="handlePan(0,1)"/>
  <use id="arrowleft" xlink:href="#arrowLeft" x="0" y="0" onmousedown="handlePan(-1,0)"/>
</g>
<svg viewBox="0 0 15 15" width="100%" height="30px" preserveAspectRatio="xMaxYMin meet">
 <g id="arrow_out" transform="scale(0.3 0.3)">
  <a xlink:href="classvulpes_1_1geometry_1_1Mesh2D__coll__graph_org.svg" target="_base">
   <rect id="button" ry="5" rx="5" y="6" x="6" height="38" width="38"
        fill="#f2f5e9" fill-opacity="0.5" stroke="#606060" stroke-width="1.0"/>
   <path id="arrow"
     d="M 11.500037,31.436501 C 11.940474,20.09759 22.043105,11.32322 32.158766,21.979434 L 37.068811,17.246167 C 37.068811,17.246167 37.088388,32 37.088388,32 L 22.160133,31.978069 C 22.160133,31.978069 26.997745,27.140456 26.997745,27.140456 C 18.528582,18.264221 13.291696,25.230495 11.500037,31.436501 z"
     style="fill:#404040;"/>
  </a>
 </g>
</svg>

<style type='text/css'>
<![CDATA[
[data-mouse-over-selected='false'] { opacity: 0.7; }
[data-mouse-over-selected='true']  { opacity: 1.0; }
]]>
</style>
<script type="application/ecmascript"><![CDATA[
document.addEventListener('DOMContentLoaded', (event) => {
  highlightEdges();
  highlightAdjacentNodes();
});
]]></script>
</svg>
