<?xml version="1.0" encoding="UTF-8" standalone="no"?>
<!DOCTYPE svg PUBLIC "-//W3C//DTD SVG 1.1//EN"
 "http://www.w3.org/Graphics/SVG/1.1/DTD/svg11.dtd">
<!-- Generated by graphviz version 2.42.4 (0)
 -->
<!-- Title: vulpes::fe::FeExpressionGradFunc&lt; Dim, FeSpace, IsTest &gt; Pages: 1 -->
<svg width="574pt" height="92pt"
 viewBox="0.00 0.00 574.00 91.50" xmlns="http://www.w3.org/2000/svg" xmlns:xlink="http://www.w3.org/1999/xlink">
<g id="graph0" class="graph" transform="scale(1 1) rotate(0) translate(4 87.5)">
<title>vulpes::fe::FeExpressionGradFunc&lt; Dim, FeSpace, IsTest &gt;</title>
<!-- Node1 -->
<g id="Node000001" class="node">
<title>Node1</title>
<g id="a_Node000001"><a xlink:title=" ">
<polygon fill="#999999" stroke="#666666" points="566,-65 423,-65 423,-24 566,-24 566,-65"/>
<text text-anchor="start" x="431" y="-53" font-family="Helvetica,sans-Serif" font-size="10.00">vulpes::fe::FeExpression</text>
<text text-anchor="start" x="431" y="-42" font-family="Helvetica,sans-Serif" font-size="10.00">GradFunc&lt; Dim, FeSpace,</text>
<text text-anchor="middle" x="494.5" y="-31" font-family="Helvetica,sans-Serif" font-size="10.00"> IsTest &gt;</text>
</a>
</g>
</g>
<!-- Node2 -->
<g id="Node000002" class="node">
<title>Node2</title>
<g id="a_Node000002"><a xlink:href="classvulpes_1_1fe_1_1FeExpressionBase.html" target="_top" xlink:title=" ">
<polygon fill="white" stroke="#666666" points="358,-83.5 204,-83.5 204,-53.5 358,-53.5 358,-83.5"/>
<text text-anchor="start" x="212" y="-71.5" font-family="Helvetica,sans-Serif" font-size="10.00">vulpes::fe::FeExpression</text>
<text text-anchor="middle" x="281" y="-60.5" font-family="Helvetica,sans-Serif" font-size="10.00">Base&lt; Dim, FeExpression &gt;</text>
</a>
</g>
</g>
<!-- Node2&#45;&gt;Node1 -->
<g id="edge1_Node000001_Node000002" class="edge">
<title>Node2&#45;&gt;Node1</title>
<g id="a_edge1_Node000001_Node000002"><a xlink:title=" ">
<path fill="none" stroke="#63b8ff" d="M368.05,-58.74C386.21,-56.67 405.18,-54.52 422.7,-52.53"/>
<polygon fill="#63b8ff" stroke="#63b8ff" points="367.6,-55.26 358.06,-59.87 368.39,-62.22 367.6,-55.26"/>
</a>
</g>
</g>
<!-- Node3 -->
<g id="Node000003" class="node">
<title>Node3</title>
<g id="a_Node000003"><a xlink:href="classvulpes_1_1fe_1_1FeExpressionFunc.html" target="_top" xlink:title=" ">
<polygon fill="white" stroke="#666666" points="360,-35.5 202,-35.5 202,-5.5 360,-5.5 360,-35.5"/>
<text text-anchor="start" x="210" y="-23.5" font-family="Helvetica,sans-Serif" font-size="10.00">vulpes::fe::FeExpression</text>
<text text-anchor="middle" x="281" y="-12.5" font-family="Helvetica,sans-Serif" font-size="10.00">Func&lt; Dim, FeSpace, false &gt;</text>
</a>
</g>
</g>
<!-- Node3&#45;&gt;Node1 -->
<g id="edge2_Node000001_Node000003" class="edge">
<title>Node3&#45;&gt;Node1</title>
<g id="a_edge2_Node000001_Node000003"><a xlink:title=" ">
<path fill="none" stroke="#9a32cd" stroke-dasharray="5,2" d="M370.34,-30.52C387.78,-32.5 405.88,-34.56 422.66,-36.46"/>
<polygon fill="#9a32cd" stroke="#9a32cd" points="370.48,-27.02 360.15,-29.37 369.7,-33.97 370.48,-27.02"/>
</a>
</g>
<text text-anchor="middle" x="391.5" y="-36.5" font-family="Helvetica,sans-Serif" font-size="10.00" fill="grey"> m_w</text>
</g>
<!-- Node4 -->
<g id="Node000004" class="node">
<title>Node4</title>
<g id="a_Node000004"><a xlink:href="classvulpes_1_1fe_1_1FeExpressionBase.html" target="_top" xlink:title=" ">
<polygon fill="white" stroke="#666666" points="165,-41 0,-41 0,0 165,0 165,-41"/>
<text text-anchor="start" x="8" y="-29" font-family="Helvetica,sans-Serif" font-size="10.00">vulpes::fe::FeExpression</text>
<text text-anchor="start" x="8" y="-18" font-family="Helvetica,sans-Serif" font-size="10.00">Base&lt; Dim, FeExpressionFunc</text>
<text text-anchor="middle" x="82.5" y="-7" font-family="Helvetica,sans-Serif" font-size="10.00">&lt; Dim, FeSpace, IsTest &gt; &gt;</text>
</a>
</g>
</g>
<!-- Node4&#45;&gt;Node3 -->
<g id="edge3_Node000003_Node000004" class="edge">
<title>Node4&#45;&gt;Node3</title>
<g id="a_edge3_Node000003_Node000004"><a xlink:title=" ">
<path fill="none" stroke="#63b8ff" d="M175.14,-20.5C184.04,-20.5 193.02,-20.5 201.78,-20.5"/>
<polygon fill="#63b8ff" stroke="#63b8ff" points="175.13,-17 165.13,-20.5 175.13,-24 175.13,-17"/>
</a>
</g>
</g>
</g>
</svg>
