<?xml version="1.0" encoding="UTF-8" standalone="no"?>
<!DOCTYPE svg PUBLIC "-//W3C//DTD SVG 1.1//EN"
 "http://www.w3.org/Graphics/SVG/1.1/DTD/svg11.dtd">
<!-- Generated by graphviz version 12.2.1 (20241206.2353)
 -->
<!-- Title: vulpes::timeintegration::TimeIntegratorDIRKIMEX&lt; ButcherTableType &gt; Pages: 1 -->
<svg width="376pt" height="218pt"
 viewBox="0.00 0.00 376.25 217.50" xmlns="http://www.w3.org/2000/svg" xmlns:xlink="http://www.w3.org/1999/xlink">
<g id="graph0" class="graph" transform="scale(1 1) rotate(0) translate(4 213.5)">
<title>vulpes::timeintegration::TimeIntegratorDIRKIMEX&lt; ButcherTableType &gt;</title>
<!-- Node1 -->
<g id="Node000001" class="node">
<title>Node1</title>
<g id="a_Node000001"><a xlink:title=" ">
<polygon fill="#999999" stroke="#666666" points="238.5,-41.75 104,-41.75 104,0 238.5,0 238.5,-41.75"/>
<text text-anchor="start" x="112" y="-28.25" font-family="Helvetica,sans-Serif" font-size="10.00">vulpes::timeintegration</text>
<text text-anchor="start" x="112" y="-17" font-family="Helvetica,sans-Serif" font-size="10.00">::TimeIntegratorDIRKIMEX</text>
<text text-anchor="middle" x="171.25" y="-5.75" font-family="Helvetica,sans-Serif" font-size="10.00">&lt; ButcherTableType &gt;</text>
</a>
</g>
</g>
<!-- Node2 -->
<g id="Node000002" class="node">
<title>Node2</title>
<g id="a_Node000002"><a xlink:href="classvulpes_1_1la_1_1Vector.html" target="_top" xlink:title="A wrapper around PETSc Vec for distributed vectors.">
<polygon fill="white" stroke="#666666" points="92.5,-209.5 0,-209.5 0,-190.25 92.5,-190.25 92.5,-209.5"/>
<text text-anchor="middle" x="46.25" y="-196" font-family="Helvetica,sans-Serif" font-size="10.00">vulpes::la::Vector</text>
</a>
</g>
</g>
<!-- Node2&#45;&gt;Node1 -->
<g id="edge1_Node000001_Node000002" class="edge">
<title>Node2&#45;&gt;Node1</title>
<g id="a_edge1_Node000001_Node000002"><a xlink:title=" ">
<path fill="none" stroke="#9a32cd" stroke-dasharray="5,2" d="M45.76,-178.52C46.14,-148.91 51.09,-93.81 80.25,-59.75 86.7,-52.21 94.91,-46.14 103.73,-41.27"/>
<polygon fill="#9a32cd" stroke="#9a32cd" points="42.26,-178.34 45.82,-188.32 49.26,-178.3 42.26,-178.34"/>
</a>
</g>
<text text-anchor="middle" x="123.75" y="-162.75" font-family="Helvetica,sans-Serif" font-size="10.00" fill="grey"> m_force_eval</text>
<text text-anchor="start" x="80.25" y="-151.5" font-family="Helvetica,sans-Serif" font-size="10.00" fill="grey">m_internal_stages</text>
<text text-anchor="middle" x="123.75" y="-140.25" font-family="Helvetica,sans-Serif" font-size="10.00" fill="grey">_sum_im</text>
<text text-anchor="start" x="80.25" y="-129" font-family="Helvetica,sans-Serif" font-size="10.00" fill="grey">m_non_linear_stage</text>
<text text-anchor="middle" x="123.75" y="-117.75" font-family="Helvetica,sans-Serif" font-size="10.00" fill="grey">_eval</text>
<text text-anchor="middle" x="123.75" y="-106.5" font-family="Helvetica,sans-Serif" font-size="10.00" fill="grey">m_solution</text>
<text text-anchor="middle" x="123.75" y="-95.25" font-family="Helvetica,sans-Serif" font-size="10.00" fill="grey">m_stage_rhs_ex</text>
<text text-anchor="middle" x="123.75" y="-84" font-family="Helvetica,sans-Serif" font-size="10.00" fill="grey">m_stage_rhs_im</text>
<text text-anchor="middle" x="123.75" y="-72.75" font-family="Helvetica,sans-Serif" font-size="10.00" fill="grey">m_stage_sol</text>
<text text-anchor="middle" x="123.75" y="-61.5" font-family="Helvetica,sans-Serif" font-size="10.00" fill="grey">m_tmp</text>
</g>
<!-- Node3 -->
<g id="Node000003" class="node">
<title>Node3</title>
<g id="a_Node000003"><a xlink:href="classvulpes_1_1la_1_1SparseMatrix.html" target="_top" xlink:title=" ">
<polygon fill="white" stroke="#666666" points="232.12,-209.5 110.38,-209.5 110.38,-190.25 232.12,-190.25 232.12,-209.5"/>
<text text-anchor="middle" x="171.25" y="-196" font-family="Helvetica,sans-Serif" font-size="10.00">vulpes::la::SparseMatrix</text>
</a>
</g>
</g>
<!-- Node3&#45;&gt;Node1 -->
<g id="edge2_Node000001_Node000003" class="edge">
<title>Node3&#45;&gt;Node1</title>
<g id="a_edge2_Node000001_Node000003"><a xlink:title=" ">
<path fill="none" stroke="#9a32cd" stroke-dasharray="5,2" d="M171.25,-178.62C171.25,-144.57 171.25,-76.22 171.25,-42.15"/>
<polygon fill="#9a32cd" stroke="#9a32cd" points="167.75,-178.34 171.25,-188.34 174.75,-178.34 167.75,-178.34"/>
</a>
</g>
<text text-anchor="middle" x="210.25" y="-123.38" font-family="Helvetica,sans-Serif" font-size="10.00" fill="grey"> m_linear_op</text>
<text text-anchor="middle" x="210.25" y="-112.12" font-family="Helvetica,sans-Serif" font-size="10.00" fill="grey">m_mass_matrix</text>
<text text-anchor="middle" x="210.25" y="-100.88" font-family="Helvetica,sans-Serif" font-size="10.00" fill="grey">m_stage_operator</text>
</g>
<!-- Node4 -->
<g id="Node000004" class="node">
<title>Node4</title>
<g id="a_Node000004"><a xlink:href="classvulpes_1_1la_1_1LinearSolver.html" target="_top" xlink:title="A linear solver class wrapping PETSc KSP solvers.">
<polygon fill="white" stroke="#666666" points="368.25,-209.5 250.25,-209.5 250.25,-190.25 368.25,-190.25 368.25,-209.5"/>
<text text-anchor="middle" x="309.25" y="-196" font-family="Helvetica,sans-Serif" font-size="10.00">vulpes::la::LinearSolver</text>
</a>
</g>
</g>
<!-- Node4&#45;&gt;Node1 -->
<g id="edge3_Node000001_Node000004" class="edge">
<title>Node4&#45;&gt;Node1</title>
<g id="a_edge3_Node000001_Node000004"><a xlink:title=" ">
<path fill="none" stroke="#9a32cd" stroke-dasharray="5,2" d="M305.94,-178.5C300.17,-148.89 285.61,-93.77 253.25,-59.75 246.55,-52.71 238.28,-46.85 229.61,-42.02"/>
<polygon fill="#9a32cd" stroke="#9a32cd" points="302.5,-179.11 307.7,-188.34 309.39,-177.88 302.5,-179.11"/>
</a>
</g>
<text text-anchor="middle" x="325.51" y="-112.12" font-family="Helvetica,sans-Serif" font-size="10.00" fill="grey"> m_solver</text>
</g>
</g>
</svg>
