<?xml version="1.0" encoding="UTF-8" standalone="no"?>
<!DOCTYPE svg PUBLIC "-//W3C//DTD SVG 1.1//EN"
 "http://www.w3.org/Graphics/SVG/1.1/DTD/svg11.dtd">
<!-- Generated by graphviz version 2.42.4 (0)
 -->
<!-- Title: vulpes::fe::FeExpressionFeProjection&lt; Dim, FeSpace, DofHandler, OutputDim &gt; Pages: 1 -->
<svg width="282pt" height="126pt"
 viewBox="0.00 0.00 281.50 126.00" xmlns="http://www.w3.org/2000/svg" xmlns:xlink="http://www.w3.org/1999/xlink">
<g id="graph0" class="graph" transform="scale(1 1) rotate(0) translate(4 122)">
<title>vulpes::fe::FeExpressionFeProjection&lt; Dim, FeSpace, DofHandler, OutputDim &gt;</title>
<!-- Node1 -->
<g id="Node000001" class="node">
<title>Node1</title>
<g id="a_Node000001"><a xlink:title=" ">
<polygon fill="#999999" stroke="#666666" points="229,-41 71,-41 71,0 229,0 229,-41"/>
<text text-anchor="start" x="79" y="-29" font-family="Helvetica,sans-Serif" font-size="10.00">vulpes::fe::FeExpression</text>
<text text-anchor="start" x="79" y="-18" font-family="Helvetica,sans-Serif" font-size="10.00">FeProjection&lt; Dim, FeSpace,</text>
<text text-anchor="middle" x="150" y="-7" font-family="Helvetica,sans-Serif" font-size="10.00"> DofHandler, OutputDim &gt;</text>
</a>
</g>
</g>
<!-- Node2 -->
<g id="Node000002" class="node">
<title>Node2</title>
<g id="a_Node000002"><a xlink:href="classvulpes_1_1fe_1_1FeExpressionBase.html" target="_top" xlink:title="Base class for Finite Element Expressions.">
<polygon fill="white" stroke="#666666" points="154,-118 0,-118 0,-88 154,-88 154,-118"/>
<text text-anchor="start" x="8" y="-106" font-family="Helvetica,sans-Serif" font-size="10.00">vulpes::fe::FeExpression</text>
<text text-anchor="middle" x="77" y="-95" font-family="Helvetica,sans-Serif" font-size="10.00">Base&lt; Dim, FeExpression &gt;</text>
</a>
</g>
</g>
<!-- Node2&#45;&gt;Node1 -->
<g id="edge1_Node000001_Node000002" class="edge">
<title>Node2&#45;&gt;Node1</title>
<g id="a_edge1_Node000001_Node000002"><a xlink:title=" ">
<path fill="none" stroke="#63b8ff" d="M96.56,-80.43C107.66,-68.19 121.45,-52.99 132.24,-41.09"/>
<polygon fill="#63b8ff" stroke="#63b8ff" points="93.84,-78.22 89.72,-87.98 99.03,-82.92 93.84,-78.22"/>
</a>
</g>
</g>
<!-- Node3 -->
<g id="Node000003" class="node">
<title>Node3</title>
<g id="a_Node000003"><a xlink:href="classvulpes_1_1la_1_1Vector.html" target="_top" xlink:title="A wrapper around PETSc Vec for distributed vectors.">
<polygon fill="white" stroke="#666666" points="273.5,-112.5 172.5,-112.5 172.5,-93.5 273.5,-93.5 273.5,-112.5"/>
<text text-anchor="middle" x="223" y="-100.5" font-family="Helvetica,sans-Serif" font-size="10.00">vulpes::la::Vector</text>
</a>
</g>
</g>
<!-- Node3&#45;&gt;Node1 -->
<g id="edge2_Node000001_Node000003" class="edge">
<title>Node3&#45;&gt;Node1</title>
<g id="a_edge2_Node000001_Node000003"><a xlink:title=" ">
<path fill="none" stroke="#9a32cd" stroke-dasharray="5,2" d="M208.26,-85.75C196.55,-72.83 180.12,-54.72 167.7,-41.02"/>
<polygon fill="#9a32cd" stroke="#9a32cd" points="205.88,-88.33 215.19,-93.39 211.06,-83.63 205.88,-88.33"/>
</a>
</g>
<text text-anchor="middle" x="226.5" y="-62" font-family="Helvetica,sans-Serif" font-size="10.00" fill="grey"> m_projection</text>
</g>
</g>
</svg>
