<?xml version="1.0" encoding="UTF-8" standalone="no"?>
<!DOCTYPE svg PUBLIC "-//W3C//DTD SVG 1.1//EN"
 "http://www.w3.org/Graphics/SVG/1.1/DTD/svg11.dtd">
<!-- Generated by graphviz version 12.2.1 (20241206.2353)
 -->
<!-- Title: vulpes::timeintegration::CrankNicolsonMFK Pages: 1 -->
<svg width="376pt" height="195pt"
 viewBox="0.00 0.00 375.88 195.00" xmlns="http://www.w3.org/2000/svg" xmlns:xlink="http://www.w3.org/1999/xlink">
<g id="graph0" class="graph" transform="scale(1 1) rotate(0) translate(4 191)">
<title>vulpes::timeintegration::CrankNicolsonMFK</title>
<!-- Node1 -->
<g id="Node000001" class="node">
<title>Node1</title>
<g id="a_Node000001"><a xlink:title=" ">
<polygon fill="#999999" stroke="#666666" points="243,-30.5 128.75,-30.5 128.75,0 243,0 243,-30.5"/>
<text text-anchor="start" x="136.75" y="-17" font-family="Helvetica,sans-Serif" font-size="10.00">vulpes::timeintegration</text>
<text text-anchor="middle" x="185.88" y="-5.75" font-family="Helvetica,sans-Serif" font-size="10.00">::CrankNicolsonMFK</text>
</a>
</g>
</g>
<!-- Node2 -->
<g id="Node000002" class="node">
<title>Node2</title>
<g id="a_Node000002"><a xlink:href="classvulpes_1_1la_1_1SparseMatrix.html" target="_top" xlink:title=" ">
<polygon fill="white" stroke="#666666" points="121.75,-187 0,-187 0,-167.75 121.75,-167.75 121.75,-187"/>
<text text-anchor="middle" x="60.88" y="-173.5" font-family="Helvetica,sans-Serif" font-size="10.00">vulpes::la::SparseMatrix</text>
</a>
</g>
</g>
<!-- Node2&#45;&gt;Node1 -->
<g id="edge1_Node000001_Node000002" class="edge">
<title>Node2&#45;&gt;Node1</title>
<g id="a_edge1_Node000001_Node000002"><a xlink:title=" ">
<path fill="none" stroke="#9a32cd" stroke-dasharray="5,2" d="M70.24,-157.44C83.85,-131.12 110.97,-82.83 142.88,-48.5 148.85,-42.07 156.23,-36.02 163.18,-30.93"/>
<polygon fill="#9a32cd" stroke="#9a32cd" points="67.19,-155.71 65.8,-166.22 73.44,-158.88 67.19,-155.71"/>
</a>
</g>
<text text-anchor="middle" x="162.38" y="-112.12" font-family="Helvetica,sans-Serif" font-size="10.00" fill="grey"> m_LHS</text>
<text text-anchor="middle" x="162.38" y="-100.88" font-family="Helvetica,sans-Serif" font-size="10.00" fill="grey">m_RHS</text>
<text text-anchor="middle" x="162.38" y="-89.62" font-family="Helvetica,sans-Serif" font-size="10.00" fill="grey">m_lin_op</text>
<text text-anchor="middle" x="162.38" y="-78.38" font-family="Helvetica,sans-Serif" font-size="10.00" fill="grey">m_mass</text>
</g>
<!-- Node3 -->
<g id="Node000003" class="node">
<title>Node3</title>
<g id="a_Node000003"><a xlink:href="classvulpes_1_1la_1_1Vector.html" target="_top" xlink:title="A wrapper around PETSc Vec for distributed vectors.">
<polygon fill="white" stroke="#666666" points="232.12,-187 139.62,-187 139.62,-167.75 232.12,-167.75 232.12,-187"/>
<text text-anchor="middle" x="185.88" y="-173.5" font-family="Helvetica,sans-Serif" font-size="10.00">vulpes::la::Vector</text>
</a>
</g>
</g>
<!-- Node3&#45;&gt;Node1 -->
<g id="edge2_Node000001_Node000003" class="edge">
<title>Node3&#45;&gt;Node1</title>
<g id="a_edge2_Node000001_Node000003"><a xlink:title=" ">
<path fill="none" stroke="#9a32cd" stroke-dasharray="5,2" d="M185.88,-156.06C185.88,-123.34 185.88,-59.72 185.88,-30.97"/>
<polygon fill="#9a32cd" stroke="#9a32cd" points="182.38,-155.79 185.88,-165.79 189.38,-155.79 182.38,-155.79"/>
</a>
</g>
<text text-anchor="middle" x="206.88" y="-140.25" font-family="Helvetica,sans-Serif" font-size="10.00" fill="grey"> m_f_1</text>
<text text-anchor="middle" x="206.88" y="-129" font-family="Helvetica,sans-Serif" font-size="10.00" fill="grey">m_f_2</text>
<text text-anchor="middle" x="206.88" y="-117.75" font-family="Helvetica,sans-Serif" font-size="10.00" fill="grey">m_f_new</text>
<text text-anchor="middle" x="206.88" y="-106.5" font-family="Helvetica,sans-Serif" font-size="10.00" fill="grey">m_f_old</text>
<text text-anchor="middle" x="206.88" y="-95.25" font-family="Helvetica,sans-Serif" font-size="10.00" fill="grey">m_rhs</text>
<text text-anchor="middle" x="206.88" y="-84" font-family="Helvetica,sans-Serif" font-size="10.00" fill="grey">m_u</text>
<text text-anchor="middle" x="206.88" y="-72.75" font-family="Helvetica,sans-Serif" font-size="10.00" fill="grey">m_u_old</text>
<text text-anchor="middle" x="206.88" y="-61.5" font-family="Helvetica,sans-Serif" font-size="10.00" fill="grey">m_u_oold</text>
<text text-anchor="middle" x="206.88" y="-50.25" font-family="Helvetica,sans-Serif" font-size="10.00" fill="grey">m_u_star</text>
</g>
<!-- Node4 -->
<g id="Node000004" class="node">
<title>Node4</title>
<g id="a_Node000004"><a xlink:href="classvulpes_1_1la_1_1LinearSolver.html" target="_top" xlink:title="A linear solver class wrapping PETSc KSP solvers.">
<polygon fill="white" stroke="#666666" points="367.88,-187 249.88,-187 249.88,-167.75 367.88,-167.75 367.88,-187"/>
<text text-anchor="middle" x="308.88" y="-173.5" font-family="Helvetica,sans-Serif" font-size="10.00">vulpes::la::LinearSolver</text>
</a>
</g>
</g>
<!-- Node4&#45;&gt;Node1 -->
<g id="edge3_Node000001_Node000004" class="edge">
<title>Node4&#45;&gt;Node1</title>
<g id="a_edge3_Node000001_Node000004"><a xlink:title=" ">
<path fill="none" stroke="#9a32cd" stroke-dasharray="5,2" d="M300.49,-157.26C288.19,-130.71 263.29,-82.17 231.88,-48.5 225.75,-41.94 218.09,-35.93 210.79,-30.92"/>
<polygon fill="#9a32cd" stroke="#9a32cd" points="297.17,-158.42 304.48,-166.1 303.55,-155.54 297.17,-158.42"/>
</a>
</g>
<text text-anchor="middle" x="317.5" y="-95.25" font-family="Helvetica,sans-Serif" font-size="10.00" fill="grey"> m_solver</text>
</g>
</g>
</svg>
