<?xml version="1.0" encoding="UTF-8" standalone="no"?>
<!DOCTYPE svg PUBLIC "-//W3C//DTD SVG 1.1//EN"
 "http://www.w3.org/Graphics/SVG/1.1/DTD/svg11.dtd">
<!-- Generated by graphviz version 12.2.1 (20241206.2353)
 -->
<!-- Title: vulpes::assemble::WeakFormIntegratorGauss&lt; MeshType, FeExpressionTuple, FeExpressionFaceTuple &gt; Pages: 1 -->
<svg width="988pt" height="315pt"
 viewBox="0.00 0.00 987.75 314.75" xmlns="http://www.w3.org/2000/svg" xmlns:xlink="http://www.w3.org/1999/xlink">
<g id="graph0" class="graph" transform="scale(1 1) rotate(0) translate(4 310.75)">
<title>vulpes::assemble::WeakFormIntegratorGauss&lt; MeshType, FeExpressionTuple, FeExpressionFaceTuple &gt;</title>
<!-- Node1 -->
<g id="Node000001" class="node">
<title>Node1</title>
<g id="a_Node000001"><a xlink:title="Class to perform numerical integration of weak form integrals using Gaussian quadrature rules,...">
<polygon fill="#999999" stroke="#666666" points="979.75,-163.75 810.75,-163.75 810.75,-110.75 979.75,-110.75 979.75,-163.75"/>
<text text-anchor="start" x="818.75" y="-150.25" font-family="Helvetica,sans-Serif" font-size="10.00">vulpes::assemble::WeakForm</text>
<text text-anchor="start" x="818.75" y="-139" font-family="Helvetica,sans-Serif" font-size="10.00">IntegratorGauss&lt; MeshType,</text>
<text text-anchor="start" x="818.75" y="-127.75" font-family="Helvetica,sans-Serif" font-size="10.00"> FeExpressionTuple, FeExpression</text>
<text text-anchor="middle" x="895.25" y="-116.5" font-family="Helvetica,sans-Serif" font-size="10.00">FaceTuple &gt;</text>
</a>
</g>
</g>
<!-- Node2 -->
<g id="Node000002" class="node">
<title>Node2</title>
<g id="a_Node000002"><a xlink:href="classvulpes_1_1assemble_1_1WeakFormIntegratorBase.html" target="_top" xlink:title=" ">
<polygon fill="white" stroke="#666666" points="691.5,-295.75 545.75,-295.75 545.75,-242.75 691.5,-242.75 691.5,-295.75"/>
<text text-anchor="start" x="553.75" y="-282.25" font-family="Helvetica,sans-Serif" font-size="10.00">vulpes::assemble::WeakForm</text>
<text text-anchor="start" x="553.75" y="-271" font-family="Helvetica,sans-Serif" font-size="10.00">IntegratorBase&lt; MeshType,</text>
<text text-anchor="start" x="553.75" y="-259.75" font-family="Helvetica,sans-Serif" font-size="10.00"> FeExpressionTuple, std::</text>
<text text-anchor="middle" x="618.62" y="-248.5" font-family="Helvetica,sans-Serif" font-size="10.00">tuple&lt;&gt; &gt;</text>
</a>
</g>
</g>
<!-- Node2&#45;&gt;Node1 -->
<g id="edge1_Node000001_Node000002" class="edge">
<title>Node2&#45;&gt;Node1</title>
<g id="a_edge1_Node000001_Node000002"><a xlink:title=" ">
<path fill="none" stroke="#63b8ff" d="M703.04,-257.55C732.51,-251.24 765.17,-241.67 792.75,-227.25 823.22,-211.32 851.95,-184.29 871.01,-164"/>
<polygon fill="#63b8ff" stroke="#63b8ff" points="702.5,-254.09 693.4,-259.51 703.9,-260.95 702.5,-254.09"/>
</a>
</g>
</g>
<!-- Node3 -->
<g id="Node000003" class="node">
<title>Node3</title>
<g id="a_Node000003"><a xlink:href="classvulpes_1_1assemble_1_1CellManager.html" target="_top" xlink:title=" ">
<polygon fill="white" stroke="#666666" points="431.75,-295.5 278.5,-295.5 278.5,-265 431.75,-265 431.75,-295.5"/>
<text text-anchor="start" x="286.5" y="-282" font-family="Helvetica,sans-Serif" font-size="10.00">vulpes::assemble::CellManager</text>
<text text-anchor="middle" x="355.12" y="-270.75" font-family="Helvetica,sans-Serif" font-size="10.00">&lt; MeshType, FeType &gt;</text>
</a>
</g>
</g>
<!-- Node3&#45;&gt;Node2 -->
<g id="edge2_Node000002_Node000003" class="edge">
<title>Node3&#45;&gt;Node2</title>
<g id="a_edge2_Node000002_Node000003"><a xlink:title=" ">
<path fill="none" stroke="#9a32cd" stroke-dasharray="5,2" d="M443.19,-276.59C476.39,-275.19 513.83,-273.62 545.49,-272.28"/>
<polygon fill="#9a32cd" stroke="#9a32cd" points="443.47,-273.07 433.63,-276.99 443.76,-280.07 443.47,-273.07"/>
</a>
</g>
<text text-anchor="middle" x="488.75" y="-289.06" font-family="Helvetica,sans-Serif" font-size="10.00" fill="grey"> m_cell_manager</text>
<text text-anchor="middle" x="488.75" y="-277.81" font-family="Helvetica,sans-Serif" font-size="10.00" fill="grey">m_cell_neigh_info</text>
</g>
<!-- Node4 -->
<g id="Node000004" class="node">
<title>Node4</title>
<g id="a_Node000004"><a xlink:href="classvulpes_1_1datastructure_1_1CrsMap.html" target="_top" xlink:title=" ">
<polygon fill="white" stroke="#666666" points="142,-306.75 0,-306.75 0,-253.75 142,-253.75 142,-306.75"/>
<text text-anchor="start" x="8" y="-293.25" font-family="Helvetica,sans-Serif" font-size="10.00">vulpes::datastructure</text>
<text text-anchor="start" x="8" y="-282" font-family="Helvetica,sans-Serif" font-size="10.00">::CrsMap&lt; vulpes::assemble</text>
<text text-anchor="start" x="8" y="-270.75" font-family="Helvetica,sans-Serif" font-size="10.00">::CellManager::NeighInfo,</text>
<text text-anchor="middle" x="71" y="-259.5" font-family="Helvetica,sans-Serif" font-size="10.00"> index_t &gt;</text>
</a>
</g>
</g>
<!-- Node4&#45;&gt;Node3 -->
<g id="edge3_Node000003_Node000004" class="edge">
<title>Node4&#45;&gt;Node3</title>
<g id="a_edge3_Node000003_Node000004"><a xlink:title=" ">
<path fill="none" stroke="#9a32cd" stroke-dasharray="5,2" d="M153.84,-280.25C193.05,-280.25 239.71,-280.25 278.13,-280.25"/>
<polygon fill="#9a32cd" stroke="#9a32cd" points="153.98,-276.75 143.98,-280.25 153.98,-283.75 153.98,-276.75"/>
</a>
</g>
<text text-anchor="middle" x="210.25" y="-282" font-family="Helvetica,sans-Serif" font-size="10.00" fill="grey"> m_cell_to_facet_neigh</text>
</g>
<!-- Node5 -->
<g id="Node000005" class="node">
<title>Node5</title>
<g id="a_Node000005"><a xlink:href="classvulpes_1_1fe_1_1FeValues.html" target="_top" xlink:title=" ">
<polygon fill="white" stroke="#666666" points="407.75,-237.5 302.5,-237.5 302.5,-207 407.75,-207 407.75,-237.5"/>
<text text-anchor="start" x="310.5" y="-224" font-family="Helvetica,sans-Serif" font-size="10.00">vulpes::fe::FeValues</text>
<text text-anchor="middle" x="355.12" y="-212.75" font-family="Helvetica,sans-Serif" font-size="10.00">&lt; dim &gt;</text>
</a>
</g>
</g>
<!-- Node5&#45;&gt;Node1 -->
<g id="edge5_Node000001_Node000005" class="edge">
<title>Node5&#45;&gt;Node1</title>
<g id="a_edge5_Node000001_Node000005"><a xlink:title=" ">
<path fill="none" stroke="#9a32cd" stroke-dasharray="5,2" d="M419.58,-218.91C505.27,-213.38 662.29,-199.65 792.75,-168.25 798.48,-166.87 804.37,-165.35 810.28,-163.75"/>
<polygon fill="#9a32cd" stroke="#9a32cd" points="419.49,-215.41 409.73,-219.53 419.93,-222.39 419.49,-215.41"/>
</a>
</g>
<text text-anchor="middle" x="618.62" y="-209.44" font-family="Helvetica,sans-Serif" font-size="10.00" fill="grey"> m_fe_values</text>
</g>
<!-- Node5&#45;&gt;Node2 -->
<g id="edge4_Node000002_Node000005" class="edge">
<title>Node5&#45;&gt;Node2</title>
<g id="a_edge4_Node000002_Node000005"><a xlink:title=" ">
<path fill="none" stroke="#9a32cd" stroke-dasharray="5,2" d="M419.05,-233.56C457.12,-240.4 505.81,-249.15 545.45,-256.28"/>
<polygon fill="#9a32cd" stroke="#9a32cd" points="420.05,-230.18 409.59,-231.86 418.81,-237.07 420.05,-230.18"/>
</a>
</g>
<text text-anchor="middle" x="488.75" y="-254.46" font-family="Helvetica,sans-Serif" font-size="10.00" fill="grey"> m_fe_values</text>
</g>
<!-- Node6 -->
<g id="Node000006" class="node">
<title>Node6</title>
<g id="a_Node000006"><a xlink:href="structvulpes_1_1qrule_1_1QuadratureRule.html" target="_top" xlink:title=" ">
<polygon fill="white" stroke="#666666" points="681.38,-177.5 555.88,-177.5 555.88,-147 681.38,-147 681.38,-177.5"/>
<text text-anchor="start" x="563.88" y="-164" font-family="Helvetica,sans-Serif" font-size="10.00">vulpes::qrule::Quadrature</text>
<text text-anchor="middle" x="618.62" y="-152.75" font-family="Helvetica,sans-Serif" font-size="10.00">Rule&lt; mpf_class, dim &gt;</text>
</a>
</g>
</g>
<!-- Node6&#45;&gt;Node1 -->
<g id="edge6_Node000001_Node000006" class="edge">
<title>Node6&#45;&gt;Node1</title>
<g id="a_edge6_Node000001_Node000006"><a xlink:title=" ">
<path fill="none" stroke="#9a32cd" stroke-dasharray="5,2" d="M693.05,-155.57C729.19,-152.28 772.92,-148.29 810.37,-144.89"/>
<polygon fill="#9a32cd" stroke="#9a32cd" points="692.75,-152.08 683.11,-156.47 693.38,-159.05 692.75,-152.08"/>
</a>
</g>
<text text-anchor="middle" x="751.12" y="-155.2" font-family="Helvetica,sans-Serif" font-size="10.00" fill="grey"> m_qrule_mpf</text>
</g>
<!-- Node7 -->
<g id="Node000007" class="node">
<title>Node7</title>
<g id="a_Node000007"><a xlink:href="structvulpes_1_1qrule_1_1QuadratureRule.html" target="_top" xlink:title=" ">
<polygon fill="white" stroke="#666666" points="681.38,-128.5 555.88,-128.5 555.88,-98 681.38,-98 681.38,-128.5"/>
<text text-anchor="start" x="563.88" y="-115" font-family="Helvetica,sans-Serif" font-size="10.00">vulpes::qrule::Quadrature</text>
<text text-anchor="middle" x="618.62" y="-103.75" font-family="Helvetica,sans-Serif" font-size="10.00">Rule&lt; double, dim &gt;</text>
</a>
</g>
</g>
<!-- Node7&#45;&gt;Node1 -->
<g id="edge7_Node000001_Node000007" class="edge">
<title>Node7&#45;&gt;Node1</title>
<g id="a_edge7_Node000001_Node000007"><a xlink:title=" ">
<path fill="none" stroke="#9a32cd" stroke-dasharray="5,2" d="M693.05,-119.67C729.19,-122.82 772.92,-126.65 810.37,-129.92"/>
<polygon fill="#9a32cd" stroke="#9a32cd" points="693.37,-116.18 683.11,-118.8 692.76,-123.16 693.37,-116.18"/>
</a>
</g>
<text text-anchor="middle" x="751.12" y="-129.86" font-family="Helvetica,sans-Serif" font-size="10.00" fill="grey"> m_qrule_d</text>
</g>
<!-- Node8 -->
<g id="Node000008" class="node">
<title>Node8</title>
<g id="a_Node000008"><a xlink:href="structvulpes_1_1qrule_1_1QuadratureRule.html" target="_top" xlink:title=" ">
<polygon fill="white" stroke="#666666" points="686.25,-79.5 551,-79.5 551,-49 686.25,-49 686.25,-79.5"/>
<text text-anchor="start" x="559" y="-66" font-family="Helvetica,sans-Serif" font-size="10.00">vulpes::qrule::Quadrature</text>
<text text-anchor="middle" x="618.62" y="-54.75" font-family="Helvetica,sans-Serif" font-size="10.00">Rule&lt; mpf_class, dim &#45; 1 &gt;</text>
</a>
</g>
</g>
<!-- Node8&#45;&gt;Node1 -->
<g id="edge8_Node000001_Node000008" class="edge">
<title>Node8&#45;&gt;Node1</title>
<g id="a_edge8_Node000001_Node000008"><a xlink:title=" ">
<path fill="none" stroke="#9a32cd" stroke-dasharray="5,2" d="M697.67,-81.99C727.52,-89.05 761.82,-97.52 792.75,-106 798.53,-107.58 804.48,-109.27 810.46,-111.01"/>
<polygon fill="#9a32cd" stroke="#9a32cd" points="698.47,-78.58 687.94,-79.69 696.87,-85.39 698.47,-78.58"/>
</a>
</g>
<text text-anchor="middle" x="751.12" y="-107.75" font-family="Helvetica,sans-Serif" font-size="10.00" fill="grey"> m_qrule_face_mpf</text>
</g>
<!-- Node9 -->
<g id="Node000009" class="node">
<title>Node9</title>
<g id="a_Node000009"><a xlink:href="structvulpes_1_1qrule_1_1QuadratureRule.html" target="_top" xlink:title=" ">
<polygon fill="white" stroke="#666666" points="681.38,-30.5 555.88,-30.5 555.88,0 681.38,0 681.38,-30.5"/>
<text text-anchor="start" x="563.88" y="-17" font-family="Helvetica,sans-Serif" font-size="10.00">vulpes::qrule::Quadrature</text>
<text text-anchor="middle" x="618.62" y="-5.75" font-family="Helvetica,sans-Serif" font-size="10.00">Rule&lt; double, dim &#45; 1 &gt;</text>
</a>
</g>
</g>
<!-- Node9&#45;&gt;Node1 -->
<g id="edge9_Node000001_Node000009" class="edge">
<title>Node9&#45;&gt;Node1</title>
<g id="a_edge9_Node000001_Node000009"><a xlink:title=" ">
<path fill="none" stroke="#9a32cd" stroke-dasharray="5,2" d="M692.63,-33.44C724.19,-42.54 761.07,-54.86 792.75,-70 816.02,-81.12 840.16,-96.91 859.06,-110.4"/>
<polygon fill="#9a32cd" stroke="#9a32cd" points="693.74,-30.11 683.16,-30.77 691.84,-36.85 693.74,-30.11"/>
</a>
</g>
<text text-anchor="middle" x="751.12" y="-71.75" font-family="Helvetica,sans-Serif" font-size="10.00" fill="grey"> m_qrule_face_d</text>
</g>
</g>
</svg>
