<?xml version="1.0" encoding="UTF-8" standalone="no"?>
<!DOCTYPE svg PUBLIC "-//W3C//DTD SVG 1.1//EN"
 "http://www.w3.org/Graphics/SVG/1.1/DTD/svg11.dtd">
<!-- Generated by graphviz version 2.42.4 (0)
 -->
<!-- Title: vulpes::fe::FeExpressionSelfFunc&lt; IndexBegin, IndexEnd, Dim, FeSpace, IsTest &gt; Pages: 1 -->
<svg width="597pt" height="125pt"
 viewBox="0.00 0.00 597.00 125.00" xmlns="http://www.w3.org/2000/svg" xmlns:xlink="http://www.w3.org/1999/xlink">
<g id="graph0" class="graph" transform="scale(1 1) rotate(0) translate(4 121)">
<title>vulpes::fe::FeExpressionSelfFunc&lt; IndexBegin, IndexEnd, Dim, FeSpace, IsTest &gt;</title>
<!-- Node1 -->
<g id="Node000001" class="node">
<title>Node1</title>
<g id="a_Node000001"><a xlink:title=" ">
<polygon fill="#999999" stroke="#666666" points="589,-85 449,-85 449,-33 589,-33 589,-85"/>
<text text-anchor="start" x="457" y="-73" font-family="Helvetica,sans-Serif" font-size="10.00">vulpes::fe::FeExpression</text>
<text text-anchor="start" x="457" y="-62" font-family="Helvetica,sans-Serif" font-size="10.00">SelfFunc&lt; IndexBegin,</text>
<text text-anchor="start" x="457" y="-51" font-family="Helvetica,sans-Serif" font-size="10.00"> IndexEnd, Dim, FeSpace,</text>
<text text-anchor="middle" x="519" y="-40" font-family="Helvetica,sans-Serif" font-size="10.00"> IsTest &gt;</text>
</a>
</g>
</g>
<!-- Node2 -->
<g id="Node000002" class="node">
<title>Node2</title>
<g id="a_Node000002"><a xlink:href="classvulpes_1_1fe_1_1FeExpressionBase.html" target="_top" xlink:title=" ">
<polygon fill="white" stroke="#666666" points="386,-117 202,-117 202,-65 386,-65 386,-117"/>
<text text-anchor="start" x="210" y="-105" font-family="Helvetica,sans-Serif" font-size="10.00">vulpes::fe::FeExpression</text>
<text text-anchor="start" x="210" y="-94" font-family="Helvetica,sans-Serif" font-size="10.00">Base&lt; Dim, FeExpressionSelfFunc</text>
<text text-anchor="start" x="210" y="-83" font-family="Helvetica,sans-Serif" font-size="10.00">&lt; IndexBegin, IndexEnd, Dim,</text>
<text text-anchor="middle" x="294" y="-72" font-family="Helvetica,sans-Serif" font-size="10.00"> FeSpace, IsTest &gt; &gt;</text>
</a>
</g>
</g>
<!-- Node2&#45;&gt;Node1 -->
<g id="edge1_Node000001_Node000002" class="edge">
<title>Node2&#45;&gt;Node1</title>
<g id="a_edge1_Node000001_Node000002"><a xlink:title=" ">
<path fill="none" stroke="#63b8ff" d="M396.41,-76.45C414.13,-73.91 432.19,-71.31 448.79,-68.93"/>
<polygon fill="#63b8ff" stroke="#63b8ff" points="395.43,-73.05 386.02,-77.94 396.42,-79.98 395.43,-73.05"/>
</a>
</g>
</g>
<!-- Node3 -->
<g id="Node000003" class="node">
<title>Node3</title>
<g id="a_Node000003"><a xlink:href="classvulpes_1_1fe_1_1FeExpressionFunc.html" target="_top" xlink:title=" ">
<polygon fill="white" stroke="#666666" points="373.5,-46.5 214.5,-46.5 214.5,-5.5 373.5,-5.5 373.5,-46.5"/>
<text text-anchor="start" x="222.5" y="-34.5" font-family="Helvetica,sans-Serif" font-size="10.00">vulpes::fe::FeExpression</text>
<text text-anchor="start" x="222.5" y="-23.5" font-family="Helvetica,sans-Serif" font-size="10.00">Func&lt; IndexBegin, IndexEnd,</text>
<text text-anchor="middle" x="294" y="-12.5" font-family="Helvetica,sans-Serif" font-size="10.00"> Dim, FeSpace, IsTest &gt;</text>
</a>
</g>
</g>
<!-- Node3&#45;&gt;Node1 -->
<g id="edge2_Node000001_Node000003" class="edge">
<title>Node3&#45;&gt;Node1</title>
<g id="a_edge2_Node000001_Node000003"><a xlink:title=" ">
<path fill="none" stroke="#9a32cd" stroke-dasharray="5,2" d="M383.53,-39.1C405.3,-42.32 428.29,-45.72 448.98,-48.79"/>
<polygon fill="#9a32cd" stroke="#9a32cd" points="384.03,-35.64 373.62,-37.63 383,-42.56 384.03,-35.64"/>
</a>
</g>
<text text-anchor="middle" x="417.5" y="-49" font-family="Helvetica,sans-Serif" font-size="10.00" fill="grey"> m_w</text>
</g>
<!-- Node4 -->
<g id="Node000004" class="node">
<title>Node4</title>
<g id="a_Node000004"><a xlink:href="classvulpes_1_1fe_1_1FeExpressionBase.html" target="_top" xlink:title=" ">
<polygon fill="white" stroke="#666666" points="165,-52 0,-52 0,0 165,0 165,-52"/>
<text text-anchor="start" x="8" y="-40" font-family="Helvetica,sans-Serif" font-size="10.00">vulpes::fe::FeExpression</text>
<text text-anchor="start" x="8" y="-29" font-family="Helvetica,sans-Serif" font-size="10.00">Base&lt; Dim, FeExpressionFunc</text>
<text text-anchor="start" x="8" y="-18" font-family="Helvetica,sans-Serif" font-size="10.00">&lt; IndexBegin, IndexEnd, Dim,</text>
<text text-anchor="middle" x="82.5" y="-7" font-family="Helvetica,sans-Serif" font-size="10.00"> FeSpace, IsTest &gt; &gt;</text>
</a>
</g>
</g>
<!-- Node4&#45;&gt;Node3 -->
<g id="edge3_Node000003_Node000004" class="edge">
<title>Node4&#45;&gt;Node3</title>
<g id="a_edge3_Node000003_Node000004"><a xlink:title=" ">
<path fill="none" stroke="#63b8ff" d="M175.44,-26C188.42,-26 201.67,-26 214.37,-26"/>
<polygon fill="#63b8ff" stroke="#63b8ff" points="175.1,-22.5 165.1,-26 175.1,-29.5 175.1,-22.5"/>
</a>
</g>
</g>
</g>
</svg>
