<?xml version="1.0" encoding="UTF-8" standalone="no"?>
<!DOCTYPE svg PUBLIC "-//W3C//DTD SVG 1.1//EN"
 "http://www.w3.org/Graphics/SVG/1.1/DTD/svg11.dtd">
<!-- Generated by graphviz version 2.42.4 (0)
 -->
<!-- Title: vulpes::assemble::WeakFormIntegratorGauss&lt; MeshType, FeExpressionTuple, FeExpressionFaceTuple &gt; Pages: 1 -->
<svg width="1098pt" height="311pt"
 viewBox="0.00 0.00 1098.00 311.00" xmlns="http://www.w3.org/2000/svg" xmlns:xlink="http://www.w3.org/1999/xlink">
<g id="graph0" class="graph" transform="scale(1 1) rotate(0) translate(4 307)">
<title>vulpes::assemble::WeakFormIntegratorGauss&lt; MeshType, FeExpressionTuple, FeExpressionFaceTuple &gt;</title>
<!-- Node1 -->
<g id="Node000001" class="node">
<title>Node1</title>
<g id="a_Node000001"><a xlink:title="Class to perform numerical integration of weak form integrals using Gaussian quadrature rules,...">
<polygon fill="#999999" stroke="#666666" points="1090,-161 910,-161 910,-109 1090,-109 1090,-161"/>
<text text-anchor="start" x="918" y="-149" font-family="Helvetica,sans-Serif" font-size="10.00">vulpes::assemble::WeakForm</text>
<text text-anchor="start" x="918" y="-138" font-family="Helvetica,sans-Serif" font-size="10.00">IntegratorGauss&lt; MeshType,</text>
<text text-anchor="start" x="918" y="-127" font-family="Helvetica,sans-Serif" font-size="10.00"> FeExpressionTuple, FeExpression</text>
<text text-anchor="middle" x="1000" y="-116" font-family="Helvetica,sans-Serif" font-size="10.00">FaceTuple &gt;</text>
</a>
</g>
</g>
<!-- Node2 -->
<g id="Node000002" class="node">
<title>Node2</title>
<g id="a_Node000002"><a xlink:href="classvulpes_1_1assemble_1_1WeakFormIntegratorBase.html" target="_top" xlink:title="Base class for weak form integrators.">
<polygon fill="white" stroke="#666666" points="780,-291 600,-291 600,-239 780,-239 780,-291"/>
<text text-anchor="start" x="608" y="-279" font-family="Helvetica,sans-Serif" font-size="10.00">vulpes::assemble::WeakForm</text>
<text text-anchor="start" x="608" y="-268" font-family="Helvetica,sans-Serif" font-size="10.00">IntegratorBase&lt; MeshType,</text>
<text text-anchor="start" x="608" y="-257" font-family="Helvetica,sans-Serif" font-size="10.00"> FeExpressionTuple, FeExpression</text>
<text text-anchor="middle" x="690" y="-246" font-family="Helvetica,sans-Serif" font-size="10.00">FaceTuple &gt;</text>
</a>
</g>
</g>
<!-- Node2&#45;&gt;Node1 -->
<g id="edge1_Node000001_Node000002" class="edge">
<title>Node2&#45;&gt;Node1</title>
<g id="a_edge1_Node000001_Node000002"><a xlink:title=" ">
<path fill="none" stroke="#63b8ff" d="M790.36,-254.66C823.8,-248.63 860.58,-239.08 892,-224 924.02,-208.63 954.55,-181.57 974.74,-161.31"/>
<polygon fill="#63b8ff" stroke="#63b8ff" points="789.36,-251.28 780.09,-256.42 790.54,-258.18 789.36,-251.28"/>
</a>
</g>
</g>
<!-- Node3 -->
<g id="Node000003" class="node">
<title>Node3</title>
<g id="a_Node000003"><a xlink:href="classvulpes_1_1assemble_1_1CellManager.html" target="_top" xlink:title=" ">
<polygon fill="white" stroke="#666666" points="475,-292 305,-292 305,-262 475,-262 475,-292"/>
<text text-anchor="start" x="313" y="-280" font-family="Helvetica,sans-Serif" font-size="10.00">vulpes::assemble::CellManager</text>
<text text-anchor="middle" x="390" y="-269" font-family="Helvetica,sans-Serif" font-size="10.00">&lt; MeshType, FeType &gt;</text>
</a>
</g>
</g>
<!-- Node3&#45;&gt;Node2 -->
<g id="edge2_Node000002_Node000003" class="edge">
<title>Node3&#45;&gt;Node2</title>
<g id="a_edge2_Node000002_Node000003"><a xlink:title=" ">
<path fill="none" stroke="#9a32cd" stroke-dasharray="5,2" d="M485.38,-273.2C521.99,-271.73 563.71,-270.05 599.81,-268.59"/>
<polygon fill="#9a32cd" stroke="#9a32cd" points="485.05,-269.71 475.2,-273.61 485.33,-276.7 485.05,-269.71"/>
</a>
</g>
<text text-anchor="middle" x="537.5" y="-286" font-family="Helvetica,sans-Serif" font-size="10.00" fill="grey"> m_cell_manager</text>
<text text-anchor="middle" x="537.5" y="-275" font-family="Helvetica,sans-Serif" font-size="10.00" fill="grey">m_cell_neigh_info</text>
</g>
<!-- Node4 -->
<g id="Node000004" class="node">
<title>Node4</title>
<g id="a_Node000004"><a xlink:href="classvulpes_1_1datastructure_1_1CrsMap.html" target="_top" xlink:title=" ">
<polygon fill="white" stroke="#666666" points="156,-303 0,-303 0,-251 156,-251 156,-303"/>
<text text-anchor="start" x="8" y="-291" font-family="Helvetica,sans-Serif" font-size="10.00">vulpes::datastructure</text>
<text text-anchor="start" x="8" y="-280" font-family="Helvetica,sans-Serif" font-size="10.00">::CrsMap&lt; vulpes::assemble</text>
<text text-anchor="start" x="8" y="-269" font-family="Helvetica,sans-Serif" font-size="10.00">::CellManager::NeighInfo,</text>
<text text-anchor="middle" x="78" y="-258" font-family="Helvetica,sans-Serif" font-size="10.00"> index_t &gt;</text>
</a>
</g>
</g>
<!-- Node4&#45;&gt;Node3 -->
<g id="edge3_Node000003_Node000004" class="edge">
<title>Node4&#45;&gt;Node3</title>
<g id="a_edge3_Node000003_Node000004"><a xlink:title=" ">
<path fill="none" stroke="#9a32cd" stroke-dasharray="5,2" d="M166.28,-277C209.64,-277 261.8,-277 304.74,-277"/>
<polygon fill="#9a32cd" stroke="#9a32cd" points="166.03,-273.5 156.03,-277 166.03,-280.5 166.03,-273.5"/>
</a>
</g>
<text text-anchor="middle" x="230.5" y="-280" font-family="Helvetica,sans-Serif" font-size="10.00" fill="grey"> m_cell_to_facet_neigh</text>
</g>
<!-- Node5 -->
<g id="Node000005" class="node">
<title>Node5</title>
<g id="a_Node000005"><a xlink:href="classvulpes_1_1fe_1_1FeValues.html" target="_top" xlink:title=" ">
<polygon fill="white" stroke="#666666" points="447,-235 333,-235 333,-205 447,-205 447,-235"/>
<text text-anchor="start" x="341" y="-223" font-family="Helvetica,sans-Serif" font-size="10.00">vulpes::fe::FeValues</text>
<text text-anchor="middle" x="390" y="-212" font-family="Helvetica,sans-Serif" font-size="10.00">&lt; dim &gt;</text>
</a>
</g>
</g>
<!-- Node5&#45;&gt;Node1 -->
<g id="edge5_Node000001_Node000005" class="edge">
<title>Node5&#45;&gt;Node1</title>
<g id="a_edge5_Node000001_Node000005"><a xlink:title=" ">
<path fill="none" stroke="#9a32cd" stroke-dasharray="5,2" d="M457.45,-217.44C554.1,-212.69 738.66,-199.7 892,-166 898.8,-164.51 905.8,-162.82 912.82,-161.02"/>
<polygon fill="#9a32cd" stroke="#9a32cd" points="457.06,-213.96 447.24,-217.93 457.4,-220.95 457.06,-213.96"/>
</a>
</g>
<text text-anchor="middle" x="690" y="-210" font-family="Helvetica,sans-Serif" font-size="10.00" fill="grey"> m_fe_values</text>
</g>
<!-- Node5&#45;&gt;Node2 -->
<g id="edge4_Node000002_Node000005" class="edge">
<title>Node5&#45;&gt;Node2</title>
<g id="a_edge4_Node000002_Node000005"><a xlink:title=" ">
<path fill="none" stroke="#9a32cd" stroke-dasharray="5,2" d="M457.16,-229.99C499.15,-236.33 554.01,-244.61 599.81,-251.53"/>
<polygon fill="#9a32cd" stroke="#9a32cd" points="457.46,-226.5 447.05,-228.46 456.42,-233.42 457.46,-226.5"/>
</a>
</g>
<text text-anchor="middle" x="537.5" y="-250" font-family="Helvetica,sans-Serif" font-size="10.00" fill="grey"> m_fe_values</text>
</g>
<!-- Node6 -->
<g id="Node000006" class="node">
<title>Node6</title>
<g id="a_Node000006"><a xlink:href="structvulpes_1_1qrule_1_1QuadratureRule.html" target="_top" xlink:title=" ">
<polygon fill="white" stroke="#666666" points="760,-174 620,-174 620,-144 760,-144 760,-174"/>
<text text-anchor="start" x="628" y="-162" font-family="Helvetica,sans-Serif" font-size="10.00">vulpes::qrule::Quadrature</text>
<text text-anchor="middle" x="690" y="-151" font-family="Helvetica,sans-Serif" font-size="10.00">Rule&lt; mpf_class, dim &gt;</text>
</a>
</g>
</g>
<!-- Node6&#45;&gt;Node1 -->
<g id="edge6_Node000001_Node000006" class="edge">
<title>Node6&#45;&gt;Node1</title>
<g id="a_edge6_Node000001_Node000006"><a xlink:title=" ">
<path fill="none" stroke="#9a32cd" stroke-dasharray="5,2" d="M770.19,-152.83C812.9,-149.5 865.76,-145.38 909.91,-141.94"/>
<polygon fill="#9a32cd" stroke="#9a32cd" points="769.82,-149.35 760.12,-153.61 770.36,-156.33 769.82,-149.35"/>
</a>
</g>
<text text-anchor="middle" x="845" y="-154" font-family="Helvetica,sans-Serif" font-size="10.00" fill="grey"> m_qrule_mpf</text>
</g>
<!-- Node7 -->
<g id="Node000007" class="node">
<title>Node7</title>
<g id="a_Node000007"><a xlink:href="structvulpes_1_1qrule_1_1QuadratureRule.html" target="_top" xlink:title=" ">
<polygon fill="white" stroke="#666666" points="760,-126 620,-126 620,-96 760,-96 760,-126"/>
<text text-anchor="start" x="628" y="-114" font-family="Helvetica,sans-Serif" font-size="10.00">vulpes::qrule::Quadrature</text>
<text text-anchor="middle" x="690" y="-103" font-family="Helvetica,sans-Serif" font-size="10.00">Rule&lt; double, dim &gt;</text>
</a>
</g>
</g>
<!-- Node7&#45;&gt;Node1 -->
<g id="edge7_Node000001_Node000007" class="edge">
<title>Node7&#45;&gt;Node1</title>
<g id="a_edge7_Node000001_Node000007"><a xlink:title=" ">
<path fill="none" stroke="#9a32cd" stroke-dasharray="5,2" d="M770.19,-117.17C812.9,-120.5 865.76,-124.62 909.91,-128.06"/>
<polygon fill="#9a32cd" stroke="#9a32cd" points="770.36,-113.67 760.12,-116.39 769.82,-120.65 770.36,-113.67"/>
</a>
</g>
<text text-anchor="middle" x="845" y="-130" font-family="Helvetica,sans-Serif" font-size="10.00" fill="grey"> m_qrule_d</text>
</g>
<!-- Node8 -->
<g id="Node000008" class="node">
<title>Node8</title>
<g id="a_Node000008"><a xlink:href="structvulpes_1_1qrule_1_1QuadratureRule.html" target="_top" xlink:title=" ">
<polygon fill="white" stroke="#666666" points="765.5,-78 614.5,-78 614.5,-48 765.5,-48 765.5,-78"/>
<text text-anchor="start" x="622.5" y="-66" font-family="Helvetica,sans-Serif" font-size="10.00">vulpes::qrule::Quadrature</text>
<text text-anchor="middle" x="690" y="-55" font-family="Helvetica,sans-Serif" font-size="10.00">Rule&lt; mpf_class, dim &#45; 1 &gt;</text>
</a>
</g>
</g>
<!-- Node8&#45;&gt;Node1 -->
<g id="edge8_Node000001_Node000008" class="edge">
<title>Node8&#45;&gt;Node1</title>
<g id="a_edge8_Node000001_Node000008"><a xlink:title=" ">
<path fill="none" stroke="#9a32cd" stroke-dasharray="5,2" d="M775.7,-79.38C811.68,-86.68 854.01,-95.72 892,-105 897.81,-106.42 903.78,-107.94 909.79,-109.5"/>
<polygon fill="#9a32cd" stroke="#9a32cd" points="776.22,-75.91 765.72,-77.37 774.83,-82.78 776.22,-75.91"/>
</a>
</g>
<text text-anchor="middle" x="845" y="-108" font-family="Helvetica,sans-Serif" font-size="10.00" fill="grey"> m_qrule_face_mpf</text>
</g>
<!-- Node9 -->
<g id="Node000009" class="node">
<title>Node9</title>
<g id="a_Node000009"><a xlink:href="structvulpes_1_1qrule_1_1QuadratureRule.html" target="_top" xlink:title=" ">
<polygon fill="white" stroke="#666666" points="760,-30 620,-30 620,0 760,0 760,-30"/>
<text text-anchor="start" x="628" y="-18" font-family="Helvetica,sans-Serif" font-size="10.00">vulpes::qrule::Quadrature</text>
<text text-anchor="middle" x="690" y="-7" font-family="Helvetica,sans-Serif" font-size="10.00">Rule&lt; double, dim &#45; 1 &gt;</text>
</a>
</g>
</g>
<!-- Node9&#45;&gt;Node1 -->
<g id="edge9_Node000001_Node000009" class="edge">
<title>Node9&#45;&gt;Node1</title>
<g id="a_edge9_Node000001_Node000009"><a xlink:title=" ">
<path fill="none" stroke="#9a32cd" stroke-dasharray="5,2" d="M756.86,-32.71C764.66,-34.82 772.51,-36.95 780,-39 829.82,-52.61 844.59,-49.51 892,-70 916.34,-80.52 941.78,-95.78 961.75,-108.86"/>
<polygon fill="#9a32cd" stroke="#9a32cd" points="757.6,-29.28 747.04,-30.05 755.78,-36.04 757.6,-29.28"/>
</a>
</g>
<text text-anchor="middle" x="845" y="-73" font-family="Helvetica,sans-Serif" font-size="10.00" fill="grey"> m_qrule_face_d</text>
</g>
</g>
</svg>
