<?xml version="1.0" encoding="UTF-8" standalone="no"?>
<!DOCTYPE svg PUBLIC "-//W3C//DTD SVG 1.1//EN"
 "http://www.w3.org/Graphics/SVG/1.1/DTD/svg11.dtd">
<!-- Generated by graphviz version 2.42.4 (0)
 -->
<!-- Title: vulpes::fe::FeExpressionTraceSymGradFunc&lt; IndexBegin, IndexEnd, Dim, FeSpace, IsTest &gt; Pages: 1 -->
<svg width="614pt" height="103pt"
 viewBox="0.00 0.00 614.00 103.00" xmlns="http://www.w3.org/2000/svg" xmlns:xlink="http://www.w3.org/1999/xlink">
<g id="graph0" class="graph" transform="scale(1 1) rotate(0) translate(4 99)">
<title>vulpes::fe::FeExpressionTraceSymGradFunc&lt; IndexBegin, IndexEnd, Dim, FeSpace, IsTest &gt;</title>
<!-- Node1 -->
<g id="Node000001" class="node">
<title>Node1</title>
<g id="a_Node000001"><a xlink:title=" ">
<polygon fill="#999999" stroke="#666666" points="606,-73.5 424,-73.5 424,-32.5 606,-32.5 606,-73.5"/>
<text text-anchor="start" x="432" y="-61.5" font-family="Helvetica,sans-Serif" font-size="10.00">vulpes::fe::FeExpression</text>
<text text-anchor="start" x="432" y="-50.5" font-family="Helvetica,sans-Serif" font-size="10.00">TraceSymGradFunc&lt; IndexBegin,</text>
<text text-anchor="middle" x="515" y="-39.5" font-family="Helvetica,sans-Serif" font-size="10.00"> IndexEnd, Dim, FeSpace, IsTest &gt;</text>
</a>
</g>
</g>
<!-- Node2 -->
<g id="Node000002" class="node">
<title>Node2</title>
<g id="a_Node000002"><a xlink:href="classvulpes_1_1fe_1_1FeExpressionBase.html" target="_top" xlink:title="Base class for Finite Element Expressions.">
<polygon fill="white" stroke="#666666" points="358.5,-95 204.5,-95 204.5,-65 358.5,-65 358.5,-95"/>
<text text-anchor="start" x="212.5" y="-83" font-family="Helvetica,sans-Serif" font-size="10.00">vulpes::fe::FeExpression</text>
<text text-anchor="middle" x="281.5" y="-72" font-family="Helvetica,sans-Serif" font-size="10.00">Base&lt; Dim, FeExpression &gt;</text>
</a>
</g>
</g>
<!-- Node2&#45;&gt;Node1 -->
<g id="edge1_Node000001_Node000002" class="edge">
<title>Node2&#45;&gt;Node1</title>
<g id="a_edge1_Node000001_Node000002"><a xlink:title=" ">
<path fill="none" stroke="#63b8ff" d="M368.76,-69.94C386.71,-67.85 405.66,-65.64 423.74,-63.53"/>
<polygon fill="#63b8ff" stroke="#63b8ff" points="368.15,-66.49 358.62,-71.12 368.96,-73.44 368.15,-66.49"/>
</a>
</g>
</g>
<!-- Node3 -->
<g id="Node000003" class="node">
<title>Node3</title>
<g id="a_Node000003"><a xlink:href="classvulpes_1_1fe_1_1FeExpressionFunc.html" target="_top" xlink:title=" ">
<polygon fill="white" stroke="#666666" points="361,-46.5 202,-46.5 202,-5.5 361,-5.5 361,-46.5"/>
<text text-anchor="start" x="210" y="-34.5" font-family="Helvetica,sans-Serif" font-size="10.00">vulpes::fe::FeExpression</text>
<text text-anchor="start" x="210" y="-23.5" font-family="Helvetica,sans-Serif" font-size="10.00">Func&lt; IndexBegin, IndexEnd,</text>
<text text-anchor="middle" x="281.5" y="-12.5" font-family="Helvetica,sans-Serif" font-size="10.00"> Dim, FeSpace, false &gt;</text>
</a>
</g>
</g>
<!-- Node3&#45;&gt;Node1 -->
<g id="edge2_Node000001_Node000003" class="edge">
<title>Node3&#45;&gt;Node1</title>
<g id="a_edge2_Node000001_Node000003"><a xlink:title=" ">
<path fill="none" stroke="#9a32cd" stroke-dasharray="5,2" d="M371.26,-36.35C388.53,-38.37 406.65,-40.48 423.96,-42.5"/>
<polygon fill="#9a32cd" stroke="#9a32cd" points="371.54,-32.86 361.2,-35.18 370.73,-39.81 371.54,-32.86"/>
</a>
</g>
<text text-anchor="middle" x="392.5" y="-44" font-family="Helvetica,sans-Serif" font-size="10.00" fill="grey"> m_w</text>
</g>
<!-- Node4 -->
<g id="Node000004" class="node">
<title>Node4</title>
<g id="a_Node000004"><a xlink:href="classvulpes_1_1fe_1_1FeExpressionBase.html" target="_top" xlink:title=" ">
<polygon fill="white" stroke="#666666" points="165,-52 0,-52 0,0 165,0 165,-52"/>
<text text-anchor="start" x="8" y="-40" font-family="Helvetica,sans-Serif" font-size="10.00">vulpes::fe::FeExpression</text>
<text text-anchor="start" x="8" y="-29" font-family="Helvetica,sans-Serif" font-size="10.00">Base&lt; Dim, FeExpressionFunc</text>
<text text-anchor="start" x="8" y="-18" font-family="Helvetica,sans-Serif" font-size="10.00">&lt; IndexBegin, IndexEnd, Dim,</text>
<text text-anchor="middle" x="82.5" y="-7" font-family="Helvetica,sans-Serif" font-size="10.00"> FeSpace, IsTest &gt; &gt;</text>
</a>
</g>
</g>
<!-- Node4&#45;&gt;Node3 -->
<g id="edge3_Node000003_Node000004" class="edge">
<title>Node4&#45;&gt;Node3</title>
<g id="a_edge3_Node000003_Node000004"><a xlink:title=" ">
<path fill="none" stroke="#63b8ff" d="M175.1,-26C184.04,-26 193.06,-26 201.86,-26"/>
<polygon fill="#63b8ff" stroke="#63b8ff" points="175.05,-22.5 165.05,-26 175.05,-29.5 175.05,-22.5"/>
</a>
</g>
</g>
</g>
</svg>
