<?xml version="1.0" encoding="UTF-8" standalone="no"?>
<!DOCTYPE svg PUBLIC "-//W3C//DTD SVG 1.1//EN"
 "http://www.w3.org/Graphics/SVG/1.1/DTD/svg11.dtd">
<!-- Generated by graphviz version 2.42.4 (0)
 -->
<!-- Title: vulpes::geometry::Mesh3D&lt; FloatType, IndexType &gt; Pages: 1 -->
<svg width="616pt" height="121pt"
 viewBox="0.00 0.00 616.00 120.50" xmlns="http://www.w3.org/2000/svg" xmlns:xlink="http://www.w3.org/1999/xlink">
<g id="graph0" class="graph" transform="scale(1 1) rotate(0) translate(4 116.5)">
<title>vulpes::geometry::Mesh3D&lt; FloatType, IndexType &gt;</title>
<!-- Node1 -->
<g id="Node000001" class="node">
<title>Node1</title>
<g id="a_Node000001"><a xlink:title=" ">
<polygon fill="#999999" stroke="#666666" points="608,-64.5 461,-64.5 461,-34.5 608,-34.5 608,-64.5"/>
<text text-anchor="start" x="469" y="-52.5" font-family="Helvetica,sans-Serif" font-size="10.00">vulpes::geometry::Mesh3D</text>
<text text-anchor="middle" x="534.5" y="-41.5" font-family="Helvetica,sans-Serif" font-size="10.00">&lt; FloatType, IndexType &gt;</text>
</a>
</g>
</g>
<!-- Node2 -->
<g id="Node000002" class="node">
<title>Node2</title>
<g id="a_Node000002"><a xlink:href="classvulpes_1_1geometry_1_1MeshBase.html" target="_top" xlink:title=" ">
<polygon fill="white" stroke="#666666" points="424,-75.5 266,-75.5 266,-23.5 424,-23.5 424,-75.5"/>
<text text-anchor="start" x="274" y="-63.5" font-family="Helvetica,sans-Serif" font-size="10.00">vulpes::geometry::MeshBase</text>
<text text-anchor="start" x="274" y="-52.5" font-family="Helvetica,sans-Serif" font-size="10.00">&lt; FloatType, IndexType,</text>
<text text-anchor="start" x="274" y="-41.5" font-family="Helvetica,sans-Serif" font-size="10.00"> 3, 3, Mesh3D&lt; FloatType,</text>
<text text-anchor="middle" x="345" y="-30.5" font-family="Helvetica,sans-Serif" font-size="10.00"> IndexType &gt; &gt;</text>
</a>
</g>
</g>
<!-- Node2&#45;&gt;Node1 -->
<g id="edge1_Node000001_Node000002" class="edge">
<title>Node2&#45;&gt;Node1</title>
<g id="a_edge1_Node000001_Node000002"><a xlink:title=" ">
<path fill="none" stroke="#63b8ff" d="M434.2,-49.5C443.13,-49.5 452.13,-49.5 460.87,-49.5"/>
<polygon fill="#63b8ff" stroke="#63b8ff" points="434.16,-46 424.16,-49.5 434.16,-53 434.16,-46"/>
</a>
</g>
</g>
<!-- Node3 -->
<g id="Node000003" class="node">
<title>Node3</title>
<g id="a_Node000003"><a xlink:href="classvulpes_1_1datastructure_1_1CrsMap.html" target="_top" xlink:title=" ">
<polygon fill="white" stroke="#666666" points="136,-100 13,-100 13,-59 136,-59 136,-100"/>
<text text-anchor="start" x="21" y="-88" font-family="Helvetica,sans-Serif" font-size="10.00">vulpes::datastructure</text>
<text text-anchor="start" x="21" y="-77" font-family="Helvetica,sans-Serif" font-size="10.00">::CrsMap&lt; IndexType,</text>
<text text-anchor="middle" x="74.5" y="-66" font-family="Helvetica,sans-Serif" font-size="10.00"> IndexType &gt;</text>
</a>
</g>
</g>
<!-- Node3&#45;&gt;Node2 -->
<g id="edge2_Node000002_Node000003" class="edge">
<title>Node3&#45;&gt;Node2</title>
<g id="a_edge2_Node000002_Node000003"><a xlink:title=" ">
<path fill="none" stroke="#9a32cd" stroke-dasharray="5,2" d="M146.23,-71.6C182.98,-67.49 227.98,-62.46 265.77,-58.24"/>
<polygon fill="#9a32cd" stroke="#9a32cd" points="145.64,-68.14 136.09,-72.73 146.42,-75.1 145.64,-68.14"/>
</a>
</g>
<text text-anchor="middle" x="207.5" y="-104.5" font-family="Helvetica,sans-Serif" font-size="10.00" fill="grey"> m_cell_to_facet</text>
<text text-anchor="middle" x="207.5" y="-93.5" font-family="Helvetica,sans-Serif" font-size="10.00" fill="grey">m_cell_to_vtx</text>
<text text-anchor="middle" x="207.5" y="-82.5" font-family="Helvetica,sans-Serif" font-size="10.00" fill="grey">m_dual_graph</text>
<text text-anchor="middle" x="207.5" y="-71.5" font-family="Helvetica,sans-Serif" font-size="10.00" fill="grey">m_vtx_to_cell</text>
</g>
<!-- Node4 -->
<g id="Node000004" class="node">
<title>Node4</title>
<g id="a_Node000004"><a xlink:href="classvulpes_1_1datastructure_1_1CrsMap.html" target="_top" xlink:title=" ">
<polygon fill="white" stroke="#666666" points="149,-41 0,-41 0,0 149,0 149,-41"/>
<text text-anchor="start" x="8" y="-29" font-family="Helvetica,sans-Serif" font-size="10.00">vulpes::datastructure</text>
<text text-anchor="start" x="8" y="-18" font-family="Helvetica,sans-Serif" font-size="10.00">::CrsMap&lt; IndexType,</text>
<text text-anchor="middle" x="74.5" y="-7" font-family="Helvetica,sans-Serif" font-size="10.00"> IndexType, vtx_per_face &gt;</text>
</a>
</g>
</g>
<!-- Node4&#45;&gt;Node2 -->
<g id="edge3_Node000002_Node000004" class="edge">
<title>Node4&#45;&gt;Node2</title>
<g id="a_edge3_Node000002_Node000004"><a xlink:title=" ">
<path fill="none" stroke="#9a32cd" stroke-dasharray="5,2" d="M159.58,-29.58C193.51,-33.25 232.43,-37.45 265.75,-41.05"/>
<polygon fill="#9a32cd" stroke="#9a32cd" points="159.54,-26.06 149.22,-28.46 158.79,-33.02 159.54,-26.06"/>
</a>
</g>
<text text-anchor="middle" x="207.5" y="-40.5" font-family="Helvetica,sans-Serif" font-size="10.00" fill="grey"> m_facet_to_vtx</text>
</g>
</g>
</svg>
