<?xml version="1.0" encoding="UTF-8" standalone="no"?>
<!DOCTYPE svg PUBLIC "-//W3C//DTD SVG 1.1//EN"
 "http://www.w3.org/Graphics/SVG/1.1/DTD/svg11.dtd">
<!-- Generated by graphviz version 12.2.1 (20241206.2353)
 -->
<!-- Title: vulpes::assemble::WeakFormIntegratorBase&lt; MeshType, FeExpressionTuple, FeExpressionFaceTuple &gt; Pages: 1 -->
<svg width="723pt" height="99pt"
 viewBox="0.00 0.00 722.75 98.75" xmlns="http://www.w3.org/2000/svg" xmlns:xlink="http://www.w3.org/1999/xlink">
<g id="graph0" class="graph" transform="scale(1 1) rotate(0) translate(4 94.75)">
<title>vulpes::assemble::WeakFormIntegratorBase&lt; MeshType, FeExpressionTuple, FeExpressionFaceTuple &gt;</title>
<!-- Node1 -->
<g id="Node000001" class="node">
<title>Node1</title>
<g id="a_Node000001"><a xlink:title="Base class for weak form integrators.">
<polygon fill="#999999" stroke="#666666" points="714.75,-58.75 545.75,-58.75 545.75,-5.75 714.75,-5.75 714.75,-58.75"/>
<text text-anchor="start" x="553.75" y="-45.25" font-family="Helvetica,sans-Serif" font-size="10.00">vulpes::assemble::WeakForm</text>
<text text-anchor="start" x="553.75" y="-34" font-family="Helvetica,sans-Serif" font-size="10.00">IntegratorBase&lt; MeshType,</text>
<text text-anchor="start" x="553.75" y="-22.75" font-family="Helvetica,sans-Serif" font-size="10.00"> FeExpressionTuple, FeExpression</text>
<text text-anchor="middle" x="630.25" y="-11.5" font-family="Helvetica,sans-Serif" font-size="10.00">FaceTuple &gt;</text>
</a>
</g>
</g>
<!-- Node2 -->
<g id="Node000002" class="node">
<title>Node2</title>
<g id="a_Node000002"><a xlink:href="classvulpes_1_1assemble_1_1CellManager.html" target="_top" xlink:title=" ">
<polygon fill="white" stroke="#666666" points="431.75,-79.5 278.5,-79.5 278.5,-49 431.75,-49 431.75,-79.5"/>
<text text-anchor="start" x="286.5" y="-66" font-family="Helvetica,sans-Serif" font-size="10.00">vulpes::assemble::CellManager</text>
<text text-anchor="middle" x="355.12" y="-54.75" font-family="Helvetica,sans-Serif" font-size="10.00">&lt; MeshType, FeType &gt;</text>
</a>
</g>
</g>
<!-- Node2&#45;&gt;Node1 -->
<g id="edge1_Node000001_Node000002" class="edge">
<title>Node2&#45;&gt;Node1</title>
<g id="a_edge1_Node000001_Node000002"><a xlink:title=" ">
<path fill="none" stroke="#9a32cd" stroke-dasharray="5,2" d="M443.55,-54.01C476.18,-50.18 513.13,-45.85 545.43,-42.07"/>
<polygon fill="#9a32cd" stroke="#9a32cd" points="443.23,-50.52 433.71,-55.16 444.05,-57.47 443.23,-50.52"/>
</a>
</g>
<text text-anchor="middle" x="488.75" y="-65.99" font-family="Helvetica,sans-Serif" font-size="10.00" fill="grey"> m_cell_manager</text>
<text text-anchor="middle" x="488.75" y="-54.74" font-family="Helvetica,sans-Serif" font-size="10.00" fill="grey">m_cell_neigh_info</text>
</g>
<!-- Node3 -->
<g id="Node000003" class="node">
<title>Node3</title>
<g id="a_Node000003"><a xlink:href="classvulpes_1_1datastructure_1_1CrsMap.html" target="_top" xlink:title=" ">
<polygon fill="white" stroke="#666666" points="142,-90.75 0,-90.75 0,-37.75 142,-37.75 142,-90.75"/>
<text text-anchor="start" x="8" y="-77.25" font-family="Helvetica,sans-Serif" font-size="10.00">vulpes::datastructure</text>
<text text-anchor="start" x="8" y="-66" font-family="Helvetica,sans-Serif" font-size="10.00">::CrsMap&lt; vulpes::assemble</text>
<text text-anchor="start" x="8" y="-54.75" font-family="Helvetica,sans-Serif" font-size="10.00">::CellManager::NeighInfo,</text>
<text text-anchor="middle" x="71" y="-43.5" font-family="Helvetica,sans-Serif" font-size="10.00"> index_t &gt;</text>
</a>
</g>
</g>
<!-- Node3&#45;&gt;Node2 -->
<g id="edge2_Node000002_Node000003" class="edge">
<title>Node3&#45;&gt;Node2</title>
<g id="a_edge2_Node000002_Node000003"><a xlink:title=" ">
<path fill="none" stroke="#9a32cd" stroke-dasharray="5,2" d="M153.84,-64.25C193.05,-64.25 239.71,-64.25 278.13,-64.25"/>
<polygon fill="#9a32cd" stroke="#9a32cd" points="153.98,-60.75 143.98,-64.25 153.98,-67.75 153.98,-60.75"/>
</a>
</g>
<text text-anchor="middle" x="210.25" y="-66" font-family="Helvetica,sans-Serif" font-size="10.00" fill="grey"> m_cell_to_facet_neigh</text>
</g>
<!-- Node4 -->
<g id="Node000004" class="node">
<title>Node4</title>
<g id="a_Node000004"><a xlink:href="classvulpes_1_1fe_1_1FeValues.html" target="_top" xlink:title=" ">
<polygon fill="white" stroke="#666666" points="407.75,-30.5 302.5,-30.5 302.5,0 407.75,0 407.75,-30.5"/>
<text text-anchor="start" x="310.5" y="-17" font-family="Helvetica,sans-Serif" font-size="10.00">vulpes::fe::FeValues</text>
<text text-anchor="middle" x="355.12" y="-5.75" font-family="Helvetica,sans-Serif" font-size="10.00">&lt; dim &gt;</text>
</a>
</g>
</g>
<!-- Node4&#45;&gt;Node1 -->
<g id="edge3_Node000001_Node000004" class="edge">
<title>Node4&#45;&gt;Node1</title>
<g id="a_edge3_Node000001_Node000004"><a xlink:title=" ">
<path fill="none" stroke="#9a32cd" stroke-dasharray="5,2" d="M419.12,-17.4C451.59,-18.69 491.81,-20.55 527.75,-23 533.49,-23.39 539.4,-23.83 545.36,-24.3"/>
<polygon fill="#9a32cd" stroke="#9a32cd" points="419.62,-13.92 409.49,-17.03 419.35,-20.92 419.62,-13.92"/>
</a>
</g>
<text text-anchor="middle" x="488.75" y="-24.75" font-family="Helvetica,sans-Serif" font-size="10.00" fill="grey"> m_fe_values</text>
</g>
</g>
</svg>
