<?xml version="1.0" encoding="UTF-8" standalone="no"?>
<!DOCTYPE svg PUBLIC "-//W3C//DTD SVG 1.1//EN"
 "http://www.w3.org/Graphics/SVG/1.1/DTD/svg11.dtd">
<!-- Generated by graphviz version 2.42.4 (0)
 -->
<!-- Title: vulpes::geometry::GNNAgglomeration&lt; MeshType &gt; Pages: 1 -->
<svg width="745pt" height="76pt"
 viewBox="0.00 0.00 745.00 75.50" xmlns="http://www.w3.org/2000/svg" xmlns:xlink="http://www.w3.org/1999/xlink">
<g id="graph0" class="graph" transform="scale(1 1) rotate(0) translate(4 71.5)">
<title>vulpes::geometry::GNNAgglomeration&lt; MeshType &gt;</title>
<!-- Node1 -->
<g id="Node000001" class="node">
<title>Node1</title>
<g id="a_Node000001"><a xlink:title="GNN&#45;based agglomeration model (GraphSAGE via TorchScript).">
<polygon fill="#999999" stroke="#666666" points="737,-47.5 535,-47.5 535,-17.5 737,-17.5 737,-47.5"/>
<text text-anchor="start" x="543" y="-35.5" font-family="Helvetica,sans-Serif" font-size="10.00">vulpes::geometry::GNNAgglomeration</text>
<text text-anchor="middle" x="636" y="-24.5" font-family="Helvetica,sans-Serif" font-size="10.00">&lt; MeshType &gt;</text>
</a>
</g>
</g>
<!-- Node2 -->
<g id="Node000002" class="node">
<title>Node2</title>
<g id="a_Node000002"><a xlink:href="classvulpes_1_1geometry_1_1AbstractAgglomerationModel.html" target="_top" xlink:title="Defines an abstract interface for mesh agglomeration strategies.">
<polygon fill="white" stroke="#666666" points="453,-67.5 263,-67.5 263,-37.5 453,-37.5 453,-67.5"/>
<text text-anchor="start" x="271" y="-55.5" font-family="Helvetica,sans-Serif" font-size="10.00">vulpes::geometry::Abstract</text>
<text text-anchor="middle" x="358" y="-44.5" font-family="Helvetica,sans-Serif" font-size="10.00">AgglomerationModel&lt; MeshType &gt;</text>
</a>
</g>
</g>
<!-- Node2&#45;&gt;Node1 -->
<g id="edge1_Node000001_Node000002" class="edge">
<title>Node2&#45;&gt;Node1</title>
<g id="a_edge1_Node000001_Node000002"><a xlink:title=" ">
<path fill="none" stroke="#63b8ff" d="M463.47,-44.93C486.78,-43.24 511.46,-41.45 534.61,-39.77"/>
<polygon fill="#63b8ff" stroke="#63b8ff" points="462.93,-41.46 453.21,-45.67 463.44,-48.44 462.93,-41.46"/>
</a>
</g>
</g>
<!-- Node3 -->
<g id="Node000003" class="node">
<title>Node3</title>
<g id="a_Node000003"><a xlink:href="classvulpes_1_1datastructure_1_1CrsMap.html" target="_top" xlink:title=" ">
<polygon fill="white" stroke="#666666" points="160,-45.5 0,-45.5 0,-15.5 160,-15.5 160,-45.5"/>
<text text-anchor="start" x="8" y="-33.5" font-family="Helvetica,sans-Serif" font-size="10.00">vulpes::datastructure</text>
<text text-anchor="middle" x="80" y="-22.5" font-family="Helvetica,sans-Serif" font-size="10.00">::CrsMap&lt; index_t, index_t &gt;</text>
</a>
</g>
</g>
<!-- Node3&#45;&gt;Node2 -->
<g id="edge2_Node000002_Node000003" class="edge">
<title>Node3&#45;&gt;Node2</title>
<g id="a_edge2_Node000002_Node000003"><a xlink:title=" ">
<path fill="none" stroke="#9a32cd" stroke-dasharray="5,2" d="M170.38,-37.62C199.92,-39.98 232.86,-42.6 262.74,-44.99"/>
<polygon fill="#9a32cd" stroke="#9a32cd" points="170.34,-34.11 160.09,-36.8 169.78,-41.09 170.34,-34.11"/>
</a>
</g>
<text text-anchor="middle" x="211.5" y="-46.5" font-family="Helvetica,sans-Serif" font-size="10.00" fill="grey"> m_dual_map</text>
</g>
<!-- Node4 -->
<g id="Node000004" class="node">
<title>Node4</title>
<g id="a_Node000004"><a xlink:href="classvulpes_1_1geometry_1_1GNNGraph.html" target="_top" xlink:title="Graph wrapper with Torch tensors for features and edges.">
<polygon fill="white" stroke="#666666" points="437.5,-19 278.5,-19 278.5,0 437.5,0 437.5,-19"/>
<text text-anchor="middle" x="358" y="-7" font-family="Helvetica,sans-Serif" font-size="10.00">vulpes::geometry::GNNGraph</text>
</a>
</g>
</g>
<!-- Node3&#45;&gt;Node4 -->
<g id="edge4_Node000004_Node000003" class="edge">
<title>Node3&#45;&gt;Node4</title>
<g id="a_edge4_Node000004_Node000003"><a xlink:title=" ">
<path fill="none" stroke="#9a32cd" stroke-dasharray="5,2" d="M170.23,-17.26C172.85,-16.99 175.44,-16.73 178,-16.5 210.83,-13.5 247.16,-11.78 278.47,-10.8"/>
<polygon fill="#9a32cd" stroke="#9a32cd" points="169.61,-13.81 160.06,-18.4 170.39,-20.77 169.61,-13.81"/>
</a>
</g>
<text text-anchor="middle" x="211.5" y="-19.5" font-family="Helvetica,sans-Serif" font-size="10.00" fill="grey"> m_dual_map</text>
</g>
<!-- Node4&#45;&gt;Node1 -->
<g id="edge3_Node000001_Node000004" class="edge">
<title>Node4&#45;&gt;Node1</title>
<g id="a_edge3_Node000001_Node000004"><a xlink:title=" ">
<path fill="none" stroke="#9a32cd" stroke-dasharray="5,2" d="M447.81,-16.9C475.61,-19.22 506.47,-21.79 534.98,-24.17"/>
<polygon fill="#9a32cd" stroke="#9a32cd" points="447.98,-13.4 437.72,-16.06 447.4,-20.38 447.98,-13.4"/>
</a>
</g>
<text text-anchor="middle" x="494" y="-25.5" font-family="Helvetica,sans-Serif" font-size="10.00" fill="grey"> m_graph</text>
</g>
</g>
</svg>
