<?xml version="1.0" encoding="UTF-8" standalone="no"?>
<!DOCTYPE svg PUBLIC "-//W3C//DTD SVG 1.1//EN"
 "http://www.w3.org/Graphics/SVG/1.1/DTD/svg11.dtd">
<!-- Generated by graphviz version 2.43.0 (0)
 -->
<!-- Title: /__w/vulpes/vulpes/vulpes Pages: 1 -->
<svg width="258pt" height="444pt"
 viewBox="0.00 0.00 258.00 444.00" xmlns="http://www.w3.org/2000/svg" xmlns:xlink="http://www.w3.org/1999/xlink">

<svg id="main" version="1.1" xmlns="http://www.w3.org/2000/svg" xmlns:xlink="http://www.w3.org/1999/xlink" xml:space="preserve" onload="init(evt)">
<style type="text/css"><![CDATA[
.node, .edge {opacity: 0.7;}
.node.selected, .edge.selected {opacity: 1;}
.edge:hover path { stroke: red; }
.edge:hover polygon { stroke: red; fill: red; }
]]></style>
<script type="application/ecmascript" xlink:href="svg.min.js"/>
<svg id="graph" class="graph">
<g id="graph0" class="graph" transform="scale(1 1) rotate(0) translate(4 440)">
<title>/__w/vulpes/vulpes/vulpes</title>
<g id="clust1" class="cluster">
<title>clusterdir_35f1a0849d07b3f60f0d7ab29139efdc</title>
<g id="a_clust1"><a xlink:href="dir_35f1a0849d07b3f60f0d7ab29139efdc.html" target="_top">
<polygon fill="#edf0f7" stroke="#404040" stroke-width="2" points="8,-8 8,-428 242,-428 242,-8 8,-8"/>
</a>
</g>
</g>
<!-- dir_35f1a0849d07b3f60f0d7ab29139efdc -->
<g id="node1" class="node">
<title>dir_35f1a0849d07b3f60f0d7ab29139efdc</title>
<text text-anchor="middle" x="207" y="-408" font-family="Helvetica,sans-Serif" font-size="10.00">vulpes</text>
</g>
<!-- dir_fbdf0309f37d26479fea532d5cc8eb08 -->
<g id="node2" class="node">
<title>dir_fbdf0309f37d26479fea532d5cc8eb08</title>
<g id="a_node2"><a xlink:href="dir_fbdf0309f37d26479fea532d5cc8eb08.html" target="_top" xlink:title="assemble">
<polygon fill="#a2b4d6" stroke="#404040" points="161,-420 97,-420 97,-401 161,-401 161,-420"/>
<text text-anchor="middle" x="129" y="-408" font-family="Helvetica,sans-Serif" font-size="10.00">assemble</text>
</a>
</g>
</g>
<!-- dir_6eff03e4f108943e0ec081c616da05c3 -->
<g id="node4" class="node">
<title>dir_6eff03e4f108943e0ec081c616da05c3</title>
<g id="a_node4"><a xlink:href="dir_6eff03e4f108943e0ec081c616da05c3.html" target="_top" xlink:title="dofs">
<polygon fill="#a2b4d6" stroke="#404040" points="109,-365 71,-365 71,-346 109,-346 109,-365"/>
<text text-anchor="middle" x="90" y="-353" font-family="Helvetica,sans-Serif" font-size="10.00">dofs</text>
</a>
</g>
</g>
<!-- dir_fbdf0309f37d26479fea532d5cc8eb08&#45;&gt;dir_6eff03e4f108943e0ec081c616da05c3 -->
<g id="edge2" class="edge">
<title>dir_fbdf0309f37d26479fea532d5cc8eb08&#45;&gt;dir_6eff03e4f108943e0ec081c616da05c3</title>
<g id="a_edge2"><a xlink:href="dir_000000_000007.html" target="_top">
<path fill="none" stroke="#63b8ff" d="M122.56,-400.75C117.11,-393.34 109.14,-382.5 102.44,-373.41"/>
<polygon fill="#63b8ff" stroke="#63b8ff" points="105.07,-371.07 96.32,-365.09 99.43,-375.22 105.07,-371.07"/>
</a>
</g>
<g id="a_edge2&#45;headlabel"><a xlink:href="dir_000000_000007.html" target="_top" xlink:title="1">
<text text-anchor="middle" x="109.48" y="-369.78" font-family="Helvetica,sans-Serif" font-size="10.00" fill="#63b8ff">1</text>
</a>
</g>
</g>
<!-- dir_1d42be232f14d112552dcd34db4d5ceb -->
<g id="node5" class="node">
<title>dir_1d42be232f14d112552dcd34db4d5ceb</title>
<g id="a_node5"><a xlink:href="dir_1d42be232f14d112552dcd34db4d5ceb.html" target="_top" xlink:title="fe">
<polygon fill="#a2b4d6" stroke="#404040" points="106.5,-310 77.5,-310 77.5,-291 106.5,-291 106.5,-310"/>
<text text-anchor="middle" x="92" y="-298" font-family="Helvetica,sans-Serif" font-size="10.00">fe</text>
</a>
</g>
</g>
<!-- dir_fbdf0309f37d26479fea532d5cc8eb08&#45;&gt;dir_1d42be232f14d112552dcd34db4d5ceb -->
<g id="edge1" class="edge">
<title>dir_fbdf0309f37d26479fea532d5cc8eb08&#45;&gt;dir_1d42be232f14d112552dcd34db4d5ceb</title>
<g id="a_edge1"><a xlink:href="dir_000000_000008.html" target="_top">
<path fill="none" stroke="#63b8ff" d="M128.46,-400.62C127.48,-388.1 124.83,-364.71 118,-346 114.51,-336.46 109,-326.62 103.95,-318.63"/>
<polygon fill="#63b8ff" stroke="#63b8ff" points="106.83,-316.63 98.38,-310.23 100.99,-320.5 106.83,-316.63"/>
</a>
</g>
<g id="a_edge1&#45;headlabel"><a xlink:href="dir_000000_000008.html" target="_top" xlink:title="5">
<text text-anchor="middle" x="111.18" y="-315.56" font-family="Helvetica,sans-Serif" font-size="10.00" fill="#63b8ff">5</text>
</a>
</g>
</g>
<!-- dir_7020f5ed0a8de0aefef775a8859713a5 -->
<g id="node6" class="node">
<title>dir_7020f5ed0a8de0aefef775a8859713a5</title>
<g id="a_node6"><a xlink:href="dir_7020f5ed0a8de0aefef775a8859713a5.html" target="_top" xlink:title="geometry">
<polygon fill="#a2b4d6" stroke="#404040" points="180,-255 116,-255 116,-236 180,-236 180,-255"/>
<text text-anchor="middle" x="148" y="-243" font-family="Helvetica,sans-Serif" font-size="10.00">geometry</text>
</a>
</g>
</g>
<!-- dir_fbdf0309f37d26479fea532d5cc8eb08&#45;&gt;dir_7020f5ed0a8de0aefef775a8859713a5 -->
<g id="edge3" class="edge">
<title>dir_fbdf0309f37d26479fea532d5cc8eb08&#45;&gt;dir_7020f5ed0a8de0aefef775a8859713a5</title>
<g id="a_edge3"><a xlink:href="dir_000000_000010.html" target="_top">
<path fill="none" stroke="#63b8ff" d="M130.02,-400.74C132.99,-375.31 141.64,-301.08 145.76,-265.69"/>
<polygon fill="#63b8ff" stroke="#63b8ff" points="149.29,-265.64 146.97,-255.31 142.34,-264.83 149.29,-265.64"/>
</a>
</g>
<g id="a_edge3&#45;headlabel"><a xlink:href="dir_000000_000010.html" target="_top" xlink:title="2">
<text text-anchor="middle" x="151.7" y="-267.04" font-family="Helvetica,sans-Serif" font-size="10.00" fill="#63b8ff">2</text>
</a>
</g>
</g>
<!-- dir_c7f7ab40232942afa5e2adeef9c82e3e -->
<g id="node8" class="node">
<title>dir_c7f7ab40232942afa5e2adeef9c82e3e</title>
<g id="a_node8"><a xlink:href="dir_c7f7ab40232942afa5e2adeef9c82e3e.html" target="_top" xlink:title="quadrature">
<polygon fill="#a2b4d6" stroke="#404040" points="186,-200 116,-200 116,-181 186,-181 186,-200"/>
<text text-anchor="middle" x="151" y="-188" font-family="Helvetica,sans-Serif" font-size="10.00">quadrature</text>
</a>
</g>
</g>
<!-- dir_fbdf0309f37d26479fea532d5cc8eb08&#45;&gt;dir_c7f7ab40232942afa5e2adeef9c82e3e -->
<g id="edge4" class="edge">
<title>dir_fbdf0309f37d26479fea532d5cc8eb08&#45;&gt;dir_c7f7ab40232942afa5e2adeef9c82e3e</title>
<g id="a_edge4"><a xlink:href="dir_000000_000013.html" target="_top">
<path fill="none" stroke="#63b8ff" d="M133.72,-400.79C145.88,-377.8 178.08,-313.26 189,-255 190.56,-246.7 191.92,-243.92 189,-236 184.94,-224.99 176.81,-214.86 169.1,-207.05"/>
<polygon fill="#63b8ff" stroke="#63b8ff" points="171.39,-204.39 161.71,-200.07 166.58,-209.48 171.39,-204.39"/>
</a>
</g>
<g id="a_edge4&#45;headlabel"><a xlink:href="dir_000000_000013.html" target="_top" xlink:title="3">
<text text-anchor="middle" x="175.95" y="-202.29" font-family="Helvetica,sans-Serif" font-size="10.00" fill="#63b8ff">3</text>
</a>
</g>
</g>
<!-- dir_76c7cfc4ed48b69da3495ed0a3f2a82b -->
<g id="node3" class="node">
<title>dir_76c7cfc4ed48b69da3495ed0a3f2a82b</title>
<g id="a_node3"><a xlink:href="dir_76c7cfc4ed48b69da3495ed0a3f2a82b.html" target="_top" xlink:title="datastructure">
<polygon fill="#a2b4d6" stroke="#404040" points="176,-35 94,-35 94,-16 176,-16 176,-35"/>
<text text-anchor="middle" x="135" y="-23" font-family="Helvetica,sans-Serif" font-size="10.00">datastructure</text>
</a>
</g>
</g>
<!-- dir_6eff03e4f108943e0ec081c616da05c3&#45;&gt;dir_76c7cfc4ed48b69da3495ed0a3f2a82b -->
<g id="edge7" class="edge">
<title>dir_6eff03e4f108943e0ec081c616da05c3&#45;&gt;dir_76c7cfc4ed48b69da3495ed0a3f2a82b</title>
<g id="a_edge7"><a xlink:href="dir_000007_000004.html" target="_top">
<path fill="none" stroke="#63b8ff" d="M78.59,-345.77C58.06,-328.98 17,-289.95 17,-246.5 17,-246.5 17,-246.5 17,-134.5 17,-87.67 68.21,-55.67 103.16,-39.28"/>
<polygon fill="#63b8ff" stroke="#63b8ff" points="104.84,-42.37 112.53,-35.08 101.97,-35.98 104.84,-42.37"/>
</a>
</g>
<g id="a_edge7&#45;headlabel"><a xlink:href="dir_000007_000004.html" target="_top" xlink:title="2">
<text text-anchor="middle" x="102.72" y="-43.93" font-family="Helvetica,sans-Serif" font-size="10.00" fill="#63b8ff">2</text>
</a>
</g>
</g>
<!-- dir_6eff03e4f108943e0ec081c616da05c3&#45;&gt;dir_1d42be232f14d112552dcd34db4d5ceb -->
<g id="edge5" class="edge">
<title>dir_6eff03e4f108943e0ec081c616da05c3&#45;&gt;dir_1d42be232f14d112552dcd34db4d5ceb</title>
<g id="a_edge5"><a xlink:href="dir_000007_000008.html" target="_top">
<path fill="none" stroke="#63b8ff" d="M90.33,-345.75C90.59,-338.8 90.97,-328.85 91.3,-320.13"/>
<polygon fill="#63b8ff" stroke="#63b8ff" points="94.8,-320.21 91.68,-310.09 87.8,-319.95 94.8,-320.21"/>
</a>
</g>
<g id="a_edge5&#45;headlabel"><a xlink:href="dir_000007_000008.html" target="_top" xlink:title="1">
<text text-anchor="middle" x="97.5" y="-321.41" font-family="Helvetica,sans-Serif" font-size="10.00" fill="#63b8ff">1</text>
</a>
</g>
</g>
<!-- dir_57fd5c05a3144478f1fe40cbcefca761 -->
<g id="node9" class="node">
<title>dir_57fd5c05a3144478f1fe40cbcefca761</title>
<g id="a_node9"><a xlink:href="dir_57fd5c05a3144478f1fe40cbcefca761.html" target="_top" xlink:title="utils">
<polygon fill="#a2b4d6" stroke="#404040" points="106,-90 68,-90 68,-71 106,-71 106,-90"/>
<text text-anchor="middle" x="87" y="-78" font-family="Helvetica,sans-Serif" font-size="10.00">utils</text>
</a>
</g>
</g>
<!-- dir_6eff03e4f108943e0ec081c616da05c3&#45;&gt;dir_57fd5c05a3144478f1fe40cbcefca761 -->
<g id="edge6" class="edge">
<title>dir_6eff03e4f108943e0ec081c616da05c3&#45;&gt;dir_57fd5c05a3144478f1fe40cbcefca761</title>
<g id="a_edge6"><a xlink:href="dir_000007_000016.html" target="_top">
<path fill="none" stroke="#63b8ff" d="M82.41,-345.96C67.75,-328.57 37,-287.23 37,-246.5 37,-246.5 37,-246.5 37,-189.5 37,-154.56 58.82,-118.66 73.63,-98.31"/>
<polygon fill="#63b8ff" stroke="#63b8ff" points="76.59,-100.2 79.84,-90.11 71.01,-95.97 76.59,-100.2"/>
</a>
</g>
<g id="a_edge6&#45;headlabel"><a xlink:href="dir_000007_000016.html" target="_top" xlink:title="4">
<text text-anchor="middle" x="76.68" y="-102.28" font-family="Helvetica,sans-Serif" font-size="10.00" fill="#63b8ff">4</text>
</a>
</g>
</g>
<!-- dir_1d42be232f14d112552dcd34db4d5ceb&#45;&gt;dir_7020f5ed0a8de0aefef775a8859713a5 -->
<g id="edge9" class="edge">
<title>dir_1d42be232f14d112552dcd34db4d5ceb&#45;&gt;dir_7020f5ed0a8de0aefef775a8859713a5</title>
<g id="a_edge9"><a xlink:href="dir_000008_000010.html" target="_top">
<path fill="none" stroke="#63b8ff" d="M101,-290.98C109.19,-283.23 121.51,-271.58 131.47,-262.14"/>
<polygon fill="#63b8ff" stroke="#63b8ff" points="133.98,-264.59 138.84,-255.17 129.17,-259.5 133.98,-264.59"/>
</a>
</g>
<g id="a_edge9&#45;headlabel"><a xlink:href="dir_000008_000010.html" target="_top" xlink:title="8">
<text text-anchor="middle" x="133.32" y="-266.62" font-family="Helvetica,sans-Serif" font-size="10.00" fill="#63b8ff">8</text>
</a>
</g>
</g>
<!-- dir_f847fbc2a10034652ea68ba29427c8a1 -->
<g id="node7" class="node">
<title>dir_f847fbc2a10034652ea68ba29427c8a1</title>
<g id="a_node7"><a xlink:href="dir_f847fbc2a10034652ea68ba29427c8a1.html" target="_top" xlink:title="polynomials">
<polygon fill="#a2b4d6" stroke="#404040" points="173.5,-145 96.5,-145 96.5,-126 173.5,-126 173.5,-145"/>
<text text-anchor="middle" x="135" y="-133" font-family="Helvetica,sans-Serif" font-size="10.00">polynomials</text>
</a>
</g>
</g>
<!-- dir_1d42be232f14d112552dcd34db4d5ceb&#45;&gt;dir_f847fbc2a10034652ea68ba29427c8a1 -->
<g id="edge11" class="edge">
<title>dir_1d42be232f14d112552dcd34db4d5ceb&#45;&gt;dir_f847fbc2a10034652ea68ba29427c8a1</title>
<g id="a_edge11"><a xlink:href="dir_000008_000012.html" target="_top">
<path fill="none" stroke="#63b8ff" d="M91.59,-290.78C90.97,-270.63 91.22,-219.58 107,-181 110.92,-171.41 116.88,-161.57 122.29,-153.59"/>
<polygon fill="#63b8ff" stroke="#63b8ff" points="125.3,-155.38 128.23,-145.2 119.59,-151.34 125.3,-155.38"/>
</a>
</g>
<g id="a_edge11&#45;headlabel"><a xlink:href="dir_000008_000012.html" target="_top" xlink:title="9">
<text text-anchor="middle" x="125.54" y="-157.46" font-family="Helvetica,sans-Serif" font-size="10.00" fill="#63b8ff">9</text>
</a>
</g>
</g>
<!-- dir_1d42be232f14d112552dcd34db4d5ceb&#45;&gt;dir_c7f7ab40232942afa5e2adeef9c82e3e -->
<g id="edge10" class="edge">
<title>dir_1d42be232f14d112552dcd34db4d5ceb&#45;&gt;dir_c7f7ab40232942afa5e2adeef9c82e3e</title>
<g id="a_edge10"><a xlink:href="dir_000008_000013.html" target="_top">
<path fill="none" stroke="#63b8ff" d="M92.57,-290.75C93.72,-277.98 97.12,-253.84 107,-236 113.21,-224.79 123.03,-214.47 131.82,-206.59"/>
<polygon fill="#63b8ff" stroke="#63b8ff" points="134.12,-209.24 139.47,-200.09 129.59,-203.9 134.12,-209.24"/>
</a>
</g>
<g id="a_edge10&#45;headlabel"><a xlink:href="dir_000008_000013.html" target="_top" xlink:title="5">
<text text-anchor="middle" x="133.22" y="-211.23" font-family="Helvetica,sans-Serif" font-size="10.00" fill="#63b8ff">5</text>
</a>
</g>
</g>
<!-- dir_1d42be232f14d112552dcd34db4d5ceb&#45;&gt;dir_57fd5c05a3144478f1fe40cbcefca761 -->
<g id="edge8" class="edge">
<title>dir_1d42be232f14d112552dcd34db4d5ceb&#45;&gt;dir_57fd5c05a3144478f1fe40cbcefca761</title>
<g id="a_edge8"><a xlink:href="dir_000008_000016.html" target="_top">
<path fill="none" stroke="#63b8ff" d="M90.65,-290.83C86.88,-265.48 76.76,-189.24 81,-126 81.57,-117.54 82.74,-108.24 83.89,-100.34"/>
<polygon fill="#63b8ff" stroke="#63b8ff" points="87.37,-100.75 85.45,-90.33 80.45,-99.67 87.37,-100.75"/>
</a>
</g>
<g id="a_edge8&#45;headlabel"><a xlink:href="dir_000008_000016.html" target="_top" xlink:title="3">
<text text-anchor="middle" x="89.62" y="-102.24" font-family="Helvetica,sans-Serif" font-size="10.00" fill="#63b8ff">3</text>
</a>
</g>
</g>
<!-- dir_7020f5ed0a8de0aefef775a8859713a5&#45;&gt;dir_76c7cfc4ed48b69da3495ed0a3f2a82b -->
<g id="edge14" class="edge">
<title>dir_7020f5ed0a8de0aefef775a8859713a5&#45;&gt;dir_76c7cfc4ed48b69da3495ed0a3f2a82b</title>
<g id="a_edge14"><a xlink:href="dir_000010_000004.html" target="_top">
<path fill="none" stroke="#63b8ff" d="M162.07,-235.89C173.35,-228.1 188.34,-215.48 195,-200 198.07,-192.87 201.39,-167.72 194,-126 189.49,-100.53 188.13,-93.28 175,-71 168.83,-60.53 159.95,-50.33 152.12,-42.35"/>
<polygon fill="#63b8ff" stroke="#63b8ff" points="154.37,-39.66 144.78,-35.17 149.48,-44.67 154.37,-39.66"/>
</a>
</g>
<g id="a_edge14&#45;headlabel"><a xlink:href="dir_000010_000004.html" target="_top" xlink:title="7">
<text text-anchor="middle" x="158.93" y="-37.65" font-family="Helvetica,sans-Serif" font-size="10.00" fill="#63b8ff">7</text>
</a>
</g>
</g>
<!-- dir_7020f5ed0a8de0aefef775a8859713a5&#45;&gt;dir_6eff03e4f108943e0ec081c616da05c3 -->
<g id="edge13" class="edge">
<title>dir_7020f5ed0a8de0aefef775a8859713a5&#45;&gt;dir_6eff03e4f108943e0ec081c616da05c3</title>
<g id="a_edge13"><a xlink:href="dir_000010_000007.html" target="_top">
<path fill="none" stroke="#63b8ff" d="M143.82,-255.22C137.86,-267.53 126.49,-290.69 116,-310 111.09,-319.04 105.34,-328.94 100.5,-337.1"/>
<polygon fill="#63b8ff" stroke="#63b8ff" points="97.47,-335.35 95.34,-345.73 103.48,-338.94 97.47,-335.35"/>
</a>
</g>
<g id="a_edge13&#45;headlabel"><a xlink:href="dir_000010_000007.html" target="_top" xlink:title="1">
<text text-anchor="middle" x="96.88" y="-328.31" font-family="Helvetica,sans-Serif" font-size="10.00" fill="#63b8ff">1</text>
</a>
</g>
</g>
<!-- dir_7020f5ed0a8de0aefef775a8859713a5&#45;&gt;dir_c7f7ab40232942afa5e2adeef9c82e3e -->
<g id="edge15" class="edge">
<title>dir_7020f5ed0a8de0aefef775a8859713a5&#45;&gt;dir_c7f7ab40232942afa5e2adeef9c82e3e</title>
<g id="a_edge15"><a xlink:href="dir_000010_000013.html" target="_top">
<path fill="none" stroke="#63b8ff" d="M143.33,-235.75C142.23,-228.8 142.36,-218.85 143.47,-210.13"/>
<polygon fill="#63b8ff" stroke="#63b8ff" points="146.95,-210.57 145.38,-200.09 140.07,-209.26 146.95,-210.57"/>
</a>
</g>
<g id="a_edge15&#45;headlabel"><a xlink:href="dir_000010_000013.html" target="_top" xlink:title="1">
<text text-anchor="middle" x="149.06" y="-212.13" font-family="Helvetica,sans-Serif" font-size="10.00" fill="#63b8ff">1</text>
</a>
</g>
</g>
<!-- dir_7020f5ed0a8de0aefef775a8859713a5&#45;&gt;dir_57fd5c05a3144478f1fe40cbcefca761 -->
<g id="edge12" class="edge">
<title>dir_7020f5ed0a8de0aefef775a8859713a5&#45;&gt;dir_57fd5c05a3144478f1fe40cbcefca761</title>
<g id="a_edge12"><a xlink:href="dir_000010_000016.html" target="_top">
<path fill="none" stroke="#63b8ff" d="M137.97,-235.87C128.79,-227.52 115.41,-214.07 107,-200 93.74,-177.8 92.48,-170.47 88,-145 85.4,-130.2 85.28,-113.16 85.74,-100.46"/>
<polygon fill="#63b8ff" stroke="#63b8ff" points="89.25,-100.38 86.27,-90.21 82.26,-100.01 89.25,-100.38"/>
</a>
</g>
<g id="a_edge12&#45;headlabel"><a xlink:href="dir_000010_000016.html" target="_top" xlink:title="8">
<text text-anchor="middle" x="91.9" y="-101.61" font-family="Helvetica,sans-Serif" font-size="10.00" fill="#63b8ff">8</text>
</a>
</g>
</g>
<!-- dir_f847fbc2a10034652ea68ba29427c8a1&#45;&gt;dir_76c7cfc4ed48b69da3495ed0a3f2a82b -->
<g id="edge17" class="edge">
<title>dir_f847fbc2a10034652ea68ba29427c8a1&#45;&gt;dir_76c7cfc4ed48b69da3495ed0a3f2a82b</title>
<g id="a_edge17"><a xlink:href="dir_000012_000004.html" target="_top">
<path fill="none" stroke="#63b8ff" d="M135,-125.66C135,-108.17 135,-68.8 135,-45.27"/>
<polygon fill="#63b8ff" stroke="#63b8ff" points="138.5,-45.16 135,-35.16 131.5,-45.16 138.5,-45.16"/>
</a>
</g>
<g id="a_edge17&#45;headlabel"><a xlink:href="dir_000012_000004.html" target="_top" xlink:title="4">
<text text-anchor="middle" x="141.34" y="-46.25" font-family="Helvetica,sans-Serif" font-size="10.00" fill="#63b8ff">4</text>
</a>
</g>
</g>
<!-- dir_f847fbc2a10034652ea68ba29427c8a1&#45;&gt;dir_57fd5c05a3144478f1fe40cbcefca761 -->
<g id="edge16" class="edge">
<title>dir_f847fbc2a10034652ea68ba29427c8a1&#45;&gt;dir_57fd5c05a3144478f1fe40cbcefca761</title>
<g id="a_edge16"><a xlink:href="dir_000012_000016.html" target="_top">
<path fill="none" stroke="#63b8ff" d="M127.07,-125.75C120.15,-118.11 109.93,-106.82 101.55,-97.56"/>
<polygon fill="#63b8ff" stroke="#63b8ff" points="104.09,-95.15 94.78,-90.09 98.9,-99.85 104.09,-95.15"/>
</a>
</g>
<g id="a_edge16&#45;headlabel"><a xlink:href="dir_000012_000016.html" target="_top" xlink:title="6">
<text text-anchor="middle" x="108.6" y="-93.41" font-family="Helvetica,sans-Serif" font-size="10.00" fill="#63b8ff">6</text>
</a>
</g>
</g>
<!-- dir_c7f7ab40232942afa5e2adeef9c82e3e&#45;&gt;dir_76c7cfc4ed48b69da3495ed0a3f2a82b -->
<g id="edge20" class="edge">
<title>dir_c7f7ab40232942afa5e2adeef9c82e3e&#45;&gt;dir_76c7cfc4ed48b69da3495ed0a3f2a82b</title>
<g id="a_edge20"><a xlink:href="dir_000013_000004.html" target="_top">
<path fill="none" stroke="#63b8ff" d="M161.71,-180.93C170.93,-172.8 183.59,-159.68 189,-145 191.92,-137.08 191.08,-134.18 189,-126 181.02,-94.57 160.89,-62.32 147.59,-43.36"/>
<polygon fill="#63b8ff" stroke="#63b8ff" points="150.39,-41.25 141.7,-35.19 144.71,-45.35 150.39,-41.25"/>
</a>
</g>
<g id="a_edge20&#45;headlabel"><a xlink:href="dir_000013_000004.html" target="_top" xlink:title="2">
<text text-anchor="middle" x="154.79" y="-40.01" font-family="Helvetica,sans-Serif" font-size="10.00" fill="#63b8ff">2</text>
</a>
</g>
</g>
<!-- dir_c7f7ab40232942afa5e2adeef9c82e3e&#45;&gt;dir_7020f5ed0a8de0aefef775a8859713a5 -->
<g id="edge19" class="edge">
<title>dir_c7f7ab40232942afa5e2adeef9c82e3e&#45;&gt;dir_7020f5ed0a8de0aefef775a8859713a5</title>
<g id="a_edge19"><a xlink:href="dir_000013_000010.html" target="_top">
<path fill="none" stroke="#63b8ff" d="M155.64,-200.09C156.76,-206.99 156.65,-216.93 155.56,-225.66"/>
<polygon fill="#63b8ff" stroke="#63b8ff" points="152.07,-225.27 153.66,-235.75 158.95,-226.57 152.07,-225.27"/>
</a>
</g>
<g id="a_edge19&#45;headlabel"><a xlink:href="dir_000013_000010.html" target="_top" xlink:title="2">
<text text-anchor="middle" x="149.94" y="-218.72" font-family="Helvetica,sans-Serif" font-size="10.00" fill="#63b8ff">2</text>
</a>
</g>
</g>
<!-- dir_c7f7ab40232942afa5e2adeef9c82e3e&#45;&gt;dir_f847fbc2a10034652ea68ba29427c8a1 -->
<g id="edge21" class="edge">
<title>dir_c7f7ab40232942afa5e2adeef9c82e3e&#45;&gt;dir_f847fbc2a10034652ea68ba29427c8a1</title>
<g id="a_edge21"><a xlink:href="dir_000013_000012.html" target="_top">
<path fill="none" stroke="#63b8ff" d="M148.36,-180.75C146.24,-173.72 143.19,-163.62 140.54,-154.84"/>
<polygon fill="#63b8ff" stroke="#63b8ff" points="143.83,-153.65 137.59,-145.09 137.13,-155.67 143.83,-153.65"/>
</a>
</g>
<g id="a_edge21&#45;headlabel"><a xlink:href="dir_000013_000012.html" target="_top" xlink:title="3">
<text text-anchor="middle" x="147.59" y="-153.77" font-family="Helvetica,sans-Serif" font-size="10.00" fill="#63b8ff">3</text>
</a>
</g>
</g>
<!-- dir_c7f7ab40232942afa5e2adeef9c82e3e&#45;&gt;dir_57fd5c05a3144478f1fe40cbcefca761 -->
<g id="edge18" class="edge">
<title>dir_c7f7ab40232942afa5e2adeef9c82e3e&#45;&gt;dir_57fd5c05a3144478f1fe40cbcefca761</title>
<g id="a_edge18"><a xlink:href="dir_000013_000016.html" target="_top">
<path fill="none" stroke="#63b8ff" d="M160.95,-180.98C174.28,-168.51 194.96,-144.73 183,-126 168.4,-103.15 138.72,-91.85 116.2,-86.39"/>
<polygon fill="#63b8ff" stroke="#63b8ff" points="116.64,-82.9 106.13,-84.2 115.16,-89.74 116.64,-82.9"/>
</a>
</g>
<g id="a_edge18&#45;headlabel"><a xlink:href="dir_000013_000016.html" target="_top" xlink:title="6">
<text text-anchor="middle" x="120.76" y="-78.39" font-family="Helvetica,sans-Serif" font-size="10.00" fill="#63b8ff">6</text>
</a>
</g>
</g>
<!-- dir_57fd5c05a3144478f1fe40cbcefca761&#45;&gt;dir_76c7cfc4ed48b69da3495ed0a3f2a82b -->
<g id="edge22" class="edge">
<title>dir_57fd5c05a3144478f1fe40cbcefca761&#45;&gt;dir_76c7cfc4ed48b69da3495ed0a3f2a82b</title>
<g id="a_edge22"><a xlink:href="dir_000016_000004.html" target="_top">
<path fill="none" stroke="#63b8ff" d="M94.93,-70.75C101.85,-63.11 112.07,-51.82 120.45,-42.56"/>
<polygon fill="#63b8ff" stroke="#63b8ff" points="123.1,-44.85 127.22,-35.09 117.91,-40.15 123.1,-44.85"/>
</a>
</g>
<g id="a_edge22&#45;headlabel"><a xlink:href="dir_000016_000004.html" target="_top" xlink:title="1">
<text text-anchor="middle" x="122.79" y="-46.92" font-family="Helvetica,sans-Serif" font-size="10.00" fill="#63b8ff">1</text>
</a>
</g>
</g>
</g>
</svg>
</svg>

<style type='text/css'>
<![CDATA[
[data-mouse-over-selected='false'] { opacity: 0.7; }
[data-mouse-over-selected='true']  { opacity: 1.0; }
]]>
</style>
<script type="application/ecmascript"><![CDATA[
document.addEventListener('DOMContentLoaded', (event) => {
  highlightEdges();
  highlightAdjacentNodes();
});
]]></script>
</svg>
