<?xml version="1.0" encoding="UTF-8" standalone="no"?>
<!DOCTYPE svg PUBLIC "-//W3C//DTD SVG 1.1//EN"
 "http://www.w3.org/Graphics/SVG/1.1/DTD/svg11.dtd">
<!-- Generated by graphviz version 2.42.4 (0)
 -->
<!-- Title: /__w/vulpes/vulpes/vulpes/geometry Pages: 1 -->
<svg width="370pt" height="196pt"
 viewBox="0.00 0.00 370.00 196.00" xmlns="http://www.w3.org/2000/svg" xmlns:xlink="http://www.w3.org/1999/xlink">
<g id="graph0" class="graph" transform="scale(1 1) rotate(0) translate(4 192)">
<title>/__w/vulpes/vulpes/vulpes/geometry</title>
<g id="clust1" class="cluster">
<title>clusterdir_35f1a0849d07b3f60f0d7ab29139efdc</title>
<g id="a_clust1"><a xlink:href="dir_35f1a0849d07b3f60f0d7ab29139efdc.html" target="_top" xlink:title="vulpes">
<polygon fill="#edf0f7" stroke="#404040" stroke-dasharray="5,2" points="8,-8 8,-180 354,-180 354,-8 8,-8"/>
<text text-anchor="middle" x="181" y="-168" font-family="Helvetica,sans-Serif" font-size="10.00">vulpes</text>
</a>
</g>
</g>
<g id="clust2" class="cluster">
<title>clusterdir_7020f5ed0a8de0aefef775a8859713a5</title>
<g id="a_clust2"><a xlink:href="dir_7020f5ed0a8de0aefef775a8859713a5.html" target="_top">
<polygon fill="#edf0f7" stroke="#404040" stroke-width="2" points="82,-63 82,-153 268,-153 268,-63 82,-63"/>
</a>
</g>
</g>
<!-- dir_57fd5c05a3144478f1fe40cbcefca761 -->
<g id="node1" class="node">
<title>dir_57fd5c05a3144478f1fe40cbcefca761</title>
<g id="a_node1"><a xlink:href="dir_57fd5c05a3144478f1fe40cbcefca761.html" target="_top" xlink:title="utils">
<polygon fill="#a2b4d6" stroke="red" points="145,-35 107,-35 107,-16 145,-16 145,-35"/>
<text text-anchor="middle" x="126" y="-23" font-family="Helvetica,sans-Serif" font-size="10.00">utils</text>
</a>
</g>
</g>
<!-- dir_6eff03e4f108943e0ec081c616da05c3 -->
<g id="node2" class="node">
<title>dir_6eff03e4f108943e0ec081c616da05c3</title>
<g id="a_node2"><a xlink:href="dir_6eff03e4f108943e0ec081c616da05c3.html" target="_top" xlink:title="dofs">
<polygon fill="#a2b4d6" stroke="#404040" points="74,-90 36,-90 36,-71 74,-71 74,-90"/>
<text text-anchor="middle" x="55" y="-78" font-family="Helvetica,sans-Serif" font-size="10.00">dofs</text>
</a>
</g>
</g>
<!-- dir_76c7cfc4ed48b69da3495ed0a3f2a82b -->
<g id="node3" class="node">
<title>dir_76c7cfc4ed48b69da3495ed0a3f2a82b</title>
<g id="a_node3"><a xlink:href="dir_76c7cfc4ed48b69da3495ed0a3f2a82b.html" target="_top" xlink:title="datastructure">
<polygon fill="#a2b4d6" stroke="red" points="249,-35 167,-35 167,-16 249,-16 249,-35"/>
<text text-anchor="middle" x="208" y="-23" font-family="Helvetica,sans-Serif" font-size="10.00">datastructure</text>
</a>
</g>
</g>
<!-- dir_c7f7ab40232942afa5e2adeef9c82e3e -->
<g id="node4" class="node">
<title>dir_c7f7ab40232942afa5e2adeef9c82e3e</title>
<g id="a_node4"><a xlink:href="dir_c7f7ab40232942afa5e2adeef9c82e3e.html" target="_top" xlink:title="quadrature">
<polygon fill="#a2b4d6" stroke="#404040" points="346,-90 276,-90 276,-71 346,-71 346,-90"/>
<text text-anchor="middle" x="311" y="-78" font-family="Helvetica,sans-Serif" font-size="10.00">quadrature</text>
</a>
</g>
</g>
<!-- dir_7020f5ed0a8de0aefef775a8859713a5 -->
<g id="node5" class="node">
<title>dir_7020f5ed0a8de0aefef775a8859713a5</title>
<text text-anchor="middle" x="228" y="-133" font-family="Helvetica,sans-Serif" font-size="10.00">geometry</text>
</g>
<!-- dir_7020f5ed0a8de0aefef775a8859713a5&#45;&gt;dir_57fd5c05a3144478f1fe40cbcefca761 -->
<g id="edge2" class="edge">
<title>dir_7020f5ed0a8de0aefef775a8859713a5&#45;&gt;dir_57fd5c05a3144478f1fe40cbcefca761</title>
<g id="a_edge2"><a xlink:href="dir_000016_000027.html" target="_top">
<path fill="none" stroke="#63b8ff" d="M195.78,-127.11C175.44,-120.73 150.38,-109.38 136,-90 126.55,-77.26 124.51,-59.08 124.57,-45.44"/>
<polygon fill="#63b8ff" stroke="#63b8ff" points="128.07,-45.4 124.99,-35.26 121.08,-45.11 128.07,-45.4"/>
</a>
</g>
<g id="a_edge2&#45;headlabel"><a xlink:href="dir_000016_000027.html" target="_top" xlink:title="29">
<text text-anchor="middle" x="130.76" y="-46.61" font-family="Helvetica,sans-Serif" font-size="10.00" fill="#63b8ff">29</text>
</a>
</g>
</g>
<!-- dir_7020f5ed0a8de0aefef775a8859713a5&#45;&gt;dir_6eff03e4f108943e0ec081c616da05c3 -->
<g id="edge3" class="edge">
<title>dir_7020f5ed0a8de0aefef775a8859713a5&#45;&gt;dir_6eff03e4f108943e0ec081c616da05c3</title>
<g id="a_edge3"><a xlink:href="dir_000016_000012.html" target="_top">
<path fill="none" stroke="#63b8ff" d="M197.08,-125.97C168.82,-118.03 125.67,-105.56 83.8,-91.87"/>
<polygon fill="#63b8ff" stroke="#63b8ff" points="84.64,-88.46 74.04,-88.65 82.44,-95.11 84.64,-88.46"/>
</a>
</g>
<g id="a_edge3&#45;headlabel"><a xlink:href="dir_000016_000012.html" target="_top" xlink:title="1">
<text text-anchor="middle" x="88.94" y="-84.39" font-family="Helvetica,sans-Serif" font-size="10.00" fill="#63b8ff">1</text>
</a>
</g>
</g>
<!-- dir_7020f5ed0a8de0aefef775a8859713a5&#45;&gt;dir_76c7cfc4ed48b69da3495ed0a3f2a82b -->
<g id="edge4" class="edge">
<title>dir_7020f5ed0a8de0aefef775a8859713a5&#45;&gt;dir_76c7cfc4ed48b69da3495ed0a3f2a82b</title>
<g id="a_edge4"><a xlink:href="dir_000016_000007.html" target="_top">
<path fill="none" stroke="#63b8ff" d="M226.36,-125.66C223.12,-108.17 215.83,-68.8 211.48,-45.27"/>
<polygon fill="#63b8ff" stroke="#63b8ff" points="214.87,-44.35 209.6,-35.16 207.98,-45.63 214.87,-44.35"/>
</a>
</g>
<g id="a_edge4&#45;headlabel"><a xlink:href="dir_000016_000007.html" target="_top" xlink:title="18">
<text text-anchor="middle" x="218.31" y="-44.87" font-family="Helvetica,sans-Serif" font-size="10.00" fill="#63b8ff">18</text>
</a>
</g>
</g>
<!-- dir_7020f5ed0a8de0aefef775a8859713a5&#45;&gt;dir_c7f7ab40232942afa5e2adeef9c82e3e -->
<g id="edge5" class="edge">
<title>dir_7020f5ed0a8de0aefef775a8859713a5&#45;&gt;dir_c7f7ab40232942afa5e2adeef9c82e3e</title>
<g id="a_edge5"><a xlink:href="dir_000016_000022.html" target="_top">
<path fill="none" stroke="#63b8ff" d="M241.34,-125.98C254.09,-117.84 273.55,-105.41 288.67,-95.76"/>
<polygon fill="#63b8ff" stroke="#63b8ff" points="290.88,-98.5 297.42,-90.17 287.11,-92.6 290.88,-98.5"/>
</a>
</g>
<g id="a_edge5&#45;headlabel"><a xlink:href="dir_000016_000022.html" target="_top" xlink:title="2">
<text text-anchor="middle" x="289.38" y="-100.33" font-family="Helvetica,sans-Serif" font-size="10.00" fill="#63b8ff">2</text>
</a>
</g>
</g>
<!-- dir_3213ab77fe4ea86cfa506605152366dc -->
<g id="node7" class="node">
<title>dir_3213ab77fe4ea86cfa506605152366dc</title>
<g id="a_node7"><a xlink:href="dir_3213ab77fe4ea86cfa506605152366dc.html" target="_top" xlink:title="mesh">
<polygon fill="#a2b4d6" stroke="#404040" points="189,-90 145,-90 145,-71 189,-71 189,-90"/>
<text text-anchor="middle" x="167" y="-78" font-family="Helvetica,sans-Serif" font-size="10.00">mesh</text>
</a>
</g>
</g>
<!-- dir_7020f5ed0a8de0aefef775a8859713a5&#45;&gt;dir_3213ab77fe4ea86cfa506605152366dc -->
<g id="edge1" class="edge">
<title>dir_7020f5ed0a8de0aefef775a8859713a5&#45;&gt;dir_3213ab77fe4ea86cfa506605152366dc</title>
<g id="a_edge1"><a xlink:href="dir_000016_000018.html" target="_top">
<path fill="none" stroke="#63b8ff" d="M218.2,-125.98C209.18,-118.15 195.59,-106.34 184.68,-96.86"/>
<polygon fill="#63b8ff" stroke="#63b8ff" points="186.82,-94.09 176.98,-90.17 182.23,-99.37 186.82,-94.09"/>
</a>
</g>
<g id="a_edge1&#45;headlabel"><a xlink:href="dir_000016_000018.html" target="_top" xlink:title="3">
<text text-anchor="middle" x="191.4" y="-91.8" font-family="Helvetica,sans-Serif" font-size="10.00" fill="#63b8ff">3</text>
</a>
</g>
</g>
<!-- dir_f418e2388a634816c9e5c0afa75261f8 -->
<g id="node6" class="node">
<title>dir_f418e2388a634816c9e5c0afa75261f8</title>
<g id="a_node6"><a xlink:href="dir_f418e2388a634816c9e5c0afa75261f8.html" target="_top" xlink:title="agglomeration">
<polygon fill="#a2b4d6" stroke="#404040" points="178,-145 90,-145 90,-126 178,-126 178,-145"/>
<text text-anchor="middle" x="134" y="-133" font-family="Helvetica,sans-Serif" font-size="10.00">agglomeration</text>
</a>
</g>
</g>
<!-- dir_f418e2388a634816c9e5c0afa75261f8&#45;&gt;dir_57fd5c05a3144478f1fe40cbcefca761 -->
<g id="edge6" class="edge">
<title>dir_f418e2388a634816c9e5c0afa75261f8&#45;&gt;dir_57fd5c05a3144478f1fe40cbcefca761</title>
<g id="a_edge6"><a xlink:href="dir_000000_000027.html" target="_top">
<path fill="none" stroke="#63b8ff" d="M89.86,-127.97C67,-122.11 41.01,-111 27,-90 20.34,-80.02 20.14,-72.84 27,-63 42.63,-40.59 73.65,-31.9 96.83,-28.55"/>
<polygon fill="#63b8ff" stroke="#63b8ff" points="97.32,-32.02 106.84,-27.36 96.49,-25.07 97.32,-32.02"/>
</a>
</g>
<g id="a_edge6&#45;headlabel"><a xlink:href="dir_000000_000027.html" target="_top" xlink:title="6">
<text text-anchor="middle" x="94.09" y="-32.76" font-family="Helvetica,sans-Serif" font-size="10.00" fill="#63b8ff">6</text>
</a>
</g>
</g>
<!-- dir_f418e2388a634816c9e5c0afa75261f8&#45;&gt;dir_76c7cfc4ed48b69da3495ed0a3f2a82b -->
<g id="edge7" class="edge">
<title>dir_f418e2388a634816c9e5c0afa75261f8&#45;&gt;dir_76c7cfc4ed48b69da3495ed0a3f2a82b</title>
<g id="a_edge7"><a xlink:href="dir_000000_000007.html" target="_top">
<path fill="none" stroke="#63b8ff" d="M154.09,-125.88C168.7,-118.53 187.65,-106.51 198,-90 206.34,-76.69 208.53,-58.82 208.82,-45.42"/>
<polygon fill="#63b8ff" stroke="#63b8ff" points="212.31,-44.99 208.68,-35.04 205.31,-45.08 212.31,-44.99"/>
</a>
</g>
<g id="a_edge7&#45;headlabel"><a xlink:href="dir_000000_000007.html" target="_top" xlink:title="5">
<text text-anchor="middle" x="215.2" y="-46.05" font-family="Helvetica,sans-Serif" font-size="10.00" fill="#63b8ff">5</text>
</a>
</g>
</g>
<!-- dir_3213ab77fe4ea86cfa506605152366dc&#45;&gt;dir_57fd5c05a3144478f1fe40cbcefca761 -->
<g id="edge8" class="edge">
<title>dir_3213ab77fe4ea86cfa506605152366dc&#45;&gt;dir_57fd5c05a3144478f1fe40cbcefca761</title>
<g id="a_edge8"><a xlink:href="dir_000018_000027.html" target="_top">
<path fill="none" stroke="#63b8ff" d="M160.23,-70.75C154.44,-63.26 145.94,-52.28 138.86,-43.13"/>
<polygon fill="#63b8ff" stroke="#63b8ff" points="141.53,-40.86 132.64,-35.09 135.99,-45.14 141.53,-40.86"/>
</a>
</g>
<g id="a_edge8&#45;headlabel"><a xlink:href="dir_000018_000027.html" target="_top" xlink:title="9">
<text text-anchor="middle" x="145.98" y="-39.46" font-family="Helvetica,sans-Serif" font-size="10.00" fill="#63b8ff">9</text>
</a>
</g>
</g>
<!-- dir_3213ab77fe4ea86cfa506605152366dc&#45;&gt;dir_76c7cfc4ed48b69da3495ed0a3f2a82b -->
<g id="edge9" class="edge">
<title>dir_3213ab77fe4ea86cfa506605152366dc&#45;&gt;dir_76c7cfc4ed48b69da3495ed0a3f2a82b</title>
<g id="a_edge9"><a xlink:href="dir_000018_000007.html" target="_top">
<path fill="none" stroke="#63b8ff" d="M173.77,-70.75C179.56,-63.26 188.06,-52.28 195.14,-43.13"/>
<polygon fill="#63b8ff" stroke="#63b8ff" points="198.01,-45.14 201.36,-35.09 192.47,-40.86 198.01,-45.14"/>
</a>
</g>
<g id="a_edge9&#45;headlabel"><a xlink:href="dir_000018_000007.html" target="_top" xlink:title="10">
<text text-anchor="middle" x="198.05" y="-47.22" font-family="Helvetica,sans-Serif" font-size="10.00" fill="#63b8ff">10</text>
</a>
</g>
</g>
</g>
</svg>
