<?xml version="1.0" encoding="UTF-8" standalone="no"?>
<!DOCTYPE svg PUBLIC "-//W3C//DTD SVG 1.1//EN"
 "http://www.w3.org/Graphics/SVG/1.1/DTD/svg11.dtd">
<!-- Generated by graphviz version 12.2.1 (20241206.2353)
 -->
<!-- Title: /Users/ilariomazzieri/Desktop/vulpes/vulpes Pages: 1 -->
<!--zoomable 592 -->

<svg id="main" version="1.1" xmlns="http://www.w3.org/2000/svg" xmlns:xlink="http://www.w3.org/1999/xlink" xml:space="preserve" onload="init(evt)">
<style type="text/css"><![CDATA[
.node, .edge {opacity: 0.7;}
.node.selected, .edge.selected {opacity: 1;}
.edge:hover path { stroke: red; }
.edge:hover polygon { stroke: red; fill: red; }
]]></style>

<defs>
  <circle id="rim" cx="0" cy="0" r="7"/>
  <circle id="rim2" cx="0" cy="0" r="3.5"/>
  <g id="zoomPlus">
    <use xlink:href="#rim" fill="#404040"><set attributeName="fill" to="#808080" begin="zoomplus.mouseover" end="zoomplus.mouseout"/></use>
    <path d="M-4,0h8M0,-4v8" fill="none" stroke="white" stroke-width="1.5" pointer-events="none"/>
  </g>
  <g id="zoomMin">
    <use xlink:href="#rim" fill="#404040"><set attributeName="fill" to="#808080" begin="zoomminus.mouseover" end="zoomminus.mouseout"/></use>
    <path d="M-4,0h8" fill="none" stroke="white" stroke-width="1.5" pointer-events="none"/>
  </g>
  <g id="arrowUp" transform="translate(30 24)">
    <use xlink:href="#rim"/>
    <path pointer-events="none" fill="none" stroke="white" stroke-width="1.5" d="M0,-3.0v7 M-2.5,-0.5L0,-3.0L2.5,-0.5"/>
  </g>
  <g id="arrowRight" transform="rotate(90) translate(36 -43)">
    <use xlink:href="#rim"/>
    <path pointer-events="none" fill="none" stroke="white" stroke-width="1.5" d="M0,-3.0v7 M-2.5,-0.5L0,-3.0L2.5,-0.5"/>
  </g>
  <g id="arrowDown" transform="rotate(180) translate(-30 -48)">
    <use xlink:href="#rim"/>
    <path pointer-events="none" fill="none" stroke="white" stroke-width="1.5" d="M0,-3.0v7 M-2.5,-0.5L0,-3.0L2.5,-0.5"/>
  </g>
  <g id="arrowLeft" transform="rotate(270) translate(-36 17)">
    <use xlink:href="#rim"/>
    <path pointer-events="none" fill="none" stroke="white" stroke-width="1.5" d="M0,-3.0v7 M-2.5,-0.5L0,-3.0L2.5,-0.5"/>
  </g>
  <g id="resetDef">
    <use xlink:href="#rim2" fill="#404040"><set attributeName="fill" to="#808080" begin="reset.mouseover" end="reset.mouseout"/></use>
  </g>
</defs>
<script type="application/ecmascript">
var viewWidth = 362;
var viewHeight = 592;
var sectionId = 'dynsection-0';
</script>
<script type="application/ecmascript" xlink:href="svg.min.js"/>
<svg id="graph" class="graph">
<g id="viewport">
<title>/Users/ilariomazzieri/Desktop/vulpes/vulpes</title>
<g id="clust1" class="cluster">
<title>clusterdir_3ac3a54216c0b4ca79352adacf5c0caa</title>
<g id="a_clust1"><a xlink:href="dir_3ac3a54216c0b4ca79352adacf5c0caa.html" target="_top" xlink:title="vulpes">
<polygon fill="#edf0f7" stroke="#7f7f7f" stroke-dasharray="5,2" points="8,-8 8,-575.75 346,-575.75 346,-8 8,-8"/>
<text text-anchor="middle" x="177" y="-562.25" font-family="Helvetica,sans-Serif" font-size="10.00">vulpes</text>
</a>
</g>
</g>
<g id="clust2" class="cluster">
<title>clusterdir_d9ea2886b45cc61263484625c1e79bba</title>
<g id="a_clust2"><a xlink:href="dir_d9ea2886b45cc61263484625c1e79bba.html" target="_top">
<polygon fill="#edf0f7" stroke="#404040" stroke-width="2" points="16,-16 16,-548.5 338,-548.5 338,-16 16,-16"/>
</a>
</g>
</g>
<!-- dir_d9ea2886b45cc61263484625c1e79bba -->
<g id="node1" class="node">
<title>dir_d9ea2886b45cc61263484625c1e79bba</title>
<text text-anchor="middle" x="65" y="-527" font-family="Helvetica,sans-Serif" font-size="10.00">vulpes</text>
</g>
<!-- dir_9d6d388bab8be2ad4217f2a6b55c43e6 -->
<g id="node2" class="node">
<title>dir_9d6d388bab8be2ad4217f2a6b55c43e6</title>
<g id="a_node2"><a xlink:href="dir_9d6d388bab8be2ad4217f2a6b55c43e6.html" target="_top" xlink:title="assemble">
<polygon fill="#a2b4d6" stroke="#404040" points="147,-485.25 89,-485.25 89,-466 147,-466 147,-485.25"/>
<text text-anchor="middle" x="118" y="-471.75" font-family="Helvetica,sans-Serif" font-size="10.00">assemble</text>
</a>
</g>
</g>
<!-- dir_b46d84cb2b0e8c01c0a9c74a961c7547 -->
<g id="node4" class="node">
<title>dir_b46d84cb2b0e8c01c0a9c74a961c7547</title>
<g id="a_node4"><a xlink:href="dir_b46d84cb2b0e8c01c0a9c74a961c7547.html" target="_top" xlink:title="dofs">
<polygon fill="#a2b4d6" stroke="#404040" points="290.38,-430 255.62,-430 255.62,-410.75 290.38,-410.75 290.38,-430"/>
<text text-anchor="middle" x="273" y="-416.5" font-family="Helvetica,sans-Serif" font-size="10.00">dofs</text>
</a>
</g>
</g>
<!-- dir_9d6d388bab8be2ad4217f2a6b55c43e6&#45;&gt;dir_b46d84cb2b0e8c01c0a9c74a961c7547 -->
<g id="edge6" class="edge">
<title>dir_9d6d388bab8be2ad4217f2a6b55c43e6&#45;&gt;dir_b46d84cb2b0e8c01c0a9c74a961c7547</title>
<g id="a_edge6"><a xlink:href="dir_000001_000012.html" target="_top">
<path fill="none" stroke="#63b8ff" d="M144.29,-465.59C172.2,-456 216.14,-440.91 244.77,-431.07"/>
<polygon fill="#63b8ff" stroke="#63b8ff" points="245.53,-434.51 253.85,-427.95 243.26,-427.89 245.53,-434.51"/>
</a>
</g>
<g id="a_edge6&#45;headlabel"><a xlink:href="dir_000001_000012.html" target="_top" xlink:title="1">
<text text-anchor="middle" x="244.49" y="-434" font-family="Helvetica,sans-Serif" font-size="10.00" fill="#63b8ff">1</text>
</a>
</g>
</g>
<!-- dir_a0528b672238865c9b705e6f8871c427 -->
<g id="node5" class="node">
<title>dir_a0528b672238865c9b705e6f8871c427</title>
<g id="a_node5"><a xlink:href="dir_a0528b672238865c9b705e6f8871c427.html" target="_top" xlink:title="fe">
<polygon fill="#a2b4d6" stroke="#404040" points="132.4,-374.75 103.6,-374.75 103.6,-355.5 132.4,-355.5 132.4,-374.75"/>
<text text-anchor="middle" x="118" y="-361.25" font-family="Helvetica,sans-Serif" font-size="10.00">fe</text>
</a>
</g>
</g>
<!-- dir_9d6d388bab8be2ad4217f2a6b55c43e6&#45;&gt;dir_a0528b672238865c9b705e6f8871c427 -->
<g id="edge5" class="edge">
<title>dir_9d6d388bab8be2ad4217f2a6b55c43e6&#45;&gt;dir_a0528b672238865c9b705e6f8871c427</title>
<g id="a_edge5"><a xlink:href="dir_000001_000013.html" target="_top">
<path fill="none" stroke="#63b8ff" d="M118,-465.75C118,-448.5 118,-410.08 118,-386.31"/>
<polygon fill="#63b8ff" stroke="#63b8ff" points="121.5,-386.64 118,-376.64 114.5,-386.64 121.5,-386.64"/>
</a>
</g>
<g id="a_edge5&#45;headlabel"><a xlink:href="dir_000001_000013.html" target="_top" xlink:title="9">
<text text-anchor="middle" x="124.34" y="-384.85" font-family="Helvetica,sans-Serif" font-size="10.00" fill="#63b8ff">9</text>
</a>
</g>
</g>
<!-- dir_64dbcf4376475f6858943f4500d27d33 -->
<g id="node6" class="node">
<title>dir_64dbcf4376475f6858943f4500d27d33</title>
<g id="a_node6"><a xlink:href="dir_64dbcf4376475f6858943f4500d27d33.html" target="_top" xlink:title="geometry">
<polygon fill="#a2b4d6" stroke="#404040" points="305.25,-319.5 248.75,-319.5 248.75,-300.25 305.25,-300.25 305.25,-319.5"/>
<text text-anchor="middle" x="277" y="-306" font-family="Helvetica,sans-Serif" font-size="10.00">geometry</text>
</a>
</g>
</g>
<!-- dir_9d6d388bab8be2ad4217f2a6b55c43e6&#45;&gt;dir_64dbcf4376475f6858943f4500d27d33 -->
<g id="edge3" class="edge">
<title>dir_9d6d388bab8be2ad4217f2a6b55c43e6&#45;&gt;dir_64dbcf4376475f6858943f4500d27d33</title>
<g id="a_edge3"><a xlink:href="dir_000001_000016.html" target="_top">
<path fill="none" stroke="#63b8ff" d="M131.64,-465.71C155.51,-449.65 205.49,-413.83 239,-374.75 250.81,-360.97 261.11,-343.06 268,-329.71"/>
<polygon fill="#63b8ff" stroke="#63b8ff" points="270.95,-331.63 272.27,-321.11 264.68,-328.51 270.95,-331.63"/>
</a>
</g>
<g id="a_edge3&#45;headlabel"><a xlink:href="dir_000001_000016.html" target="_top" xlink:title="6">
<text text-anchor="middle" x="272.57" y="-330.88" font-family="Helvetica,sans-Serif" font-size="10.00" fill="#63b8ff">6</text>
</a>
</g>
</g>
<!-- dir_0017ba75aab2e8c652a44acfe45be74a -->
<g id="node7" class="node">
<title>dir_0017ba75aab2e8c652a44acfe45be74a</title>
<g id="a_node7"><a xlink:href="dir_0017ba75aab2e8c652a44acfe45be74a.html" target="_top" xlink:title="la">
<polygon fill="#a2b4d6" stroke="#404040" points="169.4,-209 140.6,-209 140.6,-189.75 169.4,-189.75 169.4,-209"/>
<text text-anchor="middle" x="155" y="-195.5" font-family="Helvetica,sans-Serif" font-size="10.00">la</text>
</a>
</g>
</g>
<!-- dir_9d6d388bab8be2ad4217f2a6b55c43e6&#45;&gt;dir_0017ba75aab2e8c652a44acfe45be74a -->
<g id="edge1" class="edge">
<title>dir_9d6d388bab8be2ad4217f2a6b55c43e6&#45;&gt;dir_0017ba75aab2e8c652a44acfe45be74a</title>
<g id="a_edge1"><a xlink:href="dir_000001_000019.html" target="_top">
<path fill="none" stroke="#63b8ff" d="M109.62,-465.53C102.4,-457.04 92.44,-443.67 88,-430 77.77,-398.5 79.12,-387.9 86,-355.5 97.08,-303.32 126.98,-247.39 143.55,-219.09"/>
<polygon fill="#63b8ff" stroke="#63b8ff" points="146.47,-221.03 148.59,-210.65 140.46,-217.44 146.47,-221.03"/>
</a>
</g>
<g id="a_edge1&#45;headlabel"><a xlink:href="dir_000001_000019.html" target="_top" xlink:title="4">
<text text-anchor="middle" x="147.84" y="-220.4" font-family="Helvetica,sans-Serif" font-size="10.00" fill="#63b8ff">4</text>
</a>
</g>
</g>
<!-- dir_97af34804bff078822bafad3a2bc102d -->
<g id="node10" class="node">
<title>dir_97af34804bff078822bafad3a2bc102d</title>
<g id="a_node10"><a xlink:href="dir_97af34804bff078822bafad3a2bc102d.html" target="_top" xlink:title="quadrature">
<polygon fill="#a2b4d6" stroke="#404040" points="186.88,-153.75 125.12,-153.75 125.12,-134.5 186.88,-134.5 186.88,-153.75"/>
<text text-anchor="middle" x="156" y="-140.25" font-family="Helvetica,sans-Serif" font-size="10.00">quadrature</text>
</a>
</g>
</g>
<!-- dir_9d6d388bab8be2ad4217f2a6b55c43e6&#45;&gt;dir_97af34804bff078822bafad3a2bc102d -->
<g id="edge4" class="edge">
<title>dir_9d6d388bab8be2ad4217f2a6b55c43e6&#45;&gt;dir_97af34804bff078822bafad3a2bc102d</title>
<g id="a_edge4"><a xlink:href="dir_000001_000024.html" target="_top">
<path fill="none" stroke="#63b8ff" d="M106.71,-465.74C97.32,-457.59 84.63,-444.59 79,-430 67.08,-399.1 73.9,-388.36 78,-355.5 81.85,-324.67 116.1,-203.84 123,-189.75 127.65,-180.26 134.37,-170.71 140.54,-162.89"/>
<polygon fill="#63b8ff" stroke="#63b8ff" points="143.21,-165.15 146.89,-155.22 137.81,-160.69 143.21,-165.15"/>
</a>
</g>
<g id="a_edge4&#45;headlabel"><a xlink:href="dir_000001_000024.html" target="_top" xlink:title="3">
<text text-anchor="middle" x="144.07" y="-164.69" font-family="Helvetica,sans-Serif" font-size="10.00" fill="#63b8ff">3</text>
</a>
</g>
</g>
<!-- dir_64d22ab80bc34a3dc86f53ff289f3fc7 -->
<g id="node12" class="node">
<title>dir_64d22ab80bc34a3dc86f53ff289f3fc7</title>
<g id="a_node12"><a xlink:href="dir_64d22ab80bc34a3dc86f53ff289f3fc7.html" target="_top" xlink:title="utils">
<polygon fill="#a2b4d6" stroke="#404040" points="222,-264.25 188,-264.25 188,-245 222,-245 222,-264.25"/>
<text text-anchor="middle" x="205" y="-250.75" font-family="Helvetica,sans-Serif" font-size="10.00">utils</text>
</a>
</g>
</g>
<!-- dir_9d6d388bab8be2ad4217f2a6b55c43e6&#45;&gt;dir_64d22ab80bc34a3dc86f53ff289f3fc7 -->
<g id="edge2" class="edge">
<title>dir_9d6d388bab8be2ad4217f2a6b55c43e6&#45;&gt;dir_64d22ab80bc34a3dc86f53ff289f3fc7</title>
<g id="a_edge2"><a xlink:href="dir_000001_000030.html" target="_top">
<path fill="none" stroke="#63b8ff" d="M112.82,-465.59C101.85,-445.18 78.58,-394.29 95,-355.5 111.41,-316.74 151.58,-286.82 178.56,-270.21"/>
<polygon fill="#63b8ff" stroke="#63b8ff" points="180.06,-273.39 186.88,-265.28 176.49,-267.37 180.06,-273.39"/>
</a>
</g>
<g id="a_edge2&#45;headlabel"><a xlink:href="dir_000001_000030.html" target="_top" xlink:title="2">
<text text-anchor="middle" x="179.72" y="-273.02" font-family="Helvetica,sans-Serif" font-size="10.00" fill="#63b8ff">2</text>
</a>
</g>
</g>
<!-- dir_3e52949aa9de67d1e002d9e9ebaf1a84 -->
<g id="node3" class="node">
<title>dir_3e52949aa9de67d1e002d9e9ebaf1a84</title>
<g id="a_node3"><a xlink:href="dir_3e52949aa9de67d1e002d9e9ebaf1a84.html" target="_top" xlink:title="datastructure">
<polygon fill="#a2b4d6" stroke="#404040" points="297.5,-43.25 224.5,-43.25 224.5,-24 297.5,-24 297.5,-43.25"/>
<text text-anchor="middle" x="261" y="-29.75" font-family="Helvetica,sans-Serif" font-size="10.00">datastructure</text>
</a>
</g>
</g>
<!-- dir_b46d84cb2b0e8c01c0a9c74a961c7547&#45;&gt;dir_3e52949aa9de67d1e002d9e9ebaf1a84 -->
<g id="edge7" class="edge">
<title>dir_b46d84cb2b0e8c01c0a9c74a961c7547&#45;&gt;dir_3e52949aa9de67d1e002d9e9ebaf1a84</title>
<g id="a_edge7"><a xlink:href="dir_000012_000007.html" target="_top">
<path fill="none" stroke="#63b8ff" d="M281.51,-410.33C297.17,-392.68 329,-351.79 329,-310.88 329,-310.88 329,-310.88 329,-143.12 329,-105.94 299.98,-71.03 279.85,-51.3"/>
<polygon fill="#63b8ff" stroke="#63b8ff" points="282.41,-48.9 272.73,-44.61 277.62,-54.01 282.41,-48.9"/>
</a>
</g>
<g id="a_edge7&#45;headlabel"><a xlink:href="dir_000012_000007.html" target="_top" xlink:title="2">
<text text-anchor="middle" x="285.88" y="-44.38" font-family="Helvetica,sans-Serif" font-size="10.00" fill="#63b8ff">2</text>
</a>
</g>
</g>
<!-- dir_b46d84cb2b0e8c01c0a9c74a961c7547&#45;&gt;dir_a0528b672238865c9b705e6f8871c427 -->
<g id="edge9" class="edge">
<title>dir_b46d84cb2b0e8c01c0a9c74a961c7547&#45;&gt;dir_a0528b672238865c9b705e6f8871c427</title>
<g id="a_edge9"><a xlink:href="dir_000012_000013.html" target="_top">
<path fill="none" stroke="#63b8ff" d="M255.43,-413.64C231.9,-405.91 188.65,-391.56 143.22,-375.46"/>
<polygon fill="#63b8ff" stroke="#63b8ff" points="144.59,-372.24 134,-372.18 142.25,-378.83 144.59,-372.24"/>
</a>
</g>
<g id="a_edge9&#45;headlabel"><a xlink:href="dir_000012_000013.html" target="_top" xlink:title="1">
<text text-anchor="middle" x="147.51" y="-366.39" font-family="Helvetica,sans-Serif" font-size="10.00" fill="#63b8ff">1</text>
</a>
</g>
</g>
<!-- dir_b46d84cb2b0e8c01c0a9c74a961c7547&#45;&gt;dir_64d22ab80bc34a3dc86f53ff289f3fc7 -->
<g id="edge8" class="edge">
<title>dir_b46d84cb2b0e8c01c0a9c74a961c7547&#45;&gt;dir_64d22ab80bc34a3dc86f53ff289f3fc7</title>
<g id="a_edge8"><a xlink:href="dir_000012_000030.html" target="_top">
<path fill="none" stroke="#63b8ff" d="M269.34,-410.57C258.74,-385.03 227.77,-310.45 213.01,-274.9"/>
<polygon fill="#63b8ff" stroke="#63b8ff" points="216.32,-273.76 209.25,-265.87 209.86,-276.45 216.32,-273.76"/>
</a>
</g>
<g id="a_edge8&#45;headlabel"><a xlink:href="dir_000012_000030.html" target="_top" xlink:title="4">
<text text-anchor="middle" x="219.74" y="-270.72" font-family="Helvetica,sans-Serif" font-size="10.00" fill="#63b8ff">4</text>
</a>
</g>
</g>
<!-- dir_a0528b672238865c9b705e6f8871c427&#45;&gt;dir_64dbcf4376475f6858943f4500d27d33 -->
<g id="edge11" class="edge">
<title>dir_a0528b672238865c9b705e6f8871c427&#45;&gt;dir_64dbcf4376475f6858943f4500d27d33</title>
<g id="a_edge11"><a xlink:href="dir_000013_000016.html" target="_top">
<path fill="none" stroke="#63b8ff" d="M132.57,-358.56C135.36,-357.52 138.26,-356.46 141,-355.5 173.45,-344.1 210.58,-331.98 237.83,-323.25"/>
<polygon fill="#63b8ff" stroke="#63b8ff" points="238.59,-326.68 247.05,-320.31 236.46,-320.01 238.59,-326.68"/>
</a>
</g>
<g id="a_edge11&#45;headlabel"><a xlink:href="dir_000013_000016.html" target="_top" xlink:title="9">
<text text-anchor="middle" x="237.47" y="-326.14" font-family="Helvetica,sans-Serif" font-size="10.00" fill="#63b8ff">9</text>
</a>
</g>
</g>
<!-- dir_a0528b672238865c9b705e6f8871c427&#45;&gt;dir_0017ba75aab2e8c652a44acfe45be74a -->
<g id="edge14" class="edge">
<title>dir_a0528b672238865c9b705e6f8871c427&#45;&gt;dir_0017ba75aab2e8c652a44acfe45be74a</title>
<g id="a_edge14"><a xlink:href="dir_000013_000019.html" target="_top">
<path fill="none" stroke="#63b8ff" d="M119.99,-355.32C125.74,-329.89 142.47,-255.85 150.54,-220.12"/>
<polygon fill="#63b8ff" stroke="#63b8ff" points="153.88,-221.22 152.67,-210.7 147.05,-219.68 153.88,-221.22"/>
</a>
</g>
<g id="a_edge14&#45;headlabel"><a xlink:href="dir_000013_000019.html" target="_top" xlink:title="1">
<text text-anchor="middle" x="156.19" y="-220" font-family="Helvetica,sans-Serif" font-size="10.00" fill="#63b8ff">1</text>
</a>
</g>
</g>
<!-- dir_c2036f87a3c1bf110602254522c56535 -->
<g id="node8" class="node">
<title>dir_c2036f87a3c1bf110602254522c56535</title>
<g id="a_node8"><a xlink:href="dir_c2036f87a3c1bf110602254522c56535.html" target="_top" xlink:title="polynomials">
<polygon fill="#a2b4d6" stroke="#404040" points="241.88,-98.5 174.12,-98.5 174.12,-79.25 241.88,-79.25 241.88,-98.5"/>
<text text-anchor="middle" x="208" y="-85" font-family="Helvetica,sans-Serif" font-size="10.00">polynomials</text>
</a>
</g>
</g>
<!-- dir_a0528b672238865c9b705e6f8871c427&#45;&gt;dir_c2036f87a3c1bf110602254522c56535 -->
<g id="edge13" class="edge">
<title>dir_a0528b672238865c9b705e6f8871c427&#45;&gt;dir_c2036f87a3c1bf110602254522c56535</title>
<g id="a_edge13"><a xlink:href="dir_000013_000021.html" target="_top">
<path fill="none" stroke="#63b8ff" d="M114.79,-355.29C103.56,-322.76 69.2,-207.73 116,-134.5 126.61,-117.9 145.31,-107.31 163.09,-100.63"/>
<polygon fill="#63b8ff" stroke="#63b8ff" points="164.17,-103.96 172.53,-97.45 161.93,-97.33 164.17,-103.96"/>
</a>
</g>
<g id="a_edge13&#45;headlabel"><a xlink:href="dir_000013_000021.html" target="_top" xlink:title="11">
<text text-anchor="middle" x="163.11" y="-103.44" font-family="Helvetica,sans-Serif" font-size="10.00" fill="#63b8ff">11</text>
</a>
</g>
</g>
<!-- dir_a0528b672238865c9b705e6f8871c427&#45;&gt;dir_97af34804bff078822bafad3a2bc102d -->
<g id="edge12" class="edge">
<title>dir_a0528b672238865c9b705e6f8871c427&#45;&gt;dir_97af34804bff078822bafad3a2bc102d</title>
<g id="a_edge12"><a xlink:href="dir_000013_000024.html" target="_top">
<path fill="none" stroke="#63b8ff" d="M117.45,-355.18C116.1,-329.07 113.96,-250.92 132,-189.75 134.64,-180.8 139.21,-171.61 143.66,-163.91"/>
<polygon fill="#63b8ff" stroke="#63b8ff" points="146.58,-165.84 148.86,-155.5 140.62,-162.16 146.58,-165.84"/>
</a>
</g>
<g id="a_edge12&#45;headlabel"><a xlink:href="dir_000013_000024.html" target="_top" xlink:title="6">
<text text-anchor="middle" x="147.9" y="-165.23" font-family="Helvetica,sans-Serif" font-size="10.00" fill="#63b8ff">6</text>
</a>
</g>
</g>
<!-- dir_a0528b672238865c9b705e6f8871c427&#45;&gt;dir_64d22ab80bc34a3dc86f53ff289f3fc7 -->
<g id="edge10" class="edge">
<title>dir_a0528b672238865c9b705e6f8871c427&#45;&gt;dir_64d22ab80bc34a3dc86f53ff289f3fc7</title>
<g id="a_edge10"><a xlink:href="dir_000013_000030.html" target="_top">
<path fill="none" stroke="#63b8ff" d="M125.12,-355.25C139.39,-337.44 171.76,-297.08 190.62,-273.56"/>
<polygon fill="#63b8ff" stroke="#63b8ff" points="193.31,-275.8 196.84,-265.81 187.85,-271.42 193.31,-275.8"/>
</a>
</g>
<g id="a_edge10&#45;headlabel"><a xlink:href="dir_000013_000030.html" target="_top" xlink:title="7">
<text text-anchor="middle" x="194.22" y="-275.32" font-family="Helvetica,sans-Serif" font-size="10.00" fill="#63b8ff">7</text>
</a>
</g>
</g>
<!-- dir_64dbcf4376475f6858943f4500d27d33&#45;&gt;dir_3e52949aa9de67d1e002d9e9ebaf1a84 -->
<g id="edge15" class="edge">
<title>dir_64dbcf4376475f6858943f4500d27d33&#45;&gt;dir_3e52949aa9de67d1e002d9e9ebaf1a84</title>
<g id="a_edge15"><a xlink:href="dir_000016_000007.html" target="_top">
<path fill="none" stroke="#63b8ff" d="M277.56,-299.88C278.66,-281.29 281,-237.32 281,-200.38 281,-200.38 281,-200.38 281,-143.12 281,-111.74 272.81,-76.09 266.91,-54.48"/>
<polygon fill="#63b8ff" stroke="#63b8ff" points="270.31,-53.64 264.2,-44.98 263.58,-55.56 270.31,-53.64"/>
</a>
</g>
<g id="a_edge15&#45;headlabel"><a xlink:href="dir_000016_000007.html" target="_top" xlink:title="18">
<text text-anchor="middle" x="273.61" y="-50.98" font-family="Helvetica,sans-Serif" font-size="10.00" fill="#63b8ff">18</text>
</a>
</g>
</g>
<!-- dir_64dbcf4376475f6858943f4500d27d33&#45;&gt;dir_b46d84cb2b0e8c01c0a9c74a961c7547 -->
<g id="edge18" class="edge">
<title>dir_64dbcf4376475f6858943f4500d27d33&#45;&gt;dir_b46d84cb2b0e8c01c0a9c74a961c7547</title>
<g id="a_edge18"><a xlink:href="dir_000016_000012.html" target="_top">
<path fill="none" stroke="#63b8ff" d="M276.67,-319.88C276.03,-337.14 274.62,-375.3 273.75,-399.03"/>
<polygon fill="#63b8ff" stroke="#63b8ff" points="270.25,-398.86 273.38,-408.98 277.25,-399.12 270.25,-398.86"/>
</a>
</g>
<g id="a_edge18&#45;headlabel"><a xlink:href="dir_000016_000012.html" target="_top" xlink:title="1">
<text text-anchor="middle" x="267.49" y="-392.8" font-family="Helvetica,sans-Serif" font-size="10.00" fill="#63b8ff">1</text>
</a>
</g>
</g>
<!-- dir_64dbcf4376475f6858943f4500d27d33&#45;&gt;dir_97af34804bff078822bafad3a2bc102d -->
<g id="edge17" class="edge">
<title>dir_64dbcf4376475f6858943f4500d27d33&#45;&gt;dir_97af34804bff078822bafad3a2bc102d</title>
<g id="a_edge17"><a xlink:href="dir_000016_000024.html" target="_top">
<path fill="none" stroke="#63b8ff" d="M264.83,-300.16C253.02,-287.82 236.41,-264.6 222,-245 201.08,-216.55 176.43,-183.88 163.57,-163.88"/>
<polygon fill="#63b8ff" stroke="#63b8ff" points="166.67,-162.24 158.52,-155.47 160.67,-165.84 166.67,-162.24"/>
</a>
</g>
<g id="a_edge17&#45;headlabel"><a xlink:href="dir_000016_000024.html" target="_top" xlink:title="2">
<text text-anchor="middle" x="170.18" y="-158.68" font-family="Helvetica,sans-Serif" font-size="10.00" fill="#63b8ff">2</text>
</a>
</g>
</g>
<!-- dir_64dbcf4376475f6858943f4500d27d33&#45;&gt;dir_64d22ab80bc34a3dc86f53ff289f3fc7 -->
<g id="edge16" class="edge">
<title>dir_64dbcf4376475f6858943f4500d27d33&#45;&gt;dir_64d22ab80bc34a3dc86f53ff289f3fc7</title>
<g id="a_edge16"><a xlink:href="dir_000016_000030.html" target="_top">
<path fill="none" stroke="#63b8ff" d="M264.79,-299.84C254.17,-291.99 238.56,-280.45 225.96,-271.12"/>
<polygon fill="#63b8ff" stroke="#63b8ff" points="228.37,-268.56 218.25,-265.42 224.21,-274.19 228.37,-268.56"/>
</a>
</g>
<g id="a_edge16&#45;headlabel"><a xlink:href="dir_000016_000030.html" target="_top" xlink:title="29">
<text text-anchor="middle" x="231.73" y="-263.64" font-family="Helvetica,sans-Serif" font-size="10.00" fill="#63b8ff">29</text>
</a>
</g>
</g>
<!-- dir_0017ba75aab2e8c652a44acfe45be74a&#45;&gt;dir_97af34804bff078822bafad3a2bc102d -->
<g id="edge20" class="edge">
<title>dir_0017ba75aab2e8c652a44acfe45be74a&#45;&gt;dir_97af34804bff078822bafad3a2bc102d</title>
<g id="a_edge20"><a xlink:href="dir_000019_000024.html" target="_top">
<path fill="none" stroke="#63b8ff" d="M155.17,-189.58C155.29,-183.07 155.46,-173.92 155.62,-165.62"/>
<polygon fill="#63b8ff" stroke="#63b8ff" points="159.11,-165.69 155.8,-155.62 152.12,-165.55 159.11,-165.69"/>
</a>
</g>
<g id="a_edge20&#45;headlabel"><a xlink:href="dir_000019_000024.html" target="_top" xlink:title="1">
<text text-anchor="middle" x="161.91" y="-163.95" font-family="Helvetica,sans-Serif" font-size="10.00" fill="#63b8ff">1</text>
</a>
</g>
</g>
<!-- dir_0017ba75aab2e8c652a44acfe45be74a&#45;&gt;dir_64d22ab80bc34a3dc86f53ff289f3fc7 -->
<g id="edge19" class="edge">
<title>dir_0017ba75aab2e8c652a44acfe45be74a&#45;&gt;dir_64d22ab80bc34a3dc86f53ff289f3fc7</title>
<g id="a_edge19"><a xlink:href="dir_000019_000030.html" target="_top">
<path fill="none" stroke="#63b8ff" d="M168.64,-209.36C176.98,-216.62 187.18,-227.06 194.82,-235.97"/>
<polygon fill="#63b8ff" stroke="#63b8ff" points="191.98,-238.03 200.96,-243.65 197.45,-233.65 191.98,-238.03"/>
</a>
</g>
<g id="a_edge19&#45;headlabel"><a xlink:href="dir_000019_000030.html" target="_top" xlink:title="5">
<text text-anchor="middle" x="188.47" y="-234.3" font-family="Helvetica,sans-Serif" font-size="10.00" fill="#63b8ff">5</text>
</a>
</g>
</g>
<!-- dir_c2036f87a3c1bf110602254522c56535&#45;&gt;dir_3e52949aa9de67d1e002d9e9ebaf1a84 -->
<g id="edge21" class="edge">
<title>dir_c2036f87a3c1bf110602254522c56535&#45;&gt;dir_3e52949aa9de67d1e002d9e9ebaf1a84</title>
<g id="a_edge21"><a xlink:href="dir_000021_000007.html" target="_top">
<path fill="none" stroke="#63b8ff" d="M216.75,-79.08C224.15,-71.65 234.96,-60.79 244.05,-51.66"/>
<polygon fill="#63b8ff" stroke="#63b8ff" points="246.42,-54.24 250.99,-44.68 241.46,-49.3 246.42,-54.24"/>
</a>
</g>
<g id="a_edge21&#45;headlabel"><a xlink:href="dir_000021_000007.html" target="_top" xlink:title="4">
<text text-anchor="middle" x="246.96" y="-53.84" font-family="Helvetica,sans-Serif" font-size="10.00" fill="#63b8ff">4</text>
</a>
</g>
</g>
<!-- dir_c2036f87a3c1bf110602254522c56535&#45;&gt;dir_64d22ab80bc34a3dc86f53ff289f3fc7 -->
<g id="edge22" class="edge">
<title>dir_c2036f87a3c1bf110602254522c56535&#45;&gt;dir_64d22ab80bc34a3dc86f53ff289f3fc7</title>
<g id="a_edge22"><a xlink:href="dir_000021_000030.html" target="_top">
<path fill="none" stroke="#63b8ff" d="M207.84,-98.72C207.37,-124.1 206.03,-197.61 205.37,-233.47"/>
<polygon fill="#63b8ff" stroke="#63b8ff" points="201.87,-233.25 205.19,-243.31 208.87,-233.37 201.87,-233.25"/>
</a>
</g>
<g id="a_edge22&#45;headlabel"><a xlink:href="dir_000021_000030.html" target="_top" xlink:title="7">
<text text-anchor="middle" x="199.07" y="-227.24" font-family="Helvetica,sans-Serif" font-size="10.00" fill="#63b8ff">7</text>
</a>
</g>
</g>
<!-- dir_f4c11ee81eca8e4773cbef7bd949217d -->
<g id="node9" class="node">
<title>dir_f4c11ee81eca8e4773cbef7bd949217d</title>
<g id="a_node9"><a xlink:href="dir_f4c11ee81eca8e4773cbef7bd949217d.html" target="_top" xlink:title="postprocessing">
<polygon fill="#a2b4d6" stroke="#404040" points="260,-540.5 178,-540.5 178,-521.25 260,-521.25 260,-540.5"/>
<text text-anchor="middle" x="219" y="-527" font-family="Helvetica,sans-Serif" font-size="10.00">postprocessing</text>
</a>
</g>
</g>
<!-- dir_f4c11ee81eca8e4773cbef7bd949217d&#45;&gt;dir_9d6d388bab8be2ad4217f2a6b55c43e6 -->
<g id="edge25" class="edge">
<title>dir_f4c11ee81eca8e4773cbef7bd949217d&#45;&gt;dir_9d6d388bab8be2ad4217f2a6b55c43e6</title>
<g id="a_edge25"><a xlink:href="dir_000022_000001.html" target="_top">
<path fill="none" stroke="#63b8ff" d="M201.87,-520.84C186.34,-512.66 163.2,-500.46 145.16,-490.94"/>
<polygon fill="#63b8ff" stroke="#63b8ff" points="147.03,-487.98 136.56,-486.41 143.77,-494.17 147.03,-487.98"/>
</a>
</g>
<g id="a_edge25&#45;headlabel"><a xlink:href="dir_000022_000001.html" target="_top" xlink:title="1">
<text text-anchor="middle" x="150.2" y="-482.56" font-family="Helvetica,sans-Serif" font-size="10.00" fill="#63b8ff">1</text>
</a>
</g>
</g>
<!-- dir_f4c11ee81eca8e4773cbef7bd949217d&#45;&gt;dir_b46d84cb2b0e8c01c0a9c74a961c7547 -->
<g id="edge26" class="edge">
<title>dir_f4c11ee81eca8e4773cbef7bd949217d&#45;&gt;dir_b46d84cb2b0e8c01c0a9c74a961c7547</title>
<g id="a_edge26"><a xlink:href="dir_000022_000012.html" target="_top">
<path fill="none" stroke="#63b8ff" d="M223.42,-521C232.12,-503.51 251.65,-464.27 263.44,-440.59"/>
<polygon fill="#63b8ff" stroke="#63b8ff" points="266.52,-442.24 267.85,-431.73 260.26,-439.12 266.52,-442.24"/>
</a>
</g>
<g id="a_edge26&#45;headlabel"><a xlink:href="dir_000022_000012.html" target="_top" xlink:title="1">
<text text-anchor="middle" x="268.14" y="-441.5" font-family="Helvetica,sans-Serif" font-size="10.00" fill="#63b8ff">1</text>
</a>
</g>
</g>
<!-- dir_f4c11ee81eca8e4773cbef7bd949217d&#45;&gt;dir_64dbcf4376475f6858943f4500d27d33 -->
<g id="edge24" class="edge">
<title>dir_f4c11ee81eca8e4773cbef7bd949217d&#45;&gt;dir_64dbcf4376475f6858943f4500d27d33</title>
<g id="a_edge24"><a xlink:href="dir_000022_000016.html" target="_top">
<path fill="none" stroke="#63b8ff" d="M230.01,-520.82C248.5,-504.8 285.16,-469.41 299,-430 310.98,-395.89 296.95,-353.89 286.45,-329.96"/>
<polygon fill="#63b8ff" stroke="#63b8ff" points="289.74,-328.74 282.34,-321.16 283.39,-331.7 289.74,-328.74"/>
</a>
</g>
<g id="a_edge24&#45;headlabel"><a xlink:href="dir_000022_000016.html" target="_top" xlink:title="1">
<text text-anchor="middle" x="293.19" y="-325.55" font-family="Helvetica,sans-Serif" font-size="10.00" fill="#63b8ff">1</text>
</a>
</g>
</g>
<!-- dir_f4c11ee81eca8e4773cbef7bd949217d&#45;&gt;dir_0017ba75aab2e8c652a44acfe45be74a -->
<g id="edge23" class="edge">
<title>dir_f4c11ee81eca8e4773cbef7bd949217d&#45;&gt;dir_0017ba75aab2e8c652a44acfe45be74a</title>
<g id="a_edge23"><a xlink:href="dir_000022_000019.html" target="_top">
<path fill="none" stroke="#63b8ff" d="M177.6,-528.82C145.34,-525.57 102.37,-515.36 80,-485.25 15.6,-398.59 58.28,-336.25 116,-245 122.23,-235.14 130.59,-225.27 137.97,-217.32"/>
<polygon fill="#63b8ff" stroke="#63b8ff" points="140.26,-219.99 144.67,-210.36 135.22,-215.14 140.26,-219.99"/>
</a>
</g>
<g id="a_edge23&#45;headlabel"><a xlink:href="dir_000022_000019.html" target="_top" xlink:title="1">
<text text-anchor="middle" x="140.86" y="-219.59" font-family="Helvetica,sans-Serif" font-size="10.00" fill="#63b8ff">1</text>
</a>
</g>
</g>
<!-- dir_97af34804bff078822bafad3a2bc102d&#45;&gt;dir_3e52949aa9de67d1e002d9e9ebaf1a84 -->
<g id="edge27" class="edge">
<title>dir_97af34804bff078822bafad3a2bc102d&#45;&gt;dir_3e52949aa9de67d1e002d9e9ebaf1a84</title>
<g id="a_edge27"><a xlink:href="dir_000024_000007.html" target="_top">
<path fill="none" stroke="#63b8ff" d="M154.78,-134.3C153.43,-121 152.86,-95.62 165,-79.25 176.84,-63.28 195.81,-52.84 213.77,-46.1"/>
<polygon fill="#63b8ff" stroke="#63b8ff" points="214.69,-49.49 223.03,-42.95 212.44,-42.86 214.69,-49.49"/>
</a>
</g>
<g id="a_edge27&#45;headlabel"><a xlink:href="dir_000024_000007.html" target="_top" xlink:title="2">
<text text-anchor="middle" x="213.64" y="-48.97" font-family="Helvetica,sans-Serif" font-size="10.00" fill="#63b8ff">2</text>
</a>
</g>
</g>
<!-- dir_97af34804bff078822bafad3a2bc102d&#45;&gt;dir_64dbcf4376475f6858943f4500d27d33 -->
<g id="edge29" class="edge">
<title>dir_97af34804bff078822bafad3a2bc102d&#45;&gt;dir_64dbcf4376475f6858943f4500d27d33</title>
<g id="a_edge29"><a xlink:href="dir_000024_000016.html" target="_top">
<path fill="none" stroke="#63b8ff" d="M168.03,-154.17C185.17,-171.64 215.21,-211.29 240,-245 251.15,-260.16 263.61,-277.48 271.35,-290.26"/>
<polygon fill="#63b8ff" stroke="#63b8ff" points="268.17,-291.75 276.05,-298.83 274.3,-288.38 268.17,-291.75"/>
</a>
</g>
<g id="a_edge29&#45;headlabel"><a xlink:href="dir_000024_000016.html" target="_top" xlink:title="2">
<text text-anchor="middle" x="264.68" y="-287.42" font-family="Helvetica,sans-Serif" font-size="10.00" fill="#63b8ff">2</text>
</a>
</g>
</g>
<!-- dir_97af34804bff078822bafad3a2bc102d&#45;&gt;dir_c2036f87a3c1bf110602254522c56535 -->
<g id="edge30" class="edge">
<title>dir_97af34804bff078822bafad3a2bc102d&#45;&gt;dir_c2036f87a3c1bf110602254522c56535</title>
<g id="a_edge30"><a xlink:href="dir_000024_000021.html" target="_top">
<path fill="none" stroke="#63b8ff" d="M164.59,-134.33C171.84,-126.9 182.45,-116.04 191.37,-106.91"/>
<polygon fill="#63b8ff" stroke="#63b8ff" points="193.69,-109.54 198.17,-99.94 188.68,-104.65 193.69,-109.54"/>
</a>
</g>
<g id="a_edge30&#45;headlabel"><a xlink:href="dir_000024_000021.html" target="_top" xlink:title="3">
<text text-anchor="middle" x="194.26" y="-109.14" font-family="Helvetica,sans-Serif" font-size="10.00" fill="#63b8ff">3</text>
</a>
</g>
</g>
<!-- dir_97af34804bff078822bafad3a2bc102d&#45;&gt;dir_64d22ab80bc34a3dc86f53ff289f3fc7 -->
<g id="edge28" class="edge">
<title>dir_97af34804bff078822bafad3a2bc102d&#45;&gt;dir_64d22ab80bc34a3dc86f53ff289f3fc7</title>
<g id="a_edge28"><a xlink:href="dir_000024_000030.html" target="_top">
<path fill="none" stroke="#63b8ff" d="M160.54,-153.94C165.09,-162.89 172.25,-177.18 178,-189.75 184.82,-204.67 192.03,-221.81 197.29,-234.57"/>
<polygon fill="#63b8ff" stroke="#63b8ff" points="193.9,-235.54 200.92,-243.48 200.38,-232.89 193.9,-235.54"/>
</a>
</g>
<g id="a_edge28&#45;headlabel"><a xlink:href="dir_000024_000030.html" target="_top" xlink:title="6">
<text text-anchor="middle" x="190.48" y="-230.81" font-family="Helvetica,sans-Serif" font-size="10.00" fill="#63b8ff">6</text>
</a>
</g>
</g>
<!-- dir_7b35e56633d8423c5fb6dde6baa34f69 -->
<g id="node11" class="node">
<title>dir_7b35e56633d8423c5fb6dde6baa34f69</title>
<g id="a_node11"><a xlink:href="dir_7b35e56633d8423c5fb6dde6baa34f69.html" target="_top" xlink:title="timeintegration">
<polygon fill="#a2b4d6" stroke="#404040" points="229.88,-374.75 150.12,-374.75 150.12,-355.5 229.88,-355.5 229.88,-374.75"/>
<text text-anchor="middle" x="190" y="-361.25" font-family="Helvetica,sans-Serif" font-size="10.00">timeintegration</text>
</a>
</g>
</g>
<!-- dir_7b35e56633d8423c5fb6dde6baa34f69&#45;&gt;dir_64dbcf4376475f6858943f4500d27d33 -->
<g id="edge33" class="edge">
<title>dir_7b35e56633d8423c5fb6dde6baa34f69&#45;&gt;dir_64dbcf4376475f6858943f4500d27d33</title>
<g id="a_edge33"><a xlink:href="dir_000028_000016.html" target="_top">
<path fill="none" stroke="#63b8ff" d="M204.76,-355.09C217.88,-347.06 237.32,-335.16 252.73,-325.73"/>
<polygon fill="#63b8ff" stroke="#63b8ff" points="254.18,-328.95 260.88,-320.74 250.52,-322.98 254.18,-328.95"/>
</a>
</g>
<g id="a_edge33&#45;headlabel"><a xlink:href="dir_000028_000016.html" target="_top" xlink:title="3">
<text text-anchor="middle" x="253.88" y="-328.58" font-family="Helvetica,sans-Serif" font-size="10.00" fill="#63b8ff">3</text>
</a>
</g>
</g>
<!-- dir_7b35e56633d8423c5fb6dde6baa34f69&#45;&gt;dir_0017ba75aab2e8c652a44acfe45be74a -->
<g id="edge31" class="edge">
<title>dir_7b35e56633d8423c5fb6dde6baa34f69&#45;&gt;dir_0017ba75aab2e8c652a44acfe45be74a</title>
<g id="a_edge31"><a xlink:href="dir_000028_000019.html" target="_top">
<path fill="none" stroke="#63b8ff" d="M188.12,-355.32C182.68,-329.89 166.86,-255.85 159.22,-220.12"/>
<polygon fill="#63b8ff" stroke="#63b8ff" points="162.72,-219.75 157.21,-210.7 155.87,-221.21 162.72,-219.75"/>
</a>
</g>
<g id="a_edge31&#45;headlabel"><a xlink:href="dir_000028_000019.html" target="_top" xlink:title="12">
<text text-anchor="middle" x="165.93" y="-217.32" font-family="Helvetica,sans-Serif" font-size="10.00" fill="#63b8ff">12</text>
</a>
</g>
</g>
<!-- dir_7b35e56633d8423c5fb6dde6baa34f69&#45;&gt;dir_64d22ab80bc34a3dc86f53ff289f3fc7 -->
<g id="edge32" class="edge">
<title>dir_7b35e56633d8423c5fb6dde6baa34f69&#45;&gt;dir_64d22ab80bc34a3dc86f53ff289f3fc7</title>
<g id="a_edge32"><a xlink:href="dir_000028_000030.html" target="_top">
<path fill="none" stroke="#63b8ff" d="M191.23,-355.25C193.61,-338 198.92,-299.58 202.21,-275.81"/>
<polygon fill="#63b8ff" stroke="#63b8ff" points="205.65,-276.51 203.55,-266.13 198.71,-275.55 205.65,-276.51"/>
</a>
</g>
<g id="a_edge32&#45;headlabel"><a xlink:href="dir_000028_000030.html" target="_top" xlink:title="3">
<text text-anchor="middle" x="208.17" y="-275.09" font-family="Helvetica,sans-Serif" font-size="10.00" fill="#63b8ff">3</text>
</a>
</g>
</g>
<!-- dir_64d22ab80bc34a3dc86f53ff289f3fc7&#45;&gt;dir_3e52949aa9de67d1e002d9e9ebaf1a84 -->
<g id="edge35" class="edge">
<title>dir_64d22ab80bc34a3dc86f53ff289f3fc7&#45;&gt;dir_3e52949aa9de67d1e002d9e9ebaf1a84</title>
<g id="a_edge35"><a xlink:href="dir_000030_000007.html" target="_top">
<path fill="none" stroke="#63b8ff" d="M208.12,-244.64C216.24,-221 238.27,-154.95 251,-98.5 254.3,-83.88 256.87,-67.14 258.59,-54.46"/>
<polygon fill="#63b8ff" stroke="#63b8ff" points="262.02,-55.24 259.81,-44.87 255.07,-54.35 262.02,-55.24"/>
</a>
</g>
<g id="a_edge35&#45;headlabel"><a xlink:href="dir_000030_000007.html" target="_top" xlink:title="1">
<text text-anchor="middle" x="264.57" y="-53.79" font-family="Helvetica,sans-Serif" font-size="10.00" fill="#63b8ff">1</text>
</a>
</g>
</g>
<!-- dir_64d22ab80bc34a3dc86f53ff289f3fc7&#45;&gt;dir_0017ba75aab2e8c652a44acfe45be74a -->
<g id="edge34" class="edge">
<title>dir_64d22ab80bc34a3dc86f53ff289f3fc7&#45;&gt;dir_0017ba75aab2e8c652a44acfe45be74a</title>
<g id="a_edge34"><a xlink:href="dir_000030_000019.html" target="_top">
<path fill="none" stroke="#63b8ff" d="M191.3,-244.59C183,-237.36 172.87,-226.99 165.25,-218.11"/>
<polygon fill="#63b8ff" stroke="#63b8ff" points="168.1,-216.07 159.11,-210.46 162.64,-220.45 168.1,-216.07"/>
</a>
</g>
<g id="a_edge34&#45;headlabel"><a xlink:href="dir_000030_000019.html" target="_top" xlink:title="2">
<text text-anchor="middle" x="171.62" y="-212.04" font-family="Helvetica,sans-Serif" font-size="10.00" fill="#63b8ff">2</text>
</a>
</g>
</g>
</g>
</svg>

<g id="navigator" transform="translate(0 0)" fill="#404254">
  <rect fill="#f2f5e9" fill-opacity="0.5" stroke="#606060" stroke-width=".5" x="0" y="0" width="60" height="60"/>
  <use id="zoomplus" xlink:href="#zoomPlus" x="17" y="9" onmousedown="handleZoom(evt,'in')"/>
  <use id="zoomminus" xlink:href="#zoomMin" x="42" y="9" onmousedown="handleZoom(evt,'out')"/>
  <use id="reset" xlink:href="#resetDef" x="30" y="36" onmousedown="handleReset()"/>
   <use id="arrowup" xlink:href="#arrowUp" x="0" y="0" onmousedown="handlePan(0,-1)"/>
  <use id="arrowright" xlink:href="#arrowRight" x="0" y="0" onmousedown="handlePan(1,0)"/>
  <use id="arrowdown" xlink:href="#arrowDown" x="0" y="0" onmousedown="handlePan(0,1)"/>
  <use id="arrowleft" xlink:href="#arrowLeft" x="0" y="0" onmousedown="handlePan(-1,0)"/>
</g>
<svg viewBox="0 0 15 15" width="100%" height="30px" preserveAspectRatio="xMaxYMin meet">
 <g id="arrow_out" transform="scale(0.3 0.3)">
  <a xlink:href="dir_d9ea2886b45cc61263484625c1e79bba_dep_org.svg" target="_base">
   <rect id="button" ry="5" rx="5" y="6" x="6" height="38" width="38"
        fill="#f2f5e9" fill-opacity="0.5" stroke="#606060" stroke-width="1.0"/>
   <path id="arrow"
     d="M 11.500037,31.436501 C 11.940474,20.09759 22.043105,11.32322 32.158766,21.979434 L 37.068811,17.246167 C 37.068811,17.246167 37.088388,32 37.088388,32 L 22.160133,31.978069 C 22.160133,31.978069 26.997745,27.140456 26.997745,27.140456 C 18.528582,18.264221 13.291696,25.230495 11.500037,31.436501 z"
     style="fill:#404040;"/>
  </a>
 </g>
</svg>

<style type='text/css'>
<![CDATA[
[data-mouse-over-selected='false'] { opacity: 0.7; }
[data-mouse-over-selected='true']  { opacity: 1.0; }
]]>
</style>
<script type="application/ecmascript"><![CDATA[
document.addEventListener('DOMContentLoaded', (event) => {
  highlightEdges();
  highlightAdjacentNodes();
});
]]></script>
</svg>
