<?xml version="1.0" encoding="UTF-8" standalone="no"?>
<!DOCTYPE svg PUBLIC "-//W3C//DTD SVG 1.1//EN"
 "http://www.w3.org/Graphics/SVG/1.1/DTD/svg11.dtd">
<!-- Generated by graphviz version 2.42.4 (0)
 -->
<!-- Title: /__w/vulpes/vulpes/doc/developers&#45;guide Pages: 1 -->
<!--zoomable 94 -->

<svg id="main" version="1.1" xmlns="http://www.w3.org/2000/svg" xmlns:xlink="http://www.w3.org/1999/xlink" xml:space="preserve" onload="init(evt)">
<style type="text/css"><![CDATA[
.node, .edge {opacity: 0.7;}
.node.selected, .edge.selected {opacity: 1;}
.edge:hover path { stroke: red; }
.edge:hover polygon { stroke: red; fill: red; }
]]></style>

<defs>
  <circle id="rim" cx="0" cy="0" r="7"/>
  <circle id="rim2" cx="0" cy="0" r="3.5"/>
  <g id="zoomPlus">
    <use xlink:href="#rim" fill="#404040"><set attributeName="fill" to="#808080" begin="zoomplus.mouseover" end="zoomplus.mouseout"/></use>
    <path d="M-4,0h8M0,-4v8" fill="none" stroke="white" stroke-width="1.5" pointer-events="none"/>
  </g>
  <g id="zoomMin">
    <use xlink:href="#rim" fill="#404040"><set attributeName="fill" to="#808080" begin="zoomminus.mouseover" end="zoomminus.mouseout"/></use>
    <path d="M-4,0h8" fill="none" stroke="white" stroke-width="1.5" pointer-events="none"/>
  </g>
  <g id="arrowUp" transform="translate(30 24)">
    <use xlink:href="#rim"/>
    <path pointer-events="none" fill="none" stroke="white" stroke-width="1.5" d="M0,-3.0v7 M-2.5,-0.5L0,-3.0L2.5,-0.5"/>
  </g>
  <g id="arrowRight" transform="rotate(90) translate(36 -43)">
    <use xlink:href="#rim"/>
    <path pointer-events="none" fill="none" stroke="white" stroke-width="1.5" d="M0,-3.0v7 M-2.5,-0.5L0,-3.0L2.5,-0.5"/>
  </g>
  <g id="arrowDown" transform="rotate(180) translate(-30 -48)">
    <use xlink:href="#rim"/>
    <path pointer-events="none" fill="none" stroke="white" stroke-width="1.5" d="M0,-3.0v7 M-2.5,-0.5L0,-3.0L2.5,-0.5"/>
  </g>
  <g id="arrowLeft" transform="rotate(270) translate(-36 17)">
    <use xlink:href="#rim"/>
    <path pointer-events="none" fill="none" stroke="white" stroke-width="1.5" d="M0,-3.0v7 M-2.5,-0.5L0,-3.0L2.5,-0.5"/>
  </g>
  <g id="resetDef">
    <use xlink:href="#rim2" fill="#404040"><set attributeName="fill" to="#808080" begin="reset.mouseover" end="reset.mouseout"/></use>
  </g>
</defs>
<script type="application/ecmascript">
var viewWidth = 1129;
var viewHeight = 94;
var sectionId = 'dynsection-0';
</script>
<script type="application/ecmascript" xlink:href="svg.min.js"/>
<svg id="graph" class="graph">
<g id="viewport">
<title>/__w/vulpes/vulpes/doc/developers&#45;guide</title>
<g id="clust1" class="cluster">
<title>clusterdir_e68e8157741866f444e17edd764ebbae</title>
<g id="a_clust1"><a xlink:href="dir_e68e8157741866f444e17edd764ebbae.html" target="_top" xlink:title="doc">
<polygon fill="#edf0f7" stroke="#404040" stroke-dasharray="5,2" points="8,-8 8,-78 1113,-78 1113,-8 8,-8"/>
<text text-anchor="middle" x="560.5" y="-66" font-family="Helvetica,sans-Serif" font-size="10.00">doc</text>
</a>
</g>
</g>
<g id="clust2" class="cluster">
<title>clusterdir_899810871695c698881e52dec09c8f04</title>
<g id="a_clust2"><a xlink:href="dir_899810871695c698881e52dec09c8f04.html" target="_top">
<polygon fill="#edf0f7" stroke="#404040" stroke-width="2" points="16,-16 16,-51 1105,-51 1105,-16 16,-16"/>
</a>
</g>
</g>
<!-- dir_899810871695c698881e52dec09c8f04 -->
<g id="node1" class="node">
<title>dir_899810871695c698881e52dec09c8f04</title>
<text text-anchor="middle" x="1046" y="-31" font-family="Helvetica,sans-Serif" font-size="10.00">developers&#45;guide</text>
</g>
<!-- dir_c3d066b0b369732b516d7880d651452b -->
<g id="node2" class="node">
<title>dir_c3d066b0b369732b516d7880d651452b</title>
<g id="a_node2"><a xlink:href="dir_c3d066b0b369732b516d7880d651452b.html" target="_top" xlink:title="commit&#45;and&#45;merge&#45;policy">
<polygon fill="#a2b4d6" stroke="#404040" points="977,-43 833,-43 833,-24 977,-24 977,-43"/>
<text text-anchor="middle" x="905" y="-31" font-family="Helvetica,sans-Serif" font-size="10.00">commit&#45;and&#45;merge&#45;policy</text>
</a>
</g>
</g>
<!-- dir_f8db5babac5a7e0e9b2f55b62cf9151e -->
<g id="node3" class="node">
<title>dir_f8db5babac5a7e0e9b2f55b62cf9151e</title>
<g id="a_node3"><a xlink:href="dir_f8db5babac5a7e0e9b2f55b62cf9151e.html" target="_top" xlink:title="compile&#45;native">
<polygon fill="#a2b4d6" stroke="#404040" points="815,-43 725,-43 725,-24 815,-24 815,-43"/>
<text text-anchor="middle" x="770" y="-31" font-family="Helvetica,sans-Serif" font-size="10.00">compile&#45;native</text>
</a>
</g>
</g>
<!-- dir_6b18a8d39fc6d91258ca9b91a87b0897 -->
<g id="node4" class="node">
<title>dir_6b18a8d39fc6d91258ca9b91a87b0897</title>
<g id="a_node4"><a xlink:href="dir_6b18a8d39fc6d91258ca9b91a87b0897.html" target="_top" xlink:title="compile&#45;options">
<polygon fill="#a2b4d6" stroke="#404040" points="706.5,-43 611.5,-43 611.5,-24 706.5,-24 706.5,-43"/>
<text text-anchor="middle" x="659" y="-31" font-family="Helvetica,sans-Serif" font-size="10.00">compile&#45;options</text>
</a>
</g>
</g>
<!-- dir_f71ba891ec447133ee79391ba0ef4fc2 -->
<g id="node5" class="node">
<title>dir_f71ba891ec447133ee79391ba0ef4fc2</title>
<g id="a_node5"><a xlink:href="dir_f71ba891ec447133ee79391ba0ef4fc2.html" target="_top" xlink:title="debugging">
<polygon fill="#a2b4d6" stroke="#404040" points="593,-43 525,-43 525,-24 593,-24 593,-43"/>
<text text-anchor="middle" x="559" y="-31" font-family="Helvetica,sans-Serif" font-size="10.00">debugging</text>
</a>
</g>
</g>
<!-- dir_24fad031da3c8378c6d0d0c78bec309e -->
<g id="node6" class="node">
<title>dir_24fad031da3c8378c6d0d0c78bec309e</title>
<g id="a_node6"><a xlink:href="dir_24fad031da3c8378c6d0d0c78bec309e.html" target="_top" xlink:title="developer&#45;setup">
<polygon fill="#a2b4d6" stroke="#404040" points="507,-43 411,-43 411,-24 507,-24 507,-43"/>
<text text-anchor="middle" x="459" y="-31" font-family="Helvetica,sans-Serif" font-size="10.00">developer&#45;setup</text>
</a>
</g>
</g>
<!-- dir_c9a3753ed2e1c5d400b1c4027b5f8218 -->
<g id="node7" class="node">
<title>dir_c9a3753ed2e1c5d400b1c4027b5f8218</title>
<g id="a_node7"><a xlink:href="dir_c9a3753ed2e1c5d400b1c4027b5f8218.html" target="_top" xlink:title="profiling">
<polygon fill="#a2b4d6" stroke="#404040" points="393,-43 337,-43 337,-24 393,-24 393,-43"/>
<text text-anchor="middle" x="365" y="-31" font-family="Helvetica,sans-Serif" font-size="10.00">profiling</text>
</a>
</g>
</g>
<!-- dir_e6c684ce6ccd6553acc0b6ec1fac3f9e -->
<g id="node8" class="node">
<title>dir_e6c684ce6ccd6553acc0b6ec1fac3f9e</title>
<g id="a_node8"><a xlink:href="dir_e6c684ce6ccd6553acc0b6ec1fac3f9e.html" target="_top" xlink:title="style&#45;guide">
<polygon fill="#a2b4d6" stroke="#404040" points="318.5,-43 247.5,-43 247.5,-24 318.5,-24 318.5,-43"/>
<text text-anchor="middle" x="283" y="-31" font-family="Helvetica,sans-Serif" font-size="10.00">style&#45;guide</text>
</a>
</g>
</g>
<!-- dir_78fbd9978cd3332b9cd253807f50e18b -->
<g id="node9" class="node">
<title>dir_78fbd9978cd3332b9cd253807f50e18b</title>
<g id="a_node9"><a xlink:href="dir_78fbd9978cd3332b9cd253807f50e18b.html" target="_top" xlink:title="testing&#45;and&#45;coverage">
<polygon fill="#a2b4d6" stroke="#404040" points="229.5,-43 108.5,-43 108.5,-24 229.5,-24 229.5,-43"/>
<text text-anchor="middle" x="169" y="-31" font-family="Helvetica,sans-Serif" font-size="10.00">testing&#45;and&#45;coverage</text>
</a>
</g>
</g>
<!-- dir_4b56baa12483781ef5cf871b376122c7 -->
<g id="node10" class="node">
<title>dir_4b56baa12483781ef5cf871b376122c7</title>
<g id="a_node10"><a xlink:href="dir_4b56baa12483781ef5cf871b376122c7.html" target="_top" xlink:title="workflows">
<polygon fill="#a2b4d6" stroke="#404040" points="90,-43 24,-43 24,-24 90,-24 90,-43"/>
<text text-anchor="middle" x="57" y="-31" font-family="Helvetica,sans-Serif" font-size="10.00">workflows</text>
</a>
</g>
</g>
</g>
</svg>

<g id="navigator" transform="translate(0 0)" fill="#404254">
  <rect fill="#f2f5e9" fill-opacity="0.5" stroke="#606060" stroke-width=".5" x="0" y="0" width="60" height="60"/>
  <use id="zoomplus" xlink:href="#zoomPlus" x="17" y="9" onmousedown="handleZoom(evt,'in')"/>
  <use id="zoomminus" xlink:href="#zoomMin" x="42" y="9" onmousedown="handleZoom(evt,'out')"/>
  <use id="reset" xlink:href="#resetDef" x="30" y="36" onmousedown="handleReset()"/>
   <use id="arrowup" xlink:href="#arrowUp" x="0" y="0" onmousedown="handlePan(0,-1)"/>
  <use id="arrowright" xlink:href="#arrowRight" x="0" y="0" onmousedown="handlePan(1,0)"/>
  <use id="arrowdown" xlink:href="#arrowDown" x="0" y="0" onmousedown="handlePan(0,1)"/>
  <use id="arrowleft" xlink:href="#arrowLeft" x="0" y="0" onmousedown="handlePan(-1,0)"/>
</g>
<svg viewBox="0 0 15 15" width="100%" height="30px" preserveAspectRatio="xMaxYMin meet">
 <g id="arrow_out" transform="scale(0.3 0.3)">
  <a xlink:href="dir_899810871695c698881e52dec09c8f04_dep_org.svg" target="_base">
   <rect id="button" ry="5" rx="5" y="6" x="6" height="38" width="38"
        fill="#f2f5e9" fill-opacity="0.5" stroke="#606060" stroke-width="1.0"/>
   <path id="arrow"
     d="M 11.500037,31.436501 C 11.940474,20.09759 22.043105,11.32322 32.158766,21.979434 L 37.068811,17.246167 C 37.068811,17.246167 37.088388,32 37.088388,32 L 22.160133,31.978069 C 22.160133,31.978069 26.997745,27.140456 26.997745,27.140456 C 18.528582,18.264221 13.291696,25.230495 11.500037,31.436501 z"
     style="fill:#404040;"/>
  </a>
 </g>
</svg>

<style type='text/css'>
<![CDATA[
[data-mouse-over-selected='false'] { opacity: 0.7; }
[data-mouse-over-selected='true']  { opacity: 1.0; }
]]>
</style>
<script type="application/ecmascript"><![CDATA[
document.addEventListener('DOMContentLoaded', (event) => {
  highlightEdges();
  highlightAdjacentNodes();
});
]]></script>
</svg>
