<?xml version="1.0" encoding="UTF-8" standalone="no"?>
<!DOCTYPE svg PUBLIC "-//W3C//DTD SVG 1.1//EN"
 "http://www.w3.org/Graphics/SVG/1.1/DTD/svg11.dtd">
<!-- Generated by graphviz version 2.42.4 (0)
 -->
<!-- Title: /__w/vulpes/vulpes/vulpes Pages: 1 -->
<svg width="360pt" height="554pt"
 viewBox="0.00 0.00 360.00 554.00" xmlns="http://www.w3.org/2000/svg" xmlns:xlink="http://www.w3.org/1999/xlink">
<g id="graph0" class="graph" transform="scale(1 1) rotate(0) translate(4 550)">
<title>/__w/vulpes/vulpes/vulpes</title>
<g id="clust1" class="cluster">
<title>clusterdir_35f1a0849d07b3f60f0d7ab29139efdc</title>
<g id="a_clust1"><a xlink:href="dir_35f1a0849d07b3f60f0d7ab29139efdc.html" target="_top">
<polygon fill="#edf0f7" stroke="#404040" stroke-width="2" points="8,-8 8,-538 344,-538 344,-8 8,-8"/>
</a>
</g>
</g>
<!-- dir_35f1a0849d07b3f60f0d7ab29139efdc -->
<g id="node1" class="node">
<title>dir_35f1a0849d07b3f60f0d7ab29139efdc</title>
<text text-anchor="middle" x="311" y="-518" font-family="Helvetica,sans-Serif" font-size="10.00">vulpes</text>
</g>
<!-- dir_fbdf0309f37d26479fea532d5cc8eb08 -->
<g id="node2" class="node">
<title>dir_fbdf0309f37d26479fea532d5cc8eb08</title>
<g id="a_node2"><a xlink:href="dir_fbdf0309f37d26479fea532d5cc8eb08.html" target="_top" xlink:title="assemble">
<polygon fill="#a2b4d6" stroke="#404040" points="255,-475 191,-475 191,-456 255,-456 255,-475"/>
<text text-anchor="middle" x="223" y="-463" font-family="Helvetica,sans-Serif" font-size="10.00">assemble</text>
</a>
</g>
</g>
<!-- dir_6eff03e4f108943e0ec081c616da05c3 -->
<g id="node4" class="node">
<title>dir_6eff03e4f108943e0ec081c616da05c3</title>
<g id="a_node4"><a xlink:href="dir_6eff03e4f108943e0ec081c616da05c3.html" target="_top" xlink:title="dofs">
<polygon fill="#a2b4d6" stroke="#404040" points="66,-420 28,-420 28,-401 66,-401 66,-420"/>
<text text-anchor="middle" x="47" y="-408" font-family="Helvetica,sans-Serif" font-size="10.00">dofs</text>
</a>
</g>
</g>
<!-- dir_fbdf0309f37d26479fea532d5cc8eb08&#45;&gt;dir_6eff03e4f108943e0ec081c616da05c3 -->
<g id="edge3" class="edge">
<title>dir_fbdf0309f37d26479fea532d5cc8eb08&#45;&gt;dir_6eff03e4f108943e0ec081c616da05c3</title>
<g id="a_edge3"><a xlink:href="dir_000001_000011.html" target="_top">
<path fill="none" stroke="#63b8ff" d="M194.72,-455.98C162.19,-446.19 109.05,-430.19 76.15,-420.28"/>
<polygon fill="#63b8ff" stroke="#63b8ff" points="76.82,-416.83 66.24,-417.29 74.8,-423.53 76.82,-416.83"/>
</a>
</g>
<g id="a_edge3&#45;headlabel"><a xlink:href="dir_000001_000011.html" target="_top" xlink:title="1">
<text text-anchor="middle" x="81.08" y="-412.64" font-family="Helvetica,sans-Serif" font-size="10.00" fill="#63b8ff">1</text>
</a>
</g>
</g>
<!-- dir_1d42be232f14d112552dcd34db4d5ceb -->
<g id="node5" class="node">
<title>dir_1d42be232f14d112552dcd34db4d5ceb</title>
<g id="a_node5"><a xlink:href="dir_1d42be232f14d112552dcd34db4d5ceb.html" target="_top" xlink:title="fe">
<polygon fill="#a2b4d6" stroke="#404040" points="85.5,-365 56.5,-365 56.5,-346 85.5,-346 85.5,-365"/>
<text text-anchor="middle" x="71" y="-353" font-family="Helvetica,sans-Serif" font-size="10.00">fe</text>
</a>
</g>
</g>
<!-- dir_fbdf0309f37d26479fea532d5cc8eb08&#45;&gt;dir_1d42be232f14d112552dcd34db4d5ceb -->
<g id="edge1" class="edge">
<title>dir_fbdf0309f37d26479fea532d5cc8eb08&#45;&gt;dir_1d42be232f14d112552dcd34db4d5ceb</title>
<g id="a_edge1"><a xlink:href="dir_000001_000012.html" target="_top">
<path fill="none" stroke="#63b8ff" d="M190.89,-459.97C163.73,-454.62 125.3,-443.32 100,-420 87.06,-408.07 79.47,-389.25 75.32,-375.19"/>
<polygon fill="#63b8ff" stroke="#63b8ff" points="78.62,-373.95 72.7,-365.16 71.85,-375.72 78.62,-373.95"/>
</a>
</g>
<g id="a_edge1&#45;headlabel"><a xlink:href="dir_000001_000012.html" target="_top" xlink:title="9">
<text text-anchor="middle" x="82.27" y="-374.2" font-family="Helvetica,sans-Serif" font-size="10.00" fill="#63b8ff">9</text>
</a>
</g>
</g>
<!-- dir_7020f5ed0a8de0aefef775a8859713a5 -->
<g id="node6" class="node">
<title>dir_7020f5ed0a8de0aefef775a8859713a5</title>
<g id="a_node6"><a xlink:href="dir_7020f5ed0a8de0aefef775a8859713a5.html" target="_top" xlink:title="geometry">
<polygon fill="#a2b4d6" stroke="#404040" points="276,-310 212,-310 212,-291 276,-291 276,-310"/>
<text text-anchor="middle" x="244" y="-298" font-family="Helvetica,sans-Serif" font-size="10.00">geometry</text>
</a>
</g>
</g>
<!-- dir_fbdf0309f37d26479fea532d5cc8eb08&#45;&gt;dir_7020f5ed0a8de0aefef775a8859713a5 -->
<g id="edge4" class="edge">
<title>dir_fbdf0309f37d26479fea532d5cc8eb08&#45;&gt;dir_7020f5ed0a8de0aefef775a8859713a5</title>
<g id="a_edge4"><a xlink:href="dir_000001_000015.html" target="_top">
<path fill="none" stroke="#63b8ff" d="M224.13,-455.74C227.42,-430.2 237.05,-355.43 241.59,-320.23"/>
<polygon fill="#63b8ff" stroke="#63b8ff" points="245.06,-320.67 242.87,-310.31 238.12,-319.78 245.06,-320.67"/>
</a>
</g>
<g id="a_edge4&#45;headlabel"><a xlink:href="dir_000001_000015.html" target="_top" xlink:title="6">
<text text-anchor="middle" x="247.42" y="-322.1" font-family="Helvetica,sans-Serif" font-size="10.00" fill="#63b8ff">6</text>
</a>
</g>
</g>
<!-- dir_ffc3e8d0ffd5cf1b8ef4f07435f673f1 -->
<g id="node7" class="node">
<title>dir_ffc3e8d0ffd5cf1b8ef4f07435f673f1</title>
<g id="a_node7"><a xlink:href="dir_ffc3e8d0ffd5cf1b8ef4f07435f673f1.html" target="_top" xlink:title="la">
<polygon fill="#a2b4d6" stroke="#404040" points="171.5,-200 142.5,-200 142.5,-181 171.5,-181 171.5,-200"/>
<text text-anchor="middle" x="157" y="-188" font-family="Helvetica,sans-Serif" font-size="10.00">la</text>
</a>
</g>
</g>
<!-- dir_fbdf0309f37d26479fea532d5cc8eb08&#45;&gt;dir_ffc3e8d0ffd5cf1b8ef4f07435f673f1 -->
<g id="edge6" class="edge">
<title>dir_fbdf0309f37d26479fea532d5cc8eb08&#45;&gt;dir_ffc3e8d0ffd5cf1b8ef4f07435f673f1</title>
<g id="a_edge6"><a xlink:href="dir_000001_000017.html" target="_top">
<path fill="none" stroke="#63b8ff" d="M230.82,-455.92C253.31,-430.18 314.66,-351.63 285,-291 263.35,-246.74 211.45,-216.49 180.8,-201.78"/>
<polygon fill="#63b8ff" stroke="#63b8ff" points="182.21,-198.57 171.66,-197.55 179.27,-204.93 182.21,-198.57"/>
</a>
</g>
<g id="a_edge6&#45;headlabel"><a xlink:href="dir_000001_000017.html" target="_top" xlink:title="4">
<text text-anchor="middle" x="186.66" y="-195" font-family="Helvetica,sans-Serif" font-size="10.00" fill="#63b8ff">4</text>
</a>
</g>
</g>
<!-- dir_c7f7ab40232942afa5e2adeef9c82e3e -->
<g id="node10" class="node">
<title>dir_c7f7ab40232942afa5e2adeef9c82e3e</title>
<g id="a_node10"><a xlink:href="dir_c7f7ab40232942afa5e2adeef9c82e3e.html" target="_top" xlink:title="quadrature">
<polygon fill="#a2b4d6" stroke="#404040" points="191,-145 121,-145 121,-126 191,-126 191,-145"/>
<text text-anchor="middle" x="156" y="-133" font-family="Helvetica,sans-Serif" font-size="10.00">quadrature</text>
</a>
</g>
</g>
<!-- dir_fbdf0309f37d26479fea532d5cc8eb08&#45;&gt;dir_c7f7ab40232942afa5e2adeef9c82e3e -->
<g id="edge5" class="edge">
<title>dir_fbdf0309f37d26479fea532d5cc8eb08&#45;&gt;dir_c7f7ab40232942afa5e2adeef9c82e3e</title>
<g id="a_edge5"><a xlink:href="dir_000001_000022.html" target="_top">
<path fill="none" stroke="#63b8ff" d="M243.54,-455.96C275.88,-440.99 335,-406.74 335,-356.5 335,-356.5 335,-356.5 335,-299.5 335,-221.52 240.97,-170.95 189.21,-149.02"/>
<polygon fill="#63b8ff" stroke="#63b8ff" points="190.35,-145.71 179.77,-145.14 187.69,-152.18 190.35,-145.71"/>
</a>
</g>
<g id="a_edge5&#45;headlabel"><a xlink:href="dir_000001_000022.html" target="_top" xlink:title="3">
<text text-anchor="middle" x="194.75" y="-141.95" font-family="Helvetica,sans-Serif" font-size="10.00" fill="#63b8ff">3</text>
</a>
</g>
</g>
<!-- dir_57fd5c05a3144478f1fe40cbcefca761 -->
<g id="node12" class="node">
<title>dir_57fd5c05a3144478f1fe40cbcefca761</title>
<g id="a_node12"><a xlink:href="dir_57fd5c05a3144478f1fe40cbcefca761.html" target="_top" xlink:title="utils">
<polygon fill="#a2b4d6" stroke="#404040" points="137,-255 99,-255 99,-236 137,-236 137,-255"/>
<text text-anchor="middle" x="118" y="-243" font-family="Helvetica,sans-Serif" font-size="10.00">utils</text>
</a>
</g>
</g>
<!-- dir_fbdf0309f37d26479fea532d5cc8eb08&#45;&gt;dir_57fd5c05a3144478f1fe40cbcefca761 -->
<g id="edge2" class="edge">
<title>dir_fbdf0309f37d26479fea532d5cc8eb08&#45;&gt;dir_57fd5c05a3144478f1fe40cbcefca761</title>
<g id="a_edge2"><a xlink:href="dir_000001_000027.html" target="_top">
<path fill="none" stroke="#63b8ff" d="M207.46,-455.99C182.42,-441.28 134.04,-408.43 115,-365 100.59,-332.13 107.2,-289.06 112.89,-264.93"/>
<polygon fill="#63b8ff" stroke="#63b8ff" points="116.34,-265.57 115.43,-255.01 109.56,-263.83 116.34,-265.57"/>
</a>
</g>
<g id="a_edge2&#45;headlabel"><a xlink:href="dir_000001_000027.html" target="_top" xlink:title="2">
<text text-anchor="middle" x="118.19" y="-267.25" font-family="Helvetica,sans-Serif" font-size="10.00" fill="#63b8ff">2</text>
</a>
</g>
</g>
<!-- dir_76c7cfc4ed48b69da3495ed0a3f2a82b -->
<g id="node3" class="node">
<title>dir_76c7cfc4ed48b69da3495ed0a3f2a82b</title>
<g id="a_node3"><a xlink:href="dir_76c7cfc4ed48b69da3495ed0a3f2a82b.html" target="_top" xlink:title="datastructure">
<polygon fill="#a2b4d6" stroke="#404040" points="138,-35 56,-35 56,-16 138,-16 138,-35"/>
<text text-anchor="middle" x="97" y="-23" font-family="Helvetica,sans-Serif" font-size="10.00">datastructure</text>
</a>
</g>
</g>
<!-- dir_6eff03e4f108943e0ec081c616da05c3&#45;&gt;dir_76c7cfc4ed48b69da3495ed0a3f2a82b -->
<g id="edge9" class="edge">
<title>dir_6eff03e4f108943e0ec081c616da05c3&#45;&gt;dir_76c7cfc4ed48b69da3495ed0a3f2a82b</title>
<g id="a_edge9"><a xlink:href="dir_000011_000007.html" target="_top">
<path fill="none" stroke="#63b8ff" d="M42.83,-400.77C34.59,-382.69 17,-339.64 17,-301.5 17,-301.5 17,-301.5 17,-134.5 17,-103.83 25.75,-95.65 44,-71 52.49,-59.53 64.51,-49.13 74.95,-41.27"/>
<polygon fill="#63b8ff" stroke="#63b8ff" points="77.17,-43.98 83.25,-35.3 73.08,-38.3 77.17,-43.98"/>
</a>
</g>
<g id="a_edge9&#45;headlabel"><a xlink:href="dir_000011_000007.html" target="_top" xlink:title="2">
<text text-anchor="middle" x="75.92" y="-45.89" font-family="Helvetica,sans-Serif" font-size="10.00" fill="#63b8ff">2</text>
</a>
</g>
</g>
<!-- dir_6eff03e4f108943e0ec081c616da05c3&#45;&gt;dir_1d42be232f14d112552dcd34db4d5ceb -->
<g id="edge7" class="edge">
<title>dir_6eff03e4f108943e0ec081c616da05c3&#45;&gt;dir_1d42be232f14d112552dcd34db4d5ceb</title>
<g id="a_edge7"><a xlink:href="dir_000011_000012.html" target="_top">
<path fill="none" stroke="#63b8ff" d="M50.96,-400.75C54.21,-393.57 58.92,-383.18 62.95,-374.27"/>
<polygon fill="#63b8ff" stroke="#63b8ff" points="66.17,-375.64 67.11,-365.09 59.8,-372.75 66.17,-375.64"/>
</a>
</g>
<g id="a_edge7&#45;headlabel"><a xlink:href="dir_000011_000012.html" target="_top" xlink:title="1">
<text text-anchor="middle" x="67.28" y="-377.59" font-family="Helvetica,sans-Serif" font-size="10.00" fill="#63b8ff">1</text>
</a>
</g>
</g>
<!-- dir_6eff03e4f108943e0ec081c616da05c3&#45;&gt;dir_57fd5c05a3144478f1fe40cbcefca761 -->
<g id="edge8" class="edge">
<title>dir_6eff03e4f108943e0ec081c616da05c3&#45;&gt;dir_57fd5c05a3144478f1fe40cbcefca761</title>
<g id="a_edge8"><a xlink:href="dir_000011_000027.html" target="_top">
<path fill="none" stroke="#63b8ff" d="M45.53,-400.61C43.82,-388.07 41.93,-364.66 48,-346 58.82,-312.73 84.94,-280.86 102.03,-262.51"/>
<polygon fill="#63b8ff" stroke="#63b8ff" points="104.77,-264.71 109.17,-255.07 99.72,-259.86 104.77,-264.71"/>
</a>
</g>
<g id="a_edge8&#45;headlabel"><a xlink:href="dir_000011_000027.html" target="_top" xlink:title="4">
<text text-anchor="middle" x="104.33" y="-266.77" font-family="Helvetica,sans-Serif" font-size="10.00" fill="#63b8ff">4</text>
</a>
</g>
</g>
<!-- dir_1d42be232f14d112552dcd34db4d5ceb&#45;&gt;dir_7020f5ed0a8de0aefef775a8859713a5 -->
<g id="edge11" class="edge">
<title>dir_1d42be232f14d112552dcd34db4d5ceb&#45;&gt;dir_7020f5ed0a8de0aefef775a8859713a5</title>
<g id="a_edge11"><a xlink:href="dir_000012_000015.html" target="_top">
<path fill="none" stroke="#63b8ff" d="M85.75,-349.98C112.23,-341.87 168.58,-324.61 206.38,-313.02"/>
<polygon fill="#63b8ff" stroke="#63b8ff" points="207.5,-316.34 216.04,-310.07 205.45,-309.65 207.5,-316.34"/>
</a>
</g>
<g id="a_edge11&#45;headlabel"><a xlink:href="dir_000012_000015.html" target="_top" xlink:title="9">
<text text-anchor="middle" x="204.9" y="-317.61" font-family="Helvetica,sans-Serif" font-size="10.00" fill="#63b8ff">9</text>
</a>
</g>
</g>
<!-- dir_1d42be232f14d112552dcd34db4d5ceb&#45;&gt;dir_ffc3e8d0ffd5cf1b8ef4f07435f673f1 -->
<g id="edge14" class="edge">
<title>dir_1d42be232f14d112552dcd34db4d5ceb&#45;&gt;dir_ffc3e8d0ffd5cf1b8ef4f07435f673f1</title>
<g id="a_edge14"><a xlink:href="dir_000012_000017.html" target="_top">
<path fill="none" stroke="#63b8ff" d="M79.87,-345.85C95.91,-329.64 129.58,-292.91 146,-255 152.19,-240.71 154.9,-223.18 156.09,-210.16"/>
<polygon fill="#63b8ff" stroke="#63b8ff" points="159.58,-210.3 156.78,-200.08 152.6,-209.81 159.58,-210.3"/>
</a>
</g>
<g id="a_edge14&#45;headlabel"><a xlink:href="dir_000012_000017.html" target="_top" xlink:title="1">
<text text-anchor="middle" x="162.17" y="-211.58" font-family="Helvetica,sans-Serif" font-size="10.00" fill="#63b8ff">1</text>
</a>
</g>
</g>
<!-- dir_f847fbc2a10034652ea68ba29427c8a1 -->
<g id="node8" class="node">
<title>dir_f847fbc2a10034652ea68ba29427c8a1</title>
<g id="a_node8"><a xlink:href="dir_f847fbc2a10034652ea68ba29427c8a1.html" target="_top" xlink:title="polynomials">
<polygon fill="#a2b4d6" stroke="#404040" points="135.5,-90 58.5,-90 58.5,-71 135.5,-71 135.5,-90"/>
<text text-anchor="middle" x="97" y="-78" font-family="Helvetica,sans-Serif" font-size="10.00">polynomials</text>
</a>
</g>
</g>
<!-- dir_1d42be232f14d112552dcd34db4d5ceb&#45;&gt;dir_f847fbc2a10034652ea68ba29427c8a1 -->
<g id="edge13" class="edge">
<title>dir_1d42be232f14d112552dcd34db4d5ceb&#45;&gt;dir_f847fbc2a10034652ea68ba29427c8a1</title>
<g id="a_edge13"><a xlink:href="dir_000012_000019.html" target="_top">
<path fill="none" stroke="#63b8ff" d="M70.43,-345.86C69.72,-333.63 68.74,-310.59 70,-291 74.54,-220.33 87.59,-137.07 93.73,-100.43"/>
<polygon fill="#63b8ff" stroke="#63b8ff" points="97.24,-100.69 95.46,-90.24 90.34,-99.51 97.24,-100.69"/>
</a>
</g>
<g id="a_edge13&#45;headlabel"><a xlink:href="dir_000012_000019.html" target="_top" xlink:title="11">
<text text-anchor="middle" x="99.44" y="-102.21" font-family="Helvetica,sans-Serif" font-size="10.00" fill="#63b8ff">11</text>
</a>
</g>
</g>
<!-- dir_1d42be232f14d112552dcd34db4d5ceb&#45;&gt;dir_c7f7ab40232942afa5e2adeef9c82e3e -->
<g id="edge12" class="edge">
<title>dir_1d42be232f14d112552dcd34db4d5ceb&#45;&gt;dir_c7f7ab40232942afa5e2adeef9c82e3e</title>
<g id="a_edge12"><a xlink:href="dir_000012_000022.html" target="_top">
<path fill="none" stroke="#63b8ff" d="M71.27,-345.89C72.12,-325.96 75.65,-275.34 90,-236 99.77,-209.22 107.16,-204.7 123,-181 129.28,-171.6 136.75,-161.46 142.99,-153.23"/>
<polygon fill="#63b8ff" stroke="#63b8ff" points="145.85,-155.25 149.17,-145.18 140.3,-150.98 145.85,-155.25"/>
</a>
</g>
<g id="a_edge12&#45;headlabel"><a xlink:href="dir_000012_000022.html" target="_top" xlink:title="6">
<text text-anchor="middle" x="145.92" y="-157.33" font-family="Helvetica,sans-Serif" font-size="10.00" fill="#63b8ff">6</text>
</a>
</g>
</g>
<!-- dir_1d42be232f14d112552dcd34db4d5ceb&#45;&gt;dir_57fd5c05a3144478f1fe40cbcefca761 -->
<g id="edge10" class="edge">
<title>dir_1d42be232f14d112552dcd34db4d5ceb&#45;&gt;dir_57fd5c05a3144478f1fe40cbcefca761</title>
<g id="a_edge10"><a xlink:href="dir_000012_000027.html" target="_top">
<path fill="none" stroke="#63b8ff" d="M74.85,-345.66C82.53,-328.01 99.9,-288.09 110.11,-264.64"/>
<polygon fill="#63b8ff" stroke="#63b8ff" points="113.45,-265.72 114.23,-255.16 107.03,-262.93 113.45,-265.72"/>
</a>
</g>
<g id="a_edge10&#45;headlabel"><a xlink:href="dir_000012_000027.html" target="_top" xlink:title="7">
<text text-anchor="middle" x="114.62" y="-267.65" font-family="Helvetica,sans-Serif" font-size="10.00" fill="#63b8ff">7</text>
</a>
</g>
</g>
<!-- dir_7020f5ed0a8de0aefef775a8859713a5&#45;&gt;dir_76c7cfc4ed48b69da3495ed0a3f2a82b -->
<g id="edge17" class="edge">
<title>dir_7020f5ed0a8de0aefef775a8859713a5&#45;&gt;dir_76c7cfc4ed48b69da3495ed0a3f2a82b</title>
<g id="a_edge17"><a xlink:href="dir_000015_000007.html" target="_top">
<path fill="none" stroke="#63b8ff" d="M243.19,-290.7C240.49,-264.34 230.15,-184.23 200,-126 180.94,-89.19 143.03,-58.13 118.9,-40.94"/>
<polygon fill="#63b8ff" stroke="#63b8ff" points="120.61,-37.86 110.39,-35.05 116.62,-43.62 120.61,-37.86"/>
</a>
</g>
<g id="a_edge17&#45;headlabel"><a xlink:href="dir_000015_000007.html" target="_top" xlink:title="18">
<text text-anchor="middle" x="125.18" y="-35.08" font-family="Helvetica,sans-Serif" font-size="10.00" fill="#63b8ff">18</text>
</a>
</g>
</g>
<!-- dir_7020f5ed0a8de0aefef775a8859713a5&#45;&gt;dir_6eff03e4f108943e0ec081c616da05c3 -->
<g id="edge16" class="edge">
<title>dir_7020f5ed0a8de0aefef775a8859713a5&#45;&gt;dir_6eff03e4f108943e0ec081c616da05c3</title>
<g id="a_edge16"><a xlink:href="dir_000015_000011.html" target="_top">
<path fill="none" stroke="#63b8ff" d="M243.97,-310.27C243.43,-323.97 240.31,-350.37 225,-365 203.78,-385.27 120.92,-399.41 76.12,-405.75"/>
<polygon fill="#63b8ff" stroke="#63b8ff" points="75.57,-402.29 66.14,-407.12 76.52,-409.23 75.57,-402.29"/>
</a>
</g>
<g id="a_edge16&#45;headlabel"><a xlink:href="dir_000015_000011.html" target="_top" xlink:title="1">
<text text-anchor="middle" x="78.74" y="-396.49" font-family="Helvetica,sans-Serif" font-size="10.00" fill="#63b8ff">1</text>
</a>
</g>
</g>
<!-- dir_7020f5ed0a8de0aefef775a8859713a5&#45;&gt;dir_c7f7ab40232942afa5e2adeef9c82e3e -->
<g id="edge18" class="edge">
<title>dir_7020f5ed0a8de0aefef775a8859713a5&#45;&gt;dir_c7f7ab40232942afa5e2adeef9c82e3e</title>
<g id="a_edge18"><a xlink:href="dir_000015_000022.html" target="_top">
<path fill="none" stroke="#63b8ff" d="M234.78,-290.84C220.23,-271.22 194.35,-221.89 172,-181 167.27,-172.35 161.93,-162.81 158.14,-154.8"/>
<polygon fill="#63b8ff" stroke="#63b8ff" points="161.29,-153.24 154.24,-145.33 154.82,-155.91 161.29,-153.24"/>
</a>
</g>
<g id="a_edge18&#45;headlabel"><a xlink:href="dir_000015_000022.html" target="_top" xlink:title="2">
<text text-anchor="middle" x="165.28" y="-152.98" font-family="Helvetica,sans-Serif" font-size="10.00" fill="#63b8ff">2</text>
</a>
</g>
</g>
<!-- dir_7020f5ed0a8de0aefef775a8859713a5&#45;&gt;dir_57fd5c05a3144478f1fe40cbcefca761 -->
<g id="edge15" class="edge">
<title>dir_7020f5ed0a8de0aefef775a8859713a5&#45;&gt;dir_57fd5c05a3144478f1fe40cbcefca761</title>
<g id="a_edge15"><a xlink:href="dir_000015_000027.html" target="_top">
<path fill="none" stroke="#63b8ff" d="M223.76,-290.98C202.94,-282.23 170.33,-268.51 146.82,-258.62"/>
<polygon fill="#63b8ff" stroke="#63b8ff" points="147.94,-255.3 137.37,-254.65 145.23,-261.75 147.94,-255.3"/>
</a>
</g>
<g id="a_edge15&#45;headlabel"><a xlink:href="dir_000015_000027.html" target="_top" xlink:title="29">
<text text-anchor="middle" x="152.36" y="-251.57" font-family="Helvetica,sans-Serif" font-size="10.00" fill="#63b8ff">29</text>
</a>
</g>
</g>
<!-- dir_ffc3e8d0ffd5cf1b8ef4f07435f673f1&#45;&gt;dir_c7f7ab40232942afa5e2adeef9c82e3e -->
<g id="edge20" class="edge">
<title>dir_ffc3e8d0ffd5cf1b8ef4f07435f673f1&#45;&gt;dir_c7f7ab40232942afa5e2adeef9c82e3e</title>
<g id="a_edge20"><a xlink:href="dir_000017_000022.html" target="_top">
<path fill="none" stroke="#63b8ff" d="M156.83,-180.75C156.7,-173.8 156.52,-163.85 156.35,-155.13"/>
<polygon fill="#63b8ff" stroke="#63b8ff" points="159.85,-155.02 156.16,-145.09 152.85,-155.15 159.85,-155.02"/>
</a>
</g>
<g id="a_edge20&#45;headlabel"><a xlink:href="dir_000017_000022.html" target="_top" xlink:title="1">
<text text-anchor="middle" x="162.76" y="-156.06" font-family="Helvetica,sans-Serif" font-size="10.00" fill="#63b8ff">1</text>
</a>
</g>
</g>
<!-- dir_ffc3e8d0ffd5cf1b8ef4f07435f673f1&#45;&gt;dir_57fd5c05a3144478f1fe40cbcefca761 -->
<g id="edge19" class="edge">
<title>dir_ffc3e8d0ffd5cf1b8ef4f07435f673f1&#45;&gt;dir_57fd5c05a3144478f1fe40cbcefca761</title>
<g id="a_edge19"><a xlink:href="dir_000017_000027.html" target="_top">
<path fill="none" stroke="#63b8ff" d="M155.81,-200.09C151.89,-207.68 143.98,-218.95 136.25,-228.24"/>
<polygon fill="#63b8ff" stroke="#63b8ff" points="133.61,-225.94 129.61,-235.75 138.85,-230.58 133.61,-225.94"/>
</a>
</g>
<g id="a_edge19&#45;headlabel"><a xlink:href="dir_000017_000027.html" target="_top" xlink:title="5">
<text text-anchor="middle" x="133.86" y="-218.86" font-family="Helvetica,sans-Serif" font-size="10.00" fill="#63b8ff">5</text>
</a>
</g>
</g>
<!-- dir_f847fbc2a10034652ea68ba29427c8a1&#45;&gt;dir_76c7cfc4ed48b69da3495ed0a3f2a82b -->
<g id="edge22" class="edge">
<title>dir_f847fbc2a10034652ea68ba29427c8a1&#45;&gt;dir_76c7cfc4ed48b69da3495ed0a3f2a82b</title>
<g id="a_edge22"><a xlink:href="dir_000019_000007.html" target="_top">
<path fill="none" stroke="#63b8ff" d="M97,-70.75C97,-63.8 97,-53.85 97,-45.13"/>
<polygon fill="#63b8ff" stroke="#63b8ff" points="100.5,-45.09 97,-35.09 93.5,-45.09 100.5,-45.09"/>
</a>
</g>
<g id="a_edge22&#45;headlabel"><a xlink:href="dir_000019_000007.html" target="_top" xlink:title="4">
<text text-anchor="middle" x="103.34" y="-46.18" font-family="Helvetica,sans-Serif" font-size="10.00" fill="#63b8ff">4</text>
</a>
</g>
</g>
<!-- dir_f847fbc2a10034652ea68ba29427c8a1&#45;&gt;dir_57fd5c05a3144478f1fe40cbcefca761 -->
<g id="edge21" class="edge">
<title>dir_f847fbc2a10034652ea68ba29427c8a1&#45;&gt;dir_57fd5c05a3144478f1fe40cbcefca761</title>
<g id="a_edge21"><a xlink:href="dir_000019_000027.html" target="_top">
<path fill="none" stroke="#63b8ff" d="M98.13,-90.31C101.42,-115.79 110.98,-190.03 115.54,-225.37"/>
<polygon fill="#63b8ff" stroke="#63b8ff" points="112.12,-226.27 116.87,-235.74 119.06,-225.37 112.12,-226.27"/>
</a>
</g>
<g id="a_edge21&#45;headlabel"><a xlink:href="dir_000019_000027.html" target="_top" xlink:title="7">
<text text-anchor="middle" x="108.85" y="-220.56" font-family="Helvetica,sans-Serif" font-size="10.00" fill="#63b8ff">7</text>
</a>
</g>
</g>
<!-- dir_6c7e17ab64e974f30697ed0028c407ca -->
<g id="node9" class="node">
<title>dir_6c7e17ab64e974f30697ed0028c407ca</title>
<g id="a_node9"><a xlink:href="dir_6c7e17ab64e974f30697ed0028c407ca.html" target="_top" xlink:title="postprocessing">
<polygon fill="#a2b4d6" stroke="#404040" points="268,-530 178,-530 178,-511 268,-511 268,-530"/>
<text text-anchor="middle" x="223" y="-518" font-family="Helvetica,sans-Serif" font-size="10.00">postprocessing</text>
</a>
</g>
</g>
<!-- dir_6c7e17ab64e974f30697ed0028c407ca&#45;&gt;dir_fbdf0309f37d26479fea532d5cc8eb08 -->
<g id="edge25" class="edge">
<title>dir_6c7e17ab64e974f30697ed0028c407ca&#45;&gt;dir_fbdf0309f37d26479fea532d5cc8eb08</title>
<g id="a_edge25"><a xlink:href="dir_000020_000001.html" target="_top">
<path fill="none" stroke="#63b8ff" d="M223,-510.75C223,-503.8 223,-493.85 223,-485.13"/>
<polygon fill="#63b8ff" stroke="#63b8ff" points="226.5,-485.09 223,-475.09 219.5,-485.09 226.5,-485.09"/>
</a>
</g>
<g id="a_edge25&#45;headlabel"><a xlink:href="dir_000020_000001.html" target="_top" xlink:title="1">
<text text-anchor="middle" x="229.34" y="-486.18" font-family="Helvetica,sans-Serif" font-size="10.00" fill="#63b8ff">1</text>
</a>
</g>
</g>
<!-- dir_6c7e17ab64e974f30697ed0028c407ca&#45;&gt;dir_6eff03e4f108943e0ec081c616da05c3 -->
<g id="edge23" class="edge">
<title>dir_6c7e17ab64e974f30697ed0028c407ca&#45;&gt;dir_6eff03e4f108943e0ec081c616da05c3</title>
<g id="a_edge23"><a xlink:href="dir_000020_000011.html" target="_top">
<path fill="none" stroke="#63b8ff" d="M208.89,-510.84C178.51,-492.2 106.67,-448.11 69.76,-425.46"/>
<polygon fill="#63b8ff" stroke="#63b8ff" points="71.53,-422.44 61.17,-420.2 67.87,-428.41 71.53,-422.44"/>
</a>
</g>
<g id="a_edge23&#45;headlabel"><a xlink:href="dir_000020_000011.html" target="_top" xlink:title="1">
<text text-anchor="middle" x="76.08" y="-419.4" font-family="Helvetica,sans-Serif" font-size="10.00" fill="#63b8ff">1</text>
</a>
</g>
</g>
<!-- dir_6c7e17ab64e974f30697ed0028c407ca&#45;&gt;dir_7020f5ed0a8de0aefef775a8859713a5 -->
<g id="edge24" class="edge">
<title>dir_6c7e17ab64e974f30697ed0028c407ca&#45;&gt;dir_7020f5ed0a8de0aefef775a8859713a5</title>
<g id="a_edge24"><a xlink:href="dir_000020_000015.html" target="_top">
<path fill="none" stroke="#63b8ff" d="M234.93,-510.8C244.83,-502.77 258.19,-489.87 264,-475 284.91,-421.46 263.88,-352.07 251.56,-319.67"/>
<polygon fill="#63b8ff" stroke="#63b8ff" points="254.74,-318.18 247.79,-310.17 248.23,-320.76 254.74,-318.18"/>
</a>
</g>
<g id="a_edge24&#45;headlabel"><a xlink:href="dir_000020_000015.html" target="_top" xlink:title="1">
<text text-anchor="middle" x="258.7" y="-317.97" font-family="Helvetica,sans-Serif" font-size="10.00" fill="#63b8ff">1</text>
</a>
</g>
</g>
<!-- dir_6c7e17ab64e974f30697ed0028c407ca&#45;&gt;dir_ffc3e8d0ffd5cf1b8ef4f07435f673f1 -->
<g id="edge26" class="edge">
<title>dir_6c7e17ab64e974f30697ed0028c407ca&#45;&gt;dir_ffc3e8d0ffd5cf1b8ef4f07435f673f1</title>
<g id="a_edge26"><a xlink:href="dir_000020_000017.html" target="_top">
<path fill="none" stroke="#63b8ff" d="M238.19,-511C264.32,-495.12 315,-458.3 315,-411.5 315,-411.5 315,-411.5 315,-354.5 315,-294.85 298.22,-273.7 252,-236 230.75,-218.67 201.63,-206.33 181.26,-199.11"/>
<polygon fill="#63b8ff" stroke="#63b8ff" points="182.35,-195.78 171.76,-195.89 180.1,-202.41 182.35,-195.78"/>
</a>
</g>
<g id="a_edge26&#45;headlabel"><a xlink:href="dir_000020_000017.html" target="_top" xlink:title="1">
<text text-anchor="middle" x="186.67" y="-191.75" font-family="Helvetica,sans-Serif" font-size="10.00" fill="#63b8ff">1</text>
</a>
</g>
</g>
<!-- dir_c7f7ab40232942afa5e2adeef9c82e3e&#45;&gt;dir_76c7cfc4ed48b69da3495ed0a3f2a82b -->
<g id="edge29" class="edge">
<title>dir_c7f7ab40232942afa5e2adeef9c82e3e&#45;&gt;dir_76c7cfc4ed48b69da3495ed0a3f2a82b</title>
<g id="a_edge29"><a xlink:href="dir_000022_000007.html" target="_top">
<path fill="none" stroke="#63b8ff" d="M156.21,-125.71C156.14,-112.9 154.61,-88.7 145,-71 138.63,-59.26 127.98,-48.92 118.34,-41.17"/>
<polygon fill="#63b8ff" stroke="#63b8ff" points="120.34,-38.29 110.25,-35.05 116.11,-43.87 120.34,-38.29"/>
</a>
</g>
<g id="a_edge29&#45;headlabel"><a xlink:href="dir_000022_000007.html" target="_top" xlink:title="2">
<text text-anchor="middle" x="124.92" y="-35.69" font-family="Helvetica,sans-Serif" font-size="10.00" fill="#63b8ff">2</text>
</a>
</g>
</g>
<!-- dir_c7f7ab40232942afa5e2adeef9c82e3e&#45;&gt;dir_7020f5ed0a8de0aefef775a8859713a5 -->
<g id="edge28" class="edge">
<title>dir_c7f7ab40232942afa5e2adeef9c82e3e&#45;&gt;dir_7020f5ed0a8de0aefef775a8859713a5</title>
<g id="a_edge28"><a xlink:href="dir_000022_000015.html" target="_top">
<path fill="none" stroke="#63b8ff" d="M167.84,-145.33C175.13,-154.29 183.2,-168.56 190,-181 209.3,-216.3 231.22,-257.89 240.69,-281.22"/>
<polygon fill="#63b8ff" stroke="#63b8ff" points="237.48,-282.64 244.19,-290.84 244.06,-280.25 237.48,-282.64"/>
</a>
</g>
<g id="a_edge28&#45;headlabel"><a xlink:href="dir_000022_000015.html" target="_top" xlink:title="2">
<text text-anchor="middle" x="233.58" y="-277.73" font-family="Helvetica,sans-Serif" font-size="10.00" fill="#63b8ff">2</text>
</a>
</g>
</g>
<!-- dir_c7f7ab40232942afa5e2adeef9c82e3e&#45;&gt;dir_f847fbc2a10034652ea68ba29427c8a1 -->
<g id="edge30" class="edge">
<title>dir_c7f7ab40232942afa5e2adeef9c82e3e&#45;&gt;dir_f847fbc2a10034652ea68ba29427c8a1</title>
<g id="a_edge30"><a xlink:href="dir_000022_000019.html" target="_top">
<path fill="none" stroke="#63b8ff" d="M146.52,-125.98C137.8,-118.15 124.66,-106.34 114.1,-96.86"/>
<polygon fill="#63b8ff" stroke="#63b8ff" points="116.43,-94.25 106.65,-90.17 111.75,-99.46 116.43,-94.25"/>
</a>
</g>
<g id="a_edge30&#45;headlabel"><a xlink:href="dir_000022_000019.html" target="_top" xlink:title="3">
<text text-anchor="middle" x="121" y="-92.04" font-family="Helvetica,sans-Serif" font-size="10.00" fill="#63b8ff">3</text>
</a>
</g>
</g>
<!-- dir_c7f7ab40232942afa5e2adeef9c82e3e&#45;&gt;dir_57fd5c05a3144478f1fe40cbcefca761 -->
<g id="edge27" class="edge">
<title>dir_c7f7ab40232942afa5e2adeef9c82e3e&#45;&gt;dir_57fd5c05a3144478f1fe40cbcefca761</title>
<g id="a_edge27"><a xlink:href="dir_000022_000027.html" target="_top">
<path fill="none" stroke="#63b8ff" d="M151.05,-145.12C146.17,-153.91 138.77,-168.06 134,-181 128.59,-195.69 124.37,-212.94 121.63,-225.76"/>
<polygon fill="#63b8ff" stroke="#63b8ff" points="118.17,-225.2 119.6,-235.7 125.03,-226.6 118.17,-225.2"/>
</a>
</g>
<g id="a_edge27&#45;headlabel"><a xlink:href="dir_000022_000027.html" target="_top" xlink:title="6">
<text text-anchor="middle" x="116.1" y="-218.61" font-family="Helvetica,sans-Serif" font-size="10.00" fill="#63b8ff">6</text>
</a>
</g>
</g>
<!-- dir_f3bb4cd4855da1dadc073099e9befd96 -->
<g id="node11" class="node">
<title>dir_f3bb4cd4855da1dadc073099e9befd96</title>
<g id="a_node11"><a xlink:href="dir_f3bb4cd4855da1dadc073099e9befd96.html" target="_top" xlink:title="timeintegration">
<polygon fill="#a2b4d6" stroke="#404040" points="216,-365 124,-365 124,-346 216,-346 216,-365"/>
<text text-anchor="middle" x="170" y="-353" font-family="Helvetica,sans-Serif" font-size="10.00">timeintegration</text>
</a>
</g>
</g>
<!-- dir_f3bb4cd4855da1dadc073099e9befd96&#45;&gt;dir_7020f5ed0a8de0aefef775a8859713a5 -->
<g id="edge32" class="edge">
<title>dir_f3bb4cd4855da1dadc073099e9befd96&#45;&gt;dir_7020f5ed0a8de0aefef775a8859713a5</title>
<g id="a_edge32"><a xlink:href="dir_000026_000015.html" target="_top">
<path fill="none" stroke="#63b8ff" d="M181.89,-345.98C193.15,-337.92 210.29,-325.65 223.71,-316.03"/>
<polygon fill="#63b8ff" stroke="#63b8ff" points="225.8,-318.84 231.89,-310.17 221.73,-313.15 225.8,-318.84"/>
</a>
</g>
<g id="a_edge32&#45;headlabel"><a xlink:href="dir_000026_000015.html" target="_top" xlink:title="3">
<text text-anchor="middle" x="224.53" y="-320.74" font-family="Helvetica,sans-Serif" font-size="10.00" fill="#63b8ff">3</text>
</a>
</g>
</g>
<!-- dir_f3bb4cd4855da1dadc073099e9befd96&#45;&gt;dir_ffc3e8d0ffd5cf1b8ef4f07435f673f1 -->
<g id="edge33" class="edge">
<title>dir_f3bb4cd4855da1dadc073099e9befd96&#45;&gt;dir_ffc3e8d0ffd5cf1b8ef4f07435f673f1</title>
<g id="a_edge33"><a xlink:href="dir_000026_000017.html" target="_top">
<path fill="none" stroke="#63b8ff" d="M169.55,-345.87C168.5,-326.3 165.69,-277.07 162,-236 161.23,-227.47 160.2,-218.05 159.27,-210.08"/>
<polygon fill="#63b8ff" stroke="#63b8ff" points="162.73,-209.53 158.07,-200.02 155.78,-210.36 162.73,-209.53"/>
</a>
</g>
<g id="a_edge33&#45;headlabel"><a xlink:href="dir_000026_000017.html" target="_top" xlink:title="12">
<text text-anchor="middle" x="165.98" y="-210.27" font-family="Helvetica,sans-Serif" font-size="10.00" fill="#63b8ff">12</text>
</a>
</g>
</g>
<!-- dir_f3bb4cd4855da1dadc073099e9befd96&#45;&gt;dir_57fd5c05a3144478f1fe40cbcefca761 -->
<g id="edge31" class="edge">
<title>dir_f3bb4cd4855da1dadc073099e9befd96&#45;&gt;dir_57fd5c05a3144478f1fe40cbcefca761</title>
<g id="a_edge31"><a xlink:href="dir_000026_000027.html" target="_top">
<path fill="none" stroke="#63b8ff" d="M165.74,-345.66C157.21,-327.93 137.85,-287.73 126.58,-264.32"/>
<polygon fill="#63b8ff" stroke="#63b8ff" points="129.66,-262.65 122.17,-255.16 123.35,-265.69 129.66,-262.65"/>
</a>
</g>
<g id="a_edge31&#45;headlabel"><a xlink:href="dir_000026_000027.html" target="_top" xlink:title="3">
<text text-anchor="middle" x="133.78" y="-262.16" font-family="Helvetica,sans-Serif" font-size="10.00" fill="#63b8ff">3</text>
</a>
</g>
</g>
<!-- dir_57fd5c05a3144478f1fe40cbcefca761&#45;&gt;dir_76c7cfc4ed48b69da3495ed0a3f2a82b -->
<g id="edge34" class="edge">
<title>dir_57fd5c05a3144478f1fe40cbcefca761&#45;&gt;dir_76c7cfc4ed48b69da3495ed0a3f2a82b</title>
<g id="a_edge34"><a xlink:href="dir_000027_000007.html" target="_top">
<path fill="none" stroke="#63b8ff" d="M112.58,-235.89C98.61,-213.16 61.62,-149.19 49,-90 47.24,-81.74 45.62,-78.74 49,-71 54.27,-58.92 64.63,-48.65 74.37,-41.03"/>
<polygon fill="#63b8ff" stroke="#63b8ff" points="76.59,-43.74 82.63,-35.04 72.48,-38.07 76.59,-43.74"/>
</a>
</g>
<g id="a_edge34&#45;headlabel"><a xlink:href="dir_000027_000007.html" target="_top" xlink:title="1">
<text text-anchor="middle" x="75.35" y="-45.65" font-family="Helvetica,sans-Serif" font-size="10.00" fill="#63b8ff">1</text>
</a>
</g>
</g>
<!-- dir_57fd5c05a3144478f1fe40cbcefca761&#45;&gt;dir_ffc3e8d0ffd5cf1b8ef4f07435f673f1 -->
<g id="edge35" class="edge">
<title>dir_57fd5c05a3144478f1fe40cbcefca761&#45;&gt;dir_ffc3e8d0ffd5cf1b8ef4f07435f673f1</title>
<g id="a_edge35"><a xlink:href="dir_000027_000017.html" target="_top">
<path fill="none" stroke="#63b8ff" d="M119.27,-235.75C123.21,-228.18 131.03,-217.05 138.68,-207.84"/>
<polygon fill="#63b8ff" stroke="#63b8ff" points="141.54,-209.9 145.55,-200.09 136.3,-205.26 141.54,-209.9"/>
</a>
</g>
<g id="a_edge35&#45;headlabel"><a xlink:href="dir_000027_000017.html" target="_top" xlink:title="2">
<text text-anchor="middle" x="141.29" y="-211.97" font-family="Helvetica,sans-Serif" font-size="10.00" fill="#63b8ff">2</text>
</a>
</g>
</g>
</g>
</svg>
