<?xml version="1.0" encoding="UTF-8" standalone="no"?>
<!DOCTYPE svg PUBLIC "-//W3C//DTD SVG 1.1//EN"
 "http://www.w3.org/Graphics/SVG/1.1/DTD/svg11.dtd">
<!-- Generated by graphviz version 2.42.4 (0)
 -->
<!-- Title: /__w/vulpes/vulpes/vulpes Pages: 1 -->
<svg width="360pt" height="499pt"
 viewBox="0.00 0.00 360.00 499.00" xmlns="http://www.w3.org/2000/svg" xmlns:xlink="http://www.w3.org/1999/xlink">
<g id="graph0" class="graph" transform="scale(1 1) rotate(0) translate(4 495)">
<title>/__w/vulpes/vulpes/vulpes</title>
<g id="clust1" class="cluster">
<title>clusterdir_35f1a0849d07b3f60f0d7ab29139efdc</title>
<g id="a_clust1"><a xlink:href="dir_35f1a0849d07b3f60f0d7ab29139efdc.html" target="_top">
<polygon fill="#edf0f7" stroke="#404040" stroke-width="2" points="8,-8 8,-483 344,-483 344,-8 8,-8"/>
</a>
</g>
</g>
<!-- dir_35f1a0849d07b3f60f0d7ab29139efdc -->
<g id="node1" class="node">
<title>dir_35f1a0849d07b3f60f0d7ab29139efdc</title>
<text text-anchor="middle" x="310" y="-463" font-family="Helvetica,sans-Serif" font-size="10.00">vulpes</text>
</g>
<!-- dir_fbdf0309f37d26479fea532d5cc8eb08 -->
<g id="node2" class="node">
<title>dir_fbdf0309f37d26479fea532d5cc8eb08</title>
<g id="a_node2"><a xlink:href="dir_fbdf0309f37d26479fea532d5cc8eb08.html" target="_top" xlink:title="assemble">
<polygon fill="#a2b4d6" stroke="#404040" points="253,-420 189,-420 189,-401 253,-401 253,-420"/>
<text text-anchor="middle" x="221" y="-408" font-family="Helvetica,sans-Serif" font-size="10.00">assemble</text>
</a>
</g>
</g>
<!-- dir_6eff03e4f108943e0ec081c616da05c3 -->
<g id="node4" class="node">
<title>dir_6eff03e4f108943e0ec081c616da05c3</title>
<g id="a_node4"><a xlink:href="dir_6eff03e4f108943e0ec081c616da05c3.html" target="_top" xlink:title="dofs">
<polygon fill="#a2b4d6" stroke="#404040" points="298,-365 260,-365 260,-346 298,-346 298,-365"/>
<text text-anchor="middle" x="279" y="-353" font-family="Helvetica,sans-Serif" font-size="10.00">dofs</text>
</a>
</g>
</g>
<!-- dir_fbdf0309f37d26479fea532d5cc8eb08&#45;&gt;dir_6eff03e4f108943e0ec081c616da05c3 -->
<g id="edge3" class="edge">
<title>dir_fbdf0309f37d26479fea532d5cc8eb08&#45;&gt;dir_6eff03e4f108943e0ec081c616da05c3</title>
<g id="a_edge3"><a xlink:href="dir_000001_000012.html" target="_top">
<path fill="none" stroke="#63b8ff" d="M230.32,-400.98C238.81,-393.23 251.56,-381.58 261.88,-372.14"/>
<polygon fill="#63b8ff" stroke="#63b8ff" points="264.49,-374.5 269.51,-365.17 259.77,-369.33 264.49,-374.5"/>
</a>
</g>
<g id="a_edge3&#45;headlabel"><a xlink:href="dir_000001_000012.html" target="_top" xlink:title="1">
<text text-anchor="middle" x="263.75" y="-376.52" font-family="Helvetica,sans-Serif" font-size="10.00" fill="#63b8ff">1</text>
</a>
</g>
</g>
<!-- dir_1d42be232f14d112552dcd34db4d5ceb -->
<g id="node5" class="node">
<title>dir_1d42be232f14d112552dcd34db4d5ceb</title>
<g id="a_node5"><a xlink:href="dir_1d42be232f14d112552dcd34db4d5ceb.html" target="_top" xlink:title="fe">
<polygon fill="#a2b4d6" stroke="#404040" points="215.5,-310 186.5,-310 186.5,-291 215.5,-291 215.5,-310"/>
<text text-anchor="middle" x="201" y="-298" font-family="Helvetica,sans-Serif" font-size="10.00">fe</text>
</a>
</g>
</g>
<!-- dir_fbdf0309f37d26479fea532d5cc8eb08&#45;&gt;dir_1d42be232f14d112552dcd34db4d5ceb -->
<g id="edge1" class="edge">
<title>dir_fbdf0309f37d26479fea532d5cc8eb08&#45;&gt;dir_1d42be232f14d112552dcd34db4d5ceb</title>
<g id="a_edge1"><a xlink:href="dir_000001_000013.html" target="_top">
<path fill="none" stroke="#63b8ff" d="M219.36,-400.66C216.12,-383.17 208.83,-343.8 204.48,-320.27"/>
<polygon fill="#63b8ff" stroke="#63b8ff" points="207.87,-319.35 202.6,-310.16 200.98,-320.63 207.87,-319.35"/>
</a>
</g>
<g id="a_edge1&#45;headlabel"><a xlink:href="dir_000001_000013.html" target="_top" xlink:title="9">
<text text-anchor="middle" x="211.31" y="-319.87" font-family="Helvetica,sans-Serif" font-size="10.00" fill="#63b8ff">9</text>
</a>
</g>
</g>
<!-- dir_7020f5ed0a8de0aefef775a8859713a5 -->
<g id="node6" class="node">
<title>dir_7020f5ed0a8de0aefef775a8859713a5</title>
<g id="a_node6"><a xlink:href="dir_7020f5ed0a8de0aefef775a8859713a5.html" target="_top" xlink:title="geometry">
<polygon fill="#a2b4d6" stroke="#404040" points="281,-255 217,-255 217,-236 281,-236 281,-255"/>
<text text-anchor="middle" x="249" y="-243" font-family="Helvetica,sans-Serif" font-size="10.00">geometry</text>
</a>
</g>
</g>
<!-- dir_fbdf0309f37d26479fea532d5cc8eb08&#45;&gt;dir_7020f5ed0a8de0aefef775a8859713a5 -->
<g id="edge4" class="edge">
<title>dir_fbdf0309f37d26479fea532d5cc8eb08&#45;&gt;dir_7020f5ed0a8de0aefef775a8859713a5</title>
<g id="a_edge4"><a xlink:href="dir_000001_000016.html" target="_top">
<path fill="none" stroke="#63b8ff" d="M222.82,-400.74C226.38,-383.44 234.4,-343.66 240,-310 242.49,-295.03 244.88,-278 246.57,-265.35"/>
<polygon fill="#63b8ff" stroke="#63b8ff" points="250.08,-265.52 247.91,-255.15 243.14,-264.61 250.08,-265.52"/>
</a>
</g>
<g id="a_edge4&#45;headlabel"><a xlink:href="dir_000001_000016.html" target="_top" xlink:title="5">
<text text-anchor="middle" x="252.42" y="-266.95" font-family="Helvetica,sans-Serif" font-size="10.00" fill="#63b8ff">5</text>
</a>
</g>
</g>
<!-- dir_ffc3e8d0ffd5cf1b8ef4f07435f673f1 -->
<g id="node7" class="node">
<title>dir_ffc3e8d0ffd5cf1b8ef4f07435f673f1</title>
<g id="a_node7"><a xlink:href="dir_ffc3e8d0ffd5cf1b8ef4f07435f673f1.html" target="_top" xlink:title="la">
<polygon fill="#a2b4d6" stroke="#404040" points="111.5,-255 82.5,-255 82.5,-236 111.5,-236 111.5,-255"/>
<text text-anchor="middle" x="97" y="-243" font-family="Helvetica,sans-Serif" font-size="10.00">la</text>
</a>
</g>
</g>
<!-- dir_fbdf0309f37d26479fea532d5cc8eb08&#45;&gt;dir_ffc3e8d0ffd5cf1b8ef4f07435f673f1 -->
<g id="edge6" class="edge">
<title>dir_fbdf0309f37d26479fea532d5cc8eb08&#45;&gt;dir_ffc3e8d0ffd5cf1b8ef4f07435f673f1</title>
<g id="a_edge6"><a xlink:href="dir_000001_000017.html" target="_top">
<path fill="none" stroke="#63b8ff" d="M217.26,-400.78C208.17,-380.18 183.31,-327.5 152,-291 142.28,-279.67 129.4,-269.07 118.54,-261.06"/>
<polygon fill="#63b8ff" stroke="#63b8ff" points="120.54,-258.19 110.37,-255.23 116.48,-263.88 120.54,-258.19"/>
</a>
</g>
<g id="a_edge6&#45;headlabel"><a xlink:href="dir_000001_000017.html" target="_top" xlink:title="2">
<text text-anchor="middle" x="125.12" y="-255.47" font-family="Helvetica,sans-Serif" font-size="10.00" fill="#63b8ff">2</text>
</a>
</g>
</g>
<!-- dir_c7f7ab40232942afa5e2adeef9c82e3e -->
<g id="node10" class="node">
<title>dir_c7f7ab40232942afa5e2adeef9c82e3e</title>
<g id="a_node10"><a xlink:href="dir_c7f7ab40232942afa5e2adeef9c82e3e.html" target="_top" xlink:title="quadrature">
<polygon fill="#a2b4d6" stroke="#404040" points="239,-200 169,-200 169,-181 239,-181 239,-200"/>
<text text-anchor="middle" x="204" y="-188" font-family="Helvetica,sans-Serif" font-size="10.00">quadrature</text>
</a>
</g>
</g>
<!-- dir_fbdf0309f37d26479fea532d5cc8eb08&#45;&gt;dir_c7f7ab40232942afa5e2adeef9c82e3e -->
<g id="edge5" class="edge">
<title>dir_fbdf0309f37d26479fea532d5cc8eb08&#45;&gt;dir_c7f7ab40232942afa5e2adeef9c82e3e</title>
<g id="a_edge5"><a xlink:href="dir_000001_000022.html" target="_top">
<path fill="none" stroke="#63b8ff" d="M221.86,-400.77C224.12,-377.06 229.68,-311.89 225,-291 221.13,-273.73 212.41,-272.14 208,-255 204.25,-240.42 203.36,-223.37 203.34,-210.61"/>
<polygon fill="#63b8ff" stroke="#63b8ff" points="206.85,-210.35 203.52,-200.29 199.85,-210.23 206.85,-210.35"/>
</a>
</g>
<g id="a_edge5&#45;headlabel"><a xlink:href="dir_000001_000022.html" target="_top" xlink:title="3">
<text text-anchor="middle" x="209.62" y="-211.49" font-family="Helvetica,sans-Serif" font-size="10.00" fill="#63b8ff">3</text>
</a>
</g>
</g>
<!-- dir_57fd5c05a3144478f1fe40cbcefca761 -->
<g id="node12" class="node">
<title>dir_57fd5c05a3144478f1fe40cbcefca761</title>
<g id="a_node12"><a xlink:href="dir_57fd5c05a3144478f1fe40cbcefca761.html" target="_top" xlink:title="utils">
<polygon fill="#a2b4d6" stroke="#404040" points="196,-90 158,-90 158,-71 196,-71 196,-90"/>
<text text-anchor="middle" x="177" y="-78" font-family="Helvetica,sans-Serif" font-size="10.00">utils</text>
</a>
</g>
</g>
<!-- dir_fbdf0309f37d26479fea532d5cc8eb08&#45;&gt;dir_57fd5c05a3144478f1fe40cbcefca761 -->
<g id="edge2" class="edge">
<title>dir_fbdf0309f37d26479fea532d5cc8eb08&#45;&gt;dir_57fd5c05a3144478f1fe40cbcefca761</title>
<g id="a_edge2"><a xlink:href="dir_000001_000027.html" target="_top">
<path fill="none" stroke="#63b8ff" d="M188.95,-402.62C144.87,-391.36 66.51,-364.58 27,-310 10.25,-286.86 17,-275.07 17,-246.5 17,-246.5 17,-246.5 17,-189.5 17,-127.16 101.47,-98.39 147.66,-87.32"/>
<polygon fill="#63b8ff" stroke="#63b8ff" points="148.72,-90.67 157.7,-85.05 147.17,-83.85 148.72,-90.67"/>
</a>
</g>
<g id="a_edge2&#45;headlabel"><a xlink:href="dir_000001_000027.html" target="_top" xlink:title="2">
<text text-anchor="middle" x="145.84" y="-91.74" font-family="Helvetica,sans-Serif" font-size="10.00" fill="#63b8ff">2</text>
</a>
</g>
</g>
<!-- dir_76c7cfc4ed48b69da3495ed0a3f2a82b -->
<g id="node3" class="node">
<title>dir_76c7cfc4ed48b69da3495ed0a3f2a82b</title>
<g id="a_node3"><a xlink:href="dir_76c7cfc4ed48b69da3495ed0a3f2a82b.html" target="_top" xlink:title="datastructure">
<polygon fill="#a2b4d6" stroke="#404040" points="316,-35 234,-35 234,-16 316,-16 316,-35"/>
<text text-anchor="middle" x="275" y="-23" font-family="Helvetica,sans-Serif" font-size="10.00">datastructure</text>
</a>
</g>
</g>
<!-- dir_6eff03e4f108943e0ec081c616da05c3&#45;&gt;dir_76c7cfc4ed48b69da3495ed0a3f2a82b -->
<g id="edge9" class="edge">
<title>dir_6eff03e4f108943e0ec081c616da05c3&#45;&gt;dir_76c7cfc4ed48b69da3495ed0a3f2a82b</title>
<g id="a_edge9"><a xlink:href="dir_000012_000007.html" target="_top">
<path fill="none" stroke="#63b8ff" d="M287.26,-345.77C302.84,-328.37 335,-287.47 335,-246.5 335,-246.5 335,-246.5 335,-134.5 335,-98.09 308.62,-62.48 290.84,-42.62"/>
<polygon fill="#63b8ff" stroke="#63b8ff" points="293.23,-40.05 283.85,-35.11 288.11,-44.82 293.23,-40.05"/>
</a>
</g>
<g id="a_edge9&#45;headlabel"><a xlink:href="dir_000012_000007.html" target="_top" xlink:title="2">
<text text-anchor="middle" x="297.76" y="-38.24" font-family="Helvetica,sans-Serif" font-size="10.00" fill="#63b8ff">2</text>
</a>
</g>
</g>
<!-- dir_6eff03e4f108943e0ec081c616da05c3&#45;&gt;dir_1d42be232f14d112552dcd34db4d5ceb -->
<g id="edge7" class="edge">
<title>dir_6eff03e4f108943e0ec081c616da05c3&#45;&gt;dir_1d42be232f14d112552dcd34db4d5ceb</title>
<g id="a_edge7"><a xlink:href="dir_000012_000013.html" target="_top">
<path fill="none" stroke="#63b8ff" d="M266.47,-345.98C254.6,-337.92 236.54,-325.65 222.39,-316.03"/>
<polygon fill="#63b8ff" stroke="#63b8ff" points="224,-312.9 213.76,-310.17 220.06,-318.69 224,-312.9"/>
</a>
</g>
<g id="a_edge7&#45;headlabel"><a xlink:href="dir_000012_000013.html" target="_top" xlink:title="1">
<text text-anchor="middle" x="228.57" y="-310.07" font-family="Helvetica,sans-Serif" font-size="10.00" fill="#63b8ff">1</text>
</a>
</g>
</g>
<!-- dir_6eff03e4f108943e0ec081c616da05c3&#45;&gt;dir_57fd5c05a3144478f1fe40cbcefca761 -->
<g id="edge8" class="edge">
<title>dir_6eff03e4f108943e0ec081c616da05c3&#45;&gt;dir_57fd5c05a3144478f1fe40cbcefca761</title>
<g id="a_edge8"><a xlink:href="dir_000012_000027.html" target="_top">
<path fill="none" stroke="#63b8ff" d="M281.6,-345.77C287.11,-326 298.75,-276.39 290,-236 278.63,-183.51 274.23,-167.38 240,-126 229.7,-113.55 215.1,-102.94 202.56,-95.22"/>
<polygon fill="#63b8ff" stroke="#63b8ff" points="204.27,-92.16 193.87,-90.11 200.72,-98.2 204.27,-92.16"/>
</a>
</g>
<g id="a_edge8&#45;headlabel"><a xlink:href="dir_000012_000027.html" target="_top" xlink:title="4">
<text text-anchor="middle" x="208.81" y="-89.04" font-family="Helvetica,sans-Serif" font-size="10.00" fill="#63b8ff">4</text>
</a>
</g>
</g>
<!-- dir_1d42be232f14d112552dcd34db4d5ceb&#45;&gt;dir_7020f5ed0a8de0aefef775a8859713a5 -->
<g id="edge11" class="edge">
<title>dir_1d42be232f14d112552dcd34db4d5ceb&#45;&gt;dir_7020f5ed0a8de0aefef775a8859713a5</title>
<g id="a_edge11"><a xlink:href="dir_000013_000016.html" target="_top">
<path fill="none" stroke="#63b8ff" d="M208.93,-290.75C215.85,-283.11 226.07,-271.82 234.45,-262.56"/>
<polygon fill="#63b8ff" stroke="#63b8ff" points="237.1,-264.85 241.22,-255.09 231.91,-260.15 237.1,-264.85"/>
</a>
</g>
<g id="a_edge11&#45;headlabel"><a xlink:href="dir_000013_000016.html" target="_top" xlink:title="9">
<text text-anchor="middle" x="236.79" y="-266.92" font-family="Helvetica,sans-Serif" font-size="10.00" fill="#63b8ff">9</text>
</a>
</g>
</g>
<!-- dir_1d42be232f14d112552dcd34db4d5ceb&#45;&gt;dir_ffc3e8d0ffd5cf1b8ef4f07435f673f1 -->
<g id="edge14" class="edge">
<title>dir_1d42be232f14d112552dcd34db4d5ceb&#45;&gt;dir_ffc3e8d0ffd5cf1b8ef4f07435f673f1</title>
<g id="a_edge14"><a xlink:href="dir_000013_000017.html" target="_top">
<path fill="none" stroke="#63b8ff" d="M186.1,-291.91C169.01,-283.2 140.77,-268.81 120.67,-258.56"/>
<polygon fill="#63b8ff" stroke="#63b8ff" points="122.04,-255.33 111.54,-253.91 118.86,-261.57 122.04,-255.33"/>
</a>
</g>
<g id="a_edge14&#45;headlabel"><a xlink:href="dir_000013_000017.html" target="_top" xlink:title="1">
<text text-anchor="middle" x="126.53" y="-251.93" font-family="Helvetica,sans-Serif" font-size="10.00" fill="#63b8ff">1</text>
</a>
</g>
</g>
<!-- dir_f847fbc2a10034652ea68ba29427c8a1 -->
<g id="node8" class="node">
<title>dir_f847fbc2a10034652ea68ba29427c8a1</title>
<g id="a_node8"><a xlink:href="dir_f847fbc2a10034652ea68ba29427c8a1.html" target="_top" xlink:title="polynomials">
<polygon fill="#a2b4d6" stroke="#404040" points="215.5,-145 138.5,-145 138.5,-126 215.5,-126 215.5,-145"/>
<text text-anchor="middle" x="177" y="-133" font-family="Helvetica,sans-Serif" font-size="10.00">polynomials</text>
</a>
</g>
</g>
<!-- dir_1d42be232f14d112552dcd34db4d5ceb&#45;&gt;dir_f847fbc2a10034652ea68ba29427c8a1 -->
<g id="edge13" class="edge">
<title>dir_1d42be232f14d112552dcd34db4d5ceb&#45;&gt;dir_f847fbc2a10034652ea68ba29427c8a1</title>
<g id="a_edge13"><a xlink:href="dir_000013_000019.html" target="_top">
<path fill="none" stroke="#63b8ff" d="M196.05,-290.81C186.75,-273.96 167,-235.37 160,-200 156.92,-184.43 162.2,-167.04 167.67,-154.4"/>
<polygon fill="#63b8ff" stroke="#63b8ff" points="170.99,-155.58 172.13,-145.04 164.67,-152.56 170.99,-155.58"/>
</a>
</g>
<g id="a_edge13&#45;headlabel"><a xlink:href="dir_000013_000019.html" target="_top" xlink:title="11">
<text text-anchor="middle" x="172" y="-157.54" font-family="Helvetica,sans-Serif" font-size="10.00" fill="#63b8ff">11</text>
</a>
</g>
</g>
<!-- dir_1d42be232f14d112552dcd34db4d5ceb&#45;&gt;dir_c7f7ab40232942afa5e2adeef9c82e3e -->
<g id="edge12" class="edge">
<title>dir_1d42be232f14d112552dcd34db4d5ceb&#45;&gt;dir_c7f7ab40232942afa5e2adeef9c82e3e</title>
<g id="a_edge12"><a xlink:href="dir_000013_000022.html" target="_top">
<path fill="none" stroke="#63b8ff" d="M198.56,-290.88C195.41,-278.66 190.61,-255.63 193,-236 194.06,-227.31 196.24,-217.87 198.38,-209.93"/>
<polygon fill="#63b8ff" stroke="#63b8ff" points="201.77,-210.83 201.17,-200.25 195.04,-208.89 201.77,-210.83"/>
</a>
</g>
<g id="a_edge12&#45;headlabel"><a xlink:href="dir_000013_000022.html" target="_top" xlink:title="6">
<text text-anchor="middle" x="203.5" y="-212.57" font-family="Helvetica,sans-Serif" font-size="10.00" fill="#63b8ff">6</text>
</a>
</g>
</g>
<!-- dir_1d42be232f14d112552dcd34db4d5ceb&#45;&gt;dir_57fd5c05a3144478f1fe40cbcefca761 -->
<g id="edge10" class="edge">
<title>dir_1d42be232f14d112552dcd34db4d5ceb&#45;&gt;dir_57fd5c05a3144478f1fe40cbcefca761</title>
<g id="a_edge10"><a xlink:href="dir_000013_000027.html" target="_top">
<path fill="none" stroke="#63b8ff" d="M192.76,-290.95C184.94,-282.43 173.33,-268.69 166,-255 141.73,-209.65 138.1,-195.8 130,-145 128.67,-136.66 126.66,-133.76 130,-126 135.15,-114.03 145.29,-103.76 154.83,-96.12"/>
<polygon fill="#63b8ff" stroke="#63b8ff" points="156.99,-98.88 162.93,-90.11 152.81,-93.26 156.99,-98.88"/>
</a>
</g>
<g id="a_edge10&#45;headlabel"><a xlink:href="dir_000013_000027.html" target="_top" xlink:title="6">
<text text-anchor="middle" x="155.8" y="-100.8" font-family="Helvetica,sans-Serif" font-size="10.00" fill="#63b8ff">6</text>
</a>
</g>
</g>
<!-- dir_7020f5ed0a8de0aefef775a8859713a5&#45;&gt;dir_76c7cfc4ed48b69da3495ed0a3f2a82b -->
<g id="edge17" class="edge">
<title>dir_7020f5ed0a8de0aefef775a8859713a5&#45;&gt;dir_76c7cfc4ed48b69da3495ed0a3f2a82b</title>
<g id="a_edge17"><a xlink:href="dir_000016_000007.html" target="_top">
<path fill="none" stroke="#63b8ff" d="M250.2,-235.98C251.45,-227.02 253.43,-212.53 255,-200 262.04,-143.73 269.47,-77.07 272.96,-45.24"/>
<polygon fill="#63b8ff" stroke="#63b8ff" points="276.45,-45.49 274.06,-35.17 269.49,-44.73 276.45,-45.49"/>
</a>
</g>
<g id="a_edge17&#45;headlabel"><a xlink:href="dir_000016_000007.html" target="_top" xlink:title="18">
<text text-anchor="middle" x="278.88" y="-46.88" font-family="Helvetica,sans-Serif" font-size="10.00" fill="#63b8ff">18</text>
</a>
</g>
</g>
<!-- dir_7020f5ed0a8de0aefef775a8859713a5&#45;&gt;dir_6eff03e4f108943e0ec081c616da05c3 -->
<g id="edge16" class="edge">
<title>dir_7020f5ed0a8de0aefef775a8859713a5&#45;&gt;dir_6eff03e4f108943e0ec081c616da05c3</title>
<g id="a_edge16"><a xlink:href="dir_000016_000012.html" target="_top">
<path fill="none" stroke="#63b8ff" d="M251.41,-255.16C256.24,-272.58 267.25,-312.2 273.81,-335.8"/>
<polygon fill="#63b8ff" stroke="#63b8ff" points="270.5,-336.96 276.54,-345.66 277.24,-335.09 270.5,-336.96"/>
</a>
</g>
<g id="a_edge16&#45;headlabel"><a xlink:href="dir_000016_000012.html" target="_top" xlink:title="1">
<text text-anchor="middle" x="266.8" y="-331.76" font-family="Helvetica,sans-Serif" font-size="10.00" fill="#63b8ff">1</text>
</a>
</g>
</g>
<!-- dir_7020f5ed0a8de0aefef775a8859713a5&#45;&gt;dir_c7f7ab40232942afa5e2adeef9c82e3e -->
<g id="edge18" class="edge">
<title>dir_7020f5ed0a8de0aefef775a8859713a5&#45;&gt;dir_c7f7ab40232942afa5e2adeef9c82e3e</title>
<g id="a_edge18"><a xlink:href="dir_000016_000022.html" target="_top">
<path fill="none" stroke="#63b8ff" d="M236.66,-235.98C228.77,-228.61 219.11,-217.72 212.13,-208.56"/>
<polygon fill="#63b8ff" stroke="#63b8ff" points="214.84,-206.32 206.21,-200.17 209.12,-210.36 214.84,-206.32"/>
</a>
</g>
<g id="a_edge18&#45;headlabel"><a xlink:href="dir_000016_000022.html" target="_top" xlink:title="2">
<text text-anchor="middle" x="219.23" y="-205.13" font-family="Helvetica,sans-Serif" font-size="10.00" fill="#63b8ff">2</text>
</a>
</g>
</g>
<!-- dir_7020f5ed0a8de0aefef775a8859713a5&#45;&gt;dir_57fd5c05a3144478f1fe40cbcefca761 -->
<g id="edge15" class="edge">
<title>dir_7020f5ed0a8de0aefef775a8859713a5&#45;&gt;dir_57fd5c05a3144478f1fe40cbcefca761</title>
<g id="a_edge15"><a xlink:href="dir_000016_000027.html" target="_top">
<path fill="none" stroke="#63b8ff" d="M250.03,-235.88C252.06,-215.04 254.53,-161.09 231,-126 223.07,-114.18 211.09,-103.85 200.42,-96.13"/>
<polygon fill="#63b8ff" stroke="#63b8ff" points="202.12,-93.05 191.89,-90.29 198.16,-98.83 202.12,-93.05"/>
</a>
</g>
<g id="a_edge15&#45;headlabel"><a xlink:href="dir_000016_000027.html" target="_top" xlink:title="29">
<text text-anchor="middle" x="206.69" y="-90.24" font-family="Helvetica,sans-Serif" font-size="10.00" fill="#63b8ff">29</text>
</a>
</g>
</g>
<!-- dir_ffc3e8d0ffd5cf1b8ef4f07435f673f1&#45;&gt;dir_c7f7ab40232942afa5e2adeef9c82e3e -->
<g id="edge20" class="edge">
<title>dir_ffc3e8d0ffd5cf1b8ef4f07435f673f1&#45;&gt;dir_c7f7ab40232942afa5e2adeef9c82e3e</title>
<g id="a_edge20"><a xlink:href="dir_000017_000022.html" target="_top">
<path fill="none" stroke="#63b8ff" d="M111.88,-237.13C128.83,-228.73 156.87,-214.85 177.56,-204.6"/>
<polygon fill="#63b8ff" stroke="#63b8ff" points="179.36,-207.61 186.77,-200.03 176.26,-201.34 179.36,-207.61"/>
</a>
</g>
<g id="a_edge20&#45;headlabel"><a xlink:href="dir_000017_000022.html" target="_top" xlink:title="1">
<text text-anchor="middle" x="177.4" y="-209.25" font-family="Helvetica,sans-Serif" font-size="10.00" fill="#63b8ff">1</text>
</a>
</g>
</g>
<!-- dir_ffc3e8d0ffd5cf1b8ef4f07435f673f1&#45;&gt;dir_57fd5c05a3144478f1fe40cbcefca761 -->
<g id="edge19" class="edge">
<title>dir_ffc3e8d0ffd5cf1b8ef4f07435f673f1&#45;&gt;dir_57fd5c05a3144478f1fe40cbcefca761</title>
<g id="a_edge19"><a xlink:href="dir_000017_000027.html" target="_top">
<path fill="none" stroke="#63b8ff" d="M96.05,-235.99C94.19,-215.41 91.98,-161.99 114,-126 122.21,-112.58 136.15,-102.11 148.84,-94.7"/>
<polygon fill="#63b8ff" stroke="#63b8ff" points="150.64,-97.7 157.75,-89.85 147.3,-91.55 150.64,-97.7"/>
</a>
</g>
<g id="a_edge19&#45;headlabel"><a xlink:href="dir_000017_000027.html" target="_top" xlink:title="4">
<text text-anchor="middle" x="148.84" y="-99.42" font-family="Helvetica,sans-Serif" font-size="10.00" fill="#63b8ff">4</text>
</a>
</g>
</g>
<!-- dir_f847fbc2a10034652ea68ba29427c8a1&#45;&gt;dir_76c7cfc4ed48b69da3495ed0a3f2a82b -->
<g id="edge22" class="edge">
<title>dir_f847fbc2a10034652ea68ba29427c8a1&#45;&gt;dir_76c7cfc4ed48b69da3495ed0a3f2a82b</title>
<g id="a_edge22"><a xlink:href="dir_000019_000007.html" target="_top">
<path fill="none" stroke="#63b8ff" d="M185.02,-125.66C201.47,-107.54 239.24,-65.91 260.24,-42.77"/>
<polygon fill="#63b8ff" stroke="#63b8ff" points="263.02,-44.92 267.14,-35.16 257.83,-40.21 263.02,-44.92"/>
</a>
</g>
<g id="a_edge22&#45;headlabel"><a xlink:href="dir_000019_000007.html" target="_top" xlink:title="4">
<text text-anchor="middle" x="262.7" y="-46.99" font-family="Helvetica,sans-Serif" font-size="10.00" fill="#63b8ff">4</text>
</a>
</g>
</g>
<!-- dir_f847fbc2a10034652ea68ba29427c8a1&#45;&gt;dir_57fd5c05a3144478f1fe40cbcefca761 -->
<g id="edge21" class="edge">
<title>dir_f847fbc2a10034652ea68ba29427c8a1&#45;&gt;dir_57fd5c05a3144478f1fe40cbcefca761</title>
<g id="a_edge21"><a xlink:href="dir_000019_000027.html" target="_top">
<path fill="none" stroke="#63b8ff" d="M177,-125.75C177,-118.8 177,-108.85 177,-100.13"/>
<polygon fill="#63b8ff" stroke="#63b8ff" points="180.5,-100.09 177,-90.09 173.5,-100.09 180.5,-100.09"/>
</a>
</g>
<g id="a_edge21&#45;headlabel"><a xlink:href="dir_000019_000027.html" target="_top" xlink:title="7">
<text text-anchor="middle" x="183.34" y="-101.18" font-family="Helvetica,sans-Serif" font-size="10.00" fill="#63b8ff">7</text>
</a>
</g>
</g>
<!-- dir_6c7e17ab64e974f30697ed0028c407ca -->
<g id="node9" class="node">
<title>dir_6c7e17ab64e974f30697ed0028c407ca</title>
<g id="a_node9"><a xlink:href="dir_6c7e17ab64e974f30697ed0028c407ca.html" target="_top" xlink:title="postprocessing">
<polygon fill="#a2b4d6" stroke="#404040" points="266,-475 176,-475 176,-456 266,-456 266,-475"/>
<text text-anchor="middle" x="221" y="-463" font-family="Helvetica,sans-Serif" font-size="10.00">postprocessing</text>
</a>
</g>
</g>
<!-- dir_6c7e17ab64e974f30697ed0028c407ca&#45;&gt;dir_fbdf0309f37d26479fea532d5cc8eb08 -->
<g id="edge25" class="edge">
<title>dir_6c7e17ab64e974f30697ed0028c407ca&#45;&gt;dir_fbdf0309f37d26479fea532d5cc8eb08</title>
<g id="a_edge25"><a xlink:href="dir_000020_000001.html" target="_top">
<path fill="none" stroke="#63b8ff" d="M221,-455.75C221,-448.8 221,-438.85 221,-430.13"/>
<polygon fill="#63b8ff" stroke="#63b8ff" points="224.5,-430.09 221,-420.09 217.5,-430.09 224.5,-430.09"/>
</a>
</g>
<g id="a_edge25&#45;headlabel"><a xlink:href="dir_000020_000001.html" target="_top" xlink:title="1">
<text text-anchor="middle" x="227.34" y="-431.18" font-family="Helvetica,sans-Serif" font-size="10.00" fill="#63b8ff">1</text>
</a>
</g>
</g>
<!-- dir_6c7e17ab64e974f30697ed0028c407ca&#45;&gt;dir_6eff03e4f108943e0ec081c616da05c3 -->
<g id="edge23" class="edge">
<title>dir_6c7e17ab64e974f30697ed0028c407ca&#45;&gt;dir_6eff03e4f108943e0ec081c616da05c3</title>
<g id="a_edge23"><a xlink:href="dir_000020_000012.html" target="_top">
<path fill="none" stroke="#63b8ff" d="M231.63,-455.69C240.95,-447.4 254.2,-434.17 262,-420 269.66,-406.08 274.02,-388.52 276.4,-375.4"/>
<polygon fill="#63b8ff" stroke="#63b8ff" points="279.9,-375.63 278.01,-365.21 272.99,-374.54 279.9,-375.63"/>
</a>
</g>
<g id="a_edge23&#45;headlabel"><a xlink:href="dir_000020_000012.html" target="_top" xlink:title="1">
<text text-anchor="middle" x="282.14" y="-377.13" font-family="Helvetica,sans-Serif" font-size="10.00" fill="#63b8ff">1</text>
</a>
</g>
</g>
<!-- dir_6c7e17ab64e974f30697ed0028c407ca&#45;&gt;dir_7020f5ed0a8de0aefef775a8859713a5 -->
<g id="edge24" class="edge">
<title>dir_6c7e17ab64e974f30697ed0028c407ca&#45;&gt;dir_7020f5ed0a8de0aefef775a8859713a5</title>
<g id="a_edge24"><a xlink:href="dir_000020_000016.html" target="_top">
<path fill="none" stroke="#63b8ff" d="M233.33,-455.86C253.97,-440.47 294.48,-406.06 307,-365 318.85,-326.17 286.49,-284.31 265.46,-262.22"/>
<polygon fill="#63b8ff" stroke="#63b8ff" points="267.85,-259.66 258.32,-255.02 262.88,-264.59 267.85,-259.66"/>
</a>
</g>
<g id="a_edge24&#45;headlabel"><a xlink:href="dir_000020_000016.html" target="_top" xlink:title="1">
<text text-anchor="middle" x="272.4" y="-257.72" font-family="Helvetica,sans-Serif" font-size="10.00" fill="#63b8ff">1</text>
</a>
</g>
</g>
<!-- dir_6c7e17ab64e974f30697ed0028c407ca&#45;&gt;dir_ffc3e8d0ffd5cf1b8ef4f07435f673f1 -->
<g id="edge26" class="edge">
<title>dir_6c7e17ab64e974f30697ed0028c407ca&#45;&gt;dir_ffc3e8d0ffd5cf1b8ef4f07435f673f1</title>
<g id="a_edge26"><a xlink:href="dir_000020_000017.html" target="_top">
<path fill="none" stroke="#63b8ff" d="M210.93,-455.89C201.73,-447.55 188.33,-434.11 180,-420 149.29,-367.95 167.39,-343.24 137,-291 130.89,-280.49 122.01,-270.3 114.17,-262.32"/>
<polygon fill="#63b8ff" stroke="#63b8ff" points="116.42,-259.63 106.81,-255.15 111.53,-264.64 116.42,-259.63"/>
</a>
</g>
<g id="a_edge26&#45;headlabel"><a xlink:href="dir_000020_000017.html" target="_top" xlink:title="1">
<text text-anchor="middle" x="120.97" y="-257.6" font-family="Helvetica,sans-Serif" font-size="10.00" fill="#63b8ff">1</text>
</a>
</g>
</g>
<!-- dir_c7f7ab40232942afa5e2adeef9c82e3e&#45;&gt;dir_76c7cfc4ed48b69da3495ed0a3f2a82b -->
<g id="edge29" class="edge">
<title>dir_c7f7ab40232942afa5e2adeef9c82e3e&#45;&gt;dir_76c7cfc4ed48b69da3495ed0a3f2a82b</title>
<g id="a_edge29"><a xlink:href="dir_000022_000007.html" target="_top">
<path fill="none" stroke="#63b8ff" d="M209.89,-180.91C215.73,-172.15 224.71,-158.02 231,-145 247.58,-110.72 261.9,-68.47 269.4,-44.8"/>
<polygon fill="#63b8ff" stroke="#63b8ff" points="272.81,-45.65 272.44,-35.06 266.12,-43.57 272.81,-45.65"/>
</a>
</g>
<g id="a_edge29&#45;headlabel"><a xlink:href="dir_000022_000007.html" target="_top" xlink:title="2">
<text text-anchor="middle" x="274.45" y="-47.43" font-family="Helvetica,sans-Serif" font-size="10.00" fill="#63b8ff">2</text>
</a>
</g>
</g>
<!-- dir_c7f7ab40232942afa5e2adeef9c82e3e&#45;&gt;dir_7020f5ed0a8de0aefef775a8859713a5 -->
<g id="edge28" class="edge">
<title>dir_c7f7ab40232942afa5e2adeef9c82e3e&#45;&gt;dir_7020f5ed0a8de0aefef775a8859713a5</title>
<g id="a_edge28"><a xlink:href="dir_000022_000016.html" target="_top">
<path fill="none" stroke="#63b8ff" d="M216.42,-200.09C224.28,-207.45 233.88,-218.27 240.83,-227.39"/>
<polygon fill="#63b8ff" stroke="#63b8ff" points="238.11,-229.6 246.74,-235.75 243.82,-225.56 238.11,-229.6"/>
</a>
</g>
<g id="a_edge28&#45;headlabel"><a xlink:href="dir_000022_000016.html" target="_top" xlink:title="2">
<text text-anchor="middle" x="233.71" y="-225.8" font-family="Helvetica,sans-Serif" font-size="10.00" fill="#63b8ff">2</text>
</a>
</g>
</g>
<!-- dir_c7f7ab40232942afa5e2adeef9c82e3e&#45;&gt;dir_f847fbc2a10034652ea68ba29427c8a1 -->
<g id="edge30" class="edge">
<title>dir_c7f7ab40232942afa5e2adeef9c82e3e&#45;&gt;dir_f847fbc2a10034652ea68ba29427c8a1</title>
<g id="a_edge30"><a xlink:href="dir_000022_000019.html" target="_top">
<path fill="none" stroke="#63b8ff" d="M199.54,-180.75C195.88,-173.57 190.59,-163.18 186.05,-154.27"/>
<polygon fill="#63b8ff" stroke="#63b8ff" points="189.03,-152.41 181.38,-145.09 182.8,-155.59 189.03,-152.41"/>
</a>
</g>
<g id="a_edge30&#45;headlabel"><a xlink:href="dir_000022_000019.html" target="_top" xlink:title="3">
<text text-anchor="middle" x="193.2" y="-151.82" font-family="Helvetica,sans-Serif" font-size="10.00" fill="#63b8ff">3</text>
</a>
</g>
</g>
<!-- dir_c7f7ab40232942afa5e2adeef9c82e3e&#45;&gt;dir_57fd5c05a3144478f1fe40cbcefca761 -->
<g id="edge27" class="edge">
<title>dir_c7f7ab40232942afa5e2adeef9c82e3e&#45;&gt;dir_57fd5c05a3144478f1fe40cbcefca761</title>
<g id="a_edge27"><a xlink:href="dir_000022_000027.html" target="_top">
<path fill="none" stroke="#63b8ff" d="M210.96,-180.68C219.89,-168.24 233.27,-144.94 225,-126 219.73,-113.92 209.37,-103.65 199.63,-96.03"/>
<polygon fill="#63b8ff" stroke="#63b8ff" points="201.52,-93.07 191.37,-90.04 197.41,-98.74 201.52,-93.07"/>
</a>
</g>
<g id="a_edge27&#45;headlabel"><a xlink:href="dir_000022_000027.html" target="_top" xlink:title="6">
<text text-anchor="middle" x="206.09" y="-90.38" font-family="Helvetica,sans-Serif" font-size="10.00" fill="#63b8ff">6</text>
</a>
</g>
</g>
<!-- dir_f3bb4cd4855da1dadc073099e9befd96 -->
<g id="node11" class="node">
<title>dir_f3bb4cd4855da1dadc073099e9befd96</title>
<g id="a_node11"><a xlink:href="dir_f3bb4cd4855da1dadc073099e9befd96.html" target="_top" xlink:title="timeintegration">
<polygon fill="#a2b4d6" stroke="#404040" points="128,-310 36,-310 36,-291 128,-291 128,-310"/>
<text text-anchor="middle" x="82" y="-298" font-family="Helvetica,sans-Serif" font-size="10.00">timeintegration</text>
</a>
</g>
</g>
<!-- dir_f3bb4cd4855da1dadc073099e9befd96&#45;&gt;dir_7020f5ed0a8de0aefef775a8859713a5 -->
<g id="edge32" class="edge">
<title>dir_f3bb4cd4855da1dadc073099e9befd96&#45;&gt;dir_7020f5ed0a8de0aefef775a8859713a5</title>
<g id="a_edge32"><a xlink:href="dir_000026_000016.html" target="_top">
<path fill="none" stroke="#63b8ff" d="M108.83,-290.98C136.87,-282.09 181.05,-268.07 212.3,-258.15"/>
<polygon fill="#63b8ff" stroke="#63b8ff" points="213.49,-261.44 221.96,-255.08 211.37,-254.77 213.49,-261.44"/>
</a>
</g>
<g id="a_edge32&#45;headlabel"><a xlink:href="dir_000026_000016.html" target="_top" xlink:title="3">
<text text-anchor="middle" x="210.92" y="-262.74" font-family="Helvetica,sans-Serif" font-size="10.00" fill="#63b8ff">3</text>
</a>
</g>
</g>
<!-- dir_f3bb4cd4855da1dadc073099e9befd96&#45;&gt;dir_ffc3e8d0ffd5cf1b8ef4f07435f673f1 -->
<g id="edge33" class="edge">
<title>dir_f3bb4cd4855da1dadc073099e9befd96&#45;&gt;dir_ffc3e8d0ffd5cf1b8ef4f07435f673f1</title>
<g id="a_edge33"><a xlink:href="dir_000026_000017.html" target="_top">
<path fill="none" stroke="#63b8ff" d="M84.48,-290.75C86.46,-283.72 89.32,-273.62 91.81,-264.84"/>
<polygon fill="#63b8ff" stroke="#63b8ff" points="95.21,-265.66 94.57,-255.09 88.48,-263.76 95.21,-265.66"/>
</a>
</g>
<g id="a_edge33&#45;headlabel"><a xlink:href="dir_000026_000017.html" target="_top" xlink:title="6">
<text text-anchor="middle" x="96.97" y="-267.4" font-family="Helvetica,sans-Serif" font-size="10.00" fill="#63b8ff">6</text>
</a>
</g>
</g>
<!-- dir_f3bb4cd4855da1dadc073099e9befd96&#45;&gt;dir_57fd5c05a3144478f1fe40cbcefca761 -->
<g id="edge31" class="edge">
<title>dir_f3bb4cd4855da1dadc073099e9befd96&#45;&gt;dir_57fd5c05a3144478f1fe40cbcefca761</title>
<g id="a_edge31"><a xlink:href="dir_000026_000027.html" target="_top">
<path fill="none" stroke="#63b8ff" d="M79.94,-290.7C77.96,-281.77 75.12,-267.51 74,-255 68.8,-196.66 65.98,-172.95 101,-126 112.81,-110.17 132.05,-98.98 148.22,-91.78"/>
<polygon fill="#63b8ff" stroke="#63b8ff" points="149.9,-94.88 157.8,-87.81 147.22,-88.41 149.9,-94.88"/>
</a>
</g>
<g id="a_edge31&#45;headlabel"><a xlink:href="dir_000026_000027.html" target="_top" xlink:title="2">
<text text-anchor="middle" x="147.67" y="-96.38" font-family="Helvetica,sans-Serif" font-size="10.00" fill="#63b8ff">2</text>
</a>
</g>
</g>
<!-- dir_57fd5c05a3144478f1fe40cbcefca761&#45;&gt;dir_76c7cfc4ed48b69da3495ed0a3f2a82b -->
<g id="edge34" class="edge">
<title>dir_57fd5c05a3144478f1fe40cbcefca761&#45;&gt;dir_76c7cfc4ed48b69da3495ed0a3f2a82b</title>
<g id="a_edge34"><a xlink:href="dir_000027_000007.html" target="_top">
<path fill="none" stroke="#63b8ff" d="M192.75,-70.98C208.23,-62.61 232.09,-49.7 250.14,-39.95"/>
<polygon fill="#63b8ff" stroke="#63b8ff" points="251.84,-43.01 258.97,-35.17 248.51,-36.85 251.84,-43.01"/>
</a>
</g>
<g id="a_edge34&#45;headlabel"><a xlink:href="dir_000027_000007.html" target="_top" xlink:title="1">
<text text-anchor="middle" x="250.03" y="-44.71" font-family="Helvetica,sans-Serif" font-size="10.00" fill="#63b8ff">1</text>
</a>
</g>
</g>
</g>
</svg>
