<?xml version="1.0" encoding="UTF-8" standalone="no"?>
<!DOCTYPE svg PUBLIC "-//W3C//DTD SVG 1.1//EN"
 "http://www.w3.org/Graphics/SVG/1.1/DTD/svg11.dtd">
<!-- Generated by graphviz version 2.42.4 (0)
 -->
<!-- Title: /__w/vulpes/vulpes/vulpes Pages: 1 -->
<svg width="298pt" height="499pt"
 viewBox="0.00 0.00 298.00 499.00" xmlns="http://www.w3.org/2000/svg" xmlns:xlink="http://www.w3.org/1999/xlink">
<g id="graph0" class="graph" transform="scale(1 1) rotate(0) translate(4 495)">
<title>/__w/vulpes/vulpes/vulpes</title>
<g id="clust1" class="cluster">
<title>clusterdir_35f1a0849d07b3f60f0d7ab29139efdc</title>
<g id="a_clust1"><a xlink:href="dir_35f1a0849d07b3f60f0d7ab29139efdc.html" target="_top">
<polygon fill="#edf0f7" stroke="#404040" stroke-width="2" points="8,-8 8,-483 282,-483 282,-8 8,-8"/>
</a>
</g>
</g>
<!-- dir_35f1a0849d07b3f60f0d7ab29139efdc -->
<g id="node1" class="node">
<title>dir_35f1a0849d07b3f60f0d7ab29139efdc</title>
<text text-anchor="middle" x="241" y="-463" font-family="Helvetica,sans-Serif" font-size="10.00">vulpes</text>
</g>
<!-- dir_fbdf0309f37d26479fea532d5cc8eb08 -->
<g id="node2" class="node">
<title>dir_fbdf0309f37d26479fea532d5cc8eb08</title>
<g id="a_node2"><a xlink:href="dir_fbdf0309f37d26479fea532d5cc8eb08.html" target="_top" xlink:title="assemble">
<polygon fill="#a2b4d6" stroke="#404040" points="163,-420 99,-420 99,-401 163,-401 163,-420"/>
<text text-anchor="middle" x="131" y="-408" font-family="Helvetica,sans-Serif" font-size="10.00">assemble</text>
</a>
</g>
</g>
<!-- dir_6eff03e4f108943e0ec081c616da05c3 -->
<g id="node4" class="node">
<title>dir_6eff03e4f108943e0ec081c616da05c3</title>
<g id="a_node4"><a xlink:href="dir_6eff03e4f108943e0ec081c616da05c3.html" target="_top" xlink:title="dofs">
<polygon fill="#a2b4d6" stroke="#404040" points="242,-365 204,-365 204,-346 242,-346 242,-365"/>
<text text-anchor="middle" x="223" y="-353" font-family="Helvetica,sans-Serif" font-size="10.00">dofs</text>
</a>
</g>
</g>
<!-- dir_fbdf0309f37d26479fea532d5cc8eb08&#45;&gt;dir_6eff03e4f108943e0ec081c616da05c3 -->
<g id="edge3" class="edge">
<title>dir_fbdf0309f37d26479fea532d5cc8eb08&#45;&gt;dir_6eff03e4f108943e0ec081c616da05c3</title>
<g id="a_edge3"><a xlink:href="dir_000000_000009.html" target="_top">
<path fill="none" stroke="#63b8ff" d="M145.78,-400.98C160.18,-392.69 182.31,-379.94 199.19,-370.22"/>
<polygon fill="#63b8ff" stroke="#63b8ff" points="201.03,-373.19 207.95,-365.17 197.54,-367.13 201.03,-373.19"/>
</a>
</g>
<g id="a_edge3&#45;headlabel"><a xlink:href="dir_000000_000009.html" target="_top" xlink:title="1">
<text text-anchor="middle" x="199.33" y="-374.95" font-family="Helvetica,sans-Serif" font-size="10.00" fill="#63b8ff">1</text>
</a>
</g>
</g>
<!-- dir_1d42be232f14d112552dcd34db4d5ceb -->
<g id="node5" class="node">
<title>dir_1d42be232f14d112552dcd34db4d5ceb</title>
<g id="a_node5"><a xlink:href="dir_1d42be232f14d112552dcd34db4d5ceb.html" target="_top" xlink:title="fe">
<polygon fill="#a2b4d6" stroke="#404040" points="145.5,-310 116.5,-310 116.5,-291 145.5,-291 145.5,-310"/>
<text text-anchor="middle" x="131" y="-298" font-family="Helvetica,sans-Serif" font-size="10.00">fe</text>
</a>
</g>
</g>
<!-- dir_fbdf0309f37d26479fea532d5cc8eb08&#45;&gt;dir_1d42be232f14d112552dcd34db4d5ceb -->
<g id="edge1" class="edge">
<title>dir_fbdf0309f37d26479fea532d5cc8eb08&#45;&gt;dir_1d42be232f14d112552dcd34db4d5ceb</title>
<g id="a_edge1"><a xlink:href="dir_000000_000010.html" target="_top">
<path fill="none" stroke="#63b8ff" d="M131,-400.66C131,-383.17 131,-343.8 131,-320.27"/>
<polygon fill="#63b8ff" stroke="#63b8ff" points="134.5,-320.16 131,-310.16 127.5,-320.16 134.5,-320.16"/>
</a>
</g>
<g id="a_edge1&#45;headlabel"><a xlink:href="dir_000000_000010.html" target="_top" xlink:title="9">
<text text-anchor="middle" x="137.34" y="-321.25" font-family="Helvetica,sans-Serif" font-size="10.00" fill="#63b8ff">9</text>
</a>
</g>
</g>
<!-- dir_7020f5ed0a8de0aefef775a8859713a5 -->
<g id="node6" class="node">
<title>dir_7020f5ed0a8de0aefef775a8859713a5</title>
<g id="a_node6"><a xlink:href="dir_7020f5ed0a8de0aefef775a8859713a5.html" target="_top" xlink:title="geometry">
<polygon fill="#a2b4d6" stroke="#404040" points="234,-255 170,-255 170,-236 234,-236 234,-255"/>
<text text-anchor="middle" x="202" y="-243" font-family="Helvetica,sans-Serif" font-size="10.00">geometry</text>
</a>
</g>
</g>
<!-- dir_fbdf0309f37d26479fea532d5cc8eb08&#45;&gt;dir_7020f5ed0a8de0aefef775a8859713a5 -->
<g id="edge4" class="edge">
<title>dir_fbdf0309f37d26479fea532d5cc8eb08&#45;&gt;dir_7020f5ed0a8de0aefef775a8859713a5</title>
<g id="a_edge4"><a xlink:href="dir_000000_000013.html" target="_top">
<path fill="none" stroke="#63b8ff" d="M134.37,-400.79C142.05,-381.07 161.62,-331.55 180,-291 184,-282.17 188.74,-272.51 192.79,-264.45"/>
<polygon fill="#63b8ff" stroke="#63b8ff" points="196.03,-265.78 197.44,-255.28 189.79,-262.61 196.03,-265.78"/>
</a>
</g>
<g id="a_edge4&#45;headlabel"><a xlink:href="dir_000000_000013.html" target="_top" xlink:title="5">
<text text-anchor="middle" x="196.94" y="-267.77" font-family="Helvetica,sans-Serif" font-size="10.00" fill="#63b8ff">5</text>
</a>
</g>
</g>
<!-- dir_ffc3e8d0ffd5cf1b8ef4f07435f673f1 -->
<g id="node7" class="node">
<title>dir_ffc3e8d0ffd5cf1b8ef4f07435f673f1</title>
<g id="a_node7"><a xlink:href="dir_ffc3e8d0ffd5cf1b8ef4f07435f673f1.html" target="_top" xlink:title="la">
<polygon fill="#a2b4d6" stroke="#404040" points="70.5,-310 41.5,-310 41.5,-291 70.5,-291 70.5,-310"/>
<text text-anchor="middle" x="56" y="-298" font-family="Helvetica,sans-Serif" font-size="10.00">la</text>
</a>
</g>
</g>
<!-- dir_fbdf0309f37d26479fea532d5cc8eb08&#45;&gt;dir_ffc3e8d0ffd5cf1b8ef4f07435f673f1 -->
<g id="edge6" class="edge">
<title>dir_fbdf0309f37d26479fea532d5cc8eb08&#45;&gt;dir_ffc3e8d0ffd5cf1b8ef4f07435f673f1</title>
<g id="a_edge6"><a xlink:href="dir_000000_000014.html" target="_top">
<path fill="none" stroke="#63b8ff" d="M120.3,-400.84C110.45,-392.45 95.91,-378.99 86,-365 75.99,-350.87 67.85,-332.87 62.59,-319.65"/>
<polygon fill="#63b8ff" stroke="#63b8ff" points="65.84,-318.33 59.01,-310.23 59.3,-320.82 65.84,-318.33"/>
</a>
</g>
<g id="a_edge6&#45;headlabel"><a xlink:href="dir_000000_000014.html" target="_top" xlink:title="2">
<text text-anchor="middle" x="69.77" y="-318.18" font-family="Helvetica,sans-Serif" font-size="10.00" fill="#63b8ff">2</text>
</a>
</g>
</g>
<!-- dir_c7f7ab40232942afa5e2adeef9c82e3e -->
<g id="node10" class="node">
<title>dir_c7f7ab40232942afa5e2adeef9c82e3e</title>
<g id="a_node10"><a xlink:href="dir_c7f7ab40232942afa5e2adeef9c82e3e.html" target="_top" xlink:title="quadrature">
<polygon fill="#a2b4d6" stroke="#404040" points="127,-200 57,-200 57,-181 127,-181 127,-200"/>
<text text-anchor="middle" x="92" y="-188" font-family="Helvetica,sans-Serif" font-size="10.00">quadrature</text>
</a>
</g>
</g>
<!-- dir_fbdf0309f37d26479fea532d5cc8eb08&#45;&gt;dir_c7f7ab40232942afa5e2adeef9c82e3e -->
<g id="edge5" class="edge">
<title>dir_fbdf0309f37d26479fea532d5cc8eb08&#45;&gt;dir_c7f7ab40232942afa5e2adeef9c82e3e</title>
<g id="a_edge5"><a xlink:href="dir_000000_000019.html" target="_top">
<path fill="none" stroke="#63b8ff" d="M128.69,-400.77C124.2,-383.53 114.18,-343.84 108,-310 101.62,-275.06 96.62,-233.89 94.01,-210.43"/>
<polygon fill="#63b8ff" stroke="#63b8ff" points="97.45,-209.73 92.89,-200.17 90.49,-210.49 97.45,-209.73"/>
</a>
</g>
<g id="a_edge5&#45;headlabel"><a xlink:href="dir_000000_000019.html" target="_top" xlink:title="3">
<text text-anchor="middle" x="100.66" y="-210.5" font-family="Helvetica,sans-Serif" font-size="10.00" fill="#63b8ff">3</text>
</a>
</g>
</g>
<!-- dir_57fd5c05a3144478f1fe40cbcefca761 -->
<g id="node11" class="node">
<title>dir_57fd5c05a3144478f1fe40cbcefca761</title>
<g id="a_node11"><a xlink:href="dir_57fd5c05a3144478f1fe40cbcefca761.html" target="_top" xlink:title="utils">
<polygon fill="#a2b4d6" stroke="#404040" points="126,-90 88,-90 88,-71 126,-71 126,-90"/>
<text text-anchor="middle" x="107" y="-78" font-family="Helvetica,sans-Serif" font-size="10.00">utils</text>
</a>
</g>
</g>
<!-- dir_fbdf0309f37d26479fea532d5cc8eb08&#45;&gt;dir_57fd5c05a3144478f1fe40cbcefca761 -->
<g id="edge2" class="edge">
<title>dir_fbdf0309f37d26479fea532d5cc8eb08&#45;&gt;dir_57fd5c05a3144478f1fe40cbcefca761</title>
<g id="a_edge2"><a xlink:href="dir_000000_000023.html" target="_top">
<path fill="none" stroke="#63b8ff" d="M116.04,-400.91C92.08,-386.07 46.43,-353.05 33,-310 8.41,-231.15 13.88,-195.18 59,-126 66.39,-114.66 77.3,-104.24 86.85,-96.34"/>
<polygon fill="#63b8ff" stroke="#63b8ff" points="89.09,-99.03 94.76,-90.08 84.75,-93.54 89.09,-99.03"/>
</a>
</g>
<g id="a_edge2&#45;headlabel"><a xlink:href="dir_000000_000023.html" target="_top" xlink:title="2">
<text text-anchor="middle" x="88.03" y="-100.98" font-family="Helvetica,sans-Serif" font-size="10.00" fill="#63b8ff">2</text>
</a>
</g>
</g>
<!-- dir_76c7cfc4ed48b69da3495ed0a3f2a82b -->
<g id="node3" class="node">
<title>dir_76c7cfc4ed48b69da3495ed0a3f2a82b</title>
<g id="a_node3"><a xlink:href="dir_76c7cfc4ed48b69da3495ed0a3f2a82b.html" target="_top" xlink:title="datastructure">
<polygon fill="#a2b4d6" stroke="#404040" points="196,-35 114,-35 114,-16 196,-16 196,-35"/>
<text text-anchor="middle" x="155" y="-23" font-family="Helvetica,sans-Serif" font-size="10.00">datastructure</text>
</a>
</g>
</g>
<!-- dir_6eff03e4f108943e0ec081c616da05c3&#45;&gt;dir_76c7cfc4ed48b69da3495ed0a3f2a82b -->
<g id="edge9" class="edge">
<title>dir_6eff03e4f108943e0ec081c616da05c3&#45;&gt;dir_76c7cfc4ed48b69da3495ed0a3f2a82b</title>
<g id="a_edge9"><a xlink:href="dir_000009_000005.html" target="_top">
<path fill="none" stroke="#63b8ff" d="M230.16,-345.89C243.99,-328.36 273,-286.79 273,-246.5 273,-246.5 273,-246.5 273,-134.5 273,-87.67 221.79,-55.67 186.84,-39.28"/>
<polygon fill="#63b8ff" stroke="#63b8ff" points="188.03,-35.98 177.47,-35.08 185.16,-42.37 188.03,-35.98"/>
</a>
</g>
<g id="a_edge9&#45;headlabel"><a xlink:href="dir_000009_000005.html" target="_top" xlink:title="2">
<text text-anchor="middle" x="192.47" y="-32.36" font-family="Helvetica,sans-Serif" font-size="10.00" fill="#63b8ff">2</text>
</a>
</g>
</g>
<!-- dir_6eff03e4f108943e0ec081c616da05c3&#45;&gt;dir_1d42be232f14d112552dcd34db4d5ceb -->
<g id="edge7" class="edge">
<title>dir_6eff03e4f108943e0ec081c616da05c3&#45;&gt;dir_1d42be232f14d112552dcd34db4d5ceb</title>
<g id="a_edge7"><a xlink:href="dir_000009_000010.html" target="_top">
<path fill="none" stroke="#63b8ff" d="M208.22,-345.98C193.73,-337.64 171.43,-324.79 154.51,-315.04"/>
<polygon fill="#63b8ff" stroke="#63b8ff" points="156.16,-311.95 145.74,-309.99 152.66,-318.02 156.16,-311.95"/>
</a>
</g>
<g id="a_edge7&#45;headlabel"><a xlink:href="dir_000009_000010.html" target="_top" xlink:title="1">
<text text-anchor="middle" x="160.69" y="-308.79" font-family="Helvetica,sans-Serif" font-size="10.00" fill="#63b8ff">1</text>
</a>
</g>
</g>
<!-- dir_6eff03e4f108943e0ec081c616da05c3&#45;&gt;dir_57fd5c05a3144478f1fe40cbcefca761 -->
<g id="edge8" class="edge">
<title>dir_6eff03e4f108943e0ec081c616da05c3&#45;&gt;dir_57fd5c05a3144478f1fe40cbcefca761</title>
<g id="a_edge8"><a xlink:href="dir_000009_000023.html" target="_top">
<path fill="none" stroke="#63b8ff" d="M225.98,-345.65C236.67,-312.09 269.5,-191.26 212,-126 192.39,-103.74 159.77,-92.3 136.08,-86.63"/>
<polygon fill="#63b8ff" stroke="#63b8ff" points="136.74,-83.19 126.22,-84.48 135.25,-90.03 136.74,-83.19"/>
</a>
</g>
<g id="a_edge8&#45;headlabel"><a xlink:href="dir_000009_000023.html" target="_top" xlink:title="4">
<text text-anchor="middle" x="140.86" y="-78.68" font-family="Helvetica,sans-Serif" font-size="10.00" fill="#63b8ff">4</text>
</a>
</g>
</g>
<!-- dir_1d42be232f14d112552dcd34db4d5ceb&#45;&gt;dir_7020f5ed0a8de0aefef775a8859713a5 -->
<g id="edge11" class="edge">
<title>dir_1d42be232f14d112552dcd34db4d5ceb&#45;&gt;dir_7020f5ed0a8de0aefef775a8859713a5</title>
<g id="a_edge11"><a xlink:href="dir_000010_000013.html" target="_top">
<path fill="none" stroke="#63b8ff" d="M142.41,-290.98C153.11,-283 169.34,-270.88 182.16,-261.31"/>
<polygon fill="#63b8ff" stroke="#63b8ff" points="184.47,-263.96 190.39,-255.17 180.28,-258.35 184.47,-263.96"/>
</a>
</g>
<g id="a_edge11&#45;headlabel"><a xlink:href="dir_000010_000013.html" target="_top" xlink:title="9">
<text text-anchor="middle" x="183.28" y="-265.88" font-family="Helvetica,sans-Serif" font-size="10.00" fill="#63b8ff">9</text>
</a>
</g>
</g>
<!-- dir_f847fbc2a10034652ea68ba29427c8a1 -->
<g id="node8" class="node">
<title>dir_f847fbc2a10034652ea68ba29427c8a1</title>
<g id="a_node8"><a xlink:href="dir_f847fbc2a10034652ea68ba29427c8a1.html" target="_top" xlink:title="polynomials">
<polygon fill="#a2b4d6" stroke="#404040" points="193.5,-145 116.5,-145 116.5,-126 193.5,-126 193.5,-145"/>
<text text-anchor="middle" x="155" y="-133" font-family="Helvetica,sans-Serif" font-size="10.00">polynomials</text>
</a>
</g>
</g>
<!-- dir_1d42be232f14d112552dcd34db4d5ceb&#45;&gt;dir_f847fbc2a10034652ea68ba29427c8a1 -->
<g id="edge13" class="edge">
<title>dir_1d42be232f14d112552dcd34db4d5ceb&#45;&gt;dir_f847fbc2a10034652ea68ba29427c8a1</title>
<g id="a_edge13"><a xlink:href="dir_000010_000016.html" target="_top">
<path fill="none" stroke="#63b8ff" d="M133.17,-290.78C137.36,-273.56 146.55,-233.89 151,-200 152.96,-185.07 153.97,-168.04 154.48,-155.38"/>
<polygon fill="#63b8ff" stroke="#63b8ff" points="157.99,-155.28 154.83,-145.16 150.99,-155.04 157.99,-155.28"/>
</a>
</g>
<g id="a_edge13&#45;headlabel"><a xlink:href="dir_000010_000016.html" target="_top" xlink:title="11">
<text text-anchor="middle" x="160.7" y="-156.46" font-family="Helvetica,sans-Serif" font-size="10.00" fill="#63b8ff">11</text>
</a>
</g>
</g>
<!-- dir_1d42be232f14d112552dcd34db4d5ceb&#45;&gt;dir_c7f7ab40232942afa5e2adeef9c82e3e -->
<g id="edge12" class="edge">
<title>dir_1d42be232f14d112552dcd34db4d5ceb&#45;&gt;dir_c7f7ab40232942afa5e2adeef9c82e3e</title>
<g id="a_edge12"><a xlink:href="dir_000010_000019.html" target="_top">
<path fill="none" stroke="#63b8ff" d="M127.81,-290.66C121.43,-273.01 107.02,-233.09 98.55,-209.64"/>
<polygon fill="#63b8ff" stroke="#63b8ff" points="101.82,-208.38 95.13,-200.16 95.23,-210.75 101.82,-208.38"/>
</a>
</g>
<g id="a_edge12&#45;headlabel"><a xlink:href="dir_000010_000019.html" target="_top" xlink:title="6">
<text text-anchor="middle" x="105.71" y="-208.29" font-family="Helvetica,sans-Serif" font-size="10.00" fill="#63b8ff">6</text>
</a>
</g>
</g>
<!-- dir_1d42be232f14d112552dcd34db4d5ceb&#45;&gt;dir_57fd5c05a3144478f1fe40cbcefca761 -->
<g id="edge10" class="edge">
<title>dir_1d42be232f14d112552dcd34db4d5ceb&#45;&gt;dir_57fd5c05a3144478f1fe40cbcefca761</title>
<g id="a_edge10"><a xlink:href="dir_000010_000023.html" target="_top">
<path fill="none" stroke="#63b8ff" d="M131.74,-290.76C133.84,-265.11 139.53,-191.27 136,-181 129.42,-161.83 114.73,-164.12 108,-145 102.9,-130.52 103.06,-113.01 104.25,-100.05"/>
<polygon fill="#63b8ff" stroke="#63b8ff" points="107.74,-100.37 105.47,-90.02 100.79,-99.52 107.74,-100.37"/>
</a>
</g>
<g id="a_edge10&#45;headlabel"><a xlink:href="dir_000010_000023.html" target="_top" xlink:title="6">
<text text-anchor="middle" x="110.13" y="-101.78" font-family="Helvetica,sans-Serif" font-size="10.00" fill="#63b8ff">6</text>
</a>
</g>
</g>
<!-- dir_7020f5ed0a8de0aefef775a8859713a5&#45;&gt;dir_76c7cfc4ed48b69da3495ed0a3f2a82b -->
<g id="edge16" class="edge">
<title>dir_7020f5ed0a8de0aefef775a8859713a5&#45;&gt;dir_76c7cfc4ed48b69da3495ed0a3f2a82b</title>
<g id="a_edge16"><a xlink:href="dir_000013_000005.html" target="_top">
<path fill="none" stroke="#63b8ff" d="M206.37,-235.91C210.56,-227.14 216.6,-213.01 219,-200 222.88,-178.97 212.92,-128.75 212,-126 201.56,-94.85 180.9,-62.52 167.53,-43.47"/>
<polygon fill="#63b8ff" stroke="#63b8ff" points="170.3,-41.33 161.63,-35.25 164.62,-45.42 170.3,-41.33"/>
</a>
</g>
<g id="a_edge16&#45;headlabel"><a xlink:href="dir_000013_000005.html" target="_top" xlink:title="9">
<text text-anchor="middle" x="174.71" y="-40.1" font-family="Helvetica,sans-Serif" font-size="10.00" fill="#63b8ff">9</text>
</a>
</g>
</g>
<!-- dir_7020f5ed0a8de0aefef775a8859713a5&#45;&gt;dir_6eff03e4f108943e0ec081c616da05c3 -->
<g id="edge15" class="edge">
<title>dir_7020f5ed0a8de0aefef775a8859713a5&#45;&gt;dir_6eff03e4f108943e0ec081c616da05c3</title>
<g id="a_edge15"><a xlink:href="dir_000013_000009.html" target="_top">
<path fill="none" stroke="#63b8ff" d="M203.68,-255.16C207.07,-272.58 214.78,-312.2 219.36,-335.8"/>
<polygon fill="#63b8ff" stroke="#63b8ff" points="215.94,-336.51 221.28,-345.66 222.81,-335.18 215.94,-336.51"/>
</a>
</g>
<g id="a_edge15&#45;headlabel"><a xlink:href="dir_000013_000009.html" target="_top" xlink:title="1">
<text text-anchor="middle" x="212.46" y="-331.03" font-family="Helvetica,sans-Serif" font-size="10.00" fill="#63b8ff">1</text>
</a>
</g>
</g>
<!-- dir_7020f5ed0a8de0aefef775a8859713a5&#45;&gt;dir_c7f7ab40232942afa5e2adeef9c82e3e -->
<g id="edge17" class="edge">
<title>dir_7020f5ed0a8de0aefef775a8859713a5&#45;&gt;dir_c7f7ab40232942afa5e2adeef9c82e3e</title>
<g id="a_edge17"><a xlink:href="dir_000013_000019.html" target="_top">
<path fill="none" stroke="#63b8ff" d="M179.21,-235.98C159.99,-227.61 132.92,-214.7 113.94,-204.95"/>
<polygon fill="#63b8ff" stroke="#63b8ff" points="115.33,-201.72 104.85,-200.17 112.07,-207.92 115.33,-201.72"/>
</a>
</g>
<g id="a_edge17&#45;headlabel"><a xlink:href="dir_000013_000019.html" target="_top" xlink:title="2">
<text text-anchor="middle" x="119.83" y="-198.38" font-family="Helvetica,sans-Serif" font-size="10.00" fill="#63b8ff">2</text>
</a>
</g>
</g>
<!-- dir_7020f5ed0a8de0aefef775a8859713a5&#45;&gt;dir_57fd5c05a3144478f1fe40cbcefca761 -->
<g id="edge14" class="edge">
<title>dir_7020f5ed0a8de0aefef775a8859713a5&#45;&gt;dir_57fd5c05a3144478f1fe40cbcefca761</title>
<g id="a_edge14"><a xlink:href="dir_000013_000023.html" target="_top">
<path fill="none" stroke="#63b8ff" d="M205,-235.89C211.68,-215.09 225.48,-161.2 203,-126 188.4,-103.15 158.72,-91.85 136.2,-86.39"/>
<polygon fill="#63b8ff" stroke="#63b8ff" points="136.64,-82.9 126.13,-84.2 135.16,-89.74 136.64,-82.9"/>
</a>
</g>
<g id="a_edge14&#45;headlabel"><a xlink:href="dir_000013_000023.html" target="_top" xlink:title="11">
<text text-anchor="middle" x="140.76" y="-78.39" font-family="Helvetica,sans-Serif" font-size="10.00" fill="#63b8ff">11</text>
</a>
</g>
</g>
<!-- dir_ffc3e8d0ffd5cf1b8ef4f07435f673f1&#45;&gt;dir_c7f7ab40232942afa5e2adeef9c82e3e -->
<g id="edge19" class="edge">
<title>dir_ffc3e8d0ffd5cf1b8ef4f07435f673f1&#45;&gt;dir_c7f7ab40232942afa5e2adeef9c82e3e</title>
<g id="a_edge19"><a xlink:href="dir_000014_000019.html" target="_top">
<path fill="none" stroke="#63b8ff" d="M58.95,-290.66C64.8,-273.09 78.02,-233.45 85.85,-209.95"/>
<polygon fill="#63b8ff" stroke="#63b8ff" points="89.27,-210.75 89.11,-200.16 82.63,-208.54 89.27,-210.75"/>
</a>
</g>
<g id="a_edge19&#45;headlabel"><a xlink:href="dir_000014_000019.html" target="_top" xlink:title="1">
<text text-anchor="middle" x="90.83" y="-212.56" font-family="Helvetica,sans-Serif" font-size="10.00" fill="#63b8ff">1</text>
</a>
</g>
</g>
<!-- dir_ffc3e8d0ffd5cf1b8ef4f07435f673f1&#45;&gt;dir_57fd5c05a3144478f1fe40cbcefca761 -->
<g id="edge18" class="edge">
<title>dir_ffc3e8d0ffd5cf1b8ef4f07435f673f1&#45;&gt;dir_57fd5c05a3144478f1fe40cbcefca761</title>
<g id="a_edge18"><a xlink:href="dir_000014_000023.html" target="_top">
<path fill="none" stroke="#63b8ff" d="M53.53,-290.98C48.22,-271.23 37.04,-220.97 48,-181 56.8,-148.9 78.94,-116.65 93.45,-97.91"/>
<polygon fill="#63b8ff" stroke="#63b8ff" points="96.2,-100.08 99.69,-90.07 90.73,-95.72 96.2,-100.08"/>
</a>
</g>
<g id="a_edge18&#45;headlabel"><a xlink:href="dir_000014_000023.html" target="_top" xlink:title="4">
<text text-anchor="middle" x="96.18" y="-102.16" font-family="Helvetica,sans-Serif" font-size="10.00" fill="#63b8ff">4</text>
</a>
</g>
</g>
<!-- dir_f847fbc2a10034652ea68ba29427c8a1&#45;&gt;dir_76c7cfc4ed48b69da3495ed0a3f2a82b -->
<g id="edge21" class="edge">
<title>dir_f847fbc2a10034652ea68ba29427c8a1&#45;&gt;dir_76c7cfc4ed48b69da3495ed0a3f2a82b</title>
<g id="a_edge21"><a xlink:href="dir_000016_000005.html" target="_top">
<path fill="none" stroke="#63b8ff" d="M155,-125.66C155,-108.17 155,-68.8 155,-45.27"/>
<polygon fill="#63b8ff" stroke="#63b8ff" points="158.5,-45.16 155,-35.16 151.5,-45.16 158.5,-45.16"/>
</a>
</g>
<g id="a_edge21&#45;headlabel"><a xlink:href="dir_000016_000005.html" target="_top" xlink:title="4">
<text text-anchor="middle" x="161.34" y="-46.25" font-family="Helvetica,sans-Serif" font-size="10.00" fill="#63b8ff">4</text>
</a>
</g>
</g>
<!-- dir_f847fbc2a10034652ea68ba29427c8a1&#45;&gt;dir_57fd5c05a3144478f1fe40cbcefca761 -->
<g id="edge20" class="edge">
<title>dir_f847fbc2a10034652ea68ba29427c8a1&#45;&gt;dir_57fd5c05a3144478f1fe40cbcefca761</title>
<g id="a_edge20"><a xlink:href="dir_000016_000023.html" target="_top">
<path fill="none" stroke="#63b8ff" d="M147.07,-125.75C140.15,-118.11 129.93,-106.82 121.55,-97.56"/>
<polygon fill="#63b8ff" stroke="#63b8ff" points="124.09,-95.15 114.78,-90.09 118.9,-99.85 124.09,-95.15"/>
</a>
</g>
<g id="a_edge20&#45;headlabel"><a xlink:href="dir_000016_000023.html" target="_top" xlink:title="6">
<text text-anchor="middle" x="128.6" y="-93.41" font-family="Helvetica,sans-Serif" font-size="10.00" fill="#63b8ff">6</text>
</a>
</g>
</g>
<!-- dir_6c7e17ab64e974f30697ed0028c407ca -->
<g id="node9" class="node">
<title>dir_6c7e17ab64e974f30697ed0028c407ca</title>
<g id="a_node9"><a xlink:href="dir_6c7e17ab64e974f30697ed0028c407ca.html" target="_top" xlink:title="postprocessing">
<polygon fill="#a2b4d6" stroke="#404040" points="183,-475 93,-475 93,-456 183,-456 183,-475"/>
<text text-anchor="middle" x="138" y="-463" font-family="Helvetica,sans-Serif" font-size="10.00">postprocessing</text>
</a>
</g>
</g>
<!-- dir_6c7e17ab64e974f30697ed0028c407ca&#45;&gt;dir_fbdf0309f37d26479fea532d5cc8eb08 -->
<g id="edge24" class="edge">
<title>dir_6c7e17ab64e974f30697ed0028c407ca&#45;&gt;dir_fbdf0309f37d26479fea532d5cc8eb08</title>
<g id="a_edge24"><a xlink:href="dir_000017_000000.html" target="_top">
<path fill="none" stroke="#63b8ff" d="M136.84,-455.75C135.93,-448.8 134.61,-438.85 133.46,-430.13"/>
<polygon fill="#63b8ff" stroke="#63b8ff" points="136.91,-429.54 132.13,-420.09 129.97,-430.46 136.91,-429.54"/>
</a>
</g>
<g id="a_edge24&#45;headlabel"><a xlink:href="dir_000017_000000.html" target="_top" xlink:title="1">
<text text-anchor="middle" x="140.2" y="-430.24" font-family="Helvetica,sans-Serif" font-size="10.00" fill="#63b8ff">1</text>
</a>
</g>
</g>
<!-- dir_6c7e17ab64e974f30697ed0028c407ca&#45;&gt;dir_6eff03e4f108943e0ec081c616da05c3 -->
<g id="edge22" class="edge">
<title>dir_6c7e17ab64e974f30697ed0028c407ca&#45;&gt;dir_6eff03e4f108943e0ec081c616da05c3</title>
<g id="a_edge22"><a xlink:href="dir_000017_000009.html" target="_top">
<path fill="none" stroke="#63b8ff" d="M150.77,-455.76C162.11,-447.52 178.62,-434.33 190,-420 200.97,-406.18 209.93,-388.15 215.73,-374.83"/>
<polygon fill="#63b8ff" stroke="#63b8ff" points="219.07,-375.91 219.68,-365.34 212.61,-373.22 219.07,-375.91"/>
</a>
</g>
<g id="a_edge22&#45;headlabel"><a xlink:href="dir_000017_000009.html" target="_top" xlink:title="1">
<text text-anchor="middle" x="220.31" y="-377.82" font-family="Helvetica,sans-Serif" font-size="10.00" fill="#63b8ff">1</text>
</a>
</g>
</g>
<!-- dir_6c7e17ab64e974f30697ed0028c407ca&#45;&gt;dir_7020f5ed0a8de0aefef775a8859713a5 -->
<g id="edge23" class="edge">
<title>dir_6c7e17ab64e974f30697ed0028c407ca&#45;&gt;dir_7020f5ed0a8de0aefef775a8859713a5</title>
<g id="a_edge23"><a xlink:href="dir_000017_000013.html" target="_top">
<path fill="none" stroke="#63b8ff" d="M146.73,-455.8C154.63,-447.38 165.93,-433.9 172,-420 194.99,-367.36 200.4,-298.51 201.64,-265.62"/>
<polygon fill="#63b8ff" stroke="#63b8ff" points="205.15,-265.31 201.94,-255.22 198.15,-265.12 205.15,-265.31"/>
</a>
</g>
<g id="a_edge23&#45;headlabel"><a xlink:href="dir_000017_000013.html" target="_top" xlink:title="1">
<text text-anchor="middle" x="207.89" y="-266.49" font-family="Helvetica,sans-Serif" font-size="10.00" fill="#63b8ff">1</text>
</a>
</g>
</g>
<!-- dir_6c7e17ab64e974f30697ed0028c407ca&#45;&gt;dir_ffc3e8d0ffd5cf1b8ef4f07435f673f1 -->
<g id="edge25" class="edge">
<title>dir_6c7e17ab64e974f30697ed0028c407ca&#45;&gt;dir_ffc3e8d0ffd5cf1b8ef4f07435f673f1</title>
<g id="a_edge25"><a xlink:href="dir_000017_000014.html" target="_top">
<path fill="none" stroke="#63b8ff" d="M125.76,-455.92C114.99,-447.78 99.56,-434.66 90,-420 69.61,-388.74 61.22,-345.08 57.95,-320.42"/>
<polygon fill="#63b8ff" stroke="#63b8ff" points="61.4,-319.78 56.75,-310.26 54.44,-320.6 61.4,-319.78"/>
</a>
</g>
<g id="a_edge25&#45;headlabel"><a xlink:href="dir_000017_000014.html" target="_top" xlink:title="1">
<text text-anchor="middle" x="64.64" y="-320.52" font-family="Helvetica,sans-Serif" font-size="10.00" fill="#63b8ff">1</text>
</a>
</g>
</g>
<!-- dir_c7f7ab40232942afa5e2adeef9c82e3e&#45;&gt;dir_76c7cfc4ed48b69da3495ed0a3f2a82b -->
<g id="edge28" class="edge">
<title>dir_c7f7ab40232942afa5e2adeef9c82e3e&#45;&gt;dir_76c7cfc4ed48b69da3495ed0a3f2a82b</title>
<g id="a_edge28"><a xlink:href="dir_000019_000005.html" target="_top">
<path fill="none" stroke="#63b8ff" d="M87.73,-180.75C78.32,-160.08 58.21,-107.27 79,-71 87.36,-56.42 102.55,-46.16 117.17,-39.19"/>
<polygon fill="#63b8ff" stroke="#63b8ff" points="118.84,-42.28 126.61,-35.08 116.05,-35.86 118.84,-42.28"/>
</a>
</g>
<g id="a_edge28&#45;headlabel"><a xlink:href="dir_000019_000005.html" target="_top" xlink:title="2">
<text text-anchor="middle" x="116.68" y="-43.82" font-family="Helvetica,sans-Serif" font-size="10.00" fill="#63b8ff">2</text>
</a>
</g>
</g>
<!-- dir_c7f7ab40232942afa5e2adeef9c82e3e&#45;&gt;dir_7020f5ed0a8de0aefef775a8859713a5 -->
<g id="edge27" class="edge">
<title>dir_c7f7ab40232942afa5e2adeef9c82e3e&#45;&gt;dir_7020f5ed0a8de0aefef775a8859713a5</title>
<g id="a_edge27"><a xlink:href="dir_000019_000013.html" target="_top">
<path fill="none" stroke="#63b8ff" d="M115.14,-200.17C134.46,-208.6 161.53,-221.51 180.4,-231.23"/>
<polygon fill="#63b8ff" stroke="#63b8ff" points="178.96,-234.43 189.44,-235.98 182.22,-228.23 178.96,-234.43"/>
</a>
</g>
<g id="a_edge27&#45;headlabel"><a xlink:href="dir_000019_000013.html" target="_top" xlink:title="2">
<text text-anchor="middle" x="174.46" y="-232.77" font-family="Helvetica,sans-Serif" font-size="10.00" fill="#63b8ff">2</text>
</a>
</g>
</g>
<!-- dir_c7f7ab40232942afa5e2adeef9c82e3e&#45;&gt;dir_f847fbc2a10034652ea68ba29427c8a1 -->
<g id="edge29" class="edge">
<title>dir_c7f7ab40232942afa5e2adeef9c82e3e&#45;&gt;dir_f847fbc2a10034652ea68ba29427c8a1</title>
<g id="a_edge29"><a xlink:href="dir_000019_000016.html" target="_top">
<path fill="none" stroke="#63b8ff" d="M102.12,-180.98C111.44,-173.15 125.47,-161.34 136.74,-151.86"/>
<polygon fill="#63b8ff" stroke="#63b8ff" points="139.29,-154.29 144.69,-145.17 134.79,-148.93 139.29,-154.29"/>
</a>
</g>
<g id="a_edge29&#45;headlabel"><a xlink:href="dir_000019_000016.html" target="_top" xlink:title="3">
<text text-anchor="middle" x="138.37" y="-156.27" font-family="Helvetica,sans-Serif" font-size="10.00" fill="#63b8ff">3</text>
</a>
</g>
</g>
<!-- dir_c7f7ab40232942afa5e2adeef9c82e3e&#45;&gt;dir_57fd5c05a3144478f1fe40cbcefca761 -->
<g id="edge26" class="edge">
<title>dir_c7f7ab40232942afa5e2adeef9c82e3e&#45;&gt;dir_57fd5c05a3144478f1fe40cbcefca761</title>
<g id="a_edge26"><a xlink:href="dir_000019_000023.html" target="_top">
<path fill="none" stroke="#63b8ff" d="M91.12,-180.8C90.06,-168.5 88.82,-145.36 92,-126 93.47,-117.05 96.49,-107.47 99.44,-99.51"/>
<polygon fill="#63b8ff" stroke="#63b8ff" points="102.72,-100.74 103.14,-90.15 96.21,-98.16 102.72,-100.74"/>
</a>
</g>
<g id="a_edge26&#45;headlabel"><a xlink:href="dir_000019_000023.html" target="_top" xlink:title="6">
<text text-anchor="middle" x="104.04" y="-102.62" font-family="Helvetica,sans-Serif" font-size="10.00" fill="#63b8ff">6</text>
</a>
</g>
</g>
<!-- dir_57fd5c05a3144478f1fe40cbcefca761&#45;&gt;dir_76c7cfc4ed48b69da3495ed0a3f2a82b -->
<g id="edge30" class="edge">
<title>dir_57fd5c05a3144478f1fe40cbcefca761&#45;&gt;dir_76c7cfc4ed48b69da3495ed0a3f2a82b</title>
<g id="a_edge30"><a xlink:href="dir_000023_000005.html" target="_top">
<path fill="none" stroke="#63b8ff" d="M114.93,-70.75C121.85,-63.11 132.07,-51.82 140.45,-42.56"/>
<polygon fill="#63b8ff" stroke="#63b8ff" points="143.1,-44.85 147.22,-35.09 137.91,-40.15 143.1,-44.85"/>
</a>
</g>
<g id="a_edge30&#45;headlabel"><a xlink:href="dir_000023_000005.html" target="_top" xlink:title="1">
<text text-anchor="middle" x="142.79" y="-46.92" font-family="Helvetica,sans-Serif" font-size="10.00" fill="#63b8ff">1</text>
</a>
</g>
</g>
</g>
</svg>
