<?xml version="1.0" encoding="UTF-8" standalone="no"?>
<!DOCTYPE svg PUBLIC "-//W3C//DTD SVG 1.1//EN"
 "http://www.w3.org/Graphics/SVG/1.1/DTD/svg11.dtd">
<!-- Generated by graphviz version 12.2.1 (20241206.2353)
 -->
<!-- Title: /Users/ilariomazzieri/Desktop/vulpes/doc/developers&#45;guide Pages: 1 -->
<!--zoomable 95 -->

<svg id="main" version="1.1" xmlns="http://www.w3.org/2000/svg" xmlns:xlink="http://www.w3.org/1999/xlink" xml:space="preserve" onload="init(evt)">
<style type="text/css"><![CDATA[
.node, .edge {opacity: 0.7;}
.node.selected, .edge.selected {opacity: 1;}
.edge:hover path { stroke: red; }
.edge:hover polygon { stroke: red; fill: red; }
]]></style>

<defs>
  <circle id="rim" cx="0" cy="0" r="7"/>
  <circle id="rim2" cx="0" cy="0" r="3.5"/>
  <g id="zoomPlus">
    <use xlink:href="#rim" fill="#404040"><set attributeName="fill" to="#808080" begin="zoomplus.mouseover" end="zoomplus.mouseout"/></use>
    <path d="M-4,0h8M0,-4v8" fill="none" stroke="white" stroke-width="1.5" pointer-events="none"/>
  </g>
  <g id="zoomMin">
    <use xlink:href="#rim" fill="#404040"><set attributeName="fill" to="#808080" begin="zoomminus.mouseover" end="zoomminus.mouseout"/></use>
    <path d="M-4,0h8" fill="none" stroke="white" stroke-width="1.5" pointer-events="none"/>
  </g>
  <g id="arrowUp" transform="translate(30 24)">
    <use xlink:href="#rim"/>
    <path pointer-events="none" fill="none" stroke="white" stroke-width="1.5" d="M0,-3.0v7 M-2.5,-0.5L0,-3.0L2.5,-0.5"/>
  </g>
  <g id="arrowRight" transform="rotate(90) translate(36 -43)">
    <use xlink:href="#rim"/>
    <path pointer-events="none" fill="none" stroke="white" stroke-width="1.5" d="M0,-3.0v7 M-2.5,-0.5L0,-3.0L2.5,-0.5"/>
  </g>
  <g id="arrowDown" transform="rotate(180) translate(-30 -48)">
    <use xlink:href="#rim"/>
    <path pointer-events="none" fill="none" stroke="white" stroke-width="1.5" d="M0,-3.0v7 M-2.5,-0.5L0,-3.0L2.5,-0.5"/>
  </g>
  <g id="arrowLeft" transform="rotate(270) translate(-36 17)">
    <use xlink:href="#rim"/>
    <path pointer-events="none" fill="none" stroke="white" stroke-width="1.5" d="M0,-3.0v7 M-2.5,-0.5L0,-3.0L2.5,-0.5"/>
  </g>
  <g id="resetDef">
    <use xlink:href="#rim2" fill="#404040"><set attributeName="fill" to="#808080" begin="reset.mouseover" end="reset.mouseout"/></use>
  </g>
</defs>
<script type="application/ecmascript">
var viewWidth = 1023;
var viewHeight = 95;
var sectionId = 'dynsection-0';
</script>
<script type="application/ecmascript" xlink:href="svg.min.js"/>
<svg id="graph" class="graph">
<g id="viewport">
<title>/Users/ilariomazzieri/Desktop/vulpes/doc/developers&#45;guide</title>
<g id="clust1" class="cluster">
<title>clusterdir_585faa62ad6bd7c33d526ec77ec3b98e</title>
<g id="a_clust1"><a xlink:href="dir_585faa62ad6bd7c33d526ec77ec3b98e.html" target="_top" xlink:title="doc">
<polygon fill="#edf0f7" stroke="#7f7f7f" stroke-dasharray="5,2" points="8,-8 8,-78.5 1007,-78.5 1007,-8 8,-8"/>
<text text-anchor="middle" x="507.5" y="-65" font-family="Helvetica,sans-Serif" font-size="10.00">doc</text>
</a>
</g>
</g>
<g id="clust2" class="cluster">
<title>clusterdir_690c67bd23af40d7d4b2c73fef58f26e</title>
<g id="a_clust2"><a xlink:href="dir_690c67bd23af40d7d4b2c73fef58f26e.html" target="_top">
<polygon fill="#edf0f7" stroke="#404040" stroke-width="2" points="16,-16 16,-51.25 999,-51.25 999,-16 16,-16"/>
</a>
</g>
</g>
<!-- dir_690c67bd23af40d7d4b2c73fef58f26e -->
<g id="node1" class="node">
<title>dir_690c67bd23af40d7d4b2c73fef58f26e</title>
<text text-anchor="middle" x="69" y="-29.75" font-family="Helvetica,sans-Serif" font-size="10.00">developers&#45;guide</text>
</g>
<!-- dir_84da54a57b4b43d62290c67418d19b80 -->
<g id="node2" class="node">
<title>dir_84da54a57b4b43d62290c67418d19b80</title>
<g id="a_node2"><a xlink:href="dir_84da54a57b4b43d62290c67418d19b80.html" target="_top" xlink:title="commit&#45;and&#45;merge&#45;policy">
<polygon fill="#a2b4d6" stroke="#404040" points="257.75,-43.25 132.25,-43.25 132.25,-24 257.75,-24 257.75,-43.25"/>
<text text-anchor="middle" x="195" y="-29.75" font-family="Helvetica,sans-Serif" font-size="10.00">commit&#45;and&#45;merge&#45;policy</text>
</a>
</g>
</g>
<!-- dir_f1e1dadc418380c8e044623d25cb116f -->
<g id="node3" class="node">
<title>dir_f1e1dadc418380c8e044623d25cb116f</title>
<g id="a_node3"><a xlink:href="dir_f1e1dadc418380c8e044623d25cb116f.html" target="_top" xlink:title="compile&#45;native">
<polygon fill="#a2b4d6" stroke="#404040" points="354.5,-43.25 275.5,-43.25 275.5,-24 354.5,-24 354.5,-43.25"/>
<text text-anchor="middle" x="315" y="-29.75" font-family="Helvetica,sans-Serif" font-size="10.00">compile&#45;native</text>
</a>
</g>
</g>
<!-- dir_e18c48ed2c4a9054f0299bd00609e446 -->
<g id="node4" class="node">
<title>dir_e18c48ed2c4a9054f0299bd00609e446</title>
<g id="a_node4"><a xlink:href="dir_e18c48ed2c4a9054f0299bd00609e446.html" target="_top" xlink:title="compile&#45;options">
<polygon fill="#a2b4d6" stroke="#404040" points="457.12,-43.25 372.88,-43.25 372.88,-24 457.12,-24 457.12,-43.25"/>
<text text-anchor="middle" x="415" y="-29.75" font-family="Helvetica,sans-Serif" font-size="10.00">compile&#45;options</text>
</a>
</g>
</g>
<!-- dir_df552e320b5059f25d3af412f66365d9 -->
<g id="node5" class="node">
<title>dir_df552e320b5059f25d3af412f66365d9</title>
<g id="a_node5"><a xlink:href="dir_df552e320b5059f25d3af412f66365d9.html" target="_top" xlink:title="debugging">
<polygon fill="#a2b4d6" stroke="#404040" points="535.12,-43.25 474.88,-43.25 474.88,-24 535.12,-24 535.12,-43.25"/>
<text text-anchor="middle" x="505" y="-29.75" font-family="Helvetica,sans-Serif" font-size="10.00">debugging</text>
</a>
</g>
</g>
<!-- dir_070205b6dfa516de8ff904b21e1a7be2 -->
<g id="node6" class="node">
<title>dir_070205b6dfa516de8ff904b21e1a7be2</title>
<g id="a_node6"><a xlink:href="dir_070205b6dfa516de8ff904b21e1a7be2.html" target="_top" xlink:title="developer&#45;setup">
<polygon fill="#a2b4d6" stroke="#404040" points="638.5,-43.25 553.5,-43.25 553.5,-24 638.5,-24 638.5,-43.25"/>
<text text-anchor="middle" x="596" y="-29.75" font-family="Helvetica,sans-Serif" font-size="10.00">developer&#45;setup</text>
</a>
</g>
</g>
<!-- dir_b8cb4aed889b7e4997e872d312344e80 -->
<g id="node7" class="node">
<title>dir_b8cb4aed889b7e4997e872d312344e80</title>
<g id="a_node7"><a xlink:href="dir_b8cb4aed889b7e4997e872d312344e80.html" target="_top" xlink:title="profiling">
<polygon fill="#a2b4d6" stroke="#404040" points="705.88,-43.25 656.12,-43.25 656.12,-24 705.88,-24 705.88,-43.25"/>
<text text-anchor="middle" x="681" y="-29.75" font-family="Helvetica,sans-Serif" font-size="10.00">profiling</text>
</a>
</g>
</g>
<!-- dir_9d6bb5689e40a901f2bc8f8d9907fb2a -->
<g id="node8" class="node">
<title>dir_9d6bb5689e40a901f2bc8f8d9907fb2a</title>
<g id="a_node8"><a xlink:href="dir_9d6bb5689e40a901f2bc8f8d9907fb2a.html" target="_top" xlink:title="style&#45;guide">
<polygon fill="#a2b4d6" stroke="#404040" points="787.62,-43.25 724.38,-43.25 724.38,-24 787.62,-24 787.62,-43.25"/>
<text text-anchor="middle" x="756" y="-29.75" font-family="Helvetica,sans-Serif" font-size="10.00">style&#45;guide</text>
</a>
</g>
</g>
<!-- dir_64155ccf377989423172dc0d71fea91c -->
<g id="node9" class="node">
<title>dir_64155ccf377989423172dc0d71fea91c</title>
<g id="a_node9"><a xlink:href="dir_64155ccf377989423172dc0d71fea91c.html" target="_top" xlink:title="testing&#45;and&#45;coverage">
<polygon fill="#a2b4d6" stroke="#404040" points="912.38,-43.25 805.62,-43.25 805.62,-24 912.38,-24 912.38,-43.25"/>
<text text-anchor="middle" x="859" y="-29.75" font-family="Helvetica,sans-Serif" font-size="10.00">testing&#45;and&#45;coverage</text>
</a>
</g>
</g>
<!-- dir_10263efbb424e1b4bdc70073bf57e6a7 -->
<g id="node10" class="node">
<title>dir_10263efbb424e1b4bdc70073bf57e6a7</title>
<g id="a_node10"><a xlink:href="dir_10263efbb424e1b4bdc70073bf57e6a7.html" target="_top" xlink:title="workflows">
<polygon fill="#a2b4d6" stroke="#404040" points="991.12,-43.25 930.88,-43.25 930.88,-24 991.12,-24 991.12,-43.25"/>
<text text-anchor="middle" x="961" y="-29.75" font-family="Helvetica,sans-Serif" font-size="10.00">workflows</text>
</a>
</g>
</g>
</g>
</svg>

<g id="navigator" transform="translate(0 0)" fill="#404254">
  <rect fill="#f2f5e9" fill-opacity="0.5" stroke="#606060" stroke-width=".5" x="0" y="0" width="60" height="60"/>
  <use id="zoomplus" xlink:href="#zoomPlus" x="17" y="9" onmousedown="handleZoom(evt,'in')"/>
  <use id="zoomminus" xlink:href="#zoomMin" x="42" y="9" onmousedown="handleZoom(evt,'out')"/>
  <use id="reset" xlink:href="#resetDef" x="30" y="36" onmousedown="handleReset()"/>
   <use id="arrowup" xlink:href="#arrowUp" x="0" y="0" onmousedown="handlePan(0,-1)"/>
  <use id="arrowright" xlink:href="#arrowRight" x="0" y="0" onmousedown="handlePan(1,0)"/>
  <use id="arrowdown" xlink:href="#arrowDown" x="0" y="0" onmousedown="handlePan(0,1)"/>
  <use id="arrowleft" xlink:href="#arrowLeft" x="0" y="0" onmousedown="handlePan(-1,0)"/>
</g>
<svg viewBox="0 0 15 15" width="100%" height="30px" preserveAspectRatio="xMaxYMin meet">
 <g id="arrow_out" transform="scale(0.3 0.3)">
  <a xlink:href="dir_690c67bd23af40d7d4b2c73fef58f26e_dep_org.svg" target="_base">
   <rect id="button" ry="5" rx="5" y="6" x="6" height="38" width="38"
        fill="#f2f5e9" fill-opacity="0.5" stroke="#606060" stroke-width="1.0"/>
   <path id="arrow"
     d="M 11.500037,31.436501 C 11.940474,20.09759 22.043105,11.32322 32.158766,21.979434 L 37.068811,17.246167 C 37.068811,17.246167 37.088388,32 37.088388,32 L 22.160133,31.978069 C 22.160133,31.978069 26.997745,27.140456 26.997745,27.140456 C 18.528582,18.264221 13.291696,25.230495 11.500037,31.436501 z"
     style="fill:#404040;"/>
  </a>
 </g>
</svg>

<style type='text/css'>
<![CDATA[
[data-mouse-over-selected='false'] { opacity: 0.7; }
[data-mouse-over-selected='true']  { opacity: 1.0; }
]]>
</style>
<script type="application/ecmascript"><![CDATA[
document.addEventListener('DOMContentLoaded', (event) => {
  highlightEdges();
  highlightAdjacentNodes();
});
]]></script>
</svg>
