<?xml version="1.0" encoding="UTF-8" standalone="no"?>
<!DOCTYPE svg PUBLIC "-//W3C//DTD SVG 1.1//EN"
 "http://www.w3.org/Graphics/SVG/1.1/DTD/svg11.dtd">
<!-- Generated by graphviz version 2.42.4 (0)
 -->
<!-- Title: /__w/vulpes/vulpes/vulpes/fe Pages: 1 -->
<svg width="445pt" height="196pt"
 viewBox="0.00 0.00 445.00 196.00" xmlns="http://www.w3.org/2000/svg" xmlns:xlink="http://www.w3.org/1999/xlink">

<svg id="main" version="1.1" xmlns="http://www.w3.org/2000/svg" xmlns:xlink="http://www.w3.org/1999/xlink" xml:space="preserve" onload="init(evt)">
<style type="text/css"><![CDATA[
.node, .edge {opacity: 0.7;}
.node.selected, .edge.selected {opacity: 1;}
.edge:hover path { stroke: red; }
.edge:hover polygon { stroke: red; fill: red; }
]]></style>
<script type="application/ecmascript" xlink:href="svg.min.js"/>
<svg id="graph" class="graph">
<g id="graph0" class="graph" transform="scale(1 1) rotate(0) translate(4 192)">
<title>/__w/vulpes/vulpes/vulpes/fe</title>
<g id="clust1" class="cluster">
<title>clusterdir_35f1a0849d07b3f60f0d7ab29139efdc</title>
<g id="a_clust1"><a xlink:href="dir_35f1a0849d07b3f60f0d7ab29139efdc.html" target="_top" xlink:title="vulpes">
<polygon fill="#edf0f7" stroke="#404040" stroke-dasharray="5,2" points="8,-8 8,-180 429,-180 429,-8 8,-8"/>
<text text-anchor="middle" x="218.5" y="-168" font-family="Helvetica,sans-Serif" font-size="10.00">vulpes</text>
</a>
</g>
</g>
<g id="clust2" class="cluster">
<title>clusterdir_1d42be232f14d112552dcd34db4d5ceb</title>
<g id="a_clust2"><a xlink:href="dir_1d42be232f14d112552dcd34db4d5ceb.html" target="_top">
<polygon fill="#edf0f7" stroke="#404040" stroke-width="2" points="16,-63 16,-153 145,-153 145,-63 16,-63"/>
</a>
</g>
</g>
<!-- dir_57fd5c05a3144478f1fe40cbcefca761 -->
<g id="node1" class="node">
<title>dir_57fd5c05a3144478f1fe40cbcefca761</title>
<g id="a_node1"><a xlink:href="dir_57fd5c05a3144478f1fe40cbcefca761.html" target="_top" xlink:title="utils">
<polygon fill="#a2b4d6" stroke="red" points="152,-35 114,-35 114,-16 152,-16 152,-35"/>
<text text-anchor="middle" x="133" y="-23" font-family="Helvetica,sans-Serif" font-size="10.00">utils</text>
</a>
</g>
</g>
<!-- dir_7020f5ed0a8de0aefef775a8859713a5 -->
<g id="node2" class="node">
<title>dir_7020f5ed0a8de0aefef775a8859713a5</title>
<g id="a_node2"><a xlink:href="dir_7020f5ed0a8de0aefef775a8859713a5.html" target="_top" xlink:title="geometry">
<polygon fill="#a2b4d6" stroke="red" points="401,-90 337,-90 337,-71 401,-71 401,-90"/>
<text text-anchor="middle" x="369" y="-78" font-family="Helvetica,sans-Serif" font-size="10.00">geometry</text>
</a>
</g>
</g>
<!-- dir_c7f7ab40232942afa5e2adeef9c82e3e -->
<g id="node3" class="node">
<title>dir_c7f7ab40232942afa5e2adeef9c82e3e</title>
<g id="a_node3"><a xlink:href="dir_c7f7ab40232942afa5e2adeef9c82e3e.html" target="_top" xlink:title="quadrature">
<polygon fill="#a2b4d6" stroke="#404040" points="223,-90 153,-90 153,-71 223,-71 223,-90"/>
<text text-anchor="middle" x="188" y="-78" font-family="Helvetica,sans-Serif" font-size="10.00">quadrature</text>
</a>
</g>
</g>
<!-- dir_f847fbc2a10034652ea68ba29427c8a1 -->
<g id="node4" class="node">
<title>dir_f847fbc2a10034652ea68ba29427c8a1</title>
<g id="a_node4"><a xlink:href="dir_f847fbc2a10034652ea68ba29427c8a1.html" target="_top" xlink:title="polynomials">
<polygon fill="#a2b4d6" stroke="#404040" points="318.5,-90 241.5,-90 241.5,-71 318.5,-71 318.5,-90"/>
<text text-anchor="middle" x="280" y="-78" font-family="Helvetica,sans-Serif" font-size="10.00">polynomials</text>
</a>
</g>
</g>
<!-- dir_ffc3e8d0ffd5cf1b8ef4f07435f673f1 -->
<g id="node5" class="node">
<title>dir_ffc3e8d0ffd5cf1b8ef4f07435f673f1</title>
<g id="a_node5"><a xlink:href="dir_ffc3e8d0ffd5cf1b8ef4f07435f673f1.html" target="_top" xlink:title="la">
<polygon fill="#a2b4d6" stroke="#404040" points="83.5,-35 54.5,-35 54.5,-16 83.5,-16 83.5,-35"/>
<text text-anchor="middle" x="69" y="-23" font-family="Helvetica,sans-Serif" font-size="10.00">la</text>
</a>
</g>
</g>
<!-- dir_1d42be232f14d112552dcd34db4d5ceb -->
<g id="node6" class="node">
<title>dir_1d42be232f14d112552dcd34db4d5ceb</title>
<text text-anchor="middle" x="39" y="-133" font-family="Helvetica,sans-Serif" font-size="10.00">fe</text>
</g>
<!-- dir_1d42be232f14d112552dcd34db4d5ceb&#45;&gt;dir_57fd5c05a3144478f1fe40cbcefca761 -->
<g id="edge1" class="edge">
<title>dir_1d42be232f14d112552dcd34db4d5ceb&#45;&gt;dir_57fd5c05a3144478f1fe40cbcefca761</title>
<g id="a_edge1"><a xlink:href="dir_000013_000027.html" target="_top">
<path fill="none" stroke="#63b8ff" d="M53.81,-128.56C75.5,-119.56 114.28,-102.22 123,-90 132.22,-77.08 134.28,-58.93 134.29,-45.33"/>
<polygon fill="#63b8ff" stroke="#63b8ff" points="137.79,-45.08 133.93,-35.21 130.79,-45.32 137.79,-45.08"/>
</a>
</g>
<g id="a_edge1&#45;headlabel"><a xlink:href="dir_000013_000027.html" target="_top" xlink:title="6">
<text text-anchor="middle" x="140.75" y="-46.07" font-family="Helvetica,sans-Serif" font-size="10.00" fill="#63b8ff">6</text>
</a>
</g>
</g>
<!-- dir_1d42be232f14d112552dcd34db4d5ceb&#45;&gt;dir_7020f5ed0a8de0aefef775a8859713a5 -->
<g id="edge2" class="edge">
<title>dir_1d42be232f14d112552dcd34db4d5ceb&#45;&gt;dir_7020f5ed0a8de0aefef775a8859713a5</title>
<g id="a_edge2"><a xlink:href="dir_000013_000016.html" target="_top">
<path fill="none" stroke="#63b8ff" d="M53.95,-128.44C56.6,-127.52 59.36,-126.66 62,-126 174.59,-97.94 208.56,-109.44 326.65,-90.1"/>
<polygon fill="#63b8ff" stroke="#63b8ff" points="327.53,-93.5 336.81,-88.39 326.37,-86.6 327.53,-93.5"/>
</a>
</g>
<g id="a_edge2&#45;headlabel"><a xlink:href="dir_000013_000016.html" target="_top" xlink:title="9">
<text text-anchor="middle" x="324.45" y="-94.4" font-family="Helvetica,sans-Serif" font-size="10.00" fill="#63b8ff">9</text>
</a>
</g>
</g>
<!-- dir_1d42be232f14d112552dcd34db4d5ceb&#45;&gt;dir_c7f7ab40232942afa5e2adeef9c82e3e -->
<g id="edge3" class="edge">
<title>dir_1d42be232f14d112552dcd34db4d5ceb&#45;&gt;dir_c7f7ab40232942afa5e2adeef9c82e3e</title>
<g id="a_edge3"><a xlink:href="dir_000013_000022.html" target="_top">
<path fill="none" stroke="#63b8ff" d="M53.59,-129.07C56.38,-128.04 59.28,-126.98 62,-126 93.01,-114.79 128.43,-102.31 153.8,-93.43"/>
<polygon fill="#63b8ff" stroke="#63b8ff" points="155.05,-96.7 163.34,-90.09 152.74,-90.09 155.05,-96.7"/>
</a>
</g>
<g id="a_edge3&#45;headlabel"><a xlink:href="dir_000013_000022.html" target="_top" xlink:title="6">
<text text-anchor="middle" x="152.6" y="-98.06" font-family="Helvetica,sans-Serif" font-size="10.00" fill="#63b8ff">6</text>
</a>
</g>
</g>
<!-- dir_1d42be232f14d112552dcd34db4d5ceb&#45;&gt;dir_f847fbc2a10034652ea68ba29427c8a1 -->
<g id="edge5" class="edge">
<title>dir_1d42be232f14d112552dcd34db4d5ceb&#45;&gt;dir_f847fbc2a10034652ea68ba29427c8a1</title>
<g id="a_edge5"><a xlink:href="dir_000013_000019.html" target="_top">
<path fill="none" stroke="#63b8ff" d="M53.98,-128.59C56.63,-127.65 59.38,-126.75 62,-126 93.15,-117.12 177.03,-100.78 231.19,-90.56"/>
<polygon fill="#63b8ff" stroke="#63b8ff" points="232.09,-93.96 241.27,-88.67 230.8,-87.08 232.09,-93.96"/>
</a>
</g>
<g id="a_edge5&#45;headlabel"><a xlink:href="dir_000013_000019.html" target="_top" xlink:title="11">
<text text-anchor="middle" x="229.09" y="-94.91" font-family="Helvetica,sans-Serif" font-size="10.00" fill="#63b8ff">11</text>
</a>
</g>
</g>
<!-- dir_e4477d1d4b20ed17436b601b368f7cb3 -->
<g id="node7" class="node">
<title>dir_e4477d1d4b20ed17436b601b368f7cb3</title>
<g id="a_node7"><a xlink:href="dir_e4477d1d4b20ed17436b601b368f7cb3.html" target="_top" xlink:title="fe_expressions">
<polygon fill="#a2b4d6" stroke="#404040" points="114,-90 24,-90 24,-71 114,-71 114,-90"/>
<text text-anchor="middle" x="69" y="-78" font-family="Helvetica,sans-Serif" font-size="10.00">fe_expressions</text>
</a>
</g>
</g>
<!-- dir_1d42be232f14d112552dcd34db4d5ceb&#45;&gt;dir_e4477d1d4b20ed17436b601b368f7cb3 -->
<g id="edge4" class="edge">
<title>dir_1d42be232f14d112552dcd34db4d5ceb&#45;&gt;dir_e4477d1d4b20ed17436b601b368f7cb3</title>
<g id="a_edge4"><a xlink:href="dir_000013_000014.html" target="_top">
<path fill="none" stroke="#63b8ff" d="M43.95,-125.75C48.06,-118.49 54.03,-107.95 59.1,-98.98"/>
<polygon fill="#63b8ff" stroke="#63b8ff" points="62.26,-100.52 64.14,-90.09 56.17,-97.07 62.26,-100.52"/>
</a>
</g>
<g id="a_edge4&#45;headlabel"><a xlink:href="dir_000013_000014.html" target="_top" xlink:title="5">
<text text-anchor="middle" x="62.96" y="-102.54" font-family="Helvetica,sans-Serif" font-size="10.00" fill="#63b8ff">5</text>
</a>
</g>
</g>
<!-- dir_e4477d1d4b20ed17436b601b368f7cb3&#45;&gt;dir_57fd5c05a3144478f1fe40cbcefca761 -->
<g id="edge6" class="edge">
<title>dir_e4477d1d4b20ed17436b601b368f7cb3&#45;&gt;dir_57fd5c05a3144478f1fe40cbcefca761</title>
<g id="a_edge6"><a xlink:href="dir_000014_000027.html" target="_top">
<path fill="none" stroke="#63b8ff" d="M79.28,-70.98C88.84,-63.07 103.28,-51.11 114.78,-41.58"/>
<polygon fill="#63b8ff" stroke="#63b8ff" points="117.06,-44.24 122.53,-35.17 112.6,-38.85 117.06,-44.24"/>
</a>
</g>
<g id="a_edge6&#45;headlabel"><a xlink:href="dir_000014_000027.html" target="_top" xlink:title="2">
<text text-anchor="middle" x="116.1" y="-46.22" font-family="Helvetica,sans-Serif" font-size="10.00" fill="#63b8ff">2</text>
</a>
</g>
</g>
<!-- dir_e4477d1d4b20ed17436b601b368f7cb3&#45;&gt;dir_ffc3e8d0ffd5cf1b8ef4f07435f673f1 -->
<g id="edge7" class="edge">
<title>dir_e4477d1d4b20ed17436b601b368f7cb3&#45;&gt;dir_ffc3e8d0ffd5cf1b8ef4f07435f673f1</title>
<g id="a_edge7"><a xlink:href="dir_000014_000017.html" target="_top">
<path fill="none" stroke="#63b8ff" d="M69,-70.75C69,-63.8 69,-53.85 69,-45.13"/>
<polygon fill="#63b8ff" stroke="#63b8ff" points="72.5,-45.09 69,-35.09 65.5,-45.09 72.5,-45.09"/>
</a>
</g>
<g id="a_edge7&#45;headlabel"><a xlink:href="dir_000014_000017.html" target="_top" xlink:title="1">
<text text-anchor="middle" x="75.34" y="-46.18" font-family="Helvetica,sans-Serif" font-size="10.00" fill="#63b8ff">1</text>
</a>
</g>
</g>
<!-- dir_f25ceabd9d8a75987ca9d6abd5f8853c -->
<g id="node8" class="node">
<title>dir_f25ceabd9d8a75987ca9d6abd5f8853c</title>
<g id="a_node8"><a xlink:href="dir_f25ceabd9d8a75987ca9d6abd5f8853c.html" target="_top" xlink:title="fe_spaces">
<polygon fill="#a2b4d6" stroke="#404040" points="136.5,-145 71.5,-145 71.5,-126 136.5,-126 136.5,-145"/>
<text text-anchor="middle" x="104" y="-133" font-family="Helvetica,sans-Serif" font-size="10.00">fe_spaces</text>
</a>
</g>
</g>
<!-- dir_f25ceabd9d8a75987ca9d6abd5f8853c&#45;&gt;dir_57fd5c05a3144478f1fe40cbcefca761 -->
<g id="edge8" class="edge">
<title>dir_f25ceabd9d8a75987ca9d6abd5f8853c&#45;&gt;dir_57fd5c05a3144478f1fe40cbcefca761</title>
<g id="a_edge8"><a xlink:href="dir_000015_000027.html" target="_top">
<path fill="none" stroke="#63b8ff" d="M136.75,-134.87C208.28,-134.91 374.92,-130.55 410,-90 417.85,-80.92 417.91,-72.02 410,-63 378.03,-26.54 227.04,-24.77 162.44,-25.74"/>
<polygon fill="#63b8ff" stroke="#63b8ff" points="162.07,-22.25 152.13,-25.93 162.2,-29.24 162.07,-22.25"/>
</a>
</g>
<g id="a_edge8&#45;headlabel"><a xlink:href="dir_000015_000027.html" target="_top" xlink:title="1">
<text text-anchor="middle" x="165.61" y="-16.84" font-family="Helvetica,sans-Serif" font-size="10.00" fill="#63b8ff">1</text>
</a>
</g>
</g>
<!-- dir_f25ceabd9d8a75987ca9d6abd5f8853c&#45;&gt;dir_7020f5ed0a8de0aefef775a8859713a5 -->
<g id="edge9" class="edge">
<title>dir_f25ceabd9d8a75987ca9d6abd5f8853c&#45;&gt;dir_7020f5ed0a8de0aefef775a8859713a5</title>
<g id="a_edge9"><a xlink:href="dir_000015_000016.html" target="_top">
<path fill="none" stroke="#63b8ff" d="M136.66,-128.1C178.42,-119.9 253.22,-105.14 326.87,-90.22"/>
<polygon fill="#63b8ff" stroke="#63b8ff" points="327.67,-93.63 336.78,-88.21 326.28,-86.77 327.67,-93.63"/>
</a>
</g>
<g id="a_edge9&#45;headlabel"><a xlink:href="dir_000015_000016.html" target="_top" xlink:title="3">
<text text-anchor="middle" x="324.71" y="-94.62" font-family="Helvetica,sans-Serif" font-size="10.00" fill="#63b8ff">3</text>
</a>
</g>
</g>
<!-- dir_f25ceabd9d8a75987ca9d6abd5f8853c&#45;&gt;dir_c7f7ab40232942afa5e2adeef9c82e3e -->
<g id="edge10" class="edge">
<title>dir_f25ceabd9d8a75987ca9d6abd5f8853c&#45;&gt;dir_c7f7ab40232942afa5e2adeef9c82e3e</title>
<g id="a_edge10"><a xlink:href="dir_000015_000022.html" target="_top">
<path fill="none" stroke="#63b8ff" d="M117.5,-125.98C130.4,-117.84 150.1,-105.41 165.4,-95.76"/>
<polygon fill="#63b8ff" stroke="#63b8ff" points="167.67,-98.47 174.26,-90.17 163.93,-92.55 167.67,-98.47"/>
</a>
</g>
<g id="a_edge10&#45;headlabel"><a xlink:href="dir_000015_000022.html" target="_top" xlink:title="3">
<text text-anchor="middle" x="166.14" y="-100.29" font-family="Helvetica,sans-Serif" font-size="10.00" fill="#63b8ff">3</text>
</a>
</g>
</g>
<!-- dir_f25ceabd9d8a75987ca9d6abd5f8853c&#45;&gt;dir_f847fbc2a10034652ea68ba29427c8a1 -->
<g id="edge11" class="edge">
<title>dir_f25ceabd9d8a75987ca9d6abd5f8853c&#45;&gt;dir_f847fbc2a10034652ea68ba29427c8a1</title>
<g id="a_edge11"><a xlink:href="dir_000015_000019.html" target="_top">
<path fill="none" stroke="#63b8ff" d="M132.28,-125.98C161.95,-117.05 208.79,-102.94 241.75,-93.02"/>
<polygon fill="#63b8ff" stroke="#63b8ff" points="242.93,-96.32 251.5,-90.08 240.92,-89.61 242.93,-96.32"/>
</a>
</g>
<g id="a_edge11&#45;headlabel"><a xlink:href="dir_000015_000019.html" target="_top" xlink:title="7">
<text text-anchor="middle" x="240.31" y="-97.57" font-family="Helvetica,sans-Serif" font-size="10.00" fill="#63b8ff">7</text>
</a>
</g>
</g>
</g>
</svg>
</svg>

<style type='text/css'>
<![CDATA[
[data-mouse-over-selected='false'] { opacity: 0.7; }
[data-mouse-over-selected='true']  { opacity: 1.0; }
]]>
</style>
<script type="application/ecmascript"><![CDATA[
document.addEventListener('DOMContentLoaded', (event) => {
  highlightEdges();
  highlightAdjacentNodes();
});
]]></script>
</svg>
