<?xml version="1.0" encoding="UTF-8" standalone="no"?>
<!DOCTYPE svg PUBLIC "-//W3C//DTD SVG 1.1//EN"
 "http://www.w3.org/Graphics/SVG/1.1/DTD/svg11.dtd">
<!-- Generated by graphviz version 2.42.4 (0)
 -->
<!-- Title: /__w/vulpes/vulpes/vulpes/fe/dof_policy.hpp Pages: 1 -->
<!--zoomable 786 -->

<svg id="main" version="1.1" xmlns="http://www.w3.org/2000/svg" xmlns:xlink="http://www.w3.org/1999/xlink" xml:space="preserve" onload="init(evt)">
<style type="text/css"><![CDATA[
.node, .edge {opacity: 0.7;}
.node.selected, .edge.selected {opacity: 1;}
.edge:hover path { stroke: red; }
.edge:hover polygon { stroke: red; fill: red; }
]]></style>

<defs>
  <circle id="rim" cx="0" cy="0" r="7"/>
  <circle id="rim2" cx="0" cy="0" r="3.5"/>
  <g id="zoomPlus">
    <use xlink:href="#rim" fill="#404040"><set attributeName="fill" to="#808080" begin="zoomplus.mouseover" end="zoomplus.mouseout"/></use>
    <path d="M-4,0h8M0,-4v8" fill="none" stroke="white" stroke-width="1.5" pointer-events="none"/>
  </g>
  <g id="zoomMin">
    <use xlink:href="#rim" fill="#404040"><set attributeName="fill" to="#808080" begin="zoomminus.mouseover" end="zoomminus.mouseout"/></use>
    <path d="M-4,0h8" fill="none" stroke="white" stroke-width="1.5" pointer-events="none"/>
  </g>
  <g id="arrowUp" transform="translate(30 24)">
    <use xlink:href="#rim"/>
    <path pointer-events="none" fill="none" stroke="white" stroke-width="1.5" d="M0,-3.0v7 M-2.5,-0.5L0,-3.0L2.5,-0.5"/>
  </g>
  <g id="arrowRight" transform="rotate(90) translate(36 -43)">
    <use xlink:href="#rim"/>
    <path pointer-events="none" fill="none" stroke="white" stroke-width="1.5" d="M0,-3.0v7 M-2.5,-0.5L0,-3.0L2.5,-0.5"/>
  </g>
  <g id="arrowDown" transform="rotate(180) translate(-30 -48)">
    <use xlink:href="#rim"/>
    <path pointer-events="none" fill="none" stroke="white" stroke-width="1.5" d="M0,-3.0v7 M-2.5,-0.5L0,-3.0L2.5,-0.5"/>
  </g>
  <g id="arrowLeft" transform="rotate(270) translate(-36 17)">
    <use xlink:href="#rim"/>
    <path pointer-events="none" fill="none" stroke="white" stroke-width="1.5" d="M0,-3.0v7 M-2.5,-0.5L0,-3.0L2.5,-0.5"/>
  </g>
  <g id="resetDef">
    <use xlink:href="#rim2" fill="#404040"><set attributeName="fill" to="#808080" begin="reset.mouseover" end="reset.mouseout"/></use>
  </g>
</defs>
<script type="application/ecmascript">
var viewWidth = 1566;
var viewHeight = 786;
var sectionId = 'dynsection-1';
</script>
<script type="application/ecmascript" xlink:href="svg.min.js"/>
<svg id="graph" class="graph">
<g id="viewport">
<title>/__w/vulpes/vulpes/vulpes/fe/dof_policy.hpp</title>
<!-- Node1 -->
<g id="Node000001" class="node">
<title>Node1</title>
<g id="a_Node000001"><a xlink:title=" ">
<polygon fill="#999999" stroke="#666666" points="971,-778 834,-778 834,-748 971,-748 971,-778"/>
<text text-anchor="start" x="842" y="-766" font-family="Helvetica,sans-Serif" font-size="10.00">/__w/vulpes/vulpes</text>
<text text-anchor="middle" x="902.5" y="-755" font-family="Helvetica,sans-Serif" font-size="10.00">/vulpes/fe/dof_policy.hpp</text>
</a>
</g>
</g>
<!-- Node2 -->
<g id="Node000002" class="node">
<title>Node2</title>
<g id="a_Node000002"><a xlink:href="fe__space_8hpp.html" target="_top" xlink:title=" ">
<polygon fill="white" stroke="#666666" points="968.5,-712 836.5,-712 836.5,-682 968.5,-682 968.5,-712"/>
<text text-anchor="start" x="844.5" y="-700" font-family="Helvetica,sans-Serif" font-size="10.00">/__w/vulpes/vulpes</text>
<text text-anchor="middle" x="902.5" y="-689" font-family="Helvetica,sans-Serif" font-size="10.00">/vulpes/fe/fe_space.hpp</text>
</a>
</g>
</g>
<!-- Node1&#45;&gt;Node2 -->
<g id="edge1_Node000001_Node000002" class="edge">
<title>Node1&#45;&gt;Node2</title>
<g id="a_edge1_Node000001_Node000002"><a xlink:title=" ">
<path fill="none" stroke="#63b8ff" d="M902.5,-737.54C902.5,-728.96 902.5,-719.61 902.5,-712.16"/>
<polygon fill="#63b8ff" stroke="#63b8ff" points="899,-737.8 902.5,-747.8 906,-737.8 899,-737.8"/>
</a>
</g>
</g>
<!-- Node3 -->
<g id="Node000003" class="node">
<title>Node3</title>
<g id="a_Node000003"><a xlink:href="integrator__gauss_8hpp.html" target="_top" xlink:title=" ">
<polygon fill="white" stroke="#666666" points="324,-118 171,-118 171,-77 324,-77 324,-118"/>
<text text-anchor="start" x="179" y="-106" font-family="Helvetica,sans-Serif" font-size="10.00">/__w/vulpes/vulpes</text>
<text text-anchor="start" x="179" y="-95" font-family="Helvetica,sans-Serif" font-size="10.00">/vulpes/assemble/integrator</text>
<text text-anchor="middle" x="247.5" y="-84" font-family="Helvetica,sans-Serif" font-size="10.00">_gauss.hpp</text>
</a>
</g>
</g>
<!-- Node2&#45;&gt;Node3 -->
<g id="edge2_Node000002_Node000003" class="edge">
<title>Node2&#45;&gt;Node3</title>
<g id="a_edge2_Node000002_Node000003"><a xlink:title=" ">
<path fill="none" stroke="#63b8ff" d="M826.35,-693.56C661.26,-687.81 281,-671.91 228.5,-646 176.98,-620.57 142.5,-606.95 142.5,-549.5 142.5,-549.5 142.5,-549.5 142.5,-250.5 142.5,-206.79 136.96,-190.17 161.5,-154 171.77,-138.85 187.7,-126.91 203.07,-118.05"/>
<polygon fill="#63b8ff" stroke="#63b8ff" points="826.31,-697.06 836.43,-693.91 826.55,-690.06 826.31,-697.06"/>
</a>
</g>
</g>
<!-- Node4 -->
<g id="Node000004" class="node">
<title>Node4</title>
<g id="a_Node000004"><a xlink:href="integrator__qfree_8hpp.html" target="_top" xlink:title=" ">
<polygon fill="white" stroke="#666666" points="153,-118 0,-118 0,-77 153,-77 153,-118"/>
<text text-anchor="start" x="8" y="-106" font-family="Helvetica,sans-Serif" font-size="10.00">/__w/vulpes/vulpes</text>
<text text-anchor="start" x="8" y="-95" font-family="Helvetica,sans-Serif" font-size="10.00">/vulpes/assemble/integrator</text>
<text text-anchor="middle" x="76.5" y="-84" font-family="Helvetica,sans-Serif" font-size="10.00">_qfree.hpp</text>
</a>
</g>
</g>
<!-- Node2&#45;&gt;Node4 -->
<g id="edge3_Node000002_Node000004" class="edge">
<title>Node2&#45;&gt;Node4</title>
<g id="a_edge3_Node000002_Node000004"><a xlink:title=" ">
<path fill="none" stroke="#63b8ff" d="M826.38,-694.54C648.58,-690.62 216.68,-677.88 159.5,-646 113.45,-620.32 90.5,-602.22 90.5,-549.5 90.5,-549.5 90.5,-549.5 90.5,-250.5 90.5,-202.8 83.58,-147.03 79.47,-118.12"/>
<polygon fill="#63b8ff" stroke="#63b8ff" points="826.37,-698.04 836.44,-694.76 826.52,-691.04 826.37,-698.04"/>
</a>
</g>
</g>
<!-- Node6 -->
<g id="Node000006" class="node">
<title>Node6</title>
<g id="a_Node000006"><a xlink:href="integrator__simplexify_8hpp.html" target="_top" xlink:title=" ">
<polygon fill="white" stroke="#666666" points="495,-118 342,-118 342,-77 495,-77 495,-118"/>
<text text-anchor="start" x="350" y="-106" font-family="Helvetica,sans-Serif" font-size="10.00">/__w/vulpes/vulpes</text>
<text text-anchor="start" x="350" y="-95" font-family="Helvetica,sans-Serif" font-size="10.00">/vulpes/assemble/integrator</text>
<text text-anchor="middle" x="418.5" y="-84" font-family="Helvetica,sans-Serif" font-size="10.00">_simplexify.hpp</text>
</a>
</g>
</g>
<!-- Node2&#45;&gt;Node6 -->
<g id="edge5_Node000002_Node000006" class="edge">
<title>Node2&#45;&gt;Node6</title>
<g id="a_edge5_Node000002_Node000006"><a xlink:title=" ">
<path fill="none" stroke="#63b8ff" d="M826.12,-696.16C643.09,-694.5 194.5,-677.39 194.5,-549.5 194.5,-549.5 194.5,-549.5 194.5,-470.5 194.5,-355.99 222.43,-323.82 289.5,-231 304.1,-210.8 314.61,-212.35 332.5,-195 358.44,-169.85 385.77,-138.17 402.48,-118.11"/>
<polygon fill="#63b8ff" stroke="#63b8ff" points="826.18,-699.66 836.21,-696.24 826.24,-692.66 826.18,-699.66"/>
</a>
</g>
</g>
<!-- Node8 -->
<g id="Node000008" class="node">
<title>Node8</title>
<g id="a_Node000008"><a xlink:href="dof__handler_8hpp.html" target="_top" xlink:title=" ">
<polygon fill="white" stroke="#666666" points="1088,-640.5 931,-640.5 931,-610.5 1088,-610.5 1088,-640.5"/>
<text text-anchor="start" x="939" y="-628.5" font-family="Helvetica,sans-Serif" font-size="10.00">/__w/vulpes/vulpes</text>
<text text-anchor="middle" x="1009.5" y="-617.5" font-family="Helvetica,sans-Serif" font-size="10.00">/vulpes/dofs/dof_handler.hpp</text>
</a>
</g>
</g>
<!-- Node2&#45;&gt;Node8 -->
<g id="edge8_Node000002_Node000008" class="edge">
<title>Node2&#45;&gt;Node8</title>
<g id="a_edge8_Node000002_Node000008"><a xlink:title=" ">
<path fill="none" stroke="#63b8ff" d="M932.9,-676.25C950.44,-664.86 972.08,-650.81 987.88,-640.54"/>
<polygon fill="#63b8ff" stroke="#63b8ff" points="930.63,-673.55 924.15,-681.94 934.45,-679.42 930.63,-673.55"/>
</a>
</g>
</g>
<!-- Node10 -->
<g id="Node000010" class="node">
<title>Node10</title>
<g id="a_Node000010"><a xlink:href="fe__expr__base_8hpp.html" target="_top" xlink:title=" ">
<polygon fill="white" stroke="#666666" points="676,-569 535,-569 535,-528 676,-528 676,-569"/>
<text text-anchor="start" x="543" y="-557" font-family="Helvetica,sans-Serif" font-size="10.00">/__w/vulpes/vulpes</text>
<text text-anchor="start" x="543" y="-546" font-family="Helvetica,sans-Serif" font-size="10.00">/vulpes/fe/fe_expressions</text>
<text text-anchor="middle" x="605.5" y="-535" font-family="Helvetica,sans-Serif" font-size="10.00">/fe_expr_base.hpp</text>
</a>
</g>
</g>
<!-- Node2&#45;&gt;Node10 -->
<g id="edge11_Node000002_Node000010" class="edge">
<title>Node2&#45;&gt;Node10</title>
<g id="a_edge11_Node000002_Node000010"><a xlink:title=" ">
<path fill="none" stroke="#63b8ff" d="M864.75,-677.38C808.34,-649.55 702.55,-597.37 645.09,-569.03"/>
<polygon fill="#63b8ff" stroke="#63b8ff" points="863.51,-680.67 874.02,-681.95 866.6,-674.39 863.51,-680.67"/>
</a>
</g>
</g>
<!-- Node14 -->
<g id="Node000014" class="node">
<title>Node14</title>
<g id="a_Node000014"><a xlink:href="fe__vem_8hpp.html" target="_top" xlink:title=" ">
<polygon fill="white" stroke="#666666" points="869.5,-272 753.5,-272 753.5,-231 869.5,-231 869.5,-272"/>
<text text-anchor="start" x="761.5" y="-260" font-family="Helvetica,sans-Serif" font-size="10.00">/__w/vulpes/vulpes</text>
<text text-anchor="start" x="761.5" y="-249" font-family="Helvetica,sans-Serif" font-size="10.00">/vulpes/fe/fe_spaces</text>
<text text-anchor="middle" x="811.5" y="-238" font-family="Helvetica,sans-Serif" font-size="10.00">/fe_vem.hpp</text>
</a>
</g>
</g>
<!-- Node2&#45;&gt;Node14 -->
<g id="edge40_Node000002_Node000014" class="edge">
<title>Node2&#45;&gt;Node14</title>
<g id="a_edge40_Node000002_Node000014"><a xlink:title=" ">
<path fill="none" stroke="#63b8ff" d="M902.5,-671.82C902.5,-642.78 902.5,-592.58 902.5,-549.5 902.5,-549.5 902.5,-549.5 902.5,-393.5 902.5,-343.68 861.9,-297.5 834.93,-272.33"/>
<polygon fill="#63b8ff" stroke="#63b8ff" points="899,-671.86 902.5,-681.86 906,-671.86 899,-671.86"/>
</a>
</g>
</g>
<!-- Node20 -->
<g id="Node000020" class="node">
<title>Node20</title>
<g id="a_Node000020"><a xlink:href="fe__lagrange__simplex_8hpp.html" target="_top" xlink:title=" ">
<polygon fill="white" stroke="#666666" points="1288,-646 1145,-646 1145,-605 1288,-605 1288,-646"/>
<text text-anchor="start" x="1153" y="-634" font-family="Helvetica,sans-Serif" font-size="10.00">/__w/vulpes/vulpes</text>
<text text-anchor="start" x="1153" y="-623" font-family="Helvetica,sans-Serif" font-size="10.00">/vulpes/fe/fe_spaces</text>
<text text-anchor="middle" x="1216.5" y="-612" font-family="Helvetica,sans-Serif" font-size="10.00">/fe_lagrange_simplex.hpp</text>
</a>
</g>
</g>
<!-- Node2&#45;&gt;Node20 -->
<g id="edge33_Node000002_Node000020" class="edge">
<title>Node2&#45;&gt;Node20</title>
<g id="a_edge33_Node000002_Node000020"><a xlink:title=" ">
<path fill="none" stroke="#63b8ff" d="M977.26,-679.75C1021.78,-670.03 1079.39,-657.4 1130.5,-646 1135.13,-644.97 1139.9,-643.9 1144.71,-642.82"/>
<polygon fill="#63b8ff" stroke="#63b8ff" points="976.41,-676.35 967.39,-681.9 977.91,-683.19 976.41,-676.35"/>
</a>
</g>
</g>
<!-- Node22 -->
<g id="Node000022" class="node">
<title>Node22</title>
<g id="a_Node000022"><a xlink:href="fe__lagrange__tensor_8hpp.html" target="_top" xlink:title=" ">
<polygon fill="white" stroke="#666666" points="1248.5,-569 1114.5,-569 1114.5,-528 1248.5,-528 1248.5,-569"/>
<text text-anchor="start" x="1122.5" y="-557" font-family="Helvetica,sans-Serif" font-size="10.00">/__w/vulpes/vulpes</text>
<text text-anchor="start" x="1122.5" y="-546" font-family="Helvetica,sans-Serif" font-size="10.00">/vulpes/fe/fe_spaces</text>
<text text-anchor="middle" x="1181.5" y="-535" font-family="Helvetica,sans-Serif" font-size="10.00">/fe_lagrange_tensor.hpp</text>
</a>
</g>
</g>
<!-- Node2&#45;&gt;Node22 -->
<g id="edge37_Node000002_Node000022" class="edge">
<title>Node2&#45;&gt;Node22</title>
<g id="a_edge37_Node000002_Node000022"><a xlink:title=" ">
<path fill="none" stroke="#63b8ff" d="M978.66,-687.11C1016.23,-680.14 1060.99,-667.79 1096.5,-646 1105.02,-640.77 1143.18,-595.68 1165.37,-569.02"/>
<polygon fill="#63b8ff" stroke="#63b8ff" points="978.01,-683.67 968.77,-688.85 979.22,-690.56 978.01,-683.67"/>
</a>
</g>
</g>
<!-- Node23 -->
<g id="Node000023" class="node">
<title>Node23</title>
<g id="a_Node000023"><a xlink:href="fe__modal__simplex_8hpp.html" target="_top" xlink:title=" ">
<polygon fill="white" stroke="#666666" points="1558,-569 1427,-569 1427,-528 1558,-528 1558,-569"/>
<text text-anchor="start" x="1435" y="-557" font-family="Helvetica,sans-Serif" font-size="10.00">/__w/vulpes/vulpes</text>
<text text-anchor="start" x="1435" y="-546" font-family="Helvetica,sans-Serif" font-size="10.00">/vulpes/fe/fe_spaces</text>
<text text-anchor="middle" x="1492.5" y="-535" font-family="Helvetica,sans-Serif" font-size="10.00">/fe_modal_simplex.hpp</text>
</a>
</g>
</g>
<!-- Node2&#45;&gt;Node23 -->
<g id="edge38_Node000002_Node000023" class="edge">
<title>Node2&#45;&gt;Node23</title>
<g id="a_edge38_Node000002_Node000023"><a xlink:title=" ">
<path fill="none" stroke="#63b8ff" d="M979.04,-692.5C1077.86,-686.94 1243.54,-673.73 1297.5,-646 1319.6,-634.65 1314.74,-618.65 1335.5,-605 1351.2,-594.68 1391.44,-580.53 1427.25,-569.1"/>
<polygon fill="#63b8ff" stroke="#63b8ff" points="978.6,-689.02 968.81,-693.07 978.99,-696.01 978.6,-689.02"/>
</a>
</g>
</g>
<!-- Node24 -->
<g id="Node000024" class="node">
<title>Node24</title>
<g id="a_Node000024"><a xlink:href="fe__modal__tensor_8hpp.html" target="_top" xlink:title=" ">
<polygon fill="white" stroke="#666666" points="1466.5,-646 1344.5,-646 1344.5,-605 1466.5,-605 1466.5,-646"/>
<text text-anchor="start" x="1352.5" y="-634" font-family="Helvetica,sans-Serif" font-size="10.00">/__w/vulpes/vulpes</text>
<text text-anchor="start" x="1352.5" y="-623" font-family="Helvetica,sans-Serif" font-size="10.00">/vulpes/fe/fe_spaces</text>
<text text-anchor="middle" x="1405.5" y="-612" font-family="Helvetica,sans-Serif" font-size="10.00">/fe_modal_tensor.hpp</text>
</a>
</g>
</g>
<!-- Node2&#45;&gt;Node24 -->
<g id="edge39_Node000002_Node000024" class="edge">
<title>Node2&#45;&gt;Node24</title>
<g id="a_edge39_Node000002_Node000024"><a xlink:title=" ">
<path fill="none" stroke="#63b8ff" d="M978.74,-690.29C1064.71,-683.11 1208.44,-668.88 1330.5,-646 1335,-645.16 1339.62,-644.19 1344.26,-643.16"/>
<polygon fill="#63b8ff" stroke="#63b8ff" points="978.23,-686.82 968.55,-691.13 978.8,-693.8 978.23,-686.82"/>
</a>
</g>
</g>
<!-- Node25 -->
<g id="Node000025" class="node">
<title>Node25</title>
<g id="a_Node000025"><a xlink:href="fe__values_8hpp.html" target="_top" xlink:title=" ">
<polygon fill="white" stroke="#666666" points="673.5,-640.5 537.5,-640.5 537.5,-610.5 673.5,-610.5 673.5,-640.5"/>
<text text-anchor="start" x="545.5" y="-628.5" font-family="Helvetica,sans-Serif" font-size="10.00">/__w/vulpes/vulpes</text>
<text text-anchor="middle" x="605.5" y="-617.5" font-family="Helvetica,sans-Serif" font-size="10.00">/vulpes/fe/fe_values.hpp</text>
</a>
</g>
</g>
<!-- Node2&#45;&gt;Node25 -->
<g id="edge41_Node000002_Node000025" class="edge">
<title>Node2&#45;&gt;Node25</title>
<g id="a_edge41_Node000002_Node000025"><a xlink:title=" ">
<path fill="none" stroke="#63b8ff" d="M832.49,-679.62C781.72,-667.74 713.8,-651.84 665.51,-640.54"/>
<polygon fill="#63b8ff" stroke="#63b8ff" points="831.86,-683.06 842.4,-681.94 833.46,-676.25 831.86,-683.06"/>
</a>
</g>
</g>
<!-- Node5 -->
<g id="Node000005" class="node">
<title>Node5</title>
<g id="a_Node000005"><a xlink:href="integrator__vem_8hpp.html" target="_top" xlink:title=" ">
<polygon fill="white" stroke="#666666" points="324,-41 171,-41 171,0 324,0 324,-41"/>
<text text-anchor="start" x="179" y="-29" font-family="Helvetica,sans-Serif" font-size="10.00">/__w/vulpes/vulpes</text>
<text text-anchor="start" x="179" y="-18" font-family="Helvetica,sans-Serif" font-size="10.00">/vulpes/assemble/integrator</text>
<text text-anchor="middle" x="247.5" y="-7" font-family="Helvetica,sans-Serif" font-size="10.00">_vem.hpp</text>
</a>
</g>
</g>
<!-- Node4&#45;&gt;Node5 -->
<g id="edge4_Node000004_Node000005" class="edge">
<title>Node4&#45;&gt;Node5</title>
<g id="a_edge4_Node000004_Node000005"><a xlink:title=" ">
<path fill="none" stroke="#63b8ff" d="M130.4,-72.86C153.75,-62.62 180.75,-50.77 202.94,-41.04"/>
<polygon fill="#63b8ff" stroke="#63b8ff" points="128.73,-69.77 120.98,-76.99 131.55,-76.18 128.73,-69.77"/>
</a>
</g>
</g>
<!-- Node6&#45;&gt;Node5 -->
<g id="edge7_Node000006_Node000005" class="edge">
<title>Node6&#45;&gt;Node5</title>
<g id="a_edge7_Node000006_Node000005"><a xlink:title=" ">
<path fill="none" stroke="#63b8ff" d="M364.6,-72.86C341.25,-62.62 314.25,-50.77 292.06,-41.04"/>
<polygon fill="#63b8ff" stroke="#63b8ff" points="363.45,-76.18 374.02,-76.99 366.27,-69.77 363.45,-76.18"/>
</a>
</g>
</g>
<!-- Node7 -->
<g id="Node000007" class="node">
<title>Node7</title>
<g id="a_Node000007"><a xlink:href="dg__utils_8hpp.html" target="_top" xlink:title=" ">
<polygon fill="white" stroke="#666666" points="848,-41 731,-41 731,0 848,0 848,-41"/>
<text text-anchor="start" x="739" y="-29" font-family="Helvetica,sans-Serif" font-size="10.00">/__w/vulpes/vulpes</text>
<text text-anchor="start" x="739" y="-18" font-family="Helvetica,sans-Serif" font-size="10.00">/vulpes/assemble/dg</text>
<text text-anchor="middle" x="789.5" y="-7" font-family="Helvetica,sans-Serif" font-size="10.00">_utils.hpp</text>
</a>
</g>
</g>
<!-- Node6&#45;&gt;Node7 -->
<g id="edge6_Node000006_Node000007" class="edge">
<title>Node6&#45;&gt;Node7</title>
<g id="a_edge6_Node000006_Node000007"><a xlink:title=" ">
<path fill="none" stroke="#63b8ff" d="M505.42,-78.93C574.88,-64.89 670.33,-45.59 730.98,-33.33"/>
<polygon fill="#63b8ff" stroke="#63b8ff" points="504.48,-75.55 495.37,-80.96 505.87,-82.41 504.48,-75.55"/>
</a>
</g>
</g>
<!-- Node8&#45;&gt;Node7 -->
<g id="edge9_Node000008_Node000007" class="edge">
<title>Node8&#45;&gt;Node7</title>
<g id="a_edge9_Node000008_Node000007"><a xlink:title=" ">
<path fill="none" stroke="#63b8ff" d="M1037.56,-603.91C1048.51,-594.46 1060.18,-582.38 1067.5,-569 1088.49,-530.66 1086.5,-516.21 1086.5,-472.5 1086.5,-472.5 1086.5,-472.5 1086.5,-173.5 1086.5,-67.5 934.73,-35.38 848.18,-25.67"/>
<polygon fill="#63b8ff" stroke="#63b8ff" points="1035.28,-601.25 1029.78,-610.31 1039.73,-606.66 1035.28,-601.25"/>
</a>
</g>
</g>
<!-- Node9 -->
<g id="Node000009" class="node">
<title>Node9</title>
<g id="a_Node000009"><a xlink:href="project__solution_8hpp.html" target="_top" xlink:title=" ">
<polygon fill="white" stroke="#666666" points="1058.5,-569 930.5,-569 930.5,-528 1058.5,-528 1058.5,-569"/>
<text text-anchor="start" x="938.5" y="-557" font-family="Helvetica,sans-Serif" font-size="10.00">/__w/vulpes/vulpes</text>
<text text-anchor="start" x="938.5" y="-546" font-family="Helvetica,sans-Serif" font-size="10.00">/vulpes/postprocessing</text>
<text text-anchor="middle" x="994.5" y="-535" font-family="Helvetica,sans-Serif" font-size="10.00">/project_solution.hpp</text>
</a>
</g>
</g>
<!-- Node8&#45;&gt;Node9 -->
<g id="edge10_Node000008_Node000009" class="edge">
<title>Node8&#45;&gt;Node9</title>
<g id="a_edge10_Node000008_Node000009"><a xlink:title=" ">
<path fill="none" stroke="#63b8ff" d="M1004.71,-600.55C1002.69,-590.44 1000.36,-578.81 998.44,-569.2"/>
<polygon fill="#63b8ff" stroke="#63b8ff" points="1001.29,-601.27 1006.68,-610.39 1008.15,-599.9 1001.29,-601.27"/>
</a>
</g>
</g>
<!-- Node11 -->
<g id="Node000011" class="node">
<title>Node11</title>
<g id="a_Node000011"><a xlink:href="fe__expression_8hpp.html" target="_top" xlink:title=" ">
<polygon fill="white" stroke="#666666" points="635,-338 478,-338 478,-308 635,-308 635,-338"/>
<text text-anchor="start" x="486" y="-326" font-family="Helvetica,sans-Serif" font-size="10.00">/__w/vulpes/vulpes</text>
<text text-anchor="middle" x="556.5" y="-315" font-family="Helvetica,sans-Serif" font-size="10.00">/vulpes/fe/fe_expression.hpp</text>
</a>
</g>
</g>
<!-- Node10&#45;&gt;Node11 -->
<g id="edge12_Node000010_Node000011" class="edge">
<title>Node10&#45;&gt;Node11</title>
<g id="a_edge12_Node000010_Node000011"><a xlink:title=" ">
<path fill="none" stroke="#63b8ff" d="M582.32,-519.51C562.86,-494.06 536.51,-454.54 525.5,-415 520.61,-397.45 520.51,-391.53 525.5,-374 529.25,-360.84 537.57,-347.76 544.64,-338.28"/>
<polygon fill="#63b8ff" stroke="#63b8ff" points="579.72,-521.86 588.63,-527.59 585.23,-517.55 579.72,-521.86"/>
</a>
</g>
</g>
<!-- Node15 -->
<g id="Node000015" class="node">
<title>Node15</title>
<g id="a_Node000015"><a xlink:href="fe__expr__basis_8hpp.html" target="_top" xlink:title=" ">
<polygon fill="white" stroke="#666666" points="509,-492 368,-492 368,-451 509,-451 509,-492"/>
<text text-anchor="start" x="376" y="-480" font-family="Helvetica,sans-Serif" font-size="10.00">/__w/vulpes/vulpes</text>
<text text-anchor="start" x="376" y="-469" font-family="Helvetica,sans-Serif" font-size="10.00">/vulpes/fe/fe_expressions</text>
<text text-anchor="middle" x="438.5" y="-458" font-family="Helvetica,sans-Serif" font-size="10.00">/fe_expr_basis.hpp</text>
</a>
</g>
</g>
<!-- Node10&#45;&gt;Node15 -->
<g id="edge21_Node000010_Node000015" class="edge">
<title>Node10&#45;&gt;Node15</title>
<g id="a_edge21_Node000010_Node000015"><a xlink:title=" ">
<path fill="none" stroke="#63b8ff" d="M552.86,-523.86C530.06,-513.62 503.68,-501.77 482.01,-492.04"/>
<polygon fill="#63b8ff" stroke="#63b8ff" points="551.5,-527.09 562.06,-527.99 554.37,-520.7 551.5,-527.09"/>
</a>
</g>
</g>
<!-- Node16 -->
<g id="Node000016" class="node">
<title>Node16</title>
<g id="a_Node000016"><a xlink:href="fe__expr__vector_8hpp.html" target="_top" xlink:title="Bilinear/linear expressions for vector&#45;valued FE spaces.">
<polygon fill="white" stroke="#666666" points="440,-415 299,-415 299,-374 440,-374 440,-415"/>
<text text-anchor="start" x="307" y="-403" font-family="Helvetica,sans-Serif" font-size="10.00">/__w/vulpes/vulpes</text>
<text text-anchor="start" x="307" y="-392" font-family="Helvetica,sans-Serif" font-size="10.00">/vulpes/fe/fe_expressions</text>
<text text-anchor="middle" x="369.5" y="-381" font-family="Helvetica,sans-Serif" font-size="10.00">/fe_expr_vector.hpp</text>
</a>
</g>
</g>
<!-- Node10&#45;&gt;Node16 -->
<g id="edge32_Node000010_Node000016" class="edge">
<title>Node10&#45;&gt;Node16</title>
<g id="a_edge32_Node000010_Node000016"><a xlink:title=" ">
<path fill="none" stroke="#63b8ff" d="M524.69,-540.14C460.85,-532.46 379.16,-517.81 358.5,-492 341.12,-470.28 350.71,-436.47 359.73,-415.18"/>
<polygon fill="#63b8ff" stroke="#63b8ff" points="524.44,-543.63 534.78,-541.32 525.25,-536.68 524.44,-543.63"/>
</a>
</g>
</g>
<!-- Node17 -->
<g id="Node000017" class="node">
<title>Node17</title>
<g id="a_Node000017"><a xlink:href="fe__expr__func_8hpp.html" target="_top" xlink:title=" ">
<polygon fill="white" stroke="#666666" points="676,-415 535,-415 535,-374 676,-374 676,-415"/>
<text text-anchor="start" x="543" y="-403" font-family="Helvetica,sans-Serif" font-size="10.00">/__w/vulpes/vulpes</text>
<text text-anchor="start" x="543" y="-392" font-family="Helvetica,sans-Serif" font-size="10.00">/vulpes/fe/fe_expressions</text>
<text text-anchor="middle" x="605.5" y="-381" font-family="Helvetica,sans-Serif" font-size="10.00">/fe_expr_func.hpp</text>
</a>
</g>
</g>
<!-- Node10&#45;&gt;Node17 -->
<g id="edge25_Node000010_Node000017" class="edge">
<title>Node10&#45;&gt;Node17</title>
<g id="a_edge25_Node000010_Node000017"><a xlink:title=" ">
<path fill="none" stroke="#63b8ff" d="M605.5,-517.58C605.5,-487.36 605.5,-441.53 605.5,-415.47"/>
<polygon fill="#63b8ff" stroke="#63b8ff" points="602,-517.94 605.5,-527.94 609,-517.94 602,-517.94"/>
</a>
</g>
</g>
<!-- Node18 -->
<g id="Node000018" class="node">
<title>Node18</title>
<g id="a_Node000018"><a xlink:href="fe__expr__op_8hpp.html" target="_top" xlink:title=" ">
<polygon fill="white" stroke="#666666" points="874,-415 733,-415 733,-374 874,-374 874,-415"/>
<text text-anchor="start" x="741" y="-403" font-family="Helvetica,sans-Serif" font-size="10.00">/__w/vulpes/vulpes</text>
<text text-anchor="start" x="741" y="-392" font-family="Helvetica,sans-Serif" font-size="10.00">/vulpes/fe/fe_expressions</text>
<text text-anchor="middle" x="803.5" y="-381" font-family="Helvetica,sans-Serif" font-size="10.00">/fe_expr_op.hpp</text>
</a>
</g>
</g>
<!-- Node10&#45;&gt;Node18 -->
<g id="edge27_Node000010_Node000018" class="edge">
<title>Node10&#45;&gt;Node18</title>
<g id="a_edge27_Node000010_Node000018"><a xlink:title=" ">
<path fill="none" stroke="#63b8ff" d="M686.37,-540.41C720.86,-533.28 758.76,-519.28 783.5,-492 802.58,-470.96 805.32,-436.63 804.9,-415.09"/>
<polygon fill="#63b8ff" stroke="#63b8ff" points="685.45,-537.02 676.28,-542.32 686.76,-543.9 685.45,-537.02"/>
</a>
</g>
</g>
<!-- Node19 -->
<g id="Node000019" class="node">
<title>Node19</title>
<g id="a_Node000019"><a xlink:href="fe__expr__unary_8hpp.html" target="_top" xlink:title=" ">
<polygon fill="white" stroke="#666666" points="775,-492 634,-492 634,-451 775,-451 775,-492"/>
<text text-anchor="start" x="642" y="-480" font-family="Helvetica,sans-Serif" font-size="10.00">/__w/vulpes/vulpes</text>
<text text-anchor="start" x="642" y="-469" font-family="Helvetica,sans-Serif" font-size="10.00">/vulpes/fe/fe_expressions</text>
<text text-anchor="middle" x="704.5" y="-458" font-family="Helvetica,sans-Serif" font-size="10.00">/fe_expr_unary.hpp</text>
</a>
</g>
</g>
<!-- Node10&#45;&gt;Node19 -->
<g id="edge29_Node000010_Node000019" class="edge">
<title>Node10&#45;&gt;Node19</title>
<g id="a_edge29_Node000010_Node000019"><a xlink:title=" ">
<path fill="none" stroke="#63b8ff" d="M639.4,-521.82C652.21,-512.11 666.57,-501.24 678.53,-492.17"/>
<polygon fill="#63b8ff" stroke="#63b8ff" points="637.11,-519.16 631.25,-527.99 641.34,-524.74 637.11,-519.16"/>
</a>
</g>
</g>
<!-- Node11&#45;&gt;Node7 -->
<g id="edge13_Node000011_Node000007" class="edge">
<title>Node11&#45;&gt;Node7</title>
<g id="a_edge13_Node000011_Node000007"><a xlink:title=" ">
<path fill="none" stroke="#63b8ff" d="M573.57,-299.99C617.25,-243.65 732.58,-94.91 774.23,-41.2"/>
<polygon fill="#63b8ff" stroke="#63b8ff" points="570.79,-297.86 567.43,-307.91 576.32,-302.15 570.79,-297.86"/>
</a>
</g>
</g>
<!-- Node12 -->
<g id="Node000012" class="node">
<title>Node12</title>
<g id="a_Node000012"><a xlink:href="integrator__base_8hpp.html" target="_top" xlink:title=" ">
<polygon fill="white" stroke="#666666" points="324,-195 171,-195 171,-154 324,-154 324,-195"/>
<text text-anchor="start" x="179" y="-183" font-family="Helvetica,sans-Serif" font-size="10.00">/__w/vulpes/vulpes</text>
<text text-anchor="start" x="179" y="-172" font-family="Helvetica,sans-Serif" font-size="10.00">/vulpes/assemble/integrator</text>
<text text-anchor="middle" x="247.5" y="-161" font-family="Helvetica,sans-Serif" font-size="10.00">_base.hpp</text>
</a>
</g>
</g>
<!-- Node11&#45;&gt;Node12 -->
<g id="edge14_Node000011_Node000012" class="edge">
<title>Node11&#45;&gt;Node12</title>
<g id="a_edge14_Node000011_Node000012"><a xlink:title=" ">
<path fill="none" stroke="#63b8ff" d="M539.02,-299.95C521.37,-279.16 492.23,-248.61 460.5,-231 418.49,-207.68 366.35,-193.87 324.18,-185.87"/>
<polygon fill="#63b8ff" stroke="#63b8ff" points="536.34,-302.21 545.42,-307.67 541.73,-297.74 536.34,-302.21"/>
</a>
</g>
</g>
<!-- Node13 -->
<g id="Node000013" class="node">
<title>Node13</title>
<g id="a_Node000013"><a xlink:href="integrator__traits_8hpp.html" target="_top" xlink:title=" ">
<polygon fill="white" stroke="#666666" points="452,-272 299,-272 299,-231 452,-231 452,-272"/>
<text text-anchor="start" x="307" y="-260" font-family="Helvetica,sans-Serif" font-size="10.00">/__w/vulpes/vulpes</text>
<text text-anchor="start" x="307" y="-249" font-family="Helvetica,sans-Serif" font-size="10.00">/vulpes/assemble/integrator</text>
<text text-anchor="middle" x="375.5" y="-238" font-family="Helvetica,sans-Serif" font-size="10.00">_traits.hpp</text>
</a>
</g>
</g>
<!-- Node11&#45;&gt;Node13 -->
<g id="edge18_Node000011_Node000013" class="edge">
<title>Node11&#45;&gt;Node13</title>
<g id="a_edge18_Node000011_Node000013"><a xlink:title=" ">
<path fill="none" stroke="#63b8ff" d="M510.39,-304.29C484.77,-294.46 452.84,-282.2 426.48,-272.07"/>
<polygon fill="#63b8ff" stroke="#63b8ff" points="509.28,-307.62 519.87,-307.94 511.79,-301.08 509.28,-307.62"/>
</a>
</g>
</g>
<!-- Node11&#45;&gt;Node14 -->
<g id="edge20_Node000011_Node000014" class="edge">
<title>Node11&#45;&gt;Node14</title>
<g id="a_edge20_Node000011_Node000014"><a xlink:title=" ">
<path fill="none" stroke="#63b8ff" d="M618,-305.24C659.12,-294.03 712.88,-279.38 753.29,-268.36"/>
<polygon fill="#63b8ff" stroke="#63b8ff" points="616.83,-301.93 608.1,-307.94 618.67,-308.68 616.83,-301.93"/>
</a>
</g>
</g>
<!-- Node12&#45;&gt;Node3 -->
<g id="edge15_Node000012_Node000003" class="edge">
<title>Node12&#45;&gt;Node3</title>
<g id="a_edge15_Node000012_Node000003"><a xlink:title=" ">
<path fill="none" stroke="#63b8ff" d="M247.5,-143.69C247.5,-135.08 247.5,-125.9 247.5,-118.07"/>
<polygon fill="#63b8ff" stroke="#63b8ff" points="244,-143.79 247.5,-153.79 251,-143.79 244,-143.79"/>
</a>
</g>
</g>
<!-- Node12&#45;&gt;Node4 -->
<g id="edge16_Node000012_Node000004" class="edge">
<title>Node12&#45;&gt;Node4</title>
<g id="a_edge16_Node000012_Node000004"><a xlink:title=" ">
<path fill="none" stroke="#63b8ff" d="M193.6,-149.86C170.25,-139.62 143.25,-127.77 121.06,-118.04"/>
<polygon fill="#63b8ff" stroke="#63b8ff" points="192.45,-153.18 203.02,-153.99 195.27,-146.77 192.45,-153.18"/>
</a>
</g>
</g>
<!-- Node12&#45;&gt;Node6 -->
<g id="edge17_Node000012_Node000006" class="edge">
<title>Node12&#45;&gt;Node6</title>
<g id="a_edge17_Node000012_Node000006"><a xlink:title=" ">
<path fill="none" stroke="#63b8ff" d="M301.4,-149.86C324.75,-139.62 351.75,-127.77 373.94,-118.04"/>
<polygon fill="#63b8ff" stroke="#63b8ff" points="299.73,-146.77 291.98,-153.99 302.55,-153.18 299.73,-146.77"/>
</a>
</g>
</g>
<!-- Node13&#45;&gt;Node12 -->
<g id="edge19_Node000013_Node000012" class="edge">
<title>Node13&#45;&gt;Node12</title>
<g id="a_edge19_Node000013_Node000012"><a xlink:title=" ">
<path fill="none" stroke="#63b8ff" d="M333.55,-225.92C316.53,-215.95 297.13,-204.58 281.07,-195.17"/>
<polygon fill="#63b8ff" stroke="#63b8ff" points="331.81,-228.95 342.2,-230.99 335.35,-222.92 331.81,-228.95"/>
</a>
</g>
</g>
<!-- Node15&#45;&gt;Node11 -->
<g id="edge22_Node000015_Node000011" class="edge">
<title>Node15&#45;&gt;Node11</title>
<g id="a_edge22_Node000015_Node000011"><a xlink:title=" ">
<path fill="none" stroke="#63b8ff" d="M450.92,-441.62C460.48,-421.38 474.99,-394.41 492.5,-374 504.52,-359.98 521,-347.21 534.23,-338.09"/>
<polygon fill="#63b8ff" stroke="#63b8ff" points="447.63,-440.4 446.64,-450.95 453.99,-443.32 447.63,-440.4"/>
</a>
</g>
</g>
<!-- Node15&#45;&gt;Node16 -->
<g id="edge23_Node000015_Node000016" class="edge">
<title>Node15&#45;&gt;Node16</title>
<g id="a_edge23_Node000015_Node000016"><a xlink:title=" ">
<path fill="none" stroke="#63b8ff" d="M413.41,-443.23C404.84,-433.91 395.42,-423.67 387.51,-415.07"/>
<polygon fill="#63b8ff" stroke="#63b8ff" points="411.02,-445.81 420.37,-450.79 416.18,-441.07 411.02,-445.81"/>
</a>
</g>
</g>
<!-- Node16&#45;&gt;Node11 -->
<g id="edge24_Node000016_Node000011" class="edge">
<title>Node16&#45;&gt;Node11</title>
<g id="a_edge24_Node000016_Node000011"><a xlink:title=" ">
<path fill="none" stroke="#63b8ff" d="M431.68,-370.39C460.52,-359.67 493.86,-347.28 518.82,-338"/>
<polygon fill="#63b8ff" stroke="#63b8ff" points="430.24,-367.19 422.09,-373.96 432.68,-373.75 430.24,-367.19"/>
</a>
</g>
</g>
<!-- Node17&#45;&gt;Node11 -->
<g id="edge26_Node000017_Node000011" class="edge">
<title>Node17&#45;&gt;Node11</title>
<g id="a_edge26_Node000017_Node000011"><a xlink:title=" ">
<path fill="none" stroke="#63b8ff" d="M585.69,-365.4C579.05,-355.99 571.94,-345.9 566.4,-338.04"/>
<polygon fill="#63b8ff" stroke="#63b8ff" points="582.97,-367.61 591.59,-373.77 588.69,-363.58 582.97,-367.61"/>
</a>
</g>
</g>
<!-- Node18&#45;&gt;Node11 -->
<g id="edge28_Node000018_Node000011" class="edge">
<title>Node18&#45;&gt;Node11</title>
<g id="a_edge28_Node000018_Node000011"><a xlink:title=" ">
<path fill="none" stroke="#63b8ff" d="M724.34,-371.23C685.58,-360.32 640.1,-347.52 606.27,-338"/>
<polygon fill="#63b8ff" stroke="#63b8ff" points="723.47,-374.62 734.04,-373.96 725.36,-367.88 723.47,-374.62"/>
</a>
</g>
</g>
<!-- Node19&#45;&gt;Node11 -->
<g id="edge30_Node000019_Node000011" class="edge">
<title>Node19&#45;&gt;Node11</title>
<g id="a_edge30_Node000019_Node000011"><a xlink:title=" ">
<path fill="none" stroke="#63b8ff" d="M705.43,-440.51C704.52,-419.64 700.01,-392.37 684.5,-374 669.95,-356.78 648.7,-345.46 627.68,-338.03"/>
<polygon fill="#63b8ff" stroke="#63b8ff" points="701.94,-440.83 705.62,-450.76 708.94,-440.7 701.94,-440.83"/>
</a>
</g>
</g>
<!-- Node19&#45;&gt;Node18 -->
<g id="edge31_Node000019_Node000018" class="edge">
<title>Node19&#45;&gt;Node18</title>
<g id="a_edge31_Node000019_Node000018"><a xlink:title=" ">
<path fill="none" stroke="#63b8ff" d="M738.4,-444.82C751.21,-435.11 765.57,-424.24 777.53,-415.17"/>
<polygon fill="#63b8ff" stroke="#63b8ff" points="736.11,-442.16 730.25,-450.99 740.34,-447.74 736.11,-442.16"/>
</a>
</g>
</g>
<!-- Node21 -->
<g id="Node000021" class="node">
<title>Node21</title>
<g id="a_Node000021"><a xlink:href="fe__lagrange__simplex_8cpp.html" target="_top" xlink:title=" ">
<polygon fill="white" stroke="#666666" points="1408.5,-569 1266.5,-569 1266.5,-528 1408.5,-528 1408.5,-569"/>
<text text-anchor="start" x="1274.5" y="-557" font-family="Helvetica,sans-Serif" font-size="10.00">/__w/vulpes/vulpes</text>
<text text-anchor="start" x="1274.5" y="-546" font-family="Helvetica,sans-Serif" font-size="10.00">/vulpes/fe/fe_spaces</text>
<text text-anchor="middle" x="1337.5" y="-535" font-family="Helvetica,sans-Serif" font-size="10.00">/fe_lagrange_simplex.cpp</text>
</a>
</g>
</g>
<!-- Node20&#45;&gt;Node21 -->
<g id="edge34_Node000020_Node000021" class="edge">
<title>Node20&#45;&gt;Node21</title>
<g id="a_edge34_Node000020_Node000021"><a xlink:title=" ">
<path fill="none" stroke="#63b8ff" d="M1256.6,-599.64C1272.58,-589.74 1290.72,-578.5 1305.76,-569.17"/>
<polygon fill="#63b8ff" stroke="#63b8ff" points="1254.63,-596.75 1247.98,-604.99 1258.32,-602.7 1254.63,-596.75"/>
</a>
</g>
</g>
<!-- Node20&#45;&gt;Node22 -->
<g id="edge35_Node000020_Node000022" class="edge">
<title>Node20&#45;&gt;Node22</title>
<g id="a_edge35_Node000020_Node000022"><a xlink:title=" ">
<path fill="none" stroke="#63b8ff" d="M1202.99,-595.55C1198.85,-586.69 1194.41,-577.15 1190.63,-569.07"/>
<polygon fill="#63b8ff" stroke="#63b8ff" points="1199.9,-597.21 1207.3,-604.79 1206.25,-594.25 1199.9,-597.21"/>
</a>
</g>
</g>
<!-- Node20&#45;&gt;Node23 -->
<g id="edge36_Node000020_Node000023" class="edge">
<title>Node20&#45;&gt;Node23</title>
<g id="a_edge36_Node000020_Node000023"><a xlink:title=" ">
<path fill="none" stroke="#63b8ff" d="M1298,-602.35C1339.04,-591.2 1388.14,-577.86 1426.74,-567.37"/>
<polygon fill="#63b8ff" stroke="#63b8ff" points="1297.03,-598.99 1288.3,-604.99 1298.86,-605.75 1297.03,-598.99"/>
</a>
</g>
</g>
<!-- Node25&#45;&gt;Node7 -->
<g id="edge42_Node000025_Node000007" class="edge">
<title>Node25&#45;&gt;Node7</title>
<g id="a_edge42_Node000025_Node000007"><a xlink:title=" ">
<path fill="none" stroke="#63b8ff" d="M655.09,-606.77C748.34,-569.88 940.5,-475.48 940.5,-324 940.5,-324 940.5,-324 940.5,-173.5 940.5,-111.2 875.86,-65.35 831.16,-41.1"/>
<polygon fill="#63b8ff" stroke="#63b8ff" points="653.63,-603.58 645.58,-610.47 656.16,-610.11 653.63,-603.58"/>
</a>
</g>
</g>
<!-- Node25&#45;&gt;Node10 -->
<g id="edge45_Node000025_Node000010" class="edge">
<title>Node25&#45;&gt;Node10</title>
<g id="a_edge45_Node000025_Node000010"><a xlink:title=" ">
<path fill="none" stroke="#63b8ff" d="M605.5,-600.23C605.5,-590.2 605.5,-578.71 605.5,-569.2"/>
<polygon fill="#63b8ff" stroke="#63b8ff" points="602,-600.39 605.5,-610.39 609,-600.39 602,-600.39"/>
</a>
</g>
</g>
<!-- Node25&#45;&gt;Node12 -->
<g id="edge43_Node000025_Node000012" class="edge">
<title>Node25&#45;&gt;Node12</title>
<g id="a_edge43_Node000025_Node000012"><a xlink:title=" ">
<path fill="none" stroke="#63b8ff" d="M527.45,-613.17C481.32,-604.69 422.52,-590.75 373.5,-569 304.08,-538.21 232.5,-548.44 232.5,-472.5 232.5,-472.5 232.5,-472.5 232.5,-322 232.5,-276.49 239.75,-223.44 244.17,-195.34"/>
<polygon fill="#63b8ff" stroke="#63b8ff" points="526.93,-616.63 537.39,-614.94 528.16,-609.74 526.93,-616.63"/>
</a>
</g>
</g>
<!-- Node25&#45;&gt;Node13 -->
<g id="edge44_Node000025_Node000013" class="edge">
<title>Node25&#45;&gt;Node13</title>
<g id="a_edge44_Node000025_Node000013"><a xlink:title=" ">
<path fill="none" stroke="#63b8ff" d="M540.48,-607.49C458.8,-581.83 325,-524.17 289.5,-415 271.63,-360.06 322.02,-301.57 353.08,-272.02"/>
<polygon fill="#63b8ff" stroke="#63b8ff" points="539.59,-610.88 550.18,-610.46 541.64,-604.19 539.59,-610.88"/>
</a>
</g>
</g>
</g>
</svg>

<g id="navigator" transform="translate(0 0)" fill="#404254">
  <rect fill="#f2f5e9" fill-opacity="0.5" stroke="#606060" stroke-width=".5" x="0" y="0" width="60" height="60"/>
  <use id="zoomplus" xlink:href="#zoomPlus" x="17" y="9" onmousedown="handleZoom(evt,'in')"/>
  <use id="zoomminus" xlink:href="#zoomMin" x="42" y="9" onmousedown="handleZoom(evt,'out')"/>
  <use id="reset" xlink:href="#resetDef" x="30" y="36" onmousedown="handleReset()"/>
   <use id="arrowup" xlink:href="#arrowUp" x="0" y="0" onmousedown="handlePan(0,-1)"/>
  <use id="arrowright" xlink:href="#arrowRight" x="0" y="0" onmousedown="handlePan(1,0)"/>
  <use id="arrowdown" xlink:href="#arrowDown" x="0" y="0" onmousedown="handlePan(0,1)"/>
  <use id="arrowleft" xlink:href="#arrowLeft" x="0" y="0" onmousedown="handlePan(-1,0)"/>
</g>
<svg viewBox="0 0 15 15" width="100%" height="30px" preserveAspectRatio="xMaxYMin meet">
 <g id="arrow_out" transform="scale(0.3 0.3)">
  <a xlink:href="dof__policy_8hpp__dep__incl_org.svg" target="_base">
   <rect id="button" ry="5" rx="5" y="6" x="6" height="38" width="38"
        fill="#f2f5e9" fill-opacity="0.5" stroke="#606060" stroke-width="1.0"/>
   <path id="arrow"
     d="M 11.500037,31.436501 C 11.940474,20.09759 22.043105,11.32322 32.158766,21.979434 L 37.068811,17.246167 C 37.068811,17.246167 37.088388,32 37.088388,32 L 22.160133,31.978069 C 22.160133,31.978069 26.997745,27.140456 26.997745,27.140456 C 18.528582,18.264221 13.291696,25.230495 11.500037,31.436501 z"
     style="fill:#404040;"/>
  </a>
 </g>
</svg>

<style type='text/css'>
<![CDATA[
[data-mouse-over-selected='false'] { opacity: 0.7; }
[data-mouse-over-selected='true']  { opacity: 1.0; }
]]>
</style>
<script type="application/ecmascript"><![CDATA[
document.addEventListener('DOMContentLoaded', (event) => {
  highlightEdges();
  highlightAdjacentNodes();
});
]]></script>
</svg>
