<?xml version="1.0" encoding="UTF-8" standalone="no"?>
<!DOCTYPE svg PUBLIC "-//W3C//DTD SVG 1.1//EN"
 "http://www.w3.org/Graphics/SVG/1.1/DTD/svg11.dtd">
<!-- Generated by graphviz version 2.42.4 (0)
 -->
<!-- Title: /__w/vulpes/vulpes/vulpes/utils/eigen.hpp Pages: 1 -->
<svg width="792pt" height="489pt"
 viewBox="0.00 0.00 791.94 489.00" xmlns="http://www.w3.org/2000/svg" xmlns:xlink="http://www.w3.org/1999/xlink">
<g id="graph0" class="graph" transform="scale(1 1) rotate(0) translate(4 485)">
<title>/__w/vulpes/vulpes/vulpes/utils/eigen.hpp</title>
<!-- Node1 -->
<g id="Node000001" class="node">
<title>Node1</title>
<g id="a_Node000001"><a xlink:title=" ">
<polygon fill="#999999" stroke="#666666" points="480.44,-481 353.44,-481 353.44,-451 480.44,-451 480.44,-481"/>
<text text-anchor="start" x="361.44" y="-469" font-family="Helvetica,sans-Serif" font-size="10.00">/__w/vulpes/vulpes</text>
<text text-anchor="middle" x="416.94" y="-458" font-family="Helvetica,sans-Serif" font-size="10.00">/vulpes/utils/eigen.hpp</text>
</a>
</g>
</g>
<!-- Node2 -->
<g id="Node000002" class="node">
<title>Node2</title>
<g id="a_Node000002"><a xlink:href="fe__expr__basis_8hpp.html" target="_top" xlink:title=" ">
<polygon fill="white" stroke="#666666" points="213.44,-415 72.44,-415 72.44,-374 213.44,-374 213.44,-415"/>
<text text-anchor="start" x="80.44" y="-403" font-family="Helvetica,sans-Serif" font-size="10.00">/__w/vulpes/vulpes</text>
<text text-anchor="start" x="80.44" y="-392" font-family="Helvetica,sans-Serif" font-size="10.00">/vulpes/fe/fe_expressions</text>
<text text-anchor="middle" x="142.94" y="-381" font-family="Helvetica,sans-Serif" font-size="10.00">/fe_expr_basis.hpp</text>
</a>
</g>
</g>
<!-- Node1&#45;&gt;Node2 -->
<g id="edge1_Node000001_Node000002" class="edge">
<title>Node1&#45;&gt;Node2</title>
<g id="a_edge1_Node000001_Node000002"><a xlink:title=" ">
<path fill="none" stroke="#63b8ff" d="M351.73,-448.46C310.07,-437.89 256.08,-424.2 213.44,-413.38"/>
<polygon fill="#63b8ff" stroke="#63b8ff" points="350.94,-451.87 361.49,-450.94 352.66,-445.08 350.94,-451.87"/>
</a>
</g>
</g>
<!-- Node12 -->
<g id="Node000012" class="node">
<title>Node12</title>
<g id="a_Node000012"><a xlink:href="gnn__agglomeration_8cpp.html" target="_top" xlink:title=" ">
<polygon fill="white" stroke="#666666" points="407.94,-415 231.94,-415 231.94,-374 407.94,-374 407.94,-415"/>
<text text-anchor="start" x="239.94" y="-403" font-family="Helvetica,sans-Serif" font-size="10.00">/__w/vulpes/vulpes</text>
<text text-anchor="start" x="239.94" y="-392" font-family="Helvetica,sans-Serif" font-size="10.00">/vulpes/geometry/agglomeration</text>
<text text-anchor="middle" x="319.94" y="-381" font-family="Helvetica,sans-Serif" font-size="10.00">/gnn_agglomeration.cpp</text>
</a>
</g>
</g>
<!-- Node1&#45;&gt;Node12 -->
<g id="edge14_Node000001_Node000012" class="edge">
<title>Node1&#45;&gt;Node12</title>
<g id="a_edge14_Node000001_Node000012"><a xlink:title=" ">
<path fill="none" stroke="#63b8ff" d="M389.09,-445.04C375.95,-435.63 360.33,-424.44 347.26,-415.07"/>
<polygon fill="#63b8ff" stroke="#63b8ff" points="387.14,-447.96 397.31,-450.94 391.22,-442.27 387.14,-447.96"/>
</a>
</g>
</g>
<!-- Node13 -->
<g id="Node000013" class="node">
<title>Node13</title>
<g id="a_Node000013"><a xlink:href="kmeans__agglomeration_8cpp.html" target="_top" xlink:title=" ">
<polygon fill="white" stroke="#666666" points="601.94,-415 425.94,-415 425.94,-374 601.94,-374 601.94,-415"/>
<text text-anchor="start" x="433.94" y="-403" font-family="Helvetica,sans-Serif" font-size="10.00">/__w/vulpes/vulpes</text>
<text text-anchor="start" x="433.94" y="-392" font-family="Helvetica,sans-Serif" font-size="10.00">/vulpes/geometry/agglomeration</text>
<text text-anchor="middle" x="513.94" y="-381" font-family="Helvetica,sans-Serif" font-size="10.00">/kmeans_agglomeration.cpp</text>
</a>
</g>
</g>
<!-- Node1&#45;&gt;Node13 -->
<g id="edge15_Node000001_Node000013" class="edge">
<title>Node1&#45;&gt;Node13</title>
<g id="a_edge15_Node000001_Node000013"><a xlink:title=" ">
<path fill="none" stroke="#63b8ff" d="M444.79,-445.04C457.93,-435.63 473.55,-424.44 486.62,-415.07"/>
<polygon fill="#63b8ff" stroke="#63b8ff" points="442.66,-442.27 436.57,-450.94 446.74,-447.96 442.66,-442.27"/>
</a>
</g>
</g>
<!-- Node14 -->
<g id="Node000014" class="node">
<title>Node14</title>
<g id="a_Node000014"><a xlink:href="kmeans_8cpp.html" target="_top" xlink:title=" ">
<polygon fill="white" stroke="#666666" points="783.94,-409.5 619.94,-409.5 619.94,-379.5 783.94,-379.5 783.94,-409.5"/>
<text text-anchor="start" x="627.94" y="-397.5" font-family="Helvetica,sans-Serif" font-size="10.00">/__w/vulpes/vulpes</text>
<text text-anchor="middle" x="701.94" y="-386.5" font-family="Helvetica,sans-Serif" font-size="10.00">/vulpes/geometry/kmeans.cpp</text>
</a>
</g>
</g>
<!-- Node1&#45;&gt;Node14 -->
<g id="edge16_Node000001_Node000014" class="edge">
<title>Node1&#45;&gt;Node14</title>
<g id="a_edge16_Node000001_Node000014"><a xlink:title=" ">
<path fill="none" stroke="#63b8ff" d="M484.43,-448.54C533.11,-436.67 598.12,-420.82 644.35,-409.54"/>
<polygon fill="#63b8ff" stroke="#63b8ff" points="483.5,-445.17 474.62,-450.94 485.16,-451.97 483.5,-445.17"/>
</a>
</g>
</g>
<!-- Node3 -->
<g id="Node000003" class="node">
<title>Node3</title>
<g id="a_Node000003"><a xlink:href="fe__expression_8hpp.html" target="_top" xlink:title=" ">
<polygon fill="white" stroke="#666666" points="221.44,-338 64.44,-338 64.44,-308 221.44,-308 221.44,-338"/>
<text text-anchor="start" x="72.44" y="-326" font-family="Helvetica,sans-Serif" font-size="10.00">/__w/vulpes/vulpes</text>
<text text-anchor="middle" x="142.94" y="-315" font-family="Helvetica,sans-Serif" font-size="10.00">/vulpes/fe/fe_expression.hpp</text>
</a>
</g>
</g>
<!-- Node2&#45;&gt;Node3 -->
<g id="edge2_Node000002_Node000003" class="edge">
<title>Node2&#45;&gt;Node3</title>
<g id="a_edge2_Node000002_Node000003"><a xlink:title=" ">
<path fill="none" stroke="#63b8ff" d="M142.94,-363.66C142.94,-354.76 142.94,-345.42 142.94,-338.04"/>
<polygon fill="#63b8ff" stroke="#63b8ff" points="139.44,-363.77 142.94,-373.77 146.44,-363.77 139.44,-363.77"/>
</a>
</g>
</g>
<!-- Node4 -->
<g id="Node000004" class="node">
<title>Node4</title>
<g id="a_Node000004"><a xlink:href="dg__utils_8hpp.html" target="_top" xlink:title=" ">
<polygon fill="white" stroke="#666666" points="192.44,-41 75.44,-41 75.44,0 192.44,0 192.44,-41"/>
<text text-anchor="start" x="83.44" y="-29" font-family="Helvetica,sans-Serif" font-size="10.00">/__w/vulpes/vulpes</text>
<text text-anchor="start" x="83.44" y="-18" font-family="Helvetica,sans-Serif" font-size="10.00">/vulpes/assemble/dg</text>
<text text-anchor="middle" x="133.94" y="-7" font-family="Helvetica,sans-Serif" font-size="10.00">_utils.hpp</text>
</a>
</g>
</g>
<!-- Node3&#45;&gt;Node4 -->
<g id="edge3_Node000003_Node000004" class="edge">
<title>Node3&#45;&gt;Node4</title>
<g id="a_edge3_Node000003_Node000004"><a xlink:title=" ">
<path fill="none" stroke="#63b8ff" d="M121.28,-300.18C88.4,-265.29 27.46,-193.18 5.94,-118 0.93,-100.48 -4.06,-92.23 5.94,-77 21.42,-53.41 49.32,-39.8 75.13,-31.97"/>
<polygon fill="#63b8ff" stroke="#63b8ff" points="119.17,-303.03 128.61,-307.84 124.22,-298.19 119.17,-303.03"/>
</a>
</g>
</g>
<!-- Node5 -->
<g id="Node000005" class="node">
<title>Node5</title>
<g id="a_Node000005"><a xlink:href="integrator__base_8hpp.html" target="_top" xlink:title=" ">
<polygon fill="white" stroke="#666666" points="272.44,-195 119.44,-195 119.44,-154 272.44,-154 272.44,-195"/>
<text text-anchor="start" x="127.44" y="-183" font-family="Helvetica,sans-Serif" font-size="10.00">/__w/vulpes/vulpes</text>
<text text-anchor="start" x="127.44" y="-172" font-family="Helvetica,sans-Serif" font-size="10.00">/vulpes/assemble/integrator</text>
<text text-anchor="middle" x="195.94" y="-161" font-family="Helvetica,sans-Serif" font-size="10.00">_base.hpp</text>
</a>
</g>
</g>
<!-- Node3&#45;&gt;Node5 -->
<g id="edge4_Node000003_Node000005" class="edge">
<title>Node3&#45;&gt;Node5</title>
<g id="a_edge4_Node000003_Node000005"><a xlink:title=" ">
<path fill="none" stroke="#63b8ff" d="M124.68,-299.84C111.44,-280.9 97.81,-253.27 109.94,-231 118.36,-215.55 133.13,-203.75 148.07,-195.09"/>
<polygon fill="#63b8ff" stroke="#63b8ff" points="121.88,-301.93 130.65,-307.88 127.5,-297.76 121.88,-301.93"/>
</a>
</g>
</g>
<!-- Node10 -->
<g id="Node000010" class="node">
<title>Node10</title>
<g id="a_Node000010"><a xlink:href="integrator__traits_8hpp.html" target="_top" xlink:title=" ">
<polygon fill="white" stroke="#666666" points="272.44,-272 119.44,-272 119.44,-231 272.44,-231 272.44,-272"/>
<text text-anchor="start" x="127.44" y="-260" font-family="Helvetica,sans-Serif" font-size="10.00">/__w/vulpes/vulpes</text>
<text text-anchor="start" x="127.44" y="-249" font-family="Helvetica,sans-Serif" font-size="10.00">/vulpes/assemble/integrator</text>
<text text-anchor="middle" x="195.94" y="-238" font-family="Helvetica,sans-Serif" font-size="10.00">_traits.hpp</text>
</a>
</g>
</g>
<!-- Node3&#45;&gt;Node10 -->
<g id="edge11_Node000003_Node000010" class="edge">
<title>Node3&#45;&gt;Node10</title>
<g id="a_edge11_Node000003_Node000010"><a xlink:title=" ">
<path fill="none" stroke="#63b8ff" d="M159.82,-299.86C166.63,-290.94 174.42,-280.72 181.01,-272.07"/>
<polygon fill="#63b8ff" stroke="#63b8ff" points="156.95,-297.86 153.67,-307.94 162.51,-302.11 156.95,-297.86"/>
</a>
</g>
</g>
<!-- Node11 -->
<g id="Node000011" class="node">
<title>Node11</title>
<g id="a_Node000011"><a xlink:href="fe__vem_8hpp.html" target="_top" xlink:title=" ">
<polygon fill="white" stroke="#666666" points="406.94,-272 290.94,-272 290.94,-231 406.94,-231 406.94,-272"/>
<text text-anchor="start" x="298.94" y="-260" font-family="Helvetica,sans-Serif" font-size="10.00">/__w/vulpes/vulpes</text>
<text text-anchor="start" x="298.94" y="-249" font-family="Helvetica,sans-Serif" font-size="10.00">/vulpes/fe/fe_spaces</text>
<text text-anchor="middle" x="348.94" y="-238" font-family="Helvetica,sans-Serif" font-size="10.00">/fe_vem.hpp</text>
</a>
</g>
</g>
<!-- Node3&#45;&gt;Node11 -->
<g id="edge13_Node000003_Node000011" class="edge">
<title>Node3&#45;&gt;Node11</title>
<g id="a_edge13_Node000003_Node000011"><a xlink:title=" ">
<path fill="none" stroke="#63b8ff" d="M194.27,-304.68C223.62,-294.78 260.53,-282.33 290.92,-272.07"/>
<polygon fill="#63b8ff" stroke="#63b8ff" points="192.98,-301.42 184.63,-307.94 195.22,-308.06 192.98,-301.42"/>
</a>
</g>
</g>
<!-- Node6 -->
<g id="Node000006" class="node">
<title>Node6</title>
<g id="a_Node000006"><a xlink:href="integrator__gauss_8hpp.html" target="_top" xlink:title=" ">
<polygon fill="white" stroke="#666666" points="168.44,-118 15.44,-118 15.44,-77 168.44,-77 168.44,-118"/>
<text text-anchor="start" x="23.44" y="-106" font-family="Helvetica,sans-Serif" font-size="10.00">/__w/vulpes/vulpes</text>
<text text-anchor="start" x="23.44" y="-95" font-family="Helvetica,sans-Serif" font-size="10.00">/vulpes/assemble/integrator</text>
<text text-anchor="middle" x="91.94" y="-84" font-family="Helvetica,sans-Serif" font-size="10.00">_gauss.hpp</text>
</a>
</g>
</g>
<!-- Node5&#45;&gt;Node6 -->
<g id="edge5_Node000005_Node000006" class="edge">
<title>Node5&#45;&gt;Node6</title>
<g id="a_edge5_Node000005_Node000006"><a xlink:title=" ">
<path fill="none" stroke="#63b8ff" d="M160.71,-148.09C147.16,-138.32 131.91,-127.32 119.22,-118.17"/>
<polygon fill="#63b8ff" stroke="#63b8ff" points="158.73,-150.98 168.89,-153.99 162.82,-145.3 158.73,-150.98"/>
</a>
</g>
</g>
<!-- Node7 -->
<g id="Node000007" class="node">
<title>Node7</title>
<g id="a_Node000007"><a xlink:href="integrator__qfree_8hpp.html" target="_top" xlink:title=" ">
<polygon fill="white" stroke="#666666" points="510.44,-118 357.44,-118 357.44,-77 510.44,-77 510.44,-118"/>
<text text-anchor="start" x="365.44" y="-106" font-family="Helvetica,sans-Serif" font-size="10.00">/__w/vulpes/vulpes</text>
<text text-anchor="start" x="365.44" y="-95" font-family="Helvetica,sans-Serif" font-size="10.00">/vulpes/assemble/integrator</text>
<text text-anchor="middle" x="433.94" y="-84" font-family="Helvetica,sans-Serif" font-size="10.00">_qfree.hpp</text>
</a>
</g>
</g>
<!-- Node5&#45;&gt;Node7 -->
<g id="edge6_Node000005_Node000007" class="edge">
<title>Node5&#45;&gt;Node7</title>
<g id="a_edge6_Node000005_Node000007"><a xlink:title=" ">
<path fill="none" stroke="#63b8ff" d="M267.52,-150.94C300.78,-140.46 339.95,-128.12 371.93,-118.04"/>
<polygon fill="#63b8ff" stroke="#63b8ff" points="266.34,-147.65 257.85,-153.99 268.44,-154.32 266.34,-147.65"/>
</a>
</g>
</g>
<!-- Node9 -->
<g id="Node000009" class="node">
<title>Node9</title>
<g id="a_Node000009"><a xlink:href="integrator__simplexify_8hpp.html" target="_top" xlink:title=" ">
<polygon fill="white" stroke="#666666" points="339.44,-118 186.44,-118 186.44,-77 339.44,-77 339.44,-118"/>
<text text-anchor="start" x="194.44" y="-106" font-family="Helvetica,sans-Serif" font-size="10.00">/__w/vulpes/vulpes</text>
<text text-anchor="start" x="194.44" y="-95" font-family="Helvetica,sans-Serif" font-size="10.00">/vulpes/assemble/integrator</text>
<text text-anchor="middle" x="262.94" y="-84" font-family="Helvetica,sans-Serif" font-size="10.00">_simplexify.hpp</text>
</a>
</g>
</g>
<!-- Node5&#45;&gt;Node9 -->
<g id="edge8_Node000005_Node000009" class="edge">
<title>Node5&#45;&gt;Node9</title>
<g id="a_edge8_Node000005_Node000009"><a xlink:title=" ">
<path fill="none" stroke="#63b8ff" d="M220.3,-146.23C228.63,-136.91 237.78,-126.67 245.46,-118.07"/>
<polygon fill="#63b8ff" stroke="#63b8ff" points="217.6,-144.01 213.54,-153.79 222.82,-148.67 217.6,-144.01"/>
</a>
</g>
</g>
<!-- Node8 -->
<g id="Node000008" class="node">
<title>Node8</title>
<g id="a_Node000008"><a xlink:href="integrator__vem_8hpp.html" target="_top" xlink:title=" ">
<polygon fill="white" stroke="#666666" points="424.44,-41 271.44,-41 271.44,0 424.44,0 424.44,-41"/>
<text text-anchor="start" x="279.44" y="-29" font-family="Helvetica,sans-Serif" font-size="10.00">/__w/vulpes/vulpes</text>
<text text-anchor="start" x="279.44" y="-18" font-family="Helvetica,sans-Serif" font-size="10.00">/vulpes/assemble/integrator</text>
<text text-anchor="middle" x="347.94" y="-7" font-family="Helvetica,sans-Serif" font-size="10.00">_vem.hpp</text>
</a>
</g>
</g>
<!-- Node7&#45;&gt;Node8 -->
<g id="edge7_Node000007_Node000008" class="edge">
<title>Node7&#45;&gt;Node8</title>
<g id="a_edge7_Node000007_Node000008"><a xlink:title=" ">
<path fill="none" stroke="#63b8ff" d="M403.63,-70.07C392.69,-60.52 380.54,-49.93 370.39,-41.07"/>
<polygon fill="#63b8ff" stroke="#63b8ff" points="401.51,-72.86 411.35,-76.79 406.11,-67.58 401.51,-72.86"/>
</a>
</g>
</g>
<!-- Node9&#45;&gt;Node4 -->
<g id="edge9_Node000009_Node000004" class="edge">
<title>Node9&#45;&gt;Node4</title>
<g id="a_edge9_Node000009_Node000004"><a xlink:title=" ">
<path fill="none" stroke="#63b8ff" d="M220.66,-71.92C203.51,-61.95 183.96,-50.58 167.78,-41.17"/>
<polygon fill="#63b8ff" stroke="#63b8ff" points="218.98,-74.99 229.38,-76.99 222.5,-68.94 218.98,-74.99"/>
</a>
</g>
</g>
<!-- Node9&#45;&gt;Node8 -->
<g id="edge10_Node000009_Node000008" class="edge">
<title>Node9&#45;&gt;Node8</title>
<g id="a_edge10_Node000009_Node000008"><a xlink:title=" ">
<path fill="none" stroke="#63b8ff" d="M292.9,-70.07C303.71,-60.52 315.72,-49.93 325.76,-41.07"/>
<polygon fill="#63b8ff" stroke="#63b8ff" points="290.46,-67.55 285.27,-76.79 295.09,-72.8 290.46,-67.55"/>
</a>
</g>
</g>
<!-- Node10&#45;&gt;Node5 -->
<g id="edge12_Node000010_Node000005" class="edge">
<title>Node10&#45;&gt;Node5</title>
<g id="a_edge12_Node000010_Node000005"><a xlink:title=" ">
<path fill="none" stroke="#63b8ff" d="M195.94,-220.69C195.94,-212.08 195.94,-202.9 195.94,-195.07"/>
<polygon fill="#63b8ff" stroke="#63b8ff" points="192.44,-220.79 195.94,-230.79 199.44,-220.79 192.44,-220.79"/>
</a>
</g>
</g>
</g>
</svg>
