<?xml version="1.0" encoding="UTF-8" standalone="no"?>
<!DOCTYPE svg PUBLIC "-//W3C//DTD SVG 1.1//EN"
 "http://www.w3.org/Graphics/SVG/1.1/DTD/svg11.dtd">
<!-- Generated by graphviz version 12.2.1 (20241206.2353)
 -->
<!-- Title: /Users/ilariomazzieri/Desktop/vulpes/vulpes/utils/eigen.hpp Pages: 1 -->
<svg width="657pt" height="528pt"
 viewBox="0.00 0.00 656.56 527.50" xmlns="http://www.w3.org/2000/svg" xmlns:xlink="http://www.w3.org/1999/xlink">
<g id="graph0" class="graph" transform="scale(1 1) rotate(0) translate(4 523.5)">
<title>/Users/ilariomazzieri/Desktop/vulpes/vulpes/utils/eigen.hpp</title>
<!-- Node1 -->
<g id="Node000001" class="node">
<title>Node1</title>
<g id="a_Node000001"><a xlink:title=" ">
<polygon fill="#999999" stroke="#666666" points="426.56,-519.5 307.81,-519.5 307.81,-477.75 426.56,-477.75 426.56,-519.5"/>
<text text-anchor="start" x="315.81" y="-506" font-family="Helvetica,sans-Serif" font-size="10.00">/Users/ilariomazzieri</text>
<text text-anchor="start" x="315.81" y="-494.75" font-family="Helvetica,sans-Serif" font-size="10.00">/Desktop/vulpes/vulpes</text>
<text text-anchor="middle" x="367.18" y="-483.5" font-family="Helvetica,sans-Serif" font-size="10.00">/utils/eigen.hpp</text>
</a>
</g>
</g>
<!-- Node2 -->
<g id="Node000002" class="node">
<title>Node2</title>
<g id="a_Node000002"><a xlink:href="fe__expr__basis_8hpp.html" target="_top" xlink:title=" ">
<polygon fill="white" stroke="#666666" points="213.93,-441.75 82.43,-441.75 82.43,-388.75 213.93,-388.75 213.93,-441.75"/>
<text text-anchor="start" x="90.43" y="-428.25" font-family="Helvetica,sans-Serif" font-size="10.00">/Users/ilariomazzieri</text>
<text text-anchor="start" x="90.43" y="-417" font-family="Helvetica,sans-Serif" font-size="10.00">/Desktop/vulpes/vulpes</text>
<text text-anchor="start" x="90.43" y="-405.75" font-family="Helvetica,sans-Serif" font-size="10.00">/fe/fe_expressions/fe_expr</text>
<text text-anchor="middle" x="148.18" y="-394.5" font-family="Helvetica,sans-Serif" font-size="10.00">_basis.hpp</text>
</a>
</g>
</g>
<!-- Node1&#45;&gt;Node2 -->
<g id="edge1_Node000001_Node000002" class="edge">
<title>Node1&#45;&gt;Node2</title>
<g id="a_edge1_Node000001_Node000002"><a xlink:title=" ">
<path fill="none" stroke="#63b8ff" d="M301.74,-473.31C274.11,-463.04 241.98,-451.1 214.28,-440.81"/>
<polygon fill="#63b8ff" stroke="#63b8ff" points="300.47,-476.57 311.07,-476.77 302.91,-470.01 300.47,-476.57"/>
</a>
</g>
</g>
<!-- Node12 -->
<g id="Node000012" class="node">
<title>Node12</title>
<g id="a_Node000012"><a xlink:href="gnn__agglomeration_8cpp.html" target="_top" xlink:title=" ">
<polygon fill="white" stroke="#666666" points="354.81,-441.75 231.56,-441.75 231.56,-388.75 354.81,-388.75 354.81,-441.75"/>
<text text-anchor="start" x="239.56" y="-428.25" font-family="Helvetica,sans-Serif" font-size="10.00">/Users/ilariomazzieri</text>
<text text-anchor="start" x="239.56" y="-417" font-family="Helvetica,sans-Serif" font-size="10.00">/Desktop/vulpes/vulpes</text>
<text text-anchor="start" x="239.56" y="-405.75" font-family="Helvetica,sans-Serif" font-size="10.00">/geometry/agglomeration</text>
<text text-anchor="middle" x="293.18" y="-394.5" font-family="Helvetica,sans-Serif" font-size="10.00">/gnn_agglomeration.cpp</text>
</a>
</g>
</g>
<!-- Node1&#45;&gt;Node12 -->
<g id="edge14_Node000001_Node000012" class="edge">
<title>Node1&#45;&gt;Node12</title>
<g id="a_edge14_Node000001_Node000012"><a xlink:title=" ">
<path fill="none" stroke="#63b8ff" d="M341.19,-469.05C333.18,-460.23 324.41,-450.59 316.58,-441.98"/>
<polygon fill="#63b8ff" stroke="#63b8ff" points="338.56,-471.35 347.87,-476.39 343.74,-466.64 338.56,-471.35"/>
</a>
</g>
</g>
<!-- Node13 -->
<g id="Node000013" class="node">
<title>Node13</title>
<g id="a_Node000013"><a xlink:href="kmeans__agglomeration_8cpp.html" target="_top" xlink:title=" ">
<polygon fill="white" stroke="#666666" points="511.31,-441.75 373.06,-441.75 373.06,-388.75 511.31,-388.75 511.31,-441.75"/>
<text text-anchor="start" x="381.06" y="-428.25" font-family="Helvetica,sans-Serif" font-size="10.00">/Users/ilariomazzieri</text>
<text text-anchor="start" x="381.06" y="-417" font-family="Helvetica,sans-Serif" font-size="10.00">/Desktop/vulpes/vulpes</text>
<text text-anchor="start" x="381.06" y="-405.75" font-family="Helvetica,sans-Serif" font-size="10.00">/geometry/agglomeration</text>
<text text-anchor="middle" x="442.18" y="-394.5" font-family="Helvetica,sans-Serif" font-size="10.00">/kmeans_agglomeration.cpp</text>
</a>
</g>
</g>
<!-- Node1&#45;&gt;Node13 -->
<g id="edge15_Node000001_Node000013" class="edge">
<title>Node1&#45;&gt;Node13</title>
<g id="a_edge15_Node000001_Node000013"><a xlink:title=" ">
<path fill="none" stroke="#63b8ff" d="M393.53,-469.05C401.65,-460.23 410.54,-450.59 418.47,-441.98"/>
<polygon fill="#63b8ff" stroke="#63b8ff" points="390.95,-466.67 386.75,-476.4 396.1,-471.42 390.95,-466.67"/>
</a>
</g>
</g>
<!-- Node14 -->
<g id="Node000014" class="node">
<title>Node14</title>
<g id="a_Node000014"><a xlink:href="kmeans_8cpp.html" target="_top" xlink:title=" ">
<polygon fill="white" stroke="#666666" points="648.56,-436.12 529.81,-436.12 529.81,-394.38 648.56,-394.38 648.56,-436.12"/>
<text text-anchor="start" x="537.81" y="-422.62" font-family="Helvetica,sans-Serif" font-size="10.00">/Users/ilariomazzieri</text>
<text text-anchor="start" x="537.81" y="-411.38" font-family="Helvetica,sans-Serif" font-size="10.00">/Desktop/vulpes/vulpes</text>
<text text-anchor="middle" x="589.18" y="-400.12" font-family="Helvetica,sans-Serif" font-size="10.00">/geometry/kmeans.cpp</text>
</a>
</g>
</g>
<!-- Node1&#45;&gt;Node14 -->
<g id="edge16_Node000001_Node000014" class="edge">
<title>Node1&#45;&gt;Node14</title>
<g id="a_edge16_Node000001_Node000014"><a xlink:title=" ">
<path fill="none" stroke="#63b8ff" d="M433.28,-473.55C460.24,-463.71 491.71,-452.21 520.18,-441.75 524.74,-440.08 529.46,-438.34 534.2,-436.59"/>
<polygon fill="#63b8ff" stroke="#63b8ff" points="432.42,-470.14 424.22,-476.85 434.82,-476.72 432.42,-470.14"/>
</a>
</g>
</g>
<!-- Node3 -->
<g id="Node000003" class="node">
<title>Node3</title>
<g id="a_Node000003"><a xlink:href="fe__expression_8hpp.html" target="_top" xlink:title=" ">
<polygon fill="white" stroke="#666666" points="207.56,-352.75 88.81,-352.75 88.81,-311 207.56,-311 207.56,-352.75"/>
<text text-anchor="start" x="96.81" y="-339.25" font-family="Helvetica,sans-Serif" font-size="10.00">/Users/ilariomazzieri</text>
<text text-anchor="start" x="96.81" y="-328" font-family="Helvetica,sans-Serif" font-size="10.00">/Desktop/vulpes/vulpes</text>
<text text-anchor="middle" x="148.18" y="-316.75" font-family="Helvetica,sans-Serif" font-size="10.00">/fe/fe_expression.hpp</text>
</a>
</g>
</g>
<!-- Node2&#45;&gt;Node3 -->
<g id="edge2_Node000002_Node000003" class="edge">
<title>Node2&#45;&gt;Node3</title>
<g id="a_edge2_Node000002_Node000003"><a xlink:title=" ">
<path fill="none" stroke="#63b8ff" d="M148.18,-377.08C148.18,-368.8 148.18,-360.33 148.18,-353.04"/>
<polygon fill="#63b8ff" stroke="#63b8ff" points="144.68,-376.99 148.18,-386.99 151.68,-376.99 144.68,-376.99"/>
</a>
</g>
</g>
<!-- Node4 -->
<g id="Node000004" class="node">
<title>Node4</title>
<g id="a_Node000004"><a xlink:href="dg__utils_8hpp.html" target="_top" xlink:title=" ">
<polygon fill="white" stroke="#666666" points="203.56,-41.75 84.81,-41.75 84.81,0 203.56,0 203.56,-41.75"/>
<text text-anchor="start" x="92.81" y="-28.25" font-family="Helvetica,sans-Serif" font-size="10.00">/Users/ilariomazzieri</text>
<text text-anchor="start" x="92.81" y="-17" font-family="Helvetica,sans-Serif" font-size="10.00">/Desktop/vulpes/vulpes</text>
<text text-anchor="middle" x="144.18" y="-5.75" font-family="Helvetica,sans-Serif" font-size="10.00">/assemble/dg_utils.hpp</text>
</a>
</g>
</g>
<!-- Node3&#45;&gt;Node4 -->
<g id="edge3_Node000003_Node000004" class="edge">
<title>Node3&#45;&gt;Node4</title>
<g id="a_edge3_Node000003_Node000004"><a xlink:title=" ">
<path fill="none" stroke="#63b8ff" d="M120.72,-302.62C85.99,-264.66 28.07,-193.39 6.18,-119.5 0.91,-101.71 -4.19,-93.14 6.18,-77.75 23.74,-51.71 55.71,-37.8 84.47,-30.37"/>
<polygon fill="#63b8ff" stroke="#63b8ff" points="117.78,-304.59 127.15,-309.53 122.91,-299.83 117.78,-304.59"/>
</a>
</g>
</g>
<!-- Node5 -->
<g id="Node000005" class="node">
<title>Node5</title>
<g id="a_Node000005"><a xlink:href="integrator__base_8hpp.html" target="_top" xlink:title=" ">
<polygon fill="white" stroke="#666666" points="274.93,-197.25 125.43,-197.25 125.43,-155.5 274.93,-155.5 274.93,-197.25"/>
<text text-anchor="start" x="133.43" y="-183.75" font-family="Helvetica,sans-Serif" font-size="10.00">/Users/ilariomazzieri</text>
<text text-anchor="start" x="133.43" y="-172.5" font-family="Helvetica,sans-Serif" font-size="10.00">/Desktop/vulpes/vulpes</text>
<text text-anchor="middle" x="200.18" y="-161.25" font-family="Helvetica,sans-Serif" font-size="10.00">/assemble/integrator_base.hpp</text>
</a>
</g>
</g>
<!-- Node3&#45;&gt;Node5 -->
<g id="edge4_Node000003_Node000005" class="edge">
<title>Node3&#45;&gt;Node5</title>
<g id="a_edge4_Node000003_Node000005"><a xlink:title=" ">
<path fill="none" stroke="#63b8ff" d="M126.36,-301.11C114.6,-281.18 104.65,-254.77 116.18,-233.25 124.29,-218.12 138.5,-206.39 152.95,-197.67"/>
<polygon fill="#63b8ff" stroke="#63b8ff" points="123.25,-302.75 131.56,-309.32 129.16,-299 123.25,-302.75"/>
</a>
</g>
</g>
<!-- Node10 -->
<g id="Node000010" class="node">
<title>Node10</title>
<g id="a_Node000010"><a xlink:href="integrator__traits_8hpp.html" target="_top" xlink:title=" ">
<polygon fill="white" stroke="#666666" points="275.31,-275 125.06,-275 125.06,-233.25 275.31,-233.25 275.31,-275"/>
<text text-anchor="start" x="133.06" y="-261.5" font-family="Helvetica,sans-Serif" font-size="10.00">/Users/ilariomazzieri</text>
<text text-anchor="start" x="133.06" y="-250.25" font-family="Helvetica,sans-Serif" font-size="10.00">/Desktop/vulpes/vulpes</text>
<text text-anchor="middle" x="200.18" y="-239" font-family="Helvetica,sans-Serif" font-size="10.00">/assemble/integrator_traits.hpp</text>
</a>
</g>
</g>
<!-- Node3&#45;&gt;Node10 -->
<g id="edge11_Node000003_Node000010" class="edge">
<title>Node3&#45;&gt;Node10</title>
<g id="a_edge11_Node000003_Node000010"><a xlink:title=" ">
<path fill="none" stroke="#63b8ff" d="M168.55,-301.2C174.46,-292.59 180.79,-283.38 186.21,-275.48"/>
<polygon fill="#63b8ff" stroke="#63b8ff" points="165.75,-299.1 162.98,-309.33 171.52,-303.06 165.75,-299.1"/>
</a>
</g>
</g>
<!-- Node11 -->
<g id="Node000011" class="node">
<title>Node11</title>
<g id="a_Node000011"><a xlink:href="fe__vem_8hpp.html" target="_top" xlink:title=" ">
<polygon fill="white" stroke="#666666" points="422.81,-275 293.56,-275 293.56,-233.25 422.81,-233.25 422.81,-275"/>
<text text-anchor="start" x="301.56" y="-261.5" font-family="Helvetica,sans-Serif" font-size="10.00">/Users/ilariomazzieri</text>
<text text-anchor="start" x="301.56" y="-250.25" font-family="Helvetica,sans-Serif" font-size="10.00">/Desktop/vulpes/vulpes</text>
<text text-anchor="middle" x="358.18" y="-239" font-family="Helvetica,sans-Serif" font-size="10.00">/fe/fe_spaces/fe_vem.hpp</text>
</a>
</g>
</g>
<!-- Node3&#45;&gt;Node11 -->
<g id="edge13_Node000003_Node000011" class="edge">
<title>Node3&#45;&gt;Node11</title>
<g id="a_edge13_Node000003_Node000011"><a xlink:title=" ">
<path fill="none" stroke="#63b8ff" d="M214.94,-306.79C242.89,-296.71 275.01,-285.13 301.75,-275.48"/>
<polygon fill="#63b8ff" stroke="#63b8ff" points="214.1,-303.38 205.88,-310.06 216.48,-309.96 214.1,-303.38"/>
</a>
</g>
</g>
<!-- Node6 -->
<g id="Node000006" class="node">
<title>Node6</title>
<g id="a_Node000006"><a xlink:href="integrator__gauss_8hpp.html" target="_top" xlink:title=" ">
<polygon fill="white" stroke="#666666" points="169.56,-119.5 14.81,-119.5 14.81,-77.75 169.56,-77.75 169.56,-119.5"/>
<text text-anchor="start" x="22.81" y="-106" font-family="Helvetica,sans-Serif" font-size="10.00">/Users/ilariomazzieri</text>
<text text-anchor="start" x="22.81" y="-94.75" font-family="Helvetica,sans-Serif" font-size="10.00">/Desktop/vulpes/vulpes</text>
<text text-anchor="middle" x="92.18" y="-83.5" font-family="Helvetica,sans-Serif" font-size="10.00">/assemble/integrator_gauss.hpp</text>
</a>
</g>
</g>
<!-- Node5&#45;&gt;Node6 -->
<g id="edge5_Node000005_Node000006" class="edge">
<title>Node5&#45;&gt;Node6</title>
<g id="a_edge5_Node000005_Node000006"><a xlink:title=" ">
<path fill="none" stroke="#63b8ff" d="M162.2,-148.73C148.73,-139.29 133.81,-128.82 121.21,-119.98"/>
<polygon fill="#63b8ff" stroke="#63b8ff" points="159.81,-151.33 170,-154.21 163.83,-145.6 159.81,-151.33"/>
</a>
</g>
</g>
<!-- Node7 -->
<g id="Node000007" class="node">
<title>Node7</title>
<g id="a_Node000007"><a xlink:href="integrator__qfree_8hpp.html" target="_top" xlink:title=" ">
<polygon fill="white" stroke="#666666" points="527.31,-119.5 377.06,-119.5 377.06,-77.75 527.31,-77.75 527.31,-119.5"/>
<text text-anchor="start" x="385.06" y="-106" font-family="Helvetica,sans-Serif" font-size="10.00">/Users/ilariomazzieri</text>
<text text-anchor="start" x="385.06" y="-94.75" font-family="Helvetica,sans-Serif" font-size="10.00">/Desktop/vulpes/vulpes</text>
<text text-anchor="middle" x="452.18" y="-83.5" font-family="Helvetica,sans-Serif" font-size="10.00">/assemble/integrator_qfree.hpp</text>
</a>
</g>
</g>
<!-- Node5&#45;&gt;Node7 -->
<g id="edge6_Node000005_Node000007" class="edge">
<title>Node5&#45;&gt;Node7</title>
<g id="a_edge6_Node000005_Node000007"><a xlink:title=" ">
<path fill="none" stroke="#63b8ff" d="M278.53,-151.82C312.47,-141.62 351.82,-129.8 384.47,-119.98"/>
<polygon fill="#63b8ff" stroke="#63b8ff" points="277.73,-148.41 269.17,-154.64 279.75,-155.11 277.73,-148.41"/>
</a>
</g>
</g>
<!-- Node9 -->
<g id="Node000009" class="node">
<title>Node9</title>
<g id="a_Node000009"><a xlink:href="integrator__simplexify_8hpp.html" target="_top" xlink:title=" ">
<polygon fill="white" stroke="#666666" points="358.81,-119.5 187.56,-119.5 187.56,-77.75 358.81,-77.75 358.81,-119.5"/>
<text text-anchor="start" x="195.56" y="-106" font-family="Helvetica,sans-Serif" font-size="10.00">/Users/ilariomazzieri</text>
<text text-anchor="start" x="195.56" y="-94.75" font-family="Helvetica,sans-Serif" font-size="10.00">/Desktop/vulpes/vulpes</text>
<text text-anchor="middle" x="273.18" y="-83.5" font-family="Helvetica,sans-Serif" font-size="10.00">/assemble/integrator_simplexify.hpp</text>
</a>
</g>
</g>
<!-- Node5&#45;&gt;Node9 -->
<g id="edge8_Node000005_Node000009" class="edge">
<title>Node5&#45;&gt;Node9</title>
<g id="a_edge8_Node000005_Node000009"><a xlink:title=" ">
<path fill="none" stroke="#63b8ff" d="M227.71,-146.81C236.31,-137.89 245.62,-128.22 253.57,-119.98"/>
<polygon fill="#63b8ff" stroke="#63b8ff" points="225.22,-144.36 220.8,-153.99 230.26,-149.21 225.22,-144.36"/>
</a>
</g>
</g>
<!-- Node8 -->
<g id="Node000008" class="node">
<title>Node8</title>
<g id="a_Node000008"><a xlink:href="integrator__vem_8hpp.html" target="_top" xlink:title=" ">
<polygon fill="white" stroke="#666666" points="435.81,-41.75 288.56,-41.75 288.56,0 435.81,0 435.81,-41.75"/>
<text text-anchor="start" x="296.56" y="-28.25" font-family="Helvetica,sans-Serif" font-size="10.00">/Users/ilariomazzieri</text>
<text text-anchor="start" x="296.56" y="-17" font-family="Helvetica,sans-Serif" font-size="10.00">/Desktop/vulpes/vulpes</text>
<text text-anchor="middle" x="362.18" y="-5.75" font-family="Helvetica,sans-Serif" font-size="10.00">/assemble/integrator_vem.hpp</text>
</a>
</g>
</g>
<!-- Node7&#45;&gt;Node8 -->
<g id="edge7_Node000007_Node000008" class="edge">
<title>Node7&#45;&gt;Node8</title>
<g id="a_edge7_Node000007_Node000008"><a xlink:title=" ">
<path fill="none" stroke="#63b8ff" d="M419.56,-70.16C408.59,-60.94 396.57,-50.81 386.37,-42.23"/>
<polygon fill="#63b8ff" stroke="#63b8ff" points="417,-72.59 426.91,-76.35 421.51,-67.23 417,-72.59"/>
</a>
</g>
</g>
<!-- Node9&#45;&gt;Node4 -->
<g id="edge9_Node000009_Node000004" class="edge">
<title>Node9&#45;&gt;Node4</title>
<g id="a_edge9_Node000009_Node000004"><a xlink:title=" ">
<path fill="none" stroke="#63b8ff" d="M228.74,-71.53C212.42,-61.94 194.19,-51.24 178.85,-42.23"/>
<polygon fill="#63b8ff" stroke="#63b8ff" points="226.91,-74.51 237.31,-76.56 230.46,-68.48 226.91,-74.51"/>
</a>
</g>
</g>
<!-- Node9&#45;&gt;Node8 -->
<g id="edge10_Node000009_Node000008" class="edge">
<title>Node9&#45;&gt;Node8</title>
<g id="a_edge10_Node000009_Node000008"><a xlink:title=" ">
<path fill="none" stroke="#63b8ff" d="M305.77,-69.89C316.53,-60.73 328.28,-50.73 338.27,-42.23"/>
<polygon fill="#63b8ff" stroke="#63b8ff" points="303.53,-67.2 298.19,-76.34 308.07,-72.53 303.53,-67.2"/>
</a>
</g>
</g>
<!-- Node10&#45;&gt;Node5 -->
<g id="edge12_Node000010_Node000005" class="edge">
<title>Node10&#45;&gt;Node5</title>
<g id="a_edge12_Node000010_Node000005"><a xlink:title=" ">
<path fill="none" stroke="#63b8ff" d="M200.18,-221.5C200.18,-213.46 200.18,-205.04 200.18,-197.73"/>
<polygon fill="#63b8ff" stroke="#63b8ff" points="196.68,-221.31 200.18,-231.31 203.68,-221.31 196.68,-221.31"/>
</a>
</g>
</g>
</g>
</svg>
