<?xml version="1.0" encoding="UTF-8" standalone="no"?>
<!DOCTYPE svg PUBLIC "-//W3C//DTD SVG 1.1//EN"
 "http://www.w3.org/Graphics/SVG/1.1/DTD/svg11.dtd">
<!-- Generated by graphviz version 12.2.1 (20241206.2353)
 -->
<!-- Title: /Users/ilariomazzieri/Desktop/vulpes/vulpes/utils/eigen.hpp Pages: 1 -->
<!--zoomable 617 -->

<svg id="main" version="1.1" xmlns="http://www.w3.org/2000/svg" xmlns:xlink="http://www.w3.org/1999/xlink" xml:space="preserve" onload="init(evt)">
<style type="text/css"><![CDATA[
.node, .edge {opacity: 0.7;}
.node.selected, .edge.selected {opacity: 1;}
.edge:hover path { stroke: red; }
.edge:hover polygon { stroke: red; fill: red; }
]]></style>

<defs>
  <circle id="rim" cx="0" cy="0" r="7"/>
  <circle id="rim2" cx="0" cy="0" r="3.5"/>
  <g id="zoomPlus">
    <use xlink:href="#rim" fill="#404040"><set attributeName="fill" to="#808080" begin="zoomplus.mouseover" end="zoomplus.mouseout"/></use>
    <path d="M-4,0h8M0,-4v8" fill="none" stroke="white" stroke-width="1.5" pointer-events="none"/>
  </g>
  <g id="zoomMin">
    <use xlink:href="#rim" fill="#404040"><set attributeName="fill" to="#808080" begin="zoomminus.mouseover" end="zoomminus.mouseout"/></use>
    <path d="M-4,0h8" fill="none" stroke="white" stroke-width="1.5" pointer-events="none"/>
  </g>
  <g id="arrowUp" transform="translate(30 24)">
    <use xlink:href="#rim"/>
    <path pointer-events="none" fill="none" stroke="white" stroke-width="1.5" d="M0,-3.0v7 M-2.5,-0.5L0,-3.0L2.5,-0.5"/>
  </g>
  <g id="arrowRight" transform="rotate(90) translate(36 -43)">
    <use xlink:href="#rim"/>
    <path pointer-events="none" fill="none" stroke="white" stroke-width="1.5" d="M0,-3.0v7 M-2.5,-0.5L0,-3.0L2.5,-0.5"/>
  </g>
  <g id="arrowDown" transform="rotate(180) translate(-30 -48)">
    <use xlink:href="#rim"/>
    <path pointer-events="none" fill="none" stroke="white" stroke-width="1.5" d="M0,-3.0v7 M-2.5,-0.5L0,-3.0L2.5,-0.5"/>
  </g>
  <g id="arrowLeft" transform="rotate(270) translate(-36 17)">
    <use xlink:href="#rim"/>
    <path pointer-events="none" fill="none" stroke="white" stroke-width="1.5" d="M0,-3.0v7 M-2.5,-0.5L0,-3.0L2.5,-0.5"/>
  </g>
  <g id="resetDef">
    <use xlink:href="#rim2" fill="#404040"><set attributeName="fill" to="#808080" begin="reset.mouseover" end="reset.mouseout"/></use>
  </g>
</defs>
<script type="application/ecmascript">
var viewWidth = 649;
var viewHeight = 617;
var sectionId = 'dynsection-1';
</script>
<script type="application/ecmascript" xlink:href="svg.min.js"/>
<svg id="graph" class="graph">
<g id="viewport">
<title>/Users/ilariomazzieri/Desktop/vulpes/vulpes/utils/eigen.hpp</title>
<!-- Node1 -->
<g id="Node000001" class="node">
<title>Node1</title>
<g id="a_Node000001"><a xlink:title=" ">
<polygon fill="#999999" stroke="#666666" points="344.56,-608.5 225.81,-608.5 225.81,-566.75 344.56,-566.75 344.56,-608.5"/>
<text text-anchor="start" x="233.81" y="-595" font-family="Helvetica,sans-Serif" font-size="10.00">/Users/ilariomazzieri</text>
<text text-anchor="start" x="233.81" y="-583.75" font-family="Helvetica,sans-Serif" font-size="10.00">/Desktop/vulpes/vulpes</text>
<text text-anchor="middle" x="285.18" y="-572.5" font-family="Helvetica,sans-Serif" font-size="10.00">/utils/eigen.hpp</text>
</a>
</g>
</g>
<!-- Node2 -->
<g id="Node000002" class="node">
<title>Node2</title>
<g id="a_Node000002"><a xlink:href="fe__expr__basis_8hpp.html" target="_top" xlink:title=" ">
<polygon fill="white" stroke="#666666" points="166.93,-530.75 35.43,-530.75 35.43,-477.75 166.93,-477.75 166.93,-530.75"/>
<text text-anchor="start" x="43.43" y="-517.25" font-family="Helvetica,sans-Serif" font-size="10.00">/Users/ilariomazzieri</text>
<text text-anchor="start" x="43.43" y="-506" font-family="Helvetica,sans-Serif" font-size="10.00">/Desktop/vulpes/vulpes</text>
<text text-anchor="start" x="43.43" y="-494.75" font-family="Helvetica,sans-Serif" font-size="10.00">/fe/fe_expressions/fe_expr</text>
<text text-anchor="middle" x="101.18" y="-483.5" font-family="Helvetica,sans-Serif" font-size="10.00">_basis.hpp</text>
</a>
</g>
</g>
<!-- Node1&#45;&gt;Node2 -->
<g id="edge1_Node000001_Node000002" class="edge">
<title>Node1&#45;&gt;Node2</title>
<g id="a_edge1_Node000001_Node000002"><a xlink:title=" ">
<path fill="none" stroke="#63b8ff" d="M228.77,-561.68C206.89,-552 181.84,-540.92 159.76,-531.16"/>
<polygon fill="#63b8ff" stroke="#63b8ff" points="227.28,-564.84 237.84,-565.69 230.11,-558.44 227.28,-564.84"/>
</a>
</g>
</g>
<!-- Node12 -->
<g id="Node000012" class="node">
<title>Node12</title>
<g id="a_Node000012"><a xlink:href="fe__expr__vector_8hpp.html" target="_top" xlink:title="Bilinear/linear expressions for vector&#45;valued FE spaces.">
<polygon fill="white" stroke="#666666" points="260.93,-441.75 129.43,-441.75 129.43,-388.75 260.93,-388.75 260.93,-441.75"/>
<text text-anchor="start" x="137.43" y="-428.25" font-family="Helvetica,sans-Serif" font-size="10.00">/Users/ilariomazzieri</text>
<text text-anchor="start" x="137.43" y="-417" font-family="Helvetica,sans-Serif" font-size="10.00">/Desktop/vulpes/vulpes</text>
<text text-anchor="start" x="137.43" y="-405.75" font-family="Helvetica,sans-Serif" font-size="10.00">/fe/fe_expressions/fe_expr</text>
<text text-anchor="middle" x="195.18" y="-394.5" font-family="Helvetica,sans-Serif" font-size="10.00">_vector.hpp</text>
</a>
</g>
</g>
<!-- Node1&#45;&gt;Node12 -->
<g id="edge16_Node000001_Node000012" class="edge">
<title>Node1&#45;&gt;Node12</title>
<g id="a_edge16_Node000001_Node000012"><a xlink:title=" ">
<path fill="none" stroke="#63b8ff" d="M240.44,-559.61C230.37,-551.53 220.73,-541.82 214.18,-530.75 198.08,-503.52 194.58,-466.63 194.28,-442.16"/>
<polygon fill="#63b8ff" stroke="#63b8ff" points="238.03,-562.18 248.13,-565.39 242.24,-556.58 238.03,-562.18"/>
</a>
</g>
</g>
<!-- Node13 -->
<g id="Node000013" class="node">
<title>Node13</title>
<g id="a_Node000013"><a xlink:href="gnn__agglomeration_8cpp.html" target="_top" xlink:title=" ">
<polygon fill="white" stroke="#666666" points="346.81,-530.75 223.56,-530.75 223.56,-477.75 346.81,-477.75 346.81,-530.75"/>
<text text-anchor="start" x="231.56" y="-517.25" font-family="Helvetica,sans-Serif" font-size="10.00">/Users/ilariomazzieri</text>
<text text-anchor="start" x="231.56" y="-506" font-family="Helvetica,sans-Serif" font-size="10.00">/Desktop/vulpes/vulpes</text>
<text text-anchor="start" x="231.56" y="-494.75" font-family="Helvetica,sans-Serif" font-size="10.00">/geometry/agglomeration</text>
<text text-anchor="middle" x="285.18" y="-483.5" font-family="Helvetica,sans-Serif" font-size="10.00">/gnn_agglomeration.cpp</text>
</a>
</g>
</g>
<!-- Node1&#45;&gt;Node13 -->
<g id="edge17_Node000001_Node000013" class="edge">
<title>Node1&#45;&gt;Node13</title>
<g id="a_edge17_Node000001_Node000013"><a xlink:title=" ">
<path fill="none" stroke="#63b8ff" d="M285.18,-555.27C285.18,-547.24 285.18,-538.69 285.18,-530.98"/>
<polygon fill="#63b8ff" stroke="#63b8ff" points="281.68,-555 285.18,-565 288.68,-555 281.68,-555"/>
</a>
</g>
</g>
<!-- Node14 -->
<g id="Node000014" class="node">
<title>Node14</title>
<g id="a_Node000014"><a xlink:href="kmeans__agglomeration_8cpp.html" target="_top" xlink:title=" ">
<polygon fill="white" stroke="#666666" points="503.31,-530.75 365.06,-530.75 365.06,-477.75 503.31,-477.75 503.31,-530.75"/>
<text text-anchor="start" x="373.06" y="-517.25" font-family="Helvetica,sans-Serif" font-size="10.00">/Users/ilariomazzieri</text>
<text text-anchor="start" x="373.06" y="-506" font-family="Helvetica,sans-Serif" font-size="10.00">/Desktop/vulpes/vulpes</text>
<text text-anchor="start" x="373.06" y="-494.75" font-family="Helvetica,sans-Serif" font-size="10.00">/geometry/agglomeration</text>
<text text-anchor="middle" x="434.18" y="-483.5" font-family="Helvetica,sans-Serif" font-size="10.00">/kmeans_agglomeration.cpp</text>
</a>
</g>
</g>
<!-- Node1&#45;&gt;Node14 -->
<g id="edge18_Node000001_Node000014" class="edge">
<title>Node1&#45;&gt;Node14</title>
<g id="a_edge18_Node000001_Node000014"><a xlink:title=" ">
<path fill="none" stroke="#63b8ff" d="M332.32,-560.88C349.69,-551.4 369.36,-540.66 386.75,-531.16"/>
<polygon fill="#63b8ff" stroke="#63b8ff" points="330.83,-557.71 323.73,-565.58 334.18,-563.85 330.83,-557.71"/>
</a>
</g>
</g>
<!-- Node15 -->
<g id="Node000015" class="node">
<title>Node15</title>
<g id="a_Node000015"><a xlink:href="kmeans_8cpp.html" target="_top" xlink:title=" ">
<polygon fill="white" stroke="#666666" points="640.56,-525.12 521.81,-525.12 521.81,-483.38 640.56,-483.38 640.56,-525.12"/>
<text text-anchor="start" x="529.81" y="-511.62" font-family="Helvetica,sans-Serif" font-size="10.00">/Users/ilariomazzieri</text>
<text text-anchor="start" x="529.81" y="-500.38" font-family="Helvetica,sans-Serif" font-size="10.00">/Desktop/vulpes/vulpes</text>
<text text-anchor="middle" x="581.18" y="-489.12" font-family="Helvetica,sans-Serif" font-size="10.00">/geometry/kmeans.cpp</text>
</a>
</g>
</g>
<!-- Node1&#45;&gt;Node15 -->
<g id="edge19_Node000001_Node000015" class="edge">
<title>Node1&#45;&gt;Node15</title>
<g id="a_edge19_Node000001_Node000015"><a xlink:title=" ">
<path fill="none" stroke="#63b8ff" d="M356.08,-571.34C401.14,-561.09 460.5,-546.61 512.18,-530.75 517.31,-529.18 522.61,-527.43 527.9,-525.62"/>
<polygon fill="#63b8ff" stroke="#63b8ff" points="355.41,-567.9 346.43,-573.52 356.95,-574.73 355.41,-567.9"/>
</a>
</g>
</g>
<!-- Node3 -->
<g id="Node000003" class="node">
<title>Node3</title>
<g id="a_Node000003"><a xlink:href="fe__expression_8hpp.html" target="_top" xlink:title=" ">
<polygon fill="white" stroke="#666666" points="207.56,-352.75 88.81,-352.75 88.81,-311 207.56,-311 207.56,-352.75"/>
<text text-anchor="start" x="96.81" y="-339.25" font-family="Helvetica,sans-Serif" font-size="10.00">/Users/ilariomazzieri</text>
<text text-anchor="start" x="96.81" y="-328" font-family="Helvetica,sans-Serif" font-size="10.00">/Desktop/vulpes/vulpes</text>
<text text-anchor="middle" x="148.18" y="-316.75" font-family="Helvetica,sans-Serif" font-size="10.00">/fe/fe_expression.hpp</text>
</a>
</g>
</g>
<!-- Node2&#45;&gt;Node3 -->
<g id="edge2_Node000002_Node000003" class="edge">
<title>Node2&#45;&gt;Node3</title>
<g id="a_edge2_Node000002_Node000003"><a xlink:title=" ">
<path fill="none" stroke="#63b8ff" d="M104.5,-466.04C107.22,-443.31 112.01,-413.88 120.18,-388.75 124.18,-376.47 130.51,-363.53 136.14,-353.2"/>
<polygon fill="#63b8ff" stroke="#63b8ff" points="101.05,-465.43 103.42,-475.75 108,-466.2 101.05,-465.43"/>
</a>
</g>
</g>
<!-- Node2&#45;&gt;Node12 -->
<g id="edge14_Node000002_Node000012" class="edge">
<title>Node2&#45;&gt;Node12</title>
<g id="a_edge14_Node000002_Node000012"><a xlink:title=" ">
<path fill="none" stroke="#63b8ff" d="M137.56,-469.58C147.39,-460.48 157.88,-450.77 167.18,-442.17"/>
<polygon fill="#63b8ff" stroke="#63b8ff" points="135.21,-466.99 130.24,-476.35 139.96,-472.13 135.21,-466.99"/>
</a>
</g>
</g>
<!-- Node4 -->
<g id="Node000004" class="node">
<title>Node4</title>
<g id="a_Node000004"><a xlink:href="dg__utils_8hpp.html" target="_top" xlink:title=" ">
<polygon fill="white" stroke="#666666" points="203.56,-41.75 84.81,-41.75 84.81,0 203.56,0 203.56,-41.75"/>
<text text-anchor="start" x="92.81" y="-28.25" font-family="Helvetica,sans-Serif" font-size="10.00">/Users/ilariomazzieri</text>
<text text-anchor="start" x="92.81" y="-17" font-family="Helvetica,sans-Serif" font-size="10.00">/Desktop/vulpes/vulpes</text>
<text text-anchor="middle" x="144.18" y="-5.75" font-family="Helvetica,sans-Serif" font-size="10.00">/assemble/dg_utils.hpp</text>
</a>
</g>
</g>
<!-- Node3&#45;&gt;Node4 -->
<g id="edge3_Node000003_Node000004" class="edge">
<title>Node3&#45;&gt;Node4</title>
<g id="a_edge3_Node000003_Node000004"><a xlink:title=" ">
<path fill="none" stroke="#63b8ff" d="M120.72,-302.62C85.99,-264.66 28.07,-193.39 6.18,-119.5 0.91,-101.71 -4.19,-93.14 6.18,-77.75 23.74,-51.71 55.71,-37.8 84.47,-30.37"/>
<polygon fill="#63b8ff" stroke="#63b8ff" points="117.78,-304.59 127.15,-309.53 122.91,-299.83 117.78,-304.59"/>
</a>
</g>
</g>
<!-- Node5 -->
<g id="Node000005" class="node">
<title>Node5</title>
<g id="a_Node000005"><a xlink:href="integrator__base_8hpp.html" target="_top" xlink:title=" ">
<polygon fill="white" stroke="#666666" points="274.93,-197.25 125.43,-197.25 125.43,-155.5 274.93,-155.5 274.93,-197.25"/>
<text text-anchor="start" x="133.43" y="-183.75" font-family="Helvetica,sans-Serif" font-size="10.00">/Users/ilariomazzieri</text>
<text text-anchor="start" x="133.43" y="-172.5" font-family="Helvetica,sans-Serif" font-size="10.00">/Desktop/vulpes/vulpes</text>
<text text-anchor="middle" x="200.18" y="-161.25" font-family="Helvetica,sans-Serif" font-size="10.00">/assemble/integrator_base.hpp</text>
</a>
</g>
</g>
<!-- Node3&#45;&gt;Node5 -->
<g id="edge4_Node000003_Node000005" class="edge">
<title>Node3&#45;&gt;Node5</title>
<g id="a_edge4_Node000003_Node000005"><a xlink:title=" ">
<path fill="none" stroke="#63b8ff" d="M126.36,-301.11C114.6,-281.18 104.65,-254.77 116.18,-233.25 124.29,-218.12 138.5,-206.39 152.95,-197.67"/>
<polygon fill="#63b8ff" stroke="#63b8ff" points="123.25,-302.75 131.56,-309.32 129.16,-299 123.25,-302.75"/>
</a>
</g>
</g>
<!-- Node10 -->
<g id="Node000010" class="node">
<title>Node10</title>
<g id="a_Node000010"><a xlink:href="integrator__traits_8hpp.html" target="_top" xlink:title=" ">
<polygon fill="white" stroke="#666666" points="275.31,-275 125.06,-275 125.06,-233.25 275.31,-233.25 275.31,-275"/>
<text text-anchor="start" x="133.06" y="-261.5" font-family="Helvetica,sans-Serif" font-size="10.00">/Users/ilariomazzieri</text>
<text text-anchor="start" x="133.06" y="-250.25" font-family="Helvetica,sans-Serif" font-size="10.00">/Desktop/vulpes/vulpes</text>
<text text-anchor="middle" x="200.18" y="-239" font-family="Helvetica,sans-Serif" font-size="10.00">/assemble/integrator_traits.hpp</text>
</a>
</g>
</g>
<!-- Node3&#45;&gt;Node10 -->
<g id="edge11_Node000003_Node000010" class="edge">
<title>Node3&#45;&gt;Node10</title>
<g id="a_edge11_Node000003_Node000010"><a xlink:title=" ">
<path fill="none" stroke="#63b8ff" d="M168.55,-301.2C174.46,-292.59 180.79,-283.38 186.21,-275.48"/>
<polygon fill="#63b8ff" stroke="#63b8ff" points="165.75,-299.1 162.98,-309.33 171.52,-303.06 165.75,-299.1"/>
</a>
</g>
</g>
<!-- Node11 -->
<g id="Node000011" class="node">
<title>Node11</title>
<g id="a_Node000011"><a xlink:href="fe__vem_8hpp.html" target="_top" xlink:title=" ">
<polygon fill="white" stroke="#666666" points="422.81,-275 293.56,-275 293.56,-233.25 422.81,-233.25 422.81,-275"/>
<text text-anchor="start" x="301.56" y="-261.5" font-family="Helvetica,sans-Serif" font-size="10.00">/Users/ilariomazzieri</text>
<text text-anchor="start" x="301.56" y="-250.25" font-family="Helvetica,sans-Serif" font-size="10.00">/Desktop/vulpes/vulpes</text>
<text text-anchor="middle" x="358.18" y="-239" font-family="Helvetica,sans-Serif" font-size="10.00">/fe/fe_spaces/fe_vem.hpp</text>
</a>
</g>
</g>
<!-- Node3&#45;&gt;Node11 -->
<g id="edge13_Node000003_Node000011" class="edge">
<title>Node3&#45;&gt;Node11</title>
<g id="a_edge13_Node000003_Node000011"><a xlink:title=" ">
<path fill="none" stroke="#63b8ff" d="M214.94,-306.79C242.89,-296.71 275.01,-285.13 301.75,-275.48"/>
<polygon fill="#63b8ff" stroke="#63b8ff" points="214.1,-303.38 205.88,-310.06 216.48,-309.96 214.1,-303.38"/>
</a>
</g>
</g>
<!-- Node6 -->
<g id="Node000006" class="node">
<title>Node6</title>
<g id="a_Node000006"><a xlink:href="integrator__gauss_8hpp.html" target="_top" xlink:title=" ">
<polygon fill="white" stroke="#666666" points="169.56,-119.5 14.81,-119.5 14.81,-77.75 169.56,-77.75 169.56,-119.5"/>
<text text-anchor="start" x="22.81" y="-106" font-family="Helvetica,sans-Serif" font-size="10.00">/Users/ilariomazzieri</text>
<text text-anchor="start" x="22.81" y="-94.75" font-family="Helvetica,sans-Serif" font-size="10.00">/Desktop/vulpes/vulpes</text>
<text text-anchor="middle" x="92.18" y="-83.5" font-family="Helvetica,sans-Serif" font-size="10.00">/assemble/integrator_gauss.hpp</text>
</a>
</g>
</g>
<!-- Node5&#45;&gt;Node6 -->
<g id="edge5_Node000005_Node000006" class="edge">
<title>Node5&#45;&gt;Node6</title>
<g id="a_edge5_Node000005_Node000006"><a xlink:title=" ">
<path fill="none" stroke="#63b8ff" d="M162.2,-148.73C148.73,-139.29 133.81,-128.82 121.21,-119.98"/>
<polygon fill="#63b8ff" stroke="#63b8ff" points="159.81,-151.33 170,-154.21 163.83,-145.6 159.81,-151.33"/>
</a>
</g>
</g>
<!-- Node7 -->
<g id="Node000007" class="node">
<title>Node7</title>
<g id="a_Node000007"><a xlink:href="integrator__qfree_8hpp.html" target="_top" xlink:title=" ">
<polygon fill="white" stroke="#666666" points="527.31,-119.5 377.06,-119.5 377.06,-77.75 527.31,-77.75 527.31,-119.5"/>
<text text-anchor="start" x="385.06" y="-106" font-family="Helvetica,sans-Serif" font-size="10.00">/Users/ilariomazzieri</text>
<text text-anchor="start" x="385.06" y="-94.75" font-family="Helvetica,sans-Serif" font-size="10.00">/Desktop/vulpes/vulpes</text>
<text text-anchor="middle" x="452.18" y="-83.5" font-family="Helvetica,sans-Serif" font-size="10.00">/assemble/integrator_qfree.hpp</text>
</a>
</g>
</g>
<!-- Node5&#45;&gt;Node7 -->
<g id="edge6_Node000005_Node000007" class="edge">
<title>Node5&#45;&gt;Node7</title>
<g id="a_edge6_Node000005_Node000007"><a xlink:title=" ">
<path fill="none" stroke="#63b8ff" d="M278.53,-151.82C312.47,-141.62 351.82,-129.8 384.47,-119.98"/>
<polygon fill="#63b8ff" stroke="#63b8ff" points="277.73,-148.41 269.17,-154.64 279.75,-155.11 277.73,-148.41"/>
</a>
</g>
</g>
<!-- Node9 -->
<g id="Node000009" class="node">
<title>Node9</title>
<g id="a_Node000009"><a xlink:href="integrator__simplexify_8hpp.html" target="_top" xlink:title=" ">
<polygon fill="white" stroke="#666666" points="358.81,-119.5 187.56,-119.5 187.56,-77.75 358.81,-77.75 358.81,-119.5"/>
<text text-anchor="start" x="195.56" y="-106" font-family="Helvetica,sans-Serif" font-size="10.00">/Users/ilariomazzieri</text>
<text text-anchor="start" x="195.56" y="-94.75" font-family="Helvetica,sans-Serif" font-size="10.00">/Desktop/vulpes/vulpes</text>
<text text-anchor="middle" x="273.18" y="-83.5" font-family="Helvetica,sans-Serif" font-size="10.00">/assemble/integrator_simplexify.hpp</text>
</a>
</g>
</g>
<!-- Node5&#45;&gt;Node9 -->
<g id="edge8_Node000005_Node000009" class="edge">
<title>Node5&#45;&gt;Node9</title>
<g id="a_edge8_Node000005_Node000009"><a xlink:title=" ">
<path fill="none" stroke="#63b8ff" d="M227.71,-146.81C236.31,-137.89 245.62,-128.22 253.57,-119.98"/>
<polygon fill="#63b8ff" stroke="#63b8ff" points="225.22,-144.36 220.8,-153.99 230.26,-149.21 225.22,-144.36"/>
</a>
</g>
</g>
<!-- Node8 -->
<g id="Node000008" class="node">
<title>Node8</title>
<g id="a_Node000008"><a xlink:href="integrator__vem_8hpp.html" target="_top" xlink:title=" ">
<polygon fill="white" stroke="#666666" points="435.81,-41.75 288.56,-41.75 288.56,0 435.81,0 435.81,-41.75"/>
<text text-anchor="start" x="296.56" y="-28.25" font-family="Helvetica,sans-Serif" font-size="10.00">/Users/ilariomazzieri</text>
<text text-anchor="start" x="296.56" y="-17" font-family="Helvetica,sans-Serif" font-size="10.00">/Desktop/vulpes/vulpes</text>
<text text-anchor="middle" x="362.18" y="-5.75" font-family="Helvetica,sans-Serif" font-size="10.00">/assemble/integrator_vem.hpp</text>
</a>
</g>
</g>
<!-- Node7&#45;&gt;Node8 -->
<g id="edge7_Node000007_Node000008" class="edge">
<title>Node7&#45;&gt;Node8</title>
<g id="a_edge7_Node000007_Node000008"><a xlink:title=" ">
<path fill="none" stroke="#63b8ff" d="M419.56,-70.16C408.59,-60.94 396.57,-50.81 386.37,-42.23"/>
<polygon fill="#63b8ff" stroke="#63b8ff" points="417,-72.59 426.91,-76.35 421.51,-67.23 417,-72.59"/>
</a>
</g>
</g>
<!-- Node9&#45;&gt;Node4 -->
<g id="edge9_Node000009_Node000004" class="edge">
<title>Node9&#45;&gt;Node4</title>
<g id="a_edge9_Node000009_Node000004"><a xlink:title=" ">
<path fill="none" stroke="#63b8ff" d="M228.74,-71.53C212.42,-61.94 194.19,-51.24 178.85,-42.23"/>
<polygon fill="#63b8ff" stroke="#63b8ff" points="226.91,-74.51 237.31,-76.56 230.46,-68.48 226.91,-74.51"/>
</a>
</g>
</g>
<!-- Node9&#45;&gt;Node8 -->
<g id="edge10_Node000009_Node000008" class="edge">
<title>Node9&#45;&gt;Node8</title>
<g id="a_edge10_Node000009_Node000008"><a xlink:title=" ">
<path fill="none" stroke="#63b8ff" d="M305.77,-69.89C316.53,-60.73 328.28,-50.73 338.27,-42.23"/>
<polygon fill="#63b8ff" stroke="#63b8ff" points="303.53,-67.2 298.19,-76.34 308.07,-72.53 303.53,-67.2"/>
</a>
</g>
</g>
<!-- Node10&#45;&gt;Node5 -->
<g id="edge12_Node000010_Node000005" class="edge">
<title>Node10&#45;&gt;Node5</title>
<g id="a_edge12_Node000010_Node000005"><a xlink:title=" ">
<path fill="none" stroke="#63b8ff" d="M200.18,-221.5C200.18,-213.46 200.18,-205.04 200.18,-197.73"/>
<polygon fill="#63b8ff" stroke="#63b8ff" points="196.68,-221.31 200.18,-231.31 203.68,-221.31 196.68,-221.31"/>
</a>
</g>
</g>
<!-- Node12&#45;&gt;Node3 -->
<g id="edge15_Node000012_Node000003" class="edge">
<title>Node12&#45;&gt;Node3</title>
<g id="a_edge15_Node000012_Node000003"><a xlink:title=" ">
<path fill="none" stroke="#63b8ff" d="M174.7,-378.78C169.61,-369.97 164.33,-360.83 159.83,-353.04"/>
<polygon fill="#63b8ff" stroke="#63b8ff" points="171.52,-380.28 179.56,-387.19 177.59,-376.78 171.52,-380.28"/>
</a>
</g>
</g>
</g>
</svg>

<g id="navigator" transform="translate(0 0)" fill="#404254">
  <rect fill="#f2f5e9" fill-opacity="0.5" stroke="#606060" stroke-width=".5" x="0" y="0" width="60" height="60"/>
  <use id="zoomplus" xlink:href="#zoomPlus" x="17" y="9" onmousedown="handleZoom(evt,'in')"/>
  <use id="zoomminus" xlink:href="#zoomMin" x="42" y="9" onmousedown="handleZoom(evt,'out')"/>
  <use id="reset" xlink:href="#resetDef" x="30" y="36" onmousedown="handleReset()"/>
   <use id="arrowup" xlink:href="#arrowUp" x="0" y="0" onmousedown="handlePan(0,-1)"/>
  <use id="arrowright" xlink:href="#arrowRight" x="0" y="0" onmousedown="handlePan(1,0)"/>
  <use id="arrowdown" xlink:href="#arrowDown" x="0" y="0" onmousedown="handlePan(0,1)"/>
  <use id="arrowleft" xlink:href="#arrowLeft" x="0" y="0" onmousedown="handlePan(-1,0)"/>
</g>
<svg viewBox="0 0 15 15" width="100%" height="30px" preserveAspectRatio="xMaxYMin meet">
 <g id="arrow_out" transform="scale(0.3 0.3)">
  <a xlink:href="eigen_8hpp__dep__incl_org.svg" target="_base">
   <rect id="button" ry="5" rx="5" y="6" x="6" height="38" width="38"
        fill="#f2f5e9" fill-opacity="0.5" stroke="#606060" stroke-width="1.0"/>
   <path id="arrow"
     d="M 11.500037,31.436501 C 11.940474,20.09759 22.043105,11.32322 32.158766,21.979434 L 37.068811,17.246167 C 37.068811,17.246167 37.088388,32 37.088388,32 L 22.160133,31.978069 C 22.160133,31.978069 26.997745,27.140456 26.997745,27.140456 C 18.528582,18.264221 13.291696,25.230495 11.500037,31.436501 z"
     style="fill:#404040;"/>
  </a>
 </g>
</svg>

<style type='text/css'>
<![CDATA[
[data-mouse-over-selected='false'] { opacity: 0.7; }
[data-mouse-over-selected='true']  { opacity: 1.0; }
]]>
</style>
<script type="application/ecmascript"><![CDATA[
document.addEventListener('DOMContentLoaded', (event) => {
  highlightEdges();
  highlightAdjacentNodes();
});
]]></script>
</svg>
