<?xml version="1.0" encoding="UTF-8" standalone="no"?>
<!DOCTYPE svg PUBLIC "-//W3C//DTD SVG 1.1//EN"
 "http://www.w3.org/Graphics/SVG/1.1/DTD/svg11.dtd">
<!-- Generated by graphviz version 2.42.4 (0)
 -->
<!-- Title: /__w/vulpes/vulpes/vulpes/utils/eigen.hpp Pages: 1 -->
<svg width="164pt" height="93pt"
 viewBox="0.00 0.00 163.50 93.00" xmlns="http://www.w3.org/2000/svg" xmlns:xlink="http://www.w3.org/1999/xlink">
<g id="graph0" class="graph" transform="scale(1 1) rotate(0) translate(4 89)">
<title>/__w/vulpes/vulpes/vulpes/utils/eigen.hpp</title>
<!-- Node1 -->
<g id="Node000001" class="node">
<title>Node1</title>
<g id="a_Node000001"><a xlink:title=" ">
<polygon fill="#999999" stroke="#666666" points="136.5,-85 9.5,-85 9.5,-55 136.5,-55 136.5,-85"/>
<text text-anchor="start" x="17.5" y="-73" font-family="Helvetica,sans-Serif" font-size="10.00">/__w/vulpes/vulpes</text>
<text text-anchor="middle" x="73" y="-62" font-family="Helvetica,sans-Serif" font-size="10.00">/vulpes/utils/eigen.hpp</text>
</a>
</g>
</g>
<!-- Node2 -->
<g id="Node000002" class="node">
<title>Node2</title>
<g id="a_Node000002"><a xlink:title=" ">
<polygon fill="#e0e0e0" stroke="#999999" points="60,-19 0,-19 0,0 60,0 60,-19"/>
<text text-anchor="middle" x="30" y="-7" font-family="Helvetica,sans-Serif" font-size="10.00">iostream</text>
</a>
</g>
</g>
<!-- Node1&#45;&gt;Node2 -->
<g id="edge1_Node000001_Node000002" class="edge">
<title>Node1&#45;&gt;Node2</title>
<g id="a_edge1_Node000001_Node000002"><a xlink:title=" ">
<path fill="none" stroke="#63b8ff" d="M62.59,-54.84C56.54,-46.61 48.88,-36.18 42.5,-27.51"/>
<polygon fill="#63b8ff" stroke="#63b8ff" points="45.19,-25.25 36.44,-19.27 39.55,-29.4 45.19,-25.25"/>
</a>
</g>
</g>
<!-- Node3 -->
<g id="Node000003" class="node">
<title>Node3</title>
<g id="a_Node000003"><a xlink:title=" ">
<polygon fill="#e0e0e0" stroke="#999999" points="155.5,-19 78.5,-19 78.5,0 155.5,0 155.5,-19"/>
<text text-anchor="middle" x="117" y="-7" font-family="Helvetica,sans-Serif" font-size="10.00">Eigen/Dense</text>
</a>
</g>
</g>
<!-- Node1&#45;&gt;Node3 -->
<g id="edge2_Node000001_Node000003" class="edge">
<title>Node1&#45;&gt;Node3</title>
<g id="a_edge2_Node000001_Node000003"><a xlink:title=" ">
<path fill="none" stroke="#63b8ff" d="M83.65,-54.84C89.84,-46.61 97.69,-36.18 104.21,-27.51"/>
<polygon fill="#63b8ff" stroke="#63b8ff" points="107.19,-29.36 110.41,-19.27 101.6,-25.15 107.19,-29.36"/>
</a>
</g>
</g>
</g>
</svg>
