<?xml version="1.0" encoding="UTF-8" standalone="no"?>
<!DOCTYPE svg PUBLIC "-//W3C//DTD SVG 1.1//EN"
 "http://www.w3.org/Graphics/SVG/1.1/DTD/svg11.dtd">
<!-- Generated by graphviz version 2.42.4 (0)
 -->
<!-- Title: /__w/vulpes/vulpes/vulpes/fe/fe_space.hpp Pages: 1 -->
<svg width="1647pt" height="643pt"
 viewBox="0.00 0.00 1647.00 643.00" xmlns="http://www.w3.org/2000/svg" xmlns:xlink="http://www.w3.org/1999/xlink">
<g id="graph0" class="graph" transform="scale(1 1) rotate(0) translate(4 639)">
<title>/__w/vulpes/vulpes/vulpes/fe/fe_space.hpp</title>
<!-- Node1 -->
<g id="Node000001" class="node">
<title>Node1</title>
<g id="a_Node000001"><a xlink:title=" ">
<polygon fill="#999999" stroke="#666666" points="1049.5,-635 917.5,-635 917.5,-605 1049.5,-605 1049.5,-635"/>
<text text-anchor="start" x="925.5" y="-623" font-family="Helvetica,sans-Serif" font-size="10.00">/__w/vulpes/vulpes</text>
<text text-anchor="middle" x="983.5" y="-612" font-family="Helvetica,sans-Serif" font-size="10.00">/vulpes/fe/fe_space.hpp</text>
</a>
</g>
</g>
<!-- Node2 -->
<g id="Node000002" class="node">
<title>Node2</title>
<g id="a_Node000002"><a xlink:href="integrator__gauss_8hpp.html" target="_top" xlink:title=" ">
<polygon fill="white" stroke="#666666" points="324,-118 171,-118 171,-77 324,-77 324,-118"/>
<text text-anchor="start" x="179" y="-106" font-family="Helvetica,sans-Serif" font-size="10.00">/__w/vulpes/vulpes</text>
<text text-anchor="start" x="179" y="-95" font-family="Helvetica,sans-Serif" font-size="10.00">/vulpes/assemble/integrator</text>
<text text-anchor="middle" x="247.5" y="-84" font-family="Helvetica,sans-Serif" font-size="10.00">_gauss.hpp</text>
</a>
</g>
</g>
<!-- Node1&#45;&gt;Node2 -->
<g id="edge1_Node000001_Node000002" class="edge">
<title>Node1&#45;&gt;Node2</title>
<g id="a_edge1_Node000001_Node000002"><a xlink:title=" ">
<path fill="none" stroke="#63b8ff" d="M907.26,-617.66C800,-614.53 598.93,-604.04 431.5,-569 298.96,-541.26 142.5,-607.92 142.5,-472.5 142.5,-472.5 142.5,-472.5 142.5,-250.5 142.5,-206.79 136.96,-190.17 161.5,-154 171.77,-138.85 187.7,-126.91 203.07,-118.05"/>
<polygon fill="#63b8ff" stroke="#63b8ff" points="907.25,-621.16 917.34,-617.94 907.44,-614.17 907.25,-621.16"/>
</a>
</g>
</g>
<!-- Node3 -->
<g id="Node000003" class="node">
<title>Node3</title>
<g id="a_Node000003"><a xlink:href="integrator__qfree_8hpp.html" target="_top" xlink:title=" ">
<polygon fill="white" stroke="#666666" points="153,-118 0,-118 0,-77 153,-77 153,-118"/>
<text text-anchor="start" x="8" y="-106" font-family="Helvetica,sans-Serif" font-size="10.00">/__w/vulpes/vulpes</text>
<text text-anchor="start" x="8" y="-95" font-family="Helvetica,sans-Serif" font-size="10.00">/vulpes/assemble/integrator</text>
<text text-anchor="middle" x="76.5" y="-84" font-family="Helvetica,sans-Serif" font-size="10.00">_qfree.hpp</text>
</a>
</g>
</g>
<!-- Node1&#45;&gt;Node3 -->
<g id="edge2_Node000001_Node000003" class="edge">
<title>Node1&#45;&gt;Node3</title>
<g id="a_edge2_Node000001_Node000003"><a xlink:title=" ">
<path fill="none" stroke="#63b8ff" d="M907.36,-618.19C715.11,-615.6 220.81,-605.45 156.5,-569 111.3,-543.38 90.5,-524.46 90.5,-472.5 90.5,-472.5 90.5,-472.5 90.5,-250.5 90.5,-202.8 83.58,-147.03 79.47,-118.12"/>
<polygon fill="#63b8ff" stroke="#63b8ff" points="907.34,-621.69 917.38,-618.32 907.43,-614.69 907.34,-621.69"/>
</a>
</g>
</g>
<!-- Node5 -->
<g id="Node000005" class="node">
<title>Node5</title>
<g id="a_Node000005"><a xlink:href="integrator__simplexify_8hpp.html" target="_top" xlink:title=" ">
<polygon fill="white" stroke="#666666" points="495,-118 342,-118 342,-77 495,-77 495,-118"/>
<text text-anchor="start" x="350" y="-106" font-family="Helvetica,sans-Serif" font-size="10.00">/__w/vulpes/vulpes</text>
<text text-anchor="start" x="350" y="-95" font-family="Helvetica,sans-Serif" font-size="10.00">/vulpes/assemble/integrator</text>
<text text-anchor="middle" x="418.5" y="-84" font-family="Helvetica,sans-Serif" font-size="10.00">_simplexify.hpp</text>
</a>
</g>
</g>
<!-- Node1&#45;&gt;Node5 -->
<g id="edge4_Node000001_Node000005" class="edge">
<title>Node1&#45;&gt;Node5</title>
<g id="a_edge4_Node000001_Node000005"><a xlink:title=" ">
<path fill="none" stroke="#63b8ff" d="M907.44,-610.65C758.46,-593.22 434.43,-549.76 339.5,-492 238.6,-430.6 234.37,-335.45 289.5,-231 301.14,-208.96 314.61,-212.35 332.5,-195 358.44,-169.85 385.77,-138.17 402.48,-118.11"/>
<polygon fill="#63b8ff" stroke="#63b8ff" points="907.09,-614.13 917.43,-611.81 907.9,-607.18 907.09,-614.13"/>
</a>
</g>
</g>
<!-- Node7 -->
<g id="Node000007" class="node">
<title>Node7</title>
<g id="a_Node000007"><a xlink:href="dof__handler_8hpp.html" target="_top" xlink:title=" ">
<polygon fill="white" stroke="#666666" points="1169,-563.5 1012,-563.5 1012,-533.5 1169,-533.5 1169,-563.5"/>
<text text-anchor="start" x="1020" y="-551.5" font-family="Helvetica,sans-Serif" font-size="10.00">/__w/vulpes/vulpes</text>
<text text-anchor="middle" x="1090.5" y="-540.5" font-family="Helvetica,sans-Serif" font-size="10.00">/vulpes/dofs/dof_handler.hpp</text>
</a>
</g>
</g>
<!-- Node1&#45;&gt;Node7 -->
<g id="edge7_Node000001_Node000007" class="edge">
<title>Node1&#45;&gt;Node7</title>
<g id="a_edge7_Node000001_Node000007"><a xlink:title=" ">
<path fill="none" stroke="#63b8ff" d="M1013.9,-599.25C1031.44,-587.86 1053.08,-573.81 1068.88,-563.54"/>
<polygon fill="#63b8ff" stroke="#63b8ff" points="1011.63,-596.55 1005.15,-604.94 1015.45,-602.42 1011.63,-596.55"/>
</a>
</g>
</g>
<!-- Node9 -->
<g id="Node000009" class="node">
<title>Node9</title>
<g id="a_Node000009"><a xlink:href="fe__expr__base_8hpp.html" target="_top" xlink:title=" ">
<polygon fill="white" stroke="#666666" points="838,-492 697,-492 697,-451 838,-451 838,-492"/>
<text text-anchor="start" x="705" y="-480" font-family="Helvetica,sans-Serif" font-size="10.00">/__w/vulpes/vulpes</text>
<text text-anchor="start" x="705" y="-469" font-family="Helvetica,sans-Serif" font-size="10.00">/vulpes/fe/fe_expressions</text>
<text text-anchor="middle" x="767.5" y="-458" font-family="Helvetica,sans-Serif" font-size="10.00">/fe_expr_base.hpp</text>
</a>
</g>
</g>
<!-- Node1&#45;&gt;Node9 -->
<g id="edge10_Node000001_Node000009" class="edge">
<title>Node1&#45;&gt;Node9</title>
<g id="a_edge10_Node000001_Node000009"><a xlink:title=" ">
<path fill="none" stroke="#63b8ff" d="M954.5,-599.33C913.12,-571.26 837.56,-520.02 796.29,-492.03"/>
<polygon fill="#63b8ff" stroke="#63b8ff" points="952.55,-602.24 962.79,-604.95 956.48,-596.44 952.55,-602.24"/>
</a>
</g>
</g>
<!-- Node13 -->
<g id="Node000013" class="node">
<title>Node13</title>
<g id="a_Node000013"><a xlink:href="fe__vem_8hpp.html" target="_top" xlink:title=" ">
<polygon fill="white" stroke="#666666" points="962.5,-272 846.5,-272 846.5,-231 962.5,-231 962.5,-272"/>
<text text-anchor="start" x="854.5" y="-260" font-family="Helvetica,sans-Serif" font-size="10.00">/__w/vulpes/vulpes</text>
<text text-anchor="start" x="854.5" y="-249" font-family="Helvetica,sans-Serif" font-size="10.00">/vulpes/fe/fe_spaces</text>
<text text-anchor="middle" x="904.5" y="-238" font-family="Helvetica,sans-Serif" font-size="10.00">/fe_vem.hpp</text>
</a>
</g>
</g>
<!-- Node1&#45;&gt;Node13 -->
<g id="edge35_Node000001_Node000013" class="edge">
<title>Node1&#45;&gt;Node13</title>
<g id="a_edge35_Node000001_Node000013"><a xlink:title=" ">
<path fill="none" stroke="#63b8ff" d="M983.5,-594.82C983.5,-565.78 983.5,-515.58 983.5,-472.5 983.5,-472.5 983.5,-472.5 983.5,-393.5 983.5,-344.96 947.42,-297.63 924.03,-272.05"/>
<polygon fill="#63b8ff" stroke="#63b8ff" points="980,-594.86 983.5,-604.86 987,-594.86 980,-594.86"/>
</a>
</g>
</g>
<!-- Node18 -->
<g id="Node000018" class="node">
<title>Node18</title>
<g id="a_Node000018"><a xlink:href="fe__lagrange__simplex_8hpp.html" target="_top" xlink:title=" ">
<polygon fill="white" stroke="#666666" points="1369,-569 1226,-569 1226,-528 1369,-528 1369,-569"/>
<text text-anchor="start" x="1234" y="-557" font-family="Helvetica,sans-Serif" font-size="10.00">/__w/vulpes/vulpes</text>
<text text-anchor="start" x="1234" y="-546" font-family="Helvetica,sans-Serif" font-size="10.00">/vulpes/fe/fe_spaces</text>
<text text-anchor="middle" x="1297.5" y="-535" font-family="Helvetica,sans-Serif" font-size="10.00">/fe_lagrange_simplex.hpp</text>
</a>
</g>
</g>
<!-- Node1&#45;&gt;Node18 -->
<g id="edge28_Node000001_Node000018" class="edge">
<title>Node1&#45;&gt;Node18</title>
<g id="a_edge28_Node000001_Node000018"><a xlink:title=" ">
<path fill="none" stroke="#63b8ff" d="M1058.26,-602.75C1102.78,-593.03 1160.39,-580.4 1211.5,-569 1216.13,-567.97 1220.9,-566.9 1225.71,-565.82"/>
<polygon fill="#63b8ff" stroke="#63b8ff" points="1057.41,-599.35 1048.39,-604.9 1058.91,-606.19 1057.41,-599.35"/>
</a>
</g>
</g>
<!-- Node20 -->
<g id="Node000020" class="node">
<title>Node20</title>
<g id="a_Node000020"><a xlink:href="fe__lagrange__tensor_8hpp.html" target="_top" xlink:title=" ">
<polygon fill="white" stroke="#666666" points="1329.5,-492 1195.5,-492 1195.5,-451 1329.5,-451 1329.5,-492"/>
<text text-anchor="start" x="1203.5" y="-480" font-family="Helvetica,sans-Serif" font-size="10.00">/__w/vulpes/vulpes</text>
<text text-anchor="start" x="1203.5" y="-469" font-family="Helvetica,sans-Serif" font-size="10.00">/vulpes/fe/fe_spaces</text>
<text text-anchor="middle" x="1262.5" y="-458" font-family="Helvetica,sans-Serif" font-size="10.00">/fe_lagrange_tensor.hpp</text>
</a>
</g>
</g>
<!-- Node1&#45;&gt;Node20 -->
<g id="edge32_Node000001_Node000020" class="edge">
<title>Node1&#45;&gt;Node20</title>
<g id="a_edge32_Node000001_Node000020"><a xlink:title=" ">
<path fill="none" stroke="#63b8ff" d="M1059.66,-610.11C1097.23,-603.14 1141.99,-590.79 1177.5,-569 1186.02,-563.77 1224.18,-518.68 1246.37,-492.02"/>
<polygon fill="#63b8ff" stroke="#63b8ff" points="1059.01,-606.67 1049.77,-611.85 1060.22,-613.56 1059.01,-606.67"/>
</a>
</g>
</g>
<!-- Node21 -->
<g id="Node000021" class="node">
<title>Node21</title>
<g id="a_Node000021"><a xlink:href="fe__modal__simplex_8hpp.html" target="_top" xlink:title=" ">
<polygon fill="white" stroke="#666666" points="1639,-492 1508,-492 1508,-451 1639,-451 1639,-492"/>
<text text-anchor="start" x="1516" y="-480" font-family="Helvetica,sans-Serif" font-size="10.00">/__w/vulpes/vulpes</text>
<text text-anchor="start" x="1516" y="-469" font-family="Helvetica,sans-Serif" font-size="10.00">/vulpes/fe/fe_spaces</text>
<text text-anchor="middle" x="1573.5" y="-458" font-family="Helvetica,sans-Serif" font-size="10.00">/fe_modal_simplex.hpp</text>
</a>
</g>
</g>
<!-- Node1&#45;&gt;Node21 -->
<g id="edge33_Node000001_Node000021" class="edge">
<title>Node1&#45;&gt;Node21</title>
<g id="a_edge33_Node000001_Node000021"><a xlink:title=" ">
<path fill="none" stroke="#63b8ff" d="M1060.04,-615.5C1158.86,-609.94 1324.54,-596.73 1378.5,-569 1400.6,-557.65 1395.74,-541.65 1416.5,-528 1432.2,-517.68 1472.44,-503.53 1508.25,-492.1"/>
<polygon fill="#63b8ff" stroke="#63b8ff" points="1059.6,-612.02 1049.81,-616.07 1059.99,-619.01 1059.6,-612.02"/>
</a>
</g>
</g>
<!-- Node22 -->
<g id="Node000022" class="node">
<title>Node22</title>
<g id="a_Node000022"><a xlink:href="fe__modal__tensor_8hpp.html" target="_top" xlink:title=" ">
<polygon fill="white" stroke="#666666" points="1547.5,-569 1425.5,-569 1425.5,-528 1547.5,-528 1547.5,-569"/>
<text text-anchor="start" x="1433.5" y="-557" font-family="Helvetica,sans-Serif" font-size="10.00">/__w/vulpes/vulpes</text>
<text text-anchor="start" x="1433.5" y="-546" font-family="Helvetica,sans-Serif" font-size="10.00">/vulpes/fe/fe_spaces</text>
<text text-anchor="middle" x="1486.5" y="-535" font-family="Helvetica,sans-Serif" font-size="10.00">/fe_modal_tensor.hpp</text>
</a>
</g>
</g>
<!-- Node1&#45;&gt;Node22 -->
<g id="edge34_Node000001_Node000022" class="edge">
<title>Node1&#45;&gt;Node22</title>
<g id="a_edge34_Node000001_Node000022"><a xlink:title=" ">
<path fill="none" stroke="#63b8ff" d="M1059.74,-613.29C1145.71,-606.11 1289.44,-591.88 1411.5,-569 1416,-568.16 1420.62,-567.19 1425.26,-566.16"/>
<polygon fill="#63b8ff" stroke="#63b8ff" points="1059.23,-609.82 1049.55,-614.13 1059.8,-616.8 1059.23,-609.82"/>
</a>
</g>
</g>
<!-- Node23 -->
<g id="Node000023" class="node">
<title>Node23</title>
<g id="a_Node000023"><a xlink:href="fe__values_8hpp.html" target="_top" xlink:title=" ">
<polygon fill="white" stroke="#666666" points="835.5,-563.5 699.5,-563.5 699.5,-533.5 835.5,-533.5 835.5,-563.5"/>
<text text-anchor="start" x="707.5" y="-551.5" font-family="Helvetica,sans-Serif" font-size="10.00">/__w/vulpes/vulpes</text>
<text text-anchor="middle" x="767.5" y="-540.5" font-family="Helvetica,sans-Serif" font-size="10.00">/vulpes/fe/fe_values.hpp</text>
</a>
</g>
</g>
<!-- Node1&#45;&gt;Node23 -->
<g id="edge36_Node000001_Node000023" class="edge">
<title>Node1&#45;&gt;Node23</title>
<g id="a_edge36_Node000001_Node000023"><a xlink:title=" ">
<path fill="none" stroke="#63b8ff" d="M930.26,-601.87C893.61,-590.08 845.53,-574.61 811.15,-563.54"/>
<polygon fill="#63b8ff" stroke="#63b8ff" points="929.2,-605.2 939.79,-604.94 931.34,-598.54 929.2,-605.2"/>
</a>
</g>
</g>
<!-- Node4 -->
<g id="Node000004" class="node">
<title>Node4</title>
<g id="a_Node000004"><a xlink:href="integrator__vem_8hpp.html" target="_top" xlink:title=" ">
<polygon fill="white" stroke="#666666" points="324,-41 171,-41 171,0 324,0 324,-41"/>
<text text-anchor="start" x="179" y="-29" font-family="Helvetica,sans-Serif" font-size="10.00">/__w/vulpes/vulpes</text>
<text text-anchor="start" x="179" y="-18" font-family="Helvetica,sans-Serif" font-size="10.00">/vulpes/assemble/integrator</text>
<text text-anchor="middle" x="247.5" y="-7" font-family="Helvetica,sans-Serif" font-size="10.00">_vem.hpp</text>
</a>
</g>
</g>
<!-- Node3&#45;&gt;Node4 -->
<g id="edge3_Node000003_Node000004" class="edge">
<title>Node3&#45;&gt;Node4</title>
<g id="a_edge3_Node000003_Node000004"><a xlink:title=" ">
<path fill="none" stroke="#63b8ff" d="M130.4,-72.86C153.75,-62.62 180.75,-50.77 202.94,-41.04"/>
<polygon fill="#63b8ff" stroke="#63b8ff" points="128.73,-69.77 120.98,-76.99 131.55,-76.18 128.73,-69.77"/>
</a>
</g>
</g>
<!-- Node5&#45;&gt;Node4 -->
<g id="edge6_Node000005_Node000004" class="edge">
<title>Node5&#45;&gt;Node4</title>
<g id="a_edge6_Node000005_Node000004"><a xlink:title=" ">
<path fill="none" stroke="#63b8ff" d="M364.6,-72.86C341.25,-62.62 314.25,-50.77 292.06,-41.04"/>
<polygon fill="#63b8ff" stroke="#63b8ff" points="363.45,-76.18 374.02,-76.99 366.27,-69.77 363.45,-76.18"/>
</a>
</g>
</g>
<!-- Node6 -->
<g id="Node000006" class="node">
<title>Node6</title>
<g id="a_Node000006"><a xlink:href="dg__utils_8hpp.html" target="_top" xlink:title=" ">
<polygon fill="white" stroke="#666666" points="913,-41 796,-41 796,0 913,0 913,-41"/>
<text text-anchor="start" x="804" y="-29" font-family="Helvetica,sans-Serif" font-size="10.00">/__w/vulpes/vulpes</text>
<text text-anchor="start" x="804" y="-18" font-family="Helvetica,sans-Serif" font-size="10.00">/vulpes/assemble/dg</text>
<text text-anchor="middle" x="854.5" y="-7" font-family="Helvetica,sans-Serif" font-size="10.00">_utils.hpp</text>
</a>
</g>
</g>
<!-- Node5&#45;&gt;Node6 -->
<g id="edge5_Node000005_Node000006" class="edge">
<title>Node5&#45;&gt;Node6</title>
<g id="a_edge5_Node000005_Node000006"><a xlink:title=" ">
<path fill="none" stroke="#63b8ff" d="M505.21,-81.58C591.31,-66.77 720.96,-44.47 795.7,-31.61"/>
<polygon fill="#63b8ff" stroke="#63b8ff" points="504.46,-78.16 495.19,-83.31 505.64,-85.06 504.46,-78.16"/>
</a>
</g>
</g>
<!-- Node7&#45;&gt;Node6 -->
<g id="edge8_Node000007_Node000006" class="edge">
<title>Node7&#45;&gt;Node6</title>
<g id="a_edge8_Node000007_Node000006"><a xlink:title=" ">
<path fill="none" stroke="#63b8ff" d="M1118.56,-526.91C1129.51,-517.46 1141.18,-505.38 1148.5,-492 1169.49,-453.66 1167.5,-439.21 1167.5,-395.5 1167.5,-395.5 1167.5,-395.5 1167.5,-173.5 1167.5,-61.59 1003.6,-32.05 913.01,-24.27"/>
<polygon fill="#63b8ff" stroke="#63b8ff" points="1116.28,-524.25 1110.78,-533.31 1120.73,-529.66 1116.28,-524.25"/>
</a>
</g>
</g>
<!-- Node8 -->
<g id="Node000008" class="node">
<title>Node8</title>
<g id="a_Node000008"><a xlink:href="project__solution_8hpp.html" target="_top" xlink:title=" ">
<polygon fill="white" stroke="#666666" points="1139.5,-492 1011.5,-492 1011.5,-451 1139.5,-451 1139.5,-492"/>
<text text-anchor="start" x="1019.5" y="-480" font-family="Helvetica,sans-Serif" font-size="10.00">/__w/vulpes/vulpes</text>
<text text-anchor="start" x="1019.5" y="-469" font-family="Helvetica,sans-Serif" font-size="10.00">/vulpes/postprocessing</text>
<text text-anchor="middle" x="1075.5" y="-458" font-family="Helvetica,sans-Serif" font-size="10.00">/project_solution.hpp</text>
</a>
</g>
</g>
<!-- Node7&#45;&gt;Node8 -->
<g id="edge9_Node000007_Node000008" class="edge">
<title>Node7&#45;&gt;Node8</title>
<g id="a_edge9_Node000007_Node000008"><a xlink:title=" ">
<path fill="none" stroke="#63b8ff" d="M1085.71,-523.55C1083.69,-513.44 1081.36,-501.81 1079.44,-492.2"/>
<polygon fill="#63b8ff" stroke="#63b8ff" points="1082.29,-524.27 1087.68,-533.39 1089.15,-522.9 1082.29,-524.27"/>
</a>
</g>
</g>
<!-- Node10 -->
<g id="Node000010" class="node">
<title>Node10</title>
<g id="a_Node000010"><a xlink:href="fe__expression_8hpp.html" target="_top" xlink:title=" ">
<polygon fill="white" stroke="#666666" points="766,-338 609,-338 609,-308 766,-308 766,-338"/>
<text text-anchor="start" x="617" y="-326" font-family="Helvetica,sans-Serif" font-size="10.00">/__w/vulpes/vulpes</text>
<text text-anchor="middle" x="687.5" y="-315" font-family="Helvetica,sans-Serif" font-size="10.00">/vulpes/fe/fe_expression.hpp</text>
</a>
</g>
</g>
<!-- Node9&#45;&gt;Node10 -->
<g id="edge11_Node000009_Node000010" class="edge">
<title>Node9&#45;&gt;Node10</title>
<g id="a_edge11_Node000009_Node000010"><a xlink:title=" ">
<path fill="none" stroke="#63b8ff" d="M847.93,-461.66C877.27,-454.1 907.6,-440.25 925.5,-415 936.04,-400.13 936.98,-388.15 925.5,-374 905.58,-349.46 827.52,-336.52 766.16,-330.01"/>
<polygon fill="#63b8ff" stroke="#63b8ff" points="846.97,-458.29 838.04,-463.99 848.58,-465.11 846.97,-458.29"/>
</a>
</g>
</g>
<!-- Node14 -->
<g id="Node000014" class="node">
<title>Node14</title>
<g id="a_Node000014"><a xlink:href="fe__expr__basis_8hpp.html" target="_top" xlink:title=" ">
<polygon fill="white" stroke="#666666" points="440,-415 299,-415 299,-374 440,-374 440,-415"/>
<text text-anchor="start" x="307" y="-403" font-family="Helvetica,sans-Serif" font-size="10.00">/__w/vulpes/vulpes</text>
<text text-anchor="start" x="307" y="-392" font-family="Helvetica,sans-Serif" font-size="10.00">/vulpes/fe/fe_expressions</text>
<text text-anchor="middle" x="369.5" y="-381" font-family="Helvetica,sans-Serif" font-size="10.00">/fe_expr_basis.hpp</text>
</a>
</g>
</g>
<!-- Node9&#45;&gt;Node14 -->
<g id="edge20_Node000009_Node000014" class="edge">
<title>Node9&#45;&gt;Node14</title>
<g id="a_edge20_Node000009_Node000014"><a xlink:title=" ">
<path fill="none" stroke="#63b8ff" d="M686.78,-458.05C622.11,-447.7 529.18,-431.95 448.5,-415 445.74,-414.42 442.92,-413.81 440.08,-413.18"/>
<polygon fill="#63b8ff" stroke="#63b8ff" points="686.48,-461.55 696.91,-459.67 687.58,-454.64 686.48,-461.55"/>
</a>
</g>
</g>
<!-- Node15 -->
<g id="Node000015" class="node">
<title>Node15</title>
<g id="a_Node000015"><a xlink:href="fe__expr__func_8hpp.html" target="_top" xlink:title=" ">
<polygon fill="white" stroke="#666666" points="599,-415 458,-415 458,-374 599,-374 599,-415"/>
<text text-anchor="start" x="466" y="-403" font-family="Helvetica,sans-Serif" font-size="10.00">/__w/vulpes/vulpes</text>
<text text-anchor="start" x="466" y="-392" font-family="Helvetica,sans-Serif" font-size="10.00">/vulpes/fe/fe_expressions</text>
<text text-anchor="middle" x="528.5" y="-381" font-family="Helvetica,sans-Serif" font-size="10.00">/fe_expr_func.hpp</text>
</a>
</g>
</g>
<!-- Node9&#45;&gt;Node15 -->
<g id="edge22_Node000009_Node000015" class="edge">
<title>Node9&#45;&gt;Node15</title>
<g id="a_edge22_Node000009_Node000015"><a xlink:title=" ">
<path fill="none" stroke="#63b8ff" d="M695.62,-447.94C662.22,-437.46 622.89,-425.12 590.77,-415.04"/>
<polygon fill="#63b8ff" stroke="#63b8ff" points="694.74,-451.34 705.33,-450.99 696.84,-444.66 694.74,-451.34"/>
</a>
</g>
</g>
<!-- Node16 -->
<g id="Node000016" class="node">
<title>Node16</title>
<g id="a_Node000016"><a xlink:href="fe__expr__op_8hpp.html" target="_top" xlink:title=" ">
<polygon fill="white" stroke="#666666" points="758,-415 617,-415 617,-374 758,-374 758,-415"/>
<text text-anchor="start" x="625" y="-403" font-family="Helvetica,sans-Serif" font-size="10.00">/__w/vulpes/vulpes</text>
<text text-anchor="start" x="625" y="-392" font-family="Helvetica,sans-Serif" font-size="10.00">/vulpes/fe/fe_expressions</text>
<text text-anchor="middle" x="687.5" y="-381" font-family="Helvetica,sans-Serif" font-size="10.00">/fe_expr_op.hpp</text>
</a>
</g>
</g>
<!-- Node9&#45;&gt;Node16 -->
<g id="edge24_Node000009_Node000016" class="edge">
<title>Node9&#45;&gt;Node16</title>
<g id="a_edge24_Node000009_Node000016"><a xlink:title=" ">
<path fill="none" stroke="#63b8ff" d="M739.01,-443.79C728.91,-434.32 717.73,-423.84 708.38,-415.07"/>
<polygon fill="#63b8ff" stroke="#63b8ff" points="736.79,-446.51 746.48,-450.79 741.58,-441.4 736.79,-446.51"/>
</a>
</g>
</g>
<!-- Node17 -->
<g id="Node000017" class="node">
<title>Node17</title>
<g id="a_Node000017"><a xlink:href="fe__expr__unary_8hpp.html" target="_top" xlink:title=" ">
<polygon fill="white" stroke="#666666" points="917,-415 776,-415 776,-374 917,-374 917,-415"/>
<text text-anchor="start" x="784" y="-403" font-family="Helvetica,sans-Serif" font-size="10.00">/__w/vulpes/vulpes</text>
<text text-anchor="start" x="784" y="-392" font-family="Helvetica,sans-Serif" font-size="10.00">/vulpes/fe/fe_expressions</text>
<text text-anchor="middle" x="846.5" y="-381" font-family="Helvetica,sans-Serif" font-size="10.00">/fe_expr_unary.hpp</text>
</a>
</g>
</g>
<!-- Node9&#45;&gt;Node17 -->
<g id="edge26_Node000009_Node000017" class="edge">
<title>Node9&#45;&gt;Node17</title>
<g id="a_edge26_Node000009_Node000017"><a xlink:title=" ">
<path fill="none" stroke="#63b8ff" d="M795.63,-443.79C805.61,-434.32 816.65,-423.84 825.88,-415.07"/>
<polygon fill="#63b8ff" stroke="#63b8ff" points="793.1,-441.37 788.26,-450.79 797.92,-446.45 793.1,-441.37"/>
</a>
</g>
</g>
<!-- Node10&#45;&gt;Node6 -->
<g id="edge12_Node000010_Node000006" class="edge">
<title>Node10&#45;&gt;Node6</title>
<g id="a_edge12_Node000010_Node000006"><a xlink:title=" ">
<path fill="none" stroke="#63b8ff" d="M700.32,-298.94C732.06,-241.82 813.89,-94.58 843.55,-41.2"/>
<polygon fill="#63b8ff" stroke="#63b8ff" points="697.13,-297.47 695.33,-307.91 703.25,-300.87 697.13,-297.47"/>
</a>
</g>
</g>
<!-- Node11 -->
<g id="Node000011" class="node">
<title>Node11</title>
<g id="a_Node000011"><a xlink:href="integrator__base_8hpp.html" target="_top" xlink:title=" ">
<polygon fill="white" stroke="#666666" points="324,-195 171,-195 171,-154 324,-154 324,-195"/>
<text text-anchor="start" x="179" y="-183" font-family="Helvetica,sans-Serif" font-size="10.00">/__w/vulpes/vulpes</text>
<text text-anchor="start" x="179" y="-172" font-family="Helvetica,sans-Serif" font-size="10.00">/vulpes/assemble/integrator</text>
<text text-anchor="middle" x="247.5" y="-161" font-family="Helvetica,sans-Serif" font-size="10.00">_base.hpp</text>
</a>
</g>
</g>
<!-- Node10&#45;&gt;Node11 -->
<g id="edge13_Node000010_Node000011" class="edge">
<title>Node10&#45;&gt;Node11</title>
<g id="a_edge13_Node000010_Node000011"><a xlink:title=" ">
<path fill="none" stroke="#63b8ff" d="M646.6,-303.78C601.59,-284.16 526.81,-252.83 460.5,-231 415.85,-216.3 364.94,-202.91 324.09,-192.97"/>
<polygon fill="#63b8ff" stroke="#63b8ff" points="645.45,-307.1 656.02,-307.9 648.26,-300.69 645.45,-307.1"/>
</a>
</g>
</g>
<!-- Node12 -->
<g id="Node000012" class="node">
<title>Node12</title>
<g id="a_Node000012"><a xlink:href="integrator__traits_8hpp.html" target="_top" xlink:title=" ">
<polygon fill="white" stroke="#666666" points="452,-272 299,-272 299,-231 452,-231 452,-272"/>
<text text-anchor="start" x="307" y="-260" font-family="Helvetica,sans-Serif" font-size="10.00">/__w/vulpes/vulpes</text>
<text text-anchor="start" x="307" y="-249" font-family="Helvetica,sans-Serif" font-size="10.00">/vulpes/assemble/integrator</text>
<text text-anchor="middle" x="375.5" y="-238" font-family="Helvetica,sans-Serif" font-size="10.00">_traits.hpp</text>
</a>
</g>
</g>
<!-- Node10&#45;&gt;Node12 -->
<g id="edge17_Node000010_Node000012" class="edge">
<title>Node10&#45;&gt;Node12</title>
<g id="a_edge17_Node000010_Node000012"><a xlink:title=" ">
<path fill="none" stroke="#63b8ff" d="M614.5,-305.74C565.69,-294.87 501.59,-280.59 452.06,-269.55"/>
<polygon fill="#63b8ff" stroke="#63b8ff" points="613.84,-309.18 624.36,-307.94 615.36,-302.35 613.84,-309.18"/>
</a>
</g>
</g>
<!-- Node10&#45;&gt;Node13 -->
<g id="edge19_Node000010_Node000013" class="edge">
<title>Node10&#45;&gt;Node13</title>
<g id="a_edge19_Node000010_Node000013"><a xlink:title=" ">
<path fill="none" stroke="#63b8ff" d="M741.03,-304.86C772.95,-294.63 813.51,-281.64 846.25,-271.16"/>
<polygon fill="#63b8ff" stroke="#63b8ff" points="739.87,-301.55 731.41,-307.94 742,-308.22 739.87,-301.55"/>
</a>
</g>
</g>
<!-- Node11&#45;&gt;Node2 -->
<g id="edge14_Node000011_Node000002" class="edge">
<title>Node11&#45;&gt;Node2</title>
<g id="a_edge14_Node000011_Node000002"><a xlink:title=" ">
<path fill="none" stroke="#63b8ff" d="M247.5,-143.69C247.5,-135.08 247.5,-125.9 247.5,-118.07"/>
<polygon fill="#63b8ff" stroke="#63b8ff" points="244,-143.79 247.5,-153.79 251,-143.79 244,-143.79"/>
</a>
</g>
</g>
<!-- Node11&#45;&gt;Node3 -->
<g id="edge15_Node000011_Node000003" class="edge">
<title>Node11&#45;&gt;Node3</title>
<g id="a_edge15_Node000011_Node000003"><a xlink:title=" ">
<path fill="none" stroke="#63b8ff" d="M193.6,-149.86C170.25,-139.62 143.25,-127.77 121.06,-118.04"/>
<polygon fill="#63b8ff" stroke="#63b8ff" points="192.45,-153.18 203.02,-153.99 195.27,-146.77 192.45,-153.18"/>
</a>
</g>
</g>
<!-- Node11&#45;&gt;Node5 -->
<g id="edge16_Node000011_Node000005" class="edge">
<title>Node11&#45;&gt;Node5</title>
<g id="a_edge16_Node000011_Node000005"><a xlink:title=" ">
<path fill="none" stroke="#63b8ff" d="M301.4,-149.86C324.75,-139.62 351.75,-127.77 373.94,-118.04"/>
<polygon fill="#63b8ff" stroke="#63b8ff" points="299.73,-146.77 291.98,-153.99 302.55,-153.18 299.73,-146.77"/>
</a>
</g>
</g>
<!-- Node12&#45;&gt;Node11 -->
<g id="edge18_Node000012_Node000011" class="edge">
<title>Node12&#45;&gt;Node11</title>
<g id="a_edge18_Node000012_Node000011"><a xlink:title=" ">
<path fill="none" stroke="#63b8ff" d="M333.55,-225.92C316.53,-215.95 297.13,-204.58 281.07,-195.17"/>
<polygon fill="#63b8ff" stroke="#63b8ff" points="331.81,-228.95 342.2,-230.99 335.35,-222.92 331.81,-228.95"/>
</a>
</g>
</g>
<!-- Node14&#45;&gt;Node10 -->
<g id="edge21_Node000014_Node000010" class="edge">
<title>Node14&#45;&gt;Node10</title>
<g id="a_edge21_Node000014_Node000010"><a xlink:title=" ">
<path fill="none" stroke="#63b8ff" d="M450,-373.69C511.63,-359.74 572.01,-347.19 617.29,-338"/>
<polygon fill="#63b8ff" stroke="#63b8ff" points="449.08,-370.31 440.11,-375.94 450.63,-377.14 449.08,-370.31"/>
</a>
</g>
</g>
<!-- Node15&#45;&gt;Node10 -->
<g id="edge23_Node000015_Node000010" class="edge">
<title>Node15&#45;&gt;Node10</title>
<g id="a_edge23_Node000015_Node000010"><a xlink:title=" ">
<path fill="none" stroke="#63b8ff" d="M582.62,-369.85C606.75,-359.3 634.38,-347.22 655.21,-338.11"/>
<polygon fill="#63b8ff" stroke="#63b8ff" points="580.97,-366.74 573.21,-373.96 583.78,-373.16 580.97,-366.74"/>
</a>
</g>
</g>
<!-- Node16&#45;&gt;Node10 -->
<g id="edge25_Node000016_Node000010" class="edge">
<title>Node16&#45;&gt;Node10</title>
<g id="a_edge25_Node000016_Node000010"><a xlink:title=" ">
<path fill="none" stroke="#63b8ff" d="M687.5,-363.66C687.5,-354.76 687.5,-345.42 687.5,-338.04"/>
<polygon fill="#63b8ff" stroke="#63b8ff" points="684,-363.77 687.5,-373.77 691,-363.77 684,-363.77"/>
</a>
</g>
</g>
<!-- Node17&#45;&gt;Node10 -->
<g id="edge27_Node000017_Node000010" class="edge">
<title>Node17&#45;&gt;Node10</title>
<g id="a_edge27_Node000017_Node000010"><a xlink:title=" ">
<path fill="none" stroke="#63b8ff" d="M792.38,-369.85C768.25,-359.3 740.62,-347.22 719.79,-338.11"/>
<polygon fill="#63b8ff" stroke="#63b8ff" points="791.22,-373.16 801.79,-373.96 794.03,-366.74 791.22,-373.16"/>
</a>
</g>
</g>
<!-- Node19 -->
<g id="Node000019" class="node">
<title>Node19</title>
<g id="a_Node000019"><a xlink:href="fe__lagrange__simplex_8cpp.html" target="_top" xlink:title=" ">
<polygon fill="white" stroke="#666666" points="1489.5,-492 1347.5,-492 1347.5,-451 1489.5,-451 1489.5,-492"/>
<text text-anchor="start" x="1355.5" y="-480" font-family="Helvetica,sans-Serif" font-size="10.00">/__w/vulpes/vulpes</text>
<text text-anchor="start" x="1355.5" y="-469" font-family="Helvetica,sans-Serif" font-size="10.00">/vulpes/fe/fe_spaces</text>
<text text-anchor="middle" x="1418.5" y="-458" font-family="Helvetica,sans-Serif" font-size="10.00">/fe_lagrange_simplex.cpp</text>
</a>
</g>
</g>
<!-- Node18&#45;&gt;Node19 -->
<g id="edge29_Node000018_Node000019" class="edge">
<title>Node18&#45;&gt;Node19</title>
<g id="a_edge29_Node000018_Node000019"><a xlink:title=" ">
<path fill="none" stroke="#63b8ff" d="M1337.6,-522.64C1353.58,-512.74 1371.72,-501.5 1386.76,-492.17"/>
<polygon fill="#63b8ff" stroke="#63b8ff" points="1335.63,-519.75 1328.98,-527.99 1339.32,-525.7 1335.63,-519.75"/>
</a>
</g>
</g>
<!-- Node18&#45;&gt;Node20 -->
<g id="edge30_Node000018_Node000020" class="edge">
<title>Node18&#45;&gt;Node20</title>
<g id="a_edge30_Node000018_Node000020"><a xlink:title=" ">
<path fill="none" stroke="#63b8ff" d="M1283.99,-518.55C1279.85,-509.69 1275.41,-500.15 1271.63,-492.07"/>
<polygon fill="#63b8ff" stroke="#63b8ff" points="1280.9,-520.21 1288.3,-527.79 1287.25,-517.25 1280.9,-520.21"/>
</a>
</g>
</g>
<!-- Node18&#45;&gt;Node21 -->
<g id="edge31_Node000018_Node000021" class="edge">
<title>Node18&#45;&gt;Node21</title>
<g id="a_edge31_Node000018_Node000021"><a xlink:title=" ">
<path fill="none" stroke="#63b8ff" d="M1379,-525.35C1420.04,-514.2 1469.14,-500.86 1507.74,-490.37"/>
<polygon fill="#63b8ff" stroke="#63b8ff" points="1378.03,-521.99 1369.3,-527.99 1379.86,-528.75 1378.03,-521.99"/>
</a>
</g>
</g>
<!-- Node23&#45;&gt;Node6 -->
<g id="edge37_Node000023_Node000006" class="edge">
<title>Node23&#45;&gt;Node6</title>
<g id="a_edge37_Node000023_Node000006"><a xlink:title=" ">
<path fill="none" stroke="#63b8ff" d="M817.64,-529.58C891.66,-499.54 1021.5,-431.51 1021.5,-324 1021.5,-324 1021.5,-324 1021.5,-173.5 1021.5,-109.01 952.54,-64.64 903.25,-41.16"/>
<polygon fill="#63b8ff" stroke="#63b8ff" points="816.03,-526.46 808.03,-533.4 818.61,-532.96 816.03,-526.46"/>
</a>
</g>
</g>
<!-- Node23&#45;&gt;Node9 -->
<g id="edge40_Node000023_Node000009" class="edge">
<title>Node23&#45;&gt;Node9</title>
<g id="a_edge40_Node000023_Node000009"><a xlink:title=" ">
<path fill="none" stroke="#63b8ff" d="M767.5,-523.23C767.5,-513.2 767.5,-501.71 767.5,-492.2"/>
<polygon fill="#63b8ff" stroke="#63b8ff" points="764,-523.39 767.5,-533.39 771,-523.39 764,-523.39"/>
</a>
</g>
</g>
<!-- Node23&#45;&gt;Node11 -->
<g id="edge38_Node000023_Node000011" class="edge">
<title>Node23&#45;&gt;Node11</title>
<g id="a_edge38_Node000023_Node000011"><a xlink:title=" ">
<path fill="none" stroke="#63b8ff" d="M689.4,-542.95C583.35,-535.83 400.08,-519.89 339.5,-492 281.33,-465.22 232.5,-459.54 232.5,-395.5 232.5,-395.5 232.5,-395.5 232.5,-322 232.5,-276.49 239.75,-223.44 244.17,-195.34"/>
<polygon fill="#63b8ff" stroke="#63b8ff" points="689.2,-546.44 699.41,-543.61 689.67,-539.46 689.2,-546.44"/>
</a>
</g>
</g>
<!-- Node23&#45;&gt;Node12 -->
<g id="edge39_Node000023_Node000012" class="edge">
<title>Node23&#45;&gt;Node12</title>
<g id="a_edge39_Node000023_Node000012"><a xlink:title=" ">
<path fill="none" stroke="#63b8ff" d="M689.3,-537.29C566.59,-519.49 337.8,-478.5 289.5,-415 253.75,-368 314.58,-304.07 351.08,-272.22"/>
<polygon fill="#63b8ff" stroke="#63b8ff" points="688.99,-540.78 699.39,-538.74 689.99,-533.86 688.99,-540.78"/>
</a>
</g>
</g>
</g>
</svg>
