<?xml version="1.0" encoding="UTF-8" standalone="no"?>
<!DOCTYPE svg PUBLIC "-//W3C//DTD SVG 1.1//EN"
 "http://www.w3.org/Graphics/SVG/1.1/DTD/svg11.dtd">
<!-- Generated by graphviz version 2.42.4 (0)
 -->
<!-- Title: /__w/vulpes/vulpes/vulpes/fe/fe_expressions/fe_expr_base.hpp Pages: 1 -->
<!--zoomable 577 -->

<svg id="main" version="1.1" xmlns="http://www.w3.org/2000/svg" xmlns:xlink="http://www.w3.org/1999/xlink" xml:space="preserve" onload="init(evt)">
<style type="text/css"><![CDATA[
.node, .edge {opacity: 0.7;}
.node.selected, .edge.selected {opacity: 1;}
.edge:hover path { stroke: red; }
.edge:hover polygon { stroke: red; fill: red; }
]]></style>

<defs>
  <circle id="rim" cx="0" cy="0" r="7"/>
  <circle id="rim2" cx="0" cy="0" r="3.5"/>
  <g id="zoomPlus">
    <use xlink:href="#rim" fill="#404040"><set attributeName="fill" to="#808080" begin="zoomplus.mouseover" end="zoomplus.mouseout"/></use>
    <path d="M-4,0h8M0,-4v8" fill="none" stroke="white" stroke-width="1.5" pointer-events="none"/>
  </g>
  <g id="zoomMin">
    <use xlink:href="#rim" fill="#404040"><set attributeName="fill" to="#808080" begin="zoomminus.mouseover" end="zoomminus.mouseout"/></use>
    <path d="M-4,0h8" fill="none" stroke="white" stroke-width="1.5" pointer-events="none"/>
  </g>
  <g id="arrowUp" transform="translate(30 24)">
    <use xlink:href="#rim"/>
    <path pointer-events="none" fill="none" stroke="white" stroke-width="1.5" d="M0,-3.0v7 M-2.5,-0.5L0,-3.0L2.5,-0.5"/>
  </g>
  <g id="arrowRight" transform="rotate(90) translate(36 -43)">
    <use xlink:href="#rim"/>
    <path pointer-events="none" fill="none" stroke="white" stroke-width="1.5" d="M0,-3.0v7 M-2.5,-0.5L0,-3.0L2.5,-0.5"/>
  </g>
  <g id="arrowDown" transform="rotate(180) translate(-30 -48)">
    <use xlink:href="#rim"/>
    <path pointer-events="none" fill="none" stroke="white" stroke-width="1.5" d="M0,-3.0v7 M-2.5,-0.5L0,-3.0L2.5,-0.5"/>
  </g>
  <g id="arrowLeft" transform="rotate(270) translate(-36 17)">
    <use xlink:href="#rim"/>
    <path pointer-events="none" fill="none" stroke="white" stroke-width="1.5" d="M0,-3.0v7 M-2.5,-0.5L0,-3.0L2.5,-0.5"/>
  </g>
  <g id="resetDef">
    <use xlink:href="#rim2" fill="#404040"><set attributeName="fill" to="#808080" begin="reset.mouseover" end="reset.mouseout"/></use>
  </g>
</defs>
<script type="application/ecmascript">
var viewWidth = 575;
var viewHeight = 577;
var sectionId = 'dynsection-1';
</script>
<script type="application/ecmascript" xlink:href="svg.min.js"/>
<svg id="graph" class="graph">
<g id="viewport">
<title>/__w/vulpes/vulpes/vulpes/fe/fe_expressions/fe_expr_base.hpp</title>
<!-- Node1 -->
<g id="Node000001" class="node">
<title>Node1</title>
<g id="a_Node000001"><a xlink:title=" ">
<polygon fill="#999999" stroke="#666666" points="310.6,-569 169.6,-569 169.6,-528 310.6,-528 310.6,-569"/>
<text text-anchor="start" x="177.6" y="-557" font-family="Helvetica,sans-Serif" font-size="10.00">/__w/vulpes/vulpes</text>
<text text-anchor="start" x="177.6" y="-546" font-family="Helvetica,sans-Serif" font-size="10.00">/vulpes/fe/fe_expressions</text>
<text text-anchor="middle" x="240.1" y="-535" font-family="Helvetica,sans-Serif" font-size="10.00">/fe_expr_base.hpp</text>
</a>
</g>
</g>
<!-- Node2 -->
<g id="Node000002" class="node">
<title>Node2</title>
<g id="a_Node000002"><a xlink:href="fe__expression_8hpp.html" target="_top" xlink:title=" ">
<polygon fill="white" stroke="#666666" points="268.6,-338 111.6,-338 111.6,-308 268.6,-308 268.6,-338"/>
<text text-anchor="start" x="119.6" y="-326" font-family="Helvetica,sans-Serif" font-size="10.00">/__w/vulpes/vulpes</text>
<text text-anchor="middle" x="190.1" y="-315" font-family="Helvetica,sans-Serif" font-size="10.00">/vulpes/fe/fe_expression.hpp</text>
</a>
</g>
</g>
<!-- Node1&#45;&gt;Node2 -->
<g id="edge1_Node000001_Node000002" class="edge">
<title>Node1&#45;&gt;Node2</title>
<g id="a_edge1_Node000001_Node000002"><a xlink:title=" ">
<path fill="none" stroke="#63b8ff" d="M159.36,-535.44C108.14,-526.09 48.37,-511.43 31.1,-492 -3.9,-452.63 -11.46,-416.17 20.1,-374 31.61,-358.61 72.42,-346.32 111.16,-337.78"/>
<polygon fill="#63b8ff" stroke="#63b8ff" points="159.01,-538.94 169.47,-537.24 160.24,-532.04 159.01,-538.94"/>
</a>
</g>
</g>
<!-- Node11 -->
<g id="Node000011" class="node">
<title>Node11</title>
<g id="a_Node000011"><a xlink:href="fe__expr__basis_8hpp.html" target="_top" xlink:title=" ">
<polygon fill="white" stroke="#666666" points="181.6,-492 40.6,-492 40.6,-451 181.6,-451 181.6,-492"/>
<text text-anchor="start" x="48.6" y="-480" font-family="Helvetica,sans-Serif" font-size="10.00">/__w/vulpes/vulpes</text>
<text text-anchor="start" x="48.6" y="-469" font-family="Helvetica,sans-Serif" font-size="10.00">/vulpes/fe/fe_expressions</text>
<text text-anchor="middle" x="111.1" y="-458" font-family="Helvetica,sans-Serif" font-size="10.00">/fe_expr_basis.hpp</text>
</a>
</g>
</g>
<!-- Node1&#45;&gt;Node11 -->
<g id="edge13_Node000001_Node000011" class="edge">
<title>Node1&#45;&gt;Node11</title>
<g id="a_edge13_Node000001_Node000011"><a xlink:title=" ">
<path fill="none" stroke="#63b8ff" d="M197.82,-522.92C180.66,-512.95 161.12,-501.58 144.93,-492.17"/>
<polygon fill="#63b8ff" stroke="#63b8ff" points="196.13,-525.99 206.54,-527.99 199.65,-519.94 196.13,-525.99"/>
</a>
</g>
</g>
<!-- Node12 -->
<g id="Node000012" class="node">
<title>Node12</title>
<g id="a_Node000012"><a xlink:href="fe__expr__grad__contr_8hpp.html" target="_top" xlink:title=" ">
<polygon fill="white" stroke="#666666" points="181.6,-415 40.6,-415 40.6,-374 181.6,-374 181.6,-415"/>
<text text-anchor="start" x="48.6" y="-403" font-family="Helvetica,sans-Serif" font-size="10.00">/__w/vulpes/vulpes</text>
<text text-anchor="start" x="48.6" y="-392" font-family="Helvetica,sans-Serif" font-size="10.00">/vulpes/fe/fe_expressions</text>
<text text-anchor="middle" x="111.1" y="-381" font-family="Helvetica,sans-Serif" font-size="10.00">/fe_expr_grad_contr.hpp</text>
</a>
</g>
</g>
<!-- Node1&#45;&gt;Node12 -->
<g id="edge19_Node000001_Node000012" class="edge">
<title>Node1&#45;&gt;Node12</title>
<g id="a_edge19_Node000001_Node000012"><a xlink:title=" ">
<path fill="none" stroke="#63b8ff" d="M229.69,-518.26C221.43,-497.86 208.39,-470.84 191.1,-451 178.76,-436.86 162.09,-424.54 147.15,-415.13"/>
<polygon fill="#63b8ff" stroke="#63b8ff" points="226.47,-519.64 233.36,-527.69 233,-517.1 226.47,-519.64"/>
</a>
</g>
</g>
<!-- Node13 -->
<g id="Node000013" class="node">
<title>Node13</title>
<g id="a_Node000013"><a xlink:href="fe__expr__func_8hpp.html" target="_top" xlink:title=" ">
<polygon fill="white" stroke="#666666" points="340.6,-415 199.6,-415 199.6,-374 340.6,-374 340.6,-415"/>
<text text-anchor="start" x="207.6" y="-403" font-family="Helvetica,sans-Serif" font-size="10.00">/__w/vulpes/vulpes</text>
<text text-anchor="start" x="207.6" y="-392" font-family="Helvetica,sans-Serif" font-size="10.00">/vulpes/fe/fe_expressions</text>
<text text-anchor="middle" x="270.1" y="-381" font-family="Helvetica,sans-Serif" font-size="10.00">/fe_expr_func.hpp</text>
</a>
</g>
</g>
<!-- Node1&#45;&gt;Node13 -->
<g id="edge17_Node000001_Node000013" class="edge">
<title>Node1&#45;&gt;Node13</title>
<g id="a_edge17_Node000001_Node000013"><a xlink:title=" ">
<path fill="none" stroke="#63b8ff" d="M245.92,-517.98C251.89,-487.76 260.99,-441.64 266.15,-415.47"/>
<polygon fill="#63b8ff" stroke="#63b8ff" points="242.46,-517.45 243.96,-527.94 249.33,-518.81 242.46,-517.45"/>
</a>
</g>
</g>
<!-- Node14 -->
<g id="Node000014" class="node">
<title>Node14</title>
<g id="a_Node000014"><a xlink:href="fe__expr__op_8hpp.html" target="_top" xlink:title=" ">
<polygon fill="white" stroke="#666666" points="499.6,-415 358.6,-415 358.6,-374 499.6,-374 499.6,-415"/>
<text text-anchor="start" x="366.6" y="-403" font-family="Helvetica,sans-Serif" font-size="10.00">/__w/vulpes/vulpes</text>
<text text-anchor="start" x="366.6" y="-392" font-family="Helvetica,sans-Serif" font-size="10.00">/vulpes/fe/fe_expressions</text>
<text text-anchor="middle" x="429.1" y="-381" font-family="Helvetica,sans-Serif" font-size="10.00">/fe_expr_op.hpp</text>
</a>
</g>
</g>
<!-- Node1&#45;&gt;Node14 -->
<g id="edge20_Node000001_Node000014" class="edge">
<title>Node1&#45;&gt;Node14</title>
<g id="a_edge20_Node000001_Node000014"><a xlink:title=" ">
<path fill="none" stroke="#63b8ff" d="M272.5,-521.44C309.97,-491.31 370.81,-442.37 404.57,-415.23"/>
<polygon fill="#63b8ff" stroke="#63b8ff" points="270.02,-518.95 264.42,-527.94 274.4,-524.4 270.02,-518.95"/>
</a>
</g>
</g>
<!-- Node15 -->
<g id="Node000015" class="node">
<title>Node15</title>
<g id="a_Node000015"><a xlink:href="fe__expr__unary_8hpp.html" target="_top" xlink:title=" ">
<polygon fill="white" stroke="#666666" points="566.6,-492 425.6,-492 425.6,-451 566.6,-451 566.6,-492"/>
<text text-anchor="start" x="433.6" y="-480" font-family="Helvetica,sans-Serif" font-size="10.00">/__w/vulpes/vulpes</text>
<text text-anchor="start" x="433.6" y="-469" font-family="Helvetica,sans-Serif" font-size="10.00">/vulpes/fe/fe_expressions</text>
<text text-anchor="middle" x="496.1" y="-458" font-family="Helvetica,sans-Serif" font-size="10.00">/fe_expr_unary.hpp</text>
</a>
</g>
</g>
<!-- Node1&#45;&gt;Node15 -->
<g id="edge22_Node000001_Node000015" class="edge">
<title>Node1&#45;&gt;Node15</title>
<g id="a_edge22_Node000001_Node000015"><a xlink:title=" ">
<path fill="none" stroke="#63b8ff" d="M316.62,-525.08C352.5,-514.57 394.84,-502.16 429.39,-492.04"/>
<polygon fill="#63b8ff" stroke="#63b8ff" points="315.3,-521.82 306.69,-527.99 317.27,-528.54 315.3,-521.82"/>
</a>
</g>
</g>
<!-- Node3 -->
<g id="Node000003" class="node">
<title>Node3</title>
<g id="a_Node000003"><a xlink:href="dg__utils_8hpp.html" target="_top" xlink:title=" ">
<polygon fill="white" stroke="#666666" points="239.6,-41 122.6,-41 122.6,0 239.6,0 239.6,-41"/>
<text text-anchor="start" x="130.6" y="-29" font-family="Helvetica,sans-Serif" font-size="10.00">/__w/vulpes/vulpes</text>
<text text-anchor="start" x="130.6" y="-18" font-family="Helvetica,sans-Serif" font-size="10.00">/vulpes/assemble/dg</text>
<text text-anchor="middle" x="181.1" y="-7" font-family="Helvetica,sans-Serif" font-size="10.00">_utils.hpp</text>
</a>
</g>
</g>
<!-- Node2&#45;&gt;Node3 -->
<g id="edge2_Node000002_Node000003" class="edge">
<title>Node2&#45;&gt;Node3</title>
<g id="a_edge2_Node000002_Node000003"><a xlink:title=" ">
<path fill="none" stroke="#63b8ff" d="M168.43,-300.18C135.55,-265.29 74.61,-193.18 53.1,-118 48.08,-100.48 43.1,-92.23 53.1,-77 68.58,-53.41 96.48,-39.8 122.29,-31.97"/>
<polygon fill="#63b8ff" stroke="#63b8ff" points="166.32,-303.03 175.76,-307.84 171.38,-298.19 166.32,-303.03"/>
</a>
</g>
</g>
<!-- Node4 -->
<g id="Node000004" class="node">
<title>Node4</title>
<g id="a_Node000004"><a xlink:href="integrator__base_8hpp.html" target="_top" xlink:title=" ">
<polygon fill="white" stroke="#666666" points="319.6,-195 166.6,-195 166.6,-154 319.6,-154 319.6,-195"/>
<text text-anchor="start" x="174.6" y="-183" font-family="Helvetica,sans-Serif" font-size="10.00">/__w/vulpes/vulpes</text>
<text text-anchor="start" x="174.6" y="-172" font-family="Helvetica,sans-Serif" font-size="10.00">/vulpes/assemble/integrator</text>
<text text-anchor="middle" x="243.1" y="-161" font-family="Helvetica,sans-Serif" font-size="10.00">_base.hpp</text>
</a>
</g>
</g>
<!-- Node2&#45;&gt;Node4 -->
<g id="edge3_Node000002_Node000004" class="edge">
<title>Node2&#45;&gt;Node4</title>
<g id="a_edge3_Node000002_Node000004"><a xlink:title=" ">
<path fill="none" stroke="#63b8ff" d="M172.08,-299.56C159.21,-280.61 146.12,-253.12 158.1,-231 166.4,-215.66 181,-203.88 195.77,-195.21"/>
<polygon fill="#63b8ff" stroke="#63b8ff" points="169.39,-301.8 178.08,-307.86 175.06,-297.7 169.39,-301.8"/>
</a>
</g>
</g>
<!-- Node9 -->
<g id="Node000009" class="node">
<title>Node9</title>
<g id="a_Node000009"><a xlink:href="integrator__traits_8hpp.html" target="_top" xlink:title=" ">
<polygon fill="white" stroke="#666666" points="319.6,-272 166.6,-272 166.6,-231 319.6,-231 319.6,-272"/>
<text text-anchor="start" x="174.6" y="-260" font-family="Helvetica,sans-Serif" font-size="10.00">/__w/vulpes/vulpes</text>
<text text-anchor="start" x="174.6" y="-249" font-family="Helvetica,sans-Serif" font-size="10.00">/vulpes/assemble/integrator</text>
<text text-anchor="middle" x="243.1" y="-238" font-family="Helvetica,sans-Serif" font-size="10.00">_traits.hpp</text>
</a>
</g>
</g>
<!-- Node2&#45;&gt;Node9 -->
<g id="edge10_Node000002_Node000009" class="edge">
<title>Node2&#45;&gt;Node9</title>
<g id="a_edge10_Node000002_Node000009"><a xlink:title=" ">
<path fill="none" stroke="#63b8ff" d="M206.98,-299.86C213.78,-290.94 221.57,-280.72 228.17,-272.07"/>
<polygon fill="#63b8ff" stroke="#63b8ff" points="204.1,-297.86 200.82,-307.94 209.67,-302.11 204.1,-297.86"/>
</a>
</g>
</g>
<!-- Node10 -->
<g id="Node000010" class="node">
<title>Node10</title>
<g id="a_Node000010"><a xlink:href="fe__vem_8hpp.html" target="_top" xlink:title=" ">
<polygon fill="white" stroke="#666666" points="454.1,-272 338.1,-272 338.1,-231 454.1,-231 454.1,-272"/>
<text text-anchor="start" x="346.1" y="-260" font-family="Helvetica,sans-Serif" font-size="10.00">/__w/vulpes/vulpes</text>
<text text-anchor="start" x="346.1" y="-249" font-family="Helvetica,sans-Serif" font-size="10.00">/vulpes/fe/fe_spaces</text>
<text text-anchor="middle" x="396.1" y="-238" font-family="Helvetica,sans-Serif" font-size="10.00">/fe_vem.hpp</text>
</a>
</g>
</g>
<!-- Node2&#45;&gt;Node10 -->
<g id="edge12_Node000002_Node000010" class="edge">
<title>Node2&#45;&gt;Node10</title>
<g id="a_edge12_Node000002_Node000010"><a xlink:title=" ">
<path fill="none" stroke="#63b8ff" d="M241.43,-304.68C270.78,-294.78 307.68,-282.33 338.08,-272.07"/>
<polygon fill="#63b8ff" stroke="#63b8ff" points="240.14,-301.42 231.78,-307.94 242.38,-308.06 240.14,-301.42"/>
</a>
</g>
</g>
<!-- Node5 -->
<g id="Node000005" class="node">
<title>Node5</title>
<g id="a_Node000005"><a xlink:href="integrator__gauss_8hpp.html" target="_top" xlink:title=" ">
<polygon fill="white" stroke="#666666" points="215.6,-118 62.6,-118 62.6,-77 215.6,-77 215.6,-118"/>
<text text-anchor="start" x="70.6" y="-106" font-family="Helvetica,sans-Serif" font-size="10.00">/__w/vulpes/vulpes</text>
<text text-anchor="start" x="70.6" y="-95" font-family="Helvetica,sans-Serif" font-size="10.00">/vulpes/assemble/integrator</text>
<text text-anchor="middle" x="139.1" y="-84" font-family="Helvetica,sans-Serif" font-size="10.00">_gauss.hpp</text>
</a>
</g>
</g>
<!-- Node4&#45;&gt;Node5 -->
<g id="edge4_Node000004_Node000005" class="edge">
<title>Node4&#45;&gt;Node5</title>
<g id="a_edge4_Node000004_Node000005"><a xlink:title=" ">
<path fill="none" stroke="#63b8ff" d="M207.86,-148.09C194.31,-138.32 179.06,-127.32 166.37,-118.17"/>
<polygon fill="#63b8ff" stroke="#63b8ff" points="205.88,-150.98 216.04,-153.99 209.98,-145.3 205.88,-150.98"/>
</a>
</g>
</g>
<!-- Node6 -->
<g id="Node000006" class="node">
<title>Node6</title>
<g id="a_Node000006"><a xlink:href="integrator__qfree_8hpp.html" target="_top" xlink:title=" ">
<polygon fill="white" stroke="#666666" points="557.6,-118 404.6,-118 404.6,-77 557.6,-77 557.6,-118"/>
<text text-anchor="start" x="412.6" y="-106" font-family="Helvetica,sans-Serif" font-size="10.00">/__w/vulpes/vulpes</text>
<text text-anchor="start" x="412.6" y="-95" font-family="Helvetica,sans-Serif" font-size="10.00">/vulpes/assemble/integrator</text>
<text text-anchor="middle" x="481.1" y="-84" font-family="Helvetica,sans-Serif" font-size="10.00">_qfree.hpp</text>
</a>
</g>
</g>
<!-- Node4&#45;&gt;Node6 -->
<g id="edge5_Node000004_Node000006" class="edge">
<title>Node4&#45;&gt;Node6</title>
<g id="a_edge5_Node000004_Node000006"><a xlink:title=" ">
<path fill="none" stroke="#63b8ff" d="M314.67,-150.94C347.93,-140.46 387.1,-128.12 419.08,-118.04"/>
<polygon fill="#63b8ff" stroke="#63b8ff" points="313.49,-147.65 305.01,-153.99 315.6,-154.32 313.49,-147.65"/>
</a>
</g>
</g>
<!-- Node8 -->
<g id="Node000008" class="node">
<title>Node8</title>
<g id="a_Node000008"><a xlink:href="integrator__simplexify_8hpp.html" target="_top" xlink:title=" ">
<polygon fill="white" stroke="#666666" points="386.6,-118 233.6,-118 233.6,-77 386.6,-77 386.6,-118"/>
<text text-anchor="start" x="241.6" y="-106" font-family="Helvetica,sans-Serif" font-size="10.00">/__w/vulpes/vulpes</text>
<text text-anchor="start" x="241.6" y="-95" font-family="Helvetica,sans-Serif" font-size="10.00">/vulpes/assemble/integrator</text>
<text text-anchor="middle" x="310.1" y="-84" font-family="Helvetica,sans-Serif" font-size="10.00">_simplexify.hpp</text>
</a>
</g>
</g>
<!-- Node4&#45;&gt;Node8 -->
<g id="edge7_Node000004_Node000008" class="edge">
<title>Node4&#45;&gt;Node8</title>
<g id="a_edge7_Node000004_Node000008"><a xlink:title=" ">
<path fill="none" stroke="#63b8ff" d="M267.45,-146.23C275.78,-136.91 284.93,-126.67 292.61,-118.07"/>
<polygon fill="#63b8ff" stroke="#63b8ff" points="264.75,-144.01 260.7,-153.79 269.97,-148.67 264.75,-144.01"/>
</a>
</g>
</g>
<!-- Node7 -->
<g id="Node000007" class="node">
<title>Node7</title>
<g id="a_Node000007"><a xlink:href="integrator__vem_8hpp.html" target="_top" xlink:title=" ">
<polygon fill="white" stroke="#666666" points="471.6,-41 318.6,-41 318.6,0 471.6,0 471.6,-41"/>
<text text-anchor="start" x="326.6" y="-29" font-family="Helvetica,sans-Serif" font-size="10.00">/__w/vulpes/vulpes</text>
<text text-anchor="start" x="326.6" y="-18" font-family="Helvetica,sans-Serif" font-size="10.00">/vulpes/assemble/integrator</text>
<text text-anchor="middle" x="395.1" y="-7" font-family="Helvetica,sans-Serif" font-size="10.00">_vem.hpp</text>
</a>
</g>
</g>
<!-- Node6&#45;&gt;Node7 -->
<g id="edge6_Node000006_Node000007" class="edge">
<title>Node6&#45;&gt;Node7</title>
<g id="a_edge6_Node000006_Node000007"><a xlink:title=" ">
<path fill="none" stroke="#63b8ff" d="M450.79,-70.07C439.84,-60.52 427.69,-49.93 417.54,-41.07"/>
<polygon fill="#63b8ff" stroke="#63b8ff" points="448.66,-72.86 458.5,-76.79 453.26,-67.58 448.66,-72.86"/>
</a>
</g>
</g>
<!-- Node8&#45;&gt;Node3 -->
<g id="edge8_Node000008_Node000003" class="edge">
<title>Node8&#45;&gt;Node3</title>
<g id="a_edge8_Node000008_Node000003"><a xlink:title=" ">
<path fill="none" stroke="#63b8ff" d="M267.82,-71.92C250.66,-61.95 231.12,-50.58 214.93,-41.17"/>
<polygon fill="#63b8ff" stroke="#63b8ff" points="266.13,-74.99 276.54,-76.99 269.65,-68.94 266.13,-74.99"/>
</a>
</g>
</g>
<!-- Node8&#45;&gt;Node7 -->
<g id="edge9_Node000008_Node000007" class="edge">
<title>Node8&#45;&gt;Node7</title>
<g id="a_edge9_Node000008_Node000007"><a xlink:title=" ">
<path fill="none" stroke="#63b8ff" d="M340.05,-70.07C350.87,-60.52 362.88,-49.93 372.91,-41.07"/>
<polygon fill="#63b8ff" stroke="#63b8ff" points="337.61,-67.55 332.43,-76.79 342.24,-72.8 337.61,-67.55"/>
</a>
</g>
</g>
<!-- Node9&#45;&gt;Node4 -->
<g id="edge11_Node000009_Node000004" class="edge">
<title>Node9&#45;&gt;Node4</title>
<g id="a_edge11_Node000009_Node000004"><a xlink:title=" ">
<path fill="none" stroke="#63b8ff" d="M243.1,-220.69C243.1,-212.08 243.1,-202.9 243.1,-195.07"/>
<polygon fill="#63b8ff" stroke="#63b8ff" points="239.6,-220.79 243.1,-230.79 246.6,-220.79 239.6,-220.79"/>
</a>
</g>
</g>
<!-- Node11&#45;&gt;Node2 -->
<g id="edge14_Node000011_Node000002" class="edge">
<title>Node11&#45;&gt;Node2</title>
<g id="a_edge14_Node000011_Node000002"><a xlink:title=" ">
<path fill="none" stroke="#63b8ff" d="M59.4,-445.48C48.06,-437.41 37.53,-427.29 31.1,-415 22.65,-398.86 20.31,-388.69 31.1,-374 49.76,-348.57 81.35,-335.73 111.48,-329.37"/>
<polygon fill="#63b8ff" stroke="#63b8ff" points="57.48,-448.41 67.75,-451 61.34,-442.56 57.48,-448.41"/>
</a>
</g>
</g>
<!-- Node11&#45;&gt;Node12 -->
<g id="edge15_Node000011_Node000012" class="edge">
<title>Node11&#45;&gt;Node12</title>
<g id="a_edge15_Node000011_Node000012"><a xlink:title=" ">
<path fill="none" stroke="#63b8ff" d="M111.1,-440.69C111.1,-432.08 111.1,-422.9 111.1,-415.07"/>
<polygon fill="#63b8ff" stroke="#63b8ff" points="107.6,-440.79 111.1,-450.79 114.6,-440.79 107.6,-440.79"/>
</a>
</g>
</g>
<!-- Node12&#45;&gt;Node2 -->
<g id="edge16_Node000012_Node000002" class="edge">
<title>Node12&#45;&gt;Node2</title>
<g id="a_edge16_Node000012_Node000002"><a xlink:title=" ">
<path fill="none" stroke="#63b8ff" d="M141.08,-367.12C152.32,-357.23 164.65,-346.38 174.14,-338.04"/>
<polygon fill="#63b8ff" stroke="#63b8ff" points="138.72,-364.54 133.52,-373.77 143.34,-369.79 138.72,-364.54"/>
</a>
</g>
</g>
<!-- Node13&#45;&gt;Node2 -->
<g id="edge18_Node000013_Node000002" class="edge">
<title>Node13&#45;&gt;Node2</title>
<g id="a_edge18_Node000013_Node000002"><a xlink:title=" ">
<path fill="none" stroke="#63b8ff" d="M239.73,-367.12C228.35,-357.23 215.86,-346.38 206.25,-338.04"/>
<polygon fill="#63b8ff" stroke="#63b8ff" points="237.54,-369.85 247.38,-373.77 242.13,-364.57 237.54,-369.85"/>
</a>
</g>
</g>
<!-- Node14&#45;&gt;Node2 -->
<g id="edge21_Node000014_Node000002" class="edge">
<title>Node14&#45;&gt;Node2</title>
<g id="a_edge21_Node000014_Node000002"><a xlink:title=" ">
<path fill="none" stroke="#63b8ff" d="M352.02,-371.09C314.62,-360.21 270.85,-347.48 238.25,-338"/>
<polygon fill="#63b8ff" stroke="#63b8ff" points="351.3,-374.52 361.88,-373.96 353.26,-367.8 351.3,-374.52"/>
</a>
</g>
</g>
<!-- Node15&#45;&gt;Node2 -->
<g id="edge23_Node000015_Node000002" class="edge">
<title>Node15&#45;&gt;Node2</title>
<g id="a_edge23_Node000015_Node000002"><a xlink:title=" ">
<path fill="none" stroke="#63b8ff" d="M510.74,-441.18C518.96,-420.11 524.75,-392.3 509.1,-374 478.76,-338.54 352.94,-328.05 268.68,-325.06"/>
<polygon fill="#63b8ff" stroke="#63b8ff" points="507.42,-440.05 506.73,-450.62 513.86,-442.79 507.42,-440.05"/>
</a>
</g>
</g>
</g>
</svg>

<g id="navigator" transform="translate(0 0)" fill="#404254">
  <rect fill="#f2f5e9" fill-opacity="0.5" stroke="#606060" stroke-width=".5" x="0" y="0" width="60" height="60"/>
  <use id="zoomplus" xlink:href="#zoomPlus" x="17" y="9" onmousedown="handleZoom(evt,'in')"/>
  <use id="zoomminus" xlink:href="#zoomMin" x="42" y="9" onmousedown="handleZoom(evt,'out')"/>
  <use id="reset" xlink:href="#resetDef" x="30" y="36" onmousedown="handleReset()"/>
   <use id="arrowup" xlink:href="#arrowUp" x="0" y="0" onmousedown="handlePan(0,-1)"/>
  <use id="arrowright" xlink:href="#arrowRight" x="0" y="0" onmousedown="handlePan(1,0)"/>
  <use id="arrowdown" xlink:href="#arrowDown" x="0" y="0" onmousedown="handlePan(0,1)"/>
  <use id="arrowleft" xlink:href="#arrowLeft" x="0" y="0" onmousedown="handlePan(-1,0)"/>
</g>
<svg viewBox="0 0 15 15" width="100%" height="30px" preserveAspectRatio="xMaxYMin meet">
 <g id="arrow_out" transform="scale(0.3 0.3)">
  <a xlink:href="fe__expr__base_8hpp__dep__incl_org.svg" target="_base">
   <rect id="button" ry="5" rx="5" y="6" x="6" height="38" width="38"
        fill="#f2f5e9" fill-opacity="0.5" stroke="#606060" stroke-width="1.0"/>
   <path id="arrow"
     d="M 11.500037,31.436501 C 11.940474,20.09759 22.043105,11.32322 32.158766,21.979434 L 37.068811,17.246167 C 37.068811,17.246167 37.088388,32 37.088388,32 L 22.160133,31.978069 C 22.160133,31.978069 26.997745,27.140456 26.997745,27.140456 C 18.528582,18.264221 13.291696,25.230495 11.500037,31.436501 z"
     style="fill:#404040;"/>
  </a>
 </g>
</svg>

<style type='text/css'>
<![CDATA[
[data-mouse-over-selected='false'] { opacity: 0.7; }
[data-mouse-over-selected='true']  { opacity: 1.0; }
]]>
</style>
<script type="application/ecmascript"><![CDATA[
document.addEventListener('DOMContentLoaded', (event) => {
  highlightEdges();
  highlightAdjacentNodes();
});
]]></script>
</svg>
