<?xml version="1.0" encoding="UTF-8" standalone="no"?>
<!DOCTYPE svg PUBLIC "-//W3C//DTD SVG 1.1//EN"
 "http://www.w3.org/Graphics/SVG/1.1/DTD/svg11.dtd">
<!-- Generated by graphviz version 12.2.1 (20241206.2353)
 -->
<!-- Title: /Users/ilariomazzieri/Desktop/vulpes/vulpes/fe/fe_expressions/fe_expr_base.hpp Pages: 1 -->
<svg width="644pt" height="539pt"
 viewBox="0.00 0.00 643.57 538.75" xmlns="http://www.w3.org/2000/svg" xmlns:xlink="http://www.w3.org/1999/xlink">
<g id="graph0" class="graph" transform="scale(1 1) rotate(0) translate(4 534.75)">
<title>/Users/ilariomazzieri/Desktop/vulpes/vulpes/fe/fe_expressions/fe_expr_base.hpp</title>
<!-- Node1 -->
<g id="Node000001" class="node">
<title>Node1</title>
<g id="a_Node000001"><a xlink:title=" ">
<polygon fill="#999999" stroke="#666666" points="301.57,-530.75 170.07,-530.75 170.07,-477.75 301.57,-477.75 301.57,-530.75"/>
<text text-anchor="start" x="178.07" y="-517.25" font-family="Helvetica,sans-Serif" font-size="10.00">/Users/ilariomazzieri</text>
<text text-anchor="start" x="178.07" y="-506" font-family="Helvetica,sans-Serif" font-size="10.00">/Desktop/vulpes/vulpes</text>
<text text-anchor="start" x="178.07" y="-494.75" font-family="Helvetica,sans-Serif" font-size="10.00">/fe/fe_expressions/fe_expr</text>
<text text-anchor="middle" x="235.82" y="-483.5" font-family="Helvetica,sans-Serif" font-size="10.00">_base.hpp</text>
</a>
</g>
</g>
<!-- Node2 -->
<g id="Node000002" class="node">
<title>Node2</title>
<g id="a_Node000002"><a xlink:href="fe__expression_8hpp.html" target="_top" xlink:title=" ">
<polygon fill="white" stroke="#666666" points="295.19,-352.75 176.44,-352.75 176.44,-311 295.19,-311 295.19,-352.75"/>
<text text-anchor="start" x="184.44" y="-339.25" font-family="Helvetica,sans-Serif" font-size="10.00">/Users/ilariomazzieri</text>
<text text-anchor="start" x="184.44" y="-328" font-family="Helvetica,sans-Serif" font-size="10.00">/Desktop/vulpes/vulpes</text>
<text text-anchor="middle" x="235.82" y="-316.75" font-family="Helvetica,sans-Serif" font-size="10.00">/fe/fe_expression.hpp</text>
</a>
</g>
</g>
<!-- Node1&#45;&gt;Node2 -->
<g id="edge1_Node000001_Node000002" class="edge">
<title>Node1&#45;&gt;Node2</title>
<g id="a_edge1_Node000001_Node000002"><a xlink:title=" ">
<path fill="none" stroke="#63b8ff" d="M158.5,-492.25C100.79,-482.27 28.93,-465.48 10.82,-441.75 -3.48,-423.03 -3.7,-407.31 10.82,-388.75 30.99,-362.95 116.45,-347.37 176.03,-339.45"/>
<polygon fill="#63b8ff" stroke="#63b8ff" points="157.9,-495.7 168.34,-493.9 159.06,-488.79 157.9,-495.7"/>
</a>
</g>
</g>
<!-- Node11 -->
<g id="Node000011" class="node">
<title>Node11</title>
<g id="a_Node000011"><a xlink:href="fe__expr__basis_8hpp.html" target="_top" xlink:title=" ">
<polygon fill="white" stroke="#666666" points="151.57,-441.75 20.07,-441.75 20.07,-388.75 151.57,-388.75 151.57,-441.75"/>
<text text-anchor="start" x="28.07" y="-428.25" font-family="Helvetica,sans-Serif" font-size="10.00">/Users/ilariomazzieri</text>
<text text-anchor="start" x="28.07" y="-417" font-family="Helvetica,sans-Serif" font-size="10.00">/Desktop/vulpes/vulpes</text>
<text text-anchor="start" x="28.07" y="-405.75" font-family="Helvetica,sans-Serif" font-size="10.00">/fe/fe_expressions/fe_expr</text>
<text text-anchor="middle" x="85.82" y="-394.5" font-family="Helvetica,sans-Serif" font-size="10.00">_basis.hpp</text>
</a>
</g>
</g>
<!-- Node1&#45;&gt;Node11 -->
<g id="edge13_Node000001_Node000011" class="edge">
<title>Node1&#45;&gt;Node11</title>
<g id="a_edge13_Node000001_Node000011"><a xlink:title=" ">
<path fill="none" stroke="#63b8ff" d="M181.55,-471.78C164.79,-462.06 146.54,-451.47 130.5,-442.17"/>
<polygon fill="#63b8ff" stroke="#63b8ff" points="179.5,-474.63 189.91,-476.62 183.01,-468.58 179.5,-474.63"/>
</a>
</g>
</g>
<!-- Node12 -->
<g id="Node000012" class="node">
<title>Node12</title>
<g id="a_Node000012"><a xlink:href="fe__expr__func_8hpp.html" target="_top" xlink:title=" ">
<polygon fill="white" stroke="#666666" points="301.57,-441.75 170.07,-441.75 170.07,-388.75 301.57,-388.75 301.57,-441.75"/>
<text text-anchor="start" x="178.07" y="-428.25" font-family="Helvetica,sans-Serif" font-size="10.00">/Users/ilariomazzieri</text>
<text text-anchor="start" x="178.07" y="-417" font-family="Helvetica,sans-Serif" font-size="10.00">/Desktop/vulpes/vulpes</text>
<text text-anchor="start" x="178.07" y="-405.75" font-family="Helvetica,sans-Serif" font-size="10.00">/fe/fe_expressions/fe_expr</text>
<text text-anchor="middle" x="235.82" y="-394.5" font-family="Helvetica,sans-Serif" font-size="10.00">_func.hpp</text>
</a>
</g>
</g>
<!-- Node1&#45;&gt;Node12 -->
<g id="edge15_Node000001_Node000012" class="edge">
<title>Node1&#45;&gt;Node12</title>
<g id="a_edge15_Node000001_Node000012"><a xlink:title=" ">
<path fill="none" stroke="#63b8ff" d="M235.82,-466.36C235.82,-458.16 235.82,-449.64 235.82,-442"/>
<polygon fill="#63b8ff" stroke="#63b8ff" points="232.32,-466.1 235.82,-476.1 239.32,-466.1 232.32,-466.1"/>
</a>
</g>
</g>
<!-- Node13 -->
<g id="Node000013" class="node">
<title>Node13</title>
<g id="a_Node000013"><a xlink:href="fe__expr__op_8hpp.html" target="_top" xlink:title=" ">
<polygon fill="white" stroke="#666666" points="485.82,-436.12 319.82,-436.12 319.82,-394.38 485.82,-394.38 485.82,-436.12"/>
<text text-anchor="start" x="327.82" y="-422.62" font-family="Helvetica,sans-Serif" font-size="10.00">/Users/ilariomazzieri</text>
<text text-anchor="start" x="327.82" y="-411.38" font-family="Helvetica,sans-Serif" font-size="10.00">/Desktop/vulpes/vulpes</text>
<text text-anchor="middle" x="402.82" y="-400.12" font-family="Helvetica,sans-Serif" font-size="10.00">/fe/fe_expressions/fe_expr_op.hpp</text>
</a>
</g>
</g>
<!-- Node1&#45;&gt;Node13 -->
<g id="edge17_Node000001_Node000013" class="edge">
<title>Node1&#45;&gt;Node13</title>
<g id="a_edge17_Node000001_Node000013"><a xlink:title=" ">
<path fill="none" stroke="#63b8ff" d="M295.39,-472.21C318.19,-460.34 343.58,-447.11 363.95,-436.5"/>
<polygon fill="#63b8ff" stroke="#63b8ff" points="294.06,-468.96 286.81,-476.68 297.3,-475.17 294.06,-468.96"/>
</a>
</g>
</g>
<!-- Node14 -->
<g id="Node000014" class="node">
<title>Node14</title>
<g id="a_Node000014"><a xlink:href="fe__expr__unary_8hpp.html" target="_top" xlink:title=" ">
<polygon fill="white" stroke="#666666" points="635.57,-441.75 504.07,-441.75 504.07,-388.75 635.57,-388.75 635.57,-441.75"/>
<text text-anchor="start" x="512.07" y="-428.25" font-family="Helvetica,sans-Serif" font-size="10.00">/Users/ilariomazzieri</text>
<text text-anchor="start" x="512.07" y="-417" font-family="Helvetica,sans-Serif" font-size="10.00">/Desktop/vulpes/vulpes</text>
<text text-anchor="start" x="512.07" y="-405.75" font-family="Helvetica,sans-Serif" font-size="10.00">/fe/fe_expressions/fe_expr</text>
<text text-anchor="middle" x="569.82" y="-394.5" font-family="Helvetica,sans-Serif" font-size="10.00">_unary.hpp</text>
</a>
</g>
</g>
<!-- Node1&#45;&gt;Node14 -->
<g id="edge19_Node000001_Node000014" class="edge">
<title>Node1&#45;&gt;Node14</title>
<g id="a_edge19_Node000001_Node000014"><a xlink:title=" ">
<path fill="none" stroke="#63b8ff" d="M313.09,-486.91C364.84,-475.48 434.31,-459.18 494.82,-441.75 497.72,-440.91 500.68,-440.03 503.67,-439.12"/>
<polygon fill="#63b8ff" stroke="#63b8ff" points="312.49,-483.46 303.47,-489.02 313.99,-490.3 312.49,-483.46"/>
</a>
</g>
</g>
<!-- Node3 -->
<g id="Node000003" class="node">
<title>Node3</title>
<g id="a_Node000003"><a xlink:href="dg__utils_8hpp.html" target="_top" xlink:title=" ">
<polygon fill="white" stroke="#666666" points="291.19,-41.75 172.44,-41.75 172.44,0 291.19,0 291.19,-41.75"/>
<text text-anchor="start" x="180.44" y="-28.25" font-family="Helvetica,sans-Serif" font-size="10.00">/Users/ilariomazzieri</text>
<text text-anchor="start" x="180.44" y="-17" font-family="Helvetica,sans-Serif" font-size="10.00">/Desktop/vulpes/vulpes</text>
<text text-anchor="middle" x="231.82" y="-5.75" font-family="Helvetica,sans-Serif" font-size="10.00">/assemble/dg_utils.hpp</text>
</a>
</g>
</g>
<!-- Node2&#45;&gt;Node3 -->
<g id="edge2_Node000002_Node000003" class="edge">
<title>Node2&#45;&gt;Node3</title>
<g id="a_edge2_Node000002_Node000003"><a xlink:title=" ">
<path fill="none" stroke="#63b8ff" d="M208.36,-302.62C173.62,-264.66 115.71,-193.39 93.82,-119.5 88.54,-101.71 83.44,-93.14 93.82,-77.75 111.37,-51.71 143.34,-37.8 172.1,-30.37"/>
<polygon fill="#63b8ff" stroke="#63b8ff" points="205.41,-304.59 214.78,-309.53 210.54,-299.83 205.41,-304.59"/>
</a>
</g>
</g>
<!-- Node4 -->
<g id="Node000004" class="node">
<title>Node4</title>
<g id="a_Node000004"><a xlink:href="integrator__base_8hpp.html" target="_top" xlink:title=" ">
<polygon fill="white" stroke="#666666" points="362.57,-197.25 213.07,-197.25 213.07,-155.5 362.57,-155.5 362.57,-197.25"/>
<text text-anchor="start" x="221.07" y="-183.75" font-family="Helvetica,sans-Serif" font-size="10.00">/Users/ilariomazzieri</text>
<text text-anchor="start" x="221.07" y="-172.5" font-family="Helvetica,sans-Serif" font-size="10.00">/Desktop/vulpes/vulpes</text>
<text text-anchor="middle" x="287.82" y="-161.25" font-family="Helvetica,sans-Serif" font-size="10.00">/assemble/integrator_base.hpp</text>
</a>
</g>
</g>
<!-- Node2&#45;&gt;Node4 -->
<g id="edge3_Node000002_Node000004" class="edge">
<title>Node2&#45;&gt;Node4</title>
<g id="a_edge3_Node000002_Node000004"><a xlink:title=" ">
<path fill="none" stroke="#63b8ff" d="M213.99,-301.11C202.23,-281.18 192.28,-254.77 203.82,-233.25 211.92,-218.12 226.13,-206.39 240.58,-197.67"/>
<polygon fill="#63b8ff" stroke="#63b8ff" points="210.88,-302.75 219.19,-309.32 216.79,-299 210.88,-302.75"/>
</a>
</g>
</g>
<!-- Node9 -->
<g id="Node000009" class="node">
<title>Node9</title>
<g id="a_Node000009"><a xlink:href="integrator__traits_8hpp.html" target="_top" xlink:title=" ">
<polygon fill="white" stroke="#666666" points="362.94,-275 212.69,-275 212.69,-233.25 362.94,-233.25 362.94,-275"/>
<text text-anchor="start" x="220.69" y="-261.5" font-family="Helvetica,sans-Serif" font-size="10.00">/Users/ilariomazzieri</text>
<text text-anchor="start" x="220.69" y="-250.25" font-family="Helvetica,sans-Serif" font-size="10.00">/Desktop/vulpes/vulpes</text>
<text text-anchor="middle" x="287.82" y="-239" font-family="Helvetica,sans-Serif" font-size="10.00">/assemble/integrator_traits.hpp</text>
</a>
</g>
</g>
<!-- Node2&#45;&gt;Node9 -->
<g id="edge10_Node000002_Node000009" class="edge">
<title>Node2&#45;&gt;Node9</title>
<g id="a_edge10_Node000002_Node000009"><a xlink:title=" ">
<path fill="none" stroke="#63b8ff" d="M256.18,-301.2C262.1,-292.59 268.42,-283.38 273.84,-275.48"/>
<polygon fill="#63b8ff" stroke="#63b8ff" points="253.38,-299.1 250.61,-309.33 259.15,-303.06 253.38,-299.1"/>
</a>
</g>
</g>
<!-- Node10 -->
<g id="Node000010" class="node">
<title>Node10</title>
<g id="a_Node000010"><a xlink:href="fe__vem_8hpp.html" target="_top" xlink:title=" ">
<polygon fill="white" stroke="#666666" points="510.44,-275 381.19,-275 381.19,-233.25 510.44,-233.25 510.44,-275"/>
<text text-anchor="start" x="389.19" y="-261.5" font-family="Helvetica,sans-Serif" font-size="10.00">/Users/ilariomazzieri</text>
<text text-anchor="start" x="389.19" y="-250.25" font-family="Helvetica,sans-Serif" font-size="10.00">/Desktop/vulpes/vulpes</text>
<text text-anchor="middle" x="445.82" y="-239" font-family="Helvetica,sans-Serif" font-size="10.00">/fe/fe_spaces/fe_vem.hpp</text>
</a>
</g>
</g>
<!-- Node2&#45;&gt;Node10 -->
<g id="edge12_Node000002_Node000010" class="edge">
<title>Node2&#45;&gt;Node10</title>
<g id="a_edge12_Node000002_Node000010"><a xlink:title=" ">
<path fill="none" stroke="#63b8ff" d="M302.58,-306.79C330.52,-296.71 362.65,-285.13 389.38,-275.48"/>
<polygon fill="#63b8ff" stroke="#63b8ff" points="301.73,-303.38 293.51,-310.06 304.11,-309.96 301.73,-303.38"/>
</a>
</g>
</g>
<!-- Node5 -->
<g id="Node000005" class="node">
<title>Node5</title>
<g id="a_Node000005"><a xlink:href="integrator__gauss_8hpp.html" target="_top" xlink:title=" ">
<polygon fill="white" stroke="#666666" points="257.19,-119.5 102.44,-119.5 102.44,-77.75 257.19,-77.75 257.19,-119.5"/>
<text text-anchor="start" x="110.44" y="-106" font-family="Helvetica,sans-Serif" font-size="10.00">/Users/ilariomazzieri</text>
<text text-anchor="start" x="110.44" y="-94.75" font-family="Helvetica,sans-Serif" font-size="10.00">/Desktop/vulpes/vulpes</text>
<text text-anchor="middle" x="179.82" y="-83.5" font-family="Helvetica,sans-Serif" font-size="10.00">/assemble/integrator_gauss.hpp</text>
</a>
</g>
</g>
<!-- Node4&#45;&gt;Node5 -->
<g id="edge4_Node000004_Node000005" class="edge">
<title>Node4&#45;&gt;Node5</title>
<g id="a_edge4_Node000004_Node000005"><a xlink:title=" ">
<path fill="none" stroke="#63b8ff" d="M249.83,-148.73C236.36,-139.29 221.44,-128.82 208.84,-119.98"/>
<polygon fill="#63b8ff" stroke="#63b8ff" points="247.44,-151.33 257.63,-154.21 251.46,-145.6 247.44,-151.33"/>
</a>
</g>
</g>
<!-- Node6 -->
<g id="Node000006" class="node">
<title>Node6</title>
<g id="a_Node000006"><a xlink:href="integrator__qfree_8hpp.html" target="_top" xlink:title=" ">
<polygon fill="white" stroke="#666666" points="614.94,-119.5 464.69,-119.5 464.69,-77.75 614.94,-77.75 614.94,-119.5"/>
<text text-anchor="start" x="472.69" y="-106" font-family="Helvetica,sans-Serif" font-size="10.00">/Users/ilariomazzieri</text>
<text text-anchor="start" x="472.69" y="-94.75" font-family="Helvetica,sans-Serif" font-size="10.00">/Desktop/vulpes/vulpes</text>
<text text-anchor="middle" x="539.82" y="-83.5" font-family="Helvetica,sans-Serif" font-size="10.00">/assemble/integrator_qfree.hpp</text>
</a>
</g>
</g>
<!-- Node4&#45;&gt;Node6 -->
<g id="edge5_Node000004_Node000006" class="edge">
<title>Node4&#45;&gt;Node6</title>
<g id="a_edge5_Node000004_Node000006"><a xlink:title=" ">
<path fill="none" stroke="#63b8ff" d="M366.16,-151.82C400.1,-141.62 439.45,-129.8 472.1,-119.98"/>
<polygon fill="#63b8ff" stroke="#63b8ff" points="365.37,-148.41 356.8,-154.64 367.38,-155.11 365.37,-148.41"/>
</a>
</g>
</g>
<!-- Node8 -->
<g id="Node000008" class="node">
<title>Node8</title>
<g id="a_Node000008"><a xlink:href="integrator__simplexify_8hpp.html" target="_top" xlink:title=" ">
<polygon fill="white" stroke="#666666" points="446.44,-119.5 275.19,-119.5 275.19,-77.75 446.44,-77.75 446.44,-119.5"/>
<text text-anchor="start" x="283.19" y="-106" font-family="Helvetica,sans-Serif" font-size="10.00">/Users/ilariomazzieri</text>
<text text-anchor="start" x="283.19" y="-94.75" font-family="Helvetica,sans-Serif" font-size="10.00">/Desktop/vulpes/vulpes</text>
<text text-anchor="middle" x="360.82" y="-83.5" font-family="Helvetica,sans-Serif" font-size="10.00">/assemble/integrator_simplexify.hpp</text>
</a>
</g>
</g>
<!-- Node4&#45;&gt;Node8 -->
<g id="edge7_Node000004_Node000008" class="edge">
<title>Node4&#45;&gt;Node8</title>
<g id="a_edge7_Node000004_Node000008"><a xlink:title=" ">
<path fill="none" stroke="#63b8ff" d="M315.34,-146.81C323.94,-137.89 333.25,-128.22 341.2,-119.98"/>
<polygon fill="#63b8ff" stroke="#63b8ff" points="312.85,-144.36 308.43,-153.99 317.89,-149.21 312.85,-144.36"/>
</a>
</g>
</g>
<!-- Node7 -->
<g id="Node000007" class="node">
<title>Node7</title>
<g id="a_Node000007"><a xlink:href="integrator__vem_8hpp.html" target="_top" xlink:title=" ">
<polygon fill="white" stroke="#666666" points="523.44,-41.75 376.19,-41.75 376.19,0 523.44,0 523.44,-41.75"/>
<text text-anchor="start" x="384.19" y="-28.25" font-family="Helvetica,sans-Serif" font-size="10.00">/Users/ilariomazzieri</text>
<text text-anchor="start" x="384.19" y="-17" font-family="Helvetica,sans-Serif" font-size="10.00">/Desktop/vulpes/vulpes</text>
<text text-anchor="middle" x="449.82" y="-5.75" font-family="Helvetica,sans-Serif" font-size="10.00">/assemble/integrator_vem.hpp</text>
</a>
</g>
</g>
<!-- Node6&#45;&gt;Node7 -->
<g id="edge6_Node000006_Node000007" class="edge">
<title>Node6&#45;&gt;Node7</title>
<g id="a_edge6_Node000006_Node000007"><a xlink:title=" ">
<path fill="none" stroke="#63b8ff" d="M507.19,-70.16C496.22,-60.94 484.2,-50.81 474,-42.23"/>
<polygon fill="#63b8ff" stroke="#63b8ff" points="504.63,-72.59 514.54,-76.35 509.14,-67.23 504.63,-72.59"/>
</a>
</g>
</g>
<!-- Node8&#45;&gt;Node3 -->
<g id="edge8_Node000008_Node000003" class="edge">
<title>Node8&#45;&gt;Node3</title>
<g id="a_edge8_Node000008_Node000003"><a xlink:title=" ">
<path fill="none" stroke="#63b8ff" d="M316.37,-71.53C300.05,-61.94 281.82,-51.24 266.48,-42.23"/>
<polygon fill="#63b8ff" stroke="#63b8ff" points="314.54,-74.51 324.94,-76.56 318.09,-68.48 314.54,-74.51"/>
</a>
</g>
</g>
<!-- Node8&#45;&gt;Node7 -->
<g id="edge9_Node000008_Node000007" class="edge">
<title>Node8&#45;&gt;Node7</title>
<g id="a_edge9_Node000008_Node000007"><a xlink:title=" ">
<path fill="none" stroke="#63b8ff" d="M393.4,-69.89C404.16,-60.73 415.91,-50.73 425.9,-42.23"/>
<polygon fill="#63b8ff" stroke="#63b8ff" points="391.16,-67.2 385.82,-76.34 395.7,-72.53 391.16,-67.2"/>
</a>
</g>
</g>
<!-- Node9&#45;&gt;Node4 -->
<g id="edge11_Node000009_Node000004" class="edge">
<title>Node9&#45;&gt;Node4</title>
<g id="a_edge11_Node000009_Node000004"><a xlink:title=" ">
<path fill="none" stroke="#63b8ff" d="M287.82,-221.5C287.82,-213.46 287.82,-205.04 287.82,-197.73"/>
<polygon fill="#63b8ff" stroke="#63b8ff" points="284.32,-221.31 287.82,-231.31 291.32,-221.31 284.32,-221.31"/>
</a>
</g>
</g>
<!-- Node11&#45;&gt;Node2 -->
<g id="edge14_Node000011_Node000002" class="edge">
<title>Node11&#45;&gt;Node2</title>
<g id="a_edge14_Node000011_Node000002"><a xlink:title=" ">
<path fill="none" stroke="#63b8ff" d="M143.7,-382.85C162.05,-372.89 181.84,-362.16 198.36,-353.19"/>
<polygon fill="#63b8ff" stroke="#63b8ff" points="142.14,-379.71 135.02,-387.56 145.48,-385.86 142.14,-379.71"/>
</a>
</g>
</g>
<!-- Node12&#45;&gt;Node2 -->
<g id="edge16_Node000012_Node000002" class="edge">
<title>Node12&#45;&gt;Node2</title>
<g id="a_edge16_Node000012_Node000002"><a xlink:title=" ">
<path fill="none" stroke="#63b8ff" d="M235.82,-377.08C235.82,-368.8 235.82,-360.33 235.82,-353.04"/>
<polygon fill="#63b8ff" stroke="#63b8ff" points="232.32,-376.99 235.82,-386.99 239.32,-376.99 232.32,-376.99"/>
</a>
</g>
</g>
<!-- Node13&#45;&gt;Node2 -->
<g id="edge18_Node000013_Node000002" class="edge">
<title>Node13&#45;&gt;Node2</title>
<g id="a_edge18_Node000013_Node000002"><a xlink:title=" ">
<path fill="none" stroke="#63b8ff" d="M350.92,-388.96C327.33,-377.47 299.8,-364.05 277.57,-353.22"/>
<polygon fill="#63b8ff" stroke="#63b8ff" points="349.22,-392.03 359.74,-393.26 352.29,-385.74 349.22,-392.03"/>
</a>
</g>
</g>
<!-- Node14&#45;&gt;Node2 -->
<g id="edge20_Node000014_Node000002" class="edge">
<title>Node14&#45;&gt;Node2</title>
<g id="a_edge20_Node000014_Node000002"><a xlink:title=" ">
<path fill="none" stroke="#63b8ff" d="M492.92,-388.35C419.86,-368.52 345.76,-353.31 295.44,-343.71"/>
<polygon fill="#63b8ff" stroke="#63b8ff" points="491.66,-391.63 502.23,-390.91 493.52,-384.88 491.66,-391.63"/>
</a>
</g>
</g>
</g>
</svg>
