<?xml version="1.0" encoding="UTF-8" standalone="no"?>
<!DOCTYPE svg PUBLIC "-//W3C//DTD SVG 1.1//EN"
 "http://www.w3.org/Graphics/SVG/1.1/DTD/svg11.dtd">
<!-- Generated by graphviz version 2.42.4 (0)
 -->
<!-- Title: /__w/vulpes/vulpes/vulpes/fe/fe_expressions/fe_expr_base.hpp Pages: 1 -->
<svg width="647pt" height="500pt"
 viewBox="0.00 0.00 646.51 500.00" xmlns="http://www.w3.org/2000/svg" xmlns:xlink="http://www.w3.org/1999/xlink">
<g id="graph0" class="graph" transform="scale(1 1) rotate(0) translate(4 496)">
<title>/__w/vulpes/vulpes/vulpes/fe/fe_expressions/fe_expr_base.hpp</title>
<!-- Node1 -->
<g id="Node000001" class="node">
<title>Node1</title>
<g id="a_Node000001"><a xlink:title=" ">
<polygon fill="#999999" stroke="#666666" points="320.51,-492 179.51,-492 179.51,-451 320.51,-451 320.51,-492"/>
<text text-anchor="start" x="187.51" y="-480" font-family="Helvetica,sans-Serif" font-size="10.00">/__w/vulpes/vulpes</text>
<text text-anchor="start" x="187.51" y="-469" font-family="Helvetica,sans-Serif" font-size="10.00">/vulpes/fe/fe_expressions</text>
<text text-anchor="middle" x="250.01" y="-458" font-family="Helvetica,sans-Serif" font-size="10.00">/fe_expr_base.hpp</text>
</a>
</g>
</g>
<!-- Node2 -->
<g id="Node000002" class="node">
<title>Node2</title>
<g id="a_Node000002"><a xlink:href="fe__expression_8hpp.html" target="_top" xlink:title=" ">
<polygon fill="white" stroke="#666666" points="328.51,-338 171.51,-338 171.51,-308 328.51,-308 328.51,-338"/>
<text text-anchor="start" x="179.51" y="-326" font-family="Helvetica,sans-Serif" font-size="10.00">/__w/vulpes/vulpes</text>
<text text-anchor="middle" x="250.01" y="-315" font-family="Helvetica,sans-Serif" font-size="10.00">/vulpes/fe/fe_expression.hpp</text>
</a>
</g>
</g>
<!-- Node1&#45;&gt;Node2 -->
<g id="edge1_Node000001_Node000002" class="edge">
<title>Node1&#45;&gt;Node2</title>
<g id="a_edge1_Node000001_Node000002"><a xlink:title=" ">
<path fill="none" stroke="#63b8ff" d="M169.16,-464.95C82.5,-455.9 -36.62,-432.63 11.01,-374 31.06,-349.32 109.67,-336.4 171.33,-329.93"/>
<polygon fill="#63b8ff" stroke="#63b8ff" points="168.99,-468.45 179.29,-465.96 169.69,-461.48 168.99,-468.45"/>
</a>
</g>
</g>
<!-- Node11 -->
<g id="Node000011" class="node">
<title>Node11</title>
<g id="a_Node000011"><a xlink:href="fe__expr__basis_8hpp.html" target="_top" xlink:title=" ">
<polygon fill="white" stroke="#666666" points="161.51,-415 20.51,-415 20.51,-374 161.51,-374 161.51,-415"/>
<text text-anchor="start" x="28.51" y="-403" font-family="Helvetica,sans-Serif" font-size="10.00">/__w/vulpes/vulpes</text>
<text text-anchor="start" x="28.51" y="-392" font-family="Helvetica,sans-Serif" font-size="10.00">/vulpes/fe/fe_expressions</text>
<text text-anchor="middle" x="91.01" y="-381" font-family="Helvetica,sans-Serif" font-size="10.00">/fe_expr_basis.hpp</text>
</a>
</g>
</g>
<!-- Node1&#45;&gt;Node11 -->
<g id="edge13_Node000001_Node000011" class="edge">
<title>Node1&#45;&gt;Node11</title>
<g id="a_edge13_Node000001_Node000011"><a xlink:title=" ">
<path fill="none" stroke="#63b8ff" d="M199.6,-446.72C177.96,-436.51 152.98,-424.73 132.44,-415.04"/>
<polygon fill="#63b8ff" stroke="#63b8ff" points="198.12,-449.89 208.65,-450.99 201.1,-443.56 198.12,-449.89"/>
</a>
</g>
</g>
<!-- Node12 -->
<g id="Node000012" class="node">
<title>Node12</title>
<g id="a_Node000012"><a xlink:href="fe__expr__func_8hpp.html" target="_top" xlink:title=" ">
<polygon fill="white" stroke="#666666" points="320.51,-415 179.51,-415 179.51,-374 320.51,-374 320.51,-415"/>
<text text-anchor="start" x="187.51" y="-403" font-family="Helvetica,sans-Serif" font-size="10.00">/__w/vulpes/vulpes</text>
<text text-anchor="start" x="187.51" y="-392" font-family="Helvetica,sans-Serif" font-size="10.00">/vulpes/fe/fe_expressions</text>
<text text-anchor="middle" x="250.01" y="-381" font-family="Helvetica,sans-Serif" font-size="10.00">/fe_expr_func.hpp</text>
</a>
</g>
</g>
<!-- Node1&#45;&gt;Node12 -->
<g id="edge15_Node000001_Node000012" class="edge">
<title>Node1&#45;&gt;Node12</title>
<g id="a_edge15_Node000001_Node000012"><a xlink:title=" ">
<path fill="none" stroke="#63b8ff" d="M250.01,-440.69C250.01,-432.08 250.01,-422.9 250.01,-415.07"/>
<polygon fill="#63b8ff" stroke="#63b8ff" points="246.51,-440.79 250.01,-450.79 253.51,-440.79 246.51,-440.79"/>
</a>
</g>
</g>
<!-- Node13 -->
<g id="Node000013" class="node">
<title>Node13</title>
<g id="a_Node000013"><a xlink:href="fe__expr__op_8hpp.html" target="_top" xlink:title=" ">
<polygon fill="white" stroke="#666666" points="479.51,-415 338.51,-415 338.51,-374 479.51,-374 479.51,-415"/>
<text text-anchor="start" x="346.51" y="-403" font-family="Helvetica,sans-Serif" font-size="10.00">/__w/vulpes/vulpes</text>
<text text-anchor="start" x="346.51" y="-392" font-family="Helvetica,sans-Serif" font-size="10.00">/vulpes/fe/fe_expressions</text>
<text text-anchor="middle" x="409.01" y="-381" font-family="Helvetica,sans-Serif" font-size="10.00">/fe_expr_op.hpp</text>
</a>
</g>
</g>
<!-- Node1&#45;&gt;Node13 -->
<g id="edge17_Node000001_Node000013" class="edge">
<title>Node1&#45;&gt;Node13</title>
<g id="a_edge17_Node000001_Node000013"><a xlink:title=" ">
<path fill="none" stroke="#63b8ff" d="M300.42,-446.72C322.06,-436.51 347.04,-424.73 367.58,-415.04"/>
<polygon fill="#63b8ff" stroke="#63b8ff" points="298.92,-443.56 291.37,-450.99 301.91,-449.89 298.92,-443.56"/>
</a>
</g>
</g>
<!-- Node14 -->
<g id="Node000014" class="node">
<title>Node14</title>
<g id="a_Node000014"><a xlink:href="fe__expr__unary_8hpp.html" target="_top" xlink:title=" ">
<polygon fill="white" stroke="#666666" points="638.51,-415 497.51,-415 497.51,-374 638.51,-374 638.51,-415"/>
<text text-anchor="start" x="505.51" y="-403" font-family="Helvetica,sans-Serif" font-size="10.00">/__w/vulpes/vulpes</text>
<text text-anchor="start" x="505.51" y="-392" font-family="Helvetica,sans-Serif" font-size="10.00">/vulpes/fe/fe_expressions</text>
<text text-anchor="middle" x="568.01" y="-381" font-family="Helvetica,sans-Serif" font-size="10.00">/fe_expr_unary.hpp</text>
</a>
</g>
</g>
<!-- Node1&#45;&gt;Node14 -->
<g id="edge19_Node000001_Node000014" class="edge">
<title>Node1&#45;&gt;Node14</title>
<g id="a_edge19_Node000001_Node000014"><a xlink:title=" ">
<path fill="none" stroke="#63b8ff" d="M330.65,-452.07C377.01,-441.4 436.33,-427.62 489.01,-415 491.76,-414.34 494.56,-413.67 497.39,-412.98"/>
<polygon fill="#63b8ff" stroke="#63b8ff" points="329.62,-448.71 320.66,-454.36 331.19,-455.53 329.62,-448.71"/>
</a>
</g>
</g>
<!-- Node3 -->
<g id="Node000003" class="node">
<title>Node3</title>
<g id="a_Node000003"><a xlink:href="dg__utils_8hpp.html" target="_top" xlink:title=" ">
<polygon fill="white" stroke="#666666" points="299.51,-41 182.51,-41 182.51,0 299.51,0 299.51,-41"/>
<text text-anchor="start" x="190.51" y="-29" font-family="Helvetica,sans-Serif" font-size="10.00">/__w/vulpes/vulpes</text>
<text text-anchor="start" x="190.51" y="-18" font-family="Helvetica,sans-Serif" font-size="10.00">/vulpes/assemble/dg</text>
<text text-anchor="middle" x="241.01" y="-7" font-family="Helvetica,sans-Serif" font-size="10.00">_utils.hpp</text>
</a>
</g>
</g>
<!-- Node2&#45;&gt;Node3 -->
<g id="edge2_Node000002_Node000003" class="edge">
<title>Node2&#45;&gt;Node3</title>
<g id="a_edge2_Node000002_Node000003"><a xlink:title=" ">
<path fill="none" stroke="#63b8ff" d="M228.35,-300.18C195.47,-265.29 134.53,-193.18 113.01,-118 108,-100.48 103.01,-92.23 113.01,-77 128.5,-53.41 156.4,-39.8 182.2,-31.97"/>
<polygon fill="#63b8ff" stroke="#63b8ff" points="226.24,-303.03 235.68,-307.84 231.29,-298.19 226.24,-303.03"/>
</a>
</g>
</g>
<!-- Node4 -->
<g id="Node000004" class="node">
<title>Node4</title>
<g id="a_Node000004"><a xlink:href="integrator__base_8hpp.html" target="_top" xlink:title=" ">
<polygon fill="white" stroke="#666666" points="379.51,-195 226.51,-195 226.51,-154 379.51,-154 379.51,-195"/>
<text text-anchor="start" x="234.51" y="-183" font-family="Helvetica,sans-Serif" font-size="10.00">/__w/vulpes/vulpes</text>
<text text-anchor="start" x="234.51" y="-172" font-family="Helvetica,sans-Serif" font-size="10.00">/vulpes/assemble/integrator</text>
<text text-anchor="middle" x="303.01" y="-161" font-family="Helvetica,sans-Serif" font-size="10.00">_base.hpp</text>
</a>
</g>
</g>
<!-- Node2&#45;&gt;Node4 -->
<g id="edge3_Node000002_Node000004" class="edge">
<title>Node2&#45;&gt;Node4</title>
<g id="a_edge3_Node000002_Node000004"><a xlink:title=" ">
<path fill="none" stroke="#63b8ff" d="M231.76,-299.84C218.52,-280.9 204.88,-253.27 217.01,-231 225.43,-215.55 240.2,-203.75 255.15,-195.09"/>
<polygon fill="#63b8ff" stroke="#63b8ff" points="228.95,-301.93 237.72,-307.88 234.57,-297.76 228.95,-301.93"/>
</a>
</g>
</g>
<!-- Node9 -->
<g id="Node000009" class="node">
<title>Node9</title>
<g id="a_Node000009"><a xlink:href="integrator__traits_8hpp.html" target="_top" xlink:title=" ">
<polygon fill="white" stroke="#666666" points="379.51,-272 226.51,-272 226.51,-231 379.51,-231 379.51,-272"/>
<text text-anchor="start" x="234.51" y="-260" font-family="Helvetica,sans-Serif" font-size="10.00">/__w/vulpes/vulpes</text>
<text text-anchor="start" x="234.51" y="-249" font-family="Helvetica,sans-Serif" font-size="10.00">/vulpes/assemble/integrator</text>
<text text-anchor="middle" x="303.01" y="-238" font-family="Helvetica,sans-Serif" font-size="10.00">_traits.hpp</text>
</a>
</g>
</g>
<!-- Node2&#45;&gt;Node9 -->
<g id="edge10_Node000002_Node000009" class="edge">
<title>Node2&#45;&gt;Node9</title>
<g id="a_edge10_Node000002_Node000009"><a xlink:title=" ">
<path fill="none" stroke="#63b8ff" d="M266.89,-299.86C273.7,-290.94 281.49,-280.72 288.09,-272.07"/>
<polygon fill="#63b8ff" stroke="#63b8ff" points="264.02,-297.86 260.74,-307.94 269.59,-302.11 264.02,-297.86"/>
</a>
</g>
</g>
<!-- Node10 -->
<g id="Node000010" class="node">
<title>Node10</title>
<g id="a_Node000010"><a xlink:href="fe__vem_8hpp.html" target="_top" xlink:title=" ">
<polygon fill="white" stroke="#666666" points="514.01,-272 398.01,-272 398.01,-231 514.01,-231 514.01,-272"/>
<text text-anchor="start" x="406.01" y="-260" font-family="Helvetica,sans-Serif" font-size="10.00">/__w/vulpes/vulpes</text>
<text text-anchor="start" x="406.01" y="-249" font-family="Helvetica,sans-Serif" font-size="10.00">/vulpes/fe/fe_spaces</text>
<text text-anchor="middle" x="456.01" y="-238" font-family="Helvetica,sans-Serif" font-size="10.00">/fe_vem.hpp</text>
</a>
</g>
</g>
<!-- Node2&#45;&gt;Node10 -->
<g id="edge12_Node000002_Node000010" class="edge">
<title>Node2&#45;&gt;Node10</title>
<g id="a_edge12_Node000002_Node000010"><a xlink:title=" ">
<path fill="none" stroke="#63b8ff" d="M301.34,-304.68C330.69,-294.78 367.6,-282.33 398,-272.07"/>
<polygon fill="#63b8ff" stroke="#63b8ff" points="300.06,-301.42 291.7,-307.94 302.29,-308.06 300.06,-301.42"/>
</a>
</g>
</g>
<!-- Node5 -->
<g id="Node000005" class="node">
<title>Node5</title>
<g id="a_Node000005"><a xlink:href="integrator__gauss_8hpp.html" target="_top" xlink:title=" ">
<polygon fill="white" stroke="#666666" points="275.51,-118 122.51,-118 122.51,-77 275.51,-77 275.51,-118"/>
<text text-anchor="start" x="130.51" y="-106" font-family="Helvetica,sans-Serif" font-size="10.00">/__w/vulpes/vulpes</text>
<text text-anchor="start" x="130.51" y="-95" font-family="Helvetica,sans-Serif" font-size="10.00">/vulpes/assemble/integrator</text>
<text text-anchor="middle" x="199.01" y="-84" font-family="Helvetica,sans-Serif" font-size="10.00">_gauss.hpp</text>
</a>
</g>
</g>
<!-- Node4&#45;&gt;Node5 -->
<g id="edge4_Node000004_Node000005" class="edge">
<title>Node4&#45;&gt;Node5</title>
<g id="a_edge4_Node000004_Node000005"><a xlink:title=" ">
<path fill="none" stroke="#63b8ff" d="M267.78,-148.09C254.23,-138.32 238.98,-127.32 226.29,-118.17"/>
<polygon fill="#63b8ff" stroke="#63b8ff" points="265.8,-150.98 275.96,-153.99 269.9,-145.3 265.8,-150.98"/>
</a>
</g>
</g>
<!-- Node6 -->
<g id="Node000006" class="node">
<title>Node6</title>
<g id="a_Node000006"><a xlink:href="integrator__qfree_8hpp.html" target="_top" xlink:title=" ">
<polygon fill="white" stroke="#666666" points="617.51,-118 464.51,-118 464.51,-77 617.51,-77 617.51,-118"/>
<text text-anchor="start" x="472.51" y="-106" font-family="Helvetica,sans-Serif" font-size="10.00">/__w/vulpes/vulpes</text>
<text text-anchor="start" x="472.51" y="-95" font-family="Helvetica,sans-Serif" font-size="10.00">/vulpes/assemble/integrator</text>
<text text-anchor="middle" x="541.01" y="-84" font-family="Helvetica,sans-Serif" font-size="10.00">_qfree.hpp</text>
</a>
</g>
</g>
<!-- Node4&#45;&gt;Node6 -->
<g id="edge5_Node000004_Node000006" class="edge">
<title>Node4&#45;&gt;Node6</title>
<g id="a_edge5_Node000004_Node000006"><a xlink:title=" ">
<path fill="none" stroke="#63b8ff" d="M374.59,-150.94C407.85,-140.46 447.02,-128.12 479,-118.04"/>
<polygon fill="#63b8ff" stroke="#63b8ff" points="373.41,-147.65 364.92,-153.99 375.51,-154.32 373.41,-147.65"/>
</a>
</g>
</g>
<!-- Node8 -->
<g id="Node000008" class="node">
<title>Node8</title>
<g id="a_Node000008"><a xlink:href="integrator__simplexify_8hpp.html" target="_top" xlink:title=" ">
<polygon fill="white" stroke="#666666" points="446.51,-118 293.51,-118 293.51,-77 446.51,-77 446.51,-118"/>
<text text-anchor="start" x="301.51" y="-106" font-family="Helvetica,sans-Serif" font-size="10.00">/__w/vulpes/vulpes</text>
<text text-anchor="start" x="301.51" y="-95" font-family="Helvetica,sans-Serif" font-size="10.00">/vulpes/assemble/integrator</text>
<text text-anchor="middle" x="370.01" y="-84" font-family="Helvetica,sans-Serif" font-size="10.00">_simplexify.hpp</text>
</a>
</g>
</g>
<!-- Node4&#45;&gt;Node8 -->
<g id="edge7_Node000004_Node000008" class="edge">
<title>Node4&#45;&gt;Node8</title>
<g id="a_edge7_Node000004_Node000008"><a xlink:title=" ">
<path fill="none" stroke="#63b8ff" d="M327.37,-146.23C335.7,-136.91 344.85,-126.67 352.53,-118.07"/>
<polygon fill="#63b8ff" stroke="#63b8ff" points="324.67,-144.01 320.62,-153.79 329.89,-148.67 324.67,-144.01"/>
</a>
</g>
</g>
<!-- Node7 -->
<g id="Node000007" class="node">
<title>Node7</title>
<g id="a_Node000007"><a xlink:href="integrator__vem_8hpp.html" target="_top" xlink:title=" ">
<polygon fill="white" stroke="#666666" points="531.51,-41 378.51,-41 378.51,0 531.51,0 531.51,-41"/>
<text text-anchor="start" x="386.51" y="-29" font-family="Helvetica,sans-Serif" font-size="10.00">/__w/vulpes/vulpes</text>
<text text-anchor="start" x="386.51" y="-18" font-family="Helvetica,sans-Serif" font-size="10.00">/vulpes/assemble/integrator</text>
<text text-anchor="middle" x="455.01" y="-7" font-family="Helvetica,sans-Serif" font-size="10.00">_vem.hpp</text>
</a>
</g>
</g>
<!-- Node6&#45;&gt;Node7 -->
<g id="edge6_Node000006_Node000007" class="edge">
<title>Node6&#45;&gt;Node7</title>
<g id="a_edge6_Node000006_Node000007"><a xlink:title=" ">
<path fill="none" stroke="#63b8ff" d="M510.71,-70.07C499.76,-60.52 487.61,-49.93 477.46,-41.07"/>
<polygon fill="#63b8ff" stroke="#63b8ff" points="508.58,-72.86 518.42,-76.79 513.18,-67.58 508.58,-72.86"/>
</a>
</g>
</g>
<!-- Node8&#45;&gt;Node3 -->
<g id="edge8_Node000008_Node000003" class="edge">
<title>Node8&#45;&gt;Node3</title>
<g id="a_edge8_Node000008_Node000003"><a xlink:title=" ">
<path fill="none" stroke="#63b8ff" d="M327.73,-71.92C310.58,-61.95 291.04,-50.58 274.85,-41.17"/>
<polygon fill="#63b8ff" stroke="#63b8ff" points="326.05,-74.99 336.46,-76.99 329.57,-68.94 326.05,-74.99"/>
</a>
</g>
</g>
<!-- Node8&#45;&gt;Node7 -->
<g id="edge9_Node000008_Node000007" class="edge">
<title>Node8&#45;&gt;Node7</title>
<g id="a_edge9_Node000008_Node000007"><a xlink:title=" ">
<path fill="none" stroke="#63b8ff" d="M399.97,-70.07C410.79,-60.52 422.8,-49.93 432.83,-41.07"/>
<polygon fill="#63b8ff" stroke="#63b8ff" points="397.53,-67.55 392.35,-76.79 402.16,-72.8 397.53,-67.55"/>
</a>
</g>
</g>
<!-- Node9&#45;&gt;Node4 -->
<g id="edge11_Node000009_Node000004" class="edge">
<title>Node9&#45;&gt;Node4</title>
<g id="a_edge11_Node000009_Node000004"><a xlink:title=" ">
<path fill="none" stroke="#63b8ff" d="M303.01,-220.69C303.01,-212.08 303.01,-202.9 303.01,-195.07"/>
<polygon fill="#63b8ff" stroke="#63b8ff" points="299.51,-220.79 303.01,-230.79 306.51,-220.79 299.51,-220.79"/>
</a>
</g>
</g>
<!-- Node11&#45;&gt;Node2 -->
<g id="edge14_Node000011_Node000002" class="edge">
<title>Node11&#45;&gt;Node2</title>
<g id="a_edge14_Node000011_Node000002"><a xlink:title=" ">
<path fill="none" stroke="#63b8ff" d="M145.13,-369.85C169.27,-359.3 196.89,-347.22 217.73,-338.11"/>
<polygon fill="#63b8ff" stroke="#63b8ff" points="143.49,-366.74 135.73,-373.96 146.29,-373.16 143.49,-366.74"/>
</a>
</g>
</g>
<!-- Node12&#45;&gt;Node2 -->
<g id="edge16_Node000012_Node000002" class="edge">
<title>Node12&#45;&gt;Node2</title>
<g id="a_edge16_Node000012_Node000002"><a xlink:title=" ">
<path fill="none" stroke="#63b8ff" d="M250.01,-363.66C250.01,-354.76 250.01,-345.42 250.01,-338.04"/>
<polygon fill="#63b8ff" stroke="#63b8ff" points="246.51,-363.77 250.01,-373.77 253.51,-363.77 246.51,-363.77"/>
</a>
</g>
</g>
<!-- Node13&#45;&gt;Node2 -->
<g id="edge18_Node000013_Node000002" class="edge">
<title>Node13&#45;&gt;Node2</title>
<g id="a_edge18_Node000013_Node000002"><a xlink:title=" ">
<path fill="none" stroke="#63b8ff" d="M354.9,-369.85C330.76,-359.3 303.14,-347.22 282.3,-338.11"/>
<polygon fill="#63b8ff" stroke="#63b8ff" points="353.74,-373.16 364.3,-373.96 356.54,-366.74 353.74,-373.16"/>
</a>
</g>
</g>
<!-- Node14&#45;&gt;Node2 -->
<g id="edge20_Node000014_Node000002" class="edge">
<title>Node14&#45;&gt;Node2</title>
<g id="a_edge20_Node000014_Node000002"><a xlink:title=" ">
<path fill="none" stroke="#63b8ff" d="M487.51,-373.69C425.89,-359.74 365.5,-347.19 320.22,-338"/>
<polygon fill="#63b8ff" stroke="#63b8ff" points="486.88,-377.14 497.41,-375.94 488.43,-370.31 486.88,-377.14"/>
</a>
</g>
</g>
</g>
</svg>
