<?xml version="1.0" encoding="UTF-8" standalone="no"?>
<!DOCTYPE svg PUBLIC "-//W3C//DTD SVG 1.1//EN"
 "http://www.w3.org/Graphics/SVG/1.1/DTD/svg11.dtd">
<!-- Generated by graphviz version 12.2.1 (20241206.2353)
 -->
<!-- Title: /Users/ilariomazzieri/Desktop/vulpes/vulpes/fe/fe_values.hpp Pages: 1 -->
<!--zoomable 617 -->

<svg id="main" version="1.1" xmlns="http://www.w3.org/2000/svg" xmlns:xlink="http://www.w3.org/1999/xlink" xml:space="preserve" onload="init(evt)">
<style type="text/css"><![CDATA[
.node, .edge {opacity: 0.7;}
.node.selected, .edge.selected {opacity: 1;}
.edge:hover path { stroke: red; }
.edge:hover polygon { stroke: red; fill: red; }
]]></style>

<defs>
  <circle id="rim" cx="0" cy="0" r="7"/>
  <circle id="rim2" cx="0" cy="0" r="3.5"/>
  <g id="zoomPlus">
    <use xlink:href="#rim" fill="#404040"><set attributeName="fill" to="#808080" begin="zoomplus.mouseover" end="zoomplus.mouseout"/></use>
    <path d="M-4,0h8M0,-4v8" fill="none" stroke="white" stroke-width="1.5" pointer-events="none"/>
  </g>
  <g id="zoomMin">
    <use xlink:href="#rim" fill="#404040"><set attributeName="fill" to="#808080" begin="zoomminus.mouseover" end="zoomminus.mouseout"/></use>
    <path d="M-4,0h8" fill="none" stroke="white" stroke-width="1.5" pointer-events="none"/>
  </g>
  <g id="arrowUp" transform="translate(30 24)">
    <use xlink:href="#rim"/>
    <path pointer-events="none" fill="none" stroke="white" stroke-width="1.5" d="M0,-3.0v7 M-2.5,-0.5L0,-3.0L2.5,-0.5"/>
  </g>
  <g id="arrowRight" transform="rotate(90) translate(36 -43)">
    <use xlink:href="#rim"/>
    <path pointer-events="none" fill="none" stroke="white" stroke-width="1.5" d="M0,-3.0v7 M-2.5,-0.5L0,-3.0L2.5,-0.5"/>
  </g>
  <g id="arrowDown" transform="rotate(180) translate(-30 -48)">
    <use xlink:href="#rim"/>
    <path pointer-events="none" fill="none" stroke="white" stroke-width="1.5" d="M0,-3.0v7 M-2.5,-0.5L0,-3.0L2.5,-0.5"/>
  </g>
  <g id="arrowLeft" transform="rotate(270) translate(-36 17)">
    <use xlink:href="#rim"/>
    <path pointer-events="none" fill="none" stroke="white" stroke-width="1.5" d="M0,-3.0v7 M-2.5,-0.5L0,-3.0L2.5,-0.5"/>
  </g>
  <g id="resetDef">
    <use xlink:href="#rim2" fill="#404040"><set attributeName="fill" to="#808080" begin="reset.mouseover" end="reset.mouseout"/></use>
  </g>
</defs>
<script type="application/ecmascript">
var viewWidth = 953;
var viewHeight = 617;
var sectionId = 'dynsection-1';
</script>
<script type="application/ecmascript" xlink:href="svg.min.js"/>
<svg id="graph" class="graph">
<g id="viewport">
<title>/Users/ilariomazzieri/Desktop/vulpes/vulpes/fe/fe_values.hpp</title>
<!-- Node1 -->
<g id="Node000001" class="node">
<title>Node1</title>
<g id="a_Node000001"><a xlink:title=" ">
<polygon fill="#999999" stroke="#666666" points="360.5,-608.5 241.75,-608.5 241.75,-566.75 360.5,-566.75 360.5,-608.5"/>
<text text-anchor="start" x="249.75" y="-595" font-family="Helvetica,sans-Serif" font-size="10.00">/Users/ilariomazzieri</text>
<text text-anchor="start" x="249.75" y="-583.75" font-family="Helvetica,sans-Serif" font-size="10.00">/Desktop/vulpes/vulpes</text>
<text text-anchor="middle" x="301.12" y="-572.5" font-family="Helvetica,sans-Serif" font-size="10.00">/fe/fe_values.hpp</text>
</a>
</g>
</g>
<!-- Node2 -->
<g id="Node000002" class="node">
<title>Node2</title>
<g id="a_Node000002"><a xlink:href="dg__utils_8hpp.html" target="_top" xlink:title=" ">
<polygon fill="white" stroke="#666666" points="599.5,-41.75 480.75,-41.75 480.75,0 599.5,0 599.5,-41.75"/>
<text text-anchor="start" x="488.75" y="-28.25" font-family="Helvetica,sans-Serif" font-size="10.00">/Users/ilariomazzieri</text>
<text text-anchor="start" x="488.75" y="-17" font-family="Helvetica,sans-Serif" font-size="10.00">/Desktop/vulpes/vulpes</text>
<text text-anchor="middle" x="540.12" y="-5.75" font-family="Helvetica,sans-Serif" font-size="10.00">/assemble/dg_utils.hpp</text>
</a>
</g>
</g>
<!-- Node1&#45;&gt;Node2 -->
<g id="edge1_Node000001_Node000002" class="edge">
<title>Node1&#45;&gt;Node2</title>
<g id="a_edge1_Node000001_Node000002"><a xlink:title=" ">
<path fill="none" stroke="#63b8ff" d="M372.25,-582.85C539.76,-572.03 945.12,-533.7 945.12,-416.25 945.12,-416.25 945.12,-416.25 945.12,-175.38 945.12,-102.44 712.54,-51.89 599.88,-31.69"/>
<polygon fill="#63b8ff" stroke="#63b8ff" points="372.12,-579.35 362.35,-583.47 372.56,-586.34 372.12,-579.35"/>
</a>
</g>
</g>
<!-- Node3 -->
<g id="Node000003" class="node">
<title>Node3</title>
<g id="a_Node000003"><a xlink:href="integrator__base_8hpp.html" target="_top" xlink:title=" ">
<polygon fill="white" stroke="#666666" points="343.88,-197.25 194.38,-197.25 194.38,-155.5 343.88,-155.5 343.88,-197.25"/>
<text text-anchor="start" x="202.38" y="-183.75" font-family="Helvetica,sans-Serif" font-size="10.00">/Users/ilariomazzieri</text>
<text text-anchor="start" x="202.38" y="-172.5" font-family="Helvetica,sans-Serif" font-size="10.00">/Desktop/vulpes/vulpes</text>
<text text-anchor="middle" x="269.12" y="-161.25" font-family="Helvetica,sans-Serif" font-size="10.00">/assemble/integrator_base.hpp</text>
</a>
</g>
</g>
<!-- Node1&#45;&gt;Node3 -->
<g id="edge2_Node000001_Node000003" class="edge">
<title>Node1&#45;&gt;Node3</title>
<g id="a_edge2_Node000001_Node000003"><a xlink:title=" ">
<path fill="none" stroke="#63b8ff" d="M270.66,-558.63C239.97,-527.23 197.12,-473.19 197.12,-416.25 197.12,-416.25 197.12,-416.25 197.12,-330.88 197.12,-286.67 195.89,-272.55 216.12,-233.25 223.04,-219.82 234.18,-207.36 244.46,-197.63"/>
<polygon fill="#63b8ff" stroke="#63b8ff" points="267.93,-560.85 277.49,-565.42 272.87,-555.89 267.93,-560.85"/>
</a>
</g>
</g>
<!-- Node8 -->
<g id="Node000008" class="node">
<title>Node8</title>
<g id="a_Node000008"><a xlink:href="integrator__traits_8hpp.html" target="_top" xlink:title=" ">
<polygon fill="white" stroke="#666666" points="375.25,-275 225,-275 225,-233.25 375.25,-233.25 375.25,-275"/>
<text text-anchor="start" x="233" y="-261.5" font-family="Helvetica,sans-Serif" font-size="10.00">/Users/ilariomazzieri</text>
<text text-anchor="start" x="233" y="-250.25" font-family="Helvetica,sans-Serif" font-size="10.00">/Desktop/vulpes/vulpes</text>
<text text-anchor="middle" x="300.12" y="-239" font-family="Helvetica,sans-Serif" font-size="10.00">/assemble/integrator_traits.hpp</text>
</a>
</g>
</g>
<!-- Node1&#45;&gt;Node8 -->
<g id="edge9_Node000001_Node000008" class="edge">
<title>Node1&#45;&gt;Node8</title>
<g id="a_edge9_Node000001_Node000008"><a xlink:title=" ">
<path fill="none" stroke="#63b8ff" d="M293.65,-555.35C285.23,-516.41 273.3,-447.79 278.12,-388.75 281.44,-348.21 290.32,-301.44 295.73,-275.37"/>
<polygon fill="#63b8ff" stroke="#63b8ff" points="290.2,-555.97 295.8,-564.97 297.03,-554.45 290.2,-555.97"/>
</a>
</g>
</g>
<!-- Node9 -->
<g id="Node000009" class="node">
<title>Node9</title>
<g id="a_Node000009"><a xlink:href="fe__expr__base_8hpp.html" target="_top" xlink:title=" ">
<polygon fill="white" stroke="#666666" points="507.88,-530.75 376.38,-530.75 376.38,-477.75 507.88,-477.75 507.88,-530.75"/>
<text text-anchor="start" x="384.38" y="-517.25" font-family="Helvetica,sans-Serif" font-size="10.00">/Users/ilariomazzieri</text>
<text text-anchor="start" x="384.38" y="-506" font-family="Helvetica,sans-Serif" font-size="10.00">/Desktop/vulpes/vulpes</text>
<text text-anchor="start" x="384.38" y="-494.75" font-family="Helvetica,sans-Serif" font-size="10.00">/fe/fe_expressions/fe_expr</text>
<text text-anchor="middle" x="442.12" y="-483.5" font-family="Helvetica,sans-Serif" font-size="10.00">_base.hpp</text>
</a>
</g>
</g>
<!-- Node1&#45;&gt;Node9 -->
<g id="edge11_Node000001_Node000009" class="edge">
<title>Node1&#45;&gt;Node9</title>
<g id="a_edge11_Node000001_Node000009"><a xlink:title=" ">
<path fill="none" stroke="#63b8ff" d="M346.19,-560.61C362.51,-551.2 380.93,-540.57 397.23,-531.16"/>
<polygon fill="#63b8ff" stroke="#63b8ff" points="344.56,-557.51 337.65,-565.54 348.06,-563.58 344.56,-557.51"/>
</a>
</g>
</g>
<!-- Node4 -->
<g id="Node000004" class="node">
<title>Node4</title>
<g id="a_Node000004"><a xlink:href="integrator__gauss_8hpp.html" target="_top" xlink:title=" ">
<polygon fill="white" stroke="#666666" points="512.5,-119.5 357.75,-119.5 357.75,-77.75 512.5,-77.75 512.5,-119.5"/>
<text text-anchor="start" x="365.75" y="-106" font-family="Helvetica,sans-Serif" font-size="10.00">/Users/ilariomazzieri</text>
<text text-anchor="start" x="365.75" y="-94.75" font-family="Helvetica,sans-Serif" font-size="10.00">/Desktop/vulpes/vulpes</text>
<text text-anchor="middle" x="435.12" y="-83.5" font-family="Helvetica,sans-Serif" font-size="10.00">/assemble/integrator_gauss.hpp</text>
</a>
</g>
</g>
<!-- Node3&#45;&gt;Node4 -->
<g id="edge3_Node000003_Node000004" class="edge">
<title>Node3&#45;&gt;Node4</title>
<g id="a_edge3_Node000003_Node000004"><a xlink:title=" ">
<path fill="none" stroke="#63b8ff" d="M323.95,-150.36C345.55,-140.5 370.03,-129.33 390.52,-119.98"/>
<polygon fill="#63b8ff" stroke="#63b8ff" points="322.63,-147.11 314.99,-154.45 325.54,-153.48 322.63,-147.11"/>
</a>
</g>
</g>
<!-- Node5 -->
<g id="Node000005" class="node">
<title>Node5</title>
<g id="a_Node000005"><a xlink:href="integrator__qfree_8hpp.html" target="_top" xlink:title=" ">
<polygon fill="white" stroke="#666666" points="150.25,-119.5 0,-119.5 0,-77.75 150.25,-77.75 150.25,-119.5"/>
<text text-anchor="start" x="8" y="-106" font-family="Helvetica,sans-Serif" font-size="10.00">/Users/ilariomazzieri</text>
<text text-anchor="start" x="8" y="-94.75" font-family="Helvetica,sans-Serif" font-size="10.00">/Desktop/vulpes/vulpes</text>
<text text-anchor="middle" x="75.12" y="-83.5" font-family="Helvetica,sans-Serif" font-size="10.00">/assemble/integrator_qfree.hpp</text>
</a>
</g>
</g>
<!-- Node3&#45;&gt;Node5 -->
<g id="edge4_Node000003_Node000005" class="edge">
<title>Node3&#45;&gt;Node5</title>
<g id="a_edge4_Node000003_Node000005"><a xlink:title=" ">
<path fill="none" stroke="#63b8ff" d="M206.43,-150.89C180.85,-140.91 151.63,-129.5 127.26,-119.98"/>
<polygon fill="#63b8ff" stroke="#63b8ff" points="205.14,-154.15 215.73,-154.52 207.68,-147.63 205.14,-154.15"/>
</a>
</g>
</g>
<!-- Node7 -->
<g id="Node000007" class="node">
<title>Node7</title>
<g id="a_Node000007"><a xlink:href="integrator__simplexify_8hpp.html" target="_top" xlink:title=" ">
<polygon fill="white" stroke="#666666" points="339.75,-119.5 168.5,-119.5 168.5,-77.75 339.75,-77.75 339.75,-119.5"/>
<text text-anchor="start" x="176.5" y="-106" font-family="Helvetica,sans-Serif" font-size="10.00">/Users/ilariomazzieri</text>
<text text-anchor="start" x="176.5" y="-94.75" font-family="Helvetica,sans-Serif" font-size="10.00">/Desktop/vulpes/vulpes</text>
<text text-anchor="middle" x="254.12" y="-83.5" font-family="Helvetica,sans-Serif" font-size="10.00">/assemble/integrator_simplexify.hpp</text>
</a>
</g>
</g>
<!-- Node3&#45;&gt;Node7 -->
<g id="edge6_Node000003_Node000007" class="edge">
<title>Node3&#45;&gt;Node7</title>
<g id="a_edge6_Node000003_Node000007"><a xlink:title=" ">
<path fill="none" stroke="#63b8ff" d="M262.92,-144.03C261.31,-135.91 259.62,-127.37 258.16,-119.98"/>
<polygon fill="#63b8ff" stroke="#63b8ff" points="259.44,-144.46 264.81,-153.59 266.3,-143.1 259.44,-144.46"/>
</a>
</g>
</g>
<!-- Node6 -->
<g id="Node000006" class="node">
<title>Node6</title>
<g id="a_Node000006"><a xlink:href="integrator__vem_8hpp.html" target="_top" xlink:title=" ">
<polygon fill="white" stroke="#666666" points="238.75,-41.75 91.5,-41.75 91.5,0 238.75,0 238.75,-41.75"/>
<text text-anchor="start" x="99.5" y="-28.25" font-family="Helvetica,sans-Serif" font-size="10.00">/Users/ilariomazzieri</text>
<text text-anchor="start" x="99.5" y="-17" font-family="Helvetica,sans-Serif" font-size="10.00">/Desktop/vulpes/vulpes</text>
<text text-anchor="middle" x="165.12" y="-5.75" font-family="Helvetica,sans-Serif" font-size="10.00">/assemble/integrator_vem.hpp</text>
</a>
</g>
</g>
<!-- Node5&#45;&gt;Node6 -->
<g id="edge5_Node000005_Node000006" class="edge">
<title>Node5&#45;&gt;Node6</title>
<g id="a_edge5_Node000005_Node000006"><a xlink:title=" ">
<path fill="none" stroke="#63b8ff" d="M107.75,-70.16C118.72,-60.94 130.74,-50.81 140.94,-42.23"/>
<polygon fill="#63b8ff" stroke="#63b8ff" points="105.8,-67.23 100.4,-76.35 110.31,-72.59 105.8,-67.23"/>
</a>
</g>
</g>
<!-- Node7&#45;&gt;Node2 -->
<g id="edge7_Node000007_Node000002" class="edge">
<title>Node7&#45;&gt;Node2</title>
<g id="a_edge7_Node000007_Node000002"><a xlink:title=" ">
<path fill="none" stroke="#63b8ff" d="M341.71,-74.43C386.7,-62.51 440.35,-48.3 480.51,-37.67"/>
<polygon fill="#63b8ff" stroke="#63b8ff" points="341,-70.99 332.23,-76.94 342.79,-77.76 341,-70.99"/>
</a>
</g>
</g>
<!-- Node7&#45;&gt;Node6 -->
<g id="edge8_Node000007_Node000006" class="edge">
<title>Node7&#45;&gt;Node6</title>
<g id="a_edge8_Node000007_Node000006"><a xlink:title=" ">
<path fill="none" stroke="#63b8ff" d="M221.54,-69.89C210.78,-60.73 199.03,-50.73 189.04,-42.23"/>
<polygon fill="#63b8ff" stroke="#63b8ff" points="219.24,-72.53 229.12,-76.34 223.78,-67.2 219.24,-72.53"/>
</a>
</g>
</g>
<!-- Node8&#45;&gt;Node3 -->
<g id="edge10_Node000008_Node000003" class="edge">
<title>Node8&#45;&gt;Node3</title>
<g id="a_edge10_Node000008_Node000003"><a xlink:title=" ">
<path fill="none" stroke="#63b8ff" d="M287.53,-222.34C284.13,-214.05 280.55,-205.29 277.46,-197.73"/>
<polygon fill="#63b8ff" stroke="#63b8ff" points="284.22,-223.5 291.24,-231.42 290.7,-220.84 284.22,-223.5"/>
</a>
</g>
</g>
<!-- Node10 -->
<g id="Node000010" class="node">
<title>Node10</title>
<g id="a_Node000010"><a xlink:href="fe__expression_8hpp.html" target="_top" xlink:title=" ">
<polygon fill="white" stroke="#666666" points="576.5,-352.75 457.75,-352.75 457.75,-311 576.5,-311 576.5,-352.75"/>
<text text-anchor="start" x="465.75" y="-339.25" font-family="Helvetica,sans-Serif" font-size="10.00">/Users/ilariomazzieri</text>
<text text-anchor="start" x="465.75" y="-328" font-family="Helvetica,sans-Serif" font-size="10.00">/Desktop/vulpes/vulpes</text>
<text text-anchor="middle" x="517.12" y="-316.75" font-family="Helvetica,sans-Serif" font-size="10.00">/fe/fe_expression.hpp</text>
</a>
</g>
</g>
<!-- Node9&#45;&gt;Node10 -->
<g id="edge12_Node000009_Node000010" class="edge">
<title>Node9&#45;&gt;Node10</title>
<g id="a_edge12_Node000009_Node000010"><a xlink:title=" ">
<path fill="none" stroke="#63b8ff" d="M365.05,-490.15C337.28,-481.31 308.73,-466.51 292.12,-441.75 279,-422.19 277.61,-407.31 292.12,-388.75 312.3,-362.95 397.76,-347.37 457.34,-339.45"/>
<polygon fill="#63b8ff" stroke="#63b8ff" points="364,-493.49 374.58,-492.94 365.97,-486.78 364,-493.49"/>
</a>
</g>
</g>
<!-- Node12 -->
<g id="Node000012" class="node">
<title>Node12</title>
<g id="a_Node000012"><a xlink:href="fe__expr__basis_8hpp.html" target="_top" xlink:title=" ">
<polygon fill="white" stroke="#666666" points="432.88,-441.75 301.38,-441.75 301.38,-388.75 432.88,-388.75 432.88,-441.75"/>
<text text-anchor="start" x="309.38" y="-428.25" font-family="Helvetica,sans-Serif" font-size="10.00">/Users/ilariomazzieri</text>
<text text-anchor="start" x="309.38" y="-417" font-family="Helvetica,sans-Serif" font-size="10.00">/Desktop/vulpes/vulpes</text>
<text text-anchor="start" x="309.38" y="-405.75" font-family="Helvetica,sans-Serif" font-size="10.00">/fe/fe_expressions/fe_expr</text>
<text text-anchor="middle" x="367.12" y="-394.5" font-family="Helvetica,sans-Serif" font-size="10.00">_basis.hpp</text>
</a>
</g>
</g>
<!-- Node9&#45;&gt;Node12 -->
<g id="edge17_Node000009_Node000012" class="edge">
<title>Node9&#45;&gt;Node12</title>
<g id="a_edge17_Node000009_Node000012"><a xlink:title=" ">
<path fill="none" stroke="#63b8ff" d="M412.75,-469.18C404.96,-460.13 396.67,-450.52 389.32,-442"/>
<polygon fill="#63b8ff" stroke="#63b8ff" points="409.86,-471.18 419.04,-476.47 415.16,-466.61 409.86,-471.18"/>
</a>
</g>
</g>
<!-- Node13 -->
<g id="Node000013" class="node">
<title>Node13</title>
<g id="a_Node000013"><a xlink:href="fe__expr__func_8hpp.html" target="_top" xlink:title=" ">
<polygon fill="white" stroke="#666666" points="582.88,-441.75 451.38,-441.75 451.38,-388.75 582.88,-388.75 582.88,-441.75"/>
<text text-anchor="start" x="459.38" y="-428.25" font-family="Helvetica,sans-Serif" font-size="10.00">/Users/ilariomazzieri</text>
<text text-anchor="start" x="459.38" y="-417" font-family="Helvetica,sans-Serif" font-size="10.00">/Desktop/vulpes/vulpes</text>
<text text-anchor="start" x="459.38" y="-405.75" font-family="Helvetica,sans-Serif" font-size="10.00">/fe/fe_expressions/fe_expr</text>
<text text-anchor="middle" x="517.12" y="-394.5" font-family="Helvetica,sans-Serif" font-size="10.00">_func.hpp</text>
</a>
</g>
</g>
<!-- Node9&#45;&gt;Node13 -->
<g id="edge19_Node000009_Node000013" class="edge">
<title>Node9&#45;&gt;Node13</title>
<g id="a_edge19_Node000009_Node000013"><a xlink:title=" ">
<path fill="none" stroke="#63b8ff" d="M471.5,-469.18C479.29,-460.13 487.58,-450.52 494.93,-442"/>
<polygon fill="#63b8ff" stroke="#63b8ff" points="469.09,-466.61 465.21,-476.47 474.39,-471.18 469.09,-466.61"/>
</a>
</g>
</g>
<!-- Node14 -->
<g id="Node000014" class="node">
<title>Node14</title>
<g id="a_Node000014"><a xlink:href="fe__expr__op_8hpp.html" target="_top" xlink:title=" ">
<polygon fill="white" stroke="#666666" points="767.12,-436.12 601.12,-436.12 601.12,-394.38 767.12,-394.38 767.12,-436.12"/>
<text text-anchor="start" x="609.12" y="-422.62" font-family="Helvetica,sans-Serif" font-size="10.00">/Users/ilariomazzieri</text>
<text text-anchor="start" x="609.12" y="-411.38" font-family="Helvetica,sans-Serif" font-size="10.00">/Desktop/vulpes/vulpes</text>
<text text-anchor="middle" x="684.12" y="-400.12" font-family="Helvetica,sans-Serif" font-size="10.00">/fe/fe_expressions/fe_expr_op.hpp</text>
</a>
</g>
</g>
<!-- Node9&#45;&gt;Node14 -->
<g id="edge21_Node000009_Node000014" class="edge">
<title>Node9&#45;&gt;Node14</title>
<g id="a_edge21_Node000009_Node000014"><a xlink:title=" ">
<path fill="none" stroke="#63b8ff" d="M518.98,-475.62C554.19,-462.96 595.19,-448.22 627.52,-436.6"/>
<polygon fill="#63b8ff" stroke="#63b8ff" points="517.9,-472.29 509.68,-478.96 520.27,-478.88 517.9,-472.29"/>
</a>
</g>
</g>
<!-- Node15 -->
<g id="Node000015" class="node">
<title>Node15</title>
<g id="a_Node000015"><a xlink:href="fe__expr__unary_8hpp.html" target="_top" xlink:title=" ">
<polygon fill="white" stroke="#666666" points="916.88,-441.75 785.38,-441.75 785.38,-388.75 916.88,-388.75 916.88,-441.75"/>
<text text-anchor="start" x="793.38" y="-428.25" font-family="Helvetica,sans-Serif" font-size="10.00">/Users/ilariomazzieri</text>
<text text-anchor="start" x="793.38" y="-417" font-family="Helvetica,sans-Serif" font-size="10.00">/Desktop/vulpes/vulpes</text>
<text text-anchor="start" x="793.38" y="-405.75" font-family="Helvetica,sans-Serif" font-size="10.00">/fe/fe_expressions/fe_expr</text>
<text text-anchor="middle" x="851.12" y="-394.5" font-family="Helvetica,sans-Serif" font-size="10.00">_unary.hpp</text>
</a>
</g>
</g>
<!-- Node9&#45;&gt;Node15 -->
<g id="edge23_Node000009_Node000015" class="edge">
<title>Node9&#45;&gt;Node15</title>
<g id="a_edge23_Node000009_Node000015"><a xlink:title=" ">
<path fill="none" stroke="#63b8ff" d="M519.4,-492.29C587.55,-481.86 689.24,-464.39 776.12,-441.75 779.05,-440.99 782.03,-440.17 785.03,-439.31"/>
<polygon fill="#63b8ff" stroke="#63b8ff" points="519.2,-488.78 509.84,-493.74 520.25,-495.7 519.2,-488.78"/>
</a>
</g>
</g>
<!-- Node10&#45;&gt;Node2 -->
<g id="edge13_Node000010_Node000002" class="edge">
<title>Node10&#45;&gt;Node2</title>
<g id="a_edge13_Node000010_Node000002"><a xlink:title=" ">
<path fill="none" stroke="#63b8ff" d="M519.47,-299.37C524.18,-236.05 534.69,-94.91 538.61,-42.22"/>
<polygon fill="#63b8ff" stroke="#63b8ff" points="516,-298.86 518.75,-309.09 522.98,-299.38 516,-298.86"/>
</a>
</g>
</g>
<!-- Node10&#45;&gt;Node3 -->
<g id="edge14_Node000010_Node000003" class="edge">
<title>Node10&#45;&gt;Node3</title>
<g id="a_edge14_Node000010_Node000003"><a xlink:title=" ">
<path fill="none" stroke="#63b8ff" d="M483.81,-303.79C457.59,-283.14 419.67,-254.69 384.12,-233.25 362.36,-220.12 337.06,-207.56 315.74,-197.68"/>
<polygon fill="#63b8ff" stroke="#63b8ff" points="481.38,-306.33 491.38,-309.81 485.73,-300.85 481.38,-306.33"/>
</a>
</g>
</g>
<!-- Node10&#45;&gt;Node8 -->
<g id="edge15_Node000010_Node000008" class="edge">
<title>Node10&#45;&gt;Node8</title>
<g id="a_edge15_Node000010_Node000008"><a xlink:title=" ">
<path fill="none" stroke="#63b8ff" d="M448.14,-306.79C419.27,-296.71 386.07,-285.13 358.44,-275.48"/>
<polygon fill="#63b8ff" stroke="#63b8ff" points="446.95,-310.09 457.54,-310.08 449.26,-303.48 446.95,-310.09"/>
</a>
</g>
</g>
<!-- Node11 -->
<g id="Node000011" class="node">
<title>Node11</title>
<g id="a_Node000011"><a xlink:href="fe__vem_8hpp.html" target="_top" xlink:title=" ">
<polygon fill="white" stroke="#666666" points="697.75,-275 568.5,-275 568.5,-233.25 697.75,-233.25 697.75,-275"/>
<text text-anchor="start" x="576.5" y="-261.5" font-family="Helvetica,sans-Serif" font-size="10.00">/Users/ilariomazzieri</text>
<text text-anchor="start" x="576.5" y="-250.25" font-family="Helvetica,sans-Serif" font-size="10.00">/Desktop/vulpes/vulpes</text>
<text text-anchor="middle" x="633.12" y="-239" font-family="Helvetica,sans-Serif" font-size="10.00">/fe/fe_spaces/fe_vem.hpp</text>
</a>
</g>
</g>
<!-- Node10&#45;&gt;Node11 -->
<g id="edge16_Node000010_Node000011" class="edge">
<title>Node10&#45;&gt;Node11</title>
<g id="a_edge16_Node000010_Node000011"><a xlink:title=" ">
<path fill="none" stroke="#63b8ff" d="M557.51,-304.51C572.08,-294.99 588.29,-284.4 601.95,-275.48"/>
<polygon fill="#63b8ff" stroke="#63b8ff" points="555.94,-301.35 549.48,-309.75 559.76,-307.21 555.94,-301.35"/>
</a>
</g>
</g>
<!-- Node12&#45;&gt;Node10 -->
<g id="edge18_Node000012_Node000010" class="edge">
<title>Node12&#45;&gt;Node10</title>
<g id="a_edge18_Node000012_Node000010"><a xlink:title=" ">
<path fill="none" stroke="#63b8ff" d="M425.01,-382.85C443.36,-372.89 463.15,-362.16 479.67,-353.19"/>
<polygon fill="#63b8ff" stroke="#63b8ff" points="423.45,-379.71 416.33,-387.56 426.79,-385.86 423.45,-379.71"/>
</a>
</g>
</g>
<!-- Node13&#45;&gt;Node10 -->
<g id="edge20_Node000013_Node000010" class="edge">
<title>Node13&#45;&gt;Node10</title>
<g id="a_edge20_Node000013_Node000010"><a xlink:title=" ">
<path fill="none" stroke="#63b8ff" d="M517.12,-377.08C517.12,-368.8 517.12,-360.33 517.12,-353.04"/>
<polygon fill="#63b8ff" stroke="#63b8ff" points="513.63,-376.99 517.13,-386.99 520.63,-376.99 513.63,-376.99"/>
</a>
</g>
</g>
<!-- Node14&#45;&gt;Node10 -->
<g id="edge22_Node000014_Node000010" class="edge">
<title>Node14&#45;&gt;Node10</title>
<g id="a_edge22_Node000014_Node000010"><a xlink:title=" ">
<path fill="none" stroke="#63b8ff" d="M632.23,-388.96C608.64,-377.47 581.11,-364.05 558.88,-353.22"/>
<polygon fill="#63b8ff" stroke="#63b8ff" points="630.53,-392.03 641.05,-393.26 633.6,-385.74 630.53,-392.03"/>
</a>
</g>
</g>
<!-- Node15&#45;&gt;Node10 -->
<g id="edge24_Node000015_Node000010" class="edge">
<title>Node15&#45;&gt;Node10</title>
<g id="a_edge24_Node000015_Node000010"><a xlink:title=" ">
<path fill="none" stroke="#63b8ff" d="M774.23,-388.35C701.17,-368.52 627.07,-353.31 576.75,-343.71"/>
<polygon fill="#63b8ff" stroke="#63b8ff" points="772.97,-391.63 783.54,-390.91 774.83,-384.88 772.97,-391.63"/>
</a>
</g>
</g>
</g>
</svg>

<g id="navigator" transform="translate(0 0)" fill="#404254">
  <rect fill="#f2f5e9" fill-opacity="0.5" stroke="#606060" stroke-width=".5" x="0" y="0" width="60" height="60"/>
  <use id="zoomplus" xlink:href="#zoomPlus" x="17" y="9" onmousedown="handleZoom(evt,'in')"/>
  <use id="zoomminus" xlink:href="#zoomMin" x="42" y="9" onmousedown="handleZoom(evt,'out')"/>
  <use id="reset" xlink:href="#resetDef" x="30" y="36" onmousedown="handleReset()"/>
   <use id="arrowup" xlink:href="#arrowUp" x="0" y="0" onmousedown="handlePan(0,-1)"/>
  <use id="arrowright" xlink:href="#arrowRight" x="0" y="0" onmousedown="handlePan(1,0)"/>
  <use id="arrowdown" xlink:href="#arrowDown" x="0" y="0" onmousedown="handlePan(0,1)"/>
  <use id="arrowleft" xlink:href="#arrowLeft" x="0" y="0" onmousedown="handlePan(-1,0)"/>
</g>
<svg viewBox="0 0 15 15" width="100%" height="30px" preserveAspectRatio="xMaxYMin meet">
 <g id="arrow_out" transform="scale(0.3 0.3)">
  <a xlink:href="fe__values_8hpp__dep__incl_org.svg" target="_base">
   <rect id="button" ry="5" rx="5" y="6" x="6" height="38" width="38"
        fill="#f2f5e9" fill-opacity="0.5" stroke="#606060" stroke-width="1.0"/>
   <path id="arrow"
     d="M 11.500037,31.436501 C 11.940474,20.09759 22.043105,11.32322 32.158766,21.979434 L 37.068811,17.246167 C 37.068811,17.246167 37.088388,32 37.088388,32 L 22.160133,31.978069 C 22.160133,31.978069 26.997745,27.140456 26.997745,27.140456 C 18.528582,18.264221 13.291696,25.230495 11.500037,31.436501 z"
     style="fill:#404040;"/>
  </a>
 </g>
</svg>

<style type='text/css'>
<![CDATA[
[data-mouse-over-selected='false'] { opacity: 0.7; }
[data-mouse-over-selected='true']  { opacity: 1.0; }
]]>
</style>
<script type="application/ecmascript"><![CDATA[
document.addEventListener('DOMContentLoaded', (event) => {
  highlightEdges();
  highlightAdjacentNodes();
});
]]></script>
</svg>
