<?xml version="1.0" encoding="UTF-8" standalone="no"?>
<!DOCTYPE svg PUBLIC "-//W3C//DTD SVG 1.1//EN"
 "http://www.w3.org/Graphics/SVG/1.1/DTD/svg11.dtd">
<!-- Generated by graphviz version 12.2.1 (20241206.2353)
 -->
<!-- Title: /Users/ilariomazzieri/Desktop/vulpes/vulpes/fe/fe_space.hpp Pages: 1 -->
<!--zoomable 795 -->

<svg id="main" version="1.1" xmlns="http://www.w3.org/2000/svg" xmlns:xlink="http://www.w3.org/1999/xlink" xml:space="preserve" onload="init(evt)">
<style type="text/css"><![CDATA[
.node, .edge {opacity: 0.7;}
.node.selected, .edge.selected {opacity: 1;}
.edge:hover path { stroke: red; }
.edge:hover polygon { stroke: red; fill: red; }
]]></style>

<defs>
  <circle id="rim" cx="0" cy="0" r="7"/>
  <circle id="rim2" cx="0" cy="0" r="3.5"/>
  <g id="zoomPlus">
    <use xlink:href="#rim" fill="#404040"><set attributeName="fill" to="#808080" begin="zoomplus.mouseover" end="zoomplus.mouseout"/></use>
    <path d="M-4,0h8M0,-4v8" fill="none" stroke="white" stroke-width="1.5" pointer-events="none"/>
  </g>
  <g id="zoomMin">
    <use xlink:href="#rim" fill="#404040"><set attributeName="fill" to="#808080" begin="zoomminus.mouseover" end="zoomminus.mouseout"/></use>
    <path d="M-4,0h8" fill="none" stroke="white" stroke-width="1.5" pointer-events="none"/>
  </g>
  <g id="arrowUp" transform="translate(30 24)">
    <use xlink:href="#rim"/>
    <path pointer-events="none" fill="none" stroke="white" stroke-width="1.5" d="M0,-3.0v7 M-2.5,-0.5L0,-3.0L2.5,-0.5"/>
  </g>
  <g id="arrowRight" transform="rotate(90) translate(36 -43)">
    <use xlink:href="#rim"/>
    <path pointer-events="none" fill="none" stroke="white" stroke-width="1.5" d="M0,-3.0v7 M-2.5,-0.5L0,-3.0L2.5,-0.5"/>
  </g>
  <g id="arrowDown" transform="rotate(180) translate(-30 -48)">
    <use xlink:href="#rim"/>
    <path pointer-events="none" fill="none" stroke="white" stroke-width="1.5" d="M0,-3.0v7 M-2.5,-0.5L0,-3.0L2.5,-0.5"/>
  </g>
  <g id="arrowLeft" transform="rotate(270) translate(-36 17)">
    <use xlink:href="#rim"/>
    <path pointer-events="none" fill="none" stroke="white" stroke-width="1.5" d="M0,-3.0v7 M-2.5,-0.5L0,-3.0L2.5,-0.5"/>
  </g>
  <g id="resetDef">
    <use xlink:href="#rim2" fill="#404040"><set attributeName="fill" to="#808080" begin="reset.mouseover" end="reset.mouseout"/></use>
  </g>
</defs>
<script type="application/ecmascript">
var viewWidth = 1529;
var viewHeight = 795;
var sectionId = 'dynsection-1';
</script>
<script type="application/ecmascript" xlink:href="svg.min.js"/>
<svg id="graph" class="graph">
<g id="viewport">
<title>/Users/ilariomazzieri/Desktop/vulpes/vulpes/fe/fe_space.hpp</title>
<!-- Node1 -->
<g id="Node000001" class="node">
<title>Node1</title>
<g id="a_Node000001"><a xlink:title=" ">
<polygon fill="#999999" stroke="#666666" points="965.5,-786.5 846.75,-786.5 846.75,-744.75 965.5,-744.75 965.5,-786.5"/>
<text text-anchor="start" x="854.75" y="-773" font-family="Helvetica,sans-Serif" font-size="10.00">/Users/ilariomazzieri</text>
<text text-anchor="start" x="854.75" y="-761.75" font-family="Helvetica,sans-Serif" font-size="10.00">/Desktop/vulpes/vulpes</text>
<text text-anchor="middle" x="906.12" y="-750.5" font-family="Helvetica,sans-Serif" font-size="10.00">/fe/fe_space.hpp</text>
</a>
</g>
</g>
<!-- Node2 -->
<g id="Node000002" class="node">
<title>Node2</title>
<g id="a_Node000002"><a xlink:href="integrator__gauss_8hpp.html" target="_top" xlink:title=" ">
<polygon fill="white" stroke="#666666" points="323.5,-119.5 168.75,-119.5 168.75,-77.75 323.5,-77.75 323.5,-119.5"/>
<text text-anchor="start" x="176.75" y="-106" font-family="Helvetica,sans-Serif" font-size="10.00">/Users/ilariomazzieri</text>
<text text-anchor="start" x="176.75" y="-94.75" font-family="Helvetica,sans-Serif" font-size="10.00">/Desktop/vulpes/vulpes</text>
<text text-anchor="middle" x="246.12" y="-83.5" font-family="Helvetica,sans-Serif" font-size="10.00">/assemble/integrator_gauss.hpp</text>
</a>
</g>
</g>
<!-- Node1&#45;&gt;Node2 -->
<g id="edge1_Node000001_Node000002" class="edge">
<title>Node1&#45;&gt;Node2</title>
<g id="a_edge1_Node000001_Node000002"><a xlink:title=" ">
<path fill="none" stroke="#63b8ff" d="M835.13,-765.47C685.14,-766.18 341.37,-761.76 239.12,-708.75 180.17,-678.18 143.12,-660.66 143.12,-594.25 143.12,-594.25 143.12,-594.25 143.12,-253.12 143.12,-208.92 137.6,-192.28 162.12,-155.5 172.04,-140.64 187.38,-128.75 202.26,-119.82"/>
<polygon fill="#63b8ff" stroke="#63b8ff" points="834.96,-768.97 844.94,-765.42 834.92,-761.97 834.96,-768.97"/>
</a>
</g>
</g>
<!-- Node3 -->
<g id="Node000003" class="node">
<title>Node3</title>
<g id="a_Node000003"><a xlink:href="integrator__qfree_8hpp.html" target="_top" xlink:title=" ">
<polygon fill="white" stroke="#666666" points="150.25,-119.5 0,-119.5 0,-77.75 150.25,-77.75 150.25,-119.5"/>
<text text-anchor="start" x="8" y="-106" font-family="Helvetica,sans-Serif" font-size="10.00">/Users/ilariomazzieri</text>
<text text-anchor="start" x="8" y="-94.75" font-family="Helvetica,sans-Serif" font-size="10.00">/Desktop/vulpes/vulpes</text>
<text text-anchor="middle" x="75.12" y="-83.5" font-family="Helvetica,sans-Serif" font-size="10.00">/assemble/integrator_qfree.hpp</text>
</a>
</g>
</g>
<!-- Node1&#45;&gt;Node3 -->
<g id="edge2_Node000001_Node000003" class="edge">
<title>Node1&#45;&gt;Node3</title>
<g id="a_edge2_Node000001_Node000003"><a xlink:title=" ">
<path fill="none" stroke="#63b8ff" d="M834.96,-763.05C659.03,-758.64 213.76,-744.09 157.12,-708.75 107.1,-677.54 90.12,-653.21 90.12,-594.25 90.12,-594.25 90.12,-594.25 90.12,-253.12 90.12,-205.2 82.79,-149.25 78.38,-119.92"/>
<polygon fill="#63b8ff" stroke="#63b8ff" points="834.81,-766.55 844.89,-763.3 834.98,-759.55 834.81,-766.55"/>
</a>
</g>
</g>
<!-- Node5 -->
<g id="Node000005" class="node">
<title>Node5</title>
<g id="a_Node000005"><a xlink:href="integrator__simplexify_8hpp.html" target="_top" xlink:title=" ">
<polygon fill="white" stroke="#666666" points="512.75,-119.5 341.5,-119.5 341.5,-77.75 512.75,-77.75 512.75,-119.5"/>
<text text-anchor="start" x="349.5" y="-106" font-family="Helvetica,sans-Serif" font-size="10.00">/Users/ilariomazzieri</text>
<text text-anchor="start" x="349.5" y="-94.75" font-family="Helvetica,sans-Serif" font-size="10.00">/Desktop/vulpes/vulpes</text>
<text text-anchor="middle" x="427.12" y="-83.5" font-family="Helvetica,sans-Serif" font-size="10.00">/assemble/integrator_simplexify.hpp</text>
</a>
</g>
</g>
<!-- Node1&#45;&gt;Node5 -->
<g id="edge4_Node000001_Node000005" class="edge">
<title>Node1&#45;&gt;Node5</title>
<g id="a_edge4_Node000001_Node000005"><a xlink:title=" ">
<path fill="none" stroke="#63b8ff" d="M834.87,-762.63C654.51,-755.67 194.12,-725.07 194.12,-594.25 194.12,-594.25 194.12,-594.25 194.12,-503.25 194.12,-376.04 217.9,-338.65 289.12,-233.25 302.7,-213.16 312.46,-213.86 330.12,-197.25 357.8,-171.23 388.52,-139.87 407.82,-119.84"/>
<polygon fill="#63b8ff" stroke="#63b8ff" points="834.7,-766.13 844.83,-763 834.96,-759.13 834.7,-766.13"/>
</a>
</g>
</g>
<!-- Node7 -->
<g id="Node000007" class="node">
<title>Node7</title>
<g id="a_Node000007"><a xlink:href="dof__handler_8hpp.html" target="_top" xlink:title=" ">
<polygon fill="white" stroke="#666666" points="1052.5,-703.12 933.75,-703.12 933.75,-661.38 1052.5,-661.38 1052.5,-703.12"/>
<text text-anchor="start" x="941.75" y="-689.62" font-family="Helvetica,sans-Serif" font-size="10.00">/Users/ilariomazzieri</text>
<text text-anchor="start" x="941.75" y="-678.38" font-family="Helvetica,sans-Serif" font-size="10.00">/Desktop/vulpes/vulpes</text>
<text text-anchor="middle" x="993.12" y="-667.12" font-family="Helvetica,sans-Serif" font-size="10.00">/dofs/dof_handler.hpp</text>
</a>
</g>
</g>
<!-- Node1&#45;&gt;Node7 -->
<g id="edge7_Node000001_Node000007" class="edge">
<title>Node1&#45;&gt;Node7</title>
<g id="a_edge7_Node000001_Node000007"><a xlink:title=" ">
<path fill="none" stroke="#63b8ff" d="M935.85,-736.82C947.57,-725.86 960.79,-713.5 971.57,-703.42"/>
<polygon fill="#63b8ff" stroke="#63b8ff" points="933.65,-734.09 928.74,-743.48 938.43,-739.2 933.65,-734.09"/>
</a>
</g>
</g>
<!-- Node9 -->
<g id="Node000009" class="node">
<title>Node9</title>
<g id="a_Node000009"><a xlink:href="fe__expr__base_8hpp.html" target="_top" xlink:title=" ">
<polygon fill="white" stroke="#666666" points="655.88,-619.75 524.38,-619.75 524.38,-566.75 655.88,-566.75 655.88,-619.75"/>
<text text-anchor="start" x="532.38" y="-606.25" font-family="Helvetica,sans-Serif" font-size="10.00">/Users/ilariomazzieri</text>
<text text-anchor="start" x="532.38" y="-595" font-family="Helvetica,sans-Serif" font-size="10.00">/Desktop/vulpes/vulpes</text>
<text text-anchor="start" x="532.38" y="-583.75" font-family="Helvetica,sans-Serif" font-size="10.00">/fe/fe_expressions/fe_expr</text>
<text text-anchor="middle" x="590.12" y="-572.5" font-family="Helvetica,sans-Serif" font-size="10.00">_base.hpp</text>
</a>
</g>
</g>
<!-- Node1&#45;&gt;Node9 -->
<g id="edge10_Node000001_Node000009" class="edge">
<title>Node1&#45;&gt;Node9</title>
<g id="a_edge10_Node000001_Node000009"><a xlink:title=" ">
<path fill="none" stroke="#63b8ff" d="M858.75,-739.08C799.3,-707.03 697.88,-652.35 638.13,-620.13"/>
<polygon fill="#63b8ff" stroke="#63b8ff" points="856.84,-742.03 867.3,-743.69 860.16,-735.87 856.84,-742.03"/>
</a>
</g>
</g>
<!-- Node13 -->
<g id="Node000013" class="node">
<title>Node13</title>
<g id="a_Node000013"><a xlink:href="fe__vem_8hpp.html" target="_top" xlink:title=" ">
<polygon fill="white" stroke="#666666" points="873.75,-275 744.5,-275 744.5,-233.25 873.75,-233.25 873.75,-275"/>
<text text-anchor="start" x="752.5" y="-261.5" font-family="Helvetica,sans-Serif" font-size="10.00">/Users/ilariomazzieri</text>
<text text-anchor="start" x="752.5" y="-250.25" font-family="Helvetica,sans-Serif" font-size="10.00">/Desktop/vulpes/vulpes</text>
<text text-anchor="middle" x="809.12" y="-239" font-family="Helvetica,sans-Serif" font-size="10.00">/fe/fe_spaces/fe_vem.hpp</text>
</a>
</g>
</g>
<!-- Node1&#45;&gt;Node13 -->
<g id="edge39_Node000001_Node000013" class="edge">
<title>Node1&#45;&gt;Node13</title>
<g id="a_edge39_Node000001_Node000013"><a xlink:title=" ">
<path fill="none" stroke="#63b8ff" d="M906.12,-733.32C906.12,-699.14 906.12,-642.8 906.12,-594.25 906.12,-594.25 906.12,-594.25 906.12,-414.25 906.12,-357.31 860.28,-303.45 831.62,-275.35"/>
<polygon fill="#63b8ff" stroke="#63b8ff" points="902.63,-732.92 906.13,-742.92 909.63,-732.92 902.63,-732.92"/>
</a>
</g>
</g>
<!-- Node19 -->
<g id="Node000019" class="node">
<title>Node19</title>
<g id="a_Node000019"><a xlink:href="fe__lagrange__simplex_8hpp.html" target="_top" xlink:title=" ">
<polygon fill="white" stroke="#666666" points="1236.38,-708.75 1107.88,-708.75 1107.88,-655.75 1236.38,-655.75 1236.38,-708.75"/>
<text text-anchor="start" x="1115.88" y="-695.25" font-family="Helvetica,sans-Serif" font-size="10.00">/Users/ilariomazzieri</text>
<text text-anchor="start" x="1115.88" y="-684" font-family="Helvetica,sans-Serif" font-size="10.00">/Desktop/vulpes/vulpes</text>
<text text-anchor="start" x="1115.88" y="-672.75" font-family="Helvetica,sans-Serif" font-size="10.00">/fe/fe_spaces/fe_lagrange</text>
<text text-anchor="middle" x="1172.12" y="-661.5" font-family="Helvetica,sans-Serif" font-size="10.00">_simplex.hpp</text>
</a>
</g>
</g>
<!-- Node1&#45;&gt;Node19 -->
<g id="edge32_Node000001_Node000019" class="edge">
<title>Node1&#45;&gt;Node19</title>
<g id="a_edge32_Node000001_Node000019"><a xlink:title=" ">
<path fill="none" stroke="#63b8ff" d="M976.64,-744.16C1011.98,-733.78 1055.39,-720.84 1094.12,-708.75 1098.48,-707.39 1102.96,-705.98 1107.47,-704.54"/>
<polygon fill="#63b8ff" stroke="#63b8ff" points="976.01,-740.7 967.39,-746.87 977.98,-747.41 976.01,-740.7"/>
</a>
</g>
</g>
<!-- Node21 -->
<g id="Node000021" class="node">
<title>Node21</title>
<g id="a_Node000021"><a xlink:href="fe__lagrange__tensor_8hpp.html" target="_top" xlink:title=" ">
<polygon fill="white" stroke="#666666" points="1236.38,-619.75 1107.88,-619.75 1107.88,-566.75 1236.38,-566.75 1236.38,-619.75"/>
<text text-anchor="start" x="1115.88" y="-606.25" font-family="Helvetica,sans-Serif" font-size="10.00">/Users/ilariomazzieri</text>
<text text-anchor="start" x="1115.88" y="-595" font-family="Helvetica,sans-Serif" font-size="10.00">/Desktop/vulpes/vulpes</text>
<text text-anchor="start" x="1115.88" y="-583.75" font-family="Helvetica,sans-Serif" font-size="10.00">/fe/fe_spaces/fe_lagrange</text>
<text text-anchor="middle" x="1172.12" y="-572.5" font-family="Helvetica,sans-Serif" font-size="10.00">_tensor.hpp</text>
</a>
</g>
</g>
<!-- Node1&#45;&gt;Node21 -->
<g id="edge36_Node000001_Node000021" class="edge">
<title>Node1&#45;&gt;Node21</title>
<g id="a_edge36_Node000001_Node000021"><a xlink:title=" ">
<path fill="none" stroke="#63b8ff" d="M976.82,-748.91C1004.96,-740.27 1036.45,-727.41 1061.12,-708.75 1084.25,-691.27 1079.45,-677.03 1099.12,-655.75 1110.83,-643.1 1125.07,-630.57 1137.86,-620.17"/>
<polygon fill="#63b8ff" stroke="#63b8ff" points="975.88,-745.54 967.27,-751.7 977.85,-752.26 975.88,-745.54"/>
</a>
</g>
</g>
<!-- Node22 -->
<g id="Node000022" class="node">
<title>Node22</title>
<g id="a_Node000022"><a xlink:href="fe__modal__simplex_8hpp.html" target="_top" xlink:title=" ">
<polygon fill="white" stroke="#666666" points="1520.5,-619.75 1401.75,-619.75 1401.75,-566.75 1520.5,-566.75 1520.5,-619.75"/>
<text text-anchor="start" x="1409.75" y="-606.25" font-family="Helvetica,sans-Serif" font-size="10.00">/Users/ilariomazzieri</text>
<text text-anchor="start" x="1409.75" y="-595" font-family="Helvetica,sans-Serif" font-size="10.00">/Desktop/vulpes/vulpes</text>
<text text-anchor="start" x="1409.75" y="-583.75" font-family="Helvetica,sans-Serif" font-size="10.00">/fe/fe_spaces/fe_modal</text>
<text text-anchor="middle" x="1461.12" y="-572.5" font-family="Helvetica,sans-Serif" font-size="10.00">_simplex.hpp</text>
</a>
</g>
</g>
<!-- Node1&#45;&gt;Node22 -->
<g id="edge37_Node000001_Node000022" class="edge">
<title>Node1&#45;&gt;Node22</title>
<g id="a_edge37_Node000001_Node000022"><a xlink:title=" ">
<path fill="none" stroke="#63b8ff" d="M977.2,-759.31C1063.08,-751.79 1201.49,-735.87 1245.12,-708.75 1269.74,-693.45 1259.77,-672.92 1283.12,-655.75 1324.23,-625.53 1343.97,-636.6 1392.12,-619.75 1395.14,-618.7 1398.22,-617.6 1401.33,-616.49"/>
<polygon fill="#63b8ff" stroke="#63b8ff" points="977.14,-755.8 967.47,-760.14 977.73,-762.77 977.14,-755.8"/>
</a>
</g>
</g>
<!-- Node23 -->
<g id="Node000023" class="node">
<title>Node23</title>
<g id="a_Node000023"><a xlink:href="fe__modal__tensor_8hpp.html" target="_top" xlink:title=" ">
<polygon fill="white" stroke="#666666" points="1410.5,-708.75 1291.75,-708.75 1291.75,-655.75 1410.5,-655.75 1410.5,-708.75"/>
<text text-anchor="start" x="1299.75" y="-695.25" font-family="Helvetica,sans-Serif" font-size="10.00">/Users/ilariomazzieri</text>
<text text-anchor="start" x="1299.75" y="-684" font-family="Helvetica,sans-Serif" font-size="10.00">/Desktop/vulpes/vulpes</text>
<text text-anchor="start" x="1299.75" y="-672.75" font-family="Helvetica,sans-Serif" font-size="10.00">/fe/fe_spaces/fe_modal</text>
<text text-anchor="middle" x="1351.12" y="-661.5" font-family="Helvetica,sans-Serif" font-size="10.00">_tensor.hpp</text>
</a>
</g>
</g>
<!-- Node1&#45;&gt;Node23 -->
<g id="edge38_Node000001_Node000023" class="edge">
<title>Node1&#45;&gt;Node23</title>
<g id="a_edge38_Node000001_Node000023"><a xlink:title=" ">
<path fill="none" stroke="#63b8ff" d="M976.98,-757.97C1052.4,-749.96 1174.86,-734.3 1278.12,-708.75 1282.56,-707.65 1287.1,-706.4 1291.64,-705.05"/>
<polygon fill="#63b8ff" stroke="#63b8ff" points="976.83,-754.46 967.25,-758.98 977.56,-761.43 976.83,-754.46"/>
</a>
</g>
</g>
<!-- Node24 -->
<g id="Node000024" class="node">
<title>Node24</title>
<g id="a_Node000024"><a xlink:href="fe__values_8hpp.html" target="_top" xlink:title=" ">
<polygon fill="white" stroke="#666666" points="649.5,-703.12 530.75,-703.12 530.75,-661.38 649.5,-661.38 649.5,-703.12"/>
<text text-anchor="start" x="538.75" y="-689.62" font-family="Helvetica,sans-Serif" font-size="10.00">/Users/ilariomazzieri</text>
<text text-anchor="start" x="538.75" y="-678.38" font-family="Helvetica,sans-Serif" font-size="10.00">/Desktop/vulpes/vulpes</text>
<text text-anchor="middle" x="590.12" y="-667.12" font-family="Helvetica,sans-Serif" font-size="10.00">/fe/fe_values.hpp</text>
</a>
</g>
</g>
<!-- Node1&#45;&gt;Node24 -->
<g id="edge40_Node000001_Node000024" class="edge">
<title>Node1&#45;&gt;Node24</title>
<g id="a_edge40_Node000001_Node000024"><a xlink:title=" ">
<path fill="none" stroke="#63b8ff" d="M835.46,-746.43C779.68,-732.06 702.72,-712.25 649.96,-698.66"/>
<polygon fill="#63b8ff" stroke="#63b8ff" points="834.29,-749.74 844.85,-748.85 836.04,-742.96 834.29,-749.74"/>
</a>
</g>
</g>
<!-- Node4 -->
<g id="Node000004" class="node">
<title>Node4</title>
<g id="a_Node000004"><a xlink:href="integrator__vem_8hpp.html" target="_top" xlink:title=" ">
<polygon fill="white" stroke="#666666" points="324.75,-41.75 177.5,-41.75 177.5,0 324.75,0 324.75,-41.75"/>
<text text-anchor="start" x="185.5" y="-28.25" font-family="Helvetica,sans-Serif" font-size="10.00">/Users/ilariomazzieri</text>
<text text-anchor="start" x="185.5" y="-17" font-family="Helvetica,sans-Serif" font-size="10.00">/Desktop/vulpes/vulpes</text>
<text text-anchor="middle" x="251.12" y="-5.75" font-family="Helvetica,sans-Serif" font-size="10.00">/assemble/integrator_vem.hpp</text>
</a>
</g>
</g>
<!-- Node3&#45;&gt;Node4 -->
<g id="edge3_Node000003_Node000004" class="edge">
<title>Node3&#45;&gt;Node4</title>
<g id="a_edge3_Node000003_Node000004"><a xlink:title=" ">
<path fill="none" stroke="#63b8ff" d="M132.63,-72.88C155.68,-62.95 181.91,-51.66 203.83,-42.23"/>
<polygon fill="#63b8ff" stroke="#63b8ff" points="131.48,-69.56 123.68,-76.73 134.25,-75.99 131.48,-69.56"/>
</a>
</g>
</g>
<!-- Node5&#45;&gt;Node4 -->
<g id="edge6_Node000005_Node000004" class="edge">
<title>Node5&#45;&gt;Node4</title>
<g id="a_edge6_Node000005_Node000004"><a xlink:title=" ">
<path fill="none" stroke="#63b8ff" d="M369.62,-72.88C346.57,-62.95 320.34,-51.66 298.42,-42.23"/>
<polygon fill="#63b8ff" stroke="#63b8ff" points="368,-75.99 378.57,-76.73 370.77,-69.56 368,-75.99"/>
</a>
</g>
</g>
<!-- Node6 -->
<g id="Node000006" class="node">
<title>Node6</title>
<g id="a_Node000006"><a xlink:href="dg__utils_8hpp.html" target="_top" xlink:title=" ">
<polygon fill="white" stroke="#666666" points="847.5,-41.75 728.75,-41.75 728.75,0 847.5,0 847.5,-41.75"/>
<text text-anchor="start" x="736.75" y="-28.25" font-family="Helvetica,sans-Serif" font-size="10.00">/Users/ilariomazzieri</text>
<text text-anchor="start" x="736.75" y="-17" font-family="Helvetica,sans-Serif" font-size="10.00">/Desktop/vulpes/vulpes</text>
<text text-anchor="middle" x="788.12" y="-5.75" font-family="Helvetica,sans-Serif" font-size="10.00">/assemble/dg_utils.hpp</text>
</a>
</g>
</g>
<!-- Node5&#45;&gt;Node6 -->
<g id="edge5_Node000005_Node000006" class="edge">
<title>Node5&#45;&gt;Node6</title>
<g id="a_edge5_Node000005_Node000006"><a xlink:title=" ">
<path fill="none" stroke="#63b8ff" d="M524.24,-77.25C589.33,-63.59 672.96,-46.04 728.44,-34.4"/>
<polygon fill="#63b8ff" stroke="#63b8ff" points="523.68,-73.79 514.62,-79.27 525.12,-80.64 523.68,-73.79"/>
</a>
</g>
</g>
<!-- Node7&#45;&gt;Node6 -->
<g id="edge8_Node000007_Node000006" class="edge">
<title>Node7&#45;&gt;Node6</title>
<g id="a_edge8_Node000007_Node000006"><a xlink:title=" ">
<path fill="none" stroke="#63b8ff" d="M1032.33,-653.79C1043.27,-644.24 1054.08,-632.65 1061.12,-619.75 1085.86,-574.48 1080.12,-556.83 1080.12,-505.25 1080.12,-505.25 1080.12,-505.25 1080.12,-175.38 1080.12,-71.43 933.35,-37.72 847.92,-26.9"/>
<polygon fill="#63b8ff" stroke="#63b8ff" points="1030.25,-650.97 1024.77,-660.04 1034.71,-656.37 1030.25,-650.97"/>
</a>
</g>
</g>
<!-- Node8 -->
<g id="Node000008" class="node">
<title>Node8</title>
<g id="a_Node000008"><a xlink:href="project__solution_8hpp.html" target="_top" xlink:title=" ">
<polygon fill="white" stroke="#666666" points="1052.5,-619.75 933.75,-619.75 933.75,-566.75 1052.5,-566.75 1052.5,-619.75"/>
<text text-anchor="start" x="941.75" y="-606.25" font-family="Helvetica,sans-Serif" font-size="10.00">/Users/ilariomazzieri</text>
<text text-anchor="start" x="941.75" y="-595" font-family="Helvetica,sans-Serif" font-size="10.00">/Desktop/vulpes/vulpes</text>
<text text-anchor="start" x="941.75" y="-583.75" font-family="Helvetica,sans-Serif" font-size="10.00">/postprocessing/project</text>
<text text-anchor="middle" x="993.12" y="-572.5" font-family="Helvetica,sans-Serif" font-size="10.00">_solution.hpp</text>
</a>
</g>
</g>
<!-- Node7&#45;&gt;Node8 -->
<g id="edge9_Node000007_Node000008" class="edge">
<title>Node7&#45;&gt;Node8</title>
<g id="a_edge9_Node000007_Node000008"><a xlink:title=" ">
<path fill="none" stroke="#63b8ff" d="M993.12,-649.72C993.12,-639.94 993.12,-629.28 993.12,-619.94"/>
<polygon fill="#63b8ff" stroke="#63b8ff" points="989.63,-649.56 993.13,-659.56 996.63,-649.56 989.63,-649.56"/>
</a>
</g>
</g>
<!-- Node10 -->
<g id="Node000010" class="node">
<title>Node10</title>
<g id="a_Node000010"><a xlink:href="fe__expression_8hpp.html" target="_top" xlink:title=" ">
<polygon fill="white" stroke="#666666" points="602.5,-352.75 483.75,-352.75 483.75,-311 602.5,-311 602.5,-352.75"/>
<text text-anchor="start" x="491.75" y="-339.25" font-family="Helvetica,sans-Serif" font-size="10.00">/Users/ilariomazzieri</text>
<text text-anchor="start" x="491.75" y="-328" font-family="Helvetica,sans-Serif" font-size="10.00">/Desktop/vulpes/vulpes</text>
<text text-anchor="middle" x="543.12" y="-316.75" font-family="Helvetica,sans-Serif" font-size="10.00">/fe/fe_expression.hpp</text>
</a>
</g>
</g>
<!-- Node9&#45;&gt;Node10 -->
<g id="edge11_Node000009_Node000010" class="edge">
<title>Node9&#45;&gt;Node10</title>
<g id="a_edge11_Node000009_Node000010"><a xlink:title=" ">
<path fill="none" stroke="#63b8ff" d="M566.72,-557.09C548.62,-527.68 525.04,-483.88 515.12,-441.75 509.73,-418.82 509.7,-411.67 515.12,-388.75 518.07,-376.29 524.25,-363.45 530.06,-353.22"/>
<polygon fill="#63b8ff" stroke="#63b8ff" points="563.53,-558.6 571.81,-565.21 569.46,-554.88 563.53,-558.6"/>
</a>
</g>
</g>
<!-- Node14 -->
<g id="Node000014" class="node">
<title>Node14</title>
<g id="a_Node000014"><a xlink:href="fe__expr__basis_8hpp.html" target="_top" xlink:title=" ">
<polygon fill="white" stroke="#666666" points="495.88,-530.75 364.38,-530.75 364.38,-477.75 495.88,-477.75 495.88,-530.75"/>
<text text-anchor="start" x="372.38" y="-517.25" font-family="Helvetica,sans-Serif" font-size="10.00">/Users/ilariomazzieri</text>
<text text-anchor="start" x="372.38" y="-506" font-family="Helvetica,sans-Serif" font-size="10.00">/Desktop/vulpes/vulpes</text>
<text text-anchor="start" x="372.38" y="-494.75" font-family="Helvetica,sans-Serif" font-size="10.00">/fe/fe_expressions/fe_expr</text>
<text text-anchor="middle" x="430.12" y="-483.5" font-family="Helvetica,sans-Serif" font-size="10.00">_basis.hpp</text>
</a>
</g>
</g>
<!-- Node9&#45;&gt;Node14 -->
<g id="edge20_Node000009_Node000014" class="edge">
<title>Node9&#45;&gt;Node14</title>
<g id="a_edge20_Node000009_Node000014"><a xlink:title=" ">
<path fill="none" stroke="#63b8ff" d="M532.49,-560.91C514.55,-551.16 494.97,-540.51 477.79,-531.17"/>
<polygon fill="#63b8ff" stroke="#63b8ff" points="530.77,-563.96 541.22,-565.66 534.11,-557.81 530.77,-563.96"/>
</a>
</g>
</g>
<!-- Node15 -->
<g id="Node000015" class="node">
<title>Node15</title>
<g id="a_Node000015"><a xlink:href="fe__expr__vector_8hpp.html" target="_top" xlink:title="Bilinear/linear expressions for vector&#45;valued FE spaces.">
<polygon fill="white" stroke="#666666" points="429.88,-441.75 298.38,-441.75 298.38,-388.75 429.88,-388.75 429.88,-441.75"/>
<text text-anchor="start" x="306.38" y="-428.25" font-family="Helvetica,sans-Serif" font-size="10.00">/Users/ilariomazzieri</text>
<text text-anchor="start" x="306.38" y="-417" font-family="Helvetica,sans-Serif" font-size="10.00">/Desktop/vulpes/vulpes</text>
<text text-anchor="start" x="306.38" y="-405.75" font-family="Helvetica,sans-Serif" font-size="10.00">/fe/fe_expressions/fe_expr</text>
<text text-anchor="middle" x="364.12" y="-394.5" font-family="Helvetica,sans-Serif" font-size="10.00">_vector.hpp</text>
</a>
</g>
</g>
<!-- Node9&#45;&gt;Node15 -->
<g id="edge31_Node000009_Node000015" class="edge">
<title>Node9&#45;&gt;Node15</title>
<g id="a_edge31_Node000009_Node000015"><a xlink:title=" ">
<path fill="none" stroke="#63b8ff" d="M512.75,-582.26C451.97,-572.63 374.47,-555.81 355.12,-530.75 335.63,-505.5 344.02,-467.08 353.05,-441.82"/>
<polygon fill="#63b8ff" stroke="#63b8ff" points="511.97,-585.68 522.39,-583.74 513.04,-578.76 511.97,-585.68"/>
</a>
</g>
</g>
<!-- Node16 -->
<g id="Node000016" class="node">
<title>Node16</title>
<g id="a_Node000016"><a xlink:href="fe__expr__func_8hpp.html" target="_top" xlink:title=" ">
<polygon fill="white" stroke="#666666" points="655.88,-441.75 524.38,-441.75 524.38,-388.75 655.88,-388.75 655.88,-441.75"/>
<text text-anchor="start" x="532.38" y="-428.25" font-family="Helvetica,sans-Serif" font-size="10.00">/Users/ilariomazzieri</text>
<text text-anchor="start" x="532.38" y="-417" font-family="Helvetica,sans-Serif" font-size="10.00">/Desktop/vulpes/vulpes</text>
<text text-anchor="start" x="532.38" y="-405.75" font-family="Helvetica,sans-Serif" font-size="10.00">/fe/fe_expressions/fe_expr</text>
<text text-anchor="middle" x="590.12" y="-394.5" font-family="Helvetica,sans-Serif" font-size="10.00">_func.hpp</text>
</a>
</g>
</g>
<!-- Node9&#45;&gt;Node16 -->
<g id="edge24_Node000009_Node000016" class="edge">
<title>Node9&#45;&gt;Node16</title>
<g id="a_edge24_Node000009_Node000016"><a xlink:title=" ">
<path fill="none" stroke="#63b8ff" d="M590.12,-554.97C590.12,-521.03 590.12,-471.81 590.12,-442.04"/>
<polygon fill="#63b8ff" stroke="#63b8ff" points="586.63,-554.77 590.13,-564.77 593.63,-554.77 586.63,-554.77"/>
</a>
</g>
</g>
<!-- Node17 -->
<g id="Node000017" class="node">
<title>Node17</title>
<g id="a_Node000017"><a xlink:href="fe__expr__op_8hpp.html" target="_top" xlink:title=" ">
<polygon fill="white" stroke="#666666" points="878.12,-436.12 712.12,-436.12 712.12,-394.38 878.12,-394.38 878.12,-436.12"/>
<text text-anchor="start" x="720.12" y="-422.62" font-family="Helvetica,sans-Serif" font-size="10.00">/Users/ilariomazzieri</text>
<text text-anchor="start" x="720.12" y="-411.38" font-family="Helvetica,sans-Serif" font-size="10.00">/Desktop/vulpes/vulpes</text>
<text text-anchor="middle" x="795.12" y="-400.12" font-family="Helvetica,sans-Serif" font-size="10.00">/fe/fe_expressions/fe_expr_op.hpp</text>
</a>
</g>
</g>
<!-- Node9&#45;&gt;Node17 -->
<g id="edge26_Node000009_Node000017" class="edge">
<title>Node9&#45;&gt;Node17</title>
<g id="a_edge26_Node000009_Node000017"><a xlink:title=" ">
<path fill="none" stroke="#63b8ff" d="M666.79,-579.93C699.11,-571.15 734.79,-556.19 759.12,-530.75 784.04,-504.7 791.72,-461.57 794.08,-436.34"/>
<polygon fill="#63b8ff" stroke="#63b8ff" points="666.28,-576.45 657.45,-582.3 668.01,-583.23 666.28,-576.45"/>
</a>
</g>
</g>
<!-- Node18 -->
<g id="Node000018" class="node">
<title>Node18</title>
<g id="a_Node000018"><a xlink:href="fe__expr__unary_8hpp.html" target="_top" xlink:title=" ">
<polygon fill="white" stroke="#666666" points="749.88,-530.75 618.38,-530.75 618.38,-477.75 749.88,-477.75 749.88,-530.75"/>
<text text-anchor="start" x="626.38" y="-517.25" font-family="Helvetica,sans-Serif" font-size="10.00">/Users/ilariomazzieri</text>
<text text-anchor="start" x="626.38" y="-506" font-family="Helvetica,sans-Serif" font-size="10.00">/Desktop/vulpes/vulpes</text>
<text text-anchor="start" x="626.38" y="-494.75" font-family="Helvetica,sans-Serif" font-size="10.00">/fe/fe_expressions/fe_expr</text>
<text text-anchor="middle" x="684.12" y="-483.5" font-family="Helvetica,sans-Serif" font-size="10.00">_unary.hpp</text>
</a>
</g>
</g>
<!-- Node9&#45;&gt;Node18 -->
<g id="edge28_Node000009_Node000018" class="edge">
<title>Node9&#45;&gt;Node18</title>
<g id="a_edge28_Node000009_Node000018"><a xlink:title=" ">
<path fill="none" stroke="#63b8ff" d="M626.5,-558.58C636.34,-549.48 646.82,-539.77 656.12,-531.17"/>
<polygon fill="#63b8ff" stroke="#63b8ff" points="624.15,-555.99 619.18,-565.35 628.9,-561.13 624.15,-555.99"/>
</a>
</g>
</g>
<!-- Node10&#45;&gt;Node6 -->
<g id="edge12_Node000010_Node000006" class="edge">
<title>Node10&#45;&gt;Node6</title>
<g id="a_edge12_Node000010_Node000006"><a xlink:title=" ">
<path fill="none" stroke="#63b8ff" d="M566.25,-301.7C615.51,-239.59 729.7,-95.56 771.99,-42.22"/>
<polygon fill="#63b8ff" stroke="#63b8ff" points="563.61,-299.4 560.14,-309.41 569.1,-303.75 563.61,-299.4"/>
</a>
</g>
</g>
<!-- Node11 -->
<g id="Node000011" class="node">
<title>Node11</title>
<g id="a_Node000011"><a xlink:href="integrator__base_8hpp.html" target="_top" xlink:title=" ">
<polygon fill="white" stroke="#666666" points="320.88,-197.25 171.38,-197.25 171.38,-155.5 320.88,-155.5 320.88,-197.25"/>
<text text-anchor="start" x="179.38" y="-183.75" font-family="Helvetica,sans-Serif" font-size="10.00">/Users/ilariomazzieri</text>
<text text-anchor="start" x="179.38" y="-172.5" font-family="Helvetica,sans-Serif" font-size="10.00">/Desktop/vulpes/vulpes</text>
<text text-anchor="middle" x="246.12" y="-161.25" font-family="Helvetica,sans-Serif" font-size="10.00">/assemble/integrator_base.hpp</text>
</a>
</g>
</g>
<!-- Node10&#45;&gt;Node11 -->
<g id="edge13_Node000010_Node000011" class="edge">
<title>Node10&#45;&gt;Node11</title>
<g id="a_edge13_Node000010_Node000011"><a xlink:title=" ">
<path fill="none" stroke="#63b8ff" d="M524.5,-301.66C509.03,-279.69 485.07,-250.53 457.12,-233.25 416.03,-207.84 363.53,-193.88 321.18,-186.27"/>
<polygon fill="#63b8ff" stroke="#63b8ff" points="521.42,-303.34 529.95,-309.62 527.2,-299.39 521.42,-303.34"/>
</a>
</g>
</g>
<!-- Node12 -->
<g id="Node000012" class="node">
<title>Node12</title>
<g id="a_Node000012"><a xlink:href="integrator__traits_8hpp.html" target="_top" xlink:title=" ">
<polygon fill="white" stroke="#666666" points="448.25,-275 298,-275 298,-233.25 448.25,-233.25 448.25,-275"/>
<text text-anchor="start" x="306" y="-261.5" font-family="Helvetica,sans-Serif" font-size="10.00">/Users/ilariomazzieri</text>
<text text-anchor="start" x="306" y="-250.25" font-family="Helvetica,sans-Serif" font-size="10.00">/Desktop/vulpes/vulpes</text>
<text text-anchor="middle" x="373.12" y="-239" font-family="Helvetica,sans-Serif" font-size="10.00">/assemble/integrator_traits.hpp</text>
</a>
</g>
</g>
<!-- Node10&#45;&gt;Node12 -->
<g id="edge17_Node000010_Node000012" class="edge">
<title>Node10&#45;&gt;Node12</title>
<g id="a_edge17_Node000010_Node000012"><a xlink:title=" ">
<path fill="none" stroke="#63b8ff" d="M487.28,-305.99C465.09,-296.1 439.88,-284.87 418.81,-275.48"/>
<polygon fill="#63b8ff" stroke="#63b8ff" points="485.63,-309.09 496.19,-309.96 488.48,-302.69 485.63,-309.09"/>
</a>
</g>
</g>
<!-- Node10&#45;&gt;Node13 -->
<g id="edge19_Node000010_Node000013" class="edge">
<title>Node10&#45;&gt;Node13</title>
<g id="a_edge19_Node000010_Node000013"><a xlink:title=" ">
<path fill="none" stroke="#63b8ff" d="M613.68,-310.78C654.13,-299.26 704.54,-284.91 744.04,-273.66"/>
<polygon fill="#63b8ff" stroke="#63b8ff" points="612.94,-307.36 604.28,-313.46 614.85,-314.09 612.94,-307.36"/>
</a>
</g>
</g>
<!-- Node11&#45;&gt;Node2 -->
<g id="edge14_Node000011_Node000002" class="edge">
<title>Node11&#45;&gt;Node2</title>
<g id="a_edge14_Node000011_Node000002"><a xlink:title=" ">
<path fill="none" stroke="#63b8ff" d="M246.12,-143.75C246.12,-135.71 246.12,-127.29 246.12,-119.98"/>
<polygon fill="#63b8ff" stroke="#63b8ff" points="242.63,-143.56 246.13,-153.56 249.63,-143.56 242.63,-143.56"/>
</a>
</g>
</g>
<!-- Node11&#45;&gt;Node3 -->
<g id="edge15_Node000011_Node000003" class="edge">
<title>Node11&#45;&gt;Node3</title>
<g id="a_edge15_Node000011_Node000003"><a xlink:title=" ">
<path fill="none" stroke="#63b8ff" d="M189.95,-150.49C167.63,-140.6 142.27,-129.37 121.08,-119.98"/>
<polygon fill="#63b8ff" stroke="#63b8ff" points="188.36,-153.61 198.92,-154.46 191.19,-147.21 188.36,-153.61"/>
</a>
</g>
</g>
<!-- Node11&#45;&gt;Node5 -->
<g id="edge16_Node000011_Node000005" class="edge">
<title>Node11&#45;&gt;Node5</title>
<g id="a_edge16_Node000011_Node000005"><a xlink:title=" ">
<path fill="none" stroke="#63b8ff" d="M304.94,-150.76C328.72,-140.81 355.85,-129.46 378.49,-119.98"/>
<polygon fill="#63b8ff" stroke="#63b8ff" points="303.9,-147.4 296.03,-154.49 306.6,-153.86 303.9,-147.4"/>
</a>
</g>
</g>
<!-- Node12&#45;&gt;Node11 -->
<g id="edge18_Node000012_Node000011" class="edge">
<title>Node12&#45;&gt;Node11</title>
<g id="a_edge18_Node000012_Node000011"><a xlink:title=" ">
<path fill="none" stroke="#63b8ff" d="M329.37,-227.03C313.3,-217.44 295.35,-206.74 280.25,-197.73"/>
<polygon fill="#63b8ff" stroke="#63b8ff" points="327.41,-229.93 337.79,-232.05 331,-223.92 327.41,-229.93"/>
</a>
</g>
</g>
<!-- Node14&#45;&gt;Node10 -->
<g id="edge21_Node000014_Node000010" class="edge">
<title>Node14&#45;&gt;Node10</title>
<g id="a_edge21_Node000014_Node000010"><a xlink:title=" ">
<path fill="none" stroke="#63b8ff" d="M442.29,-466.96C451.19,-443.38 464.75,-412.7 482.12,-388.75 491.74,-375.5 504.89,-362.97 516.52,-353.15"/>
<polygon fill="#63b8ff" stroke="#63b8ff" points="439.07,-465.55 438.93,-476.15 445.65,-467.96 439.07,-465.55"/>
</a>
</g>
</g>
<!-- Node14&#45;&gt;Node15 -->
<g id="edge22_Node000014_Node000015" class="edge">
<title>Node14&#45;&gt;Node15</title>
<g id="a_edge22_Node000014_Node000015"><a xlink:title=" ">
<path fill="none" stroke="#63b8ff" d="M403.85,-468.62C397.11,-459.74 389.99,-450.34 383.66,-442"/>
<polygon fill="#63b8ff" stroke="#63b8ff" points="400.93,-470.56 409.77,-476.41 406.51,-466.33 400.93,-470.56"/>
</a>
</g>
</g>
<!-- Node15&#45;&gt;Node10 -->
<g id="edge23_Node000015_Node000010" class="edge">
<title>Node15&#45;&gt;Node10</title>
<g id="a_edge23_Node000015_Node000010"><a xlink:title=" ">
<path fill="none" stroke="#63b8ff" d="M431.69,-383.54C454,-373.39 478.26,-362.36 498.43,-353.19"/>
<polygon fill="#63b8ff" stroke="#63b8ff" points="430.29,-380.33 422.63,-387.65 433.18,-386.7 430.29,-380.33"/>
</a>
</g>
</g>
<!-- Node16&#45;&gt;Node10 -->
<g id="edge25_Node000016_Node000010" class="edge">
<title>Node16&#45;&gt;Node10</title>
<g id="a_edge25_Node000016_Node000010"><a xlink:title=" ">
<path fill="none" stroke="#63b8ff" d="M569.64,-378.78C564.55,-369.97 559.27,-360.83 554.77,-353.04"/>
<polygon fill="#63b8ff" stroke="#63b8ff" points="566.46,-380.28 574.5,-387.19 572.53,-376.78 566.46,-380.28"/>
</a>
</g>
</g>
<!-- Node17&#45;&gt;Node10 -->
<g id="edge27_Node000017_Node000010" class="edge">
<title>Node17&#45;&gt;Node10</title>
<g id="a_edge27_Node000017_Node000010"><a xlink:title=" ">
<path fill="none" stroke="#63b8ff" d="M721.24,-390.39C683.49,-378.2 638.15,-363.56 602.67,-352.1"/>
<polygon fill="#63b8ff" stroke="#63b8ff" points="720.15,-393.72 730.74,-393.46 722.3,-387.06 720.15,-393.72"/>
</a>
</g>
</g>
<!-- Node18&#45;&gt;Node10 -->
<g id="edge29_Node000018_Node000010" class="edge">
<title>Node18&#45;&gt;Node10</title>
<g id="a_edge29_Node000018_Node000010"><a xlink:title=" ">
<path fill="none" stroke="#63b8ff" d="M686.49,-466.05C686.13,-441.76 681.85,-410.62 665.12,-388.75 649.84,-368.76 625.74,-355.7 602.98,-347.27"/>
<polygon fill="#63b8ff" stroke="#63b8ff" points="683,-465.81 686.41,-475.84 690,-465.87 683,-465.81"/>
</a>
</g>
</g>
<!-- Node18&#45;&gt;Node17 -->
<g id="edge30_Node000018_Node000017" class="edge">
<title>Node18&#45;&gt;Node17</title>
<g id="a_edge30_Node000018_Node000017"><a xlink:title=" ">
<path fill="none" stroke="#63b8ff" d="M726.01,-470.42C740.63,-458.97 756.58,-446.46 769.47,-436.36"/>
<polygon fill="#63b8ff" stroke="#63b8ff" points="724.03,-467.53 718.32,-476.45 728.35,-473.03 724.03,-467.53"/>
</a>
</g>
</g>
<!-- Node20 -->
<g id="Node000020" class="node">
<title>Node20</title>
<g id="a_Node000020"><a xlink:href="fe__lagrange__simplex_8cpp.html" target="_top" xlink:title=" ">
<polygon fill="white" stroke="#666666" points="1383.38,-619.75 1254.88,-619.75 1254.88,-566.75 1383.38,-566.75 1383.38,-619.75"/>
<text text-anchor="start" x="1262.88" y="-606.25" font-family="Helvetica,sans-Serif" font-size="10.00">/Users/ilariomazzieri</text>
<text text-anchor="start" x="1262.88" y="-595" font-family="Helvetica,sans-Serif" font-size="10.00">/Desktop/vulpes/vulpes</text>
<text text-anchor="start" x="1262.88" y="-583.75" font-family="Helvetica,sans-Serif" font-size="10.00">/fe/fe_spaces/fe_lagrange</text>
<text text-anchor="middle" x="1319.12" y="-572.5" font-family="Helvetica,sans-Serif" font-size="10.00">_simplex.cpp</text>
</a>
</g>
</g>
<!-- Node19&#45;&gt;Node20 -->
<g id="edge33_Node000019_Node000020" class="edge">
<title>Node19&#45;&gt;Node20</title>
<g id="a_edge33_Node000019_Node000020"><a xlink:title=" ">
<path fill="none" stroke="#63b8ff" d="M1225.3,-649.78C1241.73,-640.06 1259.62,-629.47 1275.33,-620.17"/>
<polygon fill="#63b8ff" stroke="#63b8ff" points="1223.96,-646.51 1217.13,-654.61 1227.52,-652.53 1223.96,-646.51"/>
</a>
</g>
</g>
<!-- Node19&#45;&gt;Node21 -->
<g id="edge34_Node000019_Node000021" class="edge">
<title>Node19&#45;&gt;Node21</title>
<g id="a_edge34_Node000019_Node000021"><a xlink:title=" ">
<path fill="none" stroke="#63b8ff" d="M1172.12,-644.36C1172.12,-636.16 1172.12,-627.64 1172.12,-620"/>
<polygon fill="#63b8ff" stroke="#63b8ff" points="1168.63,-644.1 1172.13,-654.1 1175.63,-644.1 1168.63,-644.1"/>
</a>
</g>
</g>
<!-- Node19&#45;&gt;Node22 -->
<g id="edge35_Node000019_Node000022" class="edge">
<title>Node19&#45;&gt;Node22</title>
<g id="a_edge35_Node000019_Node000022"><a xlink:title=" ">
<path fill="none" stroke="#63b8ff" d="M1247.65,-656.47C1248.48,-656.23 1249.3,-655.99 1250.12,-655.75 1312.66,-637.62 1329.95,-639.06 1392.12,-619.75 1395.17,-618.8 1398.29,-617.8 1401.42,-616.75"/>
<polygon fill="#63b8ff" stroke="#63b8ff" points="1246.73,-653.09 1238.17,-659.33 1248.75,-659.8 1246.73,-653.09"/>
</a>
</g>
</g>
<!-- Node24&#45;&gt;Node6 -->
<g id="edge41_Node000024_Node000006" class="edge">
<title>Node24&#45;&gt;Node6</title>
<g id="a_edge41_Node000024_Node000006"><a xlink:title=" ">
<path fill="none" stroke="#63b8ff" d="M648.92,-656.23C749.57,-608.99 944.12,-496.52 944.12,-332.88 944.12,-332.88 944.12,-332.88 944.12,-175.38 944.12,-112.3 878.53,-66.48 832.41,-42.06"/>
<polygon fill="#63b8ff" stroke="#63b8ff" points="647.59,-652.99 639.98,-660.36 650.52,-659.35 647.59,-652.99"/>
</a>
</g>
</g>
<!-- Node24&#45;&gt;Node9 -->
<g id="edge44_Node000024_Node000009" class="edge">
<title>Node24&#45;&gt;Node9</title>
<g id="a_edge44_Node000024_Node000009"><a xlink:title=" ">
<path fill="none" stroke="#63b8ff" d="M590.12,-649.72C590.12,-639.94 590.12,-629.28 590.12,-619.94"/>
<polygon fill="#63b8ff" stroke="#63b8ff" points="586.63,-649.56 590.13,-659.56 593.63,-649.56 586.63,-649.56"/>
</a>
</g>
</g>
<!-- Node24&#45;&gt;Node11 -->
<g id="edge42_Node000024_Node000011" class="edge">
<title>Node24&#45;&gt;Node11</title>
<g id="a_edge42_Node000024_Node000011"><a xlink:title=" ">
<path fill="none" stroke="#63b8ff" d="M519.21,-677.38C414.85,-667.43 232.12,-631.92 232.12,-505.25 232.12,-505.25 232.12,-505.25 232.12,-330.88 232.12,-282.97 238.97,-227.01 243.09,-197.68"/>
<polygon fill="#63b8ff" stroke="#63b8ff" points="518.83,-680.86 529.1,-678.26 519.45,-673.89 518.83,-680.86"/>
</a>
</g>
</g>
<!-- Node24&#45;&gt;Node12 -->
<g id="edge43_Node000024_Node000012" class="edge">
<title>Node24&#45;&gt;Node12</title>
<g id="a_edge43_Node000024_Node000012"><a xlink:title=" ">
<path fill="none" stroke="#63b8ff" d="M523.27,-656.58C443.77,-622.61 318.17,-552.73 289.12,-441.75 272.44,-377.99 324.04,-308.64 353.73,-275.28"/>
<polygon fill="#63b8ff" stroke="#63b8ff" points="521.71,-659.72 532.29,-660.35 524.41,-653.27 521.71,-659.72"/>
</a>
</g>
</g>
</g>
</svg>

<g id="navigator" transform="translate(0 0)" fill="#404254">
  <rect fill="#f2f5e9" fill-opacity="0.5" stroke="#606060" stroke-width=".5" x="0" y="0" width="60" height="60"/>
  <use id="zoomplus" xlink:href="#zoomPlus" x="17" y="9" onmousedown="handleZoom(evt,'in')"/>
  <use id="zoomminus" xlink:href="#zoomMin" x="42" y="9" onmousedown="handleZoom(evt,'out')"/>
  <use id="reset" xlink:href="#resetDef" x="30" y="36" onmousedown="handleReset()"/>
   <use id="arrowup" xlink:href="#arrowUp" x="0" y="0" onmousedown="handlePan(0,-1)"/>
  <use id="arrowright" xlink:href="#arrowRight" x="0" y="0" onmousedown="handlePan(1,0)"/>
  <use id="arrowdown" xlink:href="#arrowDown" x="0" y="0" onmousedown="handlePan(0,1)"/>
  <use id="arrowleft" xlink:href="#arrowLeft" x="0" y="0" onmousedown="handlePan(-1,0)"/>
</g>
<svg viewBox="0 0 15 15" width="100%" height="30px" preserveAspectRatio="xMaxYMin meet">
 <g id="arrow_out" transform="scale(0.3 0.3)">
  <a xlink:href="fe__space_8hpp__dep__incl_org.svg" target="_base">
   <rect id="button" ry="5" rx="5" y="6" x="6" height="38" width="38"
        fill="#f2f5e9" fill-opacity="0.5" stroke="#606060" stroke-width="1.0"/>
   <path id="arrow"
     d="M 11.500037,31.436501 C 11.940474,20.09759 22.043105,11.32322 32.158766,21.979434 L 37.068811,17.246167 C 37.068811,17.246167 37.088388,32 37.088388,32 L 22.160133,31.978069 C 22.160133,31.978069 26.997745,27.140456 26.997745,27.140456 C 18.528582,18.264221 13.291696,25.230495 11.500037,31.436501 z"
     style="fill:#404040;"/>
  </a>
 </g>
</svg>

<style type='text/css'>
<![CDATA[
[data-mouse-over-selected='false'] { opacity: 0.7; }
[data-mouse-over-selected='true']  { opacity: 1.0; }
]]>
</style>
<script type="application/ecmascript"><![CDATA[
document.addEventListener('DOMContentLoaded', (event) => {
  highlightEdges();
  highlightAdjacentNodes();
});
]]></script>
</svg>
