<?xml version="1.0" encoding="UTF-8" standalone="no"?>
<!DOCTYPE svg PUBLIC "-//W3C//DTD SVG 1.1//EN"
 "http://www.w3.org/Graphics/SVG/1.1/DTD/svg11.dtd">
<!-- Generated by graphviz version 12.2.1 (20241206.2353)
 -->
<!-- Title: /Users/ilariomazzieri/Desktop/vulpes/vulpes/fe/fe_expressions/fe_expr_base.hpp Pages: 1 -->
<svg width="557pt" height="628pt"
 viewBox="0.00 0.00 556.92 627.75" xmlns="http://www.w3.org/2000/svg" xmlns:xlink="http://www.w3.org/1999/xlink">
<g id="graph0" class="graph" transform="scale(1 1) rotate(0) translate(4 623.75)">
<title>/Users/ilariomazzieri/Desktop/vulpes/vulpes/fe/fe_expressions/fe_expr_base.hpp</title>
<!-- Node1 -->
<g id="Node000001" class="node">
<title>Node1</title>
<g id="a_Node000001"><a xlink:title=" ">
<polygon fill="#999999" stroke="#666666" points="278.54,-619.75 147.04,-619.75 147.04,-566.75 278.54,-566.75 278.54,-619.75"/>
<text text-anchor="start" x="155.04" y="-606.25" font-family="Helvetica,sans-Serif" font-size="10.00">/Users/ilariomazzieri</text>
<text text-anchor="start" x="155.04" y="-595" font-family="Helvetica,sans-Serif" font-size="10.00">/Desktop/vulpes/vulpes</text>
<text text-anchor="start" x="155.04" y="-583.75" font-family="Helvetica,sans-Serif" font-size="10.00">/fe/fe_expressions/fe_expr</text>
<text text-anchor="middle" x="212.79" y="-572.5" font-family="Helvetica,sans-Serif" font-size="10.00">_base.hpp</text>
</a>
</g>
</g>
<!-- Node2 -->
<g id="Node000002" class="node">
<title>Node2</title>
<g id="a_Node000002"><a xlink:href="fe__expression_8hpp.html" target="_top" xlink:title=" ">
<polygon fill="white" stroke="#666666" points="229.17,-352.75 110.42,-352.75 110.42,-311 229.17,-311 229.17,-352.75"/>
<text text-anchor="start" x="118.42" y="-339.25" font-family="Helvetica,sans-Serif" font-size="10.00">/Users/ilariomazzieri</text>
<text text-anchor="start" x="118.42" y="-328" font-family="Helvetica,sans-Serif" font-size="10.00">/Desktop/vulpes/vulpes</text>
<text text-anchor="middle" x="169.79" y="-316.75" font-family="Helvetica,sans-Serif" font-size="10.00">/fe/fe_expression.hpp</text>
</a>
</g>
</g>
<!-- Node1&#45;&gt;Node2 -->
<g id="edge1_Node000001_Node000002" class="edge">
<title>Node1&#45;&gt;Node2</title>
<g id="a_edge1_Node000001_Node000002"><a xlink:title=" ">
<path fill="none" stroke="#63b8ff" d="M135.46,-586.79C95.08,-579.77 48.29,-564.33 19.79,-530.75 -6.07,-500.27 9.69,-481.62 6.79,-441.75 5.08,-418.26 -6.9,-407.92 6.79,-388.75 30.18,-356.01 73.99,-342.25 110.3,-336.56"/>
<polygon fill="#63b8ff" stroke="#63b8ff" points="134.74,-590.22 145.16,-588.32 135.83,-583.3 134.74,-590.22"/>
</a>
</g>
</g>
<!-- Node11 -->
<g id="Node000011" class="node">
<title>Node11</title>
<g id="a_Node000011"><a xlink:href="fe__expr__basis_8hpp.html" target="_top" xlink:title=" ">
<polygon fill="white" stroke="#666666" points="160.54,-530.75 29.04,-530.75 29.04,-477.75 160.54,-477.75 160.54,-530.75"/>
<text text-anchor="start" x="37.04" y="-517.25" font-family="Helvetica,sans-Serif" font-size="10.00">/Users/ilariomazzieri</text>
<text text-anchor="start" x="37.04" y="-506" font-family="Helvetica,sans-Serif" font-size="10.00">/Desktop/vulpes/vulpes</text>
<text text-anchor="start" x="37.04" y="-494.75" font-family="Helvetica,sans-Serif" font-size="10.00">/fe/fe_expressions/fe_expr</text>
<text text-anchor="middle" x="94.79" y="-483.5" font-family="Helvetica,sans-Serif" font-size="10.00">_basis.hpp</text>
</a>
</g>
</g>
<!-- Node1&#45;&gt;Node11 -->
<g id="edge13_Node000001_Node000011" class="edge">
<title>Node1&#45;&gt;Node11</title>
<g id="a_edge13_Node000001_Node000011"><a xlink:title=" ">
<path fill="none" stroke="#63b8ff" d="M168.62,-559.68C155.85,-550.27 142.09,-540.12 129.94,-531.17"/>
<polygon fill="#63b8ff" stroke="#63b8ff" points="166.36,-562.37 176.49,-565.48 170.52,-556.73 166.36,-562.37"/>
</a>
</g>
</g>
<!-- Node12 -->
<g id="Node000012" class="node">
<title>Node12</title>
<g id="a_Node000012"><a xlink:href="fe__expr__vector_8hpp.html" target="_top" xlink:title="Bilinear/linear expressions for vector&#45;valued FE spaces.">
<polygon fill="white" stroke="#666666" points="160.54,-441.75 29.04,-441.75 29.04,-388.75 160.54,-388.75 160.54,-441.75"/>
<text text-anchor="start" x="37.04" y="-428.25" font-family="Helvetica,sans-Serif" font-size="10.00">/Users/ilariomazzieri</text>
<text text-anchor="start" x="37.04" y="-417" font-family="Helvetica,sans-Serif" font-size="10.00">/Desktop/vulpes/vulpes</text>
<text text-anchor="start" x="37.04" y="-405.75" font-family="Helvetica,sans-Serif" font-size="10.00">/fe/fe_expressions/fe_expr</text>
<text text-anchor="middle" x="94.79" y="-394.5" font-family="Helvetica,sans-Serif" font-size="10.00">_vector.hpp</text>
</a>
</g>
</g>
<!-- Node1&#45;&gt;Node12 -->
<g id="edge24_Node000001_Node000012" class="edge">
<title>Node1&#45;&gt;Node12</title>
<g id="a_edge24_Node000001_Node000012"><a xlink:title=" ">
<path fill="none" stroke="#63b8ff" d="M204.23,-555.27C197.52,-531.59 186.48,-501.04 169.79,-477.75 160.08,-464.2 146.67,-451.93 133.86,-441.98"/>
<polygon fill="#63b8ff" stroke="#63b8ff" points="200.82,-556.07 206.79,-564.82 207.58,-554.26 200.82,-556.07"/>
</a>
</g>
</g>
<!-- Node13 -->
<g id="Node000013" class="node">
<title>Node13</title>
<g id="a_Node000013"><a xlink:href="fe__expr__func_8hpp.html" target="_top" xlink:title=" ">
<polygon fill="white" stroke="#666666" points="310.54,-441.75 179.04,-441.75 179.04,-388.75 310.54,-388.75 310.54,-441.75"/>
<text text-anchor="start" x="187.04" y="-428.25" font-family="Helvetica,sans-Serif" font-size="10.00">/Users/ilariomazzieri</text>
<text text-anchor="start" x="187.04" y="-417" font-family="Helvetica,sans-Serif" font-size="10.00">/Desktop/vulpes/vulpes</text>
<text text-anchor="start" x="187.04" y="-405.75" font-family="Helvetica,sans-Serif" font-size="10.00">/fe/fe_expressions/fe_expr</text>
<text text-anchor="middle" x="244.79" y="-394.5" font-family="Helvetica,sans-Serif" font-size="10.00">_func.hpp</text>
</a>
</g>
</g>
<!-- Node1&#45;&gt;Node13 -->
<g id="edge17_Node000001_Node000013" class="edge">
<title>Node1&#45;&gt;Node13</title>
<g id="a_edge17_Node000001_Node000013"><a xlink:title=" ">
<path fill="none" stroke="#63b8ff" d="M219.57,-554.97C225.74,-521.03 234.69,-471.81 240.1,-442.04"/>
<polygon fill="#63b8ff" stroke="#63b8ff" points="216.13,-554.33 217.78,-564.79 223.02,-555.58 216.13,-554.33"/>
</a>
</g>
</g>
<!-- Node14 -->
<g id="Node000014" class="node">
<title>Node14</title>
<g id="a_Node000014"><a xlink:href="fe__expr__op_8hpp.html" target="_top" xlink:title=" ">
<polygon fill="white" stroke="#666666" points="494.79,-436.12 328.79,-436.12 328.79,-394.38 494.79,-394.38 494.79,-436.12"/>
<text text-anchor="start" x="336.79" y="-422.62" font-family="Helvetica,sans-Serif" font-size="10.00">/Users/ilariomazzieri</text>
<text text-anchor="start" x="336.79" y="-411.38" font-family="Helvetica,sans-Serif" font-size="10.00">/Desktop/vulpes/vulpes</text>
<text text-anchor="middle" x="411.79" y="-400.12" font-family="Helvetica,sans-Serif" font-size="10.00">/fe/fe_expressions/fe_expr_op.hpp</text>
</a>
</g>
</g>
<!-- Node1&#45;&gt;Node14 -->
<g id="edge19_Node000001_Node000014" class="edge">
<title>Node1&#45;&gt;Node14</title>
<g id="a_edge19_Node000001_Node000014"><a xlink:title=" ">
<path fill="none" stroke="#63b8ff" d="M248.23,-558.49C272.76,-535.39 306.34,-504.25 336.79,-477.75 353.05,-463.6 371.8,-448.22 386.48,-436.39"/>
<polygon fill="#63b8ff" stroke="#63b8ff" points="245.92,-555.86 241.05,-565.27 250.72,-560.95 245.92,-555.86"/>
</a>
</g>
</g>
<!-- Node15 -->
<g id="Node000015" class="node">
<title>Node15</title>
<g id="a_Node000015"><a xlink:href="fe__expr__unary_8hpp.html" target="_top" xlink:title=" ">
<polygon fill="white" stroke="#666666" points="477.54,-530.75 346.04,-530.75 346.04,-477.75 477.54,-477.75 477.54,-530.75"/>
<text text-anchor="start" x="354.04" y="-517.25" font-family="Helvetica,sans-Serif" font-size="10.00">/Users/ilariomazzieri</text>
<text text-anchor="start" x="354.04" y="-506" font-family="Helvetica,sans-Serif" font-size="10.00">/Desktop/vulpes/vulpes</text>
<text text-anchor="start" x="354.04" y="-494.75" font-family="Helvetica,sans-Serif" font-size="10.00">/fe/fe_expressions/fe_expr</text>
<text text-anchor="middle" x="411.79" y="-483.5" font-family="Helvetica,sans-Serif" font-size="10.00">_unary.hpp</text>
</a>
</g>
</g>
<!-- Node1&#45;&gt;Node15 -->
<g id="edge21_Node000001_Node000015" class="edge">
<title>Node1&#45;&gt;Node15</title>
<g id="a_edge21_Node000001_Node000015"><a xlink:title=" ">
<path fill="none" stroke="#63b8ff" d="M282.56,-561.75C305.45,-551.74 330.64,-540.73 352.66,-531.1"/>
<polygon fill="#63b8ff" stroke="#63b8ff" points="281.38,-558.45 273.62,-565.66 284.18,-564.86 281.38,-558.45"/>
</a>
</g>
</g>
<!-- Node3 -->
<g id="Node000003" class="node">
<title>Node3</title>
<g id="a_Node000003"><a xlink:href="dg__utils_8hpp.html" target="_top" xlink:title=" ">
<polygon fill="white" stroke="#666666" points="225.17,-41.75 106.42,-41.75 106.42,0 225.17,0 225.17,-41.75"/>
<text text-anchor="start" x="114.42" y="-28.25" font-family="Helvetica,sans-Serif" font-size="10.00">/Users/ilariomazzieri</text>
<text text-anchor="start" x="114.42" y="-17" font-family="Helvetica,sans-Serif" font-size="10.00">/Desktop/vulpes/vulpes</text>
<text text-anchor="middle" x="165.79" y="-5.75" font-family="Helvetica,sans-Serif" font-size="10.00">/assemble/dg_utils.hpp</text>
</a>
</g>
</g>
<!-- Node2&#45;&gt;Node3 -->
<g id="edge2_Node000002_Node000003" class="edge">
<title>Node2&#45;&gt;Node3</title>
<g id="a_edge2_Node000002_Node000003"><a xlink:title=" ">
<path fill="none" stroke="#63b8ff" d="M142.33,-302.62C107.6,-264.66 49.68,-193.39 27.79,-119.5 22.52,-101.71 17.42,-93.14 27.79,-77.75 45.34,-51.71 77.32,-37.8 106.07,-30.37"/>
<polygon fill="#63b8ff" stroke="#63b8ff" points="139.39,-304.59 148.76,-309.53 144.52,-299.83 139.39,-304.59"/>
</a>
</g>
</g>
<!-- Node4 -->
<g id="Node000004" class="node">
<title>Node4</title>
<g id="a_Node000004"><a xlink:href="integrator__base_8hpp.html" target="_top" xlink:title=" ">
<polygon fill="white" stroke="#666666" points="296.54,-197.25 147.04,-197.25 147.04,-155.5 296.54,-155.5 296.54,-197.25"/>
<text text-anchor="start" x="155.04" y="-183.75" font-family="Helvetica,sans-Serif" font-size="10.00">/Users/ilariomazzieri</text>
<text text-anchor="start" x="155.04" y="-172.5" font-family="Helvetica,sans-Serif" font-size="10.00">/Desktop/vulpes/vulpes</text>
<text text-anchor="middle" x="221.79" y="-161.25" font-family="Helvetica,sans-Serif" font-size="10.00">/assemble/integrator_base.hpp</text>
</a>
</g>
</g>
<!-- Node2&#45;&gt;Node4 -->
<g id="edge3_Node000002_Node000004" class="edge">
<title>Node2&#45;&gt;Node4</title>
<g id="a_edge3_Node000002_Node000004"><a xlink:title=" ">
<path fill="none" stroke="#63b8ff" d="M147.96,-301.11C136.21,-281.18 126.26,-254.77 137.79,-233.25 145.9,-218.12 160.11,-206.39 174.56,-197.67"/>
<polygon fill="#63b8ff" stroke="#63b8ff" points="144.86,-302.75 153.17,-309.32 150.77,-299 144.86,-302.75"/>
</a>
</g>
</g>
<!-- Node9 -->
<g id="Node000009" class="node">
<title>Node9</title>
<g id="a_Node000009"><a xlink:href="integrator__traits_8hpp.html" target="_top" xlink:title=" ">
<polygon fill="white" stroke="#666666" points="296.92,-275 146.67,-275 146.67,-233.25 296.92,-233.25 296.92,-275"/>
<text text-anchor="start" x="154.67" y="-261.5" font-family="Helvetica,sans-Serif" font-size="10.00">/Users/ilariomazzieri</text>
<text text-anchor="start" x="154.67" y="-250.25" font-family="Helvetica,sans-Serif" font-size="10.00">/Desktop/vulpes/vulpes</text>
<text text-anchor="middle" x="221.79" y="-239" font-family="Helvetica,sans-Serif" font-size="10.00">/assemble/integrator_traits.hpp</text>
</a>
</g>
</g>
<!-- Node2&#45;&gt;Node9 -->
<g id="edge10_Node000002_Node000009" class="edge">
<title>Node2&#45;&gt;Node9</title>
<g id="a_edge10_Node000002_Node000009"><a xlink:title=" ">
<path fill="none" stroke="#63b8ff" d="M190.16,-301.2C196.07,-292.59 202.39,-283.38 207.82,-275.48"/>
<polygon fill="#63b8ff" stroke="#63b8ff" points="187.36,-299.1 184.58,-309.33 193.13,-303.06 187.36,-299.1"/>
</a>
</g>
</g>
<!-- Node10 -->
<g id="Node000010" class="node">
<title>Node10</title>
<g id="a_Node000010"><a xlink:href="fe__vem_8hpp.html" target="_top" xlink:title=" ">
<polygon fill="white" stroke="#666666" points="444.42,-275 315.17,-275 315.17,-233.25 444.42,-233.25 444.42,-275"/>
<text text-anchor="start" x="323.17" y="-261.5" font-family="Helvetica,sans-Serif" font-size="10.00">/Users/ilariomazzieri</text>
<text text-anchor="start" x="323.17" y="-250.25" font-family="Helvetica,sans-Serif" font-size="10.00">/Desktop/vulpes/vulpes</text>
<text text-anchor="middle" x="379.79" y="-239" font-family="Helvetica,sans-Serif" font-size="10.00">/fe/fe_spaces/fe_vem.hpp</text>
</a>
</g>
</g>
<!-- Node2&#45;&gt;Node10 -->
<g id="edge12_Node000002_Node000010" class="edge">
<title>Node2&#45;&gt;Node10</title>
<g id="a_edge12_Node000002_Node000010"><a xlink:title=" ">
<path fill="none" stroke="#63b8ff" d="M236.55,-306.79C264.49,-296.71 296.62,-285.13 323.36,-275.48"/>
<polygon fill="#63b8ff" stroke="#63b8ff" points="235.71,-303.38 227.49,-310.06 238.09,-309.96 235.71,-303.38"/>
</a>
</g>
</g>
<!-- Node5 -->
<g id="Node000005" class="node">
<title>Node5</title>
<g id="a_Node000005"><a xlink:href="integrator__gauss_8hpp.html" target="_top" xlink:title=" ">
<polygon fill="white" stroke="#666666" points="191.17,-119.5 36.42,-119.5 36.42,-77.75 191.17,-77.75 191.17,-119.5"/>
<text text-anchor="start" x="44.42" y="-106" font-family="Helvetica,sans-Serif" font-size="10.00">/Users/ilariomazzieri</text>
<text text-anchor="start" x="44.42" y="-94.75" font-family="Helvetica,sans-Serif" font-size="10.00">/Desktop/vulpes/vulpes</text>
<text text-anchor="middle" x="113.79" y="-83.5" font-family="Helvetica,sans-Serif" font-size="10.00">/assemble/integrator_gauss.hpp</text>
</a>
</g>
</g>
<!-- Node4&#45;&gt;Node5 -->
<g id="edge4_Node000004_Node000005" class="edge">
<title>Node4&#45;&gt;Node5</title>
<g id="a_edge4_Node000004_Node000005"><a xlink:title=" ">
<path fill="none" stroke="#63b8ff" d="M183.81,-148.73C170.34,-139.29 155.41,-128.82 142.81,-119.98"/>
<polygon fill="#63b8ff" stroke="#63b8ff" points="181.41,-151.33 191.61,-154.21 185.43,-145.6 181.41,-151.33"/>
</a>
</g>
</g>
<!-- Node6 -->
<g id="Node000006" class="node">
<title>Node6</title>
<g id="a_Node000006"><a xlink:href="integrator__qfree_8hpp.html" target="_top" xlink:title=" ">
<polygon fill="white" stroke="#666666" points="548.92,-119.5 398.67,-119.5 398.67,-77.75 548.92,-77.75 548.92,-119.5"/>
<text text-anchor="start" x="406.67" y="-106" font-family="Helvetica,sans-Serif" font-size="10.00">/Users/ilariomazzieri</text>
<text text-anchor="start" x="406.67" y="-94.75" font-family="Helvetica,sans-Serif" font-size="10.00">/Desktop/vulpes/vulpes</text>
<text text-anchor="middle" x="473.79" y="-83.5" font-family="Helvetica,sans-Serif" font-size="10.00">/assemble/integrator_qfree.hpp</text>
</a>
</g>
</g>
<!-- Node4&#45;&gt;Node6 -->
<g id="edge5_Node000004_Node000006" class="edge">
<title>Node4&#45;&gt;Node6</title>
<g id="a_edge5_Node000004_Node000006"><a xlink:title=" ">
<path fill="none" stroke="#63b8ff" d="M300.14,-151.82C334.07,-141.62 373.42,-129.8 406.07,-119.98"/>
<polygon fill="#63b8ff" stroke="#63b8ff" points="299.34,-148.41 290.77,-154.64 301.36,-155.11 299.34,-148.41"/>
</a>
</g>
</g>
<!-- Node8 -->
<g id="Node000008" class="node">
<title>Node8</title>
<g id="a_Node000008"><a xlink:href="integrator__simplexify_8hpp.html" target="_top" xlink:title=" ">
<polygon fill="white" stroke="#666666" points="380.42,-119.5 209.17,-119.5 209.17,-77.75 380.42,-77.75 380.42,-119.5"/>
<text text-anchor="start" x="217.17" y="-106" font-family="Helvetica,sans-Serif" font-size="10.00">/Users/ilariomazzieri</text>
<text text-anchor="start" x="217.17" y="-94.75" font-family="Helvetica,sans-Serif" font-size="10.00">/Desktop/vulpes/vulpes</text>
<text text-anchor="middle" x="294.79" y="-83.5" font-family="Helvetica,sans-Serif" font-size="10.00">/assemble/integrator_simplexify.hpp</text>
</a>
</g>
</g>
<!-- Node4&#45;&gt;Node8 -->
<g id="edge7_Node000004_Node000008" class="edge">
<title>Node4&#45;&gt;Node8</title>
<g id="a_edge7_Node000004_Node000008"><a xlink:title=" ">
<path fill="none" stroke="#63b8ff" d="M249.32,-146.81C257.92,-137.89 267.23,-128.22 275.17,-119.98"/>
<polygon fill="#63b8ff" stroke="#63b8ff" points="246.82,-144.36 242.4,-153.99 251.86,-149.21 246.82,-144.36"/>
</a>
</g>
</g>
<!-- Node7 -->
<g id="Node000007" class="node">
<title>Node7</title>
<g id="a_Node000007"><a xlink:href="integrator__vem_8hpp.html" target="_top" xlink:title=" ">
<polygon fill="white" stroke="#666666" points="457.42,-41.75 310.17,-41.75 310.17,0 457.42,0 457.42,-41.75"/>
<text text-anchor="start" x="318.17" y="-28.25" font-family="Helvetica,sans-Serif" font-size="10.00">/Users/ilariomazzieri</text>
<text text-anchor="start" x="318.17" y="-17" font-family="Helvetica,sans-Serif" font-size="10.00">/Desktop/vulpes/vulpes</text>
<text text-anchor="middle" x="383.79" y="-5.75" font-family="Helvetica,sans-Serif" font-size="10.00">/assemble/integrator_vem.hpp</text>
</a>
</g>
</g>
<!-- Node6&#45;&gt;Node7 -->
<g id="edge6_Node000006_Node000007" class="edge">
<title>Node6&#45;&gt;Node7</title>
<g id="a_edge6_Node000006_Node000007"><a xlink:title=" ">
<path fill="none" stroke="#63b8ff" d="M441.16,-70.16C430.2,-60.94 418.17,-50.81 407.98,-42.23"/>
<polygon fill="#63b8ff" stroke="#63b8ff" points="438.61,-72.59 448.52,-76.35 443.12,-67.23 438.61,-72.59"/>
</a>
</g>
</g>
<!-- Node8&#45;&gt;Node3 -->
<g id="edge8_Node000008_Node000003" class="edge">
<title>Node8&#45;&gt;Node3</title>
<g id="a_edge8_Node000008_Node000003"><a xlink:title=" ">
<path fill="none" stroke="#63b8ff" d="M250.35,-71.53C234.02,-61.94 215.8,-51.24 200.46,-42.23"/>
<polygon fill="#63b8ff" stroke="#63b8ff" points="248.52,-74.51 258.92,-76.56 252.07,-68.48 248.52,-74.51"/>
</a>
</g>
</g>
<!-- Node8&#45;&gt;Node7 -->
<g id="edge9_Node000008_Node000007" class="edge">
<title>Node8&#45;&gt;Node7</title>
<g id="a_edge9_Node000008_Node000007"><a xlink:title=" ">
<path fill="none" stroke="#63b8ff" d="M327.38,-69.89C338.13,-60.73 349.89,-50.73 359.88,-42.23"/>
<polygon fill="#63b8ff" stroke="#63b8ff" points="325.14,-67.2 319.79,-76.34 329.68,-72.53 325.14,-67.2"/>
</a>
</g>
</g>
<!-- Node9&#45;&gt;Node4 -->
<g id="edge11_Node000009_Node000004" class="edge">
<title>Node9&#45;&gt;Node4</title>
<g id="a_edge11_Node000009_Node000004"><a xlink:title=" ">
<path fill="none" stroke="#63b8ff" d="M221.79,-221.5C221.79,-213.46 221.79,-205.04 221.79,-197.73"/>
<polygon fill="#63b8ff" stroke="#63b8ff" points="218.29,-221.31 221.79,-231.31 225.29,-221.31 218.29,-221.31"/>
</a>
</g>
</g>
<!-- Node11&#45;&gt;Node2 -->
<g id="edge14_Node000011_Node000002" class="edge">
<title>Node11&#45;&gt;Node2</title>
<g id="a_edge14_Node000011_Node000002"><a xlink:title=" ">
<path fill="none" stroke="#63b8ff" d="M41.71,-470.07C32.83,-461.96 24.87,-452.48 19.79,-441.75 9.72,-420.46 6.35,-408.1 19.79,-388.75 40.08,-359.54 77.58,-345.57 110.01,-338.9"/>
<polygon fill="#63b8ff" stroke="#63b8ff" points="39.38,-472.68 49.28,-476.44 43.89,-467.32 39.38,-472.68"/>
</a>
</g>
</g>
<!-- Node11&#45;&gt;Node12 -->
<g id="edge15_Node000011_Node000012" class="edge">
<title>Node11&#45;&gt;Node12</title>
<g id="a_edge15_Node000011_Node000012"><a xlink:title=" ">
<path fill="none" stroke="#63b8ff" d="M94.79,-466.36C94.79,-458.16 94.79,-449.64 94.79,-442"/>
<polygon fill="#63b8ff" stroke="#63b8ff" points="91.29,-466.1 94.79,-476.1 98.29,-466.1 91.29,-466.1"/>
</a>
</g>
</g>
<!-- Node12&#45;&gt;Node2 -->
<g id="edge16_Node000012_Node000002" class="edge">
<title>Node12&#45;&gt;Node2</title>
<g id="a_edge16_Node000012_Node000002"><a xlink:title=" ">
<path fill="none" stroke="#63b8ff" d="M126.17,-380.2C134.69,-370.96 143.64,-361.25 151.2,-353.04"/>
<polygon fill="#63b8ff" stroke="#63b8ff" points="123.75,-377.66 119.55,-387.39 128.9,-382.41 123.75,-377.66"/>
</a>
</g>
</g>
<!-- Node13&#45;&gt;Node2 -->
<g id="edge18_Node000013_Node000002" class="edge">
<title>Node13&#45;&gt;Node2</title>
<g id="a_edge18_Node000013_Node000002"><a xlink:title=" ">
<path fill="none" stroke="#63b8ff" d="M213.41,-380.2C204.89,-370.96 195.94,-361.25 188.38,-353.04"/>
<polygon fill="#63b8ff" stroke="#63b8ff" points="210.68,-382.41 220.04,-387.39 215.83,-377.66 210.68,-382.41"/>
</a>
</g>
</g>
<!-- Node14&#45;&gt;Node2 -->
<g id="edge20_Node000014_Node000002" class="edge">
<title>Node14&#45;&gt;Node2</title>
<g id="a_edge20_Node000014_Node000002"><a xlink:title=" ">
<path fill="none" stroke="#63b8ff" d="M340.62,-390.32C305.29,-378.44 263.08,-364.24 229.46,-352.94"/>
<polygon fill="#63b8ff" stroke="#63b8ff" points="339.32,-393.57 349.91,-393.44 341.55,-386.94 339.32,-393.57"/>
</a>
</g>
</g>
<!-- Node15&#45;&gt;Node2 -->
<g id="edge22_Node000015_Node000002" class="edge">
<title>Node15&#45;&gt;Node2</title>
<g id="a_edge22_Node000015_Node000002"><a xlink:title=" ">
<path fill="none" stroke="#63b8ff" d="M478.13,-470.85C488.45,-462.81 497.7,-453.15 503.79,-441.75 514.89,-420.97 519.01,-406.73 503.79,-388.75 469.32,-348.03 315.84,-336.96 229.43,-333.97"/>
<polygon fill="#63b8ff" stroke="#63b8ff" points="476.16,-467.96 470.07,-476.62 480.24,-473.65 476.16,-467.96"/>
</a>
</g>
</g>
<!-- Node15&#45;&gt;Node14 -->
<g id="edge23_Node000015_Node000014" class="edge">
<title>Node15&#45;&gt;Node14</title>
<g id="a_edge23_Node000015_Node000014"><a xlink:title=" ">
<path fill="none" stroke="#63b8ff" d="M411.79,-466.38C411.79,-456.13 411.79,-445.37 411.79,-436.46"/>
<polygon fill="#63b8ff" stroke="#63b8ff" points="408.29,-466.1 411.79,-476.1 415.29,-466.1 408.29,-466.1"/>
</a>
</g>
</g>
</g>
</svg>
