<?xml version="1.0" encoding="UTF-8" standalone="no"?>
<!DOCTYPE svg PUBLIC "-//W3C//DTD SVG 1.1//EN"
 "http://www.w3.org/Graphics/SVG/1.1/DTD/svg11.dtd">
<!-- Generated by graphviz version 12.2.1 (20241206.2353)
 -->
<!-- Title: /Users/ilariomazzieri/Desktop/vulpes/vulpes/quadrature/gauss.hpp Pages: 1 -->
<svg width="506pt" height="216pt"
 viewBox="0.00 0.00 506.25 215.50" xmlns="http://www.w3.org/2000/svg" xmlns:xlink="http://www.w3.org/1999/xlink">
<g id="graph0" class="graph" transform="scale(1 1) rotate(0) translate(4 211.5)">
<title>/Users/ilariomazzieri/Desktop/vulpes/vulpes/quadrature/gauss.hpp</title>
<!-- Node1 -->
<g id="Node000001" class="node">
<title>Node1</title>
<g id="a_Node000001"><a xlink:title=" ">
<polygon fill="#999999" stroke="#666666" points="345.12,-207.5 226.38,-207.5 226.38,-165.75 345.12,-165.75 345.12,-207.5"/>
<text text-anchor="start" x="234.38" y="-194" font-family="Helvetica,sans-Serif" font-size="10.00">/Users/ilariomazzieri</text>
<text text-anchor="start" x="234.38" y="-182.75" font-family="Helvetica,sans-Serif" font-size="10.00">/Desktop/vulpes/vulpes</text>
<text text-anchor="middle" x="285.75" y="-171.5" font-family="Helvetica,sans-Serif" font-size="10.00">/quadrature/gauss.hpp</text>
</a>
</g>
</g>
<!-- Node2 -->
<g id="Node000002" class="node">
<title>Node2</title>
<g id="a_Node000002"><a xlink:title=" ">
<polygon fill="#e0e0e0" stroke="#999999" points="53.5,-19.25 0,-19.25 0,0 53.5,0 53.5,-19.25"/>
<text text-anchor="middle" x="26.75" y="-5.75" font-family="Helvetica,sans-Serif" font-size="10.00">gmpxx.h</text>
</a>
</g>
</g>
<!-- Node1&#45;&gt;Node2 -->
<g id="edge1_Node000001_Node000002" class="edge">
<title>Node1&#45;&gt;Node2</title>
<g id="a_edge1_Node000001_Node000002"><a xlink:title=" ">
<path fill="none" stroke="#63b8ff" d="M255.79,-165.38C203.31,-129.92 95.93,-57.37 49.25,-25.83"/>
<polygon fill="#63b8ff" stroke="#63b8ff" points="51.5,-23.12 41.25,-20.43 47.58,-28.92 51.5,-23.12"/>
</a>
</g>
</g>
<!-- Node3 -->
<g id="Node000003" class="node">
<title>Node3</title>
<g id="a_Node000003"><a xlink:title=" ">
<polygon fill="#e0e0e0" stroke="#999999" points="409.88,-19.25 361.62,-19.25 361.62,0 409.88,0 409.88,-19.25"/>
<text text-anchor="middle" x="385.75" y="-5.75" font-family="Helvetica,sans-Serif" font-size="10.00">cstddef</text>
</a>
</g>
</g>
<!-- Node1&#45;&gt;Node3 -->
<g id="edge2_Node000001_Node000003" class="edge">
<title>Node1&#45;&gt;Node3</title>
<g id="a_edge2_Node000001_Node000003"><a xlink:title=" ">
<path fill="none" stroke="#63b8ff" d="M296.53,-165.43C304.69,-150.25 316.26,-128.98 326.75,-110.5 342.95,-81.98 362.41,-49.33 374.43,-29.35"/>
<polygon fill="#63b8ff" stroke="#63b8ff" points="377.33,-31.32 379.5,-20.95 371.34,-27.71 377.33,-31.32"/>
</a>
</g>
</g>
<!-- Node4 -->
<g id="Node000004" class="node">
<title>Node4</title>
<g id="a_Node000004"><a xlink:href="qrule_8hpp.html" target="_top" xlink:title=" ">
<polygon fill="white" stroke="#666666" points="471.75,-129.75 335.75,-129.75 335.75,-110.5 471.75,-110.5 471.75,-129.75"/>
<text text-anchor="middle" x="403.75" y="-116.25" font-family="Helvetica,sans-Serif" font-size="10.00">vulpes/quadrature/qrule.hpp</text>
</a>
</g>
</g>
<!-- Node1&#45;&gt;Node4 -->
<g id="edge3_Node000001_Node000004" class="edge">
<title>Node1&#45;&gt;Node4</title>
<g id="a_edge3_Node000001_Node000004"><a xlink:title=" ">
<path fill="none" stroke="#63b8ff" d="M322.76,-165.39C340.5,-155.7 361.34,-144.31 377.44,-135.51"/>
<polygon fill="#63b8ff" stroke="#63b8ff" points="378.83,-138.74 385.92,-130.87 375.47,-132.6 378.83,-138.74"/>
</a>
</g>
</g>
<!-- Node7 -->
<g id="Node000007" class="node">
<title>Node7</title>
<g id="a_Node000007"><a xlink:href="vmath_8hpp.html" target="_top" xlink:title=" ">
<polygon fill="white" stroke="#666666" points="279.88,-74.5 165.62,-74.5 165.62,-55.25 279.88,-55.25 279.88,-74.5"/>
<text text-anchor="middle" x="222.75" y="-61" font-family="Helvetica,sans-Serif" font-size="10.00">vulpes/utils/vmath.hpp</text>
</a>
</g>
</g>
<!-- Node1&#45;&gt;Node7 -->
<g id="edge14_Node000001_Node000007" class="edge">
<title>Node1&#45;&gt;Node7</title>
<g id="a_edge14_Node000001_Node000007"><a xlink:title=" ">
<path fill="none" stroke="#63b8ff" d="M275.06,-165.31C263.22,-142.81 244.29,-106.81 232.74,-84.86"/>
<polygon fill="#63b8ff" stroke="#63b8ff" points="235.91,-83.37 228.15,-76.14 229.71,-86.62 235.91,-83.37"/>
</a>
</g>
</g>
<!-- Node4&#45;&gt;Node3 -->
<g id="edge5_Node000004_Node000003" class="edge">
<title>Node4&#45;&gt;Node3</title>
<g id="a_edge5_Node000004_Node000003"><a xlink:title=" ">
<path fill="none" stroke="#63b8ff" d="M400.5,-110.03C397.46,-101.1 393.04,-87.04 390.75,-74.5 388.11,-60.04 386.86,-43.5 386.27,-30.87"/>
<polygon fill="#63b8ff" stroke="#63b8ff" points="389.77,-30.76 385.92,-20.89 382.78,-31.01 389.77,-30.76"/>
</a>
</g>
</g>
<!-- Node5 -->
<g id="Node000005" class="node">
<title>Node5</title>
<g id="a_Node000005"><a xlink:title=" ">
<polygon fill="#e0e0e0" stroke="#999999" points="437.62,-74.5 399.88,-74.5 399.88,-55.25 437.62,-55.25 437.62,-74.5"/>
<text text-anchor="middle" x="418.75" y="-61" font-family="Helvetica,sans-Serif" font-size="10.00">array</text>
</a>
</g>
</g>
<!-- Node4&#45;&gt;Node5 -->
<g id="edge4_Node000004_Node000005" class="edge">
<title>Node4&#45;&gt;Node5</title>
<g id="a_edge4_Node000004_Node000005"><a xlink:title=" ">
<path fill="none" stroke="#63b8ff" d="M406.23,-110.33C408.1,-103.67 410.76,-94.24 413.14,-85.78"/>
<polygon fill="#63b8ff" stroke="#63b8ff" points="416.47,-86.89 415.81,-76.32 409.73,-84.99 416.47,-86.89"/>
</a>
</g>
</g>
<!-- Node6 -->
<g id="Node000006" class="node">
<title>Node6</title>
<g id="a_Node000006"><a xlink:title=" ">
<polygon fill="#e0e0e0" stroke="#999999" points="498.25,-74.5 455.25,-74.5 455.25,-55.25 498.25,-55.25 498.25,-74.5"/>
<text text-anchor="middle" x="476.75" y="-61" font-family="Helvetica,sans-Serif" font-size="10.00">vector</text>
</a>
</g>
</g>
<!-- Node4&#45;&gt;Node6 -->
<g id="edge6_Node000004_Node000006" class="edge">
<title>Node4&#45;&gt;Node6</title>
<g id="a_edge6_Node000004_Node000006"><a xlink:title=" ">
<path fill="none" stroke="#63b8ff" d="M416.13,-110.09C426.9,-102.24 442.72,-90.7 455.5,-81.37"/>
<polygon fill="#63b8ff" stroke="#63b8ff" points="457.31,-84.39 463.33,-75.67 453.19,-78.73 457.31,-84.39"/>
</a>
</g>
</g>
<!-- Node4&#45;&gt;Node7 -->
<g id="edge7_Node000004_Node000007" class="edge">
<title>Node4&#45;&gt;Node7</title>
<g id="a_edge7_Node000004_Node000007"><a xlink:title=" ">
<path fill="none" stroke="#63b8ff" d="M373.05,-110.09C343.14,-101.29 297.47,-87.86 264.33,-78.11"/>
<polygon fill="#63b8ff" stroke="#63b8ff" points="265.64,-74.84 255.06,-75.38 263.66,-81.56 265.64,-74.84"/>
</a>
</g>
</g>
<!-- Node7&#45;&gt;Node2 -->
<g id="edge8_Node000007_Node000002" class="edge">
<title>Node7&#45;&gt;Node2</title>
<g id="a_edge8_Node000007_Node000002"><a xlink:title=" ">
<path fill="none" stroke="#63b8ff" d="M189.5,-54.84C155.01,-45.47 101.14,-30.84 64.93,-21"/>
<polygon fill="#63b8ff" stroke="#63b8ff" points="65.87,-17.63 55.3,-18.38 64.03,-24.38 65.87,-17.63"/>
</a>
</g>
</g>
<!-- Node7&#45;&gt;Node3 -->
<g id="edge9_Node000007_Node000003" class="edge">
<title>Node7&#45;&gt;Node3</title>
<g id="a_edge9_Node000007_Node000003"><a xlink:title=" ">
<path fill="none" stroke="#63b8ff" d="M250.4,-54.84C277.95,-45.84 320.34,-31.99 350.34,-22.19"/>
<polygon fill="#63b8ff" stroke="#63b8ff" points="351.31,-25.56 359.73,-19.13 349.14,-18.9 351.31,-25.56"/>
</a>
</g>
</g>
<!-- Node8 -->
<g id="Node000008" class="node">
<title>Node8</title>
<g id="a_Node000008"><a xlink:title=" ">
<polygon fill="#e0e0e0" stroke="#999999" points="116.38,-19.25 71.12,-19.25 71.12,0 116.38,0 116.38,-19.25"/>
<text text-anchor="middle" x="93.75" y="-5.75" font-family="Helvetica,sans-Serif" font-size="10.00">cstdint</text>
</a>
</g>
</g>
<!-- Node7&#45;&gt;Node8 -->
<g id="edge10_Node000007_Node000008" class="edge">
<title>Node7&#45;&gt;Node8</title>
<g id="a_edge10_Node000007_Node000008"><a xlink:title=" ">
<path fill="none" stroke="#63b8ff" d="M200.87,-54.84C180.39,-46.39 149.54,-33.65 126.19,-24.02"/>
<polygon fill="#63b8ff" stroke="#63b8ff" points="127.72,-20.86 117.14,-20.28 125.05,-27.33 127.72,-20.86"/>
</a>
</g>
</g>
<!-- Node9 -->
<g id="Node000009" class="node">
<title>Node9</title>
<g id="a_Node000009"><a xlink:title=" ">
<polygon fill="#e0e0e0" stroke="#999999" points="173.38,-19.25 134.12,-19.25 134.12,0 173.38,0 173.38,-19.25"/>
<text text-anchor="middle" x="153.75" y="-5.75" font-family="Helvetica,sans-Serif" font-size="10.00">limits</text>
</a>
</g>
</g>
<!-- Node7&#45;&gt;Node9 -->
<g id="edge11_Node000007_Node000009" class="edge">
<title>Node7&#45;&gt;Node9</title>
<g id="a_edge11_Node000007_Node000009"><a xlink:title=" ">
<path fill="none" stroke="#63b8ff" d="M211.05,-54.84C200.97,-47.07 186.21,-35.67 174.19,-26.4"/>
<polygon fill="#63b8ff" stroke="#63b8ff" points="176.54,-23.79 166.48,-20.45 172.26,-29.33 176.54,-23.79"/>
</a>
</g>
</g>
<!-- Node10 -->
<g id="Node000010" class="node">
<title>Node10</title>
<g id="a_Node000010"><a xlink:title=" ">
<polygon fill="#e0e0e0" stroke="#999999" points="253.62,-19.25 191.88,-19.25 191.88,0 253.62,0 253.62,-19.25"/>
<text text-anchor="middle" x="222.75" y="-5.75" font-family="Helvetica,sans-Serif" font-size="10.00">type_traits</text>
</a>
</g>
</g>
<!-- Node7&#45;&gt;Node10 -->
<g id="edge12_Node000007_Node000010" class="edge">
<title>Node7&#45;&gt;Node10</title>
<g id="a_edge12_Node000007_Node000010"><a xlink:title=" ">
<path fill="none" stroke="#63b8ff" d="M222.75,-55.08C222.75,-48.57 222.75,-39.42 222.75,-31.12"/>
<polygon fill="#63b8ff" stroke="#63b8ff" points="226.25,-31.12 222.75,-21.12 219.25,-31.12 226.25,-31.12"/>
</a>
</g>
</g>
<!-- Node11 -->
<g id="Node000011" class="node">
<title>Node11</title>
<g id="a_Node000011"><a xlink:title=" ">
<polygon fill="#e0e0e0" stroke="#999999" points="343.88,-19.25 271.62,-19.25 271.62,0 343.88,0 343.88,-19.25"/>
<text text-anchor="middle" x="307.75" y="-5.75" font-family="Helvetica,sans-Serif" font-size="10.00">Eigen/Dense</text>
</a>
</g>
</g>
<!-- Node7&#45;&gt;Node11 -->
<g id="edge13_Node000007_Node000011" class="edge">
<title>Node7&#45;&gt;Node11</title>
<g id="a_edge13_Node000007_Node000011"><a xlink:title=" ">
<path fill="none" stroke="#63b8ff" d="M237.17,-54.84C249.87,-46.89 268.62,-35.14 283.61,-25.75"/>
<polygon fill="#63b8ff" stroke="#63b8ff" points="285.36,-28.78 291.98,-20.51 281.65,-22.85 285.36,-28.78"/>
</a>
</g>
</g>
</g>
</svg>
