<?xml version="1.0" encoding="UTF-8" standalone="no"?>
<!DOCTYPE svg PUBLIC "-//W3C//DTD SVG 1.1//EN"
 "http://www.w3.org/Graphics/SVG/1.1/DTD/svg11.dtd">
<!-- Generated by graphviz version 2.42.4 (0)
 -->
<!-- Title: /__w/vulpes/vulpes/vulpes/quadrature/gauss.cpp Pages: 1 -->
<!--zoomable 291 -->

<svg id="main" version="1.1" xmlns="http://www.w3.org/2000/svg" xmlns:xlink="http://www.w3.org/1999/xlink" xml:space="preserve" onload="init(evt)">
<style type="text/css"><![CDATA[
.node, .edge {opacity: 0.7;}
.node.selected, .edge.selected {opacity: 1;}
.edge:hover path { stroke: red; }
.edge:hover polygon { stroke: red; fill: red; }
]]></style>

<defs>
  <circle id="rim" cx="0" cy="0" r="7"/>
  <circle id="rim2" cx="0" cy="0" r="3.5"/>
  <g id="zoomPlus">
    <use xlink:href="#rim" fill="#404040"><set attributeName="fill" to="#808080" begin="zoomplus.mouseover" end="zoomplus.mouseout"/></use>
    <path d="M-4,0h8M0,-4v8" fill="none" stroke="white" stroke-width="1.5" pointer-events="none"/>
  </g>
  <g id="zoomMin">
    <use xlink:href="#rim" fill="#404040"><set attributeName="fill" to="#808080" begin="zoomminus.mouseover" end="zoomminus.mouseout"/></use>
    <path d="M-4,0h8" fill="none" stroke="white" stroke-width="1.5" pointer-events="none"/>
  </g>
  <g id="arrowUp" transform="translate(30 24)">
    <use xlink:href="#rim"/>
    <path pointer-events="none" fill="none" stroke="white" stroke-width="1.5" d="M0,-3.0v7 M-2.5,-0.5L0,-3.0L2.5,-0.5"/>
  </g>
  <g id="arrowRight" transform="rotate(90) translate(36 -43)">
    <use xlink:href="#rim"/>
    <path pointer-events="none" fill="none" stroke="white" stroke-width="1.5" d="M0,-3.0v7 M-2.5,-0.5L0,-3.0L2.5,-0.5"/>
  </g>
  <g id="arrowDown" transform="rotate(180) translate(-30 -48)">
    <use xlink:href="#rim"/>
    <path pointer-events="none" fill="none" stroke="white" stroke-width="1.5" d="M0,-3.0v7 M-2.5,-0.5L0,-3.0L2.5,-0.5"/>
  </g>
  <g id="arrowLeft" transform="rotate(270) translate(-36 17)">
    <use xlink:href="#rim"/>
    <path pointer-events="none" fill="none" stroke="white" stroke-width="1.5" d="M0,-3.0v7 M-2.5,-0.5L0,-3.0L2.5,-0.5"/>
  </g>
  <g id="resetDef">
    <use xlink:href="#rim2" fill="#404040"><set attributeName="fill" to="#808080" begin="reset.mouseover" end="reset.mouseout"/></use>
  </g>
</defs>
<script type="application/ecmascript">
var viewWidth = 860;
var viewHeight = 291;
var sectionId = 'dynsection-0';
</script>
<script type="application/ecmascript" xlink:href="svg.min.js"/>
<svg id="graph" class="graph">
<g id="viewport">
<title>/__w/vulpes/vulpes/vulpes/quadrature/gauss.cpp</title>
<!-- Node1 -->
<g id="Node000001" class="node">
<title>Node1</title>
<g id="a_Node000001"><a xlink:title=" ">
<polygon fill="#999999" stroke="#666666" points="604.5,-283 444.5,-283 444.5,-253 604.5,-253 604.5,-283"/>
<text text-anchor="start" x="452.5" y="-271" font-family="Helvetica,sans-Serif" font-size="10.00">/__w/vulpes/vulpes</text>
<text text-anchor="middle" x="524.5" y="-260" font-family="Helvetica,sans-Serif" font-size="10.00">/vulpes/quadrature/gauss.cpp</text>
</a>
</g>
</g>
<!-- Node2 -->
<g id="Node000002" class="node">
<title>Node2</title>
<g id="a_Node000002"><a xlink:href="gauss_8hpp.html" target="_top" xlink:title=" ">
<polygon fill="white" stroke="#666666" points="289.5,-211.5 131.5,-211.5 131.5,-192.5 289.5,-192.5 289.5,-211.5"/>
<text text-anchor="middle" x="210.5" y="-199.5" font-family="Helvetica,sans-Serif" font-size="10.00">vulpes/quadrature/gauss.hpp</text>
</a>
</g>
</g>
<!-- Node1&#45;&gt;Node2 -->
<g id="edge1_Node000001_Node000002" class="edge">
<title>Node1&#45;&gt;Node2</title>
<g id="a_edge1_Node000001_Node000002"><a xlink:title=" ">
<path fill="none" stroke="#63b8ff" d="M455.59,-252.95C397.25,-241.06 314.91,-224.28 262.11,-213.52"/>
<polygon fill="#63b8ff" stroke="#63b8ff" points="262.79,-210.09 252.29,-211.52 261.39,-216.94 262.79,-210.09"/>
</a>
</g>
</g>
<!-- Node3 -->
<g id="Node000003" class="node">
<title>Node3</title>
<g id="a_Node000003"><a xlink:title=" ">
<polygon fill="#e0e0e0" stroke="#999999" points="59,-19 0,-19 0,0 59,0 59,-19"/>
<text text-anchor="middle" x="29.5" y="-7" font-family="Helvetica,sans-Serif" font-size="10.00">gmpxx.h</text>
</a>
</g>
</g>
<!-- Node1&#45;&gt;Node3 -->
<g id="edge17_Node000001_Node000003" class="edge">
<title>Node1&#45;&gt;Node3</title>
<g id="a_edge17_Node000001_Node000003"><a xlink:title=" ">
<path fill="none" stroke="#63b8ff" d="M444.1,-267.36C335.33,-266.24 148.86,-258.13 96.5,-217 37.44,-170.61 29.73,-71.32 29.21,-29.6"/>
<polygon fill="#63b8ff" stroke="#63b8ff" points="32.71,-29.45 29.22,-19.44 25.71,-29.44 32.71,-29.45"/>
</a>
</g>
</g>
<!-- Node4 -->
<g id="Node000004" class="node">
<title>Node4</title>
<g id="a_Node000004"><a xlink:title=" ">
<polygon fill="#e0e0e0" stroke="#999999" points="256,-19 203,-19 203,0 256,0 256,-19"/>
<text text-anchor="middle" x="229.5" y="-7" font-family="Helvetica,sans-Serif" font-size="10.00">cstddef</text>
</a>
</g>
</g>
<!-- Node1&#45;&gt;Node4 -->
<g id="edge20_Node000001_Node000004" class="edge">
<title>Node1&#45;&gt;Node4</title>
<g id="a_edge20_Node000001_Node000004"><a xlink:title=" ">
<path fill="none" stroke="#63b8ff" d="M444.09,-262.39C333.15,-255.24 144.27,-239.85 122.5,-217 72.81,-164.86 77.69,-114.35 118.5,-55 135.14,-30.79 167.3,-19.75 192.74,-14.71"/>
<polygon fill="#63b8ff" stroke="#63b8ff" points="193.56,-18.12 202.81,-12.96 192.36,-11.23 193.56,-18.12"/>
</a>
</g>
</g>
<!-- Node7 -->
<g id="Node000007" class="node">
<title>Node7</title>
<g id="a_Node000007"><a xlink:title=" ">
<polygon fill="#e0e0e0" stroke="#999999" points="706,-19 659,-19 659,0 706,0 706,-19"/>
<text text-anchor="middle" x="682.5" y="-7" font-family="Helvetica,sans-Serif" font-size="10.00">vector</text>
</a>
</g>
</g>
<!-- Node1&#45;&gt;Node7 -->
<g id="edge22_Node000001_Node000007" class="edge">
<title>Node1&#45;&gt;Node7</title>
<g id="a_edge22_Node000001_Node000007"><a xlink:title=" ">
<path fill="none" stroke="#63b8ff" d="M604.62,-264.73C682.64,-260.63 793.33,-249.14 820.5,-217 849.1,-183.16 883.28,-162.54 793.5,-55 774.2,-31.89 741.15,-20.68 716.12,-15.31"/>
<polygon fill="#63b8ff" stroke="#63b8ff" points="716.77,-11.87 706.28,-13.4 715.44,-18.74 716.77,-11.87"/>
</a>
</g>
</g>
<!-- Node8 -->
<g id="Node000008" class="node">
<title>Node8</title>
<g id="a_Node000008"><a xlink:href="vmath_8hpp.html" target="_top" xlink:title=" ">
<polygon fill="white" stroke="#666666" points="404.5,-79.5 276.5,-79.5 276.5,-60.5 404.5,-60.5 404.5,-79.5"/>
<text text-anchor="middle" x="340.5" y="-67.5" font-family="Helvetica,sans-Serif" font-size="10.00">vulpes/utils/vmath.hpp</text>
</a>
</g>
</g>
<!-- Node1&#45;&gt;Node8 -->
<g id="edge37_Node000001_Node000008" class="edge">
<title>Node1&#45;&gt;Node8</title>
<g id="a_edge37_Node000001_Node000008"><a xlink:title=" ">
<path fill="none" stroke="#63b8ff" d="M472.52,-252.99C451.26,-245.18 427.67,-233.6 410.5,-217 372.88,-180.63 352.96,-119.96 344.89,-89.56"/>
<polygon fill="#63b8ff" stroke="#63b8ff" points="348.28,-88.67 342.44,-79.83 341.49,-90.38 348.28,-88.67"/>
</a>
</g>
</g>
<!-- Node13 -->
<g id="Node000013" class="node">
<title>Node13</title>
<g id="a_Node000013"><a xlink:title=" ">
<polygon fill="#e0e0e0" stroke="#999999" points="597,-211.5 550,-211.5 550,-192.5 597,-192.5 597,-211.5"/>
<text text-anchor="middle" x="573.5" y="-199.5" font-family="Helvetica,sans-Serif" font-size="10.00">gmp.h</text>
</a>
</g>
</g>
<!-- Node1&#45;&gt;Node13 -->
<g id="edge16_Node000001_Node000013" class="edge">
<title>Node1&#45;&gt;Node13</title>
<g id="a_edge16_Node000001_Node000013"><a xlink:title=" ">
<path fill="none" stroke="#63b8ff" d="M535.37,-252.8C542.79,-243.11 552.64,-230.24 560.48,-220.01"/>
<polygon fill="#63b8ff" stroke="#63b8ff" points="563.43,-221.91 566.73,-211.84 557.87,-217.66 563.43,-221.91"/>
</a>
</g>
</g>
<!-- Node14 -->
<g id="Node000014" class="node">
<title>Node14</title>
<g id="a_Node000014"><a xlink:title=" ">
<polygon fill="#e0e0e0" stroke="#999999" points="667.5,-211.5 615.5,-211.5 615.5,-192.5 667.5,-192.5 667.5,-211.5"/>
<text text-anchor="middle" x="641.5" y="-199.5" font-family="Helvetica,sans-Serif" font-size="10.00">cassert</text>
</a>
</g>
</g>
<!-- Node1&#45;&gt;Node14 -->
<g id="edge18_Node000001_Node000014" class="edge">
<title>Node1&#45;&gt;Node14</title>
<g id="a_edge18_Node000001_Node000014"><a xlink:title=" ">
<path fill="none" stroke="#63b8ff" d="M550.18,-252.95C570.06,-242.08 597.43,-227.11 617.01,-216.4"/>
<polygon fill="#63b8ff" stroke="#63b8ff" points="618.84,-219.39 625.93,-211.52 615.48,-213.25 618.84,-219.39"/>
</a>
</g>
</g>
<!-- Node15 -->
<g id="Node000015" class="node">
<title>Node15</title>
<g id="a_Node000015"><a xlink:title=" ">
<polygon fill="#e0e0e0" stroke="#999999" points="733,-211.5 686,-211.5 686,-192.5 733,-192.5 733,-211.5"/>
<text text-anchor="middle" x="709.5" y="-199.5" font-family="Helvetica,sans-Serif" font-size="10.00">cmath</text>
</a>
</g>
</g>
<!-- Node1&#45;&gt;Node15 -->
<g id="edge19_Node000001_Node000015" class="edge">
<title>Node1&#45;&gt;Node15</title>
<g id="a_edge19_Node000001_Node000015"><a xlink:title=" ">
<path fill="none" stroke="#63b8ff" d="M570.41,-253C600.75,-243.47 641.26,-230.24 676.5,-217 677.88,-216.48 679.29,-215.94 680.72,-215.38"/>
<polygon fill="#63b8ff" stroke="#63b8ff" points="682.13,-218.58 690.06,-211.56 679.48,-212.1 682.13,-218.58"/>
</a>
</g>
</g>
<!-- Node16 -->
<g id="Node000016" class="node">
<title>Node16</title>
<g id="a_Node000016"><a xlink:title=" ">
<polygon fill="#e0e0e0" stroke="#999999" points="811.5,-211.5 751.5,-211.5 751.5,-192.5 811.5,-192.5 811.5,-211.5"/>
<text text-anchor="middle" x="781.5" y="-199.5" font-family="Helvetica,sans-Serif" font-size="10.00">iostream</text>
</a>
</g>
</g>
<!-- Node1&#45;&gt;Node16 -->
<g id="edge21_Node000001_Node000016" class="edge">
<title>Node1&#45;&gt;Node16</title>
<g id="a_edge21_Node000001_Node000016"><a xlink:title=" ">
<path fill="none" stroke="#63b8ff" d="M595.74,-252.9C638.6,-243.87 694.06,-231.2 742.5,-217 744.77,-216.33 747.1,-215.61 749.44,-214.85"/>
<polygon fill="#63b8ff" stroke="#63b8ff" points="750.63,-218.14 758.97,-211.6 748.37,-211.52 750.63,-218.14"/>
</a>
</g>
</g>
<!-- Node17 -->
<g id="Node000017" class="node">
<title>Node17</title>
<g id="a_Node000017"><a xlink:href="polynomial1d_8hpp.html" target="_top" xlink:title=" ">
<polygon fill="white" stroke="#666666" points="531.5,-217 419.5,-217 419.5,-187 531.5,-187 531.5,-217"/>
<text text-anchor="start" x="427.5" y="-205" font-family="Helvetica,sans-Serif" font-size="10.00">vulpes/polynomials</text>
<text text-anchor="middle" x="475.5" y="-194" font-family="Helvetica,sans-Serif" font-size="10.00">/polynomial1d.hpp</text>
</a>
</g>
</g>
<!-- Node1&#45;&gt;Node17 -->
<g id="edge23_Node000001_Node000017" class="edge">
<title>Node1&#45;&gt;Node17</title>
<g id="a_edge23_Node000001_Node000017"><a xlink:title=" ">
<path fill="none" stroke="#63b8ff" d="M513.63,-252.8C507.41,-244.68 499.48,-234.31 492.46,-225.15"/>
<polygon fill="#63b8ff" stroke="#63b8ff" points="495.2,-222.98 486.34,-217.16 489.64,-227.23 495.2,-222.98"/>
</a>
</g>
</g>
<!-- Node2&#45;&gt;Node3 -->
<g id="edge2_Node000002_Node000003" class="edge">
<title>Node2&#45;&gt;Node3</title>
<g id="a_edge2_Node000002_Node000003"><a xlink:title=" ">
<path fill="none" stroke="#63b8ff" d="M187,-192.38C166.82,-184.1 137.84,-170.04 117.5,-151 78.57,-114.57 49.9,-57.29 37.03,-28.41"/>
<polygon fill="#63b8ff" stroke="#63b8ff" points="40.2,-26.93 33.01,-19.15 33.78,-29.72 40.2,-26.93"/>
</a>
</g>
</g>
<!-- Node2&#45;&gt;Node4 -->
<g id="edge3_Node000002_Node000004" class="edge">
<title>Node2&#45;&gt;Node4</title>
<g id="a_edge3_Node000002_Node000004"><a xlink:title=" ">
<path fill="none" stroke="#63b8ff" d="M180.96,-192.41C161.15,-184.95 136.56,-171.96 124.5,-151 117.85,-139.44 123.8,-134.31 124.5,-121 126.06,-91.54 114.24,-78.92 131.5,-55 145.94,-34.99 171.57,-23.78 193,-17.62"/>
<polygon fill="#63b8ff" stroke="#63b8ff" points="194.01,-20.97 202.8,-15.06 192.24,-14.2 194.01,-20.97"/>
</a>
</g>
</g>
<!-- Node5 -->
<g id="Node000005" class="node">
<title>Node5</title>
<g id="a_Node000005"><a xlink:href="qrule_8hpp.html" target="_top" xlink:title=" ">
<polygon fill="white" stroke="#666666" points="287.5,-145.5 133.5,-145.5 133.5,-126.5 287.5,-126.5 287.5,-145.5"/>
<text text-anchor="middle" x="210.5" y="-133.5" font-family="Helvetica,sans-Serif" font-size="10.00">vulpes/quadrature/qrule.hpp</text>
</a>
</g>
</g>
<!-- Node2&#45;&gt;Node5 -->
<g id="edge4_Node000002_Node000005" class="edge">
<title>Node2&#45;&gt;Node5</title>
<g id="a_edge4_Node000002_Node000005"><a xlink:title=" ">
<path fill="none" stroke="#63b8ff" d="M210.5,-192.37C210.5,-183.16 210.5,-168.29 210.5,-156.27"/>
<polygon fill="#63b8ff" stroke="#63b8ff" points="214,-155.91 210.5,-145.91 207,-155.91 214,-155.91"/>
</a>
</g>
</g>
<!-- Node2&#45;&gt;Node8 -->
<g id="edge15_Node000002_Node000008" class="edge">
<title>Node2&#45;&gt;Node8</title>
<g id="a_edge15_Node000002_Node000008"><a xlink:title=" ">
<path fill="none" stroke="#63b8ff" d="M232.1,-192.41C250.93,-184.07 278.04,-169.91 296.5,-151 314.02,-133.06 326.68,-106.75 333.81,-89.26"/>
<polygon fill="#63b8ff" stroke="#63b8ff" points="337.18,-90.25 337.52,-79.66 330.65,-87.73 337.18,-90.25"/>
</a>
</g>
</g>
<!-- Node5&#45;&gt;Node4 -->
<g id="edge6_Node000005_Node000004" class="edge">
<title>Node5&#45;&gt;Node4</title>
<g id="a_edge6_Node000005_Node000004"><a xlink:title=" ">
<path fill="none" stroke="#63b8ff" d="M211.81,-126.44C214.84,-106.54 222.44,-56.76 226.62,-29.35"/>
<polygon fill="#63b8ff" stroke="#63b8ff" points="230.14,-29.53 228.18,-19.12 223.22,-28.47 230.14,-29.53"/>
</a>
</g>
</g>
<!-- Node6 -->
<g id="Node000006" class="node">
<title>Node6</title>
<g id="a_Node000006"><a xlink:title=" ">
<polygon fill="#e0e0e0" stroke="#999999" points="182.5,-79.5 140.5,-79.5 140.5,-60.5 182.5,-60.5 182.5,-79.5"/>
<text text-anchor="middle" x="161.5" y="-67.5" font-family="Helvetica,sans-Serif" font-size="10.00">array</text>
</a>
</g>
</g>
<!-- Node5&#45;&gt;Node6 -->
<g id="edge5_Node000005_Node000006" class="edge">
<title>Node5&#45;&gt;Node6</title>
<g id="a_edge5_Node000005_Node000006"><a xlink:title=" ">
<path fill="none" stroke="#63b8ff" d="M203.89,-126.37C196.41,-116.59 184.03,-100.42 174.57,-88.08"/>
<polygon fill="#63b8ff" stroke="#63b8ff" points="177.18,-85.72 168.32,-79.91 171.62,-89.97 177.18,-85.72"/>
</a>
</g>
</g>
<!-- Node5&#45;&gt;Node7 -->
<g id="edge7_Node000005_Node000007" class="edge">
<title>Node5&#45;&gt;Node7</title>
<g id="a_edge7_Node000005_Node000007"><a xlink:title=" ">
<path fill="none" stroke="#63b8ff" d="M246.52,-126.46C287.16,-116.74 355.21,-100.25 413.5,-85 498.59,-62.74 598.24,-34.6 649.03,-20.1"/>
<polygon fill="#63b8ff" stroke="#63b8ff" points="650.16,-23.42 658.81,-17.31 648.24,-16.69 650.16,-23.42"/>
</a>
</g>
</g>
<!-- Node5&#45;&gt;Node8 -->
<g id="edge8_Node000005_Node000008" class="edge">
<title>Node5&#45;&gt;Node8</title>
<g id="a_edge8_Node000005_Node000008"><a xlink:title=" ">
<path fill="none" stroke="#63b8ff" d="M228.03,-126.37C250.03,-115.54 287.99,-96.85 313.65,-84.22"/>
<polygon fill="#63b8ff" stroke="#63b8ff" points="315.4,-87.26 322.83,-79.7 312.31,-80.98 315.4,-87.26"/>
</a>
</g>
</g>
<!-- Node8&#45;&gt;Node3 -->
<g id="edge9_Node000008_Node000003" class="edge">
<title>Node8&#45;&gt;Node3</title>
<g id="a_edge9_Node000008_Node000003"><a xlink:title=" ">
<path fill="none" stroke="#63b8ff" d="M295.28,-60.49C234.41,-49.04 127.1,-28.86 69.2,-17.97"/>
<polygon fill="#63b8ff" stroke="#63b8ff" points="69.8,-14.52 59.33,-16.11 68.51,-21.4 69.8,-14.52"/>
</a>
</g>
</g>
<!-- Node8&#45;&gt;Node4 -->
<g id="edge10_Node000008_Node000004" class="edge">
<title>Node8&#45;&gt;Node4</title>
<g id="a_edge10_Node000008_Node000004"><a xlink:title=" ">
<path fill="none" stroke="#63b8ff" d="M324.12,-60.37C305.92,-50.78 276.3,-35.17 255.05,-23.97"/>
<polygon fill="#63b8ff" stroke="#63b8ff" points="256.42,-20.73 245.95,-19.17 253.16,-26.93 256.42,-20.73"/>
</a>
</g>
</g>
<!-- Node9 -->
<g id="Node000009" class="node">
<title>Node9</title>
<g id="a_Node000009"><a xlink:title=" ">
<polygon fill="#e0e0e0" stroke="#999999" points="408.5,-19 358.5,-19 358.5,0 408.5,0 408.5,-19"/>
<text text-anchor="middle" x="383.5" y="-7" font-family="Helvetica,sans-Serif" font-size="10.00">cstdint</text>
</a>
</g>
</g>
<!-- Node8&#45;&gt;Node9 -->
<g id="edge11_Node000008_Node000009" class="edge">
<title>Node8&#45;&gt;Node9</title>
<g id="a_edge11_Node000008_Node000009"><a xlink:title=" ">
<path fill="none" stroke="#63b8ff" d="M346.84,-60.37C353.2,-51.73 363.14,-38.2 371.07,-27.42"/>
<polygon fill="#63b8ff" stroke="#63b8ff" points="374.03,-29.3 377.13,-19.17 368.39,-25.15 374.03,-29.3"/>
</a>
</g>
</g>
<!-- Node10 -->
<g id="Node000010" class="node">
<title>Node10</title>
<g id="a_Node000010"><a xlink:title=" ">
<polygon fill="#e0e0e0" stroke="#999999" points="340.5,-19 296.5,-19 296.5,0 340.5,0 340.5,-19"/>
<text text-anchor="middle" x="318.5" y="-7" font-family="Helvetica,sans-Serif" font-size="10.00">limits</text>
</a>
</g>
</g>
<!-- Node8&#45;&gt;Node10 -->
<g id="edge12_Node000008_Node000010" class="edge">
<title>Node8&#45;&gt;Node10</title>
<g id="a_edge12_Node000008_Node000010"><a xlink:title=" ">
<path fill="none" stroke="#63b8ff" d="M337.25,-60.37C334.13,-52.07 329.32,-39.28 325.35,-28.72"/>
<polygon fill="#63b8ff" stroke="#63b8ff" points="328.56,-27.3 321.76,-19.17 322,-29.76 328.56,-27.3"/>
</a>
</g>
</g>
<!-- Node11 -->
<g id="Node000011" class="node">
<title>Node11</title>
<g id="a_Node000011"><a xlink:title=" ">
<polygon fill="#e0e0e0" stroke="#999999" points="622,-19 553,-19 553,0 622,0 622,-19"/>
<text text-anchor="middle" x="587.5" y="-7" font-family="Helvetica,sans-Serif" font-size="10.00">type_traits</text>
</a>
</g>
</g>
<!-- Node8&#45;&gt;Node11 -->
<g id="edge13_Node000008_Node000011" class="edge">
<title>Node8&#45;&gt;Node11</title>
<g id="a_edge13_Node000008_Node000011"><a xlink:title=" ">
<path fill="none" stroke="#63b8ff" d="M376.42,-60.49C420.51,-50.05 495.29,-32.34 542.99,-21.04"/>
<polygon fill="#63b8ff" stroke="#63b8ff" points="543.81,-24.44 552.74,-18.73 542.2,-17.63 543.81,-24.44"/>
</a>
</g>
</g>
<!-- Node12 -->
<g id="Node000012" class="node">
<title>Node12</title>
<g id="a_Node000012"><a xlink:title=" ">
<polygon fill="#e0e0e0" stroke="#999999" points="531,-19 454,-19 454,0 531,0 531,-19"/>
<text text-anchor="middle" x="492.5" y="-7" font-family="Helvetica,sans-Serif" font-size="10.00">Eigen/Dense</text>
</a>
</g>
</g>
<!-- Node8&#45;&gt;Node12 -->
<g id="edge14_Node000008_Node000012" class="edge">
<title>Node8&#45;&gt;Node12</title>
<g id="a_edge14_Node000008_Node000012"><a xlink:title=" ">
<path fill="none" stroke="#63b8ff" d="M362.6,-60.49C388.49,-50.53 431.58,-33.95 460.97,-22.63"/>
<polygon fill="#63b8ff" stroke="#63b8ff" points="462.3,-25.88 470.37,-19.02 459.78,-19.34 462.3,-25.88"/>
</a>
</g>
</g>
<!-- Node17&#45;&gt;Node4 -->
<g id="edge24_Node000017_Node000004" class="edge">
<title>Node17&#45;&gt;Node4</title>
<g id="a_edge24_Node000017_Node000004"><a xlink:title=" ">
<path fill="none" stroke="#63b8ff" d="M435.34,-186.88C389.77,-169.14 315.56,-134.87 267.5,-85 251.96,-68.88 241.35,-45.14 235.38,-28.82"/>
<polygon fill="#63b8ff" stroke="#63b8ff" points="238.67,-27.64 232.11,-19.32 232.05,-29.91 238.67,-27.64"/>
</a>
</g>
</g>
<!-- Node17&#45;&gt;Node7 -->
<g id="edge26_Node000017_Node000007" class="edge">
<title>Node17&#45;&gt;Node7</title>
<g id="a_edge26_Node000017_Node000007"><a xlink:title=" ">
<path fill="none" stroke="#63b8ff" d="M531.82,-187.62C611.2,-167.46 749.49,-127.16 777.5,-85 784.88,-73.89 784.65,-66.25 777.5,-55 764.09,-33.9 737.75,-22.64 716.2,-16.72"/>
<polygon fill="#63b8ff" stroke="#63b8ff" points="716.94,-13.3 706.39,-14.3 715.26,-20.1 716.94,-13.3"/>
</a>
</g>
</g>
<!-- Node17&#45;&gt;Node8 -->
<g id="edge36_Node000017_Node000008" class="edge">
<title>Node17&#45;&gt;Node8</title>
<g id="a_edge36_Node000017_Node000008"><a xlink:title=" ">
<path fill="none" stroke="#63b8ff" d="M464.62,-186.96C451.46,-170.37 428.24,-142.35 405.5,-121 391.67,-108.02 374.63,-95 361.46,-85.51"/>
<polygon fill="#63b8ff" stroke="#63b8ff" points="363.24,-82.47 353.05,-79.54 359.18,-88.18 363.24,-82.47"/>
</a>
</g>
</g>
<!-- Node18 -->
<g id="Node000018" class="node">
<title>Node18</title>
<g id="a_Node000018"><a xlink:title=" ">
<polygon fill="#e0e0e0" stroke="#999999" points="768,-79.5 711,-79.5 711,-60.5 768,-60.5 768,-79.5"/>
<text text-anchor="middle" x="739.5" y="-67.5" font-family="Helvetica,sans-Serif" font-size="10.00">ostream</text>
</a>
</g>
</g>
<!-- Node17&#45;&gt;Node18 -->
<g id="edge25_Node000017_Node000018" class="edge">
<title>Node17&#45;&gt;Node18</title>
<g id="a_edge25_Node000017_Node000018"><a xlink:title=" ">
<path fill="none" stroke="#63b8ff" d="M504.84,-186.85C525.47,-176.87 553.7,-163.18 578.5,-151 625.98,-127.68 681.15,-100.18 713.02,-84.25"/>
<polygon fill="#63b8ff" stroke="#63b8ff" points="714.75,-87.3 722.13,-79.69 711.62,-81.04 714.75,-87.3"/>
</a>
</g>
</g>
<!-- Node19 -->
<g id="Node000019" class="node">
<title>Node19</title>
<g id="a_Node000019"><a xlink:href="polynomial_8hpp.html" target="_top" xlink:title=" ">
<polygon fill="white" stroke="#666666" points="569.5,-151 457.5,-151 457.5,-121 569.5,-121 569.5,-151"/>
<text text-anchor="start" x="465.5" y="-139" font-family="Helvetica,sans-Serif" font-size="10.00">vulpes/polynomials</text>
<text text-anchor="middle" x="513.5" y="-128" font-family="Helvetica,sans-Serif" font-size="10.00">/polynomial.hpp</text>
</a>
</g>
</g>
<!-- Node17&#45;&gt;Node19 -->
<g id="edge27_Node000017_Node000019" class="edge">
<title>Node17&#45;&gt;Node19</title>
<g id="a_edge27_Node000017_Node000019"><a xlink:title=" ">
<path fill="none" stroke="#63b8ff" d="M483.93,-186.8C488.61,-178.92 494.53,-168.95 499.85,-159.99"/>
<polygon fill="#63b8ff" stroke="#63b8ff" points="502.99,-161.55 505.09,-151.16 496.98,-157.98 502.99,-161.55"/>
</a>
</g>
</g>
<!-- Node19&#45;&gt;Node4 -->
<g id="edge28_Node000019_Node000004" class="edge">
<title>Node19&#45;&gt;Node4</title>
<g id="a_edge28_Node000019_Node000004"><a xlink:title=" ">
<path fill="none" stroke="#63b8ff" d="M499.98,-120.88C481.95,-102.87 448.23,-72.04 413.5,-55 387.78,-42.39 311.78,-26.32 265.89,-17.35"/>
<polygon fill="#63b8ff" stroke="#63b8ff" points="266.51,-13.9 256.03,-15.44 265.18,-20.78 266.51,-13.9"/>
</a>
</g>
</g>
<!-- Node19&#45;&gt;Node7 -->
<g id="edge30_Node000019_Node000007" class="edge">
<title>Node19&#45;&gt;Node7</title>
<g id="a_edge30_Node000019_Node000007"><a xlink:title=" ">
<path fill="none" stroke="#63b8ff" d="M569.81,-129.43C601.48,-123.42 639.38,-110.92 663.5,-85 677.54,-69.91 681.55,-45.93 682.53,-29.27"/>
<polygon fill="#63b8ff" stroke="#63b8ff" points="686.03,-29.19 682.81,-19.1 679.04,-29 686.03,-29.19"/>
</a>
</g>
</g>
<!-- Node19&#45;&gt;Node8 -->
<g id="edge35_Node000019_Node000008" class="edge">
<title>Node19&#45;&gt;Node8</title>
<g id="a_edge35_Node000019_Node000008"><a xlink:title=" ">
<path fill="none" stroke="#63b8ff" d="M475.53,-120.95C444.93,-109.63 402.33,-93.88 373.22,-83.1"/>
<polygon fill="#63b8ff" stroke="#63b8ff" points="374.12,-79.7 363.52,-79.52 371.69,-86.27 374.12,-79.7"/>
</a>
</g>
</g>
<!-- Node19&#45;&gt;Node12 -->
<g id="edge31_Node000019_Node000012" class="edge">
<title>Node19&#45;&gt;Node12</title>
<g id="a_edge31_Node000019_Node000012"><a xlink:title=" ">
<path fill="none" stroke="#63b8ff" d="M511.09,-120.72C507.28,-98.12 499.86,-54.12 495.64,-29.09"/>
<polygon fill="#63b8ff" stroke="#63b8ff" points="499.06,-28.35 493.95,-19.07 492.16,-29.51 499.06,-28.35"/>
</a>
</g>
</g>
<!-- Node19&#45;&gt;Node18 -->
<g id="edge29_Node000019_Node000018" class="edge">
<title>Node19&#45;&gt;Node18</title>
<g id="a_edge29_Node000019_Node000018"><a xlink:title=" ">
<path fill="none" stroke="#63b8ff" d="M567.74,-120.91C604.26,-111.25 653.43,-97.89 696.5,-85 698.94,-84.27 701.44,-83.5 703.96,-82.72"/>
<polygon fill="#63b8ff" stroke="#63b8ff" points="705.17,-86.01 713.64,-79.64 703.05,-79.33 705.17,-86.01"/>
</a>
</g>
</g>
<!-- Node20 -->
<g id="Node000020" class="node">
<title>Node20</title>
<g id="a_Node000020"><a xlink:href="tensor_8hpp.html" target="_top" xlink:title=" ">
<polygon fill="white" stroke="#666666" points="654,-85 537,-85 537,-55 654,-55 654,-85"/>
<text text-anchor="start" x="545" y="-73" font-family="Helvetica,sans-Serif" font-size="10.00">vulpes/datastructure</text>
<text text-anchor="middle" x="595.5" y="-62" font-family="Helvetica,sans-Serif" font-size="10.00">/tensor.hpp</text>
</a>
</g>
</g>
<!-- Node19&#45;&gt;Node20 -->
<g id="edge32_Node000019_Node000020" class="edge">
<title>Node19&#45;&gt;Node20</title>
<g id="a_edge32_Node000019_Node000020"><a xlink:title=" ">
<path fill="none" stroke="#63b8ff" d="M531.7,-120.8C542.74,-112.18 557.01,-101.04 569.26,-91.48"/>
<polygon fill="#63b8ff" stroke="#63b8ff" points="571.62,-94.08 577.35,-85.16 567.32,-88.56 571.62,-94.08"/>
</a>
</g>
</g>
<!-- Node20&#45;&gt;Node7 -->
<g id="edge34_Node000020_Node000007" class="edge">
<title>Node20&#45;&gt;Node7</title>
<g id="a_edge34_Node000020_Node000007"><a xlink:title=" ">
<path fill="none" stroke="#63b8ff" d="M616.56,-54.84C630.04,-45.77 647.49,-34.04 661.05,-24.92"/>
<polygon fill="#63b8ff" stroke="#63b8ff" points="663.37,-27.58 669.72,-19.09 659.47,-21.77 663.37,-27.58"/>
</a>
</g>
</g>
<!-- Node20&#45;&gt;Node11 -->
<g id="edge33_Node000020_Node000011" class="edge">
<title>Node20&#45;&gt;Node11</title>
<g id="a_edge33_Node000020_Node000011"><a xlink:title=" ">
<path fill="none" stroke="#63b8ff" d="M593.56,-54.84C592.52,-47.21 591.22,-37.7 590.09,-29.45"/>
<polygon fill="#63b8ff" stroke="#63b8ff" points="593.52,-28.7 588.7,-19.27 586.59,-29.65 593.52,-28.7"/>
</a>
</g>
</g>
</g>
</svg>

<g id="navigator" transform="translate(0 0)" fill="#404254">
  <rect fill="#f2f5e9" fill-opacity="0.5" stroke="#606060" stroke-width=".5" x="0" y="0" width="60" height="60"/>
  <use id="zoomplus" xlink:href="#zoomPlus" x="17" y="9" onmousedown="handleZoom(evt,'in')"/>
  <use id="zoomminus" xlink:href="#zoomMin" x="42" y="9" onmousedown="handleZoom(evt,'out')"/>
  <use id="reset" xlink:href="#resetDef" x="30" y="36" onmousedown="handleReset()"/>
   <use id="arrowup" xlink:href="#arrowUp" x="0" y="0" onmousedown="handlePan(0,-1)"/>
  <use id="arrowright" xlink:href="#arrowRight" x="0" y="0" onmousedown="handlePan(1,0)"/>
  <use id="arrowdown" xlink:href="#arrowDown" x="0" y="0" onmousedown="handlePan(0,1)"/>
  <use id="arrowleft" xlink:href="#arrowLeft" x="0" y="0" onmousedown="handlePan(-1,0)"/>
</g>
<svg viewBox="0 0 15 15" width="100%" height="30px" preserveAspectRatio="xMaxYMin meet">
 <g id="arrow_out" transform="scale(0.3 0.3)">
  <a xlink:href="gauss_8cpp__incl_org.svg" target="_base">
   <rect id="button" ry="5" rx="5" y="6" x="6" height="38" width="38"
        fill="#f2f5e9" fill-opacity="0.5" stroke="#606060" stroke-width="1.0"/>
   <path id="arrow"
     d="M 11.500037,31.436501 C 11.940474,20.09759 22.043105,11.32322 32.158766,21.979434 L 37.068811,17.246167 C 37.068811,17.246167 37.088388,32 37.088388,32 L 22.160133,31.978069 C 22.160133,31.978069 26.997745,27.140456 26.997745,27.140456 C 18.528582,18.264221 13.291696,25.230495 11.500037,31.436501 z"
     style="fill:#404040;"/>
  </a>
 </g>
</svg>

<style type='text/css'>
<![CDATA[
[data-mouse-over-selected='false'] { opacity: 0.7; }
[data-mouse-over-selected='true']  { opacity: 1.0; }
]]>
</style>
<script type="application/ecmascript"><![CDATA[
document.addEventListener('DOMContentLoaded', (event) => {
  highlightEdges();
  highlightAdjacentNodes();
});
]]></script>
</svg>
