<?xml version="1.0" encoding="UTF-8" standalone="no"?>
<!DOCTYPE svg PUBLIC "-//W3C//DTD SVG 1.1//EN"
 "http://www.w3.org/Graphics/SVG/1.1/DTD/svg11.dtd">
<!-- Generated by graphviz version 12.2.1 (20241206.2353)
 -->
<!-- Title: /Users/ilariomazzieri/Desktop/vulpes/vulpes/geometry/agglomeration/gnn_graph.hpp Pages: 1 -->
<svg width="272pt" height="239pt"
 viewBox="0.00 0.00 272.25 239.00" xmlns="http://www.w3.org/2000/svg" xmlns:xlink="http://www.w3.org/1999/xlink">
<g id="graph0" class="graph" transform="scale(1 1) rotate(0) translate(4 235)">
<title>/Users/ilariomazzieri/Desktop/vulpes/vulpes/geometry/agglomeration/gnn_graph.hpp</title>
<!-- Node1 -->
<g id="Node000001" class="node">
<title>Node1</title>
<g id="a_Node000001"><a xlink:title=" ">
<polygon fill="#999999" stroke="#666666" points="193.25,-231 70,-231 70,-178 193.25,-178 193.25,-231"/>
<text text-anchor="start" x="78" y="-217.5" font-family="Helvetica,sans-Serif" font-size="10.00">/Users/ilariomazzieri</text>
<text text-anchor="start" x="78" y="-206.25" font-family="Helvetica,sans-Serif" font-size="10.00">/Desktop/vulpes/vulpes</text>
<text text-anchor="start" x="78" y="-195" font-family="Helvetica,sans-Serif" font-size="10.00">/geometry/agglomeration</text>
<text text-anchor="middle" x="131.62" y="-183.75" font-family="Helvetica,sans-Serif" font-size="10.00">/gnn_graph.hpp</text>
</a>
</g>
</g>
<!-- Node2 -->
<g id="Node000002" class="node">
<title>Node2</title>
<g id="a_Node000002"><a xlink:href="gnn__agglomeration_8hpp.html" target="_top" xlink:title=" ">
<polygon fill="white" stroke="#666666" points="123.25,-142 0,-142 0,-89 123.25,-89 123.25,-142"/>
<text text-anchor="start" x="8" y="-128.5" font-family="Helvetica,sans-Serif" font-size="10.00">/Users/ilariomazzieri</text>
<text text-anchor="start" x="8" y="-117.25" font-family="Helvetica,sans-Serif" font-size="10.00">/Desktop/vulpes/vulpes</text>
<text text-anchor="start" x="8" y="-106" font-family="Helvetica,sans-Serif" font-size="10.00">/geometry/agglomeration</text>
<text text-anchor="middle" x="61.62" y="-94.75" font-family="Helvetica,sans-Serif" font-size="10.00">/gnn_agglomeration.hpp</text>
</a>
</g>
</g>
<!-- Node1&#45;&gt;Node2 -->
<g id="edge1_Node000001_Node000002" class="edge">
<title>Node1&#45;&gt;Node2</title>
<g id="a_edge1_Node000001_Node000002"><a xlink:title=" ">
<path fill="none" stroke="#63b8ff" d="M103.98,-169.15C96.77,-160.18 89.13,-150.68 82.34,-142.25"/>
<polygon fill="#63b8ff" stroke="#63b8ff" points="101.06,-171.09 110.05,-176.69 106.51,-166.7 101.06,-171.09"/>
</a>
</g>
</g>
<!-- Node4 -->
<g id="Node000004" class="node">
<title>Node4</title>
<g id="a_Node000004"><a xlink:href="gnn__graph_8cpp.html" target="_top" xlink:title=" ">
<polygon fill="white" stroke="#666666" points="264.25,-142 141,-142 141,-89 264.25,-89 264.25,-142"/>
<text text-anchor="start" x="149" y="-128.5" font-family="Helvetica,sans-Serif" font-size="10.00">/Users/ilariomazzieri</text>
<text text-anchor="start" x="149" y="-117.25" font-family="Helvetica,sans-Serif" font-size="10.00">/Desktop/vulpes/vulpes</text>
<text text-anchor="start" x="149" y="-106" font-family="Helvetica,sans-Serif" font-size="10.00">/geometry/agglomeration</text>
<text text-anchor="middle" x="202.62" y="-94.75" font-family="Helvetica,sans-Serif" font-size="10.00">/gnn_graph.cpp</text>
</a>
</g>
</g>
<!-- Node1&#45;&gt;Node4 -->
<g id="edge3_Node000001_Node000004" class="edge">
<title>Node1&#45;&gt;Node4</title>
<g id="a_edge3_Node000001_Node000004"><a xlink:title=" ">
<path fill="none" stroke="#63b8ff" d="M159.66,-169.15C166.97,-160.18 174.73,-150.68 181.61,-142.25"/>
<polygon fill="#63b8ff" stroke="#63b8ff" points="157.11,-166.73 153.5,-176.7 162.53,-171.16 157.11,-166.73"/>
</a>
</g>
</g>
<!-- Node3 -->
<g id="Node000003" class="node">
<title>Node3</title>
<g id="a_Node000003"><a xlink:href="gnn__agglomeration_8cpp.html" target="_top" xlink:title=" ">
<polygon fill="white" stroke="#666666" points="123.25,-53 0,-53 0,0 123.25,0 123.25,-53"/>
<text text-anchor="start" x="8" y="-39.5" font-family="Helvetica,sans-Serif" font-size="10.00">/Users/ilariomazzieri</text>
<text text-anchor="start" x="8" y="-28.25" font-family="Helvetica,sans-Serif" font-size="10.00">/Desktop/vulpes/vulpes</text>
<text text-anchor="start" x="8" y="-17" font-family="Helvetica,sans-Serif" font-size="10.00">/geometry/agglomeration</text>
<text text-anchor="middle" x="61.62" y="-5.75" font-family="Helvetica,sans-Serif" font-size="10.00">/gnn_agglomeration.cpp</text>
</a>
</g>
</g>
<!-- Node2&#45;&gt;Node3 -->
<g id="edge2_Node000002_Node000003" class="edge">
<title>Node2&#45;&gt;Node3</title>
<g id="a_edge2_Node000002_Node000003"><a xlink:title=" ">
<path fill="none" stroke="#63b8ff" d="M61.62,-77.61C61.62,-69.41 61.62,-60.89 61.62,-53.25"/>
<polygon fill="#63b8ff" stroke="#63b8ff" points="58.13,-77.35 61.63,-87.35 65.13,-77.35 58.13,-77.35"/>
</a>
</g>
</g>
</g>
</svg>
