<?xml version="1.0" encoding="UTF-8" standalone="no"?>
<!DOCTYPE svg PUBLIC "-//W3C//DTD SVG 1.1//EN"
 "http://www.w3.org/Graphics/SVG/1.1/DTD/svg11.dtd">
<!-- Generated by graphviz version 2.42.4 (0)
 -->
<!-- Title: /__w/vulpes/vulpes/vulpes/timeintegration/dae/imex.hpp Pages: 1 -->
<svg width="1452pt" height="445pt"
 viewBox="0.00 0.00 1451.50 445.00" xmlns="http://www.w3.org/2000/svg" xmlns:xlink="http://www.w3.org/1999/xlink">
<g id="graph0" class="graph" transform="scale(1 1) rotate(0) translate(4 441)">
<title>/__w/vulpes/vulpes/vulpes/timeintegration/dae/imex.hpp</title>
<!-- Node1 -->
<g id="Node000001" class="node">
<title>Node1</title>
<g id="a_Node000001"><a xlink:title=" ">
<polygon fill="#999999" stroke="#666666" points="809,-437 678,-437 678,-396 809,-396 809,-437"/>
<text text-anchor="start" x="686" y="-425" font-family="Helvetica,sans-Serif" font-size="10.00">/__w/vulpes/vulpes</text>
<text text-anchor="start" x="686" y="-414" font-family="Helvetica,sans-Serif" font-size="10.00">/vulpes/timeintegration</text>
<text text-anchor="middle" x="743.5" y="-403" font-family="Helvetica,sans-Serif" font-size="10.00">/dae/imex.hpp</text>
</a>
</g>
</g>
<!-- Node2 -->
<g id="Node000002" class="node">
<title>Node2</title>
<g id="a_Node000002"><a xlink:title=" ">
<polygon fill="#e0e0e0" stroke="#999999" points="98.5,-79.5 54.5,-79.5 54.5,-60.5 98.5,-60.5 98.5,-79.5"/>
<text text-anchor="middle" x="76.5" y="-67.5" font-family="Helvetica,sans-Serif" font-size="10.00">limits</text>
</a>
</g>
</g>
<!-- Node1&#45;&gt;Node2 -->
<g id="edge1_Node000001_Node000002" class="edge">
<title>Node1&#45;&gt;Node2</title>
<g id="a_edge1_Node000001_Node000002"><a xlink:title=" ">
<path fill="none" stroke="#63b8ff" d="M677.83,-414.2C514.59,-410.4 99.94,-397.17 50.5,-360 26.38,-341.87 26.5,-326.67 26.5,-296.5 26.5,-296.5 26.5,-296.5 26.5,-184.5 26.5,-147.55 48.97,-109.14 63.78,-87.83"/>
<polygon fill="#63b8ff" stroke="#63b8ff" points="66.74,-89.7 69.76,-79.55 61.07,-85.61 66.74,-89.7"/>
</a>
</g>
</g>
<!-- Node3 -->
<g id="Node000003" class="node">
<title>Node3</title>
<g id="a_Node000003"><a xlink:title=" ">
<polygon fill="#e0e0e0" stroke="#999999" points="501,-19 454,-19 454,0 501,0 501,-19"/>
<text text-anchor="middle" x="477.5" y="-7" font-family="Helvetica,sans-Serif" font-size="10.00">vector</text>
</a>
</g>
</g>
<!-- Node1&#45;&gt;Node3 -->
<g id="edge2_Node000001_Node000003" class="edge">
<title>Node1&#45;&gt;Node3</title>
<g id="a_edge2_Node000001_Node000003"><a xlink:title=" ">
<path fill="none" stroke="#63b8ff" d="M677.78,-410.85C507.37,-397.92 64.5,-358.36 64.5,-296.5 64.5,-296.5 64.5,-296.5 64.5,-184.5 64.5,-106.33 114.49,-91.71 183.5,-55 228.06,-31.29 376.07,-17.84 443.51,-12.81"/>
<polygon fill="#63b8ff" stroke="#63b8ff" points="443.89,-16.29 453.61,-12.07 443.38,-9.31 443.89,-16.29"/>
</a>
</g>
</g>
<!-- Node4 -->
<g id="Node000004" class="node">
<title>Node4</title>
<g id="a_Node000004"><a xlink:href="linear__solver_8hpp.html" target="_top" xlink:title=" ">
<polygon fill="white" stroke="#666666" points="1097,-360 950,-360 950,-341 1097,-341 1097,-360"/>
<text text-anchor="middle" x="1023.5" y="-348" font-family="Helvetica,sans-Serif" font-size="10.00">vulpes/la/linear_solver.hpp</text>
</a>
</g>
</g>
<!-- Node1&#45;&gt;Node4 -->
<g id="edge3_Node000001_Node000004" class="edge">
<title>Node1&#45;&gt;Node4</title>
<g id="a_edge3_Node000001_Node000004"><a xlink:title=" ">
<path fill="none" stroke="#63b8ff" d="M809.15,-400.49C860.39,-388.78 930.36,-372.79 976.21,-362.31"/>
<polygon fill="#63b8ff" stroke="#63b8ff" points="977.22,-365.67 986.19,-360.03 975.66,-358.85 977.22,-365.67"/>
</a>
</g>
</g>
<!-- Node28 -->
<g id="Node000028" class="node">
<title>Node28</title>
<g id="a_Node000028"><a xlink:href="sparse__matrix_8hpp.html" target="_top" xlink:title=" ">
<polygon fill="white" stroke="#666666" points="821,-305 666,-305 666,-286 821,-286 821,-305"/>
<text text-anchor="middle" x="743.5" y="-293" font-family="Helvetica,sans-Serif" font-size="10.00">vulpes/la/sparse_matrix.hpp</text>
</a>
</g>
</g>
<!-- Node1&#45;&gt;Node28 -->
<g id="edge71_Node000001_Node000028" class="edge">
<title>Node1&#45;&gt;Node28</title>
<g id="a_edge71_Node000001_Node000028"><a xlink:title=" ">
<path fill="none" stroke="#63b8ff" d="M743.5,-395.85C743.5,-373.48 743.5,-337.19 743.5,-315.21"/>
<polygon fill="#63b8ff" stroke="#63b8ff" points="747,-315.18 743.5,-305.18 740,-315.18 747,-315.18"/>
</a>
</g>
</g>
<!-- Node30 -->
<g id="Node000030" class="node">
<title>Node30</title>
<g id="a_Node000030"><a xlink:href="vector_8hpp.html" target="_top" xlink:title=" ">
<polygon fill="white" stroke="#666666" points="996,-250 881,-250 881,-231 996,-231 996,-250"/>
<text text-anchor="middle" x="938.5" y="-238" font-family="Helvetica,sans-Serif" font-size="10.00">vulpes/la/vector.hpp</text>
</a>
</g>
</g>
<!-- Node1&#45;&gt;Node30 -->
<g id="edge72_Node000001_Node000030" class="edge">
<title>Node1&#45;&gt;Node30</title>
<g id="a_edge72_Node000001_Node000030"><a xlink:title=" ">
<path fill="none" stroke="#63b8ff" d="M765.49,-395.88C804.59,-360.99 885.43,-288.86 921.02,-257.09"/>
<polygon fill="#63b8ff" stroke="#63b8ff" points="923.54,-259.54 928.67,-250.27 918.88,-254.32 923.54,-259.54"/>
</a>
</g>
</g>
<!-- Node5 -->
<g id="Node000005" class="node">
<title>Node5</title>
<g id="a_Node000005"><a xlink:title=" ">
<polygon fill="#e0e0e0" stroke="#999999" points="1151,-250 1080,-250 1080,-231 1151,-231 1151,-250"/>
<text text-anchor="middle" x="1115.5" y="-238" font-family="Helvetica,sans-Serif" font-size="10.00">petscmat.h</text>
</a>
</g>
</g>
<!-- Node4&#45;&gt;Node5 -->
<g id="edge4_Node000004_Node000005" class="edge">
<title>Node4&#45;&gt;Node5</title>
<g id="a_edge4_Node000004_Node000005"><a xlink:title=" ">
<path fill="none" stroke="#63b8ff" d="M1053.95,-340.9C1072.13,-334.14 1094.05,-322.83 1106.5,-305 1115.57,-292.02 1117.34,-273.87 1117.12,-260.3"/>
<polygon fill="#63b8ff" stroke="#63b8ff" points="1120.61,-259.99 1116.59,-250.19 1113.62,-260.36 1120.61,-259.99"/>
</a>
</g>
</g>
<!-- Node6 -->
<g id="Node000006" class="node">
<title>Node6</title>
<g id="a_Node000006"><a xlink:title=" ">
<polygon fill="#e0e0e0" stroke="#999999" points="1238.5,-140 1170.5,-140 1170.5,-121 1238.5,-121 1238.5,-140"/>
<text text-anchor="middle" x="1204.5" y="-128" font-family="Helvetica,sans-Serif" font-size="10.00">petscsys.h</text>
</a>
</g>
</g>
<!-- Node4&#45;&gt;Node6 -->
<g id="edge5_Node000004_Node000006" class="edge">
<title>Node4&#45;&gt;Node6</title>
<g id="a_edge5_Node000004_Node000006"><a xlink:title=" ">
<path fill="none" stroke="#63b8ff" d="M1069.77,-340.98C1137.91,-325.59 1262.36,-285.88 1310.5,-195 1326.01,-165.72 1284.21,-148.65 1248.61,-139.72"/>
<polygon fill="#63b8ff" stroke="#63b8ff" points="1249.32,-136.29 1238.79,-137.42 1247.72,-143.11 1249.32,-136.29"/>
</a>
</g>
</g>
<!-- Node7 -->
<g id="Node000007" class="node">
<title>Node7</title>
<g id="a_Node000007"><a xlink:href="boomer__amg_8hpp.html" target="_top" xlink:title=" ">
<polygon fill="white" stroke="#666666" points="1098,-305 949,-305 949,-286 1098,-286 1098,-305"/>
<text text-anchor="middle" x="1023.5" y="-293" font-family="Helvetica,sans-Serif" font-size="10.00">vulpes/la/boomer_amg.hpp</text>
</a>
</g>
</g>
<!-- Node4&#45;&gt;Node7 -->
<g id="edge6_Node000004_Node000007" class="edge">
<title>Node4&#45;&gt;Node7</title>
<g id="a_edge6_Node000004_Node000007"><a xlink:title=" ">
<path fill="none" stroke="#63b8ff" d="M1023.5,-340.75C1023.5,-333.8 1023.5,-323.85 1023.5,-315.13"/>
<polygon fill="#63b8ff" stroke="#63b8ff" points="1027,-315.09 1023.5,-305.09 1020,-315.09 1027,-315.09"/>
</a>
</g>
</g>
<!-- Node8 -->
<g id="Node000008" class="node">
<title>Node8</title>
<g id="a_Node000008"><a xlink:href="petsc__utils_8hpp.html" target="_top" xlink:title=" ">
<polygon fill="white" stroke="#666666" points="1301,-195 1164,-195 1164,-176 1301,-176 1301,-195"/>
<text text-anchor="middle" x="1232.5" y="-183" font-family="Helvetica,sans-Serif" font-size="10.00">vulpes/la/petsc_utils.hpp</text>
</a>
</g>
</g>
<!-- Node4&#45;&gt;Node8 -->
<g id="edge7_Node000004_Node000008" class="edge">
<title>Node4&#45;&gt;Node8</title>
<g id="a_edge7_Node000004_Node000008"><a xlink:title=" ">
<path fill="none" stroke="#63b8ff" d="M1050.84,-340.96C1072.13,-333.51 1101.79,-321.33 1124.5,-305 1165.38,-275.61 1202.41,-228.59 1220.62,-203.53"/>
<polygon fill="#63b8ff" stroke="#63b8ff" points="1223.69,-205.25 1226.65,-195.08 1217.99,-201.19 1223.69,-205.25"/>
</a>
</g>
</g>
<!-- Node4&#45;&gt;Node28 -->
<g id="edge36_Node000004_Node000028" class="edge">
<title>Node4&#45;&gt;Node28</title>
<g id="a_edge36_Node000004_Node000028"><a xlink:title=" ">
<path fill="none" stroke="#63b8ff" d="M978.51,-340.98C929.57,-331.72 851.3,-316.9 798.68,-306.94"/>
<polygon fill="#63b8ff" stroke="#63b8ff" points="799.32,-303.5 788.84,-305.08 798.01,-310.38 799.32,-303.5"/>
</a>
</g>
</g>
<!-- Node4&#45;&gt;Node30 -->
<g id="edge70_Node000004_Node000030" class="edge">
<title>Node4&#45;&gt;Node30</title>
<g id="a_edge70_Node000004_Node000030"><a xlink:title=" ">
<path fill="none" stroke="#63b8ff" d="M991.11,-340.9C972.93,-334.26 951.7,-323.06 940.5,-305 932.24,-291.67 932.53,-273.56 934.43,-260.09"/>
<polygon fill="#63b8ff" stroke="#63b8ff" points="937.91,-260.54 936.25,-250.07 931.02,-259.29 937.91,-260.54"/>
</a>
</g>
</g>
<!-- Node8&#45;&gt;Node6 -->
<g id="edge8_Node000008_Node000006" class="edge">
<title>Node8&#45;&gt;Node6</title>
<g id="a_edge8_Node000008_Node000006"><a xlink:title=" ">
<path fill="none" stroke="#63b8ff" d="M1227.88,-175.75C1224.04,-168.49 1218.48,-157.95 1213.74,-148.98"/>
<polygon fill="#63b8ff" stroke="#63b8ff" points="1216.8,-147.3 1209.04,-140.09 1210.61,-150.57 1216.8,-147.3"/>
</a>
</g>
</g>
<!-- Node9 -->
<g id="Node000009" class="node">
<title>Node9</title>
<g id="a_Node000009"><a xlink:title=" ">
<polygon fill="#e0e0e0" stroke="#999999" points="1443.5,-19 1399.5,-19 1399.5,0 1443.5,0 1443.5,-19"/>
<text text-anchor="middle" x="1421.5" y="-7" font-family="Helvetica,sans-Serif" font-size="10.00">string</text>
</a>
</g>
</g>
<!-- Node8&#45;&gt;Node9 -->
<g id="edge9_Node000008_Node000009" class="edge">
<title>Node8&#45;&gt;Node9</title>
<g id="a_edge9_Node000008_Node000009"><a xlink:title=" ">
<path fill="none" stroke="#63b8ff" d="M1251.1,-175.86C1281.57,-160.95 1342.6,-127.83 1381.5,-85 1396.72,-68.24 1408.12,-44.64 1414.78,-28.52"/>
<polygon fill="#63b8ff" stroke="#63b8ff" points="1418.06,-29.74 1418.46,-19.15 1411.54,-27.18 1418.06,-29.74"/>
</a>
</g>
</g>
<!-- Node10 -->
<g id="Node000010" class="node">
<title>Node10</title>
<g id="a_Node000010"><a xlink:href="mpi__wrappers_8hpp.html" target="_top" xlink:title=" ">
<polygon fill="white" stroke="#666666" points="1051.5,-140 885.5,-140 885.5,-121 1051.5,-121 1051.5,-140"/>
<text text-anchor="middle" x="968.5" y="-128" font-family="Helvetica,sans-Serif" font-size="10.00">vulpes/utils/mpi_wrappers.hpp</text>
</a>
</g>
</g>
<!-- Node8&#45;&gt;Node10 -->
<g id="edge10_Node000008_Node000010" class="edge">
<title>Node8&#45;&gt;Node10</title>
<g id="a_edge10_Node000008_Node000010"><a xlink:title=" ">
<path fill="none" stroke="#63b8ff" d="M1190.08,-175.98C1144.13,-166.76 1070.75,-152.03 1021.15,-142.07"/>
<polygon fill="#63b8ff" stroke="#63b8ff" points="1021.74,-138.62 1011.25,-140.08 1020.36,-145.48 1021.74,-138.62"/>
</a>
</g>
</g>
<!-- Node10&#45;&gt;Node3 -->
<g id="edge15_Node000010_Node000003" class="edge">
<title>Node10&#45;&gt;Node3</title>
<g id="a_edge15_Node000010_Node000003"><a xlink:title=" ">
<path fill="none" stroke="#63b8ff" d="M903.38,-120.99C845.07,-112.66 764.43,-99.19 735.5,-85 717.41,-76.13 719.61,-63.85 701.5,-55 626.7,-18.44 596.98,-36.36 511.14,-18.93"/>
<polygon fill="#63b8ff" stroke="#63b8ff" points="511.76,-15.48 501.25,-16.82 510.3,-22.33 511.76,-15.48"/>
</a>
</g>
</g>
<!-- Node11 -->
<g id="Node000011" class="node">
<title>Node11</title>
<g id="a_Node000011"><a xlink:title=" ">
<polygon fill="#e0e0e0" stroke="#999999" points="1019.5,-79.5 975.5,-79.5 975.5,-60.5 1019.5,-60.5 1019.5,-79.5"/>
<text text-anchor="middle" x="997.5" y="-67.5" font-family="Helvetica,sans-Serif" font-size="10.00">mpi.h</text>
</a>
</g>
</g>
<!-- Node10&#45;&gt;Node11 -->
<g id="edge11_Node000010_Node000011" class="edge">
<title>Node10&#45;&gt;Node11</title>
<g id="a_edge11_Node000010_Node000011"><a xlink:title=" ">
<path fill="none" stroke="#63b8ff" d="M972.78,-120.87C976.93,-112.49 983.37,-99.51 988.63,-88.89"/>
<polygon fill="#63b8ff" stroke="#63b8ff" points="991.9,-90.18 993.2,-79.67 985.63,-87.07 991.9,-90.18"/>
</a>
</g>
</g>
<!-- Node12 -->
<g id="Node000012" class="node">
<title>Node12</title>
<g id="a_Node000012"><a xlink:title=" ">
<polygon fill="#e0e0e0" stroke="#999999" points="1089.5,-79.5 1037.5,-79.5 1037.5,-60.5 1089.5,-60.5 1089.5,-79.5"/>
<text text-anchor="middle" x="1063.5" y="-67.5" font-family="Helvetica,sans-Serif" font-size="10.00">petsc.h</text>
</a>
</g>
</g>
<!-- Node10&#45;&gt;Node12 -->
<g id="edge12_Node000010_Node000012" class="edge">
<title>Node10&#45;&gt;Node12</title>
<g id="a_edge12_Node000010_Node000012"><a xlink:title=" ">
<path fill="none" stroke="#63b8ff" d="M982.52,-120.87C997.81,-111.45 1022.53,-96.23 1040.64,-85.08"/>
<polygon fill="#63b8ff" stroke="#63b8ff" points="1042.75,-87.89 1049.42,-79.67 1039.07,-81.93 1042.75,-87.89"/>
</a>
</g>
</g>
<!-- Node13 -->
<g id="Node000013" class="node">
<title>Node13</title>
<g id="a_Node000013"><a xlink:title=" ">
<polygon fill="#e0e0e0" stroke="#999999" points="1381.5,-19 1329.5,-19 1329.5,0 1381.5,0 1381.5,-19"/>
<text text-anchor="middle" x="1355.5" y="-7" font-family="Helvetica,sans-Serif" font-size="10.00">cassert</text>
</a>
</g>
</g>
<!-- Node10&#45;&gt;Node13 -->
<g id="edge13_Node000010_Node000013" class="edge">
<title>Node10&#45;&gt;Node13</title>
<g id="a_edge13_Node000010_Node000013"><a xlink:title=" ">
<path fill="none" stroke="#63b8ff" d="M1042.16,-120.98C1125.4,-110.99 1252.03,-94.6 1272.5,-85 1301.43,-71.44 1327.55,-44.41 1342.46,-26.91"/>
<polygon fill="#63b8ff" stroke="#63b8ff" points="1345.17,-29.12 1348.84,-19.18 1339.77,-24.66 1345.17,-29.12"/>
</a>
</g>
</g>
<!-- Node14 -->
<g id="Node000014" class="node">
<title>Node14</title>
<g id="a_Node000014"><a xlink:title=" ">
<polygon fill="#e0e0e0" stroke="#999999" points="579.5,-19 519.5,-19 519.5,0 579.5,0 579.5,-19"/>
<text text-anchor="middle" x="549.5" y="-7" font-family="Helvetica,sans-Serif" font-size="10.00">iostream</text>
</a>
</g>
</g>
<!-- Node10&#45;&gt;Node14 -->
<g id="edge14_Node000010_Node000014" class="edge">
<title>Node10&#45;&gt;Node14</title>
<g id="a_edge14_Node000010_Node000014"><a xlink:title=" ">
<path fill="none" stroke="#63b8ff" d="M905.83,-120.96C867.83,-114.31 819.03,-103.08 778.5,-85 757.22,-75.51 756.76,-64.54 735.5,-55 722.25,-49.05 640.25,-30.45 589.65,-19.27"/>
<polygon fill="#63b8ff" stroke="#63b8ff" points="590.19,-15.8 579.67,-17.07 588.68,-22.64 590.19,-15.8"/>
</a>
</g>
</g>
<!-- Node15 -->
<g id="Node000015" class="node">
<title>Node15</title>
<g id="a_Node000015"><a xlink:title=" ">
<polygon fill="#e0e0e0" stroke="#999999" points="693,-79.5 616,-79.5 616,-60.5 693,-60.5 693,-79.5"/>
<text text-anchor="middle" x="654.5" y="-67.5" font-family="Helvetica,sans-Serif" font-size="10.00">Eigen/Dense</text>
</a>
</g>
</g>
<!-- Node10&#45;&gt;Node15 -->
<g id="edge16_Node000010_Node000015" class="edge">
<title>Node10&#45;&gt;Node15</title>
<g id="a_edge16_Node000010_Node000015"><a xlink:title=" ">
<path fill="none" stroke="#63b8ff" d="M909.38,-120.96C856.3,-112.93 776.34,-99.93 707.5,-85 703.37,-84.1 699.07,-83.1 694.8,-82.04"/>
<polygon fill="#63b8ff" stroke="#63b8ff" points="695.49,-78.61 684.94,-79.54 693.77,-85.39 695.49,-78.61"/>
</a>
</g>
</g>
<!-- Node16 -->
<g id="Node000016" class="node">
<title>Node16</title>
<g id="a_Node000016"><a xlink:href="crs__map_8hpp.html" target="_top" xlink:title=" ">
<polygon fill="white" stroke="#666666" points="1263,-85 1146,-85 1146,-55 1263,-55 1263,-85"/>
<text text-anchor="start" x="1154" y="-73" font-family="Helvetica,sans-Serif" font-size="10.00">vulpes/datastructure</text>
<text text-anchor="middle" x="1204.5" y="-62" font-family="Helvetica,sans-Serif" font-size="10.00">/crs_map.hpp</text>
</a>
</g>
</g>
<!-- Node10&#45;&gt;Node16 -->
<g id="edge17_Node000010_Node000016" class="edge">
<title>Node10&#45;&gt;Node16</title>
<g id="a_edge17_Node000010_Node000016"><a xlink:title=" ">
<path fill="none" stroke="#63b8ff" d="M1002.82,-120.99C1038.12,-112.24 1094,-98.39 1138,-87.48"/>
<polygon fill="#63b8ff" stroke="#63b8ff" points="1138.9,-90.87 1147.76,-85.06 1137.21,-84.07 1138.9,-90.87"/>
</a>
</g>
</g>
<!-- Node22 -->
<g id="Node000022" class="node">
<title>Node22</title>
<g id="a_Node000022"><a xlink:href="profiler_8hpp.html" target="_top" xlink:title=" ">
<polygon fill="white" stroke="#666666" points="919,-79.5 788,-79.5 788,-60.5 919,-60.5 919,-79.5"/>
<text text-anchor="middle" x="853.5" y="-67.5" font-family="Helvetica,sans-Serif" font-size="10.00">vulpes/utils/profiler.hpp</text>
</a>
</g>
</g>
<!-- Node10&#45;&gt;Node22 -->
<g id="edge25_Node000010_Node000022" class="edge">
<title>Node10&#45;&gt;Node22</title>
<g id="a_edge25_Node000010_Node000022"><a xlink:title=" ">
<path fill="none" stroke="#63b8ff" d="M951.53,-120.87C932.59,-111.23 901.71,-95.53 879.67,-84.31"/>
<polygon fill="#63b8ff" stroke="#63b8ff" points="881.04,-81.08 870.54,-79.67 877.86,-87.32 881.04,-81.08"/>
</a>
</g>
</g>
<!-- Node16&#45;&gt;Node3 -->
<g id="edge24_Node000016_Node000003" class="edge">
<title>Node16&#45;&gt;Node3</title>
<g id="a_edge24_Node000016_Node000003"><a xlink:title=" ">
<path fill="none" stroke="#63b8ff" d="M1145.99,-60.53C1130.57,-58.5 1113.93,-56.49 1098.5,-55 841.2,-30.16 770.89,-59.09 511.29,-18.77"/>
<polygon fill="#63b8ff" stroke="#63b8ff" points="511.6,-15.27 501.18,-17.18 510.51,-22.19 511.6,-15.27"/>
</a>
</g>
</g>
<!-- Node16&#45;&gt;Node13 -->
<g id="edge20_Node000016_Node000013" class="edge">
<title>Node16&#45;&gt;Node13</title>
<g id="a_edge20_Node000016_Node000013"><a xlink:title=" ">
<path fill="none" stroke="#63b8ff" d="M1240.67,-54.99C1265.97,-45.18 1299.46,-32.21 1323.74,-22.81"/>
<polygon fill="#63b8ff" stroke="#63b8ff" points="1325.14,-26.02 1333.2,-19.14 1322.61,-19.49 1325.14,-26.02"/>
</a>
</g>
</g>
<!-- Node17 -->
<g id="Node000017" class="node">
<title>Node17</title>
<g id="a_Node000017"><a xlink:title=" ">
<polygon fill="#e0e0e0" stroke="#999999" points="1311.5,-19 1247.5,-19 1247.5,0 1311.5,0 1311.5,-19"/>
<text text-anchor="middle" x="1279.5" y="-7" font-family="Helvetica,sans-Serif" font-size="10.00">algorithm</text>
</a>
</g>
</g>
<!-- Node16&#45;&gt;Node17 -->
<g id="edge18_Node000016_Node000017" class="edge">
<title>Node16&#45;&gt;Node17</title>
<g id="a_edge18_Node000016_Node000017"><a xlink:title=" ">
<path fill="none" stroke="#63b8ff" d="M1222.66,-54.84C1233.99,-46 1248.56,-34.63 1260.12,-25.62"/>
<polygon fill="#63b8ff" stroke="#63b8ff" points="1262.53,-28.18 1268.26,-19.27 1258.22,-22.66 1262.53,-28.18"/>
</a>
</g>
</g>
<!-- Node18 -->
<g id="Node000018" class="node">
<title>Node18</title>
<g id="a_Node000018"><a xlink:title=" ">
<polygon fill="#e0e0e0" stroke="#999999" points="953.5,-19 911.5,-19 911.5,0 953.5,0 953.5,-19"/>
<text text-anchor="middle" x="932.5" y="-7" font-family="Helvetica,sans-Serif" font-size="10.00">array</text>
</a>
</g>
</g>
<!-- Node16&#45;&gt;Node18 -->
<g id="edge19_Node000016_Node000018" class="edge">
<title>Node16&#45;&gt;Node18</title>
<g id="a_edge19_Node000016_Node000018"><a xlink:title=" ">
<path fill="none" stroke="#63b8ff" d="M1145.55,-58.06C1098.69,-49.08 1031.27,-35.53 963.72,-19.16"/>
<polygon fill="#63b8ff" stroke="#63b8ff" points="964.3,-15.7 953.75,-16.73 962.64,-22.5 964.3,-15.7"/>
</a>
</g>
</g>
<!-- Node19 -->
<g id="Node000019" class="node">
<title>Node19</title>
<g id="a_Node000019"><a xlink:title=" ">
<polygon fill="#e0e0e0" stroke="#999999" points="1160,-19 1103,-19 1103,0 1160,0 1160,-19"/>
<text text-anchor="middle" x="1131.5" y="-7" font-family="Helvetica,sans-Serif" font-size="10.00">ostream</text>
</a>
</g>
</g>
<!-- Node16&#45;&gt;Node19 -->
<g id="edge21_Node000016_Node000019" class="edge">
<title>Node16&#45;&gt;Node19</title>
<g id="a_edge21_Node000016_Node000019"><a xlink:title=" ">
<path fill="none" stroke="#63b8ff" d="M1186.83,-54.84C1175.8,-46 1161.61,-34.63 1150.37,-25.62"/>
<polygon fill="#63b8ff" stroke="#63b8ff" points="1152.43,-22.79 1142.44,-19.27 1148.05,-28.25 1152.43,-22.79"/>
</a>
</g>
</g>
<!-- Node20 -->
<g id="Node000020" class="node">
<title>Node20</title>
<g id="a_Node000020"><a xlink:title=" ">
<polygon fill="#e0e0e0" stroke="#999999" points="1085,-19 1040,-19 1040,0 1085,0 1085,-19"/>
<text text-anchor="middle" x="1062.5" y="-7" font-family="Helvetica,sans-Serif" font-size="10.00">utility</text>
</a>
</g>
</g>
<!-- Node16&#45;&gt;Node20 -->
<g id="edge22_Node000016_Node000020" class="edge">
<title>Node16&#45;&gt;Node20</title>
<g id="a_edge22_Node000016_Node000020"><a xlink:title=" ">
<path fill="none" stroke="#63b8ff" d="M1170.49,-54.99C1146.9,-45.27 1115.76,-32.44 1092.98,-23.06"/>
<polygon fill="#63b8ff" stroke="#63b8ff" points="1094.05,-19.71 1083.47,-19.14 1091.38,-26.18 1094.05,-19.71"/>
</a>
</g>
</g>
<!-- Node21 -->
<g id="Node000021" class="node">
<title>Node21</title>
<g id="a_Node000021"><a xlink:title=" ">
<polygon fill="#e0e0e0" stroke="#999999" points="1229,-19 1178,-19 1178,0 1229,0 1229,-19"/>
<text text-anchor="middle" x="1203.5" y="-7" font-family="Helvetica,sans-Serif" font-size="10.00">variant</text>
</a>
</g>
</g>
<!-- Node16&#45;&gt;Node21 -->
<g id="edge23_Node000016_Node000021" class="edge">
<title>Node16&#45;&gt;Node21</title>
<g id="a_edge23_Node000016_Node000021"><a xlink:title=" ">
<path fill="none" stroke="#63b8ff" d="M1204.26,-54.84C1204.13,-47.21 1203.97,-37.7 1203.82,-29.45"/>
<polygon fill="#63b8ff" stroke="#63b8ff" points="1207.32,-29.2 1203.65,-19.27 1200.32,-29.32 1207.32,-29.2"/>
</a>
</g>
</g>
<!-- Node22&#45;&gt;Node3 -->
<g id="edge34_Node000022_Node000003" class="edge">
<title>Node22&#45;&gt;Node3</title>
<g id="a_edge34_Node000022_Node000003"><a xlink:title=" ">
<path fill="none" stroke="#63b8ff" d="M787.7,-61.54C720.55,-53.44 613.19,-39.17 511.09,-18.91"/>
<polygon fill="#63b8ff" stroke="#63b8ff" points="511.72,-15.47 501.22,-16.94 510.34,-22.33 511.72,-15.47"/>
</a>
</g>
</g>
<!-- Node22&#45;&gt;Node9 -->
<g id="edge31_Node000022_Node000009" class="edge">
<title>Node22&#45;&gt;Node9</title>
<g id="a_edge31_Node000022_Node000009"><a xlink:title=" ">
<path fill="none" stroke="#63b8ff" d="M918.88,-60.46C934.47,-58.55 951.07,-56.61 966.5,-55 1151.39,-35.71 1202.57,-51.58 1389.39,-18.87"/>
<polygon fill="#63b8ff" stroke="#63b8ff" points="1390.03,-22.31 1399.26,-17.12 1388.8,-15.42 1390.03,-22.31"/>
</a>
</g>
</g>
<!-- Node22&#45;&gt;Node14 -->
<g id="edge30_Node000022_Node000014" class="edge">
<title>Node22&#45;&gt;Node14</title>
<g id="a_edge30_Node000022_Node000014"><a xlink:title=" ">
<path fill="none" stroke="#63b8ff" d="M806.03,-60.46C755.01,-51.19 671.29,-35.7 589.66,-19.19"/>
<polygon fill="#63b8ff" stroke="#63b8ff" points="590.21,-15.73 579.72,-17.17 588.82,-22.59 590.21,-15.73"/>
</a>
</g>
</g>
<!-- Node22&#45;&gt;Node17 -->
<g id="edge26_Node000022_Node000017" class="edge">
<title>Node22&#45;&gt;Node17</title>
<g id="a_edge26_Node000022_Node000017"><a xlink:title=" ">
<path fill="none" stroke="#63b8ff" d="M919.23,-60.74C1013.95,-48.79 1182.65,-27.36 1237.22,-19.03"/>
<polygon fill="#63b8ff" stroke="#63b8ff" points="1237.99,-22.45 1247.31,-17.41 1236.89,-15.53 1237.99,-22.45"/>
</a>
</g>
</g>
<!-- Node22&#45;&gt;Node20 -->
<g id="edge33_Node000022_Node000020" class="edge">
<title>Node22&#45;&gt;Node20</title>
<g id="a_edge33_Node000022_Node000020"><a xlink:title=" ">
<path fill="none" stroke="#63b8ff" d="M883.89,-60.49C922.84,-49.59 990.1,-30.77 1030.03,-19.59"/>
<polygon fill="#63b8ff" stroke="#63b8ff" points="1031.11,-22.92 1039.8,-16.85 1029.22,-16.18 1031.11,-22.92"/>
</a>
</g>
</g>
<!-- Node23 -->
<g id="Node000023" class="node">
<title>Node23</title>
<g id="a_Node000023"><a xlink:title=" ">
<polygon fill="#e0e0e0" stroke="#999999" points="1021.5,-19 971.5,-19 971.5,0 1021.5,0 1021.5,-19"/>
<text text-anchor="middle" x="996.5" y="-7" font-family="Helvetica,sans-Serif" font-size="10.00">chrono</text>
</a>
</g>
</g>
<!-- Node22&#45;&gt;Node23 -->
<g id="edge27_Node000022_Node000023" class="edge">
<title>Node22&#45;&gt;Node23</title>
<g id="a_edge27_Node000022_Node000023"><a xlink:title=" ">
<path fill="none" stroke="#63b8ff" d="M874.29,-60.49C898.44,-50.62 938.48,-34.23 966.12,-22.93"/>
<polygon fill="#63b8ff" stroke="#63b8ff" points="967.75,-26.04 975.68,-19.02 965.1,-19.56 967.75,-26.04"/>
</a>
</g>
</g>
<!-- Node24 -->
<g id="Node000024" class="node">
<title>Node24</title>
<g id="a_Node000024"><a xlink:title=" ">
<polygon fill="#e0e0e0" stroke="#999999" points="53,-19 0,-19 0,0 53,0 53,-19"/>
<text text-anchor="middle" x="26.5" y="-7" font-family="Helvetica,sans-Serif" font-size="10.00">cstddef</text>
</a>
</g>
</g>
<!-- Node22&#45;&gt;Node24 -->
<g id="edge28_Node000022_Node000024" class="edge">
<title>Node22&#45;&gt;Node24</title>
<g id="a_edge28_Node000022_Node000024"><a xlink:title=" ">
<path fill="none" stroke="#63b8ff" d="M787.69,-62.56C760.96,-60.05 729.77,-57.23 701.5,-55 458.11,-35.77 164.88,-18.43 63.27,-12.59"/>
<polygon fill="#63b8ff" stroke="#63b8ff" points="63.39,-9.09 53.21,-12.01 62.99,-16.08 63.39,-9.09"/>
</a>
</g>
</g>
<!-- Node25 -->
<g id="Node000025" class="node">
<title>Node25</title>
<g id="a_Node000025"><a xlink:title=" ">
<polygon fill="#e0e0e0" stroke="#999999" points="893.5,-19 837.5,-19 837.5,0 893.5,0 893.5,-19"/>
<text text-anchor="middle" x="865.5" y="-7" font-family="Helvetica,sans-Serif" font-size="10.00">iomanip</text>
</a>
</g>
</g>
<!-- Node22&#45;&gt;Node25 -->
<g id="edge29_Node000022_Node000025" class="edge">
<title>Node22&#45;&gt;Node25</title>
<g id="a_edge29_Node000022_Node000025"><a xlink:title=" ">
<path fill="none" stroke="#63b8ff" d="M855.27,-60.37C856.95,-52.16 859.54,-39.54 861.69,-29.05"/>
<polygon fill="#63b8ff" stroke="#63b8ff" points="865.14,-29.67 863.72,-19.17 858.28,-28.26 865.14,-29.67"/>
</a>
</g>
</g>
<!-- Node26 -->
<g id="Node000026" class="node">
<title>Node26</title>
<g id="a_Node000026"><a xlink:title=" ">
<polygon fill="#e0e0e0" stroke="#999999" points="691,-19 598,-19 598,0 691,0 691,-19"/>
<text text-anchor="middle" x="644.5" y="-7" font-family="Helvetica,sans-Serif" font-size="10.00">unordered_map</text>
</a>
</g>
</g>
<!-- Node22&#45;&gt;Node26 -->
<g id="edge32_Node000022_Node000026" class="edge">
<title>Node22&#45;&gt;Node26</title>
<g id="a_edge32_Node000022_Node000026"><a xlink:title=" ">
<path fill="none" stroke="#63b8ff" d="M823.11,-60.49C786.58,-50.27 725.16,-33.08 684.73,-21.76"/>
<polygon fill="#63b8ff" stroke="#63b8ff" points="685.5,-18.34 674.93,-19.02 683.61,-25.08 685.5,-18.34"/>
</a>
</g>
</g>
<!-- Node27 -->
<g id="Node000027" class="node">
<title>Node27</title>
<g id="a_Node000027"><a xlink:title=" ">
<polygon fill="#e0e0e0" stroke="#999999" points="819.5,-19 709.5,-19 709.5,0 819.5,0 819.5,-19"/>
<text text-anchor="middle" x="764.5" y="-7" font-family="Helvetica,sans-Serif" font-size="10.00">nlohmann/json.hpp</text>
</a>
</g>
</g>
<!-- Node22&#45;&gt;Node27 -->
<g id="edge35_Node000022_Node000027" class="edge">
<title>Node22&#45;&gt;Node27</title>
<g id="a_edge35_Node000022_Node000027"><a xlink:title=" ">
<path fill="none" stroke="#63b8ff" d="M840.37,-60.37C826.17,-51.04 803.3,-36.01 786.38,-24.88"/>
<polygon fill="#63b8ff" stroke="#63b8ff" points="787.97,-21.74 777.69,-19.17 784.12,-27.58 787.97,-21.74"/>
</a>
</g>
</g>
<!-- Node28&#45;&gt;Node3 -->
<g id="edge44_Node000028_Node000003" class="edge">
<title>Node28&#45;&gt;Node3</title>
<g id="a_edge44_Node000028_Node000003"><a xlink:title=" ">
<path fill="none" stroke="#63b8ff" d="M697.7,-285.98C620.67,-270.34 473.5,-234.21 473.5,-186.5 473.5,-186.5 473.5,-186.5 473.5,-129.5 473.5,-94.13 475.29,-52.89 476.47,-29.42"/>
<polygon fill="#63b8ff" stroke="#63b8ff" points="479.98,-29.33 477.01,-19.16 472.99,-28.96 479.98,-29.33"/>
</a>
</g>
</g>
<!-- Node28&#45;&gt;Node5 -->
<g id="edge37_Node000028_Node000005" class="edge">
<title>Node28&#45;&gt;Node5</title>
<g id="a_edge37_Node000028_Node000005"><a xlink:title=" ">
<path fill="none" stroke="#63b8ff" d="M803.27,-285.98C877.45,-275.42 1002.35,-257.62 1069.49,-248.05"/>
<polygon fill="#63b8ff" stroke="#63b8ff" points="1070.35,-251.47 1079.76,-246.59 1069.36,-244.54 1070.35,-251.47"/>
</a>
</g>
</g>
<!-- Node28&#45;&gt;Node6 -->
<g id="edge38_Node000028_Node000006" class="edge">
<title>Node28&#45;&gt;Node6</title>
<g id="a_edge38_Node000028_Node000006"><a xlink:title=" ">
<path fill="none" stroke="#63b8ff" d="M746.46,-285.74C755.11,-260.72 780.94,-189.85 800.5,-176 815.05,-165.7 1058.32,-143.94 1160.19,-135.22"/>
<polygon fill="#63b8ff" stroke="#63b8ff" points="1160.5,-138.71 1170.17,-134.37 1159.91,-131.73 1160.5,-138.71"/>
</a>
</g>
</g>
<!-- Node28&#45;&gt;Node8 -->
<g id="edge45_Node000028_Node000008" class="edge">
<title>Node28&#45;&gt;Node8</title>
<g id="a_edge45_Node000028_Node000008"><a xlink:title=" ">
<path fill="none" stroke="#63b8ff" d="M804.51,-285.99C857.64,-278.14 936.58,-265.37 1004.5,-250 1034.69,-243.17 1041.69,-239.35 1071.5,-231 1112.2,-219.61 1158.73,-206.76 1191.27,-197.81"/>
<polygon fill="#63b8ff" stroke="#63b8ff" points="1192.6,-201.08 1201.32,-195.05 1190.75,-194.33 1192.6,-201.08"/>
</a>
</g>
</g>
<!-- Node28&#45;&gt;Node9 -->
<g id="edge42_Node000028_Node000009" class="edge">
<title>Node28&#45;&gt;Node9</title>
<g id="a_edge42_Node000028_Node000009"><a xlink:title=" ">
<path fill="none" stroke="#63b8ff" d="M743.21,-285.76C742.99,-263.17 745.9,-202.72 781.5,-176 831.5,-138.48 998.93,-150.8 1060.5,-140 1088.19,-135.14 1281.59,-95.92 1307.5,-85 1344.07,-69.58 1381.7,-42.35 1403.27,-25.43"/>
<polygon fill="#63b8ff" stroke="#63b8ff" points="1405.6,-28.05 1411.23,-19.08 1401.23,-22.58 1405.6,-28.05"/>
</a>
</g>
</g>
<!-- Node28&#45;&gt;Node10 -->
<g id="edge69_Node000028_Node000010" class="edge">
<title>Node28&#45;&gt;Node10</title>
<g id="a_edge69_Node000028_Node000010"><a xlink:title=" ">
<path fill="none" stroke="#63b8ff" d="M738.66,-285.84C727.42,-264.45 702.49,-208.5 729.5,-176 748.15,-153.56 816.36,-142.38 875.16,-136.84"/>
<polygon fill="#63b8ff" stroke="#63b8ff" points="875.61,-140.31 885.26,-135.94 874.99,-133.34 875.61,-140.31"/>
</a>
</g>
</g>
<!-- Node28&#45;&gt;Node14 -->
<g id="edge40_Node000028_Node000014" class="edge">
<title>Node28&#45;&gt;Node14</title>
<g id="a_edge40_Node000028_Node000014"><a xlink:title=" ">
<path fill="none" stroke="#63b8ff" d="M680.25,-285.97C623.63,-274.36 549.5,-247.5 549.5,-186.5 549.5,-186.5 549.5,-186.5 549.5,-129.5 549.5,-94.15 549.5,-52.9 549.5,-29.42"/>
<polygon fill="#63b8ff" stroke="#63b8ff" points="553,-29.16 549.5,-19.16 546,-29.16 553,-29.16"/>
</a>
</g>
</g>
<!-- Node28&#45;&gt;Node20 -->
<g id="edge43_Node000028_Node000020" class="edge">
<title>Node28&#45;&gt;Node20</title>
<g id="a_edge43_Node000028_Node000020"><a xlink:title=" ">
<path fill="none" stroke="#63b8ff" d="M735.83,-285.7C728.98,-277.21 719.45,-263.68 715.5,-250 711,-234.4 704.96,-193.2 716.5,-176 773.4,-91.19 839.46,-136.76 927.5,-85 946.35,-73.92 947.8,-66.33 966.5,-55 987.1,-42.51 1011.79,-31.14 1030.97,-23.02"/>
<polygon fill="#63b8ff" stroke="#63b8ff" points="1032.56,-26.15 1040.45,-19.08 1029.87,-19.69 1032.56,-26.15"/>
</a>
</g>
</g>
<!-- Node28&#45;&gt;Node24 -->
<g id="edge39_Node000028_Node000024" class="edge">
<title>Node28&#45;&gt;Node24</title>
<g id="a_edge39_Node000028_Node000024"><a xlink:title=" ">
<path fill="none" stroke="#63b8ff" d="M665.53,-288.55C553.38,-278.31 341.12,-252.62 169.5,-195 114.27,-176.46 93.85,-178.93 50.5,-140 20.35,-112.93 13.46,-95.32 17.5,-55 18.35,-46.47 20.11,-37.16 21.84,-29.27"/>
<polygon fill="#63b8ff" stroke="#63b8ff" points="25.3,-29.82 24.18,-19.29 18.49,-28.22 25.3,-29.82"/>
</a>
</g>
</g>
<!-- Node29 -->
<g id="Node000029" class="node">
<title>Node29</title>
<g id="a_Node000029"><a xlink:title=" ">
<polygon fill="#e0e0e0" stroke="#999999" points="867.5,-195 809.5,-195 809.5,-176 867.5,-176 867.5,-195"/>
<text text-anchor="middle" x="838.5" y="-183" font-family="Helvetica,sans-Serif" font-size="10.00">memory</text>
</a>
</g>
</g>
<!-- Node28&#45;&gt;Node29 -->
<g id="edge41_Node000028_Node000029" class="edge">
<title>Node28&#45;&gt;Node29</title>
<g id="a_edge41_Node000028_Node000029"><a xlink:title=" ">
<path fill="none" stroke="#63b8ff" d="M755.45,-285.76C766.54,-277.32 783.15,-263.82 795.5,-250 808.35,-235.62 820.42,-217.18 828.49,-203.88"/>
<polygon fill="#63b8ff" stroke="#63b8ff" points="831.52,-205.63 833.6,-195.24 825.5,-202.06 831.52,-205.63"/>
</a>
</g>
</g>
<!-- Node28&#45;&gt;Node30 -->
<g id="edge46_Node000028_Node000030" class="edge">
<title>Node28&#45;&gt;Node30</title>
<g id="a_edge46_Node000028_Node000030"><a xlink:title=" ">
<path fill="none" stroke="#63b8ff" d="M774.83,-285.98C807.99,-276.97 860.5,-262.7 897.06,-252.76"/>
<polygon fill="#63b8ff" stroke="#63b8ff" points="898.19,-256.08 906.92,-250.08 896.36,-249.33 898.19,-256.08"/>
</a>
</g>
</g>
<!-- Node32 -->
<g id="Node000032" class="node">
<title>Node32</title>
<g id="a_Node000032"><a xlink:href="qrule_8hpp.html" target="_top" xlink:title=" ">
<polygon fill="white" stroke="#666666" points="445.5,-195 291.5,-195 291.5,-176 445.5,-176 445.5,-195"/>
<text text-anchor="middle" x="368.5" y="-183" font-family="Helvetica,sans-Serif" font-size="10.00">vulpes/quadrature/qrule.hpp</text>
</a>
</g>
</g>
<!-- Node28&#45;&gt;Node32 -->
<g id="edge58_Node000028_Node000032" class="edge">
<title>Node28&#45;&gt;Node32</title>
<g id="a_edge58_Node000028_Node000032"><a xlink:title=" ">
<path fill="none" stroke="#63b8ff" d="M665.97,-291.77C607.42,-287.5 526.06,-276.77 459.5,-250 430.93,-238.51 402.56,-216.61 385.28,-201.78"/>
<polygon fill="#63b8ff" stroke="#63b8ff" points="387.55,-199.12 377.73,-195.15 382.93,-204.38 387.55,-199.12"/>
</a>
</g>
</g>
<!-- Node30&#45;&gt;Node3 -->
<g id="edge54_Node000030_Node000003" class="edge">
<title>Node30&#45;&gt;Node3</title>
<g id="a_edge54_Node000030_Node000003"><a xlink:title=" ">
<path fill="none" stroke="#63b8ff" d="M932.24,-230.84C922.03,-217.29 900.5,-191.09 876.5,-176 822.9,-142.3 664.2,-111.07 606.5,-85 567,-67.15 523.93,-40.74 498.9,-24.63"/>
<polygon fill="#63b8ff" stroke="#63b8ff" points="500.52,-21.52 490.23,-19 496.71,-27.39 500.52,-21.52"/>
</a>
</g>
</g>
<!-- Node30&#45;&gt;Node6 -->
<g id="edge47_Node000030_Node000006" class="edge">
<title>Node30&#45;&gt;Node6</title>
<g id="a_edge47_Node000030_Node000006"><a xlink:title=" ">
<path fill="none" stroke="#63b8ff" d="M995.28,-230.99C1031.19,-224.25 1077.94,-212.92 1116.5,-195 1143.27,-182.56 1170.24,-161.56 1187.13,-147.14"/>
<polygon fill="#63b8ff" stroke="#63b8ff" points="1189.76,-149.49 1194.99,-140.28 1185.16,-144.22 1189.76,-149.49"/>
</a>
</g>
</g>
<!-- Node30&#45;&gt;Node8 -->
<g id="edge56_Node000030_Node000008" class="edge">
<title>Node30&#45;&gt;Node8</title>
<g id="a_edge56_Node000030_Node000008"><a xlink:title=" ">
<path fill="none" stroke="#63b8ff" d="M985.74,-230.98C1037.23,-221.7 1119.66,-206.84 1174.91,-196.88"/>
<polygon fill="#63b8ff" stroke="#63b8ff" points="1175.67,-200.3 1184.89,-195.08 1174.43,-193.41 1175.67,-200.3"/>
</a>
</g>
</g>
<!-- Node30&#45;&gt;Node9 -->
<g id="edge52_Node000030_Node000009" class="edge">
<title>Node30&#45;&gt;Node9</title>
<g id="a_edge52_Node000030_Node000009"><a xlink:title=" ">
<path fill="none" stroke="#63b8ff" d="M996.31,-235.56C1098.17,-228.24 1301.55,-211.74 1329.5,-195 1380.47,-164.46 1381.92,-139.54 1405.5,-85 1413.28,-67 1417.42,-44.87 1419.52,-29.43"/>
<polygon fill="#63b8ff" stroke="#63b8ff" points="1423.04,-29.44 1420.76,-19.1 1416.09,-28.61 1423.04,-29.44"/>
</a>
</g>
</g>
<!-- Node30&#45;&gt;Node10 -->
<g id="edge57_Node000030_Node000010" class="edge">
<title>Node30&#45;&gt;Node10</title>
<g id="a_edge57_Node000030_Node000010"><a xlink:title=" ">
<path fill="none" stroke="#63b8ff" d="M940.96,-230.66C945.84,-213.09 956.85,-173.45 963.37,-149.95"/>
<polygon fill="#63b8ff" stroke="#63b8ff" points="966.79,-150.73 966.09,-140.16 960.05,-148.86 966.79,-150.73"/>
</a>
</g>
</g>
<!-- Node30&#45;&gt;Node15 -->
<g id="edge55_Node000030_Node000015" class="edge">
<title>Node30&#45;&gt;Node15</title>
<g id="a_edge55_Node000030_Node000015"><a xlink:title=" ">
<path fill="none" stroke="#63b8ff" d="M936.72,-230.93C933.52,-217.5 925.56,-191.47 909.5,-176 892.65,-159.77 752.87,-107.11 687.7,-83.11"/>
<polygon fill="#63b8ff" stroke="#63b8ff" points="688.88,-79.82 678.29,-79.65 686.47,-86.39 688.88,-79.82"/>
</a>
</g>
</g>
<!-- Node30&#45;&gt;Node17 -->
<g id="edge49_Node000030_Node000017" class="edge">
<title>Node30&#45;&gt;Node17</title>
<g id="a_edge49_Node000030_Node000017"><a xlink:title=" ">
<path fill="none" stroke="#63b8ff" d="M996.27,-234.6C1098.19,-225.67 1300.19,-206.61 1310.5,-195 1352.87,-147.26 1311.92,-64.09 1290.6,-28.02"/>
<polygon fill="#63b8ff" stroke="#63b8ff" points="1293.4,-25.87 1285.2,-19.16 1287.42,-29.52 1293.4,-25.87"/>
</a>
</g>
</g>
<!-- Node30&#45;&gt;Node20 -->
<g id="edge53_Node000030_Node000020" class="edge">
<title>Node30&#45;&gt;Node20</title>
<g id="a_edge53_Node000030_Node000020"><a xlink:title=" ">
<path fill="none" stroke="#63b8ff" d="M951.25,-230.93C974.6,-214.86 1025.08,-178.35 1060.5,-140 1080.66,-118.17 1089.65,-113.36 1098.5,-85 1102.47,-72.27 1102.95,-67.57 1098.5,-55 1094.75,-44.41 1087.29,-34.49 1080.13,-26.71"/>
<polygon fill="#63b8ff" stroke="#63b8ff" points="1082.19,-23.82 1072.66,-19.19 1077.22,-28.76 1082.19,-23.82"/>
</a>
</g>
</g>
<!-- Node30&#45;&gt;Node24 -->
<g id="edge50_Node000030_Node000024" class="edge">
<title>Node30&#45;&gt;Node24</title>
<g id="a_edge50_Node000030_Node000024"><a xlink:title=" ">
<path fill="none" stroke="#63b8ff" d="M880.99,-239.56C766.3,-238.8 501.3,-232.71 282.5,-195 193.34,-179.63 165.56,-183.99 86.5,-140 54.89,-122.41 41.07,-118.11 26.5,-85 18.71,-67.28 20.02,-44.81 22.47,-29.21"/>
<polygon fill="#63b8ff" stroke="#63b8ff" points="25.94,-29.7 24.33,-19.23 19.05,-28.41 25.94,-29.7"/>
</a>
</g>
</g>
<!-- Node30&#45;&gt;Node29 -->
<g id="edge51_Node000030_Node000029" class="edge">
<title>Node30&#45;&gt;Node29</title>
<g id="a_edge51_Node000030_Node000029"><a xlink:title=" ">
<path fill="none" stroke="#63b8ff" d="M922.43,-230.98C906.64,-222.61 882.28,-209.7 863.87,-199.95"/>
<polygon fill="#63b8ff" stroke="#63b8ff" points="865.33,-196.76 854.86,-195.17 862.06,-202.95 865.33,-196.76"/>
</a>
</g>
</g>
<!-- Node31 -->
<g id="Node000031" class="node">
<title>Node31</title>
<g id="a_Node000031"><a xlink:title=" ">
<polygon fill="#e0e0e0" stroke="#999999" points="1107,-195 1038,-195 1038,-176 1107,-176 1107,-195"/>
<text text-anchor="middle" x="1072.5" y="-183" font-family="Helvetica,sans-Serif" font-size="10.00">petscvec.h</text>
</a>
</g>
</g>
<!-- Node30&#45;&gt;Node31 -->
<g id="edge48_Node000030_Node000031" class="edge">
<title>Node30&#45;&gt;Node31</title>
<g id="a_edge48_Node000030_Node000031"><a xlink:title=" ">
<path fill="none" stroke="#63b8ff" d="M960.03,-230.98C981.97,-222.3 1016.24,-208.75 1041.19,-198.88"/>
<polygon fill="#63b8ff" stroke="#63b8ff" points="1042.57,-202.1 1050.58,-195.17 1039.99,-195.59 1042.57,-202.1"/>
</a>
</g>
</g>
<!-- Node32&#45;&gt;Node3 -->
<g id="edge61_Node000032_Node000003" class="edge">
<title>Node32&#45;&gt;Node3</title>
<g id="a_edge61_Node000032_Node000003"><a xlink:title=" ">
<path fill="none" stroke="#63b8ff" d="M374.06,-175.63C391.26,-148.17 443.87,-64.18 466.72,-27.71"/>
<polygon fill="#63b8ff" stroke="#63b8ff" points="469.74,-29.48 472.09,-19.14 463.81,-25.76 469.74,-29.48"/>
</a>
</g>
</g>
<!-- Node32&#45;&gt;Node18 -->
<g id="edge59_Node000032_Node000018" class="edge">
<title>Node32&#45;&gt;Node18</title>
<g id="a_edge59_Node000032_Node000018"><a xlink:title=" ">
<path fill="none" stroke="#63b8ff" d="M380.64,-175.69C414.44,-151.67 513.31,-84.82 606.5,-55 729.64,-15.6 770.58,-43.69 901.31,-18.91"/>
<polygon fill="#63b8ff" stroke="#63b8ff" points="902.16,-22.31 911.29,-16.95 900.81,-15.44 902.16,-22.31"/>
</a>
</g>
</g>
<!-- Node32&#45;&gt;Node24 -->
<g id="edge60_Node000032_Node000024" class="edge">
<title>Node32&#45;&gt;Node24</title>
<g id="a_edge60_Node000032_Node000024"><a xlink:title=" ">
<path fill="none" stroke="#63b8ff" d="M291.19,-181.47C217.82,-174.38 109.53,-152.25 45.5,-85 31.29,-70.08 27.31,-46.06 26.39,-29.34"/>
<polygon fill="#63b8ff" stroke="#63b8ff" points="29.88,-29.06 26.15,-19.14 22.88,-29.22 29.88,-29.06"/>
</a>
</g>
</g>
<!-- Node33 -->
<g id="Node000033" class="node">
<title>Node33</title>
<g id="a_Node000033"><a xlink:href="vmath_8hpp.html" target="_top" xlink:title=" ">
<polygon fill="white" stroke="#666666" points="373.5,-140 245.5,-140 245.5,-121 373.5,-121 373.5,-140"/>
<text text-anchor="middle" x="309.5" y="-128" font-family="Helvetica,sans-Serif" font-size="10.00">vulpes/utils/vmath.hpp</text>
</a>
</g>
</g>
<!-- Node32&#45;&gt;Node33 -->
<g id="edge62_Node000032_Node000033" class="edge">
<title>Node32&#45;&gt;Node33</title>
<g id="a_edge62_Node000032_Node000033"><a xlink:title=" ">
<path fill="none" stroke="#63b8ff" d="M359.02,-175.98C350.3,-168.15 337.16,-156.34 326.6,-146.86"/>
<polygon fill="#63b8ff" stroke="#63b8ff" points="328.93,-144.25 319.15,-140.17 324.25,-149.46 328.93,-144.25"/>
</a>
</g>
</g>
<!-- Node33&#45;&gt;Node2 -->
<g id="edge66_Node000033_Node000002" class="edge">
<title>Node33&#45;&gt;Node2</title>
<g id="a_edge66_Node000033_Node000002"><a xlink:title=" ">
<path fill="none" stroke="#63b8ff" d="M275.62,-120.99C230.75,-109.73 152.19,-90 108.36,-79"/>
<polygon fill="#63b8ff" stroke="#63b8ff" points="109.08,-75.57 98.53,-76.53 107.37,-82.36 109.08,-75.57"/>
</a>
</g>
</g>
<!-- Node33&#45;&gt;Node15 -->
<g id="edge68_Node000033_Node000015" class="edge">
<title>Node33&#45;&gt;Node15</title>
<g id="a_edge68_Node000033_Node000015"><a xlink:title=" ">
<path fill="none" stroke="#63b8ff" d="M359.67,-120.99C425.57,-109.82 540.55,-90.32 605.74,-79.27"/>
<polygon fill="#63b8ff" stroke="#63b8ff" points="606.49,-82.69 615.76,-77.57 605.32,-75.79 606.49,-82.69"/>
</a>
</g>
</g>
<!-- Node33&#45;&gt;Node24 -->
<g id="edge64_Node000033_Node000024" class="edge">
<title>Node33&#45;&gt;Node24</title>
<g id="a_edge64_Node000033_Node000024"><a xlink:title=" ">
<path fill="none" stroke="#63b8ff" d="M282.65,-120.91C256.93,-112.48 217.17,-98.89 183.5,-85 136.44,-65.59 83.21,-39.4 52.39,-23.8"/>
<polygon fill="#63b8ff" stroke="#63b8ff" points="53.7,-20.54 43.2,-19.13 50.53,-26.78 53.7,-20.54"/>
</a>
</g>
</g>
<!-- Node34 -->
<g id="Node000034" class="node">
<title>Node34</title>
<g id="a_Node000034"><a xlink:title=" ">
<polygon fill="#e0e0e0" stroke="#999999" points="339,-79.5 280,-79.5 280,-60.5 339,-60.5 339,-79.5"/>
<text text-anchor="middle" x="309.5" y="-67.5" font-family="Helvetica,sans-Serif" font-size="10.00">gmpxx.h</text>
</a>
</g>
</g>
<!-- Node33&#45;&gt;Node34 -->
<g id="edge63_Node000033_Node000034" class="edge">
<title>Node33&#45;&gt;Node34</title>
<g id="a_edge63_Node000033_Node000034"><a xlink:title=" ">
<path fill="none" stroke="#63b8ff" d="M309.5,-120.87C309.5,-112.75 309.5,-100.31 309.5,-89.89"/>
<polygon fill="#63b8ff" stroke="#63b8ff" points="313,-89.67 309.5,-79.67 306,-89.67 313,-89.67"/>
</a>
</g>
</g>
<!-- Node35 -->
<g id="Node000035" class="node">
<title>Node35</title>
<g id="a_Node000035"><a xlink:title=" ">
<polygon fill="#e0e0e0" stroke="#999999" points="407.5,-79.5 357.5,-79.5 357.5,-60.5 407.5,-60.5 407.5,-79.5"/>
<text text-anchor="middle" x="382.5" y="-67.5" font-family="Helvetica,sans-Serif" font-size="10.00">cstdint</text>
</a>
</g>
</g>
<!-- Node33&#45;&gt;Node35 -->
<g id="edge65_Node000033_Node000035" class="edge">
<title>Node33&#45;&gt;Node35</title>
<g id="a_edge65_Node000033_Node000035"><a xlink:title=" ">
<path fill="none" stroke="#63b8ff" d="M320.27,-120.87C331.7,-111.71 349.98,-97.06 363.78,-86.01"/>
<polygon fill="#63b8ff" stroke="#63b8ff" points="366.07,-88.65 371.68,-79.67 361.69,-83.19 366.07,-88.65"/>
</a>
</g>
</g>
<!-- Node36 -->
<g id="Node000036" class="node">
<title>Node36</title>
<g id="a_Node000036"><a xlink:title=" ">
<polygon fill="#e0e0e0" stroke="#999999" points="262,-79.5 193,-79.5 193,-60.5 262,-60.5 262,-79.5"/>
<text text-anchor="middle" x="227.5" y="-67.5" font-family="Helvetica,sans-Serif" font-size="10.00">type_traits</text>
</a>
</g>
</g>
<!-- Node33&#45;&gt;Node36 -->
<g id="edge67_Node000033_Node000036" class="edge">
<title>Node33&#45;&gt;Node36</title>
<g id="a_edge67_Node000033_Node000036"><a xlink:title=" ">
<path fill="none" stroke="#63b8ff" d="M297.4,-120.87C284.44,-111.62 263.64,-96.78 248.1,-85.69"/>
<polygon fill="#63b8ff" stroke="#63b8ff" points="249.82,-82.63 239.65,-79.67 245.76,-88.32 249.82,-82.63"/>
</a>
</g>
</g>
</g>
</svg>
