<?xml version="1.0" encoding="UTF-8" standalone="no"?>
<!DOCTYPE svg PUBLIC "-//W3C//DTD SVG 1.1//EN"
 "http://www.w3.org/Graphics/SVG/1.1/DTD/svg11.dtd">
<!-- Generated by graphviz version 12.2.1 (20241206.2353)
 -->
<!-- Title: /Users/ilariomazzieri/Desktop/vulpes/vulpes/timeintegration/dae/imex.hpp Pages: 1 -->
<svg width="1365pt" height="448pt"
 viewBox="0.00 0.00 1365.12 447.75" xmlns="http://www.w3.org/2000/svg" xmlns:xlink="http://www.w3.org/1999/xlink">
<g id="graph0" class="graph" transform="scale(1 1) rotate(0) translate(4 443.75)">
<title>/Users/ilariomazzieri/Desktop/vulpes/vulpes/timeintegration/dae/imex.hpp</title>
<!-- Node1 -->
<g id="Node000001" class="node">
<title>Node1</title>
<g id="a_Node000001"><a xlink:title=" ">
<polygon fill="#999999" stroke="#666666" points="773.25,-439.75 629,-439.75 629,-398 773.25,-398 773.25,-439.75"/>
<text text-anchor="start" x="637" y="-426.25" font-family="Helvetica,sans-Serif" font-size="10.00">/Users/ilariomazzieri</text>
<text text-anchor="start" x="637" y="-415" font-family="Helvetica,sans-Serif" font-size="10.00">/Desktop/vulpes/vulpes</text>
<text text-anchor="middle" x="701.12" y="-403.75" font-family="Helvetica,sans-Serif" font-size="10.00">/timeintegration/dae/imex.hpp</text>
</a>
</g>
</g>
<!-- Node2 -->
<g id="Node000002" class="node">
<title>Node2</title>
<g id="a_Node000002"><a xlink:title=" ">
<polygon fill="#e0e0e0" stroke="#999999" points="91.75,-80.12 52.5,-80.12 52.5,-60.88 91.75,-60.88 91.75,-80.12"/>
<text text-anchor="middle" x="72.12" y="-66.62" font-family="Helvetica,sans-Serif" font-size="10.00">limits</text>
</a>
</g>
</g>
<!-- Node1&#45;&gt;Node2 -->
<g id="edge1_Node000001_Node000002" class="edge">
<title>Node1&#45;&gt;Node2</title>
<g id="a_edge1_Node000001_Node000002"><a xlink:title=" ">
<path fill="none" stroke="#63b8ff" d="M628.77,-415.99C468.39,-411.21 93.58,-396.44 48.12,-362 23.95,-343.69 24.12,-328.45 24.12,-298.12 24.12,-298.12 24.12,-298.12 24.12,-185.62 24.12,-149.42 44.9,-111.45 59.12,-89.71"/>
<polygon fill="#63b8ff" stroke="#63b8ff" points="61.86,-91.91 64.6,-81.68 56.07,-87.97 61.86,-91.91"/>
</a>
</g>
</g>
<!-- Node3 -->
<g id="Node000003" class="node">
<title>Node3</title>
<g id="a_Node000003"><a xlink:title=" ">
<polygon fill="#e0e0e0" stroke="#999999" points="494.62,-19.25 451.62,-19.25 451.62,0 494.62,0 494.62,-19.25"/>
<text text-anchor="middle" x="473.12" y="-5.75" font-family="Helvetica,sans-Serif" font-size="10.00">vector</text>
</a>
</g>
</g>
<!-- Node1&#45;&gt;Node3 -->
<g id="edge2_Node000001_Node000003" class="edge">
<title>Node1&#45;&gt;Node3</title>
<g id="a_edge2_Node000001_Node000003"><a xlink:title=" ">
<path fill="none" stroke="#63b8ff" d="M628.76,-411.83C461.46,-396.88 62.12,-355.23 62.12,-298.12 62.12,-298.12 62.12,-298.12 62.12,-185.62 62.12,-21.65 342.48,-9.16 440.09,-9.78"/>
<polygon fill="#63b8ff" stroke="#63b8ff" points="439.76,-13.28 449.8,-9.9 439.85,-6.28 439.76,-13.28"/>
</a>
</g>
</g>
<!-- Node4 -->
<g id="Node000004" class="node">
<title>Node4</title>
<g id="a_Node000004"><a xlink:href="linear__solver_8hpp.html" target="_top" xlink:title=" ">
<polygon fill="white" stroke="#666666" points="1032.5,-362 901.75,-362 901.75,-342.75 1032.5,-342.75 1032.5,-362"/>
<text text-anchor="middle" x="967.12" y="-348.5" font-family="Helvetica,sans-Serif" font-size="10.00">vulpes/la/linear_solver.hpp</text>
</a>
</g>
</g>
<!-- Node1&#45;&gt;Node4 -->
<g id="edge3_Node000001_Node000004" class="edge">
<title>Node1&#45;&gt;Node4</title>
<g id="a_edge3_Node000001_Node000004"><a xlink:title=" ">
<path fill="none" stroke="#63b8ff" d="M773.46,-400.34C819.58,-389.15 878.1,-374.96 918.67,-365.12"/>
<polygon fill="#63b8ff" stroke="#63b8ff" points="919.25,-368.58 928.15,-362.83 917.6,-361.78 919.25,-368.58"/>
</a>
</g>
</g>
<!-- Node28 -->
<g id="Node000028" class="node">
<title>Node28</title>
<g id="a_Node000028"><a xlink:href="sparse__matrix_8hpp.html" target="_top" xlink:title=" ">
<polygon fill="white" stroke="#666666" points="770.25,-306.75 632,-306.75 632,-287.5 770.25,-287.5 770.25,-306.75"/>
<text text-anchor="middle" x="701.12" y="-293.25" font-family="Helvetica,sans-Serif" font-size="10.00">vulpes/la/sparse_matrix.hpp</text>
</a>
</g>
</g>
<!-- Node1&#45;&gt;Node28 -->
<g id="edge71_Node000001_Node000028" class="edge">
<title>Node1&#45;&gt;Node28</title>
<g id="a_edge71_Node000001_Node000028"><a xlink:title=" ">
<path fill="none" stroke="#63b8ff" d="M701.12,-397.56C701.12,-375.47 701.12,-340.38 701.12,-318.33"/>
<polygon fill="#63b8ff" stroke="#63b8ff" points="704.63,-318.57 701.13,-308.57 697.63,-318.57 704.63,-318.57"/>
</a>
</g>
</g>
<!-- Node30 -->
<g id="Node000030" class="node">
<title>Node30</title>
<g id="a_Node000030"><a xlink:href="vector_8hpp.html" target="_top" xlink:title=" ">
<polygon fill="white" stroke="#666666" points="941.62,-251.5 838.62,-251.5 838.62,-232.25 941.62,-232.25 941.62,-251.5"/>
<text text-anchor="middle" x="890.12" y="-238" font-family="Helvetica,sans-Serif" font-size="10.00">vulpes/la/vector.hpp</text>
</a>
</g>
</g>
<!-- Node1&#45;&gt;Node30 -->
<g id="edge72_Node000001_Node000030" class="edge">
<title>Node1&#45;&gt;Node30</title>
<g id="a_edge72_Node000001_Node000030"><a xlink:title=" ">
<path fill="none" stroke="#63b8ff" d="M722.81,-397.8C760.54,-362.86 837.6,-291.51 872.38,-259.3"/>
<polygon fill="#63b8ff" stroke="#63b8ff" points="874.57,-262.05 879.53,-252.69 869.81,-256.91 874.57,-262.05"/>
</a>
</g>
</g>
<!-- Node5 -->
<g id="Node000005" class="node">
<title>Node5</title>
<g id="a_Node000005"><a xlink:title=" ">
<polygon fill="#e0e0e0" stroke="#999999" points="1085.5,-251.5 1020.75,-251.5 1020.75,-232.25 1085.5,-232.25 1085.5,-251.5"/>
<text text-anchor="middle" x="1053.12" y="-238" font-family="Helvetica,sans-Serif" font-size="10.00">petscmat.h</text>
</a>
</g>
</g>
<!-- Node4&#45;&gt;Node5 -->
<g id="edge4_Node000004_Node000005" class="edge">
<title>Node4&#45;&gt;Node5</title>
<g id="a_edge4_Node000004_Node000005"><a xlink:title=" ">
<path fill="none" stroke="#63b8ff" d="M994.22,-342.34C1011,-335.3 1031.5,-323.83 1043.12,-306.75 1051.84,-293.95 1054.06,-276.4 1054.26,-262.94"/>
<polygon fill="#63b8ff" stroke="#63b8ff" points="1057.77,-262.99 1054.02,-253.08 1050.77,-263.16 1057.77,-262.99"/>
</a>
</g>
</g>
<!-- Node6 -->
<g id="Node000006" class="node">
<title>Node6</title>
<g id="a_Node000006"><a xlink:title=" ">
<polygon fill="#e0e0e0" stroke="#999999" points="1175.12,-141 1111.12,-141 1111.12,-121.75 1175.12,-121.75 1175.12,-141"/>
<text text-anchor="middle" x="1143.12" y="-127.5" font-family="Helvetica,sans-Serif" font-size="10.00">petscsys.h</text>
</a>
</g>
</g>
<!-- Node4&#45;&gt;Node6 -->
<g id="edge5_Node000004_Node000006" class="edge">
<title>Node4&#45;&gt;Node6</title>
<g id="a_edge5_Node000004_Node000006"><a xlink:title=" ">
<path fill="none" stroke="#63b8ff" d="M1011.02,-342.26C1076.31,-326 1196.24,-284.99 1242.12,-196.25 1256.35,-168.74 1219.13,-151.43 1186.34,-141.88"/>
<polygon fill="#63b8ff" stroke="#63b8ff" points="1187.49,-138.56 1176.93,-139.33 1185.66,-145.32 1187.49,-138.56"/>
</a>
</g>
</g>
<!-- Node7 -->
<g id="Node000007" class="node">
<title>Node7</title>
<g id="a_Node000007"><a xlink:href="boomer__amg_8hpp.html" target="_top" xlink:title=" ">
<polygon fill="white" stroke="#666666" points="1033.62,-306.75 900.62,-306.75 900.62,-287.5 1033.62,-287.5 1033.62,-306.75"/>
<text text-anchor="middle" x="967.12" y="-293.25" font-family="Helvetica,sans-Serif" font-size="10.00">vulpes/la/boomer_amg.hpp</text>
</a>
</g>
</g>
<!-- Node4&#45;&gt;Node7 -->
<g id="edge6_Node000004_Node000007" class="edge">
<title>Node4&#45;&gt;Node7</title>
<g id="a_edge6_Node000004_Node000007"><a xlink:title=" ">
<path fill="none" stroke="#63b8ff" d="M967.12,-342.58C967.12,-336.07 967.12,-326.92 967.12,-318.62"/>
<polygon fill="#63b8ff" stroke="#63b8ff" points="970.63,-318.62 967.13,-308.62 963.63,-318.62 970.63,-318.62"/>
</a>
</g>
</g>
<!-- Node8 -->
<g id="Node000008" class="node">
<title>Node8</title>
<g id="a_Node000008"><a xlink:href="petsc__utils_8hpp.html" target="_top" xlink:title=" ">
<polygon fill="white" stroke="#666666" points="1233.12,-196.25 1109.12,-196.25 1109.12,-177 1233.12,-177 1233.12,-196.25"/>
<text text-anchor="middle" x="1171.12" y="-182.75" font-family="Helvetica,sans-Serif" font-size="10.00">vulpes/la/petsc_utils.hpp</text>
</a>
</g>
</g>
<!-- Node4&#45;&gt;Node8 -->
<g id="edge7_Node000004_Node000008" class="edge">
<title>Node4&#45;&gt;Node8</title>
<g id="a_edge7_Node000004_Node000008"><a xlink:title=" ">
<path fill="none" stroke="#63b8ff" d="M992.51,-342.39C1012.29,-334.7 1039.88,-322.38 1061.12,-306.75 1101.58,-276.99 1139.08,-230.85 1158.09,-205.62"/>
<polygon fill="#63b8ff" stroke="#63b8ff" points="1160.82,-207.81 1163.95,-197.69 1155.19,-203.65 1160.82,-207.81"/>
</a>
</g>
</g>
<!-- Node4&#45;&gt;Node28 -->
<g id="edge36_Node000004_Node000028" class="edge">
<title>Node4&#45;&gt;Node28</title>
<g id="a_edge36_Node000004_Node000028"><a xlink:title=" ">
<path fill="none" stroke="#63b8ff" d="M921.7,-342.28C876.27,-333.19 806.31,-319.18 757.39,-309.39"/>
<polygon fill="#63b8ff" stroke="#63b8ff" points="758.34,-306.01 747.85,-307.48 756.96,-312.87 758.34,-306.01"/>
</a>
</g>
</g>
<!-- Node4&#45;&gt;Node30 -->
<g id="edge70_Node000004_Node000030" class="edge">
<title>Node4&#45;&gt;Node30</title>
<g id="a_edge70_Node000004_Node000030"><a xlink:title=" ">
<path fill="none" stroke="#63b8ff" d="M938.91,-342.39C922.2,-335.48 902.36,-324.11 892.12,-306.75 884.44,-293.71 884.38,-276.43 885.99,-263.14"/>
<polygon fill="#63b8ff" stroke="#63b8ff" points="889.43,-263.8 887.62,-253.37 882.53,-262.66 889.43,-263.8"/>
</a>
</g>
</g>
<!-- Node8&#45;&gt;Node6 -->
<g id="edge8_Node000008_Node000006" class="edge">
<title>Node8&#45;&gt;Node6</title>
<g id="a_edge8_Node000008_Node000006"><a xlink:title=" ">
<path fill="none" stroke="#63b8ff" d="M1166.5,-176.83C1162.88,-169.94 1157.7,-160.09 1153.13,-151.41"/>
<polygon fill="#63b8ff" stroke="#63b8ff" points="1156.31,-149.92 1148.55,-142.7 1150.11,-153.18 1156.31,-149.92"/>
</a>
</g>
</g>
<!-- Node9 -->
<g id="Node000009" class="node">
<title>Node9</title>
<g id="a_Node000009"><a xlink:title=" ">
<polygon fill="#e0e0e0" stroke="#999999" points="1357.12,-19.25 1317.12,-19.25 1317.12,0 1357.12,0 1357.12,-19.25"/>
<text text-anchor="middle" x="1337.12" y="-5.75" font-family="Helvetica,sans-Serif" font-size="10.00">string</text>
</a>
</g>
</g>
<!-- Node8&#45;&gt;Node9 -->
<g id="edge9_Node000008_Node000009" class="edge">
<title>Node8&#45;&gt;Node9</title>
<g id="a_edge9_Node000008_Node000009"><a xlink:title=" ">
<path fill="none" stroke="#63b8ff" d="M1191.47,-176.62C1222.26,-161.96 1280.56,-130.08 1313.12,-85.75 1325.15,-69.38 1331.3,-46.76 1334.34,-30.62"/>
<polygon fill="#63b8ff" stroke="#63b8ff" points="1337.79,-31.24 1335.93,-20.81 1330.88,-30.13 1337.79,-31.24"/>
</a>
</g>
</g>
<!-- Node10 -->
<g id="Node000010" class="node">
<title>Node10</title>
<g id="a_Node000010"><a xlink:href="mpi__wrappers_8hpp.html" target="_top" xlink:title=" ">
<polygon fill="white" stroke="#666666" points="997.12,-141 849.12,-141 849.12,-121.75 997.12,-121.75 997.12,-141"/>
<text text-anchor="middle" x="923.12" y="-127.5" font-family="Helvetica,sans-Serif" font-size="10.00">vulpes/utils/mpi_wrappers.hpp</text>
</a>
</g>
</g>
<!-- Node8&#45;&gt;Node10 -->
<g id="edge10_Node000008_Node000010" class="edge">
<title>Node8&#45;&gt;Node10</title>
<g id="a_edge10_Node000008_Node000010"><a xlink:title=" ">
<path fill="none" stroke="#63b8ff" d="M1128.77,-176.53C1086.69,-167.49 1022.01,-153.61 976.45,-143.82"/>
<polygon fill="#63b8ff" stroke="#63b8ff" points="977.29,-140.43 966.78,-141.75 975.82,-147.27 977.29,-140.43"/>
</a>
</g>
</g>
<!-- Node10&#45;&gt;Node3 -->
<g id="edge15_Node000010_Node000003" class="edge">
<title>Node10&#45;&gt;Node3</title>
<g id="a_edge15_Node000010_Node000003"><a xlink:title=" ">
<path fill="none" stroke="#63b8ff" d="M859.75,-121.28C805.34,-112.76 731.64,-99.35 705.12,-85.75 687.36,-76.63 689.86,-64.44 672.12,-55.25 607,-21.51 580.08,-36.37 505.83,-19.69"/>
<polygon fill="#63b8ff" stroke="#63b8ff" points="507.04,-16.38 496.5,-17.47 505.42,-23.19 507.04,-16.38"/>
</a>
</g>
</g>
<!-- Node11 -->
<g id="Node000011" class="node">
<title>Node11</title>
<g id="a_Node000011"><a xlink:title=" ">
<polygon fill="#e0e0e0" stroke="#999999" points="969.12,-80.12 929.12,-80.12 929.12,-60.88 969.12,-60.88 969.12,-80.12"/>
<text text-anchor="middle" x="949.12" y="-66.62" font-family="Helvetica,sans-Serif" font-size="10.00">mpi.h</text>
</a>
</g>
</g>
<!-- Node10&#45;&gt;Node11 -->
<g id="edge11_Node000010_Node000011" class="edge">
<title>Node10&#45;&gt;Node11</title>
<g id="a_edge11_Node000010_Node000011"><a xlink:title=" ">
<path fill="none" stroke="#63b8ff" d="M927.07,-121.43C930.62,-113.39 935.96,-101.3 940.5,-91.03"/>
<polygon fill="#63b8ff" stroke="#63b8ff" points="943.69,-92.47 944.53,-81.91 937.29,-89.64 943.69,-92.47"/>
</a>
</g>
</g>
<!-- Node12 -->
<g id="Node000012" class="node">
<title>Node12</title>
<g id="a_Node000012"><a xlink:title=" ">
<polygon fill="#e0e0e0" stroke="#999999" points="1035.25,-80.12 987,-80.12 987,-60.88 1035.25,-60.88 1035.25,-80.12"/>
<text text-anchor="middle" x="1011.12" y="-66.62" font-family="Helvetica,sans-Serif" font-size="10.00">petsc.h</text>
</a>
</g>
</g>
<!-- Node10&#45;&gt;Node12 -->
<g id="edge12_Node000010_Node000012" class="edge">
<title>Node10&#45;&gt;Node12</title>
<g id="a_edge12_Node000010_Node000012"><a xlink:title=" ">
<path fill="none" stroke="#63b8ff" d="M936.49,-121.43C950.19,-112.27 971.75,-97.84 988.18,-86.85"/>
<polygon fill="#63b8ff" stroke="#63b8ff" points="990.01,-89.84 996.38,-81.37 986.12,-84.02 990.01,-89.84"/>
</a>
</g>
</g>
<!-- Node13 -->
<g id="Node000013" class="node">
<title>Node13</title>
<g id="a_Node000013"><a xlink:title=" ">
<polygon fill="#e0e0e0" stroke="#999999" points="1299.25,-19.25 1251,-19.25 1251,0 1299.25,0 1299.25,-19.25"/>
<text text-anchor="middle" x="1275.12" y="-5.75" font-family="Helvetica,sans-Serif" font-size="10.00">cassert</text>
</a>
</g>
</g>
<!-- Node10&#45;&gt;Node13 -->
<g id="edge13_Node000010_Node000013" class="edge">
<title>Node10&#45;&gt;Node13</title>
<g id="a_edge13_Node000010_Node000013"><a xlink:title=" ">
<path fill="none" stroke="#63b8ff" d="M996.17,-121.25C1073.22,-111.24 1186,-95.32 1204.12,-85.75 1229.47,-72.38 1250.82,-46.46 1263.29,-28.85"/>
<polygon fill="#63b8ff" stroke="#63b8ff" points="1266,-31.09 1268.73,-20.85 1260.21,-27.16 1266,-31.09"/>
</a>
</g>
</g>
<!-- Node14 -->
<g id="Node000014" class="node">
<title>Node14</title>
<g id="a_Node000014"><a xlink:title=" ">
<polygon fill="#e0e0e0" stroke="#999999" points="565.88,-19.25 512.38,-19.25 512.38,0 565.88,0 565.88,-19.25"/>
<text text-anchor="middle" x="539.12" y="-5.75" font-family="Helvetica,sans-Serif" font-size="10.00">iostream</text>
</a>
</g>
</g>
<!-- Node10&#45;&gt;Node14 -->
<g id="edge14_Node000010_Node000014" class="edge">
<title>Node10&#45;&gt;Node14</title>
<g id="a_edge14_Node000010_Node000014"><a xlink:title=" ">
<path fill="none" stroke="#63b8ff" d="M865.76,-121.26C830.7,-114.36 785.55,-103.06 748.12,-85.75 726.86,-75.91 726.33,-65.23 705.12,-55.25 693.49,-49.77 622.25,-31.44 576.96,-20.04"/>
<polygon fill="#63b8ff" stroke="#63b8ff" points="578.07,-16.71 567.52,-17.68 576.37,-23.5 578.07,-16.71"/>
</a>
</g>
</g>
<!-- Node15 -->
<g id="Node000015" class="node">
<title>Node15</title>
<g id="a_Node000015"><a xlink:title=" ">
<polygon fill="#e0e0e0" stroke="#999999" points="663.25,-80.12 591,-80.12 591,-60.88 663.25,-60.88 663.25,-80.12"/>
<text text-anchor="middle" x="627.12" y="-66.62" font-family="Helvetica,sans-Serif" font-size="10.00">Eigen/Dense</text>
</a>
</g>
</g>
<!-- Node10&#45;&gt;Node15 -->
<g id="edge16_Node000010_Node000015" class="edge">
<title>Node10&#45;&gt;Node15</title>
<g id="a_edge16_Node000010_Node000015"><a xlink:title=" ">
<path fill="none" stroke="#63b8ff" d="M863.64,-121.26C813.61,-113.2 740.33,-100.45 677.12,-85.75 674.18,-85.06 671.14,-84.31 668.1,-83.53"/>
<polygon fill="#63b8ff" stroke="#63b8ff" points="669.17,-80.19 658.6,-80.97 667.35,-86.95 669.17,-80.19"/>
</a>
</g>
</g>
<!-- Node16 -->
<g id="Node000016" class="node">
<title>Node16</title>
<g id="a_Node000016"><a xlink:href="crs__map_8hpp.html" target="_top" xlink:title=" ">
<polygon fill="white" stroke="#666666" points="1195.38,-85.75 1090.88,-85.75 1090.88,-55.25 1195.38,-55.25 1195.38,-85.75"/>
<text text-anchor="start" x="1098.88" y="-72.25" font-family="Helvetica,sans-Serif" font-size="10.00">vulpes/datastructure</text>
<text text-anchor="middle" x="1143.12" y="-61" font-family="Helvetica,sans-Serif" font-size="10.00">/crs_map.hpp</text>
</a>
</g>
</g>
<!-- Node10&#45;&gt;Node16 -->
<g id="edge17_Node000010_Node000016" class="edge">
<title>Node10&#45;&gt;Node16</title>
<g id="a_edge17_Node000010_Node000016"><a xlink:title=" ">
<path fill="none" stroke="#63b8ff" d="M957.02,-121.3C989.63,-112.58 1039.74,-99.17 1079.76,-88.46"/>
<polygon fill="#63b8ff" stroke="#63b8ff" points="1080.54,-91.87 1089.29,-85.91 1078.73,-85.11 1080.54,-91.87"/>
</a>
</g>
</g>
<!-- Node22 -->
<g id="Node000022" class="node">
<title>Node22</title>
<g id="a_Node000022"><a xlink:href="profiler_8hpp.html" target="_top" xlink:title=" ">
<polygon fill="white" stroke="#666666" points="873,-80.12 757.25,-80.12 757.25,-60.88 873,-60.88 873,-80.12"/>
<text text-anchor="middle" x="815.12" y="-66.62" font-family="Helvetica,sans-Serif" font-size="10.00">vulpes/utils/profiler.hpp</text>
</a>
</g>
</g>
<!-- Node10&#45;&gt;Node22 -->
<g id="edge25_Node000010_Node000022" class="edge">
<title>Node10&#45;&gt;Node22</title>
<g id="a_edge25_Node000010_Node000022"><a xlink:title=" ">
<path fill="none" stroke="#63b8ff" d="M906.72,-121.43C889.44,-112.01 861.95,-97.02 841.59,-85.93"/>
<polygon fill="#63b8ff" stroke="#63b8ff" points="843.47,-82.96 833.01,-81.25 840.12,-89.11 843.47,-82.96"/>
</a>
</g>
</g>
<!-- Node16&#45;&gt;Node3 -->
<g id="edge24_Node000016_Node000003" class="edge">
<title>Node16&#45;&gt;Node3</title>
<g id="a_edge24_Node000016_Node000003"><a xlink:title=" ">
<path fill="none" stroke="#63b8ff" d="M1090.56,-61.17C1075.58,-59.01 1059.24,-56.84 1044.12,-55.25 808.1,-30.45 742.47,-59.86 505.98,-19.4"/>
<polygon fill="#63b8ff" stroke="#63b8ff" points="506.9,-16.01 496.45,-17.74 505.7,-22.9 506.9,-16.01"/>
</a>
</g>
</g>
<!-- Node16&#45;&gt;Node13 -->
<g id="edge20_Node000016_Node000013" class="edge">
<title>Node16&#45;&gt;Node13</title>
<g id="a_edge20_Node000016_Node000013"><a xlink:title=" ">
<path fill="none" stroke="#63b8ff" d="M1176.09,-54.8C1197.07,-45.44 1224.03,-33.41 1244.53,-24.27"/>
<polygon fill="#63b8ff" stroke="#63b8ff" points="1245.79,-27.54 1253.5,-20.27 1242.94,-21.15 1245.79,-27.54"/>
</a>
</g>
</g>
<!-- Node17 -->
<g id="Node000017" class="node">
<title>Node17</title>
<g id="a_Node000017"><a xlink:title=" ">
<polygon fill="#e0e0e0" stroke="#999999" points="1233,-19.25 1177.25,-19.25 1177.25,0 1233,0 1233,-19.25"/>
<text text-anchor="middle" x="1205.12" y="-5.75" font-family="Helvetica,sans-Serif" font-size="10.00">algorithm</text>
</a>
</g>
</g>
<!-- Node16&#45;&gt;Node17 -->
<g id="edge18_Node000016_Node000017" class="edge">
<title>Node16&#45;&gt;Node17</title>
<g id="a_edge18_Node000016_Node000017"><a xlink:title=" ">
<path fill="none" stroke="#63b8ff" d="M1158.45,-54.95C1167.16,-46.67 1178.12,-36.27 1187.23,-27.62"/>
<polygon fill="#63b8ff" stroke="#63b8ff" points="1189.63,-30.17 1194.47,-20.74 1184.81,-25.09 1189.63,-30.17"/>
</a>
</g>
</g>
<!-- Node18 -->
<g id="Node000018" class="node">
<title>Node18</title>
<g id="a_Node000018"><a xlink:title=" ">
<polygon fill="#e0e0e0" stroke="#999999" points="906,-19.25 868.25,-19.25 868.25,0 906,0 906,-19.25"/>
<text text-anchor="middle" x="887.12" y="-5.75" font-family="Helvetica,sans-Serif" font-size="10.00">array</text>
</a>
</g>
</g>
<!-- Node16&#45;&gt;Node18 -->
<g id="edge19_Node000016_Node000018" class="edge">
<title>Node16&#45;&gt;Node18</title>
<g id="a_edge19_Node000016_Node000018"><a xlink:title=" ">
<path fill="none" stroke="#63b8ff" d="M1090.76,-59.23C1046.81,-50.32 982.16,-36.56 917.19,-19.63"/>
<polygon fill="#63b8ff" stroke="#63b8ff" points="918.37,-16.32 907.81,-17.16 916.59,-23.09 918.37,-16.32"/>
</a>
</g>
</g>
<!-- Node19 -->
<g id="Node000019" class="node">
<title>Node19</title>
<g id="a_Node000019"><a xlink:title=" ">
<polygon fill="#e0e0e0" stroke="#999999" points="1095.75,-19.25 1044.5,-19.25 1044.5,0 1095.75,0 1095.75,-19.25"/>
<text text-anchor="middle" x="1070.12" y="-5.75" font-family="Helvetica,sans-Serif" font-size="10.00">ostream</text>
</a>
</g>
</g>
<!-- Node16&#45;&gt;Node19 -->
<g id="edge21_Node000016_Node000019" class="edge">
<title>Node16&#45;&gt;Node19</title>
<g id="a_edge21_Node000016_Node000019"><a xlink:title=" ">
<path fill="none" stroke="#63b8ff" d="M1125.08,-54.95C1114.5,-46.41 1101.11,-35.62 1090.2,-26.81"/>
<polygon fill="#63b8ff" stroke="#63b8ff" points="1092.54,-24.2 1082.56,-20.65 1088.14,-29.65 1092.54,-24.2"/>
</a>
</g>
</g>
<!-- Node20 -->
<g id="Node000020" class="node">
<title>Node20</title>
<g id="a_Node000020"><a xlink:title=" ">
<polygon fill="#e0e0e0" stroke="#999999" points="1026.75,-19.25 987.5,-19.25 987.5,0 1026.75,0 1026.75,-19.25"/>
<text text-anchor="middle" x="1007.12" y="-5.75" font-family="Helvetica,sans-Serif" font-size="10.00">utility</text>
</a>
</g>
</g>
<!-- Node16&#45;&gt;Node20 -->
<g id="edge22_Node000016_Node000020" class="edge">
<title>Node16&#45;&gt;Node20</title>
<g id="a_edge22_Node000016_Node000020"><a xlink:title=" ">
<path fill="none" stroke="#63b8ff" d="M1109.16,-54.8C1087.18,-45.28 1058.82,-33 1037.58,-23.81"/>
<polygon fill="#63b8ff" stroke="#63b8ff" points="1039.14,-20.67 1028.58,-19.91 1036.36,-27.1 1039.14,-20.67"/>
</a>
</g>
</g>
<!-- Node21 -->
<g id="Node000021" class="node">
<title>Node21</title>
<g id="a_Node000021"><a xlink:title=" ">
<polygon fill="#e0e0e0" stroke="#999999" points="1158.75,-19.25 1113.5,-19.25 1113.5,0 1158.75,0 1158.75,-19.25"/>
<text text-anchor="middle" x="1136.12" y="-5.75" font-family="Helvetica,sans-Serif" font-size="10.00">variant</text>
</a>
</g>
</g>
<!-- Node16&#45;&gt;Node21 -->
<g id="edge23_Node000016_Node000021" class="edge">
<title>Node16&#45;&gt;Node21</title>
<g id="a_edge23_Node000016_Node000021"><a xlink:title=" ">
<path fill="none" stroke="#63b8ff" d="M1141.39,-54.95C1140.53,-47.71 1139.48,-38.84 1138.54,-30.94"/>
<polygon fill="#63b8ff" stroke="#63b8ff" points="1142.04,-30.72 1137.38,-21.2 1135.09,-31.55 1142.04,-30.72"/>
</a>
</g>
</g>
<!-- Node22&#45;&gt;Node3 -->
<g id="edge34_Node000022_Node000003" class="edge">
<title>Node22&#45;&gt;Node3</title>
<g id="a_edge34_Node000022_Node000003"><a xlink:title=" ">
<path fill="none" stroke="#63b8ff" d="M756.94,-62.26C696.37,-54.25 598.6,-39.98 505.98,-19.68"/>
<polygon fill="#63b8ff" stroke="#63b8ff" points="507,-16.32 496.48,-17.57 505.48,-23.16 507,-16.32"/>
</a>
</g>
</g>
<!-- Node22&#45;&gt;Node9 -->
<g id="edge31_Node000022_Node000009" class="edge">
<title>Node22&#45;&gt;Node9</title>
<g id="a_edge31_Node000022_Node000009"><a xlink:title=" ">
<path fill="none" stroke="#63b8ff" d="M873.39,-61.15C888.58,-59.09 904.95,-56.98 920.12,-55.25 1088.58,-36.01 1136.1,-51.42 1305.58,-19.38"/>
<polygon fill="#63b8ff" stroke="#63b8ff" points="1306.01,-22.86 1315.17,-17.54 1304.69,-15.99 1306.01,-22.86"/>
</a>
</g>
</g>
<!-- Node22&#45;&gt;Node14 -->
<g id="edge30_Node000022_Node000014" class="edge">
<title>Node22&#45;&gt;Node14</title>
<g id="a_edge30_Node000022_Node000014"><a xlink:title=" ">
<path fill="none" stroke="#63b8ff" d="M769.92,-60.44C723.97,-51.14 650.45,-36.01 577.46,-19.72"/>
<polygon fill="#63b8ff" stroke="#63b8ff" points="578.23,-16.31 567.71,-17.54 576.7,-23.14 578.23,-16.31"/>
</a>
</g>
</g>
<!-- Node22&#45;&gt;Node17 -->
<g id="edge26_Node000022_Node000017" class="edge">
<title>Node22&#45;&gt;Node17</title>
<g id="a_edge26_Node000022_Node000017"><a xlink:title=" ">
<path fill="none" stroke="#63b8ff" d="M873.15,-61.52C958.6,-49.74 1113.11,-28.27 1165.8,-19.43"/>
<polygon fill="#63b8ff" stroke="#63b8ff" points="1166.17,-22.92 1175.41,-17.74 1164.95,-16.03 1166.17,-22.92"/>
</a>
</g>
</g>
<!-- Node22&#45;&gt;Node20 -->
<g id="edge33_Node000022_Node000020" class="edge">
<title>Node22&#45;&gt;Node20</title>
<g id="a_edge33_Node000022_Node000020"><a xlink:title=" ">
<path fill="none" stroke="#63b8ff" d="M844.76,-60.44C875.42,-51.05 925.01,-35.87 976.28,-20.12"/>
<polygon fill="#63b8ff" stroke="#63b8ff" points="977.26,-23.48 985.79,-17.2 975.21,-16.79 977.26,-23.48"/>
</a>
</g>
</g>
<!-- Node23 -->
<g id="Node000023" class="node">
<title>Node23</title>
<g id="a_Node000023"><a xlink:title=" ">
<polygon fill="#e0e0e0" stroke="#999999" points="969.75,-19.25 924.5,-19.25 924.5,0 969.75,0 969.75,-19.25"/>
<text text-anchor="middle" x="947.12" y="-5.75" font-family="Helvetica,sans-Serif" font-size="10.00">chrono</text>
</a>
</g>
</g>
<!-- Node22&#45;&gt;Node23 -->
<g id="edge27_Node000022_Node000023" class="edge">
<title>Node22&#45;&gt;Node23</title>
<g id="a_edge27_Node000022_Node000023"><a xlink:title=" ">
<path fill="none" stroke="#63b8ff" d="M835.46,-60.43C857.13,-50.76 891.68,-35.35 916.62,-24.23"/>
<polygon fill="#63b8ff" stroke="#63b8ff" points="917.89,-27.5 925.6,-20.23 915.04,-21.1 917.89,-27.5"/>
</a>
</g>
</g>
<!-- Node24 -->
<g id="Node000024" class="node">
<title>Node24</title>
<g id="a_Node000024"><a xlink:title=" ">
<polygon fill="#e0e0e0" stroke="#999999" points="48.25,-19.25 0,-19.25 0,0 48.25,0 48.25,-19.25"/>
<text text-anchor="middle" x="24.12" y="-5.75" font-family="Helvetica,sans-Serif" font-size="10.00">cstddef</text>
</a>
</g>
</g>
<!-- Node22&#45;&gt;Node24 -->
<g id="edge28_Node000022_Node000024" class="edge">
<title>Node22&#45;&gt;Node24</title>
<g id="a_edge28_Node000022_Node000024"><a xlink:title=" ">
<path fill="none" stroke="#63b8ff" d="M757.07,-63.31C731.1,-60.64 700.09,-57.61 672.12,-55.25 438.86,-35.6 157.8,-18.47 59.85,-12.7"/>
<polygon fill="#63b8ff" stroke="#63b8ff" points="60.27,-9.22 50.08,-12.13 59.86,-16.21 60.27,-9.22"/>
</a>
</g>
</g>
<!-- Node25 -->
<g id="Node000025" class="node">
<title>Node25</title>
<g id="a_Node000025"><a xlink:title=" ">
<polygon fill="#e0e0e0" stroke="#999999" points="850,-19.25 800.25,-19.25 800.25,0 850,0 850,-19.25"/>
<text text-anchor="middle" x="825.12" y="-5.75" font-family="Helvetica,sans-Serif" font-size="10.00">iomanip</text>
</a>
</g>
</g>
<!-- Node22&#45;&gt;Node25 -->
<g id="edge29_Node000022_Node000025" class="edge">
<title>Node22&#45;&gt;Node25</title>
<g id="a_edge29_Node000022_Node000025"><a xlink:title=" ">
<path fill="none" stroke="#63b8ff" d="M816.64,-60.56C817.98,-52.69 819.97,-40.95 821.69,-30.82"/>
<polygon fill="#63b8ff" stroke="#63b8ff" points="825.11,-31.59 823.34,-21.14 818.21,-30.42 825.11,-31.59"/>
</a>
</g>
</g>
<!-- Node26 -->
<g id="Node000026" class="node">
<title>Node26</title>
<g id="a_Node000026"><a xlink:title=" ">
<polygon fill="#e0e0e0" stroke="#999999" points="666.5,-19.25 583.75,-19.25 583.75,0 666.5,0 666.5,-19.25"/>
<text text-anchor="middle" x="625.12" y="-5.75" font-family="Helvetica,sans-Serif" font-size="10.00">unordered_map</text>
</a>
</g>
</g>
<!-- Node22&#45;&gt;Node26 -->
<g id="edge32_Node000022_Node000026" class="edge">
<title>Node22&#45;&gt;Node26</title>
<g id="a_edge32_Node000022_Node000026"><a xlink:title=" ">
<path fill="none" stroke="#63b8ff" d="M785.85,-60.43C753.5,-50.4 701.19,-34.19 665.08,-23"/>
<polygon fill="#63b8ff" stroke="#63b8ff" points="666.46,-19.77 655.88,-20.15 664.39,-26.46 666.46,-19.77"/>
</a>
</g>
</g>
<!-- Node27 -->
<g id="Node000027" class="node">
<title>Node27</title>
<g id="a_Node000027"><a xlink:title=" ">
<polygon fill="#e0e0e0" stroke="#999999" points="782,-19.25 684.25,-19.25 684.25,0 782,0 782,-19.25"/>
<text text-anchor="middle" x="733.12" y="-5.75" font-family="Helvetica,sans-Serif" font-size="10.00">nlohmann/json.hpp</text>
</a>
</g>
</g>
<!-- Node22&#45;&gt;Node27 -->
<g id="edge35_Node000022_Node000027" class="edge">
<title>Node22&#45;&gt;Node27</title>
<g id="a_edge35_Node000022_Node000027"><a xlink:title=" ">
<path fill="none" stroke="#63b8ff" d="M802.67,-60.56C790.03,-51.48 770.2,-37.24 754.94,-26.29"/>
<polygon fill="#63b8ff" stroke="#63b8ff" points="757.09,-23.52 746.93,-20.53 753.01,-29.21 757.09,-23.52"/>
</a>
</g>
</g>
<!-- Node28&#45;&gt;Node3 -->
<g id="edge44_Node000028_Node000003" class="edge">
<title>Node28&#45;&gt;Node3</title>
<g id="a_edge44_Node000028_Node000003"><a xlink:title=" ">
<path fill="none" stroke="#63b8ff" d="M631.6,-294.8C557.01,-289.24 449.12,-267.41 449.12,-187.62 449.12,-187.62 449.12,-187.62 449.12,-130.38 449.12,-94.61 459.55,-53.98 466.65,-30.43"/>
<polygon fill="#63b8ff" stroke="#63b8ff" points="469.97,-31.55 469.63,-20.96 463.29,-29.45 469.97,-31.55"/>
</a>
</g>
</g>
<!-- Node28&#45;&gt;Node5 -->
<g id="edge37_Node000028_Node000005" class="edge">
<title>Node28&#45;&gt;Node5</title>
<g id="a_edge37_Node000028_Node000005"><a xlink:title=" ">
<path fill="none" stroke="#63b8ff" d="M761.24,-287.03C831.66,-276.38 946.66,-258.98 1009.22,-249.52"/>
<polygon fill="#63b8ff" stroke="#63b8ff" points="1009.41,-253.03 1018.77,-248.07 1008.36,-246.11 1009.41,-253.03"/>
</a>
</g>
</g>
<!-- Node28&#45;&gt;Node6 -->
<g id="edge38_Node000028_Node000006" class="edge">
<title>Node28&#45;&gt;Node6</title>
<g id="a_edge38_Node000028_Node000006"><a xlink:title=" ">
<path fill="none" stroke="#63b8ff" d="M704.09,-287.32C712.73,-262.19 738.53,-190.99 758.12,-177 771.89,-167.17 1001.55,-145.25 1099.47,-136.3"/>
<polygon fill="#63b8ff" stroke="#63b8ff" points="1099.58,-139.8 1109.22,-135.41 1098.95,-132.83 1099.58,-139.8"/>
</a>
</g>
</g>
<!-- Node28&#45;&gt;Node8 -->
<g id="edge45_Node000028_Node000008" class="edge">
<title>Node28&#45;&gt;Node8</title>
<g id="a_edge45_Node000028_Node000008"><a xlink:title=" ">
<path fill="none" stroke="#63b8ff" d="M765.31,-287C816.09,-279.23 888.62,-266.87 951.12,-251.5 978.73,-244.71 984.88,-240.37 1012.12,-232.25 1050.71,-220.75 1094.82,-208.44 1126.77,-199.66"/>
<polygon fill="#63b8ff" stroke="#63b8ff" points="1127.35,-203.13 1136.07,-197.12 1125.51,-196.38 1127.35,-203.13"/>
</a>
</g>
</g>
<!-- Node28&#45;&gt;Node9 -->
<g id="edge42_Node000028_Node000009" class="edge">
<title>Node28&#45;&gt;Node9</title>
<g id="a_edge42_Node000028_Node000009"><a xlink:title=" ">
<path fill="none" stroke="#63b8ff" d="M700.82,-287.02C700.62,-264.08 703.63,-203.84 739.12,-177 786.88,-140.89 947.27,-151.98 1006.12,-141 1032.07,-136.16 1213.24,-96.98 1237.12,-85.75 1269.06,-70.73 1300.76,-44.5 1319.64,-27.35"/>
<polygon fill="#63b8ff" stroke="#63b8ff" points="1322,-29.93 1326.95,-20.56 1317.24,-24.8 1322,-29.93"/>
</a>
</g>
</g>
<!-- Node28&#45;&gt;Node10 -->
<g id="edge69_Node000028_Node000010" class="edge">
<title>Node28&#45;&gt;Node10</title>
<g id="a_edge69_Node000028_Node000010"><a xlink:title=" ">
<path fill="none" stroke="#63b8ff" d="M696.11,-287.11C684.76,-265.38 660.15,-209.55 687.12,-177 706.21,-153.96 778.06,-142.73 837.52,-137.31"/>
<polygon fill="#63b8ff" stroke="#63b8ff" points="837.67,-140.81 847.33,-136.46 837.07,-133.83 837.67,-140.81"/>
</a>
</g>
</g>
<!-- Node28&#45;&gt;Node14 -->
<g id="edge40_Node000028_Node000014" class="edge">
<title>Node28&#45;&gt;Node14</title>
<g id="a_edge40_Node000028_Node000014"><a xlink:title=" ">
<path fill="none" stroke="#63b8ff" d="M649.75,-287.08C597.8,-274.64 525.12,-246.67 525.12,-187.62 525.12,-187.62 525.12,-187.62 525.12,-130.38 525.12,-95.23 531.15,-54.67 535.29,-30.92"/>
<polygon fill="#63b8ff" stroke="#63b8ff" points="538.74,-31.55 537.08,-21.09 531.85,-30.3 538.74,-31.55"/>
</a>
</g>
</g>
<!-- Node28&#45;&gt;Node20 -->
<g id="edge43_Node000028_Node000020" class="edge">
<title>Node28&#45;&gt;Node20</title>
<g id="a_edge43_Node000028_Node000020"><a xlink:title=" ">
<path fill="none" stroke="#63b8ff" d="M693.45,-287.29C686.6,-278.78 677.07,-265.21 673.12,-251.5 668.63,-235.88 662.71,-194.13 674.12,-177 730.1,-92.99 795.79,-138.07 882.12,-85.75 900.65,-74.53 901.95,-67.03 920.12,-55.25 938.29,-43.47 959.95,-32.36 977.11,-24.16"/>
<polygon fill="#63b8ff" stroke="#63b8ff" points="978.2,-27.52 985.77,-20.1 975.23,-21.18 978.2,-27.52"/>
</a>
</g>
</g>
<!-- Node28&#45;&gt;Node24 -->
<g id="edge39_Node000028_Node000024" class="edge">
<title>Node28&#45;&gt;Node24</title>
<g id="a_edge39_Node000028_Node000024"><a xlink:title=" ">
<path fill="none" stroke="#63b8ff" d="M631.87,-289.66C528.74,-278.59 329.71,-251.62 169.12,-196.25 113.24,-176.98 92.42,-180.15 48.12,-141 26.52,-121.91 21.98,-113.49 14.12,-85.75 8.92,-67.37 12.84,-45.67 17.2,-30.34"/>
<polygon fill="#63b8ff" stroke="#63b8ff" points="20.47,-31.61 20.17,-21.02 13.8,-29.49 20.47,-31.61"/>
</a>
</g>
</g>
<!-- Node29 -->
<g id="Node000029" class="node">
<title>Node29</title>
<g id="a_Node000029"><a xlink:title=" ">
<polygon fill="#e0e0e0" stroke="#999999" points="818.75,-196.25 767.5,-196.25 767.5,-177 818.75,-177 818.75,-196.25"/>
<text text-anchor="middle" x="793.12" y="-182.75" font-family="Helvetica,sans-Serif" font-size="10.00">memory</text>
</a>
</g>
</g>
<!-- Node28&#45;&gt;Node29 -->
<g id="edge41_Node000028_Node000029" class="edge">
<title>Node28&#45;&gt;Node29</title>
<g id="a_edge41_Node000028_Node000029"><a xlink:title=" ">
<path fill="none" stroke="#63b8ff" d="M713.62,-287.13C724.79,-278.72 741.18,-265.39 753.12,-251.5 765.13,-237.55 776.01,-219.65 783.39,-206.35"/>
<polygon fill="#63b8ff" stroke="#63b8ff" points="786.34,-208.25 787.99,-197.78 780.17,-204.94 786.34,-208.25"/>
</a>
</g>
</g>
<!-- Node28&#45;&gt;Node30 -->
<g id="edge46_Node000028_Node000030" class="edge">
<title>Node28&#45;&gt;Node30</title>
<g id="a_edge46_Node000028_Node000030"><a xlink:title=" ">
<path fill="none" stroke="#63b8ff" d="M733.19,-287.09C764.55,-278.26 812.51,-264.74 847.16,-254.98"/>
<polygon fill="#63b8ff" stroke="#63b8ff" points="847.77,-258.44 856.45,-252.36 845.88,-251.71 847.77,-258.44"/>
</a>
</g>
</g>
<!-- Node32 -->
<g id="Node000032" class="node">
<title>Node32</title>
<g id="a_Node000032"><a xlink:href="qrule_8hpp.html" target="_top" xlink:title=" ">
<polygon fill="white" stroke="#666666" points="421.12,-196.25 285.12,-196.25 285.12,-177 421.12,-177 421.12,-196.25"/>
<text text-anchor="middle" x="353.12" y="-182.75" font-family="Helvetica,sans-Serif" font-size="10.00">vulpes/quadrature/qrule.hpp</text>
</a>
</g>
</g>
<!-- Node28&#45;&gt;Node32 -->
<g id="edge58_Node000028_Node000032" class="edge">
<title>Node28&#45;&gt;Node32</title>
<g id="a_edge58_Node000028_Node000032"><a xlink:title=" ">
<path fill="none" stroke="#63b8ff" d="M631.51,-293.78C576.23,-289.76 498.04,-279.14 435.12,-251.5 409.44,-240.21 384.7,-219.07 369.24,-204.21"/>
<polygon fill="#63b8ff" stroke="#63b8ff" points="371.91,-201.93 362.35,-197.38 366.98,-206.9 371.91,-201.93"/>
</a>
</g>
</g>
<!-- Node30&#45;&gt;Node3 -->
<g id="edge54_Node000030_Node000003" class="edge">
<title>Node30&#45;&gt;Node3</title>
<g id="a_edge54_Node000030_Node000003"><a xlink:title=" ">
<path fill="none" stroke="#63b8ff" d="M883.48,-231.8C873.08,-218.17 851.69,-192.36 828.12,-177 730.44,-113.31 685.6,-139.53 582.12,-85.75 549.2,-68.64 514.46,-43.23 493.28,-26.8"/>
<polygon fill="#63b8ff" stroke="#63b8ff" points="495.51,-24.1 485.49,-20.67 491.19,-29.61 495.51,-24.1"/>
</a>
</g>
</g>
<!-- Node30&#45;&gt;Node6 -->
<g id="edge47_Node000030_Node000006" class="edge">
<title>Node30&#45;&gt;Node6</title>
<g id="a_edge47_Node000030_Node000006"><a xlink:title=" ">
<path fill="none" stroke="#63b8ff" d="M941.76,-233.24C976.99,-226.67 1023.99,-215.18 1062.12,-196.25 1086.8,-184 1111.06,-163.41 1126.5,-148.93"/>
<polygon fill="#63b8ff" stroke="#63b8ff" points="1128.65,-151.72 1133.42,-142.26 1123.79,-146.68 1128.65,-151.72"/>
</a>
</g>
</g>
<!-- Node30&#45;&gt;Node8 -->
<g id="edge56_Node000030_Node000008" class="edge">
<title>Node30&#45;&gt;Node8</title>
<g id="a_edge56_Node000030_Node000008"><a xlink:title=" ">
<path fill="none" stroke="#63b8ff" d="M938.11,-231.78C986.3,-222.65 1060.64,-208.56 1112.34,-198.76"/>
<polygon fill="#63b8ff" stroke="#63b8ff" points="1112.68,-202.26 1121.85,-196.96 1111.37,-195.39 1112.68,-202.26"/>
</a>
</g>
</g>
<!-- Node30&#45;&gt;Node9 -->
<g id="edge52_Node000030_Node000009" class="edge">
<title>Node30&#45;&gt;Node9</title>
<g id="a_edge52_Node000030_Node000009"><a xlink:title=" ">
<path fill="none" stroke="#63b8ff" d="M941.78,-237.11C1037.57,-229.77 1235.47,-212.82 1262.12,-196.25 1311.9,-165.3 1316.32,-141.6 1334.12,-85.75 1339.83,-67.87 1340.07,-46.39 1339.19,-30.98"/>
<polygon fill="#63b8ff" stroke="#63b8ff" points="1342.69,-30.88 1338.4,-21.19 1335.71,-31.44 1342.69,-30.88"/>
</a>
</g>
</g>
<!-- Node30&#45;&gt;Node10 -->
<g id="edge57_Node000030_Node000010" class="edge">
<title>Node30&#45;&gt;Node10</title>
<g id="a_edge57_Node000030_Node000010"><a xlink:title=" ">
<path fill="none" stroke="#63b8ff" d="M892.83,-232C898.1,-214.67 909.86,-175.98 917.08,-152.24"/>
<polygon fill="#63b8ff" stroke="#63b8ff" points="920.39,-153.41 919.95,-142.82 913.69,-151.37 920.39,-153.41"/>
</a>
</g>
</g>
<!-- Node30&#45;&gt;Node15 -->
<g id="edge55_Node000030_Node000015" class="edge">
<title>Node30&#45;&gt;Node15</title>
<g id="a_edge55_Node000030_Node000015"><a xlink:title=" ">
<path fill="none" stroke="#63b8ff" d="M888.19,-231.87C884.86,-218.33 876.82,-192.65 861.12,-177 831.78,-147.73 721.54,-105.3 663.45,-84.28"/>
<polygon fill="#63b8ff" stroke="#63b8ff" points="664.93,-81.09 654.33,-81.01 662.56,-87.68 664.93,-81.09"/>
</a>
</g>
</g>
<!-- Node30&#45;&gt;Node17 -->
<g id="edge49_Node000030_Node000017" class="edge">
<title>Node30&#45;&gt;Node17</title>
<g id="a_edge49_Node000030_Node000017"><a xlink:title=" ">
<path fill="none" stroke="#63b8ff" d="M941.8,-236.12C1037.22,-227.1 1232.3,-207.4 1242.12,-196.25 1284.44,-148.23 1240.95,-65.83 1217.72,-29.16"/>
<polygon fill="#63b8ff" stroke="#63b8ff" points="1220.77,-27.43 1212.37,-20.98 1214.92,-31.26 1220.77,-27.43"/>
</a>
</g>
</g>
<!-- Node30&#45;&gt;Node20 -->
<g id="edge53_Node000030_Node000020" class="edge">
<title>Node30&#45;&gt;Node20</title>
<g id="a_edge53_Node000030_Node000020"><a xlink:title=" ">
<path fill="none" stroke="#63b8ff" d="M902.56,-231.88C924.84,-215.39 972.41,-178.58 1006.12,-141 1026.03,-118.82 1035.28,-114.21 1044.12,-85.75 1048.15,-72.8 1048.72,-68 1044.12,-55.25 1040.39,-44.91 1033.11,-35.26 1025.98,-27.61"/>
<polygon fill="#63b8ff" stroke="#63b8ff" points="1028.55,-25.23 1018.99,-20.68 1023.63,-30.2 1028.55,-25.23"/>
</a>
</g>
</g>
<!-- Node30&#45;&gt;Node24 -->
<g id="edge50_Node000030_Node000024" class="edge">
<title>Node30&#45;&gt;Node24</title>
<g id="a_edge50_Node000030_Node000024"><a xlink:title=" ">
<path fill="none" stroke="#63b8ff" d="M838.32,-240.8C732.04,-239.82 482.02,-233.39 276.12,-196.25 190,-180.71 163.84,-183.12 87.12,-141 54.48,-123.07 39.5,-119.67 24.12,-85.75 16.23,-68.31 17.38,-46.18 19.81,-30.46"/>
<polygon fill="#63b8ff" stroke="#63b8ff" points="23.19,-31.41 21.6,-20.94 16.31,-30.12 23.19,-31.41"/>
</a>
</g>
</g>
<!-- Node30&#45;&gt;Node29 -->
<g id="edge51_Node000030_Node000029" class="edge">
<title>Node30&#45;&gt;Node29</title>
<g id="a_edge51_Node000030_Node000029"><a xlink:title=" ">
<path fill="none" stroke="#63b8ff" d="M873.67,-231.84C858.9,-223.73 836.95,-211.68 819.69,-202.21"/>
<polygon fill="#63b8ff" stroke="#63b8ff" points="821.44,-199.18 810.99,-197.43 818.07,-205.31 821.44,-199.18"/>
</a>
</g>
</g>
<!-- Node31 -->
<g id="Node000031" class="node">
<title>Node31</title>
<g id="a_Node000031"><a xlink:title=" ">
<polygon fill="#e0e0e0" stroke="#999999" points="1053.12,-196.25 989.12,-196.25 989.12,-177 1053.12,-177 1053.12,-196.25"/>
<text text-anchor="middle" x="1021.12" y="-182.75" font-family="Helvetica,sans-Serif" font-size="10.00">petscvec.h</text>
</a>
</g>
</g>
<!-- Node30&#45;&gt;Node31 -->
<g id="edge48_Node000030_Node000031" class="edge">
<title>Node30&#45;&gt;Node31</title>
<g id="a_edge48_Node000030_Node000031"><a xlink:title=" ">
<path fill="none" stroke="#63b8ff" d="M912.35,-231.84C933.14,-223.39 964.47,-210.65 988.18,-201.02"/>
<polygon fill="#63b8ff" stroke="#63b8ff" points="989.45,-204.28 997.39,-197.27 986.81,-197.8 989.45,-204.28"/>
</a>
</g>
</g>
<!-- Node32&#45;&gt;Node3 -->
<g id="edge61_Node000032_Node000003" class="edge">
<title>Node32&#45;&gt;Node3</title>
<g id="a_edge61_Node000032_Node000003"><a xlink:title=" ">
<path fill="none" stroke="#63b8ff" d="M358.08,-176.8C370.26,-155.35 403,-99 435.12,-55.25 441.96,-45.94 450.21,-36.1 457.28,-28.05"/>
<polygon fill="#63b8ff" stroke="#63b8ff" points="459.81,-30.46 463.86,-20.67 454.59,-25.8 459.81,-30.46"/>
</a>
</g>
</g>
<!-- Node32&#45;&gt;Node18 -->
<g id="edge59_Node000032_Node000018" class="edge">
<title>Node32&#45;&gt;Node18</title>
<g id="a_edge59_Node000032_Node000018"><a xlink:title=" ">
<path fill="none" stroke="#63b8ff" d="M364.74,-176.78C397.12,-152.66 491.9,-85.49 582.12,-55.25 696.39,-16.95 735.52,-43.93 856.75,-19.37"/>
<polygon fill="#63b8ff" stroke="#63b8ff" points="857.42,-22.8 866.48,-17.31 855.97,-15.95 857.42,-22.8"/>
</a>
</g>
</g>
<!-- Node32&#45;&gt;Node24 -->
<g id="edge60_Node000032_Node000024" class="edge">
<title>Node32&#45;&gt;Node24</title>
<g id="a_edge60_Node000032_Node000024"><a xlink:title=" ">
<path fill="none" stroke="#63b8ff" d="M284.75,-182.24C214.28,-175.01 106.08,-152.87 43.12,-85.75 29.19,-70.89 25.09,-47.33 24.07,-30.56"/>
<polygon fill="#63b8ff" stroke="#63b8ff" points="27.58,-30.73 23.82,-20.83 20.58,-30.91 27.58,-30.73"/>
</a>
</g>
</g>
<!-- Node33 -->
<g id="Node000033" class="node">
<title>Node33</title>
<g id="a_Node000033"><a xlink:href="vmath_8hpp.html" target="_top" xlink:title=" ">
<polygon fill="white" stroke="#666666" points="350.25,-141 236,-141 236,-121.75 350.25,-121.75 350.25,-141"/>
<text text-anchor="middle" x="293.12" y="-127.5" font-family="Helvetica,sans-Serif" font-size="10.00">vulpes/utils/vmath.hpp</text>
</a>
</g>
</g>
<!-- Node32&#45;&gt;Node33 -->
<g id="edge62_Node000032_Node000033" class="edge">
<title>Node32&#45;&gt;Node33</title>
<g id="a_edge62_Node000032_Node000033"><a xlink:title=" ">
<path fill="none" stroke="#63b8ff" d="M342.95,-176.59C334.36,-168.97 321.86,-157.87 311.52,-148.7"/>
<polygon fill="#63b8ff" stroke="#63b8ff" points="314.09,-146.3 304.28,-142.28 309.44,-151.54 314.09,-146.3"/>
</a>
</g>
</g>
<!-- Node33&#45;&gt;Node2 -->
<g id="edge66_Node000033_Node000002" class="edge">
<title>Node33&#45;&gt;Node2</title>
<g id="a_edge66_Node000033_Node000002"><a xlink:title=" ">
<path fill="none" stroke="#63b8ff" d="M259.08,-121.3C216.45,-109.95 144.05,-90.66 102.97,-79.72"/>
<polygon fill="#63b8ff" stroke="#63b8ff" points="104.05,-76.38 93.49,-77.19 102.25,-83.15 104.05,-76.38"/>
</a>
</g>
</g>
<!-- Node33&#45;&gt;Node15 -->
<g id="edge68_Node000033_Node000015" class="edge">
<title>Node33&#45;&gt;Node15</title>
<g id="a_edge68_Node000033_Node000015"><a xlink:title=" ">
<path fill="none" stroke="#63b8ff" d="M344.58,-121.3C408.66,-110.01 517.27,-90.86 579.51,-79.89"/>
<polygon fill="#63b8ff" stroke="#63b8ff" points="579.84,-83.39 589.08,-78.21 578.62,-76.5 579.84,-83.39"/>
</a>
</g>
</g>
<!-- Node33&#45;&gt;Node24 -->
<g id="edge64_Node000033_Node000024" class="edge">
<title>Node33&#45;&gt;Node24</title>
<g id="a_edge64_Node000033_Node000024"><a xlink:title=" ">
<path fill="none" stroke="#63b8ff" d="M267.52,-121.27C243.83,-112.67 207.77,-99.14 177.12,-85.75 132.25,-66.15 81.46,-40.49 51.15,-24.81"/>
<polygon fill="#63b8ff" stroke="#63b8ff" points="53.16,-21.91 42.67,-20.4 49.93,-28.12 53.16,-21.91"/>
</a>
</g>
</g>
<!-- Node34 -->
<g id="Node000034" class="node">
<title>Node34</title>
<g id="a_Node000034"><a xlink:title=" ">
<polygon fill="#e0e0e0" stroke="#999999" points="319.88,-80.12 266.38,-80.12 266.38,-60.88 319.88,-60.88 319.88,-80.12"/>
<text text-anchor="middle" x="293.12" y="-66.62" font-family="Helvetica,sans-Serif" font-size="10.00">gmpxx.h</text>
</a>
</g>
</g>
<!-- Node33&#45;&gt;Node34 -->
<g id="edge63_Node000033_Node000034" class="edge">
<title>Node33&#45;&gt;Node34</title>
<g id="a_edge63_Node000033_Node000034"><a xlink:title=" ">
<path fill="none" stroke="#63b8ff" d="M293.12,-121.43C293.12,-113.65 293.12,-102.08 293.12,-92.03"/>
<polygon fill="#63b8ff" stroke="#63b8ff" points="296.63,-92.04 293.13,-82.04 289.63,-92.04 296.63,-92.04"/>
</a>
</g>
</g>
<!-- Node35 -->
<g id="Node000035" class="node">
<title>Node35</title>
<g id="a_Node000035"><a xlink:title=" ">
<polygon fill="#e0e0e0" stroke="#999999" points="382.75,-80.12 337.5,-80.12 337.5,-60.88 382.75,-60.88 382.75,-80.12"/>
<text text-anchor="middle" x="360.12" y="-66.62" font-family="Helvetica,sans-Serif" font-size="10.00">cstdint</text>
</a>
</g>
</g>
<!-- Node33&#45;&gt;Node35 -->
<g id="edge65_Node000033_Node000035" class="edge">
<title>Node33&#45;&gt;Node35</title>
<g id="a_edge65_Node000033_Node000035"><a xlink:title=" ">
<path fill="none" stroke="#63b8ff" d="M303.3,-121.43C313.34,-112.62 328.91,-98.93 341.22,-88.11"/>
<polygon fill="#63b8ff" stroke="#63b8ff" points="343.51,-90.76 348.72,-81.53 338.89,-85.5 343.51,-90.76"/>
</a>
</g>
</g>
<!-- Node36 -->
<g id="Node000036" class="node">
<title>Node36</title>
<g id="a_Node000036"><a xlink:title=" ">
<polygon fill="#e0e0e0" stroke="#999999" points="248,-80.12 186.25,-80.12 186.25,-60.88 248,-60.88 248,-80.12"/>
<text text-anchor="middle" x="217.12" y="-66.62" font-family="Helvetica,sans-Serif" font-size="10.00">type_traits</text>
</a>
</g>
</g>
<!-- Node33&#45;&gt;Node36 -->
<g id="edge67_Node000033_Node000036" class="edge">
<title>Node33&#45;&gt;Node36</title>
<g id="a_edge67_Node000033_Node000036"><a xlink:title=" ">
<path fill="none" stroke="#63b8ff" d="M281.58,-121.43C269.98,-112.44 251.83,-98.39 237.75,-87.48"/>
<polygon fill="#63b8ff" stroke="#63b8ff" points="240.02,-84.81 229.97,-81.45 235.73,-90.34 240.02,-84.81"/>
</a>
</g>
</g>
</g>
</svg>
