<?xml version="1.0" encoding="UTF-8" standalone="no"?>
<!DOCTYPE svg PUBLIC "-//W3C//DTD SVG 1.1//EN"
 "http://www.w3.org/Graphics/SVG/1.1/DTD/svg11.dtd">
<!-- Generated by graphviz version 12.2.1 (20241206.2353)
 -->
<!-- Title: /Users/ilariomazzieri/Desktop/vulpes/vulpes/datastructure/index_tracker.hpp Pages: 1 -->
<!--zoomable 406 -->

<svg id="main" version="1.1" xmlns="http://www.w3.org/2000/svg" xmlns:xlink="http://www.w3.org/1999/xlink" xml:space="preserve" onload="init(evt)">
<style type="text/css"><![CDATA[
.node, .edge {opacity: 0.7;}
.node.selected, .edge.selected {opacity: 1;}
.edge:hover path { stroke: red; }
.edge:hover polygon { stroke: red; fill: red; }
]]></style>

<defs>
  <circle id="rim" cx="0" cy="0" r="7"/>
  <circle id="rim2" cx="0" cy="0" r="3.5"/>
  <g id="zoomPlus">
    <use xlink:href="#rim" fill="#404040"><set attributeName="fill" to="#808080" begin="zoomplus.mouseover" end="zoomplus.mouseout"/></use>
    <path d="M-4,0h8M0,-4v8" fill="none" stroke="white" stroke-width="1.5" pointer-events="none"/>
  </g>
  <g id="zoomMin">
    <use xlink:href="#rim" fill="#404040"><set attributeName="fill" to="#808080" begin="zoomminus.mouseover" end="zoomminus.mouseout"/></use>
    <path d="M-4,0h8" fill="none" stroke="white" stroke-width="1.5" pointer-events="none"/>
  </g>
  <g id="arrowUp" transform="translate(30 24)">
    <use xlink:href="#rim"/>
    <path pointer-events="none" fill="none" stroke="white" stroke-width="1.5" d="M0,-3.0v7 M-2.5,-0.5L0,-3.0L2.5,-0.5"/>
  </g>
  <g id="arrowRight" transform="rotate(90) translate(36 -43)">
    <use xlink:href="#rim"/>
    <path pointer-events="none" fill="none" stroke="white" stroke-width="1.5" d="M0,-3.0v7 M-2.5,-0.5L0,-3.0L2.5,-0.5"/>
  </g>
  <g id="arrowDown" transform="rotate(180) translate(-30 -48)">
    <use xlink:href="#rim"/>
    <path pointer-events="none" fill="none" stroke="white" stroke-width="1.5" d="M0,-3.0v7 M-2.5,-0.5L0,-3.0L2.5,-0.5"/>
  </g>
  <g id="arrowLeft" transform="rotate(270) translate(-36 17)">
    <use xlink:href="#rim"/>
    <path pointer-events="none" fill="none" stroke="white" stroke-width="1.5" d="M0,-3.0v7 M-2.5,-0.5L0,-3.0L2.5,-0.5"/>
  </g>
  <g id="resetDef">
    <use xlink:href="#rim2" fill="#404040"><set attributeName="fill" to="#808080" begin="reset.mouseover" end="reset.mouseout"/></use>
  </g>
</defs>
<script type="application/ecmascript">
var viewWidth = 627;
var viewHeight = 406;
var sectionId = 'dynsection-1';
</script>
<script type="application/ecmascript" xlink:href="svg.min.js"/>
<svg id="graph" class="graph">
<g id="viewport">
<title>/Users/ilariomazzieri/Desktop/vulpes/vulpes/datastructure/index_tracker.hpp</title>
<!-- Node1 -->
<g id="Node000001" class="node">
<title>Node1</title>
<g id="a_Node000001"><a xlink:title=" ">
<polygon fill="#999999" stroke="#666666" points="240.38,-397.75 84.88,-397.75 84.88,-356 240.38,-356 240.38,-397.75"/>
<text text-anchor="start" x="92.88" y="-384.25" font-family="Helvetica,sans-Serif" font-size="10.00">/Users/ilariomazzieri</text>
<text text-anchor="start" x="92.88" y="-373" font-family="Helvetica,sans-Serif" font-size="10.00">/Desktop/vulpes/vulpes</text>
<text text-anchor="middle" x="162.62" y="-361.75" font-family="Helvetica,sans-Serif" font-size="10.00">/datastructure/index_tracker.hpp</text>
</a>
</g>
</g>
<!-- Node2 -->
<g id="Node000002" class="node">
<title>Node2</title>
<g id="a_Node000002"><a xlink:href="index__tracker_8cpp.html" target="_top" xlink:title=" ">
<polygon fill="white" stroke="#666666" points="162.38,-314.38 6.88,-314.38 6.88,-272.62 162.38,-272.62 162.38,-314.38"/>
<text text-anchor="start" x="14.88" y="-300.88" font-family="Helvetica,sans-Serif" font-size="10.00">/Users/ilariomazzieri</text>
<text text-anchor="start" x="14.88" y="-289.62" font-family="Helvetica,sans-Serif" font-size="10.00">/Desktop/vulpes/vulpes</text>
<text text-anchor="middle" x="84.62" y="-278.38" font-family="Helvetica,sans-Serif" font-size="10.00">/datastructure/index_tracker.cpp</text>
</a>
</g>
</g>
<!-- Node1&#45;&gt;Node2 -->
<g id="edge1_Node000001_Node000002" class="edge">
<title>Node1&#45;&gt;Node2</title>
<g id="a_edge1_Node000001_Node000002"><a xlink:title=" ">
<path fill="none" stroke="#63b8ff" d="M135.67,-347.75C125.23,-336.87 113.52,-324.65 103.95,-314.67"/>
<polygon fill="#63b8ff" stroke="#63b8ff" points="132.85,-349.87 142.3,-354.67 137.9,-345.03 132.85,-349.87"/>
</a>
</g>
</g>
<!-- Node3 -->
<g id="Node000003" class="node">
<title>Node3</title>
<g id="a_Node000003"><a xlink:href="abs__agg__model_8hpp.html" target="_top" xlink:title=" ">
<polygon fill="white" stroke="#666666" points="303.25,-320 180,-320 180,-267 303.25,-267 303.25,-320"/>
<text text-anchor="start" x="188" y="-306.5" font-family="Helvetica,sans-Serif" font-size="10.00">/Users/ilariomazzieri</text>
<text text-anchor="start" x="188" y="-295.25" font-family="Helvetica,sans-Serif" font-size="10.00">/Desktop/vulpes/vulpes</text>
<text text-anchor="start" x="188" y="-284" font-family="Helvetica,sans-Serif" font-size="10.00">/geometry/agglomeration</text>
<text text-anchor="middle" x="241.62" y="-272.75" font-family="Helvetica,sans-Serif" font-size="10.00">/abs_agg_model.hpp</text>
</a>
</g>
</g>
<!-- Node1&#45;&gt;Node3 -->
<g id="edge2_Node000001_Node000003" class="edge">
<title>Node1&#45;&gt;Node3</title>
<g id="a_edge2_Node000001_Node000003"><a xlink:title=" ">
<path fill="none" stroke="#63b8ff" d="M190.1,-347.57C198.73,-338.68 208.2,-328.93 216.65,-320.23"/>
<polygon fill="#63b8ff" stroke="#63b8ff" points="187.66,-345.06 183.21,-354.67 192.68,-349.94 187.66,-345.06"/>
</a>
</g>
</g>
<!-- Node4 -->
<g id="Node000004" class="node">
<title>Node4</title>
<g id="a_Node000004"><a xlink:href="abs__agg__model_8cpp.html" target="_top" xlink:title=" ">
<polygon fill="white" stroke="#666666" points="123.25,-231 0,-231 0,-178 123.25,-178 123.25,-231"/>
<text text-anchor="start" x="8" y="-217.5" font-family="Helvetica,sans-Serif" font-size="10.00">/Users/ilariomazzieri</text>
<text text-anchor="start" x="8" y="-206.25" font-family="Helvetica,sans-Serif" font-size="10.00">/Desktop/vulpes/vulpes</text>
<text text-anchor="start" x="8" y="-195" font-family="Helvetica,sans-Serif" font-size="10.00">/geometry/agglomeration</text>
<text text-anchor="middle" x="61.62" y="-183.75" font-family="Helvetica,sans-Serif" font-size="10.00">/abs_agg_model.cpp</text>
</a>
</g>
</g>
<!-- Node3&#45;&gt;Node4 -->
<g id="edge3_Node000003_Node000004" class="edge">
<title>Node3&#45;&gt;Node4</title>
<g id="a_edge3_Node000003_Node000004"><a xlink:title=" ">
<path fill="none" stroke="#63b8ff" d="M177.91,-261.71C157.42,-251.8 134.94,-240.94 115.25,-231.42"/>
<polygon fill="#63b8ff" stroke="#63b8ff" points="176.22,-264.77 186.74,-265.97 179.26,-258.47 176.22,-264.77"/>
</a>
</g>
</g>
<!-- Node5 -->
<g id="Node000005" class="node">
<title>Node5</title>
<g id="a_Node000005"><a xlink:href="gnn__agglomeration_8hpp.html" target="_top" xlink:title=" ">
<polygon fill="white" stroke="#666666" points="162.25,-142 39,-142 39,-89 162.25,-89 162.25,-142"/>
<text text-anchor="start" x="47" y="-128.5" font-family="Helvetica,sans-Serif" font-size="10.00">/Users/ilariomazzieri</text>
<text text-anchor="start" x="47" y="-117.25" font-family="Helvetica,sans-Serif" font-size="10.00">/Desktop/vulpes/vulpes</text>
<text text-anchor="start" x="47" y="-106" font-family="Helvetica,sans-Serif" font-size="10.00">/geometry/agglomeration</text>
<text text-anchor="middle" x="100.62" y="-94.75" font-family="Helvetica,sans-Serif" font-size="10.00">/gnn_agglomeration.hpp</text>
</a>
</g>
</g>
<!-- Node3&#45;&gt;Node5 -->
<g id="edge4_Node000003_Node000005" class="edge">
<title>Node3&#45;&gt;Node5</title>
<g id="a_edge4_Node000003_Node000005"><a xlink:title=" ">
<path fill="none" stroke="#63b8ff" d="M198.93,-259.27C189.07,-250.61 179.02,-240.91 170.62,-231 146.98,-203.09 126.01,-166.35 113.33,-142.1"/>
<polygon fill="#63b8ff" stroke="#63b8ff" points="196.46,-261.77 206.34,-265.61 201.01,-256.45 196.46,-261.77"/>
</a>
</g>
</g>
<!-- Node7 -->
<g id="Node000007" class="node">
<title>Node7</title>
<g id="a_Node000007"><a xlink:href="gnn__graph_8hpp.html" target="_top" xlink:title=" ">
<polygon fill="white" stroke="#666666" points="303.25,-231 180,-231 180,-178 303.25,-178 303.25,-231"/>
<text text-anchor="start" x="188" y="-217.5" font-family="Helvetica,sans-Serif" font-size="10.00">/Users/ilariomazzieri</text>
<text text-anchor="start" x="188" y="-206.25" font-family="Helvetica,sans-Serif" font-size="10.00">/Desktop/vulpes/vulpes</text>
<text text-anchor="start" x="188" y="-195" font-family="Helvetica,sans-Serif" font-size="10.00">/geometry/agglomeration</text>
<text text-anchor="middle" x="241.62" y="-183.75" font-family="Helvetica,sans-Serif" font-size="10.00">/gnn_graph.hpp</text>
</a>
</g>
</g>
<!-- Node3&#45;&gt;Node7 -->
<g id="edge6_Node000003_Node000007" class="edge">
<title>Node3&#45;&gt;Node7</title>
<g id="a_edge6_Node000003_Node000007"><a xlink:title=" ">
<path fill="none" stroke="#63b8ff" d="M241.62,-255.61C241.62,-247.41 241.62,-238.89 241.62,-231.25"/>
<polygon fill="#63b8ff" stroke="#63b8ff" points="238.13,-255.35 241.63,-265.35 245.13,-255.35 238.13,-255.35"/>
</a>
</g>
</g>
<!-- Node9 -->
<g id="Node000009" class="node">
<title>Node9</title>
<g id="a_Node000009"><a xlink:href="kmeans__agglomeration_8hpp.html" target="_top" xlink:title=" ">
<polygon fill="white" stroke="#666666" points="459.75,-231 321.5,-231 321.5,-178 459.75,-178 459.75,-231"/>
<text text-anchor="start" x="329.5" y="-217.5" font-family="Helvetica,sans-Serif" font-size="10.00">/Users/ilariomazzieri</text>
<text text-anchor="start" x="329.5" y="-206.25" font-family="Helvetica,sans-Serif" font-size="10.00">/Desktop/vulpes/vulpes</text>
<text text-anchor="start" x="329.5" y="-195" font-family="Helvetica,sans-Serif" font-size="10.00">/geometry/agglomeration</text>
<text text-anchor="middle" x="390.62" y="-183.75" font-family="Helvetica,sans-Serif" font-size="10.00">/kmeans_agglomeration.hpp</text>
</a>
</g>
</g>
<!-- Node3&#45;&gt;Node9 -->
<g id="edge9_Node000003_Node000009" class="edge">
<title>Node3&#45;&gt;Node9</title>
<g id="a_edge9_Node000003_Node000009"><a xlink:title=" ">
<path fill="none" stroke="#63b8ff" d="M295.53,-261.03C312.17,-251.31 330.31,-240.72 346.24,-231.42"/>
<polygon fill="#63b8ff" stroke="#63b8ff" points="294.1,-257.8 287.23,-265.87 297.63,-263.85 294.1,-257.8"/>
</a>
</g>
</g>
<!-- Node11 -->
<g id="Node000011" class="node">
<title>Node11</title>
<g id="a_Node000011"><a xlink:href="parmetis__agglomeration_8hpp.html" target="_top" xlink:title=" ">
<polygon fill="white" stroke="#666666" points="619.25,-231 478,-231 478,-178 619.25,-178 619.25,-231"/>
<text text-anchor="start" x="486" y="-217.5" font-family="Helvetica,sans-Serif" font-size="10.00">/Users/ilariomazzieri</text>
<text text-anchor="start" x="486" y="-206.25" font-family="Helvetica,sans-Serif" font-size="10.00">/Desktop/vulpes/vulpes</text>
<text text-anchor="start" x="486" y="-195" font-family="Helvetica,sans-Serif" font-size="10.00">/geometry/agglomeration</text>
<text text-anchor="middle" x="548.62" y="-183.75" font-family="Helvetica,sans-Serif" font-size="10.00">/parmetis_agglomeration.hpp</text>
</a>
</g>
</g>
<!-- Node3&#45;&gt;Node11 -->
<g id="edge11_Node000003_Node000011" class="edge">
<title>Node3&#45;&gt;Node11</title>
<g id="a_edge11_Node000003_Node000011"><a xlink:title=" ">
<path fill="none" stroke="#63b8ff" d="M314.53,-273.62C359.16,-261.85 417.36,-246.11 468.62,-231 471.56,-230.13 474.55,-229.24 477.57,-228.33"/>
<polygon fill="#63b8ff" stroke="#63b8ff" points="313.74,-270.21 304.96,-276.14 315.52,-276.98 313.74,-270.21"/>
</a>
</g>
</g>
<!-- Node6 -->
<g id="Node000006" class="node">
<title>Node6</title>
<g id="a_Node000006"><a xlink:href="gnn__agglomeration_8cpp.html" target="_top" xlink:title=" ">
<polygon fill="white" stroke="#666666" points="162.25,-53 39,-53 39,0 162.25,0 162.25,-53"/>
<text text-anchor="start" x="47" y="-39.5" font-family="Helvetica,sans-Serif" font-size="10.00">/Users/ilariomazzieri</text>
<text text-anchor="start" x="47" y="-28.25" font-family="Helvetica,sans-Serif" font-size="10.00">/Desktop/vulpes/vulpes</text>
<text text-anchor="start" x="47" y="-17" font-family="Helvetica,sans-Serif" font-size="10.00">/geometry/agglomeration</text>
<text text-anchor="middle" x="100.62" y="-5.75" font-family="Helvetica,sans-Serif" font-size="10.00">/gnn_agglomeration.cpp</text>
</a>
</g>
</g>
<!-- Node5&#45;&gt;Node6 -->
<g id="edge5_Node000005_Node000006" class="edge">
<title>Node5&#45;&gt;Node6</title>
<g id="a_edge5_Node000005_Node000006"><a xlink:title=" ">
<path fill="none" stroke="#63b8ff" d="M100.62,-77.61C100.62,-69.41 100.62,-60.89 100.62,-53.25"/>
<polygon fill="#63b8ff" stroke="#63b8ff" points="97.13,-77.35 100.63,-87.35 104.13,-77.35 97.13,-77.35"/>
</a>
</g>
</g>
<!-- Node7&#45;&gt;Node5 -->
<g id="edge7_Node000007_Node000005" class="edge">
<title>Node7&#45;&gt;Node5</title>
<g id="a_edge7_Node000007_Node000005"><a xlink:title=" ">
<path fill="none" stroke="#63b8ff" d="M190.17,-171.75C174.54,-162.11 157.56,-151.63 142.63,-142.42"/>
<polygon fill="#63b8ff" stroke="#63b8ff" points="188.07,-174.57 198.41,-176.84 191.74,-168.61 188.07,-174.57"/>
</a>
</g>
</g>
<!-- Node8 -->
<g id="Node000008" class="node">
<title>Node8</title>
<g id="a_Node000008"><a xlink:href="gnn__graph_8cpp.html" target="_top" xlink:title=" ">
<polygon fill="white" stroke="#666666" points="303.25,-142 180,-142 180,-89 303.25,-89 303.25,-142"/>
<text text-anchor="start" x="188" y="-128.5" font-family="Helvetica,sans-Serif" font-size="10.00">/Users/ilariomazzieri</text>
<text text-anchor="start" x="188" y="-117.25" font-family="Helvetica,sans-Serif" font-size="10.00">/Desktop/vulpes/vulpes</text>
<text text-anchor="start" x="188" y="-106" font-family="Helvetica,sans-Serif" font-size="10.00">/geometry/agglomeration</text>
<text text-anchor="middle" x="241.62" y="-94.75" font-family="Helvetica,sans-Serif" font-size="10.00">/gnn_graph.cpp</text>
</a>
</g>
</g>
<!-- Node7&#45;&gt;Node8 -->
<g id="edge8_Node000007_Node000008" class="edge">
<title>Node7&#45;&gt;Node8</title>
<g id="a_edge8_Node000007_Node000008"><a xlink:title=" ">
<path fill="none" stroke="#63b8ff" d="M241.62,-166.61C241.62,-158.41 241.62,-149.89 241.62,-142.25"/>
<polygon fill="#63b8ff" stroke="#63b8ff" points="238.13,-166.35 241.63,-176.35 245.13,-166.35 238.13,-166.35"/>
</a>
</g>
</g>
<!-- Node10 -->
<g id="Node000010" class="node">
<title>Node10</title>
<g id="a_Node000010"><a xlink:href="kmeans__agglomeration_8cpp.html" target="_top" xlink:title=" ">
<polygon fill="white" stroke="#666666" points="459.75,-142 321.5,-142 321.5,-89 459.75,-89 459.75,-142"/>
<text text-anchor="start" x="329.5" y="-128.5" font-family="Helvetica,sans-Serif" font-size="10.00">/Users/ilariomazzieri</text>
<text text-anchor="start" x="329.5" y="-117.25" font-family="Helvetica,sans-Serif" font-size="10.00">/Desktop/vulpes/vulpes</text>
<text text-anchor="start" x="329.5" y="-106" font-family="Helvetica,sans-Serif" font-size="10.00">/geometry/agglomeration</text>
<text text-anchor="middle" x="390.62" y="-94.75" font-family="Helvetica,sans-Serif" font-size="10.00">/kmeans_agglomeration.cpp</text>
</a>
</g>
</g>
<!-- Node9&#45;&gt;Node10 -->
<g id="edge10_Node000009_Node000010" class="edge">
<title>Node9&#45;&gt;Node10</title>
<g id="a_edge10_Node000009_Node000010"><a xlink:title=" ">
<path fill="none" stroke="#63b8ff" d="M390.62,-166.61C390.62,-158.41 390.62,-149.89 390.62,-142.25"/>
<polygon fill="#63b8ff" stroke="#63b8ff" points="387.13,-166.35 390.63,-176.35 394.13,-166.35 387.13,-166.35"/>
</a>
</g>
</g>
<!-- Node12 -->
<g id="Node000012" class="node">
<title>Node12</title>
<g id="a_Node000012"><a xlink:href="parmetis__agglomeration_8cpp.html" target="_top" xlink:title=" ">
<polygon fill="white" stroke="#666666" points="619.25,-142 478,-142 478,-89 619.25,-89 619.25,-142"/>
<text text-anchor="start" x="486" y="-128.5" font-family="Helvetica,sans-Serif" font-size="10.00">/Users/ilariomazzieri</text>
<text text-anchor="start" x="486" y="-117.25" font-family="Helvetica,sans-Serif" font-size="10.00">/Desktop/vulpes/vulpes</text>
<text text-anchor="start" x="486" y="-106" font-family="Helvetica,sans-Serif" font-size="10.00">/geometry/agglomeration</text>
<text text-anchor="middle" x="548.62" y="-94.75" font-family="Helvetica,sans-Serif" font-size="10.00">/parmetis_agglomeration.cpp</text>
</a>
</g>
</g>
<!-- Node11&#45;&gt;Node12 -->
<g id="edge12_Node000011_Node000012" class="edge">
<title>Node11&#45;&gt;Node12</title>
<g id="a_edge12_Node000011_Node000012"><a xlink:title=" ">
<path fill="none" stroke="#63b8ff" d="M548.62,-166.61C548.62,-158.41 548.62,-149.89 548.62,-142.25"/>
<polygon fill="#63b8ff" stroke="#63b8ff" points="545.13,-166.35 548.63,-176.35 552.13,-166.35 545.13,-166.35"/>
</a>
</g>
</g>
</g>
</svg>

<g id="navigator" transform="translate(0 0)" fill="#404254">
  <rect fill="#f2f5e9" fill-opacity="0.5" stroke="#606060" stroke-width=".5" x="0" y="0" width="60" height="60"/>
  <use id="zoomplus" xlink:href="#zoomPlus" x="17" y="9" onmousedown="handleZoom(evt,'in')"/>
  <use id="zoomminus" xlink:href="#zoomMin" x="42" y="9" onmousedown="handleZoom(evt,'out')"/>
  <use id="reset" xlink:href="#resetDef" x="30" y="36" onmousedown="handleReset()"/>
   <use id="arrowup" xlink:href="#arrowUp" x="0" y="0" onmousedown="handlePan(0,-1)"/>
  <use id="arrowright" xlink:href="#arrowRight" x="0" y="0" onmousedown="handlePan(1,0)"/>
  <use id="arrowdown" xlink:href="#arrowDown" x="0" y="0" onmousedown="handlePan(0,1)"/>
  <use id="arrowleft" xlink:href="#arrowLeft" x="0" y="0" onmousedown="handlePan(-1,0)"/>
</g>
<svg viewBox="0 0 15 15" width="100%" height="30px" preserveAspectRatio="xMaxYMin meet">
 <g id="arrow_out" transform="scale(0.3 0.3)">
  <a xlink:href="index__tracker_8hpp__dep__incl_org.svg" target="_base">
   <rect id="button" ry="5" rx="5" y="6" x="6" height="38" width="38"
        fill="#f2f5e9" fill-opacity="0.5" stroke="#606060" stroke-width="1.0"/>
   <path id="arrow"
     d="M 11.500037,31.436501 C 11.940474,20.09759 22.043105,11.32322 32.158766,21.979434 L 37.068811,17.246167 C 37.068811,17.246167 37.088388,32 37.088388,32 L 22.160133,31.978069 C 22.160133,31.978069 26.997745,27.140456 26.997745,27.140456 C 18.528582,18.264221 13.291696,25.230495 11.500037,31.436501 z"
     style="fill:#404040;"/>
  </a>
 </g>
</svg>

<style type='text/css'>
<![CDATA[
[data-mouse-over-selected='false'] { opacity: 0.7; }
[data-mouse-over-selected='true']  { opacity: 1.0; }
]]>
</style>
<script type="application/ecmascript"><![CDATA[
document.addEventListener('DOMContentLoaded', (event) => {
  highlightEdges();
  highlightAdjacentNodes();
});
]]></script>
</svg>
