<?xml version="1.0" encoding="UTF-8" standalone="no"?>
<!DOCTYPE svg PUBLIC "-//W3C//DTD SVG 1.1//EN"
 "http://www.w3.org/Graphics/SVG/1.1/DTD/svg11.dtd">
<!-- Generated by graphviz version 2.42.4 (0)
 -->
<!-- Title: /__w/vulpes/vulpes/vulpes/datastructure/index_tracker.cpp Pages: 1 -->
<svg width="435pt" height="170pt"
 viewBox="0.00 0.00 434.50 170.00" xmlns="http://www.w3.org/2000/svg" xmlns:xlink="http://www.w3.org/1999/xlink">

<svg id="main" version="1.1" xmlns="http://www.w3.org/2000/svg" xmlns:xlink="http://www.w3.org/1999/xlink" xml:space="preserve" onload="init(evt)">
<style type="text/css"><![CDATA[
.node, .edge {opacity: 0.7;}
.node.selected, .edge.selected {opacity: 1;}
.edge:hover path { stroke: red; }
.edge:hover polygon { stroke: red; fill: red; }
]]></style>
<script type="application/ecmascript" xlink:href="svg.min.js"/>
<svg id="graph" class="graph">
<g id="graph0" class="graph" transform="scale(1 1) rotate(0) translate(4 166)">
<title>/__w/vulpes/vulpes/vulpes/datastructure/index_tracker.cpp</title>
<!-- Node1 -->
<g id="Node000001" class="node">
<title>Node1</title>
<g id="a_Node000001"><a xlink:title=" ">
<polygon fill="#999999" stroke="#666666" points="273,-162 153,-162 153,-121 273,-121 273,-162"/>
<text text-anchor="start" x="161" y="-150" font-family="Helvetica,sans-Serif" font-size="10.00">/__w/vulpes/vulpes</text>
<text text-anchor="start" x="161" y="-139" font-family="Helvetica,sans-Serif" font-size="10.00">/vulpes/datastructure</text>
<text text-anchor="middle" x="213" y="-128" font-family="Helvetica,sans-Serif" font-size="10.00">/index_tracker.cpp</text>
</a>
</g>
</g>
<!-- Node2 -->
<g id="Node000002" class="node">
<title>Node2</title>
<g id="a_Node000002"><a xlink:href="index__tracker_8hpp.html" target="_top" xlink:title=" ">
<polygon fill="white" stroke="#666666" points="271.5,-85 154.5,-85 154.5,-55 271.5,-55 271.5,-85"/>
<text text-anchor="start" x="162.5" y="-73" font-family="Helvetica,sans-Serif" font-size="10.00">vulpes/datastructure</text>
<text text-anchor="middle" x="213" y="-62" font-family="Helvetica,sans-Serif" font-size="10.00">/index_tracker.hpp</text>
</a>
</g>
</g>
<!-- Node1&#45;&gt;Node2 -->
<g id="edge1_Node000001_Node000002" class="edge">
<title>Node1&#45;&gt;Node2</title>
<g id="a_edge1_Node000001_Node000002"><a xlink:title=" ">
<path fill="none" stroke="#63b8ff" d="M213,-120.77C213,-112.85 213,-103.63 213,-95.3"/>
<polygon fill="#63b8ff" stroke="#63b8ff" points="216.5,-95.04 213,-85.04 209.5,-95.04 216.5,-95.04"/>
</a>
</g>
</g>
<!-- Node3 -->
<g id="Node000003" class="node">
<title>Node3</title>
<g id="a_Node000003"><a xlink:title=" ">
<polygon fill="#e0e0e0" stroke="#999999" points="64,-19 0,-19 0,0 64,0 64,-19"/>
<text text-anchor="middle" x="32" y="-7" font-family="Helvetica,sans-Serif" font-size="10.00">algorithm</text>
</a>
</g>
</g>
<!-- Node1&#45;&gt;Node3 -->
<g id="edge8_Node000001_Node000003" class="edge">
<title>Node1&#45;&gt;Node3</title>
<g id="a_edge8_Node000001_Node000003"><a xlink:title=" ">
<path fill="none" stroke="#63b8ff" d="M185.51,-120.76C148.81,-94.4 84.66,-48.32 52.14,-24.96"/>
<polygon fill="#63b8ff" stroke="#63b8ff" points="54.02,-22 43.85,-19.01 49.93,-27.69 54.02,-22"/>
</a>
</g>
</g>
<!-- Node8 -->
<g id="Node000008" class="node">
<title>Node8</title>
<g id="a_Node000008"><a xlink:title=" ">
<polygon fill="#e0e0e0" stroke="#999999" points="426.5,-19 379.5,-19 379.5,0 426.5,0 426.5,-19"/>
<text text-anchor="middle" x="403" y="-7" font-family="Helvetica,sans-Serif" font-size="10.00">vector</text>
</a>
</g>
</g>
<!-- Node1&#45;&gt;Node8 -->
<g id="edge9_Node000001_Node000008" class="edge">
<title>Node1&#45;&gt;Node8</title>
<g id="a_edge9_Node000001_Node000008"><a xlink:title=" ">
<path fill="none" stroke="#63b8ff" d="M241.86,-120.76C280.55,-94.28 348.3,-47.93 382.3,-24.67"/>
<polygon fill="#63b8ff" stroke="#63b8ff" points="384.28,-27.55 390.56,-19.01 380.33,-21.77 384.28,-27.55"/>
</a>
</g>
</g>
<!-- Node2&#45;&gt;Node3 -->
<g id="edge2_Node000002_Node000003" class="edge">
<title>Node2&#45;&gt;Node3</title>
<g id="a_edge2_Node000002_Node000003"><a xlink:title=" ">
<path fill="none" stroke="#63b8ff" d="M169.65,-54.99C138.68,-44.98 97.5,-31.67 68.27,-22.22"/>
<polygon fill="#63b8ff" stroke="#63b8ff" points="69.06,-18.8 58.47,-19.05 66.9,-25.46 69.06,-18.8"/>
</a>
</g>
</g>
<!-- Node4 -->
<g id="Node000004" class="node">
<title>Node4</title>
<g id="a_Node000004"><a xlink:title=" ">
<polygon fill="#e0e0e0" stroke="#999999" points="134,-19 82,-19 82,0 134,0 134,-19"/>
<text text-anchor="middle" x="108" y="-7" font-family="Helvetica,sans-Serif" font-size="10.00">cassert</text>
</a>
</g>
</g>
<!-- Node2&#45;&gt;Node4 -->
<g id="edge3_Node000002_Node000004" class="edge">
<title>Node2&#45;&gt;Node4</title>
<g id="a_edge3_Node000002_Node000004"><a xlink:title=" ">
<path fill="none" stroke="#63b8ff" d="M187.85,-54.99C171.11,-45.66 149.23,-33.47 132.61,-24.21"/>
<polygon fill="#63b8ff" stroke="#63b8ff" points="133.95,-20.95 123.51,-19.14 130.54,-27.06 133.95,-20.95"/>
</a>
</g>
</g>
<!-- Node5 -->
<g id="Node000005" class="node">
<title>Node5</title>
<g id="a_Node000005"><a xlink:title=" ">
<polygon fill="#e0e0e0" stroke="#999999" points="205.5,-19 152.5,-19 152.5,0 205.5,0 205.5,-19"/>
<text text-anchor="middle" x="179" y="-7" font-family="Helvetica,sans-Serif" font-size="10.00">cstddef</text>
</a>
</g>
</g>
<!-- Node2&#45;&gt;Node5 -->
<g id="edge4_Node000002_Node000005" class="edge">
<title>Node2&#45;&gt;Node5</title>
<g id="a_edge4_Node000002_Node000005"><a xlink:title=" ">
<path fill="none" stroke="#63b8ff" d="M204.77,-54.84C200.09,-46.78 194.18,-36.62 189.2,-28.06"/>
<polygon fill="#63b8ff" stroke="#63b8ff" points="192.15,-26.15 184.09,-19.27 186.09,-29.67 192.15,-26.15"/>
</a>
</g>
</g>
<!-- Node6 -->
<g id="Node000006" class="node">
<title>Node6</title>
<g id="a_Node000006"><a xlink:title=" ">
<polygon fill="#e0e0e0" stroke="#999999" points="274,-19 224,-19 224,0 274,0 274,-19"/>
<text text-anchor="middle" x="249" y="-7" font-family="Helvetica,sans-Serif" font-size="10.00">cstdint</text>
</a>
</g>
</g>
<!-- Node2&#45;&gt;Node6 -->
<g id="edge5_Node000002_Node000006" class="edge">
<title>Node2&#45;&gt;Node6</title>
<g id="a_edge5_Node000002_Node000006"><a xlink:title=" ">
<path fill="none" stroke="#63b8ff" d="M221.71,-54.84C226.67,-46.78 232.93,-36.62 238.2,-28.06"/>
<polygon fill="#63b8ff" stroke="#63b8ff" points="241.35,-29.62 243.61,-19.27 235.38,-25.95 241.35,-29.62"/>
</a>
</g>
</g>
<!-- Node7 -->
<g id="Node000007" class="node">
<title>Node7</title>
<g id="a_Node000007"><a xlink:title=" ">
<polygon fill="#e0e0e0" stroke="#999999" points="361.5,-19 292.5,-19 292.5,0 361.5,0 361.5,-19"/>
<text text-anchor="middle" x="327" y="-7" font-family="Helvetica,sans-Serif" font-size="10.00">type_traits</text>
</a>
</g>
</g>
<!-- Node2&#45;&gt;Node7 -->
<g id="edge6_Node000002_Node000007" class="edge">
<title>Node2&#45;&gt;Node7</title>
<g id="a_edge6_Node000002_Node000007"><a xlink:title=" ">
<path fill="none" stroke="#63b8ff" d="M240.31,-54.99C258.65,-45.58 282.68,-33.24 300.79,-23.95"/>
<polygon fill="#63b8ff" stroke="#63b8ff" points="302.87,-26.82 310.16,-19.14 299.67,-20.59 302.87,-26.82"/>
</a>
</g>
</g>
<!-- Node2&#45;&gt;Node8 -->
<g id="edge7_Node000002_Node000008" class="edge">
<title>Node2&#45;&gt;Node8</title>
<g id="a_edge7_Node000002_Node000008"><a xlink:title=" ">
<path fill="none" stroke="#63b8ff" d="M258.51,-54.99C292.64,-44.48 338.59,-30.33 369.42,-20.84"/>
<polygon fill="#63b8ff" stroke="#63b8ff" points="370.73,-24.1 379.26,-17.81 368.67,-17.41 370.73,-24.1"/>
</a>
</g>
</g>
</g>
</svg>
</svg>

<style type='text/css'>
<![CDATA[
[data-mouse-over-selected='false'] { opacity: 0.7; }
[data-mouse-over-selected='true']  { opacity: 1.0; }
]]>
</style>
<script type="application/ecmascript"><![CDATA[
document.addEventListener('DOMContentLoaded', (event) => {
  highlightEdges();
  highlightAdjacentNodes();
});
]]></script>
</svg>
