<?xml version="1.0" encoding="UTF-8" standalone="no"?>
<!DOCTYPE svg PUBLIC "-//W3C//DTD SVG 1.1//EN"
 "http://www.w3.org/Graphics/SVG/1.1/DTD/svg11.dtd">
<!-- Generated by graphviz version 12.2.1 (20241206.2353)
 -->
<!-- Title: Graphical Class Hierarchy Pages: 1 -->
<svg width="286pt" height="346pt"
 viewBox="0.00 0.00 286.00 345.75" xmlns="http://www.w3.org/2000/svg" xmlns:xlink="http://www.w3.org/1999/xlink">
<g id="graph0" class="graph" transform="scale(1 1) rotate(0) translate(4 341.75)">
<title>Graphical Class Hierarchy</title>
<!-- Node0 -->
<g id="Node000000" class="node">
<title>Node0</title>
<g id="a_Node000000"><a xlink:title=" ">
<polygon fill="#e0e0e0" stroke="#999999" points="76,-150.5 0,-150.5 0,-131.25 76,-131.25 76,-150.5"/>
<text text-anchor="middle" x="38" y="-137" font-family="Helvetica,sans-Serif" font-size="10.00">std::true_type</text>
</a>
</g>
</g>
<!-- Node1 -->
<g id="Node000001" class="node">
<title>Node1</title>
<g id="a_Node000001"><a xlink:href="structvulpes_1_1assemble_1_1internal_1_1is__tuple_3_01std_1_1tuple_3_01Args_8_8_8_01_4_01_4.html" target="_top" xlink:title=" ">
<polygon fill="white" stroke="#666666" points="260,-337.75 130,-337.75 130,-296 260,-296 260,-337.75"/>
<text text-anchor="start" x="138" y="-324.25" font-family="Helvetica,sans-Serif" font-size="10.00">vulpes::assemble::internal</text>
<text text-anchor="start" x="138" y="-313" font-family="Helvetica,sans-Serif" font-size="10.00">::is_tuple&lt; std::tuple&lt;</text>
<text text-anchor="middle" x="195" y="-301.75" font-family="Helvetica,sans-Serif" font-size="10.00"> Args... &gt; &gt;</text>
</a>
</g>
</g>
<!-- Node0&#45;&gt;Node1 -->
<g id="edge18_Node000000_Node000001" class="edge">
<title>Node0&#45;&gt;Node1</title>
<g id="a_edge18_Node000000_Node000001"><a xlink:title=" ">
<path fill="none" stroke="#63b8ff" d="M44.15,-161.88C52.89,-193.31 73.56,-252.55 112,-286.88 117.31,-291.62 123.44,-295.63 129.9,-299.03"/>
<polygon fill="#63b8ff" stroke="#63b8ff" points="47.59,-161.21 41.67,-152.42 40.82,-162.98 47.59,-161.21"/>
</a>
</g>
</g>
<!-- Node2 -->
<g id="Node000002" class="node">
<title>Node2</title>
<g id="a_Node000002"><a xlink:href="structvulpes_1_1assemble_1_1internal_1_1is__tuple__of__fe__expr__pointers_3_01std_1_1tuple_3_01A3f1a4bf116d637271183cda44664ad7a.html" target="_top" xlink:title=" ">
<polygon fill="white" stroke="#666666" points="278,-277.88 112,-277.88 112,-179.88 278,-179.88 278,-277.88"/>
<text text-anchor="start" x="120" y="-264.38" font-family="Helvetica,sans-Serif" font-size="10.00">vulpes::assemble::internal</text>
<text text-anchor="start" x="120" y="-253.12" font-family="Helvetica,sans-Serif" font-size="10.00">::is_tuple_of_fe_expr_pointers</text>
<text text-anchor="start" x="120" y="-241.88" font-family="Helvetica,sans-Serif" font-size="10.00">&lt; std::tuple&lt; Args... &gt;, std</text>
<text text-anchor="start" x="120" y="-230.62" font-family="Helvetica,sans-Serif" font-size="10.00">::enable_if_t&lt;(std::conjunction</text>
<text text-anchor="start" x="120" y="-219.38" font-family="Helvetica,sans-Serif" font-size="10.00">_v&lt; std::is_pointer&lt; Args &gt;...</text>
<text text-anchor="start" x="120" y="-208.12" font-family="Helvetica,sans-Serif" font-size="10.00"> &gt;) &amp;&amp;(std::conjunction_v&lt; is_fe</text>
<text text-anchor="start" x="120" y="-196.88" font-family="Helvetica,sans-Serif" font-size="10.00">_expression_derived&lt; std::remove</text>
<text text-anchor="middle" x="195" y="-185.62" font-family="Helvetica,sans-Serif" font-size="10.00">_pointer_t&lt; Args &gt; &gt;... &gt;)&gt; &gt;</text>
</a>
</g>
</g>
<!-- Node0&#45;&gt;Node2 -->
<g id="edge19_Node000000_Node000002" class="edge">
<title>Node0&#45;&gt;Node2</title>
<g id="a_edge19_Node000000_Node000002"><a xlink:title=" ">
<path fill="none" stroke="#63b8ff" d="M66.72,-156.61C79.51,-163.88 95.43,-172.92 111.64,-182.12"/>
<polygon fill="#63b8ff" stroke="#63b8ff" points="68.52,-153.61 58.1,-151.72 65.06,-159.7 68.52,-153.61"/>
</a>
</g>
</g>
<!-- Node3 -->
<g id="Node000003" class="node">
<title>Node3</title>
<g id="a_Node000003"><a xlink:href="structvulpes_1_1vvutils_1_1internal_1_1is__printable__container_3_01std_1_1array_3_01T_00_01N_01_4_01_4.html" target="_top" xlink:title=" ">
<polygon fill="white" stroke="#666666" points="253.25,-161.75 136.75,-161.75 136.75,-120 253.25,-120 253.25,-161.75"/>
<text text-anchor="start" x="144.75" y="-148.25" font-family="Helvetica,sans-Serif" font-size="10.00">vulpes::vvutils::internal</text>
<text text-anchor="start" x="144.75" y="-137" font-family="Helvetica,sans-Serif" font-size="10.00">::is_printable_container</text>
<text text-anchor="middle" x="195" y="-125.75" font-family="Helvetica,sans-Serif" font-size="10.00">&lt; std::array&lt; T, N &gt; &gt;</text>
</a>
</g>
</g>
<!-- Node0&#45;&gt;Node3 -->
<g id="edge20_Node000000_Node000003" class="edge">
<title>Node0&#45;&gt;Node3</title>
<g id="a_edge20_Node000000_Node000003"><a xlink:title=" ">
<path fill="none" stroke="#63b8ff" d="M87.55,-140.88C103,-140.88 120.25,-140.88 136.29,-140.88"/>
<polygon fill="#63b8ff" stroke="#63b8ff" points="87.64,-137.38 77.64,-140.88 87.64,-144.38 87.64,-137.38"/>
</a>
</g>
</g>
<!-- Node4 -->
<g id="Node000004" class="node">
<title>Node4</title>
<g id="a_Node000004"><a xlink:href="structvulpes_1_1vvutils_1_1internal_1_1is__printable__container_3_01std_1_1set_3_01Args_8_8_8_01_4_01_4.html" target="_top" xlink:title=" ">
<polygon fill="white" stroke="#666666" points="253.25,-101.75 136.75,-101.75 136.75,-60 253.25,-60 253.25,-101.75"/>
<text text-anchor="start" x="144.75" y="-88.25" font-family="Helvetica,sans-Serif" font-size="10.00">vulpes::vvutils::internal</text>
<text text-anchor="start" x="144.75" y="-77" font-family="Helvetica,sans-Serif" font-size="10.00">::is_printable_container</text>
<text text-anchor="middle" x="195" y="-65.75" font-family="Helvetica,sans-Serif" font-size="10.00">&lt; std::set&lt; Args... &gt; &gt;</text>
</a>
</g>
</g>
<!-- Node0&#45;&gt;Node4 -->
<g id="edge21_Node000000_Node000004" class="edge">
<title>Node0&#45;&gt;Node4</title>
<g id="a_edge21_Node000000_Node000004"><a xlink:title=" ">
<path fill="none" stroke="#63b8ff" d="M73.51,-126.37C85.64,-121.36 99.38,-115.77 112,-110.88 119.91,-107.8 128.29,-104.64 136.54,-101.57"/>
<polygon fill="#63b8ff" stroke="#63b8ff" points="72.2,-123.12 64.3,-130.19 74.88,-129.59 72.2,-123.12"/>
</a>
</g>
</g>
<!-- Node5 -->
<g id="Node000005" class="node">
<title>Node5</title>
<g id="a_Node000005"><a xlink:href="structvulpes_1_1vvutils_1_1internal_1_1is__printable__container_3_01std_1_1vector_3_01Args_8_8_8_01_4_01_4.html" target="_top" xlink:title=" ">
<polygon fill="white" stroke="#666666" points="258.5,-41.75 131.5,-41.75 131.5,0 258.5,0 258.5,-41.75"/>
<text text-anchor="start" x="139.5" y="-28.25" font-family="Helvetica,sans-Serif" font-size="10.00">vulpes::vvutils::internal</text>
<text text-anchor="start" x="139.5" y="-17" font-family="Helvetica,sans-Serif" font-size="10.00">::is_printable_container</text>
<text text-anchor="middle" x="195" y="-5.75" font-family="Helvetica,sans-Serif" font-size="10.00">&lt; std::vector&lt; Args... &gt; &gt;</text>
</a>
</g>
</g>
<!-- Node0&#45;&gt;Node5 -->
<g id="edge22_Node000000_Node000005" class="edge">
<title>Node0&#45;&gt;Node5</title>
<g id="a_edge22_Node000000_Node000005"><a xlink:title=" ">
<path fill="none" stroke="#63b8ff" d="M50.39,-121.32C63.08,-101.11 85.35,-69.9 112,-50.88 117.92,-46.65 124.51,-42.95 131.3,-39.73"/>
<polygon fill="#63b8ff" stroke="#63b8ff" points="47.49,-119.36 45.3,-129.73 53.48,-122.99 47.49,-119.36"/>
</a>
</g>
</g>
</g>
</svg>
