<?xml version="1.0" encoding="UTF-8" standalone="no"?>
<!DOCTYPE svg PUBLIC "-//W3C//DTD SVG 1.1//EN"
 "http://www.w3.org/Graphics/SVG/1.1/DTD/svg11.dtd">
<!-- Generated by graphviz version 2.42.4 (0)
 -->
<!-- Title: Graphical Class Hierarchy Pages: 1 -->
<svg width="552pt" height="521pt"
 viewBox="0.00 0.00 552.00 521.00" xmlns="http://www.w3.org/2000/svg" xmlns:xlink="http://www.w3.org/1999/xlink">
<g id="graph0" class="graph" transform="scale(1 1) rotate(0) translate(4 517)">
<title>Graphical Class Hierarchy</title>
<!-- Node0 -->
<g id="Node000000" class="node">
<title>Node0</title>
<g id="a_Node000000"><a xlink:href="structvulpes_1_1timeintegration_1_1ButcherTableIMEX.html" target="_top" xlink:title=" ">
<polygon fill="white" stroke="#666666" points="183,-277 0,-277 0,-236 183,-236 183,-277"/>
<text text-anchor="start" x="8" y="-265" font-family="Helvetica,sans-Serif" font-size="10.00">vulpes::timeintegration</text>
<text text-anchor="start" x="8" y="-254" font-family="Helvetica,sans-Serif" font-size="10.00">::ButcherTableIMEX&lt; PlainButcher</text>
<text text-anchor="middle" x="91.5" y="-243" font-family="Helvetica,sans-Serif" font-size="10.00">::n_stages+1 &gt;</text>
</a>
</g>
</g>
<!-- Node1 -->
<g id="Node000001" class="node">
<title>Node1</title>
<g id="a_Node000001"><a xlink:href="structvulpes_1_1timeintegration_1_1ImplicitButcherIMEX.html" target="_top" xlink:title=" ">
<polygon fill="white" stroke="#666666" points="354.5,-513 223.5,-513 223.5,-472 354.5,-472 354.5,-513"/>
<text text-anchor="start" x="231.5" y="-501" font-family="Helvetica,sans-Serif" font-size="10.00">vulpes::timeintegration</text>
<text text-anchor="start" x="231.5" y="-490" font-family="Helvetica,sans-Serif" font-size="10.00">::ImplicitButcherIMEX</text>
<text text-anchor="middle" x="289" y="-479" font-family="Helvetica,sans-Serif" font-size="10.00">&lt; BackwardEuler &gt;</text>
</a>
</g>
</g>
<!-- Node0&#45;&gt;Node1 -->
<g id="edge111_Node000000_Node000001" class="edge">
<title>Node0&#45;&gt;Node1</title>
<g id="a_edge111_Node000000_Node000001"><a xlink:title=" ">
<path fill="none" stroke="#63b8ff" d="M103.74,-286.38C121.77,-330.64 161.1,-413.73 219,-463.5 222.55,-466.55 226.46,-469.31 230.57,-471.82"/>
<polygon fill="#63b8ff" stroke="#63b8ff" points="106.97,-285.03 100.02,-277.04 100.47,-287.62 106.97,-285.03"/>
</a>
</g>
</g>
<!-- Node3 -->
<g id="Node000003" class="node">
<title>Node3</title>
<g id="a_Node000003"><a xlink:href="structvulpes_1_1timeintegration_1_1ImplicitButcherIMEX.html" target="_top" xlink:title=" ">
<polygon fill="white" stroke="#666666" points="359,-454 219,-454 219,-413 359,-413 359,-454"/>
<text text-anchor="start" x="227" y="-442" font-family="Helvetica,sans-Serif" font-size="10.00">vulpes::timeintegration</text>
<text text-anchor="start" x="227" y="-431" font-family="Helvetica,sans-Serif" font-size="10.00">::ImplicitButcherIMEX</text>
<text text-anchor="middle" x="289" y="-420" font-family="Helvetica,sans-Serif" font-size="10.00">&lt; CeschinoKunzmann3 &gt;</text>
</a>
</g>
</g>
<!-- Node0&#45;&gt;Node3 -->
<g id="edge113_Node000000_Node000003" class="edge">
<title>Node0&#45;&gt;Node3</title>
<g id="a_edge113_Node000000_Node000003"><a xlink:title=" ">
<path fill="none" stroke="#63b8ff" d="M111.28,-285.76C133.56,-318.49 173.46,-371.25 219,-404.5 223.2,-407.57 227.77,-410.38 232.49,-412.95"/>
<polygon fill="#63b8ff" stroke="#63b8ff" points="113.95,-283.46 105.48,-277.1 108.13,-287.35 113.95,-283.46"/>
</a>
</g>
</g>
<!-- Node5 -->
<g id="Node000005" class="node">
<title>Node5</title>
<g id="a_Node000005"><a xlink:href="structvulpes_1_1timeintegration_1_1ImplicitButcherIMEX.html" target="_top" xlink:title=" ">
<polygon fill="white" stroke="#666666" points="359,-395 219,-395 219,-354 359,-354 359,-395"/>
<text text-anchor="start" x="227" y="-383" font-family="Helvetica,sans-Serif" font-size="10.00">vulpes::timeintegration</text>
<text text-anchor="start" x="227" y="-372" font-family="Helvetica,sans-Serif" font-size="10.00">::ImplicitButcherIMEX</text>
<text text-anchor="middle" x="289" y="-361" font-family="Helvetica,sans-Serif" font-size="10.00">&lt; CeschinoKunzmann4 &gt;</text>
</a>
</g>
</g>
<!-- Node0&#45;&gt;Node5 -->
<g id="edge115_Node000000_Node000005" class="edge">
<title>Node0&#45;&gt;Node5</title>
<g id="a_edge115_Node000000_Node000005"><a xlink:title=" ">
<path fill="none" stroke="#63b8ff" d="M126.54,-283.48C151.28,-302.33 186.07,-327.28 219,-345.5 224.34,-348.46 230.05,-351.31 235.81,-353.99"/>
<polygon fill="#63b8ff" stroke="#63b8ff" points="128.61,-280.66 118.55,-277.35 124.35,-286.21 128.61,-280.66"/>
</a>
</g>
</g>
<!-- Node7 -->
<g id="Node000007" class="node">
<title>Node7</title>
<g id="a_Node000007"><a xlink:href="structvulpes_1_1timeintegration_1_1ImplicitButcherIMEX.html" target="_top" xlink:title=" ">
<polygon fill="white" stroke="#666666" points="354.5,-336 223.5,-336 223.5,-295 354.5,-295 354.5,-336"/>
<text text-anchor="start" x="231.5" y="-324" font-family="Helvetica,sans-Serif" font-size="10.00">vulpes::timeintegration</text>
<text text-anchor="start" x="231.5" y="-313" font-family="Helvetica,sans-Serif" font-size="10.00">::ImplicitButcherIMEX</text>
<text text-anchor="middle" x="289" y="-302" font-family="Helvetica,sans-Serif" font-size="10.00">&lt; CrankNicolson &gt;</text>
</a>
</g>
</g>
<!-- Node0&#45;&gt;Node7 -->
<g id="edge117_Node000000_Node000007" class="edge">
<title>Node0&#45;&gt;Node7</title>
<g id="a_edge117_Node000000_Node000007"><a xlink:title=" ">
<path fill="none" stroke="#63b8ff" d="M170.28,-279.97C187.9,-285.29 206.42,-290.88 223.43,-296.01"/>
<polygon fill="#63b8ff" stroke="#63b8ff" points="171.19,-276.59 160.6,-277.05 169.16,-283.29 171.19,-276.59"/>
</a>
</g>
</g>
<!-- Node9 -->
<g id="Node000009" class="node">
<title>Node9</title>
<g id="a_Node000009"><a xlink:href="structvulpes_1_1timeintegration_1_1ImplicitButcherIMEX.html" target="_top" xlink:title=" ">
<polygon fill="white" stroke="#666666" points="354.5,-277 223.5,-277 223.5,-236 354.5,-236 354.5,-277"/>
<text text-anchor="start" x="231.5" y="-265" font-family="Helvetica,sans-Serif" font-size="10.00">vulpes::timeintegration</text>
<text text-anchor="start" x="231.5" y="-254" font-family="Helvetica,sans-Serif" font-size="10.00">::ImplicitButcherIMEX</text>
<text text-anchor="middle" x="289" y="-243" font-family="Helvetica,sans-Serif" font-size="10.00">&lt; LobattoIIIC &gt;</text>
</a>
</g>
</g>
<!-- Node0&#45;&gt;Node9 -->
<g id="edge119_Node000000_Node000009" class="edge">
<title>Node0&#45;&gt;Node9</title>
<g id="a_edge119_Node000000_Node000009"><a xlink:title=" ">
<path fill="none" stroke="#63b8ff" d="M193.3,-256.5C203.51,-256.5 213.67,-256.5 223.35,-256.5"/>
<polygon fill="#63b8ff" stroke="#63b8ff" points="193.1,-253 183.1,-256.5 193.1,-260 193.1,-253"/>
</a>
</g>
</g>
<!-- Node11 -->
<g id="Node000011" class="node">
<title>Node11</title>
<g id="a_Node000011"><a xlink:href="structvulpes_1_1timeintegration_1_1ImplicitButcherIMEX.html" target="_top" xlink:title=" ">
<polygon fill="white" stroke="#666666" points="354.5,-218 223.5,-218 223.5,-177 354.5,-177 354.5,-218"/>
<text text-anchor="start" x="231.5" y="-206" font-family="Helvetica,sans-Serif" font-size="10.00">vulpes::timeintegration</text>
<text text-anchor="start" x="231.5" y="-195" font-family="Helvetica,sans-Serif" font-size="10.00">::ImplicitButcherIMEX</text>
<text text-anchor="middle" x="289" y="-184" font-family="Helvetica,sans-Serif" font-size="10.00">&lt; LstableDIRK &gt;</text>
</a>
</g>
</g>
<!-- Node0&#45;&gt;Node11 -->
<g id="edge121_Node000000_Node000011" class="edge">
<title>Node0&#45;&gt;Node11</title>
<g id="a_edge121_Node000000_Node000011"><a xlink:title=" ">
<path fill="none" stroke="#63b8ff" d="M170.28,-233.03C187.9,-227.71 206.42,-222.12 223.43,-216.99"/>
<polygon fill="#63b8ff" stroke="#63b8ff" points="169.16,-229.71 160.6,-235.95 171.19,-236.41 169.16,-229.71"/>
</a>
</g>
</g>
<!-- Node13 -->
<g id="Node000013" class="node">
<title>Node13</title>
<g id="a_Node000013"><a xlink:href="structvulpes_1_1timeintegration_1_1ImplicitButcherIMEX.html" target="_top" xlink:title=" ">
<polygon fill="white" stroke="#666666" points="354.5,-159 223.5,-159 223.5,-118 354.5,-118 354.5,-159"/>
<text text-anchor="start" x="231.5" y="-147" font-family="Helvetica,sans-Serif" font-size="10.00">vulpes::timeintegration</text>
<text text-anchor="start" x="231.5" y="-136" font-family="Helvetica,sans-Serif" font-size="10.00">::ImplicitButcherIMEX</text>
<text text-anchor="middle" x="289" y="-125" font-family="Helvetica,sans-Serif" font-size="10.00">&lt; Miller3 &gt;</text>
</a>
</g>
</g>
<!-- Node0&#45;&gt;Node13 -->
<g id="edge123_Node000000_Node000013" class="edge">
<title>Node0&#45;&gt;Node13</title>
<g id="a_edge123_Node000000_Node000013"><a xlink:title=" ">
<path fill="none" stroke="#63b8ff" d="M127.13,-229.62C151.9,-211.1 186.47,-186.65 219,-168.5 224.82,-165.25 231.06,-162.11 237.32,-159.16"/>
<polygon fill="#63b8ff" stroke="#63b8ff" points="125,-226.84 119.12,-235.65 129.22,-232.43 125,-226.84"/>
</a>
</g>
</g>
<!-- Node15 -->
<g id="Node000015" class="node">
<title>Node15</title>
<g id="a_Node000015"><a xlink:href="structvulpes_1_1timeintegration_1_1ImplicitButcherIMEX.html" target="_top" xlink:title=" ">
<polygon fill="white" stroke="#666666" points="354.5,-100 223.5,-100 223.5,-59 354.5,-59 354.5,-100"/>
<text text-anchor="start" x="231.5" y="-88" font-family="Helvetica,sans-Serif" font-size="10.00">vulpes::timeintegration</text>
<text text-anchor="start" x="231.5" y="-77" font-family="Helvetica,sans-Serif" font-size="10.00">::ImplicitButcherIMEX</text>
<text text-anchor="middle" x="289" y="-66" font-family="Helvetica,sans-Serif" font-size="10.00">&lt; TRBDF2 &gt;</text>
</a>
</g>
</g>
<!-- Node0&#45;&gt;Node15 -->
<g id="edge125_Node000000_Node000015" class="edge">
<title>Node0&#45;&gt;Node15</title>
<g id="a_edge125_Node000000_Node000015"><a xlink:title=" ">
<path fill="none" stroke="#63b8ff" d="M111.58,-227.28C134,-194.85 173.91,-142.73 219,-109.5 223.63,-106.09 228.7,-102.97 233.93,-100.13"/>
<polygon fill="#63b8ff" stroke="#63b8ff" points="108.47,-225.63 105.73,-235.87 114.26,-229.57 108.47,-225.63"/>
</a>
</g>
</g>
<!-- Node17 -->
<g id="Node000017" class="node">
<title>Node17</title>
<g id="a_Node000017"><a xlink:href="structvulpes_1_1timeintegration_1_1ImplicitButcherIMEX.html" target="_top" xlink:title=" ">
<polygon fill="white" stroke="#666666" points="354.5,-41 223.5,-41 223.5,0 354.5,0 354.5,-41"/>
<text text-anchor="start" x="231.5" y="-29" font-family="Helvetica,sans-Serif" font-size="10.00">vulpes::timeintegration</text>
<text text-anchor="start" x="231.5" y="-18" font-family="Helvetica,sans-Serif" font-size="10.00">::ImplicitButcherIMEX</text>
<text text-anchor="middle" x="289" y="-7" font-family="Helvetica,sans-Serif" font-size="10.00">&lt; PlainButcher &gt;</text>
</a>
</g>
</g>
<!-- Node0&#45;&gt;Node17 -->
<g id="edge127_Node000000_Node000017" class="edge">
<title>Node0&#45;&gt;Node17</title>
<g id="a_edge127_Node000000_Node000017"><a xlink:title=" ">
<path fill="none" stroke="#63b8ff" d="M104,-226.51C122.23,-182.5 161.7,-100.26 219,-50.5 223.04,-46.99 227.56,-43.83 232.3,-41.01"/>
<polygon fill="#63b8ff" stroke="#63b8ff" points="100.74,-225.23 100.22,-235.81 107.23,-227.86 100.74,-225.23"/>
</a>
</g>
</g>
<!-- Node2 -->
<g id="Node000002" class="node">
<title>Node2</title>
<g id="a_Node000002"><a xlink:href="structvulpes_1_1timeintegration_1_1BackwardEulerIMEX.html" target="_top" xlink:title=" ">
<polygon fill="white" stroke="#666666" points="535,-507.5 404,-507.5 404,-477.5 535,-477.5 535,-507.5"/>
<text text-anchor="start" x="412" y="-495.5" font-family="Helvetica,sans-Serif" font-size="10.00">vulpes::timeintegration</text>
<text text-anchor="middle" x="469.5" y="-484.5" font-family="Helvetica,sans-Serif" font-size="10.00">::BackwardEulerIMEX</text>
</a>
</g>
</g>
<!-- Node1&#45;&gt;Node2 -->
<g id="edge112_Node000001_Node000002" class="edge">
<title>Node1&#45;&gt;Node2</title>
<g id="a_edge112_Node000001_Node000002"><a xlink:title=" ">
<path fill="none" stroke="#63b8ff" d="M364.93,-492.5C377.82,-492.5 391.13,-492.5 403.73,-492.5"/>
<polygon fill="#63b8ff" stroke="#63b8ff" points="364.7,-489 354.69,-492.5 364.69,-496 364.7,-489"/>
</a>
</g>
</g>
<!-- Node4 -->
<g id="Node000004" class="node">
<title>Node4</title>
<g id="a_Node000004"><a xlink:href="structvulpes_1_1timeintegration_1_1CeschinoKunzmann3IMEX.html" target="_top" xlink:title=" ">
<polygon fill="white" stroke="#666666" points="544,-448.5 395,-448.5 395,-418.5 544,-418.5 544,-448.5"/>
<text text-anchor="start" x="403" y="-436.5" font-family="Helvetica,sans-Serif" font-size="10.00">vulpes::timeintegration</text>
<text text-anchor="middle" x="469.5" y="-425.5" font-family="Helvetica,sans-Serif" font-size="10.00">::CeschinoKunzmann3IMEX</text>
</a>
</g>
</g>
<!-- Node3&#45;&gt;Node4 -->
<g id="edge114_Node000003_Node000004" class="edge">
<title>Node3&#45;&gt;Node4</title>
<g id="a_edge114_Node000003_Node000004"><a xlink:title=" ">
<path fill="none" stroke="#63b8ff" d="M369.04,-433.5C377.66,-433.5 386.4,-433.5 394.94,-433.5"/>
<polygon fill="#63b8ff" stroke="#63b8ff" points="369.01,-430 359.01,-433.5 369.01,-437 369.01,-430"/>
</a>
</g>
</g>
<!-- Node6 -->
<g id="Node000006" class="node">
<title>Node6</title>
<g id="a_Node000006"><a xlink:href="structvulpes_1_1timeintegration_1_1CeschinoKunzmann4IMEX.html" target="_top" xlink:title=" ">
<polygon fill="white" stroke="#666666" points="544,-389.5 395,-389.5 395,-359.5 544,-359.5 544,-389.5"/>
<text text-anchor="start" x="403" y="-377.5" font-family="Helvetica,sans-Serif" font-size="10.00">vulpes::timeintegration</text>
<text text-anchor="middle" x="469.5" y="-366.5" font-family="Helvetica,sans-Serif" font-size="10.00">::CeschinoKunzmann4IMEX</text>
</a>
</g>
</g>
<!-- Node5&#45;&gt;Node6 -->
<g id="edge116_Node000005_Node000006" class="edge">
<title>Node5&#45;&gt;Node6</title>
<g id="a_edge116_Node000005_Node000006"><a xlink:title=" ">
<path fill="none" stroke="#63b8ff" d="M369.04,-374.5C377.66,-374.5 386.4,-374.5 394.94,-374.5"/>
<polygon fill="#63b8ff" stroke="#63b8ff" points="369.01,-371 359.01,-374.5 369.01,-378 369.01,-371"/>
</a>
</g>
</g>
<!-- Node8 -->
<g id="Node000008" class="node">
<title>Node8</title>
<g id="a_Node000008"><a xlink:href="structvulpes_1_1timeintegration_1_1CrankNicolsonIMEX.html" target="_top" xlink:title=" ">
<polygon fill="white" stroke="#666666" points="535,-330.5 404,-330.5 404,-300.5 535,-300.5 535,-330.5"/>
<text text-anchor="start" x="412" y="-318.5" font-family="Helvetica,sans-Serif" font-size="10.00">vulpes::timeintegration</text>
<text text-anchor="middle" x="469.5" y="-307.5" font-family="Helvetica,sans-Serif" font-size="10.00">::CrankNicolsonIMEX</text>
</a>
</g>
</g>
<!-- Node7&#45;&gt;Node8 -->
<g id="edge118_Node000007_Node000008" class="edge">
<title>Node7&#45;&gt;Node8</title>
<g id="a_edge118_Node000007_Node000008"><a xlink:title=" ">
<path fill="none" stroke="#63b8ff" d="M364.93,-315.5C377.82,-315.5 391.13,-315.5 403.73,-315.5"/>
<polygon fill="#63b8ff" stroke="#63b8ff" points="364.7,-312 354.69,-315.5 364.69,-319 364.7,-312"/>
</a>
</g>
</g>
<!-- Node10 -->
<g id="Node000010" class="node">
<title>Node10</title>
<g id="a_Node000010"><a xlink:href="structvulpes_1_1timeintegration_1_1LobattoIIICIMEX.html" target="_top" xlink:title=" ">
<polygon fill="white" stroke="#666666" points="535,-271.5 404,-271.5 404,-241.5 535,-241.5 535,-271.5"/>
<text text-anchor="start" x="412" y="-259.5" font-family="Helvetica,sans-Serif" font-size="10.00">vulpes::timeintegration</text>
<text text-anchor="middle" x="469.5" y="-248.5" font-family="Helvetica,sans-Serif" font-size="10.00">::LobattoIIICIMEX</text>
</a>
</g>
</g>
<!-- Node9&#45;&gt;Node10 -->
<g id="edge120_Node000009_Node000010" class="edge">
<title>Node9&#45;&gt;Node10</title>
<g id="a_edge120_Node000009_Node000010"><a xlink:title=" ">
<path fill="none" stroke="#63b8ff" d="M364.93,-256.5C377.82,-256.5 391.13,-256.5 403.73,-256.5"/>
<polygon fill="#63b8ff" stroke="#63b8ff" points="364.7,-253 354.69,-256.5 364.69,-260 364.7,-253"/>
</a>
</g>
</g>
<!-- Node12 -->
<g id="Node000012" class="node">
<title>Node12</title>
<g id="a_Node000012"><a xlink:href="structvulpes_1_1timeintegration_1_1LstableDIRKIMEX.html" target="_top" xlink:title=" ">
<polygon fill="white" stroke="#666666" points="535,-212.5 404,-212.5 404,-182.5 535,-182.5 535,-212.5"/>
<text text-anchor="start" x="412" y="-200.5" font-family="Helvetica,sans-Serif" font-size="10.00">vulpes::timeintegration</text>
<text text-anchor="middle" x="469.5" y="-189.5" font-family="Helvetica,sans-Serif" font-size="10.00">::LstableDIRKIMEX</text>
</a>
</g>
</g>
<!-- Node11&#45;&gt;Node12 -->
<g id="edge122_Node000011_Node000012" class="edge">
<title>Node11&#45;&gt;Node12</title>
<g id="a_edge122_Node000011_Node000012"><a xlink:title=" ">
<path fill="none" stroke="#63b8ff" d="M364.93,-197.5C377.82,-197.5 391.13,-197.5 403.73,-197.5"/>
<polygon fill="#63b8ff" stroke="#63b8ff" points="364.7,-194 354.69,-197.5 364.69,-201 364.7,-194"/>
</a>
</g>
</g>
<!-- Node14 -->
<g id="Node000014" class="node">
<title>Node14</title>
<g id="a_Node000014"><a xlink:href="structvulpes_1_1timeintegration_1_1Miller3IMEX.html" target="_top" xlink:title=" ">
<polygon fill="white" stroke="#666666" points="535,-153.5 404,-153.5 404,-123.5 535,-123.5 535,-153.5"/>
<text text-anchor="start" x="412" y="-141.5" font-family="Helvetica,sans-Serif" font-size="10.00">vulpes::timeintegration</text>
<text text-anchor="middle" x="469.5" y="-130.5" font-family="Helvetica,sans-Serif" font-size="10.00">::Miller3IMEX</text>
</a>
</g>
</g>
<!-- Node13&#45;&gt;Node14 -->
<g id="edge124_Node000013_Node000014" class="edge">
<title>Node13&#45;&gt;Node14</title>
<g id="a_edge124_Node000013_Node000014"><a xlink:title=" ">
<path fill="none" stroke="#63b8ff" d="M364.93,-138.5C377.82,-138.5 391.13,-138.5 403.73,-138.5"/>
<polygon fill="#63b8ff" stroke="#63b8ff" points="364.7,-135 354.69,-138.5 364.69,-142 364.7,-135"/>
</a>
</g>
</g>
<!-- Node16 -->
<g id="Node000016" class="node">
<title>Node16</title>
<g id="a_Node000016"><a xlink:href="structvulpes_1_1timeintegration_1_1TRBDF2IMEX.html" target="_top" xlink:title=" ">
<polygon fill="white" stroke="#666666" points="535,-94.5 404,-94.5 404,-64.5 535,-64.5 535,-94.5"/>
<text text-anchor="start" x="412" y="-82.5" font-family="Helvetica,sans-Serif" font-size="10.00">vulpes::timeintegration</text>
<text text-anchor="middle" x="469.5" y="-71.5" font-family="Helvetica,sans-Serif" font-size="10.00">::TRBDF2IMEX</text>
</a>
</g>
</g>
<!-- Node15&#45;&gt;Node16 -->
<g id="edge126_Node000015_Node000016" class="edge">
<title>Node15&#45;&gt;Node16</title>
<g id="a_edge126_Node000015_Node000016"><a xlink:title=" ">
<path fill="none" stroke="#63b8ff" d="M364.93,-79.5C377.82,-79.5 391.13,-79.5 403.73,-79.5"/>
<polygon fill="#63b8ff" stroke="#63b8ff" points="364.7,-76 354.69,-79.5 364.69,-83 364.7,-76"/>
</a>
</g>
</g>
</g>
</svg>
