<?xml version="1.0" encoding="UTF-8" standalone="no"?>
<!DOCTYPE svg PUBLIC "-//W3C//DTD SVG 1.1//EN"
 "http://www.w3.org/Graphics/SVG/1.1/DTD/svg11.dtd">
<!-- Generated by graphviz version 2.42.4 (0)
 -->
<!-- Title: Graphical Class Hierarchy Pages: 1 -->
<svg width="296pt" height="206pt"
 viewBox="0.00 0.00 296.00 205.50" xmlns="http://www.w3.org/2000/svg" xmlns:xlink="http://www.w3.org/1999/xlink">
<g id="graph0" class="graph" transform="scale(1 1) rotate(0) translate(4 201.5)">
<title>Graphical Class Hierarchy</title>
<!-- Node0 -->
<g id="Node000000" class="node">
<title>Node0</title>
<g id="a_Node000000"><a xlink:title=" ">
<polygon fill="#e0e0e0" stroke="#999999" points="89,-105.5 0,-105.5 0,-86.5 89,-86.5 89,-105.5"/>
<text text-anchor="middle" x="44.5" y="-93.5" font-family="Helvetica,sans-Serif" font-size="10.00">std::false_type</text>
</a>
</g>
</g>
<!-- Node1 -->
<g id="Node000001" class="node">
<title>Node1</title>
<g id="a_Node000001"><a xlink:href="structvulpes_1_1assemble_1_1internal_1_1is__fe__expression__derived.html" target="_top" xlink:title=" ">
<polygon fill="white" stroke="#666666" points="279.5,-197.5 133.5,-197.5 133.5,-156.5 279.5,-156.5 279.5,-197.5"/>
<text text-anchor="start" x="141.5" y="-185.5" font-family="Helvetica,sans-Serif" font-size="10.00">vulpes::assemble::internal</text>
<text text-anchor="start" x="141.5" y="-174.5" font-family="Helvetica,sans-Serif" font-size="10.00">::is_fe_expression_derived</text>
<text text-anchor="middle" x="206.5" y="-163.5" font-family="Helvetica,sans-Serif" font-size="10.00">&lt; T, typename &gt;</text>
</a>
</g>
</g>
<!-- Node0&#45;&gt;Node1 -->
<g id="edge11_Node000000_Node000001" class="edge">
<title>Node0&#45;&gt;Node1</title>
<g id="a_edge11_Node000000_Node000001"><a xlink:title=" ">
<path fill="none" stroke="#63b8ff" d="M66.88,-111.5C82.48,-122.36 104.4,-136.7 125,-147 131.67,-150.33 138.81,-153.51 145.97,-156.46"/>
<polygon fill="#63b8ff" stroke="#63b8ff" points="68.68,-108.48 58.49,-105.57 64.64,-114.2 68.68,-108.48"/>
</a>
</g>
</g>
<!-- Node2 -->
<g id="Node000002" class="node">
<title>Node2</title>
<g id="a_Node000002"><a xlink:href="structvulpes_1_1assemble_1_1internal_1_1is__tuple.html" target="_top" xlink:title=" ">
<polygon fill="white" stroke="#666666" points="279.5,-138 133.5,-138 133.5,-108 279.5,-108 279.5,-138"/>
<text text-anchor="start" x="141.5" y="-126" font-family="Helvetica,sans-Serif" font-size="10.00">vulpes::assemble::internal</text>
<text text-anchor="middle" x="206.5" y="-115" font-family="Helvetica,sans-Serif" font-size="10.00">::is_tuple&lt; T &gt;</text>
</a>
</g>
</g>
<!-- Node0&#45;&gt;Node2 -->
<g id="edge12_Node000000_Node000002" class="edge">
<title>Node0&#45;&gt;Node2</title>
<g id="a_edge12_Node000000_Node000002"><a xlink:title=" ">
<path fill="none" stroke="#63b8ff" d="M99.38,-105.09C110.25,-106.93 121.83,-108.88 133.21,-110.8"/>
<polygon fill="#63b8ff" stroke="#63b8ff" points="99.66,-101.59 89.22,-103.38 98.5,-108.49 99.66,-101.59"/>
</a>
</g>
</g>
<!-- Node3 -->
<g id="Node000003" class="node">
<title>Node3</title>
<g id="a_Node000003"><a xlink:href="structvulpes_1_1assemble_1_1internal_1_1is__tuple__of__fe__expr__pointers.html" target="_top" xlink:title=" ">
<polygon fill="white" stroke="#666666" points="288,-89.5 125,-89.5 125,-48.5 288,-48.5 288,-89.5"/>
<text text-anchor="start" x="133" y="-77.5" font-family="Helvetica,sans-Serif" font-size="10.00">vulpes::assemble::internal</text>
<text text-anchor="start" x="133" y="-66.5" font-family="Helvetica,sans-Serif" font-size="10.00">::is_tuple_of_fe_expr_pointers</text>
<text text-anchor="middle" x="206.5" y="-55.5" font-family="Helvetica,sans-Serif" font-size="10.00">&lt; T, typename &gt;</text>
</a>
</g>
</g>
<!-- Node0&#45;&gt;Node3 -->
<g id="edge13_Node000000_Node000003" class="edge">
<title>Node0&#45;&gt;Node3</title>
<g id="a_edge13_Node000000_Node000003"><a xlink:title=" ">
<path fill="none" stroke="#63b8ff" d="M99.12,-86.95C107.43,-85.55 116.17,-84.08 124.91,-82.6"/>
<polygon fill="#63b8ff" stroke="#63b8ff" points="98.5,-83.51 89.22,-88.62 99.66,-90.41 98.5,-83.51"/>
</a>
</g>
</g>
<!-- Node4 -->
<g id="Node000004" class="node">
<title>Node4</title>
<g id="a_Node000004"><a xlink:href="structvulpes_1_1vvutils_1_1internal_1_1is__printable__container.html" target="_top" xlink:title=" ">
<polygon fill="white" stroke="#666666" points="286,-30 127,-30 127,0 286,0 286,-30"/>
<text text-anchor="start" x="135" y="-18" font-family="Helvetica,sans-Serif" font-size="10.00">vulpes::vvutils::internal</text>
<text text-anchor="middle" x="206.5" y="-7" font-family="Helvetica,sans-Serif" font-size="10.00">::is_printable_container&lt; T &gt;</text>
</a>
</g>
</g>
<!-- Node0&#45;&gt;Node4 -->
<g id="edge14_Node000000_Node000004" class="edge">
<title>Node0&#45;&gt;Node4</title>
<g id="a_edge14_Node000000_Node000004"><a xlink:title=" ">
<path fill="none" stroke="#63b8ff" d="M64.41,-80.1C79.88,-67.75 102.76,-50.95 125,-40 132.62,-36.25 140.91,-32.92 149.19,-30"/>
<polygon fill="#63b8ff" stroke="#63b8ff" points="62.18,-77.41 56.63,-86.44 66.6,-82.84 62.18,-77.41"/>
</a>
</g>
</g>
</g>
</svg>
