<?xml version="1.0" encoding="UTF-8" standalone="no"?>
<!DOCTYPE svg PUBLIC "-//W3C//DTD SVG 1.1//EN"
 "http://www.w3.org/Graphics/SVG/1.1/DTD/svg11.dtd">
<!-- Generated by graphviz version 2.42.4 (0)
 -->
<!-- Title: Graphical Class Hierarchy Pages: 1 -->
<svg width="331pt" height="124pt"
 viewBox="0.00 0.00 331.00 123.50" xmlns="http://www.w3.org/2000/svg" xmlns:xlink="http://www.w3.org/1999/xlink">
<g id="graph0" class="graph" transform="scale(1 1) rotate(0) translate(4 119.5)">
<title>Graphical Class Hierarchy</title>
<!-- Node0 -->
<g id="Node000000" class="node">
<title>Node0</title>
<g id="a_Node000000"><a xlink:href="structvulpes_1_1timeintegration_1_1ButcherTable.html" target="_top" xlink:title=" ">
<polygon fill="white" stroke="#666666" points="131,-67.5 0,-67.5 0,-37.5 131,-37.5 131,-67.5"/>
<text text-anchor="start" x="8" y="-55.5" font-family="Helvetica,sans-Serif" font-size="10.00">vulpes::timeintegration</text>
<text text-anchor="middle" x="65.5" y="-44.5" font-family="Helvetica,sans-Serif" font-size="10.00">::ButcherTable&lt; 4 &gt;</text>
</a>
</g>
</g>
<!-- Node1 -->
<g id="Node000001" class="node">
<title>Node1</title>
<g id="a_Node000001"><a xlink:href="structvulpes_1_1timeintegration_1_1CeschinoKunzmann4.html" target="_top" xlink:title=" ">
<polygon fill="white" stroke="#666666" points="310.5,-115.5 179.5,-115.5 179.5,-85.5 310.5,-85.5 310.5,-115.5"/>
<text text-anchor="start" x="187.5" y="-103.5" font-family="Helvetica,sans-Serif" font-size="10.00">vulpes::timeintegration</text>
<text text-anchor="middle" x="245" y="-92.5" font-family="Helvetica,sans-Serif" font-size="10.00">::CeschinoKunzmann4</text>
</a>
</g>
</g>
<!-- Node0&#45;&gt;Node1 -->
<g id="edge96_Node000000_Node000001" class="edge">
<title>Node0&#45;&gt;Node1</title>
<g id="a_edge96_Node000000_Node000001"><a xlink:title=" ">
<path fill="none" stroke="#63b8ff" d="M132.02,-70.22C150.59,-75.24 170.61,-80.65 188.52,-85.5"/>
<polygon fill="#63b8ff" stroke="#63b8ff" points="132.74,-66.79 122.18,-67.56 130.91,-73.54 132.74,-66.79"/>
</a>
</g>
</g>
<!-- Node2 -->
<g id="Node000002" class="node">
<title>Node2</title>
<g id="a_Node000002"><a xlink:href="structvulpes_1_1timeintegration_1_1LstableDIRK.html" target="_top" xlink:title=" ">
<polygon fill="white" stroke="#666666" points="310.5,-67.5 179.5,-67.5 179.5,-37.5 310.5,-37.5 310.5,-67.5"/>
<text text-anchor="start" x="187.5" y="-55.5" font-family="Helvetica,sans-Serif" font-size="10.00">vulpes::timeintegration</text>
<text text-anchor="middle" x="245" y="-44.5" font-family="Helvetica,sans-Serif" font-size="10.00">::LstableDIRK</text>
</a>
</g>
</g>
<!-- Node0&#45;&gt;Node2 -->
<g id="edge97_Node000000_Node000002" class="edge">
<title>Node0&#45;&gt;Node2</title>
<g id="a_edge97_Node000000_Node000002"><a xlink:title=" ">
<path fill="none" stroke="#63b8ff" d="M141.18,-52.5C153.91,-52.5 167.03,-52.5 179.46,-52.5"/>
<polygon fill="#63b8ff" stroke="#63b8ff" points="141.08,-49 131.08,-52.5 141.08,-56 141.08,-49"/>
</a>
</g>
</g>
<!-- Node3 -->
<g id="Node000003" class="node">
<title>Node3</title>
<g id="a_Node000003"><a xlink:href="structvulpes_1_1timeintegration_1_1RK4.html" target="_top" xlink:title=" ">
<polygon fill="white" stroke="#666666" points="323,-19 167,-19 167,0 323,0 323,-19"/>
<text text-anchor="middle" x="245" y="-7" font-family="Helvetica,sans-Serif" font-size="10.00">vulpes::timeintegration::RK4</text>
</a>
</g>
</g>
<!-- Node0&#45;&gt;Node3 -->
<g id="edge98_Node000000_Node000003" class="edge">
<title>Node0&#45;&gt;Node3</title>
<g id="a_edge98_Node000000_Node000003"><a xlink:title=" ">
<path fill="none" stroke="#63b8ff" d="M138.5,-35.06C161.11,-29.58 185.23,-23.74 204.69,-19.02"/>
<polygon fill="#63b8ff" stroke="#63b8ff" points="137.48,-31.7 128.58,-37.46 139.12,-38.51 137.48,-31.7"/>
</a>
</g>
</g>
</g>
</svg>
