<?xml version="1.0" encoding="UTF-8" standalone="no"?>
<!DOCTYPE svg PUBLIC "-//W3C//DTD SVG 1.1//EN"
 "http://www.w3.org/Graphics/SVG/1.1/DTD/svg11.dtd">
<!-- Generated by graphviz version 2.42.4 (0)
 -->
<!-- Title: Graphical Class Hierarchy Pages: 1 -->
<svg width="380pt" height="367pt"
 viewBox="0.00 0.00 380.00 367.00" xmlns="http://www.w3.org/2000/svg" xmlns:xlink="http://www.w3.org/1999/xlink">
<g id="graph0" class="graph" transform="scale(1 1) rotate(0) translate(4 363)">
<title>Graphical Class Hierarchy</title>
<!-- Node0 -->
<g id="Node000000" class="node">
<title>Node0</title>
<g id="a_Node000000"><a xlink:href="classvulpes_1_1fe_1_1FeExpressionBase.html" target="_top" xlink:title=" ">
<polygon fill="white" stroke="#666666" points="154,-202.5 0,-202.5 0,-172.5 154,-172.5 154,-202.5"/>
<text text-anchor="start" x="8" y="-190.5" font-family="Helvetica,sans-Serif" font-size="10.00">vulpes::fe::FeExpression</text>
<text text-anchor="middle" x="77" y="-179.5" font-family="Helvetica,sans-Serif" font-size="10.00">Base&lt; Dim, FeExpression &gt;</text>
</a>
</g>
</g>
<!-- Node1 -->
<g id="Node000001" class="node">
<title>Node1</title>
<g id="a_Node000001"><a xlink:href="classvulpes_1_1fe_1_1FeExpressionFeProjection.html" target="_top" xlink:title=" ">
<polygon fill="white" stroke="#666666" points="360,-359 202,-359 202,-318 360,-318 360,-359"/>
<text text-anchor="start" x="210" y="-347" font-family="Helvetica,sans-Serif" font-size="10.00">vulpes::fe::FeExpression</text>
<text text-anchor="start" x="210" y="-336" font-family="Helvetica,sans-Serif" font-size="10.00">FeProjection&lt; Dim, FeSpace,</text>
<text text-anchor="middle" x="281" y="-325" font-family="Helvetica,sans-Serif" font-size="10.00"> DofHandler, OutputDim &gt;</text>
</a>
</g>
</g>
<!-- Node0&#45;&gt;Node1 -->
<g id="edge31_Node000000_Node000001" class="edge">
<title>Node0&#45;&gt;Node1</title>
<g id="a_edge31_Node000000_Node000001"><a xlink:title=" ">
<path fill="none" stroke="#63b8ff" d="M93.62,-210.8C113.11,-238.17 148.93,-283.18 190,-309.5 194.84,-312.6 200.03,-315.39 205.4,-317.91"/>
<polygon fill="#63b8ff" stroke="#63b8ff" points="96.47,-208.77 87.88,-202.58 90.73,-212.78 96.47,-208.77"/>
</a>
</g>
</g>
<!-- Node2 -->
<g id="Node000002" class="node">
<title>Node2</title>
<g id="a_Node000002"><a xlink:href="classvulpes_1_1fe_1_1FeExpressionFunc.html" target="_top" xlink:title=" ">
<polygon fill="white" stroke="#666666" points="360.5,-300 201.5,-300 201.5,-259 360.5,-259 360.5,-300"/>
<text text-anchor="start" x="209.5" y="-288" font-family="Helvetica,sans-Serif" font-size="10.00">vulpes::fe::FeExpression</text>
<text text-anchor="start" x="209.5" y="-277" font-family="Helvetica,sans-Serif" font-size="10.00">Func&lt; IndexBegin, IndexEnd,</text>
<text text-anchor="middle" x="281" y="-266" font-family="Helvetica,sans-Serif" font-size="10.00"> Dim, FeSpace, IsTest &gt;</text>
</a>
</g>
</g>
<!-- Node0&#45;&gt;Node2 -->
<g id="edge32_Node000000_Node000002" class="edge">
<title>Node0&#45;&gt;Node2</title>
<g id="a_edge32_Node000000_Node000002"><a xlink:title=" ">
<path fill="none" stroke="#63b8ff" d="M110.32,-207.97C132.23,-221.27 162.15,-238.33 190,-250.5 196.77,-253.46 203.94,-256.27 211.16,-258.9"/>
<polygon fill="#63b8ff" stroke="#63b8ff" points="112.1,-204.96 101.75,-202.71 108.44,-210.93 112.1,-204.96"/>
</a>
</g>
</g>
<!-- Node3 -->
<g id="Node000003" class="node">
<title>Node3</title>
<g id="a_Node000003"><a xlink:href="classvulpes_1_1fe_1_1FeExpressionFunctionWrapper.html" target="_top" xlink:title=" ">
<polygon fill="white" stroke="#666666" points="348.5,-241 213.5,-241 213.5,-200 348.5,-200 348.5,-241"/>
<text text-anchor="start" x="221.5" y="-229" font-family="Helvetica,sans-Serif" font-size="10.00">vulpes::fe::FeExpression</text>
<text text-anchor="start" x="221.5" y="-218" font-family="Helvetica,sans-Serif" font-size="10.00">FunctionWrapper&lt; Dim,</text>
<text text-anchor="middle" x="281" y="-207" font-family="Helvetica,sans-Serif" font-size="10.00"> OutputDim &gt;</text>
</a>
</g>
</g>
<!-- Node0&#45;&gt;Node3 -->
<g id="edge33_Node000000_Node000003" class="edge">
<title>Node0&#45;&gt;Node3</title>
<g id="a_edge33_Node000000_Node000003"><a xlink:title=" ">
<path fill="none" stroke="#63b8ff" d="M164.21,-201.58C180.63,-204.27 197.57,-207.03 213.27,-209.6"/>
<polygon fill="#63b8ff" stroke="#63b8ff" points="164.51,-198.09 154.08,-199.93 163.38,-205 164.51,-198.09"/>
</a>
</g>
</g>
<!-- Node4 -->
<g id="Node000004" class="node">
<title>Node4</title>
<g id="a_Node000004"><a xlink:href="classvulpes_1_1fe_1_1FeExpressionGradFunc.html" target="_top" xlink:title=" ">
<polygon fill="white" stroke="#666666" points="351,-181.5 211,-181.5 211,-129.5 351,-129.5 351,-181.5"/>
<text text-anchor="start" x="219" y="-169.5" font-family="Helvetica,sans-Serif" font-size="10.00">vulpes::fe::FeExpression</text>
<text text-anchor="start" x="219" y="-158.5" font-family="Helvetica,sans-Serif" font-size="10.00">GradFunc&lt; IndexBegin,</text>
<text text-anchor="start" x="219" y="-147.5" font-family="Helvetica,sans-Serif" font-size="10.00"> IndexEnd, Dim, FeSpace,</text>
<text text-anchor="middle" x="281" y="-136.5" font-family="Helvetica,sans-Serif" font-size="10.00"> IsTest &gt;</text>
</a>
</g>
</g>
<!-- Node0&#45;&gt;Node4 -->
<g id="edge34_Node000000_Node000004" class="edge">
<title>Node0&#45;&gt;Node4</title>
<g id="a_edge34_Node000000_Node000004"><a xlink:title=" ">
<path fill="none" stroke="#63b8ff" d="M164.25,-173.84C179.85,-171.36 195.94,-168.82 210.97,-166.44"/>
<polygon fill="#63b8ff" stroke="#63b8ff" points="163.41,-170.43 154.08,-175.45 164.5,-177.34 163.41,-170.43"/>
</a>
</g>
</g>
<!-- Node5 -->
<g id="Node000005" class="node">
<title>Node5</title>
<g id="a_Node000005"><a xlink:href="classvulpes_1_1fe_1_1FeExpressionSymGradFunc.html" target="_top" xlink:title=" ">
<polygon fill="white" stroke="#666666" points="357.5,-111.5 204.5,-111.5 204.5,-59.5 357.5,-59.5 357.5,-111.5"/>
<text text-anchor="start" x="212.5" y="-99.5" font-family="Helvetica,sans-Serif" font-size="10.00">vulpes::fe::FeExpression</text>
<text text-anchor="start" x="212.5" y="-88.5" font-family="Helvetica,sans-Serif" font-size="10.00">SymGradFunc&lt; IndexBegin,</text>
<text text-anchor="start" x="212.5" y="-77.5" font-family="Helvetica,sans-Serif" font-size="10.00"> IndexEnd, Dim, FeSpace,</text>
<text text-anchor="middle" x="281" y="-66.5" font-family="Helvetica,sans-Serif" font-size="10.00"> IsTest &gt;</text>
</a>
</g>
</g>
<!-- Node0&#45;&gt;Node5 -->
<g id="edge35_Node000000_Node000005" class="edge">
<title>Node0&#45;&gt;Node5</title>
<g id="a_edge35_Node000000_Node000005"><a xlink:title=" ">
<path fill="none" stroke="#63b8ff" d="M109.13,-166.94C131.18,-152.87 161.74,-134.33 190,-120.5 196.17,-117.48 202.68,-114.53 209.25,-111.7"/>
<polygon fill="#63b8ff" stroke="#63b8ff" points="107.05,-164.12 100.54,-172.48 110.84,-170.01 107.05,-164.12"/>
</a>
</g>
</g>
<!-- Node6 -->
<g id="Node000006" class="node">
<title>Node6</title>
<g id="a_Node000006"><a xlink:href="classvulpes_1_1fe_1_1FeExpressionTraceSymGradFunc.html" target="_top" xlink:title=" ">
<polygon fill="white" stroke="#666666" points="372,-41 190,-41 190,0 372,0 372,-41"/>
<text text-anchor="start" x="198" y="-29" font-family="Helvetica,sans-Serif" font-size="10.00">vulpes::fe::FeExpression</text>
<text text-anchor="start" x="198" y="-18" font-family="Helvetica,sans-Serif" font-size="10.00">TraceSymGradFunc&lt; IndexBegin,</text>
<text text-anchor="middle" x="281" y="-7" font-family="Helvetica,sans-Serif" font-size="10.00"> IndexEnd, Dim, FeSpace, IsTest &gt;</text>
</a>
</g>
</g>
<!-- Node0&#45;&gt;Node6 -->
<g id="edge36_Node000000_Node000006" class="edge">
<title>Node0&#45;&gt;Node6</title>
<g id="a_edge36_Node000000_Node000006"><a xlink:title=" ">
<path fill="none" stroke="#63b8ff" d="M91.57,-163.68C110.07,-133.23 145.99,-80.84 190,-50.5 195.02,-47.04 200.46,-43.96 206.11,-41.21"/>
<polygon fill="#63b8ff" stroke="#63b8ff" points="88.5,-161.99 86.39,-172.37 94.51,-165.57 88.5,-161.99"/>
</a>
</g>
</g>
</g>
</svg>
