<?xml version="1.0" encoding="UTF-8" standalone="no"?>
<!DOCTYPE svg PUBLIC "-//W3C//DTD SVG 1.1//EN"
 "http://www.w3.org/Graphics/SVG/1.1/DTD/svg11.dtd">
<!-- Generated by graphviz version 12.2.1 (20241206.2353)
 -->
<!-- Title: Graphical Class Hierarchy Pages: 1 -->
<svg width="460pt" height="50pt"
 viewBox="0.00 0.00 460.25 49.75" xmlns="http://www.w3.org/2000/svg" xmlns:xlink="http://www.w3.org/1999/xlink">
<g id="graph0" class="graph" transform="scale(1 1) rotate(0) translate(4 45.75)">
<title>Graphical Class Hierarchy</title>
<!-- Node0 -->
<g id="Node000000" class="node">
<title>Node0</title>
<g id="a_Node000000"><a xlink:href="structvulpes_1_1timeintegration_1_1ButcherTableIMEX.html" target="_top" xlink:title=" ">
<polygon fill="white" stroke="#666666" points="151.75,-41.75 0,-41.75 0,0 151.75,0 151.75,-41.75"/>
<text text-anchor="start" x="8" y="-28.25" font-family="Helvetica,sans-Serif" font-size="10.00">vulpes::timeintegration</text>
<text text-anchor="start" x="8" y="-17" font-family="Helvetica,sans-Serif" font-size="10.00">::ButcherTableIMEX&lt; TRBDF2</text>
<text text-anchor="middle" x="75.88" y="-5.75" font-family="Helvetica,sans-Serif" font-size="10.00">::n_stages+1 &gt;</text>
</a>
</g>
</g>
<!-- Node1 -->
<g id="Node000001" class="node">
<title>Node1</title>
<g id="a_Node000001"><a xlink:href="structvulpes_1_1timeintegration_1_1ImplicitButcherIMEX.html" target="_top" xlink:title=" ">
<polygon fill="white" stroke="#666666" points="302,-41.75 187.75,-41.75 187.75,0 302,0 302,-41.75"/>
<text text-anchor="start" x="195.75" y="-28.25" font-family="Helvetica,sans-Serif" font-size="10.00">vulpes::timeintegration</text>
<text text-anchor="start" x="195.75" y="-17" font-family="Helvetica,sans-Serif" font-size="10.00">::ImplicitButcherIMEX</text>
<text text-anchor="middle" x="244.88" y="-5.75" font-family="Helvetica,sans-Serif" font-size="10.00">&lt; TRBDF2 &gt;</text>
</a>
</g>
</g>
<!-- Node0&#45;&gt;Node1 -->
<g id="edge128_Node000000_Node000001" class="edge">
<title>Node0&#45;&gt;Node1</title>
<g id="a_edge128_Node000000_Node000001"><a xlink:title=" ">
<path fill="none" stroke="#63b8ff" d="M163.31,-20.88C171.55,-20.88 179.76,-20.88 187.61,-20.88"/>
<polygon fill="#63b8ff" stroke="#63b8ff" points="163.58,-17.38 153.58,-20.88 163.58,-24.38 163.58,-17.38"/>
</a>
</g>
</g>
<!-- Node2 -->
<g id="Node000002" class="node">
<title>Node2</title>
<g id="a_Node000002"><a xlink:href="structvulpes_1_1timeintegration_1_1TRBDF2IMEX.html" target="_top" xlink:title=" ">
<polygon fill="white" stroke="#666666" points="452.25,-36.12 338,-36.12 338,-5.62 452.25,-5.62 452.25,-36.12"/>
<text text-anchor="start" x="346" y="-22.62" font-family="Helvetica,sans-Serif" font-size="10.00">vulpes::timeintegration</text>
<text text-anchor="middle" x="395.12" y="-11.38" font-family="Helvetica,sans-Serif" font-size="10.00">::TRBDF2IMEX</text>
</a>
</g>
</g>
<!-- Node1&#45;&gt;Node2 -->
<g id="edge129_Node000001_Node000002" class="edge">
<title>Node1&#45;&gt;Node2</title>
<g id="a_edge129_Node000001_Node000002"><a xlink:title=" ">
<path fill="none" stroke="#63b8ff" d="M313.66,-20.88C321.74,-20.88 329.92,-20.88 337.81,-20.88"/>
<polygon fill="#63b8ff" stroke="#63b8ff" points="313.86,-17.38 303.86,-20.88 313.86,-24.38 313.86,-17.38"/>
</a>
</g>
</g>
</g>
</svg>
