<?xml version="1.0" encoding="UTF-8" standalone="no"?>
<!DOCTYPE svg PUBLIC "-//W3C//DTD SVG 1.1//EN"
 "http://www.w3.org/Graphics/SVG/1.1/DTD/svg11.dtd">
<!-- Generated by graphviz version 2.42.4 (0)
 -->
<!-- Title: Graphical Class Hierarchy Pages: 1 -->
<svg width="296pt" height="157pt"
 viewBox="0.00 0.00 296.00 157.00" xmlns="http://www.w3.org/2000/svg" xmlns:xlink="http://www.w3.org/1999/xlink">
<g id="graph0" class="graph" transform="scale(1 1) rotate(0) translate(4 153)">
<title>Graphical Class Hierarchy</title>
<!-- Node0 -->
<g id="Node000000" class="node">
<title>Node0</title>
<g id="a_Node000000"><a xlink:title=" ">
<polygon fill="#e0e0e0" stroke="#999999" points="89,-84 0,-84 0,-65 89,-65 89,-84"/>
<text text-anchor="middle" x="44.5" y="-72" font-family="Helvetica,sans-Serif" font-size="10.00">std::false_type</text>
</a>
</g>
</g>
<!-- Node1 -->
<g id="Node000001" class="node">
<title>Node1</title>
<g id="a_Node000001"><a xlink:href="structvulpes_1_1assemble_1_1internal_1_1is__fe__expression__derived.html" target="_top" xlink:title=" ">
<polygon fill="white" stroke="#666666" points="279.5,-149 133.5,-149 133.5,-108 279.5,-108 279.5,-149"/>
<text text-anchor="start" x="141.5" y="-137" font-family="Helvetica,sans-Serif" font-size="10.00">vulpes::assemble::internal</text>
<text text-anchor="start" x="141.5" y="-126" font-family="Helvetica,sans-Serif" font-size="10.00">::is_fe_expression_derived</text>
<text text-anchor="middle" x="206.5" y="-115" font-family="Helvetica,sans-Serif" font-size="10.00">&lt; T, typename &gt;</text>
</a>
</g>
</g>
<!-- Node0&#45;&gt;Node1 -->
<g id="edge13_Node000000_Node000001" class="edge">
<title>Node0&#45;&gt;Node1</title>
<g id="a_edge13_Node000000_Node000001"><a xlink:title=" ">
<path fill="none" stroke="#63b8ff" d="M83.44,-87.31C101.74,-93.48 124.14,-101.04 144.74,-107.99"/>
<polygon fill="#63b8ff" stroke="#63b8ff" points="84.33,-83.91 73.74,-84.03 82.09,-90.54 84.33,-83.91"/>
</a>
</g>
</g>
<!-- Node2 -->
<g id="Node000002" class="node">
<title>Node2</title>
<g id="a_Node000002"><a xlink:href="structvulpes_1_1assemble_1_1internal_1_1is__tuple.html" target="_top" xlink:title=" ">
<polygon fill="white" stroke="#666666" points="279.5,-89.5 133.5,-89.5 133.5,-59.5 279.5,-59.5 279.5,-89.5"/>
<text text-anchor="start" x="141.5" y="-77.5" font-family="Helvetica,sans-Serif" font-size="10.00">vulpes::assemble::internal</text>
<text text-anchor="middle" x="206.5" y="-66.5" font-family="Helvetica,sans-Serif" font-size="10.00">::is_tuple&lt; T &gt;</text>
</a>
</g>
</g>
<!-- Node0&#45;&gt;Node2 -->
<g id="edge14_Node000000_Node000002" class="edge">
<title>Node0&#45;&gt;Node2</title>
<g id="a_edge14_Node000000_Node000002"><a xlink:title=" ">
<path fill="none" stroke="#63b8ff" d="M99.38,-74.5C110.25,-74.5 121.83,-74.5 133.21,-74.5"/>
<polygon fill="#63b8ff" stroke="#63b8ff" points="99.22,-71 89.22,-74.5 99.22,-78 99.22,-71"/>
</a>
</g>
</g>
<!-- Node3 -->
<g id="Node000003" class="node">
<title>Node3</title>
<g id="a_Node000003"><a xlink:href="structvulpes_1_1assemble_1_1internal_1_1is__tuple__of__fe__expr__pointers.html" target="_top" xlink:title=" ">
<polygon fill="white" stroke="#666666" points="288,-41 125,-41 125,0 288,0 288,-41"/>
<text text-anchor="start" x="133" y="-29" font-family="Helvetica,sans-Serif" font-size="10.00">vulpes::assemble::internal</text>
<text text-anchor="start" x="133" y="-18" font-family="Helvetica,sans-Serif" font-size="10.00">::is_tuple_of_fe_expr_pointers</text>
<text text-anchor="middle" x="206.5" y="-7" font-family="Helvetica,sans-Serif" font-size="10.00">&lt; T, typename &gt;</text>
</a>
</g>
</g>
<!-- Node0&#45;&gt;Node3 -->
<g id="edge15_Node000000_Node000003" class="edge">
<title>Node0&#45;&gt;Node3</title>
<g id="a_edge15_Node000000_Node000003"><a xlink:title=" ">
<path fill="none" stroke="#63b8ff" d="M83.44,-61.69C101.74,-55.52 124.14,-47.96 144.74,-41.01"/>
<polygon fill="#63b8ff" stroke="#63b8ff" points="82.09,-58.46 73.74,-64.97 84.33,-65.09 82.09,-58.46"/>
</a>
</g>
</g>
</g>
</svg>
