<?xml version="1.0" encoding="UTF-8" standalone="no"?>
<!DOCTYPE svg PUBLIC "-//W3C//DTD SVG 1.1//EN"
 "http://www.w3.org/Graphics/SVG/1.1/DTD/svg11.dtd">
<!-- Generated by graphviz version 2.42.4 (0)
 -->
<!-- Title: Graphical Class Hierarchy Pages: 1 -->
<svg width="380pt" height="101pt"
 viewBox="0.00 0.00 380.00 101.00" xmlns="http://www.w3.org/2000/svg" xmlns:xlink="http://www.w3.org/1999/xlink">
<g id="graph0" class="graph" transform="scale(1 1) rotate(0) translate(4 97)">
<title>Graphical Class Hierarchy</title>
<!-- Node0 -->
<g id="Node000000" class="node">
<title>Node0</title>
<g id="a_Node000000"><a xlink:title=" ">
<polygon fill="#e0e0e0" stroke="#999999" points="122,-56 0,-56 0,-37 122,-37 122,-56"/>
<text text-anchor="middle" x="61" y="-44" font-family="Helvetica,sans-Serif" font-size="10.00">std::integral_constant</text>
</a>
</g>
</g>
<!-- Node1 -->
<g id="Node000001" class="node">
<title>Node1</title>
<g id="a_Node000001"><a xlink:href="structvulpes_1_1vmath_1_1is__gnump.html" target="_top" xlink:title="Type trait to check if a type is one of the GNU Multiple Precision (GMP) classes (mpf_class,...">
<polygon fill="white" stroke="#666666" points="349,-93 181,-93 181,-74 349,-74 349,-93"/>
<text text-anchor="middle" x="265" y="-81" font-family="Helvetica,sans-Serif" font-size="10.00">vulpes::vmath::is_gnump&lt; T &gt;</text>
</a>
</g>
</g>
<!-- Node0&#45;&gt;Node1 -->
<g id="edge12_Node000000_Node000001" class="edge">
<title>Node0&#45;&gt;Node1</title>
<g id="a_edge12_Node000000_Node000001"><a xlink:title=" ">
<path fill="none" stroke="#63b8ff" d="M118.93,-58.03C131.77,-60.56 145.34,-63.17 158,-65.5 173.6,-68.37 190.53,-71.32 206.19,-73.98"/>
<polygon fill="#63b8ff" stroke="#63b8ff" points="119.32,-54.54 108.83,-56.03 117.96,-61.41 119.32,-54.54"/>
</a>
</g>
</g>
<!-- Node2 -->
<g id="Node000002" class="node">
<title>Node2</title>
<g id="a_Node000002"><a xlink:href="structvulpes_1_1vmath_1_1is__pseudoaritmetic.html" target="_top" xlink:title="Type trait to check if a type is either a GMP class or a built&#45;in arithmetic type.">
<polygon fill="white" stroke="#666666" points="372,-56 158,-56 158,-37 372,-37 372,-56"/>
<text text-anchor="middle" x="265" y="-44" font-family="Helvetica,sans-Serif" font-size="10.00">vulpes::vmath::is_pseudoaritmetic&lt; T &gt;</text>
</a>
</g>
</g>
<!-- Node0&#45;&gt;Node2 -->
<g id="edge13_Node000000_Node000002" class="edge">
<title>Node0&#45;&gt;Node2</title>
<g id="a_edge13_Node000000_Node000002"><a xlink:title=" ">
<path fill="none" stroke="#63b8ff" d="M132.3,-46.5C140.53,-46.5 149.07,-46.5 157.65,-46.5"/>
<polygon fill="#63b8ff" stroke="#63b8ff" points="132.06,-43 122.06,-46.5 132.06,-50 132.06,-43"/>
</a>
</g>
</g>
<!-- Node3 -->
<g id="Node000003" class="node">
<title>Node3</title>
<g id="a_Node000003"><a xlink:href="structvulpes_1_1vmath_1_1is__pseudofloating.html" target="_top" xlink:title="Type trait to check if a type is either the GMP floating&#45;point class (mpf_class) or a built&#45;in floati...">
<polygon fill="white" stroke="#666666" points="368,-19 162,-19 162,0 368,0 368,-19"/>
<text text-anchor="middle" x="265" y="-7" font-family="Helvetica,sans-Serif" font-size="10.00">vulpes::vmath::is_pseudofloating&lt; T &gt;</text>
</a>
</g>
</g>
<!-- Node0&#45;&gt;Node3 -->
<g id="edge14_Node000000_Node000003" class="edge">
<title>Node0&#45;&gt;Node3</title>
<g id="a_edge14_Node000000_Node000003"><a xlink:title=" ">
<path fill="none" stroke="#63b8ff" d="M122.14,-35.15C134.02,-32.93 146.4,-30.63 158,-28.5 175.01,-25.38 193.57,-22.04 210.33,-19.03"/>
<polygon fill="#63b8ff" stroke="#63b8ff" points="121.49,-31.71 112.31,-36.99 122.78,-38.59 121.49,-31.71"/>
</a>
</g>
</g>
</g>
</svg>
