<?xml version="1.0" encoding="UTF-8" standalone="no"?>
<!DOCTYPE svg PUBLIC "-//W3C//DTD SVG 1.1//EN"
 "http://www.w3.org/Graphics/SVG/1.1/DTD/svg11.dtd">
<!-- Generated by graphviz version 12.2.1 (20241206.2353)
 -->
<!-- Title: Graphical Class Hierarchy Pages: 1 -->
<svg width="273pt" height="88pt"
 viewBox="0.00 0.00 272.50 87.50" xmlns="http://www.w3.org/2000/svg" xmlns:xlink="http://www.w3.org/1999/xlink">
<g id="graph0" class="graph" transform="scale(1 1) rotate(0) translate(4 83.5)">
<title>Graphical Class Hierarchy</title>
<!-- Node0 -->
<g id="Node000000" class="node">
<title>Node0</title>
<g id="a_Node000000"><a xlink:href="structvulpes_1_1timeintegration_1_1ButcherTable.html" target="_top" xlink:title=" ">
<polygon fill="white" stroke="#666666" points="114.25,-54.5 0,-54.5 0,-24 114.25,-24 114.25,-54.5"/>
<text text-anchor="start" x="8" y="-41" font-family="Helvetica,sans-Serif" font-size="10.00">vulpes::timeintegration</text>
<text text-anchor="middle" x="57.12" y="-29.75" font-family="Helvetica,sans-Serif" font-size="10.00">::ButcherTable&lt; 1 &gt;</text>
</a>
</g>
</g>
<!-- Node1 -->
<g id="Node000001" class="node">
<title>Node1</title>
<g id="a_Node000001"><a xlink:href="structvulpes_1_1timeintegration_1_1BackwardEuler.html" target="_top" xlink:title=" ">
<polygon fill="white" stroke="#666666" points="264.5,-79.5 150.25,-79.5 150.25,-49 264.5,-49 264.5,-79.5"/>
<text text-anchor="start" x="158.25" y="-66" font-family="Helvetica,sans-Serif" font-size="10.00">vulpes::timeintegration</text>
<text text-anchor="middle" x="207.38" y="-54.75" font-family="Helvetica,sans-Serif" font-size="10.00">::BackwardEuler</text>
</a>
</g>
</g>
<!-- Node0&#45;&gt;Node1 -->
<g id="edge86_Node000000_Node000001" class="edge">
<title>Node0&#45;&gt;Node1</title>
<g id="a_edge86_Node000000_Node000001"><a xlink:title=" ">
<path fill="none" stroke="#63b8ff" d="M125.91,-50.68C133.99,-52.04 142.17,-53.42 150.06,-54.75"/>
<polygon fill="#63b8ff" stroke="#63b8ff" points="126.53,-47.24 116.09,-49.02 125.37,-54.14 126.53,-47.24"/>
</a>
</g>
</g>
<!-- Node2 -->
<g id="Node000002" class="node">
<title>Node2</title>
<g id="a_Node000002"><a xlink:href="structvulpes_1_1timeintegration_1_1ForwardEuler.html" target="_top" xlink:title=" ">
<polygon fill="white" stroke="#666666" points="264.5,-30.5 150.25,-30.5 150.25,0 264.5,0 264.5,-30.5"/>
<text text-anchor="start" x="158.25" y="-17" font-family="Helvetica,sans-Serif" font-size="10.00">vulpes::timeintegration</text>
<text text-anchor="middle" x="207.38" y="-5.75" font-family="Helvetica,sans-Serif" font-size="10.00">::ForwardEuler</text>
</a>
</g>
</g>
<!-- Node0&#45;&gt;Node2 -->
<g id="edge87_Node000000_Node000002" class="edge">
<title>Node0&#45;&gt;Node2</title>
<g id="a_edge87_Node000000_Node000002"><a xlink:title=" ">
<path fill="none" stroke="#63b8ff" d="M125.91,-28.28C133.99,-26.97 142.17,-25.64 150.06,-24.37"/>
<polygon fill="#63b8ff" stroke="#63b8ff" points="125.4,-24.81 116.09,-29.87 126.52,-31.72 125.4,-24.81"/>
</a>
</g>
</g>
</g>
</svg>
