<?xml version="1.0" encoding="UTF-8" standalone="no"?>
<!DOCTYPE svg PUBLIC "-//W3C//DTD SVG 1.1//EN"
 "http://www.w3.org/Graphics/SVG/1.1/DTD/svg11.dtd">
<!-- Generated by graphviz version 2.42.4 (0)
 -->
<!-- Title: Graphical Class Hierarchy Pages: 1 -->
<svg width="525pt" height="285pt"
 viewBox="0.00 0.00 525.00 285.00" xmlns="http://www.w3.org/2000/svg" xmlns:xlink="http://www.w3.org/1999/xlink">
<g id="graph0" class="graph" transform="scale(1 1) rotate(0) translate(4 281)">
<title>Graphical Class Hierarchy</title>
<!-- Node0 -->
<g id="Node000000" class="node">
<title>Node0</title>
<g id="a_Node000000"><a xlink:href="structvulpes_1_1timeintegration_1_1ButcherTableIMEX.html" target="_top" xlink:title=" ">
<polygon fill="white" stroke="#666666" points="183,-159 0,-159 0,-118 183,-118 183,-159"/>
<text text-anchor="start" x="8" y="-147" font-family="Helvetica,sans-Serif" font-size="10.00">vulpes::timeintegration</text>
<text text-anchor="start" x="8" y="-136" font-family="Helvetica,sans-Serif" font-size="10.00">::ButcherTableIMEX&lt; PlainButcher</text>
<text text-anchor="middle" x="91.5" y="-125" font-family="Helvetica,sans-Serif" font-size="10.00">::n_stages &gt;</text>
</a>
</g>
</g>
<!-- Node1 -->
<g id="Node000001" class="node">
<title>Node1</title>
<g id="a_Node000001"><a xlink:href="structvulpes_1_1timeintegration_1_1ExplicitButcherIMEX.html" target="_top" xlink:title=" ">
<polygon fill="white" stroke="#666666" points="350,-277 219,-277 219,-236 350,-236 350,-277"/>
<text text-anchor="start" x="227" y="-265" font-family="Helvetica,sans-Serif" font-size="10.00">vulpes::timeintegration</text>
<text text-anchor="start" x="227" y="-254" font-family="Helvetica,sans-Serif" font-size="10.00">::ExplicitButcherIMEX</text>
<text text-anchor="middle" x="284.5" y="-243" font-family="Helvetica,sans-Serif" font-size="10.00">&lt; ForwardEuler &gt;</text>
</a>
</g>
</g>
<!-- Node0&#45;&gt;Node1 -->
<g id="edge102_Node000000_Node000001" class="edge">
<title>Node0&#45;&gt;Node1</title>
<g id="a_edge102_Node000000_Node000001"><a xlink:title=" ">
<path fill="none" stroke="#63b8ff" d="M126.68,-165.24C151.49,-183.96 186.3,-208.87 219,-227.5 224.12,-230.42 229.59,-233.26 235.09,-235.95"/>
<polygon fill="#63b8ff" stroke="#63b8ff" points="128.74,-162.41 118.67,-159.14 124.5,-167.98 128.74,-162.41"/>
</a>
</g>
</g>
<!-- Node3 -->
<g id="Node000003" class="node">
<title>Node3</title>
<g id="a_Node000003"><a xlink:href="structvulpes_1_1timeintegration_1_1ExplicitButcherIMEX.html" target="_top" xlink:title=" ">
<polygon fill="white" stroke="#666666" points="350,-218 219,-218 219,-177 350,-177 350,-218"/>
<text text-anchor="start" x="227" y="-206" font-family="Helvetica,sans-Serif" font-size="10.00">vulpes::timeintegration</text>
<text text-anchor="start" x="227" y="-195" font-family="Helvetica,sans-Serif" font-size="10.00">::ExplicitButcherIMEX</text>
<text text-anchor="middle" x="284.5" y="-184" font-family="Helvetica,sans-Serif" font-size="10.00">&lt; Heun &gt;</text>
</a>
</g>
</g>
<!-- Node0&#45;&gt;Node3 -->
<g id="edge104_Node000000_Node000003" class="edge">
<title>Node0&#45;&gt;Node3</title>
<g id="a_edge104_Node000000_Node000003"><a xlink:title=" ">
<path fill="none" stroke="#63b8ff" d="M168.7,-162.04C185.3,-167.17 202.71,-172.54 218.81,-177.52"/>
<polygon fill="#63b8ff" stroke="#63b8ff" points="169.62,-158.66 159.03,-159.05 167.56,-165.35 169.62,-158.66"/>
</a>
</g>
</g>
<!-- Node5 -->
<g id="Node000005" class="node">
<title>Node5</title>
<g id="a_Node000005"><a xlink:href="structvulpes_1_1timeintegration_1_1ExplicitButcherIMEX.html" target="_top" xlink:title=" ">
<polygon fill="white" stroke="#666666" points="350,-159 219,-159 219,-118 350,-118 350,-159"/>
<text text-anchor="start" x="227" y="-147" font-family="Helvetica,sans-Serif" font-size="10.00">vulpes::timeintegration</text>
<text text-anchor="start" x="227" y="-136" font-family="Helvetica,sans-Serif" font-size="10.00">::ExplicitButcherIMEX</text>
<text text-anchor="middle" x="284.5" y="-125" font-family="Helvetica,sans-Serif" font-size="10.00">&lt; RK4 &gt;</text>
</a>
</g>
</g>
<!-- Node0&#45;&gt;Node5 -->
<g id="edge106_Node000000_Node000005" class="edge">
<title>Node0&#45;&gt;Node5</title>
<g id="a_edge106_Node000000_Node000005"><a xlink:title=" ">
<path fill="none" stroke="#63b8ff" d="M193.4,-138.5C202.05,-138.5 210.63,-138.5 218.88,-138.5"/>
<polygon fill="#63b8ff" stroke="#63b8ff" points="193.25,-135 183.25,-138.5 193.25,-142 193.25,-135"/>
</a>
</g>
</g>
<!-- Node7 -->
<g id="Node000007" class="node">
<title>Node7</title>
<g id="a_Node000007"><a xlink:href="structvulpes_1_1timeintegration_1_1ExplicitButcherIMEX.html" target="_top" xlink:title=" ">
<polygon fill="white" stroke="#666666" points="350,-100 219,-100 219,-59 350,-59 350,-100"/>
<text text-anchor="start" x="227" y="-88" font-family="Helvetica,sans-Serif" font-size="10.00">vulpes::timeintegration</text>
<text text-anchor="start" x="227" y="-77" font-family="Helvetica,sans-Serif" font-size="10.00">::ExplicitButcherIMEX</text>
<text text-anchor="middle" x="284.5" y="-66" font-family="Helvetica,sans-Serif" font-size="10.00">&lt; SSPRK3 &gt;</text>
</a>
</g>
</g>
<!-- Node0&#45;&gt;Node7 -->
<g id="edge108_Node000000_Node000007" class="edge">
<title>Node0&#45;&gt;Node7</title>
<g id="a_edge108_Node000000_Node000007"><a xlink:title=" ">
<path fill="none" stroke="#63b8ff" d="M168.7,-114.96C185.3,-109.83 202.71,-104.46 218.81,-99.48"/>
<polygon fill="#63b8ff" stroke="#63b8ff" points="167.56,-111.65 159.03,-117.95 169.62,-118.34 167.56,-111.65"/>
</a>
</g>
</g>
<!-- Node9 -->
<g id="Node000009" class="node">
<title>Node9</title>
<g id="a_Node000009"><a xlink:href="structvulpes_1_1timeintegration_1_1ExplicitButcherIMEX.html" target="_top" xlink:title=" ">
<polygon fill="white" stroke="#666666" points="350,-41 219,-41 219,0 350,0 350,-41"/>
<text text-anchor="start" x="227" y="-29" font-family="Helvetica,sans-Serif" font-size="10.00">vulpes::timeintegration</text>
<text text-anchor="start" x="227" y="-18" font-family="Helvetica,sans-Serif" font-size="10.00">::ExplicitButcherIMEX</text>
<text text-anchor="middle" x="284.5" y="-7" font-family="Helvetica,sans-Serif" font-size="10.00">&lt; PlainButcher &gt;</text>
</a>
</g>
</g>
<!-- Node0&#45;&gt;Node9 -->
<g id="edge110_Node000000_Node000009" class="edge">
<title>Node0&#45;&gt;Node9</title>
<g id="a_edge110_Node000000_Node000009"><a xlink:title=" ">
<path fill="none" stroke="#63b8ff" d="M127.27,-111.87C152.11,-93.47 186.7,-69.06 219,-50.5 224.68,-47.24 230.76,-44.04 236.85,-41.02"/>
<polygon fill="#63b8ff" stroke="#63b8ff" points="125.17,-109.08 119.25,-117.86 129.35,-114.69 125.17,-109.08"/>
</a>
</g>
</g>
<!-- Node2 -->
<g id="Node000002" class="node">
<title>Node2</title>
<g id="a_Node000002"><a xlink:href="structvulpes_1_1timeintegration_1_1ForwardEulerIMEX.html" target="_top" xlink:title=" ">
<polygon fill="white" stroke="#666666" points="517,-271.5 386,-271.5 386,-241.5 517,-241.5 517,-271.5"/>
<text text-anchor="start" x="394" y="-259.5" font-family="Helvetica,sans-Serif" font-size="10.00">vulpes::timeintegration</text>
<text text-anchor="middle" x="451.5" y="-248.5" font-family="Helvetica,sans-Serif" font-size="10.00">::ForwardEulerIMEX</text>
</a>
</g>
</g>
<!-- Node1&#45;&gt;Node2 -->
<g id="edge103_Node000001_Node000002" class="edge">
<title>Node1&#45;&gt;Node2</title>
<g id="a_edge103_Node000001_Node000002"><a xlink:title=" ">
<path fill="none" stroke="#63b8ff" d="M360.24,-256.5C368.82,-256.5 377.52,-256.5 385.95,-256.5"/>
<polygon fill="#63b8ff" stroke="#63b8ff" points="360.24,-253 350.24,-256.5 360.24,-260 360.24,-253"/>
</a>
</g>
</g>
<!-- Node4 -->
<g id="Node000004" class="node">
<title>Node4</title>
<g id="a_Node000004"><a xlink:href="structvulpes_1_1timeintegration_1_1HeunIMEX.html" target="_top" xlink:title=" ">
<polygon fill="white" stroke="#666666" points="517,-212.5 386,-212.5 386,-182.5 517,-182.5 517,-212.5"/>
<text text-anchor="start" x="394" y="-200.5" font-family="Helvetica,sans-Serif" font-size="10.00">vulpes::timeintegration</text>
<text text-anchor="middle" x="451.5" y="-189.5" font-family="Helvetica,sans-Serif" font-size="10.00">::HeunIMEX</text>
</a>
</g>
</g>
<!-- Node3&#45;&gt;Node4 -->
<g id="edge105_Node000003_Node000004" class="edge">
<title>Node3&#45;&gt;Node4</title>
<g id="a_edge105_Node000003_Node000004"><a xlink:title=" ">
<path fill="none" stroke="#63b8ff" d="M360.24,-197.5C368.82,-197.5 377.52,-197.5 385.95,-197.5"/>
<polygon fill="#63b8ff" stroke="#63b8ff" points="360.24,-194 350.24,-197.5 360.24,-201 360.24,-194"/>
</a>
</g>
</g>
<!-- Node6 -->
<g id="Node000006" class="node">
<title>Node6</title>
<g id="a_Node000006"><a xlink:href="structvulpes_1_1timeintegration_1_1RK4IMEX.html" target="_top" xlink:title=" ">
<polygon fill="white" stroke="#666666" points="517,-153.5 386,-153.5 386,-123.5 517,-123.5 517,-153.5"/>
<text text-anchor="start" x="394" y="-141.5" font-family="Helvetica,sans-Serif" font-size="10.00">vulpes::timeintegration</text>
<text text-anchor="middle" x="451.5" y="-130.5" font-family="Helvetica,sans-Serif" font-size="10.00">::RK4IMEX</text>
</a>
</g>
</g>
<!-- Node5&#45;&gt;Node6 -->
<g id="edge107_Node000005_Node000006" class="edge">
<title>Node5&#45;&gt;Node6</title>
<g id="a_edge107_Node000005_Node000006"><a xlink:title=" ">
<path fill="none" stroke="#63b8ff" d="M360.24,-138.5C368.82,-138.5 377.52,-138.5 385.95,-138.5"/>
<polygon fill="#63b8ff" stroke="#63b8ff" points="360.24,-135 350.24,-138.5 360.24,-142 360.24,-135"/>
</a>
</g>
</g>
<!-- Node8 -->
<g id="Node000008" class="node">
<title>Node8</title>
<g id="a_Node000008"><a xlink:href="structvulpes_1_1timeintegration_1_1SSPRK3IMEX.html" target="_top" xlink:title=" ">
<polygon fill="white" stroke="#666666" points="517,-94.5 386,-94.5 386,-64.5 517,-64.5 517,-94.5"/>
<text text-anchor="start" x="394" y="-82.5" font-family="Helvetica,sans-Serif" font-size="10.00">vulpes::timeintegration</text>
<text text-anchor="middle" x="451.5" y="-71.5" font-family="Helvetica,sans-Serif" font-size="10.00">::SSPRK3IMEX</text>
</a>
</g>
</g>
<!-- Node7&#45;&gt;Node8 -->
<g id="edge109_Node000007_Node000008" class="edge">
<title>Node7&#45;&gt;Node8</title>
<g id="a_edge109_Node000007_Node000008"><a xlink:title=" ">
<path fill="none" stroke="#63b8ff" d="M360.24,-79.5C368.82,-79.5 377.52,-79.5 385.95,-79.5"/>
<polygon fill="#63b8ff" stroke="#63b8ff" points="360.24,-76 350.24,-79.5 360.24,-83 360.24,-76"/>
</a>
</g>
</g>
</g>
</svg>
