<?xml version="1.0" encoding="UTF-8" standalone="no"?>
<!DOCTYPE svg PUBLIC "-//W3C//DTD SVG 1.1//EN"
 "http://www.w3.org/Graphics/SVG/1.1/DTD/svg11.dtd">
<!-- Generated by graphviz version 2.43.0 (0)
 -->
<!-- Title: Graphical Class Hierarchy Pages: 1 -->
<svg width="362pt" height="157pt"
 viewBox="0.00 0.00 362.00 156.50" xmlns="http://www.w3.org/2000/svg" xmlns:xlink="http://www.w3.org/1999/xlink">
<g id="graph0" class="graph" transform="scale(1 1) rotate(0) translate(4 152.5)">
<title>Graphical Class Hierarchy</title>
<!-- Node0 -->
<g id="Node000000" class="node">
<title>Node0</title>
<g id="a_Node000000"><a xlink:href="classvulpes_1_1fe_1_1FeExpressionBase.html" target="_top" xlink:title=" ">
<polygon fill="white" stroke="#666666" points="154,-94.5 0,-94.5 0,-64.5 154,-64.5 154,-94.5"/>
<text text-anchor="start" x="8" y="-82.5" font-family="Helvetica,sans-Serif" font-size="10.00">vulpes::fe::FeExpression</text>
<text text-anchor="middle" x="77" y="-71.5" font-family="Helvetica,sans-Serif" font-size="10.00">Base&lt; Dim, FeExpression &gt;</text>
</a>
</g>
</g>
<!-- Node1 -->
<g id="Node000001" class="node">
<title>Node1</title>
<g id="a_Node000001"><a xlink:href="classvulpes_1_1fe_1_1FeExpressionFunc.html" target="_top" xlink:title=" ">
<polygon fill="white" stroke="#666666" points="353,-148.5 191,-148.5 191,-118.5 353,-118.5 353,-148.5"/>
<text text-anchor="start" x="199" y="-136.5" font-family="Helvetica,sans-Serif" font-size="10.00">vulpes::fe::FeExpression</text>
<text text-anchor="middle" x="272" y="-125.5" font-family="Helvetica,sans-Serif" font-size="10.00">Func&lt; Dim, FeSpace, IsTest &gt;</text>
</a>
</g>
</g>
<!-- Node0&#45;&gt;Node1 -->
<g id="edge25_Node000000_Node000001" class="edge">
<title>Node0&#45;&gt;Node1</title>
<g id="a_edge25_Node000000_Node000001"><a xlink:title=" ">
<path fill="none" stroke="#63b8ff" d="M141.67,-97.31C166.12,-104.15 193.76,-111.89 217.19,-118.45"/>
<polygon fill="#63b8ff" stroke="#63b8ff" points="142.33,-93.87 131.76,-94.54 140.45,-100.61 142.33,-93.87"/>
</a>
</g>
</g>
<!-- Node2 -->
<g id="Node000002" class="node">
<title>Node2</title>
<g id="a_Node000002"><a xlink:href="classvulpes_1_1fe_1_1FeExpressionGradFunc.html" target="_top" xlink:title=" ">
<polygon fill="white" stroke="#666666" points="343.5,-100 200.5,-100 200.5,-59 343.5,-59 343.5,-100"/>
<text text-anchor="start" x="208.5" y="-88" font-family="Helvetica,sans-Serif" font-size="10.00">vulpes::fe::FeExpression</text>
<text text-anchor="start" x="208.5" y="-77" font-family="Helvetica,sans-Serif" font-size="10.00">GradFunc&lt; Dim, FeSpace,</text>
<text text-anchor="middle" x="272" y="-66" font-family="Helvetica,sans-Serif" font-size="10.00"> IsTest &gt;</text>
</a>
</g>
</g>
<!-- Node0&#45;&gt;Node2 -->
<g id="edge26_Node000000_Node000002" class="edge">
<title>Node0&#45;&gt;Node2</title>
<g id="a_edge26_Node000000_Node000002"><a xlink:title=" ">
<path fill="none" stroke="#63b8ff" d="M164.13,-79.5C176.26,-79.5 188.62,-79.5 200.41,-79.5"/>
<polygon fill="#63b8ff" stroke="#63b8ff" points="164,-76 154,-79.5 164,-83 164,-76"/>
</a>
</g>
</g>
<!-- Node3 -->
<g id="Node000003" class="node">
<title>Node3</title>
<g id="a_Node000003"><a xlink:href="classvulpes_1_1fe_1_1FeExpressionNeighborFunc.html" target="_top" xlink:title=" ">
<polygon fill="white" stroke="#666666" points="354,-41 190,-41 190,0 354,0 354,-41"/>
<text text-anchor="start" x="198" y="-29" font-family="Helvetica,sans-Serif" font-size="10.00">vulpes::fe::FeExpression</text>
<text text-anchor="start" x="198" y="-18" font-family="Helvetica,sans-Serif" font-size="10.00">NeighborFunc&lt; Dim, FeSpace,</text>
<text text-anchor="middle" x="272" y="-7" font-family="Helvetica,sans-Serif" font-size="10.00"> IsTest &gt;</text>
</a>
</g>
</g>
<!-- Node0&#45;&gt;Node3 -->
<g id="edge27_Node000000_Node000003" class="edge">
<title>Node0&#45;&gt;Node3</title>
<g id="a_edge27_Node000000_Node000003"><a xlink:title=" ">
<path fill="none" stroke="#63b8ff" d="M136.98,-61.47C158.06,-55.03 181.96,-47.72 203.68,-41.08"/>
<polygon fill="#63b8ff" stroke="#63b8ff" points="135.74,-58.19 127.2,-64.46 137.79,-64.88 135.74,-58.19"/>
</a>
</g>
</g>
</g>
</svg>
