<?xml version="1.0" encoding="UTF-8" standalone="no"?>
<!DOCTYPE svg PUBLIC "-//W3C//DTD SVG 1.1//EN"
 "http://www.w3.org/Graphics/SVG/1.1/DTD/svg11.dtd">
<!-- Generated by graphviz version 12.2.1 (20241206.2353)
 -->
<!-- Title: Graphical Class Hierarchy Pages: 1 -->
<svg width="273pt" height="110pt"
 viewBox="0.00 0.00 272.50 109.75" xmlns="http://www.w3.org/2000/svg" xmlns:xlink="http://www.w3.org/1999/xlink">
<g id="graph0" class="graph" transform="scale(1 1) rotate(0) translate(4 105.75)">
<title>Graphical Class Hierarchy</title>
<!-- Node0 -->
<g id="Node000000" class="node">
<title>Node0</title>
<g id="a_Node000000"><a xlink:title=" ">
<polygon fill="#e0e0e0" stroke="#999999" points="96.25,-60.5 0,-60.5 0,-41.25 96.25,-41.25 96.25,-60.5"/>
<text text-anchor="middle" x="48.12" y="-47" font-family="Helvetica,sans-Serif" font-size="10.00">std::bool_constant</text>
</a>
</g>
</g>
<!-- Node1 -->
<g id="Node000001" class="node">
<title>Node1</title>
<g id="a_Node000001"><a xlink:href="structvulpes_1_1assemble_1_1internal_1_1is__fe__expression__derived_3_01T_00_01std_1_1void__t_3_4_01_4.html" target="_top" xlink:title=" ">
<polygon fill="white" stroke="#666666" points="264.5,-101.75 132.25,-101.75 132.25,-60 264.5,-60 264.5,-101.75"/>
<text text-anchor="start" x="140.25" y="-88.25" font-family="Helvetica,sans-Serif" font-size="10.00">vulpes::assemble::internal</text>
<text text-anchor="start" x="140.25" y="-77" font-family="Helvetica,sans-Serif" font-size="10.00">::is_fe_expression_derived</text>
<text text-anchor="middle" x="198.38" y="-65.75" font-family="Helvetica,sans-Serif" font-size="10.00">&lt; T, std::void_t&lt;&gt; &gt;</text>
</a>
</g>
</g>
<!-- Node0&#45;&gt;Node1 -->
<g id="edge8_Node000000_Node000001" class="edge">
<title>Node0&#45;&gt;Node1</title>
<g id="a_edge8_Node000000_Node000001"><a xlink:title=" ">
<path fill="none" stroke="#63b8ff" d="M107.52,-62.69C115.51,-64.31 123.76,-65.98 131.86,-67.62"/>
<polygon fill="#63b8ff" stroke="#63b8ff" points="108.42,-59.3 97.92,-60.75 107.03,-66.16 108.42,-59.3"/>
</a>
</g>
</g>
<!-- Node2 -->
<g id="Node000002" class="node">
<title>Node2</title>
<g id="a_Node000002"><a xlink:href="structvulpes_1_1assemble_1_1internal_1_1is__fe__expression__derived__dim.html" target="_top" xlink:title=" ">
<polygon fill="white" stroke="#666666" points="264.5,-41.75 132.25,-41.75 132.25,0 264.5,0 264.5,-41.75"/>
<text text-anchor="start" x="140.25" y="-28.25" font-family="Helvetica,sans-Serif" font-size="10.00">vulpes::assemble::internal</text>
<text text-anchor="start" x="140.25" y="-17" font-family="Helvetica,sans-Serif" font-size="10.00">::is_fe_expression_derived</text>
<text text-anchor="middle" x="198.38" y="-5.75" font-family="Helvetica,sans-Serif" font-size="10.00">_dim&lt; T, Dim &gt;</text>
</a>
</g>
</g>
<!-- Node0&#45;&gt;Node2 -->
<g id="edge9_Node000000_Node000002" class="edge">
<title>Node0&#45;&gt;Node2</title>
<g id="a_edge9_Node000000_Node000002"><a xlink:title=" ">
<path fill="none" stroke="#63b8ff" d="M107.52,-39.06C115.51,-37.44 123.76,-35.77 131.86,-34.13"/>
<polygon fill="#63b8ff" stroke="#63b8ff" points="107.03,-35.59 97.92,-41 108.42,-42.45 107.03,-35.59"/>
</a>
</g>
</g>
</g>
</svg>
