<?xml version="1.0" encoding="UTF-8" standalone="no"?>
<!DOCTYPE svg PUBLIC "-//W3C//DTD SVG 1.1//EN"
 "http://www.w3.org/Graphics/SVG/1.1/DTD/svg11.dtd">
<!-- Generated by graphviz version 2.42.4 (0)
 -->
<!-- Title: Graphical Class Hierarchy Pages: 1 -->
<svg width="539pt" height="134pt"
 viewBox="0.00 0.00 539.00 134.00" xmlns="http://www.w3.org/2000/svg" xmlns:xlink="http://www.w3.org/1999/xlink">
<g id="graph0" class="graph" transform="scale(1 1) rotate(0) translate(4 130)">
<title>Graphical Class Hierarchy</title>
<!-- Node0 -->
<g id="Node000000" class="node">
<title>Node0</title>
<g id="a_Node000000"><a xlink:href="structvulpes_1_1scipy_1_1BaseMinkowskiDistPp.html" target="_top" xlink:title=" ">
<polygon fill="white" stroke="#666666" points="161,-78 0,-78 0,-48 161,-48 161,-78"/>
<text text-anchor="start" x="8" y="-66" font-family="Helvetica,sans-Serif" font-size="10.00">vulpes::scipy::BaseMinkowski</text>
<text text-anchor="middle" x="80.5" y="-55" font-family="Helvetica,sans-Serif" font-size="10.00">DistPp&lt; Dist1D, Dim &gt;</text>
</a>
</g>
</g>
<!-- Node1 -->
<g id="Node000001" class="node">
<title>Node1</title>
<g id="a_Node000001"><a xlink:href="structvulpes_1_1scipy_1_1BaseMinkowskiDistP1.html" target="_top" xlink:title=" ">
<polygon fill="white" stroke="#666666" points="358,-126 197,-126 197,-96 358,-96 358,-126"/>
<text text-anchor="start" x="205" y="-114" font-family="Helvetica,sans-Serif" font-size="10.00">vulpes::scipy::BaseMinkowski</text>
<text text-anchor="middle" x="277.5" y="-103" font-family="Helvetica,sans-Serif" font-size="10.00">DistP1&lt; Dist1D, Dim &gt;</text>
</a>
</g>
</g>
<!-- Node0&#45;&gt;Node1 -->
<g id="edge80_Node000000_Node000001" class="edge">
<title>Node0&#45;&gt;Node1</title>
<g id="a_edge80_Node000000_Node000001"><a xlink:title=" ">
<path fill="none" stroke="#63b8ff" d="M152.64,-80.51C173.27,-85.59 195.6,-91.09 215.55,-96"/>
<polygon fill="#63b8ff" stroke="#63b8ff" points="153.21,-77.05 142.66,-78.06 151.54,-83.84 153.21,-77.05"/>
</a>
</g>
</g>
<!-- Node2 -->
<g id="Node000002" class="node">
<title>Node2</title>
<g id="a_Node000002"><a xlink:href="structvulpes_1_1scipy_1_1BaseMinkowskiDistP2.html" target="_top" xlink:title=" ">
<polygon fill="white" stroke="#666666" points="358,-78 197,-78 197,-48 358,-48 358,-78"/>
<text text-anchor="start" x="205" y="-66" font-family="Helvetica,sans-Serif" font-size="10.00">vulpes::scipy::BaseMinkowski</text>
<text text-anchor="middle" x="277.5" y="-55" font-family="Helvetica,sans-Serif" font-size="10.00">DistP2&lt; Dist1D, Dim &gt;</text>
</a>
</g>
</g>
<!-- Node0&#45;&gt;Node2 -->
<g id="edge81_Node000000_Node000002" class="edge">
<title>Node0&#45;&gt;Node2</title>
<g id="a_edge81_Node000000_Node000002"><a xlink:title=" ">
<path fill="none" stroke="#63b8ff" d="M171.12,-63C179.7,-63 188.36,-63 196.84,-63"/>
<polygon fill="#63b8ff" stroke="#63b8ff" points="171.1,-59.5 161.1,-63 171.1,-66.5 171.1,-59.5"/>
</a>
</g>
</g>
<!-- Node4 -->
<g id="Node000004" class="node">
<title>Node4</title>
<g id="a_Node000004"><a xlink:href="structvulpes_1_1scipy_1_1BaseMinkowskiDistPinf.html" target="_top" xlink:title=" ">
<polygon fill="white" stroke="#666666" points="358,-30 197,-30 197,0 358,0 358,-30"/>
<text text-anchor="start" x="205" y="-18" font-family="Helvetica,sans-Serif" font-size="10.00">vulpes::scipy::BaseMinkowski</text>
<text text-anchor="middle" x="277.5" y="-7" font-family="Helvetica,sans-Serif" font-size="10.00">DistPinf&lt; Dist1D, Dim &gt;</text>
</a>
</g>
</g>
<!-- Node0&#45;&gt;Node4 -->
<g id="edge83_Node000000_Node000004" class="edge">
<title>Node0&#45;&gt;Node4</title>
<g id="a_edge83_Node000000_Node000004"><a xlink:title=" ">
<path fill="none" stroke="#63b8ff" d="M152.64,-45.49C173.27,-40.41 195.6,-34.91 215.55,-30"/>
<polygon fill="#63b8ff" stroke="#63b8ff" points="151.54,-42.16 142.66,-47.94 153.21,-48.95 151.54,-42.16"/>
</a>
</g>
</g>
<!-- Node3 -->
<g id="Node000003" class="node">
<title>Node3</title>
<g id="a_Node000003"><a xlink:href="structvulpes_1_1scipy_1_1MinkowskiDistP2.html" target="_top" xlink:title=" ">
<polygon fill="white" stroke="#666666" points="531,-78 394,-78 394,-48 531,-48 531,-78"/>
<text text-anchor="start" x="402" y="-66" font-family="Helvetica,sans-Serif" font-size="10.00">vulpes::scipy::Minkowski</text>
<text text-anchor="middle" x="462.5" y="-55" font-family="Helvetica,sans-Serif" font-size="10.00">DistP2&lt; Dim &gt;</text>
</a>
</g>
</g>
<!-- Node2&#45;&gt;Node3 -->
<g id="edge82_Node000002_Node000003" class="edge">
<title>Node2&#45;&gt;Node3</title>
<g id="a_edge82_Node000002_Node000003"><a xlink:title=" ">
<path fill="none" stroke="#63b8ff" d="M368.28,-63C376.85,-63 385.45,-63 393.77,-63"/>
<polygon fill="#63b8ff" stroke="#63b8ff" points="368.23,-59.5 358.23,-63 368.23,-66.5 368.23,-59.5"/>
</a>
</g>
</g>
</g>
</svg>
