<?xml version="1.0" encoding="UTF-8" standalone="no"?>
<!DOCTYPE svg PUBLIC "-//W3C//DTD SVG 1.1//EN"
 "http://www.w3.org/Graphics/SVG/1.1/DTD/svg11.dtd">
<!-- Generated by graphviz version 12.2.1 (20241206.2353)
 -->
<!-- Title: Graphical Class Hierarchy Pages: 1 -->
<svg width="298pt" height="125pt"
 viewBox="0.00 0.00 298.00 124.88" xmlns="http://www.w3.org/2000/svg" xmlns:xlink="http://www.w3.org/1999/xlink">
<g id="graph0" class="graph" transform="scale(1 1) rotate(0) translate(4 120.88)">
<title>Graphical Class Hierarchy</title>
<!-- Node0 -->
<g id="Node000000" class="node">
<title>Node0</title>
<g id="a_Node000000"><a xlink:href="structvulpes_1_1timeintegration_1_1ButcherTable.html" target="_top" xlink:title=" ">
<polygon fill="white" stroke="#666666" points="114.25,-67.88 0,-67.88 0,-37.38 114.25,-37.38 114.25,-67.88"/>
<text text-anchor="start" x="8" y="-54.38" font-family="Helvetica,sans-Serif" font-size="10.00">vulpes::timeintegration</text>
<text text-anchor="middle" x="57.12" y="-43.12" font-family="Helvetica,sans-Serif" font-size="10.00">::ButcherTable&lt; 4 &gt;</text>
</a>
</g>
</g>
<!-- Node1 -->
<g id="Node000001" class="node">
<title>Node1</title>
<g id="a_Node000001"><a xlink:href="structvulpes_1_1timeintegration_1_1CeschinoKunzmann4.html" target="_top" xlink:title=" ">
<polygon fill="white" stroke="#666666" points="277.62,-116.88 162.62,-116.88 162.62,-86.38 277.62,-86.38 277.62,-116.88"/>
<text text-anchor="start" x="170.62" y="-103.38" font-family="Helvetica,sans-Serif" font-size="10.00">vulpes::timeintegration</text>
<text text-anchor="middle" x="220.12" y="-92.12" font-family="Helvetica,sans-Serif" font-size="10.00">::CeschinoKunzmann4</text>
</a>
</g>
</g>
<!-- Node0&#45;&gt;Node1 -->
<g id="edge98_Node000000_Node000001" class="edge">
<title>Node0&#45;&gt;Node1</title>
<g id="a_edge98_Node000000_Node000001"><a xlink:title=" ">
<path fill="none" stroke="#63b8ff" d="M120.13,-71.5C135.75,-76.25 152.35,-81.3 167.4,-85.88"/>
<polygon fill="#63b8ff" stroke="#63b8ff" points="121.54,-68.27 110.96,-68.7 119.5,-74.96 121.54,-68.27"/>
</a>
</g>
</g>
<!-- Node2 -->
<g id="Node000002" class="node">
<title>Node2</title>
<g id="a_Node000002"><a xlink:href="structvulpes_1_1timeintegration_1_1LstableDIRK.html" target="_top" xlink:title=" ">
<polygon fill="white" stroke="#666666" points="277.25,-67.88 163,-67.88 163,-37.38 277.25,-37.38 277.25,-67.88"/>
<text text-anchor="start" x="171" y="-54.38" font-family="Helvetica,sans-Serif" font-size="10.00">vulpes::timeintegration</text>
<text text-anchor="middle" x="220.12" y="-43.12" font-family="Helvetica,sans-Serif" font-size="10.00">::LstableDIRK</text>
</a>
</g>
</g>
<!-- Node0&#45;&gt;Node2 -->
<g id="edge99_Node000000_Node000002" class="edge">
<title>Node0&#45;&gt;Node2</title>
<g id="a_edge99_Node000000_Node000002"><a xlink:title=" ">
<path fill="none" stroke="#63b8ff" d="M125.59,-52.62C137.9,-52.62 150.62,-52.62 162.57,-52.62"/>
<polygon fill="#63b8ff" stroke="#63b8ff" points="125.95,-49.13 115.95,-52.63 125.95,-56.13 125.95,-49.13"/>
</a>
</g>
</g>
<!-- Node3 -->
<g id="Node000003" class="node">
<title>Node3</title>
<g id="a_Node000003"><a xlink:href="structvulpes_1_1timeintegration_1_1RK4.html" target="_top" xlink:title=" ">
<polygon fill="white" stroke="#666666" points="290,-19.25 150.25,-19.25 150.25,0 290,0 290,-19.25"/>
<text text-anchor="middle" x="220.12" y="-5.75" font-family="Helvetica,sans-Serif" font-size="10.00">vulpes::timeintegration::RK4</text>
</a>
</g>
</g>
<!-- Node0&#45;&gt;Node3 -->
<g id="edge100_Node000000_Node000003" class="edge">
<title>Node0&#45;&gt;Node3</title>
<g id="a_edge100_Node000000_Node000003"><a xlink:title=" ">
<path fill="none" stroke="#63b8ff" d="M125.51,-34.63C144.57,-29.54 164.64,-24.18 181.29,-19.73"/>
<polygon fill="#63b8ff" stroke="#63b8ff" points="124.66,-31.23 115.9,-37.2 126.46,-38 124.66,-31.23"/>
</a>
</g>
</g>
</g>
</svg>
