<?xml version="1.0" encoding="UTF-8" standalone="no"?>
<!DOCTYPE svg PUBLIC "-//W3C//DTD SVG 1.1//EN"
 "http://www.w3.org/Graphics/SVG/1.1/DTD/svg11.dtd">
<!-- Generated by graphviz version 2.43.0 (0)
 -->
<!-- Title: Graphical Class Hierarchy Pages: 1 -->
<svg width="335pt" height="86pt"
 viewBox="0.00 0.00 335.00 86.00" xmlns="http://www.w3.org/2000/svg" xmlns:xlink="http://www.w3.org/1999/xlink">
<g id="graph0" class="graph" transform="scale(1 1) rotate(0) translate(4 82)">
<title>Graphical Class Hierarchy</title>
<!-- Node0 -->
<g id="Node000000" class="node">
<title>Node0</title>
<g id="a_Node000000"><a xlink:href="classvulpes_1_1polynomial_1_1PolynomialBase.html" target="_top" xlink:title="Base template class for a general polynomial.">
<polygon fill="white" stroke="#666666" points="122,-59.5 0,-59.5 0,-18.5 122,-18.5 122,-59.5"/>
<text text-anchor="start" x="8" y="-47.5" font-family="Helvetica,sans-Serif" font-size="10.00">vulpes::polynomial</text>
<text text-anchor="start" x="8" y="-36.5" font-family="Helvetica,sans-Serif" font-size="10.00">::PolynomialBase&lt; T,</text>
<text text-anchor="middle" x="61" y="-25.5" font-family="Helvetica,sans-Serif" font-size="10.00"> Dim, Polynomial &gt;</text>
</a>
</g>
</g>
<!-- Node1 -->
<g id="Node000001" class="node">
<title>Node1</title>
<g id="a_Node000001"><a xlink:href="classvulpes_1_1polynomial_1_1Polynomial2D.html" target="_top" xlink:title="Template class to represent and operate on polynomials in 2D.">
<polygon fill="white" stroke="#666666" points="327,-78 158,-78 158,-48 327,-48 327,-78"/>
<text text-anchor="start" x="166" y="-66" font-family="Helvetica,sans-Serif" font-size="10.00">vulpes::polynomial</text>
<text text-anchor="middle" x="242.5" y="-55" font-family="Helvetica,sans-Serif" font-size="10.00">::Polynomial2D&lt; T, IsSpaceP &gt;</text>
</a>
</g>
</g>
<!-- Node0&#45;&gt;Node1 -->
<g id="edge56_Node000000_Node000001" class="edge">
<title>Node0&#45;&gt;Node1</title>
<g id="a_edge56_Node000000_Node000001"><a xlink:title=" ">
<path fill="none" stroke="#63b8ff" d="M132.32,-48.4C140.67,-49.52 149.26,-50.67 157.78,-51.81"/>
<polygon fill="#63b8ff" stroke="#63b8ff" points="132.65,-44.91 122.27,-47.06 131.72,-51.85 132.65,-44.91"/>
</a>
</g>
</g>
<!-- Node2 -->
<g id="Node000002" class="node">
<title>Node2</title>
<g id="a_Node000002"><a xlink:href="classvulpes_1_1polynomial_1_1Polynomial3D.html" target="_top" xlink:title="Template class to represent and operate on polynomials in 3D.">
<polygon fill="white" stroke="#666666" points="327,-30 158,-30 158,0 327,0 327,-30"/>
<text text-anchor="start" x="166" y="-18" font-family="Helvetica,sans-Serif" font-size="10.00">vulpes::polynomial</text>
<text text-anchor="middle" x="242.5" y="-7" font-family="Helvetica,sans-Serif" font-size="10.00">::Polynomial3D&lt; T, IsSpaceP &gt;</text>
</a>
</g>
</g>
<!-- Node0&#45;&gt;Node2 -->
<g id="edge57_Node000000_Node000002" class="edge">
<title>Node0&#45;&gt;Node2</title>
<g id="a_edge57_Node000000_Node000002"><a xlink:title=" ">
<path fill="none" stroke="#63b8ff" d="M132.32,-29.6C140.67,-28.48 149.26,-27.33 157.78,-26.19"/>
<polygon fill="#63b8ff" stroke="#63b8ff" points="131.72,-26.15 122.27,-30.94 132.65,-33.09 131.72,-26.15"/>
</a>
</g>
</g>
</g>
</svg>
