<?xml version="1.0" encoding="UTF-8" standalone="no"?>
<!DOCTYPE svg PUBLIC "-//W3C//DTD SVG 1.1//EN"
 "http://www.w3.org/Graphics/SVG/1.1/DTD/svg11.dtd">
<!-- Generated by graphviz version 12.2.1 (20241206.2353)
 -->
<!-- Title: Graphical Class Hierarchy Pages: 1 -->
<svg width="319pt" height="88pt"
 viewBox="0.00 0.00 319.00 87.50" xmlns="http://www.w3.org/2000/svg" xmlns:xlink="http://www.w3.org/1999/xlink">
<g id="graph0" class="graph" transform="scale(1 1) rotate(0) translate(4 83.5)">
<title>Graphical Class Hierarchy</title>
<!-- Node0 -->
<g id="Node000000" class="node">
<title>Node0</title>
<g id="a_Node000000"><a xlink:href="structvulpes_1_1timeintegration_1_1ButcherTableIMEX.html" target="_top" xlink:title=" ">
<polygon fill="white" stroke="#666666" points="127,-54.5 0,-54.5 0,-24 127,-24 127,-54.5"/>
<text text-anchor="start" x="8" y="-41" font-family="Helvetica,sans-Serif" font-size="10.00">vulpes::timeintegration</text>
<text text-anchor="middle" x="63.5" y="-29.75" font-family="Helvetica,sans-Serif" font-size="10.00">::ButcherTableIMEX&lt; 2 &gt;</text>
</a>
</g>
</g>
<!-- Node1 -->
<g id="Node000001" class="node">
<title>Node1</title>
<g id="a_Node000001"><a xlink:href="structvulpes_1_1timeintegration_1_1ForwardBackwardEulerIMEX.html" target="_top" xlink:title=" ">
<polygon fill="white" stroke="#666666" points="311,-79.5 163,-79.5 163,-49 311,-49 311,-79.5"/>
<text text-anchor="start" x="171" y="-66" font-family="Helvetica,sans-Serif" font-size="10.00">vulpes::timeintegration</text>
<text text-anchor="middle" x="237" y="-54.75" font-family="Helvetica,sans-Serif" font-size="10.00">::ForwardBackwardEulerIMEX</text>
</a>
</g>
</g>
<!-- Node0&#45;&gt;Node1 -->
<g id="edge101_Node000000_Node000001" class="edge">
<title>Node0&#45;&gt;Node1</title>
<g id="a_edge101_Node000000_Node000001"><a xlink:title=" ">
<path fill="none" stroke="#63b8ff" d="M138.56,-50.05C146.55,-51.21 154.68,-52.4 162.66,-53.56"/>
<polygon fill="#63b8ff" stroke="#63b8ff" points="139.28,-46.61 128.88,-48.64 138.27,-53.54 139.28,-46.61"/>
</a>
</g>
</g>
<!-- Node2 -->
<g id="Node000002" class="node">
<title>Node2</title>
<g id="a_Node000002"><a xlink:href="structvulpes_1_1timeintegration_1_1ImplicitExplicitMidpointIMEX.html" target="_top" xlink:title=" ">
<polygon fill="white" stroke="#666666" points="310.62,-30.5 163.38,-30.5 163.38,0 310.62,0 310.62,-30.5"/>
<text text-anchor="start" x="171.38" y="-17" font-family="Helvetica,sans-Serif" font-size="10.00">vulpes::timeintegration</text>
<text text-anchor="middle" x="237" y="-5.75" font-family="Helvetica,sans-Serif" font-size="10.00">::ImplicitExplicitMidpointIMEX</text>
</a>
</g>
</g>
<!-- Node0&#45;&gt;Node2 -->
<g id="edge102_Node000000_Node000002" class="edge">
<title>Node0&#45;&gt;Node2</title>
<g id="a_edge102_Node000000_Node000002"><a xlink:title=" ">
<path fill="none" stroke="#63b8ff" d="M138.66,-28.87C146.71,-27.74 154.91,-26.6 162.96,-25.47"/>
<polygon fill="#63b8ff" stroke="#63b8ff" points="138.3,-25.39 128.89,-30.24 139.27,-32.32 138.3,-25.39"/>
</a>
</g>
</g>
</g>
</svg>
