<?xml version="1.0" encoding="UTF-8" standalone="no"?>
<!DOCTYPE svg PUBLIC "-//W3C//DTD SVG 1.1//EN"
 "http://www.w3.org/Graphics/SVG/1.1/DTD/svg11.dtd">
<!-- Generated by graphviz version 12.2.1 (20241206.2353)
 -->
<!-- Title: Graphical Class Hierarchy Pages: 1 -->
<svg width="271pt" height="206pt"
 viewBox="0.00 0.00 271.00 206.12" xmlns="http://www.w3.org/2000/svg" xmlns:xlink="http://www.w3.org/1999/xlink">
<g id="graph0" class="graph" transform="scale(1 1) rotate(0) translate(4 202.12)">
<title>Graphical Class Hierarchy</title>
<!-- Node0 -->
<g id="Node000000" class="node">
<title>Node0</title>
<g id="a_Node000000"><a xlink:title=" ">
<polygon fill="#e0e0e0" stroke="#999999" points="80.5,-105.88 0,-105.88 0,-86.62 80.5,-86.62 80.5,-105.88"/>
<text text-anchor="middle" x="40.25" y="-92.38" font-family="Helvetica,sans-Serif" font-size="10.00">std::false_type</text>
</a>
</g>
</g>
<!-- Node1 -->
<g id="Node000001" class="node">
<title>Node1</title>
<g id="a_Node000001"><a xlink:href="structvulpes_1_1assemble_1_1internal_1_1is__fe__expression__derived.html" target="_top" xlink:title=" ">
<polygon fill="white" stroke="#666666" points="255.88,-198.12 123.62,-198.12 123.62,-156.38 255.88,-156.38 255.88,-198.12"/>
<text text-anchor="start" x="131.62" y="-184.62" font-family="Helvetica,sans-Serif" font-size="10.00">vulpes::assemble::internal</text>
<text text-anchor="start" x="131.62" y="-173.38" font-family="Helvetica,sans-Serif" font-size="10.00">::is_fe_expression_derived</text>
<text text-anchor="middle" x="189.75" y="-162.12" font-family="Helvetica,sans-Serif" font-size="10.00">&lt; T, typename &gt;</text>
</a>
</g>
</g>
<!-- Node0&#45;&gt;Node1 -->
<g id="edge11_Node000000_Node000001" class="edge">
<title>Node0&#45;&gt;Node1</title>
<g id="a_edge11_Node000000_Node000001"><a xlink:title=" ">
<path fill="none" stroke="#63b8ff" d="M63.53,-113.1C78.12,-123.7 97.88,-137.21 116.5,-147.25 122.12,-150.28 128.11,-153.21 134.15,-155.97"/>
<polygon fill="#63b8ff" stroke="#63b8ff" points="65.67,-110.33 55.55,-107.21 61.51,-115.97 65.67,-110.33"/>
</a>
</g>
</g>
<!-- Node2 -->
<g id="Node000002" class="node">
<title>Node2</title>
<g id="a_Node000002"><a xlink:href="structvulpes_1_1assemble_1_1internal_1_1is__tuple.html" target="_top" xlink:title=" ">
<polygon fill="white" stroke="#666666" points="254.75,-138.5 124.75,-138.5 124.75,-108 254.75,-108 254.75,-138.5"/>
<text text-anchor="start" x="132.75" y="-125" font-family="Helvetica,sans-Serif" font-size="10.00">vulpes::assemble::internal</text>
<text text-anchor="middle" x="189.75" y="-113.75" font-family="Helvetica,sans-Serif" font-size="10.00">::is_tuple&lt; T &gt;</text>
</a>
</g>
</g>
<!-- Node0&#45;&gt;Node2 -->
<g id="edge12_Node000000_Node000002" class="edge">
<title>Node0&#45;&gt;Node2</title>
<g id="a_edge12_Node000000_Node000002"><a xlink:title=" ">
<path fill="none" stroke="#63b8ff" d="M91.82,-105.51C102.28,-107.42 113.45,-109.47 124.33,-111.46"/>
<polygon fill="#63b8ff" stroke="#63b8ff" points="92.73,-102.12 82.27,-103.76 91.47,-109 92.73,-102.12"/>
</a>
</g>
</g>
<!-- Node3 -->
<g id="Node000003" class="node">
<title>Node3</title>
<g id="a_Node000003"><a xlink:href="structvulpes_1_1assemble_1_1internal_1_1is__tuple__of__fe__expr__pointers.html" target="_top" xlink:title=" ">
<polygon fill="white" stroke="#666666" points="263,-90.12 116.5,-90.12 116.5,-48.38 263,-48.38 263,-90.12"/>
<text text-anchor="start" x="124.5" y="-76.62" font-family="Helvetica,sans-Serif" font-size="10.00">vulpes::assemble::internal</text>
<text text-anchor="start" x="124.5" y="-65.38" font-family="Helvetica,sans-Serif" font-size="10.00">::is_tuple_of_fe_expr_pointers</text>
<text text-anchor="middle" x="189.75" y="-54.12" font-family="Helvetica,sans-Serif" font-size="10.00">&lt; T, typename &gt;</text>
</a>
</g>
</g>
<!-- Node0&#45;&gt;Node3 -->
<g id="edge13_Node000000_Node000003" class="edge">
<title>Node0&#45;&gt;Node3</title>
<g id="a_edge13_Node000000_Node000003"><a xlink:title=" ">
<path fill="none" stroke="#63b8ff" d="M91.9,-86.98C99.71,-85.55 107.9,-84.05 116.08,-82.55"/>
<polygon fill="#63b8ff" stroke="#63b8ff" points="91.47,-83.5 82.27,-88.74 92.73,-90.38 91.47,-83.5"/>
</a>
</g>
</g>
<!-- Node4 -->
<g id="Node000004" class="node">
<title>Node4</title>
<g id="a_Node000004"><a xlink:href="structvulpes_1_1vvutils_1_1internal_1_1is__printable__container.html" target="_top" xlink:title=" ">
<polygon fill="white" stroke="#666666" points="260,-30.5 119.5,-30.5 119.5,0 260,0 260,-30.5"/>
<text text-anchor="start" x="127.5" y="-17" font-family="Helvetica,sans-Serif" font-size="10.00">vulpes::vvutils::internal</text>
<text text-anchor="middle" x="189.75" y="-5.75" font-family="Helvetica,sans-Serif" font-size="10.00">::is_printable_container&lt; T &gt;</text>
</a>
</g>
</g>
<!-- Node0&#45;&gt;Node4 -->
<g id="edge14_Node000000_Node000004" class="edge">
<title>Node0&#45;&gt;Node4</title>
<g id="a_edge14_Node000000_Node000004"><a xlink:title=" ">
<path fill="none" stroke="#63b8ff" d="M60.25,-79.05C74.79,-66.61 95.8,-50.15 116.5,-39.25 122.35,-36.17 128.67,-33.38 135.05,-30.88"/>
<polygon fill="#63b8ff" stroke="#63b8ff" points="58.05,-76.32 52.84,-85.54 62.67,-81.59 58.05,-76.32"/>
</a>
</g>
</g>
</g>
</svg>
