<?xml version="1.0" encoding="UTF-8" standalone="no"?>
<!DOCTYPE svg PUBLIC "-//W3C//DTD SVG 1.1//EN"
 "http://www.w3.org/Graphics/SVG/1.1/DTD/svg11.dtd">
<!-- Generated by graphviz version 2.42.4 (0)
 -->
<!-- Title: Graphical Class Hierarchy Pages: 1 -->
<svg width="307pt" height="134pt"
 viewBox="0.00 0.00 307.00 134.00" xmlns="http://www.w3.org/2000/svg" xmlns:xlink="http://www.w3.org/1999/xlink">
<g id="graph0" class="graph" transform="scale(1 1) rotate(0) translate(4 130)">
<title>Graphical Class Hierarchy</title>
<!-- Node0 -->
<g id="Node000000" class="node">
<title>Node0</title>
<g id="a_Node000000"><a xlink:title=" ">
<polygon fill="#e0e0e0" stroke="#999999" points="105,-72.5 0,-72.5 0,-53.5 105,-53.5 105,-72.5"/>
<text text-anchor="middle" x="52.5" y="-60.5" font-family="Helvetica,sans-Serif" font-size="10.00">Eigen::MatrixBase</text>
</a>
</g>
</g>
<!-- Node1 -->
<g id="Node000001" class="node">
<title>Node1</title>
<g id="a_Node000001"><a xlink:href="classEigenVulpes_1_1OneComponentVector.html" target="_top" xlink:title=" ">
<polygon fill="white" stroke="#666666" points="299,-126 141,-126 141,-96 299,-96 299,-126"/>
<text text-anchor="start" x="149" y="-114" font-family="Helvetica,sans-Serif" font-size="10.00">EigenVulpes::OneComponent</text>
<text text-anchor="middle" x="220" y="-103" font-family="Helvetica,sans-Serif" font-size="10.00">Vector&lt; Idx, Scalar_, Size_ &gt;</text>
</a>
</g>
</g>
<!-- Node0&#45;&gt;Node1 -->
<g id="edge1_Node000000_Node000001" class="edge">
<title>Node0&#45;&gt;Node1</title>
<g id="a_edge1_Node000000_Node000001"><a xlink:title=" ">
<path fill="none" stroke="#63b8ff" d="M96.46,-75.46C118.04,-81.72 144.36,-89.35 167.06,-95.94"/>
<polygon fill="#63b8ff" stroke="#63b8ff" points="97.17,-72.02 86.59,-72.6 95.22,-78.75 97.17,-72.02"/>
</a>
</g>
</g>
<!-- Node2 -->
<g id="Node000002" class="node">
<title>Node2</title>
<g id="a_Node000002"><a xlink:href="classEigenVulpes_1_1RowMat.html" target="_top" xlink:title=" ">
<polygon fill="white" stroke="#666666" points="281,-78 159,-78 159,-48 281,-48 281,-78"/>
<text text-anchor="start" x="167" y="-66" font-family="Helvetica,sans-Serif" font-size="10.00">EigenVulpes::RowMat</text>
<text text-anchor="middle" x="220" y="-55" font-family="Helvetica,sans-Serif" font-size="10.00">&lt; RowId, ArgType &gt;</text>
</a>
</g>
</g>
<!-- Node0&#45;&gt;Node2 -->
<g id="edge2_Node000000_Node000002" class="edge">
<title>Node0&#45;&gt;Node2</title>
<g id="a_edge2_Node000000_Node000002"><a xlink:title=" ">
<path fill="none" stroke="#63b8ff" d="M115.56,-63C129.74,-63 144.79,-63 158.89,-63"/>
<polygon fill="#63b8ff" stroke="#63b8ff" points="115.41,-59.5 105.41,-63 115.41,-66.5 115.41,-59.5"/>
</a>
</g>
</g>
<!-- Node3 -->
<g id="Node000003" class="node">
<title>Node3</title>
<g id="a_Node000003"><a xlink:href="classEigenVulpes_1_1SymMat.html" target="_top" xlink:title=" ">
<polygon fill="white" stroke="#666666" points="281,-30 159,-30 159,0 281,0 281,-30"/>
<text text-anchor="start" x="167" y="-18" font-family="Helvetica,sans-Serif" font-size="10.00">EigenVulpes::SymMat</text>
<text text-anchor="middle" x="220" y="-7" font-family="Helvetica,sans-Serif" font-size="10.00">&lt; CrossId, ArgType &gt;</text>
</a>
</g>
</g>
<!-- Node0&#45;&gt;Node3 -->
<g id="edge3_Node000000_Node000003" class="edge">
<title>Node0&#45;&gt;Node3</title>
<g id="a_edge3_Node000000_Node000003"><a xlink:title=" ">
<path fill="none" stroke="#63b8ff" d="M96.46,-50.54C118.04,-44.28 144.36,-36.65 167.06,-30.06"/>
<polygon fill="#63b8ff" stroke="#63b8ff" points="95.22,-47.25 86.59,-53.4 97.17,-53.98 95.22,-47.25"/>
</a>
</g>
</g>
</g>
</svg>
