<?xml version="1.0" encoding="UTF-8" standalone="no"?>
<!DOCTYPE svg PUBLIC "-//W3C//DTD SVG 1.1//EN"
 "http://www.w3.org/Graphics/SVG/1.1/DTD/svg11.dtd">
<!-- Generated by graphviz version 2.42.4 (0)
 -->
<!-- Title: Graphical Class Hierarchy Pages: 1 -->
<svg width="306pt" height="278pt"
 viewBox="0.00 0.00 306.00 278.00" xmlns="http://www.w3.org/2000/svg" xmlns:xlink="http://www.w3.org/1999/xlink">
<g id="graph0" class="graph" transform="scale(1 1) rotate(0) translate(4 274)">
<title>Graphical Class Hierarchy</title>
<!-- Node0 -->
<g id="Node000000" class="node">
<title>Node0</title>
<g id="a_Node000000"><a xlink:href="structvulpes_1_1timeintegration_1_1ButcherTable.html" target="_top" xlink:title=" ">
<polygon fill="white" stroke="#666666" points="131,-150 0,-150 0,-120 131,-120 131,-150"/>
<text text-anchor="start" x="8" y="-138" font-family="Helvetica,sans-Serif" font-size="10.00">vulpes::timeintegration</text>
<text text-anchor="middle" x="65.5" y="-127" font-family="Helvetica,sans-Serif" font-size="10.00">::ButcherTable&lt; 3 &gt;</text>
</a>
</g>
</g>
<!-- Node1 -->
<g id="Node000001" class="node">
<title>Node1</title>
<g id="a_Node000001"><a xlink:href="structvulpes_1_1timeintegration_1_1CeschinoKunzmann3.html" target="_top" xlink:title=" ">
<polygon fill="white" stroke="#666666" points="298,-270 167,-270 167,-240 298,-240 298,-270"/>
<text text-anchor="start" x="175" y="-258" font-family="Helvetica,sans-Serif" font-size="10.00">vulpes::timeintegration</text>
<text text-anchor="middle" x="232.5" y="-247" font-family="Helvetica,sans-Serif" font-size="10.00">::CeschinoKunzmann3</text>
</a>
</g>
</g>
<!-- Node0&#45;&gt;Node1 -->
<g id="edge90_Node000000_Node000001" class="edge">
<title>Node0&#45;&gt;Node1</title>
<g id="a_edge90_Node000000_Node000001"><a xlink:title=" ">
<path fill="none" stroke="#63b8ff" d="M85.58,-157.97C104.39,-179.37 134.9,-210.9 167,-231 172.37,-234.36 178.28,-237.36 184.27,-240"/>
<polygon fill="#63b8ff" stroke="#63b8ff" points="88.15,-155.59 78.96,-150.31 82.85,-160.17 88.15,-155.59"/>
</a>
</g>
</g>
<!-- Node2 -->
<g id="Node000002" class="node">
<title>Node2</title>
<g id="a_Node000002"><a xlink:href="structvulpes_1_1timeintegration_1_1LobattoIIIC.html" target="_top" xlink:title=" ">
<polygon fill="white" stroke="#666666" points="298,-222 167,-222 167,-192 298,-192 298,-222"/>
<text text-anchor="start" x="175" y="-210" font-family="Helvetica,sans-Serif" font-size="10.00">vulpes::timeintegration</text>
<text text-anchor="middle" x="232.5" y="-199" font-family="Helvetica,sans-Serif" font-size="10.00">::LobattoIIIC</text>
</a>
</g>
</g>
<!-- Node0&#45;&gt;Node2 -->
<g id="edge91_Node000000_Node000002" class="edge">
<title>Node0&#45;&gt;Node2</title>
<g id="a_edge91_Node000000_Node000002"><a xlink:title=" ">
<path fill="none" stroke="#63b8ff" d="M105.51,-154.63C123.98,-163.67 146.44,-174.29 167,-183 174.15,-186.03 181.83,-189.07 189.3,-191.92"/>
<polygon fill="#63b8ff" stroke="#63b8ff" points="107.04,-151.48 96.52,-150.21 103.95,-157.76 107.04,-151.48"/>
</a>
</g>
</g>
<!-- Node3 -->
<g id="Node000003" class="node">
<title>Node3</title>
<g id="a_Node000003"><a xlink:href="structvulpes_1_1timeintegration_1_1Miller3.html" target="_top" xlink:title=" ">
<polygon fill="white" stroke="#666666" points="298,-174 167,-174 167,-144 298,-144 298,-174"/>
<text text-anchor="start" x="175" y="-162" font-family="Helvetica,sans-Serif" font-size="10.00">vulpes::timeintegration</text>
<text text-anchor="middle" x="232.5" y="-151" font-family="Helvetica,sans-Serif" font-size="10.00">::Miller3</text>
</a>
</g>
</g>
<!-- Node0&#45;&gt;Node3 -->
<g id="edge92_Node000000_Node000003" class="edge">
<title>Node0&#45;&gt;Node3</title>
<g id="a_edge92_Node000000_Node000003"><a xlink:title=" ">
<path fill="none" stroke="#63b8ff" d="M141.24,-145.87C149.82,-147.12 158.52,-148.38 166.95,-149.61"/>
<polygon fill="#63b8ff" stroke="#63b8ff" points="141.64,-142.39 131.24,-144.42 140.63,-149.32 141.64,-142.39"/>
</a>
</g>
</g>
<!-- Node4 -->
<g id="Node000004" class="node">
<title>Node4</title>
<g id="a_Node000004"><a xlink:href="structvulpes_1_1timeintegration_1_1RalstonOrder3.html" target="_top" xlink:title=" ">
<polygon fill="white" stroke="#666666" points="298,-126 167,-126 167,-96 298,-96 298,-126"/>
<text text-anchor="start" x="175" y="-114" font-family="Helvetica,sans-Serif" font-size="10.00">vulpes::timeintegration</text>
<text text-anchor="middle" x="232.5" y="-103" font-family="Helvetica,sans-Serif" font-size="10.00">::RalstonOrder3</text>
</a>
</g>
</g>
<!-- Node0&#45;&gt;Node4 -->
<g id="edge93_Node000000_Node000004" class="edge">
<title>Node0&#45;&gt;Node4</title>
<g id="a_edge93_Node000000_Node000004"><a xlink:title=" ">
<path fill="none" stroke="#63b8ff" d="M141.24,-124.13C149.82,-122.88 158.52,-121.62 166.95,-120.39"/>
<polygon fill="#63b8ff" stroke="#63b8ff" points="140.63,-120.68 131.24,-125.58 141.64,-127.61 140.63,-120.68"/>
</a>
</g>
</g>
<!-- Node5 -->
<g id="Node000005" class="node">
<title>Node5</title>
<g id="a_Node000005"><a xlink:href="structvulpes_1_1timeintegration_1_1SSPRK3.html" target="_top" xlink:title=" ">
<polygon fill="white" stroke="#666666" points="298,-78 167,-78 167,-48 298,-48 298,-78"/>
<text text-anchor="start" x="175" y="-66" font-family="Helvetica,sans-Serif" font-size="10.00">vulpes::timeintegration</text>
<text text-anchor="middle" x="232.5" y="-55" font-family="Helvetica,sans-Serif" font-size="10.00">::SSPRK3</text>
</a>
</g>
</g>
<!-- Node0&#45;&gt;Node5 -->
<g id="edge94_Node000000_Node000005" class="edge">
<title>Node0&#45;&gt;Node5</title>
<g id="a_edge94_Node000000_Node000005"><a xlink:title=" ">
<path fill="none" stroke="#63b8ff" d="M105.51,-115.37C123.98,-106.33 146.44,-95.71 167,-87 174.15,-83.97 181.83,-80.93 189.3,-78.08"/>
<polygon fill="#63b8ff" stroke="#63b8ff" points="103.95,-112.24 96.52,-119.79 107.04,-118.52 103.95,-112.24"/>
</a>
</g>
</g>
<!-- Node6 -->
<g id="Node000006" class="node">
<title>Node6</title>
<g id="a_Node000006"><a xlink:href="structvulpes_1_1timeintegration_1_1TRBDF2.html" target="_top" xlink:title=" ">
<polygon fill="white" stroke="#666666" points="298,-30 167,-30 167,0 298,0 298,-30"/>
<text text-anchor="start" x="175" y="-18" font-family="Helvetica,sans-Serif" font-size="10.00">vulpes::timeintegration</text>
<text text-anchor="middle" x="232.5" y="-7" font-family="Helvetica,sans-Serif" font-size="10.00">::TRBDF2</text>
</a>
</g>
</g>
<!-- Node0&#45;&gt;Node6 -->
<g id="edge95_Node000000_Node000006" class="edge">
<title>Node0&#45;&gt;Node6</title>
<g id="a_edge95_Node000000_Node000006"><a xlink:title=" ">
<path fill="none" stroke="#63b8ff" d="M85.58,-112.03C104.39,-90.63 134.9,-59.1 167,-39 172.37,-35.64 178.28,-32.64 184.27,-30"/>
<polygon fill="#63b8ff" stroke="#63b8ff" points="82.85,-109.83 78.96,-119.69 88.15,-114.41 82.85,-109.83"/>
</a>
</g>
</g>
</g>
</svg>
