<?xml version="1.0" encoding="UTF-8" standalone="no"?>
<!DOCTYPE svg PUBLIC "-//W3C//DTD SVG 1.1//EN"
 "http://www.w3.org/Graphics/SVG/1.1/DTD/svg11.dtd">
<!-- Generated by graphviz version 2.42.4 (0)
 -->
<!-- Title: Graphical Class Hierarchy Pages: 1 -->
<svg width="296pt" height="108pt"
 viewBox="0.00 0.00 296.00 108.00" xmlns="http://www.w3.org/2000/svg" xmlns:xlink="http://www.w3.org/1999/xlink">
<g id="graph0" class="graph" transform="scale(1 1) rotate(0) translate(4 104)">
<title>Graphical Class Hierarchy</title>
<!-- Node0 -->
<g id="Node000000" class="node">
<title>Node0</title>
<g id="a_Node000000"><a xlink:title=" ">
<polygon fill="#e0e0e0" stroke="#999999" points="106,-59 0,-59 0,-40 106,-40 106,-59"/>
<text text-anchor="middle" x="53" y="-47" font-family="Helvetica,sans-Serif" font-size="10.00">std::bool_constant</text>
</a>
</g>
</g>
<!-- Node1 -->
<g id="Node000001" class="node">
<title>Node1</title>
<g id="a_Node000001"><a xlink:href="structvulpes_1_1assemble_1_1internal_1_1is__fe__expression__derived_3_01T_00_01std_1_1void__t_3_4_01_4.html" target="_top" xlink:title=" ">
<polygon fill="white" stroke="#666666" points="288,-100 142,-100 142,-59 288,-59 288,-100"/>
<text text-anchor="start" x="150" y="-88" font-family="Helvetica,sans-Serif" font-size="10.00">vulpes::assemble::internal</text>
<text text-anchor="start" x="150" y="-77" font-family="Helvetica,sans-Serif" font-size="10.00">::is_fe_expression_derived</text>
<text text-anchor="middle" x="215" y="-66" font-family="Helvetica,sans-Serif" font-size="10.00">&lt; T, std::void_t&lt;&gt; &gt;</text>
</a>
</g>
</g>
<!-- Node0&#45;&gt;Node1 -->
<g id="edge10_Node000000_Node000001" class="edge">
<title>Node0&#45;&gt;Node1</title>
<g id="a_edge10_Node000000_Node000001"><a xlink:title=" ">
<path fill="none" stroke="#63b8ff" d="M115.14,-60.96C123.87,-62.6 132.92,-64.3 141.84,-65.97"/>
<polygon fill="#63b8ff" stroke="#63b8ff" points="115.54,-57.48 105.06,-59.07 114.25,-64.36 115.54,-57.48"/>
</a>
</g>
</g>
<!-- Node2 -->
<g id="Node000002" class="node">
<title>Node2</title>
<g id="a_Node000002"><a xlink:href="structvulpes_1_1assemble_1_1internal_1_1is__fe__expression__derived__dim.html" target="_top" xlink:title=" ">
<polygon fill="white" stroke="#666666" points="288,-41 142,-41 142,0 288,0 288,-41"/>
<text text-anchor="start" x="150" y="-29" font-family="Helvetica,sans-Serif" font-size="10.00">vulpes::assemble::internal</text>
<text text-anchor="start" x="150" y="-18" font-family="Helvetica,sans-Serif" font-size="10.00">::is_fe_expression_derived</text>
<text text-anchor="middle" x="215" y="-7" font-family="Helvetica,sans-Serif" font-size="10.00">_dim&lt; T, Dim &gt;</text>
</a>
</g>
</g>
<!-- Node0&#45;&gt;Node2 -->
<g id="edge11_Node000000_Node000002" class="edge">
<title>Node0&#45;&gt;Node2</title>
<g id="a_edge11_Node000000_Node000002"><a xlink:title=" ">
<path fill="none" stroke="#63b8ff" d="M116.37,-38.19C124.69,-36.69 133.27,-35.13 141.74,-33.6"/>
<polygon fill="#63b8ff" stroke="#63b8ff" points="115.61,-34.78 106.39,-40 116.85,-41.66 115.61,-34.78"/>
</a>
</g>
</g>
</g>
</svg>
