<?xml version="1.0" encoding="UTF-8" standalone="no"?>
<!DOCTYPE svg PUBLIC "-//W3C//DTD SVG 1.1//EN"
 "http://www.w3.org/Graphics/SVG/1.1/DTD/svg11.dtd">
<!-- Generated by graphviz version 2.42.4 (0)
 -->
<!-- Title: Graphical Class Hierarchy Pages: 1 -->
<svg width="380pt" height="578pt"
 viewBox="0.00 0.00 380.00 578.00" xmlns="http://www.w3.org/2000/svg" xmlns:xlink="http://www.w3.org/1999/xlink">
<g id="graph0" class="graph" transform="scale(1 1) rotate(0) translate(4 574)">
<title>Graphical Class Hierarchy</title>
<!-- Node0 -->
<g id="Node000000" class="node">
<title>Node0</title>
<g id="a_Node000000"><a xlink:href="classvulpes_1_1fe_1_1FeExpressionBase.html" target="_top" xlink:title="Base class for Finite Element Expressions.">
<polygon fill="white" stroke="#666666" points="154,-322.5 0,-322.5 0,-292.5 154,-292.5 154,-322.5"/>
<text text-anchor="start" x="8" y="-310.5" font-family="Helvetica,sans-Serif" font-size="10.00">vulpes::fe::FeExpression</text>
<text text-anchor="middle" x="77" y="-299.5" font-family="Helvetica,sans-Serif" font-size="10.00">Base&lt; Dim, FeExpression &gt;</text>
</a>
</g>
</g>
<!-- Node1 -->
<g id="Node000001" class="node">
<title>Node1</title>
<g id="a_Node000001"><a xlink:href="classvulpes_1_1fe_1_1FeExactExpressionFeProjection.html" target="_top" xlink:title="Class that wraps the projected of a given vector of coefficients on the FE space.">
<polygon fill="white" stroke="#666666" points="362,-570 200,-570 200,-529 362,-529 362,-570"/>
<text text-anchor="start" x="208" y="-558" font-family="Helvetica,sans-Serif" font-size="10.00">vulpes::fe::FeExactExpression</text>
<text text-anchor="start" x="208" y="-547" font-family="Helvetica,sans-Serif" font-size="10.00">FeProjection&lt; Dim, FeSpace,</text>
<text text-anchor="middle" x="281" y="-536" font-family="Helvetica,sans-Serif" font-size="10.00"> DofHandler, OutputDim &gt;</text>
</a>
</g>
</g>
<!-- Node0&#45;&gt;Node1 -->
<g id="edge31_Node000000_Node000001" class="edge">
<title>Node0&#45;&gt;Node1</title>
<g id="a_edge31_Node000000_Node000001"><a xlink:title=" ">
<path fill="none" stroke="#63b8ff" d="M84.33,-332.31C96.89,-376.58 129.17,-469.34 190,-520.5 193.64,-523.56 197.62,-526.31 201.8,-528.76"/>
<polygon fill="#63b8ff" stroke="#63b8ff" points="87.7,-331.37 81.68,-322.64 80.95,-333.21 87.7,-331.37"/>
</a>
</g>
</g>
<!-- Node2 -->
<g id="Node000002" class="node">
<title>Node2</title>
<g id="a_Node000002"><a xlink:href="classvulpes_1_1fe_1_1FeExpressionFeProjection.html" target="_top" xlink:title="Class that wraps the projected of a given vector of coefficients on the FE space.">
<polygon fill="white" stroke="#666666" points="360,-511 202,-511 202,-470 360,-470 360,-511"/>
<text text-anchor="start" x="210" y="-499" font-family="Helvetica,sans-Serif" font-size="10.00">vulpes::fe::FeExpression</text>
<text text-anchor="start" x="210" y="-488" font-family="Helvetica,sans-Serif" font-size="10.00">FeProjection&lt; Dim, FeSpace,</text>
<text text-anchor="middle" x="281" y="-477" font-family="Helvetica,sans-Serif" font-size="10.00"> DofHandler, OutputDim &gt;</text>
</a>
</g>
</g>
<!-- Node0&#45;&gt;Node2 -->
<g id="edge32_Node000000_Node000002" class="edge">
<title>Node0&#45;&gt;Node2</title>
<g id="a_edge32_Node000000_Node000002"><a xlink:title=" ">
<path fill="none" stroke="#63b8ff" d="M89.47,-331.84C106.66,-365.74 142.24,-426.91 190,-461.5 194.25,-464.58 198.85,-467.35 203.64,-469.82"/>
<polygon fill="#63b8ff" stroke="#63b8ff" points="92.5,-330.06 84.93,-322.65 86.22,-333.16 92.5,-330.06"/>
</a>
</g>
</g>
<!-- Node3 -->
<g id="Node000003" class="node">
<title>Node3</title>
<g id="a_Node000003"><a xlink:href="classvulpes_1_1fe_1_1FeExpressionFunc.html" target="_top" xlink:title=" ">
<polygon fill="white" stroke="#666666" points="360.5,-452 201.5,-452 201.5,-411 360.5,-411 360.5,-452"/>
<text text-anchor="start" x="209.5" y="-440" font-family="Helvetica,sans-Serif" font-size="10.00">vulpes::fe::FeExpression</text>
<text text-anchor="start" x="209.5" y="-429" font-family="Helvetica,sans-Serif" font-size="10.00">Func&lt; IndexBegin, IndexEnd,</text>
<text text-anchor="middle" x="281" y="-418" font-family="Helvetica,sans-Serif" font-size="10.00"> Dim, FeSpace, IsTest &gt;</text>
</a>
</g>
</g>
<!-- Node0&#45;&gt;Node3 -->
<g id="edge33_Node000000_Node000003" class="edge">
<title>Node0&#45;&gt;Node3</title>
<g id="a_edge33_Node000000_Node000003"><a xlink:title=" ">
<path fill="none" stroke="#63b8ff" d="M99.34,-330.14C120.54,-351.46 154.87,-382.96 190,-402.5 195.45,-405.53 201.27,-408.3 207.22,-410.82"/>
<polygon fill="#63b8ff" stroke="#63b8ff" points="101.64,-327.49 92.15,-322.79 96.64,-332.39 101.64,-327.49"/>
</a>
</g>
</g>
<!-- Node4 -->
<g id="Node000004" class="node">
<title>Node4</title>
<g id="a_Node000004"><a xlink:href="classvulpes_1_1fe_1_1FeExpressionFunctionWrapper.html" target="_top" xlink:title="Class that wraps a user&#45;provided function.">
<polygon fill="white" stroke="#666666" points="348.5,-393 213.5,-393 213.5,-352 348.5,-352 348.5,-393"/>
<text text-anchor="start" x="221.5" y="-381" font-family="Helvetica,sans-Serif" font-size="10.00">vulpes::fe::FeExpression</text>
<text text-anchor="start" x="221.5" y="-370" font-family="Helvetica,sans-Serif" font-size="10.00">FunctionWrapper&lt; Dim,</text>
<text text-anchor="middle" x="281" y="-359" font-family="Helvetica,sans-Serif" font-size="10.00"> OutputDim &gt;</text>
</a>
</g>
</g>
<!-- Node0&#45;&gt;Node4 -->
<g id="edge34_Node000000_Node000004" class="edge">
<title>Node0&#45;&gt;Node4</title>
<g id="a_edge34_Node000000_Node000004"><a xlink:title=" ">
<path fill="none" stroke="#63b8ff" d="M134.68,-325.74C160.04,-333.9 190.05,-343.55 216.19,-351.97"/>
<polygon fill="#63b8ff" stroke="#63b8ff" points="135.44,-322.31 124.85,-322.58 133.3,-328.97 135.44,-322.31"/>
</a>
</g>
</g>
<!-- Node5 -->
<g id="Node000005" class="node">
<title>Node5</title>
<g id="a_Node000005"><a xlink:href="classvulpes_1_1fe_1_1FeExpressionGradContr.html" target="_top" xlink:title="General bilinear expression: diagonal sum over component blocks (I == J only). Two forms selected by ...">
<polygon fill="white" stroke="#666666" points="351,-333.5 211,-333.5 211,-281.5 351,-281.5 351,-333.5"/>
<text text-anchor="start" x="219" y="-321.5" font-family="Helvetica,sans-Serif" font-size="10.00">vulpes::fe::FeExpression</text>
<text text-anchor="start" x="219" y="-310.5" font-family="Helvetica,sans-Serif" font-size="10.00">GradContr&lt; IndexBegin,</text>
<text text-anchor="start" x="219" y="-299.5" font-family="Helvetica,sans-Serif" font-size="10.00"> IndexEnd, Dim, FeSpace,</text>
<text text-anchor="middle" x="281" y="-288.5" font-family="Helvetica,sans-Serif" font-size="10.00"> FuncExpr, GradOnTest &gt;</text>
</a>
</g>
</g>
<!-- Node0&#45;&gt;Node5 -->
<g id="edge35_Node000000_Node000005" class="edge">
<title>Node0&#45;&gt;Node5</title>
<g id="a_edge35_Node000000_Node000005"><a xlink:title=" ">
<path fill="none" stroke="#63b8ff" d="M164.25,-307.5C179.85,-307.5 195.94,-307.5 210.97,-307.5"/>
<polygon fill="#63b8ff" stroke="#63b8ff" points="164.08,-304 154.08,-307.5 164.08,-311 164.08,-304"/>
</a>
</g>
</g>
<!-- Node6 -->
<g id="Node000006" class="node">
<title>Node6</title>
<g id="a_Node000006"><a xlink:href="classvulpes_1_1fe_1_1FeExpressionGradContrBlock.html" target="_top" xlink:title="Bilinear expression for a single (test, trial) component block. Two forms selected by GradOnTest:">
<polygon fill="white" stroke="#666666" points="358.5,-263 203.5,-263 203.5,-200 358.5,-200 358.5,-263"/>
<text text-anchor="start" x="211.5" y="-251" font-family="Helvetica,sans-Serif" font-size="10.00">vulpes::fe::FeExpression</text>
<text text-anchor="start" x="211.5" y="-240" font-family="Helvetica,sans-Serif" font-size="10.00">GradContrBlock&lt; TestComp,</text>
<text text-anchor="start" x="211.5" y="-229" font-family="Helvetica,sans-Serif" font-size="10.00"> TrialComp, IndexBegin,</text>
<text text-anchor="start" x="211.5" y="-218" font-family="Helvetica,sans-Serif" font-size="10.00"> IndexEnd, Dim, FeSpace,</text>
<text text-anchor="middle" x="281" y="-207" font-family="Helvetica,sans-Serif" font-size="10.00"> FuncExpr, GradOnTest &gt;</text>
</a>
</g>
</g>
<!-- Node0&#45;&gt;Node6 -->
<g id="edge36_Node000000_Node000006" class="edge">
<title>Node0&#45;&gt;Node6</title>
<g id="a_edge36_Node000000_Node000006"><a xlink:title=" ">
<path fill="none" stroke="#63b8ff" d="M127.39,-288.92C150.23,-280.32 177.9,-269.91 203.37,-260.33"/>
<polygon fill="#63b8ff" stroke="#63b8ff" points="126.04,-285.69 117.91,-292.48 128.5,-292.24 126.04,-285.69"/>
</a>
</g>
</g>
<!-- Node7 -->
<g id="Node000007" class="node">
<title>Node7</title>
<g id="a_Node000007"><a xlink:href="classvulpes_1_1fe_1_1FeExpressionGradFunc.html" target="_top" xlink:title=" ">
<polygon fill="white" stroke="#666666" points="351,-181.5 211,-181.5 211,-129.5 351,-129.5 351,-181.5"/>
<text text-anchor="start" x="219" y="-169.5" font-family="Helvetica,sans-Serif" font-size="10.00">vulpes::fe::FeExpression</text>
<text text-anchor="start" x="219" y="-158.5" font-family="Helvetica,sans-Serif" font-size="10.00">GradFunc&lt; IndexBegin,</text>
<text text-anchor="start" x="219" y="-147.5" font-family="Helvetica,sans-Serif" font-size="10.00"> IndexEnd, Dim, FeSpace,</text>
<text text-anchor="middle" x="281" y="-136.5" font-family="Helvetica,sans-Serif" font-size="10.00"> IsTest &gt;</text>
</a>
</g>
</g>
<!-- Node0&#45;&gt;Node7 -->
<g id="edge37_Node000000_Node000007" class="edge">
<title>Node0&#45;&gt;Node7</title>
<g id="a_edge37_Node000000_Node000007"><a xlink:title=" ">
<path fill="none" stroke="#63b8ff" d="M95.42,-284.28C115.7,-258.6 151.38,-217.45 190,-191.5 196.43,-187.18 203.45,-183.25 210.64,-179.71"/>
<polygon fill="#63b8ff" stroke="#63b8ff" points="92.52,-282.3 89.15,-292.35 98.05,-286.6 92.52,-282.3"/>
</a>
</g>
</g>
<!-- Node8 -->
<g id="Node000008" class="node">
<title>Node8</title>
<g id="a_Node000008"><a xlink:href="classvulpes_1_1fe_1_1FeExpressionSymGradFunc.html" target="_top" xlink:title=" ">
<polygon fill="white" stroke="#666666" points="357.5,-111.5 204.5,-111.5 204.5,-59.5 357.5,-59.5 357.5,-111.5"/>
<text text-anchor="start" x="212.5" y="-99.5" font-family="Helvetica,sans-Serif" font-size="10.00">vulpes::fe::FeExpression</text>
<text text-anchor="start" x="212.5" y="-88.5" font-family="Helvetica,sans-Serif" font-size="10.00">SymGradFunc&lt; IndexBegin,</text>
<text text-anchor="start" x="212.5" y="-77.5" font-family="Helvetica,sans-Serif" font-size="10.00"> IndexEnd, Dim, FeSpace,</text>
<text text-anchor="middle" x="281" y="-66.5" font-family="Helvetica,sans-Serif" font-size="10.00"> IsTest &gt;</text>
</a>
</g>
</g>
<!-- Node0&#45;&gt;Node8 -->
<g id="edge38_Node000000_Node000008" class="edge">
<title>Node0&#45;&gt;Node8</title>
<g id="a_edge38_Node000000_Node000008"><a xlink:title=" ">
<path fill="none" stroke="#63b8ff" d="M86.63,-282.98C101.7,-243.51 136.39,-165.75 190,-120.5 194.36,-116.82 199.14,-113.51 204.17,-110.52"/>
<polygon fill="#63b8ff" stroke="#63b8ff" points="83.34,-281.78 83.14,-292.37 89.91,-284.21 83.34,-281.78"/>
</a>
</g>
</g>
<!-- Node9 -->
<g id="Node000009" class="node">
<title>Node9</title>
<g id="a_Node000009"><a xlink:href="classvulpes_1_1fe_1_1FeExpressionTraceSymGradFunc.html" target="_top" xlink:title=" ">
<polygon fill="white" stroke="#666666" points="372,-41 190,-41 190,0 372,0 372,-41"/>
<text text-anchor="start" x="198" y="-29" font-family="Helvetica,sans-Serif" font-size="10.00">vulpes::fe::FeExpression</text>
<text text-anchor="start" x="198" y="-18" font-family="Helvetica,sans-Serif" font-size="10.00">TraceSymGradFunc&lt; IndexBegin,</text>
<text text-anchor="middle" x="281" y="-7" font-family="Helvetica,sans-Serif" font-size="10.00"> IndexEnd, Dim, FeSpace, IsTest &gt;</text>
</a>
</g>
</g>
<!-- Node0&#45;&gt;Node9 -->
<g id="edge39_Node000000_Node000009" class="edge">
<title>Node0&#45;&gt;Node9</title>
<g id="a_edge39_Node000000_Node000009"><a xlink:title=" ">
<path fill="none" stroke="#63b8ff" d="M81.96,-282.42C91.33,-231.39 119.58,-114.9 190,-50.5 193.89,-46.94 198.21,-43.81 202.8,-41.04"/>
<polygon fill="#63b8ff" stroke="#63b8ff" points="78.52,-281.82 80.24,-292.27 85.41,-283.02 78.52,-281.82"/>
</a>
</g>
</g>
</g>
</svg>
