<?xml version="1.0" encoding="UTF-8" standalone="no"?>
<!DOCTYPE svg PUBLIC "-//W3C//DTD SVG 1.1//EN"
 "http://www.w3.org/Graphics/SVG/1.1/DTD/svg11.dtd">
<!-- Generated by graphviz version 2.42.4 (0)
 -->
<!-- Title: Graphical Class Hierarchy Pages: 1 -->
<svg width="306pt" height="182pt"
 viewBox="0.00 0.00 306.00 182.00" xmlns="http://www.w3.org/2000/svg" xmlns:xlink="http://www.w3.org/1999/xlink">
<g id="graph0" class="graph" transform="scale(1 1) rotate(0) translate(4 178)">
<title>Graphical Class Hierarchy</title>
<!-- Node0 -->
<g id="Node000000" class="node">
<title>Node0</title>
<g id="a_Node000000"><a xlink:href="structvulpes_1_1timeintegration_1_1ButcherTable.html" target="_top" xlink:title=" ">
<polygon fill="white" stroke="#666666" points="131,-102 0,-102 0,-72 131,-72 131,-102"/>
<text text-anchor="start" x="8" y="-90" font-family="Helvetica,sans-Serif" font-size="10.00">vulpes::timeintegration</text>
<text text-anchor="middle" x="65.5" y="-79" font-family="Helvetica,sans-Serif" font-size="10.00">::ButcherTable&lt; 2 &gt;</text>
</a>
</g>
</g>
<!-- Node1 -->
<g id="Node000001" class="node">
<title>Node1</title>
<g id="a_Node000001"><a xlink:href="structvulpes_1_1timeintegration_1_1CrankNicolson.html" target="_top" xlink:title=" ">
<polygon fill="white" stroke="#666666" points="298,-174 167,-174 167,-144 298,-144 298,-174"/>
<text text-anchor="start" x="175" y="-162" font-family="Helvetica,sans-Serif" font-size="10.00">vulpes::timeintegration</text>
<text text-anchor="middle" x="232.5" y="-151" font-family="Helvetica,sans-Serif" font-size="10.00">::CrankNicolson</text>
</a>
</g>
</g>
<!-- Node0&#45;&gt;Node1 -->
<g id="edge86_Node000000_Node000001" class="edge">
<title>Node0&#45;&gt;Node1</title>
<g id="a_edge86_Node000000_Node000001"><a xlink:title=" ">
<path fill="none" stroke="#63b8ff" d="M105.51,-106.63C123.98,-115.67 146.44,-126.29 167,-135 174.15,-138.03 181.83,-141.07 189.3,-143.92"/>
<polygon fill="#63b8ff" stroke="#63b8ff" points="107.04,-103.48 96.52,-102.21 103.95,-109.76 107.04,-103.48"/>
</a>
</g>
</g>
<!-- Node2 -->
<g id="Node000002" class="node">
<title>Node2</title>
<g id="a_Node000002"><a xlink:href="structvulpes_1_1timeintegration_1_1Heun.html" target="_top" xlink:title=" ">
<polygon fill="white" stroke="#666666" points="298,-126 167,-126 167,-96 298,-96 298,-126"/>
<text text-anchor="start" x="175" y="-114" font-family="Helvetica,sans-Serif" font-size="10.00">vulpes::timeintegration</text>
<text text-anchor="middle" x="232.5" y="-103" font-family="Helvetica,sans-Serif" font-size="10.00">::Heun</text>
</a>
</g>
</g>
<!-- Node0&#45;&gt;Node2 -->
<g id="edge87_Node000000_Node000002" class="edge">
<title>Node0&#45;&gt;Node2</title>
<g id="a_edge87_Node000000_Node000002"><a xlink:title=" ">
<path fill="none" stroke="#63b8ff" d="M141.24,-97.87C149.82,-99.12 158.52,-100.38 166.95,-101.61"/>
<polygon fill="#63b8ff" stroke="#63b8ff" points="141.64,-94.39 131.24,-96.42 140.63,-101.32 141.64,-94.39"/>
</a>
</g>
</g>
<!-- Node3 -->
<g id="Node000003" class="node">
<title>Node3</title>
<g id="a_Node000003"><a xlink:href="structvulpes_1_1timeintegration_1_1MidPoint.html" target="_top" xlink:title=" ">
<polygon fill="white" stroke="#666666" points="298,-78 167,-78 167,-48 298,-48 298,-78"/>
<text text-anchor="start" x="175" y="-66" font-family="Helvetica,sans-Serif" font-size="10.00">vulpes::timeintegration</text>
<text text-anchor="middle" x="232.5" y="-55" font-family="Helvetica,sans-Serif" font-size="10.00">::MidPoint</text>
</a>
</g>
</g>
<!-- Node0&#45;&gt;Node3 -->
<g id="edge88_Node000000_Node000003" class="edge">
<title>Node0&#45;&gt;Node3</title>
<g id="a_edge88_Node000000_Node000003"><a xlink:title=" ">
<path fill="none" stroke="#63b8ff" d="M141.24,-76.13C149.82,-74.88 158.52,-73.62 166.95,-72.39"/>
<polygon fill="#63b8ff" stroke="#63b8ff" points="140.63,-72.68 131.24,-77.58 141.64,-79.61 140.63,-72.68"/>
</a>
</g>
</g>
<!-- Node4 -->
<g id="Node000004" class="node">
<title>Node4</title>
<g id="a_Node000004"><a xlink:href="structvulpes_1_1timeintegration_1_1RalstonOrder2.html" target="_top" xlink:title=" ">
<polygon fill="white" stroke="#666666" points="298,-30 167,-30 167,0 298,0 298,-30"/>
<text text-anchor="start" x="175" y="-18" font-family="Helvetica,sans-Serif" font-size="10.00">vulpes::timeintegration</text>
<text text-anchor="middle" x="232.5" y="-7" font-family="Helvetica,sans-Serif" font-size="10.00">::RalstonOrder2</text>
</a>
</g>
</g>
<!-- Node0&#45;&gt;Node4 -->
<g id="edge89_Node000000_Node000004" class="edge">
<title>Node0&#45;&gt;Node4</title>
<g id="a_edge89_Node000000_Node000004"><a xlink:title=" ">
<path fill="none" stroke="#63b8ff" d="M105.51,-67.37C123.98,-58.33 146.44,-47.71 167,-39 174.15,-35.97 181.83,-32.93 189.3,-30.08"/>
<polygon fill="#63b8ff" stroke="#63b8ff" points="103.95,-64.24 96.52,-71.79 107.04,-70.52 103.95,-64.24"/>
</a>
</g>
</g>
</g>
</svg>
