<?xml version="1.0" encoding="UTF-8" standalone="no"?>
<!DOCTYPE svg PUBLIC "-//W3C//DTD SVG 1.1//EN"
 "http://www.w3.org/Graphics/SVG/1.1/DTD/svg11.dtd">
<!-- Generated by graphviz version 2.42.4 (0)
 -->
<!-- Title: Graphical Class Hierarchy Pages: 1 -->
<svg width="315pt" height="341pt"
 viewBox="0.00 0.00 315.00 341.00" xmlns="http://www.w3.org/2000/svg" xmlns:xlink="http://www.w3.org/1999/xlink">
<g id="graph0" class="graph" transform="scale(1 1) rotate(0) translate(4 337)">
<title>Graphical Class Hierarchy</title>
<!-- Node0 -->
<g id="Node000000" class="node">
<title>Node0</title>
<g id="a_Node000000"><a xlink:title=" ">
<polygon fill="#e0e0e0" stroke="#999999" points="84,-148 0,-148 0,-129 84,-129 84,-148"/>
<text text-anchor="middle" x="42" y="-136" font-family="Helvetica,sans-Serif" font-size="10.00">std::true_type</text>
</a>
</g>
</g>
<!-- Node1 -->
<g id="Node000001" class="node">
<title>Node1</title>
<g id="a_Node000001"><a xlink:href="structvulpes_1_1assemble_1_1internal_1_1is__tuple_3_01std_1_1tuple_3_01Args_8_8_8_01_4_01_4.html" target="_top" xlink:title=" ">
<polygon fill="white" stroke="#666666" points="286.5,-333 140.5,-333 140.5,-292 286.5,-292 286.5,-333"/>
<text text-anchor="start" x="148.5" y="-321" font-family="Helvetica,sans-Serif" font-size="10.00">vulpes::assemble::internal</text>
<text text-anchor="start" x="148.5" y="-310" font-family="Helvetica,sans-Serif" font-size="10.00">::is_tuple&lt; std::tuple&lt;</text>
<text text-anchor="middle" x="213.5" y="-299" font-family="Helvetica,sans-Serif" font-size="10.00"> Args... &gt; &gt;</text>
</a>
</g>
</g>
<!-- Node0&#45;&gt;Node1 -->
<g id="edge18_Node000000_Node000001" class="edge">
<title>Node0&#45;&gt;Node1</title>
<g id="a_edge18_Node000000_Node000001"><a xlink:title=" ">
<path fill="none" stroke="#63b8ff" d="M48.3,-158.14C57.63,-189.05 79.91,-248.96 120,-282.5 126.09,-287.59 133.05,-291.82 140.38,-295.34"/>
<polygon fill="#63b8ff" stroke="#63b8ff" points="51.56,-156.82 45.44,-148.17 44.83,-158.75 51.56,-156.82"/>
</a>
</g>
</g>
<!-- Node2 -->
<g id="Node000002" class="node">
<title>Node2</title>
<g id="a_Node000002"><a xlink:href="structvulpes_1_1assemble_1_1internal_1_1is__tuple__of__fe__expr__pointers_3_01std_1_1tuple_3_01A3f1a4bf116d637271183cda44664ad7a.html" target="_top" xlink:title=" ">
<polygon fill="white" stroke="#666666" points="307,-273.5 120,-273.5 120,-177.5 307,-177.5 307,-273.5"/>
<text text-anchor="start" x="128" y="-261.5" font-family="Helvetica,sans-Serif" font-size="10.00">vulpes::assemble::internal</text>
<text text-anchor="start" x="128" y="-250.5" font-family="Helvetica,sans-Serif" font-size="10.00">::is_tuple_of_fe_expr_pointers</text>
<text text-anchor="start" x="128" y="-239.5" font-family="Helvetica,sans-Serif" font-size="10.00">&lt; std::tuple&lt; Args... &gt;, std</text>
<text text-anchor="start" x="128" y="-228.5" font-family="Helvetica,sans-Serif" font-size="10.00">::enable_if_t&lt;(std::conjunction</text>
<text text-anchor="start" x="128" y="-217.5" font-family="Helvetica,sans-Serif" font-size="10.00">_v&lt; std::is_pointer&lt; Args &gt;...</text>
<text text-anchor="start" x="128" y="-206.5" font-family="Helvetica,sans-Serif" font-size="10.00"> &gt;) &amp;&amp;(std::conjunction_v&lt; is_fe</text>
<text text-anchor="start" x="128" y="-195.5" font-family="Helvetica,sans-Serif" font-size="10.00">_expression_derived&lt; std::remove</text>
<text text-anchor="middle" x="213.5" y="-184.5" font-family="Helvetica,sans-Serif" font-size="10.00">_pointer_t&lt; Args &gt; &gt;... &gt;)&gt; &gt;</text>
</a>
</g>
</g>
<!-- Node0&#45;&gt;Node2 -->
<g id="edge19_Node000000_Node000002" class="edge">
<title>Node0&#45;&gt;Node2</title>
<g id="a_edge19_Node000000_Node000002"><a xlink:title=" ">
<path fill="none" stroke="#63b8ff" d="M71.06,-152.9C84.73,-159.92 102.04,-168.8 119.82,-177.93"/>
<polygon fill="#63b8ff" stroke="#63b8ff" points="72.28,-149.6 61.79,-148.14 69.09,-155.82 72.28,-149.6"/>
</a>
</g>
</g>
<!-- Node3 -->
<g id="Node000003" class="node">
<title>Node3</title>
<g id="a_Node000003"><a xlink:href="structvulpes_1_1vvutils_1_1internal_1_1is__printable__container_3_01std_1_1array_3_01T_00_01N_01_4_01_4.html" target="_top" xlink:title=" ">
<polygon fill="white" stroke="#666666" points="279,-159 148,-159 148,-118 279,-118 279,-159"/>
<text text-anchor="start" x="156" y="-147" font-family="Helvetica,sans-Serif" font-size="10.00">vulpes::vvutils::internal</text>
<text text-anchor="start" x="156" y="-136" font-family="Helvetica,sans-Serif" font-size="10.00">::is_printable_container</text>
<text text-anchor="middle" x="213.5" y="-125" font-family="Helvetica,sans-Serif" font-size="10.00">&lt; std::array&lt; T, N &gt; &gt;</text>
</a>
</g>
</g>
<!-- Node0&#45;&gt;Node3 -->
<g id="edge20_Node000000_Node000003" class="edge">
<title>Node0&#45;&gt;Node3</title>
<g id="a_edge20_Node000000_Node000003"><a xlink:title=" ">
<path fill="none" stroke="#63b8ff" d="M94.21,-138.5C111.05,-138.5 130,-138.5 147.71,-138.5"/>
<polygon fill="#63b8ff" stroke="#63b8ff" points="94.03,-135 84.03,-138.5 94.03,-142 94.03,-135"/>
</a>
</g>
</g>
<!-- Node4 -->
<g id="Node000004" class="node">
<title>Node4</title>
<g id="a_Node000004"><a xlink:href="structvulpes_1_1vvutils_1_1internal_1_1is__printable__container_3_01std_1_1set_3_01Args_8_8_8_01_4_01_4.html" target="_top" xlink:title=" ">
<polygon fill="white" stroke="#666666" points="279,-100 148,-100 148,-59 279,-59 279,-100"/>
<text text-anchor="start" x="156" y="-88" font-family="Helvetica,sans-Serif" font-size="10.00">vulpes::vvutils::internal</text>
<text text-anchor="start" x="156" y="-77" font-family="Helvetica,sans-Serif" font-size="10.00">::is_printable_container</text>
<text text-anchor="middle" x="213.5" y="-66" font-family="Helvetica,sans-Serif" font-size="10.00">&lt; std::set&lt; Args... &gt; &gt;</text>
</a>
</g>
</g>
<!-- Node0&#45;&gt;Node4 -->
<g id="edge21_Node000000_Node000004" class="edge">
<title>Node0&#45;&gt;Node4</title>
<g id="a_edge21_Node000000_Node000004"><a xlink:title=" ">
<path fill="none" stroke="#63b8ff" d="M77.22,-125.22C90.53,-120.16 105.93,-114.43 120,-109.5 128.92,-106.37 138.37,-103.18 147.68,-100.1"/>
<polygon fill="#63b8ff" stroke="#63b8ff" points="75.6,-122.09 67.51,-128.93 78.11,-128.63 75.6,-122.09"/>
</a>
</g>
</g>
<!-- Node5 -->
<g id="Node000005" class="node">
<title>Node5</title>
<g id="a_Node000005"><a xlink:href="structvulpes_1_1vvutils_1_1internal_1_1is__printable__container_3_01std_1_1vector_3_01Args_8_8_8_01_4_01_4.html" target="_top" xlink:title=" ">
<polygon fill="white" stroke="#666666" points="285.5,-41 141.5,-41 141.5,0 285.5,0 285.5,-41"/>
<text text-anchor="start" x="149.5" y="-29" font-family="Helvetica,sans-Serif" font-size="10.00">vulpes::vvutils::internal</text>
<text text-anchor="start" x="149.5" y="-18" font-family="Helvetica,sans-Serif" font-size="10.00">::is_printable_container</text>
<text text-anchor="middle" x="213.5" y="-7" font-family="Helvetica,sans-Serif" font-size="10.00">&lt; std::vector&lt; Args... &gt; &gt;</text>
</a>
</g>
</g>
<!-- Node0&#45;&gt;Node5 -->
<g id="edge22_Node000000_Node000005" class="edge">
<title>Node0&#45;&gt;Node5</title>
<g id="a_edge22_Node000000_Node000005"><a xlink:title=" ">
<path fill="none" stroke="#63b8ff" d="M54.49,-120.31C67.91,-100.45 91.91,-69.02 120,-50.5 126.62,-46.13 133.94,-42.36 141.46,-39.11"/>
<polygon fill="#63b8ff" stroke="#63b8ff" points="51.49,-118.49 48.93,-128.77 57.34,-122.33 51.49,-118.49"/>
</a>
</g>
</g>
</g>
</svg>
