<?xml version="1.0" encoding="UTF-8" standalone="no"?>
<!DOCTYPE svg PUBLIC "-//W3C//DTD SVG 1.1//EN"
 "http://www.w3.org/Graphics/SVG/1.1/DTD/svg11.dtd">
<!-- Generated by graphviz version 12.2.1 (20241206.2353)
 -->
<!-- Title: /Users/ilariomazzieri/Desktop/vulpes/vulpes/utils/io.hpp Pages: 1 -->
<!--zoomable 393 -->

<svg id="main" version="1.1" xmlns="http://www.w3.org/2000/svg" xmlns:xlink="http://www.w3.org/1999/xlink" xml:space="preserve" onload="init(evt)">
<style type="text/css"><![CDATA[
.node, .edge {opacity: 0.7;}
.node.selected, .edge.selected {opacity: 1;}
.edge:hover path { stroke: red; }
.edge:hover polygon { stroke: red; fill: red; }
]]></style>

<defs>
  <circle id="rim" cx="0" cy="0" r="7"/>
  <circle id="rim2" cx="0" cy="0" r="3.5"/>
  <g id="zoomPlus">
    <use xlink:href="#rim" fill="#404040"><set attributeName="fill" to="#808080" begin="zoomplus.mouseover" end="zoomplus.mouseout"/></use>
    <path d="M-4,0h8M0,-4v8" fill="none" stroke="white" stroke-width="1.5" pointer-events="none"/>
  </g>
  <g id="zoomMin">
    <use xlink:href="#rim" fill="#404040"><set attributeName="fill" to="#808080" begin="zoomminus.mouseover" end="zoomminus.mouseout"/></use>
    <path d="M-4,0h8" fill="none" stroke="white" stroke-width="1.5" pointer-events="none"/>
  </g>
  <g id="arrowUp" transform="translate(30 24)">
    <use xlink:href="#rim"/>
    <path pointer-events="none" fill="none" stroke="white" stroke-width="1.5" d="M0,-3.0v7 M-2.5,-0.5L0,-3.0L2.5,-0.5"/>
  </g>
  <g id="arrowRight" transform="rotate(90) translate(36 -43)">
    <use xlink:href="#rim"/>
    <path pointer-events="none" fill="none" stroke="white" stroke-width="1.5" d="M0,-3.0v7 M-2.5,-0.5L0,-3.0L2.5,-0.5"/>
  </g>
  <g id="arrowDown" transform="rotate(180) translate(-30 -48)">
    <use xlink:href="#rim"/>
    <path pointer-events="none" fill="none" stroke="white" stroke-width="1.5" d="M0,-3.0v7 M-2.5,-0.5L0,-3.0L2.5,-0.5"/>
  </g>
  <g id="arrowLeft" transform="rotate(270) translate(-36 17)">
    <use xlink:href="#rim"/>
    <path pointer-events="none" fill="none" stroke="white" stroke-width="1.5" d="M0,-3.0v7 M-2.5,-0.5L0,-3.0L2.5,-0.5"/>
  </g>
  <g id="resetDef">
    <use xlink:href="#rim2" fill="#404040"><set attributeName="fill" to="#808080" begin="reset.mouseover" end="reset.mouseout"/></use>
  </g>
</defs>
<script type="application/ecmascript">
var viewWidth = 1620;
var viewHeight = 393;
var sectionId = 'dynsection-0';
</script>
<script type="application/ecmascript" xlink:href="svg.min.js"/>
<svg id="graph" class="graph">
<g id="viewport">
<title>/Users/ilariomazzieri/Desktop/vulpes/vulpes/utils/io.hpp</title>
<!-- Node1 -->
<g id="Node000001" class="node">
<title>Node1</title>
<g id="a_Node000001"><a xlink:title=" ">
<polygon fill="#999999" stroke="#666666" points="323.88,-384.5 205.12,-384.5 205.12,-342.75 323.88,-342.75 323.88,-384.5"/>
<text text-anchor="start" x="213.12" y="-371" font-family="Helvetica,sans-Serif" font-size="10.00">/Users/ilariomazzieri</text>
<text text-anchor="start" x="213.12" y="-359.75" font-family="Helvetica,sans-Serif" font-size="10.00">/Desktop/vulpes/vulpes</text>
<text text-anchor="middle" x="264.5" y="-348.5" font-family="Helvetica,sans-Serif" font-size="10.00">/utils/io.hpp</text>
</a>
</g>
</g>
<!-- Node2 -->
<g id="Node000002" class="node">
<title>Node2</title>
<g id="a_Node000002"><a xlink:title=" ">
<polygon fill="#e0e0e0" stroke="#999999" points="49,-306.75 0,-306.75 0,-287.5 49,-287.5 49,-306.75"/>
<text text-anchor="middle" x="24.5" y="-293.25" font-family="Helvetica,sans-Serif" font-size="10.00">fstream</text>
</a>
</g>
</g>
<!-- Node1&#45;&gt;Node2 -->
<g id="edge1_Node000001_Node000002" class="edge">
<title>Node1&#45;&gt;Node2</title>
<g id="a_edge1_Node000001_Node000002"><a xlink:title=" ">
<path fill="none" stroke="#63b8ff" d="M204.87,-346.6C159.45,-334.39 98.43,-317.99 60.29,-307.74"/>
<polygon fill="#63b8ff" stroke="#63b8ff" points="61.26,-304.38 50.7,-305.16 59.44,-311.14 61.26,-304.38"/>
</a>
</g>
</g>
<!-- Node3 -->
<g id="Node000003" class="node">
<title>Node3</title>
<g id="a_Node000003"><a xlink:title=" ">
<polygon fill="#e0e0e0" stroke="#999999" points="118.12,-306.75 66.88,-306.75 66.88,-287.5 118.12,-287.5 118.12,-306.75"/>
<text text-anchor="middle" x="92.5" y="-293.25" font-family="Helvetica,sans-Serif" font-size="10.00">sstream</text>
</a>
</g>
</g>
<!-- Node1&#45;&gt;Node3 -->
<g id="edge2_Node000001_Node000003" class="edge">
<title>Node1&#45;&gt;Node3</title>
<g id="a_edge2_Node000001_Node000003"><a xlink:title=" ">
<path fill="none" stroke="#63b8ff" d="M210.55,-342.39C183.33,-332.19 151.12,-320.11 127.23,-311.15"/>
<polygon fill="#63b8ff" stroke="#63b8ff" points="128.56,-307.91 117.97,-307.68 126.1,-314.46 128.56,-307.91"/>
</a>
</g>
</g>
<!-- Node4 -->
<g id="Node000004" class="node">
<title>Node4</title>
<g id="a_Node000004"><a xlink:title=" ">
<polygon fill="#e0e0e0" stroke="#999999" points="194.88,-306.75 136.12,-306.75 136.12,-287.5 194.88,-287.5 194.88,-306.75"/>
<text text-anchor="middle" x="165.5" y="-293.25" font-family="Helvetica,sans-Serif" font-size="10.00">stdexcept</text>
</a>
</g>
</g>
<!-- Node1&#45;&gt;Node4 -->
<g id="edge3_Node000001_Node000004" class="edge">
<title>Node1&#45;&gt;Node4</title>
<g id="a_edge3_Node000001_Node000004"><a xlink:title=" ">
<path fill="none" stroke="#63b8ff" d="M233.45,-342.39C218.99,-332.97 202.08,-321.96 188.74,-313.27"/>
<polygon fill="#63b8ff" stroke="#63b8ff" points="190.9,-310.5 180.61,-307.97 187.08,-316.36 190.9,-310.5"/>
</a>
</g>
</g>
<!-- Node5 -->
<g id="Node000005" class="node">
<title>Node5</title>
<g id="a_Node000005"><a xlink:title=" ">
<polygon fill="#e0e0e0" stroke="#999999" points="1582.5,-19.25 1542.5,-19.25 1542.5,0 1582.5,0 1582.5,-19.25"/>
<text text-anchor="middle" x="1562.5" y="-5.75" font-family="Helvetica,sans-Serif" font-size="10.00">string</text>
</a>
</g>
</g>
<!-- Node1&#45;&gt;Node5 -->
<g id="edge4_Node000001_Node000005" class="edge">
<title>Node1&#45;&gt;Node5</title>
<g id="a_edge4_Node000001_Node000005"><a xlink:title=" ">
<path fill="none" stroke="#63b8ff" d="M324.15,-362.28C482,-360.74 923.49,-352.34 1287.5,-306.75 1433.13,-288.51 1611.5,-389.65 1611.5,-242.88 1611.5,-242.88 1611.5,-242.88 1611.5,-130.38 1611.5,-92.17 1589.88,-51.88 1575.36,-29.13"/>
<polygon fill="#63b8ff" stroke="#63b8ff" points="1578.39,-27.38 1569.95,-20.98 1572.56,-31.25 1578.39,-27.38"/>
</a>
</g>
</g>
<!-- Node6 -->
<g id="Node000006" class="node">
<title>Node6</title>
<g id="a_Node000006"><a xlink:title=" ">
<polygon fill="#e0e0e0" stroke="#999999" points="367,-19.25 324,-19.25 324,0 367,0 367,-19.25"/>
<text text-anchor="middle" x="345.5" y="-5.75" font-family="Helvetica,sans-Serif" font-size="10.00">vector</text>
</a>
</g>
</g>
<!-- Node1&#45;&gt;Node6 -->
<g id="edge5_Node000001_Node000006" class="edge">
<title>Node1&#45;&gt;Node6</title>
<g id="a_edge5_Node000001_Node000006"><a xlink:title=" ">
<path fill="none" stroke="#63b8ff" d="M263.87,-342.58C263.01,-292.05 265.32,-156.31 309.5,-55.25 313.91,-45.15 321.24,-35.45 328.14,-27.68"/>
<polygon fill="#63b8ff" stroke="#63b8ff" points="330.46,-30.31 334.79,-20.64 325.38,-25.5 330.46,-30.31"/>
</a>
</g>
</g>
<!-- Node7 -->
<g id="Node000007" class="node">
<title>Node7</title>
<g id="a_Node000007"><a xlink:title=" ">
<polygon fill="#e0e0e0" stroke="#999999" points="483.62,-80.12 411.38,-80.12 411.38,-60.88 483.62,-60.88 483.62,-80.12"/>
<text text-anchor="middle" x="447.5" y="-66.62" font-family="Helvetica,sans-Serif" font-size="10.00">Eigen/Dense</text>
</a>
</g>
</g>
<!-- Node1&#45;&gt;Node7 -->
<g id="edge6_Node000001_Node000007" class="edge">
<title>Node1&#45;&gt;Node7</title>
<g id="a_edge6_Node000001_Node000007"><a xlink:title=" ">
<path fill="none" stroke="#63b8ff" d="M276.48,-342.64C289.2,-319.48 307.5,-279.76 307.5,-242.88 307.5,-242.88 307.5,-242.88 307.5,-185.62 307.5,-133.52 366.47,-100.98 407.87,-84.55"/>
<polygon fill="#63b8ff" stroke="#63b8ff" points="408.96,-87.88 417.08,-81.07 406.48,-81.33 408.96,-87.88"/>
</a>
</g>
</g>
<!-- Node8 -->
<g id="Node000008" class="node">
<title>Node8</title>
<g id="a_Node000008"><a xlink:href="sparse__matrix_8hpp.html" target="_top" xlink:title=" ">
<polygon fill="white" stroke="#666666" points="1278.62,-306.75 1140.38,-306.75 1140.38,-287.5 1278.62,-287.5 1278.62,-306.75"/>
<text text-anchor="middle" x="1209.5" y="-293.25" font-family="Helvetica,sans-Serif" font-size="10.00">vulpes/la/sparse_matrix.hpp</text>
</a>
</g>
</g>
<!-- Node1&#45;&gt;Node8 -->
<g id="edge7_Node000001_Node000008" class="edge">
<title>Node1&#45;&gt;Node8</title>
<g id="a_edge7_Node000001_Node000008"><a xlink:title=" ">
<path fill="none" stroke="#63b8ff" d="M324.33,-358.54C487.96,-347.37 943.04,-316.31 1128.88,-303.63"/>
<polygon fill="#63b8ff" stroke="#63b8ff" points="1128.95,-307.13 1138.69,-302.96 1128.47,-300.15 1128.95,-307.13"/>
</a>
</g>
</g>
<!-- Node30 -->
<g id="Node000030" class="node">
<title>Node30</title>
<g id="a_Node000030"><a xlink:href="vector_8hpp.html" target="_top" xlink:title=" ">
<polygon fill="white" stroke="#666666" points="1069,-251.5 966,-251.5 966,-232.25 1069,-232.25 1069,-251.5"/>
<text text-anchor="middle" x="1017.5" y="-238" font-family="Helvetica,sans-Serif" font-size="10.00">vulpes/la/vector.hpp</text>
</a>
</g>
</g>
<!-- Node1&#45;&gt;Node30 -->
<g id="edge69_Node000001_Node000030" class="edge">
<title>Node1&#45;&gt;Node30</title>
<g id="a_edge69_Node000001_Node000030"><a xlink:title=" ">
<path fill="none" stroke="#63b8ff" d="M324.22,-353.13C464.09,-330.88 811.88,-275.57 954.73,-252.86"/>
<polygon fill="#63b8ff" stroke="#63b8ff" points="955.06,-256.35 964.38,-251.32 953.96,-249.44 955.06,-256.35"/>
</a>
</g>
</g>
<!-- Node8&#45;&gt;Node5 -->
<g id="edge13_Node000008_Node000005" class="edge">
<title>Node8&#45;&gt;Node5</title>
<g id="a_edge13_Node000008_Node000005"><a xlink:title=" ">
<path fill="none" stroke="#63b8ff" d="M1278.82,-289.7C1384.43,-277.96 1573.5,-248.46 1573.5,-187.62 1573.5,-187.62 1573.5,-187.62 1573.5,-130.38 1573.5,-95.32 1568.77,-54.73 1565.51,-30.95"/>
<polygon fill="#63b8ff" stroke="#63b8ff" points="1568.98,-30.52 1564.11,-21.11 1562.05,-31.5 1568.98,-30.52"/>
</a>
</g>
</g>
<!-- Node8&#45;&gt;Node6 -->
<g id="edge15_Node000008_Node000006" class="edge">
<title>Node8&#45;&gt;Node6</title>
<g id="a_edge15_Node000008_Node000006"><a xlink:title=" ">
<path fill="none" stroke="#63b8ff" d="M1140.06,-293.23C941.72,-284.28 383.22,-254.13 326.5,-196.25 282.32,-151.17 316.4,-67.18 335.2,-29.63"/>
<polygon fill="#63b8ff" stroke="#63b8ff" points="338.23,-31.38 339.74,-20.9 332.02,-28.15 338.23,-31.38"/>
</a>
</g>
</g>
<!-- Node9 -->
<g id="Node000009" class="node">
<title>Node9</title>
<g id="a_Node000009"><a xlink:title=" ">
<polygon fill="#e0e0e0" stroke="#999999" points="1377.88,-251.5 1313.12,-251.5 1313.12,-232.25 1377.88,-232.25 1377.88,-251.5"/>
<text text-anchor="middle" x="1345.5" y="-238" font-family="Helvetica,sans-Serif" font-size="10.00">petscmat.h</text>
</a>
</g>
</g>
<!-- Node8&#45;&gt;Node9 -->
<g id="edge8_Node000008_Node000009" class="edge">
<title>Node8&#45;&gt;Node9</title>
<g id="a_edge8_Node000008_Node000009"><a xlink:title=" ">
<path fill="none" stroke="#63b8ff" d="M1232.57,-287.09C1254.26,-278.6 1286.98,-265.79 1311.63,-256.14"/>
<polygon fill="#63b8ff" stroke="#63b8ff" points="1312.87,-259.41 1320.91,-252.5 1310.32,-252.89 1312.87,-259.41"/>
</a>
</g>
</g>
<!-- Node10 -->
<g id="Node000010" class="node">
<title>Node10</title>
<g id="a_Node000010"><a xlink:title=" ">
<polygon fill="#e0e0e0" stroke="#999999" points="1477.5,-141 1413.5,-141 1413.5,-121.75 1477.5,-121.75 1477.5,-141"/>
<text text-anchor="middle" x="1445.5" y="-127.5" font-family="Helvetica,sans-Serif" font-size="10.00">petscsys.h</text>
</a>
</g>
</g>
<!-- Node8&#45;&gt;Node10 -->
<g id="edge9_Node000008_Node000010" class="edge">
<title>Node8&#45;&gt;Node10</title>
<g id="a_edge9_Node000008_Node000010"><a xlink:title=" ">
<path fill="none" stroke="#63b8ff" d="M1276.04,-287.03C1317.59,-280.1 1371.7,-268.75 1417.5,-251.5 1464.65,-233.74 1490.99,-239.7 1516.5,-196.25 1528.79,-175.33 1503.82,-157.45 1480.18,-145.98"/>
<polygon fill="#63b8ff" stroke="#63b8ff" points="1481.83,-142.88 1471.28,-141.94 1478.94,-149.26 1481.83,-142.88"/>
</a>
</g>
</g>
<!-- Node11 -->
<g id="Node000011" class="node">
<title>Node11</title>
<g id="a_Node000011"><a xlink:title=" ">
<polygon fill="#e0e0e0" stroke="#999999" points="293.62,-19.25 245.38,-19.25 245.38,0 293.62,0 293.62,-19.25"/>
<text text-anchor="middle" x="269.5" y="-5.75" font-family="Helvetica,sans-Serif" font-size="10.00">cstddef</text>
</a>
</g>
</g>
<!-- Node8&#45;&gt;Node11 -->
<g id="edge10_Node000008_Node000011" class="edge">
<title>Node8&#45;&gt;Node11</title>
<g id="a_edge10_Node000008_Node000011"><a xlink:title=" ">
<path fill="none" stroke="#63b8ff" d="M1139.95,-296.54C899.42,-297.05 117.5,-290.8 117.5,-187.62 117.5,-187.62 117.5,-187.62 117.5,-130.38 117.5,-71.22 189.41,-36.79 234.31,-21.06"/>
<polygon fill="#63b8ff" stroke="#63b8ff" points="235.27,-24.42 243.64,-17.93 233.05,-17.79 235.27,-24.42"/>
</a>
</g>
</g>
<!-- Node12 -->
<g id="Node000012" class="node">
<title>Node12</title>
<g id="a_Node000012"><a xlink:title=" ">
<polygon fill="#e0e0e0" stroke="#999999" points="1524.25,-19.25 1470.75,-19.25 1470.75,0 1524.25,0 1524.25,-19.25"/>
<text text-anchor="middle" x="1497.5" y="-5.75" font-family="Helvetica,sans-Serif" font-size="10.00">iostream</text>
</a>
</g>
</g>
<!-- Node8&#45;&gt;Node12 -->
<g id="edge11_Node000008_Node000012" class="edge">
<title>Node8&#45;&gt;Node12</title>
<g id="a_edge11_Node000008_Node000012"><a xlink:title=" ">
<path fill="none" stroke="#63b8ff" d="M1211.95,-287.1C1218.08,-265.82 1235.86,-211.73 1266.5,-177 1316.13,-120.75 1348.19,-130.37 1408.5,-85.75 1425.36,-73.28 1428.48,-68.78 1444.5,-55.25 1455.64,-45.84 1468.12,-35.33 1478.17,-26.88"/>
<polygon fill="#63b8ff" stroke="#63b8ff" points="1480.37,-29.6 1485.78,-20.48 1475.87,-24.24 1480.37,-29.6"/>
</a>
</g>
</g>
<!-- Node13 -->
<g id="Node000013" class="node">
<title>Node13</title>
<g id="a_Node000013"><a xlink:title=" ">
<polygon fill="#e0e0e0" stroke="#999999" points="1507.12,-196.25 1455.88,-196.25 1455.88,-177 1507.12,-177 1507.12,-196.25"/>
<text text-anchor="middle" x="1481.5" y="-182.75" font-family="Helvetica,sans-Serif" font-size="10.00">memory</text>
</a>
</g>
</g>
<!-- Node8&#45;&gt;Node13 -->
<g id="edge12_Node000008_Node000013" class="edge">
<title>Node8&#45;&gt;Node13</title>
<g id="a_edge12_Node000008_Node000013"><a xlink:title=" ">
<path fill="none" stroke="#63b8ff" d="M1266.16,-287.01C1301.73,-280.04 1348.01,-268.67 1386.5,-251.5 1414.66,-238.94 1443.57,-218.15 1461.99,-203.71"/>
<polygon fill="#63b8ff" stroke="#63b8ff" points="1464.03,-206.56 1469.65,-197.58 1459.66,-201.1 1464.03,-206.56"/>
</a>
</g>
</g>
<!-- Node14 -->
<g id="Node000014" class="node">
<title>Node14</title>
<g id="a_Node000014"><a xlink:title=" ">
<polygon fill="#e0e0e0" stroke="#999999" points="1105.12,-19.25 1065.88,-19.25 1065.88,0 1105.12,0 1105.12,-19.25"/>
<text text-anchor="middle" x="1085.5" y="-5.75" font-family="Helvetica,sans-Serif" font-size="10.00">utility</text>
</a>
</g>
</g>
<!-- Node8&#45;&gt;Node14 -->
<g id="edge14_Node000008_Node000014" class="edge">
<title>Node8&#45;&gt;Node14</title>
<g id="a_edge14_Node000008_Node000014"><a xlink:title=" ">
<path fill="none" stroke="#63b8ff" d="M1202.58,-287.25C1185.09,-264.39 1138.76,-201.02 1114.5,-141 1099.41,-103.67 1091.45,-56.99 1087.89,-30.83"/>
<polygon fill="#63b8ff" stroke="#63b8ff" points="1091.37,-30.45 1086.64,-20.97 1084.42,-31.33 1091.37,-30.45"/>
</a>
</g>
</g>
<!-- Node15 -->
<g id="Node000015" class="node">
<title>Node15</title>
<g id="a_Node000015"><a xlink:href="petsc__utils_8hpp.html" target="_top" xlink:title=" ">
<polygon fill="white" stroke="#666666" points="1399.5,-196.25 1275.5,-196.25 1275.5,-177 1399.5,-177 1399.5,-196.25"/>
<text text-anchor="middle" x="1337.5" y="-182.75" font-family="Helvetica,sans-Serif" font-size="10.00">vulpes/la/petsc_utils.hpp</text>
</a>
</g>
</g>
<!-- Node8&#45;&gt;Node15 -->
<g id="edge16_Node000008_Node000015" class="edge">
<title>Node8&#45;&gt;Node15</title>
<g id="a_edge16_Node000008_Node000015"><a xlink:title=" ">
<path fill="none" stroke="#63b8ff" d="M1219.97,-287.25C1241.45,-269.05 1290.73,-227.27 1318.17,-204.01"/>
<polygon fill="#63b8ff" stroke="#63b8ff" points="1320.36,-206.74 1325.73,-197.61 1315.83,-201.4 1320.36,-206.74"/>
</a>
</g>
</g>
<!-- Node16 -->
<g id="Node000016" class="node">
<title>Node16</title>
<g id="a_Node000016"><a xlink:href="mpi__wrappers_8hpp.html" target="_top" xlink:title=" ">
<polygon fill="white" stroke="#666666" points="1271.5,-141 1123.5,-141 1123.5,-121.75 1271.5,-121.75 1271.5,-141"/>
<text text-anchor="middle" x="1197.5" y="-127.5" font-family="Helvetica,sans-Serif" font-size="10.00">vulpes/utils/mpi_wrappers.hpp</text>
</a>
</g>
</g>
<!-- Node8&#45;&gt;Node16 -->
<g id="edge68_Node000008_Node000016" class="edge">
<title>Node8&#45;&gt;Node16</title>
<g id="a_edge68_Node000008_Node000016"><a xlink:title=" ">
<path fill="none" stroke="#63b8ff" d="M1208.85,-287.32C1207,-262 1201.61,-188.5 1198.98,-152.59"/>
<polygon fill="#63b8ff" stroke="#63b8ff" points="1202.48,-152.45 1198.26,-142.73 1195.5,-152.96 1202.48,-152.45"/>
</a>
</g>
</g>
<!-- Node8&#45;&gt;Node30 -->
<g id="edge45_Node000008_Node000030" class="edge">
<title>Node8&#45;&gt;Node30</title>
<g id="a_edge45_Node000008_Node000030"><a xlink:title=" ">
<path fill="none" stroke="#63b8ff" d="M1176.93,-287.09C1145.07,-278.26 1096.34,-264.74 1061.14,-254.98"/>
<polygon fill="#63b8ff" stroke="#63b8ff" points="1062.26,-251.66 1051.69,-252.36 1060.39,-258.4 1062.26,-251.66"/>
</a>
</g>
</g>
<!-- Node32 -->
<g id="Node000032" class="node">
<title>Node32</title>
<g id="a_Node000032"><a xlink:href="qrule_8hpp.html" target="_top" xlink:title=" ">
<polygon fill="white" stroke="#666666" points="471.5,-196.25 335.5,-196.25 335.5,-177 471.5,-177 471.5,-196.25"/>
<text text-anchor="middle" x="403.5" y="-182.75" font-family="Helvetica,sans-Serif" font-size="10.00">vulpes/quadrature/qrule.hpp</text>
</a>
</g>
</g>
<!-- Node8&#45;&gt;Node32 -->
<g id="edge57_Node000008_Node000032" class="edge">
<title>Node8&#45;&gt;Node32</title>
<g id="a_edge57_Node000008_Node000032"><a xlink:title=" ">
<path fill="none" stroke="#63b8ff" d="M1141.82,-287.01C993.43,-267.04 640.12,-219.48 482.16,-198.21"/>
<polygon fill="#63b8ff" stroke="#63b8ff" points="483.01,-194.8 472.63,-196.93 482.08,-201.73 483.01,-194.8"/>
</a>
</g>
</g>
<!-- Node15&#45;&gt;Node5 -->
<g id="edge18_Node000015_Node000005" class="edge">
<title>Node15&#45;&gt;Node5</title>
<g id="a_edge18_Node000015_Node000005"><a xlink:title=" ">
<path fill="none" stroke="#63b8ff" d="M1346.31,-176.62C1358.86,-163.96 1382.75,-140.33 1404.5,-121.75 1441.5,-90.13 1451.52,-83.01 1491.5,-55.25 1506.46,-44.86 1523.76,-33.97 1537.53,-25.55"/>
<polygon fill="#63b8ff" stroke="#63b8ff" points="1539.25,-28.6 1545.99,-20.42 1535.62,-22.61 1539.25,-28.6"/>
</a>
</g>
</g>
<!-- Node15&#45;&gt;Node10 -->
<g id="edge17_Node000015_Node000010" class="edge">
<title>Node15&#45;&gt;Node10</title>
<g id="a_edge17_Node000015_Node000010"><a xlink:title=" ">
<path fill="none" stroke="#63b8ff" d="M1355.82,-176.59C1372.58,-168.33 1397.63,-155.98 1417,-146.43"/>
<polygon fill="#63b8ff" stroke="#63b8ff" points="1418.31,-149.68 1425.73,-142.12 1415.22,-143.4 1418.31,-149.68"/>
</a>
</g>
</g>
<!-- Node15&#45;&gt;Node16 -->
<g id="edge19_Node000015_Node000016" class="edge">
<title>Node15&#45;&gt;Node16</title>
<g id="a_edge19_Node000015_Node000016"><a xlink:title=" ">
<path fill="none" stroke="#63b8ff" d="M1313.75,-176.59C1291.33,-168.06 1257.44,-155.17 1232.03,-145.51"/>
<polygon fill="#63b8ff" stroke="#63b8ff" points="1233.37,-142.27 1222.78,-141.99 1230.88,-148.82 1233.37,-142.27"/>
</a>
</g>
</g>
<!-- Node16&#45;&gt;Node6 -->
<g id="edge24_Node000016_Node000006" class="edge">
<title>Node16&#45;&gt;Node6</title>
<g id="a_edge24_Node000016_Node000006"><a xlink:title=" ">
<path fill="none" stroke="#63b8ff" d="M1123.25,-125.73C1034.24,-119.36 890.89,-106.29 841.5,-85.75 821.18,-77.3 822.93,-63.42 802.5,-55.25 725.29,-24.36 470.4,-14.18 378.72,-11.47"/>
<polygon fill="#63b8ff" stroke="#63b8ff" points="378.99,-7.98 368.9,-11.19 378.8,-14.97 378.99,-7.98"/>
</a>
</g>
</g>
<!-- Node16&#45;&gt;Node7 -->
<g id="edge25_Node000016_Node000007" class="edge">
<title>Node16&#45;&gt;Node7</title>
<g id="a_edge25_Node000016_Node000007"><a xlink:title=" ">
<path fill="none" stroke="#63b8ff" d="M1123.24,-127.91C999.83,-123.25 744.86,-111.25 530.5,-85.75 518.96,-84.38 506.58,-82.48 495,-80.52"/>
<polygon fill="#63b8ff" stroke="#63b8ff" points="495.69,-77.09 485.23,-78.82 494.48,-83.99 495.69,-77.09"/>
</a>
</g>
</g>
<!-- Node16&#45;&gt;Node12 -->
<g id="edge23_Node000016_Node000012" class="edge">
<title>Node16&#45;&gt;Node12</title>
<g id="a_edge23_Node000016_Node000012"><a xlink:title=" ">
<path fill="none" stroke="#63b8ff" d="M1254.86,-121.26C1289.93,-114.36 1335.08,-103.06 1372.5,-85.75 1393.77,-75.91 1395.62,-67.65 1415.5,-55.25 1433.1,-44.27 1453.59,-33.12 1469.69,-24.71"/>
<polygon fill="#63b8ff" stroke="#63b8ff" points="1470.94,-28 1478.21,-20.3 1467.72,-21.79 1470.94,-28"/>
</a>
</g>
</g>
<!-- Node17 -->
<g id="Node000017" class="node">
<title>Node17</title>
<g id="a_Node000017"><a xlink:title=" ">
<polygon fill="#e0e0e0" stroke="#999999" points="1163.5,-80.12 1123.5,-80.12 1123.5,-60.88 1163.5,-60.88 1163.5,-80.12"/>
<text text-anchor="middle" x="1143.5" y="-66.62" font-family="Helvetica,sans-Serif" font-size="10.00">mpi.h</text>
</a>
</g>
</g>
<!-- Node16&#45;&gt;Node17 -->
<g id="edge20_Node000016_Node000017" class="edge">
<title>Node16&#45;&gt;Node17</title>
<g id="a_edge20_Node000016_Node000017"><a xlink:title=" ">
<path fill="none" stroke="#63b8ff" d="M1189.3,-121.43C1181.37,-112.79 1169.15,-99.46 1159.32,-88.75"/>
<polygon fill="#63b8ff" stroke="#63b8ff" points="1162.14,-86.65 1152.8,-81.64 1156.98,-91.38 1162.14,-86.65"/>
</a>
</g>
</g>
<!-- Node18 -->
<g id="Node000018" class="node">
<title>Node18</title>
<g id="a_Node000018"><a xlink:title=" ">
<polygon fill="#e0e0e0" stroke="#999999" points="1229.62,-80.12 1181.38,-80.12 1181.38,-60.88 1229.62,-60.88 1229.62,-80.12"/>
<text text-anchor="middle" x="1205.5" y="-66.62" font-family="Helvetica,sans-Serif" font-size="10.00">petsc.h</text>
</a>
</g>
</g>
<!-- Node16&#45;&gt;Node18 -->
<g id="edge21_Node000016_Node000018" class="edge">
<title>Node16&#45;&gt;Node18</title>
<g id="a_edge21_Node000016_Node000018"><a xlink:title=" ">
<path fill="none" stroke="#63b8ff" d="M1198.72,-121.43C1199.78,-113.57 1201.38,-101.82 1202.76,-91.7"/>
<polygon fill="#63b8ff" stroke="#63b8ff" points="1206.19,-92.41 1204.07,-82.03 1199.26,-91.46 1206.19,-92.41"/>
</a>
</g>
</g>
<!-- Node19 -->
<g id="Node000019" class="node">
<title>Node19</title>
<g id="a_Node000019"><a xlink:title=" ">
<polygon fill="#e0e0e0" stroke="#999999" points="840.62,-19.25 792.38,-19.25 792.38,0 840.62,0 840.62,-19.25"/>
<text text-anchor="middle" x="816.5" y="-5.75" font-family="Helvetica,sans-Serif" font-size="10.00">cassert</text>
</a>
</g>
</g>
<!-- Node16&#45;&gt;Node19 -->
<g id="edge22_Node000016_Node000019" class="edge">
<title>Node16&#45;&gt;Node19</title>
<g id="a_edge22_Node000016_Node000019"><a xlink:title=" ">
<path fill="none" stroke="#63b8ff" d="M1123.05,-126.18C1042.22,-120.55 919.19,-108.51 878.5,-85.75 855.15,-72.69 836.99,-47.09 826.51,-29.43"/>
<polygon fill="#63b8ff" stroke="#63b8ff" points="829.7,-27.96 821.75,-20.97 823.6,-31.4 829.7,-27.96"/>
</a>
</g>
</g>
<!-- Node20 -->
<g id="Node000020" class="node">
<title>Node20</title>
<g id="a_Node000020"><a xlink:href="crs__map_8hpp.html" target="_top" xlink:title=" ">
<polygon fill="white" stroke="#666666" points="991.75,-85.75 887.25,-85.75 887.25,-55.25 991.75,-55.25 991.75,-85.75"/>
<text text-anchor="start" x="895.25" y="-72.25" font-family="Helvetica,sans-Serif" font-size="10.00">vulpes/datastructure</text>
<text text-anchor="middle" x="939.5" y="-61" font-family="Helvetica,sans-Serif" font-size="10.00">/crs_map.hpp</text>
</a>
</g>
</g>
<!-- Node16&#45;&gt;Node20 -->
<g id="edge26_Node000016_Node000020" class="edge">
<title>Node16&#45;&gt;Node20</title>
<g id="a_edge26_Node000016_Node000020"><a xlink:title=" ">
<path fill="none" stroke="#63b8ff" d="M1157.75,-121.3C1116.45,-111.88 1051.19,-96.99 1002.78,-85.94"/>
<polygon fill="#63b8ff" stroke="#63b8ff" points="1003.8,-82.58 993.27,-83.77 1002.24,-89.41 1003.8,-82.58"/>
</a>
</g>
</g>
<!-- Node25 -->
<g id="Node000025" class="node">
<title>Node25</title>
<g id="a_Node000025"><a xlink:href="profiler_8hpp.html" target="_top" xlink:title=" ">
<polygon fill="white" stroke="#666666" points="1363.38,-80.12 1247.62,-80.12 1247.62,-60.88 1363.38,-60.88 1363.38,-80.12"/>
<text text-anchor="middle" x="1305.5" y="-66.62" font-family="Helvetica,sans-Serif" font-size="10.00">vulpes/utils/profiler.hpp</text>
</a>
</g>
</g>
<!-- Node16&#45;&gt;Node25 -->
<g id="edge34_Node000016_Node000025" class="edge">
<title>Node16&#45;&gt;Node25</title>
<g id="a_edge34_Node000016_Node000025"><a xlink:title=" ">
<path fill="none" stroke="#63b8ff" d="M1213.9,-121.43C1231.19,-112.01 1258.68,-97.02 1279.04,-85.93"/>
<polygon fill="#63b8ff" stroke="#63b8ff" points="1280.51,-89.11 1287.61,-81.25 1277.16,-82.96 1280.51,-89.11"/>
</a>
</g>
</g>
<!-- Node20&#45;&gt;Node6 -->
<g id="edge33_Node000020_Node000006" class="edge">
<title>Node20&#45;&gt;Node6</title>
<g id="a_edge33_Node000020_Node000006"><a xlink:title=" ">
<path fill="none" stroke="#63b8ff" d="M886.92,-61.82C870.47,-59.55 852.25,-57.16 835.5,-55.25 663.55,-35.65 456.87,-19.12 378.12,-13.08"/>
<polygon fill="#63b8ff" stroke="#63b8ff" points="378.78,-9.62 368.54,-12.35 378.24,-16.6 378.78,-9.62"/>
</a>
</g>
</g>
<!-- Node20&#45;&gt;Node14 -->
<g id="edge31_Node000020_Node000014" class="edge">
<title>Node20&#45;&gt;Node14</title>
<g id="a_edge31_Node000020_Node000014"><a xlink:title=" ">
<path fill="none" stroke="#63b8ff" d="M975.97,-54.8C1000.35,-44.96 1032.07,-32.17 1055.1,-22.89"/>
<polygon fill="#63b8ff" stroke="#63b8ff" points="1056.26,-26.19 1064.23,-19.2 1053.64,-19.7 1056.26,-26.19"/>
</a>
</g>
</g>
<!-- Node20&#45;&gt;Node19 -->
<g id="edge29_Node000020_Node000019" class="edge">
<title>Node20&#45;&gt;Node19</title>
<g id="a_edge29_Node000020_Node000019"><a xlink:title=" ">
<path fill="none" stroke="#63b8ff" d="M908.78,-54.8C889.42,-45.53 864.57,-33.63 845.54,-24.52"/>
<polygon fill="#63b8ff" stroke="#63b8ff" points="847.26,-21.47 836.73,-20.31 844.24,-27.78 847.26,-21.47"/>
</a>
</g>
</g>
<!-- Node21 -->
<g id="Node000021" class="node">
<title>Node21</title>
<g id="a_Node000021"><a xlink:title=" ">
<polygon fill="#e0e0e0" stroke="#999999" points="1047.38,-19.25 991.62,-19.25 991.62,0 1047.38,0 1047.38,-19.25"/>
<text text-anchor="middle" x="1019.5" y="-5.75" font-family="Helvetica,sans-Serif" font-size="10.00">algorithm</text>
</a>
</g>
</g>
<!-- Node20&#45;&gt;Node21 -->
<g id="edge27_Node000020_Node000021" class="edge">
<title>Node20&#45;&gt;Node21</title>
<g id="a_edge27_Node000020_Node000021"><a xlink:title=" ">
<path fill="none" stroke="#63b8ff" d="M959.28,-54.95C971.1,-46.24 986.14,-35.18 998.22,-26.28"/>
<polygon fill="#63b8ff" stroke="#63b8ff" points="999.97,-29.34 1005.95,-20.6 995.82,-23.71 999.97,-29.34"/>
</a>
</g>
</g>
<!-- Node22 -->
<g id="Node000022" class="node">
<title>Node22</title>
<g id="a_Node000022"><a xlink:title=" ">
<polygon fill="#e0e0e0" stroke="#999999" points="598.38,-19.25 560.62,-19.25 560.62,0 598.38,0 598.38,-19.25"/>
<text text-anchor="middle" x="579.5" y="-5.75" font-family="Helvetica,sans-Serif" font-size="10.00">array</text>
</a>
</g>
</g>
<!-- Node20&#45;&gt;Node22 -->
<g id="edge28_Node000020_Node000022" class="edge">
<title>Node20&#45;&gt;Node22</title>
<g id="a_edge28_Node000020_Node000022"><a xlink:title=" ">
<path fill="none" stroke="#63b8ff" d="M886.77,-60.88C810.23,-48.36 670.86,-25.57 609.67,-15.56"/>
<polygon fill="#63b8ff" stroke="#63b8ff" points="610.44,-12.14 600.01,-13.98 609.31,-19.05 610.44,-12.14"/>
</a>
</g>
</g>
<!-- Node23 -->
<g id="Node000023" class="node">
<title>Node23</title>
<g id="a_Node000023"><a xlink:title=" ">
<polygon fill="#e0e0e0" stroke="#999999" points="973.12,-19.25 921.88,-19.25 921.88,0 973.12,0 973.12,-19.25"/>
<text text-anchor="middle" x="947.5" y="-5.75" font-family="Helvetica,sans-Serif" font-size="10.00">ostream</text>
</a>
</g>
</g>
<!-- Node20&#45;&gt;Node23 -->
<g id="edge30_Node000020_Node000023" class="edge">
<title>Node20&#45;&gt;Node23</title>
<g id="a_edge30_Node000020_Node000023"><a xlink:title=" ">
<path fill="none" stroke="#63b8ff" d="M941.48,-54.95C942.46,-47.71 943.67,-38.84 944.74,-30.94"/>
<polygon fill="#63b8ff" stroke="#63b8ff" points="948.18,-31.58 946.06,-21.2 941.25,-30.64 948.18,-31.58"/>
</a>
</g>
</g>
<!-- Node24 -->
<g id="Node000024" class="node">
<title>Node24</title>
<g id="a_Node000024"><a xlink:title=" ">
<polygon fill="#e0e0e0" stroke="#999999" points="904.12,-19.25 858.88,-19.25 858.88,0 904.12,0 904.12,-19.25"/>
<text text-anchor="middle" x="881.5" y="-5.75" font-family="Helvetica,sans-Serif" font-size="10.00">variant</text>
</a>
</g>
</g>
<!-- Node20&#45;&gt;Node24 -->
<g id="edge32_Node000020_Node000024" class="edge">
<title>Node20&#45;&gt;Node24</title>
<g id="a_edge32_Node000020_Node000024"><a xlink:title=" ">
<path fill="none" stroke="#63b8ff" d="M925.16,-54.95C917.1,-46.76 906.98,-36.48 898.51,-27.89"/>
<polygon fill="#63b8ff" stroke="#63b8ff" points="901.01,-25.45 891.5,-20.78 896.03,-30.36 901.01,-25.45"/>
</a>
</g>
</g>
<!-- Node25&#45;&gt;Node5 -->
<g id="edge40_Node000025_Node000005" class="edge">
<title>Node25&#45;&gt;Node5</title>
<g id="a_edge40_Node000025_Node000005"><a xlink:title=" ">
<path fill="none" stroke="#63b8ff" d="M1351.15,-60.45C1395,-51.53 1463.33,-37.05 1531.36,-19.66"/>
<polygon fill="#63b8ff" stroke="#63b8ff" points="1532,-23.11 1540.81,-17.22 1530.25,-16.33 1532,-23.11"/>
</a>
</g>
</g>
<!-- Node25&#45;&gt;Node6 -->
<g id="edge43_Node000025_Node000006" class="edge">
<title>Node25&#45;&gt;Node6</title>
<g id="a_edge43_Node000025_Node000006"><a xlink:title=" ">
<path fill="none" stroke="#63b8ff" d="M1268.12,-60.45C1258.52,-58.43 1248.17,-56.51 1238.5,-55.25 1195.09,-49.59 534.56,-19.24 378.41,-12.12"/>
<polygon fill="#63b8ff" stroke="#63b8ff" points="378.91,-8.64 368.76,-11.68 378.59,-15.63 378.91,-8.64"/>
</a>
</g>
</g>
<!-- Node25&#45;&gt;Node11 -->
<g id="edge37_Node000025_Node000011" class="edge">
<title>Node25&#45;&gt;Node11</title>
<g id="a_edge37_Node000025_Node000011"><a xlink:title=" ">
<path fill="none" stroke="#63b8ff" d="M1268.48,-60.45C1258.78,-58.4 1248.29,-56.47 1238.5,-55.25 830.69,-4.32 722.8,-66.06 314.5,-19.25 311.31,-18.88 308.02,-18.42 304.72,-17.9"/>
<polygon fill="#63b8ff" stroke="#63b8ff" points="305.63,-14.5 295.18,-16.22 304.42,-21.4 305.63,-14.5"/>
</a>
</g>
</g>
<!-- Node25&#45;&gt;Node12 -->
<g id="edge39_Node000025_Node000012" class="edge">
<title>Node25&#45;&gt;Node12</title>
<g id="a_edge39_Node000025_Node000012"><a xlink:title=" ">
<path fill="none" stroke="#63b8ff" d="M1335.08,-60.43C1368.54,-50.17 1423.12,-33.43 1459.65,-22.23"/>
<polygon fill="#63b8ff" stroke="#63b8ff" points="1460.39,-25.67 1468.93,-19.39 1458.34,-18.97 1460.39,-25.67"/>
</a>
</g>
</g>
<!-- Node25&#45;&gt;Node14 -->
<g id="edge42_Node000025_Node000014" class="edge">
<title>Node25&#45;&gt;Node14</title>
<g id="a_edge42_Node000025_Node000014"><a xlink:title=" ">
<path fill="none" stroke="#63b8ff" d="M1268.92,-60.42C1232.47,-51.27 1174.63,-36.45 1116.26,-19.95"/>
<polygon fill="#63b8ff" stroke="#63b8ff" points="1117.39,-16.64 1106.81,-17.27 1115.47,-23.37 1117.39,-16.64"/>
</a>
</g>
</g>
<!-- Node25&#45;&gt;Node21 -->
<g id="edge35_Node000025_Node000021" class="edge">
<title>Node25&#45;&gt;Node21</title>
<g id="a_edge35_Node000025_Node000021"><a xlink:title=" ">
<path fill="none" stroke="#63b8ff" d="M1263.35,-60.44C1255.11,-58.7 1246.54,-56.9 1238.5,-55.25 1161.2,-39.39 1138.99,-36.82 1058.91,-19.71"/>
<polygon fill="#63b8ff" stroke="#63b8ff" points="1059.75,-16.31 1049.24,-17.63 1058.28,-23.16 1059.75,-16.31"/>
</a>
</g>
</g>
<!-- Node26 -->
<g id="Node000026" class="node">
<title>Node26</title>
<g id="a_Node000026"><a xlink:title=" ">
<polygon fill="#e0e0e0" stroke="#999999" points="1168.12,-19.25 1122.88,-19.25 1122.88,0 1168.12,0 1168.12,-19.25"/>
<text text-anchor="middle" x="1145.5" y="-5.75" font-family="Helvetica,sans-Serif" font-size="10.00">chrono</text>
</a>
</g>
</g>
<!-- Node25&#45;&gt;Node26 -->
<g id="edge36_Node000025_Node000026" class="edge">
<title>Node25&#45;&gt;Node26</title>
<g id="a_edge36_Node000025_Node000026"><a xlink:title=" ">
<path fill="none" stroke="#63b8ff" d="M1280.85,-60.43C1253.6,-50.4 1209.56,-34.2 1179.15,-23.01"/>
<polygon fill="#63b8ff" stroke="#63b8ff" points="1180.63,-19.82 1170.04,-19.65 1178.21,-26.39 1180.63,-19.82"/>
</a>
</g>
</g>
<!-- Node27 -->
<g id="Node000027" class="node">
<title>Node27</title>
<g id="a_Node000027"><a xlink:title=" ">
<polygon fill="#e0e0e0" stroke="#999999" points="1236.38,-19.25 1186.62,-19.25 1186.62,0 1236.38,0 1236.38,-19.25"/>
<text text-anchor="middle" x="1211.5" y="-5.75" font-family="Helvetica,sans-Serif" font-size="10.00">iomanip</text>
</a>
</g>
</g>
<!-- Node25&#45;&gt;Node27 -->
<g id="edge38_Node000025_Node000027" class="edge">
<title>Node25&#45;&gt;Node27</title>
<g id="a_edge38_Node000025_Node000027"><a xlink:title=" ">
<path fill="none" stroke="#63b8ff" d="M1291.22,-60.56C1276.45,-51.31 1253.13,-36.7 1235.51,-25.67"/>
<polygon fill="#63b8ff" stroke="#63b8ff" points="1237.53,-22.8 1227.19,-20.45 1233.81,-28.73 1237.53,-22.8"/>
</a>
</g>
</g>
<!-- Node28 -->
<g id="Node000028" class="node">
<title>Node28</title>
<g id="a_Node000028"><a xlink:title=" ">
<polygon fill="#e0e0e0" stroke="#999999" points="1336.88,-19.25 1254.12,-19.25 1254.12,0 1336.88,0 1336.88,-19.25"/>
<text text-anchor="middle" x="1295.5" y="-5.75" font-family="Helvetica,sans-Serif" font-size="10.00">unordered_map</text>
</a>
</g>
</g>
<!-- Node25&#45;&gt;Node28 -->
<g id="edge41_Node000025_Node000028" class="edge">
<title>Node25&#45;&gt;Node28</title>
<g id="a_edge41_Node000025_Node000028"><a xlink:title=" ">
<path fill="none" stroke="#63b8ff" d="M1303.98,-60.56C1302.64,-52.69 1300.65,-40.95 1298.93,-30.82"/>
<polygon fill="#63b8ff" stroke="#63b8ff" points="1302.41,-30.42 1297.29,-21.14 1295.51,-31.59 1302.41,-30.42"/>
</a>
</g>
</g>
<!-- Node29 -->
<g id="Node000029" class="node">
<title>Node29</title>
<g id="a_Node000029"><a xlink:title=" ">
<polygon fill="#e0e0e0" stroke="#999999" points="1452.38,-19.25 1354.62,-19.25 1354.62,0 1452.38,0 1452.38,-19.25"/>
<text text-anchor="middle" x="1403.5" y="-5.75" font-family="Helvetica,sans-Serif" font-size="10.00">nlohmann/json.hpp</text>
</a>
</g>
</g>
<!-- Node25&#45;&gt;Node29 -->
<g id="edge44_Node000025_Node000029" class="edge">
<title>Node25&#45;&gt;Node29</title>
<g id="a_edge44_Node000025_Node000029"><a xlink:title=" ">
<path fill="none" stroke="#63b8ff" d="M1320.38,-60.56C1335.85,-51.26 1360.33,-36.56 1378.72,-25.51"/>
<polygon fill="#63b8ff" stroke="#63b8ff" points="1380.41,-28.58 1387.18,-20.43 1376.8,-22.58 1380.41,-28.58"/>
</a>
</g>
</g>
<!-- Node30&#45;&gt;Node5 -->
<g id="edge51_Node000030_Node000005" class="edge">
<title>Node30&#45;&gt;Node5</title>
<g id="a_edge51_Node000030_Node000005"><a xlink:title=" ">
<path fill="none" stroke="#63b8ff" d="M1069.25,-238.17C1160.88,-232.85 1347.71,-219.48 1408.5,-196.25 1428.34,-188.67 1472.16,-156.67 1486.5,-141 1517.93,-106.65 1542.35,-57.17 1554.34,-30.11"/>
<polygon fill="#63b8ff" stroke="#63b8ff" points="1557.49,-31.66 1558.23,-21.09 1551.06,-28.88 1557.49,-31.66"/>
</a>
</g>
</g>
<!-- Node30&#45;&gt;Node6 -->
<g id="edge53_Node000030_Node000006" class="edge">
<title>Node30&#45;&gt;Node6</title>
<g id="a_edge53_Node000030_Node000006"><a xlink:title=" ">
<path fill="none" stroke="#63b8ff" d="M965.52,-241.51C812.22,-242.83 369.92,-242.57 326.5,-196.25 283.33,-150.2 316.88,-66.72 335.37,-29.46"/>
<polygon fill="#63b8ff" stroke="#63b8ff" points="338.36,-31.31 339.83,-20.82 332.14,-28.1 338.36,-31.31"/>
</a>
</g>
</g>
<!-- Node30&#45;&gt;Node7 -->
<g id="edge54_Node000030_Node000007" class="edge">
<title>Node30&#45;&gt;Node7</title>
<g id="a_edge54_Node000030_Node000007"><a xlink:title=" ">
<path fill="none" stroke="#63b8ff" d="M965.54,-233.17C882.9,-219.98 717.17,-189.69 583.5,-141 542.59,-126.1 498.21,-101.72 471.64,-86.15"/>
<polygon fill="#63b8ff" stroke="#63b8ff" points="473.74,-83.33 463.35,-81.23 470.17,-89.35 473.74,-83.33"/>
</a>
</g>
</g>
<!-- Node30&#45;&gt;Node10 -->
<g id="edge46_Node000030_Node000010" class="edge">
<title>Node30&#45;&gt;Node10</title>
<g id="a_edge46_Node000030_Node000010"><a xlink:title=" ">
<path fill="none" stroke="#63b8ff" d="M1052.53,-231.81C1100.71,-219.36 1190.13,-196.31 1266.5,-177 1312.73,-165.31 1365.73,-152.12 1401.99,-143.13"/>
<polygon fill="#63b8ff" stroke="#63b8ff" points="1402.81,-146.54 1411.68,-140.73 1401.13,-139.74 1402.81,-146.54"/>
</a>
</g>
</g>
<!-- Node30&#45;&gt;Node11 -->
<g id="edge49_Node000030_Node000011" class="edge">
<title>Node30&#45;&gt;Node11</title>
<g id="a_edge49_Node000030_Node000011"><a xlink:title=" ">
<path fill="none" stroke="#63b8ff" d="M965.59,-241.13C810.77,-241.42 359.92,-238.58 310.5,-196.25 261.86,-154.59 263.4,-69.42 267,-30.65"/>
<polygon fill="#63b8ff" stroke="#63b8ff" points="270.45,-31.23 268.06,-20.91 263.49,-30.47 270.45,-31.23"/>
</a>
</g>
</g>
<!-- Node30&#45;&gt;Node13 -->
<g id="edge50_Node000030_Node000013" class="edge">
<title>Node30&#45;&gt;Node13</title>
<g id="a_edge50_Node000030_Node000013"><a xlink:title=" ">
<path fill="none" stroke="#63b8ff" d="M1069.3,-237.23C1149.42,-231.18 1308.11,-217.59 1441.5,-196.25 1442.51,-196.09 1443.54,-195.92 1444.57,-195.74"/>
<polygon fill="#63b8ff" stroke="#63b8ff" points="1445.1,-199.2 1454.27,-193.89 1443.79,-192.32 1445.1,-199.2"/>
</a>
</g>
</g>
<!-- Node30&#45;&gt;Node14 -->
<g id="edge52_Node000030_Node000014" class="edge">
<title>Node30&#45;&gt;Node14</title>
<g id="a_edge52_Node000030_Node000014"><a xlink:title=" ">
<path fill="none" stroke="#63b8ff" d="M1020.34,-232C1023.21,-223.01 1027.74,-208.69 1031.5,-196.25 1049.75,-135.88 1070.3,-64.11 1079.95,-30.22"/>
<polygon fill="#63b8ff" stroke="#63b8ff" points="1083.2,-31.56 1082.57,-20.99 1076.47,-29.65 1083.2,-31.56"/>
</a>
</g>
</g>
<!-- Node30&#45;&gt;Node15 -->
<g id="edge55_Node000030_Node000015" class="edge">
<title>Node30&#45;&gt;Node15</title>
<g id="a_edge55_Node000030_Node000015"><a xlink:title=" ">
<path fill="none" stroke="#63b8ff" d="M1069.27,-232.26C1124.36,-223.09 1211.67,-208.56 1271.62,-198.59"/>
<polygon fill="#63b8ff" stroke="#63b8ff" points="1272.08,-202.06 1281.37,-196.97 1270.93,-195.16 1272.08,-202.06"/>
</a>
</g>
</g>
<!-- Node30&#45;&gt;Node16 -->
<g id="edge56_Node000030_Node000016" class="edge">
<title>Node30&#45;&gt;Node16</title>
<g id="a_edge56_Node000030_Node000016"><a xlink:title=" ">
<path fill="none" stroke="#63b8ff" d="M1032.54,-231.81C1063.51,-213.14 1134.68,-170.24 1172.62,-147.37"/>
<polygon fill="#63b8ff" stroke="#63b8ff" points="1174.33,-150.43 1181.08,-142.27 1170.71,-144.44 1174.33,-150.43"/>
</a>
</g>
</g>
<!-- Node30&#45;&gt;Node21 -->
<g id="edge48_Node000030_Node000021" class="edge">
<title>Node30&#45;&gt;Node21</title>
<g id="a_edge48_Node000030_Node000021"><a xlink:title=" ">
<path fill="none" stroke="#63b8ff" d="M1017.58,-231.85C1017.87,-198.03 1018.91,-78.35 1019.33,-30.55"/>
<polygon fill="#63b8ff" stroke="#63b8ff" points="1022.82,-30.89 1019.41,-20.86 1015.82,-30.82 1022.82,-30.89"/>
</a>
</g>
</g>
<!-- Node31 -->
<g id="Node000031" class="node">
<title>Node31</title>
<g id="a_Node000031"><a xlink:title=" ">
<polygon fill="#e0e0e0" stroke="#999999" points="553.5,-196.25 489.5,-196.25 489.5,-177 553.5,-177 553.5,-196.25"/>
<text text-anchor="middle" x="521.5" y="-182.75" font-family="Helvetica,sans-Serif" font-size="10.00">petscvec.h</text>
</a>
</g>
</g>
<!-- Node30&#45;&gt;Node31 -->
<g id="edge47_Node000030_Node000031" class="edge">
<title>Node30&#45;&gt;Node31</title>
<g id="a_edge47_Node000030_Node000031"><a xlink:title=" ">
<path fill="none" stroke="#63b8ff" d="M965.7,-237.2C881.79,-230.93 711.08,-216.79 567.5,-196.25 566.66,-196.13 565.8,-196 564.94,-195.87"/>
<polygon fill="#63b8ff" stroke="#63b8ff" points="565.54,-192.43 555.11,-194.26 564.41,-199.33 565.54,-192.43"/>
</a>
</g>
</g>
<!-- Node32&#45;&gt;Node6 -->
<g id="edge60_Node000032_Node000006" class="edge">
<title>Node32&#45;&gt;Node6</title>
<g id="a_edge60_Node000032_Node000006"><a xlink:title=" ">
<path fill="none" stroke="#63b8ff" d="M400.35,-176.56C394.28,-159.04 380.58,-119.32 369.5,-85.75 363.27,-66.87 356.39,-45.24 351.6,-30.06"/>
<polygon fill="#63b8ff" stroke="#63b8ff" points="355.05,-29.36 348.71,-20.88 348.37,-31.47 355.05,-29.36"/>
</a>
</g>
</g>
<!-- Node32&#45;&gt;Node11 -->
<g id="edge59_Node000032_Node000011" class="edge">
<title>Node32&#45;&gt;Node11</title>
<g id="a_edge59_Node000032_Node000011"><a xlink:title=" ">
<path fill="none" stroke="#63b8ff" d="M396.67,-176.71C375.62,-149.21 311.44,-65.4 283.15,-28.45"/>
<polygon fill="#63b8ff" stroke="#63b8ff" points="286.25,-26.75 277.4,-20.94 280.7,-31.01 286.25,-26.75"/>
</a>
</g>
</g>
<!-- Node32&#45;&gt;Node22 -->
<g id="edge58_Node000032_Node000022" class="edge">
<title>Node32&#45;&gt;Node22</title>
<g id="a_edge58_Node000032_Node000022"><a xlink:title=" ">
<path fill="none" stroke="#63b8ff" d="M402.8,-176.63C400.7,-148.7 395.09,-64.76 402.5,-55.25 420.34,-32.36 503.23,-19.38 548.98,-13.85"/>
<polygon fill="#63b8ff" stroke="#63b8ff" points="549.24,-17.34 558.78,-12.72 548.44,-10.39 549.24,-17.34"/>
</a>
</g>
</g>
<!-- Node33 -->
<g id="Node000033" class="node">
<title>Node33</title>
<g id="a_Node000033"><a xlink:href="vmath_8hpp.html" target="_top" xlink:title=" ">
<polygon fill="white" stroke="#666666" points="706.62,-141 592.38,-141 592.38,-121.75 706.62,-121.75 706.62,-141"/>
<text text-anchor="middle" x="649.5" y="-127.5" font-family="Helvetica,sans-Serif" font-size="10.00">vulpes/utils/vmath.hpp</text>
</a>
</g>
</g>
<!-- Node32&#45;&gt;Node33 -->
<g id="edge61_Node000032_Node000033" class="edge">
<title>Node32&#45;&gt;Node33</title>
<g id="a_edge61_Node000032_Node000033"><a xlink:title=" ">
<path fill="none" stroke="#63b8ff" d="M445.51,-176.53C487.26,-167.49 551.41,-153.61 596.61,-143.82"/>
<polygon fill="#63b8ff" stroke="#63b8ff" points="597.15,-147.29 606.18,-141.75 595.67,-140.45 597.15,-147.29"/>
</a>
</g>
</g>
<!-- Node33&#45;&gt;Node7 -->
<g id="edge67_Node000033_Node000007" class="edge">
<title>Node33&#45;&gt;Node7</title>
<g id="a_edge67_Node000033_Node000007"><a xlink:title=" ">
<path fill="none" stroke="#63b8ff" d="M618.38,-121.3C583.83,-111.24 527.88,-94.93 489.48,-83.74"/>
<polygon fill="#63b8ff" stroke="#63b8ff" points="490.69,-80.44 480.11,-81 488.73,-87.16 490.69,-80.44"/>
</a>
</g>
</g>
<!-- Node33&#45;&gt;Node11 -->
<g id="edge63_Node000033_Node000011" class="edge">
<title>Node33&#45;&gt;Node11</title>
<g id="a_edge63_Node000033_Node000011"><a xlink:title=" ">
<path fill="none" stroke="#63b8ff" d="M616.95,-121.25C592.31,-113.62 558.11,-101.47 530.5,-85.75 511.68,-75.04 512.12,-64.41 492.5,-55.25 488.25,-53.26 367.17,-29.59 305.24,-17.55"/>
<polygon fill="#63b8ff" stroke="#63b8ff" points="306.02,-14.14 295.54,-15.67 304.69,-21.01 306.02,-14.14"/>
</a>
</g>
</g>
<!-- Node34 -->
<g id="Node000034" class="node">
<title>Node34</title>
<g id="a_Node000034"><a xlink:title=" ">
<polygon fill="#e0e0e0" stroke="#999999" points="593.25,-80.12 539.75,-80.12 539.75,-60.88 593.25,-60.88 593.25,-80.12"/>
<text text-anchor="middle" x="566.5" y="-66.62" font-family="Helvetica,sans-Serif" font-size="10.00">gmpxx.h</text>
</a>
</g>
</g>
<!-- Node33&#45;&gt;Node34 -->
<g id="edge62_Node000033_Node000034" class="edge">
<title>Node33&#45;&gt;Node34</title>
<g id="a_edge62_Node000033_Node000034"><a xlink:title=" ">
<path fill="none" stroke="#63b8ff" d="M636.89,-121.43C624.1,-112.36 604.02,-98.12 588.58,-87.16"/>
<polygon fill="#63b8ff" stroke="#63b8ff" points="590.64,-84.33 580.46,-81.4 586.59,-90.04 590.64,-84.33"/>
</a>
</g>
</g>
<!-- Node35 -->
<g id="Node000035" class="node">
<title>Node35</title>
<g id="a_Node000035"><a xlink:title=" ">
<polygon fill="#e0e0e0" stroke="#999999" points="656.12,-80.12 610.88,-80.12 610.88,-60.88 656.12,-60.88 656.12,-80.12"/>
<text text-anchor="middle" x="633.5" y="-66.62" font-family="Helvetica,sans-Serif" font-size="10.00">cstdint</text>
</a>
</g>
</g>
<!-- Node33&#45;&gt;Node35 -->
<g id="edge64_Node000033_Node000035" class="edge">
<title>Node33&#45;&gt;Node35</title>
<g id="a_edge64_Node000033_Node000035"><a xlink:title=" ">
<path fill="none" stroke="#63b8ff" d="M647.07,-121.43C644.91,-113.48 641.67,-101.56 638.9,-91.37"/>
<polygon fill="#63b8ff" stroke="#63b8ff" points="642.35,-90.72 636.35,-81.99 635.59,-92.55 642.35,-90.72"/>
</a>
</g>
</g>
<!-- Node36 -->
<g id="Node000036" class="node">
<title>Node36</title>
<g id="a_Node000036"><a xlink:title=" ">
<polygon fill="#e0e0e0" stroke="#999999" points="713.12,-80.12 673.88,-80.12 673.88,-60.88 713.12,-60.88 713.12,-80.12"/>
<text text-anchor="middle" x="693.5" y="-66.62" font-family="Helvetica,sans-Serif" font-size="10.00">limits</text>
</a>
</g>
</g>
<!-- Node33&#45;&gt;Node36 -->
<g id="edge65_Node000033_Node000036" class="edge">
<title>Node33&#45;&gt;Node36</title>
<g id="a_edge65_Node000033_Node000036"><a xlink:title=" ">
<path fill="none" stroke="#63b8ff" d="M656.18,-121.43C662.45,-113.05 672.01,-100.26 679.88,-89.72"/>
<polygon fill="#63b8ff" stroke="#63b8ff" points="682.67,-91.84 685.85,-81.74 677.06,-87.65 682.67,-91.84"/>
</a>
</g>
</g>
<!-- Node37 -->
<g id="Node000037" class="node">
<title>Node37</title>
<g id="a_Node000037"><a xlink:title=" ">
<polygon fill="#e0e0e0" stroke="#999999" points="793.38,-80.12 731.62,-80.12 731.62,-60.88 793.38,-60.88 793.38,-80.12"/>
<text text-anchor="middle" x="762.5" y="-66.62" font-family="Helvetica,sans-Serif" font-size="10.00">type_traits</text>
</a>
</g>
</g>
<!-- Node33&#45;&gt;Node37 -->
<g id="edge66_Node000033_Node000037" class="edge">
<title>Node33&#45;&gt;Node37</title>
<g id="a_edge66_Node000033_Node000037"><a xlink:title=" ">
<path fill="none" stroke="#63b8ff" d="M666.66,-121.43C684.83,-111.97 713.78,-96.89 735.11,-85.77"/>
<polygon fill="#63b8ff" stroke="#63b8ff" points="736.58,-88.95 743.83,-81.23 733.35,-82.74 736.58,-88.95"/>
</a>
</g>
</g>
</g>
</svg>

<g id="navigator" transform="translate(0 0)" fill="#404254">
  <rect fill="#f2f5e9" fill-opacity="0.5" stroke="#606060" stroke-width=".5" x="0" y="0" width="60" height="60"/>
  <use id="zoomplus" xlink:href="#zoomPlus" x="17" y="9" onmousedown="handleZoom(evt,'in')"/>
  <use id="zoomminus" xlink:href="#zoomMin" x="42" y="9" onmousedown="handleZoom(evt,'out')"/>
  <use id="reset" xlink:href="#resetDef" x="30" y="36" onmousedown="handleReset()"/>
   <use id="arrowup" xlink:href="#arrowUp" x="0" y="0" onmousedown="handlePan(0,-1)"/>
  <use id="arrowright" xlink:href="#arrowRight" x="0" y="0" onmousedown="handlePan(1,0)"/>
  <use id="arrowdown" xlink:href="#arrowDown" x="0" y="0" onmousedown="handlePan(0,1)"/>
  <use id="arrowleft" xlink:href="#arrowLeft" x="0" y="0" onmousedown="handlePan(-1,0)"/>
</g>
<svg viewBox="0 0 15 15" width="100%" height="30px" preserveAspectRatio="xMaxYMin meet">
 <g id="arrow_out" transform="scale(0.3 0.3)">
  <a xlink:href="io_8hpp__incl_org.svg" target="_base">
   <rect id="button" ry="5" rx="5" y="6" x="6" height="38" width="38"
        fill="#f2f5e9" fill-opacity="0.5" stroke="#606060" stroke-width="1.0"/>
   <path id="arrow"
     d="M 11.500037,31.436501 C 11.940474,20.09759 22.043105,11.32322 32.158766,21.979434 L 37.068811,17.246167 C 37.068811,17.246167 37.088388,32 37.088388,32 L 22.160133,31.978069 C 22.160133,31.978069 26.997745,27.140456 26.997745,27.140456 C 18.528582,18.264221 13.291696,25.230495 11.500037,31.436501 z"
     style="fill:#404040;"/>
  </a>
 </g>
</svg>

<style type='text/css'>
<![CDATA[
[data-mouse-over-selected='false'] { opacity: 0.7; }
[data-mouse-over-selected='true']  { opacity: 1.0; }
]]>
</style>
<script type="application/ecmascript"><![CDATA[
document.addEventListener('DOMContentLoaded', (event) => {
  highlightEdges();
  highlightAdjacentNodes();
});
]]></script>
</svg>
