<?xml version="1.0" encoding="UTF-8" standalone="no"?>
<!DOCTYPE svg PUBLIC "-//W3C//DTD SVG 1.1//EN"
 "http://www.w3.org/Graphics/SVG/1.1/DTD/svg11.dtd">
<!-- Generated by graphviz version 2.42.4 (0)
 -->
<!-- Title: /__w/vulpes/vulpes/vulpes/utils/io.hpp Pages: 1 -->
<svg width="1713pt" height="379pt"
 viewBox="0.00 0.00 1712.50 379.00" xmlns="http://www.w3.org/2000/svg" xmlns:xlink="http://www.w3.org/1999/xlink">
<g id="graph0" class="graph" transform="scale(1 1) rotate(0) translate(4 375)">
<title>/__w/vulpes/vulpes/vulpes/utils/io.hpp</title>
<!-- Node1 -->
<g id="Node000001" class="node">
<title>Node1</title>
<g id="a_Node000001"><a xlink:title=" ">
<polygon fill="#999999" stroke="#666666" points="372,-371 263,-371 263,-341 372,-341 372,-371"/>
<text text-anchor="start" x="271" y="-359" font-family="Helvetica,sans-Serif" font-size="10.00">/__w/vulpes/vulpes</text>
<text text-anchor="middle" x="317.5" y="-348" font-family="Helvetica,sans-Serif" font-size="10.00">/vulpes/utils/io.hpp</text>
</a>
</g>
</g>
<!-- Node2 -->
<g id="Node000002" class="node">
<title>Node2</title>
<g id="a_Node000002"><a xlink:title=" ">
<polygon fill="#e0e0e0" stroke="#999999" points="55,-305 0,-305 0,-286 55,-286 55,-305"/>
<text text-anchor="middle" x="27.5" y="-293" font-family="Helvetica,sans-Serif" font-size="10.00">fstream</text>
</a>
</g>
</g>
<!-- Node1&#45;&gt;Node2 -->
<g id="edge1_Node000001_Node000002" class="edge">
<title>Node1&#45;&gt;Node2</title>
<g id="a_edge1_Node000001_Node000002"><a xlink:title=" ">
<path fill="none" stroke="#63b8ff" d="M262.62,-344.66C213.51,-335.29 139.3,-320.85 65.32,-305.12"/>
<polygon fill="#63b8ff" stroke="#63b8ff" points="65.87,-301.66 55.36,-303 64.41,-308.51 65.87,-301.66"/>
</a>
</g>
</g>
<!-- Node3 -->
<g id="Node000003" class="node">
<title>Node3</title>
<g id="a_Node000003"><a xlink:title=" ">
<polygon fill="#e0e0e0" stroke="#999999" points="129.5,-305 73.5,-305 73.5,-286 129.5,-286 129.5,-305"/>
<text text-anchor="middle" x="101.5" y="-293" font-family="Helvetica,sans-Serif" font-size="10.00">sstream</text>
</a>
</g>
</g>
<!-- Node1&#45;&gt;Node3 -->
<g id="edge2_Node000001_Node000003" class="edge">
<title>Node1&#45;&gt;Node3</title>
<g id="a_edge2_Node000001_Node000003"><a xlink:title=" ">
<path fill="none" stroke="#63b8ff" d="M265.76,-340.99C226.91,-330.47 174.59,-316.29 139.53,-306.8"/>
<polygon fill="#63b8ff" stroke="#63b8ff" points="140.25,-303.37 129.68,-304.13 138.42,-310.13 140.25,-303.37"/>
</a>
</g>
</g>
<!-- Node4 -->
<g id="Node000004" class="node">
<title>Node4</title>
<g id="a_Node000004"><a xlink:title=" ">
<polygon fill="#e0e0e0" stroke="#999999" points="213,-305 148,-305 148,-286 213,-286 213,-305"/>
<text text-anchor="middle" x="180.5" y="-293" font-family="Helvetica,sans-Serif" font-size="10.00">stdexcept</text>
</a>
</g>
</g>
<!-- Node1&#45;&gt;Node4 -->
<g id="edge3_Node000001_Node000004" class="edge">
<title>Node1&#45;&gt;Node4</title>
<g id="a_edge3_Node000001_Node000004"><a xlink:title=" ">
<path fill="none" stroke="#63b8ff" d="M284.69,-340.99C262.03,-331.31 232.15,-318.56 210.2,-309.18"/>
<polygon fill="#63b8ff" stroke="#63b8ff" points="211.3,-305.85 200.73,-305.14 208.55,-312.29 211.3,-305.85"/>
</a>
</g>
</g>
<!-- Node5 -->
<g id="Node000005" class="node">
<title>Node5</title>
<g id="a_Node000005"><a xlink:title=" ">
<polygon fill="#e0e0e0" stroke="#999999" points="1702.5,-19 1658.5,-19 1658.5,0 1702.5,0 1702.5,-19"/>
<text text-anchor="middle" x="1680.5" y="-7" font-family="Helvetica,sans-Serif" font-size="10.00">string</text>
</a>
</g>
</g>
<!-- Node1&#45;&gt;Node5 -->
<g id="edge4_Node000001_Node000005" class="edge">
<title>Node1&#45;&gt;Node5</title>
<g id="a_edge4_Node000001_Node000005"><a xlink:title=" ">
<path fill="none" stroke="#63b8ff" d="M372.15,-355.08C528.21,-354.72 989.11,-349.65 1368.5,-305 1519.43,-287.23 1704.5,-393.48 1704.5,-241.5 1704.5,-241.5 1704.5,-241.5 1704.5,-129.5 1704.5,-93.28 1693.68,-52.05 1686.57,-28.87"/>
<polygon fill="#63b8ff" stroke="#63b8ff" points="1689.81,-27.51 1683.44,-19.04 1683.14,-29.63 1689.81,-27.51"/>
</a>
</g>
</g>
<!-- Node6 -->
<g id="Node000006" class="node">
<title>Node6</title>
<g id="a_Node000006"><a xlink:title=" ">
<polygon fill="#e0e0e0" stroke="#999999" points="398,-19 351,-19 351,0 398,0 398,-19"/>
<text text-anchor="middle" x="374.5" y="-7" font-family="Helvetica,sans-Serif" font-size="10.00">vector</text>
</a>
</g>
</g>
<!-- Node1&#45;&gt;Node6 -->
<g id="edge5_Node000001_Node000006" class="edge">
<title>Node1&#45;&gt;Node6</title>
<g id="a_edge5_Node000001_Node000006"><a xlink:title=" ">
<path fill="none" stroke="#63b8ff" d="M315.5,-340.84C309.88,-296.54 296.95,-157.49 339.5,-55 343.86,-44.49 351.44,-34.38 358.43,-26.47"/>
<polygon fill="#63b8ff" stroke="#63b8ff" points="361.06,-28.78 365.34,-19.08 355.95,-23.99 361.06,-28.78"/>
</a>
</g>
</g>
<!-- Node7 -->
<g id="Node000007" class="node">
<title>Node7</title>
<g id="a_Node000007"><a xlink:title=" ">
<polygon fill="#e0e0e0" stroke="#999999" points="518,-79.5 441,-79.5 441,-60.5 518,-60.5 518,-79.5"/>
<text text-anchor="middle" x="479.5" y="-67.5" font-family="Helvetica,sans-Serif" font-size="10.00">Eigen/Dense</text>
</a>
</g>
</g>
<!-- Node1&#45;&gt;Node7 -->
<g id="edge6_Node000001_Node000007" class="edge">
<title>Node1&#45;&gt;Node7</title>
<g id="a_edge6_Node000001_Node000007"><a xlink:title=" ">
<path fill="none" stroke="#63b8ff" d="M321.44,-340.79C327,-319.43 336.5,-277.66 336.5,-241.5 336.5,-241.5 336.5,-241.5 336.5,-184.5 336.5,-130.98 398.71,-98.69 441.06,-82.9"/>
<polygon fill="#63b8ff" stroke="#63b8ff" points="442.32,-86.17 450.56,-79.51 439.97,-79.57 442.32,-86.17"/>
</a>
</g>
</g>
<!-- Node8 -->
<g id="Node000008" class="node">
<title>Node8</title>
<g id="a_Node000008"><a xlink:href="sparse__matrix_8hpp.html" target="_top" xlink:title=" ">
<polygon fill="white" stroke="#666666" points="1360,-305 1205,-305 1205,-286 1360,-286 1360,-305"/>
<text text-anchor="middle" x="1282.5" y="-293" font-family="Helvetica,sans-Serif" font-size="10.00">vulpes/la/sparse_matrix.hpp</text>
</a>
</g>
</g>
<!-- Node1&#45;&gt;Node8 -->
<g id="edge7_Node000001_Node000008" class="edge">
<title>Node1&#45;&gt;Node8</title>
<g id="a_edge7_Node000001_Node000008"><a xlink:title=" ">
<path fill="none" stroke="#63b8ff" d="M372.15,-351.69C531.86,-342 998.91,-313.69 1194.62,-301.83"/>
<polygon fill="#63b8ff" stroke="#63b8ff" points="1195.09,-305.31 1204.86,-301.21 1194.67,-298.32 1195.09,-305.31"/>
</a>
</g>
</g>
<!-- Node30 -->
<g id="Node000030" class="node">
<title>Node30</title>
<g id="a_Node000030"><a xlink:href="vector_8hpp.html" target="_top" xlink:title=" ">
<polygon fill="white" stroke="#666666" points="1145,-250 1030,-250 1030,-231 1145,-231 1145,-250"/>
<text text-anchor="middle" x="1087.5" y="-238" font-family="Helvetica,sans-Serif" font-size="10.00">vulpes/la/vector.hpp</text>
</a>
</g>
</g>
<!-- Node1&#45;&gt;Node30 -->
<g id="edge69_Node000001_Node000030" class="edge">
<title>Node1&#45;&gt;Node30</title>
<g id="a_edge69_Node000001_Node000030"><a xlink:title=" ">
<path fill="none" stroke="#63b8ff" d="M372.26,-346.93C509.8,-326.66 869.48,-273.64 1019.87,-251.47"/>
<polygon fill="#63b8ff" stroke="#63b8ff" points="1020.51,-254.91 1029.9,-249.99 1019.49,-247.99 1020.51,-254.91"/>
</a>
</g>
</g>
<!-- Node8&#45;&gt;Node5 -->
<g id="edge13_Node000008_Node000005" class="edge">
<title>Node8&#45;&gt;Node5</title>
<g id="a_edge13_Node000008_Node000005"><a xlink:title=" ">
<path fill="none" stroke="#63b8ff" d="M1360.21,-288.44C1472.41,-277.52 1666.5,-249.52 1666.5,-186.5 1666.5,-186.5 1666.5,-186.5 1666.5,-129.5 1666.5,-93.75 1672.81,-52.36 1676.96,-29.02"/>
<polygon fill="#63b8ff" stroke="#63b8ff" points="1680.41,-29.59 1678.78,-19.12 1673.53,-28.32 1680.41,-29.59"/>
</a>
</g>
</g>
<!-- Node8&#45;&gt;Node6 -->
<g id="edge15_Node000008_Node000006" class="edge">
<title>Node8&#45;&gt;Node6</title>
<g id="a_edge15_Node000008_Node000006"><a xlink:title=" ">
<path fill="none" stroke="#63b8ff" d="M1204.67,-291.75C992.21,-283.47 414.25,-255.55 355.5,-195 311.43,-149.58 346.22,-65.17 364.76,-28.39"/>
<polygon fill="#63b8ff" stroke="#63b8ff" points="367.96,-29.84 369.48,-19.36 361.75,-26.6 367.96,-29.84"/>
</a>
</g>
</g>
<!-- Node9 -->
<g id="Node000009" class="node">
<title>Node9</title>
<g id="a_Node000009"><a xlink:title=" ">
<polygon fill="#e0e0e0" stroke="#999999" points="1458,-250 1387,-250 1387,-231 1458,-231 1458,-250"/>
<text text-anchor="middle" x="1422.5" y="-238" font-family="Helvetica,sans-Serif" font-size="10.00">petscmat.h</text>
</a>
</g>
</g>
<!-- Node8&#45;&gt;Node9 -->
<g id="edge8_Node000008_Node000009" class="edge">
<title>Node8&#45;&gt;Node9</title>
<g id="a_edge8_Node000008_Node000009"><a xlink:title=" ">
<path fill="none" stroke="#63b8ff" d="M1304.99,-285.98C1328.02,-277.27 1364.04,-263.63 1390.13,-253.75"/>
<polygon fill="#63b8ff" stroke="#63b8ff" points="1391.48,-256.98 1399.6,-250.17 1389.01,-250.44 1391.48,-256.98"/>
</a>
</g>
</g>
<!-- Node10 -->
<g id="Node000010" class="node">
<title>Node10</title>
<g id="a_Node000010"><a xlink:title=" ">
<polygon fill="#e0e0e0" stroke="#999999" points="1574.5,-140 1506.5,-140 1506.5,-121 1574.5,-121 1574.5,-140"/>
<text text-anchor="middle" x="1540.5" y="-128" font-family="Helvetica,sans-Serif" font-size="10.00">petscsys.h</text>
</a>
</g>
</g>
<!-- Node8&#45;&gt;Node10 -->
<g id="edge9_Node000008_Node000010" class="edge">
<title>Node8&#45;&gt;Node10</title>
<g id="a_edge9_Node000008_Node000010"><a xlink:title=" ">
<path fill="none" stroke="#63b8ff" d="M1340.85,-285.99C1426.97,-272.02 1581.03,-241.06 1609.5,-195 1622.42,-174.09 1596.11,-155.76 1572.34,-144.24"/>
<polygon fill="#63b8ff" stroke="#63b8ff" points="1573.66,-140.99 1563.11,-140.02 1570.75,-147.36 1573.66,-140.99"/>
</a>
</g>
</g>
<!-- Node11 -->
<g id="Node000011" class="node">
<title>Node11</title>
<g id="a_Node000011"><a xlink:title=" ">
<polygon fill="#e0e0e0" stroke="#999999" points="325,-19 272,-19 272,0 325,0 325,-19"/>
<text text-anchor="middle" x="298.5" y="-7" font-family="Helvetica,sans-Serif" font-size="10.00">cstddef</text>
</a>
</g>
</g>
<!-- Node8&#45;&gt;Node11 -->
<g id="edge10_Node000008_Node000011" class="edge">
<title>Node8&#45;&gt;Node11</title>
<g id="a_edge10_Node000008_Node000011"><a xlink:title=" ">
<path fill="none" stroke="#63b8ff" d="M1204.87,-295.27C948.7,-296.79 146.5,-293.05 146.5,-186.5 146.5,-186.5 146.5,-186.5 146.5,-129.5 146.5,-71.08 216.98,-37.04 261.95,-21.27"/>
<polygon fill="#63b8ff" stroke="#63b8ff" points="263.31,-24.51 271.68,-18 261.08,-17.87 263.31,-24.51"/>
</a>
</g>
</g>
<!-- Node12 -->
<g id="Node000012" class="node">
<title>Node12</title>
<g id="a_Node000012"><a xlink:title=" ">
<polygon fill="#e0e0e0" stroke="#999999" points="1640.5,-19 1580.5,-19 1580.5,0 1640.5,0 1640.5,-19"/>
<text text-anchor="middle" x="1610.5" y="-7" font-family="Helvetica,sans-Serif" font-size="10.00">iostream</text>
</a>
</g>
</g>
<!-- Node8&#45;&gt;Node12 -->
<g id="edge11_Node000008_Node000012" class="edge">
<title>Node8&#45;&gt;Node12</title>
<g id="a_edge11_Node000008_Node000012"><a xlink:title=" ">
<path fill="none" stroke="#63b8ff" d="M1285.9,-285.74C1295.49,-261.35 1323.11,-193.33 1339.5,-176 1397.05,-115.16 1435.35,-132.24 1504.5,-85 1521.7,-73.25 1523.68,-67.28 1540.5,-55 1555.53,-44.03 1573.21,-32.8 1587.05,-24.37"/>
<polygon fill="#63b8ff" stroke="#63b8ff" points="1589.18,-27.17 1595.93,-19.01 1585.56,-21.18 1589.18,-27.17"/>
</a>
</g>
</g>
<!-- Node13 -->
<g id="Node000013" class="node">
<title>Node13</title>
<g id="a_Node000013"><a xlink:title=" ">
<polygon fill="#e0e0e0" stroke="#999999" points="1600.5,-195 1542.5,-195 1542.5,-176 1600.5,-176 1600.5,-195"/>
<text text-anchor="middle" x="1571.5" y="-183" font-family="Helvetica,sans-Serif" font-size="10.00">memory</text>
</a>
</g>
</g>
<!-- Node8&#45;&gt;Node13 -->
<g id="edge12_Node000008_Node000013" class="edge">
<title>Node8&#45;&gt;Node13</title>
<g id="a_edge12_Node000008_Node000013"><a xlink:title=" ">
<path fill="none" stroke="#63b8ff" d="M1336.6,-285.93C1374.01,-278.93 1424.41,-267.33 1466.5,-250 1498.07,-237 1531.27,-215.39 1551.68,-201.04"/>
<polygon fill="#63b8ff" stroke="#63b8ff" points="1553.75,-203.86 1559.86,-195.2 1549.68,-198.17 1553.75,-203.86"/>
</a>
</g>
</g>
<!-- Node14 -->
<g id="Node000014" class="node">
<title>Node14</title>
<g id="a_Node000014"><a xlink:title=" ">
<polygon fill="#e0e0e0" stroke="#999999" points="1180,-19 1135,-19 1135,0 1180,0 1180,-19"/>
<text text-anchor="middle" x="1157.5" y="-7" font-family="Helvetica,sans-Serif" font-size="10.00">utility</text>
</a>
</g>
</g>
<!-- Node8&#45;&gt;Node14 -->
<g id="edge14_Node000008_Node000014" class="edge">
<title>Node8&#45;&gt;Node14</title>
<g id="a_edge14_Node000008_Node000014"><a xlink:title=" ">
<path fill="none" stroke="#63b8ff" d="M1275.86,-285.99C1258.64,-263.48 1212.13,-200.01 1187.5,-140 1172.07,-102.42 1163.68,-55.29 1159.94,-29.51"/>
<polygon fill="#63b8ff" stroke="#63b8ff" points="1163.36,-28.71 1158.54,-19.28 1156.43,-29.66 1163.36,-28.71"/>
</a>
</g>
</g>
<!-- Node15 -->
<g id="Node000015" class="node">
<title>Node15</title>
<g id="a_Node000015"><a xlink:href="petsc__utils_8hpp.html" target="_top" xlink:title=" ">
<polygon fill="white" stroke="#666666" points="1486,-195 1349,-195 1349,-176 1486,-176 1486,-195"/>
<text text-anchor="middle" x="1417.5" y="-183" font-family="Helvetica,sans-Serif" font-size="10.00">vulpes/la/petsc_utils.hpp</text>
</a>
</g>
</g>
<!-- Node8&#45;&gt;Node15 -->
<g id="edge16_Node000008_Node000015" class="edge">
<title>Node8&#45;&gt;Node15</title>
<g id="a_edge16_Node000008_Node000015"><a xlink:title=" ">
<path fill="none" stroke="#63b8ff" d="M1293.55,-285.66C1316.6,-267.22 1370.07,-224.45 1398.66,-201.57"/>
<polygon fill="#63b8ff" stroke="#63b8ff" points="1401.05,-204.14 1406.68,-195.16 1396.68,-198.67 1401.05,-204.14"/>
</a>
</g>
</g>
<!-- Node16 -->
<g id="Node000016" class="node">
<title>Node16</title>
<g id="a_Node000016"><a xlink:href="mpi__wrappers_8hpp.html" target="_top" xlink:title=" ">
<polygon fill="white" stroke="#666666" points="1362.5,-140 1196.5,-140 1196.5,-121 1362.5,-121 1362.5,-140"/>
<text text-anchor="middle" x="1279.5" y="-128" font-family="Helvetica,sans-Serif" font-size="10.00">vulpes/utils/mpi_wrappers.hpp</text>
</a>
</g>
</g>
<!-- Node8&#45;&gt;Node16 -->
<g id="edge68_Node000008_Node000016" class="edge">
<title>Node8&#45;&gt;Node16</title>
<g id="a_edge68_Node000008_Node000016"><a xlink:title=" ">
<path fill="none" stroke="#63b8ff" d="M1282.34,-285.74C1281.87,-260.31 1280.5,-186.08 1279.85,-150.69"/>
<polygon fill="#63b8ff" stroke="#63b8ff" points="1283.35,-150.24 1279.66,-140.31 1276.35,-150.37 1283.35,-150.24"/>
</a>
</g>
</g>
<!-- Node8&#45;&gt;Node30 -->
<g id="edge45_Node000008_Node000030" class="edge">
<title>Node8&#45;&gt;Node30</title>
<g id="a_edge45_Node000008_Node000030"><a xlink:title=" ">
<path fill="none" stroke="#63b8ff" d="M1251.17,-285.98C1218.01,-276.97 1165.5,-262.7 1128.94,-252.76"/>
<polygon fill="#63b8ff" stroke="#63b8ff" points="1129.64,-249.33 1119.08,-250.08 1127.81,-256.08 1129.64,-249.33"/>
</a>
</g>
</g>
<!-- Node32 -->
<g id="Node000032" class="node">
<title>Node32</title>
<g id="a_Node000032"><a xlink:href="qrule_8hpp.html" target="_top" xlink:title=" ">
<polygon fill="white" stroke="#666666" points="518.5,-195 364.5,-195 364.5,-176 518.5,-176 518.5,-195"/>
<text text-anchor="middle" x="441.5" y="-183" font-family="Helvetica,sans-Serif" font-size="10.00">vulpes/quadrature/qrule.hpp</text>
</a>
</g>
</g>
<!-- Node8&#45;&gt;Node32 -->
<g id="edge57_Node000008_Node000032" class="edge">
<title>Node8&#45;&gt;Node32</title>
<g id="a_edge57_Node000008_Node000032"><a xlink:title=" ">
<path fill="none" stroke="#63b8ff" d="M1216.16,-285.98C1062.1,-266.2 680.88,-217.24 517.65,-196.28"/>
<polygon fill="#63b8ff" stroke="#63b8ff" points="518.06,-192.8 507.69,-195 517.17,-199.75 518.06,-192.8"/>
</a>
</g>
</g>
<!-- Node15&#45;&gt;Node5 -->
<g id="edge18_Node000015_Node000005" class="edge">
<title>Node15&#45;&gt;Node5</title>
<g id="a_edge18_Node000015_Node000005"><a xlink:title=" ">
<path fill="none" stroke="#63b8ff" d="M1427.36,-175.79C1452.74,-153.65 1522.98,-94.18 1588.5,-55 1608.64,-42.96 1632.52,-31.48 1650.9,-23.2"/>
<polygon fill="#63b8ff" stroke="#63b8ff" points="1652.51,-26.32 1660.23,-19.06 1649.67,-19.92 1652.51,-26.32"/>
</a>
</g>
</g>
<!-- Node15&#45;&gt;Node10 -->
<g id="edge17_Node000015_Node000010" class="edge">
<title>Node15&#45;&gt;Node10</title>
<g id="a_edge17_Node000015_Node000010"><a xlink:title=" ">
<path fill="none" stroke="#63b8ff" d="M1437.26,-175.98C1457.23,-167.38 1488.3,-153.99 1511.15,-144.15"/>
<polygon fill="#63b8ff" stroke="#63b8ff" points="1512.58,-147.34 1520.38,-140.17 1509.81,-140.91 1512.58,-147.34"/>
</a>
</g>
</g>
<!-- Node15&#45;&gt;Node16 -->
<g id="edge19_Node000015_Node000016" class="edge">
<title>Node15&#45;&gt;Node16</title>
<g id="a_edge19_Node000015_Node000016"><a xlink:title=" ">
<path fill="none" stroke="#63b8ff" d="M1395.33,-175.98C1372.73,-167.3 1337.44,-153.75 1311.75,-143.88"/>
<polygon fill="#63b8ff" stroke="#63b8ff" points="1312.67,-140.49 1302.08,-140.17 1310.16,-147.02 1312.67,-140.49"/>
</a>
</g>
</g>
<!-- Node16&#45;&gt;Node6 -->
<g id="edge24_Node000016_Node000006" class="edge">
<title>Node16&#45;&gt;Node6</title>
<g id="a_edge24_Node000016_Node000006"><a xlink:title=" ">
<path fill="none" stroke="#63b8ff" d="M1196.31,-125.54C1099.96,-119.97 947.77,-107.84 895.5,-85 876.73,-76.8 879.37,-62.98 860.5,-55 819.04,-37.47 511.6,-18.39 408.27,-12.4"/>
<polygon fill="#63b8ff" stroke="#63b8ff" points="408.27,-8.9 398.08,-11.82 407.87,-15.88 408.27,-8.9"/>
</a>
</g>
</g>
<!-- Node16&#45;&gt;Node7 -->
<g id="edge25_Node000016_Node000007" class="edge">
<title>Node16&#45;&gt;Node7</title>
<g id="a_edge25_Node000016_Node000007"><a xlink:title=" ">
<path fill="none" stroke="#63b8ff" d="M1196.27,-126.99C1062.83,-122.36 792.91,-110.53 565.5,-85 553.4,-83.64 540.41,-81.75 528.29,-79.8"/>
<polygon fill="#63b8ff" stroke="#63b8ff" points="528.78,-76.34 518.35,-78.16 527.64,-83.24 528.78,-76.34"/>
</a>
</g>
</g>
<!-- Node16&#45;&gt;Node12 -->
<g id="edge23_Node000016_Node000012" class="edge">
<title>Node16&#45;&gt;Node12</title>
<g id="a_edge23_Node000016_Node000012"><a xlink:title=" ">
<path fill="none" stroke="#63b8ff" d="M1340.48,-120.99C1378.43,-114.29 1427.62,-103 1468.5,-85 1490.16,-75.46 1491.87,-66.6 1512.5,-55 1534.23,-42.78 1559.94,-31.2 1579.57,-22.93"/>
<polygon fill="#63b8ff" stroke="#63b8ff" points="1581.06,-26.1 1588.95,-19.02 1578.37,-19.63 1581.06,-26.1"/>
</a>
</g>
</g>
<!-- Node17 -->
<g id="Node000017" class="node">
<title>Node17</title>
<g id="a_Node000017"><a xlink:title=" ">
<polygon fill="#e0e0e0" stroke="#999999" points="1240.5,-79.5 1196.5,-79.5 1196.5,-60.5 1240.5,-60.5 1240.5,-79.5"/>
<text text-anchor="middle" x="1218.5" y="-67.5" font-family="Helvetica,sans-Serif" font-size="10.00">mpi.h</text>
</a>
</g>
</g>
<!-- Node16&#45;&gt;Node17 -->
<g id="edge20_Node000016_Node000017" class="edge">
<title>Node16&#45;&gt;Node17</title>
<g id="a_edge20_Node000016_Node000017"><a xlink:title=" ">
<path fill="none" stroke="#63b8ff" d="M1270.5,-120.87C1261.13,-111.88 1246.25,-97.61 1234.8,-86.64"/>
<polygon fill="#63b8ff" stroke="#63b8ff" points="1237.18,-84.06 1227.54,-79.67 1232.33,-89.12 1237.18,-84.06"/>
</a>
</g>
</g>
<!-- Node18 -->
<g id="Node000018" class="node">
<title>Node18</title>
<g id="a_Node000018"><a xlink:title=" ">
<polygon fill="#e0e0e0" stroke="#999999" points="1310.5,-79.5 1258.5,-79.5 1258.5,-60.5 1310.5,-60.5 1310.5,-79.5"/>
<text text-anchor="middle" x="1284.5" y="-67.5" font-family="Helvetica,sans-Serif" font-size="10.00">petsc.h</text>
</a>
</g>
</g>
<!-- Node16&#45;&gt;Node18 -->
<g id="edge21_Node000016_Node000018" class="edge">
<title>Node16&#45;&gt;Node18</title>
<g id="a_edge21_Node000016_Node000018"><a xlink:title=" ">
<path fill="none" stroke="#63b8ff" d="M1280.24,-120.87C1280.93,-112.75 1282,-100.31 1282.89,-89.89"/>
<polygon fill="#63b8ff" stroke="#63b8ff" points="1286.39,-89.93 1283.76,-79.67 1279.42,-89.33 1286.39,-89.93"/>
</a>
</g>
</g>
<!-- Node19 -->
<g id="Node000019" class="node">
<title>Node19</title>
<g id="a_Node000019"><a xlink:title=" ">
<polygon fill="#e0e0e0" stroke="#999999" points="889.5,-19 837.5,-19 837.5,0 889.5,0 889.5,-19"/>
<text text-anchor="middle" x="863.5" y="-7" font-family="Helvetica,sans-Serif" font-size="10.00">cassert</text>
</a>
</g>
</g>
<!-- Node16&#45;&gt;Node19 -->
<g id="edge22_Node000016_Node000019" class="edge">
<title>Node16&#45;&gt;Node19</title>
<g id="a_edge22_Node000016_Node000019"><a xlink:title=" ">
<path fill="none" stroke="#63b8ff" d="M1196.19,-124.85C1109.88,-118.94 981.58,-106.79 937.5,-85 910.78,-71.79 888.01,-45.07 875.04,-27.48"/>
<polygon fill="#63b8ff" stroke="#63b8ff" points="877.82,-25.36 869.18,-19.23 872.12,-29.41 877.82,-25.36"/>
</a>
</g>
</g>
<!-- Node20 -->
<g id="Node000020" class="node">
<title>Node20</title>
<g id="a_Node000020"><a xlink:href="crs__map_8hpp.html" target="_top" xlink:title=" ">
<polygon fill="white" stroke="#666666" points="1064,-85 947,-85 947,-55 1064,-55 1064,-85"/>
<text text-anchor="start" x="955" y="-73" font-family="Helvetica,sans-Serif" font-size="10.00">vulpes/datastructure</text>
<text text-anchor="middle" x="1005.5" y="-62" font-family="Helvetica,sans-Serif" font-size="10.00">/crs_map.hpp</text>
</a>
</g>
</g>
<!-- Node16&#45;&gt;Node20 -->
<g id="edge26_Node000016_Node000020" class="edge">
<title>Node16&#45;&gt;Node20</title>
<g id="a_edge26_Node000016_Node000020"><a xlink:title=" ">
<path fill="none" stroke="#63b8ff" d="M1239.66,-120.99C1196.29,-111.73 1126.17,-96.76 1073.95,-85.61"/>
<polygon fill="#63b8ff" stroke="#63b8ff" points="1074.6,-82.17 1064.09,-83.51 1073.14,-89.02 1074.6,-82.17"/>
</a>
</g>
</g>
<!-- Node25 -->
<g id="Node000025" class="node">
<title>Node25</title>
<g id="a_Node000025"><a xlink:href="profiler_8hpp.html" target="_top" xlink:title=" ">
<polygon fill="white" stroke="#666666" points="1460,-79.5 1329,-79.5 1329,-60.5 1460,-60.5 1460,-79.5"/>
<text text-anchor="middle" x="1394.5" y="-67.5" font-family="Helvetica,sans-Serif" font-size="10.00">vulpes/utils/profiler.hpp</text>
</a>
</g>
</g>
<!-- Node16&#45;&gt;Node25 -->
<g id="edge34_Node000016_Node000025" class="edge">
<title>Node16&#45;&gt;Node25</title>
<g id="a_edge34_Node000016_Node000025"><a xlink:title=" ">
<path fill="none" stroke="#63b8ff" d="M1296.47,-120.87C1315.41,-111.23 1346.29,-95.53 1368.33,-84.31"/>
<polygon fill="#63b8ff" stroke="#63b8ff" points="1370.14,-87.32 1377.46,-79.67 1366.96,-81.08 1370.14,-87.32"/>
</a>
</g>
</g>
<!-- Node20&#45;&gt;Node6 -->
<g id="edge33_Node000020_Node000006" class="edge">
<title>Node20&#45;&gt;Node6</title>
<g id="a_edge33_Node000020_Node000006"><a xlink:title=" ">
<path fill="none" stroke="#63b8ff" d="M946.79,-61.15C929.93,-59.01 911.5,-56.8 894.5,-55 711.28,-35.61 491.06,-18.95 408.2,-12.91"/>
<polygon fill="#63b8ff" stroke="#63b8ff" points="408.34,-9.41 398.11,-12.18 407.83,-16.4 408.34,-9.41"/>
</a>
</g>
</g>
<!-- Node20&#45;&gt;Node14 -->
<g id="edge31_Node000020_Node000014" class="edge">
<title>Node20&#45;&gt;Node14</title>
<g id="a_edge31_Node000020_Node000014"><a xlink:title=" ">
<path fill="none" stroke="#63b8ff" d="M1041.91,-54.99C1067.38,-45.18 1101.09,-32.21 1125.53,-22.81"/>
<polygon fill="#63b8ff" stroke="#63b8ff" points="1126.98,-26 1135.05,-19.14 1124.46,-19.46 1126.98,-26"/>
</a>
</g>
</g>
<!-- Node20&#45;&gt;Node19 -->
<g id="edge29_Node000020_Node000019" class="edge">
<title>Node20&#45;&gt;Node19</title>
<g id="a_edge29_Node000020_Node000019"><a xlink:title=" ">
<path fill="none" stroke="#63b8ff" d="M971.49,-54.99C947.9,-45.27 916.76,-32.44 893.98,-23.06"/>
<polygon fill="#63b8ff" stroke="#63b8ff" points="895.05,-19.71 884.47,-19.14 892.38,-26.18 895.05,-19.71"/>
</a>
</g>
</g>
<!-- Node21 -->
<g id="Node000021" class="node">
<title>Node21</title>
<g id="a_Node000021"><a xlink:title=" ">
<polygon fill="#e0e0e0" stroke="#999999" points="1116.5,-19 1052.5,-19 1052.5,0 1116.5,0 1116.5,-19"/>
<text text-anchor="middle" x="1084.5" y="-7" font-family="Helvetica,sans-Serif" font-size="10.00">algorithm</text>
</a>
</g>
</g>
<!-- Node20&#45;&gt;Node21 -->
<g id="edge27_Node000020_Node000021" class="edge">
<title>Node20&#45;&gt;Node21</title>
<g id="a_edge27_Node000020_Node000021"><a xlink:title=" ">
<path fill="none" stroke="#63b8ff" d="M1024.62,-54.84C1036.68,-45.91 1052.21,-34.41 1064.44,-25.35"/>
<polygon fill="#63b8ff" stroke="#63b8ff" points="1066.71,-28.03 1072.66,-19.27 1062.54,-22.4 1066.71,-28.03"/>
</a>
</g>
</g>
<!-- Node22 -->
<g id="Node000022" class="node">
<title>Node22</title>
<g id="a_Node000022"><a xlink:title=" ">
<polygon fill="#e0e0e0" stroke="#999999" points="638.5,-19 596.5,-19 596.5,0 638.5,0 638.5,-19"/>
<text text-anchor="middle" x="617.5" y="-7" font-family="Helvetica,sans-Serif" font-size="10.00">array</text>
</a>
</g>
</g>
<!-- Node20&#45;&gt;Node22 -->
<g id="edge28_Node000020_Node000022" class="edge">
<title>Node20&#45;&gt;Node22</title>
<g id="a_edge28_Node000020_Node000022"><a xlink:title=" ">
<path fill="none" stroke="#63b8ff" d="M946.99,-60.18C863.57,-47.6 713.38,-24.96 648.61,-15.19"/>
<polygon fill="#63b8ff" stroke="#63b8ff" points="649.03,-11.71 638.62,-13.68 647.99,-18.64 649.03,-11.71"/>
</a>
</g>
</g>
<!-- Node23 -->
<g id="Node000023" class="node">
<title>Node23</title>
<g id="a_Node000023"><a xlink:title=" ">
<polygon fill="#e0e0e0" stroke="#999999" points="1034,-19 977,-19 977,0 1034,0 1034,-19"/>
<text text-anchor="middle" x="1005.5" y="-7" font-family="Helvetica,sans-Serif" font-size="10.00">ostream</text>
</a>
</g>
</g>
<!-- Node20&#45;&gt;Node23 -->
<g id="edge30_Node000020_Node000023" class="edge">
<title>Node20&#45;&gt;Node23</title>
<g id="a_edge30_Node000020_Node000023"><a xlink:title=" ">
<path fill="none" stroke="#63b8ff" d="M1005.5,-54.84C1005.5,-47.21 1005.5,-37.7 1005.5,-29.45"/>
<polygon fill="#63b8ff" stroke="#63b8ff" points="1009,-29.27 1005.5,-19.27 1002,-29.27 1009,-29.27"/>
</a>
</g>
</g>
<!-- Node24 -->
<g id="Node000024" class="node">
<title>Node24</title>
<g id="a_Node000024"><a xlink:title=" ">
<polygon fill="#e0e0e0" stroke="#999999" points="959,-19 908,-19 908,0 959,0 959,-19"/>
<text text-anchor="middle" x="933.5" y="-7" font-family="Helvetica,sans-Serif" font-size="10.00">variant</text>
</a>
</g>
</g>
<!-- Node20&#45;&gt;Node24 -->
<g id="edge32_Node000020_Node000024" class="edge">
<title>Node20&#45;&gt;Node24</title>
<g id="a_edge32_Node000020_Node000024"><a xlink:title=" ">
<path fill="none" stroke="#63b8ff" d="M988.07,-54.84C977.19,-46 963.2,-34.63 952.11,-25.62"/>
<polygon fill="#63b8ff" stroke="#63b8ff" points="954.26,-22.86 944.29,-19.27 949.84,-28.29 954.26,-22.86"/>
</a>
</g>
</g>
<!-- Node25&#45;&gt;Node5 -->
<g id="edge40_Node000025_Node000005" class="edge">
<title>Node25&#45;&gt;Node5</title>
<g id="a_edge40_Node000025_Node000005"><a xlink:title=" ">
<path fill="none" stroke="#63b8ff" d="M1443.62,-60.48C1493.02,-51.67 1571.58,-36.97 1648.36,-19.13"/>
<polygon fill="#63b8ff" stroke="#63b8ff" points="1649.26,-22.52 1658.2,-16.83 1647.66,-15.7 1649.26,-22.52"/>
</a>
</g>
</g>
<!-- Node25&#45;&gt;Node6 -->
<g id="edge43_Node000025_Node000006" class="edge">
<title>Node25&#45;&gt;Node6</title>
<g id="a_edge43_Node000025_Node000006"><a xlink:title=" ">
<path fill="none" stroke="#63b8ff" d="M1354.56,-60.49C1343.28,-58.37 1330.95,-56.33 1319.5,-55 1273.45,-49.64 573.37,-19.11 408.9,-11.99"/>
<polygon fill="#63b8ff" stroke="#63b8ff" points="408.57,-8.47 398.43,-11.53 408.27,-15.46 408.57,-8.47"/>
</a>
</g>
</g>
<!-- Node25&#45;&gt;Node11 -->
<g id="edge37_Node000025_Node000011" class="edge">
<title>Node25&#45;&gt;Node11</title>
<g id="a_edge37_Node000025_Node000011"><a xlink:title=" ">
<path fill="none" stroke="#63b8ff" d="M1354.96,-60.49C1343.57,-58.34 1331.08,-56.29 1319.5,-55 887.2,-6.96 773.54,-69.33 341.5,-19 339.43,-18.76 337.32,-18.47 335.19,-18.15"/>
<polygon fill="#63b8ff" stroke="#63b8ff" points="335.68,-14.69 325.23,-16.46 334.51,-21.59 335.68,-14.69"/>
</a>
</g>
</g>
<!-- Node25&#45;&gt;Node12 -->
<g id="edge39_Node000025_Node000012" class="edge">
<title>Node25&#45;&gt;Node12</title>
<g id="a_edge39_Node000025_Node000012"><a xlink:title=" ">
<path fill="none" stroke="#63b8ff" d="M1425.91,-60.49C1464.17,-50.13 1528.87,-32.61 1570.62,-21.3"/>
<polygon fill="#63b8ff" stroke="#63b8ff" points="1571.71,-24.63 1580.45,-18.64 1569.88,-17.88 1571.71,-24.63"/>
</a>
</g>
</g>
<!-- Node25&#45;&gt;Node14 -->
<g id="edge42_Node000025_Node000014" class="edge">
<title>Node25&#45;&gt;Node14</title>
<g id="a_edge42_Node000025_Node000014"><a xlink:title=" ">
<path fill="none" stroke="#63b8ff" d="M1358.52,-60.46C1319.55,-51.16 1255.27,-35.66 1190.23,-19.15"/>
<polygon fill="#63b8ff" stroke="#63b8ff" points="1190.77,-15.67 1180.21,-16.59 1189.04,-22.45 1190.77,-15.67"/>
</a>
</g>
</g>
<!-- Node25&#45;&gt;Node21 -->
<g id="edge35_Node000025_Node000021" class="edge">
<title>Node25&#45;&gt;Node21</title>
<g id="a_edge35_Node000025_Node000021"><a xlink:title=" ">
<path fill="none" stroke="#63b8ff" d="M1348.89,-60.48C1339.19,-58.67 1329.01,-56.77 1319.5,-55 1236.4,-39.53 1213.2,-36.14 1126.72,-19.21"/>
<polygon fill="#63b8ff" stroke="#63b8ff" points="1127.2,-15.74 1116.72,-17.25 1125.85,-22.61 1127.2,-15.74"/>
</a>
</g>
</g>
<!-- Node26 -->
<g id="Node000026" class="node">
<title>Node26</title>
<g id="a_Node000026"><a xlink:title=" ">
<polygon fill="#e0e0e0" stroke="#999999" points="1248.5,-19 1198.5,-19 1198.5,0 1248.5,0 1248.5,-19"/>
<text text-anchor="middle" x="1223.5" y="-7" font-family="Helvetica,sans-Serif" font-size="10.00">chrono</text>
</a>
</g>
</g>
<!-- Node25&#45;&gt;Node26 -->
<g id="edge36_Node000025_Node000026" class="edge">
<title>Node25&#45;&gt;Node26</title>
<g id="a_edge36_Node000025_Node000026"><a xlink:title=" ">
<path fill="none" stroke="#63b8ff" d="M1369.64,-60.49C1340.25,-50.44 1291.19,-33.66 1258.11,-22.34"/>
<polygon fill="#63b8ff" stroke="#63b8ff" points="1258.99,-18.94 1248.39,-19.02 1256.72,-25.57 1258.99,-18.94"/>
</a>
</g>
</g>
<!-- Node27 -->
<g id="Node000027" class="node">
<title>Node27</title>
<g id="a_Node000027"><a xlink:title=" ">
<polygon fill="#e0e0e0" stroke="#999999" points="1322.5,-19 1266.5,-19 1266.5,0 1322.5,0 1322.5,-19"/>
<text text-anchor="middle" x="1294.5" y="-7" font-family="Helvetica,sans-Serif" font-size="10.00">iomanip</text>
</a>
</g>
</g>
<!-- Node25&#45;&gt;Node27 -->
<g id="edge38_Node000025_Node000027" class="edge">
<title>Node25&#45;&gt;Node27</title>
<g id="a_edge38_Node000025_Node000027"><a xlink:title=" ">
<path fill="none" stroke="#63b8ff" d="M1379.74,-60.37C1363.5,-50.86 1337.15,-35.45 1318.04,-24.27"/>
<polygon fill="#63b8ff" stroke="#63b8ff" points="1319.71,-21.2 1309.32,-19.17 1316.18,-27.24 1319.71,-21.2"/>
</a>
</g>
</g>
<!-- Node28 -->
<g id="Node000028" class="node">
<title>Node28</title>
<g id="a_Node000028"><a xlink:title=" ">
<polygon fill="#e0e0e0" stroke="#999999" points="1434,-19 1341,-19 1341,0 1434,0 1434,-19"/>
<text text-anchor="middle" x="1387.5" y="-7" font-family="Helvetica,sans-Serif" font-size="10.00">unordered_map</text>
</a>
</g>
</g>
<!-- Node25&#45;&gt;Node28 -->
<g id="edge41_Node000025_Node000028" class="edge">
<title>Node25&#45;&gt;Node28</title>
<g id="a_edge41_Node000025_Node000028"><a xlink:title=" ">
<path fill="none" stroke="#63b8ff" d="M1393.47,-60.37C1392.5,-52.25 1391.01,-39.81 1389.76,-29.39"/>
<polygon fill="#63b8ff" stroke="#63b8ff" points="1393.2,-28.68 1388.54,-19.17 1386.25,-29.51 1393.2,-28.68"/>
</a>
</g>
</g>
<!-- Node29 -->
<g id="Node000029" class="node">
<title>Node29</title>
<g id="a_Node000029"><a xlink:title=" ">
<polygon fill="#e0e0e0" stroke="#999999" points="1562.5,-19 1452.5,-19 1452.5,0 1562.5,0 1562.5,-19"/>
<text text-anchor="middle" x="1507.5" y="-7" font-family="Helvetica,sans-Serif" font-size="10.00">nlohmann/json.hpp</text>
</a>
</g>
</g>
<!-- Node25&#45;&gt;Node29 -->
<g id="edge44_Node000025_Node000029" class="edge">
<title>Node25&#45;&gt;Node29</title>
<g id="a_edge44_Node000025_Node000029"><a xlink:title=" ">
<path fill="none" stroke="#63b8ff" d="M1411.17,-60.37C1429.78,-50.73 1460.12,-35.03 1481.78,-23.81"/>
<polygon fill="#63b8ff" stroke="#63b8ff" points="1483.49,-26.87 1490.76,-19.17 1480.27,-20.66 1483.49,-26.87"/>
</a>
</g>
</g>
<!-- Node30&#45;&gt;Node5 -->
<g id="edge51_Node000030_Node000005" class="edge">
<title>Node30&#45;&gt;Node5</title>
<g id="a_edge51_Node000030_Node000005"><a xlink:title=" ">
<path fill="none" stroke="#63b8ff" d="M1145.02,-236.35C1241.44,-230.54 1431.32,-216.73 1494.5,-195 1516.49,-187.44 1566.34,-155.69 1583.5,-140 1603.32,-121.88 1647.65,-58.58 1668.82,-27.7"/>
<polygon fill="#63b8ff" stroke="#63b8ff" points="1671.84,-29.48 1674.59,-19.24 1666.06,-25.53 1671.84,-29.48"/>
</a>
</g>
</g>
<!-- Node30&#45;&gt;Node6 -->
<g id="edge53_Node000030_Node000006" class="edge">
<title>Node30&#45;&gt;Node6</title>
<g id="a_edge53_Node000030_Node000006"><a xlink:title=" ">
<path fill="none" stroke="#63b8ff" d="M1029.73,-238.13C860.86,-233.83 378.51,-219.45 355.5,-195 312.13,-148.92 346.55,-64.86 364.88,-28.29"/>
<polygon fill="#63b8ff" stroke="#63b8ff" points="368.04,-29.79 369.54,-19.3 361.83,-26.56 368.04,-29.79"/>
</a>
</g>
</g>
<!-- Node30&#45;&gt;Node7 -->
<g id="edge54_Node000030_Node000007" class="edge">
<title>Node30&#45;&gt;Node7</title>
<g id="a_edge54_Node000030_Node000007"><a xlink:title=" ">
<path fill="none" stroke="#63b8ff" d="M1029.88,-231.19C941.83,-217.57 769.2,-187.19 628.5,-140 583.09,-124.77 533.11,-99.81 504.11,-84.45"/>
<polygon fill="#63b8ff" stroke="#63b8ff" points="505.59,-81.27 495.12,-79.64 502.29,-87.45 505.59,-81.27"/>
</a>
</g>
</g>
<!-- Node30&#45;&gt;Node10 -->
<g id="edge46_Node000030_Node000010" class="edge">
<title>Node30&#45;&gt;Node10</title>
<g id="a_edge46_Node000030_Node000010"><a xlink:title=" ">
<path fill="none" stroke="#63b8ff" d="M1120.05,-230.98C1167.99,-218.5 1260.47,-194.7 1339.5,-176 1393.37,-163.25 1455.62,-149.64 1496.4,-140.88"/>
<polygon fill="#63b8ff" stroke="#63b8ff" points="1497.25,-144.28 1506.29,-138.76 1495.78,-137.43 1497.25,-144.28"/>
</a>
</g>
</g>
<!-- Node30&#45;&gt;Node11 -->
<g id="edge49_Node000030_Node000011" class="edge">
<title>Node30&#45;&gt;Node11</title>
<g id="a_edge49_Node000030_Node000011"><a xlink:title=" ">
<path fill="none" stroke="#63b8ff" d="M1029.95,-239.99C863.76,-240.87 391.61,-239.4 339.5,-195 290.61,-153.34 292.52,-67.51 296.12,-29.43"/>
<polygon fill="#63b8ff" stroke="#63b8ff" points="299.63,-29.56 297.24,-19.24 292.67,-28.8 299.63,-29.56"/>
</a>
</g>
</g>
<!-- Node30&#45;&gt;Node13 -->
<g id="edge50_Node000030_Node000013" class="edge">
<title>Node30&#45;&gt;Node13</title>
<g id="a_edge50_Node000030_Node000013"><a xlink:title=" ">
<path fill="none" stroke="#63b8ff" d="M1145.15,-235.43C1229.58,-229.08 1391.69,-215.38 1528.5,-195 1529.77,-194.81 1531.06,-194.61 1532.36,-194.4"/>
<polygon fill="#63b8ff" stroke="#63b8ff" points="1533.18,-197.81 1542.42,-192.64 1531.97,-190.91 1533.18,-197.81"/>
</a>
</g>
</g>
<!-- Node30&#45;&gt;Node14 -->
<g id="edge52_Node000030_Node000014" class="edge">
<title>Node30&#45;&gt;Node14</title>
<g id="a_edge52_Node000030_Node000014"><a xlink:title=" ">
<path fill="none" stroke="#63b8ff" d="M1090.21,-230.98C1093.05,-222.03 1097.63,-207.54 1101.5,-195 1120.24,-134.37 1141.93,-62.36 1151.93,-29.08"/>
<polygon fill="#63b8ff" stroke="#63b8ff" points="1155.33,-29.93 1154.85,-19.34 1148.62,-27.91 1155.33,-29.93"/>
</a>
</g>
</g>
<!-- Node30&#45;&gt;Node15 -->
<g id="edge55_Node000030_Node000015" class="edge">
<title>Node30&#45;&gt;Node15</title>
<g id="a_edge55_Node000030_Node000015"><a xlink:title=" ">
<path fill="none" stroke="#63b8ff" d="M1140.52,-230.98C1198.77,-221.63 1292.27,-206.61 1354.28,-196.65"/>
<polygon fill="#63b8ff" stroke="#63b8ff" points="1355.02,-200.08 1364.34,-195.04 1353.91,-193.17 1355.02,-200.08"/>
</a>
</g>
</g>
<!-- Node30&#45;&gt;Node16 -->
<g id="edge56_Node000030_Node000016" class="edge">
<title>Node30&#45;&gt;Node16</title>
<g id="a_edge56_Node000030_Node000016"><a xlink:title=" ">
<path fill="none" stroke="#63b8ff" d="M1102.89,-230.84C1136.25,-212.08 1215.46,-167.52 1255.48,-145.01"/>
<polygon fill="#63b8ff" stroke="#63b8ff" points="1257.31,-148 1264.31,-140.05 1253.87,-141.9 1257.31,-148"/>
</a>
</g>
</g>
<!-- Node30&#45;&gt;Node21 -->
<g id="edge48_Node000030_Node000021" class="edge">
<title>Node30&#45;&gt;Node21</title>
<g id="a_edge48_Node000030_Node000021"><a xlink:title=" ">
<path fill="none" stroke="#63b8ff" d="M1087.39,-230.8C1086.95,-197.36 1085.37,-76.59 1084.75,-29.49"/>
<polygon fill="#63b8ff" stroke="#63b8ff" points="1088.24,-29.16 1084.61,-19.21 1081.25,-29.25 1088.24,-29.16"/>
</a>
</g>
</g>
<!-- Node31 -->
<g id="Node000031" class="node">
<title>Node31</title>
<g id="a_Node000031"><a xlink:title=" ">
<polygon fill="#e0e0e0" stroke="#999999" points="606,-195 537,-195 537,-176 606,-176 606,-195"/>
<text text-anchor="middle" x="571.5" y="-183" font-family="Helvetica,sans-Serif" font-size="10.00">petscvec.h</text>
</a>
</g>
</g>
<!-- Node30&#45;&gt;Node31 -->
<g id="edge47_Node000030_Node000031" class="edge">
<title>Node30&#45;&gt;Node31</title>
<g id="a_edge47_Node000030_Node000031"><a xlink:title=" ">
<path fill="none" stroke="#63b8ff" d="M1029.82,-235.44C941.47,-228.89 767.41,-214.71 620.5,-195 619.2,-194.83 617.88,-194.64 616.55,-194.45"/>
<polygon fill="#63b8ff" stroke="#63b8ff" points="616.66,-190.93 606.25,-192.87 615.6,-197.85 616.66,-190.93"/>
</a>
</g>
</g>
<!-- Node32&#45;&gt;Node6 -->
<g id="edge60_Node000032_Node000006" class="edge">
<title>Node32&#45;&gt;Node6</title>
<g id="a_edge60_Node000032_Node000006"><a xlink:title=" ">
<path fill="none" stroke="#63b8ff" d="M437.42,-175.83C429.42,-158.69 411.35,-119.17 398.5,-85 391.42,-66.17 384.5,-44.2 379.92,-29.02"/>
<polygon fill="#63b8ff" stroke="#63b8ff" points="383.24,-27.9 377.04,-19.31 376.53,-29.89 383.24,-27.9"/>
</a>
</g>
</g>
<!-- Node32&#45;&gt;Node11 -->
<g id="edge59_Node000032_Node000011" class="edge">
<title>Node32&#45;&gt;Node11</title>
<g id="a_edge59_Node000032_Node000011"><a xlink:title=" ">
<path fill="none" stroke="#63b8ff" d="M434.21,-175.63C411.55,-148.05 342.03,-63.47 312.26,-27.25"/>
<polygon fill="#63b8ff" stroke="#63b8ff" points="314.66,-24.65 305.6,-19.14 309.25,-29.09 314.66,-24.65"/>
</a>
</g>
</g>
<!-- Node32&#45;&gt;Node22 -->
<g id="edge58_Node000032_Node000022" class="edge">
<title>Node32&#45;&gt;Node22</title>
<g id="a_edge58_Node000032_Node000022"><a xlink:title=" ">
<path fill="none" stroke="#63b8ff" d="M440.18,-175.95C436.04,-148.6 424.03,-64.47 431.5,-55 450.43,-31.01 538.31,-18.51 586.19,-13.38"/>
<polygon fill="#63b8ff" stroke="#63b8ff" points="586.73,-16.85 596.32,-12.34 586.01,-9.88 586.73,-16.85"/>
</a>
</g>
</g>
<!-- Node33 -->
<g id="Node000033" class="node">
<title>Node33</title>
<g id="a_Node000033"><a xlink:href="vmath_8hpp.html" target="_top" xlink:title=" ">
<polygon fill="white" stroke="#666666" points="765.5,-140 637.5,-140 637.5,-121 765.5,-121 765.5,-140"/>
<text text-anchor="middle" x="701.5" y="-128" font-family="Helvetica,sans-Serif" font-size="10.00">vulpes/utils/vmath.hpp</text>
</a>
</g>
</g>
<!-- Node32&#45;&gt;Node33 -->
<g id="edge61_Node000032_Node000033" class="edge">
<title>Node32&#45;&gt;Node33</title>
<g id="a_edge61_Node000032_Node000033"><a xlink:title=" ">
<path fill="none" stroke="#63b8ff" d="M483.27,-175.98C528.44,-166.78 600.5,-152.09 649.35,-142.13"/>
<polygon fill="#63b8ff" stroke="#63b8ff" points="650.3,-145.51 659.4,-140.08 648.9,-138.65 650.3,-145.51"/>
</a>
</g>
</g>
<!-- Node33&#45;&gt;Node7 -->
<g id="edge67_Node000033_Node000007" class="edge">
<title>Node33&#45;&gt;Node7</title>
<g id="a_edge67_Node000033_Node000007"><a xlink:title=" ">
<path fill="none" stroke="#63b8ff" d="M669.1,-120.98C635.08,-112.02 580.03,-97.53 532.5,-85 528.93,-84.06 525.23,-83.08 521.51,-82.1"/>
<polygon fill="#63b8ff" stroke="#63b8ff" points="522.29,-78.69 511.73,-79.52 520.51,-85.46 522.29,-78.69"/>
</a>
</g>
</g>
<!-- Node33&#45;&gt;Node11 -->
<g id="edge63_Node000033_Node000011" class="edge">
<title>Node33&#45;&gt;Node11</title>
<g id="a_edge63_Node000033_Node000011"><a xlink:title=" ">
<path fill="none" stroke="#63b8ff" d="M664.35,-120.99C636.21,-113.7 597.13,-101.71 565.5,-85 546.16,-74.79 546.43,-64 526.5,-55 450.15,-20.54 423.7,-35.12 341.5,-19 339.46,-18.6 337.36,-18.19 335.25,-17.77"/>
<polygon fill="#63b8ff" stroke="#63b8ff" points="335.82,-14.32 325.33,-15.82 334.47,-21.19 335.82,-14.32"/>
</a>
</g>
</g>
<!-- Node34 -->
<g id="Node000034" class="node">
<title>Node34</title>
<g id="a_Node000034"><a xlink:title=" ">
<polygon fill="#e0e0e0" stroke="#999999" points="634,-79.5 575,-79.5 575,-60.5 634,-60.5 634,-79.5"/>
<text text-anchor="middle" x="604.5" y="-67.5" font-family="Helvetica,sans-Serif" font-size="10.00">gmpxx.h</text>
</a>
</g>
</g>
<!-- Node33&#45;&gt;Node34 -->
<g id="edge62_Node000033_Node000034" class="edge">
<title>Node33&#45;&gt;Node34</title>
<g id="a_edge62_Node000033_Node000034"><a xlink:title=" ">
<path fill="none" stroke="#63b8ff" d="M687.19,-120.87C671.5,-111.41 646.1,-96.09 627.59,-84.92"/>
<polygon fill="#63b8ff" stroke="#63b8ff" points="629.24,-81.83 618.87,-79.67 625.63,-87.83 629.24,-81.83"/>
</a>
</g>
</g>
<!-- Node35 -->
<g id="Node000035" class="node">
<title>Node35</title>
<g id="a_Node000035"><a xlink:title=" ">
<polygon fill="#e0e0e0" stroke="#999999" points="702.5,-79.5 652.5,-79.5 652.5,-60.5 702.5,-60.5 702.5,-79.5"/>
<text text-anchor="middle" x="677.5" y="-67.5" font-family="Helvetica,sans-Serif" font-size="10.00">cstdint</text>
</a>
</g>
</g>
<!-- Node33&#45;&gt;Node35 -->
<g id="edge64_Node000033_Node000035" class="edge">
<title>Node33&#45;&gt;Node35</title>
<g id="a_edge64_Node000033_Node000035"><a xlink:title=" ">
<path fill="none" stroke="#63b8ff" d="M697.96,-120.87C694.56,-112.57 689.31,-99.78 684.98,-89.22"/>
<polygon fill="#63b8ff" stroke="#63b8ff" points="688.09,-87.59 681.06,-79.67 681.61,-90.25 688.09,-87.59"/>
</a>
</g>
</g>
<!-- Node36 -->
<g id="Node000036" class="node">
<title>Node36</title>
<g id="a_Node000036"><a xlink:title=" ">
<polygon fill="#e0e0e0" stroke="#999999" points="764.5,-79.5 720.5,-79.5 720.5,-60.5 764.5,-60.5 764.5,-79.5"/>
<text text-anchor="middle" x="742.5" y="-67.5" font-family="Helvetica,sans-Serif" font-size="10.00">limits</text>
</a>
</g>
</g>
<!-- Node33&#45;&gt;Node36 -->
<g id="edge65_Node000033_Node000036" class="edge">
<title>Node33&#45;&gt;Node36</title>
<g id="a_edge65_Node000033_Node000036"><a xlink:title=" ">
<path fill="none" stroke="#63b8ff" d="M707.55,-120.87C713.61,-112.23 723.09,-98.7 730.64,-87.92"/>
<polygon fill="#63b8ff" stroke="#63b8ff" points="733.55,-89.87 736.43,-79.67 727.82,-85.85 733.55,-89.87"/>
</a>
</g>
</g>
<!-- Node37 -->
<g id="Node000037" class="node">
<title>Node37</title>
<g id="a_Node000037"><a xlink:title=" ">
<polygon fill="#e0e0e0" stroke="#999999" points="852,-79.5 783,-79.5 783,-60.5 852,-60.5 852,-79.5"/>
<text text-anchor="middle" x="817.5" y="-67.5" font-family="Helvetica,sans-Serif" font-size="10.00">type_traits</text>
</a>
</g>
</g>
<!-- Node33&#45;&gt;Node37 -->
<g id="edge66_Node000033_Node000037" class="edge">
<title>Node33&#45;&gt;Node37</title>
<g id="a_edge66_Node000033_Node000037"><a xlink:title=" ">
<path fill="none" stroke="#63b8ff" d="M718.62,-120.87C737.72,-111.23 768.87,-95.53 791.1,-84.31"/>
<polygon fill="#63b8ff" stroke="#63b8ff" points="792.96,-87.3 800.31,-79.67 789.81,-81.05 792.96,-87.3"/>
</a>
</g>
</g>
</g>
</svg>
