<?xml version="1.0" encoding="UTF-8" standalone="no"?>
<!DOCTYPE svg PUBLIC "-//W3C//DTD SVG 1.1//EN"
 "http://www.w3.org/Graphics/SVG/1.1/DTD/svg11.dtd">
<!-- Generated by graphviz version 2.42.4 (0)
 -->
<!-- Title: /__w/vulpes/vulpes/vulpes/datastructure/kdtree.hpp Pages: 1 -->
<svg width="950pt" height="170pt"
 viewBox="0.00 0.00 950.00 170.00" xmlns="http://www.w3.org/2000/svg" xmlns:xlink="http://www.w3.org/1999/xlink">
<g id="graph0" class="graph" transform="scale(1 1) rotate(0) translate(4 166)">
<title>/__w/vulpes/vulpes/vulpes/datastructure/kdtree.hpp</title>
<!-- Node1 -->
<g id="Node000001" class="node">
<title>Node1</title>
<g id="a_Node000001"><a xlink:title=" ">
<polygon fill="#999999" stroke="#666666" points="402,-162 282,-162 282,-121 402,-121 402,-162"/>
<text text-anchor="start" x="290" y="-150" font-family="Helvetica,sans-Serif" font-size="10.00">/__w/vulpes/vulpes</text>
<text text-anchor="start" x="290" y="-139" font-family="Helvetica,sans-Serif" font-size="10.00">/vulpes/datastructure</text>
<text text-anchor="middle" x="342" y="-128" font-family="Helvetica,sans-Serif" font-size="10.00">/kdtree.hpp</text>
</a>
</g>
</g>
<!-- Node2 -->
<g id="Node000002" class="node">
<title>Node2</title>
<g id="a_Node000002"><a xlink:title=" ">
<polygon fill="#e0e0e0" stroke="#999999" points="64,-19 0,-19 0,0 64,0 64,-19"/>
<text text-anchor="middle" x="32" y="-7" font-family="Helvetica,sans-Serif" font-size="10.00">algorithm</text>
</a>
</g>
</g>
<!-- Node1&#45;&gt;Node2 -->
<g id="edge1_Node000001_Node000002" class="edge">
<title>Node1&#45;&gt;Node2</title>
<g id="a_edge1_Node000001_Node000002"><a xlink:title=" ">
<path fill="none" stroke="#63b8ff" d="M281.62,-122.59C250.03,-112.62 210.97,-99.34 177,-85 132.96,-66.4 83.91,-39.92 55.64,-24.04"/>
<polygon fill="#63b8ff" stroke="#63b8ff" points="57.31,-20.97 46.88,-19.1 53.87,-27.06 57.31,-20.97"/>
</a>
</g>
</g>
<!-- Node3 -->
<g id="Node000003" class="node">
<title>Node3</title>
<g id="a_Node000003"><a xlink:title=" ">
<polygon fill="#e0e0e0" stroke="#999999" points="524,-79.5 482,-79.5 482,-60.5 524,-60.5 524,-79.5"/>
<text text-anchor="middle" x="503" y="-67.5" font-family="Helvetica,sans-Serif" font-size="10.00">array</text>
</a>
</g>
</g>
<!-- Node1&#45;&gt;Node3 -->
<g id="edge2_Node000001_Node000003" class="edge">
<title>Node1&#45;&gt;Node3</title>
<g id="a_edge2_Node000001_Node000003"><a xlink:title=" ">
<path fill="none" stroke="#63b8ff" d="M389.17,-121C414.17,-110.54 445.36,-97.3 473,-85 473.85,-84.62 474.71,-84.24 475.58,-83.84"/>
<polygon fill="#63b8ff" stroke="#63b8ff" points="477.33,-86.89 484.96,-79.54 474.41,-80.53 477.33,-86.89"/>
</a>
</g>
</g>
<!-- Node4 -->
<g id="Node000004" class="node">
<title>Node4</title>
<g id="a_Node000004"><a xlink:title=" ">
<polygon fill="#e0e0e0" stroke="#999999" points="134,-19 82,-19 82,0 134,0 134,-19"/>
<text text-anchor="middle" x="108" y="-7" font-family="Helvetica,sans-Serif" font-size="10.00">cassert</text>
</a>
</g>
</g>
<!-- Node1&#45;&gt;Node4 -->
<g id="edge3_Node000001_Node000004" class="edge">
<title>Node1&#45;&gt;Node4</title>
<g id="a_edge3_Node000001_Node000004"><a xlink:title=" ">
<path fill="none" stroke="#63b8ff" d="M301.4,-120.91C280.48,-110.59 254.66,-97.5 232,-85 195.73,-64.99 154.73,-39.84 130.14,-24.48"/>
<polygon fill="#63b8ff" stroke="#63b8ff" points="131.9,-21.45 121.57,-19.1 128.18,-27.38 131.9,-21.45"/>
</a>
</g>
</g>
<!-- Node5 -->
<g id="Node000005" class="node">
<title>Node5</title>
<g id="a_Node000005"><a xlink:title=" ">
<polygon fill="#e0e0e0" stroke="#999999" points="202,-19 152,-19 152,0 202,0 202,-19"/>
<text text-anchor="middle" x="177" y="-7" font-family="Helvetica,sans-Serif" font-size="10.00">cstdint</text>
</a>
</g>
</g>
<!-- Node1&#45;&gt;Node5 -->
<g id="edge4_Node000001_Node000005" class="edge">
<title>Node1&#45;&gt;Node5</title>
<g id="a_edge4_Node000001_Node000005"><a xlink:title=" ">
<path fill="none" stroke="#63b8ff" d="M316.94,-120.76C283.63,-94.51 225.51,-48.72 195.74,-25.26"/>
<polygon fill="#63b8ff" stroke="#63b8ff" points="197.83,-22.45 187.8,-19.01 193.49,-27.95 197.83,-22.45"/>
</a>
</g>
</g>
<!-- Node6 -->
<g id="Node000006" class="node">
<title>Node6</title>
<g id="a_Node000006"><a xlink:title=" ">
<polygon fill="#e0e0e0" stroke="#999999" points="586,-79.5 542,-79.5 542,-60.5 586,-60.5 586,-79.5"/>
<text text-anchor="middle" x="564" y="-67.5" font-family="Helvetica,sans-Serif" font-size="10.00">limits</text>
</a>
</g>
</g>
<!-- Node1&#45;&gt;Node6 -->
<g id="edge5_Node000001_Node000006" class="edge">
<title>Node1&#45;&gt;Node6</title>
<g id="a_edge5_Node000001_Node000006"><a xlink:title=" ">
<path fill="none" stroke="#63b8ff" d="M402.07,-125.39C440.04,-115.26 489.91,-100.9 533,-85 534.22,-84.55 535.45,-84.08 536.69,-83.58"/>
<polygon fill="#63b8ff" stroke="#63b8ff" points="538.3,-86.7 546.15,-79.58 535.57,-80.26 538.3,-86.7"/>
</a>
</g>
</g>
<!-- Node7 -->
<g id="Node000007" class="node">
<title>Node7</title>
<g id="a_Node000007"><a xlink:title=" ">
<polygon fill="#e0e0e0" stroke="#999999" points="276,-19 220,-19 220,0 276,0 276,-19"/>
<text text-anchor="middle" x="248" y="-7" font-family="Helvetica,sans-Serif" font-size="10.00">numeric</text>
</a>
</g>
</g>
<!-- Node1&#45;&gt;Node7 -->
<g id="edge6_Node000001_Node000007" class="edge">
<title>Node1&#45;&gt;Node7</title>
<g id="a_edge6_Node000001_Node000007"><a xlink:title=" ">
<path fill="none" stroke="#63b8ff" d="M327.72,-120.76C309.23,-95.18 277.33,-51.06 260.02,-27.12"/>
<polygon fill="#63b8ff" stroke="#63b8ff" points="262.85,-25.07 254.16,-19.01 257.18,-29.17 262.85,-25.07"/>
</a>
</g>
</g>
<!-- Node8 -->
<g id="Node000008" class="node">
<title>Node8</title>
<g id="a_Node000008"><a xlink:title=" ">
<polygon fill="#e0e0e0" stroke="#999999" points="649.5,-79.5 604.5,-79.5 604.5,-60.5 649.5,-60.5 649.5,-79.5"/>
<text text-anchor="middle" x="627" y="-67.5" font-family="Helvetica,sans-Serif" font-size="10.00">utility</text>
</a>
</g>
</g>
<!-- Node1&#45;&gt;Node8 -->
<g id="edge7_Node000001_Node000008" class="edge">
<title>Node1&#45;&gt;Node8</title>
<g id="a_edge7_Node000001_Node000008"><a xlink:title=" ">
<path fill="none" stroke="#63b8ff" d="M402.18,-130.74C454,-121.52 530.42,-105.98 595,-85 596.44,-84.53 597.91,-84.02 599.38,-83.48"/>
<polygon fill="#63b8ff" stroke="#63b8ff" points="600.99,-86.6 608.96,-79.63 598.38,-80.11 600.99,-86.6"/>
</a>
</g>
</g>
<!-- Node9 -->
<g id="Node000009" class="node">
<title>Node9</title>
<g id="a_Node000009"><a xlink:title=" ">
<polygon fill="#e0e0e0" stroke="#999999" points="341.5,-19 294.5,-19 294.5,0 341.5,0 341.5,-19"/>
<text text-anchor="middle" x="318" y="-7" font-family="Helvetica,sans-Serif" font-size="10.00">vector</text>
</a>
</g>
</g>
<!-- Node1&#45;&gt;Node9 -->
<g id="edge8_Node000001_Node000009" class="edge">
<title>Node1&#45;&gt;Node9</title>
<g id="a_edge8_Node000001_Node000009"><a xlink:title=" ">
<path fill="none" stroke="#63b8ff" d="M328.32,-120.94C322.02,-110.73 315.22,-97.74 312,-85 307.29,-66.37 310.03,-44.37 313.19,-29.13"/>
<polygon fill="#63b8ff" stroke="#63b8ff" points="316.6,-29.9 315.45,-19.37 309.78,-28.32 316.6,-29.9"/>
</a>
</g>
</g>
<!-- Node10 -->
<g id="Node000010" class="node">
<title>Node10</title>
<g id="a_Node000010"><a xlink:title=" ">
<polygon fill="#e0e0e0" stroke="#999999" points="736.5,-79.5 667.5,-79.5 667.5,-60.5 736.5,-60.5 736.5,-79.5"/>
<text text-anchor="middle" x="702" y="-67.5" font-family="Helvetica,sans-Serif" font-size="10.00">Eigen/Core</text>
</a>
</g>
</g>
<!-- Node1&#45;&gt;Node10 -->
<g id="edge9_Node000001_Node000010" class="edge">
<title>Node1&#45;&gt;Node10</title>
<g id="a_edge9_Node000001_Node000010"><a xlink:title=" ">
<path fill="none" stroke="#63b8ff" d="M402.12,-132.56C466.28,-123.49 570.63,-107.01 659,-85 661.95,-84.26 665,-83.43 668.04,-82.55"/>
<polygon fill="#63b8ff" stroke="#63b8ff" points="669.09,-85.89 677.62,-79.6 667.03,-79.19 669.09,-85.89"/>
</a>
</g>
</g>
<!-- Node11 -->
<g id="Node000011" class="node">
<title>Node11</title>
<g id="a_Node000011"><a xlink:href="ckdtree__decl_8hpp.html" target="_top" xlink:title=" ">
<polygon fill="white" stroke="#666666" points="463.5,-85 320.5,-85 320.5,-55 463.5,-55 463.5,-85"/>
<text text-anchor="start" x="328.5" y="-73" font-family="Helvetica,sans-Serif" font-size="10.00">vulpes/datastructure</text>
<text text-anchor="middle" x="392" y="-62" font-family="Helvetica,sans-Serif" font-size="10.00">/ckdtree/ckdtree_decl.hpp</text>
</a>
</g>
</g>
<!-- Node1&#45;&gt;Node11 -->
<g id="edge10_Node000001_Node000011" class="edge">
<title>Node1&#45;&gt;Node11</title>
<g id="a_edge10_Node000001_Node000011"><a xlink:title=" ">
<path fill="none" stroke="#63b8ff" d="M356.19,-120.77C362.34,-112.22 369.57,-102.17 375.92,-93.35"/>
<polygon fill="#63b8ff" stroke="#63b8ff" points="378.9,-95.2 381.9,-85.04 373.22,-91.11 378.9,-95.2"/>
</a>
</g>
</g>
<!-- Node11&#45;&gt;Node2 -->
<g id="edge11_Node000011_Node000002" class="edge">
<title>Node11&#45;&gt;Node2</title>
<g id="a_edge11_Node000011_Node000002"><a xlink:title=" ">
<path fill="none" stroke="#63b8ff" d="M320.25,-58.78C257.76,-49.64 164.5,-35.44 74.07,-19.12"/>
<polygon fill="#63b8ff" stroke="#63b8ff" points="74.66,-15.67 64.2,-17.33 73.41,-22.56 74.66,-15.67"/>
</a>
</g>
</g>
<!-- Node11&#45;&gt;Node4 -->
<g id="edge12_Node000011_Node000004" class="edge">
<title>Node11&#45;&gt;Node4</title>
<g id="a_edge12_Node000011_Node000004"><a xlink:title=" ">
<path fill="none" stroke="#63b8ff" d="M320.46,-55.42C273.04,-46.24 209.22,-33.53 144.34,-19.23"/>
<polygon fill="#63b8ff" stroke="#63b8ff" points="144.87,-15.76 134.35,-17.02 143.35,-22.6 144.87,-15.76"/>
</a>
</g>
</g>
<!-- Node11&#45;&gt;Node5 -->
<g id="edge14_Node000011_Node000005" class="edge">
<title>Node11&#45;&gt;Node5</title>
<g id="a_edge14_Node000011_Node000005"><a xlink:title=" ">
<path fill="none" stroke="#63b8ff" d="M340.5,-54.99C300.7,-44.16 246.69,-29.46 211.84,-19.98"/>
<polygon fill="#63b8ff" stroke="#63b8ff" points="212.68,-16.58 202.11,-17.33 210.84,-23.34 212.68,-16.58"/>
</a>
</g>
</g>
<!-- Node11&#45;&gt;Node7 -->
<g id="edge19_Node000011_Node000007" class="edge">
<title>Node11&#45;&gt;Node7</title>
<g id="a_edge19_Node000011_Node000007"><a xlink:title=" ">
<path fill="none" stroke="#63b8ff" d="M357.51,-54.99C333.48,-45.23 301.73,-32.33 278.6,-22.93"/>
<polygon fill="#63b8ff" stroke="#63b8ff" points="279.85,-19.66 269.27,-19.14 277.21,-26.15 279.85,-19.66"/>
</a>
</g>
</g>
<!-- Node11&#45;&gt;Node9 -->
<g id="edge24_Node000011_Node000009" class="edge">
<title>Node11&#45;&gt;Node9</title>
<g id="a_edge24_Node000011_Node000009"><a xlink:title=" ">
<path fill="none" stroke="#63b8ff" d="M374.09,-54.84C362.91,-46 348.52,-34.63 337.12,-25.62"/>
<polygon fill="#63b8ff" stroke="#63b8ff" points="339.1,-22.72 329.09,-19.27 334.76,-28.21 339.1,-22.72"/>
</a>
</g>
</g>
<!-- Node12 -->
<g id="Node000012" class="node">
<title>Node12</title>
<g id="a_Node000012"><a xlink:title=" ">
<polygon fill="#e0e0e0" stroke="#999999" points="627.5,-19 580.5,-19 580.5,0 627.5,0 627.5,-19"/>
<text text-anchor="middle" x="604" y="-7" font-family="Helvetica,sans-Serif" font-size="10.00">cmath</text>
</a>
</g>
</g>
<!-- Node11&#45;&gt;Node12 -->
<g id="edge13_Node000011_Node000012" class="edge">
<title>Node11&#45;&gt;Node12</title>
<g id="a_edge13_Node000011_Node000012"><a xlink:title=" ">
<path fill="none" stroke="#63b8ff" d="M442.78,-54.99C482.3,-44.08 536.03,-29.26 570.37,-19.78"/>
<polygon fill="#63b8ff" stroke="#63b8ff" points="571.66,-23.06 580.37,-17.02 569.79,-16.31 571.66,-23.06"/>
</a>
</g>
</g>
<!-- Node13 -->
<g id="Node000013" class="node">
<title>Node13</title>
<g id="a_Node000013"><a xlink:title=" ">
<polygon fill="#e0e0e0" stroke="#999999" points="694.5,-19 645.5,-19 645.5,0 694.5,0 694.5,-19"/>
<text text-anchor="middle" x="670" y="-7" font-family="Helvetica,sans-Serif" font-size="10.00">cstdlib</text>
</a>
</g>
</g>
<!-- Node11&#45;&gt;Node13 -->
<g id="edge15_Node000011_Node000013" class="edge">
<title>Node11&#45;&gt;Node13</title>
<g id="a_edge15_Node000011_Node000013"><a xlink:title=" ">
<path fill="none" stroke="#63b8ff" d="M463.77,-55.35C510.23,-46.28 572.26,-33.74 635.08,-19.36"/>
<polygon fill="#63b8ff" stroke="#63b8ff" points="636.21,-22.7 645.17,-17.04 634.64,-15.87 636.21,-22.7"/>
</a>
</g>
</g>
<!-- Node14 -->
<g id="Node000014" class="node">
<title>Node14</title>
<g id="a_Node000014"><a xlink:title=" ">
<polygon fill="#e0e0e0" stroke="#999999" points="763,-19 713,-19 713,0 763,0 763,-19"/>
<text text-anchor="middle" x="738" y="-7" font-family="Helvetica,sans-Serif" font-size="10.00">cstring</text>
</a>
</g>
</g>
<!-- Node11&#45;&gt;Node14 -->
<g id="edge16_Node000011_Node000014" class="edge">
<title>Node11&#45;&gt;Node14</title>
<g id="a_edge16_Node000011_Node000014"><a xlink:title=" ">
<path fill="none" stroke="#63b8ff" d="M463.54,-56.57C466.74,-56.03 469.9,-55.51 473,-55 572.43,-38.66 600.48,-39.55 702.98,-19.05"/>
<polygon fill="#63b8ff" stroke="#63b8ff" points="703.7,-22.48 712.81,-17.07 702.31,-15.62 703.7,-22.48"/>
</a>
</g>
</g>
<!-- Node15 -->
<g id="Node000015" class="node">
<title>Node15</title>
<g id="a_Node000015"><a xlink:title=" ">
<polygon fill="#e0e0e0" stroke="#999999" points="812.5,-19 781.5,-19 781.5,0 812.5,0 812.5,-19"/>
<text text-anchor="middle" x="797" y="-7" font-family="Helvetica,sans-Serif" font-size="10.00">ios</text>
</a>
</g>
</g>
<!-- Node11&#45;&gt;Node15 -->
<g id="edge17_Node000011_Node000015" class="edge">
<title>Node11&#45;&gt;Node15</title>
<g id="a_edge17_Node000011_Node000015"><a xlink:title=" ">
<path fill="none" stroke="#63b8ff" d="M463.52,-56.43C466.72,-55.94 469.89,-55.46 473,-55 602.2,-36.07 639.67,-48.08 771.22,-18.69"/>
<polygon fill="#63b8ff" stroke="#63b8ff" points="772.3,-22.03 781.27,-16.4 770.75,-15.2 772.3,-22.03"/>
</a>
</g>
</g>
<!-- Node16 -->
<g id="Node000016" class="node">
<title>Node16</title>
<g id="a_Node000016"><a xlink:title=" ">
<polygon fill="#e0e0e0" stroke="#999999" points="867.5,-19 830.5,-19 830.5,0 867.5,0 867.5,-19"/>
<text text-anchor="middle" x="849" y="-7" font-family="Helvetica,sans-Serif" font-size="10.00">new</text>
</a>
</g>
</g>
<!-- Node11&#45;&gt;Node16 -->
<g id="edge18_Node000011_Node000016" class="edge">
<title>Node11&#45;&gt;Node16</title>
<g id="a_edge18_Node000011_Node000016"><a xlink:title=" ">
<path fill="none" stroke="#63b8ff" d="M463.51,-56.37C466.72,-55.89 469.89,-55.43 473,-55 624.15,-34.17 667.45,-49.87 820.03,-19.04"/>
<polygon fill="#63b8ff" stroke="#63b8ff" points="821.15,-22.38 830.25,-16.94 819.75,-15.52 821.15,-22.38"/>
</a>
</g>
</g>
<!-- Node17 -->
<g id="Node000017" class="node">
<title>Node17</title>
<g id="a_Node000017"><a xlink:title=" ">
<polygon fill="#e0e0e0" stroke="#999999" points="942,-19 886,-19 886,0 942,0 942,-19"/>
<text text-anchor="middle" x="914" y="-7" font-family="Helvetica,sans-Serif" font-size="10.00">sstream</text>
</a>
</g>
</g>
<!-- Node11&#45;&gt;Node17 -->
<g id="edge20_Node000011_Node000017" class="edge">
<title>Node11&#45;&gt;Node17</title>
<g id="a_edge20_Node000011_Node000017"><a xlink:title=" ">
<path fill="none" stroke="#63b8ff" d="M463.51,-56.31C466.71,-55.85 469.89,-55.41 473,-55 648.52,-32.05 697.21,-46.7 875.8,-18.97"/>
<polygon fill="#63b8ff" stroke="#63b8ff" points="876.46,-22.41 885.8,-17.4 875.37,-15.5 876.46,-22.41"/>
</a>
</g>
</g>
<!-- Node18 -->
<g id="Node000018" class="node">
<title>Node18</title>
<g id="a_Node000018"><a xlink:title=" ">
<polygon fill="#e0e0e0" stroke="#999999" points="424.5,-19 359.5,-19 359.5,0 424.5,0 424.5,-19"/>
<text text-anchor="middle" x="392" y="-7" font-family="Helvetica,sans-Serif" font-size="10.00">stdexcept</text>
</a>
</g>
</g>
<!-- Node11&#45;&gt;Node18 -->
<g id="edge21_Node000011_Node000018" class="edge">
<title>Node11&#45;&gt;Node18</title>
<g id="a_edge21_Node000011_Node000018"><a xlink:title=" ">
<path fill="none" stroke="#63b8ff" d="M392,-54.84C392,-47.21 392,-37.7 392,-29.45"/>
<polygon fill="#63b8ff" stroke="#63b8ff" points="395.5,-29.27 392,-19.27 388.5,-29.27 395.5,-29.27"/>
</a>
</g>
</g>
<!-- Node19 -->
<g id="Node000019" class="node">
<title>Node19</title>
<g id="a_Node000019"><a xlink:title=" ">
<polygon fill="#e0e0e0" stroke="#999999" points="487,-19 443,-19 443,0 487,0 487,-19"/>
<text text-anchor="middle" x="465" y="-7" font-family="Helvetica,sans-Serif" font-size="10.00">string</text>
</a>
</g>
</g>
<!-- Node11&#45;&gt;Node19 -->
<g id="edge22_Node000011_Node000019" class="edge">
<title>Node11&#45;&gt;Node19</title>
<g id="a_edge22_Node000011_Node000019"><a xlink:title=" ">
<path fill="none" stroke="#63b8ff" d="M409.67,-54.84C420.7,-46 434.89,-34.63 446.13,-25.62"/>
<polygon fill="#63b8ff" stroke="#63b8ff" points="448.45,-28.25 454.06,-19.27 444.07,-22.79 448.45,-28.25"/>
</a>
</g>
</g>
<!-- Node20 -->
<g id="Node000020" class="node">
<title>Node20</title>
<g id="a_Node000020"><a xlink:title=" ">
<polygon fill="#e0e0e0" stroke="#999999" points="562.5,-19 505.5,-19 505.5,0 562.5,0 562.5,-19"/>
<text text-anchor="middle" x="534" y="-7" font-family="Helvetica,sans-Serif" font-size="10.00">typeinfo</text>
</a>
</g>
</g>
<!-- Node11&#45;&gt;Node20 -->
<g id="edge23_Node000011_Node000020" class="edge">
<title>Node11&#45;&gt;Node20</title>
<g id="a_edge23_Node000011_Node000020"><a xlink:title=" ">
<path fill="none" stroke="#63b8ff" d="M426.01,-54.99C449.6,-45.27 480.74,-32.44 503.52,-23.06"/>
<polygon fill="#63b8ff" stroke="#63b8ff" points="505.12,-26.18 513.03,-19.14 502.45,-19.71 505.12,-26.18"/>
</a>
</g>
</g>
</g>
</svg>
