<?xml version="1.0" encoding="UTF-8" standalone="no"?>
<!DOCTYPE svg PUBLIC "-//W3C//DTD SVG 1.1//EN"
 "http://www.w3.org/Graphics/SVG/1.1/DTD/svg11.dtd">
<!-- Generated by graphviz version 12.2.1 (20241206.2353)
 -->
<!-- Title: /Users/ilariomazzieri/Desktop/vulpes/vulpes/datastructure/kdtree.hpp Pages: 1 -->
<svg width="938pt" height="172pt"
 viewBox="0.00 0.00 938.12 171.50" xmlns="http://www.w3.org/2000/svg" xmlns:xlink="http://www.w3.org/1999/xlink">
<g id="graph0" class="graph" transform="scale(1 1) rotate(0) translate(4 167.5)">
<title>/Users/ilariomazzieri/Desktop/vulpes/vulpes/datastructure/kdtree.hpp</title>
<!-- Node1 -->
<g id="Node000001" class="node">
<title>Node1</title>
<g id="a_Node000001"><a xlink:title=" ">
<polygon fill="#999999" stroke="#666666" points="363.25,-163.5 238.5,-163.5 238.5,-121.75 363.25,-121.75 363.25,-163.5"/>
<text text-anchor="start" x="246.5" y="-150" font-family="Helvetica,sans-Serif" font-size="10.00">/Users/ilariomazzieri</text>
<text text-anchor="start" x="246.5" y="-138.75" font-family="Helvetica,sans-Serif" font-size="10.00">/Desktop/vulpes/vulpes</text>
<text text-anchor="middle" x="300.88" y="-127.5" font-family="Helvetica,sans-Serif" font-size="10.00">/datastructure/kdtree.hpp</text>
</a>
</g>
</g>
<!-- Node2 -->
<g id="Node000002" class="node">
<title>Node2</title>
<g id="a_Node000002"><a xlink:title=" ">
<polygon fill="#e0e0e0" stroke="#999999" points="55.75,-19.25 0,-19.25 0,0 55.75,0 55.75,-19.25"/>
<text text-anchor="middle" x="27.88" y="-5.75" font-family="Helvetica,sans-Serif" font-size="10.00">algorithm</text>
</a>
</g>
</g>
<!-- Node1&#45;&gt;Node2 -->
<g id="edge1_Node000001_Node000002" class="edge">
<title>Node1&#45;&gt;Node2</title>
<g id="a_edge1_Node000001_Node000002"><a xlink:title=" ">
<path fill="none" stroke="#63b8ff" d="M242.97,-121.28C216.61,-111.44 185.26,-98.92 157.88,-85.75 119.47,-67.28 77.1,-41.77 51.49,-25.73"/>
<polygon fill="#63b8ff" stroke="#63b8ff" points="53.52,-22.88 43.2,-20.5 49.79,-28.8 53.52,-22.88"/>
</a>
</g>
</g>
<!-- Node3 -->
<g id="Node000003" class="node">
<title>Node3</title>
<g id="a_Node000003"><a xlink:title=" ">
<polygon fill="#e0e0e0" stroke="#999999" points="531.75,-80.12 494,-80.12 494,-60.88 531.75,-60.88 531.75,-80.12"/>
<text text-anchor="middle" x="512.88" y="-66.62" font-family="Helvetica,sans-Serif" font-size="10.00">array</text>
</a>
</g>
</g>
<!-- Node1&#45;&gt;Node3 -->
<g id="edge2_Node000001_Node000003" class="edge">
<title>Node1&#45;&gt;Node3</title>
<g id="a_edge2_Node000001_Node000003"><a xlink:title=" ">
<path fill="none" stroke="#63b8ff" d="M363.57,-125.54C399.59,-115.57 445.39,-101.65 484.88,-85.75 485.23,-85.61 485.58,-85.46 485.93,-85.32"/>
<polygon fill="#63b8ff" stroke="#63b8ff" points="487.22,-88.58 494.84,-81.21 484.3,-82.22 487.22,-88.58"/>
</a>
</g>
</g>
<!-- Node4 -->
<g id="Node000004" class="node">
<title>Node4</title>
<g id="a_Node000004"><a xlink:title=" ">
<polygon fill="#e0e0e0" stroke="#999999" points="122,-19.25 73.75,-19.25 73.75,0 122,0 122,-19.25"/>
<text text-anchor="middle" x="97.88" y="-5.75" font-family="Helvetica,sans-Serif" font-size="10.00">cassert</text>
</a>
</g>
</g>
<!-- Node1&#45;&gt;Node4 -->
<g id="edge3_Node000001_Node000004" class="edge">
<title>Node1&#45;&gt;Node4</title>
<g id="a_edge3_Node000001_Node000004"><a xlink:title=" ">
<path fill="none" stroke="#63b8ff" d="M266.13,-121.4C248.53,-110.99 226.9,-97.95 207.88,-85.75 176.81,-65.83 141.74,-41.56 119.72,-26.1"/>
<polygon fill="#63b8ff" stroke="#63b8ff" points="122.01,-23.43 111.82,-20.53 117.98,-29.15 122.01,-23.43"/>
</a>
</g>
</g>
<!-- Node5 -->
<g id="Node000005" class="node">
<title>Node5</title>
<g id="a_Node000005"><a xlink:title=" ">
<polygon fill="#e0e0e0" stroke="#999999" points="185.5,-19.25 140.25,-19.25 140.25,0 185.5,0 185.5,-19.25"/>
<text text-anchor="middle" x="162.88" y="-5.75" font-family="Helvetica,sans-Serif" font-size="10.00">cstdint</text>
</a>
</g>
</g>
<!-- Node1&#45;&gt;Node5 -->
<g id="edge4_Node000001_Node000005" class="edge">
<title>Node1&#45;&gt;Node5</title>
<g id="a_edge4_Node000001_Node000005"><a xlink:title=" ">
<path fill="none" stroke="#63b8ff" d="M279.61,-121.44C252.41,-95.62 205.79,-51.36 180.48,-27.33"/>
<polygon fill="#63b8ff" stroke="#63b8ff" points="182.95,-24.86 173.29,-20.51 178.13,-29.93 182.95,-24.86"/>
</a>
</g>
</g>
<!-- Node6 -->
<g id="Node000006" class="node">
<title>Node6</title>
<g id="a_Node000006"><a xlink:title=" ">
<polygon fill="#e0e0e0" stroke="#999999" points="242.5,-19.25 203.25,-19.25 203.25,0 242.5,0 242.5,-19.25"/>
<text text-anchor="middle" x="222.88" y="-5.75" font-family="Helvetica,sans-Serif" font-size="10.00">limits</text>
</a>
</g>
</g>
<!-- Node1&#45;&gt;Node6 -->
<g id="edge5_Node000001_Node000006" class="edge">
<title>Node1&#45;&gt;Node6</title>
<g id="a_edge5_Node000001_Node000006"><a xlink:title=" ">
<path fill="none" stroke="#63b8ff" d="M288.86,-121.44C273.89,-96.3 248.51,-53.68 233.98,-29.27"/>
<polygon fill="#63b8ff" stroke="#63b8ff" points="237.04,-27.57 228.91,-20.77 231.02,-31.15 237.04,-27.57"/>
</a>
</g>
</g>
<!-- Node7 -->
<g id="Node000007" class="node">
<title>Node7</title>
<g id="a_Node000007"><a xlink:title=" ">
<polygon fill="#e0e0e0" stroke="#999999" points="311.12,-19.25 260.62,-19.25 260.62,0 311.12,0 311.12,-19.25"/>
<text text-anchor="middle" x="285.88" y="-5.75" font-family="Helvetica,sans-Serif" font-size="10.00">numeric</text>
</a>
</g>
</g>
<!-- Node1&#45;&gt;Node7 -->
<g id="edge6_Node000001_Node000007" class="edge">
<title>Node1&#45;&gt;Node7</title>
<g id="a_edge6_Node000001_Node000007"><a xlink:title=" ">
<path fill="none" stroke="#63b8ff" d="M298.56,-121.44C295.74,-96.75 290.98,-55.21 288.16,-30.61"/>
<polygon fill="#63b8ff" stroke="#63b8ff" points="291.67,-30.51 287.06,-20.97 284.72,-31.3 291.67,-30.51"/>
</a>
</g>
</g>
<!-- Node8 -->
<g id="Node000008" class="node">
<title>Node8</title>
<g id="a_Node000008"><a xlink:title=" ">
<polygon fill="#e0e0e0" stroke="#999999" points="589.5,-80.12 550.25,-80.12 550.25,-60.88 589.5,-60.88 589.5,-80.12"/>
<text text-anchor="middle" x="569.88" y="-66.62" font-family="Helvetica,sans-Serif" font-size="10.00">utility</text>
</a>
</g>
</g>
<!-- Node1&#45;&gt;Node8 -->
<g id="edge7_Node000001_Node000008" class="edge">
<title>Node1&#45;&gt;Node8</title>
<g id="a_edge7_Node000001_Node000008"><a xlink:title=" ">
<path fill="none" stroke="#63b8ff" d="M363.65,-131.07C412.74,-121.86 482.25,-106.67 540.88,-85.75 541.5,-85.53 542.13,-85.29 542.77,-85.05"/>
<polygon fill="#63b8ff" stroke="#63b8ff" points="543.82,-88.41 551.59,-81.21 541.03,-81.99 543.82,-88.41"/>
</a>
</g>
</g>
<!-- Node9 -->
<g id="Node000009" class="node">
<title>Node9</title>
<g id="a_Node000009"><a xlink:title=" ">
<polygon fill="#e0e0e0" stroke="#999999" points="372.38,-19.25 329.38,-19.25 329.38,0 372.38,0 372.38,-19.25"/>
<text text-anchor="middle" x="350.88" y="-5.75" font-family="Helvetica,sans-Serif" font-size="10.00">vector</text>
</a>
</g>
</g>
<!-- Node1&#45;&gt;Node9 -->
<g id="edge8_Node000001_Node000009" class="edge">
<title>Node1&#45;&gt;Node9</title>
<g id="a_edge8_Node000001_Node000009"><a xlink:title=" ">
<path fill="none" stroke="#63b8ff" d="M308.58,-121.44C318.09,-96.53 334.15,-54.44 343.5,-29.94"/>
<polygon fill="#63b8ff" stroke="#63b8ff" points="346.66,-31.47 346.96,-20.88 340.12,-28.98 346.66,-31.47"/>
</a>
</g>
</g>
<!-- Node10 -->
<g id="Node000010" class="node">
<title>Node10</title>
<g id="a_Node000010"><a xlink:title=" ">
<polygon fill="#e0e0e0" stroke="#999999" points="672.25,-80.12 607.5,-80.12 607.5,-60.88 672.25,-60.88 672.25,-80.12"/>
<text text-anchor="middle" x="639.88" y="-66.62" font-family="Helvetica,sans-Serif" font-size="10.00">Eigen/Core</text>
</a>
</g>
</g>
<!-- Node1&#45;&gt;Node10 -->
<g id="edge9_Node000001_Node000010" class="edge">
<title>Node1&#45;&gt;Node10</title>
<g id="a_edge9_Node000001_Node000010"><a xlink:title=" ">
<path fill="none" stroke="#63b8ff" d="M363.69,-132.64C424.42,-123.3 518.76,-107.06 598.88,-85.75 600.86,-85.22 602.9,-84.64 604.94,-84.03"/>
<polygon fill="#63b8ff" stroke="#63b8ff" points="605.89,-87.4 614.34,-81.01 603.75,-80.74 605.89,-87.4"/>
</a>
</g>
</g>
<!-- Node11 -->
<g id="Node000011" class="node">
<title>Node11</title>
<g id="a_Node000011"><a xlink:href="ckdtree__decl_8hpp.html" target="_top" xlink:title=" ">
<polygon fill="white" stroke="#666666" points="476.12,-85.75 347.62,-85.75 347.62,-55.25 476.12,-55.25 476.12,-85.75"/>
<text text-anchor="start" x="355.62" y="-72.25" font-family="Helvetica,sans-Serif" font-size="10.00">vulpes/datastructure</text>
<text text-anchor="middle" x="411.88" y="-61" font-family="Helvetica,sans-Serif" font-size="10.00">/ckdtree/ckdtree_decl.hpp</text>
</a>
</g>
</g>
<!-- Node1&#45;&gt;Node11 -->
<g id="edge10_Node000001_Node000011" class="edge">
<title>Node1&#45;&gt;Node11</title>
<g id="a_edge10_Node000001_Node000011"><a xlink:title=" ">
<path fill="none" stroke="#63b8ff" d="M332.98,-121.34C347.44,-112.21 364.5,-101.43 379.05,-92.24"/>
<polygon fill="#63b8ff" stroke="#63b8ff" points="380.79,-95.28 387.37,-86.98 377.05,-89.36 380.79,-95.28"/>
</a>
</g>
</g>
<!-- Node11&#45;&gt;Node2 -->
<g id="edge11_Node000011_Node000002" class="edge">
<title>Node11&#45;&gt;Node2</title>
<g id="a_edge11_Node000011_Node000002"><a xlink:title=" ">
<path fill="none" stroke="#63b8ff" d="M347.33,-61.82C279.9,-53.43 170.83,-38.8 67.39,-19.59"/>
<polygon fill="#63b8ff" stroke="#63b8ff" points="68.07,-16.15 57.59,-17.75 66.77,-23.03 68.07,-16.15"/>
</a>
</g>
</g>
<!-- Node11&#45;&gt;Node4 -->
<g id="edge12_Node000011_Node000004" class="edge">
<title>Node11&#45;&gt;Node4</title>
<g id="a_edge12_Node000011_Node000004"><a xlink:title=" ">
<path fill="none" stroke="#63b8ff" d="M347.14,-59.41C292.56,-50.56 212.19,-36.75 133.43,-19.68"/>
<polygon fill="#63b8ff" stroke="#63b8ff" points="134.33,-16.29 123.81,-17.57 132.83,-23.13 134.33,-16.29"/>
</a>
</g>
</g>
<!-- Node11&#45;&gt;Node5 -->
<g id="edge14_Node000011_Node000005" class="edge">
<title>Node11&#45;&gt;Node5</title>
<g id="a_edge14_Node000011_Node000005"><a xlink:title=" ">
<path fill="none" stroke="#63b8ff" d="M347.3,-55.41C306.54,-46.34 252.52,-33.98 196.99,-19.97"/>
<polygon fill="#63b8ff" stroke="#63b8ff" points="197.89,-16.59 187.33,-17.52 196.17,-23.37 197.89,-16.59"/>
</a>
</g>
</g>
<!-- Node11&#45;&gt;Node6 -->
<g id="edge18_Node000011_Node000006" class="edge">
<title>Node11&#45;&gt;Node6</title>
<g id="a_edge18_Node000011_Node000006"><a xlink:title=" ">
<path fill="none" stroke="#63b8ff" d="M364.67,-54.8C329.77,-43.92 283.27,-29.44 253.2,-20.07"/>
<polygon fill="#63b8ff" stroke="#63b8ff" points="254.57,-16.83 243.98,-17.2 252.49,-23.52 254.57,-16.83"/>
</a>
</g>
</g>
<!-- Node11&#45;&gt;Node7 -->
<g id="edge20_Node000011_Node000007" class="edge">
<title>Node11&#45;&gt;Node7</title>
<g id="a_edge20_Node000011_Node000007"><a xlink:title=" ">
<path fill="none" stroke="#63b8ff" d="M380.4,-54.8C360.57,-45.53 335.12,-33.63 315.62,-24.52"/>
<polygon fill="#63b8ff" stroke="#63b8ff" points="317.11,-21.36 306.57,-20.29 314.15,-27.7 317.11,-21.36"/>
</a>
</g>
</g>
<!-- Node11&#45;&gt;Node9 -->
<g id="edge25_Node000011_Node000009" class="edge">
<title>Node11&#45;&gt;Node9</title>
<g id="a_edge25_Node000011_Node000009"><a xlink:title=" ">
<path fill="none" stroke="#63b8ff" d="M396.8,-54.95C388.22,-46.67 377.44,-36.27 368.48,-27.62"/>
<polygon fill="#63b8ff" stroke="#63b8ff" points="370.99,-25.18 361.37,-20.75 366.13,-30.22 370.99,-25.18"/>
</a>
</g>
</g>
<!-- Node12 -->
<g id="Node000012" class="node">
<title>Node12</title>
<g id="a_Node000012"><a xlink:title=" ">
<polygon fill="#e0e0e0" stroke="#999999" points="433.38,-19.25 390.38,-19.25 390.38,0 433.38,0 433.38,-19.25"/>
<text text-anchor="middle" x="411.88" y="-5.75" font-family="Helvetica,sans-Serif" font-size="10.00">cmath</text>
</a>
</g>
</g>
<!-- Node11&#45;&gt;Node12 -->
<g id="edge13_Node000011_Node000012" class="edge">
<title>Node11&#45;&gt;Node12</title>
<g id="a_edge13_Node000011_Node000012"><a xlink:title=" ">
<path fill="none" stroke="#63b8ff" d="M411.88,-54.95C411.88,-47.71 411.88,-38.84 411.88,-30.94"/>
<polygon fill="#63b8ff" stroke="#63b8ff" points="415.38,-31.21 411.88,-21.21 408.38,-31.21 415.38,-31.21"/>
</a>
</g>
</g>
<!-- Node13 -->
<g id="Node000013" class="node">
<title>Node13</title>
<g id="a_Node000013"><a xlink:title=" ">
<polygon fill="#e0e0e0" stroke="#999999" points="496.12,-19.25 451.62,-19.25 451.62,0 496.12,0 496.12,-19.25"/>
<text text-anchor="middle" x="473.88" y="-5.75" font-family="Helvetica,sans-Serif" font-size="10.00">cstdlib</text>
</a>
</g>
</g>
<!-- Node11&#45;&gt;Node13 -->
<g id="edge15_Node000011_Node000013" class="edge">
<title>Node11&#45;&gt;Node13</title>
<g id="a_edge15_Node000011_Node000013"><a xlink:title=" ">
<path fill="none" stroke="#63b8ff" d="M427.2,-54.95C435.91,-46.67 446.87,-36.27 455.98,-27.62"/>
<polygon fill="#63b8ff" stroke="#63b8ff" points="458.38,-30.17 463.22,-20.74 453.56,-25.09 458.38,-30.17"/>
</a>
</g>
</g>
<!-- Node14 -->
<g id="Node000014" class="node">
<title>Node14</title>
<g id="a_Node000014"><a xlink:title=" ">
<polygon fill="#e0e0e0" stroke="#999999" points="559.5,-19.25 514.25,-19.25 514.25,0 559.5,0 559.5,-19.25"/>
<text text-anchor="middle" x="536.88" y="-5.75" font-family="Helvetica,sans-Serif" font-size="10.00">cstring</text>
</a>
</g>
</g>
<!-- Node11&#45;&gt;Node14 -->
<g id="edge16_Node000011_Node000014" class="edge">
<title>Node11&#45;&gt;Node14</title>
<g id="a_edge16_Node000011_Node000014"><a xlink:title=" ">
<path fill="none" stroke="#63b8ff" d="M443.1,-54.8C462.77,-45.53 488.02,-33.63 507.36,-24.52"/>
<polygon fill="#63b8ff" stroke="#63b8ff" points="508.78,-27.73 516.34,-20.3 505.8,-21.39 508.78,-27.73"/>
</a>
</g>
</g>
<!-- Node15 -->
<g id="Node000015" class="node">
<title>Node15</title>
<g id="a_Node000015"><a xlink:title=" ">
<polygon fill="#e0e0e0" stroke="#999999" points="606.27,-19.25 577.48,-19.25 577.48,0 606.27,0 606.27,-19.25"/>
<text text-anchor="middle" x="591.88" y="-5.75" font-family="Helvetica,sans-Serif" font-size="10.00">ios</text>
</a>
</g>
</g>
<!-- Node11&#45;&gt;Node15 -->
<g id="edge17_Node000011_Node000015" class="edge">
<title>Node11&#45;&gt;Node15</title>
<g id="a_edge17_Node000011_Node000015"><a xlink:title=" ">
<path fill="none" stroke="#63b8ff" d="M459.83,-54.82C488.52,-45.89 525.93,-33.97 566.62,-19.93"/>
<polygon fill="#63b8ff" stroke="#63b8ff" points="567.59,-23.29 575.88,-16.71 565.29,-16.68 567.59,-23.29"/>
</a>
</g>
</g>
<!-- Node16 -->
<g id="Node000016" class="node">
<title>Node16</title>
<g id="a_Node000016"><a xlink:title=" ">
<polygon fill="#e0e0e0" stroke="#999999" points="657.88,-19.25 623.88,-19.25 623.88,0 657.88,0 657.88,-19.25"/>
<text text-anchor="middle" x="640.88" y="-5.75" font-family="Helvetica,sans-Serif" font-size="10.00">new</text>
</a>
</g>
</g>
<!-- Node11&#45;&gt;Node16 -->
<g id="edge19_Node000011_Node000016" class="edge">
<title>Node11&#45;&gt;Node16</title>
<g id="a_edge19_Node000011_Node000016"><a xlink:title=" ">
<path fill="none" stroke="#63b8ff" d="M476.21,-54.92C513.64,-46.13 561.91,-34.27 612.72,-19.71"/>
<polygon fill="#63b8ff" stroke="#63b8ff" points="613.5,-23.13 622.14,-16.99 611.56,-16.4 613.5,-23.13"/>
</a>
</g>
</g>
<!-- Node17 -->
<g id="Node000017" class="node">
<title>Node17</title>
<g id="a_Node000017"><a xlink:title=" ">
<polygon fill="#e0e0e0" stroke="#999999" points="727.5,-19.25 676.25,-19.25 676.25,0 727.5,0 727.5,-19.25"/>
<text text-anchor="middle" x="701.88" y="-5.75" font-family="Helvetica,sans-Serif" font-size="10.00">sstream</text>
</a>
</g>
</g>
<!-- Node11&#45;&gt;Node17 -->
<g id="edge21_Node000011_Node000017" class="edge">
<title>Node11&#45;&gt;Node17</title>
<g id="a_edge21_Node000011_Node000017"><a xlink:title=" ">
<path fill="none" stroke="#63b8ff" d="M476.34,-56.87C539.72,-44.45 630.92,-26.55 665.03,-19.48"/>
<polygon fill="#63b8ff" stroke="#63b8ff" points="665.38,-22.99 674.43,-17.48 663.92,-16.14 665.38,-22.99"/>
</a>
</g>
</g>
<!-- Node18 -->
<g id="Node000018" class="node">
<title>Node18</title>
<g id="a_Node000018"><a xlink:title=" ">
<polygon fill="#e0e0e0" stroke="#999999" points="804.25,-19.25 745.5,-19.25 745.5,0 804.25,0 804.25,-19.25"/>
<text text-anchor="middle" x="774.88" y="-5.75" font-family="Helvetica,sans-Serif" font-size="10.00">stdexcept</text>
</a>
</g>
</g>
<!-- Node11&#45;&gt;Node18 -->
<g id="edge22_Node000011_Node000018" class="edge">
<title>Node11&#45;&gt;Node18</title>
<g id="a_edge22_Node000011_Node000018"><a xlink:title=" ">
<path fill="none" stroke="#63b8ff" d="M476.33,-56.73C479.22,-56.22 482.07,-55.72 484.88,-55.25 592.84,-37.01 623.65,-39.59 733.78,-19.7"/>
<polygon fill="#63b8ff" stroke="#63b8ff" points="734.36,-23.15 743.56,-17.91 733.1,-16.27 734.36,-23.15"/>
</a>
</g>
</g>
<!-- Node19 -->
<g id="Node000019" class="node">
<title>Node19</title>
<g id="a_Node000019"><a xlink:title=" ">
<polygon fill="#e0e0e0" stroke="#999999" points="861.88,-19.25 821.88,-19.25 821.88,0 861.88,0 861.88,-19.25"/>
<text text-anchor="middle" x="841.88" y="-5.75" font-family="Helvetica,sans-Serif" font-size="10.00">string</text>
</a>
</g>
</g>
<!-- Node11&#45;&gt;Node19 -->
<g id="edge23_Node000011_Node000019" class="edge">
<title>Node11&#45;&gt;Node19</title>
<g id="a_edge23_Node000011_Node000019"><a xlink:title=" ">
<path fill="none" stroke="#63b8ff" d="M476.31,-56.62C479.2,-56.14 482.07,-55.68 484.88,-55.25 626.32,-33.72 667.14,-47.56 810.44,-19.41"/>
<polygon fill="#63b8ff" stroke="#63b8ff" points="810.79,-22.9 819.91,-17.51 809.42,-16.04 810.79,-22.9"/>
</a>
</g>
</g>
<!-- Node20 -->
<g id="Node000020" class="node">
<title>Node20</title>
<g id="a_Node000020"><a xlink:title=" ">
<polygon fill="#e0e0e0" stroke="#999999" points="930.12,-19.25 879.62,-19.25 879.62,0 930.12,0 930.12,-19.25"/>
<text text-anchor="middle" x="904.88" y="-5.75" font-family="Helvetica,sans-Serif" font-size="10.00">typeinfo</text>
</a>
</g>
</g>
<!-- Node11&#45;&gt;Node20 -->
<g id="edge24_Node000011_Node000020" class="edge">
<title>Node11&#45;&gt;Node20</title>
<g id="a_edge24_Node000011_Node000020"><a xlink:title=" ">
<path fill="none" stroke="#63b8ff" d="M476.3,-56.56C479.2,-56.09 482.06,-55.65 484.88,-55.25 651.76,-31.24 699.06,-47.78 868.04,-19.48"/>
<polygon fill="#63b8ff" stroke="#63b8ff" points="868.59,-22.94 877.85,-17.81 867.41,-16.04 868.59,-22.94"/>
</a>
</g>
</g>
</g>
</svg>
