<?xml version="1.0" encoding="UTF-8" standalone="no"?>
<!DOCTYPE svg PUBLIC "-//W3C//DTD SVG 1.1//EN"
 "http://www.w3.org/Graphics/SVG/1.1/DTD/svg11.dtd">
<!-- Generated by graphviz version 12.2.1 (20241206.2353)
 -->
<!-- Title: /Users/ilariomazzieri/Desktop/vulpes/vulpes/geometry/kmeans.hpp Pages: 1 -->
<svg width="856pt" height="228pt"
 viewBox="0.00 0.00 855.62 227.75" xmlns="http://www.w3.org/2000/svg" xmlns:xlink="http://www.w3.org/1999/xlink">
<g id="graph0" class="graph" transform="scale(1 1) rotate(0) translate(4 223.75)">
<title>/Users/ilariomazzieri/Desktop/vulpes/vulpes/geometry/kmeans.hpp</title>
<!-- Node1 -->
<g id="Node000001" class="node">
<title>Node1</title>
<g id="a_Node000001"><a xlink:title=" ">
<polygon fill="#999999" stroke="#666666" points="625.62,-219.75 506.88,-219.75 506.88,-178 625.62,-178 625.62,-219.75"/>
<text text-anchor="start" x="514.88" y="-206.25" font-family="Helvetica,sans-Serif" font-size="10.00">/Users/ilariomazzieri</text>
<text text-anchor="start" x="514.88" y="-195" font-family="Helvetica,sans-Serif" font-size="10.00">/Desktop/vulpes/vulpes</text>
<text text-anchor="middle" x="566.25" y="-183.75" font-family="Helvetica,sans-Serif" font-size="10.00">/geometry/kmeans.hpp</text>
</a>
</g>
</g>
<!-- Node2 -->
<g id="Node000002" class="node">
<title>Node2</title>
<g id="a_Node000002"><a xlink:href="fe__lagrange__simplex_8hpp.html" target="_top" xlink:title=" ">
<polygon fill="white" stroke="#666666" points="344.5,-142 216,-142 216,-89 344.5,-89 344.5,-142"/>
<text text-anchor="start" x="224" y="-128.5" font-family="Helvetica,sans-Serif" font-size="10.00">/Users/ilariomazzieri</text>
<text text-anchor="start" x="224" y="-117.25" font-family="Helvetica,sans-Serif" font-size="10.00">/Desktop/vulpes/vulpes</text>
<text text-anchor="start" x="224" y="-106" font-family="Helvetica,sans-Serif" font-size="10.00">/fe/fe_spaces/fe_lagrange</text>
<text text-anchor="middle" x="280.25" y="-94.75" font-family="Helvetica,sans-Serif" font-size="10.00">_simplex.hpp</text>
</a>
</g>
</g>
<!-- Node1&#45;&gt;Node2 -->
<g id="edge1_Node000001_Node000002" class="edge">
<title>Node1&#45;&gt;Node2</title>
<g id="a_edge1_Node000001_Node000002"><a xlink:title=" ">
<path fill="none" stroke="#63b8ff" d="M495.81,-177.83C449.63,-164.69 389.7,-147.64 344.76,-134.85"/>
<polygon fill="#63b8ff" stroke="#63b8ff" points="494.61,-181.13 505.19,-180.5 496.53,-174.4 494.61,-181.13"/>
</a>
</g>
</g>
<!-- Node6 -->
<g id="Node000006" class="node">
<title>Node6</title>
<g id="a_Node000006"><a xlink:href="gnn__agglomeration_8hpp.html" target="_top" xlink:title=" ">
<polygon fill="white" stroke="#666666" points="553.88,-142 430.62,-142 430.62,-89 553.88,-89 553.88,-142"/>
<text text-anchor="start" x="438.62" y="-128.5" font-family="Helvetica,sans-Serif" font-size="10.00">/Users/ilariomazzieri</text>
<text text-anchor="start" x="438.62" y="-117.25" font-family="Helvetica,sans-Serif" font-size="10.00">/Desktop/vulpes/vulpes</text>
<text text-anchor="start" x="438.62" y="-106" font-family="Helvetica,sans-Serif" font-size="10.00">/geometry/agglomeration</text>
<text text-anchor="middle" x="492.25" y="-94.75" font-family="Helvetica,sans-Serif" font-size="10.00">/gnn_agglomeration.hpp</text>
</a>
</g>
</g>
<!-- Node1&#45;&gt;Node6 -->
<g id="edge5_Node000001_Node000006" class="edge">
<title>Node1&#45;&gt;Node6</title>
<g id="a_edge5_Node000001_Node000006"><a xlink:title=" ">
<path fill="none" stroke="#63b8ff" d="M540.26,-169.3C532.25,-160.48 523.48,-150.84 515.65,-142.23"/>
<polygon fill="#63b8ff" stroke="#63b8ff" points="537.62,-171.6 546.94,-176.64 542.8,-166.89 537.62,-171.6"/>
</a>
</g>
</g>
<!-- Node8 -->
<g id="Node000008" class="node">
<title>Node8</title>
<g id="a_Node000008"><a xlink:href="kmeans__agglomeration_8hpp.html" target="_top" xlink:title=" ">
<polygon fill="white" stroke="#666666" points="710.38,-142 572.12,-142 572.12,-89 710.38,-89 710.38,-142"/>
<text text-anchor="start" x="580.12" y="-128.5" font-family="Helvetica,sans-Serif" font-size="10.00">/Users/ilariomazzieri</text>
<text text-anchor="start" x="580.12" y="-117.25" font-family="Helvetica,sans-Serif" font-size="10.00">/Desktop/vulpes/vulpes</text>
<text text-anchor="start" x="580.12" y="-106" font-family="Helvetica,sans-Serif" font-size="10.00">/geometry/agglomeration</text>
<text text-anchor="middle" x="641.25" y="-94.75" font-family="Helvetica,sans-Serif" font-size="10.00">/kmeans_agglomeration.hpp</text>
</a>
</g>
</g>
<!-- Node1&#45;&gt;Node8 -->
<g id="edge7_Node000001_Node000008" class="edge">
<title>Node1&#45;&gt;Node8</title>
<g id="a_edge7_Node000001_Node000008"><a xlink:title=" ">
<path fill="none" stroke="#63b8ff" d="M592.59,-169.3C600.71,-160.48 609.6,-150.84 617.54,-142.23"/>
<polygon fill="#63b8ff" stroke="#63b8ff" points="590.02,-166.92 585.82,-176.65 595.17,-171.67 590.02,-166.92"/>
</a>
</g>
</g>
<!-- Node10 -->
<g id="Node000010" class="node">
<title>Node10</title>
<g id="a_Node000010"><a xlink:href="kmeans_8cpp.html" target="_top" xlink:title=" ">
<polygon fill="white" stroke="#666666" points="847.62,-136.38 728.88,-136.38 728.88,-94.62 847.62,-94.62 847.62,-136.38"/>
<text text-anchor="start" x="736.88" y="-122.88" font-family="Helvetica,sans-Serif" font-size="10.00">/Users/ilariomazzieri</text>
<text text-anchor="start" x="736.88" y="-111.62" font-family="Helvetica,sans-Serif" font-size="10.00">/Desktop/vulpes/vulpes</text>
<text text-anchor="middle" x="788.25" y="-100.38" font-family="Helvetica,sans-Serif" font-size="10.00">/geometry/kmeans.cpp</text>
</a>
</g>
</g>
<!-- Node1&#45;&gt;Node10 -->
<g id="edge9_Node000001_Node000010" class="edge">
<title>Node1&#45;&gt;Node10</title>
<g id="a_edge9_Node000001_Node000010"><a xlink:title=" ">
<path fill="none" stroke="#63b8ff" d="M632.35,-173.8C659.31,-163.96 690.78,-152.46 719.25,-142 723.81,-140.33 728.53,-138.59 733.27,-136.84"/>
<polygon fill="#63b8ff" stroke="#63b8ff" points="631.48,-170.39 623.29,-177.1 633.88,-176.97 631.48,-170.39"/>
</a>
</g>
</g>
<!-- Node3 -->
<g id="Node000003" class="node">
<title>Node3</title>
<g id="a_Node000003"><a xlink:href="fe__lagrange__simplex_8cpp.html" target="_top" xlink:title=" ">
<polygon fill="white" stroke="#666666" points="128.5,-53 0,-53 0,0 128.5,0 128.5,-53"/>
<text text-anchor="start" x="8" y="-39.5" font-family="Helvetica,sans-Serif" font-size="10.00">/Users/ilariomazzieri</text>
<text text-anchor="start" x="8" y="-28.25" font-family="Helvetica,sans-Serif" font-size="10.00">/Desktop/vulpes/vulpes</text>
<text text-anchor="start" x="8" y="-17" font-family="Helvetica,sans-Serif" font-size="10.00">/fe/fe_spaces/fe_lagrange</text>
<text text-anchor="middle" x="64.25" y="-5.75" font-family="Helvetica,sans-Serif" font-size="10.00">_simplex.cpp</text>
</a>
</g>
</g>
<!-- Node2&#45;&gt;Node3 -->
<g id="edge2_Node000002_Node000003" class="edge">
<title>Node2&#45;&gt;Node3</title>
<g id="a_edge2_Node000002_Node000003"><a xlink:title=" ">
<path fill="none" stroke="#63b8ff" d="M205.19,-84.27C180.17,-74.19 152.55,-63.06 128.43,-53.35"/>
<polygon fill="#63b8ff" stroke="#63b8ff" points="203.75,-87.46 214.33,-87.95 206.36,-80.97 203.75,-87.46"/>
</a>
</g>
</g>
<!-- Node4 -->
<g id="Node000004" class="node">
<title>Node4</title>
<g id="a_Node000004"><a xlink:href="fe__lagrange__tensor_8hpp.html" target="_top" xlink:title=" ">
<polygon fill="white" stroke="#666666" points="275.5,-53 147,-53 147,0 275.5,0 275.5,-53"/>
<text text-anchor="start" x="155" y="-39.5" font-family="Helvetica,sans-Serif" font-size="10.00">/Users/ilariomazzieri</text>
<text text-anchor="start" x="155" y="-28.25" font-family="Helvetica,sans-Serif" font-size="10.00">/Desktop/vulpes/vulpes</text>
<text text-anchor="start" x="155" y="-17" font-family="Helvetica,sans-Serif" font-size="10.00">/fe/fe_spaces/fe_lagrange</text>
<text text-anchor="middle" x="211.25" y="-5.75" font-family="Helvetica,sans-Serif" font-size="10.00">_tensor.hpp</text>
</a>
</g>
</g>
<!-- Node2&#45;&gt;Node4 -->
<g id="edge3_Node000002_Node000004" class="edge">
<title>Node2&#45;&gt;Node4</title>
<g id="a_edge3_Node000002_Node000004"><a xlink:title=" ">
<path fill="none" stroke="#63b8ff" d="M252.78,-79.87C245.74,-70.99 238.29,-61.59 231.67,-53.25"/>
<polygon fill="#63b8ff" stroke="#63b8ff" points="250.02,-82.02 258.98,-87.68 255.51,-77.67 250.02,-82.02"/>
</a>
</g>
</g>
<!-- Node5 -->
<g id="Node000005" class="node">
<title>Node5</title>
<g id="a_Node000005"><a xlink:href="fe__modal__simplex_8hpp.html" target="_top" xlink:title=" ">
<polygon fill="white" stroke="#666666" points="412.62,-53 293.88,-53 293.88,0 412.62,0 412.62,-53"/>
<text text-anchor="start" x="301.88" y="-39.5" font-family="Helvetica,sans-Serif" font-size="10.00">/Users/ilariomazzieri</text>
<text text-anchor="start" x="301.88" y="-28.25" font-family="Helvetica,sans-Serif" font-size="10.00">/Desktop/vulpes/vulpes</text>
<text text-anchor="start" x="301.88" y="-17" font-family="Helvetica,sans-Serif" font-size="10.00">/fe/fe_spaces/fe_modal</text>
<text text-anchor="middle" x="353.25" y="-5.75" font-family="Helvetica,sans-Serif" font-size="10.00">_simplex.hpp</text>
</a>
</g>
</g>
<!-- Node2&#45;&gt;Node5 -->
<g id="edge4_Node000002_Node000005" class="edge">
<title>Node2&#45;&gt;Node5</title>
<g id="a_edge4_Node000002_Node000005"><a xlink:title=" ">
<path fill="none" stroke="#63b8ff" d="M309.08,-80.15C316.6,-71.18 324.57,-61.68 331.64,-53.25"/>
<polygon fill="#63b8ff" stroke="#63b8ff" points="306.48,-77.8 302.73,-87.71 311.84,-82.3 306.48,-77.8"/>
</a>
</g>
</g>
<!-- Node7 -->
<g id="Node000007" class="node">
<title>Node7</title>
<g id="a_Node000007"><a xlink:href="gnn__agglomeration_8cpp.html" target="_top" xlink:title=" ">
<polygon fill="white" stroke="#666666" points="553.88,-53 430.62,-53 430.62,0 553.88,0 553.88,-53"/>
<text text-anchor="start" x="438.62" y="-39.5" font-family="Helvetica,sans-Serif" font-size="10.00">/Users/ilariomazzieri</text>
<text text-anchor="start" x="438.62" y="-28.25" font-family="Helvetica,sans-Serif" font-size="10.00">/Desktop/vulpes/vulpes</text>
<text text-anchor="start" x="438.62" y="-17" font-family="Helvetica,sans-Serif" font-size="10.00">/geometry/agglomeration</text>
<text text-anchor="middle" x="492.25" y="-5.75" font-family="Helvetica,sans-Serif" font-size="10.00">/gnn_agglomeration.cpp</text>
</a>
</g>
</g>
<!-- Node6&#45;&gt;Node7 -->
<g id="edge6_Node000006_Node000007" class="edge">
<title>Node6&#45;&gt;Node7</title>
<g id="a_edge6_Node000006_Node000007"><a xlink:title=" ">
<path fill="none" stroke="#63b8ff" d="M492.25,-77.61C492.25,-69.41 492.25,-60.89 492.25,-53.25"/>
<polygon fill="#63b8ff" stroke="#63b8ff" points="488.75,-77.35 492.25,-87.35 495.75,-77.35 488.75,-77.35"/>
</a>
</g>
</g>
<!-- Node9 -->
<g id="Node000009" class="node">
<title>Node9</title>
<g id="a_Node000009"><a xlink:href="kmeans__agglomeration_8cpp.html" target="_top" xlink:title=" ">
<polygon fill="white" stroke="#666666" points="710.38,-53 572.12,-53 572.12,0 710.38,0 710.38,-53"/>
<text text-anchor="start" x="580.12" y="-39.5" font-family="Helvetica,sans-Serif" font-size="10.00">/Users/ilariomazzieri</text>
<text text-anchor="start" x="580.12" y="-28.25" font-family="Helvetica,sans-Serif" font-size="10.00">/Desktop/vulpes/vulpes</text>
<text text-anchor="start" x="580.12" y="-17" font-family="Helvetica,sans-Serif" font-size="10.00">/geometry/agglomeration</text>
<text text-anchor="middle" x="641.25" y="-5.75" font-family="Helvetica,sans-Serif" font-size="10.00">/kmeans_agglomeration.cpp</text>
</a>
</g>
</g>
<!-- Node8&#45;&gt;Node9 -->
<g id="edge8_Node000008_Node000009" class="edge">
<title>Node8&#45;&gt;Node9</title>
<g id="a_edge8_Node000008_Node000009"><a xlink:title=" ">
<path fill="none" stroke="#63b8ff" d="M641.25,-77.61C641.25,-69.41 641.25,-60.89 641.25,-53.25"/>
<polygon fill="#63b8ff" stroke="#63b8ff" points="637.75,-77.35 641.25,-87.35 644.75,-77.35 637.75,-77.35"/>
</a>
</g>
</g>
</g>
</svg>
