<?xml version="1.0" encoding="UTF-8" standalone="no"?>
<!DOCTYPE svg PUBLIC "-//W3C//DTD SVG 1.1//EN"
 "http://www.w3.org/Graphics/SVG/1.1/DTD/svg11.dtd">
<!-- Generated by graphviz version 12.2.1 (20241206.2353)
 -->
<!-- Title: /Users/ilariomazzieri/Desktop/vulpes/vulpes/la/tensor.hpp Pages: 1 -->
<!--zoomable 282 -->

<svg id="main" version="1.1" xmlns="http://www.w3.org/2000/svg" xmlns:xlink="http://www.w3.org/1999/xlink" xml:space="preserve" onload="init(evt)">
<style type="text/css"><![CDATA[
.node, .edge {opacity: 0.7;}
.node.selected, .edge.selected {opacity: 1;}
.edge:hover path { stroke: red; }
.edge:hover polygon { stroke: red; fill: red; }
]]></style>

<defs>
  <circle id="rim" cx="0" cy="0" r="7"/>
  <circle id="rim2" cx="0" cy="0" r="3.5"/>
  <g id="zoomPlus">
    <use xlink:href="#rim" fill="#404040"><set attributeName="fill" to="#808080" begin="zoomplus.mouseover" end="zoomplus.mouseout"/></use>
    <path d="M-4,0h8M0,-4v8" fill="none" stroke="white" stroke-width="1.5" pointer-events="none"/>
  </g>
  <g id="zoomMin">
    <use xlink:href="#rim" fill="#404040"><set attributeName="fill" to="#808080" begin="zoomminus.mouseover" end="zoomminus.mouseout"/></use>
    <path d="M-4,0h8" fill="none" stroke="white" stroke-width="1.5" pointer-events="none"/>
  </g>
  <g id="arrowUp" transform="translate(30 24)">
    <use xlink:href="#rim"/>
    <path pointer-events="none" fill="none" stroke="white" stroke-width="1.5" d="M0,-3.0v7 M-2.5,-0.5L0,-3.0L2.5,-0.5"/>
  </g>
  <g id="arrowRight" transform="rotate(90) translate(36 -43)">
    <use xlink:href="#rim"/>
    <path pointer-events="none" fill="none" stroke="white" stroke-width="1.5" d="M0,-3.0v7 M-2.5,-0.5L0,-3.0L2.5,-0.5"/>
  </g>
  <g id="arrowDown" transform="rotate(180) translate(-30 -48)">
    <use xlink:href="#rim"/>
    <path pointer-events="none" fill="none" stroke="white" stroke-width="1.5" d="M0,-3.0v7 M-2.5,-0.5L0,-3.0L2.5,-0.5"/>
  </g>
  <g id="arrowLeft" transform="rotate(270) translate(-36 17)">
    <use xlink:href="#rim"/>
    <path pointer-events="none" fill="none" stroke="white" stroke-width="1.5" d="M0,-3.0v7 M-2.5,-0.5L0,-3.0L2.5,-0.5"/>
  </g>
  <g id="resetDef">
    <use xlink:href="#rim2" fill="#404040"><set attributeName="fill" to="#808080" begin="reset.mouseover" end="reset.mouseout"/></use>
  </g>
</defs>
<script type="application/ecmascript">
var viewWidth = 1137;
var viewHeight = 282;
var sectionId = 'dynsection-0';
</script>
<script type="application/ecmascript" xlink:href="svg.min.js"/>
<svg id="graph" class="graph">
<g id="viewport">
<title>/Users/ilariomazzieri/Desktop/vulpes/vulpes/la/tensor.hpp</title>
<!-- Node1 -->
<g id="Node000001" class="node">
<title>Node1</title>
<g id="a_Node000001"><a xlink:title=" ">
<polygon fill="#999999" stroke="#666666" points="879.38,-274 760.62,-274 760.62,-232.25 879.38,-232.25 879.38,-274"/>
<text text-anchor="start" x="768.62" y="-260.5" font-family="Helvetica,sans-Serif" font-size="10.00">/Users/ilariomazzieri</text>
<text text-anchor="start" x="768.62" y="-249.25" font-family="Helvetica,sans-Serif" font-size="10.00">/Desktop/vulpes/vulpes</text>
<text text-anchor="middle" x="820" y="-238" font-family="Helvetica,sans-Serif" font-size="10.00">/la/tensor.hpp</text>
</a>
</g>
</g>
<!-- Node2 -->
<g id="Node000002" class="node">
<title>Node2</title>
<g id="a_Node000002"><a xlink:title=" ">
<polygon fill="#e0e0e0" stroke="#999999" points="234,-141 170,-141 170,-121.75 234,-121.75 234,-141"/>
<text text-anchor="middle" x="202" y="-127.5" font-family="Helvetica,sans-Serif" font-size="10.00">petscsys.h</text>
</a>
</g>
</g>
<!-- Node1&#45;&gt;Node2 -->
<g id="edge1_Node000001_Node000002" class="edge">
<title>Node1&#45;&gt;Node2</title>
<g id="a_edge1_Node000001_Node000002"><a xlink:title=" ">
<path fill="none" stroke="#63b8ff" d="M760.37,-249.51C672.75,-244.62 504.61,-231.19 366,-196.25 317.02,-183.9 262.91,-160.87 230.72,-146.09"/>
<polygon fill="#63b8ff" stroke="#63b8ff" points="232.6,-143.11 222.06,-142.07 229.65,-149.46 232.6,-143.11"/>
</a>
</g>
</g>
<!-- Node3 -->
<g id="Node000003" class="node">
<title>Node3</title>
<g id="a_Node000003"><a xlink:title=" ">
<polygon fill="#e0e0e0" stroke="#999999" points="963,-196.25 899,-196.25 899,-177 963,-177 963,-196.25"/>
<text text-anchor="middle" x="931" y="-182.75" font-family="Helvetica,sans-Serif" font-size="10.00">petscvec.h</text>
</a>
</g>
</g>
<!-- Node1&#45;&gt;Node3 -->
<g id="edge2_Node000001_Node000003" class="edge">
<title>Node1&#45;&gt;Node3</title>
<g id="a_edge2_Node000001_Node000003"><a xlink:title=" ">
<path fill="none" stroke="#63b8ff" d="M854.82,-231.89C871.35,-222.29 890.73,-211.02 905.81,-202.26"/>
<polygon fill="#63b8ff" stroke="#63b8ff" points="907.28,-205.46 914.17,-197.4 903.76,-199.4 907.28,-205.46"/>
</a>
</g>
</g>
<!-- Node4 -->
<g id="Node000004" class="node">
<title>Node4</title>
<g id="a_Node000004"><a xlink:title=" ">
<polygon fill="#e0e0e0" stroke="#999999" points="1076.75,-196.25 981.25,-196.25 981.25,-177 1076.75,-177 1076.75,-196.25"/>
<text text-anchor="middle" x="1029" y="-182.75" font-family="Helvetica,sans-Serif" font-size="10.00">petscviewerhdf5.h</text>
</a>
</g>
</g>
<!-- Node1&#45;&gt;Node4 -->
<g id="edge3_Node000001_Node000004" class="edge">
<title>Node1&#45;&gt;Node4</title>
<g id="a_edge3_Node000001_Node000004"><a xlink:title=" ">
<path fill="none" stroke="#63b8ff" d="M879.61,-233.73C914.53,-222.95 957.72,-209.62 988.66,-200.08"/>
<polygon fill="#63b8ff" stroke="#63b8ff" points="989.5,-203.48 998.02,-197.19 987.43,-196.79 989.5,-203.48"/>
</a>
</g>
</g>
<!-- Node5 -->
<g id="Node000005" class="node">
<title>Node5</title>
<g id="a_Node000005"><a xlink:title=" ">
<polygon fill="#e0e0e0" stroke="#999999" points="1129.38,-196.25 1094.62,-196.25 1094.62,-177 1129.38,-177 1129.38,-196.25"/>
<text text-anchor="middle" x="1112" y="-182.75" font-family="Helvetica,sans-Serif" font-size="10.00">map</text>
</a>
</g>
</g>
<!-- Node1&#45;&gt;Node5 -->
<g id="edge4_Node000001_Node000005" class="edge">
<title>Node1&#45;&gt;Node5</title>
<g id="a_edge4_Node000001_Node000005"><a xlink:title=" ">
<path fill="none" stroke="#63b8ff" d="M879.62,-241.6C931.29,-232.03 1008.21,-216.71 1083.14,-196.8"/>
<polygon fill="#63b8ff" stroke="#63b8ff" points="1083.97,-200.2 1092.72,-194.23 1082.15,-193.44 1083.97,-200.2"/>
</a>
</g>
</g>
<!-- Node6 -->
<g id="Node000006" class="node">
<title>Node6</title>
<g id="a_Node000006"><a xlink:title=" ">
<polygon fill="#e0e0e0" stroke="#999999" points="40,-19.25 0,-19.25 0,0 40,0 40,-19.25"/>
<text text-anchor="middle" x="20" y="-5.75" font-family="Helvetica,sans-Serif" font-size="10.00">string</text>
</a>
</g>
</g>
<!-- Node1&#45;&gt;Node6 -->
<g id="edge5_Node000001_Node000006" class="edge">
<title>Node1&#45;&gt;Node6</title>
<g id="a_edge5_Node000001_Node000006"><a xlink:title=" ">
<path fill="none" stroke="#63b8ff" d="M760.47,-250.82C663.2,-247.56 464.74,-236.15 302,-196.25 236.63,-180.22 218.03,-176.74 161,-141 108.94,-108.37 58.77,-55.16 34.74,-27.91"/>
<polygon fill="#63b8ff" stroke="#63b8ff" points="37.57,-25.82 28.37,-20.57 32.28,-30.42 37.57,-25.82"/>
</a>
</g>
</g>
<!-- Node7 -->
<g id="Node000007" class="node">
<title>Node7</title>
<g id="a_Node000007"><a xlink:title=" ">
<polygon fill="#e0e0e0" stroke="#999999" points="903.62,-19.25 864.38,-19.25 864.38,0 903.62,0 903.62,-19.25"/>
<text text-anchor="middle" x="884" y="-5.75" font-family="Helvetica,sans-Serif" font-size="10.00">utility</text>
</a>
</g>
</g>
<!-- Node1&#45;&gt;Node7 -->
<g id="edge6_Node000001_Node000007" class="edge">
<title>Node1&#45;&gt;Node7</title>
<g id="a_edge6_Node000001_Node000007"><a xlink:title=" ">
<path fill="none" stroke="#63b8ff" d="M825.58,-231.92C834.19,-200.64 851.18,-138.58 865,-85.75 869.9,-67.04 875.28,-45.66 879.07,-30.5"/>
<polygon fill="#63b8ff" stroke="#63b8ff" points="882.44,-31.45 881.46,-20.9 875.65,-29.75 882.44,-31.45"/>
</a>
</g>
</g>
<!-- Node8 -->
<g id="Node000008" class="node">
<title>Node8</title>
<g id="a_Node000008"><a xlink:title=" ">
<polygon fill="#e0e0e0" stroke="#999999" points="856.12,-80.12 783.88,-80.12 783.88,-60.88 856.12,-60.88 856.12,-80.12"/>
<text text-anchor="middle" x="820" y="-66.62" font-family="Helvetica,sans-Serif" font-size="10.00">Eigen/Dense</text>
</a>
</g>
</g>
<!-- Node1&#45;&gt;Node8 -->
<g id="edge7_Node000001_Node000008" class="edge">
<title>Node1&#45;&gt;Node8</title>
<g id="a_edge7_Node000001_Node000008"><a xlink:title=" ">
<path fill="none" stroke="#63b8ff" d="M820,-231.76C820,-197.07 820,-126.91 820,-92.08"/>
<polygon fill="#63b8ff" stroke="#63b8ff" points="823.5,-92.12 820,-82.12 816.5,-92.12 823.5,-92.12"/>
</a>
</g>
</g>
<!-- Node9 -->
<g id="Node000009" class="node">
<title>Node9</title>
<g id="a_Node000009"><a xlink:href="petsc__utils_8hpp.html" target="_top" xlink:title=" ">
<polygon fill="white" stroke="#666666" points="499,-196.25 375,-196.25 375,-177 499,-177 499,-196.25"/>
<text text-anchor="middle" x="437" y="-182.75" font-family="Helvetica,sans-Serif" font-size="10.00">vulpes/la/petsc_utils.hpp</text>
</a>
</g>
</g>
<!-- Node1&#45;&gt;Node9 -->
<g id="edge8_Node000001_Node000009" class="edge">
<title>Node1&#45;&gt;Node9</title>
<g id="a_edge8_Node000001_Node000009"><a xlink:title=" ">
<path fill="none" stroke="#63b8ff" d="M760.16,-242.05C690.16,-230.26 574.68,-210.81 502.38,-198.64"/>
<polygon fill="#63b8ff" stroke="#63b8ff" points="503.1,-195.21 492.66,-197 501.94,-202.11 503.1,-195.21"/>
</a>
</g>
</g>
<!-- Node10 -->
<g id="Node000010" class="node">
<title>Node10</title>
<g id="a_Node000010"><a xlink:href="mpi__wrappers_8hpp.html" target="_top" xlink:title=" ">
<polygon fill="white" stroke="#666666" points="630,-141 482,-141 482,-121.75 630,-121.75 630,-141"/>
<text text-anchor="middle" x="556" y="-127.5" font-family="Helvetica,sans-Serif" font-size="10.00">vulpes/utils/mpi_wrappers.hpp</text>
</a>
</g>
</g>
<!-- Node1&#45;&gt;Node10 -->
<g id="edge37_Node000001_Node000010" class="edge">
<title>Node1&#45;&gt;Node10</title>
<g id="a_edge37_Node000001_Node000010"><a xlink:title=" ">
<path fill="none" stroke="#63b8ff" d="M775.22,-231.81C721.42,-207.41 632.64,-167.14 586.3,-146.12"/>
<polygon fill="#63b8ff" stroke="#63b8ff" points="587.94,-143.02 577.39,-142.08 585.05,-149.39 587.94,-143.02"/>
</a>
</g>
</g>
<!-- Node9&#45;&gt;Node2 -->
<g id="edge9_Node000009_Node000002" class="edge">
<title>Node9&#45;&gt;Node2</title>
<g id="a_edge9_Node000009_Node000002"><a xlink:title=" ">
<path fill="none" stroke="#63b8ff" d="M396.87,-176.53C354.75,-166.99 288.76,-152.03 245.44,-142.22"/>
<polygon fill="#63b8ff" stroke="#63b8ff" points="246.4,-138.85 235.88,-140.05 244.86,-145.67 246.4,-138.85"/>
</a>
</g>
</g>
<!-- Node9&#45;&gt;Node6 -->
<g id="edge10_Node000009_Node000006" class="edge">
<title>Node9&#45;&gt;Node6</title>
<g id="a_edge10_Node000009_Node000006"><a xlink:title=" ">
<path fill="none" stroke="#63b8ff" d="M415.46,-176.58C346.49,-147.64 130.94,-57.18 50.59,-23.46"/>
<polygon fill="#63b8ff" stroke="#63b8ff" points="52.15,-20.32 41.58,-19.68 49.44,-26.78 52.15,-20.32"/>
</a>
</g>
</g>
<!-- Node9&#45;&gt;Node10 -->
<g id="edge11_Node000009_Node000010" class="edge">
<title>Node9&#45;&gt;Node10</title>
<g id="a_edge11_Node000009_Node000010"><a xlink:title=" ">
<path fill="none" stroke="#63b8ff" d="M457.19,-176.59C475.91,-168.22 504.02,-155.63 525.48,-146.03"/>
<polygon fill="#63b8ff" stroke="#63b8ff" points="526.63,-149.35 534.33,-142.07 523.78,-142.96 526.63,-149.35"/>
</a>
</g>
</g>
<!-- Node10&#45;&gt;Node8 -->
<g id="edge17_Node000010_Node000008" class="edge">
<title>Node10&#45;&gt;Node8</title>
<g id="a_edge17_Node000010_Node000008"><a xlink:title=" ">
<path fill="none" stroke="#63b8ff" d="M608.57,-121.28C653.16,-113.18 718.66,-100.37 775,-85.75 777.29,-85.16 779.64,-84.51 782,-83.84"/>
<polygon fill="#63b8ff" stroke="#63b8ff" points="782.98,-87.2 791.56,-80.99 780.97,-80.5 782.98,-87.2"/>
</a>
</g>
</g>
<!-- Node11 -->
<g id="Node000011" class="node">
<title>Node11</title>
<g id="a_Node000011"><a xlink:title=" ">
<polygon fill="#e0e0e0" stroke="#999999" points="502,-80.12 462,-80.12 462,-60.88 502,-60.88 502,-80.12"/>
<text text-anchor="middle" x="482" y="-66.62" font-family="Helvetica,sans-Serif" font-size="10.00">mpi.h</text>
</a>
</g>
</g>
<!-- Node10&#45;&gt;Node11 -->
<g id="edge12_Node000010_Node000011" class="edge">
<title>Node10&#45;&gt;Node11</title>
<g id="a_edge12_Node000010_Node000011"><a xlink:title=" ">
<path fill="none" stroke="#63b8ff" d="M544.76,-121.43C533.46,-112.44 515.79,-98.39 502.08,-87.48"/>
<polygon fill="#63b8ff" stroke="#63b8ff" points="504.53,-84.96 494.53,-81.47 500.18,-90.43 504.53,-84.96"/>
</a>
</g>
</g>
<!-- Node12 -->
<g id="Node000012" class="node">
<title>Node12</title>
<g id="a_Node000012"><a xlink:title=" ">
<polygon fill="#e0e0e0" stroke="#999999" points="606.12,-80.12 557.88,-80.12 557.88,-60.88 606.12,-60.88 606.12,-80.12"/>
<text text-anchor="middle" x="582" y="-66.62" font-family="Helvetica,sans-Serif" font-size="10.00">petsc.h</text>
</a>
</g>
</g>
<!-- Node10&#45;&gt;Node12 -->
<g id="edge13_Node000010_Node000012" class="edge">
<title>Node10&#45;&gt;Node12</title>
<g id="a_edge13_Node000010_Node000012"><a xlink:title=" ">
<path fill="none" stroke="#63b8ff" d="M559.95,-121.43C563.5,-113.39 568.84,-101.3 573.37,-91.03"/>
<polygon fill="#63b8ff" stroke="#63b8ff" points="576.56,-92.47 577.4,-81.91 570.16,-89.64 576.56,-92.47"/>
</a>
</g>
</g>
<!-- Node13 -->
<g id="Node000013" class="node">
<title>Node13</title>
<g id="a_Node000013"><a xlink:title=" ">
<polygon fill="#e0e0e0" stroke="#999999" points="726.12,-19.25 677.88,-19.25 677.88,0 726.12,0 726.12,-19.25"/>
<text text-anchor="middle" x="702" y="-5.75" font-family="Helvetica,sans-Serif" font-size="10.00">cassert</text>
</a>
</g>
</g>
<!-- Node10&#45;&gt;Node13 -->
<g id="edge14_Node000010_Node000013" class="edge">
<title>Node10&#45;&gt;Node13</title>
<g id="a_edge14_Node000010_Node000013"><a xlink:title=" ">
<path fill="none" stroke="#63b8ff" d="M568.38,-121.37C580.44,-112.52 599.22,-98.51 615,-85.75 639.32,-66.09 666.46,-42.35 683.86,-26.9"/>
<polygon fill="#63b8ff" stroke="#63b8ff" points="685.74,-29.91 690.87,-20.64 681.08,-24.68 685.74,-29.91"/>
</a>
</g>
</g>
<!-- Node14 -->
<g id="Node000014" class="node">
<title>Node14</title>
<g id="a_Node000014"><a xlink:title=" ">
<polygon fill="#e0e0e0" stroke="#999999" points="525.75,-19.25 472.25,-19.25 472.25,0 525.75,0 525.75,-19.25"/>
<text text-anchor="middle" x="499" y="-5.75" font-family="Helvetica,sans-Serif" font-size="10.00">iostream</text>
</a>
</g>
</g>
<!-- Node10&#45;&gt;Node14 -->
<g id="edge15_Node000010_Node000014" class="edge">
<title>Node10&#45;&gt;Node14</title>
<g id="a_edge15_Node000010_Node000014"><a xlink:title=" ">
<path fill="none" stroke="#63b8ff" d="M551.72,-121.37C542.51,-102.04 520.69,-56.18 508.19,-29.94"/>
<polygon fill="#63b8ff" stroke="#63b8ff" points="511.44,-28.62 503.98,-21.1 505.12,-31.63 511.44,-28.62"/>
</a>
</g>
</g>
<!-- Node15 -->
<g id="Node000015" class="node">
<title>Node15</title>
<g id="a_Node000015"><a xlink:title=" ">
<polygon fill="#e0e0e0" stroke="#999999" points="586.5,-19.25 543.5,-19.25 543.5,0 586.5,0 586.5,-19.25"/>
<text text-anchor="middle" x="565" y="-5.75" font-family="Helvetica,sans-Serif" font-size="10.00">vector</text>
</a>
</g>
</g>
<!-- Node10&#45;&gt;Node15 -->
<g id="edge16_Node000010_Node000015" class="edge">
<title>Node10&#45;&gt;Node15</title>
<g id="a_edge16_Node000010_Node000015"><a xlink:title=" ">
<path fill="none" stroke="#63b8ff" d="M506.53,-121.31C486.38,-114.91 465.03,-104.08 453,-85.75 445.56,-74.42 445.39,-66.47 453,-55.25 457.75,-48.24 501.3,-32.24 532.66,-21.44"/>
<polygon fill="#63b8ff" stroke="#63b8ff" points="533.4,-24.88 541.73,-18.34 531.14,-18.26 533.4,-24.88"/>
</a>
</g>
</g>
<!-- Node16 -->
<g id="Node000016" class="node">
<title>Node16</title>
<g id="a_Node000016"><a xlink:href="crs__map_8hpp.html" target="_top" xlink:title=" ">
<polygon fill="white" stroke="#666666" points="766.25,-85.75 661.75,-85.75 661.75,-55.25 766.25,-55.25 766.25,-85.75"/>
<text text-anchor="start" x="669.75" y="-72.25" font-family="Helvetica,sans-Serif" font-size="10.00">vulpes/datastructure</text>
<text text-anchor="middle" x="714" y="-61" font-family="Helvetica,sans-Serif" font-size="10.00">/crs_map.hpp</text>
</a>
</g>
</g>
<!-- Node10&#45;&gt;Node16 -->
<g id="edge18_Node000010_Node000016" class="edge">
<title>Node10&#45;&gt;Node16</title>
<g id="a_edge18_Node000010_Node000016"><a xlink:title=" ">
<path fill="none" stroke="#63b8ff" d="M580.34,-121.3C602.5,-113.05 635.92,-100.59 663.8,-90.21"/>
<polygon fill="#63b8ff" stroke="#63b8ff" points="665,-93.49 673.15,-86.72 662.55,-86.94 665,-93.49"/>
</a>
</g>
</g>
<!-- Node21 -->
<g id="Node000021" class="node">
<title>Node21</title>
<g id="a_Node000021"><a xlink:href="profiler_8hpp.html" target="_top" xlink:title=" ">
<polygon fill="white" stroke="#666666" points="405.88,-80.12 290.12,-80.12 290.12,-60.88 405.88,-60.88 405.88,-80.12"/>
<text text-anchor="middle" x="348" y="-66.62" font-family="Helvetica,sans-Serif" font-size="10.00">vulpes/utils/profiler.hpp</text>
</a>
</g>
</g>
<!-- Node10&#45;&gt;Node21 -->
<g id="edge26_Node000010_Node000021" class="edge">
<title>Node10&#45;&gt;Node21</title>
<g id="a_edge26_Node000010_Node000021"><a xlink:title=" ">
<path fill="none" stroke="#63b8ff" d="M523.96,-121.3C488.3,-111.21 430.52,-94.86 390.97,-83.66"/>
<polygon fill="#63b8ff" stroke="#63b8ff" points="392.11,-80.35 381.54,-80.99 390.21,-87.08 392.11,-80.35"/>
</a>
</g>
</g>
<!-- Node16&#45;&gt;Node7 -->
<g id="edge23_Node000016_Node000007" class="edge">
<title>Node16&#45;&gt;Node7</title>
<g id="a_edge23_Node000016_Node000007"><a xlink:title=" ">
<path fill="none" stroke="#63b8ff" d="M756.46,-54.8C786.58,-44.36 826.3,-30.61 853.36,-21.24"/>
<polygon fill="#63b8ff" stroke="#63b8ff" points="854.38,-24.59 862.68,-18.01 852.09,-17.97 854.38,-24.59"/>
</a>
</g>
</g>
<!-- Node16&#45;&gt;Node13 -->
<g id="edge21_Node000016_Node000013" class="edge">
<title>Node16&#45;&gt;Node13</title>
<g id="a_edge21_Node000016_Node000013"><a xlink:title=" ">
<path fill="none" stroke="#63b8ff" d="M711.03,-54.95C709.56,-47.71 707.75,-38.84 706.14,-30.94"/>
<polygon fill="#63b8ff" stroke="#63b8ff" points="709.58,-30.28 704.15,-21.18 702.72,-31.68 709.58,-30.28"/>
</a>
</g>
</g>
<!-- Node16&#45;&gt;Node15 -->
<g id="edge25_Node000016_Node000015" class="edge">
<title>Node16&#45;&gt;Node15</title>
<g id="a_edge25_Node000016_Node000015"><a xlink:title=" ">
<path fill="none" stroke="#63b8ff" d="M676.79,-54.8C652.38,-45.15 620.78,-32.66 597.4,-23.43"/>
<polygon fill="#63b8ff" stroke="#63b8ff" points="598.97,-20.29 588.39,-19.87 596.4,-26.8 598.97,-20.29"/>
</a>
</g>
</g>
<!-- Node17 -->
<g id="Node000017" class="node">
<title>Node17</title>
<g id="a_Node000017"><a xlink:title=" ">
<polygon fill="#e0e0e0" stroke="#999999" points="659.88,-19.25 604.12,-19.25 604.12,0 659.88,0 659.88,-19.25"/>
<text text-anchor="middle" x="632" y="-5.75" font-family="Helvetica,sans-Serif" font-size="10.00">algorithm</text>
</a>
</g>
</g>
<!-- Node16&#45;&gt;Node17 -->
<g id="edge19_Node000016_Node000017" class="edge">
<title>Node16&#45;&gt;Node17</title>
<g id="a_edge19_Node000016_Node000017"><a xlink:title=" ">
<path fill="none" stroke="#63b8ff" d="M693.73,-54.95C681.61,-46.24 666.2,-35.18 653.81,-26.28"/>
<polygon fill="#63b8ff" stroke="#63b8ff" points="656.04,-23.57 645.87,-20.58 651.95,-29.26 656.04,-23.57"/>
</a>
</g>
</g>
<!-- Node18 -->
<g id="Node000018" class="node">
<title>Node18</title>
<g id="a_Node000018"><a xlink:title=" ">
<polygon fill="#e0e0e0" stroke="#999999" points="845.88,-19.25 808.12,-19.25 808.12,0 845.88,0 845.88,-19.25"/>
<text text-anchor="middle" x="827" y="-5.75" font-family="Helvetica,sans-Serif" font-size="10.00">array</text>
</a>
</g>
</g>
<!-- Node16&#45;&gt;Node18 -->
<g id="edge20_Node000016_Node000018" class="edge">
<title>Node16&#45;&gt;Node18</title>
<g id="a_edge20_Node000016_Node000018"><a xlink:title=" ">
<path fill="none" stroke="#63b8ff" d="M742.22,-54.8C759.76,-45.66 782.2,-33.97 799.59,-24.91"/>
<polygon fill="#63b8ff" stroke="#63b8ff" points="801.08,-28.08 808.33,-20.35 797.84,-21.87 801.08,-28.08"/>
</a>
</g>
</g>
<!-- Node19 -->
<g id="Node000019" class="node">
<title>Node19</title>
<g id="a_Node000019"><a xlink:title=" ">
<polygon fill="#e0e0e0" stroke="#999999" points="972.62,-19.25 921.38,-19.25 921.38,0 972.62,0 972.62,-19.25"/>
<text text-anchor="middle" x="947" y="-5.75" font-family="Helvetica,sans-Serif" font-size="10.00">ostream</text>
</a>
</g>
</g>
<!-- Node16&#45;&gt;Node19 -->
<g id="edge22_Node000016_Node000019" class="edge">
<title>Node16&#45;&gt;Node19</title>
<g id="a_edge22_Node000016_Node000019"><a xlink:title=" ">
<path fill="none" stroke="#63b8ff" d="M766.38,-56.29C803.92,-46.82 856.01,-33.67 909.86,-20.04"/>
<polygon fill="#63b8ff" stroke="#63b8ff" points="910.71,-23.44 919.54,-17.59 908.99,-16.65 910.71,-23.44"/>
</a>
</g>
</g>
<!-- Node20 -->
<g id="Node000020" class="node">
<title>Node20</title>
<g id="a_Node000020"><a xlink:title=" ">
<polygon fill="#e0e0e0" stroke="#999999" points="789.62,-19.25 744.38,-19.25 744.38,0 789.62,0 789.62,-19.25"/>
<text text-anchor="middle" x="767" y="-5.75" font-family="Helvetica,sans-Serif" font-size="10.00">variant</text>
</a>
</g>
</g>
<!-- Node16&#45;&gt;Node20 -->
<g id="edge24_Node000016_Node000020" class="edge">
<title>Node16&#45;&gt;Node20</title>
<g id="a_edge24_Node000016_Node000020"><a xlink:title=" ">
<path fill="none" stroke="#63b8ff" d="M727.1,-54.95C734.39,-46.84 743.53,-36.7 751.21,-28.16"/>
<polygon fill="#63b8ff" stroke="#63b8ff" points="753.73,-30.6 757.82,-20.83 748.53,-25.92 753.73,-30.6"/>
</a>
</g>
</g>
<!-- Node21&#45;&gt;Node6 -->
<g id="edge32_Node000021_Node000006" class="edge">
<title>Node21&#45;&gt;Node6</title>
<g id="a_edge32_Node000021_Node000006"><a xlink:title=" ">
<path fill="none" stroke="#63b8ff" d="M303.5,-60.42C294.41,-58.64 284.91,-56.84 276,-55.25 178.97,-37.96 150.59,-41.57 51.33,-19.52"/>
<polygon fill="#63b8ff" stroke="#63b8ff" points="52.19,-16.12 41.67,-17.33 50.65,-22.95 52.19,-16.12"/>
</a>
</g>
</g>
<!-- Node21&#45;&gt;Node7 -->
<g id="edge34_Node000021_Node000007" class="edge">
<title>Node21&#45;&gt;Node7</title>
<g id="a_edge34_Node000021_Node000007"><a xlink:title=" ">
<path fill="none" stroke="#63b8ff" d="M406.26,-61.11C421.46,-59.06 437.83,-56.96 453,-55.25 627.6,-35.59 676.81,-52.27 852.93,-19.24"/>
<polygon fill="#63b8ff" stroke="#63b8ff" points="853.51,-22.69 862.67,-17.38 852.2,-15.81 853.51,-22.69"/>
</a>
</g>
</g>
<!-- Node21&#45;&gt;Node14 -->
<g id="edge31_Node000021_Node000014" class="edge">
<title>Node21&#45;&gt;Node14</title>
<g id="a_edge31_Node000021_Node000014"><a xlink:title=" ">
<path fill="none" stroke="#63b8ff" d="M371.26,-60.43C396.31,-50.66 436.41,-35.03 465,-23.88"/>
<polygon fill="#63b8ff" stroke="#63b8ff" points="466.26,-27.15 474.3,-20.26 463.71,-20.63 466.26,-27.15"/>
</a>
</g>
</g>
<!-- Node21&#45;&gt;Node15 -->
<g id="edge35_Node000021_Node000015" class="edge">
<title>Node21&#45;&gt;Node15</title>
<g id="a_edge35_Node000021_Node000015"><a xlink:title=" ">
<path fill="none" stroke="#63b8ff" d="M382.51,-60.42C417.88,-51.07 474.72,-35.93 532.3,-19.97"/>
<polygon fill="#63b8ff" stroke="#63b8ff" points="532.9,-23.44 541.6,-17.39 531.03,-16.69 532.9,-23.44"/>
</a>
</g>
</g>
<!-- Node21&#45;&gt;Node17 -->
<g id="edge27_Node000021_Node000017" class="edge">
<title>Node21&#45;&gt;Node17</title>
<g id="a_edge27_Node000021_Node000017"><a xlink:title=" ">
<path fill="none" stroke="#63b8ff" d="M395.19,-60.45C442.81,-51.21 518.76,-36.15 592.81,-19.9"/>
<polygon fill="#63b8ff" stroke="#63b8ff" points="593.23,-23.4 602.25,-17.83 591.73,-16.56 593.23,-23.4"/>
</a>
</g>
</g>
<!-- Node22 -->
<g id="Node000022" class="node">
<title>Node22</title>
<g id="a_Node000022"><a xlink:title=" ">
<polygon fill="#e0e0e0" stroke="#999999" points="103.62,-19.25 58.38,-19.25 58.38,0 103.62,0 103.62,-19.25"/>
<text text-anchor="middle" x="81" y="-5.75" font-family="Helvetica,sans-Serif" font-size="10.00">chrono</text>
</a>
</g>
</g>
<!-- Node21&#45;&gt;Node22 -->
<g id="edge28_Node000021_Node000022" class="edge">
<title>Node21&#45;&gt;Node22</title>
<g id="a_edge28_Node000021_Node000022"><a xlink:title=" ">
<path fill="none" stroke="#63b8ff" d="M301.91,-60.39C256.73,-51.3 185.66,-36.55 114.92,-19.61"/>
<polygon fill="#63b8ff" stroke="#63b8ff" points="116.05,-16.28 105.51,-17.34 114.41,-23.09 116.05,-16.28"/>
</a>
</g>
</g>
<!-- Node23 -->
<g id="Node000023" class="node">
<title>Node23</title>
<g id="a_Node000023"><a xlink:title=" ">
<polygon fill="#e0e0e0" stroke="#999999" points="170.12,-19.25 121.88,-19.25 121.88,0 170.12,0 170.12,-19.25"/>
<text text-anchor="middle" x="146" y="-5.75" font-family="Helvetica,sans-Serif" font-size="10.00">cstddef</text>
</a>
</g>
</g>
<!-- Node21&#45;&gt;Node23 -->
<g id="edge29_Node000021_Node000023" class="edge">
<title>Node21&#45;&gt;Node23</title>
<g id="a_edge29_Node000021_Node000023"><a xlink:title=" ">
<path fill="none" stroke="#63b8ff" d="M316.88,-60.43C280.22,-49.74 219.45,-32.03 181.13,-20.86"/>
<polygon fill="#63b8ff" stroke="#63b8ff" points="182.52,-17.62 171.94,-18.18 180.56,-24.34 182.52,-17.62"/>
</a>
</g>
</g>
<!-- Node24 -->
<g id="Node000024" class="node">
<title>Node24</title>
<g id="a_Node000024"><a xlink:title=" ">
<polygon fill="#e0e0e0" stroke="#999999" points="237.88,-19.25 188.12,-19.25 188.12,0 237.88,0 237.88,-19.25"/>
<text text-anchor="middle" x="213" y="-5.75" font-family="Helvetica,sans-Serif" font-size="10.00">iomanip</text>
</a>
</g>
</g>
<!-- Node21&#45;&gt;Node24 -->
<g id="edge30_Node000021_Node000024" class="edge">
<title>Node21&#45;&gt;Node24</title>
<g id="a_edge30_Node000021_Node000024"><a xlink:title=" ">
<path fill="none" stroke="#63b8ff" d="M327.2,-60.43C304.94,-50.72 269.38,-35.21 243.86,-24.08"/>
<polygon fill="#63b8ff" stroke="#63b8ff" points="245.55,-21 234.99,-20.21 242.75,-27.42 245.55,-21"/>
</a>
</g>
</g>
<!-- Node25 -->
<g id="Node000025" class="node">
<title>Node25</title>
<g id="a_Node000025"><a xlink:title=" ">
<polygon fill="#e0e0e0" stroke="#999999" points="338.38,-19.25 255.62,-19.25 255.62,0 338.38,0 338.38,-19.25"/>
<text text-anchor="middle" x="297" y="-5.75" font-family="Helvetica,sans-Serif" font-size="10.00">unordered_map</text>
</a>
</g>
</g>
<!-- Node21&#45;&gt;Node25 -->
<g id="edge33_Node000021_Node000025" class="edge">
<title>Node21&#45;&gt;Node25</title>
<g id="a_edge33_Node000021_Node000025"><a xlink:title=" ">
<path fill="none" stroke="#63b8ff" d="M340.25,-60.56C332.84,-52 321.45,-38.85 312.22,-28.2"/>
<polygon fill="#63b8ff" stroke="#63b8ff" points="315,-26.06 305.81,-20.8 309.71,-30.65 315,-26.06"/>
</a>
</g>
</g>
<!-- Node26 -->
<g id="Node000026" class="node">
<title>Node26</title>
<g id="a_Node000026"><a xlink:title=" ">
<polygon fill="#e0e0e0" stroke="#999999" points="453.88,-19.25 356.12,-19.25 356.12,0 453.88,0 453.88,-19.25"/>
<text text-anchor="middle" x="405" y="-5.75" font-family="Helvetica,sans-Serif" font-size="10.00">nlohmann/json.hpp</text>
</a>
</g>
</g>
<!-- Node21&#45;&gt;Node26 -->
<g id="edge36_Node000021_Node000026" class="edge">
<title>Node21&#45;&gt;Node26</title>
<g id="a_edge36_Node000021_Node000026"><a xlink:title=" ">
<path fill="none" stroke="#63b8ff" d="M356.66,-60.56C365.03,-51.91 377.93,-38.59 388.3,-27.87"/>
<polygon fill="#63b8ff" stroke="#63b8ff" points="390.77,-30.36 395.21,-20.74 385.74,-25.49 390.77,-30.36"/>
</a>
</g>
</g>
</g>
</svg>

<g id="navigator" transform="translate(0 0)" fill="#404254">
  <rect fill="#f2f5e9" fill-opacity="0.5" stroke="#606060" stroke-width=".5" x="0" y="0" width="60" height="60"/>
  <use id="zoomplus" xlink:href="#zoomPlus" x="17" y="9" onmousedown="handleZoom(evt,'in')"/>
  <use id="zoomminus" xlink:href="#zoomMin" x="42" y="9" onmousedown="handleZoom(evt,'out')"/>
  <use id="reset" xlink:href="#resetDef" x="30" y="36" onmousedown="handleReset()"/>
   <use id="arrowup" xlink:href="#arrowUp" x="0" y="0" onmousedown="handlePan(0,-1)"/>
  <use id="arrowright" xlink:href="#arrowRight" x="0" y="0" onmousedown="handlePan(1,0)"/>
  <use id="arrowdown" xlink:href="#arrowDown" x="0" y="0" onmousedown="handlePan(0,1)"/>
  <use id="arrowleft" xlink:href="#arrowLeft" x="0" y="0" onmousedown="handlePan(-1,0)"/>
</g>
<svg viewBox="0 0 15 15" width="100%" height="30px" preserveAspectRatio="xMaxYMin meet">
 <g id="arrow_out" transform="scale(0.3 0.3)">
  <a xlink:href="la_2tensor_8hpp__incl_org.svg" target="_base">
   <rect id="button" ry="5" rx="5" y="6" x="6" height="38" width="38"
        fill="#f2f5e9" fill-opacity="0.5" stroke="#606060" stroke-width="1.0"/>
   <path id="arrow"
     d="M 11.500037,31.436501 C 11.940474,20.09759 22.043105,11.32322 32.158766,21.979434 L 37.068811,17.246167 C 37.068811,17.246167 37.088388,32 37.088388,32 L 22.160133,31.978069 C 22.160133,31.978069 26.997745,27.140456 26.997745,27.140456 C 18.528582,18.264221 13.291696,25.230495 11.500037,31.436501 z"
     style="fill:#404040;"/>
  </a>
 </g>
</svg>

<style type='text/css'>
<![CDATA[
[data-mouse-over-selected='false'] { opacity: 0.7; }
[data-mouse-over-selected='true']  { opacity: 1.0; }
]]>
</style>
<script type="application/ecmascript"><![CDATA[
document.addEventListener('DOMContentLoaded', (event) => {
  highlightEdges();
  highlightAdjacentNodes();
});
]]></script>
</svg>
