<?xml version="1.0" encoding="UTF-8" standalone="no"?>
<!DOCTYPE svg PUBLIC "-//W3C//DTD SVG 1.1//EN"
 "http://www.w3.org/Graphics/SVG/1.1/DTD/svg11.dtd">
<!-- Generated by graphviz version 12.2.1 (20241206.2353)
 -->
<!-- Title: /Users/ilariomazzieri/Desktop/vulpes/vulpes/la/linear_solver.cpp Pages: 1 -->
<svg width="1419pt" height="448pt"
 viewBox="0.00 0.00 1418.75 447.75" xmlns="http://www.w3.org/2000/svg" xmlns:xlink="http://www.w3.org/1999/xlink">
<g id="graph0" class="graph" transform="scale(1 1) rotate(0) translate(4 443.75)">
<title>/Users/ilariomazzieri/Desktop/vulpes/vulpes/la/linear_solver.cpp</title>
<!-- Node1 -->
<g id="Node000001" class="node">
<title>Node1</title>
<g id="a_Node000001"><a xlink:title=" ">
<polygon fill="#999999" stroke="#666666" points="1242.12,-439.75 1123.38,-439.75 1123.38,-398 1242.12,-398 1242.12,-439.75"/>
<text text-anchor="start" x="1131.38" y="-426.25" font-family="Helvetica,sans-Serif" font-size="10.00">/Users/ilariomazzieri</text>
<text text-anchor="start" x="1131.38" y="-415" font-family="Helvetica,sans-Serif" font-size="10.00">/Desktop/vulpes/vulpes</text>
<text text-anchor="middle" x="1182.75" y="-403.75" font-family="Helvetica,sans-Serif" font-size="10.00">/la/linear_solver.cpp</text>
</a>
</g>
</g>
<!-- Node2 -->
<g id="Node000002" class="node">
<title>Node2</title>
<g id="a_Node000002"><a xlink:href="linear__solver_8hpp.html" target="_top" xlink:title=" ">
<polygon fill="white" stroke="#666666" points="1134.12,-362 1003.38,-362 1003.38,-342.75 1134.12,-342.75 1134.12,-362"/>
<text text-anchor="middle" x="1068.75" y="-348.5" font-family="Helvetica,sans-Serif" font-size="10.00">vulpes/la/linear_solver.hpp</text>
</a>
</g>
</g>
<!-- Node1&#45;&gt;Node2 -->
<g id="edge1_Node000001_Node000002" class="edge">
<title>Node1&#45;&gt;Node2</title>
<g id="a_edge1_Node000001_Node000002"><a xlink:title=" ">
<path fill="none" stroke="#63b8ff" d="M1146.99,-397.64C1130.02,-388.04 1110.1,-376.77 1094.62,-368.01"/>
<polygon fill="#63b8ff" stroke="#63b8ff" points="1096.44,-365.02 1086.01,-363.14 1092.99,-371.11 1096.44,-365.02"/>
</a>
</g>
</g>
<!-- Node7 -->
<g id="Node000007" class="node">
<title>Node7</title>
<g id="a_Node000007"><a xlink:title=" ">
<polygon fill="#e0e0e0" stroke="#999999" points="1398.75,-19.25 1358.75,-19.25 1358.75,0 1398.75,0 1398.75,-19.25"/>
<text text-anchor="middle" x="1378.75" y="-5.75" font-family="Helvetica,sans-Serif" font-size="10.00">string</text>
</a>
</g>
</g>
<!-- Node1&#45;&gt;Node7 -->
<g id="edge70_Node000001_Node000007" class="edge">
<title>Node1&#45;&gt;Node7</title>
<g id="a_edge70_Node000001_Node000007"><a xlink:title=" ">
<path fill="none" stroke="#63b8ff" d="M1242.36,-412.19C1309.91,-402.08 1410.75,-374.25 1410.75,-298.12 1410.75,-298.12 1410.75,-298.12 1410.75,-130.38 1410.75,-94.09 1396.87,-53.66 1387.39,-30.28"/>
<polygon fill="#63b8ff" stroke="#63b8ff" points="1390.64,-28.96 1383.52,-21.11 1384.19,-31.69 1390.64,-28.96"/>
</a>
</g>
</g>
<!-- Node8 -->
<g id="Node000008" class="node">
<title>Node8</title>
<g id="a_Node000008"><a xlink:href="mpi__wrappers_8hpp.html" target="_top" xlink:title=" ">
<polygon fill="white" stroke="#666666" points="987.75,-141 839.75,-141 839.75,-121.75 987.75,-121.75 987.75,-141"/>
<text text-anchor="middle" x="913.75" y="-127.5" font-family="Helvetica,sans-Serif" font-size="10.00">vulpes/utils/mpi_wrappers.hpp</text>
</a>
</g>
</g>
<!-- Node1&#45;&gt;Node8 -->
<g id="edge71_Node000001_Node000008" class="edge">
<title>Node1&#45;&gt;Node8</title>
<g id="a_edge71_Node000001_Node000008"><a xlink:title=" ">
<path fill="none" stroke="#63b8ff" d="M1221.66,-397.64C1254.69,-377.35 1296.75,-342.76 1296.75,-298.12 1296.75,-298.12 1296.75,-298.12 1296.75,-240.88 1296.75,-202.83 1273.34,-194.88 1239.75,-177 1199.35,-155.5 1081.84,-143.43 999.55,-137.41"/>
<polygon fill="#63b8ff" stroke="#63b8ff" points="999.92,-133.93 989.69,-136.71 999.42,-140.91 999.92,-133.93"/>
</a>
</g>
</g>
<!-- Node12 -->
<g id="Node000012" class="node">
<title>Node12</title>
<g id="a_Node000012"><a xlink:title=" ">
<polygon fill="#e0e0e0" stroke="#999999" points="586.5,-19.25 533,-19.25 533,0 586.5,0 586.5,-19.25"/>
<text text-anchor="middle" x="559.75" y="-5.75" font-family="Helvetica,sans-Serif" font-size="10.00">iostream</text>
</a>
</g>
</g>
<!-- Node1&#45;&gt;Node12 -->
<g id="edge69_Node000001_Node000012" class="edge">
<title>Node1&#45;&gt;Node12</title>
<g id="a_edge69_Node000001_Node000012"><a xlink:title=" ">
<path fill="none" stroke="#63b8ff" d="M1122.98,-413.78C993,-403.7 690.3,-373.49 615.75,-306.75 534.91,-234.38 548.29,-84.94 556.29,-30.78"/>
<polygon fill="#63b8ff" stroke="#63b8ff" points="559.71,-31.61 557.82,-21.18 552.79,-30.5 559.71,-31.61"/>
</a>
</g>
</g>
<!-- Node3 -->
<g id="Node000003" class="node">
<title>Node3</title>
<g id="a_Node000003"><a xlink:title=" ">
<polygon fill="#e0e0e0" stroke="#999999" points="1269.12,-251.5 1204.38,-251.5 1204.38,-232.25 1269.12,-232.25 1269.12,-251.5"/>
<text text-anchor="middle" x="1236.75" y="-238" font-family="Helvetica,sans-Serif" font-size="10.00">petscmat.h</text>
</a>
</g>
</g>
<!-- Node2&#45;&gt;Node3 -->
<g id="edge2_Node000002_Node000003" class="edge">
<title>Node2&#45;&gt;Node3</title>
<g id="a_edge2_Node000002_Node000003"><a xlink:title=" ">
<path fill="none" stroke="#63b8ff" d="M1134.17,-342.66C1176.71,-335.5 1226.62,-323.75 1239.75,-306.75 1249.3,-294.38 1247.44,-276.3 1243.83,-262.53"/>
<polygon fill="#63b8ff" stroke="#63b8ff" points="1247.25,-261.72 1240.91,-253.24 1240.57,-263.83 1247.25,-261.72"/>
</a>
</g>
</g>
<!-- Node4 -->
<g id="Node000004" class="node">
<title>Node4</title>
<g id="a_Node000004"><a xlink:title=" ">
<polygon fill="#e0e0e0" stroke="#999999" points="714.75,-141 650.75,-141 650.75,-121.75 714.75,-121.75 714.75,-141"/>
<text text-anchor="middle" x="682.75" y="-127.5" font-family="Helvetica,sans-Serif" font-size="10.00">petscsys.h</text>
</a>
</g>
</g>
<!-- Node2&#45;&gt;Node4 -->
<g id="edge3_Node000002_Node000004" class="edge">
<title>Node2&#45;&gt;Node4</title>
<g id="a_edge3_Node000002_Node000004"><a xlink:title=" ">
<path fill="none" stroke="#63b8ff" d="M1002.9,-349.28C887.69,-344.94 659.4,-333.09 634.75,-306.75 595.35,-264.64 609.97,-229.54 633.75,-177 639.02,-165.36 648.93,-155.43 658.47,-147.91"/>
<polygon fill="#63b8ff" stroke="#63b8ff" points="660.43,-150.81 666.47,-142.11 656.32,-145.14 660.43,-150.81"/>
</a>
</g>
</g>
<!-- Node5 -->
<g id="Node000005" class="node">
<title>Node5</title>
<g id="a_Node000005"><a xlink:href="boomer__amg_8hpp.html" target="_top" xlink:title=" ">
<polygon fill="white" stroke="#666666" points="1230.25,-306.75 1097.25,-306.75 1097.25,-287.5 1230.25,-287.5 1230.25,-306.75"/>
<text text-anchor="middle" x="1163.75" y="-293.25" font-family="Helvetica,sans-Serif" font-size="10.00">vulpes/la/boomer_amg.hpp</text>
</a>
</g>
</g>
<!-- Node2&#45;&gt;Node5 -->
<g id="edge4_Node000002_Node000005" class="edge">
<title>Node2&#45;&gt;Node5</title>
<g id="a_edge4_Node000002_Node000005"><a xlink:title=" ">
<path fill="none" stroke="#63b8ff" d="M1084.87,-342.34C1099.33,-334.23 1120.83,-322.18 1137.73,-312.71"/>
<polygon fill="#63b8ff" stroke="#63b8ff" points="1139.22,-315.89 1146.24,-307.94 1135.8,-309.78 1139.22,-315.89"/>
</a>
</g>
</g>
<!-- Node6 -->
<g id="Node000006" class="node">
<title>Node6</title>
<g id="a_Node000006"><a xlink:href="petsc__utils_8hpp.html" target="_top" xlink:title=" ">
<polygon fill="white" stroke="#666666" points="1230.75,-196.25 1106.75,-196.25 1106.75,-177 1230.75,-177 1230.75,-196.25"/>
<text text-anchor="middle" x="1168.75" y="-182.75" font-family="Helvetica,sans-Serif" font-size="10.00">vulpes/la/petsc_utils.hpp</text>
</a>
</g>
</g>
<!-- Node2&#45;&gt;Node6 -->
<g id="edge5_Node000002_Node000006" class="edge">
<title>Node2&#45;&gt;Node6</title>
<g id="a_edge5_Node000002_Node000006"><a xlink:title=" ">
<path fill="none" stroke="#63b8ff" d="M1070.48,-342.28C1073.16,-329.51 1079.03,-305.76 1088.75,-287.5 1105.8,-255.48 1133.65,-223.68 1151.58,-204.84"/>
<polygon fill="#63b8ff" stroke="#63b8ff" points="1153.99,-207.39 1158.44,-197.77 1148.96,-202.51 1153.99,-207.39"/>
</a>
</g>
</g>
<!-- Node27 -->
<g id="Node000027" class="node">
<title>Node27</title>
<g id="a_Node000027"><a xlink:href="sparse__matrix_8hpp.html" target="_top" xlink:title=" ">
<polygon fill="white" stroke="#666666" points="781.88,-306.75 643.62,-306.75 643.62,-287.5 781.88,-287.5 781.88,-306.75"/>
<text text-anchor="middle" x="712.75" y="-293.25" font-family="Helvetica,sans-Serif" font-size="10.00">vulpes/la/sparse_matrix.hpp</text>
</a>
</g>
</g>
<!-- Node2&#45;&gt;Node27 -->
<g id="edge34_Node000002_Node000027" class="edge">
<title>Node2&#45;&gt;Node27</title>
<g id="a_edge34_Node000002_Node000027"><a xlink:title=" ">
<path fill="none" stroke="#63b8ff" d="M1007.96,-342.28C946.1,-333.03 850.25,-318.69 784.66,-308.88"/>
<polygon fill="#63b8ff" stroke="#63b8ff" points="785.5,-305.47 775.09,-307.45 784.46,-312.39 785.5,-305.47"/>
</a>
</g>
</g>
<!-- Node29 -->
<g id="Node000029" class="node">
<title>Node29</title>
<g id="a_Node000029"><a xlink:href="vector_8hpp.html" target="_top" xlink:title=" ">
<polygon fill="white" stroke="#666666" points="970.25,-251.5 867.25,-251.5 867.25,-232.25 970.25,-232.25 970.25,-251.5"/>
<text text-anchor="middle" x="918.75" y="-238" font-family="Helvetica,sans-Serif" font-size="10.00">vulpes/la/vector.hpp</text>
</a>
</g>
</g>
<!-- Node2&#45;&gt;Node29 -->
<g id="edge68_Node000002_Node000029" class="edge">
<title>Node2&#45;&gt;Node29</title>
<g id="a_edge68_Node000002_Node000029"><a xlink:title=" ">
<path fill="none" stroke="#63b8ff" d="M1056.22,-342.31C1030.57,-323.76 971.82,-281.26 940.06,-258.29"/>
<polygon fill="#63b8ff" stroke="#63b8ff" points="942.52,-255.75 932.37,-252.72 938.42,-261.42 942.52,-255.75"/>
</a>
</g>
</g>
<!-- Node6&#45;&gt;Node4 -->
<g id="edge6_Node000006_Node000004" class="edge">
<title>Node6&#45;&gt;Node4</title>
<g id="a_edge6_Node000006_Node000004"><a xlink:title=" ">
<path fill="none" stroke="#63b8ff" d="M1106.7,-178.83C1006.89,-167.89 813.09,-146.66 726.45,-137.16"/>
<polygon fill="#63b8ff" stroke="#63b8ff" points="727.02,-133.71 716.7,-136.1 726.26,-140.66 727.02,-133.71"/>
</a>
</g>
</g>
<!-- Node6&#45;&gt;Node7 -->
<g id="edge7_Node000006_Node000007" class="edge">
<title>Node6&#45;&gt;Node7</title>
<g id="a_edge7_Node000006_Node000007"><a xlink:title=" ">
<path fill="none" stroke="#63b8ff" d="M1178.91,-176.58C1203.12,-155.11 1266.25,-99.54 1320.75,-55.25 1332.8,-45.46 1346.56,-34.85 1357.66,-26.43"/>
<polygon fill="#63b8ff" stroke="#63b8ff" points="1359.53,-29.4 1365.4,-20.58 1355.31,-23.81 1359.53,-29.4"/>
</a>
</g>
</g>
<!-- Node6&#45;&gt;Node8 -->
<g id="edge8_Node000006_Node000008" class="edge">
<title>Node6&#45;&gt;Node8</title>
<g id="a_edge8_Node000006_Node000008"><a xlink:title=" ">
<path fill="none" stroke="#63b8ff" d="M1125.2,-176.53C1081.84,-167.48 1015.15,-153.55 968.28,-143.76"/>
<polygon fill="#63b8ff" stroke="#63b8ff" points="969.1,-140.36 958.6,-141.74 967.67,-147.21 969.1,-140.36"/>
</a>
</g>
</g>
<!-- Node9 -->
<g id="Node000009" class="node">
<title>Node9</title>
<g id="a_Node000009"><a xlink:title=" ">
<polygon fill="#e0e0e0" stroke="#999999" points="954.75,-80.12 914.75,-80.12 914.75,-60.88 954.75,-60.88 954.75,-80.12"/>
<text text-anchor="middle" x="934.75" y="-66.62" font-family="Helvetica,sans-Serif" font-size="10.00">mpi.h</text>
</a>
</g>
</g>
<!-- Node8&#45;&gt;Node9 -->
<g id="edge9_Node000008_Node000009" class="edge">
<title>Node8&#45;&gt;Node9</title>
<g id="a_edge9_Node000008_Node000009"><a xlink:title=" ">
<path fill="none" stroke="#63b8ff" d="M916.94,-121.43C919.78,-113.48 924.03,-101.56 927.66,-91.37"/>
<polygon fill="#63b8ff" stroke="#63b8ff" points="930.96,-92.55 931.02,-81.95 924.37,-90.19 930.96,-92.55"/>
</a>
</g>
</g>
<!-- Node10 -->
<g id="Node000010" class="node">
<title>Node10</title>
<g id="a_Node000010"><a xlink:title=" ">
<polygon fill="#e0e0e0" stroke="#999999" points="1020.88,-80.12 972.62,-80.12 972.62,-60.88 1020.88,-60.88 1020.88,-80.12"/>
<text text-anchor="middle" x="996.75" y="-66.62" font-family="Helvetica,sans-Serif" font-size="10.00">petsc.h</text>
</a>
</g>
</g>
<!-- Node8&#45;&gt;Node10 -->
<g id="edge10_Node000008_Node000010" class="edge">
<title>Node8&#45;&gt;Node10</title>
<g id="a_edge10_Node000008_Node000010"><a xlink:title=" ">
<path fill="none" stroke="#63b8ff" d="M926.36,-121.43C939.15,-112.36 959.23,-98.12 974.67,-87.16"/>
<polygon fill="#63b8ff" stroke="#63b8ff" points="976.66,-90.04 982.79,-81.4 972.61,-84.33 976.66,-90.04"/>
</a>
</g>
</g>
<!-- Node11 -->
<g id="Node000011" class="node">
<title>Node11</title>
<g id="a_Node000011"><a xlink:title=" ">
<polygon fill="#e0e0e0" stroke="#999999" points="727.88,-19.25 679.62,-19.25 679.62,0 727.88,0 727.88,-19.25"/>
<text text-anchor="middle" x="703.75" y="-5.75" font-family="Helvetica,sans-Serif" font-size="10.00">cassert</text>
</a>
</g>
</g>
<!-- Node8&#45;&gt;Node11 -->
<g id="edge11_Node000008_Node000011" class="edge">
<title>Node8&#45;&gt;Node11</title>
<g id="a_edge11_Node000008_Node000011"><a xlink:title=" ">
<path fill="none" stroke="#63b8ff" d="M873.45,-121.27C846.76,-114.13 811.65,-102.56 783.75,-85.75 757.59,-69.99 732.82,-44.5 717.96,-27.66"/>
<polygon fill="#63b8ff" stroke="#63b8ff" points="720.94,-25.75 711.76,-20.45 715.63,-30.32 720.94,-25.75"/>
</a>
</g>
</g>
<!-- Node8&#45;&gt;Node12 -->
<g id="edge12_Node000008_Node000012" class="edge">
<title>Node8&#45;&gt;Node12</title>
<g id="a_edge12_Node000008_Node000012"><a xlink:title=" ">
<path fill="none" stroke="#63b8ff" d="M848.29,-121.3C805.96,-114.28 750.12,-102.83 702.75,-85.75 658.54,-69.81 610.93,-42.54 583.32,-25.61"/>
<polygon fill="#63b8ff" stroke="#63b8ff" points="585.39,-22.78 575.05,-20.47 581.69,-28.72 585.39,-22.78"/>
</a>
</g>
</g>
<!-- Node13 -->
<g id="Node000013" class="node">
<title>Node13</title>
<g id="a_Node000013"><a xlink:title=" ">
<polygon fill="#e0e0e0" stroke="#999999" points="661.25,-19.25 618.25,-19.25 618.25,0 661.25,0 661.25,-19.25"/>
<text text-anchor="middle" x="639.75" y="-5.75" font-family="Helvetica,sans-Serif" font-size="10.00">vector</text>
</a>
</g>
</g>
<!-- Node8&#45;&gt;Node13 -->
<g id="edge13_Node000008_Node000013" class="edge">
<title>Node8&#45;&gt;Node13</title>
<g id="a_edge13_Node000008_Node000013"><a xlink:title=" ">
<path fill="none" stroke="#63b8ff" d="M854.7,-121.26C820.49,-114.48 777.29,-103.31 741.75,-85.75 722.02,-76.01 720.4,-68.39 702.75,-55.25 689.48,-45.37 674.36,-34.64 662.26,-26.18"/>
<polygon fill="#63b8ff" stroke="#63b8ff" points="664.36,-23.38 654.15,-20.54 660.36,-29.13 664.36,-23.38"/>
</a>
</g>
</g>
<!-- Node14 -->
<g id="Node000014" class="node">
<title>Node14</title>
<g id="a_Node000014"><a xlink:title=" ">
<polygon fill="#e0e0e0" stroke="#999999" points="343.88,-19.25 271.62,-19.25 271.62,0 343.88,0 343.88,-19.25"/>
<text text-anchor="middle" x="307.75" y="-5.75" font-family="Helvetica,sans-Serif" font-size="10.00">Eigen/Dense</text>
</a>
</g>
</g>
<!-- Node8&#45;&gt;Node14 -->
<g id="edge14_Node000008_Node000014" class="edge">
<title>Node8&#45;&gt;Node14</title>
<g id="a_edge14_Node000008_Node000014"><a xlink:title=" ">
<path fill="none" stroke="#63b8ff" d="M848.46,-121.26C791.57,-113.01 706.95,-100 633.75,-85.75 533.66,-66.26 417.52,-38.17 354.42,-22.44"/>
<polygon fill="#63b8ff" stroke="#63b8ff" points="355.3,-19.05 344.74,-20.02 353.6,-25.84 355.3,-19.05"/>
</a>
</g>
</g>
<!-- Node15 -->
<g id="Node000015" class="node">
<title>Node15</title>
<g id="a_Node000015"><a xlink:href="crs__map_8hpp.html" target="_top" xlink:title=" ">
<polygon fill="white" stroke="#666666" points="897,-85.75 792.5,-85.75 792.5,-55.25 897,-55.25 897,-85.75"/>
<text text-anchor="start" x="800.5" y="-72.25" font-family="Helvetica,sans-Serif" font-size="10.00">vulpes/datastructure</text>
<text text-anchor="middle" x="844.75" y="-61" font-family="Helvetica,sans-Serif" font-size="10.00">/crs_map.hpp</text>
</a>
</g>
</g>
<!-- Node8&#45;&gt;Node15 -->
<g id="edge15_Node000008_Node000015" class="edge">
<title>Node8&#45;&gt;Node15</title>
<g id="a_edge15_Node000008_Node000015"><a xlink:title=" ">
<path fill="none" stroke="#63b8ff" d="M903.27,-121.43C894.58,-114.02 881.86,-103.17 870.5,-93.47"/>
<polygon fill="#63b8ff" stroke="#63b8ff" points="872.81,-90.84 862.93,-87.01 868.27,-96.17 872.81,-90.84"/>
</a>
</g>
</g>
<!-- Node21 -->
<g id="Node000021" class="node">
<title>Node21</title>
<g id="a_Node000021"><a xlink:href="profiler_8hpp.html" target="_top" xlink:title=" ">
<polygon fill="white" stroke="#666666" points="1192.62,-80.12 1076.88,-80.12 1076.88,-60.88 1192.62,-60.88 1192.62,-80.12"/>
<text text-anchor="middle" x="1134.75" y="-66.62" font-family="Helvetica,sans-Serif" font-size="10.00">vulpes/utils/profiler.hpp</text>
</a>
</g>
</g>
<!-- Node8&#45;&gt;Node21 -->
<g id="edge23_Node000008_Node000021" class="edge">
<title>Node8&#45;&gt;Node21</title>
<g id="a_edge23_Node000008_Node000021"><a xlink:title=" ">
<path fill="none" stroke="#63b8ff" d="M947.8,-121.3C985.84,-111.17 1047.59,-94.72 1089.63,-83.52"/>
<polygon fill="#63b8ff" stroke="#63b8ff" points="1090.44,-86.93 1099.2,-80.97 1088.64,-80.16 1090.44,-86.93"/>
</a>
</g>
</g>
<!-- Node15&#45;&gt;Node11 -->
<g id="edge18_Node000015_Node000011" class="edge">
<title>Node15&#45;&gt;Node11</title>
<g id="a_edge18_Node000015_Node000011"><a xlink:title=" ">
<path fill="none" stroke="#63b8ff" d="M809.53,-54.8C786.92,-45.35 757.79,-33.19 735.83,-24.02"/>
<polygon fill="#63b8ff" stroke="#63b8ff" points="737.35,-20.86 726.77,-20.24 734.65,-27.32 737.35,-20.86"/>
</a>
</g>
</g>
<!-- Node15&#45;&gt;Node13 -->
<g id="edge22_Node000015_Node000013" class="edge">
<title>Node15&#45;&gt;Node13</title>
<g id="a_edge22_Node000015_Node000013"><a xlink:title=" ">
<path fill="none" stroke="#63b8ff" d="M793.55,-54.8C755.57,-43.89 704.93,-29.35 672.33,-19.98"/>
<polygon fill="#63b8ff" stroke="#63b8ff" points="673.63,-16.71 663.05,-17.32 671.7,-23.44 673.63,-16.71"/>
</a>
</g>
</g>
<!-- Node16 -->
<g id="Node000016" class="node">
<title>Node16</title>
<g id="a_Node000016"><a xlink:title=" ">
<polygon fill="#e0e0e0" stroke="#999999" points="934.62,-19.25 878.88,-19.25 878.88,0 934.62,0 934.62,-19.25"/>
<text text-anchor="middle" x="906.75" y="-5.75" font-family="Helvetica,sans-Serif" font-size="10.00">algorithm</text>
</a>
</g>
</g>
<!-- Node15&#45;&gt;Node16 -->
<g id="edge16_Node000015_Node000016" class="edge">
<title>Node15&#45;&gt;Node16</title>
<g id="a_edge16_Node000015_Node000016"><a xlink:title=" ">
<path fill="none" stroke="#63b8ff" d="M860.08,-54.95C868.79,-46.67 879.75,-36.27 888.85,-27.62"/>
<polygon fill="#63b8ff" stroke="#63b8ff" points="891.25,-30.17 896.09,-20.74 886.43,-25.09 891.25,-30.17"/>
</a>
</g>
</g>
<!-- Node17 -->
<g id="Node000017" class="node">
<title>Node17</title>
<g id="a_Node000017"><a xlink:title=" ">
<polygon fill="#e0e0e0" stroke="#999999" points="486.62,-19.25 448.88,-19.25 448.88,0 486.62,0 486.62,-19.25"/>
<text text-anchor="middle" x="467.75" y="-5.75" font-family="Helvetica,sans-Serif" font-size="10.00">array</text>
</a>
</g>
</g>
<!-- Node15&#45;&gt;Node17 -->
<g id="edge17_Node000015_Node000017" class="edge">
<title>Node15&#45;&gt;Node17</title>
<g id="a_edge17_Node000015_Node000017"><a xlink:title=" ">
<path fill="none" stroke="#63b8ff" d="M792.33,-61.31C712.31,-48.82 562.23,-25.38 498.08,-15.36"/>
<polygon fill="#63b8ff" stroke="#63b8ff" points="498.71,-11.92 488.29,-13.83 497.63,-18.83 498.71,-11.92"/>
</a>
</g>
</g>
<!-- Node18 -->
<g id="Node000018" class="node">
<title>Node18</title>
<g id="a_Node000018"><a xlink:title=" ">
<polygon fill="#e0e0e0" stroke="#999999" points="797.38,-19.25 746.12,-19.25 746.12,0 797.38,0 797.38,-19.25"/>
<text text-anchor="middle" x="771.75" y="-5.75" font-family="Helvetica,sans-Serif" font-size="10.00">ostream</text>
</a>
</g>
</g>
<!-- Node15&#45;&gt;Node18 -->
<g id="edge19_Node000015_Node000018" class="edge">
<title>Node15&#45;&gt;Node18</title>
<g id="a_edge19_Node000015_Node000018"><a xlink:title=" ">
<path fill="none" stroke="#63b8ff" d="M826.71,-54.95C816.12,-46.41 802.74,-35.62 791.82,-26.81"/>
<polygon fill="#63b8ff" stroke="#63b8ff" points="794.16,-24.2 784.18,-20.65 789.77,-29.65 794.16,-24.2"/>
</a>
</g>
</g>
<!-- Node19 -->
<g id="Node000019" class="node">
<title>Node19</title>
<g id="a_Node000019"><a xlink:title=" ">
<polygon fill="#e0e0e0" stroke="#999999" points="1340.38,-19.25 1301.12,-19.25 1301.12,0 1340.38,0 1340.38,-19.25"/>
<text text-anchor="middle" x="1320.75" y="-5.75" font-family="Helvetica,sans-Serif" font-size="10.00">utility</text>
</a>
</g>
</g>
<!-- Node15&#45;&gt;Node19 -->
<g id="edge20_Node000015_Node000019" class="edge">
<title>Node15&#45;&gt;Node19</title>
<g id="a_edge20_Node000015_Node000019"><a xlink:title=" ">
<path fill="none" stroke="#63b8ff" d="M897.23,-56.76C900.11,-56.21 902.96,-55.7 905.75,-55.25 1072.24,-28.17 1120.57,-50.97 1289.85,-19.2"/>
<polygon fill="#63b8ff" stroke="#63b8ff" points="1290.26,-22.69 1299.42,-17.37 1288.94,-15.81 1290.26,-22.69"/>
</a>
</g>
</g>
<!-- Node20 -->
<g id="Node000020" class="node">
<title>Node20</title>
<g id="a_Node000020"><a xlink:title=" ">
<polygon fill="#e0e0e0" stroke="#999999" points="860.38,-19.25 815.12,-19.25 815.12,0 860.38,0 860.38,-19.25"/>
<text text-anchor="middle" x="837.75" y="-5.75" font-family="Helvetica,sans-Serif" font-size="10.00">variant</text>
</a>
</g>
</g>
<!-- Node15&#45;&gt;Node20 -->
<g id="edge21_Node000015_Node000020" class="edge">
<title>Node15&#45;&gt;Node20</title>
<g id="a_edge21_Node000015_Node000020"><a xlink:title=" ">
<path fill="none" stroke="#63b8ff" d="M843.02,-54.95C842.16,-47.71 841.1,-38.84 840.17,-30.94"/>
<polygon fill="#63b8ff" stroke="#63b8ff" points="843.66,-30.72 839.01,-21.2 836.71,-31.55 843.66,-30.72"/>
</a>
</g>
</g>
<!-- Node21&#45;&gt;Node7 -->
<g id="edge29_Node000021_Node000007" class="edge">
<title>Node21&#45;&gt;Node7</title>
<g id="a_edge29_Node000021_Node000007"><a xlink:title=" ">
<path fill="none" stroke="#63b8ff" d="M1176.95,-60.41C1218.15,-51.37 1282.82,-36.72 1347.68,-19.68"/>
<polygon fill="#63b8ff" stroke="#63b8ff" points="1348.28,-23.14 1357.05,-17.2 1346.49,-16.38 1348.28,-23.14"/>
</a>
</g>
</g>
<!-- Node21&#45;&gt;Node12 -->
<g id="edge28_Node000021_Node000012" class="edge">
<title>Node21&#45;&gt;Node12</title>
<g id="a_edge28_Node000021_Node000012"><a xlink:title=" ">
<path fill="none" stroke="#63b8ff" d="M1076.5,-61.07C1061.3,-59.02 1044.93,-56.93 1029.75,-55.25 843.54,-34.65 795.56,-43.2 609.75,-19.25 605.92,-18.76 601.94,-18.18 597.96,-17.56"/>
<polygon fill="#63b8ff" stroke="#63b8ff" points="598.86,-14.16 588.43,-15.99 597.73,-21.07 598.86,-14.16"/>
</a>
</g>
</g>
<!-- Node21&#45;&gt;Node13 -->
<g id="edge32_Node000021_Node000013" class="edge">
<title>Node21&#45;&gt;Node13</title>
<g id="a_edge32_Node000021_Node000013"><a xlink:title=" ">
<path fill="none" stroke="#63b8ff" d="M1076.48,-61.22C1061.28,-59.17 1044.91,-57.04 1029.75,-55.25 874.08,-36.89 830.3,-48.31 672.7,-19.29"/>
<polygon fill="#63b8ff" stroke="#63b8ff" points="673.62,-15.9 663.14,-17.5 672.33,-22.78 673.62,-15.9"/>
</a>
</g>
</g>
<!-- Node21&#45;&gt;Node16 -->
<g id="edge24_Node000021_Node000016" class="edge">
<title>Node21&#45;&gt;Node16</title>
<g id="a_edge24_Node000021_Node000016"><a xlink:title=" ">
<path fill="none" stroke="#63b8ff" d="M1099.62,-60.43C1058.12,-49.71 989.24,-31.93 946.01,-20.76"/>
<polygon fill="#63b8ff" stroke="#63b8ff" points="947.09,-17.43 936.54,-18.32 945.34,-24.21 947.09,-17.43"/>
</a>
</g>
</g>
<!-- Node21&#45;&gt;Node19 -->
<g id="edge31_Node000021_Node000019" class="edge">
<title>Node21&#45;&gt;Node19</title>
<g id="a_edge31_Node000021_Node000019"><a xlink:title=" ">
<path fill="none" stroke="#63b8ff" d="M1163.4,-60.43C1197.7,-49.57 1254.9,-31.47 1290.07,-20.34"/>
<polygon fill="#63b8ff" stroke="#63b8ff" points="1290.74,-23.8 1299.22,-17.44 1288.63,-17.12 1290.74,-23.8"/>
</a>
</g>
</g>
<!-- Node22 -->
<g id="Node000022" class="node">
<title>Node22</title>
<g id="a_Node000022"><a xlink:title=" ">
<polygon fill="#e0e0e0" stroke="#999999" points="1114.38,-19.25 1069.12,-19.25 1069.12,0 1114.38,0 1114.38,-19.25"/>
<text text-anchor="middle" x="1091.75" y="-5.75" font-family="Helvetica,sans-Serif" font-size="10.00">chrono</text>
</a>
</g>
</g>
<!-- Node21&#45;&gt;Node22 -->
<g id="edge25_Node000021_Node000022" class="edge">
<title>Node21&#45;&gt;Node22</title>
<g id="a_edge25_Node000021_Node000022"><a xlink:title=" ">
<path fill="none" stroke="#63b8ff" d="M1128.22,-60.56C1122.09,-52.17 1112.75,-39.38 1105.06,-28.84"/>
<polygon fill="#63b8ff" stroke="#63b8ff" points="1107.96,-26.88 1099.23,-20.87 1102.31,-31.01 1107.96,-26.88"/>
</a>
</g>
</g>
<!-- Node23 -->
<g id="Node000023" class="node">
<title>Node23</title>
<g id="a_Node000023"><a xlink:title=" ">
<polygon fill="#e0e0e0" stroke="#999999" points="409.88,-19.25 361.62,-19.25 361.62,0 409.88,0 409.88,-19.25"/>
<text text-anchor="middle" x="385.75" y="-5.75" font-family="Helvetica,sans-Serif" font-size="10.00">cstddef</text>
</a>
</g>
</g>
<!-- Node21&#45;&gt;Node23 -->
<g id="edge26_Node000021_Node000023" class="edge">
<title>Node21&#45;&gt;Node23</title>
<g id="a_edge26_Node000021_Node000023"><a xlink:title=" ">
<path fill="none" stroke="#63b8ff" d="M1076.52,-60.82C1061.33,-58.77 1044.95,-56.74 1029.75,-55.25 768.3,-29.57 700.88,-48 439.75,-19.25 433.83,-18.6 427.56,-17.75 421.48,-16.83"/>
<polygon fill="#63b8ff" stroke="#63b8ff" points="422.06,-13.38 411.64,-15.27 420.97,-20.3 422.06,-13.38"/>
</a>
</g>
</g>
<!-- Node24 -->
<g id="Node000024" class="node">
<title>Node24</title>
<g id="a_Node000024"><a xlink:title=" ">
<polygon fill="#e0e0e0" stroke="#999999" points="1182.62,-19.25 1132.88,-19.25 1132.88,0 1182.62,0 1182.62,-19.25"/>
<text text-anchor="middle" x="1157.75" y="-5.75" font-family="Helvetica,sans-Serif" font-size="10.00">iomanip</text>
</a>
</g>
</g>
<!-- Node21&#45;&gt;Node24 -->
<g id="edge27_Node000021_Node000024" class="edge">
<title>Node21&#45;&gt;Node24</title>
<g id="a_edge27_Node000021_Node000024"><a xlink:title=" ">
<path fill="none" stroke="#63b8ff" d="M1138.24,-60.56C1141.38,-52.52 1146.11,-40.43 1150.12,-30.16"/>
<polygon fill="#63b8ff" stroke="#63b8ff" points="1153.29,-31.65 1153.67,-21.06 1146.77,-29.1 1153.29,-31.65"/>
</a>
</g>
</g>
<!-- Node25 -->
<g id="Node000025" class="node">
<title>Node25</title>
<g id="a_Node000025"><a xlink:title=" ">
<polygon fill="#e0e0e0" stroke="#999999" points="1283.12,-19.25 1200.38,-19.25 1200.38,0 1283.12,0 1283.12,-19.25"/>
<text text-anchor="middle" x="1241.75" y="-5.75" font-family="Helvetica,sans-Serif" font-size="10.00">unordered_map</text>
</a>
</g>
</g>
<!-- Node21&#45;&gt;Node25 -->
<g id="edge30_Node000021_Node000025" class="edge">
<title>Node21&#45;&gt;Node25</title>
<g id="a_edge30_Node000021_Node000025"><a xlink:title=" ">
<path fill="none" stroke="#63b8ff" d="M1151,-60.56C1168.13,-51.13 1195.36,-36.15 1215.53,-25.05"/>
<polygon fill="#63b8ff" stroke="#63b8ff" points="1216.95,-28.27 1224.02,-20.38 1213.57,-22.13 1216.95,-28.27"/>
</a>
</g>
</g>
<!-- Node26 -->
<g id="Node000026" class="node">
<title>Node26</title>
<g id="a_Node000026"><a xlink:title=" ">
<polygon fill="#e0e0e0" stroke="#999999" points="1050.62,-19.25 952.88,-19.25 952.88,0 1050.62,0 1050.62,-19.25"/>
<text text-anchor="middle" x="1001.75" y="-5.75" font-family="Helvetica,sans-Serif" font-size="10.00">nlohmann/json.hpp</text>
</a>
</g>
</g>
<!-- Node21&#45;&gt;Node26 -->
<g id="edge33_Node000021_Node000026" class="edge">
<title>Node21&#45;&gt;Node26</title>
<g id="a_edge33_Node000021_Node000026"><a xlink:title=" ">
<path fill="none" stroke="#63b8ff" d="M1114.26,-60.43C1092.43,-50.76 1057.61,-35.35 1032.49,-24.23"/>
<polygon fill="#63b8ff" stroke="#63b8ff" points="1033.99,-21.07 1023.43,-20.22 1031.16,-27.47 1033.99,-21.07"/>
</a>
</g>
</g>
<!-- Node27&#45;&gt;Node3 -->
<g id="edge35_Node000027_Node000003" class="edge">
<title>Node27&#45;&gt;Node3</title>
<g id="a_edge35_Node000027_Node000003"><a xlink:title=" ">
<path fill="none" stroke="#63b8ff" d="M782.1,-289.12C868.8,-280.35 1021.75,-264.87 1152.75,-251.5 1165.7,-250.18 1179.78,-248.74 1192.64,-247.41"/>
<polygon fill="#63b8ff" stroke="#63b8ff" points="1192.94,-250.9 1202.53,-246.4 1192.23,-243.94 1192.94,-250.9"/>
</a>
</g>
</g>
<!-- Node27&#45;&gt;Node4 -->
<g id="edge36_Node000027_Node000004" class="edge">
<title>Node27&#45;&gt;Node4</title>
<g id="a_edge36_Node000027_Node000004"><a xlink:title=" ">
<path fill="none" stroke="#63b8ff" d="M687.95,-287.04C672.49,-279.94 653.87,-268.4 644.75,-251.5 629.02,-222.36 633.31,-208.07 644.75,-177 648.59,-166.57 656.07,-156.91 663.39,-149.27"/>
<polygon fill="#63b8ff" stroke="#63b8ff" points="665.81,-151.8 670.59,-142.35 660.95,-146.76 665.81,-151.8"/>
</a>
</g>
</g>
<!-- Node27&#45;&gt;Node6 -->
<g id="edge43_Node000027_Node000006" class="edge">
<title>Node27&#45;&gt;Node6</title>
<g id="a_edge43_Node000027_Node000006"><a xlink:title=" ">
<path fill="none" stroke="#63b8ff" d="M782.25,-287.62C836.51,-280.24 913.54,-268.11 979.75,-251.5 1035.4,-237.54 1098.16,-214.9 1135.54,-200.66"/>
<polygon fill="#63b8ff" stroke="#63b8ff" points="1136.34,-204.1 1144.42,-197.25 1133.83,-197.57 1136.34,-204.1"/>
</a>
</g>
</g>
<!-- Node27&#45;&gt;Node7 -->
<g id="edge40_Node000027_Node000007" class="edge">
<title>Node27&#45;&gt;Node7</title>
<g id="a_edge40_Node000027_Node000007"><a xlink:title=" ">
<path fill="none" stroke="#63b8ff" d="M782.25,-291.45C857.42,-285.54 980.51,-273.4 1084.75,-251.5 1167.48,-234.12 1193.73,-238.83 1266.75,-196.25 1321.95,-164.06 1333.52,-144.46 1358.75,-85.75 1366.49,-67.75 1371.88,-46 1375.1,-30.55"/>
<polygon fill="#63b8ff" stroke="#63b8ff" points="1378.45,-31.67 1376.93,-21.18 1371.58,-30.32 1378.45,-31.67"/>
</a>
</g>
</g>
<!-- Node27&#45;&gt;Node8 -->
<g id="edge67_Node000027_Node000008" class="edge">
<title>Node27&#45;&gt;Node8</title>
<g id="a_edge67_Node000027_Node000008"><a xlink:title=" ">
<path fill="none" stroke="#63b8ff" d="M705.28,-287.25C688.2,-265.86 649.83,-210.69 677.75,-177 696.84,-153.96 768.68,-142.73 828.14,-137.31"/>
<polygon fill="#63b8ff" stroke="#63b8ff" points="828.29,-140.81 837.96,-136.46 827.69,-133.83 828.29,-140.81"/>
</a>
</g>
</g>
<!-- Node27&#45;&gt;Node12 -->
<g id="edge38_Node000027_Node000012" class="edge">
<title>Node27&#45;&gt;Node12</title>
<g id="a_edge38_Node000027_Node000012"><a xlink:title=" ">
<path fill="none" stroke="#63b8ff" d="M677.11,-287.14C657.48,-280.43 634.23,-269.27 619.75,-251.5 565.48,-184.91 559.35,-75.99 559.29,-31.02"/>
<polygon fill="#63b8ff" stroke="#63b8ff" points="562.79,-31.23 559.4,-21.19 555.79,-31.16 562.79,-31.23"/>
</a>
</g>
</g>
<!-- Node27&#45;&gt;Node13 -->
<g id="edge42_Node000027_Node000013" class="edge">
<title>Node27&#45;&gt;Node13</title>
<g id="a_edge42_Node000027_Node000013"><a xlink:title=" ">
<path fill="none" stroke="#63b8ff" d="M680.89,-287.14C663.37,-280.38 643.14,-269.19 632.75,-251.5 590.43,-179.44 618.42,-73.18 632.76,-29.96"/>
<polygon fill="#63b8ff" stroke="#63b8ff" points="635.98,-31.34 635.95,-20.74 629.37,-29.05 635.98,-31.34"/>
</a>
</g>
</g>
<!-- Node27&#45;&gt;Node19 -->
<g id="edge41_Node000027_Node000019" class="edge">
<title>Node27&#45;&gt;Node19</title>
<g id="a_edge41_Node000027_Node000019"><a xlink:title=" ">
<path fill="none" stroke="#63b8ff" d="M782.12,-288.48C845.8,-280.93 942.59,-268.11 1025.75,-251.5 1049.83,-246.69 1221.06,-212.18 1239.75,-196.25 1291.32,-152.28 1311.15,-69.3 1317.8,-30.97"/>
<polygon fill="#63b8ff" stroke="#63b8ff" points="1321.26,-31.53 1319.37,-21.1 1314.35,-30.43 1321.26,-31.53"/>
</a>
</g>
</g>
<!-- Node27&#45;&gt;Node23 -->
<g id="edge37_Node000027_Node000023" class="edge">
<title>Node27&#45;&gt;Node23</title>
<g id="a_edge37_Node000027_Node000023"><a xlink:title=" ">
<path fill="none" stroke="#63b8ff" d="M643.21,-292.97C549.89,-284.38 388.82,-253.18 327.75,-141 306.35,-101.68 344.05,-52.92 368.09,-27.63"/>
<polygon fill="#63b8ff" stroke="#63b8ff" points="370.3,-30.37 374.84,-20.79 365.32,-25.45 370.3,-30.37"/>
</a>
</g>
</g>
<!-- Node28 -->
<g id="Node000028" class="node">
<title>Node28</title>
<g id="a_Node000028"><a xlink:title=" ">
<polygon fill="#e0e0e0" stroke="#999999" points="738.38,-196.25 687.12,-196.25 687.12,-177 738.38,-177 738.38,-196.25"/>
<text text-anchor="middle" x="712.75" y="-182.75" font-family="Helvetica,sans-Serif" font-size="10.00">memory</text>
</a>
</g>
</g>
<!-- Node27&#45;&gt;Node28 -->
<g id="edge39_Node000027_Node000028" class="edge">
<title>Node27&#45;&gt;Node28</title>
<g id="a_edge39_Node000027_Node000028"><a xlink:title=" ">
<path fill="none" stroke="#63b8ff" d="M712.75,-287.25C712.75,-270 712.75,-231.58 712.75,-207.81"/>
<polygon fill="#63b8ff" stroke="#63b8ff" points="716.25,-208.14 712.75,-198.14 709.25,-208.14 716.25,-208.14"/>
</a>
</g>
</g>
<!-- Node27&#45;&gt;Node29 -->
<g id="edge44_Node000027_Node000029" class="edge">
<title>Node27&#45;&gt;Node29</title>
<g id="a_edge44_Node000027_Node000029"><a xlink:title=" ">
<path fill="none" stroke="#63b8ff" d="M747.7,-287.09C782.17,-278.18 835.06,-264.51 872.9,-254.73"/>
<polygon fill="#63b8ff" stroke="#63b8ff" points="873.36,-258.22 882.17,-252.33 871.61,-251.45 873.36,-258.22"/>
</a>
</g>
</g>
<!-- Node31 -->
<g id="Node000031" class="node">
<title>Node31</title>
<g id="a_Node000031"><a xlink:href="qrule_8hpp.html" target="_top" xlink:title=" ">
<polygon fill="white" stroke="#666666" points="472.75,-141 336.75,-141 336.75,-121.75 472.75,-121.75 472.75,-141"/>
<text text-anchor="middle" x="404.75" y="-127.5" font-family="Helvetica,sans-Serif" font-size="10.00">vulpes/quadrature/qrule.hpp</text>
</a>
</g>
</g>
<!-- Node27&#45;&gt;Node31 -->
<g id="edge56_Node000027_Node000031" class="edge">
<title>Node27&#45;&gt;Node31</title>
<g id="a_edge56_Node000027_Node000031"><a xlink:title=" ">
<path fill="none" stroke="#63b8ff" d="M643.13,-287.7C607.87,-281.33 565.32,-270.33 530.75,-251.5 482.93,-225.45 439.78,-176.73 418.58,-150.39"/>
<polygon fill="#63b8ff" stroke="#63b8ff" points="421.43,-148.36 412.5,-142.68 415.94,-152.7 421.43,-148.36"/>
</a>
</g>
</g>
<!-- Node29&#45;&gt;Node4 -->
<g id="edge45_Node000029_Node000004" class="edge">
<title>Node29&#45;&gt;Node4</title>
<g id="a_edge45_Node000029_Node000004"><a xlink:title=" ">
<path fill="none" stroke="#63b8ff" d="M899.57,-231.95C872.93,-219.57 823.22,-196.5 780.75,-177 758.06,-166.58 732.38,-154.89 713,-146.09"/>
<polygon fill="#63b8ff" stroke="#63b8ff" points="714.59,-142.97 704.04,-142.02 711.7,-149.34 714.59,-142.97"/>
</a>
</g>
</g>
<!-- Node29&#45;&gt;Node6 -->
<g id="edge54_Node000029_Node000006" class="edge">
<title>Node29&#45;&gt;Node6</title>
<g id="a_edge54_Node000029_Node000006"><a xlink:title=" ">
<path fill="none" stroke="#63b8ff" d="M961.44,-231.78C1003.87,-222.74 1069.07,-208.86 1115,-199.07"/>
<polygon fill="#63b8ff" stroke="#63b8ff" points="1115.7,-202.5 1124.75,-197 1114.24,-195.66 1115.7,-202.5"/>
</a>
</g>
</g>
<!-- Node29&#45;&gt;Node7 -->
<g id="edge50_Node000029_Node000007" class="edge">
<title>Node29&#45;&gt;Node7</title>
<g id="a_edge50_Node000029_Node000007"><a xlink:title=" ">
<path fill="none" stroke="#63b8ff" d="M970.71,-238.48C1049.64,-234.04 1195.29,-222.48 1239.75,-196.25 1307.62,-156.2 1352.97,-68.87 1370.56,-29.98"/>
<polygon fill="#63b8ff" stroke="#63b8ff" points="1373.7,-31.52 1374.51,-20.95 1367.29,-28.71 1373.7,-31.52"/>
</a>
</g>
</g>
<!-- Node29&#45;&gt;Node8 -->
<g id="edge55_Node000029_Node000008" class="edge">
<title>Node29&#45;&gt;Node8</title>
<g id="a_edge55_Node000029_Node000008"><a xlink:title=" ">
<path fill="none" stroke="#63b8ff" d="M918.34,-232C917.55,-214.75 915.78,-176.33 914.68,-152.56"/>
<polygon fill="#63b8ff" stroke="#63b8ff" points="918.19,-152.72 914.23,-142.89 911.2,-153.04 918.19,-152.72"/>
</a>
</g>
</g>
<!-- Node29&#45;&gt;Node13 -->
<g id="edge52_Node000029_Node000013" class="edge">
<title>Node29&#45;&gt;Node13</title>
<g id="a_edge52_Node000029_Node000013"><a xlink:title=" ">
<path fill="none" stroke="#63b8ff" d="M911.23,-232.06C900.04,-219.21 878.04,-194.91 856.75,-177 823.4,-148.95 813.61,-143.33 775.75,-121.75 742.93,-103.05 728.33,-109.24 698.75,-85.75 678.72,-69.84 661.41,-45.84 650.82,-29.26"/>
<polygon fill="#63b8ff" stroke="#63b8ff" points="653.88,-27.57 645.65,-20.89 647.92,-31.24 653.88,-27.57"/>
</a>
</g>
</g>
<!-- Node29&#45;&gt;Node14 -->
<g id="edge53_Node000029_Node000014" class="edge">
<title>Node29&#45;&gt;Node14</title>
<g id="a_edge53_Node000029_Node000014"><a xlink:title=" ">
<path fill="none" stroke="#63b8ff" d="M883.67,-231.79C855.3,-223.91 814.66,-211.41 780.75,-196.25 765.25,-189.32 763.94,-182.13 747.75,-177 658.45,-148.71 396.16,-204.99 327.75,-141 297.6,-112.79 300,-59.64 304.05,-30.68"/>
<polygon fill="#63b8ff" stroke="#63b8ff" points="307.47,-31.49 305.62,-21.06 300.56,-30.37 307.47,-31.49"/>
</a>
</g>
</g>
<!-- Node29&#45;&gt;Node16 -->
<g id="edge47_Node000029_Node000016" class="edge">
<title>Node29&#45;&gt;Node16</title>
<g id="a_edge47_Node000029_Node000016"><a xlink:title=" ">
<path fill="none" stroke="#63b8ff" d="M964.18,-231.81C984.45,-225.36 1006.67,-214.47 1019.75,-196.25 1056.38,-145.21 1065.81,-106.69 1029.75,-55.25 1024.65,-47.97 979.78,-32.9 945.7,-22.3"/>
<polygon fill="#63b8ff" stroke="#63b8ff" points="947.11,-19.07 936.52,-19.47 945.05,-25.76 947.11,-19.07"/>
</a>
</g>
</g>
<!-- Node29&#45;&gt;Node19 -->
<g id="edge51_Node000029_Node000019" class="edge">
<title>Node29&#45;&gt;Node19</title>
<g id="a_edge51_Node000029_Node000019"><a xlink:title=" ">
<path fill="none" stroke="#63b8ff" d="M949.15,-231.82C974.12,-223.88 1010.08,-211.27 1039.75,-196.25 1143.29,-143.84 1255.2,-61.11 1300.25,-26.59"/>
<polygon fill="#63b8ff" stroke="#63b8ff" points="1302.32,-29.42 1308.1,-20.54 1298.04,-23.87 1302.32,-29.42"/>
</a>
</g>
</g>
<!-- Node29&#45;&gt;Node23 -->
<g id="edge48_Node000029_Node000023" class="edge">
<title>Node29&#45;&gt;Node23</title>
<g id="a_edge48_Node000029_Node000023"><a xlink:title=" ">
<path fill="none" stroke="#63b8ff" d="M904.46,-231.92C884.61,-219.51 847.54,-196.4 815.75,-177 775.04,-152.15 767.12,-141.6 723.75,-121.75 617.47,-73.11 483.64,-35.66 421.05,-19.43"/>
<polygon fill="#63b8ff" stroke="#63b8ff" points="422.24,-16.13 411.68,-17.03 420.5,-22.91 422.24,-16.13"/>
</a>
</g>
</g>
<!-- Node29&#45;&gt;Node28 -->
<g id="edge49_Node000029_Node000028" class="edge">
<title>Node29&#45;&gt;Node28</title>
<g id="a_edge49_Node000029_Node000028"><a xlink:title=" ">
<path fill="none" stroke="#63b8ff" d="M883.8,-231.84C846.56,-222.21 787.83,-207.03 749.8,-197.2"/>
<polygon fill="#63b8ff" stroke="#63b8ff" points="750.74,-193.83 740.18,-194.72 748.98,-200.61 750.74,-193.83"/>
</a>
</g>
</g>
<!-- Node30 -->
<g id="Node000030" class="node">
<title>Node30</title>
<g id="a_Node000030"><a xlink:title=" ">
<polygon fill="#e0e0e0" stroke="#999999" points="1010.75,-196.25 946.75,-196.25 946.75,-177 1010.75,-177 1010.75,-196.25"/>
<text text-anchor="middle" x="978.75" y="-182.75" font-family="Helvetica,sans-Serif" font-size="10.00">petscvec.h</text>
</a>
</g>
</g>
<!-- Node29&#45;&gt;Node30 -->
<g id="edge46_Node000029_Node000030" class="edge">
<title>Node29&#45;&gt;Node30</title>
<g id="a_edge46_Node000029_Node000030"><a xlink:title=" ">
<path fill="none" stroke="#63b8ff" d="M928.93,-231.84C937.51,-224.22 950.02,-213.12 960.35,-203.95"/>
<polygon fill="#63b8ff" stroke="#63b8ff" points="962.43,-206.79 967.59,-197.53 957.79,-201.55 962.43,-206.79"/>
</a>
</g>
</g>
<!-- Node31&#45;&gt;Node13 -->
<g id="edge59_Node000031_Node000013" class="edge">
<title>Node31&#45;&gt;Node13</title>
<g id="a_edge59_Node000031_Node000013"><a xlink:title=" ">
<path fill="none" stroke="#63b8ff" d="M422.41,-121.37C462.9,-100.74 562.68,-49.9 611.68,-24.93"/>
<polygon fill="#63b8ff" stroke="#63b8ff" points="613.21,-28.08 620.53,-20.42 610.03,-21.84 613.21,-28.08"/>
</a>
</g>
</g>
<!-- Node31&#45;&gt;Node17 -->
<g id="edge57_Node000031_Node000017" class="edge">
<title>Node31&#45;&gt;Node17</title>
<g id="a_edge57_Node000031_Node000017"><a xlink:title=" ">
<path fill="none" stroke="#63b8ff" d="M409.49,-121.37C419.7,-101.96 444,-55.77 457.77,-29.59"/>
<polygon fill="#63b8ff" stroke="#63b8ff" points="460.7,-31.55 462.26,-21.07 454.5,-28.29 460.7,-31.55"/>
</a>
</g>
</g>
<!-- Node31&#45;&gt;Node23 -->
<g id="edge58_Node000031_Node000023" class="edge">
<title>Node31&#45;&gt;Node23</title>
<g id="a_edge58_Node000031_Node000023"><a xlink:title=" ">
<path fill="none" stroke="#63b8ff" d="M395.14,-121.54C386.88,-113.22 375.55,-99.96 370.75,-85.75 364.51,-67.27 370.34,-45.32 376.46,-29.93"/>
<polygon fill="#63b8ff" stroke="#63b8ff" points="379.57,-31.56 380.39,-20.99 373.16,-28.74 379.57,-31.56"/>
</a>
</g>
</g>
<!-- Node32 -->
<g id="Node000032" class="node">
<title>Node32</title>
<g id="a_Node000032"><a xlink:href="vmath_8hpp.html" target="_top" xlink:title=" ">
<polygon fill="white" stroke="#666666" points="242.88,-80.12 128.62,-80.12 128.62,-60.88 242.88,-60.88 242.88,-80.12"/>
<text text-anchor="middle" x="185.75" y="-66.62" font-family="Helvetica,sans-Serif" font-size="10.00">vulpes/utils/vmath.hpp</text>
</a>
</g>
</g>
<!-- Node31&#45;&gt;Node32 -->
<g id="edge60_Node000031_Node000032" class="edge">
<title>Node31&#45;&gt;Node32</title>
<g id="a_edge60_Node000031_Node000032"><a xlink:title=" ">
<path fill="none" stroke="#63b8ff" d="M371.01,-121.3C333.31,-111.17 272.12,-94.72 230.46,-83.52"/>
<polygon fill="#63b8ff" stroke="#63b8ff" points="231.55,-80.19 220.99,-80.97 229.74,-86.95 231.55,-80.19"/>
</a>
</g>
</g>
<!-- Node32&#45;&gt;Node14 -->
<g id="edge66_Node000032_Node000014" class="edge">
<title>Node32&#45;&gt;Node14</title>
<g id="a_edge66_Node000032_Node000014"><a xlink:title=" ">
<path fill="none" stroke="#63b8ff" d="M204.55,-60.43C224.39,-50.85 255.94,-35.63 278.93,-24.53"/>
<polygon fill="#63b8ff" stroke="#63b8ff" points="280.29,-27.77 287.77,-20.27 277.24,-21.46 280.29,-27.77"/>
</a>
</g>
</g>
<!-- Node32&#45;&gt;Node23 -->
<g id="edge62_Node000032_Node000023" class="edge">
<title>Node32&#45;&gt;Node23</title>
<g id="a_edge62_Node000032_Node000023"><a xlink:title=" ">
<path fill="none" stroke="#63b8ff" d="M216.56,-60.43C252.76,-49.77 312.69,-32.13 350.65,-20.96"/>
<polygon fill="#63b8ff" stroke="#63b8ff" points="351.15,-24.46 359.76,-18.28 349.18,-17.74 351.15,-24.46"/>
</a>
</g>
</g>
<!-- Node33 -->
<g id="Node000033" class="node">
<title>Node33</title>
<g id="a_Node000033"><a xlink:title=" ">
<polygon fill="#e0e0e0" stroke="#999999" points="53.5,-19.25 0,-19.25 0,0 53.5,0 53.5,-19.25"/>
<text text-anchor="middle" x="26.75" y="-5.75" font-family="Helvetica,sans-Serif" font-size="10.00">gmpxx.h</text>
</a>
</g>
</g>
<!-- Node32&#45;&gt;Node33 -->
<g id="edge61_Node000032_Node000033" class="edge">
<title>Node32&#45;&gt;Node33</title>
<g id="a_edge61_Node000032_Node000033"><a xlink:title=" ">
<path fill="none" stroke="#63b8ff" d="M161.25,-60.43C134.64,-50.58 91.91,-34.75 61.76,-23.59"/>
<polygon fill="#63b8ff" stroke="#63b8ff" points="63.29,-20.42 52.69,-20.23 60.85,-26.99 63.29,-20.42"/>
</a>
</g>
</g>
<!-- Node34 -->
<g id="Node000034" class="node">
<title>Node34</title>
<g id="a_Node000034"><a xlink:title=" ">
<polygon fill="#e0e0e0" stroke="#999999" points="116.38,-19.25 71.12,-19.25 71.12,0 116.38,0 116.38,-19.25"/>
<text text-anchor="middle" x="93.75" y="-5.75" font-family="Helvetica,sans-Serif" font-size="10.00">cstdint</text>
</a>
</g>
</g>
<!-- Node32&#45;&gt;Node34 -->
<g id="edge63_Node000032_Node000034" class="edge">
<title>Node32&#45;&gt;Node34</title>
<g id="a_edge63_Node000032_Node000034"><a xlink:title=" ">
<path fill="none" stroke="#63b8ff" d="M171.78,-60.56C157.32,-51.31 134.49,-36.7 117.25,-25.67"/>
<polygon fill="#63b8ff" stroke="#63b8ff" points="119.44,-22.91 109.13,-20.47 115.67,-28.81 119.44,-22.91"/>
</a>
</g>
</g>
<!-- Node35 -->
<g id="Node000035" class="node">
<title>Node35</title>
<g id="a_Node000035"><a xlink:title=" ">
<polygon fill="#e0e0e0" stroke="#999999" points="173.38,-19.25 134.12,-19.25 134.12,0 173.38,0 173.38,-19.25"/>
<text text-anchor="middle" x="153.75" y="-5.75" font-family="Helvetica,sans-Serif" font-size="10.00">limits</text>
</a>
</g>
</g>
<!-- Node32&#45;&gt;Node35 -->
<g id="edge64_Node000032_Node000035" class="edge">
<title>Node32&#45;&gt;Node35</title>
<g id="a_edge64_Node000032_Node000035"><a xlink:title=" ">
<path fill="none" stroke="#63b8ff" d="M180.89,-60.56C176.43,-52.35 169.67,-39.91 164.01,-29.5"/>
<polygon fill="#63b8ff" stroke="#63b8ff" points="167.23,-28.1 159.38,-20.98 161.08,-31.44 167.23,-28.1"/>
</a>
</g>
</g>
<!-- Node36 -->
<g id="Node000036" class="node">
<title>Node36</title>
<g id="a_Node000036"><a xlink:title=" ">
<polygon fill="#e0e0e0" stroke="#999999" points="253.62,-19.25 191.88,-19.25 191.88,0 253.62,0 253.62,-19.25"/>
<text text-anchor="middle" x="222.75" y="-5.75" font-family="Helvetica,sans-Serif" font-size="10.00">type_traits</text>
</a>
</g>
</g>
<!-- Node32&#45;&gt;Node36 -->
<g id="edge65_Node000032_Node000036" class="edge">
<title>Node32&#45;&gt;Node36</title>
<g id="a_edge65_Node000032_Node000036"><a xlink:title=" ">
<path fill="none" stroke="#63b8ff" d="M191.37,-60.56C196.59,-52.26 204.51,-39.64 211.09,-29.17"/>
<polygon fill="#63b8ff" stroke="#63b8ff" points="213.91,-31.26 216.27,-20.93 207.99,-27.54 213.91,-31.26"/>
</a>
</g>
</g>
</g>
</svg>
