<?xml version="1.0" encoding="UTF-8" standalone="no"?>
<!DOCTYPE svg PUBLIC "-//W3C//DTD SVG 1.1//EN"
 "http://www.w3.org/Graphics/SVG/1.1/DTD/svg11.dtd">
<!-- Generated by graphviz version 2.42.4 (0)
 -->
<!-- Title: /__w/vulpes/vulpes/vulpes/la/linear_solver.hpp Pages: 1 -->
<!--zoomable 379 -->

<svg id="main" version="1.1" xmlns="http://www.w3.org/2000/svg" xmlns:xlink="http://www.w3.org/1999/xlink" xml:space="preserve" onload="init(evt)">
<style type="text/css"><![CDATA[
.node, .edge {opacity: 0.7;}
.node.selected, .edge.selected {opacity: 1;}
.edge:hover path { stroke: red; }
.edge:hover polygon { stroke: red; fill: red; }
]]></style>

<defs>
  <circle id="rim" cx="0" cy="0" r="7"/>
  <circle id="rim2" cx="0" cy="0" r="3.5"/>
  <g id="zoomPlus">
    <use xlink:href="#rim" fill="#404040"><set attributeName="fill" to="#808080" begin="zoomplus.mouseover" end="zoomplus.mouseout"/></use>
    <path d="M-4,0h8M0,-4v8" fill="none" stroke="white" stroke-width="1.5" pointer-events="none"/>
  </g>
  <g id="zoomMin">
    <use xlink:href="#rim" fill="#404040"><set attributeName="fill" to="#808080" begin="zoomminus.mouseover" end="zoomminus.mouseout"/></use>
    <path d="M-4,0h8" fill="none" stroke="white" stroke-width="1.5" pointer-events="none"/>
  </g>
  <g id="arrowUp" transform="translate(30 24)">
    <use xlink:href="#rim"/>
    <path pointer-events="none" fill="none" stroke="white" stroke-width="1.5" d="M0,-3.0v7 M-2.5,-0.5L0,-3.0L2.5,-0.5"/>
  </g>
  <g id="arrowRight" transform="rotate(90) translate(36 -43)">
    <use xlink:href="#rim"/>
    <path pointer-events="none" fill="none" stroke="white" stroke-width="1.5" d="M0,-3.0v7 M-2.5,-0.5L0,-3.0L2.5,-0.5"/>
  </g>
  <g id="arrowDown" transform="rotate(180) translate(-30 -48)">
    <use xlink:href="#rim"/>
    <path pointer-events="none" fill="none" stroke="white" stroke-width="1.5" d="M0,-3.0v7 M-2.5,-0.5L0,-3.0L2.5,-0.5"/>
  </g>
  <g id="arrowLeft" transform="rotate(270) translate(-36 17)">
    <use xlink:href="#rim"/>
    <path pointer-events="none" fill="none" stroke="white" stroke-width="1.5" d="M0,-3.0v7 M-2.5,-0.5L0,-3.0L2.5,-0.5"/>
  </g>
  <g id="resetDef">
    <use xlink:href="#rim2" fill="#404040"><set attributeName="fill" to="#808080" begin="reset.mouseover" end="reset.mouseout"/></use>
  </g>
</defs>
<script type="application/ecmascript">
var viewWidth = 1111;
var viewHeight = 379;
var sectionId = 'dynsection-0';
</script>
<script type="application/ecmascript" xlink:href="svg.min.js"/>
<svg id="graph" class="graph">
<g id="viewport">
<title>/__w/vulpes/vulpes/vulpes/la/linear_solver.hpp</title>
<!-- Node1 -->
<g id="Node000001" class="node">
<title>Node1</title>
<g id="a_Node000001"><a xlink:title=" ">
<polygon fill="#999999" stroke="#666666" points="209.34,-371 59.34,-371 59.34,-341 209.34,-341 209.34,-371"/>
<text text-anchor="start" x="67.34" y="-359" font-family="Helvetica,sans-Serif" font-size="10.00">/__w/vulpes/vulpes</text>
<text text-anchor="middle" x="134.34" y="-348" font-family="Helvetica,sans-Serif" font-size="10.00">/vulpes/la/linear_solver.hpp</text>
</a>
</g>
</g>
<!-- Node2 -->
<g id="Node000002" class="node">
<title>Node2</title>
<g id="a_Node000002"><a xlink:title=" ">
<polygon fill="#e0e0e0" stroke="#999999" points="88.84,-250 17.84,-250 17.84,-231 88.84,-231 88.84,-250"/>
<text text-anchor="middle" x="53.34" y="-238" font-family="Helvetica,sans-Serif" font-size="10.00">petscmat.h</text>
</a>
</g>
</g>
<!-- Node1&#45;&gt;Node2 -->
<g id="edge1_Node000001_Node000002" class="edge">
<title>Node1&#45;&gt;Node2</title>
<g id="a_edge1_Node000001_Node000002"><a xlink:title=" ">
<path fill="none" stroke="#63b8ff" d="M124.09,-340.63C109.12,-319.65 81.35,-280.75 65.42,-258.42"/>
<polygon fill="#63b8ff" stroke="#63b8ff" points="68.23,-256.34 59.57,-250.23 62.53,-260.4 68.23,-256.34"/>
</a>
</g>
</g>
<!-- Node3 -->
<g id="Node000003" class="node">
<title>Node3</title>
<g id="a_Node000003"><a xlink:title=" ">
<polygon fill="#e0e0e0" stroke="#999999" points="77.34,-140 9.34,-140 9.34,-121 77.34,-121 77.34,-140"/>
<text text-anchor="middle" x="43.34" y="-128" font-family="Helvetica,sans-Serif" font-size="10.00">petscsys.h</text>
</a>
</g>
</g>
<!-- Node1&#45;&gt;Node3 -->
<g id="edge2_Node000001_Node000003" class="edge">
<title>Node1&#45;&gt;Node3</title>
<g id="a_edge2_Node000001_Node000003"><a xlink:title=" ">
<path fill="none" stroke="#63b8ff" d="M88.64,-340.95C68.53,-332.97 45.79,-321.25 29.34,-305 9.98,-285.86 8.5,-276.53 2.34,-250 -1.6,-233.02 0.85,-189.64 6.34,-176 10.59,-165.46 18.31,-155.55 25.6,-147.77"/>
<polygon fill="#63b8ff" stroke="#63b8ff" points="28.55,-149.77 33.16,-140.23 23.61,-144.81 28.55,-149.77"/>
</a>
</g>
</g>
<!-- Node4 -->
<g id="Node000004" class="node">
<title>Node4</title>
<g id="a_Node000004"><a xlink:href="boomer__amg_8hpp.html" target="_top" xlink:title=" ">
<polygon fill="white" stroke="#666666" points="615.84,-305 466.84,-305 466.84,-286 615.84,-286 615.84,-305"/>
<text text-anchor="middle" x="541.34" y="-293" font-family="Helvetica,sans-Serif" font-size="10.00">vulpes/la/boomer_amg.hpp</text>
</a>
</g>
</g>
<!-- Node1&#45;&gt;Node4 -->
<g id="edge3_Node000001_Node000004" class="edge">
<title>Node1&#45;&gt;Node4</title>
<g id="a_edge3_Node000001_Node000004"><a xlink:title=" ">
<path fill="none" stroke="#63b8ff" d="M209.47,-344.2C284.6,-333.4 399.2,-316.93 472.16,-306.44"/>
<polygon fill="#63b8ff" stroke="#63b8ff" points="472.77,-309.89 482.18,-305 471.78,-302.96 472.77,-309.89"/>
</a>
</g>
</g>
<!-- Node5 -->
<g id="Node000005" class="node">
<title>Node5</title>
<g id="a_Node000005"><a xlink:href="petsc__utils_8hpp.html" target="_top" xlink:title=" ">
<polygon fill="white" stroke="#666666" points="159.84,-195 22.84,-195 22.84,-176 159.84,-176 159.84,-195"/>
<text text-anchor="middle" x="91.34" y="-183" font-family="Helvetica,sans-Serif" font-size="10.00">vulpes/la/petsc_utils.hpp</text>
</a>
</g>
</g>
<!-- Node1&#45;&gt;Node5 -->
<g id="edge4_Node000001_Node000005" class="edge">
<title>Node1&#45;&gt;Node5</title>
<g id="a_edge4_Node000001_Node000005"><a xlink:title=" ">
<path fill="none" stroke="#63b8ff" d="M105.95,-340.85C75.6,-323.94 29.16,-292.52 9.34,-250 -1.7,-226.31 26.15,-209.07 52.34,-198.58"/>
<polygon fill="#63b8ff" stroke="#63b8ff" points="53.7,-201.81 61.83,-195.02 51.24,-195.25 53.7,-201.81"/>
</a>
</g>
</g>
<!-- Node20 -->
<g id="Node000020" class="node">
<title>Node20</title>
<g id="a_Node000020"><a xlink:href="sparse__matrix_8hpp.html" target="_top" xlink:title=" ">
<polygon fill="white" stroke="#666666" points="448.84,-305 293.84,-305 293.84,-286 448.84,-286 448.84,-305"/>
<text text-anchor="middle" x="371.34" y="-293" font-family="Helvetica,sans-Serif" font-size="10.00">vulpes/la/sparse_matrix.hpp</text>
</a>
</g>
</g>
<!-- Node1&#45;&gt;Node20 -->
<g id="edge22_Node000001_Node000020" class="edge">
<title>Node1&#45;&gt;Node20</title>
<g id="a_edge22_Node000001_Node000020"><a xlink:title=" ">
<path fill="none" stroke="#63b8ff" d="M191.11,-340.99C232.72,-330.72 288.42,-316.97 326.83,-307.49"/>
<polygon fill="#63b8ff" stroke="#63b8ff" points="327.82,-310.85 336.69,-305.05 326.14,-304.05 327.82,-310.85"/>
</a>
</g>
</g>
<!-- Node23 -->
<g id="Node000023" class="node">
<title>Node23</title>
<g id="a_Node000023"><a xlink:href="vector_8hpp.html" target="_top" xlink:title=" ">
<polygon fill="white" stroke="#666666" points="428.84,-250 313.84,-250 313.84,-231 428.84,-231 428.84,-250"/>
<text text-anchor="middle" x="371.34" y="-238" font-family="Helvetica,sans-Serif" font-size="10.00">vulpes/la/vector.hpp</text>
</a>
</g>
</g>
<!-- Node1&#45;&gt;Node23 -->
<g id="edge53_Node000001_Node000023" class="edge">
<title>Node1&#45;&gt;Node23</title>
<g id="a_edge53_Node000001_Node000023"><a xlink:title=" ">
<path fill="none" stroke="#63b8ff" d="M163.88,-340.85C210.24,-318.65 299.4,-275.95 344.22,-254.49"/>
<polygon fill="#63b8ff" stroke="#63b8ff" points="345.83,-257.6 353.34,-250.12 342.81,-251.29 345.83,-257.6"/>
</a>
</g>
</g>
<!-- Node5&#45;&gt;Node3 -->
<g id="edge5_Node000005_Node000003" class="edge">
<title>Node5&#45;&gt;Node3</title>
<g id="a_edge5_Node000005_Node000003"><a xlink:title=" ">
<path fill="none" stroke="#63b8ff" d="M83.42,-175.75C76.5,-168.11 66.28,-156.82 57.89,-147.56"/>
<polygon fill="#63b8ff" stroke="#63b8ff" points="60.43,-145.15 51.12,-140.09 55.24,-149.85 60.43,-145.15"/>
</a>
</g>
</g>
<!-- Node6 -->
<g id="Node000006" class="node">
<title>Node6</title>
<g id="a_Node000006"><a xlink:title=" ">
<polygon fill="#e0e0e0" stroke="#999999" points="406.34,-140 362.34,-140 362.34,-121 406.34,-121 406.34,-140"/>
<text text-anchor="middle" x="384.34" y="-128" font-family="Helvetica,sans-Serif" font-size="10.00">string</text>
</a>
</g>
</g>
<!-- Node5&#45;&gt;Node6 -->
<g id="edge6_Node000005_Node000006" class="edge">
<title>Node5&#45;&gt;Node6</title>
<g id="a_edge6_Node000005_Node000006"><a xlink:title=" ">
<path fill="none" stroke="#63b8ff" d="M151.77,-175.98C202.79,-168.39 277.96,-156.28 352.08,-140.1"/>
<polygon fill="#63b8ff" stroke="#63b8ff" points="353.05,-143.47 362.06,-137.9 351.54,-136.64 353.05,-143.47"/>
</a>
</g>
</g>
<!-- Node7 -->
<g id="Node000007" class="node">
<title>Node7</title>
<g id="a_Node000007"><a xlink:href="mpi__wrappers_8hpp.html" target="_top" xlink:title=" ">
<polygon fill="white" stroke="#666666" points="344.34,-140 178.34,-140 178.34,-121 344.34,-121 344.34,-140"/>
<text text-anchor="middle" x="261.34" y="-128" font-family="Helvetica,sans-Serif" font-size="10.00">vulpes/utils/mpi_wrappers.hpp</text>
</a>
</g>
</g>
<!-- Node5&#45;&gt;Node7 -->
<g id="edge7_Node000005_Node000007" class="edge">
<title>Node5&#45;&gt;Node7</title>
<g id="a_edge7_Node000005_Node000007"><a xlink:title=" ">
<path fill="none" stroke="#63b8ff" d="M118.66,-175.98C147.2,-167.09 192.17,-153.07 223.99,-143.15"/>
<polygon fill="#63b8ff" stroke="#63b8ff" points="225.31,-146.4 233.82,-140.08 223.23,-139.72 225.31,-146.4"/>
</a>
</g>
</g>
<!-- Node8 -->
<g id="Node000008" class="node">
<title>Node8</title>
<g id="a_Node000008"><a xlink:title=" ">
<polygon fill="#e0e0e0" stroke="#999999" points="301.34,-79.5 257.34,-79.5 257.34,-60.5 301.34,-60.5 301.34,-79.5"/>
<text text-anchor="middle" x="279.34" y="-67.5" font-family="Helvetica,sans-Serif" font-size="10.00">mpi.h</text>
</a>
</g>
</g>
<!-- Node7&#45;&gt;Node8 -->
<g id="edge8_Node000007_Node000008" class="edge">
<title>Node7&#45;&gt;Node8</title>
<g id="a_edge8_Node000007_Node000008"><a xlink:title=" ">
<path fill="none" stroke="#63b8ff" d="M264,-120.87C266.53,-112.66 270.41,-100.04 273.64,-89.55"/>
<polygon fill="#63b8ff" stroke="#63b8ff" points="277.08,-90.25 276.68,-79.67 270.39,-88.2 277.08,-90.25"/>
</a>
</g>
</g>
<!-- Node9 -->
<g id="Node000009" class="node">
<title>Node9</title>
<g id="a_Node000009"><a xlink:title=" ">
<polygon fill="#e0e0e0" stroke="#999999" points="371.34,-79.5 319.34,-79.5 319.34,-60.5 371.34,-60.5 371.34,-79.5"/>
<text text-anchor="middle" x="345.34" y="-67.5" font-family="Helvetica,sans-Serif" font-size="10.00">petsc.h</text>
</a>
</g>
</g>
<!-- Node7&#45;&gt;Node9 -->
<g id="edge9_Node000007_Node000009" class="edge">
<title>Node7&#45;&gt;Node9</title>
<g id="a_edge9_Node000007_Node000009"><a xlink:title=" ">
<path fill="none" stroke="#63b8ff" d="M273.74,-120.87C287.14,-111.54 308.72,-96.51 324.69,-85.38"/>
<polygon fill="#63b8ff" stroke="#63b8ff" points="326.69,-88.25 332.9,-79.67 322.69,-82.51 326.69,-88.25"/>
</a>
</g>
</g>
<!-- Node10 -->
<g id="Node000010" class="node">
<title>Node10</title>
<g id="a_Node000010"><a xlink:title=" ">
<polygon fill="#e0e0e0" stroke="#999999" points="78.34,-19 26.34,-19 26.34,0 78.34,0 78.34,-19"/>
<text text-anchor="middle" x="52.34" y="-7" font-family="Helvetica,sans-Serif" font-size="10.00">cassert</text>
</a>
</g>
</g>
<!-- Node7&#45;&gt;Node10 -->
<g id="edge10_Node000007_Node000010" class="edge">
<title>Node7&#45;&gt;Node10</title>
<g id="a_edge10_Node000007_Node000010"><a xlink:title=" ">
<path fill="none" stroke="#63b8ff" d="M205.95,-120.94C176.61,-114.48 141.02,-103.47 113.34,-85 91.26,-70.26 73.1,-45.14 62.49,-28.18"/>
<polygon fill="#63b8ff" stroke="#63b8ff" points="65.3,-26.06 57.15,-19.29 59.3,-29.66 65.3,-26.06"/>
</a>
</g>
</g>
<!-- Node11 -->
<g id="Node000011" class="node">
<title>Node11</title>
<g id="a_Node000011"><a xlink:title=" ">
<polygon fill="#e0e0e0" stroke="#999999" points="947.34,-79.5 887.34,-79.5 887.34,-60.5 947.34,-60.5 947.34,-79.5"/>
<text text-anchor="middle" x="917.34" y="-67.5" font-family="Helvetica,sans-Serif" font-size="10.00">iostream</text>
</a>
</g>
</g>
<!-- Node7&#45;&gt;Node11 -->
<g id="edge11_Node000007_Node000011" class="edge">
<title>Node7&#45;&gt;Node11</title>
<g id="a_edge11_Node000007_Node000011"><a xlink:title=" ">
<path fill="none" stroke="#63b8ff" d="M344.59,-121.8C347.54,-121.53 350.47,-121.26 353.34,-121 549.66,-103.23 784.47,-82.62 877.02,-74.52"/>
<polygon fill="#63b8ff" stroke="#63b8ff" points="877.42,-78 887.08,-73.64 876.81,-71.03 877.42,-78"/>
</a>
</g>
</g>
<!-- Node12 -->
<g id="Node000012" class="node">
<title>Node12</title>
<g id="a_Node000012"><a xlink:title=" ">
<polygon fill="#e0e0e0" stroke="#999999" points="594.84,-19 547.84,-19 547.84,0 594.84,0 594.84,-19"/>
<text text-anchor="middle" x="571.34" y="-7" font-family="Helvetica,sans-Serif" font-size="10.00">vector</text>
</a>
</g>
</g>
<!-- Node7&#45;&gt;Node12 -->
<g id="edge12_Node000007_Node000012" class="edge">
<title>Node7&#45;&gt;Node12</title>
<g id="a_edge12_Node000007_Node000012"><a xlink:title=" ">
<path fill="none" stroke="#63b8ff" d="M291.77,-120.88C316.49,-113.24 351.8,-100.84 380.34,-85 399.46,-74.39 399.85,-64.91 419.34,-55 457.66,-35.52 505.86,-23.24 537.59,-16.63"/>
<polygon fill="#63b8ff" stroke="#63b8ff" points="538.56,-20 547.68,-14.6 537.18,-13.14 538.56,-20"/>
</a>
</g>
</g>
<!-- Node13 -->
<g id="Node000013" class="node">
<title>Node13</title>
<g id="a_Node000013"><a xlink:title=" ">
<polygon fill="#e0e0e0" stroke="#999999" points="504.84,-79.5 427.84,-79.5 427.84,-60.5 504.84,-60.5 504.84,-79.5"/>
<text text-anchor="middle" x="466.34" y="-67.5" font-family="Helvetica,sans-Serif" font-size="10.00">Eigen/Dense</text>
</a>
</g>
</g>
<!-- Node7&#45;&gt;Node13 -->
<g id="edge13_Node000007_Node000013" class="edge">
<title>Node7&#45;&gt;Node13</title>
<g id="a_edge13_Node000007_Node000013"><a xlink:title=" ">
<path fill="none" stroke="#63b8ff" d="M291.15,-120.99C326.91,-110.79 386.97,-93.65 426.64,-82.33"/>
<polygon fill="#63b8ff" stroke="#63b8ff" points="427.84,-85.63 436.5,-79.52 425.92,-78.9 427.84,-85.63"/>
</a>
</g>
</g>
<!-- Node14 -->
<g id="Node000014" class="node">
<title>Node14</title>
<g id="a_Node000014"><a xlink:href="crs__map_8hpp.html" target="_top" xlink:title=" ">
<polygon fill="white" stroke="#666666" points="238.84,-85 121.84,-85 121.84,-55 238.84,-55 238.84,-85"/>
<text text-anchor="start" x="129.84" y="-73" font-family="Helvetica,sans-Serif" font-size="10.00">vulpes/datastructure</text>
<text text-anchor="middle" x="180.34" y="-62" font-family="Helvetica,sans-Serif" font-size="10.00">/crs_map.hpp</text>
</a>
</g>
</g>
<!-- Node7&#45;&gt;Node14 -->
<g id="edge14_Node000007_Node000014" class="edge">
<title>Node7&#45;&gt;Node14</title>
<g id="a_edge14_Node000007_Node000014"><a xlink:title=" ">
<path fill="none" stroke="#63b8ff" d="M249.39,-120.87C238.61,-113.08 222.32,-101.32 208.28,-91.17"/>
<polygon fill="#63b8ff" stroke="#63b8ff" points="210.04,-88.13 199.89,-85.11 205.95,-93.81 210.04,-88.13"/>
</a>
</g>
</g>
<!-- Node14&#45;&gt;Node10 -->
<g id="edge17_Node000014_Node000010" class="edge">
<title>Node14&#45;&gt;Node10</title>
<g id="a_edge17_Node000014_Node000010"><a xlink:title=" ">
<path fill="none" stroke="#63b8ff" d="M149.69,-54.99C128.62,-45.36 100.86,-32.67 80.38,-23.31"/>
<polygon fill="#63b8ff" stroke="#63b8ff" points="81.8,-20.11 71.25,-19.14 78.89,-26.48 81.8,-20.11"/>
</a>
</g>
</g>
<!-- Node14&#45;&gt;Node12 -->
<g id="edge21_Node000014_Node000012" class="edge">
<title>Node14&#45;&gt;Node12</title>
<g id="a_edge21_Node000014_Node000012"><a xlink:title=" ">
<path fill="none" stroke="#63b8ff" d="M238.9,-56.69C242.09,-56.1 245.26,-55.53 248.34,-55 353.39,-36.97 478.64,-21.39 537.55,-14.41"/>
<polygon fill="#63b8ff" stroke="#63b8ff" points="538.23,-17.85 547.76,-13.21 537.42,-10.9 538.23,-17.85"/>
</a>
</g>
</g>
<!-- Node15 -->
<g id="Node000015" class="node">
<title>Node15</title>
<g id="a_Node000015"><a xlink:title=" ">
<polygon fill="#e0e0e0" stroke="#999999" points="368.34,-19 304.34,-19 304.34,0 368.34,0 368.34,-19"/>
<text text-anchor="middle" x="336.34" y="-7" font-family="Helvetica,sans-Serif" font-size="10.00">algorithm</text>
</a>
</g>
</g>
<!-- Node14&#45;&gt;Node15 -->
<g id="edge15_Node000014_Node000015" class="edge">
<title>Node14&#45;&gt;Node15</title>
<g id="a_edge15_Node000014_Node000015"><a xlink:title=" ">
<path fill="none" stroke="#63b8ff" d="M217.71,-54.99C243.97,-45.14 278.76,-32.1 303.86,-22.68"/>
<polygon fill="#63b8ff" stroke="#63b8ff" points="305.17,-25.93 313.31,-19.14 302.71,-19.37 305.17,-25.93"/>
</a>
</g>
</g>
<!-- Node16 -->
<g id="Node000016" class="node">
<title>Node16</title>
<g id="a_Node000016"><a xlink:title=" ">
<polygon fill="#e0e0e0" stroke="#999999" points="479.34,-19 437.34,-19 437.34,0 479.34,0 479.34,-19"/>
<text text-anchor="middle" x="458.34" y="-7" font-family="Helvetica,sans-Serif" font-size="10.00">array</text>
</a>
</g>
</g>
<!-- Node14&#45;&gt;Node16 -->
<g id="edge16_Node000014_Node000016" class="edge">
<title>Node14&#45;&gt;Node16</title>
<g id="a_edge16_Node000014_Node000016"><a xlink:title=" ">
<path fill="none" stroke="#63b8ff" d="M238.96,-56.67C296.45,-44.57 381.89,-26.59 427.32,-17.03"/>
<polygon fill="#63b8ff" stroke="#63b8ff" points="428.11,-20.44 437.17,-14.96 426.67,-13.59 428.11,-20.44"/>
</a>
</g>
</g>
<!-- Node17 -->
<g id="Node000017" class="node">
<title>Node17</title>
<g id="a_Node000017"><a xlink:title=" ">
<polygon fill="#e0e0e0" stroke="#999999" points="153.84,-19 96.84,-19 96.84,0 153.84,0 153.84,-19"/>
<text text-anchor="middle" x="125.34" y="-7" font-family="Helvetica,sans-Serif" font-size="10.00">ostream</text>
</a>
</g>
</g>
<!-- Node14&#45;&gt;Node17 -->
<g id="edge18_Node000014_Node000017" class="edge">
<title>Node14&#45;&gt;Node17</title>
<g id="a_edge18_Node000014_Node000017"><a xlink:title=" ">
<path fill="none" stroke="#63b8ff" d="M167.03,-54.84C159.05,-46.35 148.87,-35.52 140.57,-26.69"/>
<polygon fill="#63b8ff" stroke="#63b8ff" points="142.99,-24.15 133.59,-19.27 137.89,-28.95 142.99,-24.15"/>
</a>
</g>
</g>
<!-- Node18 -->
<g id="Node000018" class="node">
<title>Node18</title>
<g id="a_Node000018"><a xlink:title=" ">
<polygon fill="#e0e0e0" stroke="#999999" points="216.84,-19 171.84,-19 171.84,0 216.84,0 216.84,-19"/>
<text text-anchor="middle" x="194.34" y="-7" font-family="Helvetica,sans-Serif" font-size="10.00">utility</text>
</a>
</g>
</g>
<!-- Node14&#45;&gt;Node18 -->
<g id="edge19_Node000014_Node000018" class="edge">
<title>Node14&#45;&gt;Node18</title>
<g id="a_edge19_Node000014_Node000018"><a xlink:title=" ">
<path fill="none" stroke="#63b8ff" d="M183.73,-54.84C185.58,-47.13 187.89,-37.49 189.88,-29.17"/>
<polygon fill="#63b8ff" stroke="#63b8ff" points="193.32,-29.81 192.25,-19.27 186.52,-28.18 193.32,-29.81"/>
</a>
</g>
</g>
<!-- Node19 -->
<g id="Node000019" class="node">
<title>Node19</title>
<g id="a_Node000019"><a xlink:title=" ">
<polygon fill="#e0e0e0" stroke="#999999" points="285.84,-19 234.84,-19 234.84,0 285.84,0 285.84,-19"/>
<text text-anchor="middle" x="260.34" y="-7" font-family="Helvetica,sans-Serif" font-size="10.00">variant</text>
</a>
</g>
</g>
<!-- Node14&#45;&gt;Node19 -->
<g id="edge20_Node000014_Node000019" class="edge">
<title>Node14&#45;&gt;Node19</title>
<g id="a_edge20_Node000014_Node000019"><a xlink:title=" ">
<path fill="none" stroke="#63b8ff" d="M199.71,-54.84C211.92,-45.91 227.65,-34.41 240.03,-25.35"/>
<polygon fill="#63b8ff" stroke="#63b8ff" points="242.35,-27.99 248.36,-19.27 238.22,-22.34 242.35,-27.99"/>
</a>
</g>
</g>
<!-- Node20&#45;&gt;Node2 -->
<g id="edge23_Node000020_Node000002" class="edge">
<title>Node20&#45;&gt;Node2</title>
<g id="a_edge23_Node000020_Node000002"><a xlink:title=" ">
<path fill="none" stroke="#63b8ff" d="M319.71,-285.99C265.73,-277.07 178.58,-262.64 103.34,-250 101.88,-249.75 100.39,-249.5 98.89,-249.25"/>
<polygon fill="#63b8ff" stroke="#63b8ff" points="99.29,-245.77 88.85,-247.55 98.13,-252.67 99.29,-245.77"/>
</a>
</g>
</g>
<!-- Node20&#45;&gt;Node3 -->
<g id="edge24_Node000020_Node000003" class="edge">
<title>Node20&#45;&gt;Node3</title>
<g id="a_edge24_Node000020_Node000003"><a xlink:title=" ">
<path fill="none" stroke="#63b8ff" d="M309.03,-285.96C262.71,-278.75 198.28,-266.87 143.34,-250 142.88,-249.86 14.61,-195.41 14.34,-195 4.39,-179.93 15.86,-160.88 27.18,-147.59"/>
<polygon fill="#63b8ff" stroke="#63b8ff" points="29.83,-149.89 34.02,-140.15 24.67,-145.15 29.83,-149.89"/>
</a>
</g>
</g>
<!-- Node20&#45;&gt;Node5 -->
<g id="edge30_Node000020_Node000005" class="edge">
<title>Node20&#45;&gt;Node5</title>
<g id="a_edge30_Node000020_Node000005"><a xlink:title=" ">
<path fill="none" stroke="#63b8ff" d="M306.14,-285.99C267.97,-279.41 219.53,-268.26 179.34,-250 152.47,-237.79 125.53,-216.74 108.67,-202.24"/>
<polygon fill="#63b8ff" stroke="#63b8ff" points="110.64,-199.32 100.82,-195.34 106.02,-204.57 110.64,-199.32"/>
</a>
</g>
</g>
<!-- Node20&#45;&gt;Node6 -->
<g id="edge28_Node000020_Node000006" class="edge">
<title>Node20&#45;&gt;Node6</title>
<g id="a_edge28_Node000020_Node000006"><a xlink:title=" ">
<path fill="none" stroke="#63b8ff" d="M432.41,-285.95C515.99,-271.74 650.19,-238.44 599.34,-176 576.67,-148.15 470.88,-137.19 416.63,-133.34"/>
<polygon fill="#63b8ff" stroke="#63b8ff" points="416.71,-129.84 406.5,-132.67 416.25,-136.83 416.71,-129.84"/>
</a>
</g>
</g>
<!-- Node20&#45;&gt;Node7 -->
<g id="edge52_Node000020_Node000007" class="edge">
<title>Node20&#45;&gt;Node7</title>
<g id="a_edge52_Node000020_Node000007"><a xlink:title=" ">
<path fill="none" stroke="#63b8ff" d="M351.1,-285.97C321.16,-272.05 266.48,-241.29 246.34,-195 239.93,-180.25 245.25,-162.32 251.26,-149.28"/>
<polygon fill="#63b8ff" stroke="#63b8ff" points="254.56,-150.52 256.01,-140.02 248.33,-147.32 254.56,-150.52"/>
</a>
</g>
</g>
<!-- Node20&#45;&gt;Node11 -->
<g id="edge26_Node000020_Node000011" class="edge">
<title>Node20&#45;&gt;Node11</title>
<g id="a_edge26_Node000020_Node000011"><a xlink:title=" ">
<path fill="none" stroke="#63b8ff" d="M449.13,-286.88C452.24,-286.58 455.32,-286.29 458.34,-286 631.19,-269.56 681.4,-301.08 847.34,-250 943.93,-220.27 995,-227.04 1046.34,-140 1068.48,-102.48 1003.04,-84.26 957.44,-76.32"/>
<polygon fill="#63b8ff" stroke="#63b8ff" points="957.92,-72.85 947.48,-74.7 956.79,-79.76 957.92,-72.85"/>
</a>
</g>
</g>
<!-- Node20&#45;&gt;Node12 -->
<g id="edge29_Node000020_Node000012" class="edge">
<title>Node20&#45;&gt;Node12</title>
<g id="a_edge29_Node000020_Node000012"><a xlink:title=" ">
<path fill="none" stroke="#63b8ff" d="M449.13,-286.84C452.24,-286.55 455.32,-286.27 458.34,-286 530.57,-279.5 1103.34,-259.01 1103.34,-186.5 1103.34,-186.5 1103.34,-186.5 1103.34,-129.5 1103.34,-26.94 722.03,-12.74 605.05,-10.8"/>
<polygon fill="#63b8ff" stroke="#63b8ff" points="604.94,-7.3 594.89,-10.65 604.84,-14.3 604.94,-7.3"/>
</a>
</g>
</g>
<!-- Node21 -->
<g id="Node000021" class="node">
<title>Node21</title>
<g id="a_Node000021"><a xlink:title=" ">
<polygon fill="#e0e0e0" stroke="#999999" points="664.84,-140 611.84,-140 611.84,-121 664.84,-121 664.84,-140"/>
<text text-anchor="middle" x="638.34" y="-128" font-family="Helvetica,sans-Serif" font-size="10.00">cstddef</text>
</a>
</g>
</g>
<!-- Node20&#45;&gt;Node21 -->
<g id="edge25_Node000020_Node000021" class="edge">
<title>Node20&#45;&gt;Node21</title>
<g id="a_edge25_Node000020_Node000021"><a xlink:title=" ">
<path fill="none" stroke="#63b8ff" d="M448.85,-286.43C503.35,-279.38 570.32,-267.5 592.34,-250 623.35,-225.36 633.49,-177.04 636.78,-150.34"/>
<polygon fill="#63b8ff" stroke="#63b8ff" points="640.3,-150.36 637.84,-140.06 633.34,-149.65 640.3,-150.36"/>
</a>
</g>
</g>
<!-- Node22 -->
<g id="Node000022" class="node">
<title>Node22</title>
<g id="a_Node000022"><a xlink:title=" ">
<polygon fill="#e0e0e0" stroke="#999999" points="590.34,-195 532.34,-195 532.34,-176 590.34,-176 590.34,-195"/>
<text text-anchor="middle" x="561.34" y="-183" font-family="Helvetica,sans-Serif" font-size="10.00">memory</text>
</a>
</g>
</g>
<!-- Node20&#45;&gt;Node22 -->
<g id="edge27_Node000020_Node000022" class="edge">
<title>Node20&#45;&gt;Node22</title>
<g id="a_edge27_Node000020_Node000022"><a xlink:title=" ">
<path fill="none" stroke="#63b8ff" d="M386.57,-285.84C419.59,-267.08 497.98,-222.52 537.58,-200.01"/>
<polygon fill="#63b8ff" stroke="#63b8ff" points="539.34,-203.03 546.31,-195.05 535.89,-196.95 539.34,-203.03"/>
</a>
</g>
</g>
<!-- Node20&#45;&gt;Node23 -->
<g id="edge31_Node000020_Node000023" class="edge">
<title>Node20&#45;&gt;Node23</title>
<g id="a_edge31_Node000020_Node000023"><a xlink:title=" ">
<path fill="none" stroke="#63b8ff" d="M371.34,-285.75C371.34,-278.8 371.34,-268.85 371.34,-260.13"/>
<polygon fill="#63b8ff" stroke="#63b8ff" points="374.85,-260.09 371.34,-250.09 367.85,-260.09 374.85,-260.09"/>
</a>
</g>
</g>
<!-- Node25 -->
<g id="Node000025" class="node">
<title>Node25</title>
<g id="a_Node000025"><a xlink:href="qrule_8hpp.html" target="_top" xlink:title=" ">
<polygon fill="white" stroke="#666666" points="838.34,-250 684.34,-250 684.34,-231 838.34,-231 838.34,-250"/>
<text text-anchor="middle" x="761.34" y="-238" font-family="Helvetica,sans-Serif" font-size="10.00">vulpes/quadrature/qrule.hpp</text>
</a>
</g>
</g>
<!-- Node20&#45;&gt;Node25 -->
<g id="edge41_Node000020_Node000025" class="edge">
<title>Node20&#45;&gt;Node25</title>
<g id="a_edge41_Node000020_Node000025"><a xlink:title=" ">
<path fill="none" stroke="#63b8ff" d="M434.01,-285.98C503.41,-276.55 615.17,-261.36 688.44,-251.41"/>
<polygon fill="#63b8ff" stroke="#63b8ff" points="689.08,-254.85 698.52,-250.04 688.14,-247.92 689.08,-254.85"/>
</a>
</g>
</g>
<!-- Node23&#45;&gt;Node3 -->
<g id="edge32_Node000023_Node000003" class="edge">
<title>Node23&#45;&gt;Node3</title>
<g id="a_edge32_Node000023_Node000003"><a xlink:title=" ">
<path fill="none" stroke="#63b8ff" d="M345.33,-230.94C286.96,-211.72 145.47,-165.13 78.98,-143.24"/>
<polygon fill="#63b8ff" stroke="#63b8ff" points="79.95,-139.87 69.36,-140.07 77.76,-146.52 79.95,-139.87"/>
</a>
</g>
</g>
<!-- Node23&#45;&gt;Node5 -->
<g id="edge39_Node000023_Node000005" class="edge">
<title>Node23&#45;&gt;Node5</title>
<g id="a_edge39_Node000023_Node000005"><a xlink:title=" ">
<path fill="none" stroke="#63b8ff" d="M326.36,-230.98C277.42,-221.72 199.14,-206.9 146.52,-196.94"/>
<polygon fill="#63b8ff" stroke="#63b8ff" points="147.16,-193.5 136.68,-195.08 145.86,-200.38 147.16,-193.5"/>
</a>
</g>
</g>
<!-- Node23&#45;&gt;Node6 -->
<g id="edge36_Node000023_Node000006" class="edge">
<title>Node23&#45;&gt;Node6</title>
<g id="a_edge36_Node000023_Node000006"><a xlink:title=" ">
<path fill="none" stroke="#63b8ff" d="M372.41,-230.66C374.51,-213.17 379.25,-173.8 382.09,-150.27"/>
<polygon fill="#63b8ff" stroke="#63b8ff" points="385.58,-150.51 383.3,-140.16 378.63,-149.67 385.58,-150.51"/>
</a>
</g>
</g>
<!-- Node23&#45;&gt;Node7 -->
<g id="edge40_Node000023_Node000007" class="edge">
<title>Node23&#45;&gt;Node7</title>
<g id="a_edge40_Node000023_Node000007"><a xlink:title=" ">
<path fill="none" stroke="#63b8ff" d="M367.77,-230.82C362.04,-217.72 349.76,-192.65 333.34,-176 320.74,-163.21 303.75,-152.49 289.45,-144.78"/>
<polygon fill="#63b8ff" stroke="#63b8ff" points="291,-141.64 280.51,-140.15 287.78,-147.85 291,-141.64"/>
</a>
</g>
</g>
<!-- Node23&#45;&gt;Node12 -->
<g id="edge37_Node000023_Node000012" class="edge">
<title>Node23&#45;&gt;Node12</title>
<g id="a_edge37_Node000023_Node000012"><a xlink:title=" ">
<path fill="none" stroke="#63b8ff" d="M380.23,-230.75C389.21,-221.87 403.42,-207.64 415.34,-195 460.48,-147.16 472.33,-135.6 514.34,-85 530.2,-65.91 547.37,-43.15 558.68,-27.85"/>
<polygon fill="#63b8ff" stroke="#63b8ff" points="561.8,-29.52 564.9,-19.39 556.15,-25.38 561.8,-29.52"/>
</a>
</g>
</g>
<!-- Node23&#45;&gt;Node13 -->
<g id="edge38_Node000023_Node000013" class="edge">
<title>Node23&#45;&gt;Node13</title>
<g id="a_edge38_Node000023_Node000013"><a xlink:title=" ">
<path fill="none" stroke="#63b8ff" d="M376.19,-230.91C391.05,-204.55 436.22,-124.43 456.41,-88.62"/>
<polygon fill="#63b8ff" stroke="#63b8ff" points="459.54,-90.2 461.4,-79.77 453.44,-86.76 459.54,-90.2"/>
</a>
</g>
</g>
<!-- Node23&#45;&gt;Node21 -->
<g id="edge34_Node000023_Node000021" class="edge">
<title>Node23&#45;&gt;Node21</title>
<g id="a_edge34_Node000023_Node000021"><a xlink:title=" ">
<path fill="none" stroke="#63b8ff" d="M392.72,-230.98C414.75,-222.15 450.06,-207.87 480.34,-195 499.57,-186.83 504.04,-183.99 523.34,-176 550.91,-164.58 582.55,-152.41 605.65,-143.68"/>
<polygon fill="#63b8ff" stroke="#63b8ff" points="607.18,-146.85 615.31,-140.05 604.72,-140.3 607.18,-146.85"/>
</a>
</g>
</g>
<!-- Node23&#45;&gt;Node22 -->
<g id="edge35_Node000023_Node000022" class="edge">
<title>Node23&#45;&gt;Node22</title>
<g id="a_edge35_Node000023_Node000022"><a xlink:title=" ">
<path fill="none" stroke="#63b8ff" d="M401.87,-230.98C434.52,-221.88 486.42,-207.4 522.09,-197.45"/>
<polygon fill="#63b8ff" stroke="#63b8ff" points="523.45,-200.7 532.14,-194.65 521.57,-193.96 523.45,-200.7"/>
</a>
</g>
</g>
<!-- Node24 -->
<g id="Node000024" class="node">
<title>Node24</title>
<g id="a_Node000024"><a xlink:title=" ">
<polygon fill="#e0e0e0" stroke="#999999" points="323.84,-195 254.84,-195 254.84,-176 323.84,-176 323.84,-195"/>
<text text-anchor="middle" x="289.34" y="-183" font-family="Helvetica,sans-Serif" font-size="10.00">petscvec.h</text>
</a>
</g>
</g>
<!-- Node23&#45;&gt;Node24 -->
<g id="edge33_Node000023_Node000024" class="edge">
<title>Node23&#45;&gt;Node24</title>
<g id="a_edge33_Node000023_Node000024"><a xlink:title=" ">
<path fill="none" stroke="#63b8ff" d="M358.17,-230.98C345.57,-222.84 326.34,-210.41 311.41,-200.76"/>
<polygon fill="#63b8ff" stroke="#63b8ff" points="313.06,-197.66 302.76,-195.17 309.26,-203.54 313.06,-197.66"/>
</a>
</g>
</g>
<!-- Node25&#45;&gt;Node12 -->
<g id="edge44_Node000025_Node000012" class="edge">
<title>Node25&#45;&gt;Node12</title>
<g id="a_edge44_Node000025_Node000012"><a xlink:title=" ">
<path fill="none" stroke="#63b8ff" d="M758.11,-230.82C753.18,-218.14 742.99,-194.1 730.34,-176 687.2,-114.23 621.04,-53.41 589.4,-25.84"/>
<polygon fill="#63b8ff" stroke="#63b8ff" points="591.65,-23.16 581.79,-19.27 587.07,-28.46 591.65,-23.16"/>
</a>
</g>
</g>
<!-- Node25&#45;&gt;Node16 -->
<g id="edge42_Node000025_Node000016" class="edge">
<title>Node25&#45;&gt;Node16</title>
<g id="a_edge42_Node000025_Node000016"><a xlink:title=" ">
<path fill="none" stroke="#63b8ff" d="M745.4,-230.88C716.09,-214.72 652.17,-178.07 603.34,-140 560.21,-106.37 555.58,-90.94 514.34,-55 502.53,-44.7 488.75,-33.73 477.81,-25.27"/>
<polygon fill="#63b8ff" stroke="#63b8ff" points="479.81,-22.39 469.75,-19.07 475.54,-27.94 479.81,-22.39"/>
</a>
</g>
</g>
<!-- Node25&#45;&gt;Node21 -->
<g id="edge43_Node000025_Node000021" class="edge">
<title>Node25&#45;&gt;Node21</title>
<g id="a_edge43_Node000025_Node000021"><a xlink:title=" ">
<path fill="none" stroke="#63b8ff" d="M755.54,-230.97C746.48,-218.07 727.98,-193.25 708.34,-176 694.81,-164.11 677.78,-153.21 663.91,-145.18"/>
<polygon fill="#63b8ff" stroke="#63b8ff" points="665.32,-141.95 654.89,-140.09 661.89,-148.05 665.32,-141.95"/>
</a>
</g>
</g>
<!-- Node26 -->
<g id="Node000026" class="node">
<title>Node26</title>
<g id="a_Node000026"><a xlink:href="vmath_8hpp.html" target="_top" xlink:title=" ">
<polygon fill="white" stroke="#666666" points="926.34,-195 798.34,-195 798.34,-176 926.34,-176 926.34,-195"/>
<text text-anchor="middle" x="862.34" y="-183" font-family="Helvetica,sans-Serif" font-size="10.00">vulpes/utils/vmath.hpp</text>
</a>
</g>
</g>
<!-- Node25&#45;&gt;Node26 -->
<g id="edge45_Node000025_Node000026" class="edge">
<title>Node25&#45;&gt;Node26</title>
<g id="a_edge45_Node000025_Node000026"><a xlink:title=" ">
<path fill="none" stroke="#63b8ff" d="M777.57,-230.98C793.53,-222.61 818.12,-209.7 836.72,-199.95"/>
<polygon fill="#63b8ff" stroke="#63b8ff" points="838.59,-202.92 845.82,-195.17 835.34,-196.72 838.59,-202.92"/>
</a>
</g>
</g>
<!-- Node26&#45;&gt;Node13 -->
<g id="edge51_Node000026_Node000013" class="edge">
<title>Node26&#45;&gt;Node13</title>
<g id="a_edge51_Node000026_Node000013"><a xlink:title=" ">
<path fill="none" stroke="#63b8ff" d="M839.11,-175.9C803.81,-163 734.42,-138.33 674.34,-121 620.17,-105.37 557.09,-90.69 514.73,-81.34"/>
<polygon fill="#63b8ff" stroke="#63b8ff" points="515.47,-77.92 504.95,-79.19 513.97,-84.75 515.47,-77.92"/>
</a>
</g>
</g>
<!-- Node26&#45;&gt;Node21 -->
<g id="edge47_Node000026_Node000021" class="edge">
<title>Node26&#45;&gt;Node21</title>
<g id="a_edge47_Node000026_Node000021"><a xlink:title=" ">
<path fill="none" stroke="#63b8ff" d="M826.36,-175.98C784.77,-166.14 716.71,-150.04 674.89,-140.15"/>
<polygon fill="#63b8ff" stroke="#63b8ff" points="675.64,-136.73 665.11,-137.83 674.03,-143.54 675.64,-136.73"/>
</a>
</g>
</g>
<!-- Node27 -->
<g id="Node000027" class="node">
<title>Node27</title>
<g id="a_Node000027"><a xlink:title=" ">
<polygon fill="#e0e0e0" stroke="#999999" points="818.84,-140 759.84,-140 759.84,-121 818.84,-121 818.84,-140"/>
<text text-anchor="middle" x="789.34" y="-128" font-family="Helvetica,sans-Serif" font-size="10.00">gmpxx.h</text>
</a>
</g>
</g>
<!-- Node26&#45;&gt;Node27 -->
<g id="edge46_Node000026_Node000027" class="edge">
<title>Node26&#45;&gt;Node27</title>
<g id="a_edge46_Node000026_Node000027"><a xlink:title=" ">
<path fill="none" stroke="#63b8ff" d="M850.62,-175.98C839.61,-168 822.92,-155.88 809.74,-146.31"/>
<polygon fill="#63b8ff" stroke="#63b8ff" points="811.44,-143.21 801.29,-140.17 807.32,-148.88 811.44,-143.21"/>
</a>
</g>
</g>
<!-- Node28 -->
<g id="Node000028" class="node">
<title>Node28</title>
<g id="a_Node000028"><a xlink:title=" ">
<polygon fill="#e0e0e0" stroke="#999999" points="887.34,-140 837.34,-140 837.34,-121 887.34,-121 887.34,-140"/>
<text text-anchor="middle" x="862.34" y="-128" font-family="Helvetica,sans-Serif" font-size="10.00">cstdint</text>
</a>
</g>
</g>
<!-- Node26&#45;&gt;Node28 -->
<g id="edge48_Node000026_Node000028" class="edge">
<title>Node26&#45;&gt;Node28</title>
<g id="a_edge48_Node000026_Node000028"><a xlink:title=" ">
<path fill="none" stroke="#63b8ff" d="M862.34,-175.75C862.34,-168.8 862.34,-158.85 862.34,-150.13"/>
<polygon fill="#63b8ff" stroke="#63b8ff" points="865.85,-150.09 862.34,-140.09 858.85,-150.09 865.85,-150.09"/>
</a>
</g>
</g>
<!-- Node29 -->
<g id="Node000029" class="node">
<title>Node29</title>
<g id="a_Node000029"><a xlink:title=" ">
<polygon fill="#e0e0e0" stroke="#999999" points="949.34,-140 905.34,-140 905.34,-121 949.34,-121 949.34,-140"/>
<text text-anchor="middle" x="927.34" y="-128" font-family="Helvetica,sans-Serif" font-size="10.00">limits</text>
</a>
</g>
</g>
<!-- Node26&#45;&gt;Node29 -->
<g id="edge49_Node000026_Node000029" class="edge">
<title>Node26&#45;&gt;Node29</title>
<g id="a_edge49_Node000026_Node000029"><a xlink:title=" ">
<path fill="none" stroke="#63b8ff" d="M872.79,-175.98C882.49,-168.07 897.16,-156.11 908.84,-146.58"/>
<polygon fill="#63b8ff" stroke="#63b8ff" points="911.17,-149.2 916.71,-140.17 906.75,-143.78 911.17,-149.2"/>
</a>
</g>
</g>
<!-- Node30 -->
<g id="Node000030" class="node">
<title>Node30</title>
<g id="a_Node000030"><a xlink:title=" ">
<polygon fill="#e0e0e0" stroke="#999999" points="1036.84,-140 967.84,-140 967.84,-121 1036.84,-121 1036.84,-140"/>
<text text-anchor="middle" x="1002.34" y="-128" font-family="Helvetica,sans-Serif" font-size="10.00">type_traits</text>
</a>
</g>
</g>
<!-- Node26&#45;&gt;Node30 -->
<g id="edge50_Node000026_Node000030" class="edge">
<title>Node26&#45;&gt;Node30</title>
<g id="a_edge50_Node000026_Node000030"><a xlink:title=" ">
<path fill="none" stroke="#63b8ff" d="M884.84,-175.98C907.87,-167.27 943.88,-153.63 969.98,-143.75"/>
<polygon fill="#63b8ff" stroke="#63b8ff" points="971.33,-146.98 979.44,-140.17 968.85,-140.44 971.33,-146.98"/>
</a>
</g>
</g>
</g>
</svg>

<g id="navigator" transform="translate(0 0)" fill="#404254">
  <rect fill="#f2f5e9" fill-opacity="0.5" stroke="#606060" stroke-width=".5" x="0" y="0" width="60" height="60"/>
  <use id="zoomplus" xlink:href="#zoomPlus" x="17" y="9" onmousedown="handleZoom(evt,'in')"/>
  <use id="zoomminus" xlink:href="#zoomMin" x="42" y="9" onmousedown="handleZoom(evt,'out')"/>
  <use id="reset" xlink:href="#resetDef" x="30" y="36" onmousedown="handleReset()"/>
   <use id="arrowup" xlink:href="#arrowUp" x="0" y="0" onmousedown="handlePan(0,-1)"/>
  <use id="arrowright" xlink:href="#arrowRight" x="0" y="0" onmousedown="handlePan(1,0)"/>
  <use id="arrowdown" xlink:href="#arrowDown" x="0" y="0" onmousedown="handlePan(0,1)"/>
  <use id="arrowleft" xlink:href="#arrowLeft" x="0" y="0" onmousedown="handlePan(-1,0)"/>
</g>
<svg viewBox="0 0 15 15" width="100%" height="30px" preserveAspectRatio="xMaxYMin meet">
 <g id="arrow_out" transform="scale(0.3 0.3)">
  <a xlink:href="linear__solver_8hpp__incl_org.svg" target="_base">
   <rect id="button" ry="5" rx="5" y="6" x="6" height="38" width="38"
        fill="#f2f5e9" fill-opacity="0.5" stroke="#606060" stroke-width="1.0"/>
   <path id="arrow"
     d="M 11.500037,31.436501 C 11.940474,20.09759 22.043105,11.32322 32.158766,21.979434 L 37.068811,17.246167 C 37.068811,17.246167 37.088388,32 37.088388,32 L 22.160133,31.978069 C 22.160133,31.978069 26.997745,27.140456 26.997745,27.140456 C 18.528582,18.264221 13.291696,25.230495 11.500037,31.436501 z"
     style="fill:#404040;"/>
  </a>
 </g>
</svg>

<style type='text/css'>
<![CDATA[
[data-mouse-over-selected='false'] { opacity: 0.7; }
[data-mouse-over-selected='true']  { opacity: 1.0; }
]]>
</style>
<script type="application/ecmascript"><![CDATA[
document.addEventListener('DOMContentLoaded', (event) => {
  highlightEdges();
  highlightAdjacentNodes();
});
]]></script>
</svg>
