<?xml version="1.0" encoding="UTF-8" standalone="no"?>
<!DOCTYPE svg PUBLIC "-//W3C//DTD SVG 1.1//EN"
 "http://www.w3.org/Graphics/SVG/1.1/DTD/svg11.dtd">
<!-- Generated by graphviz version 12.2.1 (20241206.2353)
 -->
<!-- Title: /Users/ilariomazzieri/Desktop/vulpes/vulpes/la/linear_solver.hpp Pages: 1 -->
<svg width="1406pt" height="393pt"
 viewBox="0.00 0.00 1405.75 392.50" xmlns="http://www.w3.org/2000/svg" xmlns:xlink="http://www.w3.org/1999/xlink">
<g id="graph0" class="graph" transform="scale(1 1) rotate(0) translate(4 388.5)">
<title>/Users/ilariomazzieri/Desktop/vulpes/vulpes/la/linear_solver.hpp</title>
<!-- Node1 -->
<g id="Node000001" class="node">
<title>Node1</title>
<g id="a_Node000001"><a xlink:title=" ">
<polygon fill="#999999" stroke="#666666" points="594.12,-384.5 475.38,-384.5 475.38,-342.75 594.12,-342.75 594.12,-384.5"/>
<text text-anchor="start" x="483.38" y="-371" font-family="Helvetica,sans-Serif" font-size="10.00">/Users/ilariomazzieri</text>
<text text-anchor="start" x="483.38" y="-359.75" font-family="Helvetica,sans-Serif" font-size="10.00">/Desktop/vulpes/vulpes</text>
<text text-anchor="middle" x="534.75" y="-348.5" font-family="Helvetica,sans-Serif" font-size="10.00">/la/linear_solver.hpp</text>
</a>
</g>
</g>
<!-- Node2 -->
<g id="Node000002" class="node">
<title>Node2</title>
<g id="a_Node000002"><a xlink:title=" ">
<polygon fill="#e0e0e0" stroke="#999999" points="327.12,-251.5 262.38,-251.5 262.38,-232.25 327.12,-232.25 327.12,-251.5"/>
<text text-anchor="middle" x="294.75" y="-238" font-family="Helvetica,sans-Serif" font-size="10.00">petscmat.h</text>
</a>
</g>
</g>
<!-- Node1&#45;&gt;Node2 -->
<g id="edge1_Node000001_Node000002" class="edge">
<title>Node1&#45;&gt;Node2</title>
<g id="a_edge1_Node000001_Node000002"><a xlink:title=" ">
<path fill="none" stroke="#63b8ff" d="M475.18,-355.86C434.35,-348.86 380.58,-334.8 340.75,-306.75 324.37,-295.21 311.66,-275.94 303.79,-261.57"/>
<polygon fill="#63b8ff" stroke="#63b8ff" points="307.12,-260.39 299.43,-253.1 300.9,-263.59 307.12,-260.39"/>
</a>
</g>
</g>
<!-- Node3 -->
<g id="Node000003" class="node">
<title>Node3</title>
<g id="a_Node000003"><a xlink:title=" ">
<polygon fill="#e0e0e0" stroke="#999999" points="674.75,-141 610.75,-141 610.75,-121.75 674.75,-121.75 674.75,-141"/>
<text text-anchor="middle" x="642.75" y="-127.5" font-family="Helvetica,sans-Serif" font-size="10.00">petscsys.h</text>
</a>
</g>
</g>
<!-- Node1&#45;&gt;Node3 -->
<g id="edge2_Node000001_Node000003" class="edge">
<title>Node1&#45;&gt;Node3</title>
<g id="a_edge2_Node000001_Node000003"><a xlink:title=" ">
<path fill="none" stroke="#63b8ff" d="M474.98,-355.97C422.73,-347.35 358.56,-328.27 381.75,-287.5 428.62,-205.12 538.41,-161.94 599.61,-143.53"/>
<polygon fill="#63b8ff" stroke="#63b8ff" points="600.37,-146.95 608.99,-140.8 598.41,-140.23 600.37,-146.95"/>
</a>
</g>
</g>
<!-- Node4 -->
<g id="Node000004" class="node">
<title>Node4</title>
<g id="a_Node000004"><a xlink:href="boomer__amg_8hpp.html" target="_top" xlink:title=" ">
<polygon fill="white" stroke="#666666" points="524.25,-306.75 391.25,-306.75 391.25,-287.5 524.25,-287.5 524.25,-306.75"/>
<text text-anchor="middle" x="457.75" y="-293.25" font-family="Helvetica,sans-Serif" font-size="10.00">vulpes/la/boomer_amg.hpp</text>
</a>
</g>
</g>
<!-- Node1&#45;&gt;Node4 -->
<g id="edge3_Node000001_Node000004" class="edge">
<title>Node1&#45;&gt;Node4</title>
<g id="a_edge3_Node000001_Node000004"><a xlink:title=" ">
<path fill="none" stroke="#63b8ff" d="M510.81,-342.57C499.99,-333.51 487.38,-322.94 477.16,-314.39"/>
<polygon fill="#63b8ff" stroke="#63b8ff" points="479.65,-311.91 469.74,-308.17 475.16,-317.27 479.65,-311.91"/>
</a>
</g>
</g>
<!-- Node5 -->
<g id="Node000005" class="node">
<title>Node5</title>
<g id="a_Node000005"><a xlink:href="petsc__utils_8hpp.html" target="_top" xlink:title=" ">
<polygon fill="white" stroke="#666666" points="1114.75,-196.25 990.75,-196.25 990.75,-177 1114.75,-177 1114.75,-196.25"/>
<text text-anchor="middle" x="1052.75" y="-182.75" font-family="Helvetica,sans-Serif" font-size="10.00">vulpes/la/petsc_utils.hpp</text>
</a>
</g>
</g>
<!-- Node1&#45;&gt;Node5 -->
<g id="edge4_Node000001_Node000005" class="edge">
<title>Node1&#45;&gt;Node5</title>
<g id="a_edge4_Node000001_Node000005"><a xlink:title=" ">
<path fill="none" stroke="#63b8ff" d="M594.28,-345.11C630.16,-334.38 676.71,-320.19 717.75,-306.75 788.45,-283.61 805.65,-276.4 875.75,-251.5 924.99,-234.01 981.8,-213.44 1017.49,-200.46"/>
<polygon fill="#63b8ff" stroke="#63b8ff" points="1018.24,-203.92 1026.44,-197.21 1015.85,-197.34 1018.24,-203.92"/>
</a>
</g>
</g>
<!-- Node26 -->
<g id="Node000026" class="node">
<title>Node26</title>
<g id="a_Node000026"><a xlink:href="sparse__matrix_8hpp.html" target="_top" xlink:title=" ">
<polygon fill="white" stroke="#666666" points="680.88,-306.75 542.62,-306.75 542.62,-287.5 680.88,-287.5 680.88,-306.75"/>
<text text-anchor="middle" x="611.75" y="-293.25" font-family="Helvetica,sans-Serif" font-size="10.00">vulpes/la/sparse_matrix.hpp</text>
</a>
</g>
</g>
<!-- Node1&#45;&gt;Node26 -->
<g id="edge33_Node000001_Node000026" class="edge">
<title>Node1&#45;&gt;Node26</title>
<g id="a_edge33_Node000001_Node000026"><a xlink:title=" ">
<path fill="none" stroke="#63b8ff" d="M558.69,-342.57C569.51,-333.51 582.12,-322.94 592.34,-314.39"/>
<polygon fill="#63b8ff" stroke="#63b8ff" points="594.34,-317.27 599.76,-308.17 589.85,-311.91 594.34,-317.27"/>
</a>
</g>
</g>
<!-- Node28 -->
<g id="Node000028" class="node">
<title>Node28</title>
<g id="a_Node000028"><a xlink:href="vector_8hpp.html" target="_top" xlink:title=" ">
<polygon fill="white" stroke="#666666" points="818.25,-251.5 715.25,-251.5 715.25,-232.25 818.25,-232.25 818.25,-251.5"/>
<text text-anchor="middle" x="766.75" y="-238" font-family="Helvetica,sans-Serif" font-size="10.00">vulpes/la/vector.hpp</text>
</a>
</g>
</g>
<!-- Node1&#45;&gt;Node28 -->
<g id="edge67_Node000001_Node000028" class="edge">
<title>Node1&#45;&gt;Node28</title>
<g id="a_edge67_Node000001_Node000028"><a xlink:title=" ">
<path fill="none" stroke="#63b8ff" d="M594.27,-346.49C624.03,-337.12 659.95,-323.78 689.75,-306.75 712.48,-293.76 735.13,-273.93 749.92,-259.81"/>
<polygon fill="#63b8ff" stroke="#63b8ff" points="752.26,-262.42 756.97,-252.93 747.37,-257.41 752.26,-262.42"/>
</a>
</g>
</g>
<!-- Node5&#45;&gt;Node3 -->
<g id="edge5_Node000005_Node000003" class="edge">
<title>Node5&#45;&gt;Node3</title>
<g id="a_edge5_Node000005_Node000003"><a xlink:title=" ">
<path fill="none" stroke="#63b8ff" d="M990.48,-177.54C906.49,-166.63 759.03,-147.48 686.11,-138.01"/>
<polygon fill="#63b8ff" stroke="#63b8ff" points="686.93,-134.58 676.56,-136.77 686.03,-141.53 686.93,-134.58"/>
</a>
</g>
</g>
<!-- Node6 -->
<g id="Node000006" class="node">
<title>Node6</title>
<g id="a_Node000006"><a xlink:title=" ">
<polygon fill="#e0e0e0" stroke="#999999" points="1397.75,-19.25 1357.75,-19.25 1357.75,0 1397.75,0 1397.75,-19.25"/>
<text text-anchor="middle" x="1377.75" y="-5.75" font-family="Helvetica,sans-Serif" font-size="10.00">string</text>
</a>
</g>
</g>
<!-- Node5&#45;&gt;Node6 -->
<g id="edge6_Node000005_Node000006" class="edge">
<title>Node5&#45;&gt;Node6</title>
<g id="a_edge6_Node000005_Node000006"><a xlink:title=" ">
<path fill="none" stroke="#63b8ff" d="M1068.57,-176.52C1106.23,-154.9 1204.3,-99.06 1287.75,-55.25 1307.95,-44.64 1331.02,-33.22 1348.74,-24.59"/>
<polygon fill="#63b8ff" stroke="#63b8ff" points="1350.18,-27.78 1357.65,-20.27 1347.12,-21.48 1350.18,-27.78"/>
</a>
</g>
</g>
<!-- Node7 -->
<g id="Node000007" class="node">
<title>Node7</title>
<g id="a_Node000007"><a xlink:href="mpi__wrappers_8hpp.html" target="_top" xlink:title=" ">
<polygon fill="white" stroke="#666666" points="878.75,-141 730.75,-141 730.75,-121.75 878.75,-121.75 878.75,-141"/>
<text text-anchor="middle" x="804.75" y="-127.5" font-family="Helvetica,sans-Serif" font-size="10.00">vulpes/utils/mpi_wrappers.hpp</text>
</a>
</g>
</g>
<!-- Node5&#45;&gt;Node7 -->
<g id="edge7_Node000005_Node000007" class="edge">
<title>Node5&#45;&gt;Node7</title>
<g id="a_edge7_Node000005_Node000007"><a xlink:title=" ">
<path fill="none" stroke="#63b8ff" d="M1010.4,-176.53C968.31,-167.49 903.64,-153.61 858.07,-143.82"/>
<polygon fill="#63b8ff" stroke="#63b8ff" points="858.92,-140.43 848.41,-141.75 857.45,-147.27 858.92,-140.43"/>
</a>
</g>
</g>
<!-- Node8 -->
<g id="Node000008" class="node">
<title>Node8</title>
<g id="a_Node000008"><a xlink:title=" ">
<polygon fill="#e0e0e0" stroke="#999999" points="762.75,-80.12 722.75,-80.12 722.75,-60.88 762.75,-60.88 762.75,-80.12"/>
<text text-anchor="middle" x="742.75" y="-66.62" font-family="Helvetica,sans-Serif" font-size="10.00">mpi.h</text>
</a>
</g>
</g>
<!-- Node7&#45;&gt;Node8 -->
<g id="edge8_Node000007_Node000008" class="edge">
<title>Node7&#45;&gt;Node8</title>
<g id="a_edge8_Node000007_Node000008"><a xlink:title=" ">
<path fill="none" stroke="#63b8ff" d="M795.33,-121.43C786.14,-112.7 771.91,-99.19 760.58,-88.43"/>
<polygon fill="#63b8ff" stroke="#63b8ff" points="763.01,-85.92 753.35,-81.57 758.19,-90.99 763.01,-85.92"/>
</a>
</g>
</g>
<!-- Node9 -->
<g id="Node000009" class="node">
<title>Node9</title>
<g id="a_Node000009"><a xlink:title=" ">
<polygon fill="#e0e0e0" stroke="#999999" points="828.88,-80.12 780.62,-80.12 780.62,-60.88 828.88,-60.88 828.88,-80.12"/>
<text text-anchor="middle" x="804.75" y="-66.62" font-family="Helvetica,sans-Serif" font-size="10.00">petsc.h</text>
</a>
</g>
</g>
<!-- Node7&#45;&gt;Node9 -->
<g id="edge9_Node000007_Node000009" class="edge">
<title>Node7&#45;&gt;Node9</title>
<g id="a_edge9_Node000007_Node000009"><a xlink:title=" ">
<path fill="none" stroke="#63b8ff" d="M804.75,-121.43C804.75,-113.65 804.75,-102.08 804.75,-92.03"/>
<polygon fill="#63b8ff" stroke="#63b8ff" points="808.25,-92.04 804.75,-82.04 801.25,-92.04 808.25,-92.04"/>
</a>
</g>
</g>
<!-- Node10 -->
<g id="Node000010" class="node">
<title>Node10</title>
<g id="a_Node000010"><a xlink:title=" ">
<polygon fill="#e0e0e0" stroke="#999999" points="726.88,-19.25 678.62,-19.25 678.62,0 726.88,0 726.88,-19.25"/>
<text text-anchor="middle" x="702.75" y="-5.75" font-family="Helvetica,sans-Serif" font-size="10.00">cassert</text>
</a>
</g>
</g>
<!-- Node7&#45;&gt;Node10 -->
<g id="edge10_Node000007_Node000010" class="edge">
<title>Node7&#45;&gt;Node10</title>
<g id="a_edge10_Node000007_Node000010"><a xlink:title=" ">
<path fill="none" stroke="#63b8ff" d="M768.29,-121.4C749.06,-114.75 726.81,-103.66 713.75,-85.75 702.23,-69.95 700.37,-47.24 700.84,-30.93"/>
<polygon fill="#63b8ff" stroke="#63b8ff" points="704.33,-31.19 701.48,-20.98 697.34,-30.74 704.33,-31.19"/>
</a>
</g>
</g>
<!-- Node11 -->
<g id="Node000011" class="node">
<title>Node11</title>
<g id="a_Node000011"><a xlink:title=" ">
<polygon fill="#e0e0e0" stroke="#999999" points="660.5,-19.25 607,-19.25 607,0 660.5,0 660.5,-19.25"/>
<text text-anchor="middle" x="633.75" y="-5.75" font-family="Helvetica,sans-Serif" font-size="10.00">iostream</text>
</a>
</g>
</g>
<!-- Node7&#45;&gt;Node11 -->
<g id="edge11_Node000007_Node000011" class="edge">
<title>Node7&#45;&gt;Node11</title>
<g id="a_edge11_Node000007_Node000011"><a xlink:title=" ">
<path fill="none" stroke="#63b8ff" d="M773.11,-121.31C750.95,-113.98 721.37,-102.17 698.75,-85.75 677.02,-69.97 657.68,-45.6 645.86,-28.92"/>
<polygon fill="#63b8ff" stroke="#63b8ff" points="648.92,-27.19 640.37,-20.93 643.15,-31.15 648.92,-27.19"/>
</a>
</g>
</g>
<!-- Node12 -->
<g id="Node000012" class="node">
<title>Node12</title>
<g id="a_Node000012"><a xlink:title=" ">
<polygon fill="#e0e0e0" stroke="#999999" points="580.25,-19.25 537.25,-19.25 537.25,0 580.25,0 580.25,-19.25"/>
<text text-anchor="middle" x="558.75" y="-5.75" font-family="Helvetica,sans-Serif" font-size="10.00">vector</text>
</a>
</g>
</g>
<!-- Node7&#45;&gt;Node12 -->
<g id="edge12_Node000007_Node000012" class="edge">
<title>Node7&#45;&gt;Node12</title>
<g id="a_edge12_Node000007_Node000012"><a xlink:title=" ">
<path fill="none" stroke="#63b8ff" d="M763.93,-121.26C734.8,-113.88 695.2,-102.03 662.75,-85.75 630.59,-69.61 597.6,-43.92 577.64,-27.16"/>
<polygon fill="#63b8ff" stroke="#63b8ff" points="579.97,-24.56 570.09,-20.72 575.42,-29.88 579.97,-24.56"/>
</a>
</g>
</g>
<!-- Node13 -->
<g id="Node000013" class="node">
<title>Node13</title>
<g id="a_Node000013"><a xlink:title=" ">
<polygon fill="#e0e0e0" stroke="#999999" points="426.88,-19.25 354.62,-19.25 354.62,0 426.88,0 426.88,-19.25"/>
<text text-anchor="middle" x="390.75" y="-5.75" font-family="Helvetica,sans-Serif" font-size="10.00">Eigen/Dense</text>
</a>
</g>
</g>
<!-- Node7&#45;&gt;Node13 -->
<g id="edge13_Node000007_Node000013" class="edge">
<title>Node7&#45;&gt;Node13</title>
<g id="a_edge13_Node000007_Node000013"><a xlink:title=" ">
<path fill="none" stroke="#63b8ff" d="M759.33,-121.31C719.8,-113.09 661.1,-100.1 610.75,-85.75 544.3,-66.82 468.34,-39.61 425.3,-23.66"/>
<polygon fill="#63b8ff" stroke="#63b8ff" points="426.6,-20.41 416,-20.2 424.15,-26.97 426.6,-20.41"/>
</a>
</g>
</g>
<!-- Node14 -->
<g id="Node000014" class="node">
<title>Node14</title>
<g id="a_Node000014"><a xlink:href="crs__map_8hpp.html" target="_top" xlink:title=" ">
<polygon fill="white" stroke="#666666" points="951,-85.75 846.5,-85.75 846.5,-55.25 951,-55.25 951,-85.75"/>
<text text-anchor="start" x="854.5" y="-72.25" font-family="Helvetica,sans-Serif" font-size="10.00">vulpes/datastructure</text>
<text text-anchor="middle" x="898.75" y="-61" font-family="Helvetica,sans-Serif" font-size="10.00">/crs_map.hpp</text>
</a>
</g>
</g>
<!-- Node7&#45;&gt;Node14 -->
<g id="edge14_Node000007_Node000014" class="edge">
<title>Node7&#45;&gt;Node14</title>
<g id="a_edge14_Node000007_Node000014"><a xlink:title=" ">
<path fill="none" stroke="#63b8ff" d="M819.03,-121.43C831.45,-113.65 849.92,-102.09 865.95,-92.04"/>
<polygon fill="#63b8ff" stroke="#63b8ff" points="867.65,-95.11 874.27,-86.84 863.93,-89.18 867.65,-95.11"/>
</a>
</g>
</g>
<!-- Node20 -->
<g id="Node000020" class="node">
<title>Node20</title>
<g id="a_Node000020"><a xlink:href="profiler_8hpp.html" target="_top" xlink:title=" ">
<polygon fill="white" stroke="#666666" points="1198.62,-80.12 1082.88,-80.12 1082.88,-60.88 1198.62,-60.88 1198.62,-80.12"/>
<text text-anchor="middle" x="1140.75" y="-66.62" font-family="Helvetica,sans-Serif" font-size="10.00">vulpes/utils/profiler.hpp</text>
</a>
</g>
</g>
<!-- Node7&#45;&gt;Node20 -->
<g id="edge22_Node000007_Node000020" class="edge">
<title>Node7&#45;&gt;Node20</title>
<g id="a_edge22_Node000007_Node000020"><a xlink:title=" ">
<path fill="none" stroke="#63b8ff" d="M856.51,-121.3C916.08,-110.87 1013.88,-93.73 1077.8,-82.53"/>
<polygon fill="#63b8ff" stroke="#63b8ff" points="1078.19,-86.02 1087.44,-80.84 1076.98,-79.12 1078.19,-86.02"/>
</a>
</g>
</g>
<!-- Node14&#45;&gt;Node10 -->
<g id="edge17_Node000014_Node000010" class="edge">
<title>Node14&#45;&gt;Node10</title>
<g id="a_edge17_Node000014_Node000010"><a xlink:title=" ">
<path fill="none" stroke="#63b8ff" d="M849.8,-54.8C815.06,-44.36 769.24,-30.6 738.04,-21.23"/>
<polygon fill="#63b8ff" stroke="#63b8ff" points="739.29,-17.95 728.71,-18.42 737.28,-24.65 739.29,-17.95"/>
</a>
</g>
</g>
<!-- Node14&#45;&gt;Node12 -->
<g id="edge21_Node000014_Node000012" class="edge">
<title>Node14&#45;&gt;Node12</title>
<g id="a_edge21_Node000014_Node000012"><a xlink:title=" ">
<path fill="none" stroke="#63b8ff" d="M846.23,-56.95C843.37,-56.35 840.53,-55.78 837.75,-55.25 731.81,-34.97 703.8,-38.91 597.75,-19.25 595.74,-18.88 593.68,-18.48 591.6,-18.06"/>
<polygon fill="#63b8ff" stroke="#63b8ff" points="592.55,-14.68 582.04,-16.04 591.1,-21.53 592.55,-14.68"/>
</a>
</g>
</g>
<!-- Node15 -->
<g id="Node000015" class="node">
<title>Node15</title>
<g id="a_Node000015"><a xlink:title=" ">
<polygon fill="#e0e0e0" stroke="#999999" points="933.62,-19.25 877.88,-19.25 877.88,0 933.62,0 933.62,-19.25"/>
<text text-anchor="middle" x="905.75" y="-5.75" font-family="Helvetica,sans-Serif" font-size="10.00">algorithm</text>
</a>
</g>
</g>
<!-- Node14&#45;&gt;Node15 -->
<g id="edge15_Node000014_Node000015" class="edge">
<title>Node14&#45;&gt;Node15</title>
<g id="a_edge15_Node000014_Node000015"><a xlink:title=" ">
<path fill="none" stroke="#63b8ff" d="M900.48,-54.95C901.34,-47.71 902.4,-38.84 903.33,-30.94"/>
<polygon fill="#63b8ff" stroke="#63b8ff" points="906.79,-31.55 904.49,-21.2 899.84,-30.72 906.79,-31.55"/>
</a>
</g>
</g>
<!-- Node16 -->
<g id="Node000016" class="node">
<title>Node16</title>
<g id="a_Node000016"><a xlink:title=" ">
<polygon fill="#e0e0e0" stroke="#999999" points="500.62,-19.25 462.88,-19.25 462.88,0 500.62,0 500.62,-19.25"/>
<text text-anchor="middle" x="481.75" y="-5.75" font-family="Helvetica,sans-Serif" font-size="10.00">array</text>
</a>
</g>
</g>
<!-- Node14&#45;&gt;Node16 -->
<g id="edge16_Node000014_Node000016" class="edge">
<title>Node14&#45;&gt;Node16</title>
<g id="a_edge16_Node000014_Node000016"><a xlink:title=" ">
<path fill="none" stroke="#63b8ff" d="M846.26,-56.84C843.38,-56.27 840.54,-55.74 837.75,-55.25 701.55,-31.49 665.49,-39.74 528.75,-19.25 523.29,-18.43 517.5,-17.46 511.91,-16.46"/>
<polygon fill="#63b8ff" stroke="#63b8ff" points="512.87,-13.08 502.4,-14.71 511.6,-19.96 512.87,-13.08"/>
</a>
</g>
</g>
<!-- Node17 -->
<g id="Node000017" class="node">
<title>Node17</title>
<g id="a_Node000017"><a xlink:title=" ">
<polygon fill="#e0e0e0" stroke="#999999" points="859.38,-19.25 808.12,-19.25 808.12,0 859.38,0 859.38,-19.25"/>
<text text-anchor="middle" x="833.75" y="-5.75" font-family="Helvetica,sans-Serif" font-size="10.00">ostream</text>
</a>
</g>
</g>
<!-- Node14&#45;&gt;Node17 -->
<g id="edge18_Node000014_Node000017" class="edge">
<title>Node14&#45;&gt;Node17</title>
<g id="a_edge18_Node000014_Node000017"><a xlink:title=" ">
<path fill="none" stroke="#63b8ff" d="M882.68,-54.95C873.45,-46.59 861.82,-36.05 852.22,-27.35"/>
<polygon fill="#63b8ff" stroke="#63b8ff" points="854.65,-24.84 844.89,-20.72 849.95,-30.02 854.65,-24.84"/>
</a>
</g>
</g>
<!-- Node18 -->
<g id="Node000018" class="node">
<title>Node18</title>
<g id="a_Node000018"><a xlink:title=" ">
<polygon fill="#e0e0e0" stroke="#999999" points="991.38,-19.25 952.12,-19.25 952.12,0 991.38,0 991.38,-19.25"/>
<text text-anchor="middle" x="971.75" y="-5.75" font-family="Helvetica,sans-Serif" font-size="10.00">utility</text>
</a>
</g>
</g>
<!-- Node14&#45;&gt;Node18 -->
<g id="edge19_Node000014_Node000018" class="edge">
<title>Node14&#45;&gt;Node18</title>
<g id="a_edge19_Node000014_Node000018"><a xlink:title=" ">
<path fill="none" stroke="#63b8ff" d="M916.79,-54.95C927.38,-46.41 940.76,-35.62 951.68,-26.81"/>
<polygon fill="#63b8ff" stroke="#63b8ff" points="953.73,-29.65 959.32,-20.65 949.34,-24.2 953.73,-29.65"/>
</a>
</g>
</g>
<!-- Node19 -->
<g id="Node000019" class="node">
<title>Node19</title>
<g id="a_Node000019"><a xlink:title=" ">
<polygon fill="#e0e0e0" stroke="#999999" points="790.38,-19.25 745.12,-19.25 745.12,0 790.38,0 790.38,-19.25"/>
<text text-anchor="middle" x="767.75" y="-5.75" font-family="Helvetica,sans-Serif" font-size="10.00">variant</text>
</a>
</g>
</g>
<!-- Node14&#45;&gt;Node19 -->
<g id="edge20_Node000014_Node000019" class="edge">
<title>Node14&#45;&gt;Node19</title>
<g id="a_edge20_Node000014_Node000019"><a xlink:title=" ">
<path fill="none" stroke="#63b8ff" d="M866.03,-54.8C845.22,-45.44 818.45,-33.41 798.11,-24.27"/>
<polygon fill="#63b8ff" stroke="#63b8ff" points="799.78,-21.18 789.22,-20.27 796.91,-27.57 799.78,-21.18"/>
</a>
</g>
</g>
<!-- Node20&#45;&gt;Node6 -->
<g id="edge28_Node000020_Node000006" class="edge">
<title>Node20&#45;&gt;Node6</title>
<g id="a_edge28_Node000020_Node000006"><a xlink:title=" ">
<path fill="none" stroke="#63b8ff" d="M1181.17,-60.39C1220.9,-51.29 1283.5,-36.57 1346.56,-19.73"/>
<polygon fill="#63b8ff" stroke="#63b8ff" points="1347.3,-23.16 1356.05,-17.18 1345.48,-16.4 1347.3,-23.16"/>
</a>
</g>
</g>
<!-- Node20&#45;&gt;Node11 -->
<g id="edge27_Node000020_Node000011" class="edge">
<title>Node20&#45;&gt;Node11</title>
<g id="a_edge27_Node000020_Node000011"><a xlink:title=" ">
<path fill="none" stroke="#63b8ff" d="M1082.59,-64.24C979.08,-54.73 765.74,-34.41 671.9,-19.36"/>
<polygon fill="#63b8ff" stroke="#63b8ff" points="672.73,-15.95 662.29,-17.75 671.58,-22.85 672.73,-15.95"/>
</a>
</g>
</g>
<!-- Node20&#45;&gt;Node12 -->
<g id="edge31_Node000020_Node000012" class="edge">
<title>Node20&#45;&gt;Node12</title>
<g id="a_edge31_Node000020_Node000012"><a xlink:title=" ">
<path fill="none" stroke="#63b8ff" d="M1082.66,-65.05C962.46,-55.7 690,-33.66 597.75,-19.25 595.73,-18.93 593.66,-18.58 591.58,-18.19"/>
<polygon fill="#63b8ff" stroke="#63b8ff" points="592.5,-14.81 582.01,-16.25 591.11,-21.67 592.5,-14.81"/>
</a>
</g>
</g>
<!-- Node20&#45;&gt;Node15 -->
<g id="edge23_Node000020_Node000015" class="edge">
<title>Node20&#45;&gt;Node15</title>
<g id="a_edge23_Node000020_Node000015"><a xlink:title=" ">
<path fill="none" stroke="#63b8ff" d="M1104.55,-60.43C1061.32,-49.6 989.29,-31.55 944.83,-20.42"/>
<polygon fill="#63b8ff" stroke="#63b8ff" points="945.9,-17.08 935.35,-18.04 944.2,-23.87 945.9,-17.08"/>
</a>
</g>
</g>
<!-- Node20&#45;&gt;Node18 -->
<g id="edge30_Node000020_Node000018" class="edge">
<title>Node20&#45;&gt;Node18</title>
<g id="a_edge30_Node000020_Node000018"><a xlink:title=" ">
<path fill="none" stroke="#63b8ff" d="M1114.71,-60.43C1084.4,-49.87 1034.4,-32.45 1002.28,-21.26"/>
<polygon fill="#63b8ff" stroke="#63b8ff" points="1003.75,-18.07 993.16,-18.08 1001.45,-24.68 1003.75,-18.07"/>
</a>
</g>
</g>
<!-- Node21 -->
<g id="Node000021" class="node">
<title>Node21</title>
<g id="a_Node000021"><a xlink:title=" ">
<polygon fill="#e0e0e0" stroke="#999999" points="1171.38,-19.25 1126.12,-19.25 1126.12,0 1171.38,0 1171.38,-19.25"/>
<text text-anchor="middle" x="1148.75" y="-5.75" font-family="Helvetica,sans-Serif" font-size="10.00">chrono</text>
</a>
</g>
</g>
<!-- Node20&#45;&gt;Node21 -->
<g id="edge24_Node000020_Node000021" class="edge">
<title>Node20&#45;&gt;Node21</title>
<g id="a_edge24_Node000020_Node000021"><a xlink:title=" ">
<path fill="none" stroke="#63b8ff" d="M1141.97,-60.56C1143.03,-52.69 1144.63,-40.95 1146.01,-30.82"/>
<polygon fill="#63b8ff" stroke="#63b8ff" points="1149.44,-31.53 1147.32,-21.15 1142.51,-30.59 1149.44,-31.53"/>
</a>
</g>
</g>
<!-- Node22 -->
<g id="Node000022" class="node">
<title>Node22</title>
<g id="a_Node000022"><a xlink:title=" ">
<polygon fill="#e0e0e0" stroke="#999999" points="319.88,-19.25 271.62,-19.25 271.62,0 319.88,0 319.88,-19.25"/>
<text text-anchor="middle" x="295.75" y="-5.75" font-family="Helvetica,sans-Serif" font-size="10.00">cstddef</text>
</a>
</g>
</g>
<!-- Node20&#45;&gt;Node22 -->
<g id="edge25_Node000020_Node000022" class="edge">
<title>Node20&#45;&gt;Node22</title>
<g id="a_edge25_Node000020_Node000022"><a xlink:title=" ">
<path fill="none" stroke="#63b8ff" d="M1082.49,-64.62C1047.02,-61.72 1000.79,-58.07 959.75,-55.25 687.03,-36.52 617.31,-50.53 345.75,-19.25 341.07,-18.71 336.17,-18.02 331.34,-17.27"/>
<polygon fill="#63b8ff" stroke="#63b8ff" points="332.27,-13.87 321.83,-15.68 331.12,-20.78 332.27,-13.87"/>
</a>
</g>
</g>
<!-- Node23 -->
<g id="Node000023" class="node">
<title>Node23</title>
<g id="a_Node000023"><a xlink:title=" ">
<polygon fill="#e0e0e0" stroke="#999999" points="1239.62,-19.25 1189.88,-19.25 1189.88,0 1239.62,0 1239.62,-19.25"/>
<text text-anchor="middle" x="1214.75" y="-5.75" font-family="Helvetica,sans-Serif" font-size="10.00">iomanip</text>
</a>
</g>
</g>
<!-- Node20&#45;&gt;Node23 -->
<g id="edge26_Node000020_Node000023" class="edge">
<title>Node20&#45;&gt;Node23</title>
<g id="a_edge26_Node000020_Node000023"><a xlink:title=" ">
<path fill="none" stroke="#63b8ff" d="M1151.99,-60.56C1163.29,-51.57 1180.96,-37.51 1194.67,-26.6"/>
<polygon fill="#63b8ff" stroke="#63b8ff" points="1196.57,-29.56 1202.22,-20.59 1192.22,-24.08 1196.57,-29.56"/>
</a>
</g>
</g>
<!-- Node24 -->
<g id="Node000024" class="node">
<title>Node24</title>
<g id="a_Node000024"><a xlink:title=" ">
<polygon fill="#e0e0e0" stroke="#999999" points="1340.12,-19.25 1257.38,-19.25 1257.38,0 1340.12,0 1340.12,-19.25"/>
<text text-anchor="middle" x="1298.75" y="-5.75" font-family="Helvetica,sans-Serif" font-size="10.00">unordered_map</text>
</a>
</g>
</g>
<!-- Node20&#45;&gt;Node24 -->
<g id="edge29_Node000020_Node000024" class="edge">
<title>Node20&#45;&gt;Node24</title>
<g id="a_edge29_Node000020_Node000024"><a xlink:title=" ">
<path fill="none" stroke="#63b8ff" d="M1165.09,-60.43C1191.53,-50.58 1234,-34.75 1263.96,-23.59"/>
<polygon fill="#63b8ff" stroke="#63b8ff" points="1264.81,-27.01 1272.96,-20.23 1262.37,-20.45 1264.81,-27.01"/>
</a>
</g>
</g>
<!-- Node25 -->
<g id="Node000025" class="node">
<title>Node25</title>
<g id="a_Node000025"><a xlink:title=" ">
<polygon fill="#e0e0e0" stroke="#999999" points="1107.62,-19.25 1009.88,-19.25 1009.88,0 1107.62,0 1107.62,-19.25"/>
<text text-anchor="middle" x="1058.75" y="-5.75" font-family="Helvetica,sans-Serif" font-size="10.00">nlohmann/json.hpp</text>
</a>
</g>
</g>
<!-- Node20&#45;&gt;Node25 -->
<g id="edge32_Node000020_Node000025" class="edge">
<title>Node20&#45;&gt;Node25</title>
<g id="a_edge32_Node000020_Node000025"><a xlink:title=" ">
<path fill="none" stroke="#63b8ff" d="M1128.3,-60.56C1115.65,-51.48 1095.82,-37.24 1080.56,-26.29"/>
<polygon fill="#63b8ff" stroke="#63b8ff" points="1082.72,-23.52 1072.55,-20.53 1078.63,-29.21 1082.72,-23.52"/>
</a>
</g>
</g>
<!-- Node26&#45;&gt;Node2 -->
<g id="edge34_Node000026_Node000002" class="edge">
<title>Node26&#45;&gt;Node2</title>
<g id="a_edge34_Node000026_Node000002"><a xlink:title=" ">
<path fill="none" stroke="#63b8ff" d="M557.62,-287.03C495.74,-276.64 395.67,-259.83 338.51,-250.23"/>
<polygon fill="#63b8ff" stroke="#63b8ff" points="339.27,-246.8 328.82,-248.6 338.11,-253.71 339.27,-246.8"/>
</a>
</g>
</g>
<!-- Node26&#45;&gt;Node3 -->
<g id="edge35_Node000026_Node000003" class="edge">
<title>Node26&#45;&gt;Node3</title>
<g id="a_edge35_Node000026_Node000003"><a xlink:title=" ">
<path fill="none" stroke="#63b8ff" d="M609.16,-287.12C603.77,-266.79 592.97,-216.04 606.75,-177 610.37,-166.75 617.46,-157.12 624.39,-149.45"/>
<polygon fill="#63b8ff" stroke="#63b8ff" points="626.69,-152.1 631.19,-142.5 621.69,-147.2 626.69,-152.1"/>
</a>
</g>
</g>
<!-- Node26&#45;&gt;Node5 -->
<g id="edge42_Node000026_Node000005" class="edge">
<title>Node26&#45;&gt;Node5</title>
<g id="a_edge42_Node000026_Node000005"><a xlink:title=" ">
<path fill="none" stroke="#63b8ff" d="M660.88,-287.03C704.81,-278.65 770.84,-265.44 827.75,-251.5 892.88,-235.55 967.6,-213.6 1012.44,-200.03"/>
<polygon fill="#63b8ff" stroke="#63b8ff" points="1013.45,-203.38 1022,-197.12 1011.41,-196.68 1013.45,-203.38"/>
</a>
</g>
</g>
<!-- Node26&#45;&gt;Node6 -->
<g id="edge39_Node000026_Node000006" class="edge">
<title>Node26&#45;&gt;Node6</title>
<g id="a_edge39_Node000026_Node000006"><a xlink:title=" ">
<path fill="none" stroke="#63b8ff" d="M681.36,-293.27C866.8,-284.74 1358.75,-255.69 1358.75,-187.62 1358.75,-187.62 1358.75,-187.62 1358.75,-130.38 1358.75,-94.87 1367,-54.16 1372.63,-30.52"/>
<polygon fill="#63b8ff" stroke="#63b8ff" points="1375.97,-31.58 1374.98,-21.03 1369.18,-29.89 1375.97,-31.58"/>
</a>
</g>
</g>
<!-- Node26&#45;&gt;Node7 -->
<g id="edge66_Node000026_Node000007" class="edge">
<title>Node26&#45;&gt;Node7</title>
<g id="a_edge66_Node000026_Node000007"><a xlink:title=" ">
<path fill="none" stroke="#63b8ff" d="M611.02,-287.23C609.73,-265.3 609.62,-208.15 639.75,-177 660.61,-155.44 690.72,-143.95 719.52,-137.93"/>
<polygon fill="#63b8ff" stroke="#63b8ff" points="719.8,-141.44 728.99,-136.17 718.52,-134.56 719.8,-141.44"/>
</a>
</g>
</g>
<!-- Node26&#45;&gt;Node11 -->
<g id="edge37_Node000026_Node000011" class="edge">
<title>Node26&#45;&gt;Node11</title>
<g id="a_edge37_Node000026_Node000011"><a xlink:title=" ">
<path fill="none" stroke="#63b8ff" d="M610.86,-287.24C609.98,-278.24 608.64,-263.91 607.75,-251.5 603.61,-193.92 593.68,-178.91 601.75,-121.75 606.39,-88.87 618.39,-52.1 626.3,-30.18"/>
<polygon fill="#63b8ff" stroke="#63b8ff" points="629.49,-31.67 629.68,-21.07 622.92,-29.23 629.49,-31.67"/>
</a>
</g>
</g>
<!-- Node26&#45;&gt;Node12 -->
<g id="edge41_Node000026_Node000012" class="edge">
<title>Node26&#45;&gt;Node12</title>
<g id="a_edge41_Node000026_Node000012"><a xlink:title=" ">
<path fill="none" stroke="#63b8ff" d="M608.19,-287.03C604.82,-278.1 599.82,-264.04 596.75,-251.5 576.97,-170.81 565.19,-72.29 560.76,-30.69"/>
<polygon fill="#63b8ff" stroke="#63b8ff" points="564.27,-30.57 559.76,-20.99 557.31,-31.29 564.27,-30.57"/>
</a>
</g>
</g>
<!-- Node26&#45;&gt;Node18 -->
<g id="edge40_Node000026_Node000018" class="edge">
<title>Node26&#45;&gt;Node18</title>
<g id="a_edge40_Node000026_Node000018"><a xlink:title=" ">
<path fill="none" stroke="#63b8ff" d="M681.06,-293.27C807.88,-286.4 1069.3,-264.17 1123.75,-196.25 1150.26,-163.19 1038.59,-65.41 991.66,-26.68"/>
<polygon fill="#63b8ff" stroke="#63b8ff" points="994.08,-24.14 984.12,-20.52 989.65,-29.56 994.08,-24.14"/>
</a>
</g>
</g>
<!-- Node26&#45;&gt;Node22 -->
<g id="edge36_Node000026_Node000022" class="edge">
<title>Node26&#45;&gt;Node22</title>
<g id="a_edge36_Node000026_Node000022"><a xlink:title=" ">
<path fill="none" stroke="#63b8ff" d="M543.11,-287.01C463.13,-272.2 335.11,-234.46 281.75,-141 262.81,-107.82 267.76,-92.61 275.75,-55.25 277.63,-46.44 281.4,-37.26 285.15,-29.54"/>
<polygon fill="#63b8ff" stroke="#63b8ff" points="288.18,-31.29 289.73,-20.81 281.98,-28.04 288.18,-31.29"/>
</a>
</g>
</g>
<!-- Node27 -->
<g id="Node000027" class="node">
<title>Node27</title>
<g id="a_Node000027"><a xlink:title=" ">
<polygon fill="#e0e0e0" stroke="#999999" points="700.38,-196.25 649.12,-196.25 649.12,-177 700.38,-177 700.38,-196.25"/>
<text text-anchor="middle" x="674.75" y="-182.75" font-family="Helvetica,sans-Serif" font-size="10.00">memory</text>
</a>
</g>
</g>
<!-- Node26&#45;&gt;Node27 -->
<g id="edge38_Node000026_Node000027" class="edge">
<title>Node26&#45;&gt;Node27</title>
<g id="a_edge38_Node000026_Node000027"><a xlink:title=" ">
<path fill="none" stroke="#63b8ff" d="M616.91,-287.25C627.1,-269.68 650.05,-230.16 663.78,-206.52"/>
<polygon fill="#63b8ff" stroke="#63b8ff" points="666.77,-208.34 668.76,-197.94 660.72,-204.83 666.77,-208.34"/>
</a>
</g>
</g>
<!-- Node26&#45;&gt;Node28 -->
<g id="edge43_Node000026_Node000028" class="edge">
<title>Node26&#45;&gt;Node28</title>
<g id="a_edge43_Node000026_Node000028"><a xlink:title=" ">
<path fill="none" stroke="#63b8ff" d="M638.04,-287.09C663.21,-278.45 701.4,-265.32 729.66,-255.62"/>
<polygon fill="#63b8ff" stroke="#63b8ff" points="730.58,-259 738.9,-252.44 728.3,-252.38 730.58,-259"/>
</a>
</g>
</g>
<!-- Node30 -->
<g id="Node000030" class="node">
<title>Node30</title>
<g id="a_Node000030"><a xlink:href="qrule_8hpp.html" target="_top" xlink:title=" ">
<polygon fill="white" stroke="#666666" points="440.75,-141 304.75,-141 304.75,-121.75 440.75,-121.75 440.75,-141"/>
<text text-anchor="middle" x="372.75" y="-127.5" font-family="Helvetica,sans-Serif" font-size="10.00">vulpes/quadrature/qrule.hpp</text>
</a>
</g>
</g>
<!-- Node26&#45;&gt;Node30 -->
<g id="edge55_Node000026_Node000030" class="edge">
<title>Node26&#45;&gt;Node30</title>
<g id="a_edge55_Node000026_Node000030"><a xlink:title=" ">
<path fill="none" stroke="#63b8ff" d="M542.3,-287.04C513.22,-280.66 480.3,-269.84 454.75,-251.5 418.5,-225.49 393.06,-178.19 380.9,-151.69"/>
<polygon fill="#63b8ff" stroke="#63b8ff" points="384.22,-150.55 376.98,-142.81 377.81,-153.37 384.22,-150.55"/>
</a>
</g>
</g>
<!-- Node28&#45;&gt;Node3 -->
<g id="edge44_Node000028_Node000003" class="edge">
<title>Node28&#45;&gt;Node3</title>
<g id="a_edge44_Node000028_Node000003"><a xlink:title=" ">
<path fill="none" stroke="#63b8ff" d="M760,-231.97C749.93,-218.99 729.95,-194.54 709.75,-177 697.01,-165.94 681.38,-155.39 668.43,-147.32"/>
<polygon fill="#63b8ff" stroke="#63b8ff" points="670.38,-144.41 660.01,-142.21 666.74,-150.39 670.38,-144.41"/>
</a>
</g>
</g>
<!-- Node28&#45;&gt;Node5 -->
<g id="edge53_Node000028_Node000005" class="edge">
<title>Node28&#45;&gt;Node5</title>
<g id="a_edge53_Node000028_Node000005"><a xlink:title=" ">
<path fill="none" stroke="#63b8ff" d="M815.59,-231.78C864.64,-222.65 940.3,-208.56 992.92,-198.76"/>
<polygon fill="#63b8ff" stroke="#63b8ff" points="993.43,-202.23 1002.62,-196.96 992.15,-195.35 993.43,-202.23"/>
</a>
</g>
</g>
<!-- Node28&#45;&gt;Node6 -->
<g id="edge49_Node000028_Node000006" class="edge">
<title>Node28&#45;&gt;Node6</title>
<g id="a_edge49_Node000028_Node000006"><a xlink:title=" ">
<path fill="none" stroke="#63b8ff" d="M818.74,-237.59C904,-231.67 1069.47,-217.79 1123.75,-196.25 1225.27,-155.97 1323.17,-65.36 1361.16,-27.62"/>
<polygon fill="#63b8ff" stroke="#63b8ff" points="1363.48,-30.25 1368.05,-20.69 1358.52,-25.32 1363.48,-30.25"/>
</a>
</g>
</g>
<!-- Node28&#45;&gt;Node7 -->
<g id="edge54_Node000028_Node000007" class="edge">
<title>Node28&#45;&gt;Node7</title>
<g id="a_edge54_Node000028_Node000007"><a xlink:title=" ">
<path fill="none" stroke="#63b8ff" d="M769.86,-232C775.93,-214.67 789.48,-175.98 797.79,-152.24"/>
<polygon fill="#63b8ff" stroke="#63b8ff" points="801.09,-153.4 801.1,-142.81 794.49,-151.09 801.09,-153.4"/>
</a>
</g>
</g>
<!-- Node28&#45;&gt;Node12 -->
<g id="edge51_Node000028_Node000012" class="edge">
<title>Node28&#45;&gt;Node12</title>
<g id="a_edge51_Node000028_Node000012"><a xlink:title=" ">
<path fill="none" stroke="#63b8ff" d="M762.76,-231.81C756.96,-219.07 745.51,-195.36 732.75,-177 714.02,-150.05 709.84,-141.66 683.75,-121.75 654.99,-99.81 638.14,-109.38 610.75,-85.75 592.4,-69.92 577.44,-46.24 568.35,-29.71"/>
<polygon fill="#63b8ff" stroke="#63b8ff" points="571.49,-28.15 563.73,-20.93 565.29,-31.41 571.49,-28.15"/>
</a>
</g>
</g>
<!-- Node28&#45;&gt;Node13 -->
<g id="edge52_Node000028_Node000013" class="edge">
<title>Node28&#45;&gt;Node13</title>
<g id="a_edge52_Node000028_Node000013"><a xlink:title=" ">
<path fill="none" stroke="#63b8ff" d="M732.15,-231.81C705.93,-224.21 669.45,-212.07 639.75,-196.25 545.46,-146.05 447.98,-62.37 408.72,-27.1"/>
<polygon fill="#63b8ff" stroke="#63b8ff" points="411.32,-24.73 401.55,-20.61 406.62,-29.92 411.32,-24.73"/>
</a>
</g>
</g>
<!-- Node28&#45;&gt;Node15 -->
<g id="edge46_Node000028_Node000015" class="edge">
<title>Node28&#45;&gt;Node15</title>
<g id="a_edge46_Node000028_Node000015"><a xlink:title=" ">
<path fill="none" stroke="#63b8ff" d="M789.51,-231.79C833.62,-212.67 929.11,-163.55 959.75,-85.75 964.72,-73.14 965.52,-67.51 959.75,-55.25 954.04,-43.12 943.23,-33.16 932.78,-25.75"/>
<polygon fill="#63b8ff" stroke="#63b8ff" points="934.99,-23.02 924.7,-20.5 931.18,-28.89 934.99,-23.02"/>
</a>
</g>
</g>
<!-- Node28&#45;&gt;Node18 -->
<g id="edge50_Node000028_Node000018" class="edge">
<title>Node28&#45;&gt;Node18</title>
<g id="a_edge50_Node000028_Node000018"><a xlink:title=" ">
<path fill="none" stroke="#63b8ff" d="M779.12,-231.75C819.9,-201.57 948.15,-105.73 959.75,-85.75 969.48,-68.99 972,-46.75 972.38,-30.83"/>
<polygon fill="#63b8ff" stroke="#63b8ff" points="975.88,-31.13 972.32,-21.15 968.88,-31.17 975.88,-31.13"/>
</a>
</g>
</g>
<!-- Node28&#45;&gt;Node22 -->
<g id="edge47_Node000028_Node000022" class="edge">
<title>Node28&#45;&gt;Node22</title>
<g id="a_edge47_Node000028_Node000022"><a xlink:title=" ">
<path fill="none" stroke="#63b8ff" d="M714.88,-237.84C603.67,-230.13 348.11,-205.62 295.75,-141 270.18,-109.44 280.46,-58.07 288.89,-30.16"/>
<polygon fill="#63b8ff" stroke="#63b8ff" points="292.14,-31.49 291.92,-20.9 285.49,-29.31 292.14,-31.49"/>
</a>
</g>
</g>
<!-- Node28&#45;&gt;Node27 -->
<g id="edge48_Node000028_Node000027" class="edge">
<title>Node28&#45;&gt;Node27</title>
<g id="a_edge48_Node000028_Node000027"><a xlink:title=" ">
<path fill="none" stroke="#63b8ff" d="M751.14,-231.84C737.13,-223.73 716.32,-211.68 699.95,-202.21"/>
<polygon fill="#63b8ff" stroke="#63b8ff" points="702.15,-199.44 691.74,-197.46 698.64,-205.5 702.15,-199.44"/>
</a>
</g>
</g>
<!-- Node29 -->
<g id="Node000029" class="node">
<title>Node29</title>
<g id="a_Node000029"><a xlink:title=" ">
<polygon fill="#e0e0e0" stroke="#999999" points="972.75,-196.25 908.75,-196.25 908.75,-177 972.75,-177 972.75,-196.25"/>
<text text-anchor="middle" x="940.75" y="-182.75" font-family="Helvetica,sans-Serif" font-size="10.00">petscvec.h</text>
</a>
</g>
</g>
<!-- Node28&#45;&gt;Node29 -->
<g id="edge45_Node000028_Node000029" class="edge">
<title>Node28&#45;&gt;Node29</title>
<g id="a_edge45_Node000028_Node000029"><a xlink:title=" ">
<path fill="none" stroke="#63b8ff" d="M796.27,-231.84C824.89,-223.08 868.53,-209.73 900.37,-199.98"/>
<polygon fill="#63b8ff" stroke="#63b8ff" points="901.1,-203.42 909.64,-197.15 899.05,-196.73 901.1,-203.42"/>
</a>
</g>
</g>
<!-- Node30&#45;&gt;Node12 -->
<g id="edge58_Node000030_Node000012" class="edge">
<title>Node30&#45;&gt;Node12</title>
<g id="a_edge58_Node000030_Node000012"><a xlink:title=" ">
<path fill="none" stroke="#63b8ff" d="M386.73,-121.37C418.37,-101 495.77,-51.17 535.05,-25.88"/>
<polygon fill="#63b8ff" stroke="#63b8ff" points="536.82,-28.91 543.33,-20.55 533.03,-23.02 536.82,-28.91"/>
</a>
</g>
</g>
<!-- Node30&#45;&gt;Node16 -->
<g id="edge56_Node000030_Node000016" class="edge">
<title>Node30&#45;&gt;Node16</title>
<g id="a_edge56_Node000030_Node000016"><a xlink:title=" ">
<path fill="none" stroke="#63b8ff" d="M376.03,-121.65C381.96,-106.72 395.67,-75.87 414.75,-55.25 425.83,-43.27 440.75,-32.93 453.69,-25.23"/>
<polygon fill="#63b8ff" stroke="#63b8ff" points="455.25,-28.37 462.22,-20.39 451.8,-22.28 455.25,-28.37"/>
</a>
</g>
</g>
<!-- Node30&#45;&gt;Node22 -->
<g id="edge57_Node000030_Node000022" class="edge">
<title>Node30&#45;&gt;Node22</title>
<g id="a_edge57_Node000030_Node000022"><a xlink:title=" ">
<path fill="none" stroke="#63b8ff" d="M365.36,-121.4C358.21,-112.57 347.25,-98.58 338.75,-85.75 326.45,-67.21 314,-44.98 305.68,-29.54"/>
<polygon fill="#63b8ff" stroke="#63b8ff" points="308.91,-28.16 301.13,-20.98 302.73,-31.45 308.91,-28.16"/>
</a>
</g>
</g>
<!-- Node31 -->
<g id="Node000031" class="node">
<title>Node31</title>
<g id="a_Node000031"><a xlink:href="vmath_8hpp.html" target="_top" xlink:title=" ">
<polygon fill="white" stroke="#666666" points="210.88,-80.12 96.62,-80.12 96.62,-60.88 210.88,-60.88 210.88,-80.12"/>
<text text-anchor="middle" x="153.75" y="-66.62" font-family="Helvetica,sans-Serif" font-size="10.00">vulpes/utils/vmath.hpp</text>
</a>
</g>
</g>
<!-- Node30&#45;&gt;Node31 -->
<g id="edge59_Node000030_Node000031" class="edge">
<title>Node30&#45;&gt;Node31</title>
<g id="a_edge59_Node000030_Node000031"><a xlink:title=" ">
<path fill="none" stroke="#63b8ff" d="M339.01,-121.3C301.31,-111.17 240.12,-94.72 198.46,-83.52"/>
<polygon fill="#63b8ff" stroke="#63b8ff" points="199.55,-80.19 188.99,-80.97 197.74,-86.95 199.55,-80.19"/>
</a>
</g>
</g>
<!-- Node31&#45;&gt;Node13 -->
<g id="edge65_Node000031_Node000013" class="edge">
<title>Node31&#45;&gt;Node13</title>
<g id="a_edge65_Node000031_Node000013"><a xlink:title=" ">
<path fill="none" stroke="#63b8ff" d="M190.26,-60.43C231.32,-50.23 298.13,-33.63 343.23,-22.43"/>
<polygon fill="#63b8ff" stroke="#63b8ff" points="343.87,-25.88 352.73,-20.07 342.18,-19.08 343.87,-25.88"/>
</a>
</g>
</g>
<!-- Node31&#45;&gt;Node22 -->
<g id="edge61_Node000031_Node000022" class="edge">
<title>Node31&#45;&gt;Node22</title>
<g id="a_edge61_Node000031_Node000022"><a xlink:title=" ">
<path fill="none" stroke="#63b8ff" d="M175.63,-60.43C199.15,-50.68 236.78,-35.08 263.65,-23.93"/>
<polygon fill="#63b8ff" stroke="#63b8ff" points="264.79,-27.25 272.68,-20.19 262.11,-20.79 264.79,-27.25"/>
</a>
</g>
</g>
<!-- Node32 -->
<g id="Node000032" class="node">
<title>Node32</title>
<g id="a_Node000032"><a xlink:title=" ">
<polygon fill="#e0e0e0" stroke="#999999" points="53.5,-19.25 0,-19.25 0,0 53.5,0 53.5,-19.25"/>
<text text-anchor="middle" x="26.75" y="-5.75" font-family="Helvetica,sans-Serif" font-size="10.00">gmpxx.h</text>
</a>
</g>
</g>
<!-- Node31&#45;&gt;Node32 -->
<g id="edge60_Node000031_Node000032" class="edge">
<title>Node31&#45;&gt;Node32</title>
<g id="a_edge60_Node000031_Node000032"><a xlink:title=" ">
<path fill="none" stroke="#63b8ff" d="M134.18,-60.43C113.43,-50.81 80.39,-35.49 56.42,-24.38"/>
<polygon fill="#63b8ff" stroke="#63b8ff" points="58.05,-21.28 47.5,-20.25 55.1,-27.63 58.05,-21.28"/>
</a>
</g>
</g>
<!-- Node33 -->
<g id="Node000033" class="node">
<title>Node33</title>
<g id="a_Node000033"><a xlink:title=" ">
<polygon fill="#e0e0e0" stroke="#999999" points="116.38,-19.25 71.12,-19.25 71.12,0 116.38,0 116.38,-19.25"/>
<text text-anchor="middle" x="93.75" y="-5.75" font-family="Helvetica,sans-Serif" font-size="10.00">cstdint</text>
</a>
</g>
</g>
<!-- Node31&#45;&gt;Node33 -->
<g id="edge62_Node000031_Node000033" class="edge">
<title>Node31&#45;&gt;Node33</title>
<g id="a_edge62_Node000031_Node000033"><a xlink:title=" ">
<path fill="none" stroke="#63b8ff" d="M144.64,-60.56C135.74,-51.83 121.97,-38.32 111,-27.55"/>
<polygon fill="#63b8ff" stroke="#63b8ff" points="113.62,-25.22 104.03,-20.71 108.72,-30.21 113.62,-25.22"/>
</a>
</g>
</g>
<!-- Node34 -->
<g id="Node000034" class="node">
<title>Node34</title>
<g id="a_Node000034"><a xlink:title=" ">
<polygon fill="#e0e0e0" stroke="#999999" points="173.38,-19.25 134.12,-19.25 134.12,0 173.38,0 173.38,-19.25"/>
<text text-anchor="middle" x="153.75" y="-5.75" font-family="Helvetica,sans-Serif" font-size="10.00">limits</text>
</a>
</g>
</g>
<!-- Node31&#45;&gt;Node34 -->
<g id="edge63_Node000031_Node000034" class="edge">
<title>Node31&#45;&gt;Node34</title>
<g id="a_edge63_Node000031_Node000034"><a xlink:title=" ">
<path fill="none" stroke="#63b8ff" d="M153.75,-60.56C153.75,-52.78 153.75,-41.2 153.75,-31.16"/>
<polygon fill="#63b8ff" stroke="#63b8ff" points="157.25,-31.16 153.75,-21.16 150.25,-31.16 157.25,-31.16"/>
</a>
</g>
</g>
<!-- Node35 -->
<g id="Node000035" class="node">
<title>Node35</title>
<g id="a_Node000035"><a xlink:title=" ">
<polygon fill="#e0e0e0" stroke="#999999" points="253.62,-19.25 191.88,-19.25 191.88,0 253.62,0 253.62,-19.25"/>
<text text-anchor="middle" x="222.75" y="-5.75" font-family="Helvetica,sans-Serif" font-size="10.00">type_traits</text>
</a>
</g>
</g>
<!-- Node31&#45;&gt;Node35 -->
<g id="edge64_Node000031_Node000035" class="edge">
<title>Node31&#45;&gt;Node35</title>
<g id="a_edge64_Node000031_Node000035"><a xlink:title=" ">
<path fill="none" stroke="#63b8ff" d="M164.23,-60.56C174.67,-51.65 190.92,-37.78 203.66,-26.92"/>
<polygon fill="#63b8ff" stroke="#63b8ff" points="205.69,-29.79 211.02,-20.63 201.14,-24.46 205.69,-29.79"/>
</a>
</g>
</g>
</g>
</svg>
