<?xml version="1.0" encoding="UTF-8" standalone="no"?>
<!DOCTYPE svg PUBLIC "-//W3C//DTD SVG 1.1//EN"
 "http://www.w3.org/Graphics/SVG/1.1/DTD/svg11.dtd">
<!-- Generated by graphviz version 2.42.4 (0)
 -->
<!-- Title: /__w/vulpes/vulpes/vulpes/la/linear_solver.hpp Pages: 1 -->
<svg width="753pt" height="192pt"
 viewBox="0.00 0.00 753.00 192.00" xmlns="http://www.w3.org/2000/svg" xmlns:xlink="http://www.w3.org/1999/xlink">
<g id="graph0" class="graph" transform="scale(1 1) rotate(0) translate(4 188)">
<title>/__w/vulpes/vulpes/vulpes/la/linear_solver.hpp</title>
<!-- Node1 -->
<g id="Node000001" class="node">
<title>Node1</title>
<g id="a_Node000001"><a xlink:title=" ">
<polygon fill="#999999" stroke="#666666" points="456.5,-184 306.5,-184 306.5,-154 456.5,-154 456.5,-184"/>
<text text-anchor="start" x="314.5" y="-172" font-family="Helvetica,sans-Serif" font-size="10.00">/__w/vulpes/vulpes</text>
<text text-anchor="middle" x="381.5" y="-161" font-family="Helvetica,sans-Serif" font-size="10.00">/vulpes/la/linear_solver.hpp</text>
</a>
</g>
</g>
<!-- Node2 -->
<g id="Node000002" class="node">
<title>Node2</title>
<g id="a_Node000002"><a xlink:href="linear__solver_8cpp.html" target="_top" xlink:title=" ">
<polygon fill="white" stroke="#666666" points="149,-112.5 0,-112.5 0,-82.5 149,-82.5 149,-112.5"/>
<text text-anchor="start" x="8" y="-100.5" font-family="Helvetica,sans-Serif" font-size="10.00">/__w/vulpes/vulpes</text>
<text text-anchor="middle" x="74.5" y="-89.5" font-family="Helvetica,sans-Serif" font-size="10.00">/vulpes/la/linear_solver.cpp</text>
</a>
</g>
</g>
<!-- Node1&#45;&gt;Node2 -->
<g id="edge1_Node000001_Node000002" class="edge">
<title>Node1&#45;&gt;Node2</title>
<g id="a_edge1_Node000001_Node000002"><a xlink:title=" ">
<path fill="none" stroke="#63b8ff" d="M307.76,-151.76C264.05,-142.07 207.59,-129.47 157.5,-118 149.85,-116.25 141.81,-114.39 133.88,-112.53"/>
<polygon fill="#63b8ff" stroke="#63b8ff" points="307.21,-155.22 317.73,-153.96 308.73,-148.39 307.21,-155.22"/>
</a>
</g>
</g>
<!-- Node3 -->
<g id="Node000003" class="node">
<title>Node3</title>
<g id="a_Node000003"><a xlink:href="cranknicolson_8hpp.html" target="_top" xlink:title=" ">
<polygon fill="white" stroke="#666666" points="298,-118 167,-118 167,-77 298,-77 298,-118"/>
<text text-anchor="start" x="175" y="-106" font-family="Helvetica,sans-Serif" font-size="10.00">/__w/vulpes/vulpes</text>
<text text-anchor="start" x="175" y="-95" font-family="Helvetica,sans-Serif" font-size="10.00">/vulpes/timeintegration</text>
<text text-anchor="middle" x="232.5" y="-84" font-family="Helvetica,sans-Serif" font-size="10.00">/cranknicolson.hpp</text>
</a>
</g>
</g>
<!-- Node1&#45;&gt;Node3 -->
<g id="edge2_Node000001_Node000003" class="edge">
<title>Node1&#45;&gt;Node3</title>
<g id="a_edge2_Node000001_Node000003"><a xlink:title=" ">
<path fill="none" stroke="#63b8ff" d="M342.14,-149.64C321.29,-139.92 295.69,-127.97 274.46,-118.07"/>
<polygon fill="#63b8ff" stroke="#63b8ff" points="340.81,-152.88 351.35,-153.94 343.76,-146.54 340.81,-152.88"/>
</a>
</g>
</g>
<!-- Node5 -->
<g id="Node000005" class="node">
<title>Node5</title>
<g id="a_Node000005"><a xlink:href="imex_8hpp.html" target="_top" xlink:title=" ">
<polygon fill="white" stroke="#666666" points="447,-118 316,-118 316,-77 447,-77 447,-118"/>
<text text-anchor="start" x="324" y="-106" font-family="Helvetica,sans-Serif" font-size="10.00">/__w/vulpes/vulpes</text>
<text text-anchor="start" x="324" y="-95" font-family="Helvetica,sans-Serif" font-size="10.00">/vulpes/timeintegration</text>
<text text-anchor="middle" x="381.5" y="-84" font-family="Helvetica,sans-Serif" font-size="10.00">/dae/imex.hpp</text>
</a>
</g>
</g>
<!-- Node1&#45;&gt;Node5 -->
<g id="edge4_Node000001_Node000005" class="edge">
<title>Node1&#45;&gt;Node5</title>
<g id="a_edge4_Node000001_Node000005"><a xlink:title=" ">
<path fill="none" stroke="#63b8ff" d="M381.5,-143.91C381.5,-135.47 381.5,-126.1 381.5,-118.07"/>
<polygon fill="#63b8ff" stroke="#63b8ff" points="378,-143.94 381.5,-153.94 385,-143.94 378,-143.94"/>
</a>
</g>
</g>
<!-- Node6 -->
<g id="Node000006" class="node">
<title>Node6</title>
<g id="a_Node000006"><a xlink:href="solverfkpp_8hpp.html" target="_top" xlink:title=" ">
<polygon fill="white" stroke="#666666" points="596,-118 465,-118 465,-77 596,-77 596,-118"/>
<text text-anchor="start" x="473" y="-106" font-family="Helvetica,sans-Serif" font-size="10.00">/__w/vulpes/vulpes</text>
<text text-anchor="start" x="473" y="-95" font-family="Helvetica,sans-Serif" font-size="10.00">/vulpes/timeintegration</text>
<text text-anchor="middle" x="530.5" y="-84" font-family="Helvetica,sans-Serif" font-size="10.00">/solverfkpp.hpp</text>
</a>
</g>
</g>
<!-- Node1&#45;&gt;Node6 -->
<g id="edge5_Node000001_Node000006" class="edge">
<title>Node1&#45;&gt;Node6</title>
<g id="a_edge5_Node000001_Node000006"><a xlink:title=" ">
<path fill="none" stroke="#63b8ff" d="M420.86,-149.64C441.71,-139.92 467.31,-127.97 488.54,-118.07"/>
<polygon fill="#63b8ff" stroke="#63b8ff" points="419.24,-146.54 411.65,-153.94 422.19,-152.88 419.24,-146.54"/>
</a>
</g>
</g>
<!-- Node8 -->
<g id="Node000008" class="node">
<title>Node8</title>
<g id="a_Node000008"><a xlink:href="solvermfk_8hpp.html" target="_top" xlink:title=" ">
<polygon fill="white" stroke="#666666" points="745,-118 614,-118 614,-77 745,-77 745,-118"/>
<text text-anchor="start" x="622" y="-106" font-family="Helvetica,sans-Serif" font-size="10.00">/__w/vulpes/vulpes</text>
<text text-anchor="start" x="622" y="-95" font-family="Helvetica,sans-Serif" font-size="10.00">/vulpes/timeintegration</text>
<text text-anchor="middle" x="679.5" y="-84" font-family="Helvetica,sans-Serif" font-size="10.00">/solvermfk.hpp</text>
</a>
</g>
</g>
<!-- Node1&#45;&gt;Node8 -->
<g id="edge7_Node000001_Node000008" class="edge">
<title>Node1&#45;&gt;Node8</title>
<g id="a_edge7_Node000001_Node000008"><a xlink:title=" ">
<path fill="none" stroke="#63b8ff" d="M457.25,-151.84C500.73,-142.38 556.29,-129.97 605.5,-118 608.21,-117.34 610.98,-116.66 613.77,-115.96"/>
<polygon fill="#63b8ff" stroke="#63b8ff" points="456.35,-148.46 447.32,-154 457.84,-155.3 456.35,-148.46"/>
</a>
</g>
</g>
<!-- Node4 -->
<g id="Node000004" class="node">
<title>Node4</title>
<g id="a_Node000004"><a xlink:href="cranknicolson_8cpp.html" target="_top" xlink:title=" ">
<polygon fill="white" stroke="#666666" points="298,-41 167,-41 167,0 298,0 298,-41"/>
<text text-anchor="start" x="175" y="-29" font-family="Helvetica,sans-Serif" font-size="10.00">/__w/vulpes/vulpes</text>
<text text-anchor="start" x="175" y="-18" font-family="Helvetica,sans-Serif" font-size="10.00">/vulpes/timeintegration</text>
<text text-anchor="middle" x="232.5" y="-7" font-family="Helvetica,sans-Serif" font-size="10.00">/cranknicolson.cpp</text>
</a>
</g>
</g>
<!-- Node3&#45;&gt;Node4 -->
<g id="edge3_Node000003_Node000004" class="edge">
<title>Node3&#45;&gt;Node4</title>
<g id="a_edge3_Node000003_Node000004"><a xlink:title=" ">
<path fill="none" stroke="#63b8ff" d="M232.5,-66.69C232.5,-58.08 232.5,-48.9 232.5,-41.07"/>
<polygon fill="#63b8ff" stroke="#63b8ff" points="229,-66.79 232.5,-76.79 236,-66.79 229,-66.79"/>
</a>
</g>
</g>
<!-- Node7 -->
<g id="Node000007" class="node">
<title>Node7</title>
<g id="a_Node000007"><a xlink:href="solverfkpp_8cpp.html" target="_top" xlink:title=" ">
<polygon fill="white" stroke="#666666" points="596,-41 465,-41 465,0 596,0 596,-41"/>
<text text-anchor="start" x="473" y="-29" font-family="Helvetica,sans-Serif" font-size="10.00">/__w/vulpes/vulpes</text>
<text text-anchor="start" x="473" y="-18" font-family="Helvetica,sans-Serif" font-size="10.00">/vulpes/timeintegration</text>
<text text-anchor="middle" x="530.5" y="-7" font-family="Helvetica,sans-Serif" font-size="10.00">/solverfkpp.cpp</text>
</a>
</g>
</g>
<!-- Node6&#45;&gt;Node7 -->
<g id="edge6_Node000006_Node000007" class="edge">
<title>Node6&#45;&gt;Node7</title>
<g id="a_edge6_Node000006_Node000007"><a xlink:title=" ">
<path fill="none" stroke="#63b8ff" d="M530.5,-66.69C530.5,-58.08 530.5,-48.9 530.5,-41.07"/>
<polygon fill="#63b8ff" stroke="#63b8ff" points="527,-66.79 530.5,-76.79 534,-66.79 527,-66.79"/>
</a>
</g>
</g>
<!-- Node9 -->
<g id="Node000009" class="node">
<title>Node9</title>
<g id="a_Node000009"><a xlink:href="solvermfk_8cpp.html" target="_top" xlink:title=" ">
<polygon fill="white" stroke="#666666" points="745,-41 614,-41 614,0 745,0 745,-41"/>
<text text-anchor="start" x="622" y="-29" font-family="Helvetica,sans-Serif" font-size="10.00">/__w/vulpes/vulpes</text>
<text text-anchor="start" x="622" y="-18" font-family="Helvetica,sans-Serif" font-size="10.00">/vulpes/timeintegration</text>
<text text-anchor="middle" x="679.5" y="-7" font-family="Helvetica,sans-Serif" font-size="10.00">/solvermfk.cpp</text>
</a>
</g>
</g>
<!-- Node8&#45;&gt;Node9 -->
<g id="edge8_Node000008_Node000009" class="edge">
<title>Node8&#45;&gt;Node9</title>
<g id="a_edge8_Node000008_Node000009"><a xlink:title=" ">
<path fill="none" stroke="#63b8ff" d="M679.5,-66.69C679.5,-58.08 679.5,-48.9 679.5,-41.07"/>
<polygon fill="#63b8ff" stroke="#63b8ff" points="676,-66.79 679.5,-76.79 683,-66.79 676,-66.79"/>
</a>
</g>
</g>
</g>
</svg>
