<?xml version="1.0" encoding="UTF-8" standalone="no"?>
<!DOCTYPE svg PUBLIC "-//W3C//DTD SVG 1.1//EN"
 "http://www.w3.org/Graphics/SVG/1.1/DTD/svg11.dtd">
<!-- Generated by graphviz version 2.42.4 (0)
 -->
<!-- Title: /__w/vulpes/vulpes/vulpes/la/linear_solver.cpp Pages: 1 -->
<svg width="1498pt" height="434pt"
 viewBox="0.00 0.00 1497.50 434.00" xmlns="http://www.w3.org/2000/svg" xmlns:xlink="http://www.w3.org/1999/xlink">
<g id="graph0" class="graph" transform="scale(1 1) rotate(0) translate(4 430)">
<title>/__w/vulpes/vulpes/vulpes/la/linear_solver.cpp</title>
<!-- Node1 -->
<g id="Node000001" class="node">
<title>Node1</title>
<g id="a_Node000001"><a xlink:title=" ">
<polygon fill="#999999" stroke="#666666" points="1316,-426 1167,-426 1167,-396 1316,-396 1316,-426"/>
<text text-anchor="start" x="1175" y="-414" font-family="Helvetica,sans-Serif" font-size="10.00">/__w/vulpes/vulpes</text>
<text text-anchor="middle" x="1241.5" y="-403" font-family="Helvetica,sans-Serif" font-size="10.00">/vulpes/la/linear_solver.cpp</text>
</a>
</g>
</g>
<!-- Node2 -->
<g id="Node000002" class="node">
<title>Node2</title>
<g id="a_Node000002"><a xlink:href="linear__solver_8hpp.html" target="_top" xlink:title=" ">
<polygon fill="white" stroke="#666666" points="1194,-360 1047,-360 1047,-341 1194,-341 1194,-360"/>
<text text-anchor="middle" x="1120.5" y="-348" font-family="Helvetica,sans-Serif" font-size="10.00">vulpes/la/linear_solver.hpp</text>
</a>
</g>
</g>
<!-- Node1&#45;&gt;Node2 -->
<g id="edge1_Node000001_Node000002" class="edge">
<title>Node1&#45;&gt;Node2</title>
<g id="a_edge1_Node000001_Node000002"><a xlink:title=" ">
<path fill="none" stroke="#63b8ff" d="M1212.52,-395.99C1192.78,-386.45 1166.83,-373.9 1147.53,-364.57"/>
<polygon fill="#63b8ff" stroke="#63b8ff" points="1148.9,-361.34 1138.37,-360.14 1145.85,-367.64 1148.9,-361.34"/>
</a>
</g>
</g>
<!-- Node7 -->
<g id="Node000007" class="node">
<title>Node7</title>
<g id="a_Node000007"><a xlink:title=" ">
<polygon fill="#e0e0e0" stroke="#999999" points="1489.5,-19 1445.5,-19 1445.5,0 1489.5,0 1489.5,-19"/>
<text text-anchor="middle" x="1467.5" y="-7" font-family="Helvetica,sans-Serif" font-size="10.00">string</text>
</a>
</g>
</g>
<!-- Node1&#45;&gt;Node7 -->
<g id="edge70_Node000001_Node000007" class="edge">
<title>Node1&#45;&gt;Node7</title>
<g id="a_edge70_Node000001_Node000007"><a xlink:title=" ">
<path fill="none" stroke="#63b8ff" d="M1316.18,-404.63C1384.99,-395.12 1476.5,-368.88 1476.5,-296.5 1476.5,-296.5 1476.5,-296.5 1476.5,-129.5 1476.5,-94.05 1472.48,-52.83 1469.81,-29.39"/>
<polygon fill="#63b8ff" stroke="#63b8ff" points="1473.25,-28.66 1468.6,-19.14 1466.3,-29.48 1473.25,-28.66"/>
</a>
</g>
</g>
<!-- Node8 -->
<g id="Node000008" class="node">
<title>Node8</title>
<g id="a_Node000008"><a xlink:href="mpi__wrappers_8hpp.html" target="_top" xlink:title=" ">
<polygon fill="white" stroke="#666666" points="1045.5,-140 879.5,-140 879.5,-121 1045.5,-121 1045.5,-140"/>
<text text-anchor="middle" x="962.5" y="-128" font-family="Helvetica,sans-Serif" font-size="10.00">vulpes/utils/mpi_wrappers.hpp</text>
</a>
</g>
</g>
<!-- Node1&#45;&gt;Node8 -->
<g id="edge71_Node000001_Node000008" class="edge">
<title>Node1&#45;&gt;Node8</title>
<g id="a_edge71_Node000001_Node000008"><a xlink:title=" ">
<path fill="none" stroke="#63b8ff" d="M1274.88,-395.98C1310.7,-378.45 1362.5,-344.74 1362.5,-296.5 1362.5,-296.5 1362.5,-296.5 1362.5,-239.5 1362.5,-201.58 1339.07,-193.65 1305.5,-176 1263.45,-153.89 1142.34,-142.11 1055.97,-136.34"/>
<polygon fill="#63b8ff" stroke="#63b8ff" points="1056.09,-132.84 1045.88,-135.68 1055.63,-139.82 1056.09,-132.84"/>
</a>
</g>
</g>
<!-- Node12 -->
<g id="Node000012" class="node">
<title>Node12</title>
<g id="a_Node000012"><a xlink:title=" ">
<polygon fill="#e0e0e0" stroke="#999999" points="609.5,-19 549.5,-19 549.5,0 609.5,0 609.5,-19"/>
<text text-anchor="middle" x="579.5" y="-7" font-family="Helvetica,sans-Serif" font-size="10.00">iostream</text>
</a>
</g>
</g>
<!-- Node1&#45;&gt;Node12 -->
<g id="edge69_Node000001_Node000012" class="edge">
<title>Node1&#45;&gt;Node12</title>
<g id="a_edge69_Node000001_Node000012"><a xlink:title=" ">
<path fill="none" stroke="#63b8ff" d="M1166.93,-407.25C1021.3,-400.33 706.65,-377.2 630.5,-305 551.91,-230.49 567.57,-81.72 576.03,-29.3"/>
<polygon fill="#63b8ff" stroke="#63b8ff" points="579.54,-29.59 577.79,-19.14 572.64,-28.4 579.54,-29.59"/>
</a>
</g>
</g>
<!-- Node3 -->
<g id="Node000003" class="node">
<title>Node3</title>
<g id="a_Node000003"><a xlink:title=" ">
<polygon fill="#e0e0e0" stroke="#999999" points="1334,-250 1263,-250 1263,-231 1334,-231 1334,-250"/>
<text text-anchor="middle" x="1298.5" y="-238" font-family="Helvetica,sans-Serif" font-size="10.00">petscmat.h</text>
</a>
</g>
</g>
<!-- Node2&#45;&gt;Node3 -->
<g id="edge2_Node000002_Node000003" class="edge">
<title>Node2&#45;&gt;Node3</title>
<g id="a_edge2_Node000002_Node000003"><a xlink:title=" ">
<path fill="none" stroke="#63b8ff" d="M1194.08,-341.24C1239.75,-334.43 1292.36,-322.92 1306.5,-305 1316.48,-292.35 1312.59,-273.65 1307.33,-259.82"/>
<polygon fill="#63b8ff" stroke="#63b8ff" points="1310.43,-258.17 1303.26,-250.37 1304,-260.94 1310.43,-258.17"/>
</a>
</g>
</g>
<!-- Node4 -->
<g id="Node000004" class="node">
<title>Node4</title>
<g id="a_Node000004"><a xlink:title=" ">
<polygon fill="#e0e0e0" stroke="#999999" points="755.5,-140 687.5,-140 687.5,-121 755.5,-121 755.5,-140"/>
<text text-anchor="middle" x="721.5" y="-128" font-family="Helvetica,sans-Serif" font-size="10.00">petscsys.h</text>
</a>
</g>
</g>
<!-- Node2&#45;&gt;Node4 -->
<g id="edge3_Node000002_Node000004" class="edge">
<title>Node2&#45;&gt;Node4</title>
<g id="a_edge3_Node000002_Node000004"><a xlink:title=" ">
<path fill="none" stroke="#63b8ff" d="M1046.71,-347.53C925.3,-343.53 694.3,-332.37 669.5,-305 654.1,-288 594.65,-353.11 675.5,-176 680.8,-164.39 690.6,-154.24 699.8,-146.58"/>
<polygon fill="#63b8ff" stroke="#63b8ff" points="702.18,-149.17 707.93,-140.27 697.88,-143.64 702.18,-149.17"/>
</a>
</g>
</g>
<!-- Node5 -->
<g id="Node000005" class="node">
<title>Node5</title>
<g id="a_Node000005"><a xlink:href="boomer__amg_8hpp.html" target="_top" xlink:title=" ">
<polygon fill="white" stroke="#666666" points="1297,-305 1148,-305 1148,-286 1297,-286 1297,-305"/>
<text text-anchor="middle" x="1222.5" y="-293" font-family="Helvetica,sans-Serif" font-size="10.00">vulpes/la/boomer_amg.hpp</text>
</a>
</g>
</g>
<!-- Node2&#45;&gt;Node5 -->
<g id="edge4_Node000002_Node000005" class="edge">
<title>Node2&#45;&gt;Node5</title>
<g id="a_edge4_Node000002_Node000005"><a xlink:title=" ">
<path fill="none" stroke="#63b8ff" d="M1136.89,-340.98C1153.07,-332.57 1178.07,-319.59 1196.88,-309.81"/>
<polygon fill="#63b8ff" stroke="#63b8ff" points="1198.55,-312.89 1205.81,-305.17 1195.33,-306.68 1198.55,-312.89"/>
</a>
</g>
</g>
<!-- Node6 -->
<g id="Node000006" class="node">
<title>Node6</title>
<g id="a_Node000006"><a xlink:href="petsc__utils_8hpp.html" target="_top" xlink:title=" ">
<polygon fill="white" stroke="#666666" points="1296,-195 1159,-195 1159,-176 1296,-176 1296,-195"/>
<text text-anchor="middle" x="1227.5" y="-183" font-family="Helvetica,sans-Serif" font-size="10.00">vulpes/la/petsc_utils.hpp</text>
</a>
</g>
</g>
<!-- Node2&#45;&gt;Node6 -->
<g id="edge5_Node000002_Node000006" class="edge">
<title>Node2&#45;&gt;Node6</title>
<g id="a_edge5_Node000002_Node000006"><a xlink:title=" ">
<path fill="none" stroke="#63b8ff" d="M1121.87,-340.82C1124.13,-328.14 1129.43,-304.1 1139.5,-286 1158.23,-252.32 1190.01,-220.21 1209.82,-201.97"/>
<polygon fill="#63b8ff" stroke="#63b8ff" points="1212.42,-204.34 1217.5,-195.04 1207.73,-199.14 1212.42,-204.34"/>
</a>
</g>
</g>
<!-- Node27 -->
<g id="Node000027" class="node">
<title>Node27</title>
<g id="a_Node000027"><a xlink:href="sparse__matrix_8hpp.html" target="_top" xlink:title=" ">
<polygon fill="white" stroke="#666666" points="834,-305 679,-305 679,-286 834,-286 834,-305"/>
<text text-anchor="middle" x="756.5" y="-293" font-family="Helvetica,sans-Serif" font-size="10.00">vulpes/la/sparse_matrix.hpp</text>
</a>
</g>
</g>
<!-- Node2&#45;&gt;Node27 -->
<g id="edge34_Node000002_Node000027" class="edge">
<title>Node2&#45;&gt;Node27</title>
<g id="a_edge34_Node000002_Node000027"><a xlink:title=" ">
<path fill="none" stroke="#63b8ff" d="M1062.02,-340.98C997.5,-331.59 893.78,-316.49 825.38,-306.53"/>
<polygon fill="#63b8ff" stroke="#63b8ff" points="825.54,-303.02 815.14,-305.04 824.53,-309.94 825.54,-303.02"/>
</a>
</g>
</g>
<!-- Node29 -->
<g id="Node000029" class="node">
<title>Node29</title>
<g id="a_Node000029"><a xlink:href="vector_8hpp.html" target="_top" xlink:title=" ">
<polygon fill="white" stroke="#666666" points="1023,-250 908,-250 908,-231 1023,-231 1023,-250"/>
<text text-anchor="middle" x="965.5" y="-238" font-family="Helvetica,sans-Serif" font-size="10.00">vulpes/la/vector.hpp</text>
</a>
</g>
</g>
<!-- Node2&#45;&gt;Node29 -->
<g id="edge68_Node000002_Node000029" class="edge">
<title>Node2&#45;&gt;Node29</title>
<g id="a_edge68_Node000002_Node000029"><a xlink:title=" ">
<path fill="none" stroke="#63b8ff" d="M1108.08,-340.84C1081.55,-322.36 1019.12,-278.86 986.38,-256.05"/>
<polygon fill="#63b8ff" stroke="#63b8ff" points="988.19,-253.04 977.98,-250.2 984.19,-258.79 988.19,-253.04"/>
</a>
</g>
</g>
<!-- Node6&#45;&gt;Node4 -->
<g id="edge6_Node000006_Node000004" class="edge">
<title>Node6&#45;&gt;Node4</title>
<g id="a_edge6_Node000006_Node000004"><a xlink:title=" ">
<path fill="none" stroke="#63b8ff" d="M1159,-177.32C1053.43,-166.27 853.94,-145.37 765.55,-136.11"/>
<polygon fill="#63b8ff" stroke="#63b8ff" points="765.9,-132.63 755.59,-135.07 765.17,-139.59 765.9,-132.63"/>
</a>
</g>
</g>
<!-- Node6&#45;&gt;Node7 -->
<g id="edge7_Node000006_Node000007" class="edge">
<title>Node6&#45;&gt;Node7</title>
<g id="a_edge7_Node000006_Node000007"><a xlink:title=" ">
<path fill="none" stroke="#63b8ff" d="M1236.71,-175.98C1260.43,-154.29 1325.97,-95.78 1386.5,-55 1403.8,-43.34 1424.42,-32.05 1440.53,-23.75"/>
<polygon fill="#63b8ff" stroke="#63b8ff" points="1442.56,-26.65 1449.9,-19 1439.4,-20.4 1442.56,-26.65"/>
</a>
</g>
</g>
<!-- Node6&#45;&gt;Node8 -->
<g id="edge8_Node000006_Node000008" class="edge">
<title>Node6&#45;&gt;Node8</title>
<g id="a_edge8_Node000006_Node000008"><a xlink:title=" ">
<path fill="none" stroke="#63b8ff" d="M1184.92,-175.98C1138.8,-166.76 1065.14,-152.03 1015.34,-142.07"/>
<polygon fill="#63b8ff" stroke="#63b8ff" points="1015.9,-138.61 1005.41,-140.08 1014.53,-145.48 1015.9,-138.61"/>
</a>
</g>
</g>
<!-- Node9 -->
<g id="Node000009" class="node">
<title>Node9</title>
<g id="a_Node000009"><a xlink:title=" ">
<polygon fill="#e0e0e0" stroke="#999999" points="1000.5,-79.5 956.5,-79.5 956.5,-60.5 1000.5,-60.5 1000.5,-79.5"/>
<text text-anchor="middle" x="978.5" y="-67.5" font-family="Helvetica,sans-Serif" font-size="10.00">mpi.h</text>
</a>
</g>
</g>
<!-- Node8&#45;&gt;Node9 -->
<g id="edge9_Node000008_Node000009" class="edge">
<title>Node8&#45;&gt;Node9</title>
<g id="a_edge9_Node000008_Node000009"><a xlink:title=" ">
<path fill="none" stroke="#63b8ff" d="M964.86,-120.87C967.11,-112.66 970.56,-100.04 973.43,-89.55"/>
<polygon fill="#63b8ff" stroke="#63b8ff" points="976.87,-90.24 976.13,-79.67 970.12,-88.39 976.87,-90.24"/>
</a>
</g>
</g>
<!-- Node10 -->
<g id="Node000010" class="node">
<title>Node10</title>
<g id="a_Node000010"><a xlink:title=" ">
<polygon fill="#e0e0e0" stroke="#999999" points="1070.5,-79.5 1018.5,-79.5 1018.5,-60.5 1070.5,-60.5 1070.5,-79.5"/>
<text text-anchor="middle" x="1044.5" y="-67.5" font-family="Helvetica,sans-Serif" font-size="10.00">petsc.h</text>
</a>
</g>
</g>
<!-- Node8&#45;&gt;Node10 -->
<g id="edge10_Node000008_Node000010" class="edge">
<title>Node8&#45;&gt;Node10</title>
<g id="a_edge10_Node000008_Node000010"><a xlink:title=" ">
<path fill="none" stroke="#63b8ff" d="M974.6,-120.87C987.56,-111.62 1008.36,-96.78 1023.9,-85.69"/>
<polygon fill="#63b8ff" stroke="#63b8ff" points="1026.24,-88.32 1032.35,-79.67 1022.18,-82.63 1026.24,-88.32"/>
</a>
</g>
</g>
<!-- Node11 -->
<g id="Node000011" class="node">
<title>Node11</title>
<g id="a_Node000011"><a xlink:title=" ">
<polygon fill="#e0e0e0" stroke="#999999" points="755.5,-19 703.5,-19 703.5,0 755.5,0 755.5,-19"/>
<text text-anchor="middle" x="729.5" y="-7" font-family="Helvetica,sans-Serif" font-size="10.00">cassert</text>
</a>
</g>
</g>
<!-- Node8&#45;&gt;Node11 -->
<g id="edge11_Node000008_Node000011" class="edge">
<title>Node8&#45;&gt;Node11</title>
<g id="a_edge11_Node000008_Node000011"><a xlink:title=" ">
<path fill="none" stroke="#63b8ff" d="M913.71,-120.96C883,-114.21 843.31,-102.88 811.5,-85 784.37,-69.75 758.78,-44.02 743.62,-27.15"/>
<polygon fill="#63b8ff" stroke="#63b8ff" points="745.91,-24.45 736.69,-19.23 740.64,-29.06 745.91,-24.45"/>
</a>
</g>
</g>
<!-- Node8&#45;&gt;Node12 -->
<g id="edge12_Node000008_Node000012" class="edge">
<title>Node8&#45;&gt;Node12</title>
<g id="a_edge12_Node000008_Node000012"><a xlink:title=" ">
<path fill="none" stroke="#63b8ff" d="M891.96,-121C845.32,-114.16 783.28,-102.72 730.5,-85 682.95,-69.03 631.3,-41 602.41,-24.25"/>
<polygon fill="#63b8ff" stroke="#63b8ff" points="603.92,-21.08 593.52,-19.03 600.38,-27.11 603.92,-21.08"/>
</a>
</g>
</g>
<!-- Node13 -->
<g id="Node000013" class="node">
<title>Node13</title>
<g id="a_Node000013"><a xlink:title=" ">
<polygon fill="#e0e0e0" stroke="#999999" points="685,-19 638,-19 638,0 685,0 685,-19"/>
<text text-anchor="middle" x="661.5" y="-7" font-family="Helvetica,sans-Serif" font-size="10.00">vector</text>
</a>
</g>
</g>
<!-- Node8&#45;&gt;Node13 -->
<g id="edge13_Node000008_Node000013" class="edge">
<title>Node8&#45;&gt;Node13</title>
<g id="a_edge13_Node000008_Node000013"><a xlink:title=" ">
<path fill="none" stroke="#63b8ff" d="M893.59,-120.96C855.67,-114.48 808.52,-103.43 769.5,-85 749.73,-75.66 748.37,-67.6 730.5,-55 715.36,-44.32 697.8,-33.01 684.19,-24.47"/>
<polygon fill="#63b8ff" stroke="#63b8ff" points="685.81,-21.35 675.47,-19.03 682.1,-27.29 685.81,-21.35"/>
</a>
</g>
</g>
<!-- Node14 -->
<g id="Node000014" class="node">
<title>Node14</title>
<g id="a_Node000014"><a xlink:title=" ">
<polygon fill="#e0e0e0" stroke="#999999" points="372,-19 295,-19 295,0 372,0 372,-19"/>
<text text-anchor="middle" x="333.5" y="-7" font-family="Helvetica,sans-Serif" font-size="10.00">Eigen/Dense</text>
</a>
</g>
</g>
<!-- Node8&#45;&gt;Node14 -->
<g id="edge14_Node000008_Node000014" class="edge">
<title>Node8&#45;&gt;Node14</title>
<g id="a_edge14_Node000008_Node000014"><a xlink:title=" ">
<path fill="none" stroke="#63b8ff" d="M893.65,-120.96C832.07,-112.95 739.46,-99.98 659.5,-85 557.61,-65.91 439.26,-37.2 376.97,-21.59"/>
<polygon fill="#63b8ff" stroke="#63b8ff" points="377.66,-18.15 367.11,-19.1 375.95,-24.94 377.66,-18.15"/>
</a>
</g>
</g>
<!-- Node15 -->
<g id="Node000015" class="node">
<title>Node15</title>
<g id="a_Node000015"><a xlink:href="crs__map_8hpp.html" target="_top" xlink:title=" ">
<polygon fill="white" stroke="#666666" points="938,-85 821,-85 821,-55 938,-55 938,-85"/>
<text text-anchor="start" x="829" y="-73" font-family="Helvetica,sans-Serif" font-size="10.00">vulpes/datastructure</text>
<text text-anchor="middle" x="879.5" y="-62" font-family="Helvetica,sans-Serif" font-size="10.00">/crs_map.hpp</text>
</a>
</g>
</g>
<!-- Node8&#45;&gt;Node15 -->
<g id="edge15_Node000008_Node000015" class="edge">
<title>Node8&#45;&gt;Node15</title>
<g id="a_edge15_Node000008_Node000015"><a xlink:title=" ">
<path fill="none" stroke="#63b8ff" d="M950.25,-120.87C939.1,-113 922.2,-101.09 907.71,-90.89"/>
<polygon fill="#63b8ff" stroke="#63b8ff" points="909.72,-88.01 899.53,-85.11 905.68,-93.74 909.72,-88.01"/>
</a>
</g>
</g>
<!-- Node21 -->
<g id="Node000021" class="node">
<title>Node21</title>
<g id="a_Node000021"><a xlink:href="profiler_8hpp.html" target="_top" xlink:title=" ">
<polygon fill="white" stroke="#666666" points="1258,-79.5 1127,-79.5 1127,-60.5 1258,-60.5 1258,-79.5"/>
<text text-anchor="middle" x="1192.5" y="-67.5" font-family="Helvetica,sans-Serif" font-size="10.00">vulpes/utils/profiler.hpp</text>
</a>
</g>
</g>
<!-- Node8&#45;&gt;Node21 -->
<g id="edge23_Node000008_Node000021" class="edge">
<title>Node8&#45;&gt;Node21</title>
<g id="a_edge23_Node000008_Node000021"><a xlink:title=" ">
<path fill="none" stroke="#63b8ff" d="M995.94,-120.99C1036.4,-110.7 1104.6,-93.36 1149.08,-82.04"/>
<polygon fill="#63b8ff" stroke="#63b8ff" points="1150.19,-85.37 1159.02,-79.52 1148.46,-78.59 1150.19,-85.37"/>
</a>
</g>
</g>
<!-- Node15&#45;&gt;Node11 -->
<g id="edge18_Node000015_Node000011" class="edge">
<title>Node15&#45;&gt;Node11</title>
<g id="a_edge18_Node000015_Node000011"><a xlink:title=" ">
<path fill="none" stroke="#63b8ff" d="M843.57,-54.99C818.43,-45.18 785.17,-32.21 761.05,-22.81"/>
<polygon fill="#63b8ff" stroke="#63b8ff" points="762.24,-19.51 751.65,-19.14 759.7,-26.03 762.24,-19.51"/>
</a>
</g>
</g>
<!-- Node15&#45;&gt;Node13 -->
<g id="edge22_Node000015_Node000013" class="edge">
<title>Node15&#45;&gt;Node13</title>
<g id="a_edge22_Node000015_Node000013"><a xlink:title=" ">
<path fill="none" stroke="#63b8ff" d="M827.28,-54.99C786.24,-43.97 730.29,-28.96 695.04,-19.5"/>
<polygon fill="#63b8ff" stroke="#63b8ff" points="695.8,-16.08 685.23,-16.87 693.98,-22.84 695.8,-16.08"/>
</a>
</g>
</g>
<!-- Node16 -->
<g id="Node000016" class="node">
<title>Node16</title>
<g id="a_Node000016"><a xlink:title=" ">
<polygon fill="#e0e0e0" stroke="#999999" points="982.5,-19 918.5,-19 918.5,0 982.5,0 982.5,-19"/>
<text text-anchor="middle" x="950.5" y="-7" font-family="Helvetica,sans-Serif" font-size="10.00">algorithm</text>
</a>
</g>
</g>
<!-- Node15&#45;&gt;Node16 -->
<g id="edge16_Node000015_Node000016" class="edge">
<title>Node15&#45;&gt;Node16</title>
<g id="a_edge16_Node000015_Node000016"><a xlink:title=" ">
<path fill="none" stroke="#63b8ff" d="M896.69,-54.84C907.31,-46.09 920.94,-34.85 931.83,-25.88"/>
<polygon fill="#63b8ff" stroke="#63b8ff" points="934.37,-28.33 939.86,-19.27 929.92,-22.92 934.37,-28.33"/>
</a>
</g>
</g>
<!-- Node17 -->
<g id="Node000017" class="node">
<title>Node17</title>
<g id="a_Node000017"><a xlink:title=" ">
<polygon fill="#e0e0e0" stroke="#999999" points="511.5,-19 469.5,-19 469.5,0 511.5,0 511.5,-19"/>
<text text-anchor="middle" x="490.5" y="-7" font-family="Helvetica,sans-Serif" font-size="10.00">array</text>
</a>
</g>
</g>
<!-- Node15&#45;&gt;Node17 -->
<g id="edge17_Node000015_Node000017" class="edge">
<title>Node15&#45;&gt;Node17</title>
<g id="a_edge17_Node000015_Node000017"><a xlink:title=" ">
<path fill="none" stroke="#63b8ff" d="M820.95,-60.76C753.33,-51.16 638.77,-34.6 540.5,-19 534.48,-18.04 528.07,-16.99 521.91,-15.95"/>
<polygon fill="#63b8ff" stroke="#63b8ff" points="522.34,-12.47 511.89,-14.24 521.17,-19.37 522.34,-12.47"/>
</a>
</g>
</g>
<!-- Node18 -->
<g id="Node000018" class="node">
<title>Node18</title>
<g id="a_Node000018"><a xlink:title=" ">
<polygon fill="#e0e0e0" stroke="#999999" points="831,-19 774,-19 774,0 831,0 831,-19"/>
<text text-anchor="middle" x="802.5" y="-7" font-family="Helvetica,sans-Serif" font-size="10.00">ostream</text>
</a>
</g>
</g>
<!-- Node15&#45;&gt;Node18 -->
<g id="edge19_Node000015_Node000018" class="edge">
<title>Node15&#45;&gt;Node18</title>
<g id="a_edge19_Node000015_Node000018"><a xlink:title=" ">
<path fill="none" stroke="#63b8ff" d="M860.86,-54.84C849.11,-45.91 833.97,-34.41 822.05,-25.35"/>
<polygon fill="#63b8ff" stroke="#63b8ff" points="824.12,-22.53 814.04,-19.27 819.88,-28.1 824.12,-22.53"/>
</a>
</g>
</g>
<!-- Node19 -->
<g id="Node000019" class="node">
<title>Node19</title>
<g id="a_Node000019"><a xlink:title=" ">
<polygon fill="#e0e0e0" stroke="#999999" points="1427,-19 1382,-19 1382,0 1427,0 1427,-19"/>
<text text-anchor="middle" x="1404.5" y="-7" font-family="Helvetica,sans-Serif" font-size="10.00">utility</text>
</a>
</g>
</g>
<!-- Node15&#45;&gt;Node19 -->
<g id="edge20_Node000015_Node000019" class="edge">
<title>Node15&#45;&gt;Node19</title>
<g id="a_edge20_Node000015_Node000019"><a xlink:title=" ">
<path fill="none" stroke="#63b8ff" d="M938.03,-56.49C941.23,-55.95 944.4,-55.45 947.5,-55 1132.34,-28.26 1184.65,-51.44 1372.02,-18.95"/>
<polygon fill="#63b8ff" stroke="#63b8ff" points="1372.68,-22.39 1381.92,-17.21 1371.47,-15.5 1372.68,-22.39"/>
</a>
</g>
</g>
<!-- Node20 -->
<g id="Node000020" class="node">
<title>Node20</title>
<g id="a_Node000020"><a xlink:title=" ">
<polygon fill="#e0e0e0" stroke="#999999" points="900,-19 849,-19 849,0 900,0 900,-19"/>
<text text-anchor="middle" x="874.5" y="-7" font-family="Helvetica,sans-Serif" font-size="10.00">variant</text>
</a>
</g>
</g>
<!-- Node15&#45;&gt;Node20 -->
<g id="edge21_Node000015_Node000020" class="edge">
<title>Node15&#45;&gt;Node20</title>
<g id="a_edge21_Node000015_Node000020"><a xlink:title=" ">
<path fill="none" stroke="#63b8ff" d="M878.29,-54.84C877.64,-47.21 876.83,-37.7 876.12,-29.45"/>
<polygon fill="#63b8ff" stroke="#63b8ff" points="879.59,-28.93 875.25,-19.27 872.61,-29.53 879.59,-28.93"/>
</a>
</g>
</g>
<!-- Node21&#45;&gt;Node7 -->
<g id="edge29_Node000021_Node000007" class="edge">
<title>Node21&#45;&gt;Node7</title>
<g id="a_edge29_Node000021_Node000007"><a xlink:title=" ">
<path fill="none" stroke="#63b8ff" d="M1238.57,-60.49C1285.66,-51.59 1361.12,-36.75 1435.22,-19.19"/>
<polygon fill="#63b8ff" stroke="#63b8ff" points="1436.28,-22.53 1445.19,-16.8 1434.65,-15.72 1436.28,-22.53"/>
</a>
</g>
</g>
<!-- Node21&#45;&gt;Node12 -->
<g id="edge28_Node000021_Node000012" class="edge">
<title>Node21&#45;&gt;Node12</title>
<g id="a_edge28_Node000021_Node000012"><a xlink:title=" ">
<path fill="none" stroke="#63b8ff" d="M1127.72,-60.48C1111.96,-58.55 1095.13,-56.59 1079.5,-55 879.45,-34.63 828,-44.21 628.5,-19 625.65,-18.64 622.71,-18.23 619.76,-17.79"/>
<polygon fill="#63b8ff" stroke="#63b8ff" points="620.18,-14.31 609.76,-16.2 619.08,-21.22 620.18,-14.31"/>
</a>
</g>
</g>
<!-- Node21&#45;&gt;Node13 -->
<g id="edge32_Node000021_Node000013" class="edge">
<title>Node21&#45;&gt;Node13</title>
<g id="a_edge32_Node000021_Node000013"><a xlink:title=" ">
<path fill="none" stroke="#63b8ff" d="M1126.81,-60.52C1111.31,-58.62 1094.83,-56.67 1079.5,-55 911.9,-36.79 865.56,-48.08 695.25,-18.83"/>
<polygon fill="#63b8ff" stroke="#63b8ff" points="695.65,-15.35 685.19,-17.08 694.45,-22.25 695.65,-15.35"/>
</a>
</g>
</g>
<!-- Node21&#45;&gt;Node16 -->
<g id="edge24_Node000021_Node000016" class="edge">
<title>Node21&#45;&gt;Node16</title>
<g id="a_edge24_Node000021_Node000016"><a xlink:title=" ">
<path fill="none" stroke="#63b8ff" d="M1157.31,-60.49C1113.59,-49.92 1039.07,-31.91 992.43,-20.64"/>
<polygon fill="#63b8ff" stroke="#63b8ff" points="993.18,-17.22 982.64,-18.27 991.54,-24.02 993.18,-17.22"/>
</a>
</g>
</g>
<!-- Node21&#45;&gt;Node19 -->
<g id="edge31_Node000021_Node000019" class="edge">
<title>Node21&#45;&gt;Node19</title>
<g id="a_edge31_Node000021_Node000019"><a xlink:title=" ">
<path fill="none" stroke="#63b8ff" d="M1223.33,-60.49C1262.94,-49.56 1331.42,-30.67 1371.88,-19.5"/>
<polygon fill="#63b8ff" stroke="#63b8ff" points="1373.07,-22.8 1381.78,-16.77 1371.21,-16.06 1373.07,-22.8"/>
</a>
</g>
</g>
<!-- Node22 -->
<g id="Node000022" class="node">
<title>Node22</title>
<g id="a_Node000022"><a xlink:title=" ">
<polygon fill="#e0e0e0" stroke="#999999" points="1178.5,-19 1128.5,-19 1128.5,0 1178.5,0 1178.5,-19"/>
<text text-anchor="middle" x="1153.5" y="-7" font-family="Helvetica,sans-Serif" font-size="10.00">chrono</text>
</a>
</g>
</g>
<!-- Node21&#45;&gt;Node22 -->
<g id="edge25_Node000021_Node000022" class="edge">
<title>Node21&#45;&gt;Node22</title>
<g id="a_edge25_Node000021_Node000022"><a xlink:title=" ">
<path fill="none" stroke="#63b8ff" d="M1186.75,-60.37C1181.04,-51.81 1172.15,-38.47 1164.99,-27.74"/>
<polygon fill="#63b8ff" stroke="#63b8ff" points="1167.74,-25.55 1159.28,-19.17 1161.91,-29.43 1167.74,-25.55"/>
</a>
</g>
</g>
<!-- Node23 -->
<g id="Node000023" class="node">
<title>Node23</title>
<g id="a_Node000023"><a xlink:title=" ">
<polygon fill="#e0e0e0" stroke="#999999" points="443,-19 390,-19 390,0 443,0 443,-19"/>
<text text-anchor="middle" x="416.5" y="-7" font-family="Helvetica,sans-Serif" font-size="10.00">cstddef</text>
</a>
</g>
</g>
<!-- Node21&#45;&gt;Node23 -->
<g id="edge26_Node000021_Node000023" class="edge">
<title>Node21&#45;&gt;Node23</title>
<g id="a_edge26_Node000021_Node000023"><a xlink:title=" ">
<path fill="none" stroke="#63b8ff" d="M1129.82,-60.5C1113.46,-58.48 1095.84,-56.49 1079.5,-55 805.06,-30.05 733.94,-53.21 460.5,-19 458.16,-18.71 455.75,-18.36 453.32,-17.99"/>
<polygon fill="#63b8ff" stroke="#63b8ff" points="453.85,-14.52 443.4,-16.28 452.67,-21.42 453.85,-14.52"/>
</a>
</g>
</g>
<!-- Node24 -->
<g id="Node000024" class="node">
<title>Node24</title>
<g id="a_Node000024"><a xlink:title=" ">
<polygon fill="#e0e0e0" stroke="#999999" points="1252.5,-19 1196.5,-19 1196.5,0 1252.5,0 1252.5,-19"/>
<text text-anchor="middle" x="1224.5" y="-7" font-family="Helvetica,sans-Serif" font-size="10.00">iomanip</text>
</a>
</g>
</g>
<!-- Node21&#45;&gt;Node24 -->
<g id="edge27_Node000021_Node000024" class="edge">
<title>Node21&#45;&gt;Node24</title>
<g id="a_edge27_Node000021_Node000024"><a xlink:title=" ">
<path fill="none" stroke="#63b8ff" d="M1197.22,-60.37C1201.85,-51.9 1209.05,-38.74 1214.89,-28.07"/>
<polygon fill="#63b8ff" stroke="#63b8ff" points="1218.03,-29.62 1219.76,-19.17 1211.89,-26.26 1218.03,-29.62"/>
</a>
</g>
</g>
<!-- Node25 -->
<g id="Node000025" class="node">
<title>Node25</title>
<g id="a_Node000025"><a xlink:title=" ">
<polygon fill="#e0e0e0" stroke="#999999" points="1364,-19 1271,-19 1271,0 1364,0 1364,-19"/>
<text text-anchor="middle" x="1317.5" y="-7" font-family="Helvetica,sans-Serif" font-size="10.00">unordered_map</text>
</a>
</g>
</g>
<!-- Node21&#45;&gt;Node25 -->
<g id="edge30_Node000021_Node000025" class="edge">
<title>Node21&#45;&gt;Node25</title>
<g id="a_edge30_Node000021_Node000025"><a xlink:title=" ">
<path fill="none" stroke="#63b8ff" d="M1210.68,-60.49C1231.51,-50.75 1265.87,-34.66 1289.98,-23.38"/>
<polygon fill="#63b8ff" stroke="#63b8ff" points="1291.73,-26.43 1299.3,-19.02 1288.76,-20.09 1291.73,-26.43"/>
</a>
</g>
</g>
<!-- Node26 -->
<g id="Node000026" class="node">
<title>Node26</title>
<g id="a_Node000026"><a xlink:title=" ">
<polygon fill="#e0e0e0" stroke="#999999" points="1110.5,-19 1000.5,-19 1000.5,0 1110.5,0 1110.5,-19"/>
<text text-anchor="middle" x="1055.5" y="-7" font-family="Helvetica,sans-Serif" font-size="10.00">nlohmann/json.hpp</text>
</a>
</g>
</g>
<!-- Node21&#45;&gt;Node26 -->
<g id="edge33_Node000021_Node000026" class="edge">
<title>Node21&#45;&gt;Node26</title>
<g id="a_edge33_Node000021_Node000026"><a xlink:title=" ">
<path fill="none" stroke="#63b8ff" d="M1172.58,-60.49C1149.55,-50.66 1111.42,-34.38 1084.96,-23.08"/>
<polygon fill="#63b8ff" stroke="#63b8ff" points="1086.02,-19.72 1075.45,-19.02 1083.27,-26.16 1086.02,-19.72"/>
</a>
</g>
</g>
<!-- Node27&#45;&gt;Node3 -->
<g id="edge35_Node000027_Node000003" class="edge">
<title>Node27&#45;&gt;Node3</title>
<g id="a_edge35_Node000027_Node000003"><a xlink:title=" ">
<path fill="none" stroke="#63b8ff" d="M834.16,-286.91C948.87,-275.69 1160.02,-255.04 1252.77,-245.97"/>
<polygon fill="#63b8ff" stroke="#63b8ff" points="1253.34,-249.43 1262.95,-244.98 1252.66,-242.47 1253.34,-249.43"/>
</a>
</g>
</g>
<!-- Node27&#45;&gt;Node4 -->
<g id="edge36_Node000027_Node000004" class="edge">
<title>Node27&#45;&gt;Node4</title>
<g id="a_edge36_Node000027_Node000004"><a xlink:title=" ">
<path fill="none" stroke="#63b8ff" d="M730.99,-285.9C714.81,-278.96 695.15,-267.44 685.5,-250 669.57,-221.22 674.53,-207.01 685.5,-176 689.25,-165.41 696.71,-155.49 703.87,-147.71"/>
<polygon fill="#63b8ff" stroke="#63b8ff" points="706.78,-149.76 711.34,-140.19 701.81,-144.82 706.78,-149.76"/>
</a>
</g>
</g>
<!-- Node27&#45;&gt;Node6 -->
<g id="edge43_Node000027_Node000006" class="edge">
<title>Node27&#45;&gt;Node6</title>
<g id="a_edge43_Node000027_Node000006"><a xlink:title=" ">
<path fill="none" stroke="#63b8ff" d="M828.59,-285.99C884.64,-278.63 964.1,-266.55 1032.5,-250 1090.95,-235.86 1157.16,-212.74 1195.44,-198.64"/>
<polygon fill="#63b8ff" stroke="#63b8ff" points="1196.85,-201.85 1205.01,-195.09 1194.42,-195.29 1196.85,-201.85"/>
</a>
</g>
</g>
<!-- Node27&#45;&gt;Node7 -->
<g id="edge40_Node000027_Node000007" class="edge">
<title>Node27&#45;&gt;Node7</title>
<g id="a_edge40_Node000027_Node000007"><a xlink:title=" ">
<path fill="none" stroke="#63b8ff" d="M834.25,-289.08C911.84,-282.83 1034.2,-270.65 1138.5,-250 1226.83,-232.51 1256.24,-241.25 1333.5,-195 1400.56,-154.85 1443.89,-66.89 1460.2,-28.75"/>
<polygon fill="#63b8ff" stroke="#63b8ff" points="1463.48,-29.97 1464.08,-19.39 1457.02,-27.28 1463.48,-29.97"/>
</a>
</g>
</g>
<!-- Node27&#45;&gt;Node8 -->
<g id="edge67_Node000027_Node000008" class="edge">
<title>Node27&#45;&gt;Node8</title>
<g id="a_edge67_Node000027_Node000008"><a xlink:title=" ">
<path fill="none" stroke="#63b8ff" d="M748.68,-285.7C730.76,-264.46 690.41,-209.68 718.5,-176 737.8,-152.86 808.93,-141.72 869.44,-136.38"/>
<polygon fill="#63b8ff" stroke="#63b8ff" points="869.77,-139.86 879.44,-135.54 869.18,-132.89 869.77,-139.86"/>
</a>
</g>
</g>
<!-- Node27&#45;&gt;Node12 -->
<g id="edge38_Node000027_Node000012" class="edge">
<title>Node27&#45;&gt;Node12</title>
<g id="a_edge38_Node000027_Node000012"><a xlink:title=" ">
<path fill="none" stroke="#63b8ff" d="M722.15,-285.99C701.71,-279.31 676.7,-268.05 660.5,-250 601.29,-184.03 585.09,-73.1 580.89,-29.2"/>
<polygon fill="#63b8ff" stroke="#63b8ff" points="584.37,-28.78 580.03,-19.11 577.39,-29.37 584.37,-28.78"/>
</a>
</g>
</g>
<!-- Node27&#45;&gt;Node13 -->
<g id="edge42_Node000027_Node000013" class="edge">
<title>Node27&#45;&gt;Node13</title>
<g id="a_edge42_Node000027_Node000013"><a xlink:title=" ">
<path fill="none" stroke="#63b8ff" d="M724.65,-285.98C706.42,-279.33 684.96,-268.1 673.5,-250 628.73,-179.28 646.88,-71.94 656.73,-29.1"/>
<polygon fill="#63b8ff" stroke="#63b8ff" points="660.17,-29.78 659.12,-19.24 653.37,-28.13 660.17,-29.78"/>
</a>
</g>
</g>
<!-- Node27&#45;&gt;Node19 -->
<g id="edge41_Node000027_Node000019" class="edge">
<title>Node27&#45;&gt;Node19</title>
<g id="a_edge41_Node000027_Node000019"><a xlink:title=" ">
<path fill="none" stroke="#63b8ff" d="M834.28,-285.97C899.72,-278.26 995.61,-265.73 1078.5,-250 1104,-245.16 1284.97,-210.87 1305.5,-195 1361.8,-151.48 1389.88,-66.64 1399.99,-29.12"/>
<polygon fill="#63b8ff" stroke="#63b8ff" points="1403.46,-29.64 1402.55,-19.09 1396.68,-27.91 1403.46,-29.64"/>
</a>
</g>
</g>
<!-- Node27&#45;&gt;Node23 -->
<g id="edge37_Node000027_Node000023" class="edge">
<title>Node27&#45;&gt;Node23</title>
<g id="a_edge37_Node000027_Node000023"><a xlink:title=" ">
<path fill="none" stroke="#63b8ff" d="M678.72,-291.82C581.32,-283.62 419.46,-252.75 355.5,-140 333.04,-100.4 373.95,-51.17 399.05,-26.36"/>
<polygon fill="#63b8ff" stroke="#63b8ff" points="401.72,-28.65 406.54,-19.21 396.89,-23.59 401.72,-28.65"/>
</a>
</g>
</g>
<!-- Node28 -->
<g id="Node000028" class="node">
<title>Node28</title>
<g id="a_Node000028"><a xlink:title=" ">
<polygon fill="#e0e0e0" stroke="#999999" points="785.5,-195 727.5,-195 727.5,-176 785.5,-176 785.5,-195"/>
<text text-anchor="middle" x="756.5" y="-183" font-family="Helvetica,sans-Serif" font-size="10.00">memory</text>
</a>
</g>
</g>
<!-- Node27&#45;&gt;Node28 -->
<g id="edge39_Node000027_Node000028" class="edge">
<title>Node27&#45;&gt;Node28</title>
<g id="a_edge39_Node000027_Node000028"><a xlink:title=" ">
<path fill="none" stroke="#63b8ff" d="M756.5,-285.66C756.5,-268.17 756.5,-228.8 756.5,-205.27"/>
<polygon fill="#63b8ff" stroke="#63b8ff" points="760,-205.16 756.5,-195.16 753,-205.16 760,-205.16"/>
</a>
</g>
</g>
<!-- Node27&#45;&gt;Node29 -->
<g id="edge44_Node000027_Node000029" class="edge">
<title>Node27&#45;&gt;Node29</title>
<g id="a_edge44_Node000027_Node000029"><a xlink:title=" ">
<path fill="none" stroke="#63b8ff" d="M790.08,-285.98C825.85,-276.91 882.62,-262.52 921.84,-252.57"/>
<polygon fill="#63b8ff" stroke="#63b8ff" points="922.82,-255.93 931.66,-250.08 921.1,-249.15 922.82,-255.93"/>
</a>
</g>
</g>
<!-- Node31 -->
<g id="Node000031" class="node">
<title>Node31</title>
<g id="a_Node000031"><a xlink:href="qrule_8hpp.html" target="_top" xlink:title=" ">
<polygon fill="white" stroke="#666666" points="518.5,-140 364.5,-140 364.5,-121 518.5,-121 518.5,-140"/>
<text text-anchor="middle" x="441.5" y="-128" font-family="Helvetica,sans-Serif" font-size="10.00">vulpes/quadrature/qrule.hpp</text>
</a>
</g>
</g>
<!-- Node27&#45;&gt;Node31 -->
<g id="edge56_Node000027_Node000031" class="edge">
<title>Node27&#45;&gt;Node31</title>
<g id="a_edge56_Node000027_Node000031"><a xlink:title=" ">
<path fill="none" stroke="#63b8ff" d="M685.44,-285.97C649.72,-279.6 606.67,-268.65 571.5,-250 521.81,-223.65 476.33,-173.88 454.72,-148.02"/>
<polygon fill="#63b8ff" stroke="#63b8ff" points="457.39,-145.75 448.34,-140.24 451.97,-150.19 457.39,-145.75"/>
</a>
</g>
</g>
<!-- Node29&#45;&gt;Node4 -->
<g id="edge45_Node000029_Node000004" class="edge">
<title>Node29&#45;&gt;Node4</title>
<g id="a_edge45_Node000029_Node000004"><a xlink:title=" ">
<path fill="none" stroke="#63b8ff" d="M947.28,-230.88C920.96,-218.48 870.71,-195.01 827.5,-176 802.27,-164.9 773.4,-152.82 752.17,-144.06"/>
<polygon fill="#63b8ff" stroke="#63b8ff" points="753.29,-140.73 742.71,-140.16 750.62,-147.2 753.29,-140.73"/>
</a>
</g>
</g>
<!-- Node29&#45;&gt;Node6 -->
<g id="edge54_Node000029_Node000006" class="edge">
<title>Node29&#45;&gt;Node6</title>
<g id="a_edge54_Node000029_Node000006"><a xlink:title=" ">
<path fill="none" stroke="#63b8ff" d="M1007.59,-230.98C1053.2,-221.76 1126.02,-207.03 1175.25,-197.07"/>
<polygon fill="#63b8ff" stroke="#63b8ff" points="1175.97,-200.5 1185.08,-195.08 1174.58,-193.63 1175.97,-200.5"/>
</a>
</g>
</g>
<!-- Node29&#45;&gt;Node7 -->
<g id="edge50_Node000029_Node000007" class="edge">
<title>Node29&#45;&gt;Node7</title>
<g id="a_edge50_Node000029_Node000007"><a xlink:title=" ">
<path fill="none" stroke="#63b8ff" d="M1023.07,-236.95C1106.97,-232.39 1258.04,-220.82 1305.5,-195 1377.24,-155.98 1369.65,-115.5 1424.5,-55 1433.25,-45.35 1443.36,-34.86 1451.57,-26.49"/>
<polygon fill="#63b8ff" stroke="#63b8ff" points="1454.23,-28.78 1458.76,-19.21 1449.25,-23.86 1454.23,-28.78"/>
</a>
</g>
</g>
<!-- Node29&#45;&gt;Node8 -->
<g id="edge55_Node000029_Node000008" class="edge">
<title>Node29&#45;&gt;Node8</title>
<g id="a_edge55_Node000029_Node000008"><a xlink:title=" ">
<path fill="none" stroke="#63b8ff" d="M965.25,-230.66C964.77,-213.17 963.68,-173.8 963.02,-150.27"/>
<polygon fill="#63b8ff" stroke="#63b8ff" points="966.52,-150.06 962.74,-140.16 959.52,-150.25 966.52,-150.06"/>
</a>
</g>
</g>
<!-- Node29&#45;&gt;Node13 -->
<g id="edge52_Node000029_Node000013" class="edge">
<title>Node29&#45;&gt;Node13</title>
<g id="a_edge52_Node000029_Node000013"><a xlink:title=" ">
<path fill="none" stroke="#63b8ff" d="M958.07,-230.62C947,-217.69 925.14,-193.34 903.5,-176 867.21,-146.93 855.94,-142.1 814.5,-121 776.84,-101.83 760.87,-109.58 726.5,-85 704.33,-69.14 684.65,-44.28 672.9,-27.7"/>
<polygon fill="#63b8ff" stroke="#63b8ff" points="675.49,-25.28 666.94,-19.02 669.72,-29.24 675.49,-25.28"/>
</a>
</g>
</g>
<!-- Node29&#45;&gt;Node14 -->
<g id="edge53_Node000029_Node000014" class="edge">
<title>Node29&#45;&gt;Node14</title>
<g id="a_edge53_Node000029_Node000014"><a xlink:title=" ">
<path fill="none" stroke="#63b8ff" d="M932.44,-230.96C904.02,-223.12 862.25,-210.4 827.5,-195 812.03,-188.14 810.66,-181.04 794.5,-176 701.05,-146.88 427.64,-206.16 355.5,-140 324.77,-111.82 326.71,-57.85 330.33,-29.29"/>
<polygon fill="#63b8ff" stroke="#63b8ff" points="333.84,-29.47 331.84,-19.07 326.92,-28.45 333.84,-29.47"/>
</a>
</g>
</g>
<!-- Node29&#45;&gt;Node16 -->
<g id="edge47_Node000029_Node000016" class="edge">
<title>Node29&#45;&gt;Node16</title>
<g id="a_edge47_Node000029_Node000016"><a xlink:title=" ">
<path fill="none" stroke="#63b8ff" d="M1015.16,-230.93C1036.3,-224.63 1059.11,-213.75 1072.5,-195 1108.7,-144.3 1115.66,-105.73 1079.5,-55 1069.12,-40.45 1026.16,-27.59 992.64,-19.48"/>
<polygon fill="#63b8ff" stroke="#63b8ff" points="993.11,-16 982.58,-17.13 991.52,-22.82 993.11,-16"/>
</a>
</g>
</g>
<!-- Node29&#45;&gt;Node19 -->
<g id="edge51_Node000029_Node000019" class="edge">
<title>Node29&#45;&gt;Node19</title>
<g id="a_edge51_Node000029_Node000019"><a xlink:title=" ">
<path fill="none" stroke="#63b8ff" d="M994.65,-230.97C1020.6,-222.96 1059.33,-209.99 1091.5,-195 1206.45,-141.44 1333.89,-58.22 1383.31,-24.95"/>
<polygon fill="#63b8ff" stroke="#63b8ff" points="1385.55,-27.67 1391.87,-19.16 1381.63,-21.87 1385.55,-27.67"/>
</a>
</g>
</g>
<!-- Node29&#45;&gt;Node23 -->
<g id="edge48_Node000029_Node000023" class="edge">
<title>Node29&#45;&gt;Node23</title>
<g id="a_edge48_Node000029_Node000023"><a xlink:title=" ">
<path fill="none" stroke="#63b8ff" d="M951.95,-230.9C932.35,-218.52 894.91,-195.07 862.5,-176 819.46,-150.67 810.32,-140.88 764.5,-121 654.88,-73.43 518.01,-36 453.46,-19.57"/>
<polygon fill="#63b8ff" stroke="#63b8ff" points="453.92,-16.08 443.36,-17.03 452.2,-22.87 453.92,-16.08"/>
</a>
</g>
</g>
<!-- Node29&#45;&gt;Node28 -->
<g id="edge49_Node000029_Node000028" class="edge">
<title>Node29&#45;&gt;Node28</title>
<g id="a_edge49_Node000029_Node000028"><a xlink:title=" ">
<path fill="none" stroke="#63b8ff" d="M931.92,-230.98C894.66,-221.54 834.63,-206.31 795.37,-196.36"/>
<polygon fill="#63b8ff" stroke="#63b8ff" points="796.17,-192.95 785.61,-193.88 794.45,-199.73 796.17,-192.95"/>
</a>
</g>
</g>
<!-- Node30 -->
<g id="Node000030" class="node">
<title>Node30</title>
<g id="a_Node000030"><a xlink:title=" ">
<polygon fill="#e0e0e0" stroke="#999999" points="1063,-195 994,-195 994,-176 1063,-176 1063,-195"/>
<text text-anchor="middle" x="1028.5" y="-183" font-family="Helvetica,sans-Serif" font-size="10.00">petscvec.h</text>
</a>
</g>
</g>
<!-- Node29&#45;&gt;Node30 -->
<g id="edge46_Node000029_Node000030" class="edge">
<title>Node29&#45;&gt;Node30</title>
<g id="a_edge46_Node000029_Node000030"><a xlink:title=" ">
<path fill="none" stroke="#63b8ff" d="M975.62,-230.98C984.94,-223.15 998.97,-211.34 1010.24,-201.86"/>
<polygon fill="#63b8ff" stroke="#63b8ff" points="1012.79,-204.29 1018.19,-195.17 1008.29,-198.93 1012.79,-204.29"/>
</a>
</g>
</g>
<!-- Node31&#45;&gt;Node13 -->
<g id="edge59_Node000031_Node000013" class="edge">
<title>Node31&#45;&gt;Node13</title>
<g id="a_edge59_Node000031_Node000013"><a xlink:title=" ">
<path fill="none" stroke="#63b8ff" d="M457.32,-120.94C495.13,-100.49 590.94,-48.67 636.59,-23.98"/>
<polygon fill="#63b8ff" stroke="#63b8ff" points="638.4,-26.98 645.53,-19.14 635.06,-20.82 638.4,-26.98"/>
</a>
</g>
</g>
<!-- Node31&#45;&gt;Node17 -->
<g id="edge57_Node000031_Node000017" class="edge">
<title>Node31&#45;&gt;Node17</title>
<g id="a_edge57_Node000031_Node000017"><a xlink:title=" ">
<path fill="none" stroke="#63b8ff" d="M445.02,-120.94C452.93,-101.74 472.23,-54.86 482.98,-28.77"/>
<polygon fill="#63b8ff" stroke="#63b8ff" points="486.3,-29.88 486.88,-19.3 479.83,-27.22 486.3,-29.88"/>
</a>
</g>
</g>
<!-- Node31&#45;&gt;Node23 -->
<g id="edge58_Node000031_Node000023" class="edge">
<title>Node31&#45;&gt;Node23</title>
<g id="a_edge58_Node000031_Node000023"><a xlink:title=" ">
<path fill="none" stroke="#63b8ff" d="M429.01,-120.93C418.63,-112.99 404.62,-100.14 398.5,-85 390.89,-66.18 398.75,-43.33 406.34,-27.94"/>
<polygon fill="#63b8ff" stroke="#63b8ff" points="409.48,-29.48 411.12,-19.02 403.31,-26.18 409.48,-29.48"/>
</a>
</g>
</g>
<!-- Node32 -->
<g id="Node000032" class="node">
<title>Node32</title>
<g id="a_Node000032"><a xlink:href="vmath_8hpp.html" target="_top" xlink:title=" ">
<polygon fill="white" stroke="#666666" points="270.5,-79.5 142.5,-79.5 142.5,-60.5 270.5,-60.5 270.5,-79.5"/>
<text text-anchor="middle" x="206.5" y="-67.5" font-family="Helvetica,sans-Serif" font-size="10.00">vulpes/utils/vmath.hpp</text>
</a>
</g>
</g>
<!-- Node31&#45;&gt;Node32 -->
<g id="edge60_Node000031_Node000032" class="edge">
<title>Node31&#45;&gt;Node32</title>
<g id="a_edge60_Node000031_Node000032"><a xlink:title=" ">
<path fill="none" stroke="#63b8ff" d="M407.33,-120.99C365.91,-110.68 296.02,-93.28 250.58,-81.97"/>
<polygon fill="#63b8ff" stroke="#63b8ff" points="251.26,-78.54 240.71,-79.52 249.57,-85.33 251.26,-78.54"/>
</a>
</g>
</g>
<!-- Node32&#45;&gt;Node14 -->
<g id="edge66_Node000032_Node000014" class="edge">
<title>Node32&#45;&gt;Node14</title>
<g id="a_edge66_Node000032_Node000014"><a xlink:title=" ">
<path fill="none" stroke="#63b8ff" d="M224.97,-60.49C246.22,-50.7 281.35,-34.52 305.87,-23.23"/>
<polygon fill="#63b8ff" stroke="#63b8ff" points="307.39,-26.38 315.01,-19.02 304.46,-20.02 307.39,-26.38"/>
</a>
</g>
</g>
<!-- Node32&#45;&gt;Node23 -->
<g id="edge62_Node000032_Node000023" class="edge">
<title>Node32&#45;&gt;Node23</title>
<g id="a_edge62_Node000032_Node000023"><a xlink:title=" ">
<path fill="none" stroke="#63b8ff" d="M237.04,-60.49C275,-49.92 339.72,-31.89 380.18,-20.62"/>
<polygon fill="#63b8ff" stroke="#63b8ff" points="381.22,-23.96 389.92,-17.9 379.35,-17.22 381.22,-23.96"/>
</a>
</g>
</g>
<!-- Node33 -->
<g id="Node000033" class="node">
<title>Node33</title>
<g id="a_Node000033"><a xlink:title=" ">
<polygon fill="#e0e0e0" stroke="#999999" points="59,-19 0,-19 0,0 59,0 59,-19"/>
<text text-anchor="middle" x="29.5" y="-7" font-family="Helvetica,sans-Serif" font-size="10.00">gmpxx.h</text>
</a>
</g>
</g>
<!-- Node32&#45;&gt;Node33 -->
<g id="edge61_Node000032_Node000033" class="edge">
<title>Node32&#45;&gt;Node33</title>
<g id="a_edge61_Node000032_Node000033"><a xlink:title=" ">
<path fill="none" stroke="#63b8ff" d="M180.76,-60.49C150.22,-50.4 99.13,-33.51 64.88,-22.19"/>
<polygon fill="#63b8ff" stroke="#63b8ff" points="65.86,-18.83 55.27,-19.02 63.66,-25.48 65.86,-18.83"/>
</a>
</g>
</g>
<!-- Node34 -->
<g id="Node000034" class="node">
<title>Node34</title>
<g id="a_Node000034"><a xlink:title=" ">
<polygon fill="#e0e0e0" stroke="#999999" points="127.5,-19 77.5,-19 77.5,0 127.5,0 127.5,-19"/>
<text text-anchor="middle" x="102.5" y="-7" font-family="Helvetica,sans-Serif" font-size="10.00">cstdint</text>
</a>
</g>
</g>
<!-- Node32&#45;&gt;Node34 -->
<g id="edge63_Node000032_Node000034" class="edge">
<title>Node32&#45;&gt;Node34</title>
<g id="a_edge63_Node000032_Node000034"><a xlink:title=" ">
<path fill="none" stroke="#63b8ff" d="M191.15,-60.37C174.18,-50.82 146.6,-35.31 126.71,-24.12"/>
<polygon fill="#63b8ff" stroke="#63b8ff" points="128.34,-21.02 117.91,-19.17 124.91,-27.12 128.34,-21.02"/>
</a>
</g>
</g>
<!-- Node35 -->
<g id="Node000035" class="node">
<title>Node35</title>
<g id="a_Node000035"><a xlink:title=" ">
<polygon fill="#e0e0e0" stroke="#999999" points="189.5,-19 145.5,-19 145.5,0 189.5,0 189.5,-19"/>
<text text-anchor="middle" x="167.5" y="-7" font-family="Helvetica,sans-Serif" font-size="10.00">limits</text>
</a>
</g>
</g>
<!-- Node32&#45;&gt;Node35 -->
<g id="edge64_Node000032_Node000035" class="edge">
<title>Node32&#45;&gt;Node35</title>
<g id="a_edge64_Node000032_Node000035"><a xlink:title=" ">
<path fill="none" stroke="#63b8ff" d="M200.75,-60.37C195.04,-51.81 186.15,-38.47 178.99,-27.74"/>
<polygon fill="#63b8ff" stroke="#63b8ff" points="181.74,-25.55 173.28,-19.17 175.91,-29.43 181.74,-25.55"/>
</a>
</g>
</g>
<!-- Node36 -->
<g id="Node000036" class="node">
<title>Node36</title>
<g id="a_Node000036"><a xlink:title=" ">
<polygon fill="#e0e0e0" stroke="#999999" points="277,-19 208,-19 208,0 277,0 277,-19"/>
<text text-anchor="middle" x="242.5" y="-7" font-family="Helvetica,sans-Serif" font-size="10.00">type_traits</text>
</a>
</g>
</g>
<!-- Node32&#45;&gt;Node36 -->
<g id="edge65_Node000032_Node000036" class="edge">
<title>Node32&#45;&gt;Node36</title>
<g id="a_edge65_Node000032_Node000036"><a xlink:title=" ">
<path fill="none" stroke="#63b8ff" d="M211.81,-60.37C217.08,-51.81 225.29,-38.47 231.89,-27.74"/>
<polygon fill="#63b8ff" stroke="#63b8ff" points="234.91,-29.52 237.17,-19.17 228.94,-25.85 234.91,-29.52"/>
</a>
</g>
</g>
</g>
</svg>
