<?xml version="1.0" encoding="UTF-8" standalone="no"?>
<!DOCTYPE svg PUBLIC "-//W3C//DTD SVG 1.1//EN"
 "http://www.w3.org/Graphics/SVG/1.1/DTD/svg11.dtd">
<!-- Generated by graphviz version 12.2.1 (20241206.2353)
 -->
<!-- Title: /Users/ilariomazzieri/Desktop/vulpes/vulpes/geometry/mapping.hpp Pages: 1 -->
<svg width="1381pt" height="706pt"
 viewBox="0.00 0.00 1380.75 705.50" xmlns="http://www.w3.org/2000/svg" xmlns:xlink="http://www.w3.org/1999/xlink">
<g id="graph0" class="graph" transform="scale(1 1) rotate(0) translate(4 701.5)">
<title>/Users/ilariomazzieri/Desktop/vulpes/vulpes/geometry/mapping.hpp</title>
<!-- Node1 -->
<g id="Node000001" class="node">
<title>Node1</title>
<g id="a_Node000001"><a xlink:title=" ">
<polygon fill="#999999" stroke="#666666" points="823.75,-697.5 705,-697.5 705,-655.75 823.75,-655.75 823.75,-697.5"/>
<text text-anchor="start" x="713" y="-684" font-family="Helvetica,sans-Serif" font-size="10.00">/Users/ilariomazzieri</text>
<text text-anchor="start" x="713" y="-672.75" font-family="Helvetica,sans-Serif" font-size="10.00">/Desktop/vulpes/vulpes</text>
<text text-anchor="middle" x="764.38" y="-661.5" font-family="Helvetica,sans-Serif" font-size="10.00">/geometry/mapping.hpp</text>
</a>
</g>
</g>
<!-- Node2 -->
<g id="Node000002" class="node">
<title>Node2</title>
<g id="a_Node000002"><a xlink:href="cell__manager_8hpp.html" target="_top" xlink:title=" ">
<polygon fill="white" stroke="#666666" points="216.25,-614.12 76.5,-614.12 76.5,-572.38 216.25,-572.38 216.25,-614.12"/>
<text text-anchor="start" x="84.5" y="-600.62" font-family="Helvetica,sans-Serif" font-size="10.00">/Users/ilariomazzieri</text>
<text text-anchor="start" x="84.5" y="-589.38" font-family="Helvetica,sans-Serif" font-size="10.00">/Desktop/vulpes/vulpes</text>
<text text-anchor="middle" x="146.38" y="-578.12" font-family="Helvetica,sans-Serif" font-size="10.00">/assemble/cell_manager.hpp</text>
</a>
</g>
</g>
<!-- Node1&#45;&gt;Node2 -->
<g id="edge1_Node000001_Node000002" class="edge">
<title>Node1&#45;&gt;Node2</title>
<g id="a_edge1_Node000001_Node000002"><a xlink:title=" ">
<path fill="none" stroke="#63b8ff" d="M693.4,-666.28C574.21,-650.58 335.23,-619.12 216.56,-603.49"/>
<polygon fill="#63b8ff" stroke="#63b8ff" points="692.69,-669.72 703.06,-667.55 693.6,-662.78 692.69,-669.72"/>
</a>
</g>
</g>
<!-- Node10 -->
<g id="Node000010" class="node">
<title>Node10</title>
<g id="a_Node000010"><a xlink:href="fe__lagrange__simplex_8hpp.html" target="_top" xlink:title=" ">
<polygon fill="white" stroke="#666666" points="1088.62,-619.75 960.12,-619.75 960.12,-566.75 1088.62,-566.75 1088.62,-619.75"/>
<text text-anchor="start" x="968.12" y="-606.25" font-family="Helvetica,sans-Serif" font-size="10.00">/Users/ilariomazzieri</text>
<text text-anchor="start" x="968.12" y="-595" font-family="Helvetica,sans-Serif" font-size="10.00">/Desktop/vulpes/vulpes</text>
<text text-anchor="start" x="968.12" y="-583.75" font-family="Helvetica,sans-Serif" font-size="10.00">/fe/fe_spaces/fe_lagrange</text>
<text text-anchor="middle" x="1024.38" y="-572.5" font-family="Helvetica,sans-Serif" font-size="10.00">_simplex.hpp</text>
</a>
</g>
</g>
<!-- Node1&#45;&gt;Node10 -->
<g id="edge10_Node000001_Node000010" class="edge">
<title>Node1&#45;&gt;Node10</title>
<g id="a_edge10_Node000001_Node000010"><a xlink:title=" ">
<path fill="none" stroke="#63b8ff" d="M834.77,-653.59C873.8,-641.38 921.98,-626.3 960,-614.4"/>
<polygon fill="#63b8ff" stroke="#63b8ff" points="833.97,-650.18 825.47,-656.5 836.06,-656.86 833.97,-650.18"/>
</a>
</g>
</g>
<!-- Node14 -->
<g id="Node000014" class="node">
<title>Node14</title>
<g id="a_Node000014"><a xlink:href="fe__modal__tensor_8hpp.html" target="_top" xlink:title=" ">
<polygon fill="white" stroke="#666666" points="1225.75,-619.75 1107,-619.75 1107,-566.75 1225.75,-566.75 1225.75,-619.75"/>
<text text-anchor="start" x="1115" y="-606.25" font-family="Helvetica,sans-Serif" font-size="10.00">/Users/ilariomazzieri</text>
<text text-anchor="start" x="1115" y="-595" font-family="Helvetica,sans-Serif" font-size="10.00">/Desktop/vulpes/vulpes</text>
<text text-anchor="start" x="1115" y="-583.75" font-family="Helvetica,sans-Serif" font-size="10.00">/fe/fe_spaces/fe_modal</text>
<text text-anchor="middle" x="1166.38" y="-572.5" font-family="Helvetica,sans-Serif" font-size="10.00">_tensor.hpp</text>
</a>
</g>
</g>
<!-- Node1&#45;&gt;Node14 -->
<g id="edge14_Node000001_Node000014" class="edge">
<title>Node1&#45;&gt;Node14</title>
<g id="a_edge14_Node000001_Node000014"><a xlink:title=" ">
<path fill="none" stroke="#63b8ff" d="M835.46,-667.63C903.45,-659.06 1008.48,-643.41 1097.38,-619.75 1100.46,-618.93 1103.6,-618.02 1106.76,-617.06"/>
<polygon fill="#63b8ff" stroke="#63b8ff" points="835.04,-664.15 825.54,-668.86 835.9,-671.1 835.04,-664.15"/>
</a>
</g>
</g>
<!-- Node15 -->
<g id="Node000015" class="node">
<title>Node15</title>
<g id="a_Node000015"><a xlink:href="fe__values_8hpp.html" target="_top" xlink:title=" ">
<polygon fill="white" stroke="#666666" points="563.75,-614.12 445,-614.12 445,-572.38 563.75,-572.38 563.75,-614.12"/>
<text text-anchor="start" x="453" y="-600.62" font-family="Helvetica,sans-Serif" font-size="10.00">/Users/ilariomazzieri</text>
<text text-anchor="start" x="453" y="-589.38" font-family="Helvetica,sans-Serif" font-size="10.00">/Desktop/vulpes/vulpes</text>
<text text-anchor="middle" x="504.38" y="-578.12" font-family="Helvetica,sans-Serif" font-size="10.00">/fe/fe_values.hpp</text>
</a>
</g>
</g>
<!-- Node1&#45;&gt;Node15 -->
<g id="edge15_Node000001_Node000015" class="edge">
<title>Node1&#45;&gt;Node15</title>
<g id="a_edge15_Node000001_Node000015"><a xlink:title=" ">
<path fill="none" stroke="#63b8ff" d="M693.83,-653.55C653.25,-640.85 602.82,-625.06 564.2,-612.97"/>
<polygon fill="#63b8ff" stroke="#63b8ff" points="692.69,-656.86 703.28,-656.5 694.78,-650.18 692.69,-656.86"/>
</a>
</g>
</g>
<!-- Node3 -->
<g id="Node000003" class="node">
<title>Node3</title>
<g id="a_Node000003"><a xlink:href="integrator__base_8hpp.html" target="_top" xlink:title=" ">
<polygon fill="white" stroke="#666666" points="359.12,-197.25 209.62,-197.25 209.62,-155.5 359.12,-155.5 359.12,-197.25"/>
<text text-anchor="start" x="217.62" y="-183.75" font-family="Helvetica,sans-Serif" font-size="10.00">/Users/ilariomazzieri</text>
<text text-anchor="start" x="217.62" y="-172.5" font-family="Helvetica,sans-Serif" font-size="10.00">/Desktop/vulpes/vulpes</text>
<text text-anchor="middle" x="284.38" y="-161.25" font-family="Helvetica,sans-Serif" font-size="10.00">/assemble/integrator_base.hpp</text>
</a>
</g>
</g>
<!-- Node2&#45;&gt;Node3 -->
<g id="edge2_Node000002_Node000003" class="edge">
<title>Node2&#45;&gt;Node3</title>
<g id="a_edge2_Node000002_Node000003"><a xlink:title=" ">
<path fill="none" stroke="#63b8ff" d="M146.38,-560.48C146.38,-525.24 146.38,-466.68 146.38,-416.25 146.38,-416.25 146.38,-416.25 146.38,-330.88 146.38,-286.19 142.35,-268.05 170.38,-233.25 182.96,-217.63 201,-206.05 219.03,-197.62"/>
<polygon fill="#63b8ff" stroke="#63b8ff" points="142.88,-560.41 146.38,-570.41 149.88,-560.41 142.88,-560.41"/>
</a>
</g>
</g>
<!-- Node9 -->
<g id="Node000009" class="node">
<title>Node9</title>
<g id="a_Node000009"><a xlink:href="project__solution_8hpp.html" target="_top" xlink:title=" ">
<polygon fill="white" stroke="#666666" points="118.75,-530.75 0,-530.75 0,-477.75 118.75,-477.75 118.75,-530.75"/>
<text text-anchor="start" x="8" y="-517.25" font-family="Helvetica,sans-Serif" font-size="10.00">/Users/ilariomazzieri</text>
<text text-anchor="start" x="8" y="-506" font-family="Helvetica,sans-Serif" font-size="10.00">/Desktop/vulpes/vulpes</text>
<text text-anchor="start" x="8" y="-494.75" font-family="Helvetica,sans-Serif" font-size="10.00">/postprocessing/project</text>
<text text-anchor="middle" x="59.38" y="-483.5" font-family="Helvetica,sans-Serif" font-size="10.00">_solution.hpp</text>
</a>
</g>
</g>
<!-- Node2&#45;&gt;Node9 -->
<g id="edge9_Node000002_Node000009" class="edge">
<title>Node2&#45;&gt;Node9</title>
<g id="a_edge9_Node000002_Node000009"><a xlink:title=" ">
<path fill="none" stroke="#63b8ff" d="M118.35,-564.23C107.66,-553.53 95.53,-541.41 85.07,-530.94"/>
<polygon fill="#63b8ff" stroke="#63b8ff" points="115.58,-566.41 125.13,-571 120.53,-561.46 115.58,-566.41"/>
</a>
</g>
</g>
<!-- Node4 -->
<g id="Node000004" class="node">
<title>Node4</title>
<g id="a_Node000004"><a xlink:href="integrator__gauss_8hpp.html" target="_top" xlink:title=" ">
<polygon fill="white" stroke="#666666" points="361.75,-119.5 207,-119.5 207,-77.75 361.75,-77.75 361.75,-119.5"/>
<text text-anchor="start" x="215" y="-106" font-family="Helvetica,sans-Serif" font-size="10.00">/Users/ilariomazzieri</text>
<text text-anchor="start" x="215" y="-94.75" font-family="Helvetica,sans-Serif" font-size="10.00">/Desktop/vulpes/vulpes</text>
<text text-anchor="middle" x="284.38" y="-83.5" font-family="Helvetica,sans-Serif" font-size="10.00">/assemble/integrator_gauss.hpp</text>
</a>
</g>
</g>
<!-- Node3&#45;&gt;Node4 -->
<g id="edge3_Node000003_Node000004" class="edge">
<title>Node3&#45;&gt;Node4</title>
<g id="a_edge3_Node000003_Node000004"><a xlink:title=" ">
<path fill="none" stroke="#63b8ff" d="M284.38,-143.75C284.38,-135.71 284.38,-127.29 284.38,-119.98"/>
<polygon fill="#63b8ff" stroke="#63b8ff" points="280.88,-143.56 284.38,-153.56 287.88,-143.56 280.88,-143.56"/>
</a>
</g>
</g>
<!-- Node5 -->
<g id="Node000005" class="node">
<title>Node5</title>
<g id="a_Node000005"><a xlink:href="integrator__qfree_8hpp.html" target="_top" xlink:title=" ">
<polygon fill="white" stroke="#666666" points="188.5,-119.5 38.25,-119.5 38.25,-77.75 188.5,-77.75 188.5,-119.5"/>
<text text-anchor="start" x="46.25" y="-106" font-family="Helvetica,sans-Serif" font-size="10.00">/Users/ilariomazzieri</text>
<text text-anchor="start" x="46.25" y="-94.75" font-family="Helvetica,sans-Serif" font-size="10.00">/Desktop/vulpes/vulpes</text>
<text text-anchor="middle" x="113.38" y="-83.5" font-family="Helvetica,sans-Serif" font-size="10.00">/assemble/integrator_qfree.hpp</text>
</a>
</g>
</g>
<!-- Node3&#45;&gt;Node5 -->
<g id="edge4_Node000003_Node000005" class="edge">
<title>Node3&#45;&gt;Node5</title>
<g id="a_edge4_Node000003_Node000005"><a xlink:title=" ">
<path fill="none" stroke="#63b8ff" d="M228.2,-150.49C205.88,-140.6 180.52,-129.37 159.33,-119.98"/>
<polygon fill="#63b8ff" stroke="#63b8ff" points="226.61,-153.61 237.17,-154.46 229.44,-147.21 226.61,-153.61"/>
</a>
</g>
</g>
<!-- Node7 -->
<g id="Node000007" class="node">
<title>Node7</title>
<g id="a_Node000007"><a xlink:href="integrator__simplexify_8hpp.html" target="_top" xlink:title=" ">
<polygon fill="white" stroke="#666666" points="551,-119.5 379.75,-119.5 379.75,-77.75 551,-77.75 551,-119.5"/>
<text text-anchor="start" x="387.75" y="-106" font-family="Helvetica,sans-Serif" font-size="10.00">/Users/ilariomazzieri</text>
<text text-anchor="start" x="387.75" y="-94.75" font-family="Helvetica,sans-Serif" font-size="10.00">/Desktop/vulpes/vulpes</text>
<text text-anchor="middle" x="465.38" y="-83.5" font-family="Helvetica,sans-Serif" font-size="10.00">/assemble/integrator_simplexify.hpp</text>
</a>
</g>
</g>
<!-- Node3&#45;&gt;Node7 -->
<g id="edge6_Node000003_Node000007" class="edge">
<title>Node3&#45;&gt;Node7</title>
<g id="a_edge6_Node000003_Node000007"><a xlink:title=" ">
<path fill="none" stroke="#63b8ff" d="M343.19,-150.76C366.97,-140.81 394.1,-129.46 416.74,-119.98"/>
<polygon fill="#63b8ff" stroke="#63b8ff" points="342.15,-147.4 334.28,-154.49 344.85,-153.86 342.15,-147.4"/>
</a>
</g>
</g>
<!-- Node6 -->
<g id="Node000006" class="node">
<title>Node6</title>
<g id="a_Node000006"><a xlink:href="integrator__vem_8hpp.html" target="_top" xlink:title=" ">
<polygon fill="white" stroke="#666666" points="345,-41.75 197.75,-41.75 197.75,0 345,0 345,-41.75"/>
<text text-anchor="start" x="205.75" y="-28.25" font-family="Helvetica,sans-Serif" font-size="10.00">/Users/ilariomazzieri</text>
<text text-anchor="start" x="205.75" y="-17" font-family="Helvetica,sans-Serif" font-size="10.00">/Desktop/vulpes/vulpes</text>
<text text-anchor="middle" x="271.38" y="-5.75" font-family="Helvetica,sans-Serif" font-size="10.00">/assemble/integrator_vem.hpp</text>
</a>
</g>
</g>
<!-- Node5&#45;&gt;Node6 -->
<g id="edge5_Node000005_Node000006" class="edge">
<title>Node5&#45;&gt;Node6</title>
<g id="a_edge5_Node000005_Node000006"><a xlink:title=" ">
<path fill="none" stroke="#63b8ff" d="M165.84,-72.47C186.33,-62.65 209.51,-51.54 228.92,-42.23"/>
<polygon fill="#63b8ff" stroke="#63b8ff" points="164.59,-69.19 157.08,-76.67 167.61,-75.5 164.59,-69.19"/>
</a>
</g>
</g>
<!-- Node7&#45;&gt;Node6 -->
<g id="edge8_Node000007_Node000006" class="edge">
<title>Node7&#45;&gt;Node6</title>
<g id="a_edge8_Node000007_Node000006"><a xlink:title=" ">
<path fill="none" stroke="#63b8ff" d="M402.68,-73.14C377.1,-63.16 347.88,-51.75 323.51,-42.23"/>
<polygon fill="#63b8ff" stroke="#63b8ff" points="401.39,-76.4 411.98,-76.77 403.93,-69.88 401.39,-76.4"/>
</a>
</g>
</g>
<!-- Node8 -->
<g id="Node000008" class="node">
<title>Node8</title>
<g id="a_Node000008"><a xlink:href="dg__utils_8hpp.html" target="_top" xlink:title=" ">
<polygon fill="white" stroke="#666666" points="638.75,-41.75 520,-41.75 520,0 638.75,0 638.75,-41.75"/>
<text text-anchor="start" x="528" y="-28.25" font-family="Helvetica,sans-Serif" font-size="10.00">/Users/ilariomazzieri</text>
<text text-anchor="start" x="528" y="-17" font-family="Helvetica,sans-Serif" font-size="10.00">/Desktop/vulpes/vulpes</text>
<text text-anchor="middle" x="579.38" y="-5.75" font-family="Helvetica,sans-Serif" font-size="10.00">/assemble/dg_utils.hpp</text>
</a>
</g>
</g>
<!-- Node7&#45;&gt;Node8 -->
<g id="edge7_Node000007_Node000008" class="edge">
<title>Node7&#45;&gt;Node8</title>
<g id="a_edge7_Node000007_Node000008"><a xlink:title=" ">
<path fill="none" stroke="#63b8ff" d="M505.47,-70.98C519.68,-61.54 535.44,-51.07 548.74,-42.23"/>
<polygon fill="#63b8ff" stroke="#63b8ff" points="503.58,-68.04 497.19,-76.49 507.45,-73.87 503.58,-68.04"/>
</a>
</g>
</g>
<!-- Node11 -->
<g id="Node000011" class="node">
<title>Node11</title>
<g id="a_Node000011"><a xlink:href="fe__lagrange__simplex_8cpp.html" target="_top" xlink:title=" ">
<polygon fill="white" stroke="#666666" points="1088.62,-530.75 960.12,-530.75 960.12,-477.75 1088.62,-477.75 1088.62,-530.75"/>
<text text-anchor="start" x="968.12" y="-517.25" font-family="Helvetica,sans-Serif" font-size="10.00">/Users/ilariomazzieri</text>
<text text-anchor="start" x="968.12" y="-506" font-family="Helvetica,sans-Serif" font-size="10.00">/Desktop/vulpes/vulpes</text>
<text text-anchor="start" x="968.12" y="-494.75" font-family="Helvetica,sans-Serif" font-size="10.00">/fe/fe_spaces/fe_lagrange</text>
<text text-anchor="middle" x="1024.38" y="-483.5" font-family="Helvetica,sans-Serif" font-size="10.00">_simplex.cpp</text>
</a>
</g>
</g>
<!-- Node10&#45;&gt;Node11 -->
<g id="edge11_Node000010_Node000011" class="edge">
<title>Node10&#45;&gt;Node11</title>
<g id="a_edge11_Node000010_Node000011"><a xlink:title=" ">
<path fill="none" stroke="#63b8ff" d="M1024.38,-555.36C1024.38,-547.16 1024.38,-538.64 1024.38,-531"/>
<polygon fill="#63b8ff" stroke="#63b8ff" points="1020.88,-555.1 1024.38,-565.1 1027.88,-555.1 1020.88,-555.1"/>
</a>
</g>
</g>
<!-- Node12 -->
<g id="Node000012" class="node">
<title>Node12</title>
<g id="a_Node000012"><a xlink:href="fe__lagrange__tensor_8hpp.html" target="_top" xlink:title=" ">
<polygon fill="white" stroke="#666666" points="1235.62,-530.75 1107.12,-530.75 1107.12,-477.75 1235.62,-477.75 1235.62,-530.75"/>
<text text-anchor="start" x="1115.12" y="-517.25" font-family="Helvetica,sans-Serif" font-size="10.00">/Users/ilariomazzieri</text>
<text text-anchor="start" x="1115.12" y="-506" font-family="Helvetica,sans-Serif" font-size="10.00">/Desktop/vulpes/vulpes</text>
<text text-anchor="start" x="1115.12" y="-494.75" font-family="Helvetica,sans-Serif" font-size="10.00">/fe/fe_spaces/fe_lagrange</text>
<text text-anchor="middle" x="1171.38" y="-483.5" font-family="Helvetica,sans-Serif" font-size="10.00">_tensor.hpp</text>
</a>
</g>
</g>
<!-- Node10&#45;&gt;Node12 -->
<g id="edge12_Node000010_Node000012" class="edge">
<title>Node10&#45;&gt;Node12</title>
<g id="a_edge12_Node000010_Node000012"><a xlink:title=" ">
<path fill="none" stroke="#63b8ff" d="M1077.55,-560.78C1093.98,-551.06 1111.87,-540.47 1127.58,-531.17"/>
<polygon fill="#63b8ff" stroke="#63b8ff" points="1076.21,-557.51 1069.38,-565.61 1079.77,-563.53 1076.21,-557.51"/>
</a>
</g>
</g>
<!-- Node13 -->
<g id="Node000013" class="node">
<title>Node13</title>
<g id="a_Node000013"><a xlink:href="fe__modal__simplex_8hpp.html" target="_top" xlink:title=" ">
<polygon fill="white" stroke="#666666" points="1372.75,-530.75 1254,-530.75 1254,-477.75 1372.75,-477.75 1372.75,-530.75"/>
<text text-anchor="start" x="1262" y="-517.25" font-family="Helvetica,sans-Serif" font-size="10.00">/Users/ilariomazzieri</text>
<text text-anchor="start" x="1262" y="-506" font-family="Helvetica,sans-Serif" font-size="10.00">/Desktop/vulpes/vulpes</text>
<text text-anchor="start" x="1262" y="-494.75" font-family="Helvetica,sans-Serif" font-size="10.00">/fe/fe_spaces/fe_modal</text>
<text text-anchor="middle" x="1313.38" y="-483.5" font-family="Helvetica,sans-Serif" font-size="10.00">_simplex.hpp</text>
</a>
</g>
</g>
<!-- Node10&#45;&gt;Node13 -->
<g id="edge13_Node000010_Node000013" class="edge">
<title>Node10&#45;&gt;Node13</title>
<g id="a_edge13_Node000010_Node000013"><a xlink:title=" ">
<path fill="none" stroke="#63b8ff" d="M1099.64,-566.51C1164.42,-548.04 1183.73,-549.37 1244.38,-530.75 1247.43,-529.81 1250.54,-528.82 1253.68,-527.78"/>
<polygon fill="#63b8ff" stroke="#63b8ff" points="1098.92,-563.08 1090.29,-569.23 1100.87,-569.8 1098.92,-563.08"/>
</a>
</g>
</g>
<!-- Node15&#45;&gt;Node3 -->
<g id="edge17_Node000015_Node000003" class="edge">
<title>Node15&#45;&gt;Node3</title>
<g id="a_edge17_Node000015_Node000003"><a xlink:title=" ">
<path fill="none" stroke="#63b8ff" d="M433.38,-584.62C339.11,-570.12 184.38,-529.12 184.38,-416.25 184.38,-416.25 184.38,-416.25 184.38,-330.88 184.38,-286.67 179.17,-270.23 203.38,-233.25 213.01,-218.53 228.01,-206.61 242.49,-197.62"/>
<polygon fill="#63b8ff" stroke="#63b8ff" points="432.66,-588.06 443.06,-586.05 433.68,-581.13 432.66,-588.06"/>
</a>
</g>
</g>
<!-- Node15&#45;&gt;Node8 -->
<g id="edge16_Node000015_Node000008" class="edge">
<title>Node15&#45;&gt;Node8</title>
<g id="a_edge16_Node000015_Node000008"><a xlink:title=" ">
<path fill="none" stroke="#63b8ff" d="M574.92,-578.43C696.45,-552.6 932.38,-492.6 932.38,-416.25 932.38,-416.25 932.38,-416.25 932.38,-175.38 932.38,-48.9 739.46,-25.53 638.86,-21.95"/>
<polygon fill="#63b8ff" stroke="#63b8ff" points="574.43,-574.96 565.37,-580.44 575.87,-581.81 574.43,-574.96"/>
</a>
</g>
</g>
<!-- Node16 -->
<g id="Node000016" class="node">
<title>Node16</title>
<g id="a_Node000016"><a xlink:href="integrator__traits_8hpp.html" target="_top" xlink:title=" ">
<polygon fill="white" stroke="#666666" points="362.5,-275 212.25,-275 212.25,-233.25 362.5,-233.25 362.5,-275"/>
<text text-anchor="start" x="220.25" y="-261.5" font-family="Helvetica,sans-Serif" font-size="10.00">/Users/ilariomazzieri</text>
<text text-anchor="start" x="220.25" y="-250.25" font-family="Helvetica,sans-Serif" font-size="10.00">/Desktop/vulpes/vulpes</text>
<text text-anchor="middle" x="287.38" y="-239" font-family="Helvetica,sans-Serif" font-size="10.00">/assemble/integrator_traits.hpp</text>
</a>
</g>
</g>
<!-- Node15&#45;&gt;Node16 -->
<g id="edge18_Node000015_Node000016" class="edge">
<title>Node15&#45;&gt;Node16</title>
<g id="a_edge18_Node000015_Node000016"><a xlink:title=" ">
<path fill="none" stroke="#63b8ff" d="M433.87,-573.69C370.91,-552.97 282.48,-512.63 241.38,-441.75 209.65,-387.05 250.1,-311.07 273.25,-275.29"/>
<polygon fill="#63b8ff" stroke="#63b8ff" points="432.49,-576.93 443.08,-576.63 434.62,-570.26 432.49,-576.93"/>
</a>
</g>
</g>
<!-- Node17 -->
<g id="Node000017" class="node">
<title>Node17</title>
<g id="a_Node000017"><a xlink:href="fe__expr__base_8hpp.html" target="_top" xlink:title=" ">
<polygon fill="white" stroke="#666666" points="570.12,-530.75 438.62,-530.75 438.62,-477.75 570.12,-477.75 570.12,-530.75"/>
<text text-anchor="start" x="446.62" y="-517.25" font-family="Helvetica,sans-Serif" font-size="10.00">/Users/ilariomazzieri</text>
<text text-anchor="start" x="446.62" y="-506" font-family="Helvetica,sans-Serif" font-size="10.00">/Desktop/vulpes/vulpes</text>
<text text-anchor="start" x="446.62" y="-494.75" font-family="Helvetica,sans-Serif" font-size="10.00">/fe/fe_expressions/fe_expr</text>
<text text-anchor="middle" x="504.38" y="-483.5" font-family="Helvetica,sans-Serif" font-size="10.00">_base.hpp</text>
</a>
</g>
</g>
<!-- Node15&#45;&gt;Node17 -->
<g id="edge20_Node000015_Node000017" class="edge">
<title>Node15&#45;&gt;Node17</title>
<g id="a_edge20_Node000015_Node000017"><a xlink:title=" ">
<path fill="none" stroke="#63b8ff" d="M504.38,-560.72C504.38,-550.94 504.38,-540.28 504.38,-530.94"/>
<polygon fill="#63b8ff" stroke="#63b8ff" points="500.88,-560.56 504.38,-570.56 507.88,-560.56 500.88,-560.56"/>
</a>
</g>
</g>
<!-- Node16&#45;&gt;Node3 -->
<g id="edge19_Node000016_Node000003" class="edge">
<title>Node16&#45;&gt;Node3</title>
<g id="a_edge19_Node000016_Node000003"><a xlink:title=" ">
<path fill="none" stroke="#63b8ff" d="M286.12,-221.5C285.8,-213.46 285.47,-205.04 285.18,-197.73"/>
<polygon fill="#63b8ff" stroke="#63b8ff" points="282.62,-221.46 286.51,-231.31 289.61,-221.18 282.62,-221.46"/>
</a>
</g>
</g>
<!-- Node18 -->
<g id="Node000018" class="node">
<title>Node18</title>
<g id="a_Node000018"><a xlink:href="fe__expression_8hpp.html" target="_top" xlink:title=" ">
<polygon fill="white" stroke="#666666" points="563.75,-352.75 445,-352.75 445,-311 563.75,-311 563.75,-352.75"/>
<text text-anchor="start" x="453" y="-339.25" font-family="Helvetica,sans-Serif" font-size="10.00">/Users/ilariomazzieri</text>
<text text-anchor="start" x="453" y="-328" font-family="Helvetica,sans-Serif" font-size="10.00">/Desktop/vulpes/vulpes</text>
<text text-anchor="middle" x="504.38" y="-316.75" font-family="Helvetica,sans-Serif" font-size="10.00">/fe/fe_expression.hpp</text>
</a>
</g>
</g>
<!-- Node17&#45;&gt;Node18 -->
<g id="edge21_Node000017_Node000018" class="edge">
<title>Node17&#45;&gt;Node18</title>
<g id="a_edge21_Node000017_Node000018"><a xlink:title=" ">
<path fill="none" stroke="#63b8ff" d="M451.3,-470.07C442.42,-461.96 434.45,-452.48 429.38,-441.75 419.3,-420.46 418.81,-409.8 429.38,-388.75 436.81,-373.95 450.22,-362.07 463.67,-353.14"/>
<polygon fill="#63b8ff" stroke="#63b8ff" points="448.96,-472.68 458.87,-476.44 453.47,-467.32 448.96,-472.68"/>
</a>
</g>
</g>
<!-- Node20 -->
<g id="Node000020" class="node">
<title>Node20</title>
<g id="a_Node000020"><a xlink:href="fe__expr__basis_8hpp.html" target="_top" xlink:title=" ">
<polygon fill="white" stroke="#666666" points="570.12,-441.75 438.62,-441.75 438.62,-388.75 570.12,-388.75 570.12,-441.75"/>
<text text-anchor="start" x="446.62" y="-428.25" font-family="Helvetica,sans-Serif" font-size="10.00">/Users/ilariomazzieri</text>
<text text-anchor="start" x="446.62" y="-417" font-family="Helvetica,sans-Serif" font-size="10.00">/Desktop/vulpes/vulpes</text>
<text text-anchor="start" x="446.62" y="-405.75" font-family="Helvetica,sans-Serif" font-size="10.00">/fe/fe_expressions/fe_expr</text>
<text text-anchor="middle" x="504.38" y="-394.5" font-family="Helvetica,sans-Serif" font-size="10.00">_basis.hpp</text>
</a>
</g>
</g>
<!-- Node17&#45;&gt;Node20 -->
<g id="edge26_Node000017_Node000020" class="edge">
<title>Node17&#45;&gt;Node20</title>
<g id="a_edge26_Node000017_Node000020"><a xlink:title=" ">
<path fill="none" stroke="#63b8ff" d="M504.38,-466.36C504.38,-458.16 504.38,-449.64 504.38,-442"/>
<polygon fill="#63b8ff" stroke="#63b8ff" points="500.88,-466.1 504.38,-476.1 507.88,-466.1 500.88,-466.1"/>
</a>
</g>
</g>
<!-- Node21 -->
<g id="Node000021" class="node">
<title>Node21</title>
<g id="a_Node000021"><a xlink:href="fe__expr__func_8hpp.html" target="_top" xlink:title=" ">
<polygon fill="white" stroke="#666666" points="720.12,-441.75 588.62,-441.75 588.62,-388.75 720.12,-388.75 720.12,-441.75"/>
<text text-anchor="start" x="596.62" y="-428.25" font-family="Helvetica,sans-Serif" font-size="10.00">/Users/ilariomazzieri</text>
<text text-anchor="start" x="596.62" y="-417" font-family="Helvetica,sans-Serif" font-size="10.00">/Desktop/vulpes/vulpes</text>
<text text-anchor="start" x="596.62" y="-405.75" font-family="Helvetica,sans-Serif" font-size="10.00">/fe/fe_expressions/fe_expr</text>
<text text-anchor="middle" x="654.38" y="-394.5" font-family="Helvetica,sans-Serif" font-size="10.00">_func.hpp</text>
</a>
</g>
</g>
<!-- Node17&#45;&gt;Node21 -->
<g id="edge28_Node000017_Node000021" class="edge">
<title>Node17&#45;&gt;Node21</title>
<g id="a_edge28_Node000017_Node000021"><a xlink:title=" ">
<path fill="none" stroke="#63b8ff" d="M558.64,-471.78C575.4,-462.06 593.65,-451.47 609.69,-442.17"/>
<polygon fill="#63b8ff" stroke="#63b8ff" points="557.18,-468.58 550.28,-476.62 560.69,-474.63 557.18,-468.58"/>
</a>
</g>
</g>
<!-- Node22 -->
<g id="Node000022" class="node">
<title>Node22</title>
<g id="a_Node000022"><a xlink:href="fe__expr__op_8hpp.html" target="_top" xlink:title=" ">
<polygon fill="white" stroke="#666666" points="904.38,-436.12 738.38,-436.12 738.38,-394.38 904.38,-394.38 904.38,-436.12"/>
<text text-anchor="start" x="746.38" y="-422.62" font-family="Helvetica,sans-Serif" font-size="10.00">/Users/ilariomazzieri</text>
<text text-anchor="start" x="746.38" y="-411.38" font-family="Helvetica,sans-Serif" font-size="10.00">/Desktop/vulpes/vulpes</text>
<text text-anchor="middle" x="821.38" y="-400.12" font-family="Helvetica,sans-Serif" font-size="10.00">/fe/fe_expressions/fe_expr_op.hpp</text>
</a>
</g>
</g>
<!-- Node17&#45;&gt;Node22 -->
<g id="edge30_Node000017_Node000022" class="edge">
<title>Node17&#45;&gt;Node22</title>
<g id="a_edge30_Node000017_Node000022"><a xlink:title=" ">
<path fill="none" stroke="#63b8ff" d="M581.42,-482.26C624.88,-470.41 680.17,-455.29 729.38,-441.75 735.45,-440.08 741.74,-438.34 748.06,-436.6"/>
<polygon fill="#63b8ff" stroke="#63b8ff" points="580.54,-478.88 571.82,-484.88 582.38,-485.63 580.54,-478.88"/>
</a>
</g>
</g>
<!-- Node23 -->
<g id="Node000023" class="node">
<title>Node23</title>
<g id="a_Node000023"><a xlink:href="fe__expr__unary_8hpp.html" target="_top" xlink:title=" ">
<polygon fill="white" stroke="#666666" points="382.12,-441.75 250.62,-441.75 250.62,-388.75 382.12,-388.75 382.12,-441.75"/>
<text text-anchor="start" x="258.62" y="-428.25" font-family="Helvetica,sans-Serif" font-size="10.00">/Users/ilariomazzieri</text>
<text text-anchor="start" x="258.62" y="-417" font-family="Helvetica,sans-Serif" font-size="10.00">/Desktop/vulpes/vulpes</text>
<text text-anchor="start" x="258.62" y="-405.75" font-family="Helvetica,sans-Serif" font-size="10.00">/fe/fe_expressions/fe_expr</text>
<text text-anchor="middle" x="316.38" y="-394.5" font-family="Helvetica,sans-Serif" font-size="10.00">_unary.hpp</text>
</a>
</g>
</g>
<!-- Node17&#45;&gt;Node23 -->
<g id="edge32_Node000017_Node000023" class="edge">
<title>Node17&#45;&gt;Node23</title>
<g id="a_edge32_Node000017_Node000023"><a xlink:title=" ">
<path fill="none" stroke="#63b8ff" d="M437.88,-472.48C416.41,-462.54 392.85,-451.64 372.24,-442.1"/>
<polygon fill="#63b8ff" stroke="#63b8ff" points="436.3,-475.61 446.85,-476.63 439.24,-469.25 436.3,-475.61"/>
</a>
</g>
</g>
<!-- Node18&#45;&gt;Node3 -->
<g id="edge23_Node000018_Node000003" class="edge">
<title>Node18&#45;&gt;Node3</title>
<g id="a_edge23_Node000018_Node000003"><a xlink:title=" ">
<path fill="none" stroke="#63b8ff" d="M520.05,-300.35C528.41,-279.38 534.22,-252.04 519.38,-233.25 499.62,-208.24 420.47,-193.23 359.43,-185.17"/>
<polygon fill="#63b8ff" stroke="#63b8ff" points="516.95,-298.71 516.16,-309.27 523.37,-301.51 516.95,-298.71"/>
</a>
</g>
</g>
<!-- Node18&#45;&gt;Node8 -->
<g id="edge22_Node000018_Node000008" class="edge">
<title>Node18&#45;&gt;Node8</title>
<g id="a_edge22_Node000018_Node000008"><a xlink:title=" ">
<path fill="none" stroke="#63b8ff" d="M525.34,-301.19C530.29,-293.02 535.08,-283.94 538.38,-275 568.9,-192.31 576.73,-86.11 578.72,-42.23"/>
<polygon fill="#63b8ff" stroke="#63b8ff" points="522.56,-299.04 520.13,-309.35 528.46,-302.8 522.56,-299.04"/>
</a>
</g>
</g>
<!-- Node18&#45;&gt;Node16 -->
<g id="edge24_Node000018_Node000016" class="edge">
<title>Node18&#45;&gt;Node16</title>
<g id="a_edge24_Node000018_Node000016"><a xlink:title=" ">
<path fill="none" stroke="#63b8ff" d="M435.39,-306.79C406.52,-296.71 373.32,-285.13 345.69,-275.48"/>
<polygon fill="#63b8ff" stroke="#63b8ff" points="434.2,-310.09 444.79,-310.08 436.51,-303.48 434.2,-310.09"/>
</a>
</g>
</g>
<!-- Node19 -->
<g id="Node000019" class="node">
<title>Node19</title>
<g id="a_Node000019"><a xlink:href="fe__vem_8hpp.html" target="_top" xlink:title=" ">
<polygon fill="white" stroke="#666666" points="510,-275 380.75,-275 380.75,-233.25 510,-233.25 510,-275"/>
<text text-anchor="start" x="388.75" y="-261.5" font-family="Helvetica,sans-Serif" font-size="10.00">/Users/ilariomazzieri</text>
<text text-anchor="start" x="388.75" y="-250.25" font-family="Helvetica,sans-Serif" font-size="10.00">/Desktop/vulpes/vulpes</text>
<text text-anchor="middle" x="445.38" y="-239" font-family="Helvetica,sans-Serif" font-size="10.00">/fe/fe_spaces/fe_vem.hpp</text>
</a>
</g>
</g>
<!-- Node18&#45;&gt;Node19 -->
<g id="edge25_Node000018_Node000019" class="edge">
<title>Node18&#45;&gt;Node19</title>
<g id="a_edge25_Node000018_Node000019"><a xlink:title=" ">
<path fill="none" stroke="#63b8ff" d="M481.7,-301.76C474.87,-292.99 467.52,-283.55 461.23,-275.48"/>
<polygon fill="#63b8ff" stroke="#63b8ff" points="478.73,-303.64 487.63,-309.38 484.25,-299.34 478.73,-303.64"/>
</a>
</g>
</g>
<!-- Node20&#45;&gt;Node18 -->
<g id="edge27_Node000020_Node000018" class="edge">
<title>Node20&#45;&gt;Node18</title>
<g id="a_edge27_Node000020_Node000018"><a xlink:title=" ">
<path fill="none" stroke="#63b8ff" d="M504.38,-377.08C504.38,-368.8 504.38,-360.33 504.38,-353.04"/>
<polygon fill="#63b8ff" stroke="#63b8ff" points="500.88,-376.99 504.38,-386.99 507.88,-376.99 500.88,-376.99"/>
</a>
</g>
</g>
<!-- Node21&#45;&gt;Node18 -->
<g id="edge29_Node000021_Node000018" class="edge">
<title>Node21&#45;&gt;Node18</title>
<g id="a_edge29_Node000021_Node000018"><a xlink:title=" ">
<path fill="none" stroke="#63b8ff" d="M596.49,-382.85C578.14,-372.89 558.35,-362.16 541.83,-353.19"/>
<polygon fill="#63b8ff" stroke="#63b8ff" points="594.71,-385.86 605.17,-387.56 598.05,-379.71 594.71,-385.86"/>
</a>
</g>
</g>
<!-- Node22&#45;&gt;Node18 -->
<g id="edge31_Node000022_Node000018" class="edge">
<title>Node22&#45;&gt;Node18</title>
<g id="a_edge31_Node000022_Node000018"><a xlink:title=" ">
<path fill="none" stroke="#63b8ff" d="M737.69,-390.95C734.89,-390.2 732.11,-389.47 729.38,-388.75 673.51,-374.07 609.58,-358.3 564.18,-347.26"/>
<polygon fill="#63b8ff" stroke="#63b8ff" points="736.58,-394.28 747.14,-393.49 738.4,-387.52 736.58,-394.28"/>
</a>
</g>
</g>
<!-- Node23&#45;&gt;Node18 -->
<g id="edge33_Node000023_Node000018" class="edge">
<title>Node23&#45;&gt;Node18</title>
<g id="a_edge33_Node000023_Node000018"><a xlink:title=" ">
<path fill="none" stroke="#63b8ff" d="M386.7,-383.81C410.31,-373.59 436.06,-362.45 457.43,-353.19"/>
<polygon fill="#63b8ff" stroke="#63b8ff" points="385.55,-380.49 377.77,-387.68 388.33,-386.92 385.55,-380.49"/>
</a>
</g>
</g>
</g>
</svg>
