<?xml version="1.0" encoding="UTF-8" standalone="no"?>
<!DOCTYPE svg PUBLIC "-//W3C//DTD SVG 1.1//EN"
 "http://www.w3.org/Graphics/SVG/1.1/DTD/svg11.dtd">
<!-- Generated by graphviz version 12.2.1 (20241206.2353)
 -->
<!-- Title: /Users/ilariomazzieri/Desktop/vulpes/vulpes/geometry/mapping.hpp Pages: 1 -->
<!--zoomable 795 -->

<svg id="main" version="1.1" xmlns="http://www.w3.org/2000/svg" xmlns:xlink="http://www.w3.org/1999/xlink" xml:space="preserve" onload="init(evt)">
<style type="text/css"><![CDATA[
.node, .edge {opacity: 0.7;}
.node.selected, .edge.selected {opacity: 1;}
.edge:hover path { stroke: red; }
.edge:hover polygon { stroke: red; fill: red; }
]]></style>

<defs>
  <circle id="rim" cx="0" cy="0" r="7"/>
  <circle id="rim2" cx="0" cy="0" r="3.5"/>
  <g id="zoomPlus">
    <use xlink:href="#rim" fill="#404040"><set attributeName="fill" to="#808080" begin="zoomplus.mouseover" end="zoomplus.mouseout"/></use>
    <path d="M-4,0h8M0,-4v8" fill="none" stroke="white" stroke-width="1.5" pointer-events="none"/>
  </g>
  <g id="zoomMin">
    <use xlink:href="#rim" fill="#404040"><set attributeName="fill" to="#808080" begin="zoomminus.mouseover" end="zoomminus.mouseout"/></use>
    <path d="M-4,0h8" fill="none" stroke="white" stroke-width="1.5" pointer-events="none"/>
  </g>
  <g id="arrowUp" transform="translate(30 24)">
    <use xlink:href="#rim"/>
    <path pointer-events="none" fill="none" stroke="white" stroke-width="1.5" d="M0,-3.0v7 M-2.5,-0.5L0,-3.0L2.5,-0.5"/>
  </g>
  <g id="arrowRight" transform="rotate(90) translate(36 -43)">
    <use xlink:href="#rim"/>
    <path pointer-events="none" fill="none" stroke="white" stroke-width="1.5" d="M0,-3.0v7 M-2.5,-0.5L0,-3.0L2.5,-0.5"/>
  </g>
  <g id="arrowDown" transform="rotate(180) translate(-30 -48)">
    <use xlink:href="#rim"/>
    <path pointer-events="none" fill="none" stroke="white" stroke-width="1.5" d="M0,-3.0v7 M-2.5,-0.5L0,-3.0L2.5,-0.5"/>
  </g>
  <g id="arrowLeft" transform="rotate(270) translate(-36 17)">
    <use xlink:href="#rim"/>
    <path pointer-events="none" fill="none" stroke="white" stroke-width="1.5" d="M0,-3.0v7 M-2.5,-0.5L0,-3.0L2.5,-0.5"/>
  </g>
  <g id="resetDef">
    <use xlink:href="#rim2" fill="#404040"><set attributeName="fill" to="#808080" begin="reset.mouseover" end="reset.mouseout"/></use>
  </g>
</defs>
<script type="application/ecmascript">
var viewWidth = 1307;
var viewHeight = 795;
var sectionId = 'dynsection-1';
</script>
<script type="application/ecmascript" xlink:href="svg.min.js"/>
<svg id="graph" class="graph">
<g id="viewport">
<title>/Users/ilariomazzieri/Desktop/vulpes/vulpes/geometry/mapping.hpp</title>
<!-- Node1 -->
<g id="Node000001" class="node">
<title>Node1</title>
<g id="a_Node000001"><a xlink:title=" ">
<polygon fill="#999999" stroke="#666666" points="823.75,-786.5 705,-786.5 705,-744.75 823.75,-744.75 823.75,-786.5"/>
<text text-anchor="start" x="713" y="-773" font-family="Helvetica,sans-Serif" font-size="10.00">/Users/ilariomazzieri</text>
<text text-anchor="start" x="713" y="-761.75" font-family="Helvetica,sans-Serif" font-size="10.00">/Desktop/vulpes/vulpes</text>
<text text-anchor="middle" x="764.38" y="-750.5" font-family="Helvetica,sans-Serif" font-size="10.00">/geometry/mapping.hpp</text>
</a>
</g>
</g>
<!-- Node2 -->
<g id="Node000002" class="node">
<title>Node2</title>
<g id="a_Node000002"><a xlink:href="cell__manager_8hpp.html" target="_top" xlink:title=" ">
<polygon fill="white" stroke="#666666" points="216.25,-703.12 76.5,-703.12 76.5,-661.38 216.25,-661.38 216.25,-703.12"/>
<text text-anchor="start" x="84.5" y="-689.62" font-family="Helvetica,sans-Serif" font-size="10.00">/Users/ilariomazzieri</text>
<text text-anchor="start" x="84.5" y="-678.38" font-family="Helvetica,sans-Serif" font-size="10.00">/Desktop/vulpes/vulpes</text>
<text text-anchor="middle" x="146.38" y="-667.12" font-family="Helvetica,sans-Serif" font-size="10.00">/assemble/cell_manager.hpp</text>
</a>
</g>
</g>
<!-- Node1&#45;&gt;Node2 -->
<g id="edge1_Node000001_Node000002" class="edge">
<title>Node1&#45;&gt;Node2</title>
<g id="a_edge1_Node000001_Node000002"><a xlink:title=" ">
<path fill="none" stroke="#63b8ff" d="M693.4,-755.28C574.21,-739.58 335.23,-708.12 216.56,-692.49"/>
<polygon fill="#63b8ff" stroke="#63b8ff" points="692.69,-758.72 703.06,-756.55 693.6,-751.78 692.69,-758.72"/>
</a>
</g>
</g>
<!-- Node10 -->
<g id="Node000010" class="node">
<title>Node10</title>
<g id="a_Node000010"><a xlink:href="fe__lagrange__simplex_8hpp.html" target="_top" xlink:title=" ">
<polygon fill="white" stroke="#666666" points="1014.62,-708.75 886.12,-708.75 886.12,-655.75 1014.62,-655.75 1014.62,-708.75"/>
<text text-anchor="start" x="894.12" y="-695.25" font-family="Helvetica,sans-Serif" font-size="10.00">/Users/ilariomazzieri</text>
<text text-anchor="start" x="894.12" y="-684" font-family="Helvetica,sans-Serif" font-size="10.00">/Desktop/vulpes/vulpes</text>
<text text-anchor="start" x="894.12" y="-672.75" font-family="Helvetica,sans-Serif" font-size="10.00">/fe/fe_spaces/fe_lagrange</text>
<text text-anchor="middle" x="950.38" y="-661.5" font-family="Helvetica,sans-Serif" font-size="10.00">_simplex.hpp</text>
</a>
</g>
</g>
<!-- Node1&#45;&gt;Node10 -->
<g id="edge10_Node000001_Node000010" class="edge">
<title>Node1&#45;&gt;Node10</title>
<g id="a_edge10_Node000001_Node000010"><a xlink:title=" ">
<path fill="none" stroke="#63b8ff" d="M821.1,-739.81C843.29,-730.1 868.74,-718.97 891.16,-709.16"/>
<polygon fill="#63b8ff" stroke="#63b8ff" points="819.98,-736.48 812.22,-743.69 822.78,-742.89 819.98,-736.48"/>
</a>
</g>
</g>
<!-- Node14 -->
<g id="Node000014" class="node">
<title>Node14</title>
<g id="a_Node000014"><a xlink:href="fe__modal__tensor_8hpp.html" target="_top" xlink:title=" ">
<polygon fill="white" stroke="#666666" points="1151.75,-708.75 1033,-708.75 1033,-655.75 1151.75,-655.75 1151.75,-708.75"/>
<text text-anchor="start" x="1041" y="-695.25" font-family="Helvetica,sans-Serif" font-size="10.00">/Users/ilariomazzieri</text>
<text text-anchor="start" x="1041" y="-684" font-family="Helvetica,sans-Serif" font-size="10.00">/Desktop/vulpes/vulpes</text>
<text text-anchor="start" x="1041" y="-672.75" font-family="Helvetica,sans-Serif" font-size="10.00">/fe/fe_spaces/fe_modal</text>
<text text-anchor="middle" x="1092.38" y="-661.5" font-family="Helvetica,sans-Serif" font-size="10.00">_tensor.hpp</text>
</a>
</g>
</g>
<!-- Node1&#45;&gt;Node14 -->
<g id="edge14_Node000001_Node000014" class="edge">
<title>Node1&#45;&gt;Node14</title>
<g id="a_edge14_Node000001_Node000014"><a xlink:title=" ">
<path fill="none" stroke="#63b8ff" d="M835.32,-752.13C887.75,-742.22 960.62,-727.01 1023.38,-708.75 1026.44,-707.86 1029.57,-706.9 1032.71,-705.89"/>
<polygon fill="#63b8ff" stroke="#63b8ff" points="834.79,-748.67 825.61,-753.95 836.08,-755.55 834.79,-748.67"/>
</a>
</g>
</g>
<!-- Node15 -->
<g id="Node000015" class="node">
<title>Node15</title>
<g id="a_Node000015"><a xlink:href="fe__values_8hpp.html" target="_top" xlink:title=" ">
<polygon fill="white" stroke="#666666" points="600.75,-703.12 482,-703.12 482,-661.38 600.75,-661.38 600.75,-703.12"/>
<text text-anchor="start" x="490" y="-689.62" font-family="Helvetica,sans-Serif" font-size="10.00">/Users/ilariomazzieri</text>
<text text-anchor="start" x="490" y="-678.38" font-family="Helvetica,sans-Serif" font-size="10.00">/Desktop/vulpes/vulpes</text>
<text text-anchor="middle" x="541.38" y="-667.12" font-family="Helvetica,sans-Serif" font-size="10.00">/fe/fe_values.hpp</text>
</a>
</g>
</g>
<!-- Node1&#45;&gt;Node15 -->
<g id="edge15_Node000001_Node000015" class="edge">
<title>Node1&#45;&gt;Node15</title>
<g id="a_edge15_Node000001_Node000015"><a xlink:title=" ">
<path fill="none" stroke="#63b8ff" d="M698.03,-740.42C665.9,-728.69 627.74,-714.77 597.13,-703.6"/>
<polygon fill="#63b8ff" stroke="#63b8ff" points="696.66,-743.64 707.26,-743.78 699.06,-737.07 696.66,-743.64"/>
</a>
</g>
</g>
<!-- Node3 -->
<g id="Node000003" class="node">
<title>Node3</title>
<g id="a_Node000003"><a xlink:href="integrator__base_8hpp.html" target="_top" xlink:title=" ">
<polygon fill="white" stroke="#666666" points="359.12,-197.25 209.62,-197.25 209.62,-155.5 359.12,-155.5 359.12,-197.25"/>
<text text-anchor="start" x="217.62" y="-183.75" font-family="Helvetica,sans-Serif" font-size="10.00">/Users/ilariomazzieri</text>
<text text-anchor="start" x="217.62" y="-172.5" font-family="Helvetica,sans-Serif" font-size="10.00">/Desktop/vulpes/vulpes</text>
<text text-anchor="middle" x="284.38" y="-161.25" font-family="Helvetica,sans-Serif" font-size="10.00">/assemble/integrator_base.hpp</text>
</a>
</g>
</g>
<!-- Node2&#45;&gt;Node3 -->
<g id="edge2_Node000002_Node000003" class="edge">
<title>Node2&#45;&gt;Node3</title>
<g id="a_edge2_Node000002_Node000003"><a xlink:title=" ">
<path fill="none" stroke="#63b8ff" d="M146.38,-649.48C146.38,-614.24 146.38,-555.68 146.38,-505.25 146.38,-505.25 146.38,-505.25 146.38,-330.88 146.38,-286.19 142.35,-268.05 170.38,-233.25 182.96,-217.63 201,-206.05 219.03,-197.62"/>
<polygon fill="#63b8ff" stroke="#63b8ff" points="142.88,-649.41 146.38,-659.41 149.88,-649.41 142.88,-649.41"/>
</a>
</g>
</g>
<!-- Node9 -->
<g id="Node000009" class="node">
<title>Node9</title>
<g id="a_Node000009"><a xlink:href="project__solution_8hpp.html" target="_top" xlink:title=" ">
<polygon fill="white" stroke="#666666" points="118.75,-619.75 0,-619.75 0,-566.75 118.75,-566.75 118.75,-619.75"/>
<text text-anchor="start" x="8" y="-606.25" font-family="Helvetica,sans-Serif" font-size="10.00">/Users/ilariomazzieri</text>
<text text-anchor="start" x="8" y="-595" font-family="Helvetica,sans-Serif" font-size="10.00">/Desktop/vulpes/vulpes</text>
<text text-anchor="start" x="8" y="-583.75" font-family="Helvetica,sans-Serif" font-size="10.00">/postprocessing/project</text>
<text text-anchor="middle" x="59.38" y="-572.5" font-family="Helvetica,sans-Serif" font-size="10.00">_solution.hpp</text>
</a>
</g>
</g>
<!-- Node2&#45;&gt;Node9 -->
<g id="edge9_Node000002_Node000009" class="edge">
<title>Node2&#45;&gt;Node9</title>
<g id="a_edge9_Node000002_Node000009"><a xlink:title=" ">
<path fill="none" stroke="#63b8ff" d="M118.35,-653.23C107.66,-642.53 95.53,-630.41 85.07,-619.94"/>
<polygon fill="#63b8ff" stroke="#63b8ff" points="115.58,-655.41 125.13,-660 120.53,-650.46 115.58,-655.41"/>
</a>
</g>
</g>
<!-- Node4 -->
<g id="Node000004" class="node">
<title>Node4</title>
<g id="a_Node000004"><a xlink:href="integrator__gauss_8hpp.html" target="_top" xlink:title=" ">
<polygon fill="white" stroke="#666666" points="361.75,-119.5 207,-119.5 207,-77.75 361.75,-77.75 361.75,-119.5"/>
<text text-anchor="start" x="215" y="-106" font-family="Helvetica,sans-Serif" font-size="10.00">/Users/ilariomazzieri</text>
<text text-anchor="start" x="215" y="-94.75" font-family="Helvetica,sans-Serif" font-size="10.00">/Desktop/vulpes/vulpes</text>
<text text-anchor="middle" x="284.38" y="-83.5" font-family="Helvetica,sans-Serif" font-size="10.00">/assemble/integrator_gauss.hpp</text>
</a>
</g>
</g>
<!-- Node3&#45;&gt;Node4 -->
<g id="edge3_Node000003_Node000004" class="edge">
<title>Node3&#45;&gt;Node4</title>
<g id="a_edge3_Node000003_Node000004"><a xlink:title=" ">
<path fill="none" stroke="#63b8ff" d="M284.38,-143.75C284.38,-135.71 284.38,-127.29 284.38,-119.98"/>
<polygon fill="#63b8ff" stroke="#63b8ff" points="280.88,-143.56 284.38,-153.56 287.88,-143.56 280.88,-143.56"/>
</a>
</g>
</g>
<!-- Node5 -->
<g id="Node000005" class="node">
<title>Node5</title>
<g id="a_Node000005"><a xlink:href="integrator__qfree_8hpp.html" target="_top" xlink:title=" ">
<polygon fill="white" stroke="#666666" points="188.5,-119.5 38.25,-119.5 38.25,-77.75 188.5,-77.75 188.5,-119.5"/>
<text text-anchor="start" x="46.25" y="-106" font-family="Helvetica,sans-Serif" font-size="10.00">/Users/ilariomazzieri</text>
<text text-anchor="start" x="46.25" y="-94.75" font-family="Helvetica,sans-Serif" font-size="10.00">/Desktop/vulpes/vulpes</text>
<text text-anchor="middle" x="113.38" y="-83.5" font-family="Helvetica,sans-Serif" font-size="10.00">/assemble/integrator_qfree.hpp</text>
</a>
</g>
</g>
<!-- Node3&#45;&gt;Node5 -->
<g id="edge4_Node000003_Node000005" class="edge">
<title>Node3&#45;&gt;Node5</title>
<g id="a_edge4_Node000003_Node000005"><a xlink:title=" ">
<path fill="none" stroke="#63b8ff" d="M228.2,-150.49C205.88,-140.6 180.52,-129.37 159.33,-119.98"/>
<polygon fill="#63b8ff" stroke="#63b8ff" points="226.61,-153.61 237.17,-154.46 229.44,-147.21 226.61,-153.61"/>
</a>
</g>
</g>
<!-- Node7 -->
<g id="Node000007" class="node">
<title>Node7</title>
<g id="a_Node000007"><a xlink:href="integrator__simplexify_8hpp.html" target="_top" xlink:title=" ">
<polygon fill="white" stroke="#666666" points="551,-119.5 379.75,-119.5 379.75,-77.75 551,-77.75 551,-119.5"/>
<text text-anchor="start" x="387.75" y="-106" font-family="Helvetica,sans-Serif" font-size="10.00">/Users/ilariomazzieri</text>
<text text-anchor="start" x="387.75" y="-94.75" font-family="Helvetica,sans-Serif" font-size="10.00">/Desktop/vulpes/vulpes</text>
<text text-anchor="middle" x="465.38" y="-83.5" font-family="Helvetica,sans-Serif" font-size="10.00">/assemble/integrator_simplexify.hpp</text>
</a>
</g>
</g>
<!-- Node3&#45;&gt;Node7 -->
<g id="edge6_Node000003_Node000007" class="edge">
<title>Node3&#45;&gt;Node7</title>
<g id="a_edge6_Node000003_Node000007"><a xlink:title=" ">
<path fill="none" stroke="#63b8ff" d="M343.19,-150.76C366.97,-140.81 394.1,-129.46 416.74,-119.98"/>
<polygon fill="#63b8ff" stroke="#63b8ff" points="342.15,-147.4 334.28,-154.49 344.85,-153.86 342.15,-147.4"/>
</a>
</g>
</g>
<!-- Node6 -->
<g id="Node000006" class="node">
<title>Node6</title>
<g id="a_Node000006"><a xlink:href="integrator__vem_8hpp.html" target="_top" xlink:title=" ">
<polygon fill="white" stroke="#666666" points="345,-41.75 197.75,-41.75 197.75,0 345,0 345,-41.75"/>
<text text-anchor="start" x="205.75" y="-28.25" font-family="Helvetica,sans-Serif" font-size="10.00">/Users/ilariomazzieri</text>
<text text-anchor="start" x="205.75" y="-17" font-family="Helvetica,sans-Serif" font-size="10.00">/Desktop/vulpes/vulpes</text>
<text text-anchor="middle" x="271.38" y="-5.75" font-family="Helvetica,sans-Serif" font-size="10.00">/assemble/integrator_vem.hpp</text>
</a>
</g>
</g>
<!-- Node5&#45;&gt;Node6 -->
<g id="edge5_Node000005_Node000006" class="edge">
<title>Node5&#45;&gt;Node6</title>
<g id="a_edge5_Node000005_Node000006"><a xlink:title=" ">
<path fill="none" stroke="#63b8ff" d="M165.84,-72.47C186.33,-62.65 209.51,-51.54 228.92,-42.23"/>
<polygon fill="#63b8ff" stroke="#63b8ff" points="164.59,-69.19 157.08,-76.67 167.61,-75.5 164.59,-69.19"/>
</a>
</g>
</g>
<!-- Node7&#45;&gt;Node6 -->
<g id="edge8_Node000007_Node000006" class="edge">
<title>Node7&#45;&gt;Node6</title>
<g id="a_edge8_Node000007_Node000006"><a xlink:title=" ">
<path fill="none" stroke="#63b8ff" d="M402.68,-73.14C377.1,-63.16 347.88,-51.75 323.51,-42.23"/>
<polygon fill="#63b8ff" stroke="#63b8ff" points="401.39,-76.4 411.98,-76.77 403.93,-69.88 401.39,-76.4"/>
</a>
</g>
</g>
<!-- Node8 -->
<g id="Node000008" class="node">
<title>Node8</title>
<g id="a_Node000008"><a xlink:href="dg__utils_8hpp.html" target="_top" xlink:title=" ">
<polygon fill="white" stroke="#666666" points="638.75,-41.75 520,-41.75 520,0 638.75,0 638.75,-41.75"/>
<text text-anchor="start" x="528" y="-28.25" font-family="Helvetica,sans-Serif" font-size="10.00">/Users/ilariomazzieri</text>
<text text-anchor="start" x="528" y="-17" font-family="Helvetica,sans-Serif" font-size="10.00">/Desktop/vulpes/vulpes</text>
<text text-anchor="middle" x="579.38" y="-5.75" font-family="Helvetica,sans-Serif" font-size="10.00">/assemble/dg_utils.hpp</text>
</a>
</g>
</g>
<!-- Node7&#45;&gt;Node8 -->
<g id="edge7_Node000007_Node000008" class="edge">
<title>Node7&#45;&gt;Node8</title>
<g id="a_edge7_Node000007_Node000008"><a xlink:title=" ">
<path fill="none" stroke="#63b8ff" d="M505.47,-70.98C519.68,-61.54 535.44,-51.07 548.74,-42.23"/>
<polygon fill="#63b8ff" stroke="#63b8ff" points="503.58,-68.04 497.19,-76.49 507.45,-73.87 503.58,-68.04"/>
</a>
</g>
</g>
<!-- Node11 -->
<g id="Node000011" class="node">
<title>Node11</title>
<g id="a_Node000011"><a xlink:href="fe__lagrange__simplex_8cpp.html" target="_top" xlink:title=" ">
<polygon fill="white" stroke="#666666" points="1014.62,-619.75 886.12,-619.75 886.12,-566.75 1014.62,-566.75 1014.62,-619.75"/>
<text text-anchor="start" x="894.12" y="-606.25" font-family="Helvetica,sans-Serif" font-size="10.00">/Users/ilariomazzieri</text>
<text text-anchor="start" x="894.12" y="-595" font-family="Helvetica,sans-Serif" font-size="10.00">/Desktop/vulpes/vulpes</text>
<text text-anchor="start" x="894.12" y="-583.75" font-family="Helvetica,sans-Serif" font-size="10.00">/fe/fe_spaces/fe_lagrange</text>
<text text-anchor="middle" x="950.38" y="-572.5" font-family="Helvetica,sans-Serif" font-size="10.00">_simplex.cpp</text>
</a>
</g>
</g>
<!-- Node10&#45;&gt;Node11 -->
<g id="edge11_Node000010_Node000011" class="edge">
<title>Node10&#45;&gt;Node11</title>
<g id="a_edge11_Node000010_Node000011"><a xlink:title=" ">
<path fill="none" stroke="#63b8ff" d="M950.38,-644.36C950.38,-636.16 950.38,-627.64 950.38,-620"/>
<polygon fill="#63b8ff" stroke="#63b8ff" points="946.88,-644.1 950.38,-654.1 953.88,-644.1 946.88,-644.1"/>
</a>
</g>
</g>
<!-- Node12 -->
<g id="Node000012" class="node">
<title>Node12</title>
<g id="a_Node000012"><a xlink:href="fe__lagrange__tensor_8hpp.html" target="_top" xlink:title=" ">
<polygon fill="white" stroke="#666666" points="1161.62,-619.75 1033.12,-619.75 1033.12,-566.75 1161.62,-566.75 1161.62,-619.75"/>
<text text-anchor="start" x="1041.12" y="-606.25" font-family="Helvetica,sans-Serif" font-size="10.00">/Users/ilariomazzieri</text>
<text text-anchor="start" x="1041.12" y="-595" font-family="Helvetica,sans-Serif" font-size="10.00">/Desktop/vulpes/vulpes</text>
<text text-anchor="start" x="1041.12" y="-583.75" font-family="Helvetica,sans-Serif" font-size="10.00">/fe/fe_spaces/fe_lagrange</text>
<text text-anchor="middle" x="1097.38" y="-572.5" font-family="Helvetica,sans-Serif" font-size="10.00">_tensor.hpp</text>
</a>
</g>
</g>
<!-- Node10&#45;&gt;Node12 -->
<g id="edge12_Node000010_Node000012" class="edge">
<title>Node10&#45;&gt;Node12</title>
<g id="a_edge12_Node000010_Node000012"><a xlink:title=" ">
<path fill="none" stroke="#63b8ff" d="M1003.55,-649.78C1019.98,-640.06 1037.87,-629.47 1053.58,-620.17"/>
<polygon fill="#63b8ff" stroke="#63b8ff" points="1002.21,-646.51 995.38,-654.61 1005.77,-652.53 1002.21,-646.51"/>
</a>
</g>
</g>
<!-- Node13 -->
<g id="Node000013" class="node">
<title>Node13</title>
<g id="a_Node000013"><a xlink:href="fe__modal__simplex_8hpp.html" target="_top" xlink:title=" ">
<polygon fill="white" stroke="#666666" points="1298.75,-619.75 1180,-619.75 1180,-566.75 1298.75,-566.75 1298.75,-619.75"/>
<text text-anchor="start" x="1188" y="-606.25" font-family="Helvetica,sans-Serif" font-size="10.00">/Users/ilariomazzieri</text>
<text text-anchor="start" x="1188" y="-595" font-family="Helvetica,sans-Serif" font-size="10.00">/Desktop/vulpes/vulpes</text>
<text text-anchor="start" x="1188" y="-583.75" font-family="Helvetica,sans-Serif" font-size="10.00">/fe/fe_spaces/fe_modal</text>
<text text-anchor="middle" x="1239.38" y="-572.5" font-family="Helvetica,sans-Serif" font-size="10.00">_simplex.hpp</text>
</a>
</g>
</g>
<!-- Node10&#45;&gt;Node13 -->
<g id="edge13_Node000010_Node000013" class="edge">
<title>Node10&#45;&gt;Node13</title>
<g id="a_edge13_Node000010_Node000013"><a xlink:title=" ">
<path fill="none" stroke="#63b8ff" d="M1025.64,-655.51C1090.42,-637.04 1109.73,-638.37 1170.38,-619.75 1173.43,-618.81 1176.54,-617.82 1179.68,-616.78"/>
<polygon fill="#63b8ff" stroke="#63b8ff" points="1024.92,-652.08 1016.29,-658.23 1026.87,-658.8 1024.92,-652.08"/>
</a>
</g>
</g>
<!-- Node15&#45;&gt;Node3 -->
<g id="edge17_Node000015_Node000003" class="edge">
<title>Node15&#45;&gt;Node3</title>
<g id="a_edge17_Node000015_Node000003"><a xlink:title=" ">
<path fill="none" stroke="#63b8ff" d="M470.68,-674.05C393.34,-664.93 275.65,-647.06 240.38,-619.75 195.58,-585.07 184.38,-561.9 184.38,-505.25 184.38,-505.25 184.38,-505.25 184.38,-330.88 184.38,-286.67 179.17,-270.23 203.38,-233.25 213.01,-218.53 228.01,-206.61 242.49,-197.62"/>
<polygon fill="#63b8ff" stroke="#63b8ff" points="469.94,-677.49 480.28,-675.16 470.75,-670.53 469.94,-677.49"/>
</a>
</g>
</g>
<!-- Node15&#45;&gt;Node8 -->
<g id="edge16_Node000015_Node000008" class="edge">
<title>Node15&#45;&gt;Node8</title>
<g id="a_edge16_Node000015_Node000008"><a xlink:title=" ">
<path fill="none" stroke="#63b8ff" d="M612.37,-673.29C705.82,-658.43 858.38,-617.04 858.38,-505.25 858.38,-505.25 858.38,-505.25 858.38,-175.38 858.38,-76.14 721.21,-40.6 639.23,-28.22"/>
<polygon fill="#63b8ff" stroke="#63b8ff" points="611.86,-669.83 602.5,-674.79 612.91,-676.75 611.86,-669.83"/>
</a>
</g>
</g>
<!-- Node16 -->
<g id="Node000016" class="node">
<title>Node16</title>
<g id="a_Node000016"><a xlink:href="integrator__traits_8hpp.html" target="_top" xlink:title=" ">
<polygon fill="white" stroke="#666666" points="362.5,-275 212.25,-275 212.25,-233.25 362.5,-233.25 362.5,-275"/>
<text text-anchor="start" x="220.25" y="-261.5" font-family="Helvetica,sans-Serif" font-size="10.00">/Users/ilariomazzieri</text>
<text text-anchor="start" x="220.25" y="-250.25" font-family="Helvetica,sans-Serif" font-size="10.00">/Desktop/vulpes/vulpes</text>
<text text-anchor="middle" x="287.38" y="-239" font-family="Helvetica,sans-Serif" font-size="10.00">/assemble/integrator_traits.hpp</text>
</a>
</g>
</g>
<!-- Node15&#45;&gt;Node16 -->
<g id="edge18_Node000015_Node000016" class="edge">
<title>Node15&#45;&gt;Node16</title>
<g id="a_edge18_Node000015_Node000016"><a xlink:title=" ">
<path fill="none" stroke="#63b8ff" d="M470.6,-673.55C376.62,-658.95 222.38,-617.85 222.38,-505.25 222.38,-505.25 222.38,-505.25 222.38,-414.25 222.38,-360.83 254.15,-304.32 273.27,-275.15"/>
<polygon fill="#63b8ff" stroke="#63b8ff" points="469.85,-676.98 480.25,-674.98 470.87,-670.05 469.85,-676.98"/>
</a>
</g>
</g>
<!-- Node17 -->
<g id="Node000017" class="node">
<title>Node17</title>
<g id="a_Node000017"><a xlink:href="fe__expr__base_8hpp.html" target="_top" xlink:title=" ">
<polygon fill="white" stroke="#666666" points="607.12,-619.75 475.62,-619.75 475.62,-566.75 607.12,-566.75 607.12,-619.75"/>
<text text-anchor="start" x="483.62" y="-606.25" font-family="Helvetica,sans-Serif" font-size="10.00">/Users/ilariomazzieri</text>
<text text-anchor="start" x="483.62" y="-595" font-family="Helvetica,sans-Serif" font-size="10.00">/Desktop/vulpes/vulpes</text>
<text text-anchor="start" x="483.62" y="-583.75" font-family="Helvetica,sans-Serif" font-size="10.00">/fe/fe_expressions/fe_expr</text>
<text text-anchor="middle" x="541.38" y="-572.5" font-family="Helvetica,sans-Serif" font-size="10.00">_base.hpp</text>
</a>
</g>
</g>
<!-- Node15&#45;&gt;Node17 -->
<g id="edge20_Node000015_Node000017" class="edge">
<title>Node15&#45;&gt;Node17</title>
<g id="a_edge20_Node000015_Node000017"><a xlink:title=" ">
<path fill="none" stroke="#63b8ff" d="M541.38,-649.72C541.38,-639.94 541.38,-629.28 541.38,-619.94"/>
<polygon fill="#63b8ff" stroke="#63b8ff" points="537.88,-649.56 541.38,-659.56 544.88,-649.56 537.88,-649.56"/>
</a>
</g>
</g>
<!-- Node16&#45;&gt;Node3 -->
<g id="edge19_Node000016_Node000003" class="edge">
<title>Node16&#45;&gt;Node3</title>
<g id="a_edge19_Node000016_Node000003"><a xlink:title=" ">
<path fill="none" stroke="#63b8ff" d="M286.12,-221.5C285.8,-213.46 285.47,-205.04 285.18,-197.73"/>
<polygon fill="#63b8ff" stroke="#63b8ff" points="282.62,-221.46 286.51,-231.31 289.61,-221.18 282.62,-221.46"/>
</a>
</g>
</g>
<!-- Node18 -->
<g id="Node000018" class="node">
<title>Node18</title>
<g id="a_Node000018"><a xlink:href="fe__expression_8hpp.html" target="_top" xlink:title=" ">
<polygon fill="white" stroke="#666666" points="580.75,-352.75 462,-352.75 462,-311 580.75,-311 580.75,-352.75"/>
<text text-anchor="start" x="470" y="-339.25" font-family="Helvetica,sans-Serif" font-size="10.00">/Users/ilariomazzieri</text>
<text text-anchor="start" x="470" y="-328" font-family="Helvetica,sans-Serif" font-size="10.00">/Desktop/vulpes/vulpes</text>
<text text-anchor="middle" x="521.38" y="-316.75" font-family="Helvetica,sans-Serif" font-size="10.00">/fe/fe_expression.hpp</text>
</a>
</g>
</g>
<!-- Node17&#45;&gt;Node18 -->
<g id="edge21_Node000017_Node000018" class="edge">
<title>Node17&#45;&gt;Node18</title>
<g id="a_edge21_Node000017_Node000018"><a xlink:title=" ">
<path fill="none" stroke="#63b8ff" d="M618.37,-585.37C660.66,-577.95 711.45,-562.57 746.38,-530.75 794.5,-486.9 823.31,-439.38 782.38,-388.75 757.54,-358.03 650.01,-343.45 580.96,-337.13"/>
<polygon fill="#63b8ff" stroke="#63b8ff" points="618.05,-581.88 608.74,-586.94 619.18,-588.79 618.05,-581.88"/>
</a>
</g>
</g>
<!-- Node20 -->
<g id="Node000020" class="node">
<title>Node20</title>
<g id="a_Node000020"><a xlink:href="fe__expr__basis_8hpp.html" target="_top" xlink:title=" ">
<polygon fill="white" stroke="#666666" points="420.12,-530.75 288.62,-530.75 288.62,-477.75 420.12,-477.75 420.12,-530.75"/>
<text text-anchor="start" x="296.62" y="-517.25" font-family="Helvetica,sans-Serif" font-size="10.00">/Users/ilariomazzieri</text>
<text text-anchor="start" x="296.62" y="-506" font-family="Helvetica,sans-Serif" font-size="10.00">/Desktop/vulpes/vulpes</text>
<text text-anchor="start" x="296.62" y="-494.75" font-family="Helvetica,sans-Serif" font-size="10.00">/fe/fe_expressions/fe_expr</text>
<text text-anchor="middle" x="354.38" y="-483.5" font-family="Helvetica,sans-Serif" font-size="10.00">_basis.hpp</text>
</a>
</g>
</g>
<!-- Node17&#45;&gt;Node20 -->
<g id="edge26_Node000017_Node000020" class="edge">
<title>Node17&#45;&gt;Node20</title>
<g id="a_edge26_Node000017_Node000020"><a xlink:title=" ">
<path fill="none" stroke="#63b8ff" d="M475.23,-561.48C453.88,-551.54 430.45,-540.64 409.94,-531.1"/>
<polygon fill="#63b8ff" stroke="#63b8ff" points="473.61,-564.58 484.15,-565.63 476.56,-558.23 473.61,-564.58"/>
</a>
</g>
</g>
<!-- Node21 -->
<g id="Node000021" class="node">
<title>Node21</title>
<g id="a_Node000021"><a xlink:href="fe__expr__vector_8hpp.html" target="_top" xlink:title="Bilinear/linear expressions for vector&#45;valued FE spaces.">
<polygon fill="white" stroke="#666666" points="420.12,-441.75 288.62,-441.75 288.62,-388.75 420.12,-388.75 420.12,-441.75"/>
<text text-anchor="start" x="296.62" y="-428.25" font-family="Helvetica,sans-Serif" font-size="10.00">/Users/ilariomazzieri</text>
<text text-anchor="start" x="296.62" y="-417" font-family="Helvetica,sans-Serif" font-size="10.00">/Desktop/vulpes/vulpes</text>
<text text-anchor="start" x="296.62" y="-405.75" font-family="Helvetica,sans-Serif" font-size="10.00">/fe/fe_expressions/fe_expr</text>
<text text-anchor="middle" x="354.38" y="-394.5" font-family="Helvetica,sans-Serif" font-size="10.00">_vector.hpp</text>
</a>
</g>
</g>
<!-- Node17&#45;&gt;Node21 -->
<g id="edge37_Node000017_Node000021" class="edge">
<title>Node17&#45;&gt;Node21</title>
<g id="a_edge37_Node000017_Node000021"><a xlink:title=" ">
<path fill="none" stroke="#63b8ff" d="M509.98,-558.24C488.03,-534.94 457.68,-503.68 429.38,-477.75 416.09,-465.58 400.81,-452.84 387.52,-442.13"/>
<polygon fill="#63b8ff" stroke="#63b8ff" points="507.24,-560.44 516.64,-565.34 512.35,-555.65 507.24,-560.44"/>
</a>
</g>
</g>
<!-- Node22 -->
<g id="Node000022" class="node">
<title>Node22</title>
<g id="a_Node000022"><a xlink:href="fe__expr__func_8hpp.html" target="_top" xlink:title=" ">
<polygon fill="white" stroke="#666666" points="570.12,-441.75 438.62,-441.75 438.62,-388.75 570.12,-388.75 570.12,-441.75"/>
<text text-anchor="start" x="446.62" y="-428.25" font-family="Helvetica,sans-Serif" font-size="10.00">/Users/ilariomazzieri</text>
<text text-anchor="start" x="446.62" y="-417" font-family="Helvetica,sans-Serif" font-size="10.00">/Desktop/vulpes/vulpes</text>
<text text-anchor="start" x="446.62" y="-405.75" font-family="Helvetica,sans-Serif" font-size="10.00">/fe/fe_expressions/fe_expr</text>
<text text-anchor="middle" x="504.38" y="-394.5" font-family="Helvetica,sans-Serif" font-size="10.00">_func.hpp</text>
</a>
</g>
</g>
<!-- Node17&#45;&gt;Node22 -->
<g id="edge30_Node000017_Node000022" class="edge">
<title>Node17&#45;&gt;Node22</title>
<g id="a_edge30_Node000017_Node000022"><a xlink:title=" ">
<path fill="none" stroke="#63b8ff" d="M533.63,-555.41C526.49,-521.46 516.08,-471.94 509.8,-442.04"/>
<polygon fill="#63b8ff" stroke="#63b8ff" points="530.12,-555.73 535.6,-564.8 536.97,-554.29 530.12,-555.73"/>
</a>
</g>
</g>
<!-- Node23 -->
<g id="Node000023" class="node">
<title>Node23</title>
<g id="a_Node000023"><a xlink:href="fe__expr__op_8hpp.html" target="_top" xlink:title=" ">
<polygon fill="white" stroke="#666666" points="754.38,-436.12 588.38,-436.12 588.38,-394.38 754.38,-394.38 754.38,-436.12"/>
<text text-anchor="start" x="596.38" y="-422.62" font-family="Helvetica,sans-Serif" font-size="10.00">/Users/ilariomazzieri</text>
<text text-anchor="start" x="596.38" y="-411.38" font-family="Helvetica,sans-Serif" font-size="10.00">/Desktop/vulpes/vulpes</text>
<text text-anchor="middle" x="671.38" y="-400.12" font-family="Helvetica,sans-Serif" font-size="10.00">/fe/fe_expressions/fe_expr_op.hpp</text>
</a>
</g>
</g>
<!-- Node17&#45;&gt;Node23 -->
<g id="edge32_Node000017_Node000023" class="edge">
<title>Node17&#45;&gt;Node23</title>
<g id="a_edge32_Node000017_Node000023"><a xlink:title=" ">
<path fill="none" stroke="#63b8ff" d="M554.18,-555.66C563.58,-531.96 577.91,-501.25 596.38,-477.75 608.86,-461.86 626.12,-447.35 640.93,-436.43"/>
<polygon fill="#63b8ff" stroke="#63b8ff" points="550.94,-554.33 550.63,-564.93 557.48,-556.84 550.94,-554.33"/>
</a>
</g>
</g>
<!-- Node24 -->
<g id="Node000024" class="node">
<title>Node24</title>
<g id="a_Node000024"><a xlink:href="fe__expr__unary_8hpp.html" target="_top" xlink:title=" ">
<polygon fill="white" stroke="#666666" points="737.12,-530.75 605.62,-530.75 605.62,-477.75 737.12,-477.75 737.12,-530.75"/>
<text text-anchor="start" x="613.62" y="-517.25" font-family="Helvetica,sans-Serif" font-size="10.00">/Users/ilariomazzieri</text>
<text text-anchor="start" x="613.62" y="-506" font-family="Helvetica,sans-Serif" font-size="10.00">/Desktop/vulpes/vulpes</text>
<text text-anchor="start" x="613.62" y="-494.75" font-family="Helvetica,sans-Serif" font-size="10.00">/fe/fe_expressions/fe_expr</text>
<text text-anchor="middle" x="671.38" y="-483.5" font-family="Helvetica,sans-Serif" font-size="10.00">_unary.hpp</text>
</a>
</g>
</g>
<!-- Node17&#45;&gt;Node24 -->
<g id="edge34_Node000017_Node000024" class="edge">
<title>Node17&#45;&gt;Node24</title>
<g id="a_edge34_Node000017_Node000024"><a xlink:title=" ">
<path fill="none" stroke="#63b8ff" d="M589.22,-560.23C603.52,-550.66 619.01,-540.29 632.65,-531.17"/>
<polygon fill="#63b8ff" stroke="#63b8ff" points="587.65,-557.07 581.29,-565.54 591.54,-562.89 587.65,-557.07"/>
</a>
</g>
</g>
<!-- Node18&#45;&gt;Node3 -->
<g id="edge23_Node000018_Node000003" class="edge">
<title>Node18&#45;&gt;Node3</title>
<g id="a_edge23_Node000018_Node000003"><a xlink:title=" ">
<path fill="none" stroke="#63b8ff" d="M529.81,-299.64C533.49,-278.63 534.13,-251.53 519.38,-233.25 499.39,-208.49 420.53,-193.45 359.61,-185.31"/>
<polygon fill="#63b8ff" stroke="#63b8ff" points="526.39,-298.9 527.76,-309.41 533.24,-300.34 526.39,-298.9"/>
</a>
</g>
</g>
<!-- Node18&#45;&gt;Node8 -->
<g id="edge22_Node000018_Node000008" class="edge">
<title>Node18&#45;&gt;Node8</title>
<g id="a_edge22_Node000018_Node000008"><a xlink:title=" ">
<path fill="none" stroke="#63b8ff" d="M532.31,-299.86C534.88,-291.83 537.43,-283.15 539.38,-275 559.77,-189.53 572.5,-85.28 577.26,-42.1"/>
<polygon fill="#63b8ff" stroke="#63b8ff" points="529.03,-298.63 529.2,-309.22 535.67,-300.83 529.03,-298.63"/>
</a>
</g>
</g>
<!-- Node18&#45;&gt;Node16 -->
<g id="edge24_Node000018_Node000016" class="edge">
<title>Node18&#45;&gt;Node16</title>
<g id="a_edge24_Node000018_Node000016"><a xlink:title=" ">
<path fill="none" stroke="#63b8ff" d="M451.07,-308.12C419,-297.73 381.31,-285.53 350.19,-275.46"/>
<polygon fill="#63b8ff" stroke="#63b8ff" points="449.69,-311.35 460.28,-311.1 451.85,-304.69 449.69,-311.35"/>
</a>
</g>
</g>
<!-- Node19 -->
<g id="Node000019" class="node">
<title>Node19</title>
<g id="a_Node000019"><a xlink:href="fe__vem_8hpp.html" target="_top" xlink:title=" ">
<polygon fill="white" stroke="#666666" points="510,-275 380.75,-275 380.75,-233.25 510,-233.25 510,-275"/>
<text text-anchor="start" x="388.75" y="-261.5" font-family="Helvetica,sans-Serif" font-size="10.00">/Users/ilariomazzieri</text>
<text text-anchor="start" x="388.75" y="-250.25" font-family="Helvetica,sans-Serif" font-size="10.00">/Desktop/vulpes/vulpes</text>
<text text-anchor="middle" x="445.38" y="-239" font-family="Helvetica,sans-Serif" font-size="10.00">/fe/fe_spaces/fe_vem.hpp</text>
</a>
</g>
</g>
<!-- Node18&#45;&gt;Node19 -->
<g id="edge25_Node000018_Node000019" class="edge">
<title>Node18&#45;&gt;Node19</title>
<g id="a_edge25_Node000018_Node000019"><a xlink:title=" ">
<path fill="none" stroke="#63b8ff" d="M493,-302.59C483.96,-293.59 474.15,-283.81 465.8,-275.48"/>
<polygon fill="#63b8ff" stroke="#63b8ff" points="490.38,-304.93 499.94,-309.51 495.32,-299.97 490.38,-304.93"/>
</a>
</g>
</g>
<!-- Node20&#45;&gt;Node18 -->
<g id="edge27_Node000020_Node000018" class="edge">
<title>Node20&#45;&gt;Node18</title>
<g id="a_edge27_Node000020_Node000018"><a xlink:title=" ">
<path fill="none" stroke="#63b8ff" d="M301.3,-470.07C292.42,-461.96 284.45,-452.48 279.38,-441.75 269.3,-420.46 264.71,-407.18 279.38,-388.75 301.72,-360.66 397.37,-345.47 461.51,-338.29"/>
<polygon fill="#63b8ff" stroke="#63b8ff" points="298.96,-472.68 308.87,-476.44 303.47,-467.32 298.96,-472.68"/>
</a>
</g>
</g>
<!-- Node20&#45;&gt;Node21 -->
<g id="edge28_Node000020_Node000021" class="edge">
<title>Node20&#45;&gt;Node21</title>
<g id="a_edge28_Node000020_Node000021"><a xlink:title=" ">
<path fill="none" stroke="#63b8ff" d="M354.38,-466.36C354.38,-458.16 354.38,-449.64 354.38,-442"/>
<polygon fill="#63b8ff" stroke="#63b8ff" points="350.88,-466.1 354.38,-476.1 357.88,-466.1 350.88,-466.1"/>
</a>
</g>
</g>
<!-- Node21&#45;&gt;Node18 -->
<g id="edge29_Node000021_Node000018" class="edge">
<title>Node21&#45;&gt;Node18</title>
<g id="a_edge29_Node000021_Node000018"><a xlink:title=" ">
<path fill="none" stroke="#63b8ff" d="M417.97,-383.26C438.64,-373.19 461.03,-362.28 479.67,-353.19"/>
<polygon fill="#63b8ff" stroke="#63b8ff" points="416.49,-380.09 409.03,-387.62 419.56,-386.38 416.49,-380.09"/>
</a>
</g>
</g>
<!-- Node22&#45;&gt;Node18 -->
<g id="edge31_Node000022_Node000018" class="edge">
<title>Node22&#45;&gt;Node18</title>
<g id="a_edge31_Node000022_Node000018"><a xlink:title=" ">
<path fill="none" stroke="#63b8ff" d="M512.08,-377.36C513.83,-368.99 515.62,-360.41 517.16,-353.04"/>
<polygon fill="#63b8ff" stroke="#63b8ff" points="508.68,-376.52 510.06,-387.02 515.53,-377.95 508.68,-376.52"/>
</a>
</g>
</g>
<!-- Node23&#45;&gt;Node18 -->
<g id="edge33_Node000023_Node000018" class="edge">
<title>Node23&#45;&gt;Node18</title>
<g id="a_edge33_Node000023_Node000018"><a xlink:title=" ">
<path fill="none" stroke="#63b8ff" d="M623.91,-388.5C602.91,-377.11 578.58,-363.91 558.88,-353.22"/>
<polygon fill="#63b8ff" stroke="#63b8ff" points="622.12,-391.51 632.58,-393.2 625.46,-385.36 622.12,-391.51"/>
</a>
</g>
</g>
<!-- Node24&#45;&gt;Node18 -->
<g id="edge35_Node000024_Node000018" class="edge">
<title>Node24&#45;&gt;Node18</title>
<g id="a_edge35_Node000024_Node000018"><a xlink:title=" ">
<path fill="none" stroke="#63b8ff" d="M737.72,-470.85C748.04,-462.81 757.28,-453.15 763.38,-441.75 774.48,-420.97 778.04,-407.18 763.38,-388.75 741.03,-360.66 645.38,-345.47 581.24,-338.29"/>
<polygon fill="#63b8ff" stroke="#63b8ff" points="735.75,-467.96 729.65,-476.62 739.82,-473.65 735.75,-467.96"/>
</a>
</g>
</g>
<!-- Node24&#45;&gt;Node23 -->
<g id="edge36_Node000024_Node000023" class="edge">
<title>Node24&#45;&gt;Node23</title>
<g id="a_edge36_Node000024_Node000023"><a xlink:title=" ">
<path fill="none" stroke="#63b8ff" d="M671.38,-466.38C671.38,-456.13 671.38,-445.37 671.38,-436.46"/>
<polygon fill="#63b8ff" stroke="#63b8ff" points="667.88,-466.1 671.38,-476.1 674.88,-466.1 667.88,-466.1"/>
</a>
</g>
</g>
</g>
</svg>

<g id="navigator" transform="translate(0 0)" fill="#404254">
  <rect fill="#f2f5e9" fill-opacity="0.5" stroke="#606060" stroke-width=".5" x="0" y="0" width="60" height="60"/>
  <use id="zoomplus" xlink:href="#zoomPlus" x="17" y="9" onmousedown="handleZoom(evt,'in')"/>
  <use id="zoomminus" xlink:href="#zoomMin" x="42" y="9" onmousedown="handleZoom(evt,'out')"/>
  <use id="reset" xlink:href="#resetDef" x="30" y="36" onmousedown="handleReset()"/>
   <use id="arrowup" xlink:href="#arrowUp" x="0" y="0" onmousedown="handlePan(0,-1)"/>
  <use id="arrowright" xlink:href="#arrowRight" x="0" y="0" onmousedown="handlePan(1,0)"/>
  <use id="arrowdown" xlink:href="#arrowDown" x="0" y="0" onmousedown="handlePan(0,1)"/>
  <use id="arrowleft" xlink:href="#arrowLeft" x="0" y="0" onmousedown="handlePan(-1,0)"/>
</g>
<svg viewBox="0 0 15 15" width="100%" height="30px" preserveAspectRatio="xMaxYMin meet">
 <g id="arrow_out" transform="scale(0.3 0.3)">
  <a xlink:href="mapping_8hpp__dep__incl_org.svg" target="_base">
   <rect id="button" ry="5" rx="5" y="6" x="6" height="38" width="38"
        fill="#f2f5e9" fill-opacity="0.5" stroke="#606060" stroke-width="1.0"/>
   <path id="arrow"
     d="M 11.500037,31.436501 C 11.940474,20.09759 22.043105,11.32322 32.158766,21.979434 L 37.068811,17.246167 C 37.068811,17.246167 37.088388,32 37.088388,32 L 22.160133,31.978069 C 22.160133,31.978069 26.997745,27.140456 26.997745,27.140456 C 18.528582,18.264221 13.291696,25.230495 11.500037,31.436501 z"
     style="fill:#404040;"/>
  </a>
 </g>
</svg>

<style type='text/css'>
<![CDATA[
[data-mouse-over-selected='false'] { opacity: 0.7; }
[data-mouse-over-selected='true']  { opacity: 1.0; }
]]>
</style>
<script type="application/ecmascript"><![CDATA[
document.addEventListener('DOMContentLoaded', (event) => {
  highlightEdges();
  highlightAdjacentNodes();
});
]]></script>
</svg>
