<?xml version="1.0" encoding="UTF-8" standalone="no"?>
<!DOCTYPE svg PUBLIC "-//W3C//DTD SVG 1.1//EN"
 "http://www.w3.org/Graphics/SVG/1.1/DTD/svg11.dtd">
<!-- Generated by graphviz version 2.42.4 (0)
 -->
<!-- Title: /__w/vulpes/vulpes/vulpes/geometry/mapping.hpp Pages: 1 -->
<svg width="1229pt" height="643pt"
 viewBox="0.00 0.00 1229.21 643.00" xmlns="http://www.w3.org/2000/svg" xmlns:xlink="http://www.w3.org/1999/xlink">
<g id="graph0" class="graph" transform="scale(1 1) rotate(0) translate(4 639)">
<title>/__w/vulpes/vulpes/vulpes/geometry/mapping.hpp</title>
<!-- Node1 -->
<g id="Node000001" class="node">
<title>Node1</title>
<g id="a_Node000001"><a xlink:title=" ">
<polygon fill="#999999" stroke="#666666" points="453.5,-635 284.5,-635 284.5,-605 453.5,-605 453.5,-635"/>
<text text-anchor="start" x="292.5" y="-623" font-family="Helvetica,sans-Serif" font-size="10.00">/__w/vulpes/vulpes</text>
<text text-anchor="middle" x="369" y="-612" font-family="Helvetica,sans-Serif" font-size="10.00">/vulpes/geometry/mapping.hpp</text>
</a>
</g>
</g>
<!-- Node2 -->
<g id="Node000002" class="node">
<title>Node2</title>
<g id="a_Node000002"><a xlink:href="fe__lagrange__simplex_8hpp.html" target="_top" xlink:title=" ">
<polygon fill="white" stroke="#666666" points="289.5,-569 146.5,-569 146.5,-528 289.5,-528 289.5,-569"/>
<text text-anchor="start" x="154.5" y="-557" font-family="Helvetica,sans-Serif" font-size="10.00">/__w/vulpes/vulpes</text>
<text text-anchor="start" x="154.5" y="-546" font-family="Helvetica,sans-Serif" font-size="10.00">/vulpes/fe/fe_spaces</text>
<text text-anchor="middle" x="218" y="-535" font-family="Helvetica,sans-Serif" font-size="10.00">/fe_lagrange_simplex.hpp</text>
</a>
</g>
</g>
<!-- Node1&#45;&gt;Node2 -->
<g id="edge1_Node000001_Node000002" class="edge">
<title>Node1&#45;&gt;Node2</title>
<g id="a_edge1_Node000001_Node000002"><a xlink:title=" ">
<path fill="none" stroke="#63b8ff" d="M329.11,-600.64C307.98,-590.92 282.03,-578.97 260.53,-569.07"/>
<polygon fill="#63b8ff" stroke="#63b8ff" points="327.9,-603.93 338.44,-604.94 330.82,-597.58 327.9,-603.93"/>
</a>
</g>
</g>
<!-- Node6 -->
<g id="Node000006" class="node">
<title>Node6</title>
<g id="a_Node000006"><a xlink:href="fe__modal__tensor_8hpp.html" target="_top" xlink:title=" ">
<polygon fill="white" stroke="#666666" points="430,-569 308,-569 308,-528 430,-528 430,-569"/>
<text text-anchor="start" x="316" y="-557" font-family="Helvetica,sans-Serif" font-size="10.00">/__w/vulpes/vulpes</text>
<text text-anchor="start" x="316" y="-546" font-family="Helvetica,sans-Serif" font-size="10.00">/vulpes/fe/fe_spaces</text>
<text text-anchor="middle" x="369" y="-535" font-family="Helvetica,sans-Serif" font-size="10.00">/fe_modal_tensor.hpp</text>
</a>
</g>
</g>
<!-- Node1&#45;&gt;Node6 -->
<g id="edge5_Node000001_Node000006" class="edge">
<title>Node1&#45;&gt;Node6</title>
<g id="a_edge5_Node000001_Node000006"><a xlink:title=" ">
<path fill="none" stroke="#63b8ff" d="M369,-594.91C369,-586.47 369,-577.1 369,-569.07"/>
<polygon fill="#63b8ff" stroke="#63b8ff" points="365.5,-594.94 369,-604.94 372.5,-594.94 365.5,-594.94"/>
</a>
</g>
</g>
<!-- Node7 -->
<g id="Node000007" class="node">
<title>Node7</title>
<g id="a_Node000007"><a xlink:href="fe__values_8hpp.html" target="_top" xlink:title=" ">
<polygon fill="white" stroke="#666666" points="584,-563.5 448,-563.5 448,-533.5 584,-533.5 584,-563.5"/>
<text text-anchor="start" x="456" y="-551.5" font-family="Helvetica,sans-Serif" font-size="10.00">/__w/vulpes/vulpes</text>
<text text-anchor="middle" x="516" y="-540.5" font-family="Helvetica,sans-Serif" font-size="10.00">/vulpes/fe/fe_values.hpp</text>
</a>
</g>
</g>
<!-- Node1&#45;&gt;Node7 -->
<g id="edge6_Node000001_Node000007" class="edge">
<title>Node1&#45;&gt;Node7</title>
<g id="a_edge6_Node000001_Node000007"><a xlink:title=" ">
<path fill="none" stroke="#63b8ff" d="M407.81,-600.65C432.39,-589.03 463.69,-574.23 486.3,-563.54"/>
<polygon fill="#63b8ff" stroke="#63b8ff" points="406.29,-597.5 398.75,-604.94 409.28,-603.83 406.29,-597.5"/>
</a>
</g>
</g>
<!-- Node3 -->
<g id="Node000003" class="node">
<title>Node3</title>
<g id="a_Node000003"><a xlink:href="fe__lagrange__simplex_8cpp.html" target="_top" xlink:title=" ">
<polygon fill="white" stroke="#666666" points="444,-492 302,-492 302,-451 444,-451 444,-492"/>
<text text-anchor="start" x="310" y="-480" font-family="Helvetica,sans-Serif" font-size="10.00">/__w/vulpes/vulpes</text>
<text text-anchor="start" x="310" y="-469" font-family="Helvetica,sans-Serif" font-size="10.00">/vulpes/fe/fe_spaces</text>
<text text-anchor="middle" x="373" y="-458" font-family="Helvetica,sans-Serif" font-size="10.00">/fe_lagrange_simplex.cpp</text>
</a>
</g>
</g>
<!-- Node2&#45;&gt;Node3 -->
<g id="edge2_Node000002_Node000003" class="edge">
<title>Node2&#45;&gt;Node3</title>
<g id="a_edge2_Node000002_Node000003"><a xlink:title=" ">
<path fill="none" stroke="#63b8ff" d="M267.42,-523.59C288.46,-513.41 312.68,-501.69 332.61,-492.04"/>
<polygon fill="#63b8ff" stroke="#63b8ff" points="265.8,-520.48 258.32,-527.99 268.85,-526.79 265.8,-520.48"/>
</a>
</g>
</g>
<!-- Node4 -->
<g id="Node000004" class="node">
<title>Node4</title>
<g id="a_Node000004"><a xlink:href="fe__lagrange__tensor_8hpp.html" target="_top" xlink:title=" ">
<polygon fill="white" stroke="#666666" points="134,-492 0,-492 0,-451 134,-451 134,-492"/>
<text text-anchor="start" x="8" y="-480" font-family="Helvetica,sans-Serif" font-size="10.00">/__w/vulpes/vulpes</text>
<text text-anchor="start" x="8" y="-469" font-family="Helvetica,sans-Serif" font-size="10.00">/vulpes/fe/fe_spaces</text>
<text text-anchor="middle" x="67" y="-458" font-family="Helvetica,sans-Serif" font-size="10.00">/fe_lagrange_tensor.hpp</text>
</a>
</g>
</g>
<!-- Node2&#45;&gt;Node4 -->
<g id="edge3_Node000002_Node000004" class="edge">
<title>Node2&#45;&gt;Node4</title>
<g id="a_edge3_Node000002_Node000004"><a xlink:title=" ">
<path fill="none" stroke="#63b8ff" d="M169.58,-523.45C149.15,-513.3 125.68,-501.64 106.34,-492.04"/>
<polygon fill="#63b8ff" stroke="#63b8ff" points="168.21,-526.68 178.72,-527.99 171.32,-520.41 168.21,-526.68"/>
</a>
</g>
</g>
<!-- Node5 -->
<g id="Node000005" class="node">
<title>Node5</title>
<g id="a_Node000005"><a xlink:href="fe__modal__simplex_8hpp.html" target="_top" xlink:title=" ">
<polygon fill="white" stroke="#666666" points="283.5,-492 152.5,-492 152.5,-451 283.5,-451 283.5,-492"/>
<text text-anchor="start" x="160.5" y="-480" font-family="Helvetica,sans-Serif" font-size="10.00">/__w/vulpes/vulpes</text>
<text text-anchor="start" x="160.5" y="-469" font-family="Helvetica,sans-Serif" font-size="10.00">/vulpes/fe/fe_spaces</text>
<text text-anchor="middle" x="218" y="-458" font-family="Helvetica,sans-Serif" font-size="10.00">/fe_modal_simplex.hpp</text>
</a>
</g>
</g>
<!-- Node2&#45;&gt;Node5 -->
<g id="edge4_Node000002_Node000005" class="edge">
<title>Node2&#45;&gt;Node5</title>
<g id="a_edge4_Node000002_Node000005"><a xlink:title=" ">
<path fill="none" stroke="#63b8ff" d="M218,-517.69C218,-509.08 218,-499.9 218,-492.07"/>
<polygon fill="#63b8ff" stroke="#63b8ff" points="214.5,-517.79 218,-527.79 221.5,-517.79 214.5,-517.79"/>
</a>
</g>
</g>
<!-- Node8 -->
<g id="Node000008" class="node">
<title>Node8</title>
<g id="a_Node000008"><a xlink:href="dg__utils_8hpp.html" target="_top" xlink:title=" ">
<polygon fill="white" stroke="#666666" points="663.5,-272 546.5,-272 546.5,-231 663.5,-231 663.5,-272"/>
<text text-anchor="start" x="554.5" y="-260" font-family="Helvetica,sans-Serif" font-size="10.00">/__w/vulpes/vulpes</text>
<text text-anchor="start" x="554.5" y="-249" font-family="Helvetica,sans-Serif" font-size="10.00">/vulpes/assemble/dg</text>
<text text-anchor="middle" x="605" y="-238" font-family="Helvetica,sans-Serif" font-size="10.00">_utils.hpp</text>
</a>
</g>
</g>
<!-- Node7&#45;&gt;Node8 -->
<g id="edge7_Node000007_Node000008" class="edge">
<title>Node7&#45;&gt;Node8</title>
<g id="a_edge7_Node000007_Node000008"><a xlink:title=" ">
<path fill="none" stroke="#63b8ff" d="M514.88,-523.11C514.06,-488.89 515.26,-425.1 532,-374 544.79,-334.95 571.96,-295.14 589.3,-272.18"/>
<polygon fill="#63b8ff" stroke="#63b8ff" points="511.38,-523.24 515.2,-533.13 518.38,-523.02 511.38,-523.24"/>
</a>
</g>
</g>
<!-- Node9 -->
<g id="Node000009" class="node">
<title>Node9</title>
<g id="a_Node000009"><a xlink:href="integrator__base_8hpp.html" target="_top" xlink:title=" ">
<polygon fill="white" stroke="#666666" points="924.5,-195 771.5,-195 771.5,-154 924.5,-154 924.5,-195"/>
<text text-anchor="start" x="779.5" y="-183" font-family="Helvetica,sans-Serif" font-size="10.00">/__w/vulpes/vulpes</text>
<text text-anchor="start" x="779.5" y="-172" font-family="Helvetica,sans-Serif" font-size="10.00">/vulpes/assemble/integrator</text>
<text text-anchor="middle" x="848" y="-161" font-family="Helvetica,sans-Serif" font-size="10.00">_base.hpp</text>
</a>
</g>
</g>
<!-- Node7&#45;&gt;Node9 -->
<g id="edge8_Node000007_Node000009" class="edge">
<title>Node7&#45;&gt;Node9</title>
<g id="a_edge8_Node000007_Node000009"><a xlink:title=" ">
<path fill="none" stroke="#63b8ff" d="M505.41,-523.74C493.26,-494.27 475,-442.2 475,-395.5 475,-395.5 475,-395.5 475,-322 475,-273.06 495.92,-257.6 537,-231 574.81,-206.52 692.12,-190.6 771.36,-182.34"/>
<polygon fill="#63b8ff" stroke="#63b8ff" points="502.29,-525.34 509.41,-533.18 508.73,-522.6 502.29,-525.34"/>
</a>
</g>
</g>
<!-- Node14 -->
<g id="Node000014" class="node">
<title>Node14</title>
<g id="a_Node000014"><a xlink:href="integrator__traits_8hpp.html" target="_top" xlink:title=" ">
<polygon fill="white" stroke="#666666" points="1029.5,-272 876.5,-272 876.5,-231 1029.5,-231 1029.5,-272"/>
<text text-anchor="start" x="884.5" y="-260" font-family="Helvetica,sans-Serif" font-size="10.00">/__w/vulpes/vulpes</text>
<text text-anchor="start" x="884.5" y="-249" font-family="Helvetica,sans-Serif" font-size="10.00">/vulpes/assemble/integrator</text>
<text text-anchor="middle" x="953" y="-238" font-family="Helvetica,sans-Serif" font-size="10.00">_traits.hpp</text>
</a>
</g>
</g>
<!-- Node7&#45;&gt;Node14 -->
<g id="edge14_Node000007_Node000014" class="edge">
<title>Node7&#45;&gt;Node14</title>
<g id="a_edge14_Node000007_Node000014"><a xlink:title=" ">
<path fill="none" stroke="#63b8ff" d="M594.12,-544.92C758.96,-537.61 1133.34,-510.62 1208,-415 1264.7,-342.38 1123.81,-292.96 1029.61,-269.06"/>
<polygon fill="#63b8ff" stroke="#63b8ff" points="593.89,-541.42 584.05,-545.35 594.19,-548.42 593.89,-541.42"/>
</a>
</g>
</g>
<!-- Node15 -->
<g id="Node000015" class="node">
<title>Node15</title>
<g id="a_Node000015"><a xlink:href="fe__expr__base_8hpp.html" target="_top" xlink:title=" ">
<polygon fill="white" stroke="#666666" points="890.5,-492 749.5,-492 749.5,-451 890.5,-451 890.5,-492"/>
<text text-anchor="start" x="757.5" y="-480" font-family="Helvetica,sans-Serif" font-size="10.00">/__w/vulpes/vulpes</text>
<text text-anchor="start" x="757.5" y="-469" font-family="Helvetica,sans-Serif" font-size="10.00">/vulpes/fe/fe_expressions</text>
<text text-anchor="middle" x="820" y="-458" font-family="Helvetica,sans-Serif" font-size="10.00">/fe_expr_base.hpp</text>
</a>
</g>
</g>
<!-- Node7&#45;&gt;Node15 -->
<g id="edge16_Node000007_Node000015" class="edge">
<title>Node7&#45;&gt;Node15</title>
<g id="a_edge16_Node000007_Node000015"><a xlink:title=" ">
<path fill="none" stroke="#63b8ff" d="M582.75,-531.03C632.06,-518.87 699.05,-502.34 749.27,-489.95"/>
<polygon fill="#63b8ff" stroke="#63b8ff" points="581.69,-527.69 572.82,-533.48 583.37,-534.48 581.69,-527.69"/>
</a>
</g>
</g>
<!-- Node10 -->
<g id="Node000010" class="node">
<title>Node10</title>
<g id="a_Node000010"><a xlink:href="integrator__gauss_8hpp.html" target="_top" xlink:title=" ">
<polygon fill="white" stroke="#666666" points="753.5,-118 600.5,-118 600.5,-77 753.5,-77 753.5,-118"/>
<text text-anchor="start" x="608.5" y="-106" font-family="Helvetica,sans-Serif" font-size="10.00">/__w/vulpes/vulpes</text>
<text text-anchor="start" x="608.5" y="-95" font-family="Helvetica,sans-Serif" font-size="10.00">/vulpes/assemble/integrator</text>
<text text-anchor="middle" x="677" y="-84" font-family="Helvetica,sans-Serif" font-size="10.00">_gauss.hpp</text>
</a>
</g>
</g>
<!-- Node9&#45;&gt;Node10 -->
<g id="edge9_Node000009_Node000010" class="edge">
<title>Node9&#45;&gt;Node10</title>
<g id="a_edge9_Node000009_Node000010"><a xlink:title=" ">
<path fill="none" stroke="#63b8ff" d="M794.1,-149.86C770.75,-139.62 743.75,-127.77 721.56,-118.04"/>
<polygon fill="#63b8ff" stroke="#63b8ff" points="792.95,-153.18 803.52,-153.99 795.77,-146.77 792.95,-153.18"/>
</a>
</g>
</g>
<!-- Node11 -->
<g id="Node000011" class="node">
<title>Node11</title>
<g id="a_Node000011"><a xlink:href="integrator__qfree_8hpp.html" target="_top" xlink:title=" ">
<polygon fill="white" stroke="#666666" points="1095.5,-118 942.5,-118 942.5,-77 1095.5,-77 1095.5,-118"/>
<text text-anchor="start" x="950.5" y="-106" font-family="Helvetica,sans-Serif" font-size="10.00">/__w/vulpes/vulpes</text>
<text text-anchor="start" x="950.5" y="-95" font-family="Helvetica,sans-Serif" font-size="10.00">/vulpes/assemble/integrator</text>
<text text-anchor="middle" x="1019" y="-84" font-family="Helvetica,sans-Serif" font-size="10.00">_qfree.hpp</text>
</a>
</g>
</g>
<!-- Node9&#45;&gt;Node11 -->
<g id="edge10_Node000009_Node000011" class="edge">
<title>Node9&#45;&gt;Node11</title>
<g id="a_edge10_Node000009_Node000011"><a xlink:title=" ">
<path fill="none" stroke="#63b8ff" d="M901.9,-149.86C925.25,-139.62 952.25,-127.77 974.44,-118.04"/>
<polygon fill="#63b8ff" stroke="#63b8ff" points="900.23,-146.77 892.48,-153.99 903.05,-153.18 900.23,-146.77"/>
</a>
</g>
</g>
<!-- Node13 -->
<g id="Node000013" class="node">
<title>Node13</title>
<g id="a_Node000013"><a xlink:href="integrator__simplexify_8hpp.html" target="_top" xlink:title=" ">
<polygon fill="white" stroke="#666666" points="924.5,-118 771.5,-118 771.5,-77 924.5,-77 924.5,-118"/>
<text text-anchor="start" x="779.5" y="-106" font-family="Helvetica,sans-Serif" font-size="10.00">/__w/vulpes/vulpes</text>
<text text-anchor="start" x="779.5" y="-95" font-family="Helvetica,sans-Serif" font-size="10.00">/vulpes/assemble/integrator</text>
<text text-anchor="middle" x="848" y="-84" font-family="Helvetica,sans-Serif" font-size="10.00">_simplexify.hpp</text>
</a>
</g>
</g>
<!-- Node9&#45;&gt;Node13 -->
<g id="edge12_Node000009_Node000013" class="edge">
<title>Node9&#45;&gt;Node13</title>
<g id="a_edge12_Node000009_Node000013"><a xlink:title=" ">
<path fill="none" stroke="#63b8ff" d="M848,-143.69C848,-135.08 848,-125.9 848,-118.07"/>
<polygon fill="#63b8ff" stroke="#63b8ff" points="844.5,-143.79 848,-153.79 851.5,-143.79 844.5,-143.79"/>
</a>
</g>
</g>
<!-- Node12 -->
<g id="Node000012" class="node">
<title>Node12</title>
<g id="a_Node000012"><a xlink:href="integrator__vem_8hpp.html" target="_top" xlink:title=" ">
<polygon fill="white" stroke="#666666" points="1009.5,-41 856.5,-41 856.5,0 1009.5,0 1009.5,-41"/>
<text text-anchor="start" x="864.5" y="-29" font-family="Helvetica,sans-Serif" font-size="10.00">/__w/vulpes/vulpes</text>
<text text-anchor="start" x="864.5" y="-18" font-family="Helvetica,sans-Serif" font-size="10.00">/vulpes/assemble/integrator</text>
<text text-anchor="middle" x="933" y="-7" font-family="Helvetica,sans-Serif" font-size="10.00">_vem.hpp</text>
</a>
</g>
</g>
<!-- Node11&#45;&gt;Node12 -->
<g id="edge11_Node000011_Node000012" class="edge">
<title>Node11&#45;&gt;Node12</title>
<g id="a_edge11_Node000011_Node000012"><a xlink:title=" ">
<path fill="none" stroke="#63b8ff" d="M988.69,-70.07C977.75,-60.52 965.6,-49.93 955.44,-41.07"/>
<polygon fill="#63b8ff" stroke="#63b8ff" points="986.57,-72.86 996.4,-76.79 991.17,-67.58 986.57,-72.86"/>
</a>
</g>
</g>
<!-- Node13&#45;&gt;Node12 -->
<g id="edge13_Node000013_Node000012" class="edge">
<title>Node13&#45;&gt;Node12</title>
<g id="a_edge13_Node000013_Node000012"><a xlink:title=" ">
<path fill="none" stroke="#63b8ff" d="M877.95,-70.07C888.77,-60.52 900.78,-49.93 910.82,-41.07"/>
<polygon fill="#63b8ff" stroke="#63b8ff" points="875.52,-67.55 870.33,-76.79 880.15,-72.8 875.52,-67.55"/>
</a>
</g>
</g>
<!-- Node14&#45;&gt;Node9 -->
<g id="edge15_Node000014_Node000009" class="edge">
<title>Node14&#45;&gt;Node9</title>
<g id="a_edge15_Node000014_Node000009"><a xlink:title=" ">
<path fill="none" stroke="#63b8ff" d="M917.43,-225.09C903.75,-215.32 888.35,-204.32 875.54,-195.17"/>
<polygon fill="#63b8ff" stroke="#63b8ff" points="915.51,-228.03 925.69,-230.99 919.58,-222.33 915.51,-228.03"/>
</a>
</g>
</g>
<!-- Node16 -->
<g id="Node000016" class="node">
<title>Node16</title>
<g id="a_Node000016"><a xlink:href="fe__expression_8hpp.html" target="_top" xlink:title=" ">
<polygon fill="white" stroke="#666666" points="926.5,-338 769.5,-338 769.5,-308 926.5,-308 926.5,-338"/>
<text text-anchor="start" x="777.5" y="-326" font-family="Helvetica,sans-Serif" font-size="10.00">/__w/vulpes/vulpes</text>
<text text-anchor="middle" x="848" y="-315" font-family="Helvetica,sans-Serif" font-size="10.00">/vulpes/fe/fe_expression.hpp</text>
</a>
</g>
</g>
<!-- Node15&#45;&gt;Node16 -->
<g id="edge17_Node000015_Node000016" class="edge">
<title>Node15&#45;&gt;Node16</title>
<g id="a_edge17_Node000015_Node000016"><a xlink:title=" ">
<path fill="none" stroke="#63b8ff" d="M839.47,-442.13C844.19,-433.76 848.57,-424.33 851,-415 857.89,-388.54 854.1,-356.28 850.91,-338.15"/>
<polygon fill="#63b8ff" stroke="#63b8ff" points="836.44,-440.37 834.29,-450.75 842.44,-443.98 836.44,-440.37"/>
</a>
</g>
</g>
<!-- Node18 -->
<g id="Node000018" class="node">
<title>Node18</title>
<g id="a_Node000018"><a xlink:href="fe__expr__basis_8hpp.html" target="_top" xlink:title=" ">
<polygon fill="white" stroke="#666666" points="1039.5,-415 898.5,-415 898.5,-374 1039.5,-374 1039.5,-415"/>
<text text-anchor="start" x="906.5" y="-403" font-family="Helvetica,sans-Serif" font-size="10.00">/__w/vulpes/vulpes</text>
<text text-anchor="start" x="906.5" y="-392" font-family="Helvetica,sans-Serif" font-size="10.00">/vulpes/fe/fe_expressions</text>
<text text-anchor="middle" x="969" y="-381" font-family="Helvetica,sans-Serif" font-size="10.00">/fe_expr_basis.hpp</text>
</a>
</g>
</g>
<!-- Node15&#45;&gt;Node18 -->
<g id="edge22_Node000015_Node000018" class="edge">
<title>Node15&#45;&gt;Node18</title>
<g id="a_edge22_Node000015_Node000018"><a xlink:title=" ">
<path fill="none" stroke="#63b8ff" d="M867.78,-446.45C887.94,-436.3 911.1,-424.64 930.18,-415.04"/>
<polygon fill="#63b8ff" stroke="#63b8ff" points="866.12,-443.37 858.76,-450.99 869.26,-449.62 866.12,-443.37"/>
</a>
</g>
</g>
<!-- Node19 -->
<g id="Node000019" class="node">
<title>Node19</title>
<g id="a_Node000019"><a xlink:href="fe__expr__func_8hpp.html" target="_top" xlink:title=" ">
<polygon fill="white" stroke="#666666" points="1198.5,-415 1057.5,-415 1057.5,-374 1198.5,-374 1198.5,-415"/>
<text text-anchor="start" x="1065.5" y="-403" font-family="Helvetica,sans-Serif" font-size="10.00">/__w/vulpes/vulpes</text>
<text text-anchor="start" x="1065.5" y="-392" font-family="Helvetica,sans-Serif" font-size="10.00">/vulpes/fe/fe_expressions</text>
<text text-anchor="middle" x="1128" y="-381" font-family="Helvetica,sans-Serif" font-size="10.00">/fe_expr_func.hpp</text>
</a>
</g>
</g>
<!-- Node15&#45;&gt;Node19 -->
<g id="edge24_Node000015_Node000019" class="edge">
<title>Node15&#45;&gt;Node19</title>
<g id="a_edge24_Node000015_Node000019"><a xlink:title=" ">
<path fill="none" stroke="#63b8ff" d="M900.44,-451.09C944.36,-440.47 999.68,-427.06 1049,-415 1051.74,-414.33 1054.54,-413.64 1057.37,-412.95"/>
<polygon fill="#63b8ff" stroke="#63b8ff" points="899.58,-447.7 890.68,-453.45 901.23,-454.5 899.58,-447.7"/>
</a>
</g>
</g>
<!-- Node20 -->
<g id="Node000020" class="node">
<title>Node20</title>
<g id="a_Node000020"><a xlink:href="fe__expr__op_8hpp.html" target="_top" xlink:title=" ">
<polygon fill="white" stroke="#666666" points="682.5,-415 541.5,-415 541.5,-374 682.5,-374 682.5,-415"/>
<text text-anchor="start" x="549.5" y="-403" font-family="Helvetica,sans-Serif" font-size="10.00">/__w/vulpes/vulpes</text>
<text text-anchor="start" x="549.5" y="-392" font-family="Helvetica,sans-Serif" font-size="10.00">/vulpes/fe/fe_expressions</text>
<text text-anchor="middle" x="612" y="-381" font-family="Helvetica,sans-Serif" font-size="10.00">/fe_expr_op.hpp</text>
</a>
</g>
</g>
<!-- Node15&#45;&gt;Node20 -->
<g id="edge26_Node000015_Node000020" class="edge">
<title>Node15&#45;&gt;Node20</title>
<g id="a_edge26_Node000015_Node000020"><a xlink:title=" ">
<path fill="none" stroke="#63b8ff" d="M756.32,-447.54C727.5,-437.15 693.79,-424.99 666.2,-415.04"/>
<polygon fill="#63b8ff" stroke="#63b8ff" points="755.3,-450.89 765.89,-450.99 757.67,-444.31 755.3,-450.89"/>
</a>
</g>
</g>
<!-- Node21 -->
<g id="Node000021" class="node">
<title>Node21</title>
<g id="a_Node000021"><a xlink:href="fe__expr__unary_8hpp.html" target="_top" xlink:title=" ">
<polygon fill="white" stroke="#666666" points="841.5,-415 700.5,-415 700.5,-374 841.5,-374 841.5,-415"/>
<text text-anchor="start" x="708.5" y="-403" font-family="Helvetica,sans-Serif" font-size="10.00">/__w/vulpes/vulpes</text>
<text text-anchor="start" x="708.5" y="-392" font-family="Helvetica,sans-Serif" font-size="10.00">/vulpes/fe/fe_expressions</text>
<text text-anchor="middle" x="771" y="-381" font-family="Helvetica,sans-Serif" font-size="10.00">/fe_expr_unary.hpp</text>
</a>
</g>
</g>
<!-- Node15&#45;&gt;Node21 -->
<g id="edge28_Node000015_Node000021" class="edge">
<title>Node15&#45;&gt;Node21</title>
<g id="a_edge28_Node000015_Node000021"><a xlink:title=" ">
<path fill="none" stroke="#63b8ff" d="M801.64,-442.39C795.69,-433.3 789.24,-423.41 783.79,-415.07"/>
<polygon fill="#63b8ff" stroke="#63b8ff" points="798.73,-444.34 807.13,-450.79 804.59,-440.51 798.73,-444.34"/>
</a>
</g>
</g>
<!-- Node16&#45;&gt;Node8 -->
<g id="edge18_Node000016_Node000008" class="edge">
<title>Node16&#45;&gt;Node8</title>
<g id="a_edge18_Node000016_Node000008"><a xlink:title=" ">
<path fill="none" stroke="#63b8ff" d="M788.9,-305.1C750.81,-294.2 701.5,-280.1 663.52,-269.24"/>
<polygon fill="#63b8ff" stroke="#63b8ff" points="788.25,-308.55 798.83,-307.94 790.17,-301.82 788.25,-308.55"/>
</a>
</g>
</g>
<!-- Node16&#45;&gt;Node9 -->
<g id="edge19_Node000016_Node000009" class="edge">
<title>Node16&#45;&gt;Node9</title>
<g id="a_edge19_Node000016_Node000009"><a xlink:title=" ">
<path fill="none" stroke="#63b8ff" d="M848,-297.58C848,-268.88 848,-221.8 848,-195.27"/>
<polygon fill="#63b8ff" stroke="#63b8ff" points="844.5,-297.95 848,-307.95 851.5,-297.95 844.5,-297.95"/>
</a>
</g>
</g>
<!-- Node16&#45;&gt;Node14 -->
<g id="edge20_Node000016_Node000014" class="edge">
<title>Node16&#45;&gt;Node14</title>
<g id="a_edge20_Node000016_Node000014"><a xlink:title=" ">
<path fill="none" stroke="#63b8ff" d="M877.74,-302.31C892.05,-292.84 909.15,-281.53 923.43,-272.07"/>
<polygon fill="#63b8ff" stroke="#63b8ff" points="875.66,-299.5 869.25,-307.94 879.52,-305.33 875.66,-299.5"/>
</a>
</g>
</g>
<!-- Node17 -->
<g id="Node000017" class="node">
<title>Node17</title>
<g id="a_Node000017"><a xlink:href="fe__vem_8hpp.html" target="_top" xlink:title=" ">
<polygon fill="white" stroke="#666666" points="820,-272 704,-272 704,-231 820,-231 820,-272"/>
<text text-anchor="start" x="712" y="-260" font-family="Helvetica,sans-Serif" font-size="10.00">/__w/vulpes/vulpes</text>
<text text-anchor="start" x="712" y="-249" font-family="Helvetica,sans-Serif" font-size="10.00">/vulpes/fe/fe_spaces</text>
<text text-anchor="middle" x="762" y="-238" font-family="Helvetica,sans-Serif" font-size="10.00">/fe_vem.hpp</text>
</a>
</g>
</g>
<!-- Node16&#45;&gt;Node17 -->
<g id="edge21_Node000016_Node000017" class="edge">
<title>Node16&#45;&gt;Node17</title>
<g id="a_edge21_Node000016_Node000017"><a xlink:title=" ">
<path fill="none" stroke="#63b8ff" d="M822.64,-301.5C811.13,-292.21 797.59,-281.26 786.22,-272.07"/>
<polygon fill="#63b8ff" stroke="#63b8ff" points="820.62,-304.37 830.6,-307.94 825.02,-298.93 820.62,-304.37"/>
</a>
</g>
</g>
<!-- Node18&#45;&gt;Node16 -->
<g id="edge23_Node000018_Node000016" class="edge">
<title>Node18&#45;&gt;Node16</title>
<g id="a_edge23_Node000018_Node000016"><a xlink:title=" ">
<path fill="none" stroke="#63b8ff" d="M925.86,-368.72C907.97,-358.44 887.87,-346.9 872.57,-338.11"/>
<polygon fill="#63b8ff" stroke="#63b8ff" points="924.56,-372.01 934.97,-373.96 928.04,-365.94 924.56,-372.01"/>
</a>
</g>
</g>
<!-- Node19&#45;&gt;Node16 -->
<g id="edge25_Node000019_Node000016" class="edge">
<title>Node19&#45;&gt;Node16</title>
<g id="a_edge25_Node000019_Node000016"><a xlink:title=" ">
<path fill="none" stroke="#63b8ff" d="M1047.45,-373.51C1001.72,-362.16 945.59,-348.22 904.54,-338.03"/>
<polygon fill="#63b8ff" stroke="#63b8ff" points="1046.8,-376.95 1057.34,-375.96 1048.48,-370.16 1046.8,-376.95"/>
</a>
</g>
</g>
<!-- Node20&#45;&gt;Node16 -->
<g id="edge27_Node000020_Node000016" class="edge">
<title>Node20&#45;&gt;Node16</title>
<g id="a_edge27_Node000020_Node000016"><a xlink:title=" ">
<path fill="none" stroke="#63b8ff" d="M688.1,-371.09C725.04,-360.21 768.26,-347.48 800.45,-338"/>
<polygon fill="#63b8ff" stroke="#63b8ff" points="686.97,-367.77 678.37,-373.96 688.95,-374.49 686.97,-367.77"/>
</a>
</g>
</g>
<!-- Node21&#45;&gt;Node16 -->
<g id="edge29_Node000021_Node000016" class="edge">
<title>Node21&#45;&gt;Node16</title>
<g id="a_edge29_Node000021_Node000016"><a xlink:title=" ">
<path fill="none" stroke="#63b8ff" d="M800.54,-366.83C811.41,-357.02 823.29,-346.3 832.45,-338.04"/>
<polygon fill="#63b8ff" stroke="#63b8ff" points="797.94,-364.47 792.86,-373.77 802.63,-369.67 797.94,-364.47"/>
</a>
</g>
</g>
</g>
</svg>
