<?xml version="1.0" encoding="UTF-8" standalone="no"?>
<!DOCTYPE svg PUBLIC "-//W3C//DTD SVG 1.1//EN"
 "http://www.w3.org/Graphics/SVG/1.1/DTD/svg11.dtd">
<!-- Generated by graphviz version 2.42.4 (0)
 -->
<!-- Title: /__w/vulpes/vulpes/vulpes/geometry/mapping.hpp Pages: 1 -->
<svg width="1415pt" height="643pt"
 viewBox="0.00 0.00 1415.00 643.00" xmlns="http://www.w3.org/2000/svg" xmlns:xlink="http://www.w3.org/1999/xlink">
<g id="graph0" class="graph" transform="scale(1 1) rotate(0) translate(4 639)">
<title>/__w/vulpes/vulpes/vulpes/geometry/mapping.hpp</title>
<!-- Node1 -->
<g id="Node000001" class="node">
<title>Node1</title>
<g id="a_Node000001"><a xlink:title=" ">
<polygon fill="#999999" stroke="#666666" points="718.5,-635 549.5,-635 549.5,-605 718.5,-605 718.5,-635"/>
<text text-anchor="start" x="557.5" y="-623" font-family="Helvetica,sans-Serif" font-size="10.00">/__w/vulpes/vulpes</text>
<text text-anchor="middle" x="634" y="-612" font-family="Helvetica,sans-Serif" font-size="10.00">/vulpes/geometry/mapping.hpp</text>
</a>
</g>
</g>
<!-- Node2 -->
<g id="Node000002" class="node">
<title>Node2</title>
<g id="a_Node000002"><a xlink:href="cell__manager_8hpp.html" target="_top" xlink:title=" ">
<polygon fill="white" stroke="#666666" points="625,-569 503,-569 503,-528 625,-528 625,-569"/>
<text text-anchor="start" x="511" y="-557" font-family="Helvetica,sans-Serif" font-size="10.00">/__w/vulpes/vulpes</text>
<text text-anchor="start" x="511" y="-546" font-family="Helvetica,sans-Serif" font-size="10.00">/vulpes/assemble/cell</text>
<text text-anchor="middle" x="564" y="-535" font-family="Helvetica,sans-Serif" font-size="10.00">_manager.hpp</text>
</a>
</g>
</g>
<!-- Node1&#45;&gt;Node2 -->
<g id="edge1_Node000001_Node000002" class="edge">
<title>Node1&#45;&gt;Node2</title>
<g id="a_edge1_Node000001_Node000002"><a xlink:title=" ">
<path fill="none" stroke="#63b8ff" d="M612.53,-597.69C603.35,-588.57 592.7,-577.99 583.71,-569.07"/>
<polygon fill="#63b8ff" stroke="#63b8ff" points="610.27,-600.37 619.83,-604.94 615.2,-595.41 610.27,-600.37"/>
</a>
</g>
</g>
<!-- Node9 -->
<g id="Node000009" class="node">
<title>Node9</title>
<g id="a_Node000009"><a xlink:href="fe__lagrange__simplex_8hpp.html" target="_top" xlink:title=" ">
<polygon fill="white" stroke="#666666" points="410.5,-569 267.5,-569 267.5,-528 410.5,-528 410.5,-569"/>
<text text-anchor="start" x="275.5" y="-557" font-family="Helvetica,sans-Serif" font-size="10.00">/__w/vulpes/vulpes</text>
<text text-anchor="start" x="275.5" y="-546" font-family="Helvetica,sans-Serif" font-size="10.00">/vulpes/fe/fe_spaces</text>
<text text-anchor="middle" x="339" y="-535" font-family="Helvetica,sans-Serif" font-size="10.00">/fe_lagrange_simplex.hpp</text>
</a>
</g>
</g>
<!-- Node1&#45;&gt;Node9 -->
<g id="edge9_Node000001_Node000009" class="edge">
<title>Node1&#45;&gt;Node9</title>
<g id="a_edge9_Node000001_Node000009"><a xlink:title=" ">
<path fill="none" stroke="#63b8ff" d="M564.35,-602.59C518.01,-591.67 457.31,-577.37 410.58,-566.36"/>
<polygon fill="#63b8ff" stroke="#63b8ff" points="563.77,-606.05 574.3,-604.94 565.37,-599.24 563.77,-606.05"/>
</a>
</g>
</g>
<!-- Node13 -->
<g id="Node000013" class="node">
<title>Node13</title>
<g id="a_Node000013"><a xlink:href="fe__modal__tensor_8hpp.html" target="_top" xlink:title=" ">
<polygon fill="white" stroke="#666666" points="765,-569 643,-569 643,-528 765,-528 765,-569"/>
<text text-anchor="start" x="651" y="-557" font-family="Helvetica,sans-Serif" font-size="10.00">/__w/vulpes/vulpes</text>
<text text-anchor="start" x="651" y="-546" font-family="Helvetica,sans-Serif" font-size="10.00">/vulpes/fe/fe_spaces</text>
<text text-anchor="middle" x="704" y="-535" font-family="Helvetica,sans-Serif" font-size="10.00">/fe_modal_tensor.hpp</text>
</a>
</g>
</g>
<!-- Node1&#45;&gt;Node13 -->
<g id="edge13_Node000001_Node000013" class="edge">
<title>Node1&#45;&gt;Node13</title>
<g id="a_edge13_Node000001_Node000013"><a xlink:title=" ">
<path fill="none" stroke="#63b8ff" d="M655.47,-597.69C664.65,-588.57 675.3,-577.99 684.29,-569.07"/>
<polygon fill="#63b8ff" stroke="#63b8ff" points="652.8,-595.41 648.17,-604.94 657.73,-600.37 652.8,-595.41"/>
</a>
</g>
</g>
<!-- Node14 -->
<g id="Node000014" class="node">
<title>Node14</title>
<g id="a_Node000014"><a xlink:href="fe__values_8hpp.html" target="_top" xlink:title=" ">
<polygon fill="white" stroke="#666666" points="1020,-563.5 884,-563.5 884,-533.5 1020,-533.5 1020,-563.5"/>
<text text-anchor="start" x="892" y="-551.5" font-family="Helvetica,sans-Serif" font-size="10.00">/__w/vulpes/vulpes</text>
<text text-anchor="middle" x="952" y="-540.5" font-family="Helvetica,sans-Serif" font-size="10.00">/vulpes/fe/fe_values.hpp</text>
</a>
</g>
</g>
<!-- Node1&#45;&gt;Node14 -->
<g id="edge14_Node000001_Node000014" class="edge">
<title>Node1&#45;&gt;Node14</title>
<g id="a_edge14_Node000001_Node000014"><a xlink:title=" ">
<path fill="none" stroke="#63b8ff" d="M708.29,-602.76C762.71,-590.87 835.83,-574.89 887.74,-563.54"/>
<polygon fill="#63b8ff" stroke="#63b8ff" points="707.37,-599.38 698.35,-604.94 708.87,-606.22 707.37,-599.38"/>
</a>
</g>
</g>
<!-- Node3 -->
<g id="Node000003" class="node">
<title>Node3</title>
<g id="a_Node000003"><a xlink:href="integrator__base_8hpp.html" target="_top" xlink:title=" ">
<polygon fill="white" stroke="#666666" points="1104.5,-195 951.5,-195 951.5,-154 1104.5,-154 1104.5,-195"/>
<text text-anchor="start" x="959.5" y="-183" font-family="Helvetica,sans-Serif" font-size="10.00">/__w/vulpes/vulpes</text>
<text text-anchor="start" x="959.5" y="-172" font-family="Helvetica,sans-Serif" font-size="10.00">/vulpes/assemble/integrator</text>
<text text-anchor="middle" x="1028" y="-161" font-family="Helvetica,sans-Serif" font-size="10.00">_base.hpp</text>
</a>
</g>
</g>
<!-- Node2&#45;&gt;Node3 -->
<g id="edge2_Node000002_Node000003" class="edge">
<title>Node2&#45;&gt;Node3</title>
<g id="a_edge2_Node000002_Node000003"><a xlink:title=" ">
<path fill="none" stroke="#63b8ff" d="M584.46,-519.5C589.87,-511.01 595.25,-501.43 599,-492 615.15,-451.38 618,-439.21 618,-395.5 618,-395.5 618,-395.5 618,-322 618,-261.91 664.09,-257.56 718,-231 791.94,-194.58 886.29,-181.8 951.38,-177.46"/>
<polygon fill="#63b8ff" stroke="#63b8ff" points="581.49,-517.64 578.86,-527.91 587.32,-521.52 581.49,-517.64"/>
</a>
</g>
</g>
<!-- Node8 -->
<g id="Node000008" class="node">
<title>Node8</title>
<g id="a_Node000008"><a xlink:href="project__solution_8hpp.html" target="_top" xlink:title=" ">
<polygon fill="white" stroke="#666666" points="590,-492 462,-492 462,-451 590,-451 590,-492"/>
<text text-anchor="start" x="470" y="-480" font-family="Helvetica,sans-Serif" font-size="10.00">/__w/vulpes/vulpes</text>
<text text-anchor="start" x="470" y="-469" font-family="Helvetica,sans-Serif" font-size="10.00">/vulpes/postprocessing</text>
<text text-anchor="middle" x="526" y="-458" font-family="Helvetica,sans-Serif" font-size="10.00">/project_solution.hpp</text>
</a>
</g>
</g>
<!-- Node2&#45;&gt;Node8 -->
<g id="edge8_Node000002_Node000008" class="edge">
<title>Node2&#45;&gt;Node8</title>
<g id="a_edge8_Node000002_Node000008"><a xlink:title=" ">
<path fill="none" stroke="#63b8ff" d="M549.47,-518.83C544.94,-509.89 540.05,-500.24 535.92,-492.07"/>
<polygon fill="#63b8ff" stroke="#63b8ff" points="546.37,-520.46 554.02,-527.79 552.62,-517.29 546.37,-520.46"/>
</a>
</g>
</g>
<!-- Node4 -->
<g id="Node000004" class="node">
<title>Node4</title>
<g id="a_Node000004"><a xlink:href="integrator__gauss_8hpp.html" target="_top" xlink:title=" ">
<polygon fill="white" stroke="#666666" points="933.5,-118 780.5,-118 780.5,-77 933.5,-77 933.5,-118"/>
<text text-anchor="start" x="788.5" y="-106" font-family="Helvetica,sans-Serif" font-size="10.00">/__w/vulpes/vulpes</text>
<text text-anchor="start" x="788.5" y="-95" font-family="Helvetica,sans-Serif" font-size="10.00">/vulpes/assemble/integrator</text>
<text text-anchor="middle" x="857" y="-84" font-family="Helvetica,sans-Serif" font-size="10.00">_gauss.hpp</text>
</a>
</g>
</g>
<!-- Node3&#45;&gt;Node4 -->
<g id="edge3_Node000003_Node000004" class="edge">
<title>Node3&#45;&gt;Node4</title>
<g id="a_edge3_Node000003_Node000004"><a xlink:title=" ">
<path fill="none" stroke="#63b8ff" d="M974.1,-149.86C950.75,-139.62 923.75,-127.77 901.56,-118.04"/>
<polygon fill="#63b8ff" stroke="#63b8ff" points="972.95,-153.18 983.52,-153.99 975.77,-146.77 972.95,-153.18"/>
</a>
</g>
</g>
<!-- Node5 -->
<g id="Node000005" class="node">
<title>Node5</title>
<g id="a_Node000005"><a xlink:href="integrator__qfree_8hpp.html" target="_top" xlink:title=" ">
<polygon fill="white" stroke="#666666" points="1275.5,-118 1122.5,-118 1122.5,-77 1275.5,-77 1275.5,-118"/>
<text text-anchor="start" x="1130.5" y="-106" font-family="Helvetica,sans-Serif" font-size="10.00">/__w/vulpes/vulpes</text>
<text text-anchor="start" x="1130.5" y="-95" font-family="Helvetica,sans-Serif" font-size="10.00">/vulpes/assemble/integrator</text>
<text text-anchor="middle" x="1199" y="-84" font-family="Helvetica,sans-Serif" font-size="10.00">_qfree.hpp</text>
</a>
</g>
</g>
<!-- Node3&#45;&gt;Node5 -->
<g id="edge4_Node000003_Node000005" class="edge">
<title>Node3&#45;&gt;Node5</title>
<g id="a_edge4_Node000003_Node000005"><a xlink:title=" ">
<path fill="none" stroke="#63b8ff" d="M1081.9,-149.86C1105.25,-139.62 1132.25,-127.77 1154.44,-118.04"/>
<polygon fill="#63b8ff" stroke="#63b8ff" points="1080.23,-146.77 1072.48,-153.99 1083.05,-153.18 1080.23,-146.77"/>
</a>
</g>
</g>
<!-- Node7 -->
<g id="Node000007" class="node">
<title>Node7</title>
<g id="a_Node000007"><a xlink:href="integrator__simplexify_8hpp.html" target="_top" xlink:title=" ">
<polygon fill="white" stroke="#666666" points="1104.5,-118 951.5,-118 951.5,-77 1104.5,-77 1104.5,-118"/>
<text text-anchor="start" x="959.5" y="-106" font-family="Helvetica,sans-Serif" font-size="10.00">/__w/vulpes/vulpes</text>
<text text-anchor="start" x="959.5" y="-95" font-family="Helvetica,sans-Serif" font-size="10.00">/vulpes/assemble/integrator</text>
<text text-anchor="middle" x="1028" y="-84" font-family="Helvetica,sans-Serif" font-size="10.00">_simplexify.hpp</text>
</a>
</g>
</g>
<!-- Node3&#45;&gt;Node7 -->
<g id="edge6_Node000003_Node000007" class="edge">
<title>Node3&#45;&gt;Node7</title>
<g id="a_edge6_Node000003_Node000007"><a xlink:title=" ">
<path fill="none" stroke="#63b8ff" d="M1028,-143.69C1028,-135.08 1028,-125.9 1028,-118.07"/>
<polygon fill="#63b8ff" stroke="#63b8ff" points="1024.5,-143.79 1028,-153.79 1031.5,-143.79 1024.5,-143.79"/>
</a>
</g>
</g>
<!-- Node6 -->
<g id="Node000006" class="node">
<title>Node6</title>
<g id="a_Node000006"><a xlink:href="integrator__vem_8hpp.html" target="_top" xlink:title=" ">
<polygon fill="white" stroke="#666666" points="1189.5,-41 1036.5,-41 1036.5,0 1189.5,0 1189.5,-41"/>
<text text-anchor="start" x="1044.5" y="-29" font-family="Helvetica,sans-Serif" font-size="10.00">/__w/vulpes/vulpes</text>
<text text-anchor="start" x="1044.5" y="-18" font-family="Helvetica,sans-Serif" font-size="10.00">/vulpes/assemble/integrator</text>
<text text-anchor="middle" x="1113" y="-7" font-family="Helvetica,sans-Serif" font-size="10.00">_vem.hpp</text>
</a>
</g>
</g>
<!-- Node5&#45;&gt;Node6 -->
<g id="edge5_Node000005_Node000006" class="edge">
<title>Node5&#45;&gt;Node6</title>
<g id="a_edge5_Node000005_Node000006"><a xlink:title=" ">
<path fill="none" stroke="#63b8ff" d="M1168.69,-70.07C1157.75,-60.52 1145.6,-49.93 1135.44,-41.07"/>
<polygon fill="#63b8ff" stroke="#63b8ff" points="1166.57,-72.86 1176.4,-76.79 1171.17,-67.58 1166.57,-72.86"/>
</a>
</g>
</g>
<!-- Node7&#45;&gt;Node6 -->
<g id="edge7_Node000007_Node000006" class="edge">
<title>Node7&#45;&gt;Node6</title>
<g id="a_edge7_Node000007_Node000006"><a xlink:title=" ">
<path fill="none" stroke="#63b8ff" d="M1057.95,-70.07C1068.77,-60.52 1080.78,-49.93 1090.82,-41.07"/>
<polygon fill="#63b8ff" stroke="#63b8ff" points="1055.52,-67.55 1050.33,-76.79 1060.15,-72.8 1055.52,-67.55"/>
</a>
</g>
</g>
<!-- Node10 -->
<g id="Node000010" class="node">
<title>Node10</title>
<g id="a_Node000010"><a xlink:href="fe__lagrange__simplex_8cpp.html" target="_top" xlink:title=" ">
<polygon fill="white" stroke="#666666" points="142,-492 0,-492 0,-451 142,-451 142,-492"/>
<text text-anchor="start" x="8" y="-480" font-family="Helvetica,sans-Serif" font-size="10.00">/__w/vulpes/vulpes</text>
<text text-anchor="start" x="8" y="-469" font-family="Helvetica,sans-Serif" font-size="10.00">/vulpes/fe/fe_spaces</text>
<text text-anchor="middle" x="71" y="-458" font-family="Helvetica,sans-Serif" font-size="10.00">/fe_lagrange_simplex.cpp</text>
</a>
</g>
</g>
<!-- Node9&#45;&gt;Node10 -->
<g id="edge10_Node000009_Node000010" class="edge">
<title>Node9&#45;&gt;Node10</title>
<g id="a_edge10_Node000009_Node000010"><a xlink:title=" ">
<path fill="none" stroke="#63b8ff" d="M259.37,-525.21C221.71,-514.68 177.15,-502.21 140.83,-492.04"/>
<polygon fill="#63b8ff" stroke="#63b8ff" points="258.71,-528.67 269.29,-527.99 260.6,-521.92 258.71,-528.67"/>
</a>
</g>
</g>
<!-- Node11 -->
<g id="Node000011" class="node">
<title>Node11</title>
<g id="a_Node000011"><a xlink:href="fe__lagrange__tensor_8hpp.html" target="_top" xlink:title=" ">
<polygon fill="white" stroke="#666666" points="294,-492 160,-492 160,-451 294,-451 294,-492"/>
<text text-anchor="start" x="168" y="-480" font-family="Helvetica,sans-Serif" font-size="10.00">/__w/vulpes/vulpes</text>
<text text-anchor="start" x="168" y="-469" font-family="Helvetica,sans-Serif" font-size="10.00">/vulpes/fe/fe_spaces</text>
<text text-anchor="middle" x="227" y="-458" font-family="Helvetica,sans-Serif" font-size="10.00">/fe_lagrange_tensor.hpp</text>
</a>
</g>
</g>
<!-- Node9&#45;&gt;Node11 -->
<g id="edge11_Node000009_Node000011" class="edge">
<title>Node9&#45;&gt;Node11</title>
<g id="a_edge11_Node000009_Node000011"><a xlink:title=" ">
<path fill="none" stroke="#63b8ff" d="M301.47,-522.37C286.78,-512.53 270.17,-501.41 256.38,-492.17"/>
<polygon fill="#63b8ff" stroke="#63b8ff" points="299.61,-525.33 309.87,-527.99 303.5,-519.52 299.61,-525.33"/>
</a>
</g>
</g>
<!-- Node12 -->
<g id="Node000012" class="node">
<title>Node12</title>
<g id="a_Node000012"><a xlink:href="fe__modal__simplex_8hpp.html" target="_top" xlink:title=" ">
<polygon fill="white" stroke="#666666" points="443.5,-492 312.5,-492 312.5,-451 443.5,-451 443.5,-492"/>
<text text-anchor="start" x="320.5" y="-480" font-family="Helvetica,sans-Serif" font-size="10.00">/__w/vulpes/vulpes</text>
<text text-anchor="start" x="320.5" y="-469" font-family="Helvetica,sans-Serif" font-size="10.00">/vulpes/fe/fe_spaces</text>
<text text-anchor="middle" x="378" y="-458" font-family="Helvetica,sans-Serif" font-size="10.00">/fe_modal_simplex.hpp</text>
</a>
</g>
</g>
<!-- Node9&#45;&gt;Node12 -->
<g id="edge12_Node000009_Node000012" class="edge">
<title>Node9&#45;&gt;Node12</title>
<g id="a_edge12_Node000009_Node000012"><a xlink:title=" ">
<path fill="none" stroke="#63b8ff" d="M353.91,-518.83C358.56,-509.89 363.58,-500.24 367.82,-492.07"/>
<polygon fill="#63b8ff" stroke="#63b8ff" points="350.76,-517.31 349.25,-527.79 356.97,-520.54 350.76,-517.31"/>
</a>
</g>
</g>
<!-- Node14&#45;&gt;Node3 -->
<g id="edge16_Node000014_Node000003" class="edge">
<title>Node14&#45;&gt;Node3</title>
<g id="a_edge16_Node000014_Node000003"><a xlink:title=" ">
<path fill="none" stroke="#63b8ff" d="M1030.21,-540.48C1118.58,-531.63 1256.18,-514.75 1303,-492 1359.71,-464.44 1407,-458.56 1407,-395.5 1407,-395.5 1407,-395.5 1407,-322 1407,-257.81 1215.44,-210.84 1104.7,-189.05"/>
<polygon fill="#63b8ff" stroke="#63b8ff" points="1029.83,-537 1020.22,-541.47 1030.52,-543.97 1029.83,-537"/>
</a>
</g>
</g>
<!-- Node15 -->
<g id="Node000015" class="node">
<title>Node15</title>
<g id="a_Node000015"><a xlink:href="dg__utils_8hpp.html" target="_top" xlink:title=" ">
<polygon fill="white" stroke="#666666" points="843.5,-272 726.5,-272 726.5,-231 843.5,-231 843.5,-272"/>
<text text-anchor="start" x="734.5" y="-260" font-family="Helvetica,sans-Serif" font-size="10.00">/__w/vulpes/vulpes</text>
<text text-anchor="start" x="734.5" y="-249" font-family="Helvetica,sans-Serif" font-size="10.00">/vulpes/assemble/dg</text>
<text text-anchor="middle" x="785" y="-238" font-family="Helvetica,sans-Serif" font-size="10.00">_utils.hpp</text>
</a>
</g>
</g>
<!-- Node14&#45;&gt;Node15 -->
<g id="edge15_Node000014_Node000015" class="edge">
<title>Node14&#45;&gt;Node15</title>
<g id="a_edge15_Node000014_Node000015"><a xlink:title=" ">
<path fill="none" stroke="#63b8ff" d="M876.63,-530.6C816.89,-512.81 737.3,-478.29 699,-415 668.68,-364.89 726.01,-303.12 760.92,-272.16"/>
<polygon fill="#63b8ff" stroke="#63b8ff" points="875.84,-534.02 886.41,-533.42 877.77,-527.29 875.84,-534.02"/>
</a>
</g>
</g>
<!-- Node16 -->
<g id="Node000016" class="node">
<title>Node16</title>
<g id="a_Node000016"><a xlink:href="integrator__traits_8hpp.html" target="_top" xlink:title=" ">
<polygon fill="white" stroke="#666666" points="1224.5,-272 1071.5,-272 1071.5,-231 1224.5,-231 1224.5,-272"/>
<text text-anchor="start" x="1079.5" y="-260" font-family="Helvetica,sans-Serif" font-size="10.00">/__w/vulpes/vulpes</text>
<text text-anchor="start" x="1079.5" y="-249" font-family="Helvetica,sans-Serif" font-size="10.00">/vulpes/assemble/integrator</text>
<text text-anchor="middle" x="1148" y="-238" font-family="Helvetica,sans-Serif" font-size="10.00">_traits.hpp</text>
</a>
</g>
</g>
<!-- Node14&#45;&gt;Node16 -->
<g id="edge17_Node000014_Node000016" class="edge">
<title>Node14&#45;&gt;Node16</title>
<g id="a_edge17_Node000014_Node000016"><a xlink:title=" ">
<path fill="none" stroke="#63b8ff" d="M1030.38,-546.79C1124.02,-541.2 1277.16,-516.02 1350,-415 1395.94,-351.29 1285.39,-298.93 1210.35,-272.05"/>
<polygon fill="#63b8ff" stroke="#63b8ff" points="1030.18,-543.29 1020.38,-547.32 1030.56,-550.28 1030.18,-543.29"/>
</a>
</g>
</g>
<!-- Node17 -->
<g id="Node000017" class="node">
<title>Node17</title>
<g id="a_Node000017"><a xlink:href="fe__expr__base_8hpp.html" target="_top" xlink:title=" ">
<polygon fill="white" stroke="#666666" points="1022.5,-492 881.5,-492 881.5,-451 1022.5,-451 1022.5,-492"/>
<text text-anchor="start" x="889.5" y="-480" font-family="Helvetica,sans-Serif" font-size="10.00">/__w/vulpes/vulpes</text>
<text text-anchor="start" x="889.5" y="-469" font-family="Helvetica,sans-Serif" font-size="10.00">/vulpes/fe/fe_expressions</text>
<text text-anchor="middle" x="952" y="-458" font-family="Helvetica,sans-Serif" font-size="10.00">/fe_expr_base.hpp</text>
</a>
</g>
</g>
<!-- Node14&#45;&gt;Node17 -->
<g id="edge19_Node000014_Node000017" class="edge">
<title>Node14&#45;&gt;Node17</title>
<g id="a_edge19_Node000014_Node000017"><a xlink:title=" ">
<path fill="none" stroke="#63b8ff" d="M952,-523.23C952,-513.2 952,-501.71 952,-492.2"/>
<polygon fill="#63b8ff" stroke="#63b8ff" points="948.5,-523.39 952,-533.39 955.5,-523.39 948.5,-523.39"/>
</a>
</g>
</g>
<!-- Node16&#45;&gt;Node3 -->
<g id="edge18_Node000016_Node000003" class="edge">
<title>Node16&#45;&gt;Node3</title>
<g id="a_edge18_Node000016_Node000003"><a xlink:title=" ">
<path fill="none" stroke="#63b8ff" d="M1108.23,-225.64C1092.38,-215.74 1074.39,-204.5 1059.48,-195.17"/>
<polygon fill="#63b8ff" stroke="#63b8ff" points="1106.45,-228.66 1116.78,-230.99 1110.16,-222.72 1106.45,-228.66"/>
</a>
</g>
</g>
<!-- Node18 -->
<g id="Node000018" class="node">
<title>Node18</title>
<g id="a_Node000018"><a xlink:href="fe__expression_8hpp.html" target="_top" xlink:title=" ">
<polygon fill="white" stroke="#666666" points="1030.5,-338 873.5,-338 873.5,-308 1030.5,-308 1030.5,-338"/>
<text text-anchor="start" x="881.5" y="-326" font-family="Helvetica,sans-Serif" font-size="10.00">/__w/vulpes/vulpes</text>
<text text-anchor="middle" x="952" y="-315" font-family="Helvetica,sans-Serif" font-size="10.00">/vulpes/fe/fe_expression.hpp</text>
</a>
</g>
</g>
<!-- Node17&#45;&gt;Node18 -->
<g id="edge20_Node000017_Node000018" class="edge">
<title>Node17&#45;&gt;Node18</title>
<g id="a_edge20_Node000017_Node000018"><a xlink:title=" ">
<path fill="none" stroke="#63b8ff" d="M871.11,-464.84C784.85,-455.7 666.63,-432.36 714,-374 733.92,-349.46 811.98,-336.52 873.34,-330.01"/>
<polygon fill="#63b8ff" stroke="#63b8ff" points="870.9,-468.34 881.2,-465.86 871.6,-461.37 870.9,-468.34"/>
</a>
</g>
</g>
<!-- Node20 -->
<g id="Node000020" class="node">
<title>Node20</title>
<g id="a_Node000020"><a xlink:href="fe__expr__basis_8hpp.html" target="_top" xlink:title=" ">
<polygon fill="white" stroke="#666666" points="863.5,-415 722.5,-415 722.5,-374 863.5,-374 863.5,-415"/>
<text text-anchor="start" x="730.5" y="-403" font-family="Helvetica,sans-Serif" font-size="10.00">/__w/vulpes/vulpes</text>
<text text-anchor="start" x="730.5" y="-392" font-family="Helvetica,sans-Serif" font-size="10.00">/vulpes/fe/fe_expressions</text>
<text text-anchor="middle" x="793" y="-381" font-family="Helvetica,sans-Serif" font-size="10.00">/fe_expr_basis.hpp</text>
</a>
</g>
</g>
<!-- Node17&#45;&gt;Node20 -->
<g id="edge25_Node000017_Node000020" class="edge">
<title>Node17&#45;&gt;Node20</title>
<g id="a_edge25_Node000017_Node000020"><a xlink:title=" ">
<path fill="none" stroke="#63b8ff" d="M901.59,-446.72C879.95,-436.51 854.97,-424.73 834.43,-415.04"/>
<polygon fill="#63b8ff" stroke="#63b8ff" points="900.1,-449.89 910.64,-450.99 903.09,-443.56 900.1,-449.89"/>
</a>
</g>
</g>
<!-- Node21 -->
<g id="Node000021" class="node">
<title>Node21</title>
<g id="a_Node000021"><a xlink:href="fe__expr__func_8hpp.html" target="_top" xlink:title=" ">
<polygon fill="white" stroke="#666666" points="1022.5,-415 881.5,-415 881.5,-374 1022.5,-374 1022.5,-415"/>
<text text-anchor="start" x="889.5" y="-403" font-family="Helvetica,sans-Serif" font-size="10.00">/__w/vulpes/vulpes</text>
<text text-anchor="start" x="889.5" y="-392" font-family="Helvetica,sans-Serif" font-size="10.00">/vulpes/fe/fe_expressions</text>
<text text-anchor="middle" x="952" y="-381" font-family="Helvetica,sans-Serif" font-size="10.00">/fe_expr_func.hpp</text>
</a>
</g>
</g>
<!-- Node17&#45;&gt;Node21 -->
<g id="edge27_Node000017_Node000021" class="edge">
<title>Node17&#45;&gt;Node21</title>
<g id="a_edge27_Node000017_Node000021"><a xlink:title=" ">
<path fill="none" stroke="#63b8ff" d="M952,-440.69C952,-432.08 952,-422.9 952,-415.07"/>
<polygon fill="#63b8ff" stroke="#63b8ff" points="948.5,-440.79 952,-450.79 955.5,-440.79 948.5,-440.79"/>
</a>
</g>
</g>
<!-- Node22 -->
<g id="Node000022" class="node">
<title>Node22</title>
<g id="a_Node000022"><a xlink:href="fe__expr__op_8hpp.html" target="_top" xlink:title=" ">
<polygon fill="white" stroke="#666666" points="1181.5,-415 1040.5,-415 1040.5,-374 1181.5,-374 1181.5,-415"/>
<text text-anchor="start" x="1048.5" y="-403" font-family="Helvetica,sans-Serif" font-size="10.00">/__w/vulpes/vulpes</text>
<text text-anchor="start" x="1048.5" y="-392" font-family="Helvetica,sans-Serif" font-size="10.00">/vulpes/fe/fe_expressions</text>
<text text-anchor="middle" x="1111" y="-381" font-family="Helvetica,sans-Serif" font-size="10.00">/fe_expr_op.hpp</text>
</a>
</g>
</g>
<!-- Node17&#45;&gt;Node22 -->
<g id="edge29_Node000017_Node000022" class="edge">
<title>Node17&#45;&gt;Node22</title>
<g id="a_edge29_Node000017_Node000022"><a xlink:title=" ">
<path fill="none" stroke="#63b8ff" d="M1002.41,-446.72C1024.05,-436.51 1049.03,-424.73 1069.57,-415.04"/>
<polygon fill="#63b8ff" stroke="#63b8ff" points="1000.91,-443.56 993.36,-450.99 1003.9,-449.89 1000.91,-443.56"/>
</a>
</g>
</g>
<!-- Node23 -->
<g id="Node000023" class="node">
<title>Node23</title>
<g id="a_Node000023"><a xlink:href="fe__expr__unary_8hpp.html" target="_top" xlink:title=" ">
<polygon fill="white" stroke="#666666" points="1340.5,-415 1199.5,-415 1199.5,-374 1340.5,-374 1340.5,-415"/>
<text text-anchor="start" x="1207.5" y="-403" font-family="Helvetica,sans-Serif" font-size="10.00">/__w/vulpes/vulpes</text>
<text text-anchor="start" x="1207.5" y="-392" font-family="Helvetica,sans-Serif" font-size="10.00">/vulpes/fe/fe_expressions</text>
<text text-anchor="middle" x="1270" y="-381" font-family="Helvetica,sans-Serif" font-size="10.00">/fe_expr_unary.hpp</text>
</a>
</g>
</g>
<!-- Node17&#45;&gt;Node23 -->
<g id="edge31_Node000017_Node000023" class="edge">
<title>Node17&#45;&gt;Node23</title>
<g id="a_edge31_Node000017_Node000023"><a xlink:title=" ">
<path fill="none" stroke="#63b8ff" d="M1032.64,-452.07C1079,-441.4 1138.32,-427.62 1191,-415 1193.75,-414.34 1196.55,-413.67 1199.38,-412.98"/>
<polygon fill="#63b8ff" stroke="#63b8ff" points="1031.61,-448.71 1022.65,-454.36 1033.18,-455.53 1031.61,-448.71"/>
</a>
</g>
</g>
<!-- Node18&#45;&gt;Node3 -->
<g id="edge22_Node000018_Node000003" class="edge">
<title>Node18&#45;&gt;Node3</title>
<g id="a_edge22_Node000018_Node000003"><a xlink:title=" ">
<path fill="none" stroke="#63b8ff" d="M936.75,-299.13C926,-279.88 915.53,-252.18 928,-231 937.32,-215.17 952.96,-203.54 969.13,-195.13"/>
<polygon fill="#63b8ff" stroke="#63b8ff" points="933.82,-301.05 941.96,-307.83 939.83,-297.46 933.82,-301.05"/>
</a>
</g>
</g>
<!-- Node18&#45;&gt;Node15 -->
<g id="edge21_Node000018_Node000015" class="edge">
<title>Node18&#45;&gt;Node15</title>
<g id="a_edge21_Node000018_Node000015"><a xlink:title=" ">
<path fill="none" stroke="#63b8ff" d="M908.83,-304.03C885.3,-294.24 856.14,-282.11 832.03,-272.07"/>
<polygon fill="#63b8ff" stroke="#63b8ff" points="907.63,-307.32 918.21,-307.94 910.32,-300.86 907.63,-307.32"/>
</a>
</g>
</g>
<!-- Node18&#45;&gt;Node16 -->
<g id="edge23_Node000018_Node000016" class="edge">
<title>Node18&#45;&gt;Node16</title>
<g id="a_edge23_Node000018_Node000016"><a xlink:title=" ">
<path fill="none" stroke="#63b8ff" d="M1001.2,-304.55C1029.07,-294.67 1064,-282.28 1092.8,-272.07"/>
<polygon fill="#63b8ff" stroke="#63b8ff" points="999.92,-301.29 991.66,-307.94 1002.26,-307.89 999.92,-301.29"/>
</a>
</g>
</g>
<!-- Node19 -->
<g id="Node000019" class="node">
<title>Node19</title>
<g id="a_Node000019"><a xlink:href="fe__vem_8hpp.html" target="_top" xlink:title=" ">
<polygon fill="white" stroke="#666666" points="1053,-272 937,-272 937,-231 1053,-231 1053,-272"/>
<text text-anchor="start" x="945" y="-260" font-family="Helvetica,sans-Serif" font-size="10.00">/__w/vulpes/vulpes</text>
<text text-anchor="start" x="945" y="-249" font-family="Helvetica,sans-Serif" font-size="10.00">/vulpes/fe/fe_spaces</text>
<text text-anchor="middle" x="995" y="-238" font-family="Helvetica,sans-Serif" font-size="10.00">/fe_vem.hpp</text>
</a>
</g>
</g>
<!-- Node18&#45;&gt;Node19 -->
<g id="edge24_Node000018_Node000019" class="edge">
<title>Node18&#45;&gt;Node19</title>
<g id="a_edge24_Node000018_Node000019"><a xlink:title=" ">
<path fill="none" stroke="#63b8ff" d="M966.04,-299.31C971.48,-290.52 977.65,-280.55 982.89,-272.07"/>
<polygon fill="#63b8ff" stroke="#63b8ff" points="962.99,-297.59 960.7,-307.94 968.94,-301.27 962.99,-297.59"/>
</a>
</g>
</g>
<!-- Node20&#45;&gt;Node18 -->
<g id="edge26_Node000020_Node000018" class="edge">
<title>Node20&#45;&gt;Node18</title>
<g id="a_edge26_Node000020_Node000018"><a xlink:title=" ">
<path fill="none" stroke="#63b8ff" d="M847.12,-369.85C871.25,-359.3 898.88,-347.22 919.71,-338.11"/>
<polygon fill="#63b8ff" stroke="#63b8ff" points="845.47,-366.74 837.71,-373.96 848.28,-373.16 845.47,-366.74"/>
</a>
</g>
</g>
<!-- Node21&#45;&gt;Node18 -->
<g id="edge28_Node000021_Node000018" class="edge">
<title>Node21&#45;&gt;Node18</title>
<g id="a_edge28_Node000021_Node000018"><a xlink:title=" ">
<path fill="none" stroke="#63b8ff" d="M952,-363.66C952,-354.76 952,-345.42 952,-338.04"/>
<polygon fill="#63b8ff" stroke="#63b8ff" points="948.5,-363.77 952,-373.77 955.5,-363.77 948.5,-363.77"/>
</a>
</g>
</g>
<!-- Node22&#45;&gt;Node18 -->
<g id="edge30_Node000022_Node000018" class="edge">
<title>Node22&#45;&gt;Node18</title>
<g id="a_edge30_Node000022_Node000018"><a xlink:title=" ">
<path fill="none" stroke="#63b8ff" d="M1056.88,-369.85C1032.75,-359.3 1005.12,-347.22 984.29,-338.11"/>
<polygon fill="#63b8ff" stroke="#63b8ff" points="1055.72,-373.16 1066.29,-373.96 1058.53,-366.74 1055.72,-373.16"/>
</a>
</g>
</g>
<!-- Node23&#45;&gt;Node18 -->
<g id="edge32_Node000023_Node000018" class="edge">
<title>Node23&#45;&gt;Node18</title>
<g id="a_edge32_Node000023_Node000018"><a xlink:title=" ">
<path fill="none" stroke="#63b8ff" d="M1189.5,-373.69C1127.87,-359.74 1067.49,-347.19 1022.21,-338"/>
<polygon fill="#63b8ff" stroke="#63b8ff" points="1188.87,-377.14 1199.39,-375.94 1190.42,-370.31 1188.87,-377.14"/>
</a>
</g>
</g>
</g>
</svg>
