<?xml version="1.0" encoding="UTF-8" standalone="no"?>
<!DOCTYPE svg PUBLIC "-//W3C//DTD SVG 1.1//EN"
 "http://www.w3.org/Graphics/SVG/1.1/DTD/svg11.dtd">
<!-- Generated by graphviz version 2.42.4 (0)
 -->
<!-- Title: /__w/vulpes/vulpes/vulpes/geometry/mesh.hpp Pages: 1 -->
<svg width="1780pt" height="544pt"
 viewBox="0.00 0.00 1779.69 544.00" xmlns="http://www.w3.org/2000/svg" xmlns:xlink="http://www.w3.org/1999/xlink">
<g id="graph0" class="graph" transform="scale(1 1) rotate(0) translate(4 540)">
<title>/__w/vulpes/vulpes/vulpes/geometry/mesh.hpp</title>
<!-- Node1 -->
<g id="Node000001" class="node">
<title>Node1</title>
<g id="a_Node000001"><a xlink:title=" ">
<polygon fill="#999999" stroke="#666666" points="1417.19,-536 1264.19,-536 1264.19,-506 1417.19,-506 1417.19,-536"/>
<text text-anchor="start" x="1272.19" y="-524" font-family="Helvetica,sans-Serif" font-size="10.00">/__w/vulpes/vulpes</text>
<text text-anchor="middle" x="1340.69" y="-513" font-family="Helvetica,sans-Serif" font-size="10.00">/vulpes/geometry/mesh.hpp</text>
</a>
</g>
</g>
<!-- Node2 -->
<g id="Node000002" class="node">
<title>Node2</title>
<g id="a_Node000002"><a xlink:href="integrator__base_8hpp.html" target="_top" xlink:title=" ">
<polygon fill="white" stroke="#666666" points="909.19,-118 756.19,-118 756.19,-77 909.19,-77 909.19,-118"/>
<text text-anchor="start" x="764.19" y="-106" font-family="Helvetica,sans-Serif" font-size="10.00">/__w/vulpes/vulpes</text>
<text text-anchor="start" x="764.19" y="-95" font-family="Helvetica,sans-Serif" font-size="10.00">/vulpes/assemble/integrator</text>
<text text-anchor="middle" x="832.69" y="-84" font-family="Helvetica,sans-Serif" font-size="10.00">_base.hpp</text>
</a>
</g>
</g>
<!-- Node1&#45;&gt;Node2 -->
<g id="edge1_Node000001_Node000002" class="edge">
<title>Node1&#45;&gt;Node2</title>
<g id="a_edge1_Node000001_Node000002"><a xlink:title=" ">
<path fill="none" stroke="#63b8ff" d="M1334.96,-495.6C1329.37,-469.59 1321.69,-427.12 1321.69,-390 1321.69,-390 1321.69,-390 1321.69,-322 1321.69,-142.9 1046.98,-106.72 909.36,-99.83"/>
<polygon fill="#63b8ff" stroke="#63b8ff" points="1331.62,-496.67 1337.2,-505.67 1338.45,-495.15 1331.62,-496.67"/>
</a>
</g>
</g>
<!-- Node7 -->
<g id="Node000007" class="node">
<title>Node7</title>
<g id="a_Node000007"><a xlink:href="dof__policy_8hpp.html" target="_top" xlink:title=" ">
<polygon fill="white" stroke="#666666" points="629.19,-404 492.19,-404 492.19,-374 629.19,-374 629.19,-404"/>
<text text-anchor="start" x="500.19" y="-392" font-family="Helvetica,sans-Serif" font-size="10.00">/__w/vulpes/vulpes</text>
<text text-anchor="middle" x="560.69" y="-381" font-family="Helvetica,sans-Serif" font-size="10.00">/vulpes/fe/dof_policy.hpp</text>
</a>
</g>
</g>
<!-- Node1&#45;&gt;Node7 -->
<g id="edge6_Node000001_Node000007" class="edge">
<title>Node1&#45;&gt;Node7</title>
<g id="a_edge6_Node000001_Node000007"><a xlink:title=" ">
<path fill="none" stroke="#63b8ff" d="M1253.62,-517.31C1106.11,-512.05 813.45,-498.34 714.69,-470 663.72,-455.38 610.04,-423.05 581.47,-404.27"/>
<polygon fill="#63b8ff" stroke="#63b8ff" points="1253.87,-520.82 1263.99,-517.68 1254.12,-513.83 1253.87,-520.82"/>
</a>
</g>
</g>
<!-- Node8 -->
<g id="Node000008" class="node">
<title>Node8</title>
<g id="a_Node000008"><a xlink:href="fe__space_8hpp.html" target="_top" xlink:title=" ">
<polygon fill="white" stroke="#666666" points="613.69,-338 481.69,-338 481.69,-308 613.69,-308 613.69,-338"/>
<text text-anchor="start" x="489.69" y="-326" font-family="Helvetica,sans-Serif" font-size="10.00">/__w/vulpes/vulpes</text>
<text text-anchor="middle" x="547.69" y="-315" font-family="Helvetica,sans-Serif" font-size="10.00">/vulpes/fe/fe_space.hpp</text>
</a>
</g>
</g>
<!-- Node1&#45;&gt;Node8 -->
<g id="edge26_Node000001_Node000008" class="edge">
<title>Node1&#45;&gt;Node8</title>
<g id="a_edge26_Node000001_Node000008"><a xlink:title=" ">
<path fill="none" stroke="#63b8ff" d="M1253.66,-517.3C1092.74,-511.72 754.72,-497.12 640.69,-470 566.65,-452.39 524.87,-467.34 482.69,-404 475.3,-392.9 476.8,-385.96 482.69,-374 490.3,-358.55 505.24,-346.53 518.87,-338.16"/>
<polygon fill="#63b8ff" stroke="#63b8ff" points="1253.88,-520.81 1264,-517.65 1254.12,-513.81 1253.88,-520.81"/>
</a>
</g>
</g>
<!-- Node18 -->
<g id="Node000018" class="node">
<title>Node18</title>
<g id="a_Node000018"><a xlink:href="cell_8hpp.html" target="_top" xlink:title=" ">
<polygon fill="white" stroke="#666666" points="867.19,-470 724.19,-470 724.19,-440 867.19,-440 867.19,-470"/>
<text text-anchor="start" x="732.19" y="-458" font-family="Helvetica,sans-Serif" font-size="10.00">/__w/vulpes/vulpes</text>
<text text-anchor="middle" x="795.69" y="-447" font-family="Helvetica,sans-Serif" font-size="10.00">/vulpes/geometry/cell.hpp</text>
</a>
</g>
</g>
<!-- Node1&#45;&gt;Node18 -->
<g id="edge27_Node000001_Node000018" class="edge">
<title>Node1&#45;&gt;Node18</title>
<g id="a_edge27_Node000001_Node000018"><a xlink:title=" ">
<path fill="none" stroke="#63b8ff" d="M1253.93,-509.81C1146.96,-497.25 967.14,-476.13 867.54,-464.44"/>
<polygon fill="#63b8ff" stroke="#63b8ff" points="1253.71,-513.31 1264.05,-511 1254.52,-506.36 1253.71,-513.31"/>
</a>
</g>
</g>
<!-- Node25 -->
<g id="Node000025" class="node">
<title>Node25</title>
<g id="a_Node000025"><a xlink:href="distance_8hpp.html" target="_top" xlink:title=" ">
<polygon fill="white" stroke="#666666" points="1554.19,-404 1387.19,-404 1387.19,-374 1554.19,-374 1554.19,-404"/>
<text text-anchor="start" x="1395.19" y="-392" font-family="Helvetica,sans-Serif" font-size="10.00">/__w/vulpes/vulpes</text>
<text text-anchor="middle" x="1470.69" y="-381" font-family="Helvetica,sans-Serif" font-size="10.00">/vulpes/geometry/distance.hpp</text>
</a>
</g>
</g>
<!-- Node1&#45;&gt;Node25 -->
<g id="edge40_Node000001_Node000025" class="edge">
<title>Node1&#45;&gt;Node25</title>
<g id="a_edge40_Node000001_Node000025"><a xlink:title=" ">
<path fill="none" stroke="#63b8ff" d="M1362.2,-498.49C1388.93,-471.76 1433.8,-426.89 1456.55,-404.14"/>
<polygon fill="#63b8ff" stroke="#63b8ff" points="1359.44,-496.29 1354.85,-505.84 1364.39,-501.24 1359.44,-496.29"/>
</a>
</g>
</g>
<!-- Node26 -->
<g id="Node000026" class="node">
<title>Node26</title>
<g id="a_Node000026"><a xlink:href="mesher_8hpp.html" target="_top" xlink:title=" ">
<polygon fill="white" stroke="#666666" points="1551.69,-338 1389.69,-338 1389.69,-308 1551.69,-308 1551.69,-338"/>
<text text-anchor="start" x="1397.69" y="-326" font-family="Helvetica,sans-Serif" font-size="10.00">/__w/vulpes/vulpes</text>
<text text-anchor="middle" x="1470.69" y="-315" font-family="Helvetica,sans-Serif" font-size="10.00">/vulpes/geometry/mesher.hpp</text>
</a>
</g>
</g>
<!-- Node1&#45;&gt;Node26 -->
<g id="edge42_Node000001_Node000026" class="edge">
<title>Node1&#45;&gt;Node26</title>
<g id="a_edge42_Node000001_Node000026"><a xlink:title=" ">
<path fill="none" stroke="#63b8ff" d="M1341.02,-495.93C1342.62,-464.7 1349.62,-409.95 1377.69,-374 1390.44,-357.67 1410.05,-346.02 1427.98,-338.09"/>
<polygon fill="#63b8ff" stroke="#63b8ff" points="1337.52,-495.81 1340.65,-505.93 1344.51,-496.06 1337.52,-495.81"/>
</a>
</g>
</g>
<!-- Node27 -->
<g id="Node000027" class="node">
<title>Node27</title>
<g id="a_Node000027"><a xlink:href="voronoi_8cpp.html" target="_top" xlink:title=" ">
<polygon fill="white" stroke="#666666" points="1771.69,-404 1609.69,-404 1609.69,-374 1771.69,-374 1771.69,-404"/>
<text text-anchor="start" x="1617.69" y="-392" font-family="Helvetica,sans-Serif" font-size="10.00">/__w/vulpes/vulpes</text>
<text text-anchor="middle" x="1690.69" y="-381" font-family="Helvetica,sans-Serif" font-size="10.00">/vulpes/geometry/voronoi.cpp</text>
</a>
</g>
</g>
<!-- Node1&#45;&gt;Node27 -->
<g id="edge43_Node000001_Node000027" class="edge">
<title>Node1&#45;&gt;Node27</title>
<g id="a_edge43_Node000001_Node000027"><a xlink:title=" ">
<path fill="none" stroke="#63b8ff" d="M1427.25,-515.08C1506.96,-508.98 1617.96,-496.03 1652.69,-470 1674.22,-453.86 1684.07,-422.4 1688.15,-404.11"/>
<polygon fill="#63b8ff" stroke="#63b8ff" points="1426.92,-511.6 1417.2,-515.83 1427.44,-518.58 1426.92,-511.6"/>
</a>
</g>
</g>
<!-- Node28 -->
<g id="Node000028" class="node">
<title>Node28</title>
<g id="a_Node000028"><a xlink:href="voronoi_8hpp.html" target="_top" xlink:title=" ">
<polygon fill="white" stroke="#666666" points="1643.19,-470 1480.19,-470 1480.19,-440 1643.19,-440 1643.19,-470"/>
<text text-anchor="start" x="1488.19" y="-458" font-family="Helvetica,sans-Serif" font-size="10.00">/__w/vulpes/vulpes</text>
<text text-anchor="middle" x="1561.69" y="-447" font-family="Helvetica,sans-Serif" font-size="10.00">/vulpes/geometry/voronoi.hpp</text>
</a>
</g>
</g>
<!-- Node1&#45;&gt;Node28 -->
<g id="edge44_Node000001_Node000028" class="edge">
<title>Node1&#45;&gt;Node28</title>
<g id="a_edge44_Node000001_Node000028"><a xlink:title=" ">
<path fill="none" stroke="#63b8ff" d="M1398.97,-503.12C1434.61,-492.8 1479.65,-479.76 1513.3,-470.01"/>
<polygon fill="#63b8ff" stroke="#63b8ff" points="1397.82,-499.81 1389.19,-505.95 1399.77,-506.54 1397.82,-499.81"/>
</a>
</g>
</g>
<!-- Node3 -->
<g id="Node000003" class="node">
<title>Node3</title>
<g id="a_Node000003"><a xlink:href="integrator__gauss_8hpp.html" target="_top" xlink:title=" ">
<polygon fill="white" stroke="#666666" points="333.19,-41 180.19,-41 180.19,0 333.19,0 333.19,-41"/>
<text text-anchor="start" x="188.19" y="-29" font-family="Helvetica,sans-Serif" font-size="10.00">/__w/vulpes/vulpes</text>
<text text-anchor="start" x="188.19" y="-18" font-family="Helvetica,sans-Serif" font-size="10.00">/vulpes/assemble/integrator</text>
<text text-anchor="middle" x="256.69" y="-7" font-family="Helvetica,sans-Serif" font-size="10.00">_gauss.hpp</text>
</a>
</g>
</g>
<!-- Node2&#45;&gt;Node3 -->
<g id="edge2_Node000002_Node000003" class="edge">
<title>Node2&#45;&gt;Node3</title>
<g id="a_edge2_Node000002_Node000003"><a xlink:title=" ">
<path fill="none" stroke="#63b8ff" d="M745.98,-85.21C633.88,-70.61 440.4,-45.42 333.41,-31.49"/>
<polygon fill="#63b8ff" stroke="#63b8ff" points="745.53,-88.68 755.9,-86.5 746.44,-81.74 745.53,-88.68"/>
</a>
</g>
</g>
<!-- Node4 -->
<g id="Node000004" class="node">
<title>Node4</title>
<g id="a_Node000004"><a xlink:href="integrator__qfree_8hpp.html" target="_top" xlink:title=" ">
<polygon fill="white" stroke="#666666" points="1080.19,-41 927.19,-41 927.19,0 1080.19,0 1080.19,-41"/>
<text text-anchor="start" x="935.19" y="-29" font-family="Helvetica,sans-Serif" font-size="10.00">/__w/vulpes/vulpes</text>
<text text-anchor="start" x="935.19" y="-18" font-family="Helvetica,sans-Serif" font-size="10.00">/vulpes/assemble/integrator</text>
<text text-anchor="middle" x="1003.69" y="-7" font-family="Helvetica,sans-Serif" font-size="10.00">_qfree.hpp</text>
</a>
</g>
</g>
<!-- Node2&#45;&gt;Node4 -->
<g id="edge3_Node000002_Node000004" class="edge">
<title>Node2&#45;&gt;Node4</title>
<g id="a_edge3_Node000002_Node000004"><a xlink:title=" ">
<path fill="none" stroke="#63b8ff" d="M886.59,-72.86C909.94,-62.62 936.94,-50.77 959.13,-41.04"/>
<polygon fill="#63b8ff" stroke="#63b8ff" points="884.92,-69.77 877.17,-76.99 887.73,-76.18 884.92,-69.77"/>
</a>
</g>
</g>
<!-- Node5 -->
<g id="Node000005" class="node">
<title>Node5</title>
<g id="a_Node000005"><a xlink:href="integrator__simplexify_8hpp.html" target="_top" xlink:title=" ">
<polygon fill="white" stroke="#666666" points="738.19,-41 585.19,-41 585.19,0 738.19,0 738.19,-41"/>
<text text-anchor="start" x="593.19" y="-29" font-family="Helvetica,sans-Serif" font-size="10.00">/__w/vulpes/vulpes</text>
<text text-anchor="start" x="593.19" y="-18" font-family="Helvetica,sans-Serif" font-size="10.00">/vulpes/assemble/integrator</text>
<text text-anchor="middle" x="661.69" y="-7" font-family="Helvetica,sans-Serif" font-size="10.00">_simplexify.hpp</text>
</a>
</g>
</g>
<!-- Node2&#45;&gt;Node5 -->
<g id="edge4_Node000002_Node000005" class="edge">
<title>Node2&#45;&gt;Node5</title>
<g id="a_edge4_Node000002_Node000005"><a xlink:title=" ">
<path fill="none" stroke="#63b8ff" d="M778.79,-72.86C755.44,-62.62 728.43,-50.77 706.24,-41.04"/>
<polygon fill="#63b8ff" stroke="#63b8ff" points="777.64,-76.18 788.21,-76.99 780.46,-69.77 777.64,-76.18"/>
</a>
</g>
</g>
<!-- Node6 -->
<g id="Node000006" class="node">
<title>Node6</title>
<g id="a_Node000006"><a xlink:href="integrator__vem__moment_8hpp.html" target="_top" xlink:title=" ">
<polygon fill="white" stroke="#666666" points="909.19,-41 756.19,-41 756.19,0 909.19,0 909.19,-41"/>
<text text-anchor="start" x="764.19" y="-29" font-family="Helvetica,sans-Serif" font-size="10.00">/__w/vulpes/vulpes</text>
<text text-anchor="start" x="764.19" y="-18" font-family="Helvetica,sans-Serif" font-size="10.00">/vulpes/assemble/integrator</text>
<text text-anchor="middle" x="832.69" y="-7" font-family="Helvetica,sans-Serif" font-size="10.00">_vem_moment.hpp</text>
</a>
</g>
</g>
<!-- Node2&#45;&gt;Node6 -->
<g id="edge5_Node000002_Node000006" class="edge">
<title>Node2&#45;&gt;Node6</title>
<g id="a_edge5_Node000002_Node000006"><a xlink:title=" ">
<path fill="none" stroke="#63b8ff" d="M832.69,-66.69C832.69,-58.08 832.69,-48.9 832.69,-41.07"/>
<polygon fill="#63b8ff" stroke="#63b8ff" points="829.19,-66.79 832.69,-76.79 836.19,-66.79 829.19,-66.79"/>
</a>
</g>
</g>
<!-- Node7&#45;&gt;Node8 -->
<g id="edge7_Node000007_Node000008" class="edge">
<title>Node7&#45;&gt;Node8</title>
<g id="a_edge7_Node000007_Node000008"><a xlink:title=" ">
<path fill="none" stroke="#63b8ff" d="M555.78,-363.83C554.02,-355.17 552.1,-345.7 550.57,-338.16"/>
<polygon fill="#63b8ff" stroke="#63b8ff" points="552.38,-364.69 557.8,-373.8 559.24,-363.3 552.38,-364.69"/>
</a>
</g>
</g>
<!-- Node8&#45;&gt;Node3 -->
<g id="edge8_Node000008_Node000003" class="edge">
<title>Node8&#45;&gt;Node3</title>
<g id="a_edge8_Node000008_Node000003"><a xlink:title=" ">
<path fill="none" stroke="#63b8ff" d="M471.18,-320.29C356.13,-316.65 144.88,-305.49 77.69,-272 35.76,-251.1 22.89,-238.58 5.69,-195 -27.42,-111.11 94.52,-62.07 179.92,-38.62"/>
<polygon fill="#63b8ff" stroke="#63b8ff" points="471.23,-323.79 481.33,-320.6 471.44,-316.8 471.23,-323.79"/>
</a>
</g>
</g>
<!-- Node8&#45;&gt;Node4 -->
<g id="edge9_Node000008_Node000004" class="edge">
<title>Node8&#45;&gt;Node4</title>
<g id="a_edge9_Node000008_Node000004"><a xlink:title=" ">
<path fill="none" stroke="#63b8ff" d="M624.05,-314.96C720.83,-305.45 877.78,-287.86 899.69,-272 977.49,-215.66 997.34,-90.04 1002.19,-41.33"/>
<polygon fill="#63b8ff" stroke="#63b8ff" points="623.62,-311.48 614.01,-315.93 624.3,-318.45 623.62,-311.48"/>
</a>
</g>
</g>
<!-- Node8&#45;&gt;Node5 -->
<g id="edge10_Node000008_Node000005" class="edge">
<title>Node8&#45;&gt;Node5</title>
<g id="a_edge10_Node000008_Node000005"><a xlink:title=" ">
<path fill="none" stroke="#63b8ff" d="M580.6,-301.82C590.56,-293.88 600.28,-283.8 605.69,-272 613.28,-255.43 612.66,-247.84 605.69,-231 597.03,-210.09 578.35,-215.91 569.69,-195 562.72,-178.16 564.24,-171.39 569.69,-154 583.83,-108.83 619.4,-65.56 641.93,-41.36"/>
<polygon fill="#63b8ff" stroke="#63b8ff" points="578.23,-299.23 572.27,-307.99 582.39,-304.85 578.23,-299.23"/>
</a>
</g>
</g>
<!-- Node9 -->
<g id="Node000009" class="node">
<title>Node9</title>
<g id="a_Node000009"><a xlink:href="dof__handler_8hpp.html" target="_top" xlink:title=" ">
<polygon fill="white" stroke="#666666" points="736.19,-189.5 579.19,-189.5 579.19,-159.5 736.19,-159.5 736.19,-189.5"/>
<text text-anchor="start" x="587.19" y="-177.5" font-family="Helvetica,sans-Serif" font-size="10.00">/__w/vulpes/vulpes</text>
<text text-anchor="middle" x="657.69" y="-166.5" font-family="Helvetica,sans-Serif" font-size="10.00">/vulpes/dofs/dof_handler.hpp</text>
</a>
</g>
</g>
<!-- Node8&#45;&gt;Node9 -->
<g id="edge11_Node000008_Node000009" class="edge">
<title>Node8&#45;&gt;Node9</title>
<g id="a_edge11_Node000008_Node000009"><a xlink:title=" ">
<path fill="none" stroke="#63b8ff" d="M600.11,-303.57C614.97,-295.96 629.77,-285.64 639.69,-272 657.63,-247.33 659.28,-209.98 658.65,-189.74"/>
<polygon fill="#63b8ff" stroke="#63b8ff" points="598.42,-300.5 590.9,-307.97 601.44,-306.82 598.42,-300.5"/>
</a>
</g>
</g>
<!-- Node10 -->
<g id="Node000010" class="node">
<title>Node10</title>
<g id="a_Node000010"><a xlink:href="fe__expression_8hpp.html" target="_top" xlink:title=" ">
<polygon fill="white" stroke="#666666" points="911.19,-189.5 754.19,-189.5 754.19,-159.5 911.19,-159.5 911.19,-189.5"/>
<text text-anchor="start" x="762.19" y="-177.5" font-family="Helvetica,sans-Serif" font-size="10.00">/__w/vulpes/vulpes</text>
<text text-anchor="middle" x="832.69" y="-166.5" font-family="Helvetica,sans-Serif" font-size="10.00">/vulpes/fe/fe_expression.hpp</text>
</a>
</g>
</g>
<!-- Node8&#45;&gt;Node10 -->
<g id="edge13_Node000008_Node000010" class="edge">
<title>Node8&#45;&gt;Node10</title>
<g id="a_edge13_Node000008_Node000010"><a xlink:title=" ">
<path fill="none" stroke="#63b8ff" d="M591.74,-303.9C613.09,-294.82 638.97,-283.35 661.69,-272 715.81,-244.95 777.09,-209.02 809.58,-189.52"/>
<polygon fill="#63b8ff" stroke="#63b8ff" points="590.13,-300.78 582.27,-307.9 592.85,-307.23 590.13,-300.78"/>
</a>
</g>
</g>
<!-- Node11 -->
<g id="Node000011" class="node">
<title>Node11</title>
<g id="a_Node000011"><a xlink:href="fe__lagrange__simplex_8hpp.html" target="_top" xlink:title=" ">
<polygon fill="white" stroke="#666666" points="253.19,-272 110.19,-272 110.19,-231 253.19,-231 253.19,-272"/>
<text text-anchor="start" x="118.19" y="-260" font-family="Helvetica,sans-Serif" font-size="10.00">/__w/vulpes/vulpes</text>
<text text-anchor="start" x="118.19" y="-249" font-family="Helvetica,sans-Serif" font-size="10.00">/vulpes/fe/fe_spaces</text>
<text text-anchor="middle" x="181.69" y="-238" font-family="Helvetica,sans-Serif" font-size="10.00">/fe_lagrange_simplex.hpp</text>
</a>
</g>
</g>
<!-- Node8&#45;&gt;Node11 -->
<g id="edge15_Node000008_Node000011" class="edge">
<title>Node8&#45;&gt;Node11</title>
<g id="a_edge15_Node000008_Node000011"><a xlink:title=" ">
<path fill="none" stroke="#63b8ff" d="M471.7,-309.41C415.28,-299.82 336.52,-285.94 267.69,-272 263.04,-271.06 258.25,-270.06 253.43,-269.03"/>
<polygon fill="#63b8ff" stroke="#63b8ff" points="471.17,-312.87 481.62,-311.09 472.34,-305.97 471.17,-312.87"/>
</a>
</g>
</g>
<!-- Node13 -->
<g id="Node000013" class="node">
<title>Node13</title>
<g id="a_Node000013"><a xlink:href="fe__lagrange__tensor_8hpp.html" target="_top" xlink:title=" ">
<polygon fill="white" stroke="#666666" points="148.69,-195 14.69,-195 14.69,-154 148.69,-154 148.69,-195"/>
<text text-anchor="start" x="22.69" y="-183" font-family="Helvetica,sans-Serif" font-size="10.00">/__w/vulpes/vulpes</text>
<text text-anchor="start" x="22.69" y="-172" font-family="Helvetica,sans-Serif" font-size="10.00">/vulpes/fe/fe_spaces</text>
<text text-anchor="middle" x="81.69" y="-161" font-family="Helvetica,sans-Serif" font-size="10.00">/fe_lagrange_tensor.hpp</text>
</a>
</g>
</g>
<!-- Node8&#45;&gt;Node13 -->
<g id="edge19_Node000008_Node000013" class="edge">
<title>Node8&#45;&gt;Node13</title>
<g id="a_edge19_Node000008_Node000013"><a xlink:title=" ">
<path fill="none" stroke="#63b8ff" d="M471.37,-318.33C350.87,-311.81 127.38,-296.57 100.69,-272 79.71,-252.69 78.01,-217.51 79.37,-195.38"/>
<polygon fill="#63b8ff" stroke="#63b8ff" points="471.47,-321.84 481.64,-318.87 471.84,-314.85 471.47,-321.84"/>
</a>
</g>
</g>
<!-- Node14 -->
<g id="Node000014" class="node">
<title>Node14</title>
<g id="a_Node000014"><a xlink:href="fe__modal__simplex_8hpp.html" target="_top" xlink:title=" ">
<polygon fill="white" stroke="#666666" points="458.19,-195 327.19,-195 327.19,-154 458.19,-154 458.19,-195"/>
<text text-anchor="start" x="335.19" y="-183" font-family="Helvetica,sans-Serif" font-size="10.00">/__w/vulpes/vulpes</text>
<text text-anchor="start" x="335.19" y="-172" font-family="Helvetica,sans-Serif" font-size="10.00">/vulpes/fe/fe_spaces</text>
<text text-anchor="middle" x="392.69" y="-161" font-family="Helvetica,sans-Serif" font-size="10.00">/fe_modal_simplex.hpp</text>
</a>
</g>
</g>
<!-- Node8&#45;&gt;Node14 -->
<g id="edge20_Node000008_Node000014" class="edge">
<title>Node8&#45;&gt;Node14</title>
<g id="a_edge20_Node000008_Node000014"><a xlink:title=" ">
<path fill="none" stroke="#63b8ff" d="M471.47,-316.93C407.08,-310.88 322.02,-298.08 300.69,-272 289.15,-257.89 291.73,-246.87 300.69,-231 309.49,-215.41 324.63,-203.7 340.12,-195.17"/>
<polygon fill="#63b8ff" stroke="#63b8ff" points="471.34,-320.44 481.62,-317.85 471.97,-313.46 471.34,-320.44"/>
</a>
</g>
</g>
<!-- Node15 -->
<g id="Node000015" class="node">
<title>Node15</title>
<g id="a_Node000015"><a xlink:href="fe__modal__tensor_8hpp.html" target="_top" xlink:title=" ">
<polygon fill="white" stroke="#666666" points="431.69,-272 309.69,-272 309.69,-231 431.69,-231 431.69,-272"/>
<text text-anchor="start" x="317.69" y="-260" font-family="Helvetica,sans-Serif" font-size="10.00">/__w/vulpes/vulpes</text>
<text text-anchor="start" x="317.69" y="-249" font-family="Helvetica,sans-Serif" font-size="10.00">/vulpes/fe/fe_spaces</text>
<text text-anchor="middle" x="370.69" y="-238" font-family="Helvetica,sans-Serif" font-size="10.00">/fe_modal_tensor.hpp</text>
</a>
</g>
</g>
<!-- Node8&#45;&gt;Node15 -->
<g id="edge21_Node000008_Node000015" class="edge">
<title>Node8&#45;&gt;Node15</title>
<g id="a_edge21_Node000008_Node000015"><a xlink:title=" ">
<path fill="none" stroke="#63b8ff" d="M502.26,-304.16C477.26,-294.35 446.2,-282.15 420.54,-272.07"/>
<polygon fill="#63b8ff" stroke="#63b8ff" points="501.28,-307.54 511.87,-307.94 503.84,-301.02 501.28,-307.54"/>
</a>
</g>
</g>
<!-- Node16 -->
<g id="Node000016" class="node">
<title>Node16</title>
<g id="a_Node000016"><a xlink:href="fe__scaled__monomials_8hpp.html" target="_top" xlink:title=" ">
<polygon fill="white" stroke="#666666" points="597.19,-272 450.19,-272 450.19,-231 597.19,-231 597.19,-272"/>
<text text-anchor="start" x="458.19" y="-260" font-family="Helvetica,sans-Serif" font-size="10.00">/__w/vulpes/vulpes</text>
<text text-anchor="start" x="458.19" y="-249" font-family="Helvetica,sans-Serif" font-size="10.00">/vulpes/fe/fe_spaces</text>
<text text-anchor="middle" x="523.69" y="-238" font-family="Helvetica,sans-Serif" font-size="10.00">/fe_scaled_monomials.hpp</text>
</a>
</g>
</g>
<!-- Node8&#45;&gt;Node16 -->
<g id="edge22_Node000008_Node000016" class="edge">
<title>Node8&#45;&gt;Node16</title>
<g id="a_edge22_Node000008_Node000016"><a xlink:title=" ">
<path fill="none" stroke="#63b8ff" d="M539.56,-298.47C536.6,-289.89 533.28,-280.28 530.45,-272.07"/>
<polygon fill="#63b8ff" stroke="#63b8ff" points="536.26,-299.63 542.83,-307.94 542.88,-297.34 536.26,-299.63"/>
</a>
</g>
</g>
<!-- Node17 -->
<g id="Node000017" class="node">
<title>Node17</title>
<g id="a_Node000017"><a xlink:href="fe__values_8hpp.html" target="_top" xlink:title=" ">
<polygon fill="white" stroke="#666666" points="890.69,-266.5 754.69,-266.5 754.69,-236.5 890.69,-236.5 890.69,-266.5"/>
<text text-anchor="start" x="762.69" y="-254.5" font-family="Helvetica,sans-Serif" font-size="10.00">/__w/vulpes/vulpes</text>
<text text-anchor="middle" x="822.69" y="-243.5" font-family="Helvetica,sans-Serif" font-size="10.00">/vulpes/fe/fe_values.hpp</text>
</a>
</g>
</g>
<!-- Node8&#45;&gt;Node17 -->
<g id="edge23_Node000008_Node000017" class="edge">
<title>Node8&#45;&gt;Node17</title>
<g id="a_edge23_Node000008_Node000017"><a xlink:title=" ">
<path fill="none" stroke="#63b8ff" d="M613.11,-305.47C660.04,-293.61 722.6,-277.8 767.12,-266.54"/>
<polygon fill="#63b8ff" stroke="#63b8ff" points="612.18,-302.09 603.34,-307.94 613.89,-308.88 612.18,-302.09"/>
</a>
</g>
</g>
<!-- Node9&#45;&gt;Node2 -->
<g id="edge12_Node000009_Node000002" class="edge">
<title>Node9&#45;&gt;Node2</title>
<g id="a_edge12_Node000009_Node000002"><a xlink:title=" ">
<path fill="none" stroke="#63b8ff" d="M699.93,-155.4C726.25,-144.12 760.11,-129.61 787.04,-118.06"/>
<polygon fill="#63b8ff" stroke="#63b8ff" points="698.42,-152.24 690.61,-159.39 701.18,-158.67 698.42,-152.24"/>
</a>
</g>
</g>
<!-- Node10&#45;&gt;Node2 -->
<g id="edge14_Node000010_Node000002" class="edge">
<title>Node10&#45;&gt;Node2</title>
<g id="a_edge14_Node000010_Node000002"><a xlink:title=" ">
<path fill="none" stroke="#63b8ff" d="M832.69,-149.23C832.69,-139.2 832.69,-127.71 832.69,-118.2"/>
<polygon fill="#63b8ff" stroke="#63b8ff" points="829.19,-149.39 832.69,-159.39 836.19,-149.39 829.19,-149.39"/>
</a>
</g>
</g>
<!-- Node12 -->
<g id="Node000012" class="node">
<title>Node12</title>
<g id="a_Node000012"><a xlink:href="fe__lagrange__simplex_8cpp.html" target="_top" xlink:title=" ">
<polygon fill="white" stroke="#666666" points="308.69,-195 166.69,-195 166.69,-154 308.69,-154 308.69,-195"/>
<text text-anchor="start" x="174.69" y="-183" font-family="Helvetica,sans-Serif" font-size="10.00">/__w/vulpes/vulpes</text>
<text text-anchor="start" x="174.69" y="-172" font-family="Helvetica,sans-Serif" font-size="10.00">/vulpes/fe/fe_spaces</text>
<text text-anchor="middle" x="237.69" y="-161" font-family="Helvetica,sans-Serif" font-size="10.00">/fe_lagrange_simplex.cpp</text>
</a>
</g>
</g>
<!-- Node11&#45;&gt;Node12 -->
<g id="edge16_Node000011_Node000012" class="edge">
<title>Node11&#45;&gt;Node12</title>
<g id="a_edge16_Node000011_Node000012"><a xlink:title=" ">
<path fill="none" stroke="#63b8ff" d="M202.47,-222.67C209.32,-213.5 216.78,-203.5 223.07,-195.07"/>
<polygon fill="#63b8ff" stroke="#63b8ff" points="199.58,-220.69 196.4,-230.79 205.19,-224.88 199.58,-220.69"/>
</a>
</g>
</g>
<!-- Node11&#45;&gt;Node13 -->
<g id="edge17_Node000011_Node000013" class="edge">
<title>Node11&#45;&gt;Node13</title>
<g id="a_edge17_Node000011_Node000013"><a xlink:title=" ">
<path fill="none" stroke="#63b8ff" d="M147.44,-224.82C134.51,-215.11 120.01,-204.24 107.92,-195.17"/>
<polygon fill="#63b8ff" stroke="#63b8ff" points="145.58,-227.79 155.68,-230.99 149.78,-222.19 145.58,-227.79"/>
</a>
</g>
</g>
<!-- Node11&#45;&gt;Node14 -->
<g id="edge18_Node000011_Node000014" class="edge">
<title>Node11&#45;&gt;Node14</title>
<g id="a_edge18_Node000011_Node000014"><a xlink:title=" ">
<path fill="none" stroke="#63b8ff" d="M246.29,-227.54C275.52,-217.15 309.72,-204.99 337.71,-195.04"/>
<polygon fill="#63b8ff" stroke="#63b8ff" points="244.83,-224.34 236.58,-230.99 247.17,-230.94 244.83,-224.34"/>
</a>
</g>
</g>
<!-- Node17&#45;&gt;Node2 -->
<g id="edge24_Node000017_Node000002" class="edge">
<title>Node17&#45;&gt;Node2</title>
<g id="a_edge24_Node000017_Node000002"><a xlink:title=" ">
<path fill="none" stroke="#63b8ff" d="M876.88,-232.05C893.6,-223.51 910.12,-211.5 919.69,-195 928.83,-179.24 928.45,-169.98 919.69,-154 911.25,-138.6 896.52,-126.86 881.56,-118.23"/>
<polygon fill="#63b8ff" stroke="#63b8ff" points="875.14,-228.99 867.61,-236.44 878.14,-235.32 875.14,-228.99"/>
</a>
</g>
</g>
<!-- Node17&#45;&gt;Node10 -->
<g id="edge25_Node000017_Node000010" class="edge">
<title>Node17&#45;&gt;Node10</title>
<g id="a_edge25_Node000017_Node000010"><a xlink:title=" ">
<path fill="none" stroke="#63b8ff" d="M825.9,-226.41C827.52,-214.24 829.44,-199.9 830.82,-189.54"/>
<polygon fill="#63b8ff" stroke="#63b8ff" points="822.42,-226.02 824.57,-236.39 829.36,-226.94 822.42,-226.02"/>
</a>
</g>
</g>
<!-- Node18&#45;&gt;Node7 -->
<g id="edge28_Node000018_Node000007" class="edge">
<title>Node18&#45;&gt;Node7</title>
<g id="a_edge28_Node000018_Node000007"><a xlink:title=" ">
<path fill="none" stroke="#63b8ff" d="M734.2,-437.25C696.23,-426.91 648.08,-413.8 612.14,-404.01"/>
<polygon fill="#63b8ff" stroke="#63b8ff" points="733.55,-440.7 744.12,-439.95 735.39,-433.95 733.55,-440.7"/>
</a>
</g>
</g>
<!-- Node18&#45;&gt;Node8 -->
<g id="edge29_Node000018_Node000008" class="edge">
<title>Node18&#45;&gt;Node8</title>
<g id="a_edge29_Node000018_Node000008"><a xlink:title=" ">
<path fill="none" stroke="#63b8ff" d="M749.53,-436.04C728.41,-427.25 703.33,-415.99 681.69,-404 660.98,-392.53 657.83,-386.43 637.69,-374 616.85,-361.14 592.54,-347.73 574.44,-338.03"/>
<polygon fill="#63b8ff" stroke="#63b8ff" points="748.34,-439.34 758.92,-439.9 751,-432.87 748.34,-439.34"/>
</a>
</g>
</g>
<!-- Node18&#45;&gt;Node17 -->
<g id="edge30_Node000018_Node000017" class="edge">
<title>Node18&#45;&gt;Node17</title>
<g id="a_edge30_Node000018_Node000017"><a xlink:title=" ">
<path fill="none" stroke="#63b8ff" d="M747.59,-435.03C734.59,-427.43 722.08,-417.25 714.69,-404 693.9,-366.74 692.46,-344.42 714.69,-308 726.88,-288.03 748.8,-274.94 769.73,-266.52"/>
<polygon fill="#63b8ff" stroke="#63b8ff" points="746.15,-438.23 756.62,-439.89 749.47,-432.07 746.15,-438.23"/>
</a>
</g>
</g>
<!-- Node19 -->
<g id="Node000019" class="node">
<title>Node19</title>
<g id="a_Node000019"><a xlink:href="cell_8cpp.html" target="_top" xlink:title=" ">
<polygon fill="white" stroke="#666666" points="867.19,-404 724.19,-404 724.19,-374 867.19,-374 867.19,-404"/>
<text text-anchor="start" x="732.19" y="-392" font-family="Helvetica,sans-Serif" font-size="10.00">/__w/vulpes/vulpes</text>
<text text-anchor="middle" x="795.69" y="-381" font-family="Helvetica,sans-Serif" font-size="10.00">/vulpes/geometry/cell.cpp</text>
</a>
</g>
</g>
<!-- Node18&#45;&gt;Node19 -->
<g id="edge31_Node000018_Node000019" class="edge">
<title>Node18&#45;&gt;Node19</title>
<g id="a_edge31_Node000018_Node000019"><a xlink:title=" ">
<path fill="none" stroke="#63b8ff" d="M795.69,-429.54C795.69,-420.96 795.69,-411.61 795.69,-404.16"/>
<polygon fill="#63b8ff" stroke="#63b8ff" points="792.19,-429.8 795.69,-439.8 799.19,-429.8 792.19,-429.8"/>
</a>
</g>
</g>
<!-- Node20 -->
<g id="Node000020" class="node">
<title>Node20</title>
<g id="a_Node000020"><a xlink:href="frugal_8hpp.html" target="_top" xlink:title=" ">
<polygon fill="white" stroke="#666666" points="885.19,-338 724.19,-338 724.19,-308 885.19,-308 885.19,-338"/>
<text text-anchor="start" x="732.19" y="-326" font-family="Helvetica,sans-Serif" font-size="10.00">/__w/vulpes/vulpes</text>
<text text-anchor="middle" x="804.69" y="-315" font-family="Helvetica,sans-Serif" font-size="10.00">/vulpes/quadrature/frugal.hpp</text>
</a>
</g>
</g>
<!-- Node18&#45;&gt;Node20 -->
<g id="edge32_Node000018_Node000020" class="edge">
<title>Node18&#45;&gt;Node20</title>
<g id="a_edge32_Node000018_Node000020"><a xlink:title=" ">
<path fill="none" stroke="#63b8ff" d="M842.86,-435.11C855.83,-427.48 868.33,-417.27 875.69,-404 882.15,-392.34 881.83,-385.84 875.69,-374 867.5,-358.21 851.77,-346.35 837.2,-338.16"/>
<polygon fill="#63b8ff" stroke="#63b8ff" points="840.99,-432.15 833.87,-439.99 844.33,-438.3 840.99,-432.15"/>
</a>
</g>
</g>
<!-- Node21 -->
<g id="Node000021" class="node">
<title>Node21</title>
<g id="a_Node000021"><a xlink:href="qfree_8hpp.html" target="_top" xlink:title=" ">
<polygon fill="white" stroke="#666666" points="1081.69,-404 923.69,-404 923.69,-374 1081.69,-374 1081.69,-404"/>
<text text-anchor="start" x="931.69" y="-392" font-family="Helvetica,sans-Serif" font-size="10.00">/__w/vulpes/vulpes</text>
<text text-anchor="middle" x="1002.69" y="-381" font-family="Helvetica,sans-Serif" font-size="10.00">/vulpes/quadrature/qfree.hpp</text>
</a>
</g>
</g>
<!-- Node18&#45;&gt;Node21 -->
<g id="edge33_Node000018_Node000021" class="edge">
<title>Node18&#45;&gt;Node21</title>
<g id="a_edge33_Node000018_Node000021"><a xlink:title=" ">
<path fill="none" stroke="#63b8ff" d="M850.71,-436.99C884.02,-426.69 925.98,-413.72 957.37,-404.01"/>
<polygon fill="#63b8ff" stroke="#63b8ff" points="849.64,-433.66 841.12,-439.95 851.7,-440.34 849.64,-433.66"/>
</a>
</g>
</g>
<!-- Node21&#45;&gt;Node4 -->
<g id="edge34_Node000021_Node000004" class="edge">
<title>Node21&#45;&gt;Node4</title>
<g id="a_edge34_Node000021_Node000004"><a xlink:title=" ">
<path fill="none" stroke="#63b8ff" d="M1091.74,-381.23C1157.38,-374.4 1239.32,-361.4 1263.69,-338 1291.84,-310.97 1283.69,-291.53 1283.69,-252.5 1283.69,-252.5 1283.69,-252.5 1283.69,-173.5 1283.69,-80.58 1163.1,-44.15 1080.2,-30.09"/>
<polygon fill="#63b8ff" stroke="#63b8ff" points="1091.37,-377.75 1081.77,-382.23 1092.07,-384.71 1091.37,-377.75"/>
</a>
</g>
</g>
<!-- Node21&#45;&gt;Node20 -->
<g id="edge38_Node000021_Node000020" class="edge">
<title>Node21&#45;&gt;Node20</title>
<g id="a_edge38_Node000021_Node000020"><a xlink:title=" ">
<path fill="none" stroke="#63b8ff" d="M949.65,-370.86C917.86,-360.58 877.93,-347.68 848.04,-338.01"/>
<polygon fill="#63b8ff" stroke="#63b8ff" points="948.65,-374.21 959.24,-373.95 950.8,-367.55 948.65,-374.21"/>
</a>
</g>
</g>
<!-- Node22 -->
<g id="Node000022" class="node">
<title>Node22</title>
<g id="a_Node000022"><a xlink:href="simplexify_8hpp.html" target="_top" xlink:title=" ">
<polygon fill="white" stroke="#666666" points="1079.69,-338 903.69,-338 903.69,-308 1079.69,-308 1079.69,-338"/>
<text text-anchor="start" x="911.69" y="-326" font-family="Helvetica,sans-Serif" font-size="10.00">/__w/vulpes/vulpes</text>
<text text-anchor="middle" x="991.69" y="-315" font-family="Helvetica,sans-Serif" font-size="10.00">/vulpes/geometry/simplexify.hpp</text>
</a>
</g>
</g>
<!-- Node21&#45;&gt;Node22 -->
<g id="edge35_Node000021_Node000022" class="edge">
<title>Node21&#45;&gt;Node22</title>
<g id="a_edge35_Node000021_Node000022"><a xlink:title=" ">
<path fill="none" stroke="#63b8ff" d="M998.53,-363.83C997.05,-355.17 995.42,-345.7 994.12,-338.16"/>
<polygon fill="#63b8ff" stroke="#63b8ff" points="995.1,-364.53 1000.25,-373.8 1002,-363.35 995.1,-364.53"/>
</a>
</g>
</g>
<!-- Node24 -->
<g id="Node000024" class="node">
<title>Node24</title>
<g id="a_Node000024"><a xlink:href="qfree_8cpp.html" target="_top" xlink:title=" ">
<polygon fill="white" stroke="#666666" points="1255.19,-338 1098.19,-338 1098.19,-308 1255.19,-308 1255.19,-338"/>
<text text-anchor="start" x="1106.19" y="-326" font-family="Helvetica,sans-Serif" font-size="10.00">/__w/vulpes/vulpes</text>
<text text-anchor="middle" x="1176.69" y="-315" font-family="Helvetica,sans-Serif" font-size="10.00">/vulpes/quadrature/qfree.cpp</text>
</a>
</g>
</g>
<!-- Node21&#45;&gt;Node24 -->
<g id="edge39_Node000021_Node000024" class="edge">
<title>Node21&#45;&gt;Node24</title>
<g id="a_edge39_Node000021_Node000024"><a xlink:title=" ">
<path fill="none" stroke="#63b8ff" d="M1050.39,-370.46C1078.14,-360.25 1112.66,-347.55 1138.59,-338.01"/>
<polygon fill="#63b8ff" stroke="#63b8ff" points="1049.05,-367.22 1040.87,-373.95 1051.47,-373.79 1049.05,-367.22"/>
</a>
</g>
</g>
<!-- Node22&#45;&gt;Node5 -->
<g id="edge36_Node000022_Node000005" class="edge">
<title>Node22&#45;&gt;Node5</title>
<g id="a_edge36_Node000022_Node000005"><a xlink:title=" ">
<path fill="none" stroke="#63b8ff" d="M994.59,-297.7C996.11,-279.18 996.74,-253.17 991.69,-231 974.82,-156.96 977.44,-123.87 917.69,-77 856.58,-29.06 822.54,-57.68 746.69,-41 744.03,-40.41 741.32,-39.82 738.59,-39.21"/>
<polygon fill="#63b8ff" stroke="#63b8ff" points="991.08,-297.62 993.6,-307.91 998.05,-298.29 991.08,-297.62"/>
</a>
</g>
</g>
<!-- Node23 -->
<g id="Node000023" class="node">
<title>Node23</title>
<g id="a_Node000023"><a xlink:href="simplexify_8cpp.html" target="_top" xlink:title=" ">
<polygon fill="white" stroke="#666666" points="1219.19,-266.5 1044.19,-266.5 1044.19,-236.5 1219.19,-236.5 1219.19,-266.5"/>
<text text-anchor="start" x="1052.19" y="-254.5" font-family="Helvetica,sans-Serif" font-size="10.00">/__w/vulpes/vulpes</text>
<text text-anchor="middle" x="1131.69" y="-243.5" font-family="Helvetica,sans-Serif" font-size="10.00">/vulpes/geometry/simplexify.cpp</text>
</a>
</g>
</g>
<!-- Node22&#45;&gt;Node23 -->
<g id="edge37_Node000022_Node000023" class="edge">
<title>Node22&#45;&gt;Node23</title>
<g id="a_edge37_Node000022_Node000023"><a xlink:title=" ">
<path fill="none" stroke="#63b8ff" d="M1029.27,-303.34C1052.59,-291.77 1082.06,-277.14 1103.4,-266.54"/>
<polygon fill="#63b8ff" stroke="#63b8ff" points="1027.42,-300.35 1020.02,-307.94 1030.53,-306.62 1027.42,-300.35"/>
</a>
</g>
</g>
<!-- Node25&#45;&gt;Node26 -->
<g id="edge41_Node000025_Node000026" class="edge">
<title>Node25&#45;&gt;Node26</title>
<g id="a_edge41_Node000025_Node000026"><a xlink:title=" ">
<path fill="none" stroke="#63b8ff" d="M1470.69,-363.54C1470.69,-354.96 1470.69,-345.61 1470.69,-338.16"/>
<polygon fill="#63b8ff" stroke="#63b8ff" points="1467.19,-363.8 1470.69,-373.8 1474.19,-363.8 1467.19,-363.8"/>
</a>
</g>
</g>
<!-- Node28&#45;&gt;Node25 -->
<g id="edge45_Node000028_Node000025" class="edge">
<title>Node28&#45;&gt;Node25</title>
<g id="a_edge45_Node000028_Node000025"><a xlink:title=" ">
<path fill="none" stroke="#63b8ff" d="M1533.29,-434.03C1519.52,-424.34 1503.31,-412.94 1490.83,-404.16"/>
<polygon fill="#63b8ff" stroke="#63b8ff" points="1531.3,-436.91 1541.49,-439.8 1535.33,-431.18 1531.3,-436.91"/>
</a>
</g>
</g>
<!-- Node28&#45;&gt;Node26 -->
<g id="edge46_Node000028_Node000026" class="edge">
<title>Node28&#45;&gt;Node26</title>
<g id="a_edge46_Node000028_Node000026"><a xlink:title=" ">
<path fill="none" stroke="#63b8ff" d="M1568.28,-429.71C1571.41,-412.9 1572.59,-390.65 1562.69,-374 1552.75,-357.28 1535.04,-345.8 1517.8,-338.11"/>
<polygon fill="#63b8ff" stroke="#63b8ff" points="1564.78,-429.33 1566.04,-439.85 1571.61,-430.84 1564.78,-429.33"/>
</a>
</g>
</g>
<!-- Node28&#45;&gt;Node27 -->
<g id="edge47_Node000028_Node000027" class="edge">
<title>Node28&#45;&gt;Node27</title>
<g id="a_edge47_Node000028_Node000027"><a xlink:title=" ">
<path fill="none" stroke="#63b8ff" d="M1599.22,-435.38C1619.41,-425.36 1643.89,-413.22 1662.45,-404.01"/>
<polygon fill="#63b8ff" stroke="#63b8ff" points="1597.4,-432.38 1590,-439.95 1600.51,-438.65 1597.4,-432.38"/>
</a>
</g>
</g>
</g>
</svg>
