<?xml version="1.0" encoding="UTF-8" standalone="no"?>
<!DOCTYPE svg PUBLIC "-//W3C//DTD SVG 1.1//EN"
 "http://www.w3.org/Graphics/SVG/1.1/DTD/svg11.dtd">
<!-- Generated by graphviz version 2.43.0 (0)
 -->
<!-- Title: /__w/vulpes/vulpes/vulpes/polynomials/monomial.hpp Pages: 1 -->
<svg width="1492pt" height="500pt"
 viewBox="0.00 0.00 1491.50 500.00" xmlns="http://www.w3.org/2000/svg" xmlns:xlink="http://www.w3.org/1999/xlink">
<g id="graph0" class="graph" transform="scale(1 1) rotate(0) translate(4 496)">
<title>/__w/vulpes/vulpes/vulpes/polynomials/monomial.hpp</title>
<!-- Node1 -->
<g id="Node000001" class="node">
<title>Node1</title>
<g id="a_Node000001"><a xlink:title=" ">
<polygon fill="#999999" stroke="#666666" points="1014,-492 899,-492 899,-451 1014,-451 1014,-492"/>
<text text-anchor="start" x="907" y="-480" font-family="Helvetica,sans-Serif" font-size="10.00">/__w/vulpes/vulpes</text>
<text text-anchor="start" x="907" y="-469" font-family="Helvetica,sans-Serif" font-size="10.00">/vulpes/polynomials</text>
<text text-anchor="middle" x="956.5" y="-458" font-family="Helvetica,sans-Serif" font-size="10.00">/monomial.hpp</text>
</a>
</g>
</g>
<!-- Node2 -->
<g id="Node000002" class="node">
<title>Node2</title>
<g id="a_Node000002"><a xlink:href="dof__policy_8hpp.html" target="_top" xlink:title=" ">
<polygon fill="white" stroke="#666666" points="868,-409.5 731,-409.5 731,-379.5 868,-379.5 868,-409.5"/>
<text text-anchor="start" x="739" y="-397.5" font-family="Helvetica,sans-Serif" font-size="10.00">/__w/vulpes/vulpes</text>
<text text-anchor="middle" x="799.5" y="-386.5" font-family="Helvetica,sans-Serif" font-size="10.00">/vulpes/fe/dof_policy.hpp</text>
</a>
</g>
</g>
<!-- Node1&#45;&gt;Node2 -->
<g id="edge1_Node000001_Node000002" class="edge">
<title>Node1&#45;&gt;Node2</title>
<g id="a_edge1_Node000001_Node000002"><a xlink:title=" ">
<path fill="none" stroke="#63b8ff" d="M906.52,-446.62C881.07,-434.47 851,-420.1 829.23,-409.7"/>
<polygon fill="#63b8ff" stroke="#63b8ff" points="905.13,-449.84 915.66,-450.99 908.15,-443.52 905.13,-449.84"/>
</a>
</g>
</g>
<!-- Node3 -->
<g id="Node000003" class="node">
<title>Node3</title>
<g id="a_Node000003"><a xlink:href="fe__space_8hpp.html" target="_top" xlink:title=" ">
<polygon fill="white" stroke="#666666" points="816.5,-338 684.5,-338 684.5,-308 816.5,-308 816.5,-338"/>
<text text-anchor="start" x="692.5" y="-326" font-family="Helvetica,sans-Serif" font-size="10.00">/__w/vulpes/vulpes</text>
<text text-anchor="middle" x="750.5" y="-315" font-family="Helvetica,sans-Serif" font-size="10.00">/vulpes/fe/fe_space.hpp</text>
</a>
</g>
</g>
<!-- Node1&#45;&gt;Node3 -->
<g id="edge25_Node000001_Node000003" class="edge">
<title>Node1&#45;&gt;Node3</title>
<g id="a_edge25_Node000001_Node000003"><a xlink:title=" ">
<path fill="none" stroke="#63b8ff" d="M938.9,-442.37C924.38,-421.14 902.07,-392.58 876.5,-374 854.32,-357.89 826.23,-346.08 802.21,-338.01"/>
<polygon fill="#63b8ff" stroke="#63b8ff" points="936.17,-444.59 944.63,-450.98 942,-440.71 936.17,-444.59"/>
</a>
</g>
</g>
<!-- Node18 -->
<g id="Node000018" class="node">
<title>Node18</title>
<g id="a_Node000018"><a xlink:href="sparse__polynomial_8hpp.html" target="_top" xlink:title=" ">
<polygon fill="white" stroke="#666666" points="1321,-415 1188,-415 1188,-374 1321,-374 1321,-415"/>
<text text-anchor="start" x="1196" y="-403" font-family="Helvetica,sans-Serif" font-size="10.00">/__w/vulpes/vulpes</text>
<text text-anchor="start" x="1196" y="-392" font-family="Helvetica,sans-Serif" font-size="10.00">/vulpes/polynomials</text>
<text text-anchor="middle" x="1254.5" y="-381" font-family="Helvetica,sans-Serif" font-size="10.00">/sparse_polynomial.hpp</text>
</a>
</g>
</g>
<!-- Node1&#45;&gt;Node18 -->
<g id="edge26_Node000001_Node000018" class="edge">
<title>Node1&#45;&gt;Node18</title>
<g id="a_edge26_Node000001_Node000018"><a xlink:title=" ">
<path fill="none" stroke="#63b8ff" d="M1024.18,-453.47C1073.14,-441.14 1139,-424.57 1187.75,-412.3"/>
<polygon fill="#63b8ff" stroke="#63b8ff" points="1023.15,-450.12 1014.31,-455.95 1024.86,-456.9 1023.15,-450.12"/>
</a>
</g>
</g>
<!-- Node19 -->
<g id="Node000019" class="node">
<title>Node19</title>
<g id="a_Node000019"><a xlink:href="frugal_8hpp.html" target="_top" xlink:title=" ">
<polygon fill="white" stroke="#666666" points="1037,-338 876,-338 876,-308 1037,-308 1037,-338"/>
<text text-anchor="start" x="884" y="-326" font-family="Helvetica,sans-Serif" font-size="10.00">/__w/vulpes/vulpes</text>
<text text-anchor="middle" x="956.5" y="-315" font-family="Helvetica,sans-Serif" font-size="10.00">/vulpes/quadrature/frugal.hpp</text>
</a>
</g>
</g>
<!-- Node1&#45;&gt;Node19 -->
<g id="edge28_Node000001_Node000019" class="edge">
<title>Node1&#45;&gt;Node19</title>
<g id="a_edge28_Node000001_Node000019"><a xlink:title=" ">
<path fill="none" stroke="#63b8ff" d="M956.5,-440.44C956.5,-409.21 956.5,-361.68 956.5,-338.18"/>
<polygon fill="#63b8ff" stroke="#63b8ff" points="953,-440.74 956.5,-450.74 960,-440.74 953,-440.74"/>
</a>
</g>
</g>
<!-- Node20 -->
<g id="Node000020" class="node">
<title>Node20</title>
<g id="a_Node000020"><a xlink:href="qfree_8hpp.html" target="_top" xlink:title=" ">
<polygon fill="white" stroke="#666666" points="1144.5,-409.5 986.5,-409.5 986.5,-379.5 1144.5,-379.5 1144.5,-409.5"/>
<text text-anchor="start" x="994.5" y="-397.5" font-family="Helvetica,sans-Serif" font-size="10.00">/__w/vulpes/vulpes</text>
<text text-anchor="middle" x="1065.5" y="-386.5" font-family="Helvetica,sans-Serif" font-size="10.00">/vulpes/quadrature/qfree.hpp</text>
</a>
</g>
</g>
<!-- Node1&#45;&gt;Node20 -->
<g id="edge29_Node000001_Node000020" class="edge">
<title>Node1&#45;&gt;Node20</title>
<g id="a_edge29_Node000001_Node000020"><a xlink:title=" ">
<path fill="none" stroke="#63b8ff" d="M993.54,-445.01C1010.69,-433.22 1030.41,-419.65 1044.86,-409.7"/>
<polygon fill="#63b8ff" stroke="#63b8ff" points="991.11,-442.44 984.85,-450.99 995.08,-448.21 991.11,-442.44"/>
</a>
</g>
</g>
<!-- Node2&#45;&gt;Node3 -->
<g id="edge2_Node000002_Node000003" class="edge">
<title>Node2&#45;&gt;Node3</title>
<g id="a_edge2_Node000002_Node000003"><a xlink:title=" ">
<path fill="none" stroke="#63b8ff" d="M783.78,-371.21C776.11,-360.32 767.11,-347.55 760.4,-338.04"/>
<polygon fill="#63b8ff" stroke="#63b8ff" points="780.96,-373.28 789.58,-379.44 786.68,-369.25 780.96,-373.28"/>
</a>
</g>
</g>
<!-- Node4 -->
<g id="Node000004" class="node">
<title>Node4</title>
<g id="a_Node000004"><a xlink:href="integrator__gauss_8hpp.html" target="_top" xlink:title=" ">
<polygon fill="white" stroke="#666666" points="153,-41 0,-41 0,0 153,0 153,-41"/>
<text text-anchor="start" x="8" y="-29" font-family="Helvetica,sans-Serif" font-size="10.00">/__w/vulpes/vulpes</text>
<text text-anchor="start" x="8" y="-18" font-family="Helvetica,sans-Serif" font-size="10.00">/vulpes/assemble/integrator</text>
<text text-anchor="middle" x="76.5" y="-7" font-family="Helvetica,sans-Serif" font-size="10.00">_gauss.hpp</text>
</a>
</g>
</g>
<!-- Node3&#45;&gt;Node4 -->
<g id="edge3_Node000003_Node000004" class="edge">
<title>Node3&#45;&gt;Node4</title>
<g id="a_edge3_Node000003_Node000004"><a xlink:title=" ">
<path fill="none" stroke="#63b8ff" d="M674.13,-321.91C527.11,-320.78 210.48,-313.43 110.5,-272 61.87,-251.85 42.52,-242.82 20.5,-195 -4.19,-141.38 36.81,-73.8 60.9,-41.06"/>
<polygon fill="#63b8ff" stroke="#63b8ff" points="674.39,-325.41 684.41,-321.98 674.44,-318.41 674.39,-325.41"/>
</a>
</g>
</g>
<!-- Node5 -->
<g id="Node000005" class="node">
<title>Node5</title>
<g id="a_Node000005"><a xlink:href="integrator__qfree_8hpp.html" target="_top" xlink:title=" ">
<polygon fill="white" stroke="#666666" points="902,-41 749,-41 749,0 902,0 902,-41"/>
<text text-anchor="start" x="757" y="-29" font-family="Helvetica,sans-Serif" font-size="10.00">/__w/vulpes/vulpes</text>
<text text-anchor="start" x="757" y="-18" font-family="Helvetica,sans-Serif" font-size="10.00">/vulpes/assemble/integrator</text>
<text text-anchor="middle" x="825.5" y="-7" font-family="Helvetica,sans-Serif" font-size="10.00">_qfree.hpp</text>
</a>
</g>
</g>
<!-- Node3&#45;&gt;Node5 -->
<g id="edge4_Node000003_Node000005" class="edge">
<title>Node3&#45;&gt;Node5</title>
<g id="a_edge4_Node000003_Node000005"><a xlink:title=" ">
<path fill="none" stroke="#63b8ff" d="M806.03,-303.74C821.98,-296.13 838.12,-285.77 849.5,-272 872.17,-244.57 866.56,-230.25 871.5,-195 879.47,-138.06 852.06,-73.08 836.13,-41.22"/>
<polygon fill="#63b8ff" stroke="#63b8ff" points="804.4,-300.63 796.7,-307.9 807.26,-307.02 804.4,-300.63"/>
</a>
</g>
</g>
<!-- Node6 -->
<g id="Node000006" class="node">
<title>Node6</title>
<g id="a_Node000006"><a xlink:href="integrator__simplexify_8hpp.html" target="_top" xlink:title=" ">
<polygon fill="white" stroke="#666666" points="1073,-41 920,-41 920,0 1073,0 1073,-41"/>
<text text-anchor="start" x="928" y="-29" font-family="Helvetica,sans-Serif" font-size="10.00">/__w/vulpes/vulpes</text>
<text text-anchor="start" x="928" y="-18" font-family="Helvetica,sans-Serif" font-size="10.00">/vulpes/assemble/integrator</text>
<text text-anchor="middle" x="996.5" y="-7" font-family="Helvetica,sans-Serif" font-size="10.00">_simplexify.hpp</text>
</a>
</g>
</g>
<!-- Node3&#45;&gt;Node6 -->
<g id="edge5_Node000003_Node000006" class="edge">
<title>Node3&#45;&gt;Node6</title>
<g id="a_edge5_Node000003_Node000006"><a xlink:title=" ">
<path fill="none" stroke="#63b8ff" d="M818.19,-304.52C837.76,-296.97 857.99,-286.45 873.5,-272 945.09,-205.27 980.29,-87.88 991.95,-41.33"/>
<polygon fill="#63b8ff" stroke="#63b8ff" points="816.86,-301.28 808.66,-307.99 819.26,-307.86 816.86,-301.28"/>
</a>
</g>
</g>
<!-- Node7 -->
<g id="Node000007" class="node">
<title>Node7</title>
<g id="a_Node000007"><a xlink:href="dof__handler_8hpp.html" target="_top" xlink:title=" ">
<polygon fill="white" stroke="#666666" points="401,-189.5 244,-189.5 244,-159.5 401,-159.5 401,-189.5"/>
<text text-anchor="start" x="252" y="-177.5" font-family="Helvetica,sans-Serif" font-size="10.00">/__w/vulpes/vulpes</text>
<text text-anchor="middle" x="322.5" y="-166.5" font-family="Helvetica,sans-Serif" font-size="10.00">/vulpes/dofs/dof_handler.hpp</text>
</a>
</g>
</g>
<!-- Node3&#45;&gt;Node7 -->
<g id="edge6_Node000003_Node000007" class="edge">
<title>Node3&#45;&gt;Node7</title>
<g id="a_edge6_Node000003_Node000007"><a xlink:title=" ">
<path fill="none" stroke="#63b8ff" d="M674.33,-315C619.83,-308.27 545.45,-295.5 483.5,-272 428.05,-250.97 370.07,-211.07 341.18,-189.76"/>
<polygon fill="#63b8ff" stroke="#63b8ff" points="673.92,-318.48 684.27,-316.19 674.76,-311.53 673.92,-318.48"/>
</a>
</g>
</g>
<!-- Node10 -->
<g id="Node000010" class="node">
<title>Node10</title>
<g id="a_Node000010"><a xlink:href="fe__expression_8hpp.html" target="_top" xlink:title=" ">
<polygon fill="white" stroke="#666666" points="187,-189.5 30,-189.5 30,-159.5 187,-159.5 187,-189.5"/>
<text text-anchor="start" x="38" y="-177.5" font-family="Helvetica,sans-Serif" font-size="10.00">/__w/vulpes/vulpes</text>
<text text-anchor="middle" x="108.5" y="-166.5" font-family="Helvetica,sans-Serif" font-size="10.00">/vulpes/fe/fe_expression.hpp</text>
</a>
</g>
</g>
<!-- Node3&#45;&gt;Node10 -->
<g id="edge12_Node000003_Node000010" class="edge">
<title>Node3&#45;&gt;Node10</title>
<g id="a_edge12_Node000003_Node000010"><a xlink:title=" ">
<path fill="none" stroke="#63b8ff" d="M673.85,-320.47C518.87,-316.71 179.42,-304.78 138.5,-272 113.44,-251.93 108.88,-211.24 108.31,-189.67"/>
<polygon fill="#63b8ff" stroke="#63b8ff" points="674.16,-323.98 684.24,-320.72 674.33,-316.98 674.16,-323.98"/>
</a>
</g>
</g>
<!-- Node11 -->
<g id="Node000011" class="node">
<title>Node11</title>
<g id="a_Node000011"><a xlink:href="fe__lagrange__simplex_8hpp.html" target="_top" xlink:title=" ">
<polygon fill="white" stroke="#666666" points="659,-272 516,-272 516,-231 659,-231 659,-272"/>
<text text-anchor="start" x="524" y="-260" font-family="Helvetica,sans-Serif" font-size="10.00">/__w/vulpes/vulpes</text>
<text text-anchor="start" x="524" y="-249" font-family="Helvetica,sans-Serif" font-size="10.00">/vulpes/fe/fe_spaces</text>
<text text-anchor="middle" x="587.5" y="-238" font-family="Helvetica,sans-Serif" font-size="10.00">/fe_lagrange_simplex.hpp</text>
</a>
</g>
</g>
<!-- Node3&#45;&gt;Node11 -->
<g id="edge14_Node000003_Node000011" class="edge">
<title>Node3&#45;&gt;Node11</title>
<g id="a_edge14_Node000003_Node000011"><a xlink:title=" ">
<path fill="none" stroke="#63b8ff" d="M708.05,-303.9C685.14,-294.13 656.83,-282.06 633.41,-272.07"/>
<polygon fill="#63b8ff" stroke="#63b8ff" points="706.94,-307.23 717.51,-307.94 709.69,-300.79 706.94,-307.23"/>
</a>
</g>
</g>
<!-- Node13 -->
<g id="Node000013" class="node">
<title>Node13</title>
<g id="a_Node000013"><a xlink:href="fe__lagrange__tensor_8hpp.html" target="_top" xlink:title=" ">
<polygon fill="white" stroke="#666666" points="553.5,-195 419.5,-195 419.5,-154 553.5,-154 553.5,-195"/>
<text text-anchor="start" x="427.5" y="-183" font-family="Helvetica,sans-Serif" font-size="10.00">/__w/vulpes/vulpes</text>
<text text-anchor="start" x="427.5" y="-172" font-family="Helvetica,sans-Serif" font-size="10.00">/vulpes/fe/fe_spaces</text>
<text text-anchor="middle" x="486.5" y="-161" font-family="Helvetica,sans-Serif" font-size="10.00">/fe_lagrange_tensor.hpp</text>
</a>
</g>
</g>
<!-- Node3&#45;&gt;Node13 -->
<g id="edge18_Node000003_Node000013" class="edge">
<title>Node3&#45;&gt;Node13</title>
<g id="a_edge18_Node000003_Node000013"><a xlink:title=" ">
<path fill="none" stroke="#63b8ff" d="M673.97,-315.45C611.46,-308.49 529.77,-295.22 506.5,-272 486.27,-251.82 483.93,-216.9 484.74,-195.06"/>
<polygon fill="#63b8ff" stroke="#63b8ff" points="673.9,-318.96 684.22,-316.55 674.65,-312 673.9,-318.96"/>
</a>
</g>
</g>
<!-- Node14 -->
<g id="Node000014" class="node">
<title>Node14</title>
<g id="a_Node000014"><a xlink:href="fe__modal__simplex_8hpp.html" target="_top" xlink:title=" ">
<polygon fill="white" stroke="#666666" points="863,-195 732,-195 732,-154 863,-154 863,-195"/>
<text text-anchor="start" x="740" y="-183" font-family="Helvetica,sans-Serif" font-size="10.00">/__w/vulpes/vulpes</text>
<text text-anchor="start" x="740" y="-172" font-family="Helvetica,sans-Serif" font-size="10.00">/vulpes/fe/fe_spaces</text>
<text text-anchor="middle" x="797.5" y="-161" font-family="Helvetica,sans-Serif" font-size="10.00">/fe_modal_simplex.hpp</text>
</a>
</g>
</g>
<!-- Node3&#45;&gt;Node14 -->
<g id="edge19_Node000003_Node000014" class="edge">
<title>Node3&#45;&gt;Node14</title>
<g id="a_edge19_Node000003_Node000014"><a xlink:title=" ">
<path fill="none" stroke="#63b8ff" d="M799.52,-302.95C812.56,-295.37 825.07,-285.23 832.5,-272 846.55,-246.98 829.08,-215.26 814.19,-195.17"/>
<polygon fill="#63b8ff" stroke="#63b8ff" points="797.64,-299.99 790.47,-307.79 800.94,-306.16 797.64,-299.99"/>
</a>
</g>
</g>
<!-- Node15 -->
<g id="Node000015" class="node">
<title>Node15</title>
<g id="a_Node000015"><a xlink:href="fe__modal__tensor_8hpp.html" target="_top" xlink:title=" ">
<polygon fill="white" stroke="#666666" points="1079.5,-272 957.5,-272 957.5,-231 1079.5,-231 1079.5,-272"/>
<text text-anchor="start" x="965.5" y="-260" font-family="Helvetica,sans-Serif" font-size="10.00">/__w/vulpes/vulpes</text>
<text text-anchor="start" x="965.5" y="-249" font-family="Helvetica,sans-Serif" font-size="10.00">/vulpes/fe/fe_spaces</text>
<text text-anchor="middle" x="1018.5" y="-238" font-family="Helvetica,sans-Serif" font-size="10.00">/fe_modal_tensor.hpp</text>
</a>
</g>
</g>
<!-- Node3&#45;&gt;Node15 -->
<g id="edge20_Node000003_Node000015" class="edge">
<title>Node3&#45;&gt;Node15</title>
<g id="a_edge20_Node000003_Node000015"><a xlink:title=" ">
<path fill="none" stroke="#63b8ff" d="M814.79,-305.36C852.32,-295.64 900.6,-283.13 943.5,-272 947.93,-270.85 952.5,-269.66 957.11,-268.47"/>
<polygon fill="#63b8ff" stroke="#63b8ff" points="813.8,-302 804.99,-307.9 815.55,-308.78 813.8,-302"/>
</a>
</g>
</g>
<!-- Node16 -->
<g id="Node000016" class="node">
<title>Node16</title>
<g id="a_Node000016"><a xlink:href="fe__scaled__monomials_8hpp.html" target="_top" xlink:title=" ">
<polygon fill="white" stroke="#666666" points="824,-272 677,-272 677,-231 824,-231 824,-272"/>
<text text-anchor="start" x="685" y="-260" font-family="Helvetica,sans-Serif" font-size="10.00">/__w/vulpes/vulpes</text>
<text text-anchor="start" x="685" y="-249" font-family="Helvetica,sans-Serif" font-size="10.00">/vulpes/fe/fe_spaces</text>
<text text-anchor="middle" x="750.5" y="-238" font-family="Helvetica,sans-Serif" font-size="10.00">/fe_scaled_monomials.hpp</text>
</a>
</g>
</g>
<!-- Node3&#45;&gt;Node16 -->
<g id="edge21_Node000003_Node000016" class="edge">
<title>Node3&#45;&gt;Node16</title>
<g id="a_edge21_Node000003_Node000016"><a xlink:title=" ">
<path fill="none" stroke="#63b8ff" d="M750.5,-297.91C750.5,-289.47 750.5,-280.1 750.5,-272.07"/>
<polygon fill="#63b8ff" stroke="#63b8ff" points="747,-297.94 750.5,-307.94 754,-297.94 747,-297.94"/>
</a>
</g>
</g>
<!-- Node17 -->
<g id="Node000017" class="node">
<title>Node17</title>
<g id="a_Node000017"><a xlink:href="fe__values_8hpp.html" target="_top" xlink:title=" ">
<polygon fill="white" stroke="#666666" points="283.5,-266.5 147.5,-266.5 147.5,-236.5 283.5,-236.5 283.5,-266.5"/>
<text text-anchor="start" x="155.5" y="-254.5" font-family="Helvetica,sans-Serif" font-size="10.00">/__w/vulpes/vulpes</text>
<text text-anchor="middle" x="215.5" y="-243.5" font-family="Helvetica,sans-Serif" font-size="10.00">/vulpes/fe/fe_values.hpp</text>
</a>
</g>
</g>
<!-- Node3&#45;&gt;Node17 -->
<g id="edge22_Node000003_Node000017" class="edge">
<title>Node3&#45;&gt;Node17</title>
<g id="a_edge22_Node000003_Node000017"><a xlink:title=" ">
<path fill="none" stroke="#63b8ff" d="M674.2,-312.09C569.69,-298.51 383.62,-274.34 283.59,-261.35"/>
<polygon fill="#63b8ff" stroke="#63b8ff" points="673.99,-315.59 684.36,-313.41 674.9,-308.65 673.99,-315.59"/>
</a>
</g>
</g>
<!-- Node8 -->
<g id="Node000008" class="node">
<title>Node8</title>
<g id="a_Node000008"><a xlink:href="integrator__base_8hpp.html" target="_top" xlink:title=" ">
<polygon fill="white" stroke="#666666" points="345,-118 192,-118 192,-77 345,-77 345,-118"/>
<text text-anchor="start" x="200" y="-106" font-family="Helvetica,sans-Serif" font-size="10.00">/__w/vulpes/vulpes</text>
<text text-anchor="start" x="200" y="-95" font-family="Helvetica,sans-Serif" font-size="10.00">/vulpes/assemble/integrator</text>
<text text-anchor="middle" x="268.5" y="-84" font-family="Helvetica,sans-Serif" font-size="10.00">_base.hpp</text>
</a>
</g>
</g>
<!-- Node7&#45;&gt;Node8 -->
<g id="edge7_Node000007_Node000008" class="edge">
<title>Node7&#45;&gt;Node8</title>
<g id="a_edge7_Node000007_Node000008"><a xlink:title=" ">
<path fill="none" stroke="#63b8ff" d="M306.4,-151.14C298.86,-140.67 289.97,-128.31 282.69,-118.2"/>
<polygon fill="#63b8ff" stroke="#63b8ff" points="303.66,-153.32 312.34,-159.39 309.34,-149.23 303.66,-153.32"/>
</a>
</g>
</g>
<!-- Node8&#45;&gt;Node4 -->
<g id="edge8_Node000008_Node000004" class="edge">
<title>Node8&#45;&gt;Node4</title>
<g id="a_edge8_Node000008_Node000004"><a xlink:title=" ">
<path fill="none" stroke="#63b8ff" d="M209.03,-73.27C182.57,-62.94 151.77,-50.9 126.53,-41.04"/>
<polygon fill="#63b8ff" stroke="#63b8ff" points="207.97,-76.61 218.56,-76.99 210.51,-70.09 207.97,-76.61"/>
</a>
</g>
</g>
<!-- Node8&#45;&gt;Node5 -->
<g id="edge9_Node000008_Node000005" class="edge">
<title>Node8&#45;&gt;Node5</title>
<g id="a_edge9_Node000008_Node000005"><a xlink:title=" ">
<path fill="none" stroke="#63b8ff" d="M355.28,-84.81C463.24,-70.28 645.89,-45.68 748.89,-31.82"/>
<polygon fill="#63b8ff" stroke="#63b8ff" points="354.52,-81.39 345.07,-86.19 355.45,-88.32 354.52,-81.39"/>
</a>
</g>
</g>
<!-- Node8&#45;&gt;Node6 -->
<g id="edge10_Node000008_Node000006" class="edge">
<title>Node8&#45;&gt;Node6</title>
<g id="a_edge10_Node000008_Node000006"><a xlink:title=" ">
<path fill="none" stroke="#63b8ff" d="M355.18,-92.77C478.95,-86.6 713.21,-71.75 910.5,-41 913.53,-40.53 916.6,-40.01 919.71,-39.46"/>
<polygon fill="#63b8ff" stroke="#63b8ff" points="354.82,-89.29 345,-93.27 355.16,-96.28 354.82,-89.29"/>
</a>
</g>
</g>
<!-- Node9 -->
<g id="Node000009" class="node">
<title>Node9</title>
<g id="a_Node000009"><a xlink:href="integrator__vem__moment_8hpp.html" target="_top" xlink:title=" ">
<polygon fill="white" stroke="#666666" points="345,-41 192,-41 192,0 345,0 345,-41"/>
<text text-anchor="start" x="200" y="-29" font-family="Helvetica,sans-Serif" font-size="10.00">/__w/vulpes/vulpes</text>
<text text-anchor="start" x="200" y="-18" font-family="Helvetica,sans-Serif" font-size="10.00">/vulpes/assemble/integrator</text>
<text text-anchor="middle" x="268.5" y="-7" font-family="Helvetica,sans-Serif" font-size="10.00">_vem_moment.hpp</text>
</a>
</g>
</g>
<!-- Node8&#45;&gt;Node9 -->
<g id="edge11_Node000008_Node000009" class="edge">
<title>Node8&#45;&gt;Node9</title>
<g id="a_edge11_Node000008_Node000009"><a xlink:title=" ">
<path fill="none" stroke="#63b8ff" d="M268.5,-66.69C268.5,-58.08 268.5,-48.9 268.5,-41.07"/>
<polygon fill="#63b8ff" stroke="#63b8ff" points="265,-66.79 268.5,-76.79 272,-66.79 265,-66.79"/>
</a>
</g>
</g>
<!-- Node10&#45;&gt;Node8 -->
<g id="edge13_Node000010_Node000008" class="edge">
<title>Node10&#45;&gt;Node8</title>
<g id="a_edge13_Node000010_Node000008"><a xlink:title=" ">
<path fill="none" stroke="#63b8ff" d="M147.76,-155.1C171.73,-143.86 202.36,-129.5 226.77,-118.06"/>
<polygon fill="#63b8ff" stroke="#63b8ff" points="146.16,-151.98 138.59,-159.39 149.13,-158.32 146.16,-151.98"/>
</a>
</g>
</g>
<!-- Node12 -->
<g id="Node000012" class="node">
<title>Node12</title>
<g id="a_Node000012"><a xlink:href="fe__lagrange__simplex_8cpp.html" target="_top" xlink:title=" ">
<polygon fill="white" stroke="#666666" points="713.5,-195 571.5,-195 571.5,-154 713.5,-154 713.5,-195"/>
<text text-anchor="start" x="579.5" y="-183" font-family="Helvetica,sans-Serif" font-size="10.00">/__w/vulpes/vulpes</text>
<text text-anchor="start" x="579.5" y="-172" font-family="Helvetica,sans-Serif" font-size="10.00">/vulpes/fe/fe_spaces</text>
<text text-anchor="middle" x="642.5" y="-161" font-family="Helvetica,sans-Serif" font-size="10.00">/fe_lagrange_simplex.cpp</text>
</a>
</g>
</g>
<!-- Node11&#45;&gt;Node12 -->
<g id="edge15_Node000011_Node000012" class="edge">
<title>Node11&#45;&gt;Node12</title>
<g id="a_edge15_Node000011_Node000012"><a xlink:title=" ">
<path fill="none" stroke="#63b8ff" d="M607.91,-222.67C614.63,-213.5 621.97,-203.5 628.15,-195.07"/>
<polygon fill="#63b8ff" stroke="#63b8ff" points="605.04,-220.66 601.95,-230.79 610.69,-224.8 605.04,-220.66"/>
</a>
</g>
</g>
<!-- Node11&#45;&gt;Node13 -->
<g id="edge16_Node000011_Node000013" class="edge">
<title>Node11&#45;&gt;Node13</title>
<g id="a_edge16_Node000011_Node000013"><a xlink:title=" ">
<path fill="none" stroke="#63b8ff" d="M552.91,-224.82C539.85,-215.11 525.2,-204.24 512.99,-195.17"/>
<polygon fill="#63b8ff" stroke="#63b8ff" points="551.11,-227.84 561.23,-230.99 555.29,-222.22 551.11,-227.84"/>
</a>
</g>
</g>
<!-- Node11&#45;&gt;Node14 -->
<g id="edge17_Node000011_Node000014" class="edge">
<title>Node11&#45;&gt;Node14</title>
<g id="a_edge17_Node000011_Node000014"><a xlink:title=" ">
<path fill="none" stroke="#63b8ff" d="M651.79,-227.54C680.89,-217.15 714.93,-204.99 742.78,-195.04"/>
<polygon fill="#63b8ff" stroke="#63b8ff" points="650.37,-224.33 642.13,-230.99 652.72,-230.92 650.37,-224.33"/>
</a>
</g>
</g>
<!-- Node17&#45;&gt;Node8 -->
<g id="edge23_Node000017_Node000008" class="edge">
<title>Node17&#45;&gt;Node8</title>
<g id="a_edge23_Node000017_Node000008"><a xlink:title=" ">
<path fill="none" stroke="#63b8ff" d="M217.86,-226.24C220.37,-206.31 225.28,-177.62 234.5,-154 239.43,-141.37 247.21,-128.38 254.08,-118.15"/>
<polygon fill="#63b8ff" stroke="#63b8ff" points="214.37,-225.99 216.71,-236.32 221.32,-226.78 214.37,-225.99"/>
</a>
</g>
</g>
<!-- Node17&#45;&gt;Node10 -->
<g id="edge24_Node000017_Node000010" class="edge">
<title>Node17&#45;&gt;Node10</title>
<g id="a_edge24_Node000017_Node000010"><a xlink:title=" ">
<path fill="none" stroke="#63b8ff" d="M187.04,-230.55C168.6,-217.63 145.02,-201.1 128.54,-189.54"/>
<polygon fill="#63b8ff" stroke="#63b8ff" points="185.18,-233.52 195.37,-236.39 189.19,-227.79 185.18,-233.52"/>
</a>
</g>
</g>
<!-- Node18&#45;&gt;Node15 -->
<g id="edge27_Node000018_Node000015" class="edge">
<title>Node18&#45;&gt;Node15</title>
<g id="a_edge27_Node000018_Node000015"><a xlink:title=" ">
<path fill="none" stroke="#63b8ff" d="M1265.81,-364.19C1270.71,-346.13 1272.88,-323.54 1260.5,-308 1238.28,-280.1 1143.64,-265.08 1079.51,-257.94"/>
<polygon fill="#63b8ff" stroke="#63b8ff" points="1262.4,-363.36 1262.78,-373.95 1269.09,-365.43 1262.4,-363.36"/>
</a>
</g>
</g>
<!-- Node20&#45;&gt;Node5 -->
<g id="edge30_Node000020_Node000005" class="edge">
<title>Node20&#45;&gt;Node5</title>
<g id="a_edge30_Node000020_Node000005"><a xlink:title=" ">
<path fill="none" stroke="#63b8ff" d="M1071.39,-369.61C1077.08,-345.25 1085.29,-306.26 1088.5,-272 1090.2,-253.86 1096.41,-247.42 1088.5,-231 1042.95,-136.47 931.7,-71.4 869.47,-41.03"/>
<polygon fill="#63b8ff" stroke="#63b8ff" points="1067.97,-368.87 1069.06,-379.41 1074.78,-370.49 1067.97,-368.87"/>
</a>
</g>
</g>
<!-- Node20&#45;&gt;Node19 -->
<g id="edge34_Node000020_Node000019" class="edge">
<title>Node20&#45;&gt;Node19</title>
<g id="a_edge34_Node000020_Node000019"><a xlink:title=" ">
<path fill="none" stroke="#63b8ff" d="M1034.53,-373.75C1016.67,-362.36 994.62,-348.31 978.52,-338.04"/>
<polygon fill="#63b8ff" stroke="#63b8ff" points="1033.13,-377.01 1043.44,-379.44 1036.89,-371.11 1033.13,-377.01"/>
</a>
</g>
</g>
<!-- Node21 -->
<g id="Node000021" class="node">
<title>Node21</title>
<g id="a_Node000021"><a xlink:href="simplexify_8hpp.html" target="_top" xlink:title=" ">
<polygon fill="white" stroke="#666666" points="1483.5,-338 1307.5,-338 1307.5,-308 1483.5,-308 1483.5,-338"/>
<text text-anchor="start" x="1315.5" y="-326" font-family="Helvetica,sans-Serif" font-size="10.00">/__w/vulpes/vulpes</text>
<text text-anchor="middle" x="1395.5" y="-315" font-family="Helvetica,sans-Serif" font-size="10.00">/vulpes/geometry/simplexify.hpp</text>
</a>
</g>
</g>
<!-- Node20&#45;&gt;Node21 -->
<g id="edge31_Node000020_Node000021" class="edge">
<title>Node20&#45;&gt;Node21</title>
<g id="a_edge31_Node000020_Node000021"><a xlink:title=" ">
<path fill="none" stroke="#63b8ff" d="M1142.24,-377.34C1198.75,-365.44 1274.84,-349.41 1328.82,-338.04"/>
<polygon fill="#63b8ff" stroke="#63b8ff" points="1141.34,-373.95 1132.28,-379.44 1142.79,-380.8 1141.34,-373.95"/>
</a>
</g>
</g>
<!-- Node23 -->
<g id="Node000023" class="node">
<title>Node23</title>
<g id="a_Node000023"><a xlink:href="qfree_8cpp.html" target="_top" xlink:title=" ">
<polygon fill="white" stroke="#666666" points="1251,-338 1094,-338 1094,-308 1251,-308 1251,-338"/>
<text text-anchor="start" x="1102" y="-326" font-family="Helvetica,sans-Serif" font-size="10.00">/__w/vulpes/vulpes</text>
<text text-anchor="middle" x="1172.5" y="-315" font-family="Helvetica,sans-Serif" font-size="10.00">/vulpes/quadrature/qfree.cpp</text>
</a>
</g>
</g>
<!-- Node20&#45;&gt;Node23 -->
<g id="edge35_Node000020_Node000023" class="edge">
<title>Node20&#45;&gt;Node23</title>
<g id="a_edge35_Node000020_Node000023"><a xlink:title=" ">
<path fill="none" stroke="#63b8ff" d="M1095.9,-373.75C1113.44,-362.36 1135.08,-348.31 1150.88,-338.04"/>
<polygon fill="#63b8ff" stroke="#63b8ff" points="1093.63,-371.05 1087.15,-379.44 1097.45,-376.92 1093.63,-371.05"/>
</a>
</g>
</g>
<!-- Node21&#45;&gt;Node6 -->
<g id="edge32_Node000021_Node000006" class="edge">
<title>Node21&#45;&gt;Node6</title>
<g id="a_edge32_Node000021_Node000006"><a xlink:title=" ">
<path fill="none" stroke="#63b8ff" d="M1352.47,-303.59C1335.19,-295.2 1315.59,-284.37 1299.5,-272 1206.48,-200.47 1216.7,-145.6 1121.5,-77 1100.98,-62.22 1075.9,-50.13 1053.61,-41.05"/>
<polygon fill="#63b8ff" stroke="#63b8ff" points="1351.26,-306.89 1361.8,-308 1354.25,-300.56 1351.26,-306.89"/>
</a>
</g>
</g>
<!-- Node22 -->
<g id="Node000022" class="node">
<title>Node22</title>
<g id="a_Node000022"><a xlink:href="simplexify_8cpp.html" target="_top" xlink:title=" ">
<polygon fill="white" stroke="#666666" points="1483,-266.5 1308,-266.5 1308,-236.5 1483,-236.5 1483,-266.5"/>
<text text-anchor="start" x="1316" y="-254.5" font-family="Helvetica,sans-Serif" font-size="10.00">/__w/vulpes/vulpes</text>
<text text-anchor="middle" x="1395.5" y="-243.5" font-family="Helvetica,sans-Serif" font-size="10.00">/vulpes/geometry/simplexify.cpp</text>
</a>
</g>
</g>
<!-- Node21&#45;&gt;Node22 -->
<g id="edge33_Node000021_Node000022" class="edge">
<title>Node21&#45;&gt;Node22</title>
<g id="a_edge33_Node000021_Node000022"><a xlink:title=" ">
<path fill="none" stroke="#63b8ff" d="M1395.5,-297.75C1395.5,-287.31 1395.5,-275.49 1395.5,-266.54"/>
<polygon fill="#63b8ff" stroke="#63b8ff" points="1392,-297.94 1395.5,-307.94 1399,-297.94 1392,-297.94"/>
</a>
</g>
</g>
</g>
</svg>
