<?xml version="1.0" encoding="UTF-8" standalone="no"?>
<!DOCTYPE svg PUBLIC "-//W3C//DTD SVG 1.1//EN"
 "http://www.w3.org/Graphics/SVG/1.1/DTD/svg11.dtd">
<!-- Generated by graphviz version 2.42.4 (0)
 -->
<!-- Title: /__w/vulpes/vulpes/vulpes/polynomials/monomial.hpp Pages: 1 -->
<svg width="680pt" height="159pt"
 viewBox="0.00 0.00 680.00 159.00" xmlns="http://www.w3.org/2000/svg" xmlns:xlink="http://www.w3.org/1999/xlink">
<g id="graph0" class="graph" transform="scale(1 1) rotate(0) translate(4 155)">
<title>/__w/vulpes/vulpes/vulpes/polynomials/monomial.hpp</title>
<!-- Node1 -->
<g id="Node000001" class="node">
<title>Node1</title>
<g id="a_Node000001"><a xlink:title=" ">
<polygon fill="#999999" stroke="#666666" points="319.5,-151 204.5,-151 204.5,-110 319.5,-110 319.5,-151"/>
<text text-anchor="start" x="212.5" y="-139" font-family="Helvetica,sans-Serif" font-size="10.00">/__w/vulpes/vulpes</text>
<text text-anchor="start" x="212.5" y="-128" font-family="Helvetica,sans-Serif" font-size="10.00">/vulpes/polynomials</text>
<text text-anchor="middle" x="262" y="-117" font-family="Helvetica,sans-Serif" font-size="10.00">/monomial.hpp</text>
</a>
</g>
</g>
<!-- Node2 -->
<g id="Node000002" class="node">
<title>Node2</title>
<g id="a_Node000002"><a xlink:title=" ">
<polygon fill="#e0e0e0" stroke="#999999" points="64,-74 0,-74 0,-55 64,-55 64,-74"/>
<text text-anchor="middle" x="32" y="-62" font-family="Helvetica,sans-Serif" font-size="10.00">algorithm</text>
</a>
</g>
</g>
<!-- Node1&#45;&gt;Node2 -->
<g id="edge1_Node000001_Node000002" class="edge">
<title>Node1&#45;&gt;Node2</title>
<g id="a_edge1_Node000001_Node000002"><a xlink:title=" ">
<path fill="none" stroke="#63b8ff" d="M204.26,-113.43C163.15,-101.99 108.93,-86.91 72.39,-76.74"/>
<polygon fill="#63b8ff" stroke="#63b8ff" points="73.15,-73.32 62.58,-74.01 71.27,-80.06 73.15,-73.32"/>
</a>
</g>
</g>
<!-- Node3 -->
<g id="Node000003" class="node">
<title>Node3</title>
<g id="a_Node000003"><a xlink:title=" ">
<polygon fill="#e0e0e0" stroke="#999999" points="124,-74 82,-74 82,-55 124,-55 124,-74"/>
<text text-anchor="middle" x="103" y="-62" font-family="Helvetica,sans-Serif" font-size="10.00">array</text>
</a>
</g>
</g>
<!-- Node1&#45;&gt;Node3 -->
<g id="edge2_Node000001_Node000003" class="edge">
<title>Node1&#45;&gt;Node3</title>
<g id="a_edge2_Node000001_Node000003"><a xlink:title=" ">
<path fill="none" stroke="#63b8ff" d="M213.43,-109.95C187.5,-99.51 156.36,-86.98 133.77,-77.88"/>
<polygon fill="#63b8ff" stroke="#63b8ff" points="134.93,-74.58 124.35,-74.09 132.32,-81.07 134.93,-74.58"/>
</a>
</g>
</g>
<!-- Node4 -->
<g id="Node000004" class="node">
<title>Node4</title>
<g id="a_Node000004"><a xlink:title=" ">
<polygon fill="#e0e0e0" stroke="#999999" points="194,-74 142,-74 142,-55 194,-55 194,-74"/>
<text text-anchor="middle" x="168" y="-62" font-family="Helvetica,sans-Serif" font-size="10.00">cassert</text>
</a>
</g>
</g>
<!-- Node1&#45;&gt;Node4 -->
<g id="edge3_Node000001_Node000004" class="edge">
<title>Node1&#45;&gt;Node4</title>
<g id="a_edge3_Node000001_Node000004"><a xlink:title=" ">
<path fill="none" stroke="#63b8ff" d="M233.29,-109.95C219.07,-100.27 202.22,-88.8 189.19,-79.93"/>
<polygon fill="#63b8ff" stroke="#63b8ff" points="191.1,-77 180.87,-74.26 187.16,-82.78 191.1,-77"/>
</a>
</g>
</g>
<!-- Node5 -->
<g id="Node000005" class="node">
<title>Node5</title>
<g id="a_Node000005"><a xlink:title=" ">
<polygon fill="#e0e0e0" stroke="#999999" points="259.5,-74 212.5,-74 212.5,-55 259.5,-55 259.5,-74"/>
<text text-anchor="middle" x="236" y="-62" font-family="Helvetica,sans-Serif" font-size="10.00">cmath</text>
</a>
</g>
</g>
<!-- Node1&#45;&gt;Node5 -->
<g id="edge4_Node000001_Node000005" class="edge">
<title>Node1&#45;&gt;Node5</title>
<g id="a_edge4_Node000001_Node000005"><a xlink:title=" ">
<path fill="none" stroke="#63b8ff" d="M254.06,-109.95C250.66,-101.58 246.71,-91.85 243.37,-83.64"/>
<polygon fill="#63b8ff" stroke="#63b8ff" points="246.57,-82.21 239.56,-74.26 240.08,-84.84 246.57,-82.21"/>
</a>
</g>
</g>
<!-- Node6 -->
<g id="Node000006" class="node">
<title>Node6</title>
<g id="a_Node000006"><a xlink:title=" ">
<polygon fill="#e0e0e0" stroke="#999999" points="281.5,-19 228.5,-19 228.5,0 281.5,0 281.5,-19"/>
<text text-anchor="middle" x="255" y="-7" font-family="Helvetica,sans-Serif" font-size="10.00">cstddef</text>
</a>
</g>
</g>
<!-- Node1&#45;&gt;Node6 -->
<g id="edge5_Node000001_Node000006" class="edge">
<title>Node1&#45;&gt;Node6</title>
<g id="a_edge5_Node000001_Node000006"><a xlink:title=" ">
<path fill="none" stroke="#63b8ff" d="M265.96,-109.82C268.42,-94.76 270.65,-73.5 268,-55 266.75,-46.24 264.17,-36.79 261.64,-28.86"/>
<polygon fill="#63b8ff" stroke="#63b8ff" points="264.88,-27.54 258.34,-19.2 258.26,-29.8 264.88,-27.54"/>
</a>
</g>
</g>
<!-- Node7 -->
<g id="Node000007" class="node">
<title>Node7</title>
<g id="a_Node000007"><a xlink:title=" ">
<polygon fill="#e0e0e0" stroke="#999999" points="368.5,-19 299.5,-19 299.5,0 368.5,0 368.5,-19"/>
<text text-anchor="middle" x="334" y="-7" font-family="Helvetica,sans-Serif" font-size="10.00">type_traits</text>
</a>
</g>
</g>
<!-- Node1&#45;&gt;Node7 -->
<g id="edge6_Node000001_Node000007" class="edge">
<title>Node1&#45;&gt;Node7</title>
<g id="a_edge6_Node000001_Node000007"><a xlink:title=" ">
<path fill="none" stroke="#63b8ff" d="M273.89,-109.85C287.67,-87.07 310.19,-49.85 323.4,-28.02"/>
<polygon fill="#63b8ff" stroke="#63b8ff" points="326.57,-29.54 328.75,-19.18 320.58,-25.92 326.57,-29.54"/>
</a>
</g>
</g>
<!-- Node8 -->
<g id="Node000008" class="node">
<title>Node8</title>
<g id="a_Node000008"><a xlink:href="macros_8hpp.html" target="_top" xlink:title=" ">
<polygon fill="white" stroke="#666666" points="633.5,-74 500.5,-74 500.5,-55 633.5,-55 633.5,-74"/>
<text text-anchor="middle" x="567" y="-62" font-family="Helvetica,sans-Serif" font-size="10.00">vulpes/utils/macros.hpp</text>
</a>
</g>
</g>
<!-- Node1&#45;&gt;Node8 -->
<g id="edge7_Node000001_Node000008" class="edge">
<title>Node1&#45;&gt;Node8</title>
<g id="a_edge7_Node000001_Node000008"><a xlink:title=" ">
<path fill="none" stroke="#63b8ff" d="M319.73,-117.39C376.35,-105.51 461.85,-87.56 516.03,-76.2"/>
<polygon fill="#63b8ff" stroke="#63b8ff" points="517.03,-79.56 526.1,-74.08 515.59,-72.71 517.03,-79.56"/>
</a>
</g>
</g>
<!-- Node9 -->
<g id="Node000009" class="node">
<title>Node9</title>
<g id="a_Node000009"><a xlink:href="vmath_8hpp.html" target="_top" xlink:title=" ">
<polygon fill="white" stroke="#666666" points="482,-74 354,-74 354,-55 482,-55 482,-74"/>
<text text-anchor="middle" x="418" y="-62" font-family="Helvetica,sans-Serif" font-size="10.00">vulpes/utils/vmath.hpp</text>
</a>
</g>
</g>
<!-- Node1&#45;&gt;Node9 -->
<g id="edge8_Node000001_Node000009" class="edge">
<title>Node1&#45;&gt;Node9</title>
<g id="a_edge8_Node000001_Node000009"><a xlink:title=" ">
<path fill="none" stroke="#63b8ff" d="M309.65,-109.95C334.98,-99.56 365.37,-87.09 387.51,-78.01"/>
<polygon fill="#63b8ff" stroke="#63b8ff" points="389.13,-81.13 397.06,-74.09 386.48,-74.65 389.13,-81.13"/>
</a>
</g>
</g>
<!-- Node9&#45;&gt;Node6 -->
<g id="edge10_Node000009_Node000006" class="edge">
<title>Node9&#45;&gt;Node6</title>
<g id="a_edge10_Node000009_Node000006"><a xlink:title=" ">
<path fill="none" stroke="#63b8ff" d="M391.81,-54.98C364.56,-46.13 321.7,-32.19 291.22,-22.28"/>
<polygon fill="#63b8ff" stroke="#63b8ff" points="291.99,-18.85 281.39,-19.08 289.82,-25.5 291.99,-18.85"/>
</a>
</g>
</g>
<!-- Node9&#45;&gt;Node7 -->
<g id="edge13_Node000009_Node000007" class="edge">
<title>Node9&#45;&gt;Node7</title>
<g id="a_edge13_Node000009_Node000007"><a xlink:title=" ">
<path fill="none" stroke="#63b8ff" d="M404.5,-54.98C391.6,-46.84 371.9,-34.41 356.6,-24.76"/>
<polygon fill="#63b8ff" stroke="#63b8ff" points="358.07,-21.55 347.74,-19.17 354.33,-27.47 358.07,-21.55"/>
</a>
</g>
</g>
<!-- Node10 -->
<g id="Node000010" class="node">
<title>Node10</title>
<g id="a_Node000010"><a xlink:title=" ">
<polygon fill="#e0e0e0" stroke="#999999" points="603.5,-19 544.5,-19 544.5,0 603.5,0 603.5,-19"/>
<text text-anchor="middle" x="574" y="-7" font-family="Helvetica,sans-Serif" font-size="10.00">gmpxx.h</text>
</a>
</g>
</g>
<!-- Node9&#45;&gt;Node10 -->
<g id="edge9_Node000009_Node000010" class="edge">
<title>Node9&#45;&gt;Node10</title>
<g id="a_edge9_Node000009_Node000010"><a xlink:title=" ">
<path fill="none" stroke="#63b8ff" d="M443.06,-54.98C469.03,-46.16 509.81,-32.31 538.96,-22.41"/>
<polygon fill="#63b8ff" stroke="#63b8ff" points="540.4,-25.61 548.74,-19.08 538.15,-18.99 540.4,-25.61"/>
</a>
</g>
</g>
<!-- Node11 -->
<g id="Node000011" class="node">
<title>Node11</title>
<g id="a_Node000011"><a xlink:title=" ">
<polygon fill="#e0e0e0" stroke="#999999" points="672,-19 622,-19 622,0 672,0 672,-19"/>
<text text-anchor="middle" x="647" y="-7" font-family="Helvetica,sans-Serif" font-size="10.00">cstdint</text>
</a>
</g>
</g>
<!-- Node9&#45;&gt;Node11 -->
<g id="edge11_Node000009_Node000011" class="edge">
<title>Node9&#45;&gt;Node11</title>
<g id="a_edge11_Node000009_Node000011"><a xlink:title=" ">
<path fill="none" stroke="#63b8ff" d="M456.53,-54.95C493.83,-46.62 552.23,-33.44 611.81,-19.25"/>
<polygon fill="#63b8ff" stroke="#63b8ff" points="612.85,-22.6 621.76,-16.87 611.22,-15.79 612.85,-22.6"/>
</a>
</g>
</g>
<!-- Node12 -->
<g id="Node000012" class="node">
<title>Node12</title>
<g id="a_Node000012"><a xlink:title=" ">
<polygon fill="#e0e0e0" stroke="#999999" points="431,-19 387,-19 387,0 431,0 431,-19"/>
<text text-anchor="middle" x="409" y="-7" font-family="Helvetica,sans-Serif" font-size="10.00">limits</text>
</a>
</g>
</g>
<!-- Node9&#45;&gt;Node12 -->
<g id="edge12_Node000009_Node000012" class="edge">
<title>Node9&#45;&gt;Node12</title>
<g id="a_edge12_Node000009_Node000012"><a xlink:title=" ">
<path fill="none" stroke="#63b8ff" d="M416.51,-54.75C415.33,-47.8 413.64,-37.85 412.16,-29.13"/>
<polygon fill="#63b8ff" stroke="#63b8ff" points="415.58,-28.36 410.46,-19.09 408.68,-29.53 415.58,-28.36"/>
</a>
</g>
</g>
<!-- Node13 -->
<g id="Node000013" class="node">
<title>Node13</title>
<g id="a_Node000013"><a xlink:title=" ">
<polygon fill="#e0e0e0" stroke="#999999" points="526.5,-19 449.5,-19 449.5,0 526.5,0 526.5,-19"/>
<text text-anchor="middle" x="488" y="-7" font-family="Helvetica,sans-Serif" font-size="10.00">Eigen/Dense</text>
</a>
</g>
</g>
<!-- Node9&#45;&gt;Node13 -->
<g id="edge14_Node000009_Node000013" class="edge">
<title>Node9&#45;&gt;Node13</title>
<g id="a_edge14_Node000009_Node000013"><a xlink:title=" ">
<path fill="none" stroke="#63b8ff" d="M429.25,-54.98C439.8,-47 455.8,-34.88 468.44,-25.31"/>
<polygon fill="#63b8ff" stroke="#63b8ff" points="470.69,-28 476.55,-19.17 466.46,-22.42 470.69,-28"/>
</a>
</g>
</g>
</g>
</svg>
