<?xml version="1.0" encoding="UTF-8" standalone="no"?>
<!DOCTYPE svg PUBLIC "-//W3C//DTD SVG 1.1//EN"
 "http://www.w3.org/Graphics/SVG/1.1/DTD/svg11.dtd">
<!-- Generated by graphviz version 2.42.4 (0)
 -->
<!-- Title: /__w/vulpes/vulpes/vulpes/polynomials/monomial.hpp Pages: 1 -->
<svg width="1567pt" height="929pt"
 viewBox="0.00 0.00 1566.69 929.00" xmlns="http://www.w3.org/2000/svg" xmlns:xlink="http://www.w3.org/1999/xlink">
<g id="graph0" class="graph" transform="scale(1 1) rotate(0) translate(4 925)">
<title>/__w/vulpes/vulpes/vulpes/polynomials/monomial.hpp</title>
<!-- Node1 -->
<g id="Node000001" class="node">
<title>Node1</title>
<g id="a_Node000001"><a xlink:title=" ">
<polygon fill="#999999" stroke="#666666" points="318.5,-921 203.5,-921 203.5,-880 318.5,-880 318.5,-921"/>
<text text-anchor="start" x="211.5" y="-909" font-family="Helvetica,sans-Serif" font-size="10.00">/__w/vulpes/vulpes</text>
<text text-anchor="start" x="211.5" y="-898" font-family="Helvetica,sans-Serif" font-size="10.00">/vulpes/polynomials</text>
<text text-anchor="middle" x="261" y="-887" font-family="Helvetica,sans-Serif" font-size="10.00">/monomial.hpp</text>
</a>
</g>
</g>
<!-- Node2 -->
<g id="Node000002" class="node">
<title>Node2</title>
<g id="a_Node000002"><a xlink:href="dof__policy_8hpp.html" target="_top" xlink:title=" ">
<polygon fill="white" stroke="#666666" points="393.5,-712 256.5,-712 256.5,-682 393.5,-682 393.5,-712"/>
<text text-anchor="start" x="264.5" y="-700" font-family="Helvetica,sans-Serif" font-size="10.00">/__w/vulpes/vulpes</text>
<text text-anchor="middle" x="325" y="-689" font-family="Helvetica,sans-Serif" font-size="10.00">/vulpes/fe/dof_policy.hpp</text>
</a>
</g>
</g>
<!-- Node1&#45;&gt;Node2 -->
<g id="edge1_Node000001_Node000002" class="edge">
<title>Node1&#45;&gt;Node2</title>
<g id="a_edge1_Node000001_Node000002"><a xlink:title=" ">
<path fill="none" stroke="#63b8ff" d="M270.28,-870.27C284.24,-826.34 310.09,-744.95 320.49,-712.2"/>
<polygon fill="#63b8ff" stroke="#63b8ff" points="266.94,-869.22 267.25,-879.81 273.62,-871.34 266.94,-869.22"/>
</a>
</g>
</g>
<!-- Node3 -->
<g id="Node000003" class="node">
<title>Node3</title>
<g id="a_Node000003"><a xlink:href="fe__space_8hpp.html" target="_top" xlink:title=" ">
<polygon fill="white" stroke="#666666" points="488,-640.5 356,-640.5 356,-610.5 488,-610.5 488,-640.5"/>
<text text-anchor="start" x="364" y="-628.5" font-family="Helvetica,sans-Serif" font-size="10.00">/__w/vulpes/vulpes</text>
<text text-anchor="middle" x="422" y="-617.5" font-family="Helvetica,sans-Serif" font-size="10.00">/vulpes/fe/fe_space.hpp</text>
</a>
</g>
</g>
<!-- Node1&#45;&gt;Node3 -->
<g id="edge40_Node000001_Node000003" class="edge">
<title>Node1&#45;&gt;Node3</title>
<g id="a_edge40_Node000001_Node000003"><a xlink:title=" ">
<path fill="none" stroke="#63b8ff" d="M248.51,-870.27C231.39,-825.16 207.13,-737.94 248,-682 272.51,-648.46 317.49,-634.71 355.59,-629.29"/>
<polygon fill="#63b8ff" stroke="#63b8ff" points="245.32,-871.73 252.24,-879.75 251.84,-869.17 245.32,-871.73"/>
</a>
</g>
</g>
<!-- Node15 -->
<g id="Node000015" class="node">
<title>Node15</title>
<g id="a_Node000015"><a xlink:href="fe__vem_8hpp.html" target="_top" xlink:title=" ">
<polygon fill="white" stroke="#666666" points="212,-272 96,-272 96,-231 212,-231 212,-272"/>
<text text-anchor="start" x="104" y="-260" font-family="Helvetica,sans-Serif" font-size="10.00">/__w/vulpes/vulpes</text>
<text text-anchor="start" x="104" y="-249" font-family="Helvetica,sans-Serif" font-size="10.00">/vulpes/fe/fe_spaces</text>
<text text-anchor="middle" x="154" y="-238" font-family="Helvetica,sans-Serif" font-size="10.00">/fe_vem.hpp</text>
</a>
</g>
</g>
<!-- Node1&#45;&gt;Node15 -->
<g id="edge41_Node000001_Node000015" class="edge">
<title>Node1&#45;&gt;Node15</title>
<g id="a_edge41_Node000001_Node000015"><a xlink:title=" ">
<path fill="none" stroke="#63b8ff" d="M193.23,-893.4C115.9,-882.28 0,-851.1 0,-764 0,-764 0,-764 0,-470.5 0,-383.38 83.05,-306.65 127.18,-272.03"/>
<polygon fill="#63b8ff" stroke="#63b8ff" points="193.02,-896.9 203.4,-894.78 193.96,-889.97 193.02,-896.9"/>
</a>
</g>
</g>
<!-- Node25 -->
<g id="Node000025" class="node">
<title>Node25</title>
<g id="a_Node000025"><a xlink:href="sparse__polynomial_8hpp.html" target="_top" xlink:title=" ">
<polygon fill="white" stroke="#666666" points="213.5,-646 80.5,-646 80.5,-605 213.5,-605 213.5,-646"/>
<text text-anchor="start" x="88.5" y="-634" font-family="Helvetica,sans-Serif" font-size="10.00">/__w/vulpes/vulpes</text>
<text text-anchor="start" x="88.5" y="-623" font-family="Helvetica,sans-Serif" font-size="10.00">/vulpes/polynomials</text>
<text text-anchor="middle" x="147" y="-612" font-family="Helvetica,sans-Serif" font-size="10.00">/sparse_polynomial.hpp</text>
</a>
</g>
</g>
<!-- Node1&#45;&gt;Node25 -->
<g id="edge42_Node000001_Node000025" class="edge">
<title>Node1&#45;&gt;Node25</title>
<g id="a_edge42_Node000001_Node000025"><a xlink:title=" ">
<path fill="none" stroke="#63b8ff" d="M231.07,-872.72C222.97,-864.21 214.84,-854.31 209,-844 171.17,-777.2 154.96,-685.58 149.41,-646.01"/>
<polygon fill="#63b8ff" stroke="#63b8ff" points="228.59,-875.19 238.13,-879.82 233.56,-870.26 228.59,-875.19"/>
</a>
</g>
</g>
<!-- Node26 -->
<g id="Node000026" class="node">
<title>Node26</title>
<g id="a_Node000026"><a xlink:href="frugal_8hpp.html" target="_top" xlink:title=" ">
<polygon fill="white" stroke="#666666" points="849.5,-712 688.5,-712 688.5,-682 849.5,-682 849.5,-712"/>
<text text-anchor="start" x="696.5" y="-700" font-family="Helvetica,sans-Serif" font-size="10.00">/__w/vulpes/vulpes</text>
<text text-anchor="middle" x="769" y="-689" font-family="Helvetica,sans-Serif" font-size="10.00">/vulpes/quadrature/frugal.hpp</text>
</a>
</g>
</g>
<!-- Node1&#45;&gt;Node26 -->
<g id="edge45_Node000001_Node000026" class="edge">
<title>Node1&#45;&gt;Node26</title>
<g id="a_edge45_Node000001_Node000026"><a xlink:title=" ">
<path fill="none" stroke="#63b8ff" d="M328.74,-894.23C419.13,-886.34 573.65,-869.59 624,-844 687.05,-811.95 739.31,-742.14 759.75,-712.15"/>
<polygon fill="#63b8ff" stroke="#63b8ff" points="328.25,-890.76 318.58,-895.11 328.85,-897.74 328.25,-890.76"/>
</a>
</g>
</g>
<!-- Node27 -->
<g id="Node000027" class="node">
<title>Node27</title>
<g id="a_Node000027"><a xlink:href="qfree_8hpp.html" target="_top" xlink:title=" ">
<polygon fill="white" stroke="#666666" points="615,-844 457,-844 457,-814 615,-814 615,-844"/>
<text text-anchor="start" x="465" y="-832" font-family="Helvetica,sans-Serif" font-size="10.00">/__w/vulpes/vulpes</text>
<text text-anchor="middle" x="536" y="-821" font-family="Helvetica,sans-Serif" font-size="10.00">/vulpes/quadrature/qfree.hpp</text>
</a>
</g>
</g>
<!-- Node1&#45;&gt;Node27 -->
<g id="edge46_Node000001_Node000027" class="edge">
<title>Node1&#45;&gt;Node27</title>
<g id="a_edge46_Node000001_Node000027"><a xlink:title=" ">
<path fill="none" stroke="#63b8ff" d="M328.37,-882.47C375.03,-870.68 436.41,-855.17 480.31,-844.08"/>
<polygon fill="#63b8ff" stroke="#63b8ff" points="327.49,-879.09 318.65,-884.93 329.2,-885.87 327.49,-879.09"/>
</a>
</g>
</g>
<!-- Node2&#45;&gt;Node3 -->
<g id="edge2_Node000002_Node000003" class="edge">
<title>Node2&#45;&gt;Node3</title>
<g id="a_edge2_Node000002_Node000003"><a xlink:title=" ">
<path fill="none" stroke="#63b8ff" d="M353,-675.94C368.82,-664.6 388.21,-650.71 402.4,-640.54"/>
<polygon fill="#63b8ff" stroke="#63b8ff" points="350.72,-673.27 344.63,-681.94 354.8,-678.96 350.72,-673.27"/>
</a>
</g>
</g>
<!-- Node4 -->
<g id="Node000004" class="node">
<title>Node4</title>
<g id="a_Node000004"><a xlink:href="integrator__gauss_8hpp.html" target="_top" xlink:title=" ">
<polygon fill="white" stroke="#666666" points="751.5,-118 598.5,-118 598.5,-77 751.5,-77 751.5,-118"/>
<text text-anchor="start" x="606.5" y="-106" font-family="Helvetica,sans-Serif" font-size="10.00">/__w/vulpes/vulpes</text>
<text text-anchor="start" x="606.5" y="-95" font-family="Helvetica,sans-Serif" font-size="10.00">/vulpes/assemble/integrator</text>
<text text-anchor="middle" x="675" y="-84" font-family="Helvetica,sans-Serif" font-size="10.00">_gauss.hpp</text>
</a>
</g>
</g>
<!-- Node3&#45;&gt;Node4 -->
<g id="edge3_Node000003_Node000004" class="edge">
<title>Node3&#45;&gt;Node4</title>
<g id="a_edge3_Node000003_Node000004"><a xlink:title=" ">
<path fill="none" stroke="#63b8ff" d="M405.98,-601.94C388.62,-576.44 361.36,-533.11 346,-492 330.7,-451.05 327,-439.21 327,-395.5 327,-395.5 327,-395.5 327,-250.5 327,-132.98 495.72,-105.43 598.2,-99.53"/>
<polygon fill="#63b8ff" stroke="#63b8ff" points="403.11,-603.94 411.67,-610.18 408.87,-599.96 403.11,-603.94"/>
</a>
</g>
</g>
<!-- Node5 -->
<g id="Node000005" class="node">
<title>Node5</title>
<g id="a_Node000005"><a xlink:href="integrator__qfree_8hpp.html" target="_top" xlink:title=" ">
<polygon fill="white" stroke="#666666" points="437.5,-118 284.5,-118 284.5,-77 437.5,-77 437.5,-118"/>
<text text-anchor="start" x="292.5" y="-106" font-family="Helvetica,sans-Serif" font-size="10.00">/__w/vulpes/vulpes</text>
<text text-anchor="start" x="292.5" y="-95" font-family="Helvetica,sans-Serif" font-size="10.00">/vulpes/assemble/integrator</text>
<text text-anchor="middle" x="361" y="-84" font-family="Helvetica,sans-Serif" font-size="10.00">_qfree.hpp</text>
</a>
</g>
</g>
<!-- Node3&#45;&gt;Node5 -->
<g id="edge4_Node000003_Node000005" class="edge">
<title>Node3&#45;&gt;Node5</title>
<g id="a_edge4_Node000003_Node000005"><a xlink:title=" ">
<path fill="none" stroke="#63b8ff" d="M364.94,-606.41C346.63,-597.87 328,-585.76 316,-569 270.57,-505.55 289,-473.54 289,-395.5 289,-395.5 289,-395.5 289,-250.5 289,-206.3 292.65,-193.23 313,-154 319.86,-140.77 330.48,-128.04 339.98,-118.12"/>
<polygon fill="#63b8ff" stroke="#63b8ff" points="363.59,-609.64 374.16,-610.44 366.39,-603.23 363.59,-609.64"/>
</a>
</g>
</g>
<!-- Node7 -->
<g id="Node000007" class="node">
<title>Node7</title>
<g id="a_Node000007"><a xlink:href="integrator__simplexify_8hpp.html" target="_top" xlink:title=" ">
<polygon fill="white" stroke="#666666" points="994.5,-118 841.5,-118 841.5,-77 994.5,-77 994.5,-118"/>
<text text-anchor="start" x="849.5" y="-106" font-family="Helvetica,sans-Serif" font-size="10.00">/__w/vulpes/vulpes</text>
<text text-anchor="start" x="849.5" y="-95" font-family="Helvetica,sans-Serif" font-size="10.00">/vulpes/assemble/integrator</text>
<text text-anchor="middle" x="918" y="-84" font-family="Helvetica,sans-Serif" font-size="10.00">_simplexify.hpp</text>
</a>
</g>
</g>
<!-- Node3&#45;&gt;Node7 -->
<g id="edge6_Node000003_Node000007" class="edge">
<title>Node3&#45;&gt;Node7</title>
<g id="a_edge6_Node000003_Node000007"><a xlink:title=" ">
<path fill="none" stroke="#63b8ff" d="M498.26,-624.93C701.55,-625.37 1245.04,-621.55 1305,-569 1337.88,-540.19 1324,-516.21 1324,-472.5 1324,-472.5 1324,-472.5 1324,-250.5 1324,-180.97 1112.55,-132.63 994.84,-111.11"/>
<polygon fill="#63b8ff" stroke="#63b8ff" points="498.27,-621.43 488.26,-624.91 498.26,-628.43 498.27,-621.43"/>
</a>
</g>
</g>
<!-- Node8 -->
<g id="Node000008" class="node">
<title>Node8</title>
<g id="a_Node000008"><a xlink:href="dof__handler_8hpp.html" target="_top" xlink:title=" ">
<polygon fill="white" stroke="#666666" points="1005.5,-563.5 848.5,-563.5 848.5,-533.5 1005.5,-533.5 1005.5,-563.5"/>
<text text-anchor="start" x="856.5" y="-551.5" font-family="Helvetica,sans-Serif" font-size="10.00">/__w/vulpes/vulpes</text>
<text text-anchor="middle" x="927" y="-540.5" font-family="Helvetica,sans-Serif" font-size="10.00">/vulpes/dofs/dof_handler.hpp</text>
</a>
</g>
</g>
<!-- Node3&#45;&gt;Node8 -->
<g id="edge8_Node000003_Node000008" class="edge">
<title>Node3&#45;&gt;Node8</title>
<g id="a_edge8_Node000003_Node000008"><a xlink:title=" ">
<path fill="none" stroke="#63b8ff" d="M498.3,-616.33C582.15,-606.9 720.65,-589.95 839,-569 848.09,-567.39 857.67,-565.49 867.02,-563.51"/>
<polygon fill="#63b8ff" stroke="#63b8ff" points="497.9,-612.86 488.35,-617.45 498.68,-619.81 497.9,-612.86"/>
</a>
</g>
</g>
<!-- Node11 -->
<g id="Node000011" class="node">
<title>Node11</title>
<g id="a_Node000011"><a xlink:href="fe__expr__base_8hpp.html" target="_top" xlink:title=" ">
<polygon fill="white" stroke="#666666" points="957.5,-492 816.5,-492 816.5,-451 957.5,-451 957.5,-492"/>
<text text-anchor="start" x="824.5" y="-480" font-family="Helvetica,sans-Serif" font-size="10.00">/__w/vulpes/vulpes</text>
<text text-anchor="start" x="824.5" y="-469" font-family="Helvetica,sans-Serif" font-size="10.00">/vulpes/fe/fe_expressions</text>
<text text-anchor="middle" x="887" y="-458" font-family="Helvetica,sans-Serif" font-size="10.00">/fe_expr_base.hpp</text>
</a>
</g>
</g>
<!-- Node3&#45;&gt;Node11 -->
<g id="edge11_Node000003_Node000011" class="edge">
<title>Node3&#45;&gt;Node11</title>
<g id="a_edge11_Node000003_Node000011"><a xlink:title=" ">
<path fill="none" stroke="#63b8ff" d="M498.41,-614.78C542.15,-606.91 596.91,-593.04 641,-569 664.47,-556.2 661.66,-541.03 685,-528 696.79,-521.42 762.87,-503.8 816.29,-490.16"/>
<polygon fill="#63b8ff" stroke="#63b8ff" points="497.66,-611.36 488.4,-616.51 498.85,-618.26 497.66,-611.36"/>
</a>
</g>
</g>
<!-- Node3&#45;&gt;Node15 -->
<g id="edge34_Node000003_Node000015" class="edge">
<title>Node3&#45;&gt;Node15</title>
<g id="a_edge34_Node000003_Node000015"><a xlink:title=" ">
<path fill="none" stroke="#63b8ff" d="M346.09,-608.22C321.85,-599.87 296.53,-587.43 278,-569 190.75,-482.23 163.37,-326.86 156.21,-272.18"/>
<polygon fill="#63b8ff" stroke="#63b8ff" points="345.08,-611.57 355.67,-611.33 347.24,-604.91 345.08,-611.57"/>
</a>
</g>
</g>
<!-- Node19 -->
<g id="Node000019" class="node">
<title>Node19</title>
<g id="a_Node000019"><a xlink:href="fe__lagrange__simplex_8hpp.html" target="_top" xlink:title=" ">
<polygon fill="white" stroke="#666666" points="594.5,-569 451.5,-569 451.5,-528 594.5,-528 594.5,-569"/>
<text text-anchor="start" x="459.5" y="-557" font-family="Helvetica,sans-Serif" font-size="10.00">/__w/vulpes/vulpes</text>
<text text-anchor="start" x="459.5" y="-546" font-family="Helvetica,sans-Serif" font-size="10.00">/vulpes/fe/fe_spaces</text>
<text text-anchor="middle" x="523" y="-535" font-family="Helvetica,sans-Serif" font-size="10.00">/fe_lagrange_simplex.hpp</text>
</a>
</g>
</g>
<!-- Node3&#45;&gt;Node19 -->
<g id="edge27_Node000003_Node000019" class="edge">
<title>Node3&#45;&gt;Node19</title>
<g id="a_edge27_Node000003_Node000019"><a xlink:title=" ">
<path fill="none" stroke="#63b8ff" d="M449.2,-604.31C463.87,-593.41 481.9,-580.02 496.47,-569.2"/>
<polygon fill="#63b8ff" stroke="#63b8ff" points="446.94,-601.62 441,-610.39 451.11,-607.24 446.94,-601.62"/>
</a>
</g>
</g>
<!-- Node21 -->
<g id="Node000021" class="node">
<title>Node21</title>
<g id="a_Node000021"><a xlink:href="fe__lagrange__tensor_8hpp.html" target="_top" xlink:title=" ">
<polygon fill="white" stroke="#666666" points="489,-492 355,-492 355,-451 489,-451 489,-492"/>
<text text-anchor="start" x="363" y="-480" font-family="Helvetica,sans-Serif" font-size="10.00">/__w/vulpes/vulpes</text>
<text text-anchor="start" x="363" y="-469" font-family="Helvetica,sans-Serif" font-size="10.00">/vulpes/fe/fe_spaces</text>
<text text-anchor="middle" x="422" y="-458" font-family="Helvetica,sans-Serif" font-size="10.00">/fe_lagrange_tensor.hpp</text>
</a>
</g>
</g>
<!-- Node3&#45;&gt;Node21 -->
<g id="edge31_Node000003_Node000021" class="edge">
<title>Node3&#45;&gt;Node21</title>
<g id="a_edge31_Node000003_Node000021"><a xlink:title=" ">
<path fill="none" stroke="#63b8ff" d="M422,-600.46C422,-570.51 422,-519.93 422,-492.18"/>
<polygon fill="#63b8ff" stroke="#63b8ff" points="418.5,-600.47 422,-610.47 425.5,-600.47 418.5,-600.47"/>
</a>
</g>
</g>
<!-- Node22 -->
<g id="Node000022" class="node">
<title>Node22</title>
<g id="a_Node000022"><a xlink:href="fe__modal__simplex_8hpp.html" target="_top" xlink:title=" ">
<polygon fill="white" stroke="#666666" points="798.5,-492 667.5,-492 667.5,-451 798.5,-451 798.5,-492"/>
<text text-anchor="start" x="675.5" y="-480" font-family="Helvetica,sans-Serif" font-size="10.00">/__w/vulpes/vulpes</text>
<text text-anchor="start" x="675.5" y="-469" font-family="Helvetica,sans-Serif" font-size="10.00">/vulpes/fe/fe_spaces</text>
<text text-anchor="middle" x="733" y="-458" font-family="Helvetica,sans-Serif" font-size="10.00">/fe_modal_simplex.hpp</text>
</a>
</g>
</g>
<!-- Node3&#45;&gt;Node22 -->
<g id="edge32_Node000003_Node000022" class="edge">
<title>Node3&#45;&gt;Node22</title>
<g id="a_edge32_Node000003_Node000022"><a xlink:title=" ">
<path fill="none" stroke="#63b8ff" d="M498.09,-608.92C531.86,-600.12 571.27,-587.16 604,-569 628.24,-555.55 629.04,-544.91 651,-528 667.34,-515.41 686.38,-502.43 702,-492.19"/>
<polygon fill="#63b8ff" stroke="#63b8ff" points="497.1,-605.56 488.27,-611.41 498.82,-612.35 497.1,-605.56"/>
</a>
</g>
</g>
<!-- Node23 -->
<g id="Node000023" class="node">
<title>Node23</title>
<g id="a_Node000023"><a xlink:href="fe__modal__tensor_8hpp.html" target="_top" xlink:title=" ">
<polygon fill="white" stroke="#666666" points="226,-569 104,-569 104,-528 226,-528 226,-569"/>
<text text-anchor="start" x="112" y="-557" font-family="Helvetica,sans-Serif" font-size="10.00">/__w/vulpes/vulpes</text>
<text text-anchor="start" x="112" y="-546" font-family="Helvetica,sans-Serif" font-size="10.00">/vulpes/fe/fe_spaces</text>
<text text-anchor="middle" x="165" y="-535" font-family="Helvetica,sans-Serif" font-size="10.00">/fe_modal_tensor.hpp</text>
</a>
</g>
</g>
<!-- Node3&#45;&gt;Node23 -->
<g id="edge33_Node000003_Node000023" class="edge">
<title>Node3&#45;&gt;Node23</title>
<g id="a_edge33_Node000003_Node000023"><a xlink:title=" ">
<path fill="none" stroke="#63b8ff" d="M364.12,-607.61C323.12,-595.64 268.21,-579.62 226.44,-567.43"/>
<polygon fill="#63b8ff" stroke="#63b8ff" points="363.38,-611.04 373.96,-610.48 365.34,-604.32 363.38,-611.04"/>
</a>
</g>
</g>
<!-- Node24 -->
<g id="Node000024" class="node">
<title>Node24</title>
<g id="a_Node000024"><a xlink:href="fe__values_8hpp.html" target="_top" xlink:title=" ">
<polygon fill="white" stroke="#666666" points="830,-563.5 694,-563.5 694,-533.5 830,-533.5 830,-563.5"/>
<text text-anchor="start" x="702" y="-551.5" font-family="Helvetica,sans-Serif" font-size="10.00">/__w/vulpes/vulpes</text>
<text text-anchor="middle" x="762" y="-540.5" font-family="Helvetica,sans-Serif" font-size="10.00">/vulpes/fe/fe_values.hpp</text>
</a>
</g>
</g>
<!-- Node3&#45;&gt;Node24 -->
<g id="edge35_Node000003_Node000024" class="edge">
<title>Node3&#45;&gt;Node24</title>
<g id="a_edge35_Node000003_Node000024"><a xlink:title=" ">
<path fill="none" stroke="#63b8ff" d="M498.09,-608.44C549.28,-597.55 618.26,-582.69 679,-569 686.65,-567.27 694.69,-565.43 702.64,-563.58"/>
<polygon fill="#63b8ff" stroke="#63b8ff" points="497.15,-605.07 488.1,-610.57 498.61,-611.91 497.15,-605.07"/>
</a>
</g>
</g>
<!-- Node6 -->
<g id="Node000006" class="node">
<title>Node6</title>
<g id="a_Node000006"><a xlink:href="integrator__vem_8hpp.html" target="_top" xlink:title=" ">
<polygon fill="white" stroke="#666666" points="608.5,-41 455.5,-41 455.5,0 608.5,0 608.5,-41"/>
<text text-anchor="start" x="463.5" y="-29" font-family="Helvetica,sans-Serif" font-size="10.00">/__w/vulpes/vulpes</text>
<text text-anchor="start" x="463.5" y="-18" font-family="Helvetica,sans-Serif" font-size="10.00">/vulpes/assemble/integrator</text>
<text text-anchor="middle" x="532" y="-7" font-family="Helvetica,sans-Serif" font-size="10.00">_vem.hpp</text>
</a>
</g>
</g>
<!-- Node5&#45;&gt;Node6 -->
<g id="edge5_Node000005_Node000006" class="edge">
<title>Node5&#45;&gt;Node6</title>
<g id="a_edge5_Node000005_Node000006"><a xlink:title=" ">
<path fill="none" stroke="#63b8ff" d="M414.9,-72.86C438.25,-62.62 465.25,-50.77 487.44,-41.04"/>
<polygon fill="#63b8ff" stroke="#63b8ff" points="413.23,-69.77 405.48,-76.99 416.05,-76.18 413.23,-69.77"/>
</a>
</g>
</g>
<!-- Node7&#45;&gt;Node6 -->
<g id="edge7_Node000007_Node000006" class="edge">
<title>Node7&#45;&gt;Node6</title>
<g id="a_edge7_Node000007_Node000006"><a xlink:title=" ">
<path fill="none" stroke="#63b8ff" d="M831.18,-79.63C764.31,-66.64 672.74,-48.85 608.58,-36.38"/>
<polygon fill="#63b8ff" stroke="#63b8ff" points="830.79,-83.12 841.28,-81.59 832.13,-76.25 830.79,-83.12"/>
</a>
</g>
</g>
<!-- Node9 -->
<g id="Node000009" class="node">
<title>Node9</title>
<g id="a_Node000009"><a xlink:href="dg__utils_8hpp.html" target="_top" xlink:title=" ">
<polygon fill="white" stroke="#666666" points="1044.5,-272 927.5,-272 927.5,-231 1044.5,-231 1044.5,-272"/>
<text text-anchor="start" x="935.5" y="-260" font-family="Helvetica,sans-Serif" font-size="10.00">/__w/vulpes/vulpes</text>
<text text-anchor="start" x="935.5" y="-249" font-family="Helvetica,sans-Serif" font-size="10.00">/vulpes/assemble/dg</text>
<text text-anchor="middle" x="986" y="-238" font-family="Helvetica,sans-Serif" font-size="10.00">_utils.hpp</text>
</a>
</g>
</g>
<!-- Node8&#45;&gt;Node9 -->
<g id="edge9_Node000008_Node000009" class="edge">
<title>Node8&#45;&gt;Node9</title>
<g id="a_edge9_Node000008_Node000009"><a xlink:title=" ">
<path fill="none" stroke="#63b8ff" d="M991.74,-529.45C1009.84,-521.09 1027.44,-509.09 1038,-492 1082.51,-419.97 1026.4,-315.2 999.21,-272.12"/>
<polygon fill="#63b8ff" stroke="#63b8ff" points="990.09,-526.35 982.26,-533.49 992.83,-532.79 990.09,-526.35"/>
</a>
</g>
</g>
<!-- Node10 -->
<g id="Node000010" class="node">
<title>Node10</title>
<g id="a_Node000010"><a xlink:href="project__solution_8hpp.html" target="_top" xlink:title=" ">
<polygon fill="white" stroke="#666666" points="1294,-492 1166,-492 1166,-451 1294,-451 1294,-492"/>
<text text-anchor="start" x="1174" y="-480" font-family="Helvetica,sans-Serif" font-size="10.00">/__w/vulpes/vulpes</text>
<text text-anchor="start" x="1174" y="-469" font-family="Helvetica,sans-Serif" font-size="10.00">/vulpes/postprocessing</text>
<text text-anchor="middle" x="1230" y="-458" font-family="Helvetica,sans-Serif" font-size="10.00">/project_solution.hpp</text>
</a>
</g>
</g>
<!-- Node8&#45;&gt;Node10 -->
<g id="edge10_Node000008_Node000010" class="edge">
<title>Node8&#45;&gt;Node10</title>
<g id="a_edge10_Node000008_Node000010"><a xlink:title=" ">
<path fill="none" stroke="#63b8ff" d="M993.61,-531.01C1044.83,-518.33 1115.16,-500.93 1165.77,-488.4"/>
<polygon fill="#63b8ff" stroke="#63b8ff" points="992.5,-527.68 983.64,-533.48 994.18,-534.48 992.5,-527.68"/>
</a>
</g>
</g>
<!-- Node12 -->
<g id="Node000012" class="node">
<title>Node12</title>
<g id="a_Node000012"><a xlink:href="fe__expression_8hpp.html" target="_top" xlink:title=" ">
<polygon fill="white" stroke="#666666" points="806.5,-338 649.5,-338 649.5,-308 806.5,-308 806.5,-338"/>
<text text-anchor="start" x="657.5" y="-326" font-family="Helvetica,sans-Serif" font-size="10.00">/__w/vulpes/vulpes</text>
<text text-anchor="middle" x="728" y="-315" font-family="Helvetica,sans-Serif" font-size="10.00">/vulpes/fe/fe_expression.hpp</text>
</a>
</g>
</g>
<!-- Node11&#45;&gt;Node12 -->
<g id="edge12_Node000011_Node000012" class="edge">
<title>Node11&#45;&gt;Node12</title>
<g id="a_edge12_Node000011_Node000012"><a xlink:title=" ">
<path fill="none" stroke="#63b8ff" d="M806.47,-451.11C722.18,-440.69 535.48,-465.92 490,-415 439.76,-358.75 562.01,-337.06 649.28,-328.85"/>
<polygon fill="#63b8ff" stroke="#63b8ff" points="806.05,-454.59 816.46,-452.61 807.09,-447.67 806.05,-454.59"/>
</a>
</g>
</g>
<!-- Node16 -->
<g id="Node000016" class="node">
<title>Node16</title>
<g id="a_Node000016"><a xlink:href="fe__expr__basis_8hpp.html" target="_top" xlink:title=" ">
<polygon fill="white" stroke="#666666" points="639.5,-415 498.5,-415 498.5,-374 639.5,-374 639.5,-415"/>
<text text-anchor="start" x="506.5" y="-403" font-family="Helvetica,sans-Serif" font-size="10.00">/__w/vulpes/vulpes</text>
<text text-anchor="start" x="506.5" y="-392" font-family="Helvetica,sans-Serif" font-size="10.00">/vulpes/fe/fe_expressions</text>
<text text-anchor="middle" x="569" y="-381" font-family="Helvetica,sans-Serif" font-size="10.00">/fe_expr_basis.hpp</text>
</a>
</g>
</g>
<!-- Node11&#45;&gt;Node16 -->
<g id="edge21_Node000011_Node000016" class="edge">
<title>Node11&#45;&gt;Node16</title>
<g id="a_edge21_Node000011_Node000016"><a xlink:title=" ">
<path fill="none" stroke="#63b8ff" d="M806.54,-450.68C735.85,-434.06 716.5,-430.87 649,-415 645.94,-414.28 642.81,-413.54 639.66,-412.79"/>
<polygon fill="#63b8ff" stroke="#63b8ff" points="805.84,-454.11 816.38,-453 807.45,-447.29 805.84,-454.11"/>
</a>
</g>
</g>
<!-- Node17 -->
<g id="Node000017" class="node">
<title>Node17</title>
<g id="a_Node000017"><a xlink:href="fe__expr__func_8hpp.html" target="_top" xlink:title=" ">
<polygon fill="white" stroke="#666666" points="798.5,-415 657.5,-415 657.5,-374 798.5,-374 798.5,-415"/>
<text text-anchor="start" x="665.5" y="-403" font-family="Helvetica,sans-Serif" font-size="10.00">/__w/vulpes/vulpes</text>
<text text-anchor="start" x="665.5" y="-392" font-family="Helvetica,sans-Serif" font-size="10.00">/vulpes/fe/fe_expressions</text>
<text text-anchor="middle" x="728" y="-381" font-family="Helvetica,sans-Serif" font-size="10.00">/fe_expr_func.hpp</text>
</a>
</g>
</g>
<!-- Node11&#45;&gt;Node17 -->
<g id="edge23_Node000011_Node000017" class="edge">
<title>Node11&#45;&gt;Node17</title>
<g id="a_edge23_Node000011_Node000017"><a xlink:title=" ">
<path fill="none" stroke="#63b8ff" d="M836.59,-446.72C814.95,-436.51 789.97,-424.73 769.43,-415.04"/>
<polygon fill="#63b8ff" stroke="#63b8ff" points="835.1,-449.89 845.64,-450.99 838.09,-443.56 835.1,-449.89"/>
</a>
</g>
</g>
<!-- Node18 -->
<g id="Node000018" class="node">
<title>Node18</title>
<g id="a_Node000018"><a xlink:href="fe__expr__op_8hpp.html" target="_top" xlink:title=" ">
<polygon fill="white" stroke="#666666" points="957.5,-415 816.5,-415 816.5,-374 957.5,-374 957.5,-415"/>
<text text-anchor="start" x="824.5" y="-403" font-family="Helvetica,sans-Serif" font-size="10.00">/__w/vulpes/vulpes</text>
<text text-anchor="start" x="824.5" y="-392" font-family="Helvetica,sans-Serif" font-size="10.00">/vulpes/fe/fe_expressions</text>
<text text-anchor="middle" x="887" y="-381" font-family="Helvetica,sans-Serif" font-size="10.00">/fe_expr_op.hpp</text>
</a>
</g>
</g>
<!-- Node11&#45;&gt;Node18 -->
<g id="edge25_Node000011_Node000018" class="edge">
<title>Node11&#45;&gt;Node18</title>
<g id="a_edge25_Node000011_Node000018"><a xlink:title=" ">
<path fill="none" stroke="#63b8ff" d="M887,-440.69C887,-432.08 887,-422.9 887,-415.07"/>
<polygon fill="#63b8ff" stroke="#63b8ff" points="883.5,-440.79 887,-450.79 890.5,-440.79 883.5,-440.79"/>
</a>
</g>
</g>
<!-- Node12&#45;&gt;Node9 -->
<g id="edge13_Node000012_Node000009" class="edge">
<title>Node12&#45;&gt;Node9</title>
<g id="a_edge13_Node000012_Node000009"><a xlink:title=" ">
<path fill="none" stroke="#63b8ff" d="M793.41,-305.35C830.35,-295.82 877.32,-283.52 919,-272 921.69,-271.26 924.43,-270.49 927.2,-269.71"/>
<polygon fill="#63b8ff" stroke="#63b8ff" points="792.08,-302.07 783.27,-307.95 793.83,-308.85 792.08,-302.07"/>
</a>
</g>
</g>
<!-- Node13 -->
<g id="Node000013" class="node">
<title>Node13</title>
<g id="a_Node000013"><a xlink:href="integrator__base_8hpp.html" target="_top" xlink:title=" ">
<polygon fill="white" stroke="#666666" points="909.5,-195 756.5,-195 756.5,-154 909.5,-154 909.5,-195"/>
<text text-anchor="start" x="764.5" y="-183" font-family="Helvetica,sans-Serif" font-size="10.00">/__w/vulpes/vulpes</text>
<text text-anchor="start" x="764.5" y="-172" font-family="Helvetica,sans-Serif" font-size="10.00">/vulpes/assemble/integrator</text>
<text text-anchor="middle" x="833" y="-161" font-family="Helvetica,sans-Serif" font-size="10.00">_base.hpp</text>
</a>
</g>
</g>
<!-- Node12&#45;&gt;Node13 -->
<g id="edge14_Node000012_Node000013" class="edge">
<title>Node12&#45;&gt;Node13</title>
<g id="a_edge14_Node000012_Node000013"><a xlink:title=" ">
<path fill="none" stroke="#63b8ff" d="M728.42,-297.52C729.85,-277.97 734.41,-250.67 748,-231 758.42,-215.92 774.4,-203.93 789.7,-195.01"/>
<polygon fill="#63b8ff" stroke="#63b8ff" points="724.91,-297.59 727.9,-307.76 731.9,-297.95 724.91,-297.59"/>
</a>
</g>
</g>
<!-- Node14 -->
<g id="Node000014" class="node">
<title>Node14</title>
<g id="a_Node000014"><a xlink:href="integrator__traits_8hpp.html" target="_top" xlink:title=" ">
<polygon fill="white" stroke="#666666" points="909.5,-272 756.5,-272 756.5,-231 909.5,-231 909.5,-272"/>
<text text-anchor="start" x="764.5" y="-260" font-family="Helvetica,sans-Serif" font-size="10.00">/__w/vulpes/vulpes</text>
<text text-anchor="start" x="764.5" y="-249" font-family="Helvetica,sans-Serif" font-size="10.00">/vulpes/assemble/integrator</text>
<text text-anchor="middle" x="833" y="-238" font-family="Helvetica,sans-Serif" font-size="10.00">_traits.hpp</text>
</a>
</g>
</g>
<!-- Node12&#45;&gt;Node14 -->
<g id="edge18_Node000012_Node000014" class="edge">
<title>Node12&#45;&gt;Node14</title>
<g id="a_edge18_Node000012_Node000014"><a xlink:title=" ">
<path fill="none" stroke="#63b8ff" d="M757.74,-302.31C772.05,-292.84 789.15,-281.53 803.43,-272.07"/>
<polygon fill="#63b8ff" stroke="#63b8ff" points="755.66,-299.5 749.25,-307.94 759.52,-305.33 755.66,-299.5"/>
</a>
</g>
</g>
<!-- Node12&#45;&gt;Node15 -->
<g id="edge20_Node000012_Node000015" class="edge">
<title>Node12&#45;&gt;Node15</title>
<g id="a_edge20_Node000012_Node000015"><a xlink:title=" ">
<path fill="none" stroke="#63b8ff" d="M639.23,-311.25C520.37,-296.86 312.84,-271.73 212.13,-259.54"/>
<polygon fill="#63b8ff" stroke="#63b8ff" points="639.04,-314.75 649.39,-312.48 639.88,-307.81 639.04,-314.75"/>
</a>
</g>
</g>
<!-- Node13&#45;&gt;Node4 -->
<g id="edge15_Node000013_Node000004" class="edge">
<title>Node13&#45;&gt;Node4</title>
<g id="a_edge15_Node000013_Node000004"><a xlink:title=" ">
<path fill="none" stroke="#63b8ff" d="M782.62,-149.59C761.18,-139.41 736.49,-127.69 716.17,-118.04"/>
<polygon fill="#63b8ff" stroke="#63b8ff" points="781.37,-152.86 791.9,-153.99 784.37,-146.54 781.37,-152.86"/>
</a>
</g>
</g>
<!-- Node13&#45;&gt;Node5 -->
<g id="edge16_Node000013_Node000005" class="edge">
<title>Node13&#45;&gt;Node5</title>
<g id="a_edge16_Node000013_Node000005"><a xlink:title=" ">
<path fill="none" stroke="#63b8ff" d="M746.37,-159.74C657.98,-145.69 522.11,-124.1 437.55,-110.66"/>
<polygon fill="#63b8ff" stroke="#63b8ff" points="745.95,-163.21 756.38,-161.32 747.05,-156.3 745.95,-163.21"/>
</a>
</g>
</g>
<!-- Node13&#45;&gt;Node7 -->
<g id="edge17_Node000013_Node000007" class="edge">
<title>Node13&#45;&gt;Node7</title>
<g id="a_edge17_Node000013_Node000007"><a xlink:title=" ">
<path fill="none" stroke="#63b8ff" d="M862.95,-147.07C873.77,-137.52 885.78,-126.93 895.82,-118.07"/>
<polygon fill="#63b8ff" stroke="#63b8ff" points="860.52,-144.55 855.33,-153.79 865.15,-149.8 860.52,-144.55"/>
</a>
</g>
</g>
<!-- Node14&#45;&gt;Node13 -->
<g id="edge19_Node000014_Node000013" class="edge">
<title>Node14&#45;&gt;Node13</title>
<g id="a_edge19_Node000014_Node000013"><a xlink:title=" ">
<path fill="none" stroke="#63b8ff" d="M833,-220.69C833,-212.08 833,-202.9 833,-195.07"/>
<polygon fill="#63b8ff" stroke="#63b8ff" points="829.5,-220.79 833,-230.79 836.5,-220.79 829.5,-220.79"/>
</a>
</g>
</g>
<!-- Node16&#45;&gt;Node12 -->
<g id="edge22_Node000016_Node000012" class="edge">
<title>Node16&#45;&gt;Node12</title>
<g id="a_edge22_Node000016_Node000012"><a xlink:title=" ">
<path fill="none" stroke="#63b8ff" d="M623.12,-369.85C647.25,-359.3 674.88,-347.22 695.71,-338.11"/>
<polygon fill="#63b8ff" stroke="#63b8ff" points="621.47,-366.74 613.71,-373.96 624.28,-373.16 621.47,-366.74"/>
</a>
</g>
</g>
<!-- Node17&#45;&gt;Node12 -->
<g id="edge24_Node000017_Node000012" class="edge">
<title>Node17&#45;&gt;Node12</title>
<g id="a_edge24_Node000017_Node000012"><a xlink:title=" ">
<path fill="none" stroke="#63b8ff" d="M728,-363.66C728,-354.76 728,-345.42 728,-338.04"/>
<polygon fill="#63b8ff" stroke="#63b8ff" points="724.5,-363.77 728,-373.77 731.5,-363.77 724.5,-363.77"/>
</a>
</g>
</g>
<!-- Node18&#45;&gt;Node12 -->
<g id="edge26_Node000018_Node000012" class="edge">
<title>Node18&#45;&gt;Node12</title>
<g id="a_edge26_Node000018_Node000012"><a xlink:title=" ">
<path fill="none" stroke="#63b8ff" d="M832.88,-369.85C808.75,-359.3 781.12,-347.22 760.29,-338.11"/>
<polygon fill="#63b8ff" stroke="#63b8ff" points="831.72,-373.16 842.29,-373.96 834.53,-366.74 831.72,-373.16"/>
</a>
</g>
</g>
<!-- Node20 -->
<g id="Node000020" class="node">
<title>Node20</title>
<g id="a_Node000020"><a xlink:href="fe__lagrange__simplex_8cpp.html" target="_top" xlink:title=" ">
<polygon fill="white" stroke="#666666" points="649,-492 507,-492 507,-451 649,-451 649,-492"/>
<text text-anchor="start" x="515" y="-480" font-family="Helvetica,sans-Serif" font-size="10.00">/__w/vulpes/vulpes</text>
<text text-anchor="start" x="515" y="-469" font-family="Helvetica,sans-Serif" font-size="10.00">/vulpes/fe/fe_spaces</text>
<text text-anchor="middle" x="578" y="-458" font-family="Helvetica,sans-Serif" font-size="10.00">/fe_lagrange_simplex.cpp</text>
</a>
</g>
</g>
<!-- Node19&#45;&gt;Node20 -->
<g id="edge28_Node000019_Node000020" class="edge">
<title>Node19&#45;&gt;Node20</title>
<g id="a_edge28_Node000019_Node000020"><a xlink:title=" ">
<path fill="none" stroke="#63b8ff" d="M543.41,-519.67C550.13,-510.5 557.47,-500.5 563.65,-492.07"/>
<polygon fill="#63b8ff" stroke="#63b8ff" points="540.54,-517.66 537.45,-527.79 546.19,-521.8 540.54,-517.66"/>
</a>
</g>
</g>
<!-- Node19&#45;&gt;Node21 -->
<g id="edge29_Node000019_Node000021" class="edge">
<title>Node19&#45;&gt;Node21</title>
<g id="a_edge29_Node000019_Node000021"><a xlink:title=" ">
<path fill="none" stroke="#63b8ff" d="M488.41,-521.82C475.35,-512.11 460.7,-501.24 448.49,-492.17"/>
<polygon fill="#63b8ff" stroke="#63b8ff" points="486.61,-524.84 496.73,-527.99 490.79,-519.22 486.61,-524.84"/>
</a>
</g>
</g>
<!-- Node19&#45;&gt;Node22 -->
<g id="edge30_Node000019_Node000022" class="edge">
<title>Node19&#45;&gt;Node22</title>
<g id="a_edge30_Node000019_Node000022"><a xlink:title=" ">
<path fill="none" stroke="#63b8ff" d="M587.29,-524.54C616.39,-514.15 650.43,-501.99 678.28,-492.04"/>
<polygon fill="#63b8ff" stroke="#63b8ff" points="585.87,-521.33 577.63,-527.99 588.22,-527.92 585.87,-521.33"/>
</a>
</g>
</g>
<!-- Node24&#45;&gt;Node9 -->
<g id="edge36_Node000024_Node000009" class="edge">
<title>Node24&#45;&gt;Node9</title>
<g id="a_edge36_Node000024_Node000009"><a xlink:title=" ">
<path fill="none" stroke="#63b8ff" d="M826.56,-530.96C885.77,-515.64 964.65,-494.83 967,-492 1020.41,-427.65 1001.81,-317.19 991.24,-272.32"/>
<polygon fill="#63b8ff" stroke="#63b8ff" points="825.68,-527.57 816.87,-533.46 827.43,-534.35 825.68,-527.57"/>
</a>
</g>
</g>
<!-- Node24&#45;&gt;Node11 -->
<g id="edge39_Node000024_Node000011" class="edge">
<title>Node24&#45;&gt;Node11</title>
<g id="a_edge39_Node000024_Node000011"><a xlink:title=" ">
<path fill="none" stroke="#63b8ff" d="M794.14,-528.22C812.56,-517.16 835.63,-503.32 854.16,-492.2"/>
<polygon fill="#63b8ff" stroke="#63b8ff" points="792.29,-525.25 785.51,-533.39 795.89,-531.25 792.29,-525.25"/>
</a>
</g>
</g>
<!-- Node24&#45;&gt;Node13 -->
<g id="edge37_Node000024_Node000013" class="edge">
<title>Node24&#45;&gt;Node13</title>
<g id="a_edge37_Node000024_Node000013"><a xlink:title=" ">
<path fill="none" stroke="#63b8ff" d="M827.61,-531.05C831.8,-530.01 835.96,-528.99 840,-528 906.59,-511.69 940.38,-539.31 990,-492 1063.7,-421.73 1039.63,-372.81 1054,-272 1056.57,-253.96 1065.21,-245.37 1054,-231 1036.15,-208.11 966.14,-193.23 909.64,-184.69"/>
<polygon fill="#63b8ff" stroke="#63b8ff" points="826.66,-527.68 817.8,-533.48 828.35,-534.47 826.66,-527.68"/>
</a>
</g>
</g>
<!-- Node24&#45;&gt;Node14 -->
<g id="edge38_Node000024_Node000014" class="edge">
<title>Node24&#45;&gt;Node14</title>
<g id="a_edge38_Node000024_Node000014"><a xlink:title=" ">
<path fill="none" stroke="#63b8ff" d="M826.61,-531C885.86,-515.71 964.77,-494.92 967,-492 998.87,-450.35 988.25,-421.95 967,-374 946.83,-328.49 900.27,-292.76 867.73,-272.15"/>
<polygon fill="#63b8ff" stroke="#63b8ff" points="825.73,-527.61 816.92,-533.49 827.47,-534.39 825.73,-527.61"/>
</a>
</g>
</g>
<!-- Node25&#45;&gt;Node15 -->
<g id="edge44_Node000025_Node000015" class="edge">
<title>Node25&#45;&gt;Node15</title>
<g id="a_edge44_Node000025_Node000015"><a xlink:title=" ">
<path fill="none" stroke="#63b8ff" d="M116.07,-597.54C108.11,-589.14 100.3,-579.35 95,-569 75.06,-530.1 76,-516.21 76,-472.5 76,-472.5 76,-472.5 76,-393.5 76,-345.1 111.62,-297.73 134.72,-272.09"/>
<polygon fill="#63b8ff" stroke="#63b8ff" points="113.81,-600.23 123.36,-604.83 118.77,-595.29 113.81,-600.23"/>
</a>
</g>
</g>
<!-- Node25&#45;&gt;Node23 -->
<g id="edge43_Node000025_Node000023" class="edge">
<title>Node25&#45;&gt;Node23</title>
<g id="a_edge43_Node000025_Node000023"><a xlink:title=" ">
<path fill="none" stroke="#63b8ff" d="M154.09,-594.98C156.17,-586.28 158.4,-576.98 160.3,-569.07"/>
<polygon fill="#63b8ff" stroke="#63b8ff" points="150.66,-594.25 151.73,-604.79 157.47,-595.89 150.66,-594.25"/>
</a>
</g>
</g>
<!-- Node27&#45;&gt;Node5 -->
<g id="edge47_Node000027_Node000005" class="edge">
<title>Node27&#45;&gt;Node5</title>
<g id="a_edge47_Node000027_Node000005"><a xlink:title=" ">
<path fill="none" stroke="#63b8ff" d="M446.82,-821.35C337.9,-807.95 157.5,-767.59 71,-646 17.5,-570.8 31.39,-304.65 87,-231 135,-167.43 221.48,-132.78 284.48,-115.04"/>
<polygon fill="#63b8ff" stroke="#63b8ff" points="446.47,-824.83 456.81,-822.53 447.29,-817.88 446.47,-824.83"/>
</a>
</g>
</g>
<!-- Node27&#45;&gt;Node26 -->
<g id="edge63_Node000027_Node000026" class="edge">
<title>Node27&#45;&gt;Node26</title>
<g id="a_edge63_Node000027_Node000026"><a xlink:title=" ">
<path fill="none" stroke="#63b8ff" d="M570.32,-808.85C617.59,-782.48 701.66,-735.57 743.65,-712.14"/>
<polygon fill="#63b8ff" stroke="#63b8ff" points="568.41,-805.91 561.38,-813.84 571.82,-812.02 568.41,-805.91"/>
</a>
</g>
</g>
<!-- Node28 -->
<g id="Node000028" class="node">
<title>Node28</title>
<g id="a_Node000028"><a xlink:href="cell_8hpp.html" target="_top" xlink:title=" ">
<polygon fill="white" stroke="#666666" points="607.5,-778 464.5,-778 464.5,-748 607.5,-748 607.5,-778"/>
<text text-anchor="start" x="472.5" y="-766" font-family="Helvetica,sans-Serif" font-size="10.00">/__w/vulpes/vulpes</text>
<text text-anchor="middle" x="536" y="-755" font-family="Helvetica,sans-Serif" font-size="10.00">/vulpes/geometry/cell.hpp</text>
</a>
</g>
</g>
<!-- Node27&#45;&gt;Node28 -->
<g id="edge48_Node000027_Node000028" class="edge">
<title>Node27&#45;&gt;Node28</title>
<g id="a_edge48_Node000027_Node000028"><a xlink:title=" ">
<path fill="none" stroke="#63b8ff" d="M529.43,-803.83C529.02,-795.17 529.31,-785.7 530.29,-778.16"/>
<polygon fill="#63b8ff" stroke="#63b8ff" points="525.95,-804.13 530.28,-813.8 532.92,-803.54 525.95,-804.13"/>
</a>
</g>
</g>
<!-- Node31 -->
<g id="Node000031" class="node">
<title>Node31</title>
<g id="a_Node000031"><a xlink:href="simplexify_8hpp.html" target="_top" xlink:title=" ">
<polygon fill="white" stroke="#666666" points="1423,-640.5 1247,-640.5 1247,-610.5 1423,-610.5 1423,-640.5"/>
<text text-anchor="start" x="1255" y="-628.5" font-family="Helvetica,sans-Serif" font-size="10.00">/__w/vulpes/vulpes</text>
<text text-anchor="middle" x="1335" y="-617.5" font-family="Helvetica,sans-Serif" font-size="10.00">/vulpes/geometry/simplexify.hpp</text>
</a>
</g>
</g>
<!-- Node27&#45;&gt;Node31 -->
<g id="edge58_Node000027_Node000031" class="edge">
<title>Node27&#45;&gt;Node31</title>
<g id="a_edge58_Node000027_Node000031"><a xlink:title=" ">
<path fill="none" stroke="#63b8ff" d="M601.32,-811.53C754.74,-772.84 1135.92,-676.71 1279.29,-640.55"/>
<polygon fill="#63b8ff" stroke="#63b8ff" points="600.39,-808.15 591.55,-813.99 602.1,-814.94 600.39,-808.15"/>
</a>
</g>
</g>
<!-- Node28&#45;&gt;Node2 -->
<g id="edge52_Node000028_Node000002" class="edge">
<title>Node28&#45;&gt;Node2</title>
<g id="a_edge52_Node000028_Node000002"><a xlink:title=" ">
<path fill="none" stroke="#63b8ff" d="M479.92,-744.99C445.97,-734.69 403.19,-721.72 371.2,-712.01"/>
<polygon fill="#63b8ff" stroke="#63b8ff" points="479.11,-748.4 489.7,-747.95 481.14,-741.7 479.11,-748.4"/>
</a>
</g>
</g>
<!-- Node28&#45;&gt;Node3 -->
<g id="edge53_Node000028_Node000003" class="edge">
<title>Node28&#45;&gt;Node3</title>
<g id="a_edge53_Node000028_Node000003"><a xlink:title=" ">
<path fill="none" stroke="#63b8ff" d="M482.83,-743.51C467.67,-735.89 452.46,-725.59 442,-712 425.82,-690.98 422.4,-659.03 421.86,-640.73"/>
<polygon fill="#63b8ff" stroke="#63b8ff" points="481.68,-746.83 492.22,-747.91 484.65,-740.5 481.68,-746.83"/>
</a>
</g>
</g>
<!-- Node28&#45;&gt;Node24 -->
<g id="edge54_Node000028_Node000024" class="edge">
<title>Node28&#45;&gt;Node24</title>
<g id="a_edge54_Node000028_Node000024"><a xlink:title=" ">
<path fill="none" stroke="#63b8ff" d="M569.7,-742.27C581.45,-734.09 593.95,-723.75 603,-712 634.26,-671.38 610.94,-642.38 646,-605 664.17,-585.62 690.52,-572.27 713.51,-563.52"/>
<polygon fill="#63b8ff" stroke="#63b8ff" points="567.72,-739.38 561.33,-747.83 571.59,-745.21 567.72,-739.38"/>
</a>
</g>
</g>
<!-- Node28&#45;&gt;Node26 -->
<g id="edge56_Node000028_Node000026" class="edge">
<title>Node28&#45;&gt;Node26</title>
<g id="a_edge56_Node000028_Node000026"><a xlink:title=" ">
<path fill="none" stroke="#63b8ff" d="M596.97,-745.25C634.61,-734.91 682.35,-721.8 717.99,-712.01"/>
<polygon fill="#63b8ff" stroke="#63b8ff" points="595.85,-741.93 587.13,-747.95 597.7,-748.68 595.85,-741.93"/>
</a>
</g>
</g>
<!-- Node28&#45;&gt;Node27 -->
<g id="edge57_Node000028_Node000027" class="edge">
<title>Node28&#45;&gt;Node27</title>
<g id="a_edge57_Node000028_Node000027"><a xlink:title=" ">
<path fill="none" stroke="#63b8ff" d="M542.57,-788.13C542.98,-796.78 542.7,-806.26 541.72,-813.8"/>
<polygon fill="#63b8ff" stroke="#63b8ff" points="546.05,-787.83 541.71,-778.16 539.08,-788.43 546.05,-787.83"/>
</a>
</g>
</g>
<!-- Node29 -->
<g id="Node000029" class="node">
<title>Node29</title>
<g id="a_Node000029"><a xlink:href="cell__manager_8hpp.html" target="_top" xlink:title=" ">
<polygon fill="white" stroke="#666666" points="1146,-569 1024,-569 1024,-528 1146,-528 1146,-569"/>
<text text-anchor="start" x="1032" y="-557" font-family="Helvetica,sans-Serif" font-size="10.00">/__w/vulpes/vulpes</text>
<text text-anchor="start" x="1032" y="-546" font-family="Helvetica,sans-Serif" font-size="10.00">/vulpes/assemble/cell</text>
<text text-anchor="middle" x="1085" y="-535" font-family="Helvetica,sans-Serif" font-size="10.00">_manager.hpp</text>
</a>
</g>
</g>
<!-- Node28&#45;&gt;Node29 -->
<g id="edge49_Node000028_Node000029" class="edge">
<title>Node28&#45;&gt;Node29</title>
<g id="a_edge49_Node000028_Node000029"><a xlink:title=" ">
<path fill="none" stroke="#63b8ff" d="M569.51,-742.94C608.45,-720.87 668.81,-686.89 680,-682 742.8,-654.58 926.79,-597.46 1023.69,-567.98"/>
<polygon fill="#63b8ff" stroke="#63b8ff" points="567.57,-740.02 560.6,-748 571.02,-746.11 567.57,-740.02"/>
</a>
</g>
</g>
<!-- Node30 -->
<g id="Node000030" class="node">
<title>Node30</title>
<g id="a_Node000030"><a xlink:href="cell_8cpp.html" target="_top" xlink:title=" ">
<polygon fill="white" stroke="#666666" points="593.5,-712 450.5,-712 450.5,-682 593.5,-682 593.5,-712"/>
<text text-anchor="start" x="458.5" y="-700" font-family="Helvetica,sans-Serif" font-size="10.00">/__w/vulpes/vulpes</text>
<text text-anchor="middle" x="522" y="-689" font-family="Helvetica,sans-Serif" font-size="10.00">/vulpes/geometry/cell.cpp</text>
</a>
</g>
</g>
<!-- Node28&#45;&gt;Node30 -->
<g id="edge55_Node000028_Node000030" class="edge">
<title>Node28&#45;&gt;Node30</title>
<g id="a_edge55_Node000028_Node000030"><a xlink:title=" ">
<path fill="none" stroke="#63b8ff" d="M530.71,-737.83C528.82,-729.17 526.75,-719.7 525.1,-712.16"/>
<polygon fill="#63b8ff" stroke="#63b8ff" points="527.34,-738.78 532.89,-747.8 534.18,-737.28 527.34,-738.78"/>
</a>
</g>
</g>
<!-- Node29&#45;&gt;Node10 -->
<g id="edge51_Node000029_Node000010" class="edge">
<title>Node29&#45;&gt;Node10</title>
<g id="a_edge51_Node000029_Node000010"><a xlink:title=" ">
<path fill="none" stroke="#63b8ff" d="M1131.76,-523.31C1151.32,-513.2 1173.74,-501.6 1192.22,-492.04"/>
<polygon fill="#63b8ff" stroke="#63b8ff" points="1129.99,-520.29 1122.72,-527.99 1133.21,-526.5 1129.99,-520.29"/>
</a>
</g>
</g>
<!-- Node29&#45;&gt;Node13 -->
<g id="edge50_Node000029_Node000013" class="edge">
<title>Node29&#45;&gt;Node13</title>
<g id="a_edge50_Node000029_Node000013"><a xlink:title=" ">
<path fill="none" stroke="#63b8ff" d="M1101.59,-518.62C1117.14,-488.78 1138,-440.39 1138,-395.5 1138,-395.5 1138,-395.5 1138,-322 1138,-220.82 999.92,-189.47 909.57,-179.79"/>
<polygon fill="#63b8ff" stroke="#63b8ff" points="1098.4,-517.15 1096.76,-527.62 1104.57,-520.46 1098.4,-517.15"/>
</a>
</g>
</g>
<!-- Node31&#45;&gt;Node7 -->
<g id="edge59_Node000031_Node000007" class="edge">
<title>Node31&#45;&gt;Node7</title>
<g id="a_edge59_Node000031_Node000007"><a xlink:title=" ">
<path fill="none" stroke="#63b8ff" d="M1433.06,-619.08C1470.41,-612.06 1510.36,-597.68 1537,-569 1566.75,-536.97 1556,-516.21 1556,-472.5 1556,-472.5 1556,-472.5 1556,-250.5 1556,-136.28 1164.16,-107.73 994.64,-100.73"/>
<polygon fill="#63b8ff" stroke="#63b8ff" points="1432.38,-615.65 1423.12,-620.8 1433.57,-622.55 1432.38,-615.65"/>
</a>
</g>
</g>
<!-- Node32 -->
<g id="Node000032" class="node">
<title>Node32</title>
<g id="a_Node000032"><a xlink:href="mesh__exporter_8hpp.html" target="_top" xlink:title=" ">
<polygon fill="white" stroke="#666666" points="1296,-569 1164,-569 1164,-528 1296,-528 1296,-569"/>
<text text-anchor="start" x="1172" y="-557" font-family="Helvetica,sans-Serif" font-size="10.00">/__w/vulpes/vulpes</text>
<text text-anchor="start" x="1172" y="-546" font-family="Helvetica,sans-Serif" font-size="10.00">/vulpes/geometry/mesh</text>
<text text-anchor="middle" x="1230" y="-535" font-family="Helvetica,sans-Serif" font-size="10.00">_exporter.hpp</text>
</a>
</g>
</g>
<!-- Node31&#45;&gt;Node32 -->
<g id="edge60_Node000031_Node000032" class="edge">
<title>Node31&#45;&gt;Node32</title>
<g id="a_edge60_Node000031_Node000032"><a xlink:title=" ">
<path fill="none" stroke="#63b8ff" d="M1306.73,-604.31C1291.48,-593.41 1272.73,-580.02 1257.59,-569.2"/>
<polygon fill="#63b8ff" stroke="#63b8ff" points="1305.08,-607.43 1315.25,-610.39 1309.15,-601.73 1305.08,-607.43"/>
</a>
</g>
</g>
<!-- Node33 -->
<g id="Node000033" class="node">
<title>Node33</title>
<g id="a_Node000033"><a xlink:href="simplexify_8cpp.html" target="_top" xlink:title=" ">
<polygon fill="white" stroke="#666666" points="1527.5,-563.5 1352.5,-563.5 1352.5,-533.5 1527.5,-533.5 1527.5,-563.5"/>
<text text-anchor="start" x="1360.5" y="-551.5" font-family="Helvetica,sans-Serif" font-size="10.00">/__w/vulpes/vulpes</text>
<text text-anchor="middle" x="1440" y="-540.5" font-family="Helvetica,sans-Serif" font-size="10.00">/vulpes/geometry/simplexify.cpp</text>
</a>
</g>
</g>
<!-- Node31&#45;&gt;Node33 -->
<g id="edge62_Node000031_Node000033" class="edge">
<title>Node31&#45;&gt;Node33</title>
<g id="a_edge62_Node000031_Node000033"><a xlink:title=" ">
<path fill="none" stroke="#63b8ff" d="M1363.17,-604.38C1381.23,-591.48 1404.23,-575.05 1420.34,-563.54"/>
<polygon fill="#63b8ff" stroke="#63b8ff" points="1360.85,-601.73 1354.75,-610.39 1364.92,-607.43 1360.85,-601.73"/>
</a>
</g>
</g>
<!-- Node32&#45;&gt;Node10 -->
<g id="edge61_Node000032_Node000010" class="edge">
<title>Node32&#45;&gt;Node10</title>
<g id="a_edge61_Node000032_Node000010"><a xlink:title=" ">
<path fill="none" stroke="#63b8ff" d="M1230,-517.69C1230,-509.08 1230,-499.9 1230,-492.07"/>
<polygon fill="#63b8ff" stroke="#63b8ff" points="1226.5,-517.79 1230,-527.79 1233.5,-517.79 1226.5,-517.79"/>
</a>
</g>
</g>
</g>
</svg>
