<?xml version="1.0" encoding="UTF-8" standalone="no"?>
<!DOCTYPE svg PUBLIC "-//W3C//DTD SVG 1.1//EN"
 "http://www.w3.org/Graphics/SVG/1.1/DTD/svg11.dtd">
<!-- Generated by graphviz version 2.42.4 (0)
 -->
<!-- Title: /__w/vulpes/vulpes/vulpes/utils/mpi_wrappers.hpp Pages: 1 -->
<svg width="1069pt" height="159pt"
 viewBox="0.00 0.00 1068.50 159.00" xmlns="http://www.w3.org/2000/svg" xmlns:xlink="http://www.w3.org/1999/xlink">
<g id="graph0" class="graph" transform="scale(1 1) rotate(0) translate(4 155)">
<title>/__w/vulpes/vulpes/vulpes/utils/mpi_wrappers.hpp</title>
<!-- Node1 -->
<g id="Node000001" class="node">
<title>Node1</title>
<g id="a_Node000001"><a xlink:title=" ">
<polygon fill="#999999" stroke="#666666" points="358.5,-151 189.5,-151 189.5,-121 358.5,-121 358.5,-151"/>
<text text-anchor="start" x="197.5" y="-139" font-family="Helvetica,sans-Serif" font-size="10.00">/__w/vulpes/vulpes</text>
<text text-anchor="middle" x="274" y="-128" font-family="Helvetica,sans-Serif" font-size="10.00">/vulpes/utils/mpi_wrappers.hpp</text>
</a>
</g>
</g>
<!-- Node2 -->
<g id="Node000002" class="node">
<title>Node2</title>
<g id="a_Node000002"><a xlink:title=" ">
<polygon fill="#e0e0e0" stroke="#999999" points="46,-79.5 2,-79.5 2,-60.5 46,-60.5 46,-79.5"/>
<text text-anchor="middle" x="24" y="-67.5" font-family="Helvetica,sans-Serif" font-size="10.00">mpi.h</text>
</a>
</g>
</g>
<!-- Node1&#45;&gt;Node2 -->
<g id="edge1_Node000001_Node000002" class="edge">
<title>Node1&#45;&gt;Node2</title>
<g id="a_edge1_Node000001_Node000002"><a xlink:title=" ">
<path fill="none" stroke="#63b8ff" d="M195.16,-120.97C153.01,-112.48 100.56,-100.32 55,-85 53.6,-84.53 52.18,-84.02 50.75,-83.48"/>
<polygon fill="#63b8ff" stroke="#63b8ff" points="52.04,-80.22 41.46,-79.62 49.35,-86.69 52.04,-80.22"/>
</a>
</g>
</g>
<!-- Node3 -->
<g id="Node000003" class="node">
<title>Node3</title>
<g id="a_Node000003"><a xlink:title=" ">
<polygon fill="#e0e0e0" stroke="#999999" points="116,-79.5 64,-79.5 64,-60.5 116,-60.5 116,-79.5"/>
<text text-anchor="middle" x="90" y="-67.5" font-family="Helvetica,sans-Serif" font-size="10.00">petsc.h</text>
</a>
</g>
</g>
<!-- Node1&#45;&gt;Node3 -->
<g id="edge2_Node000001_Node000003" class="edge">
<title>Node1&#45;&gt;Node3</title>
<g id="a_edge2_Node000001_Node000003"><a xlink:title=" ">
<path fill="none" stroke="#63b8ff" d="M233.34,-120.91C204.49,-110.91 164.86,-97.15 130,-85 128.12,-84.35 126.2,-83.67 124.26,-83"/>
<polygon fill="#63b8ff" stroke="#63b8ff" points="125.13,-79.59 114.54,-79.6 122.82,-86.2 125.13,-79.59"/>
</a>
</g>
</g>
<!-- Node4 -->
<g id="Node000004" class="node">
<title>Node4</title>
<g id="a_Node000004"><a xlink:title=" ">
<polygon fill="#e0e0e0" stroke="#999999" points="52,-19 0,-19 0,0 52,0 52,-19"/>
<text text-anchor="middle" x="26" y="-7" font-family="Helvetica,sans-Serif" font-size="10.00">cassert</text>
</a>
</g>
</g>
<!-- Node1&#45;&gt;Node4 -->
<g id="edge3_Node000001_Node000004" class="edge">
<title>Node1&#45;&gt;Node4</title>
<g id="a_edge3_Node000001_Node000004"><a xlink:title=" ">
<path fill="none" stroke="#63b8ff" d="M236.87,-120.95C214.74,-111.93 186.48,-99.26 163,-85 144.61,-73.83 143.4,-66.16 125,-55 103.91,-42.21 78.51,-30.86 58.72,-22.83"/>
<polygon fill="#63b8ff" stroke="#63b8ff" points="59.8,-19.49 49.21,-19.05 57.21,-26 59.8,-19.49"/>
</a>
</g>
</g>
<!-- Node5 -->
<g id="Node000005" class="node">
<title>Node5</title>
<g id="a_Node000005"><a xlink:title=" ">
<polygon fill="#e0e0e0" stroke="#999999" points="545,-19 485,-19 485,0 545,0 545,-19"/>
<text text-anchor="middle" x="515" y="-7" font-family="Helvetica,sans-Serif" font-size="10.00">iostream</text>
</a>
</g>
</g>
<!-- Node1&#45;&gt;Node5 -->
<g id="edge4_Node000001_Node000005" class="edge">
<title>Node1&#45;&gt;Node5</title>
<g id="a_edge4_Node000001_Node000005"><a xlink:title=" ">
<path fill="none" stroke="#63b8ff" d="M339.62,-120.93C369.07,-112.96 403.52,-101.27 432,-85 459.2,-69.46 485.18,-43.8 500.61,-27.03"/>
<polygon fill="#63b8ff" stroke="#63b8ff" points="503.59,-28.94 507.66,-19.16 498.38,-24.27 503.59,-28.94"/>
</a>
</g>
</g>
<!-- Node6 -->
<g id="Node000006" class="node">
<title>Node6</title>
<g id="a_Node000006"><a xlink:title=" ">
<polygon fill="#e0e0e0" stroke="#999999" points="321.5,-19 274.5,-19 274.5,0 321.5,0 321.5,-19"/>
<text text-anchor="middle" x="298" y="-7" font-family="Helvetica,sans-Serif" font-size="10.00">vector</text>
</a>
</g>
</g>
<!-- Node1&#45;&gt;Node6 -->
<g id="edge5_Node000001_Node000006" class="edge">
<title>Node1&#45;&gt;Node6</title>
<g id="a_edge5_Node000001_Node000006"><a xlink:title=" ">
<path fill="none" stroke="#63b8ff" d="M282.96,-120.76C288.5,-111.08 295.09,-97.77 298,-85 302.21,-66.51 301.6,-44.76 300.3,-29.55"/>
<polygon fill="#63b8ff" stroke="#63b8ff" points="303.76,-28.95 299.25,-19.36 296.8,-29.66 303.76,-28.95"/>
</a>
</g>
</g>
<!-- Node7 -->
<g id="Node000007" class="node">
<title>Node7</title>
<g id="a_Node000007"><a xlink:title=" ">
<polygon fill="#e0e0e0" stroke="#999999" points="423.5,-79.5 346.5,-79.5 346.5,-60.5 423.5,-60.5 423.5,-79.5"/>
<text text-anchor="middle" x="385" y="-67.5" font-family="Helvetica,sans-Serif" font-size="10.00">Eigen/Dense</text>
</a>
</g>
</g>
<!-- Node1&#45;&gt;Node7 -->
<g id="edge6_Node000001_Node000007" class="edge">
<title>Node1&#45;&gt;Node7</title>
<g id="a_edge6_Node000001_Node000007"><a xlink:title=" ">
<path fill="none" stroke="#63b8ff" d="M298.36,-120.95C317.14,-110.13 342.95,-95.24 361.51,-84.54"/>
<polygon fill="#63b8ff" stroke="#63b8ff" points="363.31,-87.54 370.23,-79.52 359.82,-81.48 363.31,-87.54"/>
</a>
</g>
</g>
<!-- Node8 -->
<g id="Node000008" class="node">
<title>Node8</title>
<g id="a_Node000008"><a xlink:href="crs__map_8hpp.html" target="_top" xlink:title=" ">
<polygon fill="white" stroke="#666666" points="289.5,-85 172.5,-85 172.5,-55 289.5,-55 289.5,-85"/>
<text text-anchor="start" x="180.5" y="-73" font-family="Helvetica,sans-Serif" font-size="10.00">vulpes/datastructure</text>
<text text-anchor="middle" x="231" y="-62" font-family="Helvetica,sans-Serif" font-size="10.00">/crs_map.hpp</text>
</a>
</g>
</g>
<!-- Node1&#45;&gt;Node8 -->
<g id="edge7_Node000001_Node000008" class="edge">
<title>Node1&#45;&gt;Node8</title>
<g id="a_edge7_Node000001_Node000008"><a xlink:title=" ">
<path fill="none" stroke="#63b8ff" d="M264.46,-120.8C259.11,-112.84 252.32,-102.74 246.26,-93.71"/>
<polygon fill="#63b8ff" stroke="#63b8ff" points="249,-91.51 240.52,-85.16 243.19,-95.42 249,-91.51"/>
</a>
</g>
</g>
<!-- Node14 -->
<g id="Node000014" class="node">
<title>Node14</title>
<g id="a_Node000014"><a xlink:href="profiler_8hpp.html" target="_top" xlink:title=" ">
<polygon fill="white" stroke="#666666" points="656.5,-79.5 525.5,-79.5 525.5,-60.5 656.5,-60.5 656.5,-79.5"/>
<text text-anchor="middle" x="591" y="-67.5" font-family="Helvetica,sans-Serif" font-size="10.00">vulpes/utils/profiler.hpp</text>
</a>
</g>
</g>
<!-- Node1&#45;&gt;Node14 -->
<g id="edge15_Node000001_Node000014" class="edge">
<title>Node1&#45;&gt;Node14</title>
<g id="a_edge15_Node000001_Node000014"><a xlink:title=" ">
<path fill="none" stroke="#63b8ff" d="M343.57,-120.95C402.47,-109.06 485.59,-92.28 538.89,-81.52"/>
<polygon fill="#63b8ff" stroke="#63b8ff" points="539.7,-84.93 548.81,-79.52 538.32,-78.07 539.7,-84.93"/>
</a>
</g>
</g>
<!-- Node8&#45;&gt;Node4 -->
<g id="edge10_Node000008_Node000004" class="edge">
<title>Node8&#45;&gt;Node4</title>
<g id="a_edge10_Node000008_Node000004"><a xlink:title=" ">
<path fill="none" stroke="#63b8ff" d="M181.9,-54.99C144.97,-44.45 95.21,-30.25 61.94,-20.76"/>
<polygon fill="#63b8ff" stroke="#63b8ff" points="62.75,-17.35 52.18,-17.97 60.83,-24.08 62.75,-17.35"/>
</a>
</g>
</g>
<!-- Node8&#45;&gt;Node6 -->
<g id="edge14_Node000008_Node000006" class="edge">
<title>Node8&#45;&gt;Node6</title>
<g id="a_edge14_Node000008_Node000006"><a xlink:title=" ">
<path fill="none" stroke="#63b8ff" d="M247.22,-54.84C257.24,-46.09 270.11,-34.85 280.38,-25.88"/>
<polygon fill="#63b8ff" stroke="#63b8ff" points="282.73,-28.48 287.96,-19.27 278.13,-23.21 282.73,-28.48"/>
</a>
</g>
</g>
<!-- Node9 -->
<g id="Node000009" class="node">
<title>Node9</title>
<g id="a_Node000009"><a xlink:title=" ">
<polygon fill="#e0e0e0" stroke="#999999" points="467,-19 403,-19 403,0 467,0 467,-19"/>
<text text-anchor="middle" x="435" y="-7" font-family="Helvetica,sans-Serif" font-size="10.00">algorithm</text>
</a>
</g>
</g>
<!-- Node8&#45;&gt;Node9 -->
<g id="edge8_Node000008_Node000009" class="edge">
<title>Node8&#45;&gt;Node9</title>
<g id="a_edge8_Node000008_Node000009"><a xlink:title=" ">
<path fill="none" stroke="#63b8ff" d="M279.86,-54.99C315.22,-44.85 362.4,-31.32 395.41,-21.85"/>
<polygon fill="#63b8ff" stroke="#63b8ff" points="396.52,-25.17 405.17,-19.05 394.59,-18.45 396.52,-25.17"/>
</a>
</g>
</g>
<!-- Node10 -->
<g id="Node000010" class="node">
<title>Node10</title>
<g id="a_Node000010"><a xlink:title=" ">
<polygon fill="#e0e0e0" stroke="#999999" points="112,-19 70,-19 70,0 112,0 112,-19"/>
<text text-anchor="middle" x="91" y="-7" font-family="Helvetica,sans-Serif" font-size="10.00">array</text>
</a>
</g>
</g>
<!-- Node8&#45;&gt;Node10 -->
<g id="edge9_Node000008_Node000010" class="edge">
<title>Node8&#45;&gt;Node10</title>
<g id="a_edge9_Node000008_Node000010"><a xlink:title=" ">
<path fill="none" stroke="#63b8ff" d="M197.47,-54.99C174.21,-45.27 143.51,-32.44 121.05,-23.06"/>
<polygon fill="#63b8ff" stroke="#63b8ff" points="122.25,-19.77 111.68,-19.14 119.55,-26.22 122.25,-19.77"/>
</a>
</g>
</g>
<!-- Node11 -->
<g id="Node000011" class="node">
<title>Node11</title>
<g id="a_Node000011"><a xlink:title=" ">
<polygon fill="#e0e0e0" stroke="#999999" points="187.5,-19 130.5,-19 130.5,0 187.5,0 187.5,-19"/>
<text text-anchor="middle" x="159" y="-7" font-family="Helvetica,sans-Serif" font-size="10.00">ostream</text>
</a>
</g>
</g>
<!-- Node8&#45;&gt;Node11 -->
<g id="edge11_Node000008_Node000011" class="edge">
<title>Node8&#45;&gt;Node11</title>
<g id="a_edge11_Node000008_Node000011"><a xlink:title=" ">
<path fill="none" stroke="#63b8ff" d="M213.57,-54.84C202.69,-46 188.7,-34.63 177.61,-25.62"/>
<polygon fill="#63b8ff" stroke="#63b8ff" points="179.76,-22.86 169.79,-19.27 175.34,-28.29 179.76,-22.86"/>
</a>
</g>
</g>
<!-- Node12 -->
<g id="Node000012" class="node">
<title>Node12</title>
<g id="a_Node000012"><a xlink:title=" ">
<polygon fill="#e0e0e0" stroke="#999999" points="384.5,-19 339.5,-19 339.5,0 384.5,0 384.5,-19"/>
<text text-anchor="middle" x="362" y="-7" font-family="Helvetica,sans-Serif" font-size="10.00">utility</text>
</a>
</g>
</g>
<!-- Node8&#45;&gt;Node12 -->
<g id="edge12_Node000008_Node000012" class="edge">
<title>Node8&#45;&gt;Node12</title>
<g id="a_edge12_Node000008_Node000012"><a xlink:title=" ">
<path fill="none" stroke="#63b8ff" d="M262.38,-54.99C283.94,-45.36 312.35,-32.67 333.31,-23.31"/>
<polygon fill="#63b8ff" stroke="#63b8ff" points="334.95,-26.41 342.65,-19.14 332.1,-20.02 334.95,-26.41"/>
</a>
</g>
</g>
<!-- Node13 -->
<g id="Node000013" class="node">
<title>Node13</title>
<g id="a_Node000013"><a xlink:title=" ">
<polygon fill="#e0e0e0" stroke="#999999" points="256.5,-19 205.5,-19 205.5,0 256.5,0 256.5,-19"/>
<text text-anchor="middle" x="231" y="-7" font-family="Helvetica,sans-Serif" font-size="10.00">variant</text>
</a>
</g>
</g>
<!-- Node8&#45;&gt;Node13 -->
<g id="edge13_Node000008_Node000013" class="edge">
<title>Node8&#45;&gt;Node13</title>
<g id="a_edge13_Node000008_Node000013"><a xlink:title=" ">
<path fill="none" stroke="#63b8ff" d="M231,-54.84C231,-47.21 231,-37.7 231,-29.45"/>
<polygon fill="#63b8ff" stroke="#63b8ff" points="234.5,-29.27 231,-19.27 227.5,-29.27 234.5,-29.27"/>
</a>
</g>
</g>
<!-- Node14&#45;&gt;Node5 -->
<g id="edge20_Node000014_Node000005" class="edge">
<title>Node14&#45;&gt;Node5</title>
<g id="a_edge20_Node000014_Node000005"><a xlink:title=" ">
<path fill="none" stroke="#63b8ff" d="M579.79,-60.37C567.89,-51.21 548.86,-36.56 534.49,-25.51"/>
<polygon fill="#63b8ff" stroke="#63b8ff" points="536.32,-22.49 526.26,-19.17 532.05,-28.04 536.32,-22.49"/>
</a>
</g>
</g>
<!-- Node14&#45;&gt;Node6 -->
<g id="edge24_Node000014_Node000006" class="edge">
<title>Node14&#45;&gt;Node6</title>
<g id="a_edge24_Node000014_Node000006"><a xlink:title=" ">
<path fill="none" stroke="#63b8ff" d="M540.75,-60.46C490.19,-51.62 409.8,-36.9 331.72,-19.28"/>
<polygon fill="#63b8ff" stroke="#63b8ff" points="332.25,-15.81 321.72,-17 330.69,-22.63 332.25,-15.81"/>
</a>
</g>
</g>
<!-- Node14&#45;&gt;Node9 -->
<g id="edge16_Node000014_Node000009" class="edge">
<title>Node14&#45;&gt;Node9</title>
<g id="a_edge16_Node000014_Node000009"><a xlink:title=" ">
<path fill="none" stroke="#63b8ff" d="M568.32,-60.49C541.74,-50.53 497.52,-33.95 467.36,-22.63"/>
<polygon fill="#63b8ff" stroke="#63b8ff" points="468.3,-19.25 457.71,-19.02 465.85,-25.81 468.3,-19.25"/>
</a>
</g>
</g>
<!-- Node14&#45;&gt;Node12 -->
<g id="edge23_Node000014_Node000012" class="edge">
<title>Node14&#45;&gt;Node12</title>
<g id="a_edge23_Node000014_Node000012"><a xlink:title=" ">
<path fill="none" stroke="#63b8ff" d="M556.81,-60.44C519.41,-51.06 457.46,-35.43 394.43,-19.09"/>
<polygon fill="#63b8ff" stroke="#63b8ff" points="395.28,-15.69 384.72,-16.57 393.52,-22.47 395.28,-15.69"/>
</a>
</g>
</g>
<!-- Node15 -->
<g id="Node000015" class="node">
<title>Node15</title>
<g id="a_Node000015"><a xlink:title=" ">
<polygon fill="#e0e0e0" stroke="#999999" points="989,-19 939,-19 939,0 989,0 989,-19"/>
<text text-anchor="middle" x="964" y="-7" font-family="Helvetica,sans-Serif" font-size="10.00">chrono</text>
</a>
</g>
</g>
<!-- Node14&#45;&gt;Node15 -->
<g id="edge17_Node000014_Node000015" class="edge">
<title>Node14&#45;&gt;Node15</title>
<g id="a_edge17_Node000014_Node000015"><a xlink:title=" ">
<path fill="none" stroke="#63b8ff" d="M656.63,-61.27C722.96,-53.01 828.54,-38.67 928.81,-19.07"/>
<polygon fill="#63b8ff" stroke="#63b8ff" points="929.68,-22.46 938.81,-17.09 928.32,-15.6 929.68,-22.46"/>
</a>
</g>
</g>
<!-- Node16 -->
<g id="Node000016" class="node">
<title>Node16</title>
<g id="a_Node000016"><a xlink:title=" ">
<polygon fill="#e0e0e0" stroke="#999999" points="1060.5,-19 1007.5,-19 1007.5,0 1060.5,0 1060.5,-19"/>
<text text-anchor="middle" x="1034" y="-7" font-family="Helvetica,sans-Serif" font-size="10.00">cstddef</text>
</a>
</g>
</g>
<!-- Node14&#45;&gt;Node16 -->
<g id="edge18_Node000014_Node000016" class="edge">
<title>Node14&#45;&gt;Node16</title>
<g id="a_edge18_Node000014_Node000016"><a xlink:title=" ">
<path fill="none" stroke="#63b8ff" d="M656.53,-63.18C735.19,-55.7 871.22,-41.17 997.48,-18.9"/>
<polygon fill="#63b8ff" stroke="#63b8ff" points="998.1,-22.34 1007.33,-17.14 996.87,-15.45 998.1,-22.34"/>
</a>
</g>
</g>
<!-- Node17 -->
<g id="Node000017" class="node">
<title>Node17</title>
<g id="a_Node000017"><a xlink:title=" ">
<polygon fill="#e0e0e0" stroke="#999999" points="619,-19 563,-19 563,0 619,0 619,-19"/>
<text text-anchor="middle" x="591" y="-7" font-family="Helvetica,sans-Serif" font-size="10.00">iomanip</text>
</a>
</g>
</g>
<!-- Node14&#45;&gt;Node17 -->
<g id="edge19_Node000014_Node000017" class="edge">
<title>Node14&#45;&gt;Node17</title>
<g id="a_edge19_Node000014_Node000017"><a xlink:title=" ">
<path fill="none" stroke="#63b8ff" d="M591,-60.37C591,-52.25 591,-39.81 591,-29.39"/>
<polygon fill="#63b8ff" stroke="#63b8ff" points="594.5,-29.17 591,-19.17 587.5,-29.17 594.5,-29.17"/>
</a>
</g>
</g>
<!-- Node18 -->
<g id="Node000018" class="node">
<title>Node18</title>
<g id="a_Node000018"><a xlink:title=" ">
<polygon fill="#e0e0e0" stroke="#999999" points="681,-19 637,-19 637,0 681,0 681,-19"/>
<text text-anchor="middle" x="659" y="-7" font-family="Helvetica,sans-Serif" font-size="10.00">string</text>
</a>
</g>
</g>
<!-- Node14&#45;&gt;Node18 -->
<g id="edge21_Node000014_Node000018" class="edge">
<title>Node14&#45;&gt;Node18</title>
<g id="a_edge21_Node000014_Node000018"><a xlink:title=" ">
<path fill="none" stroke="#63b8ff" d="M601.03,-60.37C611.58,-51.3 628.39,-36.84 641.19,-25.82"/>
<polygon fill="#63b8ff" stroke="#63b8ff" points="643.63,-28.34 648.93,-19.17 639.06,-23.04 643.63,-28.34"/>
</a>
</g>
</g>
<!-- Node19 -->
<g id="Node000019" class="node">
<title>Node19</title>
<g id="a_Node000019"><a xlink:title=" ">
<polygon fill="#e0e0e0" stroke="#999999" points="792.5,-19 699.5,-19 699.5,0 792.5,0 792.5,-19"/>
<text text-anchor="middle" x="746" y="-7" font-family="Helvetica,sans-Serif" font-size="10.00">unordered_map</text>
</a>
</g>
</g>
<!-- Node14&#45;&gt;Node19 -->
<g id="edge22_Node000014_Node000019" class="edge">
<title>Node14&#45;&gt;Node19</title>
<g id="a_edge22_Node000014_Node000019"><a xlink:title=" ">
<path fill="none" stroke="#63b8ff" d="M613.54,-60.49C639.94,-50.53 683.88,-33.95 713.85,-22.63"/>
<polygon fill="#63b8ff" stroke="#63b8ff" points="715.31,-25.82 723.43,-19.02 712.84,-19.27 715.31,-25.82"/>
</a>
</g>
</g>
<!-- Node20 -->
<g id="Node000020" class="node">
<title>Node20</title>
<g id="a_Node000020"><a xlink:title=" ">
<polygon fill="#e0e0e0" stroke="#999999" points="921,-19 811,-19 811,0 921,0 921,-19"/>
<text text-anchor="middle" x="866" y="-7" font-family="Helvetica,sans-Serif" font-size="10.00">nlohmann/json.hpp</text>
</a>
</g>
</g>
<!-- Node14&#45;&gt;Node20 -->
<g id="edge25_Node000014_Node000020" class="edge">
<title>Node14&#45;&gt;Node20</title>
<g id="a_edge25_Node000014_Node000020"><a xlink:title=" ">
<path fill="none" stroke="#63b8ff" d="M630.99,-60.49C679.97,-50.07 762.96,-32.42 816.08,-21.12"/>
<polygon fill="#63b8ff" stroke="#63b8ff" points="816.91,-24.52 825.96,-19.02 815.45,-17.67 816.91,-24.52"/>
</a>
</g>
</g>
</g>
</svg>
