<?xml version="1.0" encoding="UTF-8" standalone="no"?>
<!DOCTYPE svg PUBLIC "-//W3C//DTD SVG 1.1//EN"
 "http://www.w3.org/Graphics/SVG/1.1/DTD/svg11.dtd">
<!-- Generated by graphviz version 12.2.1 (20241206.2353)
 -->
<!-- Title: /Users/ilariomazzieri/Desktop/vulpes/vulpes/polynomials/ndpolynomial.hpp Pages: 1 -->
<svg width="636pt" height="305pt"
 viewBox="0.00 0.00 636.41 304.50" xmlns="http://www.w3.org/2000/svg" xmlns:xlink="http://www.w3.org/1999/xlink">
<g id="graph0" class="graph" transform="scale(1 1) rotate(0) translate(4 300.5)">
<title>/Users/ilariomazzieri/Desktop/vulpes/vulpes/polynomials/ndpolynomial.hpp</title>
<!-- Node1 -->
<g id="Node000001" class="node">
<title>Node1</title>
<g id="a_Node000001"><a xlink:title=" ">
<polygon fill="#999999" stroke="#666666" points="453.69,-296.5 304.19,-296.5 304.19,-254.75 453.69,-254.75 453.69,-296.5"/>
<text text-anchor="start" x="312.19" y="-283" font-family="Helvetica,sans-Serif" font-size="10.00">/Users/ilariomazzieri</text>
<text text-anchor="start" x="312.19" y="-271.75" font-family="Helvetica,sans-Serif" font-size="10.00">/Desktop/vulpes/vulpes</text>
<text text-anchor="middle" x="378.94" y="-260.5" font-family="Helvetica,sans-Serif" font-size="10.00">/polynomials/ndpolynomial.hpp</text>
</a>
</g>
</g>
<!-- Node2 -->
<g id="Node000002" class="node">
<title>Node2</title>
<g id="a_Node000002"><a xlink:href="polynomial1d_8hpp.html" target="_top" xlink:title=" ">
<polygon fill="white" stroke="#666666" points="235.57,-218.75 136.32,-218.75 136.32,-188.25 235.57,-188.25 235.57,-218.75"/>
<text text-anchor="start" x="144.32" y="-205.25" font-family="Helvetica,sans-Serif" font-size="10.00">vulpes/polynomials</text>
<text text-anchor="middle" x="185.94" y="-194" font-family="Helvetica,sans-Serif" font-size="10.00">/polynomial1d.hpp</text>
</a>
</g>
</g>
<!-- Node1&#45;&gt;Node2 -->
<g id="edge1_Node000001_Node000002" class="edge">
<title>Node1&#45;&gt;Node2</title>
<g id="a_edge1_Node000001_Node000002"><a xlink:title=" ">
<path fill="none" stroke="#63b8ff" d="M323.12,-254.34C295.92,-244.46 263.44,-232.66 236.91,-223.02"/>
<polygon fill="#63b8ff" stroke="#63b8ff" points="238.33,-219.81 227.74,-219.69 235.94,-226.39 238.33,-219.81"/>
</a>
</g>
</g>
<!-- Node14 -->
<g id="Node000014" class="node">
<title>Node14</title>
<g id="a_Node000014"><a xlink:href="polynomial2d_8hpp.html" target="_top" xlink:title=" ">
<polygon fill="white" stroke="#666666" points="428.57,-218.75 329.32,-218.75 329.32,-188.25 428.57,-188.25 428.57,-218.75"/>
<text text-anchor="start" x="337.32" y="-205.25" font-family="Helvetica,sans-Serif" font-size="10.00">vulpes/polynomials</text>
<text text-anchor="middle" x="378.94" y="-194" font-family="Helvetica,sans-Serif" font-size="10.00">/polynomial2d.hpp</text>
</a>
</g>
</g>
<!-- Node1&#45;&gt;Node14 -->
<g id="edge21_Node000001_Node000014" class="edge">
<title>Node1&#45;&gt;Node14</title>
<g id="a_edge21_Node000001_Node000014"><a xlink:title=" ">
<path fill="none" stroke="#63b8ff" d="M378.94,-254.34C378.94,-246.82 378.94,-238.19 378.94,-230.25"/>
<polygon fill="#63b8ff" stroke="#63b8ff" points="382.44,-230.46 378.94,-220.46 375.44,-230.46 382.44,-230.46"/>
</a>
</g>
</g>
<!-- Node16 -->
<g id="Node000016" class="node">
<title>Node16</title>
<g id="a_Node000016"><a xlink:href="polynomial3d_8hpp.html" target="_top" xlink:title=" ">
<polygon fill="white" stroke="#666666" points="567.57,-218.75 468.32,-218.75 468.32,-188.25 567.57,-188.25 567.57,-218.75"/>
<text text-anchor="start" x="476.32" y="-205.25" font-family="Helvetica,sans-Serif" font-size="10.00">vulpes/polynomials</text>
<text text-anchor="middle" x="517.94" y="-194" font-family="Helvetica,sans-Serif" font-size="10.00">/polynomial3d.hpp</text>
</a>
</g>
</g>
<!-- Node1&#45;&gt;Node16 -->
<g id="edge29_Node000001_Node000016" class="edge">
<title>Node1&#45;&gt;Node16</title>
<g id="a_edge29_Node000001_Node000016"><a xlink:title=" ">
<path fill="none" stroke="#63b8ff" d="M419.15,-254.34C437.87,-244.9 460.06,-233.7 478.66,-224.32"/>
<polygon fill="#63b8ff" stroke="#63b8ff" points="480.16,-227.48 487.51,-219.85 477.01,-221.23 480.16,-227.48"/>
</a>
</g>
</g>
<!-- Node3 -->
<g id="Node000003" class="node">
<title>Node3</title>
<g id="a_Node000003"><a xlink:title=" ">
<polygon fill="#e0e0e0" stroke="#999999" points="163.07,-19.25 114.82,-19.25 114.82,0 163.07,0 163.07,-19.25"/>
<text text-anchor="middle" x="138.94" y="-5.75" font-family="Helvetica,sans-Serif" font-size="10.00">cstddef</text>
</a>
</g>
</g>
<!-- Node2&#45;&gt;Node3 -->
<g id="edge2_Node000002_Node000003" class="edge">
<title>Node2&#45;&gt;Node3</title>
<g id="a_edge2_Node000002_Node000003"><a xlink:title=" ">
<path fill="none" stroke="#63b8ff" d="M136.13,-202.42C97.31,-199.39 45.68,-188.21 18.94,-152.25 -6.78,-117.65 -5.66,-90.65 18.94,-55.25 37.76,-28.18 75.05,-17.5 103.09,-13.3"/>
<polygon fill="#63b8ff" stroke="#63b8ff" points="103.48,-16.78 112.96,-12.06 102.6,-9.83 103.48,-16.78"/>
</a>
</g>
</g>
<!-- Node4 -->
<g id="Node000004" class="node">
<title>Node4</title>
<g id="a_Node000004"><a xlink:title=" ">
<polygon fill="#e0e0e0" stroke="#999999" points="112.57,-80.12 61.32,-80.12 61.32,-60.88 112.57,-60.88 112.57,-80.12"/>
<text text-anchor="middle" x="86.94" y="-66.62" font-family="Helvetica,sans-Serif" font-size="10.00">ostream</text>
</a>
</g>
</g>
<!-- Node2&#45;&gt;Node4 -->
<g id="edge3_Node000002_Node000004" class="edge">
<title>Node2&#45;&gt;Node4</title>
<g id="a_edge3_Node000002_Node000004"><a xlink:title=" ">
<path fill="none" stroke="#63b8ff" d="M140.62,-187.85C123.54,-180.01 105.66,-168.53 94.94,-152.25 83.15,-134.35 82.55,-109.2 84,-91.75"/>
<polygon fill="#63b8ff" stroke="#63b8ff" points="87.47,-92.22 85.15,-81.88 80.52,-91.41 87.47,-92.22"/>
</a>
</g>
</g>
<!-- Node5 -->
<g id="Node000005" class="node">
<title>Node5</title>
<g id="a_Node000005"><a xlink:title=" ">
<polygon fill="#e0e0e0" stroke="#999999" points="585.44,-19.25 542.44,-19.25 542.44,0 585.44,0 585.44,-19.25"/>
<text text-anchor="middle" x="563.94" y="-5.75" font-family="Helvetica,sans-Serif" font-size="10.00">vector</text>
</a>
</g>
</g>
<!-- Node2&#45;&gt;Node5 -->
<g id="edge4_Node000002_Node000005" class="edge">
<title>Node2&#45;&gt;Node5</title>
<g id="a_edge4_Node000002_Node000005"><a xlink:title=" ">
<path fill="none" stroke="#63b8ff" d="M235.96,-195.86C272.56,-189.23 322.2,-176.4 359.94,-152.25 407.98,-121.52 397.09,-87.76 443.94,-55.25 458.39,-45.22 500.85,-30.54 531.15,-20.78"/>
<polygon fill="#63b8ff" stroke="#63b8ff" points="532.18,-24.13 540.65,-17.77 530.06,-17.46 532.18,-24.13"/>
</a>
</g>
</g>
<!-- Node6 -->
<g id="Node000006" class="node">
<title>Node6</title>
<g id="a_Node000006"><a xlink:href="polynomial_8hpp.html" target="_top" xlink:title=" ">
<polygon fill="white" stroke="#666666" points="350.57,-152.25 251.32,-152.25 251.32,-121.75 350.57,-121.75 350.57,-152.25"/>
<text text-anchor="start" x="259.32" y="-138.75" font-family="Helvetica,sans-Serif" font-size="10.00">vulpes/polynomials</text>
<text text-anchor="middle" x="300.94" y="-127.5" font-family="Helvetica,sans-Serif" font-size="10.00">/polynomial.hpp</text>
</a>
</g>
</g>
<!-- Node2&#45;&gt;Node6 -->
<g id="edge5_Node000002_Node000006" class="edge">
<title>Node2&#45;&gt;Node6</title>
<g id="a_edge5_Node000002_Node000006"><a xlink:title=" ">
<path fill="none" stroke="#63b8ff" d="M212.04,-187.86C227.77,-179.04 248.03,-167.68 265.23,-158.03"/>
<polygon fill="#63b8ff" stroke="#63b8ff" points="266.62,-161.26 273.63,-153.32 263.2,-155.16 266.62,-161.26"/>
</a>
</g>
</g>
<!-- Node10 -->
<g id="Node000010" class="node">
<title>Node10</title>
<g id="a_Node000010"><a xlink:href="vmath_8hpp.html" target="_top" xlink:title=" ">
<polygon fill="white" stroke="#666666" points="359.07,-80.12 244.82,-80.12 244.82,-60.88 359.07,-60.88 359.07,-80.12"/>
<text text-anchor="middle" x="301.94" y="-66.62" font-family="Helvetica,sans-Serif" font-size="10.00">vulpes/utils/vmath.hpp</text>
</a>
</g>
</g>
<!-- Node2&#45;&gt;Node10 -->
<g id="edge20_Node000002_Node000010" class="edge">
<title>Node2&#45;&gt;Node10</title>
<g id="a_edge20_Node000002_Node000010"><a xlink:title=" ">
<path fill="none" stroke="#63b8ff" d="M194.39,-187.94C204.54,-171.08 222.62,-142.92 241.94,-121.75 253.65,-108.92 268.63,-96.38 280.69,-87.03"/>
<polygon fill="#63b8ff" stroke="#63b8ff" points="282.55,-90.01 288.41,-81.19 278.32,-84.43 282.55,-90.01"/>
</a>
</g>
</g>
<!-- Node6&#45;&gt;Node3 -->
<g id="edge6_Node000006_Node000003" class="edge">
<title>Node6&#45;&gt;Node3</title>
<g id="a_edge6_Node000006_Node000003"><a xlink:title=" ">
<path fill="none" stroke="#63b8ff" d="M274.57,-121.38C258.3,-111.94 237.31,-99 219.94,-85.75 196.01,-67.5 170.98,-43.39 155.19,-27.47"/>
<polygon fill="#63b8ff" stroke="#63b8ff" points="157.99,-25.33 148.49,-20.63 152.99,-30.23 157.99,-25.33"/>
</a>
</g>
</g>
<!-- Node6&#45;&gt;Node4 -->
<g id="edge7_Node000006_Node000004" class="edge">
<title>Node6&#45;&gt;Node4</title>
<g id="a_edge7_Node000006_Node000004"><a xlink:title=" ">
<path fill="none" stroke="#63b8ff" d="M252.11,-121.28C213.04,-109.51 159.1,-93.25 123.64,-82.56"/>
<polygon fill="#63b8ff" stroke="#63b8ff" points="124.86,-79.27 114.27,-79.74 122.84,-85.97 124.86,-79.27"/>
</a>
</g>
</g>
<!-- Node6&#45;&gt;Node5 -->
<g id="edge8_Node000006_Node000005" class="edge">
<title>Node6&#45;&gt;Node5</title>
<g id="a_edge8_Node000006_Node000005"><a xlink:title=" ">
<path fill="none" stroke="#63b8ff" d="M320.5,-121.37C350.77,-98.77 406.03,-57.67 410.94,-55.25 412.33,-54.57 486.52,-33.04 531.06,-20.14"/>
<polygon fill="#63b8ff" stroke="#63b8ff" points="531.87,-23.55 540.5,-17.41 529.92,-16.82 531.87,-23.55"/>
</a>
</g>
</g>
<!-- Node7 -->
<g id="Node000007" class="node">
<title>Node7</title>
<g id="a_Node000007"><a xlink:title=" ">
<polygon fill="#e0e0e0" stroke="#999999" points="253.07,-19.25 180.82,-19.25 180.82,0 253.07,0 253.07,-19.25"/>
<text text-anchor="middle" x="216.94" y="-5.75" font-family="Helvetica,sans-Serif" font-size="10.00">Eigen/Dense</text>
</a>
</g>
</g>
<!-- Node6&#45;&gt;Node7 -->
<g id="edge9_Node000006_Node000007" class="edge">
<title>Node6&#45;&gt;Node7</title>
<g id="a_edge9_Node000006_Node000007"><a xlink:title=" ">
<path fill="none" stroke="#63b8ff" d="M274.33,-121.29C260.94,-112.6 245.56,-100.42 235.94,-85.75 225.12,-69.24 220.46,-46.97 218.46,-30.97"/>
<polygon fill="#63b8ff" stroke="#63b8ff" points="221.96,-30.83 217.5,-21.22 214.99,-31.51 221.96,-30.83"/>
</a>
</g>
</g>
<!-- Node8 -->
<g id="Node000008" class="node">
<title>Node8</title>
<g id="a_Node000008"><a xlink:href="datastructure_2tensor_8hpp.html" target="_top" xlink:title=" ">
<polygon fill="white" stroke="#666666" points="557.19,-85.75 452.69,-85.75 452.69,-55.25 557.19,-55.25 557.19,-85.75"/>
<text text-anchor="start" x="460.69" y="-72.25" font-family="Helvetica,sans-Serif" font-size="10.00">vulpes/datastructure</text>
<text text-anchor="middle" x="504.94" y="-61" font-family="Helvetica,sans-Serif" font-size="10.00">/tensor.hpp</text>
</a>
</g>
</g>
<!-- Node6&#45;&gt;Node8 -->
<g id="edge10_Node000006_Node000008" class="edge">
<title>Node6&#45;&gt;Node8</title>
<g id="a_edge10_Node000006_Node000008"><a xlink:title=" ">
<path fill="none" stroke="#63b8ff" d="M347.49,-121.28C377.26,-111.87 416.08,-99.6 447.73,-89.59"/>
<polygon fill="#63b8ff" stroke="#63b8ff" points="448.67,-92.96 457.15,-86.61 446.56,-86.29 448.67,-92.96"/>
</a>
</g>
</g>
<!-- Node6&#45;&gt;Node10 -->
<g id="edge13_Node000006_Node000010" class="edge">
<title>Node6&#45;&gt;Node10</title>
<g id="a_edge13_Node000006_Node000010"><a xlink:title=" ">
<path fill="none" stroke="#63b8ff" d="M301.17,-121.36C301.3,-112.58 301.48,-101.27 301.63,-91.65"/>
<polygon fill="#63b8ff" stroke="#63b8ff" points="305.13,-91.89 301.78,-81.84 298.13,-91.78 305.13,-91.89"/>
</a>
</g>
</g>
<!-- Node8&#45;&gt;Node5 -->
<g id="edge12_Node000008_Node000005" class="edge">
<title>Node8&#45;&gt;Node5</title>
<g id="a_edge12_Node000008_Node000005"><a xlink:title=" ">
<path fill="none" stroke="#63b8ff" d="M519.53,-54.95C527.82,-46.67 538.24,-36.27 546.91,-27.62"/>
<polygon fill="#63b8ff" stroke="#63b8ff" points="549.17,-30.31 553.77,-20.77 544.22,-25.36 549.17,-30.31"/>
</a>
</g>
</g>
<!-- Node9 -->
<g id="Node000009" class="node">
<title>Node9</title>
<g id="a_Node000009"><a xlink:title=" ">
<polygon fill="#e0e0e0" stroke="#999999" points="524.82,-19.25 463.07,-19.25 463.07,0 524.82,0 524.82,-19.25"/>
<text text-anchor="middle" x="493.94" y="-5.75" font-family="Helvetica,sans-Serif" font-size="10.00">type_traits</text>
</a>
</g>
</g>
<!-- Node8&#45;&gt;Node9 -->
<g id="edge11_Node000008_Node000009" class="edge">
<title>Node8&#45;&gt;Node9</title>
<g id="a_edge11_Node000008_Node000009"><a xlink:title=" ">
<path fill="none" stroke="#63b8ff" d="M502.22,-54.95C500.87,-47.71 499.21,-38.84 497.74,-30.94"/>
<polygon fill="#63b8ff" stroke="#63b8ff" points="501.19,-30.38 495.92,-21.19 494.31,-31.66 501.19,-30.38"/>
</a>
</g>
</g>
<!-- Node10&#45;&gt;Node3 -->
<g id="edge15_Node000010_Node000003" class="edge">
<title>Node10&#45;&gt;Node3</title>
<g id="a_edge15_Node000010_Node000003"><a xlink:title=" ">
<path fill="none" stroke="#63b8ff" d="M276.83,-60.43C249.39,-50.52 205.22,-34.57 174.29,-23.39"/>
<polygon fill="#63b8ff" stroke="#63b8ff" points="175.57,-20.13 164.97,-20.03 173.19,-26.72 175.57,-20.13"/>
</a>
</g>
</g>
<!-- Node10&#45;&gt;Node7 -->
<g id="edge19_Node000010_Node000007" class="edge">
<title>Node10&#45;&gt;Node7</title>
<g id="a_edge19_Node000010_Node000007"><a xlink:title=" ">
<path fill="none" stroke="#63b8ff" d="M289.03,-60.56C275.8,-51.39 254.98,-36.97 239.1,-25.98"/>
<polygon fill="#63b8ff" stroke="#63b8ff" points="241.43,-23.33 231.22,-20.51 237.44,-29.08 241.43,-23.33"/>
</a>
</g>
</g>
<!-- Node10&#45;&gt;Node9 -->
<g id="edge18_Node000010_Node000009" class="edge">
<title>Node10&#45;&gt;Node9</title>
<g id="a_edge18_Node000010_Node000009"><a xlink:title=" ">
<path fill="none" stroke="#63b8ff" d="M331.52,-60.43C364.22,-50.4 417.08,-34.19 453.57,-23"/>
<polygon fill="#63b8ff" stroke="#63b8ff" points="454.35,-26.43 462.88,-20.15 452.29,-19.73 454.35,-26.43"/>
</a>
</g>
</g>
<!-- Node11 -->
<g id="Node000011" class="node">
<title>Node11</title>
<g id="a_Node000011"><a xlink:title=" ">
<polygon fill="#e0e0e0" stroke="#999999" points="444.69,-19.25 391.19,-19.25 391.19,0 444.69,0 444.69,-19.25"/>
<text text-anchor="middle" x="417.94" y="-5.75" font-family="Helvetica,sans-Serif" font-size="10.00">gmpxx.h</text>
</a>
</g>
</g>
<!-- Node10&#45;&gt;Node11 -->
<g id="edge14_Node000010_Node000011" class="edge">
<title>Node10&#45;&gt;Node11</title>
<g id="a_edge14_Node000010_Node000011"><a xlink:title=" ">
<path fill="none" stroke="#63b8ff" d="M319.81,-60.43C338.6,-50.89 368.41,-35.77 390.24,-24.68"/>
<polygon fill="#63b8ff" stroke="#63b8ff" points="391.56,-27.94 398.89,-20.29 388.39,-21.7 391.56,-27.94"/>
</a>
</g>
</g>
<!-- Node12 -->
<g id="Node000012" class="node">
<title>Node12</title>
<g id="a_Node000012"><a xlink:title=" ">
<polygon fill="#e0e0e0" stroke="#999999" points="316.57,-19.25 271.32,-19.25 271.32,0 316.57,0 316.57,-19.25"/>
<text text-anchor="middle" x="293.94" y="-5.75" font-family="Helvetica,sans-Serif" font-size="10.00">cstdint</text>
</a>
</g>
</g>
<!-- Node10&#45;&gt;Node12 -->
<g id="edge16_Node000010_Node000012" class="edge">
<title>Node10&#45;&gt;Node12</title>
<g id="a_edge16_Node000010_Node000012"><a xlink:title=" ">
<path fill="none" stroke="#63b8ff" d="M300.73,-60.56C299.66,-52.69 298.06,-40.95 296.69,-30.82"/>
<polygon fill="#63b8ff" stroke="#63b8ff" points="300.19,-30.59 295.37,-21.15 293.25,-31.53 300.19,-30.59"/>
</a>
</g>
</g>
<!-- Node13 -->
<g id="Node000013" class="node">
<title>Node13</title>
<g id="a_Node000013"><a xlink:title=" ">
<polygon fill="#e0e0e0" stroke="#999999" points="373.57,-19.25 334.32,-19.25 334.32,0 373.57,0 373.57,-19.25"/>
<text text-anchor="middle" x="353.94" y="-5.75" font-family="Helvetica,sans-Serif" font-size="10.00">limits</text>
</a>
</g>
</g>
<!-- Node10&#45;&gt;Node13 -->
<g id="edge17_Node000010_Node000013" class="edge">
<title>Node10&#45;&gt;Node13</title>
<g id="a_edge17_Node000010_Node000013"><a xlink:title=" ">
<path fill="none" stroke="#63b8ff" d="M309.84,-60.56C317.4,-52 329.01,-38.85 338.42,-28.2"/>
<polygon fill="#63b8ff" stroke="#63b8ff" points="340.97,-30.6 344.97,-20.79 335.72,-25.96 340.97,-30.6"/>
</a>
</g>
</g>
<!-- Node14&#45;&gt;Node3 -->
<g id="edge22_Node000014_Node000003" class="edge">
<title>Node14&#45;&gt;Node3</title>
<g id="a_edge22_Node000014_Node000003"><a xlink:title=" ">
<path fill="none" stroke="#63b8ff" d="M329.07,-195.55C266.6,-186.32 163.53,-169.19 128.94,-152.25 88.33,-132.36 70.76,-126.87 51.94,-85.75 46.3,-73.42 44.87,-66.82 51.94,-55.25 63.21,-36.81 84.78,-25.67 103.63,-19.14"/>
<polygon fill="#63b8ff" stroke="#63b8ff" points="104.65,-22.49 113.15,-16.17 102.57,-15.8 104.65,-22.49"/>
</a>
</g>
</g>
<!-- Node14&#45;&gt;Node4 -->
<g id="edge23_Node000014_Node000004" class="edge">
<title>Node14&#45;&gt;Node4</title>
<g id="a_edge23_Node000014_Node000004"><a xlink:title=" ">
<path fill="none" stroke="#63b8ff" d="M329.23,-197.91C285.35,-192.18 220.79,-179.57 170.94,-152.25 142.07,-136.43 115.96,-108.09 100.77,-89.54"/>
<polygon fill="#63b8ff" stroke="#63b8ff" points="103.58,-87.46 94.62,-81.8 98.1,-91.81 103.58,-87.46"/>
</a>
</g>
</g>
<!-- Node14&#45;&gt;Node5 -->
<g id="edge25_Node000014_Node000005" class="edge">
<title>Node14&#45;&gt;Node5</title>
<g id="a_edge25_Node000014_Node000005"><a xlink:title=" ">
<path fill="none" stroke="#63b8ff" d="M403.03,-187.87C453.04,-157.47 563.64,-89.89 565.94,-85.75 575.32,-68.84 573.17,-46.33 569.69,-30.37"/>
<polygon fill="#63b8ff" stroke="#63b8ff" points="573.19,-29.93 567.32,-21.11 566.41,-31.67 573.19,-29.93"/>
</a>
</g>
</g>
<!-- Node14&#45;&gt;Node6 -->
<g id="edge27_Node000014_Node000006" class="edge">
<title>Node14&#45;&gt;Node6</title>
<g id="a_edge27_Node000014_Node000006"><a xlink:title=" ">
<path fill="none" stroke="#63b8ff" d="M361.24,-187.86C351.17,-179.53 338.36,-168.94 327.14,-159.67"/>
<polygon fill="#63b8ff" stroke="#63b8ff" points="329.67,-157.22 319.74,-153.54 325.21,-162.61 329.67,-157.22"/>
</a>
</g>
</g>
<!-- Node14&#45;&gt;Node8 -->
<g id="edge26_Node000014_Node000008" class="edge">
<title>Node14&#45;&gt;Node8</title>
<g id="a_edge26_Node000014_Node000008"><a xlink:title=" ">
<path fill="none" stroke="#63b8ff" d="M394.65,-187.79C405.1,-177.9 419.03,-164.48 430.94,-152.25 449.52,-133.17 469.92,-110.8 484.59,-94.44"/>
<polygon fill="#63b8ff" stroke="#63b8ff" points="487.04,-96.96 491.09,-87.17 481.82,-92.29 487.04,-96.96"/>
</a>
</g>
</g>
<!-- Node14&#45;&gt;Node10 -->
<g id="edge28_Node000014_Node000010" class="edge">
<title>Node14&#45;&gt;Node10</title>
<g id="a_edge28_Node000014_Node000010"><a xlink:title=" ">
<path fill="none" stroke="#63b8ff" d="M378.19,-187.77C376.73,-170.76 372.46,-142.45 359.94,-121.75 351.59,-107.95 338.16,-95.96 326.33,-87.16"/>
<polygon fill="#63b8ff" stroke="#63b8ff" points="328.34,-84.29 318.15,-81.41 324.32,-90.02 328.34,-84.29"/>
</a>
</g>
</g>
<!-- Node15 -->
<g id="Node000015" class="node">
<title>Node15</title>
<g id="a_Node000015"><a xlink:title=" ">
<polygon fill="#e0e0e0" stroke="#999999" points="560.57,-146.62 521.32,-146.62 521.32,-127.38 560.57,-127.38 560.57,-146.62"/>
<text text-anchor="middle" x="540.94" y="-133.12" font-family="Helvetica,sans-Serif" font-size="10.00">utility</text>
</a>
</g>
</g>
<!-- Node14&#45;&gt;Node15 -->
<g id="edge24_Node000014_Node000015" class="edge">
<title>Node14&#45;&gt;Node15</title>
<g id="a_edge24_Node000014_Node000015"><a xlink:title=" ">
<path fill="none" stroke="#63b8ff" d="M417.12,-187.77C442.61,-177.88 476.86,-164.46 506.94,-152.25 508.07,-151.79 509.22,-151.32 510.37,-150.85"/>
<polygon fill="#63b8ff" stroke="#63b8ff" points="511.54,-154.16 519.44,-147.09 508.86,-147.69 511.54,-154.16"/>
</a>
</g>
</g>
<!-- Node16&#45;&gt;Node3 -->
<g id="edge30_Node000016_Node000003" class="edge">
<title>Node16&#45;&gt;Node3</title>
<g id="a_edge30_Node000016_Node000003"><a xlink:title=" ">
<path fill="none" stroke="#63b8ff" d="M467.87,-193.59C389,-179.52 244.42,-153.62 241.94,-152.25 192.16,-124.77 160.14,-61.85 146.5,-29.94"/>
<polygon fill="#63b8ff" stroke="#63b8ff" points="149.91,-29.04 142.88,-21.11 143.44,-31.69 149.91,-29.04"/>
</a>
</g>
</g>
<!-- Node16&#45;&gt;Node4 -->
<g id="edge31_Node000016_Node000004" class="edge">
<title>Node16&#45;&gt;Node4</title>
<g id="a_edge31_Node000016_Node000004"><a xlink:title=" ">
<path fill="none" stroke="#63b8ff" d="M468.04,-193.45C458.08,-191.69 447.68,-189.88 437.94,-188.25 336.33,-171.22 304.37,-191.08 208.94,-152.25 187.24,-143.42 185.39,-134.82 165.94,-121.75 147.79,-109.55 126.9,-96.3 111.16,-86.47"/>
<polygon fill="#63b8ff" stroke="#63b8ff" points="113.27,-83.65 102.93,-81.34 109.57,-89.6 113.27,-83.65"/>
</a>
</g>
</g>
<!-- Node16&#45;&gt;Node5 -->
<g id="edge33_Node000016_Node000005" class="edge">
<title>Node16&#45;&gt;Node5</title>
<g id="a_edge33_Node000016_Node000005"><a xlink:title=" ">
<path fill="none" stroke="#63b8ff" d="M567.9,-190.31C587.65,-182.77 608.37,-170.86 619.94,-152.25 645.79,-110.7 604.99,-55.2 580.41,-27.64"/>
<polygon fill="#63b8ff" stroke="#63b8ff" points="583.2,-25.51 573.84,-20.54 578.06,-30.26 583.2,-25.51"/>
</a>
</g>
</g>
<!-- Node16&#45;&gt;Node6 -->
<g id="edge35_Node000016_Node000006" class="edge">
<title>Node16&#45;&gt;Node6</title>
<g id="a_edge35_Node000016_Node000006"><a xlink:title=" ">
<path fill="none" stroke="#63b8ff" d="M468.43,-187.78C436.49,-178.29 394.74,-165.88 360.92,-155.83"/>
<polygon fill="#63b8ff" stroke="#63b8ff" points="362.27,-152.58 351.69,-153.08 360.28,-159.29 362.27,-152.58"/>
</a>
</g>
</g>
<!-- Node16&#45;&gt;Node8 -->
<g id="edge34_Node000016_Node000008" class="edge">
<title>Node16&#45;&gt;Node8</title>
<g id="a_edge34_Node000016_Node000008"><a xlink:title=" ">
<path fill="none" stroke="#63b8ff" d="M560.68,-187.88C576.9,-180 593.68,-168.48 602.94,-152.25 609.66,-140.48 610.01,-133.32 602.94,-121.75 594.76,-108.36 581.75,-98.39 567.85,-91.02"/>
<polygon fill="#63b8ff" stroke="#63b8ff" points="569.52,-87.94 558.99,-86.76 566.49,-94.25 569.52,-87.94"/>
</a>
</g>
</g>
<!-- Node16&#45;&gt;Node10 -->
<g id="edge36_Node000016_Node000010" class="edge">
<title>Node16&#45;&gt;Node10</title>
<g id="a_edge36_Node000016_Node000010"><a xlink:title=" ">
<path fill="none" stroke="#63b8ff" d="M538.87,-187.78C560.18,-171.01 587.73,-143.18 569.94,-121.75 557.23,-106.44 445.64,-89.57 370.51,-79.79"/>
<polygon fill="#63b8ff" stroke="#63b8ff" points="371.12,-76.34 360.75,-78.53 370.22,-83.28 371.12,-76.34"/>
</a>
</g>
</g>
<!-- Node16&#45;&gt;Node15 -->
<g id="edge32_Node000016_Node000015" class="edge">
<title>Node16&#45;&gt;Node15</title>
<g id="a_edge32_Node000016_Node000015"><a xlink:title=" ">
<path fill="none" stroke="#63b8ff" d="M523.16,-187.86C526.36,-178.88 530.51,-167.26 533.99,-157.51"/>
<polygon fill="#63b8ff" stroke="#63b8ff" points="537.22,-158.84 537.29,-148.25 530.63,-156.49 537.22,-158.84"/>
</a>
</g>
</g>
</g>
</svg>
