<?xml version="1.0" encoding="UTF-8" standalone="no"?>
<!DOCTYPE svg PUBLIC "-//W3C//DTD SVG 1.1//EN"
 "http://www.w3.org/Graphics/SVG/1.1/DTD/svg11.dtd">
<!-- Generated by graphviz version 2.43.0 (0)
 -->
<!-- Title: /__w/vulpes/vulpes/vulpes/dofs/numbering.hpp Pages: 1 -->
<svg width="1061pt" height="159pt"
 viewBox="0.00 0.00 1060.50 159.00" xmlns="http://www.w3.org/2000/svg" xmlns:xlink="http://www.w3.org/1999/xlink">
<g id="graph0" class="graph" transform="scale(1 1) rotate(0) translate(4 155)">
<title>/__w/vulpes/vulpes/vulpes/dofs/numbering.hpp</title>
<!-- Node1 -->
<g id="Node000001" class="node">
<title>Node1</title>
<g id="a_Node000001"><a xlink:title=" ">
<polygon fill="#999999" stroke="#666666" points="428,-151 276,-151 276,-121 428,-121 428,-151"/>
<text text-anchor="start" x="284" y="-139" font-family="Helvetica,sans-Serif" font-size="10.00">/__w/vulpes/vulpes</text>
<text text-anchor="middle" x="352" y="-128" font-family="Helvetica,sans-Serif" font-size="10.00">/vulpes/dofs/numbering.hpp</text>
</a>
</g>
</g>
<!-- Node2 -->
<g id="Node000002" class="node">
<title>Node2</title>
<g id="a_Node000002"><a xlink:title=" ">
<polygon fill="#e0e0e0" stroke="#999999" points="64,-19 0,-19 0,0 64,0 64,-19"/>
<text text-anchor="middle" x="32" y="-7" font-family="Helvetica,sans-Serif" font-size="10.00">algorithm</text>
</a>
</g>
</g>
<!-- Node1&#45;&gt;Node2 -->
<g id="edge1_Node000001_Node000002" class="edge">
<title>Node1&#45;&gt;Node2</title>
<g id="a_edge1_Node000001_Node000002"><a xlink:title=" ">
<path fill="none" stroke="#63b8ff" d="M275.91,-126.49C231.24,-119.46 174.6,-106.93 128,-85 96.38,-70.12 65.49,-43.31 47.62,-26.23"/>
<polygon fill="#63b8ff" stroke="#63b8ff" points="49.97,-23.64 40.37,-19.15 45.08,-28.64 49.97,-23.64"/>
</a>
</g>
</g>
<!-- Node3 -->
<g id="Node000003" class="node">
<title>Node3</title>
<g id="a_Node000003"><a xlink:title=" ">
<polygon fill="#e0e0e0" stroke="#999999" points="134,-19 82,-19 82,0 134,0 134,-19"/>
<text text-anchor="middle" x="108" y="-7" font-family="Helvetica,sans-Serif" font-size="10.00">cassert</text>
</a>
</g>
</g>
<!-- Node1&#45;&gt;Node3 -->
<g id="edge2_Node000001_Node000003" class="edge">
<title>Node1&#45;&gt;Node3</title>
<g id="a_edge2_Node000001_Node000003"><a xlink:title=" ">
<path fill="none" stroke="#63b8ff" d="M275.71,-128.24C237.57,-121.81 192.35,-109.31 158,-85 137.89,-70.77 123.54,-45.68 115.51,-28.59"/>
<polygon fill="#63b8ff" stroke="#63b8ff" points="118.58,-26.87 111.34,-19.15 112.18,-29.71 118.58,-26.87"/>
</a>
</g>
</g>
<!-- Node4 -->
<g id="Node000004" class="node">
<title>Node4</title>
<g id="a_Node000004"><a xlink:title=" ">
<polygon fill="#e0e0e0" stroke="#999999" points="408,-79.5 352,-79.5 352,-60.5 408,-60.5 408,-79.5"/>
<text text-anchor="middle" x="380" y="-67.5" font-family="Helvetica,sans-Serif" font-size="10.00">numeric</text>
</a>
</g>
</g>
<!-- Node1&#45;&gt;Node4 -->
<g id="edge3_Node000001_Node000004" class="edge">
<title>Node1&#45;&gt;Node4</title>
<g id="a_edge3_Node000001_Node000004"><a xlink:title=" ">
<path fill="none" stroke="#63b8ff" d="M358.21,-120.8C362.28,-111.5 367.63,-99.27 372.01,-89.26"/>
<polygon fill="#63b8ff" stroke="#63b8ff" points="375.33,-90.41 376.13,-79.84 368.92,-87.6 375.33,-90.41"/>
</a>
</g>
</g>
<!-- Node5 -->
<g id="Node000005" class="node">
<title>Node5</title>
<g id="a_Node000005"><a xlink:title=" ">
<polygon fill="#e0e0e0" stroke="#999999" points="197.5,-19 152.5,-19 152.5,0 197.5,0 197.5,-19"/>
<text text-anchor="middle" x="175" y="-7" font-family="Helvetica,sans-Serif" font-size="10.00">utility</text>
</a>
</g>
</g>
<!-- Node1&#45;&gt;Node5 -->
<g id="edge4_Node000001_Node000005" class="edge">
<title>Node1&#45;&gt;Node5</title>
<g id="a_edge4_Node000001_Node000005"><a xlink:title=" ">
<path fill="none" stroke="#63b8ff" d="M275.97,-123.56C232.18,-115.24 183.26,-102.39 170,-85 157.88,-69.1 162.18,-45.32 167.51,-28.93"/>
<polygon fill="#63b8ff" stroke="#63b8ff" points="170.86,-29.97 171,-19.37 164.28,-27.56 170.86,-29.97"/>
</a>
</g>
</g>
<!-- Node6 -->
<g id="Node000006" class="node">
<title>Node6</title>
<g id="a_Node000006"><a xlink:title=" ">
<polygon fill="#e0e0e0" stroke="#999999" points="467.5,-19 420.5,-19 420.5,0 467.5,0 467.5,-19"/>
<text text-anchor="middle" x="444" y="-7" font-family="Helvetica,sans-Serif" font-size="10.00">vector</text>
</a>
</g>
</g>
<!-- Node1&#45;&gt;Node6 -->
<g id="edge5_Node000001_Node000006" class="edge">
<title>Node1&#45;&gt;Node6</title>
<g id="a_edge5_Node000001_Node000006"><a xlink:title=" ">
<path fill="none" stroke="#63b8ff" d="M345.24,-120.72C338.25,-103.65 330.02,-74.9 343,-55 350.89,-42.9 384.51,-29.62 410.82,-20.75"/>
<polygon fill="#63b8ff" stroke="#63b8ff" points="412.07,-24.02 420.48,-17.57 409.88,-17.37 412.07,-24.02"/>
</a>
</g>
</g>
<!-- Node7 -->
<g id="Node000007" class="node">
<title>Node7</title>
<g id="a_Node000007"><a xlink:title=" ">
<polygon fill="#e0e0e0" stroke="#999999" points="553.5,-85 426.5,-85 426.5,-55 553.5,-55 553.5,-85"/>
<text text-anchor="start" x="434.5" y="-73" font-family="Helvetica,sans-Serif" font-size="10.00">boost/graph/adjacency</text>
<text text-anchor="middle" x="490" y="-62" font-family="Helvetica,sans-Serif" font-size="10.00">_list.hpp</text>
</a>
</g>
</g>
<!-- Node1&#45;&gt;Node7 -->
<g id="edge6_Node000001_Node000007" class="edge">
<title>Node1&#45;&gt;Node7</title>
<g id="a_edge6_Node000001_Node000007"><a xlink:title=" ">
<path fill="none" stroke="#63b8ff" d="M382.28,-120.95C402.33,-111.66 428.81,-99.38 450.51,-89.32"/>
<polygon fill="#63b8ff" stroke="#63b8ff" points="452.19,-92.39 459.79,-85.01 449.24,-86.04 452.19,-92.39"/>
</a>
</g>
</g>
<!-- Node8 -->
<g id="Node000008" class="node">
<title>Node8</title>
<g id="a_Node000008"><a xlink:title=" ">
<polygon fill="#e0e0e0" stroke="#999999" points="692.5,-85 571.5,-85 571.5,-55 692.5,-55 692.5,-85"/>
<text text-anchor="start" x="579.5" y="-73" font-family="Helvetica,sans-Serif" font-size="10.00">boost/graph/cuthill</text>
<text text-anchor="middle" x="632" y="-62" font-family="Helvetica,sans-Serif" font-size="10.00">_mckee_ordering.hpp</text>
</a>
</g>
</g>
<!-- Node1&#45;&gt;Node8 -->
<g id="edge7_Node000001_Node000008" class="edge">
<title>Node1&#45;&gt;Node8</title>
<g id="a_edge7_Node000001_Node000008"><a xlink:title=" ">
<path fill="none" stroke="#63b8ff" d="M413.45,-120.95C457.09,-110.98 515.79,-97.56 561.37,-87.14"/>
<polygon fill="#63b8ff" stroke="#63b8ff" points="562.21,-90.54 571.18,-84.9 560.65,-83.72 562.21,-90.54"/>
</a>
</g>
</g>
<!-- Node9 -->
<g id="Node000009" class="node">
<title>Node9</title>
<g id="a_Node000009"><a xlink:title=" ">
<polygon fill="#e0e0e0" stroke="#999999" points="869,-79.5 711,-79.5 711,-60.5 869,-60.5 869,-79.5"/>
<text text-anchor="middle" x="790" y="-67.5" font-family="Helvetica,sans-Serif" font-size="10.00">boost/graph/graph_utility.hpp</text>
</a>
</g>
</g>
<!-- Node1&#45;&gt;Node9 -->
<g id="edge8_Node000001_Node000009" class="edge">
<title>Node1&#45;&gt;Node9</title>
<g id="a_edge8_Node000001_Node000009"><a xlink:title=" ">
<path fill="none" stroke="#63b8ff" d="M428.18,-124.47C499.11,-114.59 607.77,-99.22 702,-85 710.25,-83.76 718.92,-82.41 727.48,-81.07"/>
<polygon fill="#63b8ff" stroke="#63b8ff" points="728.11,-84.52 737.44,-79.5 727.02,-77.6 728.11,-84.52"/>
</a>
</g>
</g>
<!-- Node10 -->
<g id="Node000010" class="node">
<title>Node10</title>
<g id="a_Node000010"><a xlink:title=" ">
<polygon fill="#e0e0e0" stroke="#999999" points="1052.5,-79.5 887.5,-79.5 887.5,-60.5 1052.5,-60.5 1052.5,-79.5"/>
<text text-anchor="middle" x="970" y="-67.5" font-family="Helvetica,sans-Serif" font-size="10.00">boost/graph/king_ordering.hpp</text>
</a>
</g>
</g>
<!-- Node1&#45;&gt;Node10 -->
<g id="edge9_Node000001_Node000010" class="edge">
<title>Node1&#45;&gt;Node10</title>
<g id="a_edge9_Node000001_Node000010"><a xlink:title=" ">
<path fill="none" stroke="#63b8ff" d="M428.37,-129.1C530.85,-120.86 718.45,-104.71 878,-85 887.52,-83.82 897.57,-82.44 907.4,-81.01"/>
<polygon fill="#63b8ff" stroke="#63b8ff" points="908.15,-84.44 917.53,-79.51 907.12,-77.51 908.15,-84.44"/>
</a>
</g>
</g>
<!-- Node11 -->
<g id="Node000011" class="node">
<title>Node11</title>
<g id="a_Node000011"><a xlink:href="crs__map_8hpp.html" target="_top" xlink:title=" ">
<polygon fill="white" stroke="#666666" points="295.5,-85 178.5,-85 178.5,-55 295.5,-55 295.5,-85"/>
<text text-anchor="start" x="186.5" y="-73" font-family="Helvetica,sans-Serif" font-size="10.00">vulpes/datastructure</text>
<text text-anchor="middle" x="237" y="-62" font-family="Helvetica,sans-Serif" font-size="10.00">/crs_map.hpp</text>
</a>
</g>
</g>
<!-- Node1&#45;&gt;Node11 -->
<g id="edge10_Node000001_Node000011" class="edge">
<title>Node1&#45;&gt;Node11</title>
<g id="a_edge10_Node000001_Node000011"><a xlink:title=" ">
<path fill="none" stroke="#63b8ff" d="M326.76,-120.95C310.43,-111.87 288.98,-99.93 271.13,-90"/>
<polygon fill="#63b8ff" stroke="#63b8ff" points="272.62,-86.82 262.18,-85.01 269.21,-92.93 272.62,-86.82"/>
</a>
</g>
</g>
<!-- Node11&#45;&gt;Node2 -->
<g id="edge11_Node000011_Node000002" class="edge">
<title>Node11&#45;&gt;Node2</title>
<g id="a_edge11_Node000011_Node000002"><a xlink:title=" ">
<path fill="none" stroke="#63b8ff" d="M187.9,-54.99C152.37,-44.85 104.96,-31.32 71.78,-21.85"/>
<polygon fill="#63b8ff" stroke="#63b8ff" points="72.55,-18.43 61.97,-19.05 70.63,-25.16 72.55,-18.43"/>
</a>
</g>
</g>
<!-- Node11&#45;&gt;Node3 -->
<g id="edge13_Node000011_Node000003" class="edge">
<title>Node11&#45;&gt;Node3</title>
<g id="a_edge13_Node000011_Node000003"><a xlink:title=" ">
<path fill="none" stroke="#63b8ff" d="M206.1,-54.99C184.87,-45.36 156.89,-32.67 136.25,-23.31"/>
<polygon fill="#63b8ff" stroke="#63b8ff" points="137.6,-20.08 127.05,-19.14 134.71,-26.46 137.6,-20.08"/>
</a>
</g>
</g>
<!-- Node11&#45;&gt;Node5 -->
<g id="edge15_Node000011_Node000005" class="edge">
<title>Node11&#45;&gt;Node5</title>
<g id="a_edge15_Node000011_Node000005"><a xlink:title=" ">
<path fill="none" stroke="#63b8ff" d="M221.99,-54.84C212.81,-46.17 201.05,-35.08 191.59,-26.15"/>
<polygon fill="#63b8ff" stroke="#63b8ff" points="193.97,-23.58 184.29,-19.27 189.16,-28.67 193.97,-23.58"/>
</a>
</g>
</g>
<!-- Node11&#45;&gt;Node6 -->
<g id="edge17_Node000011_Node000006" class="edge">
<title>Node11&#45;&gt;Node6</title>
<g id="a_edge17_Node000011_Node000006"><a xlink:title=" ">
<path fill="none" stroke="#63b8ff" d="M286.58,-54.99C324.95,-44.14 377.04,-29.42 410.59,-19.94"/>
<polygon fill="#63b8ff" stroke="#63b8ff" points="411.7,-23.26 420.38,-17.18 409.8,-16.53 411.7,-23.26"/>
</a>
</g>
</g>
<!-- Node12 -->
<g id="Node000012" class="node">
<title>Node12</title>
<g id="a_Node000012"><a xlink:title=" ">
<polygon fill="#e0e0e0" stroke="#999999" points="258,-19 216,-19 216,0 258,0 258,-19"/>
<text text-anchor="middle" x="237" y="-7" font-family="Helvetica,sans-Serif" font-size="10.00">array</text>
</a>
</g>
</g>
<!-- Node11&#45;&gt;Node12 -->
<g id="edge12_Node000011_Node000012" class="edge">
<title>Node11&#45;&gt;Node12</title>
<g id="a_edge12_Node000011_Node000012"><a xlink:title=" ">
<path fill="none" stroke="#63b8ff" d="M237,-54.84C237,-47.21 237,-37.7 237,-29.45"/>
<polygon fill="#63b8ff" stroke="#63b8ff" points="240.5,-29.27 237,-19.27 233.5,-29.27 240.5,-29.27"/>
</a>
</g>
</g>
<!-- Node13 -->
<g id="Node000013" class="node">
<title>Node13</title>
<g id="a_Node000013"><a xlink:title=" ">
<polygon fill="#e0e0e0" stroke="#999999" points="333.5,-19 276.5,-19 276.5,0 333.5,0 333.5,-19"/>
<text text-anchor="middle" x="305" y="-7" font-family="Helvetica,sans-Serif" font-size="10.00">ostream</text>
</a>
</g>
</g>
<!-- Node11&#45;&gt;Node13 -->
<g id="edge14_Node000011_Node000013" class="edge">
<title>Node11&#45;&gt;Node13</title>
<g id="a_edge14_Node000011_Node000013"><a xlink:title=" ">
<path fill="none" stroke="#63b8ff" d="M253.46,-54.84C263.63,-46.09 276.69,-34.85 287.12,-25.88"/>
<polygon fill="#63b8ff" stroke="#63b8ff" points="289.51,-28.44 294.81,-19.27 284.95,-23.13 289.51,-28.44"/>
</a>
</g>
</g>
<!-- Node14 -->
<g id="Node000014" class="node">
<title>Node14</title>
<g id="a_Node000014"><a xlink:title=" ">
<polygon fill="#e0e0e0" stroke="#999999" points="402.5,-19 351.5,-19 351.5,0 402.5,0 402.5,-19"/>
<text text-anchor="middle" x="377" y="-7" font-family="Helvetica,sans-Serif" font-size="10.00">variant</text>
</a>
</g>
</g>
<!-- Node11&#45;&gt;Node14 -->
<g id="edge16_Node000011_Node000014" class="edge">
<title>Node11&#45;&gt;Node14</title>
<g id="a_edge16_Node000011_Node000014"><a xlink:title=" ">
<path fill="none" stroke="#63b8ff" d="M270.53,-54.99C293.79,-45.27 324.49,-32.44 346.95,-23.06"/>
<polygon fill="#63b8ff" stroke="#63b8ff" points="348.45,-26.22 356.32,-19.14 345.75,-19.77 348.45,-26.22"/>
</a>
</g>
</g>
</g>
</svg>
