<?xml version="1.0" encoding="UTF-8" standalone="no"?>
<!DOCTYPE svg PUBLIC "-//W3C//DTD SVG 1.1//EN"
 "http://www.w3.org/Graphics/SVG/1.1/DTD/svg11.dtd">
<!-- Generated by graphviz version 2.42.4 (0)
 -->
<!-- Title: /__w/vulpes/vulpes/vulpes/dofs/numbering.hpp Pages: 1 -->
<svg width="376pt" height="192pt"
 viewBox="0.00 0.00 375.50 192.00" xmlns="http://www.w3.org/2000/svg" xmlns:xlink="http://www.w3.org/1999/xlink">
<g id="graph0" class="graph" transform="scale(1 1) rotate(0) translate(4 188)">
<title>/__w/vulpes/vulpes/vulpes/dofs/numbering.hpp</title>
<!-- Node1 -->
<g id="Node000001" class="node">
<title>Node1</title>
<g id="a_Node000001"><a xlink:title=" ">
<polygon fill="#999999" stroke="#666666" points="288.5,-184 136.5,-184 136.5,-154 288.5,-154 288.5,-184"/>
<text text-anchor="start" x="144.5" y="-172" font-family="Helvetica,sans-Serif" font-size="10.00">/__w/vulpes/vulpes</text>
<text text-anchor="middle" x="212.5" y="-161" font-family="Helvetica,sans-Serif" font-size="10.00">/vulpes/dofs/numbering.hpp</text>
</a>
</g>
</g>
<!-- Node2 -->
<g id="Node000002" class="node">
<title>Node2</title>
<g id="a_Node000002"><a xlink:href="dof__handler_8hpp.html" target="_top" xlink:title=" ">
<polygon fill="white" stroke="#666666" points="207,-112.5 50,-112.5 50,-82.5 207,-82.5 207,-112.5"/>
<text text-anchor="start" x="58" y="-100.5" font-family="Helvetica,sans-Serif" font-size="10.00">/__w/vulpes/vulpes</text>
<text text-anchor="middle" x="128.5" y="-89.5" font-family="Helvetica,sans-Serif" font-size="10.00">/vulpes/dofs/dof_handler.hpp</text>
</a>
</g>
</g>
<!-- Node1&#45;&gt;Node2 -->
<g id="edge1_Node000001_Node000002" class="edge">
<title>Node1&#45;&gt;Node2</title>
<g id="a_edge1_Node000001_Node000002"><a xlink:title=" ">
<path fill="none" stroke="#63b8ff" d="M187.49,-147.31C173.93,-136.09 157.54,-122.52 145.47,-112.54"/>
<polygon fill="#63b8ff" stroke="#63b8ff" points="185.57,-150.26 195.5,-153.94 190.03,-144.86 185.57,-150.26"/>
</a>
</g>
</g>
<!-- Node5 -->
<g id="Node000005" class="node">
<title>Node5</title>
<g id="a_Node000005"><a xlink:href="parallel__mesh_8hpp.html" target="_top" xlink:title=" ">
<polygon fill="white" stroke="#666666" points="367.5,-118 225.5,-118 225.5,-77 367.5,-77 367.5,-118"/>
<text text-anchor="start" x="233.5" y="-106" font-family="Helvetica,sans-Serif" font-size="10.00">/__w/vulpes/vulpes</text>
<text text-anchor="start" x="233.5" y="-95" font-family="Helvetica,sans-Serif" font-size="10.00">/vulpes/geometry/parallel</text>
<text text-anchor="middle" x="296.5" y="-84" font-family="Helvetica,sans-Serif" font-size="10.00">_mesh.hpp</text>
</a>
</g>
</g>
<!-- Node1&#45;&gt;Node5 -->
<g id="edge4_Node000001_Node000005" class="edge">
<title>Node1&#45;&gt;Node5</title>
<g id="a_edge4_Node000001_Node000005"><a xlink:title=" ">
<path fill="none" stroke="#63b8ff" d="M237.27,-147.5C248.51,-138.21 261.74,-127.26 272.84,-118.07"/>
<polygon fill="#63b8ff" stroke="#63b8ff" points="234.97,-144.86 229.5,-153.94 239.43,-150.26 234.97,-144.86"/>
</a>
</g>
</g>
<!-- Node3 -->
<g id="Node000003" class="node">
<title>Node3</title>
<g id="a_Node000003"><a xlink:href="dg__utils_8hpp.html" target="_top" xlink:title=" ">
<polygon fill="white" stroke="#666666" points="117,-41 0,-41 0,0 117,0 117,-41"/>
<text text-anchor="start" x="8" y="-29" font-family="Helvetica,sans-Serif" font-size="10.00">/__w/vulpes/vulpes</text>
<text text-anchor="start" x="8" y="-18" font-family="Helvetica,sans-Serif" font-size="10.00">/vulpes/assemble/dg</text>
<text text-anchor="middle" x="58.5" y="-7" font-family="Helvetica,sans-Serif" font-size="10.00">_utils.hpp</text>
</a>
</g>
</g>
<!-- Node2&#45;&gt;Node3 -->
<g id="edge2_Node000002_Node000003" class="edge">
<title>Node2&#45;&gt;Node3</title>
<g id="a_edge2_Node000002_Node000003"><a xlink:title=" ">
<path fill="none" stroke="#63b8ff" d="M108.5,-75.07C98.55,-64.41 86.61,-51.62 76.89,-41.2"/>
<polygon fill="#63b8ff" stroke="#63b8ff" points="105.95,-77.47 115.33,-82.39 111.07,-72.69 105.95,-77.47"/>
</a>
</g>
</g>
<!-- Node4 -->
<g id="Node000004" class="node">
<title>Node4</title>
<g id="a_Node000004"><a xlink:href="project__solution_8hpp.html" target="_top" xlink:title=" ">
<polygon fill="white" stroke="#666666" points="263.5,-41 135.5,-41 135.5,0 263.5,0 263.5,-41"/>
<text text-anchor="start" x="143.5" y="-29" font-family="Helvetica,sans-Serif" font-size="10.00">/__w/vulpes/vulpes</text>
<text text-anchor="start" x="143.5" y="-18" font-family="Helvetica,sans-Serif" font-size="10.00">/vulpes/postprocessing</text>
<text text-anchor="middle" x="199.5" y="-7" font-family="Helvetica,sans-Serif" font-size="10.00">/project_solution.hpp</text>
</a>
</g>
</g>
<!-- Node2&#45;&gt;Node4 -->
<g id="edge3_Node000002_Node000004" class="edge">
<title>Node2&#45;&gt;Node4</title>
<g id="a_edge3_Node000002_Node000004"><a xlink:title=" ">
<path fill="none" stroke="#63b8ff" d="M148.78,-75.07C158.87,-64.41 170.99,-51.62 180.85,-41.2"/>
<polygon fill="#63b8ff" stroke="#63b8ff" points="146.19,-72.72 141.85,-82.39 151.27,-77.54 146.19,-72.72"/>
</a>
</g>
</g>
</g>
</svg>
