<?xml version="1.0" encoding="UTF-8" standalone="no"?>
<!DOCTYPE svg PUBLIC "-//W3C//DTD SVG 1.1//EN"
 "http://www.w3.org/Graphics/SVG/1.1/DTD/svg11.dtd">
<!-- Generated by graphviz version 2.43.0 (0)
 -->
<!-- Title: /__w/vulpes/vulpes/vulpes/geometry/parallel_mesh.hpp Pages: 1 -->
<svg width="1882pt" height="236pt"
 viewBox="0.00 0.00 1881.50 236.00" xmlns="http://www.w3.org/2000/svg" xmlns:xlink="http://www.w3.org/1999/xlink">
<g id="graph0" class="graph" transform="scale(1 1) rotate(0) translate(4 232)">
<title>/__w/vulpes/vulpes/vulpes/geometry/parallel_mesh.hpp</title>
<!-- Node1 -->
<g id="Node000001" class="node">
<title>Node1</title>
<g id="a_Node000001"><a xlink:title=" ">
<polygon fill="#999999" stroke="#666666" points="1322,-228 1180,-228 1180,-187 1322,-187 1322,-228"/>
<text text-anchor="start" x="1188" y="-216" font-family="Helvetica,sans-Serif" font-size="10.00">/__w/vulpes/vulpes</text>
<text text-anchor="start" x="1188" y="-205" font-family="Helvetica,sans-Serif" font-size="10.00">/vulpes/geometry/parallel</text>
<text text-anchor="middle" x="1251" y="-194" font-family="Helvetica,sans-Serif" font-size="10.00">_mesh.hpp</text>
</a>
</g>
</g>
<!-- Node2 -->
<g id="Node000002" class="node">
<title>Node2</title>
<g id="a_Node000002"><a xlink:title=" ">
<polygon fill="#e0e0e0" stroke="#999999" points="91.5,-145.5 22.5,-145.5 22.5,-126.5 91.5,-126.5 91.5,-145.5"/>
<text text-anchor="middle" x="57" y="-133.5" font-family="Helvetica,sans-Serif" font-size="10.00">parmetis.h</text>
</a>
</g>
</g>
<!-- Node1&#45;&gt;Node2 -->
<g id="edge1_Node000001_Node000002" class="edge">
<title>Node1&#45;&gt;Node2</title>
<g id="a_edge1_Node000001_Node000002"><a xlink:title=" ">
<path fill="none" stroke="#63b8ff" d="M1179.98,-205.19C963.55,-200.87 314.27,-185.33 106,-151 101.56,-150.27 96.95,-149.27 92.41,-148.15"/>
<polygon fill="#63b8ff" stroke="#63b8ff" points="93.25,-144.75 82.69,-145.54 91.43,-151.51 93.25,-144.75"/>
</a>
</g>
</g>
<!-- Node3 -->
<g id="Node000003" class="node">
<title>Node3</title>
<g id="a_Node000003"><a xlink:title=" ">
<polygon fill="#e0e0e0" stroke="#999999" points="1329,-79.5 1269,-79.5 1269,-60.5 1329,-60.5 1329,-79.5"/>
<text text-anchor="middle" x="1299" y="-67.5" font-family="Helvetica,sans-Serif" font-size="10.00">iostream</text>
</a>
</g>
</g>
<!-- Node1&#45;&gt;Node3 -->
<g id="edge2_Node000001_Node000003" class="edge">
<title>Node1&#45;&gt;Node3</title>
<g id="a_edge2_Node000001_Node000003"><a xlink:title=" ">
<path fill="none" stroke="#63b8ff" d="M1257.98,-186.8C1267.26,-160.59 1283.54,-114.63 1292.55,-89.21"/>
<polygon fill="#63b8ff" stroke="#63b8ff" points="1295.88,-90.28 1295.92,-79.69 1289.28,-87.94 1295.88,-90.28"/>
</a>
</g>
</g>
<!-- Node4 -->
<g id="Node000004" class="node">
<title>Node4</title>
<g id="a_Node000004"><a xlink:title=" ">
<polygon fill="#e0e0e0" stroke="#999999" points="1540,-145.5 1482,-145.5 1482,-126.5 1540,-126.5 1540,-145.5"/>
<text text-anchor="middle" x="1511" y="-133.5" font-family="Helvetica,sans-Serif" font-size="10.00">memory</text>
</a>
</g>
</g>
<!-- Node1&#45;&gt;Node4 -->
<g id="edge3_Node000001_Node000004" class="edge">
<title>Node1&#45;&gt;Node4</title>
<g id="a_edge3_Node000001_Node000004"><a xlink:title=" ">
<path fill="none" stroke="#63b8ff" d="M1322.02,-190.81C1365.86,-180.61 1423.08,-166.39 1473,-151 1475.13,-150.34 1477.31,-149.64 1479.51,-148.9"/>
<polygon fill="#63b8ff" stroke="#63b8ff" points="1480.76,-152.17 1489.03,-145.55 1478.44,-145.56 1480.76,-152.17"/>
</a>
</g>
</g>
<!-- Node5 -->
<g id="Node000005" class="node">
<title>Node5</title>
<g id="a_Node000005"><a xlink:title=" ">
<polygon fill="#e0e0e0" stroke="#999999" points="1181.5,-19 1136.5,-19 1136.5,0 1181.5,0 1181.5,-19"/>
<text text-anchor="middle" x="1159" y="-7" font-family="Helvetica,sans-Serif" font-size="10.00">utility</text>
</a>
</g>
</g>
<!-- Node1&#45;&gt;Node5 -->
<g id="edge4_Node000001_Node000005" class="edge">
<title>Node1&#45;&gt;Node5</title>
<g id="a_edge4_Node000001_Node000005"><a xlink:title=" ">
<path fill="none" stroke="#63b8ff" d="M1241.84,-186.99C1223.97,-148.92 1184.69,-65.24 1167.43,-28.45"/>
<polygon fill="#63b8ff" stroke="#63b8ff" points="1170.41,-26.58 1163,-19.02 1164.08,-29.56 1170.41,-26.58"/>
</a>
</g>
</g>
<!-- Node6 -->
<g id="Node000006" class="node">
<title>Node6</title>
<g id="a_Node000006"><a xlink:title=" ">
<polygon fill="#e0e0e0" stroke="#999999" points="341.5,-19 294.5,-19 294.5,0 341.5,0 341.5,-19"/>
<text text-anchor="middle" x="318" y="-7" font-family="Helvetica,sans-Serif" font-size="10.00">vector</text>
</a>
</g>
</g>
<!-- Node1&#45;&gt;Node6 -->
<g id="edge5_Node000001_Node000006" class="edge">
<title>Node1&#45;&gt;Node6</title>
<g id="a_edge5_Node000001_Node000006"><a xlink:title=" ">
<path fill="none" stroke="#63b8ff" d="M1179.67,-203.39C959.95,-193.05 304.57,-156.44 244,-85 235.38,-74.83 237.44,-66.61 244,-55 252.86,-39.33 269.69,-28.57 285.06,-21.56"/>
<polygon fill="#63b8ff" stroke="#63b8ff" points="286.49,-24.76 294.36,-17.67 283.79,-18.3 286.49,-24.76"/>
</a>
</g>
</g>
<!-- Node7 -->
<g id="Node000007" class="node">
<title>Node7</title>
<g id="a_Node000007"><a xlink:title=" ">
<polygon fill="#e0e0e0" stroke="#999999" points="1706.5,-151 1557.5,-151 1557.5,-121 1706.5,-121 1706.5,-151"/>
<text text-anchor="start" x="1565.5" y="-139" font-family="Helvetica,sans-Serif" font-size="10.00">boost/unordered/unordered</text>
<text text-anchor="middle" x="1632" y="-128" font-family="Helvetica,sans-Serif" font-size="10.00">_flat_map.hpp</text>
</a>
</g>
</g>
<!-- Node1&#45;&gt;Node7 -->
<g id="edge6_Node000001_Node000007" class="edge">
<title>Node1&#45;&gt;Node7</title>
<g id="a_edge6_Node000001_Node000007"><a xlink:title=" ">
<path fill="none" stroke="#63b8ff" d="M1322.22,-193.51C1385.93,-181.89 1479.43,-164.83 1547.03,-152.5"/>
<polygon fill="#63b8ff" stroke="#63b8ff" points="1548.02,-155.88 1557.23,-150.64 1546.76,-148.99 1548.02,-155.88"/>
</a>
</g>
</g>
<!-- Node8 -->
<g id="Node000008" class="node">
<title>Node8</title>
<g id="a_Node000008"><a xlink:title=" ">
<polygon fill="#e0e0e0" stroke="#999999" points="1873.5,-151 1724.5,-151 1724.5,-121 1873.5,-121 1873.5,-151"/>
<text text-anchor="start" x="1732.5" y="-139" font-family="Helvetica,sans-Serif" font-size="10.00">boost/unordered/unordered</text>
<text text-anchor="middle" x="1799" y="-128" font-family="Helvetica,sans-Serif" font-size="10.00">_flat_set.hpp</text>
</a>
</g>
</g>
<!-- Node1&#45;&gt;Node8 -->
<g id="edge7_Node000001_Node000008" class="edge">
<title>Node1&#45;&gt;Node8</title>
<g id="a_edge7_Node000001_Node000008"><a xlink:title=" ">
<path fill="none" stroke="#63b8ff" d="M1322.04,-199.1C1411.32,-189.56 1569.48,-171.86 1714.4,-151.19"/>
<polygon fill="#63b8ff" stroke="#63b8ff" points="1714.97,-154.65 1724.37,-149.76 1713.97,-147.72 1714.97,-154.65"/>
</a>
</g>
</g>
<!-- Node9 -->
<g id="Node000009" class="node">
<title>Node9</title>
<g id="a_Node000009"><a xlink:href="numbering_8hpp.html" target="_top" xlink:title=" ">
<polygon fill="white" stroke="#666666" points="800.5,-145.5 651.5,-145.5 651.5,-126.5 800.5,-126.5 800.5,-145.5"/>
<text text-anchor="middle" x="726" y="-133.5" font-family="Helvetica,sans-Serif" font-size="10.00">vulpes/dofs/numbering.hpp</text>
</a>
</g>
</g>
<!-- Node1&#45;&gt;Node9 -->
<g id="edge8_Node000001_Node000009" class="edge">
<title>Node1&#45;&gt;Node9</title>
<g id="a_edge8_Node000001_Node000009"><a xlink:title=" ">
<path fill="none" stroke="#63b8ff" d="M1179.92,-197.09C1080.67,-183.95 901.39,-160.22 800.39,-146.85"/>
<polygon fill="#63b8ff" stroke="#63b8ff" points="800.64,-143.35 790.27,-145.51 799.72,-150.29 800.64,-143.35"/>
</a>
</g>
</g>
<!-- Node21 -->
<g id="Node000021" class="node">
<title>Node21</title>
<g id="a_Node000021"><a xlink:href="mpi__wrappers_8hpp.html" target="_top" xlink:title=" ">
<polygon fill="white" stroke="#666666" points="1464,-145.5 1298,-145.5 1298,-126.5 1464,-126.5 1464,-145.5"/>
<text text-anchor="middle" x="1381" y="-133.5" font-family="Helvetica,sans-Serif" font-size="10.00">vulpes/utils/mpi_wrappers.hpp</text>
</a>
</g>
</g>
<!-- Node1&#45;&gt;Node21 -->
<g id="edge26_Node000001_Node000021" class="edge">
<title>Node1&#45;&gt;Node21</title>
<g id="a_edge26_Node000001_Node000021"><a xlink:title=" ">
<path fill="none" stroke="#63b8ff" d="M1287.56,-186.96C1309.5,-175.22 1336.83,-160.61 1356.25,-150.23"/>
<polygon fill="#63b8ff" stroke="#63b8ff" points="1357.93,-153.3 1365.09,-145.5 1354.63,-147.13 1357.93,-153.3"/>
</a>
</g>
</g>
<!-- Node25 -->
<g id="Node000025" class="node">
<title>Node25</title>
<g id="a_Node000025"><a xlink:href="vvutils_8hpp.html" target="_top" xlink:title=" ">
<polygon fill="white" stroke="#666666" points="130,-79.5 0,-79.5 0,-60.5 130,-60.5 130,-79.5"/>
<text text-anchor="middle" x="65" y="-67.5" font-family="Helvetica,sans-Serif" font-size="10.00">vulpes/utils/vvutils.hpp</text>
</a>
</g>
</g>
<!-- Node1&#45;&gt;Node25 -->
<g id="edge34_Node000001_Node000025" class="edge">
<title>Node1&#45;&gt;Node25</title>
<g id="a_edge34_Node000001_Node000025"><a xlink:title=" ">
<path fill="none" stroke="#63b8ff" d="M1179.78,-205.91C950.06,-203.61 238.07,-193.11 144,-151 113.99,-137.57 89.27,-107.18 75.87,-87.96"/>
<polygon fill="#63b8ff" stroke="#63b8ff" points="78.71,-85.9 70.23,-79.55 72.89,-89.8 78.71,-85.9"/>
</a>
</g>
</g>
<!-- Node9&#45;&gt;Node5 -->
<g id="edge12_Node000009_Node000005" class="edge">
<title>Node9&#45;&gt;Node5</title>
<g id="a_edge12_Node000009_Node000005"><a xlink:title=" ">
<path fill="none" stroke="#63b8ff" d="M800.95,-130.82C914.7,-123.78 1120.39,-108.02 1145,-85 1159.92,-71.05 1161.89,-46.64 1161.14,-29.57"/>
<polygon fill="#63b8ff" stroke="#63b8ff" points="1164.59,-28.84 1160.3,-19.15 1157.61,-29.4 1164.59,-28.84"/>
</a>
</g>
</g>
<!-- Node9&#45;&gt;Node6 -->
<g id="edge13_Node000009_Node000006" class="edge">
<title>Node9&#45;&gt;Node6</title>
<g id="a_edge13_Node000009_Node000006"><a xlink:title=" ">
<path fill="none" stroke="#63b8ff" d="M651.38,-132.49C524.8,-127.45 279.12,-114.02 253,-85 244.08,-75.09 246.78,-66.79 253,-55 260.24,-41.27 273.83,-30.97 286.72,-23.76"/>
<polygon fill="#63b8ff" stroke="#63b8ff" points="288.59,-26.73 295.88,-19.05 285.39,-20.51 288.59,-26.73"/>
</a>
</g>
</g>
<!-- Node10 -->
<g id="Node000010" class="node">
<title>Node10</title>
<g id="a_Node000010"><a xlink:title=" ">
<polygon fill="#e0e0e0" stroke="#999999" points="201,-19 137,-19 137,0 201,0 201,-19"/>
<text text-anchor="middle" x="169" y="-7" font-family="Helvetica,sans-Serif" font-size="10.00">algorithm</text>
</a>
</g>
</g>
<!-- Node9&#45;&gt;Node10 -->
<g id="edge9_Node000009_Node000010" class="edge">
<title>Node9&#45;&gt;Node10</title>
<g id="a_edge9_Node000009_Node000010"><a xlink:title=" ">
<path fill="none" stroke="#63b8ff" d="M651.09,-133.27C534.12,-129.57 314.22,-118.29 244,-85 216.89,-72.15 193.81,-45.32 180.68,-27.62"/>
<polygon fill="#63b8ff" stroke="#63b8ff" points="183.41,-25.41 174.75,-19.31 177.71,-29.48 183.41,-25.41"/>
</a>
</g>
</g>
<!-- Node11 -->
<g id="Node000011" class="node">
<title>Node11</title>
<g id="a_Node000011"><a xlink:title=" ">
<polygon fill="#e0e0e0" stroke="#999999" points="1252,-19 1200,-19 1200,0 1252,0 1252,-19"/>
<text text-anchor="middle" x="1226" y="-7" font-family="Helvetica,sans-Serif" font-size="10.00">cassert</text>
</a>
</g>
</g>
<!-- Node9&#45;&gt;Node11 -->
<g id="edge10_Node000009_Node000011" class="edge">
<title>Node9&#45;&gt;Node11</title>
<g id="a_edge10_Node000009_Node000011"><a xlink:title=" ">
<path fill="none" stroke="#63b8ff" d="M800.78,-133.39C909.75,-129.89 1105.87,-118.95 1167,-85 1190.15,-72.14 1207.46,-46.12 1217.16,-28.5"/>
<polygon fill="#63b8ff" stroke="#63b8ff" points="1220.46,-29.74 1221.97,-19.26 1214.25,-26.51 1220.46,-29.74"/>
</a>
</g>
</g>
<!-- Node12 -->
<g id="Node000012" class="node">
<title>Node12</title>
<g id="a_Node000012"><a xlink:title=" ">
<polygon fill="#e0e0e0" stroke="#999999" points="502,-79.5 446,-79.5 446,-60.5 502,-60.5 502,-79.5"/>
<text text-anchor="middle" x="474" y="-67.5" font-family="Helvetica,sans-Serif" font-size="10.00">numeric</text>
</a>
</g>
</g>
<!-- Node9&#45;&gt;Node12 -->
<g id="edge11_Node000009_Node000012" class="edge">
<title>Node9&#45;&gt;Node12</title>
<g id="a_edge11_Node000009_Node000012"><a xlink:title=" ">
<path fill="none" stroke="#63b8ff" d="M681.49,-126.45C637.68,-117.62 569.12,-102.67 511,-85 509.08,-84.42 507.11,-83.78 505.14,-83.12"/>
<polygon fill="#63b8ff" stroke="#63b8ff" points="505.95,-79.69 495.35,-79.63 503.6,-86.29 505.95,-79.69"/>
</a>
</g>
</g>
<!-- Node13 -->
<g id="Node000013" class="node">
<title>Node13</title>
<g id="a_Node000013"><a xlink:title=" ">
<polygon fill="#e0e0e0" stroke="#999999" points="647.5,-85 520.5,-85 520.5,-55 647.5,-55 647.5,-85"/>
<text text-anchor="start" x="528.5" y="-73" font-family="Helvetica,sans-Serif" font-size="10.00">boost/graph/adjacency</text>
<text text-anchor="middle" x="584" y="-62" font-family="Helvetica,sans-Serif" font-size="10.00">_list.hpp</text>
</a>
</g>
</g>
<!-- Node9&#45;&gt;Node13 -->
<g id="edge14_Node000009_Node000013" class="edge">
<title>Node9&#45;&gt;Node13</title>
<g id="a_edge14_Node000009_Node000013"><a xlink:title=" ">
<path fill="none" stroke="#63b8ff" d="M706.85,-126.37C685.86,-116.91 651.57,-101.45 624.54,-89.27"/>
<polygon fill="#63b8ff" stroke="#63b8ff" points="625.87,-86.03 615.32,-85.12 623,-92.42 625.87,-86.03"/>
</a>
</g>
</g>
<!-- Node14 -->
<g id="Node000014" class="node">
<title>Node14</title>
<g id="a_Node000014"><a xlink:title=" ">
<polygon fill="#e0e0e0" stroke="#999999" points="786.5,-85 665.5,-85 665.5,-55 786.5,-55 786.5,-85"/>
<text text-anchor="start" x="673.5" y="-73" font-family="Helvetica,sans-Serif" font-size="10.00">boost/graph/cuthill</text>
<text text-anchor="middle" x="726" y="-62" font-family="Helvetica,sans-Serif" font-size="10.00">_mckee_ordering.hpp</text>
</a>
</g>
</g>
<!-- Node9&#45;&gt;Node14 -->
<g id="edge15_Node000009_Node000014" class="edge">
<title>Node9&#45;&gt;Node14</title>
<g id="a_edge15_Node000009_Node000014"><a xlink:title=" ">
<path fill="none" stroke="#63b8ff" d="M726,-126.37C726,-118.49 726,-106.45 726,-95.6"/>
<polygon fill="#63b8ff" stroke="#63b8ff" points="729.5,-95.36 726,-85.36 722.5,-95.36 729.5,-95.36"/>
</a>
</g>
</g>
<!-- Node15 -->
<g id="Node000015" class="node">
<title>Node15</title>
<g id="a_Node000015"><a xlink:title=" ">
<polygon fill="#e0e0e0" stroke="#999999" points="963,-79.5 805,-79.5 805,-60.5 963,-60.5 963,-79.5"/>
<text text-anchor="middle" x="884" y="-67.5" font-family="Helvetica,sans-Serif" font-size="10.00">boost/graph/graph_utility.hpp</text>
</a>
</g>
</g>
<!-- Node9&#45;&gt;Node15 -->
<g id="edge16_Node000009_Node000015" class="edge">
<title>Node9&#45;&gt;Node15</title>
<g id="a_edge16_Node000009_Node000015"><a xlink:title=" ">
<path fill="none" stroke="#63b8ff" d="M747.31,-126.37C774.6,-115.32 822.07,-96.08 853.27,-83.45"/>
<polygon fill="#63b8ff" stroke="#63b8ff" points="854.82,-86.59 862.78,-79.6 852.19,-80.11 854.82,-86.59"/>
</a>
</g>
</g>
<!-- Node16 -->
<g id="Node000016" class="node">
<title>Node16</title>
<g id="a_Node000016"><a xlink:title=" ">
<polygon fill="#e0e0e0" stroke="#999999" points="427.5,-79.5 262.5,-79.5 262.5,-60.5 427.5,-60.5 427.5,-79.5"/>
<text text-anchor="middle" x="345" y="-67.5" font-family="Helvetica,sans-Serif" font-size="10.00">boost/graph/king_ordering.hpp</text>
</a>
</g>
</g>
<!-- Node9&#45;&gt;Node16 -->
<g id="edge17_Node000009_Node000016" class="edge">
<title>Node9&#45;&gt;Node16</title>
<g id="a_edge17_Node000009_Node000016"><a xlink:title=" ">
<path fill="none" stroke="#63b8ff" d="M675.01,-126.44C605.29,-114.72 480.39,-93.74 405.86,-81.22"/>
<polygon fill="#63b8ff" stroke="#63b8ff" points="406.13,-77.72 395.69,-79.51 404.97,-84.62 406.13,-77.72"/>
</a>
</g>
</g>
<!-- Node17 -->
<g id="Node000017" class="node">
<title>Node17</title>
<g id="a_Node000017"><a xlink:href="crs__map_8hpp.html" target="_top" xlink:title=" ">
<polygon fill="white" stroke="#666666" points="1136.5,-85 1019.5,-85 1019.5,-55 1136.5,-55 1136.5,-85"/>
<text text-anchor="start" x="1027.5" y="-73" font-family="Helvetica,sans-Serif" font-size="10.00">vulpes/datastructure</text>
<text text-anchor="middle" x="1078" y="-62" font-family="Helvetica,sans-Serif" font-size="10.00">/crs_map.hpp</text>
</a>
</g>
</g>
<!-- Node9&#45;&gt;Node17 -->
<g id="edge18_Node000009_Node000017" class="edge">
<title>Node9&#45;&gt;Node17</title>
<g id="a_edge18_Node000009_Node000017"><a xlink:title=" ">
<path fill="none" stroke="#63b8ff" d="M773.11,-126.44C833.82,-115.4 939.82,-96.12 1009.46,-83.46"/>
<polygon fill="#63b8ff" stroke="#63b8ff" points="1010.25,-86.88 1019.46,-81.64 1008.99,-79.99 1010.25,-86.88"/>
</a>
</g>
</g>
<!-- Node17&#45;&gt;Node5 -->
<g id="edge23_Node000017_Node000005" class="edge">
<title>Node17&#45;&gt;Node5</title>
<g id="a_edge23_Node000017_Node000005"><a xlink:title=" ">
<path fill="none" stroke="#63b8ff" d="M1097.61,-54.84C1109.97,-45.91 1125.9,-34.41 1138.43,-25.35"/>
<polygon fill="#63b8ff" stroke="#63b8ff" points="1140.8,-27.96 1146.86,-19.27 1136.71,-22.28 1140.8,-27.96"/>
</a>
</g>
</g>
<!-- Node17&#45;&gt;Node6 -->
<g id="edge25_Node000017_Node000006" class="edge">
<title>Node17&#45;&gt;Node6</title>
<g id="a_edge25_Node000017_Node000006"><a xlink:title=" ">
<path fill="none" stroke="#63b8ff" d="M1019.13,-57.06C1014.36,-56.29 1009.61,-55.59 1005,-55 755.35,-23.1 451.57,-13.57 351.63,-11.19"/>
<polygon fill="#63b8ff" stroke="#63b8ff" points="351.61,-7.69 341.53,-10.96 351.45,-14.69 351.61,-7.69"/>
</a>
</g>
</g>
<!-- Node17&#45;&gt;Node10 -->
<g id="edge19_Node000017_Node000010" class="edge">
<title>Node17&#45;&gt;Node10</title>
<g id="a_edge19_Node000017_Node000010"><a xlink:title=" ">
<path fill="none" stroke="#63b8ff" d="M1019.23,-60.34C1003.88,-58.33 987.35,-56.37 972,-55 637.6,-25.07 548.11,-60.83 211.19,-18.93"/>
<polygon fill="#63b8ff" stroke="#63b8ff" points="211.51,-15.44 201.15,-17.66 210.63,-22.38 211.51,-15.44"/>
</a>
</g>
</g>
<!-- Node17&#45;&gt;Node11 -->
<g id="edge21_Node000017_Node000011" class="edge">
<title>Node17&#45;&gt;Node11</title>
<g id="a_edge21_Node000017_Node000011"><a xlink:title=" ">
<path fill="none" stroke="#63b8ff" d="M1113.45,-54.99C1138.14,-45.23 1170.78,-32.33 1194.55,-22.93"/>
<polygon fill="#63b8ff" stroke="#63b8ff" points="1196.13,-26.07 1204.14,-19.14 1193.56,-19.56 1196.13,-26.07"/>
</a>
</g>
</g>
<!-- Node18 -->
<g id="Node000018" class="node">
<title>Node18</title>
<g id="a_Node000018"><a xlink:title=" ">
<polygon fill="#e0e0e0" stroke="#999999" points="1039,-19 997,-19 997,0 1039,0 1039,-19"/>
<text text-anchor="middle" x="1018" y="-7" font-family="Helvetica,sans-Serif" font-size="10.00">array</text>
</a>
</g>
</g>
<!-- Node17&#45;&gt;Node18 -->
<g id="edge20_Node000017_Node000018" class="edge">
<title>Node17&#45;&gt;Node18</title>
<g id="a_edge20_Node000017_Node000018"><a xlink:title=" ">
<path fill="none" stroke="#63b8ff" d="M1063.48,-54.84C1054.68,-46.26 1043.43,-35.3 1034.33,-26.42"/>
<polygon fill="#63b8ff" stroke="#63b8ff" points="1036.59,-23.74 1026.99,-19.27 1031.71,-28.75 1036.59,-23.74"/>
</a>
</g>
</g>
<!-- Node19 -->
<g id="Node000019" class="node">
<title>Node19</title>
<g id="a_Node000019"><a xlink:title=" ">
<polygon fill="#e0e0e0" stroke="#999999" points="276.5,-19 219.5,-19 219.5,0 276.5,0 276.5,-19"/>
<text text-anchor="middle" x="248" y="-7" font-family="Helvetica,sans-Serif" font-size="10.00">ostream</text>
</a>
</g>
</g>
<!-- Node17&#45;&gt;Node19 -->
<g id="edge22_Node000017_Node000019" class="edge">
<title>Node17&#45;&gt;Node19</title>
<g id="a_edge22_Node000017_Node000019"><a xlink:title=" ">
<path fill="none" stroke="#63b8ff" d="M1019.5,-60.43C1004.08,-58.41 987.43,-56.42 972,-55 670.81,-27.26 589.54,-60.66 286.54,-18.97"/>
<polygon fill="#63b8ff" stroke="#63b8ff" points="286.98,-15.5 276.59,-17.58 286.01,-22.43 286.98,-15.5"/>
</a>
</g>
</g>
<!-- Node20 -->
<g id="Node000020" class="node">
<title>Node20</title>
<g id="a_Node000020"><a xlink:title=" ">
<polygon fill="#e0e0e0" stroke="#999999" points="1108.5,-19 1057.5,-19 1057.5,0 1108.5,0 1108.5,-19"/>
<text text-anchor="middle" x="1083" y="-7" font-family="Helvetica,sans-Serif" font-size="10.00">variant</text>
</a>
</g>
</g>
<!-- Node17&#45;&gt;Node20 -->
<g id="edge24_Node000017_Node000020" class="edge">
<title>Node17&#45;&gt;Node20</title>
<g id="a_edge24_Node000017_Node000020"><a xlink:title=" ">
<path fill="none" stroke="#63b8ff" d="M1079.21,-54.84C1079.86,-47.21 1080.67,-37.7 1081.38,-29.45"/>
<polygon fill="#63b8ff" stroke="#63b8ff" points="1084.89,-29.53 1082.25,-19.27 1077.91,-28.93 1084.89,-29.53"/>
</a>
</g>
</g>
<!-- Node21&#45;&gt;Node3 -->
<g id="edge30_Node000021_Node000003" class="edge">
<title>Node21&#45;&gt;Node3</title>
<g id="a_edge30_Node000021_Node000003"><a xlink:title=" ">
<path fill="none" stroke="#63b8ff" d="M1369.94,-126.37C1356.74,-116.06 1334.42,-98.65 1318.34,-86.09"/>
<polygon fill="#63b8ff" stroke="#63b8ff" points="1320.18,-83.09 1310.15,-79.7 1315.88,-88.61 1320.18,-83.09"/>
</a>
</g>
</g>
<!-- Node21&#45;&gt;Node6 -->
<g id="edge31_Node000021_Node000006" class="edge">
<title>Node21&#45;&gt;Node6</title>
<g id="a_edge31_Node000021_Node000006"><a xlink:title=" ">
<path fill="none" stroke="#63b8ff" d="M1297.85,-128.93C1204.76,-121.23 1060.33,-106.35 1010,-85 990.19,-76.6 992.08,-62.74 972,-55 857.06,-10.67 468.81,-9.49 351.71,-10.18"/>
<polygon fill="#63b8ff" stroke="#63b8ff" points="351.53,-6.69 341.55,-10.25 351.58,-13.69 351.53,-6.69"/>
</a>
</g>
</g>
<!-- Node21&#45;&gt;Node11 -->
<g id="edge29_Node000021_Node000011" class="edge">
<title>Node21&#45;&gt;Node11</title>
<g id="a_edge29_Node000021_Node000011"><a xlink:title=" ">
<path fill="none" stroke="#63b8ff" d="M1388.68,-126.41C1401.75,-110.72 1425.29,-77.02 1408,-55 1390.22,-32.35 1310.02,-19.75 1262.21,-14.13"/>
<polygon fill="#63b8ff" stroke="#63b8ff" points="1262.58,-10.65 1252.25,-13 1261.79,-17.6 1262.58,-10.65"/>
</a>
</g>
</g>
<!-- Node21&#45;&gt;Node17 -->
<g id="edge33_Node000021_Node000017" class="edge">
<title>Node21&#45;&gt;Node17</title>
<g id="a_edge33_Node000021_Node000017"><a xlink:title=" ">
<path fill="none" stroke="#63b8ff" d="M1340.45,-126.44C1290.98,-115.99 1206.58,-98.16 1146.86,-85.55"/>
<polygon fill="#63b8ff" stroke="#63b8ff" points="1147.27,-82.05 1136.76,-83.41 1145.82,-88.9 1147.27,-82.05"/>
</a>
</g>
</g>
<!-- Node22 -->
<g id="Node000022" class="node">
<title>Node22</title>
<g id="a_Node000022"><a xlink:title=" ">
<polygon fill="#e0e0e0" stroke="#999999" points="1595,-79.5 1551,-79.5 1551,-60.5 1595,-60.5 1595,-79.5"/>
<text text-anchor="middle" x="1573" y="-67.5" font-family="Helvetica,sans-Serif" font-size="10.00">mpi.h</text>
</a>
</g>
</g>
<!-- Node21&#45;&gt;Node22 -->
<g id="edge27_Node000021_Node000022" class="edge">
<title>Node21&#45;&gt;Node22</title>
<g id="a_edge27_Node000021_Node000022"><a xlink:title=" ">
<path fill="none" stroke="#63b8ff" d="M1412.55,-126.45C1445.3,-117.28 1497.81,-101.77 1542,-85 1543.21,-84.54 1544.44,-84.06 1545.68,-83.56"/>
<polygon fill="#63b8ff" stroke="#63b8ff" points="1547.3,-86.67 1555.13,-79.52 1544.55,-80.23 1547.3,-86.67"/>
</a>
</g>
</g>
<!-- Node23 -->
<g id="Node000023" class="node">
<title>Node23</title>
<g id="a_Node000023"><a xlink:title=" ">
<polygon fill="#e0e0e0" stroke="#999999" points="1399,-79.5 1347,-79.5 1347,-60.5 1399,-60.5 1399,-79.5"/>
<text text-anchor="middle" x="1373" y="-67.5" font-family="Helvetica,sans-Serif" font-size="10.00">petsc.h</text>
</a>
</g>
</g>
<!-- Node21&#45;&gt;Node23 -->
<g id="edge28_Node000021_Node000023" class="edge">
<title>Node21&#45;&gt;Node23</title>
<g id="a_edge28_Node000021_Node000023"><a xlink:title=" ">
<path fill="none" stroke="#63b8ff" d="M1379.92,-126.37C1378.76,-117.07 1376.87,-101.98 1375.36,-89.9"/>
<polygon fill="#63b8ff" stroke="#63b8ff" points="1378.83,-89.39 1374.11,-79.91 1371.88,-90.26 1378.83,-89.39"/>
</a>
</g>
</g>
<!-- Node24 -->
<g id="Node000024" class="node">
<title>Node24</title>
<g id="a_Node000024"><a xlink:title=" ">
<polygon fill="#e0e0e0" stroke="#999999" points="1532.5,-79.5 1455.5,-79.5 1455.5,-60.5 1532.5,-60.5 1532.5,-79.5"/>
<text text-anchor="middle" x="1494" y="-67.5" font-family="Helvetica,sans-Serif" font-size="10.00">Eigen/Dense</text>
</a>
</g>
</g>
<!-- Node21&#45;&gt;Node24 -->
<g id="edge32_Node000021_Node000024" class="edge">
<title>Node21&#45;&gt;Node24</title>
<g id="a_edge32_Node000021_Node000024"><a xlink:title=" ">
<path fill="none" stroke="#63b8ff" d="M1396.24,-126.37C1415.11,-115.68 1447.48,-97.35 1469.77,-84.72"/>
<polygon fill="#63b8ff" stroke="#63b8ff" points="1471.66,-87.67 1478.64,-79.7 1468.21,-81.58 1471.66,-87.67"/>
</a>
</g>
</g>
<!-- Node25&#45;&gt;Node6 -->
<g id="edge38_Node000025_Node000006" class="edge">
<title>Node25&#45;&gt;Node6</title>
<g id="a_edge38_Node000025_Node000006"><a xlink:title=" ">
<path fill="none" stroke="#63b8ff" d="M104.02,-60.48C146.09,-51.23 215.24,-35.78 284.46,-19.08"/>
<polygon fill="#63b8ff" stroke="#63b8ff" points="285.33,-22.47 294.23,-16.71 283.68,-15.66 285.33,-22.47"/>
</a>
</g>
</g>
<!-- Node25&#45;&gt;Node10 -->
<g id="edge35_Node000025_Node000010" class="edge">
<title>Node25&#45;&gt;Node10</title>
<g id="a_edge35_Node000025_Node000010"><a xlink:title=" ">
<path fill="none" stroke="#63b8ff" d="M80.35,-60.37C97.32,-50.82 124.9,-35.31 144.79,-24.12"/>
<polygon fill="#63b8ff" stroke="#63b8ff" points="146.59,-27.12 153.59,-19.17 143.16,-21.02 146.59,-27.12"/>
</a>
</g>
</g>
<!-- Node25&#45;&gt;Node19 -->
<g id="edge37_Node000025_Node000019" class="edge">
<title>Node25&#45;&gt;Node19</title>
<g id="a_edge37_Node000025_Node000019"><a xlink:title=" ">
<path fill="none" stroke="#63b8ff" d="M91.61,-60.49C123.19,-50.4 176.01,-33.51 211.42,-22.19"/>
<polygon fill="#63b8ff" stroke="#63b8ff" points="212.9,-25.4 221.36,-19.02 210.77,-18.73 212.9,-25.4"/>
</a>
</g>
</g>
<!-- Node26 -->
<g id="Node000026" class="node">
<title>Node26</title>
<g id="a_Node000026"><a xlink:title=" ">
<polygon fill="#e0e0e0" stroke="#999999" points="91.5,-19 38.5,-19 38.5,0 91.5,0 91.5,-19"/>
<text text-anchor="middle" x="65" y="-7" font-family="Helvetica,sans-Serif" font-size="10.00">iterator</text>
</a>
</g>
</g>
<!-- Node25&#45;&gt;Node26 -->
<g id="edge36_Node000025_Node000026" class="edge">
<title>Node25&#45;&gt;Node26</title>
<g id="a_edge36_Node000025_Node000026"><a xlink:title=" ">
<path fill="none" stroke="#63b8ff" d="M65,-60.37C65,-52.25 65,-39.81 65,-29.39"/>
<polygon fill="#63b8ff" stroke="#63b8ff" points="68.5,-29.17 65,-19.17 61.5,-29.17 68.5,-29.17"/>
</a>
</g>
</g>
</g>
</svg>
