<?xml version="1.0" encoding="UTF-8" standalone="no"?>
<!DOCTYPE svg PUBLIC "-//W3C//DTD SVG 1.1//EN"
 "http://www.w3.org/Graphics/SVG/1.1/DTD/svg11.dtd">
<!-- Generated by graphviz version 12.2.1 (20241206.2353)
 -->
<!-- Title: /Users/ilariomazzieri/Desktop/vulpes/vulpes/geometry/parallel_mesh.hpp Pages: 1 -->
<!--zoomable 238 -->

<svg id="main" version="1.1" xmlns="http://www.w3.org/2000/svg" xmlns:xlink="http://www.w3.org/1999/xlink" xml:space="preserve" onload="init(evt)">
<style type="text/css"><![CDATA[
.node, .edge {opacity: 0.7;}
.node.selected, .edge.selected {opacity: 1;}
.edge:hover path { stroke: red; }
.edge:hover polygon { stroke: red; fill: red; }
]]></style>

<defs>
  <circle id="rim" cx="0" cy="0" r="7"/>
  <circle id="rim2" cx="0" cy="0" r="3.5"/>
  <g id="zoomPlus">
    <use xlink:href="#rim" fill="#404040"><set attributeName="fill" to="#808080" begin="zoomplus.mouseover" end="zoomplus.mouseout"/></use>
    <path d="M-4,0h8M0,-4v8" fill="none" stroke="white" stroke-width="1.5" pointer-events="none"/>
  </g>
  <g id="zoomMin">
    <use xlink:href="#rim" fill="#404040"><set attributeName="fill" to="#808080" begin="zoomminus.mouseover" end="zoomminus.mouseout"/></use>
    <path d="M-4,0h8" fill="none" stroke="white" stroke-width="1.5" pointer-events="none"/>
  </g>
  <g id="arrowUp" transform="translate(30 24)">
    <use xlink:href="#rim"/>
    <path pointer-events="none" fill="none" stroke="white" stroke-width="1.5" d="M0,-3.0v7 M-2.5,-0.5L0,-3.0L2.5,-0.5"/>
  </g>
  <g id="arrowRight" transform="rotate(90) translate(36 -43)">
    <use xlink:href="#rim"/>
    <path pointer-events="none" fill="none" stroke="white" stroke-width="1.5" d="M0,-3.0v7 M-2.5,-0.5L0,-3.0L2.5,-0.5"/>
  </g>
  <g id="arrowDown" transform="rotate(180) translate(-30 -48)">
    <use xlink:href="#rim"/>
    <path pointer-events="none" fill="none" stroke="white" stroke-width="1.5" d="M0,-3.0v7 M-2.5,-0.5L0,-3.0L2.5,-0.5"/>
  </g>
  <g id="arrowLeft" transform="rotate(270) translate(-36 17)">
    <use xlink:href="#rim"/>
    <path pointer-events="none" fill="none" stroke="white" stroke-width="1.5" d="M0,-3.0v7 M-2.5,-0.5L0,-3.0L2.5,-0.5"/>
  </g>
  <g id="resetDef">
    <use xlink:href="#rim2" fill="#404040"><set attributeName="fill" to="#808080" begin="reset.mouseover" end="reset.mouseout"/></use>
  </g>
</defs>
<script type="application/ecmascript">
var viewWidth = 1695;
var viewHeight = 238;
var sectionId = 'dynsection-0';
</script>
<script type="application/ecmascript" xlink:href="svg.min.js"/>
<svg id="graph" class="graph">
<g id="viewport">
<title>/Users/ilariomazzieri/Desktop/vulpes/vulpes/geometry/parallel_mesh.hpp</title>
<!-- Node1 -->
<g id="Node000001" class="node">
<title>Node1</title>
<g id="a_Node000001"><a xlink:title=" ">
<polygon fill="#999999" stroke="#666666" points="722.38,-230 581.12,-230 581.12,-188.25 722.38,-188.25 722.38,-230"/>
<text text-anchor="start" x="589.12" y="-216.5" font-family="Helvetica,sans-Serif" font-size="10.00">/Users/ilariomazzieri</text>
<text text-anchor="start" x="589.12" y="-205.25" font-family="Helvetica,sans-Serif" font-size="10.00">/Desktop/vulpes/vulpes</text>
<text text-anchor="middle" x="651.75" y="-194" font-family="Helvetica,sans-Serif" font-size="10.00">/geometry/parallel_mesh.hpp</text>
</a>
</g>
</g>
<!-- Node2 -->
<g id="Node000002" class="node">
<title>Node2</title>
<g id="a_Node000002"><a xlink:title=" ">
<polygon fill="#e0e0e0" stroke="#999999" points="75.62,-146.62 13.88,-146.62 13.88,-127.38 75.62,-127.38 75.62,-146.62"/>
<text text-anchor="middle" x="44.75" y="-133.12" font-family="Helvetica,sans-Serif" font-size="10.00">parmetis.h</text>
</a>
</g>
</g>
<!-- Node1&#45;&gt;Node2 -->
<g id="edge1_Node000001_Node000002" class="edge">
<title>Node1&#45;&gt;Node2</title>
<g id="a_edge1_Node000001_Node000002"><a xlink:title=" ">
<path fill="none" stroke="#63b8ff" d="M580.95,-205.79C473.7,-201.21 264.06,-188.11 89.75,-152.25 86.94,-151.67 84.06,-150.99 81.18,-150.23"/>
<polygon fill="#63b8ff" stroke="#63b8ff" points="82.24,-146.9 71.66,-147.49 80.3,-153.62 82.24,-146.9"/>
</a>
</g>
</g>
<!-- Node3 -->
<g id="Node000003" class="node">
<title>Node3</title>
<g id="a_Node000003"><a xlink:title=" ">
<polygon fill="#e0e0e0" stroke="#999999" points="53.5,-19.25 0,-19.25 0,0 53.5,0 53.5,-19.25"/>
<text text-anchor="middle" x="26.75" y="-5.75" font-family="Helvetica,sans-Serif" font-size="10.00">iostream</text>
</a>
</g>
</g>
<!-- Node1&#45;&gt;Node3 -->
<g id="edge2_Node000001_Node000003" class="edge">
<title>Node1&#45;&gt;Node3</title>
<g id="a_edge2_Node000001_Node000003"><a xlink:title=" ">
<path fill="none" stroke="#63b8ff" d="M580.66,-204.33C501.07,-198.63 368.94,-184.81 259.75,-152.25 192.97,-132.34 176.64,-123.01 117.75,-85.75 90.18,-68.31 61.7,-43.5 44.11,-27.23"/>
<polygon fill="#63b8ff" stroke="#63b8ff" points="46.75,-24.92 37.07,-20.63 41.96,-30.02 46.75,-24.92"/>
</a>
</g>
</g>
<!-- Node4 -->
<g id="Node000004" class="node">
<title>Node4</title>
<g id="a_Node000004"><a xlink:title=" ">
<polygon fill="#e0e0e0" stroke="#999999" points="1055.38,-146.62 1004.12,-146.62 1004.12,-127.38 1055.38,-127.38 1055.38,-146.62"/>
<text text-anchor="middle" x="1029.75" y="-133.12" font-family="Helvetica,sans-Serif" font-size="10.00">memory</text>
</a>
</g>
</g>
<!-- Node1&#45;&gt;Node4 -->
<g id="edge3_Node000001_Node000004" class="edge">
<title>Node1&#45;&gt;Node4</title>
<g id="a_edge3_Node000001_Node000004"><a xlink:title=" ">
<path fill="none" stroke="#63b8ff" d="M722.65,-201.55C792.96,-193.88 903.27,-178.74 995.75,-152.25 997.1,-151.86 998.47,-151.44 999.84,-150.98"/>
<polygon fill="#63b8ff" stroke="#63b8ff" points="1000.7,-154.4 1008.84,-147.62 998.25,-147.84 1000.7,-154.4"/>
</a>
</g>
</g>
<!-- Node5 -->
<g id="Node000005" class="node">
<title>Node5</title>
<g id="a_Node000005"><a xlink:title=" ">
<polygon fill="#e0e0e0" stroke="#999999" points="582.38,-19.25 543.12,-19.25 543.12,0 582.38,0 582.38,-19.25"/>
<text text-anchor="middle" x="562.75" y="-5.75" font-family="Helvetica,sans-Serif" font-size="10.00">utility</text>
</a>
</g>
</g>
<!-- Node1&#45;&gt;Node5 -->
<g id="edge4_Node000001_Node000005" class="edge">
<title>Node1&#45;&gt;Node5</title>
<g id="a_edge4_Node000001_Node000005"><a xlink:title=" ">
<path fill="none" stroke="#63b8ff" d="M580.86,-206.45C501.06,-200.1 376.79,-175.47 332.75,-85.75 326.78,-73.58 324.05,-65.65 332.75,-55.25 359.99,-22.69 473.54,-28.72 531.68,-19.09"/>
<polygon fill="#63b8ff" stroke="#63b8ff" points="532.25,-22.54 541.38,-17.16 530.88,-15.68 532.25,-22.54"/>
</a>
</g>
</g>
<!-- Node6 -->
<g id="Node000006" class="node">
<title>Node6</title>
<g id="a_Node000006"><a xlink:title=" ">
<polygon fill="#e0e0e0" stroke="#999999" points="829.25,-19.25 786.25,-19.25 786.25,0 829.25,0 829.25,-19.25"/>
<text text-anchor="middle" x="807.75" y="-5.75" font-family="Helvetica,sans-Serif" font-size="10.00">vector</text>
</a>
</g>
</g>
<!-- Node1&#45;&gt;Node6 -->
<g id="edge5_Node000001_Node000006" class="edge">
<title>Node1&#45;&gt;Node6</title>
<g id="a_edge5_Node000001_Node000006"><a xlink:title=" ">
<path fill="none" stroke="#63b8ff" d="M669.79,-187.78C690.8,-163.85 726.26,-122.69 754.75,-85.75 769.32,-66.86 784.95,-44.41 795.43,-29"/>
<polygon fill="#63b8ff" stroke="#63b8ff" points="798.24,-31.09 800.94,-20.85 792.44,-27.17 798.24,-31.09"/>
</a>
</g>
</g>
<!-- Node7 -->
<g id="Node000007" class="node">
<title>Node7</title>
<g id="a_Node000007"><a xlink:title=" ">
<polygon fill="#e0e0e0" stroke="#999999" points="1204.5,-152.25 1073,-152.25 1073,-121.75 1204.5,-121.75 1204.5,-152.25"/>
<text text-anchor="start" x="1081" y="-138.75" font-family="Helvetica,sans-Serif" font-size="10.00">boost/unordered/unordered</text>
<text text-anchor="middle" x="1138.75" y="-127.5" font-family="Helvetica,sans-Serif" font-size="10.00">_flat_map.hpp</text>
</a>
</g>
</g>
<!-- Node1&#45;&gt;Node7 -->
<g id="edge6_Node000001_Node000007" class="edge">
<title>Node1&#45;&gt;Node7</title>
<g id="a_edge6_Node000001_Node000007"><a xlink:title=" ">
<path fill="none" stroke="#63b8ff" d="M722.82,-199.73C802.84,-190.01 937,-172.88 1061.38,-152.75"/>
<polygon fill="#63b8ff" stroke="#63b8ff" points="1061.82,-156.23 1071.12,-151.17 1060.69,-149.32 1061.82,-156.23"/>
</a>
</g>
</g>
<!-- Node8 -->
<g id="Node000008" class="node">
<title>Node8</title>
<g id="a_Node000008"><a xlink:title=" ">
<polygon fill="#e0e0e0" stroke="#999999" points="1354.5,-152.25 1223,-152.25 1223,-121.75 1354.5,-121.75 1354.5,-152.25"/>
<text text-anchor="start" x="1231" y="-138.75" font-family="Helvetica,sans-Serif" font-size="10.00">boost/unordered/unordered</text>
<text text-anchor="middle" x="1288.75" y="-127.5" font-family="Helvetica,sans-Serif" font-size="10.00">_flat_set.hpp</text>
</a>
</g>
</g>
<!-- Node1&#45;&gt;Node8 -->
<g id="edge7_Node000001_Node000008" class="edge">
<title>Node1&#45;&gt;Node8</title>
<g id="a_edge7_Node000001_Node000008"><a xlink:title=" ">
<path fill="none" stroke="#63b8ff" d="M722.53,-203.11C827.13,-195.26 1029.35,-178.36 1211.16,-152.54"/>
<polygon fill="#63b8ff" stroke="#63b8ff" points="1211.65,-156.01 1221.05,-151.12 1210.66,-149.08 1211.65,-156.01"/>
</a>
</g>
</g>
<!-- Node9 -->
<g id="Node000009" class="node">
<title>Node9</title>
<g id="a_Node000009"><a xlink:href="numbering_8hpp.html" target="_top" xlink:title=" ">
<polygon fill="white" stroke="#666666" points="986.25,-146.62 853.25,-146.62 853.25,-127.38 986.25,-127.38 986.25,-146.62"/>
<text text-anchor="middle" x="919.75" y="-133.12" font-family="Helvetica,sans-Serif" font-size="10.00">vulpes/dofs/numbering.hpp</text>
</a>
</g>
</g>
<!-- Node1&#45;&gt;Node9 -->
<g id="edge8_Node000001_Node000009" class="edge">
<title>Node1&#45;&gt;Node9</title>
<g id="a_edge8_Node000001_Node000009"><a xlink:title=" ">
<path fill="none" stroke="#63b8ff" d="M722.87,-189.52C770.78,-176.98 832.55,-160.82 874.02,-149.97"/>
<polygon fill="#63b8ff" stroke="#63b8ff" points="874.9,-153.35 883.68,-147.44 873.12,-146.58 874.9,-153.35"/>
</a>
</g>
</g>
<!-- Node21 -->
<g id="Node000021" class="node">
<title>Node21</title>
<g id="a_Node000021"><a xlink:href="mpi__wrappers_8hpp.html" target="_top" xlink:title=" ">
<polygon fill="white" stroke="#666666" points="575.75,-146.62 427.75,-146.62 427.75,-127.38 575.75,-127.38 575.75,-146.62"/>
<text text-anchor="middle" x="501.75" y="-133.12" font-family="Helvetica,sans-Serif" font-size="10.00">vulpes/utils/mpi_wrappers.hpp</text>
</a>
</g>
</g>
<!-- Node1&#45;&gt;Node21 -->
<g id="edge26_Node000001_Node000021" class="edge">
<title>Node1&#45;&gt;Node21</title>
<g id="a_edge26_Node000001_Node000021"><a xlink:title=" ">
<path fill="none" stroke="#63b8ff" d="M608.36,-187.84C583.64,-176.28 553.31,-162.1 531.33,-151.83"/>
<polygon fill="#63b8ff" stroke="#63b8ff" points="532.88,-148.69 522.34,-147.63 529.92,-155.03 532.88,-148.69"/>
</a>
</g>
</g>
<!-- Node25 -->
<g id="Node000025" class="node">
<title>Node25</title>
<g id="a_Node000025"><a xlink:href="profiler_8hpp.html" target="_top" xlink:title=" ">
<polygon fill="white" stroke="#666666" points="285.62,-80.12 169.88,-80.12 169.88,-60.88 285.62,-60.88 285.62,-80.12"/>
<text text-anchor="middle" x="227.75" y="-66.62" font-family="Helvetica,sans-Serif" font-size="10.00">vulpes/utils/profiler.hpp</text>
</a>
</g>
</g>
<!-- Node1&#45;&gt;Node25 -->
<g id="edge45_Node000001_Node000025" class="edge">
<title>Node1&#45;&gt;Node25</title>
<g id="a_edge45_Node000001_Node000025"><a xlink:title=" ">
<path fill="none" stroke="#63b8ff" d="M580.7,-202.51C492.21,-194.55 346.92,-178.02 299.75,-152.25 273.03,-137.65 251.28,-109.17 238.92,-90.23"/>
<polygon fill="#63b8ff" stroke="#63b8ff" points="241.98,-88.52 233.71,-81.89 236.04,-92.23 241.98,-88.52"/>
</a>
</g>
</g>
<!-- Node32 -->
<g id="Node000032" class="node">
<title>Node32</title>
<g id="a_Node000032"><a xlink:href="vvutils_8hpp.html" target="_top" xlink:title=" ">
<polygon fill="white" stroke="#666666" points="709.62,-80.12 593.88,-80.12 593.88,-60.88 709.62,-60.88 709.62,-80.12"/>
<text text-anchor="middle" x="651.75" y="-66.62" font-family="Helvetica,sans-Serif" font-size="10.00">vulpes/utils/vvutils.hpp</text>
</a>
</g>
</g>
<!-- Node1&#45;&gt;Node32 -->
<g id="edge46_Node000001_Node000032" class="edge">
<title>Node1&#45;&gt;Node32</title>
<g id="a_edge46_Node000001_Node000032"><a xlink:title=" ">
<path fill="none" stroke="#63b8ff" d="M651.75,-187.97C651.75,-162.18 651.75,-117.79 651.75,-91.89"/>
<polygon fill="#63b8ff" stroke="#63b8ff" points="655.25,-92.05 651.75,-82.05 648.25,-92.05 655.25,-92.05"/>
</a>
</g>
</g>
<!-- Node9&#45;&gt;Node5 -->
<g id="edge12_Node000009_Node000005" class="edge">
<title>Node9&#45;&gt;Node5</title>
<g id="a_edge12_Node000009_Node000005"><a xlink:title=" ">
<path fill="none" stroke="#63b8ff" d="M853.11,-134.3C767.05,-130.73 623.69,-119.73 584.75,-85.75 569.17,-72.16 564.34,-48.18 562.98,-30.97"/>
<polygon fill="#63b8ff" stroke="#63b8ff" points="566.49,-31 562.57,-21.16 559.49,-31.3 566.49,-31"/>
</a>
</g>
</g>
<!-- Node9&#45;&gt;Node6 -->
<g id="edge13_Node000009_Node000006" class="edge">
<title>Node9&#45;&gt;Node6</title>
<g id="a_edge13_Node000009_Node000006"><a xlink:title=" ">
<path fill="none" stroke="#63b8ff" d="M910.51,-126.94C900.49,-117.02 884.16,-100.57 870.75,-85.75 853.35,-66.51 834.34,-43.56 821.81,-28.13"/>
<polygon fill="#63b8ff" stroke="#63b8ff" points="824.87,-26.35 815.86,-20.78 819.43,-30.75 824.87,-26.35"/>
</a>
</g>
</g>
<!-- Node10 -->
<g id="Node000010" class="node">
<title>Node10</title>
<g id="a_Node000010"><a xlink:title=" ">
<polygon fill="#e0e0e0" stroke="#999999" points="768.62,-19.25 712.88,-19.25 712.88,0 768.62,0 768.62,-19.25"/>
<text text-anchor="middle" x="740.75" y="-5.75" font-family="Helvetica,sans-Serif" font-size="10.00">algorithm</text>
</a>
</g>
</g>
<!-- Node9&#45;&gt;Node10 -->
<g id="edge9_Node000009_Node000010" class="edge">
<title>Node9&#45;&gt;Node10</title>
<g id="a_edge9_Node000009_Node000010"><a xlink:title=" ">
<path fill="none" stroke="#63b8ff" d="M904.67,-126.89C888.61,-117.08 862.54,-100.83 840.75,-85.75 812.52,-66.21 781.01,-42.15 761.04,-26.6"/>
<polygon fill="#63b8ff" stroke="#63b8ff" points="763.46,-24.05 753.43,-20.65 759.15,-29.56 763.46,-24.05"/>
</a>
</g>
</g>
<!-- Node11 -->
<g id="Node000011" class="node">
<title>Node11</title>
<g id="a_Node000011"><a xlink:title=" ">
<polygon fill="#e0e0e0" stroke="#999999" points="1084.88,-19.25 1036.62,-19.25 1036.62,0 1084.88,0 1084.88,-19.25"/>
<text text-anchor="middle" x="1060.75" y="-5.75" font-family="Helvetica,sans-Serif" font-size="10.00">cassert</text>
</a>
</g>
</g>
<!-- Node9&#45;&gt;Node11 -->
<g id="edge10_Node000009_Node000011" class="edge">
<title>Node9&#45;&gt;Node11</title>
<g id="a_edge10_Node000009_Node000011"><a xlink:title=" ">
<path fill="none" stroke="#63b8ff" d="M962.03,-126.93C972.67,-124.94 984.09,-123.04 994.75,-121.75 1070.42,-112.62 1627.29,-141.04 1679.75,-85.75 1689.08,-75.92 1688.98,-65.17 1679.75,-55.25 1639.89,-12.41 1221.92,-10.14 1096.28,-10.44"/>
<polygon fill="#63b8ff" stroke="#63b8ff" points="1096.56,-6.94 1086.57,-10.47 1096.58,-13.94 1096.56,-6.94"/>
</a>
</g>
</g>
<!-- Node12 -->
<g id="Node000012" class="node">
<title>Node12</title>
<g id="a_Node000012"><a xlink:title=" ">
<polygon fill="#e0e0e0" stroke="#999999" points="1090,-80.12 1039.5,-80.12 1039.5,-60.88 1090,-60.88 1090,-80.12"/>
<text text-anchor="middle" x="1064.75" y="-66.62" font-family="Helvetica,sans-Serif" font-size="10.00">numeric</text>
</a>
</g>
</g>
<!-- Node9&#45;&gt;Node12 -->
<g id="edge11_Node000009_Node000012" class="edge">
<title>Node9&#45;&gt;Node12</title>
<g id="a_edge11_Node000009_Node000012"><a xlink:title=" ">
<path fill="none" stroke="#63b8ff" d="M940.22,-126.9C964.61,-116.04 1005.62,-97.8 1033.88,-85.23"/>
<polygon fill="#63b8ff" stroke="#63b8ff" points="1035.29,-88.44 1043,-81.17 1032.44,-82.04 1035.29,-88.44"/>
</a>
</g>
</g>
<!-- Node13 -->
<g id="Node000013" class="node">
<title>Node13</title>
<g id="a_Node000013"><a xlink:title=" ">
<polygon fill="#e0e0e0" stroke="#999999" points="1221.88,-85.75 1107.62,-85.75 1107.62,-55.25 1221.88,-55.25 1221.88,-85.75"/>
<text text-anchor="start" x="1115.62" y="-72.25" font-family="Helvetica,sans-Serif" font-size="10.00">boost/graph/adjacency</text>
<text text-anchor="middle" x="1164.75" y="-61" font-family="Helvetica,sans-Serif" font-size="10.00">_list.hpp</text>
</a>
</g>
</g>
<!-- Node9&#45;&gt;Node13 -->
<g id="edge14_Node000009_Node000013" class="edge">
<title>Node9&#45;&gt;Node13</title>
<g id="a_edge14_Node000009_Node000013"><a xlink:title=" ">
<path fill="none" stroke="#63b8ff" d="M954.33,-126.9C991.58,-117.09 1051.74,-101.25 1098.21,-89.02"/>
<polygon fill="#63b8ff" stroke="#63b8ff" points="1098.86,-92.46 1107.64,-86.53 1097.08,-85.7 1098.86,-92.46"/>
</a>
</g>
</g>
<!-- Node14 -->
<g id="Node000014" class="node">
<title>Node14</title>
<g id="a_Node000014"><a xlink:title=" ">
<polygon fill="#e0e0e0" stroke="#999999" points="1349.25,-85.75 1240.25,-85.75 1240.25,-55.25 1349.25,-55.25 1349.25,-85.75"/>
<text text-anchor="start" x="1248.25" y="-72.25" font-family="Helvetica,sans-Serif" font-size="10.00">boost/graph/cuthill</text>
<text text-anchor="middle" x="1294.75" y="-61" font-family="Helvetica,sans-Serif" font-size="10.00">_mckee_ordering.hpp</text>
</a>
</g>
</g>
<!-- Node9&#45;&gt;Node14 -->
<g id="edge15_Node000009_Node000014" class="edge">
<title>Node9&#45;&gt;Node14</title>
<g id="a_edge15_Node000009_Node000014"><a xlink:title=" ">
<path fill="none" stroke="#63b8ff" d="M966.11,-126.92C975.58,-125.14 985.47,-123.34 994.75,-121.75 1095.86,-104.44 1124.58,-105.22 1228.96,-86"/>
<polygon fill="#63b8ff" stroke="#63b8ff" points="1229.31,-89.5 1238.5,-84.23 1228.03,-82.61 1229.31,-89.5"/>
</a>
</g>
</g>
<!-- Node15 -->
<g id="Node000015" class="node">
<title>Node15</title>
<g id="a_Node000015"><a xlink:title=" ">
<polygon fill="#e0e0e0" stroke="#999999" points="1506.62,-80.12 1366.88,-80.12 1366.88,-60.88 1506.62,-60.88 1506.62,-80.12"/>
<text text-anchor="middle" x="1436.75" y="-66.62" font-family="Helvetica,sans-Serif" font-size="10.00">boost/graph/graph_utility.hpp</text>
</a>
</g>
</g>
<!-- Node9&#45;&gt;Node15 -->
<g id="edge16_Node000009_Node000015" class="edge">
<title>Node9&#45;&gt;Node15</title>
<g id="a_edge16_Node000009_Node000015"><a xlink:title=" ">
<path fill="none" stroke="#63b8ff" d="M964.06,-126.9C974.12,-125.03 984.78,-123.19 994.75,-121.75 1155.65,-98.55 1197.77,-108.38 1358.75,-85.75 1365.47,-84.81 1372.49,-83.7 1379.45,-82.52"/>
<polygon fill="#63b8ff" stroke="#63b8ff" points="1379.92,-85.99 1389.17,-80.83 1378.71,-79.1 1379.92,-85.99"/>
</a>
</g>
</g>
<!-- Node16 -->
<g id="Node000016" class="node">
<title>Node16</title>
<g id="a_Node000016"><a xlink:title=" ">
<polygon fill="#e0e0e0" stroke="#999999" points="1671,-80.12 1524.5,-80.12 1524.5,-60.88 1671,-60.88 1671,-80.12"/>
<text text-anchor="middle" x="1597.75" y="-66.62" font-family="Helvetica,sans-Serif" font-size="10.00">boost/graph/king_ordering.hpp</text>
</a>
</g>
</g>
<!-- Node9&#45;&gt;Node16 -->
<g id="edge17_Node000009_Node000016" class="edge">
<title>Node9&#45;&gt;Node16</title>
<g id="a_edge17_Node000009_Node000016"><a xlink:title=" ">
<path fill="none" stroke="#63b8ff" d="M962.84,-126.91C973.25,-124.96 984.37,-123.09 994.75,-121.75 1224.95,-92.03 1285.33,-113.66 1515.75,-85.75 1523.27,-84.84 1531.14,-83.7 1538.92,-82.48"/>
<polygon fill="#63b8ff" stroke="#63b8ff" points="1539.38,-85.95 1548.68,-80.87 1538.25,-79.04 1539.38,-85.95"/>
</a>
</g>
</g>
<!-- Node17 -->
<g id="Node000017" class="node">
<title>Node17</title>
<g id="a_Node000017"><a xlink:href="crs__map_8hpp.html" target="_top" xlink:title=" ">
<polygon fill="white" stroke="#666666" points="984,-85.75 879.5,-85.75 879.5,-55.25 984,-55.25 984,-85.75"/>
<text text-anchor="start" x="887.5" y="-72.25" font-family="Helvetica,sans-Serif" font-size="10.00">vulpes/datastructure</text>
<text text-anchor="middle" x="931.75" y="-61" font-family="Helvetica,sans-Serif" font-size="10.00">/crs_map.hpp</text>
</a>
</g>
</g>
<!-- Node9&#45;&gt;Node17 -->
<g id="edge18_Node000009_Node000017" class="edge">
<title>Node9&#45;&gt;Node17</title>
<g id="a_edge18_Node000009_Node000017"><a xlink:title=" ">
<path fill="none" stroke="#63b8ff" d="M921.42,-127.03C922.86,-119.29 925.01,-107.7 926.98,-97.12"/>
<polygon fill="#63b8ff" stroke="#63b8ff" points="930.42,-97.8 928.8,-87.33 923.53,-96.52 930.42,-97.8"/>
</a>
</g>
</g>
<!-- Node17&#45;&gt;Node5 -->
<g id="edge23_Node000017_Node000005" class="edge">
<title>Node17&#45;&gt;Node5</title>
<g id="a_edge23_Node000017_Node000005"><a xlink:title=" ">
<path fill="none" stroke="#63b8ff" d="M879.2,-64.08C814.26,-56.87 700.28,-42.53 593.59,-19.36"/>
<polygon fill="#63b8ff" stroke="#63b8ff" points="594.62,-16 584.1,-17.27 593.11,-22.84 594.62,-16"/>
</a>
</g>
</g>
<!-- Node17&#45;&gt;Node6 -->
<g id="edge25_Node000017_Node000006" class="edge">
<title>Node17&#45;&gt;Node6</title>
<g id="a_edge25_Node000017_Node000006"><a xlink:title=" ">
<path fill="none" stroke="#63b8ff" d="M900.78,-54.8C881.26,-45.53 856.21,-33.63 837.02,-24.52"/>
<polygon fill="#63b8ff" stroke="#63b8ff" points="838.67,-21.43 828.13,-20.3 835.67,-27.75 838.67,-21.43"/>
</a>
</g>
</g>
<!-- Node17&#45;&gt;Node10 -->
<g id="edge19_Node000017_Node000010" class="edge">
<title>Node17&#45;&gt;Node10</title>
<g id="a_edge19_Node000017_Node000010"><a xlink:title=" ">
<path fill="none" stroke="#63b8ff" d="M884.05,-54.8C851.91,-44.89 810.04,-31.98 779.87,-22.68"/>
<polygon fill="#63b8ff" stroke="#63b8ff" points="780.96,-19.36 770.37,-19.76 778.9,-26.05 780.96,-19.36"/>
</a>
</g>
</g>
<!-- Node17&#45;&gt;Node11 -->
<g id="edge21_Node000017_Node000011" class="edge">
<title>Node17&#45;&gt;Node11</title>
<g id="a_edge21_Node000017_Node000011"><a xlink:title=" ">
<path fill="none" stroke="#63b8ff" d="M963.97,-54.8C984.37,-45.48 1010.58,-33.52 1030.57,-24.4"/>
<polygon fill="#63b8ff" stroke="#63b8ff" points="1031.95,-27.62 1039.59,-20.28 1029.04,-21.25 1031.95,-27.62"/>
</a>
</g>
</g>
<!-- Node18 -->
<g id="Node000018" class="node">
<title>Node18</title>
<g id="a_Node000018"><a xlink:title=" ">
<polygon fill="#e0e0e0" stroke="#999999" points="954.62,-19.25 916.88,-19.25 916.88,0 954.62,0 954.62,-19.25"/>
<text text-anchor="middle" x="935.75" y="-5.75" font-family="Helvetica,sans-Serif" font-size="10.00">array</text>
</a>
</g>
</g>
<!-- Node17&#45;&gt;Node18 -->
<g id="edge20_Node000017_Node000018" class="edge">
<title>Node17&#45;&gt;Node18</title>
<g id="a_edge20_Node000017_Node000018"><a xlink:title=" ">
<path fill="none" stroke="#63b8ff" d="M932.74,-54.95C933.23,-47.71 933.83,-38.84 934.37,-30.94"/>
<polygon fill="#63b8ff" stroke="#63b8ff" points="937.84,-31.43 935.03,-21.21 930.86,-30.95 937.84,-31.43"/>
</a>
</g>
</g>
<!-- Node19 -->
<g id="Node000019" class="node">
<title>Node19</title>
<g id="a_Node000019"><a xlink:title=" ">
<polygon fill="#e0e0e0" stroke="#999999" points="898.38,-19.25 847.12,-19.25 847.12,0 898.38,0 898.38,-19.25"/>
<text text-anchor="middle" x="872.75" y="-5.75" font-family="Helvetica,sans-Serif" font-size="10.00">ostream</text>
</a>
</g>
</g>
<!-- Node17&#45;&gt;Node19 -->
<g id="edge22_Node000017_Node000019" class="edge">
<title>Node17&#45;&gt;Node19</title>
<g id="a_edge22_Node000017_Node000019"><a xlink:title=" ">
<path fill="none" stroke="#63b8ff" d="M917.17,-54.95C908.87,-46.67 898.45,-36.27 889.78,-27.62"/>
<polygon fill="#63b8ff" stroke="#63b8ff" points="892.47,-25.36 882.92,-20.77 887.52,-30.31 892.47,-25.36"/>
</a>
</g>
</g>
<!-- Node20 -->
<g id="Node000020" class="node">
<title>Node20</title>
<g id="a_Node000020"><a xlink:title=" ">
<polygon fill="#e0e0e0" stroke="#999999" points="1018.38,-19.25 973.12,-19.25 973.12,0 1018.38,0 1018.38,-19.25"/>
<text text-anchor="middle" x="995.75" y="-5.75" font-family="Helvetica,sans-Serif" font-size="10.00">variant</text>
</a>
</g>
</g>
<!-- Node17&#45;&gt;Node20 -->
<g id="edge24_Node000017_Node000020" class="edge">
<title>Node17&#45;&gt;Node20</title>
<g id="a_edge24_Node000017_Node000020"><a xlink:title=" ">
<path fill="none" stroke="#63b8ff" d="M947.57,-54.95C956.66,-46.59 968.11,-36.05 977.57,-27.35"/>
<polygon fill="#63b8ff" stroke="#63b8ff" points="979.78,-30.07 984.77,-20.73 975.04,-24.92 979.78,-30.07"/>
</a>
</g>
</g>
<!-- Node21&#45;&gt;Node3 -->
<g id="edge30_Node000021_Node000003" class="edge">
<title>Node21&#45;&gt;Node3</title>
<g id="a_edge30_Node000021_Node000003"><a xlink:title=" ">
<path fill="none" stroke="#63b8ff" d="M427.32,-134.97C356.44,-131.71 247.94,-120.74 160.75,-85.75 139.01,-77.02 137.89,-67.22 117.75,-55.25 98.46,-43.78 75.81,-32.66 57.93,-24.4"/>
<polygon fill="#63b8ff" stroke="#63b8ff" points="59.41,-21.23 48.86,-20.26 56.51,-27.6 59.41,-21.23"/>
</a>
</g>
</g>
<!-- Node21&#45;&gt;Node6 -->
<g id="edge31_Node000021_Node000006" class="edge">
<title>Node21&#45;&gt;Node6</title>
<g id="a_edge31_Node000021_Node000006"><a xlink:title=" ">
<path fill="none" stroke="#63b8ff" d="M576.05,-127.66C619.39,-120.67 674.15,-108.09 718.75,-85.75 748,-71.1 775.83,-44.96 792.35,-27.7"/>
<polygon fill="#63b8ff" stroke="#63b8ff" points="794.61,-30.41 798.87,-20.71 789.49,-25.64 794.61,-30.41"/>
</a>
</g>
</g>
<!-- Node21&#45;&gt;Node11 -->
<g id="edge29_Node000021_Node000011" class="edge">
<title>Node21&#45;&gt;Node11</title>
<g id="a_edge29_Node000021_Node000011"><a xlink:title=" ">
<path fill="none" stroke="#63b8ff" d="M575.86,-134.86C694.67,-131.96 921.65,-121.74 992.75,-85.75 1017.82,-73.06 1038.08,-46.95 1049.77,-29.12"/>
<polygon fill="#63b8ff" stroke="#63b8ff" points="1052.65,-31.12 1054.97,-20.79 1046.71,-27.42 1052.65,-31.12"/>
</a>
</g>
</g>
<!-- Node21&#45;&gt;Node17 -->
<g id="edge33_Node000021_Node000017" class="edge">
<title>Node21&#45;&gt;Node17</title>
<g id="a_edge33_Node000021_Node000017"><a xlink:title=" ">
<path fill="none" stroke="#63b8ff" d="M562.45,-126.9C643.26,-114.77 785.55,-93.43 867.92,-81.08"/>
<polygon fill="#63b8ff" stroke="#63b8ff" points="868.26,-84.56 877.63,-79.62 867.22,-77.64 868.26,-84.56"/>
</a>
</g>
</g>
<!-- Node22 -->
<g id="Node000022" class="node">
<title>Node22</title>
<g id="a_Node000022"><a xlink:title=" ">
<polygon fill="#e0e0e0" stroke="#999999" points="381.75,-80.12 341.75,-80.12 341.75,-60.88 381.75,-60.88 381.75,-80.12"/>
<text text-anchor="middle" x="361.75" y="-66.62" font-family="Helvetica,sans-Serif" font-size="10.00">mpi.h</text>
</a>
</g>
</g>
<!-- Node21&#45;&gt;Node22 -->
<g id="edge27_Node000021_Node000022" class="edge">
<title>Node21&#45;&gt;Node22</title>
<g id="a_edge27_Node000021_Node000022"><a xlink:title=" ">
<path fill="none" stroke="#63b8ff" d="M481.2,-126.93C458.85,-117.01 422.12,-100.56 390.75,-85.75 390.53,-85.65 390.31,-85.54 390.08,-85.43"/>
<polygon fill="#63b8ff" stroke="#63b8ff" points="391.7,-82.33 381.17,-81.14 388.66,-88.63 391.7,-82.33"/>
</a>
</g>
</g>
<!-- Node23 -->
<g id="Node000023" class="node">
<title>Node23</title>
<g id="a_Node000023"><a xlink:title=" ">
<polygon fill="#e0e0e0" stroke="#999999" points="447.88,-80.12 399.62,-80.12 399.62,-60.88 447.88,-60.88 447.88,-80.12"/>
<text text-anchor="middle" x="423.75" y="-66.62" font-family="Helvetica,sans-Serif" font-size="10.00">petsc.h</text>
</a>
</g>
</g>
<!-- Node21&#45;&gt;Node23 -->
<g id="edge28_Node000021_Node000023" class="edge">
<title>Node21&#45;&gt;Node23</title>
<g id="a_edge28_Node000021_Node000023"><a xlink:title=" ">
<path fill="none" stroke="#63b8ff" d="M490.9,-127.03C478.56,-116.83 458.17,-99.96 443.09,-87.49"/>
<polygon fill="#63b8ff" stroke="#63b8ff" points="445.61,-85.03 435.67,-81.36 441.15,-90.43 445.61,-85.03"/>
</a>
</g>
</g>
<!-- Node24 -->
<g id="Node000024" class="node">
<title>Node24</title>
<g id="a_Node000024"><a xlink:title=" ">
<polygon fill="#e0e0e0" stroke="#999999" points="537.88,-80.12 465.62,-80.12 465.62,-60.88 537.88,-60.88 537.88,-80.12"/>
<text text-anchor="middle" x="501.75" y="-66.62" font-family="Helvetica,sans-Serif" font-size="10.00">Eigen/Dense</text>
</a>
</g>
</g>
<!-- Node21&#45;&gt;Node24 -->
<g id="edge32_Node000021_Node000024" class="edge">
<title>Node21&#45;&gt;Node24</title>
<g id="a_edge32_Node000021_Node000024"><a xlink:title=" ">
<path fill="none" stroke="#63b8ff" d="M501.75,-127.03C501.75,-117.98 501.75,-103.7 501.75,-91.88"/>
<polygon fill="#63b8ff" stroke="#63b8ff" points="505.25,-91.91 501.75,-81.91 498.25,-91.91 505.25,-91.91"/>
</a>
</g>
</g>
<!-- Node21&#45;&gt;Node25 -->
<g id="edge34_Node000021_Node000025" class="edge">
<title>Node21&#45;&gt;Node25</title>
<g id="a_edge34_Node000021_Node000025"><a xlink:title=" ">
<path fill="none" stroke="#63b8ff" d="M463.07,-126.9C414.32,-115.42 330.46,-95.68 277.12,-83.12"/>
<polygon fill="#63b8ff" stroke="#63b8ff" points="278.24,-79.79 267.7,-80.9 276.63,-86.6 278.24,-79.79"/>
</a>
</g>
</g>
<!-- Node25&#45;&gt;Node3 -->
<g id="edge39_Node000025_Node000003" class="edge">
<title>Node25&#45;&gt;Node3</title>
<g id="a_edge39_Node000025_Node000003"><a xlink:title=" ">
<path fill="none" stroke="#63b8ff" d="M196.78,-60.43C161.2,-50.01 102.82,-32.91 64.58,-21.7"/>
<polygon fill="#63b8ff" stroke="#63b8ff" points="65.91,-18.45 55.33,-19 63.95,-25.17 65.91,-18.45"/>
</a>
</g>
</g>
<!-- Node25&#45;&gt;Node5 -->
<g id="edge42_Node000025_Node000005" class="edge">
<title>Node25&#45;&gt;Node5</title>
<g id="a_edge42_Node000025_Node000005"><a xlink:title=" ">
<path fill="none" stroke="#63b8ff" d="M272.25,-60.38C281.33,-58.61 290.84,-56.82 299.75,-55.25 399.84,-37.65 429.1,-41.97 531.7,-19.42"/>
<polygon fill="#63b8ff" stroke="#63b8ff" points="532.4,-22.85 541.4,-17.25 530.88,-16.02 532.4,-22.85"/>
</a>
</g>
</g>
<!-- Node25&#45;&gt;Node6 -->
<g id="edge43_Node000025_Node000006" class="edge">
<title>Node25&#45;&gt;Node6</title>
<g id="a_edge43_Node000025_Node000006"><a xlink:title=" ">
<path fill="none" stroke="#63b8ff" d="M286,-61.02C301.2,-58.97 317.57,-56.89 332.75,-55.25 526.36,-34.3 580.54,-54.08 774.75,-19.47"/>
<polygon fill="#63b8ff" stroke="#63b8ff" points="775.21,-22.94 784.43,-17.72 773.96,-16.05 775.21,-22.94"/>
</a>
</g>
</g>
<!-- Node25&#45;&gt;Node10 -->
<g id="edge35_Node000025_Node000010" class="edge">
<title>Node25&#45;&gt;Node10</title>
<g id="a_edge35_Node000025_Node000010"><a xlink:title=" ">
<path fill="none" stroke="#63b8ff" d="M286.02,-61.19C301.21,-59.13 317.58,-57.01 332.75,-55.25 493.77,-36.52 538.38,-45.7 701.62,-19.39"/>
<polygon fill="#63b8ff" stroke="#63b8ff" points="701.75,-22.92 711.05,-17.85 700.62,-16.01 701.75,-22.92"/>
</a>
</g>
</g>
<!-- Node26 -->
<g id="Node000026" class="node">
<title>Node26</title>
<g id="a_Node000026"><a xlink:title=" ">
<polygon fill="#e0e0e0" stroke="#999999" points="116.38,-19.25 71.12,-19.25 71.12,0 116.38,0 116.38,-19.25"/>
<text text-anchor="middle" x="93.75" y="-5.75" font-family="Helvetica,sans-Serif" font-size="10.00">chrono</text>
</a>
</g>
</g>
<!-- Node25&#45;&gt;Node26 -->
<g id="edge36_Node000025_Node000026" class="edge">
<title>Node25&#45;&gt;Node26</title>
<g id="a_edge36_Node000025_Node000026"><a xlink:title=" ">
<path fill="none" stroke="#63b8ff" d="M207.11,-60.43C185.11,-50.76 150.03,-35.35 124.72,-24.23"/>
<polygon fill="#63b8ff" stroke="#63b8ff" points="126.15,-21.04 115.58,-20.22 123.33,-27.44 126.15,-21.04"/>
</a>
</g>
</g>
<!-- Node27 -->
<g id="Node000027" class="node">
<title>Node27</title>
<g id="a_Node000027"><a xlink:title=" ">
<polygon fill="#e0e0e0" stroke="#999999" points="182.88,-19.25 134.62,-19.25 134.62,0 182.88,0 182.88,-19.25"/>
<text text-anchor="middle" x="158.75" y="-5.75" font-family="Helvetica,sans-Serif" font-size="10.00">cstddef</text>
</a>
</g>
</g>
<!-- Node25&#45;&gt;Node27 -->
<g id="edge37_Node000025_Node000027" class="edge">
<title>Node25&#45;&gt;Node27</title>
<g id="a_edge37_Node000025_Node000027"><a xlink:title=" ">
<path fill="none" stroke="#63b8ff" d="M217.27,-60.56C206.83,-51.65 190.58,-37.78 177.84,-26.92"/>
<polygon fill="#63b8ff" stroke="#63b8ff" points="180.36,-24.46 170.48,-20.63 175.81,-29.79 180.36,-24.46"/>
</a>
</g>
</g>
<!-- Node28 -->
<g id="Node000028" class="node">
<title>Node28</title>
<g id="a_Node000028"><a xlink:title=" ">
<polygon fill="#e0e0e0" stroke="#999999" points="250.62,-19.25 200.88,-19.25 200.88,0 250.62,0 250.62,-19.25"/>
<text text-anchor="middle" x="225.75" y="-5.75" font-family="Helvetica,sans-Serif" font-size="10.00">iomanip</text>
</a>
</g>
</g>
<!-- Node25&#45;&gt;Node28 -->
<g id="edge38_Node000025_Node000028" class="edge">
<title>Node25&#45;&gt;Node28</title>
<g id="a_edge38_Node000025_Node000028"><a xlink:title=" ">
<path fill="none" stroke="#63b8ff" d="M227.45,-60.56C227.18,-52.69 226.78,-40.95 226.44,-30.82"/>
<polygon fill="#63b8ff" stroke="#63b8ff" points="229.95,-31.04 226.11,-21.16 222.95,-31.28 229.95,-31.04"/>
</a>
</g>
</g>
<!-- Node29 -->
<g id="Node000029" class="node">
<title>Node29</title>
<g id="a_Node000029"><a xlink:title=" ">
<polygon fill="#e0e0e0" stroke="#999999" points="524.75,-19.25 484.75,-19.25 484.75,0 524.75,0 524.75,-19.25"/>
<text text-anchor="middle" x="504.75" y="-5.75" font-family="Helvetica,sans-Serif" font-size="10.00">string</text>
</a>
</g>
</g>
<!-- Node25&#45;&gt;Node29 -->
<g id="edge40_Node000025_Node000029" class="edge">
<title>Node25&#45;&gt;Node29</title>
<g id="a_edge40_Node000025_Node000029"><a xlink:title=" ">
<path fill="none" stroke="#63b8ff" d="M273.89,-60.38C333.43,-48.59 433.33,-28.67 473.39,-19.54"/>
<polygon fill="#63b8ff" stroke="#63b8ff" points="474.14,-22.96 483.06,-17.24 472.52,-16.15 474.14,-22.96"/>
</a>
</g>
</g>
<!-- Node30 -->
<g id="Node000030" class="node">
<title>Node30</title>
<g id="a_Node000030"><a xlink:title=" ">
<polygon fill="#e0e0e0" stroke="#999999" points="351.12,-19.25 268.38,-19.25 268.38,0 351.12,0 351.12,-19.25"/>
<text text-anchor="middle" x="309.75" y="-5.75" font-family="Helvetica,sans-Serif" font-size="10.00">unordered_map</text>
</a>
</g>
</g>
<!-- Node25&#45;&gt;Node30 -->
<g id="edge41_Node000025_Node000030" class="edge">
<title>Node25&#45;&gt;Node30</title>
<g id="a_edge41_Node000025_Node000030"><a xlink:title=" ">
<path fill="none" stroke="#63b8ff" d="M240.2,-60.56C252.85,-51.48 272.68,-37.24 287.94,-26.29"/>
<polygon fill="#63b8ff" stroke="#63b8ff" points="289.87,-29.21 295.95,-20.53 285.78,-23.52 289.87,-29.21"/>
</a>
</g>
</g>
<!-- Node31 -->
<g id="Node000031" class="node">
<title>Node31</title>
<g id="a_Node000031"><a xlink:title=" ">
<polygon fill="#e0e0e0" stroke="#999999" points="466.62,-19.25 368.88,-19.25 368.88,0 466.62,0 466.62,-19.25"/>
<text text-anchor="middle" x="417.75" y="-5.75" font-family="Helvetica,sans-Serif" font-size="10.00">nlohmann/json.hpp</text>
</a>
</g>
</g>
<!-- Node25&#45;&gt;Node31 -->
<g id="edge44_Node000025_Node000031" class="edge">
<title>Node25&#45;&gt;Node31</title>
<g id="a_edge44_Node000025_Node000031"><a xlink:title=" ">
<path fill="none" stroke="#63b8ff" d="M257.02,-60.43C289.38,-50.4 341.69,-34.19 377.8,-23"/>
<polygon fill="#63b8ff" stroke="#63b8ff" points="378.48,-26.46 387,-20.15 376.41,-19.77 378.48,-26.46"/>
</a>
</g>
</g>
<!-- Node32&#45;&gt;Node5 -->
<g id="edge52_Node000032_Node000005" class="edge">
<title>Node32&#45;&gt;Node5</title>
<g id="a_edge52_Node000032_Node000005"><a xlink:title=" ">
<path fill="none" stroke="#63b8ff" d="M638.23,-60.56C624.38,-51.39 602.57,-36.97 585.95,-25.98"/>
<polygon fill="#63b8ff" stroke="#63b8ff" points="587.93,-23.08 577.66,-20.49 584.07,-28.92 587.93,-23.08"/>
</a>
</g>
</g>
<!-- Node32&#45;&gt;Node6 -->
<g id="edge53_Node000032_Node000006" class="edge">
<title>Node32&#45;&gt;Node6</title>
<g id="a_edge53_Node000032_Node000006"><a xlink:title=" ">
<path fill="none" stroke="#63b8ff" d="M675.78,-60.43C702.46,-50.36 745.65,-34.06 775.31,-22.87"/>
<polygon fill="#63b8ff" stroke="#63b8ff" points="776.42,-26.19 784.54,-19.38 773.95,-19.64 776.42,-26.19"/>
</a>
</g>
</g>
<!-- Node32&#45;&gt;Node10 -->
<g id="edge47_Node000032_Node000010" class="edge">
<title>Node32&#45;&gt;Node10</title>
<g id="a_edge47_Node000032_Node000010"><a xlink:title=" ">
<path fill="none" stroke="#63b8ff" d="M665.27,-60.56C679.12,-51.39 700.93,-36.97 717.55,-25.98"/>
<polygon fill="#63b8ff" stroke="#63b8ff" points="719.43,-28.92 725.84,-20.49 715.57,-23.08 719.43,-28.92"/>
</a>
</g>
</g>
<!-- Node32&#45;&gt;Node19 -->
<g id="edge49_Node000032_Node000019" class="edge">
<title>Node32&#45;&gt;Node19</title>
<g id="a_edge49_Node000032_Node000019"><a xlink:title=" ">
<path fill="none" stroke="#63b8ff" d="M685.8,-60.43C726.41,-49.61 794.06,-31.59 835.88,-20.45"/>
<polygon fill="#63b8ff" stroke="#63b8ff" points="836.73,-23.84 845.49,-17.89 834.93,-17.08 836.73,-23.84"/>
</a>
</g>
</g>
<!-- Node32&#45;&gt;Node29 -->
<g id="edge51_Node000032_Node000029" class="edge">
<title>Node32&#45;&gt;Node29</title>
<g id="a_edge51_Node000032_Node000029"><a xlink:title=" ">
<path fill="none" stroke="#63b8ff" d="M629.1,-60.43C603.93,-50.35 563.16,-34.02 535.21,-22.82"/>
<polygon fill="#63b8ff" stroke="#63b8ff" points="536.81,-19.7 526.23,-19.23 534.21,-26.19 536.81,-19.7"/>
</a>
</g>
</g>
<!-- Node33 -->
<g id="Node000033" class="node">
<title>Node33</title>
<g id="a_Node000033"><a xlink:title=" ">
<polygon fill="#e0e0e0" stroke="#999999" points="646.75,-19.25 600.75,-19.25 600.75,0 646.75,0 646.75,-19.25"/>
<text text-anchor="middle" x="623.75" y="-5.75" font-family="Helvetica,sans-Serif" font-size="10.00">iterator</text>
</a>
</g>
</g>
<!-- Node32&#45;&gt;Node33 -->
<g id="edge48_Node000032_Node000033" class="edge">
<title>Node32&#45;&gt;Node33</title>
<g id="a_edge48_Node000032_Node000033"><a xlink:title=" ">
<path fill="none" stroke="#63b8ff" d="M647.5,-60.56C643.63,-52.43 637.8,-40.17 632.88,-29.83"/>
<polygon fill="#63b8ff" stroke="#63b8ff" points="636.15,-28.55 628.69,-21.02 629.83,-31.55 636.15,-28.55"/>
</a>
</g>
</g>
<!-- Node34 -->
<g id="Node000034" class="node">
<title>Node34</title>
<g id="a_Node000034"><a xlink:title=" ">
<polygon fill="#e0e0e0" stroke="#999999" points="694.5,-19.25 665,-19.25 665,0 694.5,0 694.5,-19.25"/>
<text text-anchor="middle" x="679.75" y="-5.75" font-family="Helvetica,sans-Serif" font-size="10.00">set</text>
</a>
</g>
</g>
<!-- Node32&#45;&gt;Node34 -->
<g id="edge50_Node000032_Node000034" class="edge">
<title>Node32&#45;&gt;Node34</title>
<g id="a_edge50_Node000032_Node000034"><a xlink:title=" ">
<path fill="none" stroke="#63b8ff" d="M656,-60.56C659.87,-52.43 665.7,-40.17 670.62,-29.83"/>
<polygon fill="#63b8ff" stroke="#63b8ff" points="673.67,-31.55 674.81,-21.02 667.35,-28.55 673.67,-31.55"/>
</a>
</g>
</g>
</g>
</svg>

<g id="navigator" transform="translate(0 0)" fill="#404254">
  <rect fill="#f2f5e9" fill-opacity="0.5" stroke="#606060" stroke-width=".5" x="0" y="0" width="60" height="60"/>
  <use id="zoomplus" xlink:href="#zoomPlus" x="17" y="9" onmousedown="handleZoom(evt,'in')"/>
  <use id="zoomminus" xlink:href="#zoomMin" x="42" y="9" onmousedown="handleZoom(evt,'out')"/>
  <use id="reset" xlink:href="#resetDef" x="30" y="36" onmousedown="handleReset()"/>
   <use id="arrowup" xlink:href="#arrowUp" x="0" y="0" onmousedown="handlePan(0,-1)"/>
  <use id="arrowright" xlink:href="#arrowRight" x="0" y="0" onmousedown="handlePan(1,0)"/>
  <use id="arrowdown" xlink:href="#arrowDown" x="0" y="0" onmousedown="handlePan(0,1)"/>
  <use id="arrowleft" xlink:href="#arrowLeft" x="0" y="0" onmousedown="handlePan(-1,0)"/>
</g>
<svg viewBox="0 0 15 15" width="100%" height="30px" preserveAspectRatio="xMaxYMin meet">
 <g id="arrow_out" transform="scale(0.3 0.3)">
  <a xlink:href="parallel__mesh_8hpp__incl_org.svg" target="_base">
   <rect id="button" ry="5" rx="5" y="6" x="6" height="38" width="38"
        fill="#f2f5e9" fill-opacity="0.5" stroke="#606060" stroke-width="1.0"/>
   <path id="arrow"
     d="M 11.500037,31.436501 C 11.940474,20.09759 22.043105,11.32322 32.158766,21.979434 L 37.068811,17.246167 C 37.068811,17.246167 37.088388,32 37.088388,32 L 22.160133,31.978069 C 22.160133,31.978069 26.997745,27.140456 26.997745,27.140456 C 18.528582,18.264221 13.291696,25.230495 11.500037,31.436501 z"
     style="fill:#404040;"/>
  </a>
 </g>
</svg>

<style type='text/css'>
<![CDATA[
[data-mouse-over-selected='false'] { opacity: 0.7; }
[data-mouse-over-selected='true']  { opacity: 1.0; }
]]>
</style>
<script type="application/ecmascript"><![CDATA[
document.addEventListener('DOMContentLoaded', (event) => {
  highlightEdges();
  highlightAdjacentNodes();
});
]]></script>
</svg>
