<?xml version="1.0" encoding="UTF-8" standalone="no"?>
<!DOCTYPE svg PUBLIC "-//W3C//DTD SVG 1.1//EN"
 "http://www.w3.org/Graphics/SVG/1.1/DTD/svg11.dtd">
<!-- Generated by graphviz version 2.42.4 (0)
 -->
<!-- Title: /__w/vulpes/vulpes/vulpes/geometry/parallel_mesh.hpp Pages: 1 -->
<!--zoomable 291 -->

<svg id="main" version="1.1" xmlns="http://www.w3.org/2000/svg" xmlns:xlink="http://www.w3.org/1999/xlink" xml:space="preserve" onload="init(evt)">
<style type="text/css"><![CDATA[
.node, .edge {opacity: 0.7;}
.node.selected, .edge.selected {opacity: 1;}
.edge:hover path { stroke: red; }
.edge:hover polygon { stroke: red; fill: red; }
]]></style>

<defs>
  <circle id="rim" cx="0" cy="0" r="7"/>
  <circle id="rim2" cx="0" cy="0" r="3.5"/>
  <g id="zoomPlus">
    <use xlink:href="#rim" fill="#404040"><set attributeName="fill" to="#808080" begin="zoomplus.mouseover" end="zoomplus.mouseout"/></use>
    <path d="M-4,0h8M0,-4v8" fill="none" stroke="white" stroke-width="1.5" pointer-events="none"/>
  </g>
  <g id="zoomMin">
    <use xlink:href="#rim" fill="#404040"><set attributeName="fill" to="#808080" begin="zoomminus.mouseover" end="zoomminus.mouseout"/></use>
    <path d="M-4,0h8" fill="none" stroke="white" stroke-width="1.5" pointer-events="none"/>
  </g>
  <g id="arrowUp" transform="translate(30 24)">
    <use xlink:href="#rim"/>
    <path pointer-events="none" fill="none" stroke="white" stroke-width="1.5" d="M0,-3.0v7 M-2.5,-0.5L0,-3.0L2.5,-0.5"/>
  </g>
  <g id="arrowRight" transform="rotate(90) translate(36 -43)">
    <use xlink:href="#rim"/>
    <path pointer-events="none" fill="none" stroke="white" stroke-width="1.5" d="M0,-3.0v7 M-2.5,-0.5L0,-3.0L2.5,-0.5"/>
  </g>
  <g id="arrowDown" transform="rotate(180) translate(-30 -48)">
    <use xlink:href="#rim"/>
    <path pointer-events="none" fill="none" stroke="white" stroke-width="1.5" d="M0,-3.0v7 M-2.5,-0.5L0,-3.0L2.5,-0.5"/>
  </g>
  <g id="arrowLeft" transform="rotate(270) translate(-36 17)">
    <use xlink:href="#rim"/>
    <path pointer-events="none" fill="none" stroke="white" stroke-width="1.5" d="M0,-3.0v7 M-2.5,-0.5L0,-3.0L2.5,-0.5"/>
  </g>
  <g id="resetDef">
    <use xlink:href="#rim2" fill="#404040"><set attributeName="fill" to="#808080" begin="reset.mouseover" end="reset.mouseout"/></use>
  </g>
</defs>
<script type="application/ecmascript">
var viewWidth = 1953;
var viewHeight = 291;
var sectionId = 'dynsection-0';
</script>
<script type="application/ecmascript" xlink:href="svg.min.js"/>
<svg id="graph" class="graph">
<g id="viewport">
<title>/__w/vulpes/vulpes/vulpes/geometry/parallel_mesh.hpp</title>
<!-- Node1 -->
<g id="Node000001" class="node">
<title>Node1</title>
<g id="a_Node000001"><a xlink:title=" ">
<polygon fill="#999999" stroke="#666666" points="1426.5,-283 1284.5,-283 1284.5,-242 1426.5,-242 1426.5,-283"/>
<text text-anchor="start" x="1292.5" y="-271" font-family="Helvetica,sans-Serif" font-size="10.00">/__w/vulpes/vulpes</text>
<text text-anchor="start" x="1292.5" y="-260" font-family="Helvetica,sans-Serif" font-size="10.00">/vulpes/geometry/parallel</text>
<text text-anchor="middle" x="1355.5" y="-249" font-family="Helvetica,sans-Serif" font-size="10.00">_mesh.hpp</text>
</a>
</g>
</g>
<!-- Node2 -->
<g id="Node000002" class="node">
<title>Node2</title>
<g id="a_Node000002"><a xlink:title=" ">
<polygon fill="#e0e0e0" stroke="#999999" points="69,-200.5 0,-200.5 0,-181.5 69,-181.5 69,-200.5"/>
<text text-anchor="middle" x="34.5" y="-188.5" font-family="Helvetica,sans-Serif" font-size="10.00">parmetis.h</text>
</a>
</g>
</g>
<!-- Node1&#45;&gt;Node2 -->
<g id="edge1_Node000001_Node000002" class="edge">
<title>Node1&#45;&gt;Node2</title>
<g id="a_edge1_Node000001_Node000002"><a xlink:title=" ">
<path fill="none" stroke="#63b8ff" d="M1284.1,-260.59C1051.53,-257.27 317.37,-243.97 83.5,-206 79.06,-205.28 74.44,-204.29 69.91,-203.17"/>
<polygon fill="#63b8ff" stroke="#63b8ff" points="70.75,-199.77 60.18,-200.56 68.93,-206.53 70.75,-199.77"/>
</a>
</g>
</g>
<!-- Node3 -->
<g id="Node000003" class="node">
<title>Node3</title>
<g id="a_Node000003"><a xlink:title=" ">
<polygon fill="#e0e0e0" stroke="#999999" points="1944.5,-19 1884.5,-19 1884.5,0 1944.5,0 1944.5,-19"/>
<text text-anchor="middle" x="1914.5" y="-7" font-family="Helvetica,sans-Serif" font-size="10.00">iostream</text>
</a>
</g>
</g>
<!-- Node1&#45;&gt;Node3 -->
<g id="edge2_Node000001_Node000003" class="edge">
<title>Node1&#45;&gt;Node3</title>
<g id="a_edge2_Node000001_Node000003"><a xlink:title=" ">
<path fill="none" stroke="#63b8ff" d="M1426.62,-258.98C1564.6,-253.4 1858.01,-237.89 1890.5,-206 1938.7,-158.69 1926.81,-68.02 1918.86,-29.05"/>
<polygon fill="#63b8ff" stroke="#63b8ff" points="1922.25,-28.13 1916.69,-19.11 1915.41,-29.63 1922.25,-28.13"/>
</a>
</g>
</g>
<!-- Node4 -->
<g id="Node000004" class="node">
<title>Node4</title>
<g id="a_Node000004"><a xlink:title=" ">
<polygon fill="#e0e0e0" stroke="#999999" points="1104.5,-200.5 1046.5,-200.5 1046.5,-181.5 1104.5,-181.5 1104.5,-200.5"/>
<text text-anchor="middle" x="1075.5" y="-188.5" font-family="Helvetica,sans-Serif" font-size="10.00">memory</text>
</a>
</g>
</g>
<!-- Node1&#45;&gt;Node4 -->
<g id="edge3_Node000001_Node000004" class="edge">
<title>Node1&#45;&gt;Node4</title>
<g id="a_edge3_Node000001_Node000004"><a xlink:title=" ">
<path fill="none" stroke="#63b8ff" d="M1284.32,-246.48C1237.05,-236.11 1173.75,-221.43 1118.5,-206 1115.74,-205.23 1112.88,-204.39 1110.03,-203.52"/>
<polygon fill="#63b8ff" stroke="#63b8ff" points="1110.99,-200.16 1100.4,-200.5 1108.9,-206.84 1110.99,-200.16"/>
</a>
</g>
</g>
<!-- Node5 -->
<g id="Node000005" class="node">
<title>Node5</title>
<g id="a_Node000005"><a xlink:title=" ">
<polygon fill="#e0e0e0" stroke="#999999" points="935,-19 890,-19 890,0 935,0 935,-19"/>
<text text-anchor="middle" x="912.5" y="-7" font-family="Helvetica,sans-Serif" font-size="10.00">utility</text>
</a>
</g>
</g>
<!-- Node1&#45;&gt;Node5 -->
<g id="edge4_Node000001_Node000005" class="edge">
<title>Node1&#45;&gt;Node5</title>
<g id="a_edge4_Node000001_Node000005"><a xlink:title=" ">
<path fill="none" stroke="#63b8ff" d="M1284.14,-256.47C1035.72,-238.23 219.81,-172.08 144.5,-85 135.78,-74.91 135.31,-64.66 144.5,-55 199.14,2.38 761.58,-29.37 879.62,-18.38"/>
<polygon fill="#63b8ff" stroke="#63b8ff" points="880.39,-21.81 889.9,-17.13 879.55,-14.86 880.39,-21.81"/>
</a>
</g>
</g>
<!-- Node6 -->
<g id="Node000006" class="node">
<title>Node6</title>
<g id="a_Node000006"><a xlink:title=" ">
<polygon fill="#e0e0e0" stroke="#999999" points="1229,-19 1182,-19 1182,0 1229,0 1229,-19"/>
<text text-anchor="middle" x="1205.5" y="-7" font-family="Helvetica,sans-Serif" font-size="10.00">vector</text>
</a>
</g>
</g>
<!-- Node1&#45;&gt;Node6 -->
<g id="edge5_Node000001_Node000006" class="edge">
<title>Node1&#45;&gt;Node6</title>
<g id="a_edge5_Node000001_Node000006"><a xlink:title=" ">
<path fill="none" stroke="#63b8ff" d="M1284.47,-256.53C1249.88,-250.1 1211.16,-236.08 1189.5,-206 1150.56,-151.92 1180.5,-66.29 1196.77,-28.94"/>
<polygon fill="#63b8ff" stroke="#63b8ff" points="1200.17,-29.92 1201.11,-19.37 1193.79,-27.03 1200.17,-29.92"/>
</a>
</g>
</g>
<!-- Node7 -->
<g id="Node000007" class="node">
<title>Node7</title>
<g id="a_Node000007"><a xlink:title=" ">
<polygon fill="#e0e0e0" stroke="#999999" points="1347,-206 1198,-206 1198,-176 1347,-176 1347,-206"/>
<text text-anchor="start" x="1206" y="-194" font-family="Helvetica,sans-Serif" font-size="10.00">boost/unordered/unordered</text>
<text text-anchor="middle" x="1272.5" y="-183" font-family="Helvetica,sans-Serif" font-size="10.00">_flat_map.hpp</text>
</a>
</g>
</g>
<!-- Node1&#45;&gt;Node7 -->
<g id="edge6_Node000001_Node000007" class="edge">
<title>Node1&#45;&gt;Node7</title>
<g id="a_edge6_Node000001_Node000007"><a xlink:title=" ">
<path fill="none" stroke="#63b8ff" d="M1331.94,-241.77C1321.09,-232.69 1308.22,-221.91 1297.23,-212.71"/>
<polygon fill="#63b8ff" stroke="#63b8ff" points="1299.18,-209.77 1289.27,-206.04 1294.69,-215.14 1299.18,-209.77"/>
</a>
</g>
</g>
<!-- Node8 -->
<g id="Node000008" class="node">
<title>Node8</title>
<g id="a_Node000008"><a xlink:title=" ">
<polygon fill="#e0e0e0" stroke="#999999" points="1514,-206 1365,-206 1365,-176 1514,-176 1514,-206"/>
<text text-anchor="start" x="1373" y="-194" font-family="Helvetica,sans-Serif" font-size="10.00">boost/unordered/unordered</text>
<text text-anchor="middle" x="1439.5" y="-183" font-family="Helvetica,sans-Serif" font-size="10.00">_flat_set.hpp</text>
</a>
</g>
</g>
<!-- Node1&#45;&gt;Node8 -->
<g id="edge7_Node000001_Node000008" class="edge">
<title>Node1&#45;&gt;Node8</title>
<g id="a_edge7_Node000001_Node000008"><a xlink:title=" ">
<path fill="none" stroke="#63b8ff" d="M1379.35,-241.77C1390.43,-232.6 1403.6,-221.7 1414.79,-212.44"/>
<polygon fill="#63b8ff" stroke="#63b8ff" points="1417.06,-215.11 1422.53,-206.04 1412.6,-209.72 1417.06,-215.11"/>
</a>
</g>
</g>
<!-- Node9 -->
<g id="Node000009" class="node">
<title>Node9</title>
<g id="a_Node000009"><a xlink:href="numbering_8hpp.html" target="_top" xlink:title=" ">
<polygon fill="white" stroke="#666666" points="856,-140 707,-140 707,-121 856,-121 856,-140"/>
<text text-anchor="middle" x="781.5" y="-128" font-family="Helvetica,sans-Serif" font-size="10.00">vulpes/dofs/numbering.hpp</text>
</a>
</g>
</g>
<!-- Node1&#45;&gt;Node9 -->
<g id="edge8_Node000001_Node000009" class="edge">
<title>Node1&#45;&gt;Node9</title>
<g id="a_edge8_Node000001_Node000009"><a xlink:title=" ">
<path fill="none" stroke="#63b8ff" d="M1284.36,-247.79C1245.45,-238.8 1197.05,-225.12 1156.5,-206 1135.42,-196.06 1135.22,-184.45 1113.5,-176 1033.47,-144.85 935.3,-134.83 866.55,-131.93"/>
<polygon fill="#63b8ff" stroke="#63b8ff" points="866.32,-128.42 856.2,-131.53 866.06,-135.41 866.32,-128.42"/>
</a>
</g>
</g>
<!-- Node21 -->
<g id="Node000021" class="node">
<title>Node21</title>
<g id="a_Node000021"><a xlink:href="mpi__wrappers_8hpp.html" target="_top" xlink:title=" ">
<polygon fill="white" stroke="#666666" points="1662.5,-140 1496.5,-140 1496.5,-121 1662.5,-121 1662.5,-140"/>
<text text-anchor="middle" x="1579.5" y="-128" font-family="Helvetica,sans-Serif" font-size="10.00">vulpes/utils/mpi_wrappers.hpp</text>
</a>
</g>
</g>
<!-- Node1&#45;&gt;Node21 -->
<g id="edge26_Node000001_Node000021" class="edge">
<title>Node1&#45;&gt;Node21</title>
<g id="a_edge26_Node000001_Node000021"><a xlink:title=" ">
<path fill="none" stroke="#63b8ff" d="M1426.66,-258.23C1469.08,-252.66 1521.18,-238.94 1555.5,-206 1570.63,-191.47 1576.24,-167.38 1578.31,-150.53"/>
<polygon fill="#63b8ff" stroke="#63b8ff" points="1581.83,-150.51 1579.25,-140.24 1574.86,-149.88 1581.83,-150.51"/>
</a>
</g>
</g>
<!-- Node25 -->
<g id="Node000025" class="node">
<title>Node25</title>
<g id="a_Node000025"><a xlink:href="profiler_8hpp.html" target="_top" xlink:title=" ">
<polygon fill="white" stroke="#666666" points="1754,-79.5 1623,-79.5 1623,-60.5 1754,-60.5 1754,-79.5"/>
<text text-anchor="middle" x="1688.5" y="-67.5" font-family="Helvetica,sans-Serif" font-size="10.00">vulpes/utils/profiler.hpp</text>
</a>
</g>
</g>
<!-- Node1&#45;&gt;Node25 -->
<g id="edge45_Node000001_Node000025" class="edge">
<title>Node1&#45;&gt;Node25</title>
<g id="a_edge45_Node000001_Node000025"><a xlink:title=" ">
<path fill="none" stroke="#63b8ff" d="M1426.72,-250.58C1471.4,-242.08 1529.44,-227.96 1577.5,-206 1623.93,-184.79 1642.67,-182.13 1671.5,-140 1681.72,-125.07 1685.81,-104.61 1687.44,-89.85"/>
<polygon fill="#63b8ff" stroke="#63b8ff" points="1690.93,-90.11 1688.26,-79.86 1683.95,-89.53 1690.93,-90.11"/>
</a>
</g>
</g>
<!-- Node32 -->
<g id="Node000032" class="node">
<title>Node32</title>
<g id="a_Node000032"><a xlink:href="vvutils_8hpp.html" target="_top" xlink:title=" ">
<polygon fill="white" stroke="#666666" points="1338.5,-79.5 1208.5,-79.5 1208.5,-60.5 1338.5,-60.5 1338.5,-79.5"/>
<text text-anchor="middle" x="1273.5" y="-67.5" font-family="Helvetica,sans-Serif" font-size="10.00">vulpes/utils/vvutils.hpp</text>
</a>
</g>
</g>
<!-- Node1&#45;&gt;Node32 -->
<g id="edge46_Node000001_Node000032" class="edge">
<title>Node1&#45;&gt;Node32</title>
<g id="a_edge46_Node000001_Node000032"><a xlink:title=" ">
<path fill="none" stroke="#63b8ff" d="M1426.71,-251.75C1484.29,-240.61 1551.53,-218.18 1523.5,-176 1499.38,-139.72 1379.45,-101.01 1314.86,-82.35"/>
<polygon fill="#63b8ff" stroke="#63b8ff" points="1315.57,-78.91 1304.99,-79.53 1313.65,-85.64 1315.57,-78.91"/>
</a>
</g>
</g>
<!-- Node35 -->
<g id="Node000035" class="node">
<title>Node35</title>
<g id="a_Node000035"><a xlink:href="pcout_8hpp.html" target="_top" xlink:title=" ">
<polygon fill="white" stroke="#666666" points="1881.5,-200.5 1757.5,-200.5 1757.5,-181.5 1881.5,-181.5 1881.5,-200.5"/>
<text text-anchor="middle" x="1819.5" y="-188.5" font-family="Helvetica,sans-Serif" font-size="10.00">vulpes/utils/pcout.hpp</text>
</a>
</g>
</g>
<!-- Node1&#45;&gt;Node35 -->
<g id="edge54_Node000001_Node000035" class="edge">
<title>Node1&#45;&gt;Node35</title>
<g id="a_edge54_Node000001_Node000035"><a xlink:title=" ">
<path fill="none" stroke="#63b8ff" d="M1426.73,-250.83C1515.43,-237.54 1665.83,-215.02 1752.51,-202.03"/>
<polygon fill="#63b8ff" stroke="#63b8ff" points="1753.13,-205.48 1762.5,-200.54 1752.09,-198.56 1753.13,-205.48"/>
</a>
</g>
</g>
<!-- Node9&#45;&gt;Node5 -->
<g id="edge12_Node000009_Node000005" class="edge">
<title>Node9&#45;&gt;Node5</title>
<g id="a_edge12_Node000009_Node000005"><a xlink:title=" ">
<path fill="none" stroke="#63b8ff" d="M707,-129.77C548.95,-129.57 191.46,-124.68 154.5,-85 145.41,-75.24 145.31,-64.66 154.5,-55 208.38,1.62 763.19,-29.28 879.75,-18.37"/>
<polygon fill="#63b8ff" stroke="#63b8ff" points="880.4,-21.81 889.9,-17.13 879.55,-14.86 880.4,-21.81"/>
</a>
</g>
</g>
<!-- Node9&#45;&gt;Node6 -->
<g id="edge13_Node000009_Node000006" class="edge">
<title>Node9&#45;&gt;Node6</title>
<g id="a_edge13_Node000009_Node000006"><a xlink:title=" ">
<path fill="none" stroke="#63b8ff" d="M856.17,-126.68C918.33,-122.41 1008.32,-111.71 1082.5,-85 1122.31,-70.66 1163.33,-42.65 1186.5,-25.36"/>
<polygon fill="#63b8ff" stroke="#63b8ff" points="1188.89,-27.93 1194.74,-19.1 1184.66,-22.36 1188.89,-27.93"/>
</a>
</g>
</g>
<!-- Node10 -->
<g id="Node000010" class="node">
<title>Node10</title>
<g id="a_Node000010"><a xlink:title=" ">
<polygon fill="#e0e0e0" stroke="#999999" points="1163.5,-19 1099.5,-19 1099.5,0 1163.5,0 1163.5,-19"/>
<text text-anchor="middle" x="1131.5" y="-7" font-family="Helvetica,sans-Serif" font-size="10.00">algorithm</text>
</a>
</g>
</g>
<!-- Node9&#45;&gt;Node10 -->
<g id="edge9_Node000009_Node000010" class="edge">
<title>Node9&#45;&gt;Node10</title>
<g id="a_edge9_Node000009_Node000010"><a xlink:title=" ">
<path fill="none" stroke="#63b8ff" d="M856.16,-127.82C911.13,-124.06 986.44,-113.5 1046.5,-85 1075.75,-71.12 1102.61,-44.18 1118,-26.79"/>
<polygon fill="#63b8ff" stroke="#63b8ff" points="1120.74,-28.98 1124.6,-19.11 1115.43,-24.41 1120.74,-28.98"/>
</a>
</g>
</g>
<!-- Node11 -->
<g id="Node000011" class="node">
<title>Node11</title>
<g id="a_Node000011"><a xlink:title=" ">
<polygon fill="#e0e0e0" stroke="#999999" points="1005.5,-19 953.5,-19 953.5,0 1005.5,0 1005.5,-19"/>
<text text-anchor="middle" x="979.5" y="-7" font-family="Helvetica,sans-Serif" font-size="10.00">cassert</text>
</a>
</g>
</g>
<!-- Node9&#45;&gt;Node11 -->
<g id="edge10_Node000009_Node000011" class="edge">
<title>Node9&#45;&gt;Node11</title>
<g id="a_edge10_Node000009_Node000011"><a xlink:title=" ">
<path fill="none" stroke="#63b8ff" d="M802,-120.9C820.86,-112.65 849.34,-99.37 872.5,-85 891.08,-73.47 893.67,-67.66 911.5,-55 926.45,-44.38 943.76,-33.07 957.16,-24.51"/>
<polygon fill="#63b8ff" stroke="#63b8ff" points="959.18,-27.38 965.75,-19.07 955.43,-21.47 959.18,-27.38"/>
</a>
</g>
</g>
<!-- Node12 -->
<g id="Node000012" class="node">
<title>Node12</title>
<g id="a_Node000012"><a xlink:title=" ">
<polygon fill="#e0e0e0" stroke="#999999" points="219.5,-79.5 163.5,-79.5 163.5,-60.5 219.5,-60.5 219.5,-79.5"/>
<text text-anchor="middle" x="191.5" y="-67.5" font-family="Helvetica,sans-Serif" font-size="10.00">numeric</text>
</a>
</g>
</g>
<!-- Node9&#45;&gt;Node12 -->
<g id="edge11_Node000009_Node000012" class="edge">
<title>Node9&#45;&gt;Node12</title>
<g id="a_edge11_Node000009_Node000012"><a xlink:title=" ">
<path fill="none" stroke="#63b8ff" d="M706.71,-130.1C599.49,-129.47 396.48,-122.74 228.5,-85 225.98,-84.43 223.4,-83.73 220.83,-82.95"/>
<polygon fill="#63b8ff" stroke="#63b8ff" points="221.75,-79.56 211.15,-79.61 219.47,-86.18 221.75,-79.56"/>
</a>
</g>
</g>
<!-- Node13 -->
<g id="Node000013" class="node">
<title>Node13</title>
<g id="a_Node000013"><a xlink:title=" ">
<polygon fill="#e0e0e0" stroke="#999999" points="365,-85 238,-85 238,-55 365,-55 365,-85"/>
<text text-anchor="start" x="246" y="-73" font-family="Helvetica,sans-Serif" font-size="10.00">boost/graph/adjacency</text>
<text text-anchor="middle" x="301.5" y="-62" font-family="Helvetica,sans-Serif" font-size="10.00">_list.hpp</text>
</a>
</g>
</g>
<!-- Node9&#45;&gt;Node13 -->
<g id="edge14_Node000009_Node000013" class="edge">
<title>Node9&#45;&gt;Node13</title>
<g id="a_edge14_Node000009_Node000013"><a xlink:title=" ">
<path fill="none" stroke="#63b8ff" d="M706.81,-123.24C627.05,-116.12 496.76,-103.28 375.28,-85.19"/>
<polygon fill="#63b8ff" stroke="#63b8ff" points="375.46,-81.68 365.05,-83.66 374.42,-88.6 375.46,-81.68"/>
</a>
</g>
</g>
<!-- Node14 -->
<g id="Node000014" class="node">
<title>Node14</title>
<g id="a_Node000014"><a xlink:title=" ">
<polygon fill="#e0e0e0" stroke="#999999" points="504,-85 383,-85 383,-55 504,-55 504,-85"/>
<text text-anchor="start" x="391" y="-73" font-family="Helvetica,sans-Serif" font-size="10.00">boost/graph/cuthill</text>
<text text-anchor="middle" x="443.5" y="-62" font-family="Helvetica,sans-Serif" font-size="10.00">_mckee_ordering.hpp</text>
</a>
</g>
</g>
<!-- Node9&#45;&gt;Node14 -->
<g id="edge15_Node000009_Node000014" class="edge">
<title>Node9&#45;&gt;Node14</title>
<g id="a_edge15_Node000009_Node000014"><a xlink:title=" ">
<path fill="none" stroke="#63b8ff" d="M727,-120.99C675.01,-112.75 594.23,-99.63 514.42,-85.13"/>
<polygon fill="#63b8ff" stroke="#63b8ff" points="514.65,-81.62 504.18,-83.26 513.39,-88.5 514.65,-81.62"/>
</a>
</g>
</g>
<!-- Node15 -->
<g id="Node000015" class="node">
<title>Node15</title>
<g id="a_Node000015"><a xlink:title=" ">
<polygon fill="#e0e0e0" stroke="#999999" points="680.5,-79.5 522.5,-79.5 522.5,-60.5 680.5,-60.5 680.5,-79.5"/>
<text text-anchor="middle" x="601.5" y="-67.5" font-family="Helvetica,sans-Serif" font-size="10.00">boost/graph/graph_utility.hpp</text>
</a>
</g>
</g>
<!-- Node9&#45;&gt;Node15 -->
<g id="edge16_Node000009_Node000015" class="edge">
<title>Node9&#45;&gt;Node15</title>
<g id="a_edge16_Node000009_Node000015"><a xlink:title=" ">
<path fill="none" stroke="#63b8ff" d="M755.33,-120.99C724.27,-110.9 672.31,-94.01 637.48,-82.69"/>
<polygon fill="#63b8ff" stroke="#63b8ff" points="638.3,-79.28 627.71,-79.52 636.13,-85.94 638.3,-79.28"/>
</a>
</g>
</g>
<!-- Node16 -->
<g id="Node000016" class="node">
<title>Node16</title>
<g id="a_Node000016"><a xlink:title=" ">
<polygon fill="#e0e0e0" stroke="#999999" points="864,-79.5 699,-79.5 699,-60.5 864,-60.5 864,-79.5"/>
<text text-anchor="middle" x="781.5" y="-67.5" font-family="Helvetica,sans-Serif" font-size="10.00">boost/graph/king_ordering.hpp</text>
</a>
</g>
</g>
<!-- Node9&#45;&gt;Node16 -->
<g id="edge17_Node000009_Node000016" class="edge">
<title>Node9&#45;&gt;Node16</title>
<g id="a_edge17_Node000009_Node000016"><a xlink:title=" ">
<path fill="none" stroke="#63b8ff" d="M781.5,-120.87C781.5,-112.75 781.5,-100.31 781.5,-89.89"/>
<polygon fill="#63b8ff" stroke="#63b8ff" points="785,-89.67 781.5,-79.67 778,-89.67 785,-89.67"/>
</a>
</g>
</g>
<!-- Node17 -->
<g id="Node000017" class="node">
<title>Node17</title>
<g id="a_Node000017"><a xlink:href="crs__map_8hpp.html" target="_top" xlink:title=" ">
<polygon fill="white" stroke="#666666" points="1038,-85 921,-85 921,-55 1038,-55 1038,-85"/>
<text text-anchor="start" x="929" y="-73" font-family="Helvetica,sans-Serif" font-size="10.00">vulpes/datastructure</text>
<text text-anchor="middle" x="979.5" y="-62" font-family="Helvetica,sans-Serif" font-size="10.00">/crs_map.hpp</text>
</a>
</g>
</g>
<!-- Node9&#45;&gt;Node17 -->
<g id="edge18_Node000009_Node000017" class="edge">
<title>Node9&#45;&gt;Node17</title>
<g id="a_edge18_Node000009_Node000017"><a xlink:title=" ">
<path fill="none" stroke="#63b8ff" d="M810.29,-120.99C839.53,-112.35 885.61,-98.74 922.3,-87.9"/>
<polygon fill="#63b8ff" stroke="#63b8ff" points="923.3,-91.25 931.9,-85.06 921.32,-84.54 923.3,-91.25"/>
</a>
</g>
</g>
<!-- Node17&#45;&gt;Node5 -->
<g id="edge23_Node000017_Node000005" class="edge">
<title>Node17&#45;&gt;Node5</title>
<g id="a_edge23_Node000017_Node000005"><a xlink:title=" ">
<path fill="none" stroke="#63b8ff" d="M963.28,-54.84C953.26,-46.09 940.39,-34.85 930.12,-25.88"/>
<polygon fill="#63b8ff" stroke="#63b8ff" points="932.37,-23.21 922.54,-19.27 927.77,-28.48 932.37,-23.21"/>
</a>
</g>
</g>
<!-- Node17&#45;&gt;Node6 -->
<g id="edge25_Node000017_Node000006" class="edge">
<title>Node17&#45;&gt;Node6</title>
<g id="a_edge25_Node000017_Node000006"><a xlink:title=" ">
<path fill="none" stroke="#63b8ff" d="M1033.63,-54.99C1076.54,-43.88 1135.15,-28.71 1171.65,-19.26"/>
<polygon fill="#63b8ff" stroke="#63b8ff" points="1172.97,-22.54 1181.77,-16.64 1171.21,-15.76 1172.97,-22.54"/>
</a>
</g>
</g>
<!-- Node17&#45;&gt;Node10 -->
<g id="edge19_Node000017_Node000010" class="edge">
<title>Node17&#45;&gt;Node10</title>
<g id="a_edge19_Node000017_Node000010"><a xlink:title=" ">
<path fill="none" stroke="#63b8ff" d="M1015.91,-54.99C1041.38,-45.18 1075.09,-32.21 1099.53,-22.81"/>
<polygon fill="#63b8ff" stroke="#63b8ff" points="1100.98,-26 1109.05,-19.14 1098.46,-19.46 1100.98,-26"/>
</a>
</g>
</g>
<!-- Node17&#45;&gt;Node11 -->
<g id="edge21_Node000017_Node000011" class="edge">
<title>Node17&#45;&gt;Node11</title>
<g id="a_edge21_Node000017_Node000011"><a xlink:title=" ">
<path fill="none" stroke="#63b8ff" d="M979.5,-54.84C979.5,-47.21 979.5,-37.7 979.5,-29.45"/>
<polygon fill="#63b8ff" stroke="#63b8ff" points="983,-29.27 979.5,-19.27 976,-29.27 983,-29.27"/>
</a>
</g>
</g>
<!-- Node18 -->
<g id="Node000018" class="node">
<title>Node18</title>
<g id="a_Node000018"><a xlink:title=" ">
<polygon fill="#e0e0e0" stroke="#999999" points="802.5,-19 760.5,-19 760.5,0 802.5,0 802.5,-19"/>
<text text-anchor="middle" x="781.5" y="-7" font-family="Helvetica,sans-Serif" font-size="10.00">array</text>
</a>
</g>
</g>
<!-- Node17&#45;&gt;Node18 -->
<g id="edge20_Node000017_Node000018" class="edge">
<title>Node17&#45;&gt;Node18</title>
<g id="a_edge20_Node000017_Node000018"><a xlink:title=" ">
<path fill="none" stroke="#63b8ff" d="M932.07,-54.99C894.91,-44.01 844.29,-29.05 812.25,-19.59"/>
<polygon fill="#63b8ff" stroke="#63b8ff" points="813.12,-16.19 802.54,-16.72 811.14,-22.91 813.12,-16.19"/>
</a>
</g>
</g>
<!-- Node19 -->
<g id="Node000019" class="node">
<title>Node19</title>
<g id="a_Node000019"><a xlink:title=" ">
<polygon fill="#e0e0e0" stroke="#999999" points="1081,-19 1024,-19 1024,0 1081,0 1081,-19"/>
<text text-anchor="middle" x="1052.5" y="-7" font-family="Helvetica,sans-Serif" font-size="10.00">ostream</text>
</a>
</g>
</g>
<!-- Node17&#45;&gt;Node19 -->
<g id="edge22_Node000017_Node000019" class="edge">
<title>Node17&#45;&gt;Node19</title>
<g id="a_edge22_Node000017_Node000019"><a xlink:title=" ">
<path fill="none" stroke="#63b8ff" d="M997.17,-54.84C1008.2,-46 1022.39,-34.63 1033.63,-25.62"/>
<polygon fill="#63b8ff" stroke="#63b8ff" points="1035.95,-28.25 1041.56,-19.27 1031.57,-22.79 1035.95,-28.25"/>
</a>
</g>
</g>
<!-- Node20 -->
<g id="Node000020" class="node">
<title>Node20</title>
<g id="a_Node000020"><a xlink:title=" ">
<polygon fill="#e0e0e0" stroke="#999999" points="872,-19 821,-19 821,0 872,0 872,-19"/>
<text text-anchor="middle" x="846.5" y="-7" font-family="Helvetica,sans-Serif" font-size="10.00">variant</text>
</a>
</g>
</g>
<!-- Node17&#45;&gt;Node20 -->
<g id="edge24_Node000017_Node000020" class="edge">
<title>Node17&#45;&gt;Node20</title>
<g id="a_edge24_Node000017_Node000020"><a xlink:title=" ">
<path fill="none" stroke="#63b8ff" d="M947.64,-54.99C925.65,-45.31 896.65,-32.56 875.34,-23.18"/>
<polygon fill="#63b8ff" stroke="#63b8ff" points="876.7,-19.96 866.14,-19.14 873.89,-26.37 876.7,-19.96"/>
</a>
</g>
</g>
<!-- Node21&#45;&gt;Node3 -->
<g id="edge30_Node000021_Node000003" class="edge">
<title>Node21&#45;&gt;Node3</title>
<g id="a_edge30_Node000021_Node000003"><a xlink:title=" ">
<path fill="none" stroke="#63b8ff" d="M1638.51,-120.99C1675.54,-114.26 1723.65,-102.95 1763.5,-85 1784.75,-75.43 1786.05,-66.17 1806.5,-55 1830.11,-42.1 1858.26,-30.62 1879.9,-22.55"/>
<polygon fill="#63b8ff" stroke="#63b8ff" points="1881.16,-25.82 1889.34,-19.09 1878.75,-19.24 1881.16,-25.82"/>
</a>
</g>
</g>
<!-- Node21&#45;&gt;Node6 -->
<g id="edge31_Node000021_Node000006" class="edge">
<title>Node21&#45;&gt;Node6</title>
<g id="a_edge31_Node000021_Node000006"><a xlink:title=" ">
<path fill="none" stroke="#63b8ff" d="M1508.77,-120.98C1470.86,-114.54 1424.14,-103.52 1385.5,-85 1366.1,-75.7 1366.53,-65.05 1347.5,-55 1328.58,-45.01 1274.69,-29.31 1239.01,-19.48"/>
<polygon fill="#63b8ff" stroke="#63b8ff" points="1239.59,-16.01 1229.02,-16.75 1237.75,-22.77 1239.59,-16.01"/>
</a>
</g>
</g>
<!-- Node21&#45;&gt;Node11 -->
<g id="edge29_Node000021_Node000011" class="edge">
<title>Node21&#45;&gt;Node11</title>
<g id="a_edge29_Node000021_Node000011"><a xlink:title=" ">
<path fill="none" stroke="#63b8ff" d="M1496.38,-124.8C1418.82,-119.24 1300.26,-107.7 1199.5,-85 1129.76,-69.29 1051.1,-39.61 1009.33,-22.84"/>
<polygon fill="#63b8ff" stroke="#63b8ff" points="1010.6,-19.58 1000.01,-19.07 1007.97,-26.07 1010.6,-19.58"/>
</a>
</g>
</g>
<!-- Node21&#45;&gt;Node17 -->
<g id="edge33_Node000021_Node000017" class="edge">
<title>Node21&#45;&gt;Node17</title>
<g id="a_edge33_Node000021_Node000017"><a xlink:title=" ">
<path fill="none" stroke="#63b8ff" d="M1496.14,-125.18C1392,-119.15 1208.5,-106.48 1052.5,-85 1051.21,-84.82 1049.9,-84.64 1048.58,-84.44"/>
<polygon fill="#63b8ff" stroke="#63b8ff" points="1048.8,-80.93 1038.38,-82.84 1047.72,-87.85 1048.8,-80.93"/>
</a>
</g>
</g>
<!-- Node22 -->
<g id="Node000022" class="node">
<title>Node22</title>
<g id="a_Node000022"><a xlink:title=" ">
<polygon fill="#e0e0e0" stroke="#999999" points="1604.5,-79.5 1560.5,-79.5 1560.5,-60.5 1604.5,-60.5 1604.5,-79.5"/>
<text text-anchor="middle" x="1582.5" y="-67.5" font-family="Helvetica,sans-Serif" font-size="10.00">mpi.h</text>
</a>
</g>
</g>
<!-- Node21&#45;&gt;Node22 -->
<g id="edge27_Node000021_Node000022" class="edge">
<title>Node21&#45;&gt;Node22</title>
<g id="a_edge27_Node000021_Node000022"><a xlink:title=" ">
<path fill="none" stroke="#63b8ff" d="M1579.94,-120.87C1580.36,-112.75 1581,-100.31 1581.53,-89.89"/>
<polygon fill="#63b8ff" stroke="#63b8ff" points="1585.04,-89.83 1582.06,-79.67 1578.05,-89.47 1585.04,-89.83"/>
</a>
</g>
</g>
<!-- Node23 -->
<g id="Node000023" class="node">
<title>Node23</title>
<g id="a_Node000023"><a xlink:title=" ">
<polygon fill="#e0e0e0" stroke="#999999" points="1446.5,-79.5 1394.5,-79.5 1394.5,-60.5 1446.5,-60.5 1446.5,-79.5"/>
<text text-anchor="middle" x="1420.5" y="-67.5" font-family="Helvetica,sans-Serif" font-size="10.00">petsc.h</text>
</a>
</g>
</g>
<!-- Node21&#45;&gt;Node23 -->
<g id="edge28_Node000021_Node000023" class="edge">
<title>Node21&#45;&gt;Node23</title>
<g id="a_edge28_Node000021_Node000023"><a xlink:title=" ">
<path fill="none" stroke="#63b8ff" d="M1555.4,-120.97C1530.55,-112.13 1490.73,-97.85 1456.5,-85 1454.9,-84.4 1453.27,-83.78 1451.62,-83.15"/>
<polygon fill="#63b8ff" stroke="#63b8ff" points="1452.76,-79.84 1442.17,-79.52 1450.25,-86.38 1452.76,-79.84"/>
</a>
</g>
</g>
<!-- Node24 -->
<g id="Node000024" class="node">
<title>Node24</title>
<g id="a_Node000024"><a xlink:title=" ">
<polygon fill="#e0e0e0" stroke="#999999" points="1542,-79.5 1465,-79.5 1465,-60.5 1542,-60.5 1542,-79.5"/>
<text text-anchor="middle" x="1503.5" y="-67.5" font-family="Helvetica,sans-Serif" font-size="10.00">Eigen/Dense</text>
</a>
</g>
</g>
<!-- Node21&#45;&gt;Node24 -->
<g id="edge32_Node000021_Node000024" class="edge">
<title>Node21&#45;&gt;Node24</title>
<g id="a_edge32_Node000021_Node000024"><a xlink:title=" ">
<path fill="none" stroke="#63b8ff" d="M1568.29,-120.87C1556.39,-111.71 1537.36,-97.06 1522.99,-86.01"/>
<polygon fill="#63b8ff" stroke="#63b8ff" points="1524.82,-82.99 1514.76,-79.67 1520.55,-88.54 1524.82,-82.99"/>
</a>
</g>
</g>
<!-- Node21&#45;&gt;Node25 -->
<g id="edge34_Node000021_Node000025" class="edge">
<title>Node21&#45;&gt;Node25</title>
<g id="a_edge34_Node000021_Node000025"><a xlink:title=" ">
<path fill="none" stroke="#63b8ff" d="M1595.58,-120.87C1613.45,-111.28 1642.54,-95.67 1663.41,-84.47"/>
<polygon fill="#63b8ff" stroke="#63b8ff" points="1665.19,-87.48 1672.35,-79.67 1661.88,-81.31 1665.19,-87.48"/>
</a>
</g>
</g>
<!-- Node25&#45;&gt;Node3 -->
<g id="edge39_Node000025_Node000003" class="edge">
<title>Node25&#45;&gt;Node3</title>
<g id="a_edge39_Node000025_Node000003"><a xlink:title=" ">
<path fill="none" stroke="#63b8ff" d="M1721.36,-60.49C1762.02,-49.97 1831.2,-32.06 1874.79,-20.78"/>
<polygon fill="#63b8ff" stroke="#63b8ff" points="1875.68,-24.16 1884.49,-18.27 1873.93,-17.39 1875.68,-24.16"/>
</a>
</g>
</g>
<!-- Node25&#45;&gt;Node5 -->
<g id="edge42_Node000025_Node000005" class="edge">
<title>Node25&#45;&gt;Node5</title>
<g id="a_edge42_Node000025_Node000005"><a xlink:title=" ">
<path fill="none" stroke="#63b8ff" d="M1648.17,-60.47C1636.99,-58.38 1624.81,-56.35 1613.5,-55 1321.17,-20 1240.42,-64.45 945.24,-18.71"/>
<polygon fill="#63b8ff" stroke="#63b8ff" points="945.52,-15.21 935.1,-17.12 944.44,-22.13 945.52,-15.21"/>
</a>
</g>
</g>
<!-- Node25&#45;&gt;Node6 -->
<g id="edge43_Node000025_Node000006" class="edge">
<title>Node25&#45;&gt;Node6</title>
<g id="a_edge43_Node000025_Node000006"><a xlink:title=" ">
<path fill="none" stroke="#63b8ff" d="M1646.56,-60.49C1635.82,-58.5 1624.26,-56.52 1613.5,-55 1450.51,-32.03 1404.52,-48 1239.19,-19.04"/>
<polygon fill="#63b8ff" stroke="#63b8ff" points="1239.63,-15.56 1229.17,-17.25 1238.4,-22.45 1239.63,-15.56"/>
</a>
</g>
</g>
<!-- Node25&#45;&gt;Node10 -->
<g id="edge35_Node000025_Node000010" class="edge">
<title>Node25&#45;&gt;Node10</title>
<g id="a_edge35_Node000025_Node000010"><a xlink:title=" ">
<path fill="none" stroke="#63b8ff" d="M1646.97,-60.46C1636.11,-58.44 1624.4,-56.46 1613.5,-55 1421.82,-29.36 1368.89,-46.42 1173.67,-18.99"/>
<polygon fill="#63b8ff" stroke="#63b8ff" points="1174.06,-15.51 1163.66,-17.56 1173.07,-22.44 1174.06,-15.51"/>
</a>
</g>
</g>
<!-- Node26 -->
<g id="Node000026" class="node">
<title>Node26</title>
<g id="a_Node000026"><a xlink:title=" ">
<polygon fill="#e0e0e0" stroke="#999999" points="1608.5,-19 1558.5,-19 1558.5,0 1608.5,0 1608.5,-19"/>
<text text-anchor="middle" x="1583.5" y="-7" font-family="Helvetica,sans-Serif" font-size="10.00">chrono</text>
</a>
</g>
</g>
<!-- Node25&#45;&gt;Node26 -->
<g id="edge36_Node000025_Node000026" class="edge">
<title>Node25&#45;&gt;Node26</title>
<g id="a_edge36_Node000025_Node000026"><a xlink:title=" ">
<path fill="none" stroke="#63b8ff" d="M1673.01,-60.37C1655.87,-50.82 1628.03,-35.31 1607.94,-24.12"/>
<polygon fill="#63b8ff" stroke="#63b8ff" points="1609.5,-20.98 1599.06,-19.17 1606.09,-27.09 1609.5,-20.98"/>
</a>
</g>
</g>
<!-- Node27 -->
<g id="Node000027" class="node">
<title>Node27</title>
<g id="a_Node000027"><a xlink:title=" ">
<polygon fill="#e0e0e0" stroke="#999999" points="1680,-19 1627,-19 1627,0 1680,0 1680,-19"/>
<text text-anchor="middle" x="1653.5" y="-7" font-family="Helvetica,sans-Serif" font-size="10.00">cstddef</text>
</a>
</g>
</g>
<!-- Node25&#45;&gt;Node27 -->
<g id="edge37_Node000025_Node000027" class="edge">
<title>Node25&#45;&gt;Node27</title>
<g id="a_edge37_Node000025_Node000027"><a xlink:title=" ">
<path fill="none" stroke="#63b8ff" d="M1683.34,-60.37C1678.27,-51.9 1670.4,-38.74 1664.01,-28.07"/>
<polygon fill="#63b8ff" stroke="#63b8ff" points="1666.82,-25.95 1658.69,-19.17 1660.82,-29.55 1666.82,-25.95"/>
</a>
</g>
</g>
<!-- Node28 -->
<g id="Node000028" class="node">
<title>Node28</title>
<g id="a_Node000028"><a xlink:title=" ">
<polygon fill="#e0e0e0" stroke="#999999" points="1754.5,-19 1698.5,-19 1698.5,0 1754.5,0 1754.5,-19"/>
<text text-anchor="middle" x="1726.5" y="-7" font-family="Helvetica,sans-Serif" font-size="10.00">iomanip</text>
</a>
</g>
</g>
<!-- Node25&#45;&gt;Node28 -->
<g id="edge38_Node000025_Node000028" class="edge">
<title>Node25&#45;&gt;Node28</title>
<g id="a_edge38_Node000025_Node000028"><a xlink:title=" ">
<path fill="none" stroke="#63b8ff" d="M1694.11,-60.37C1699.66,-51.81 1708.33,-38.47 1715.3,-27.74"/>
<polygon fill="#63b8ff" stroke="#63b8ff" points="1718.36,-29.46 1720.87,-19.17 1712.49,-25.65 1718.36,-29.46"/>
</a>
</g>
</g>
<!-- Node29 -->
<g id="Node000029" class="node">
<title>Node29</title>
<g id="a_Node000029"><a xlink:title=" ">
<polygon fill="#e0e0e0" stroke="#999999" points="1412.5,-19 1368.5,-19 1368.5,0 1412.5,0 1412.5,-19"/>
<text text-anchor="middle" x="1390.5" y="-7" font-family="Helvetica,sans-Serif" font-size="10.00">string</text>
</a>
</g>
</g>
<!-- Node25&#45;&gt;Node29 -->
<g id="edge40_Node000025_Node000029" class="edge">
<title>Node25&#45;&gt;Node29</title>
<g id="a_edge40_Node000025_Node000029"><a xlink:title=" ">
<path fill="none" stroke="#63b8ff" d="M1642.87,-60.48C1576.75,-48.13 1458.92,-26.11 1422.86,-18.94"/>
<polygon fill="#63b8ff" stroke="#63b8ff" points="1423.3,-15.46 1412.8,-16.85 1421.87,-22.31 1423.3,-15.46"/>
</a>
</g>
</g>
<!-- Node30 -->
<g id="Node000030" class="node">
<title>Node30</title>
<g id="a_Node000030"><a xlink:title=" ">
<polygon fill="#e0e0e0" stroke="#999999" points="1866,-19 1773,-19 1773,0 1866,0 1866,-19"/>
<text text-anchor="middle" x="1819.5" y="-7" font-family="Helvetica,sans-Serif" font-size="10.00">unordered_map</text>
</a>
</g>
</g>
<!-- Node25&#45;&gt;Node30 -->
<g id="edge41_Node000025_Node000030" class="edge">
<title>Node25&#45;&gt;Node30</title>
<g id="a_edge41_Node000025_Node000030"><a xlink:title=" ">
<path fill="none" stroke="#63b8ff" d="M1707.55,-60.49C1729.47,-50.7 1765.71,-34.52 1791,-23.23"/>
<polygon fill="#63b8ff" stroke="#63b8ff" points="1792.72,-26.29 1800.43,-19.02 1789.87,-19.9 1792.72,-26.29"/>
</a>
</g>
</g>
<!-- Node31 -->
<g id="Node000031" class="node">
<title>Node31</title>
<g id="a_Node000031"><a xlink:title=" ">
<polygon fill="#e0e0e0" stroke="#999999" points="1540.5,-19 1430.5,-19 1430.5,0 1540.5,0 1540.5,-19"/>
<text text-anchor="middle" x="1485.5" y="-7" font-family="Helvetica,sans-Serif" font-size="10.00">nlohmann/json.hpp</text>
</a>
</g>
</g>
<!-- Node25&#45;&gt;Node31 -->
<g id="edge44_Node000025_Node000031" class="edge">
<title>Node25&#45;&gt;Node31</title>
<g id="a_edge44_Node000025_Node000031"><a xlink:title=" ">
<path fill="none" stroke="#63b8ff" d="M1658.98,-60.49C1623.58,-50.29 1564.1,-33.15 1524.82,-21.83"/>
<polygon fill="#63b8ff" stroke="#63b8ff" points="1525.63,-18.42 1515.05,-19.02 1523.69,-25.15 1525.63,-18.42"/>
</a>
</g>
</g>
<!-- Node32&#45;&gt;Node5 -->
<g id="edge52_Node000032_Node000005" class="edge">
<title>Node32&#45;&gt;Node5</title>
<g id="a_edge52_Node000032_Node000005"><a xlink:title=" ">
<path fill="none" stroke="#63b8ff" d="M1208.21,-61.21C1143.76,-53.03 1042.29,-38.88 945.15,-18.92"/>
<polygon fill="#63b8ff" stroke="#63b8ff" points="945.66,-15.45 935.15,-16.84 944.23,-22.3 945.66,-15.45"/>
</a>
</g>
</g>
<!-- Node32&#45;&gt;Node6 -->
<g id="edge53_Node000032_Node000006" class="edge">
<title>Node32&#45;&gt;Node6</title>
<g id="a_edge53_Node000032_Node000006"><a xlink:title=" ">
<path fill="none" stroke="#63b8ff" d="M1263.47,-60.37C1252.92,-51.3 1236.11,-36.84 1223.31,-25.82"/>
<polygon fill="#63b8ff" stroke="#63b8ff" points="1225.44,-23.04 1215.57,-19.17 1220.87,-28.34 1225.44,-23.04"/>
</a>
</g>
</g>
<!-- Node32&#45;&gt;Node10 -->
<g id="edge47_Node000032_Node000010" class="edge">
<title>Node32&#45;&gt;Node10</title>
<g id="a_edge47_Node000032_Node000010"><a xlink:title=" ">
<path fill="none" stroke="#63b8ff" d="M1252.85,-60.49C1228.87,-50.62 1189.11,-34.23 1161.67,-22.93"/>
<polygon fill="#63b8ff" stroke="#63b8ff" points="1162.75,-19.59 1152.17,-19.02 1160.09,-26.06 1162.75,-19.59"/>
</a>
</g>
</g>
<!-- Node32&#45;&gt;Node19 -->
<g id="edge49_Node000032_Node000019" class="edge">
<title>Node32&#45;&gt;Node19</title>
<g id="a_edge49_Node000032_Node000019"><a xlink:title=" ">
<path fill="none" stroke="#63b8ff" d="M1241.36,-60.49C1201.47,-49.93 1133.48,-31.94 1090.89,-20.66"/>
<polygon fill="#63b8ff" stroke="#63b8ff" points="1091.72,-17.26 1081.16,-18.09 1089.93,-24.03 1091.72,-17.26"/>
</a>
</g>
</g>
<!-- Node32&#45;&gt;Node29 -->
<g id="edge51_Node000032_Node000029" class="edge">
<title>Node32&#45;&gt;Node29</title>
<g id="a_edge51_Node000032_Node000029"><a xlink:title=" ">
<path fill="none" stroke="#63b8ff" d="M1290.51,-60.49C1309.92,-50.79 1341.89,-34.81 1364.44,-23.53"/>
<polygon fill="#63b8ff" stroke="#63b8ff" points="1366.09,-26.62 1373.47,-19.02 1362.96,-20.36 1366.09,-26.62"/>
</a>
</g>
</g>
<!-- Node33 -->
<g id="Node000033" class="node">
<title>Node33</title>
<g id="a_Node000033"><a xlink:title=" ">
<polygon fill="#e0e0e0" stroke="#999999" points="1300,-19 1247,-19 1247,0 1300,0 1300,-19"/>
<text text-anchor="middle" x="1273.5" y="-7" font-family="Helvetica,sans-Serif" font-size="10.00">iterator</text>
</a>
</g>
</g>
<!-- Node32&#45;&gt;Node33 -->
<g id="edge48_Node000032_Node000033" class="edge">
<title>Node32&#45;&gt;Node33</title>
<g id="a_edge48_Node000032_Node000033"><a xlink:title=" ">
<path fill="none" stroke="#63b8ff" d="M1273.5,-60.37C1273.5,-52.25 1273.5,-39.81 1273.5,-29.39"/>
<polygon fill="#63b8ff" stroke="#63b8ff" points="1277,-29.17 1273.5,-19.17 1270,-29.17 1277,-29.17"/>
</a>
</g>
</g>
<!-- Node34 -->
<g id="Node000034" class="node">
<title>Node34</title>
<g id="a_Node000034"><a xlink:title=" ">
<polygon fill="#e0e0e0" stroke="#999999" points="1350.5,-19 1318.5,-19 1318.5,0 1350.5,0 1350.5,-19"/>
<text text-anchor="middle" x="1334.5" y="-7" font-family="Helvetica,sans-Serif" font-size="10.00">set</text>
</a>
</g>
</g>
<!-- Node32&#45;&gt;Node34 -->
<g id="edge50_Node000032_Node000034" class="edge">
<title>Node32&#45;&gt;Node34</title>
<g id="a_edge50_Node000032_Node000034"><a xlink:title=" ">
<path fill="none" stroke="#63b8ff" d="M1282.5,-60.37C1291.87,-51.38 1306.75,-37.11 1318.2,-26.14"/>
<polygon fill="#63b8ff" stroke="#63b8ff" points="1320.67,-28.62 1325.46,-19.17 1315.82,-23.56 1320.67,-28.62"/>
</a>
</g>
</g>
<!-- Node35&#45;&gt;Node3 -->
<g id="edge56_Node000035_Node000003" class="edge">
<title>Node35&#45;&gt;Node3</title>
<g id="a_edge56_Node000035_Node000003"><a xlink:title=" ">
<path fill="none" stroke="#63b8ff" d="M1821.3,-181.2C1824.24,-167.78 1830.74,-141.59 1840.5,-121 1857.46,-85.22 1884.91,-47.79 1901.18,-26.98"/>
<polygon fill="#63b8ff" stroke="#63b8ff" points="1903.93,-29.14 1907.41,-19.13 1898.45,-24.79 1903.93,-29.14"/>
</a>
</g>
</g>
<!-- Node35&#45;&gt;Node21 -->
<g id="edge57_Node000035_Node000021" class="edge">
<title>Node35&#45;&gt;Node21</title>
<g id="a_edge57_Node000035_Node000021"><a xlink:title=" ">
<path fill="none" stroke="#63b8ff" d="M1784.6,-181.49C1742.21,-171.16 1670.63,-153.71 1624.23,-142.4"/>
<polygon fill="#63b8ff" stroke="#63b8ff" points="1624.98,-138.98 1614.44,-140.02 1623.33,-145.79 1624.98,-138.98"/>
</a>
</g>
</g>
<!-- Node36 -->
<g id="Node000036" class="node">
<title>Node36</title>
<g id="a_Node000036"><a xlink:title=" ">
<polygon fill="#e0e0e0" stroke="#999999" points="1880,-140 1849,-140 1849,-121 1880,-121 1880,-140"/>
<text text-anchor="middle" x="1864.5" y="-128" font-family="Helvetica,sans-Serif" font-size="10.00">ios</text>
</a>
</g>
</g>
<!-- Node35&#45;&gt;Node36 -->
<g id="edge55_Node000035_Node000036" class="edge">
<title>Node35&#45;&gt;Node36</title>
<g id="a_edge55_Node000035_Node000036"><a xlink:title=" ">
<path fill="none" stroke="#63b8ff" d="M1826.14,-181.37C1832.79,-172.73 1843.19,-159.2 1851.49,-148.42"/>
<polygon fill="#63b8ff" stroke="#63b8ff" points="1854.51,-150.23 1857.83,-140.17 1848.96,-145.96 1854.51,-150.23"/>
</a>
</g>
</g>
</g>
</svg>

<g id="navigator" transform="translate(0 0)" fill="#404254">
  <rect fill="#f2f5e9" fill-opacity="0.5" stroke="#606060" stroke-width=".5" x="0" y="0" width="60" height="60"/>
  <use id="zoomplus" xlink:href="#zoomPlus" x="17" y="9" onmousedown="handleZoom(evt,'in')"/>
  <use id="zoomminus" xlink:href="#zoomMin" x="42" y="9" onmousedown="handleZoom(evt,'out')"/>
  <use id="reset" xlink:href="#resetDef" x="30" y="36" onmousedown="handleReset()"/>
   <use id="arrowup" xlink:href="#arrowUp" x="0" y="0" onmousedown="handlePan(0,-1)"/>
  <use id="arrowright" xlink:href="#arrowRight" x="0" y="0" onmousedown="handlePan(1,0)"/>
  <use id="arrowdown" xlink:href="#arrowDown" x="0" y="0" onmousedown="handlePan(0,1)"/>
  <use id="arrowleft" xlink:href="#arrowLeft" x="0" y="0" onmousedown="handlePan(-1,0)"/>
</g>
<svg viewBox="0 0 15 15" width="100%" height="30px" preserveAspectRatio="xMaxYMin meet">
 <g id="arrow_out" transform="scale(0.3 0.3)">
  <a xlink:href="parallel__mesh_8hpp__incl_org.svg" target="_base">
   <rect id="button" ry="5" rx="5" y="6" x="6" height="38" width="38"
        fill="#f2f5e9" fill-opacity="0.5" stroke="#606060" stroke-width="1.0"/>
   <path id="arrow"
     d="M 11.500037,31.436501 C 11.940474,20.09759 22.043105,11.32322 32.158766,21.979434 L 37.068811,17.246167 C 37.068811,17.246167 37.088388,32 37.088388,32 L 22.160133,31.978069 C 22.160133,31.978069 26.997745,27.140456 26.997745,27.140456 C 18.528582,18.264221 13.291696,25.230495 11.500037,31.436501 z"
     style="fill:#404040;"/>
  </a>
 </g>
</svg>

<style type='text/css'>
<![CDATA[
[data-mouse-over-selected='false'] { opacity: 0.7; }
[data-mouse-over-selected='true']  { opacity: 1.0; }
]]>
</style>
<script type="application/ecmascript"><![CDATA[
document.addEventListener('DOMContentLoaded', (event) => {
  highlightEdges();
  highlightAdjacentNodes();
});
]]></script>
</svg>
