<?xml version="1.0" encoding="UTF-8" standalone="no"?>
<!DOCTYPE svg PUBLIC "-//W3C//DTD SVG 1.1//EN"
 "http://www.w3.org/Graphics/SVG/1.1/DTD/svg11.dtd">
<!-- Generated by graphviz version 12.2.1 (20241206.2353)
 -->
<!-- Title: /Users/ilariomazzieri/Desktop/vulpes/vulpes/utils/pcout.hpp Pages: 1 -->
<!--zoomable 227 -->

<svg id="main" version="1.1" xmlns="http://www.w3.org/2000/svg" xmlns:xlink="http://www.w3.org/1999/xlink" xml:space="preserve" onload="init(evt)">
<style type="text/css"><![CDATA[
.node, .edge {opacity: 0.7;}
.node.selected, .edge.selected {opacity: 1;}
.edge:hover path { stroke: red; }
.edge:hover polygon { stroke: red; fill: red; }
]]></style>

<defs>
  <circle id="rim" cx="0" cy="0" r="7"/>
  <circle id="rim2" cx="0" cy="0" r="3.5"/>
  <g id="zoomPlus">
    <use xlink:href="#rim" fill="#404040"><set attributeName="fill" to="#808080" begin="zoomplus.mouseover" end="zoomplus.mouseout"/></use>
    <path d="M-4,0h8M0,-4v8" fill="none" stroke="white" stroke-width="1.5" pointer-events="none"/>
  </g>
  <g id="zoomMin">
    <use xlink:href="#rim" fill="#404040"><set attributeName="fill" to="#808080" begin="zoomminus.mouseover" end="zoomminus.mouseout"/></use>
    <path d="M-4,0h8" fill="none" stroke="white" stroke-width="1.5" pointer-events="none"/>
  </g>
  <g id="arrowUp" transform="translate(30 24)">
    <use xlink:href="#rim"/>
    <path pointer-events="none" fill="none" stroke="white" stroke-width="1.5" d="M0,-3.0v7 M-2.5,-0.5L0,-3.0L2.5,-0.5"/>
  </g>
  <g id="arrowRight" transform="rotate(90) translate(36 -43)">
    <use xlink:href="#rim"/>
    <path pointer-events="none" fill="none" stroke="white" stroke-width="1.5" d="M0,-3.0v7 M-2.5,-0.5L0,-3.0L2.5,-0.5"/>
  </g>
  <g id="arrowDown" transform="rotate(180) translate(-30 -48)">
    <use xlink:href="#rim"/>
    <path pointer-events="none" fill="none" stroke="white" stroke-width="1.5" d="M0,-3.0v7 M-2.5,-0.5L0,-3.0L2.5,-0.5"/>
  </g>
  <g id="arrowLeft" transform="rotate(270) translate(-36 17)">
    <use xlink:href="#rim"/>
    <path pointer-events="none" fill="none" stroke="white" stroke-width="1.5" d="M0,-3.0v7 M-2.5,-0.5L0,-3.0L2.5,-0.5"/>
  </g>
  <g id="resetDef">
    <use xlink:href="#rim2" fill="#404040"><set attributeName="fill" to="#808080" begin="reset.mouseover" end="reset.mouseout"/></use>
  </g>
</defs>
<script type="application/ecmascript">
var viewWidth = 981;
var viewHeight = 227;
var sectionId = 'dynsection-0';
</script>
<script type="application/ecmascript" xlink:href="svg.min.js"/>
<svg id="graph" class="graph">
<g id="viewport">
<title>/Users/ilariomazzieri/Desktop/vulpes/vulpes/utils/pcout.hpp</title>
<!-- Node1 -->
<g id="Node000001" class="node">
<title>Node1</title>
<g id="a_Node000001"><a xlink:title=" ">
<polygon fill="#999999" stroke="#666666" points="142.12,-218.75 23.38,-218.75 23.38,-177 142.12,-177 142.12,-218.75"/>
<text text-anchor="start" x="31.38" y="-205.25" font-family="Helvetica,sans-Serif" font-size="10.00">/Users/ilariomazzieri</text>
<text text-anchor="start" x="31.38" y="-194" font-family="Helvetica,sans-Serif" font-size="10.00">/Desktop/vulpes/vulpes</text>
<text text-anchor="middle" x="82.75" y="-182.75" font-family="Helvetica,sans-Serif" font-size="10.00">/utils/pcout.hpp</text>
</a>
</g>
</g>
<!-- Node2 -->
<g id="Node000002" class="node">
<title>Node2</title>
<g id="a_Node000002"><a xlink:title=" ">
<polygon fill="#e0e0e0" stroke="#999999" points="55.15,-141 26.35,-141 26.35,-121.75 55.15,-121.75 55.15,-141"/>
<text text-anchor="middle" x="40.75" y="-127.5" font-family="Helvetica,sans-Serif" font-size="10.00">ios</text>
</a>
</g>
</g>
<!-- Node1&#45;&gt;Node2 -->
<g id="edge1_Node000001_Node000002" class="edge">
<title>Node1&#45;&gt;Node2</title>
<g id="a_edge1_Node000001_Node000002"><a xlink:title=" ">
<path fill="none" stroke="#63b8ff" d="M69.69,-176.82C64.33,-168.59 58.17,-159.12 52.91,-151.04"/>
<polygon fill="#63b8ff" stroke="#63b8ff" points="55.87,-149.18 47.48,-142.71 50.01,-153 55.87,-149.18"/>
</a>
</g>
</g>
<!-- Node3 -->
<g id="Node000003" class="node">
<title>Node3</title>
<g id="a_Node000003"><a xlink:title=" ">
<polygon fill="#e0e0e0" stroke="#999999" points="53.5,-19.25 0,-19.25 0,0 53.5,0 53.5,-19.25"/>
<text text-anchor="middle" x="26.75" y="-5.75" font-family="Helvetica,sans-Serif" font-size="10.00">iostream</text>
</a>
</g>
</g>
<!-- Node1&#45;&gt;Node3 -->
<g id="edge2_Node000001_Node000003" class="edge">
<title>Node1&#45;&gt;Node3</title>
<g id="a_edge2_Node000001_Node000003"><a xlink:title=" ">
<path fill="none" stroke="#63b8ff" d="M78.07,-176.68C74.45,-161.49 69.15,-140.21 63.75,-121.75 54.26,-89.31 41.5,-52.15 33.71,-30.07"/>
<polygon fill="#63b8ff" stroke="#63b8ff" points="37.1,-29.16 30.45,-20.91 30.5,-31.51 37.1,-29.16"/>
</a>
</g>
</g>
<!-- Node4 -->
<g id="Node000004" class="node">
<title>Node4</title>
<g id="a_Node000004"><a xlink:href="mpi__wrappers_8hpp.html" target="_top" xlink:title=" ">
<polygon fill="white" stroke="#666666" points="599.75,-141 451.75,-141 451.75,-121.75 599.75,-121.75 599.75,-141"/>
<text text-anchor="middle" x="525.75" y="-127.5" font-family="Helvetica,sans-Serif" font-size="10.00">vulpes/utils/mpi_wrappers.hpp</text>
</a>
</g>
</g>
<!-- Node1&#45;&gt;Node4 -->
<g id="edge3_Node000001_Node000004" class="edge">
<title>Node1&#45;&gt;Node4</title>
<g id="a_edge3_Node000001_Node000004"><a xlink:title=" ">
<path fill="none" stroke="#63b8ff" d="M142.49,-188.18C222.73,-176.49 365.24,-155.74 452.05,-143.11"/>
<polygon fill="#63b8ff" stroke="#63b8ff" points="452.5,-146.58 461.89,-141.67 451.49,-139.65 452.5,-146.58"/>
</a>
</g>
</g>
<!-- Node4&#45;&gt;Node3 -->
<g id="edge7_Node000004_Node000003" class="edge">
<title>Node4&#45;&gt;Node3</title>
<g id="a_edge7_Node000004_Node000003"><a xlink:title=" ">
<path fill="none" stroke="#63b8ff" d="M475.96,-121.27C431.04,-112.84 363.23,-99.54 304.75,-85.75 218.39,-65.38 118.16,-37.15 64.79,-21.74"/>
<polygon fill="#63b8ff" stroke="#63b8ff" points="65.86,-18.41 55.28,-18.99 63.91,-25.13 65.86,-18.41"/>
</a>
</g>
</g>
<!-- Node5 -->
<g id="Node000005" class="node">
<title>Node5</title>
<g id="a_Node000005"><a xlink:title=" ">
<polygon fill="#e0e0e0" stroke="#999999" points="845.75,-80.12 805.75,-80.12 805.75,-60.88 845.75,-60.88 845.75,-80.12"/>
<text text-anchor="middle" x="825.75" y="-66.62" font-family="Helvetica,sans-Serif" font-size="10.00">mpi.h</text>
</a>
</g>
</g>
<!-- Node4&#45;&gt;Node5 -->
<g id="edge4_Node000004_Node000005" class="edge">
<title>Node4&#45;&gt;Node5</title>
<g id="a_edge4_Node000004_Node000005"><a xlink:title=" ">
<path fill="none" stroke="#63b8ff" d="M600.16,-122.56C654.07,-115.77 728.33,-104.09 791.75,-85.75 793.1,-85.36 794.47,-84.93 795.84,-84.48"/>
<polygon fill="#63b8ff" stroke="#63b8ff" points="796.7,-87.89 804.83,-81.11 794.24,-81.34 796.7,-87.89"/>
</a>
</g>
</g>
<!-- Node6 -->
<g id="Node000006" class="node">
<title>Node6</title>
<g id="a_Node000006"><a xlink:title=" ">
<polygon fill="#e0e0e0" stroke="#999999" points="361.88,-80.12 313.62,-80.12 313.62,-60.88 361.88,-60.88 361.88,-80.12"/>
<text text-anchor="middle" x="337.75" y="-66.62" font-family="Helvetica,sans-Serif" font-size="10.00">petsc.h</text>
</a>
</g>
</g>
<!-- Node4&#45;&gt;Node6 -->
<g id="edge5_Node000004_Node000006" class="edge">
<title>Node4&#45;&gt;Node6</title>
<g id="a_edge5_Node000004_Node000006"><a xlink:title=" ">
<path fill="none" stroke="#63b8ff" d="M489.32,-121.29C457.64,-113.06 410.69,-100.06 370.75,-85.75 369.8,-85.41 368.84,-85.05 367.87,-84.69"/>
<polygon fill="#63b8ff" stroke="#63b8ff" points="369.47,-81.56 358.88,-81.07 366.85,-88.05 369.47,-81.56"/>
</a>
</g>
</g>
<!-- Node7 -->
<g id="Node000007" class="node">
<title>Node7</title>
<g id="a_Node000007"><a xlink:title=" ">
<polygon fill="#e0e0e0" stroke="#999999" points="972.88,-19.25 924.62,-19.25 924.62,0 972.88,0 972.88,-19.25"/>
<text text-anchor="middle" x="948.75" y="-5.75" font-family="Helvetica,sans-Serif" font-size="10.00">cassert</text>
</a>
</g>
</g>
<!-- Node4&#45;&gt;Node7 -->
<g id="edge6_Node000004_Node000007" class="edge">
<title>Node4&#45;&gt;Node7</title>
<g id="a_edge6_Node000004_Node000007"><a xlink:title=" ">
<path fill="none" stroke="#63b8ff" d="M600.19,-125.37C647.39,-120 708.74,-108.85 758.75,-85.75 778.41,-76.67 777.55,-65.27 796.75,-55.25 807.2,-49.8 871.78,-31.65 913.34,-20.24"/>
<polygon fill="#63b8ff" stroke="#63b8ff" points="914.2,-23.63 922.92,-17.62 912.35,-16.88 914.2,-23.63"/>
</a>
</g>
</g>
<!-- Node8 -->
<g id="Node000008" class="node">
<title>Node8</title>
<g id="a_Node000008"><a xlink:title=" ">
<polygon fill="#e0e0e0" stroke="#999999" points="660.25,-19.25 617.25,-19.25 617.25,0 660.25,0 660.25,-19.25"/>
<text text-anchor="middle" x="638.75" y="-5.75" font-family="Helvetica,sans-Serif" font-size="10.00">vector</text>
</a>
</g>
</g>
<!-- Node4&#45;&gt;Node8 -->
<g id="edge8_Node000004_Node000008" class="edge">
<title>Node4&#45;&gt;Node8</title>
<g id="a_edge8_Node000004_Node000008"><a xlink:title=" ">
<path fill="none" stroke="#63b8ff" d="M525.66,-121.43C525.97,-106.15 528.7,-74.79 544.75,-55.25 553.11,-45.07 582.47,-32 606.18,-22.64"/>
<polygon fill="#63b8ff" stroke="#63b8ff" points="607.43,-25.91 615.5,-19.04 604.92,-19.38 607.43,-25.91"/>
</a>
</g>
</g>
<!-- Node9 -->
<g id="Node000009" class="node">
<title>Node9</title>
<g id="a_Node000009"><a xlink:title=" ">
<polygon fill="#e0e0e0" stroke="#999999" points="625.88,-80.12 553.62,-80.12 553.62,-60.88 625.88,-60.88 625.88,-80.12"/>
<text text-anchor="middle" x="589.75" y="-66.62" font-family="Helvetica,sans-Serif" font-size="10.00">Eigen/Dense</text>
</a>
</g>
</g>
<!-- Node4&#45;&gt;Node9 -->
<g id="edge9_Node000004_Node000009" class="edge">
<title>Node4&#45;&gt;Node9</title>
<g id="a_edge9_Node000004_Node000009"><a xlink:title=" ">
<path fill="none" stroke="#63b8ff" d="M535.47,-121.43C545.06,-112.62 559.94,-98.93 571.69,-88.11"/>
<polygon fill="#63b8ff" stroke="#63b8ff" points="573.83,-90.9 578.82,-81.55 569.1,-85.75 573.83,-90.9"/>
</a>
</g>
</g>
<!-- Node10 -->
<g id="Node000010" class="node">
<title>Node10</title>
<g id="a_Node000010"><a xlink:href="crs__map_8hpp.html" target="_top" xlink:title=" ">
<polygon fill="white" stroke="#666666" points="750,-85.75 645.5,-85.75 645.5,-55.25 750,-55.25 750,-85.75"/>
<text text-anchor="start" x="653.5" y="-72.25" font-family="Helvetica,sans-Serif" font-size="10.00">vulpes/datastructure</text>
<text text-anchor="middle" x="697.75" y="-61" font-family="Helvetica,sans-Serif" font-size="10.00">/crs_map.hpp</text>
</a>
</g>
</g>
<!-- Node4&#45;&gt;Node10 -->
<g id="edge10_Node000004_Node000010" class="edge">
<title>Node4&#45;&gt;Node10</title>
<g id="a_edge10_Node000004_Node000010"><a xlink:title=" ">
<path fill="none" stroke="#63b8ff" d="M552.25,-121.3C576.69,-112.94 613.72,-100.26 644.3,-89.79"/>
<polygon fill="#63b8ff" stroke="#63b8ff" points="645.06,-93.23 653.39,-86.68 642.79,-86.61 645.06,-93.23"/>
</a>
</g>
</g>
<!-- Node16 -->
<g id="Node000016" class="node">
<title>Node16</title>
<g id="a_Node000016"><a xlink:href="profiler_8hpp.html" target="_top" xlink:title=" ">
<polygon fill="white" stroke="#666666" points="495.62,-80.12 379.88,-80.12 379.88,-60.88 495.62,-60.88 495.62,-80.12"/>
<text text-anchor="middle" x="437.75" y="-66.62" font-family="Helvetica,sans-Serif" font-size="10.00">vulpes/utils/profiler.hpp</text>
</a>
</g>
</g>
<!-- Node4&#45;&gt;Node16 -->
<g id="edge18_Node000004_Node000016" class="edge">
<title>Node4&#45;&gt;Node16</title>
<g id="a_edge18_Node000004_Node000016"><a xlink:title=" ">
<path fill="none" stroke="#63b8ff" d="M512.38,-121.43C498.69,-112.27 477.13,-97.84 460.69,-86.85"/>
<polygon fill="#63b8ff" stroke="#63b8ff" points="462.76,-84.02 452.5,-81.37 458.86,-89.84 462.76,-84.02"/>
</a>
</g>
</g>
<!-- Node10&#45;&gt;Node7 -->
<g id="edge13_Node000010_Node000007" class="edge">
<title>Node10&#45;&gt;Node7</title>
<g id="a_edge13_Node000010_Node000007"><a xlink:title=" ">
<path fill="none" stroke="#63b8ff" d="M750.27,-57.84C791.98,-48.48 852.08,-34.78 913.24,-19.82"/>
<polygon fill="#63b8ff" stroke="#63b8ff" points="913.92,-23.26 922.79,-17.47 912.25,-16.46 913.92,-23.26"/>
</a>
</g>
</g>
<!-- Node10&#45;&gt;Node8 -->
<g id="edge17_Node000010_Node000008" class="edge">
<title>Node10&#45;&gt;Node8</title>
<g id="a_edge17_Node000010_Node000008"><a xlink:title=" ">
<path fill="none" stroke="#63b8ff" d="M683.17,-54.95C674.87,-46.67 664.45,-36.27 655.78,-27.62"/>
<polygon fill="#63b8ff" stroke="#63b8ff" points="658.47,-25.36 648.92,-20.77 653.52,-30.31 658.47,-25.36"/>
</a>
</g>
</g>
<!-- Node11 -->
<g id="Node000011" class="node">
<title>Node11</title>
<g id="a_Node000011"><a xlink:title=" ">
<polygon fill="#e0e0e0" stroke="#999999" points="599.62,-19.25 543.88,-19.25 543.88,0 599.62,0 599.62,-19.25"/>
<text text-anchor="middle" x="571.75" y="-5.75" font-family="Helvetica,sans-Serif" font-size="10.00">algorithm</text>
</a>
</g>
</g>
<!-- Node10&#45;&gt;Node11 -->
<g id="edge11_Node000010_Node000011" class="edge">
<title>Node10&#45;&gt;Node11</title>
<g id="a_edge11_Node000010_Node000011"><a xlink:title=" ">
<path fill="none" stroke="#63b8ff" d="M666.28,-54.8C646.45,-45.53 620.99,-33.63 601.5,-24.52"/>
<polygon fill="#63b8ff" stroke="#63b8ff" points="602.99,-21.36 592.44,-20.29 600.02,-27.7 602.99,-21.36"/>
</a>
</g>
</g>
<!-- Node12 -->
<g id="Node000012" class="node">
<title>Node12</title>
<g id="a_Node000012"><a xlink:title=" ">
<polygon fill="#e0e0e0" stroke="#999999" points="773.62,-19.25 735.88,-19.25 735.88,0 773.62,0 773.62,-19.25"/>
<text text-anchor="middle" x="754.75" y="-5.75" font-family="Helvetica,sans-Serif" font-size="10.00">array</text>
</a>
</g>
</g>
<!-- Node10&#45;&gt;Node12 -->
<g id="edge12_Node000010_Node000012" class="edge">
<title>Node10&#45;&gt;Node12</title>
<g id="a_edge12_Node000010_Node000012"><a xlink:title=" ">
<path fill="none" stroke="#63b8ff" d="M711.84,-54.95C719.77,-46.76 729.71,-36.48 738.03,-27.89"/>
<polygon fill="#63b8ff" stroke="#63b8ff" points="740.47,-30.41 744.91,-20.79 735.44,-25.54 740.47,-30.41"/>
</a>
</g>
</g>
<!-- Node13 -->
<g id="Node000013" class="node">
<title>Node13</title>
<g id="a_Node000013"><a xlink:title=" ">
<polygon fill="#e0e0e0" stroke="#999999" points="843.38,-19.25 792.12,-19.25 792.12,0 843.38,0 843.38,-19.25"/>
<text text-anchor="middle" x="817.75" y="-5.75" font-family="Helvetica,sans-Serif" font-size="10.00">ostream</text>
</a>
</g>
</g>
<!-- Node10&#45;&gt;Node13 -->
<g id="edge14_Node000010_Node000013" class="edge">
<title>Node10&#45;&gt;Node13</title>
<g id="a_edge14_Node000010_Node000013"><a xlink:title=" ">
<path fill="none" stroke="#63b8ff" d="M727.72,-54.8C746.52,-45.57 770.63,-33.75 789.16,-24.65"/>
<polygon fill="#63b8ff" stroke="#63b8ff" points="790.55,-27.87 797.99,-20.32 787.47,-21.58 790.55,-27.87"/>
</a>
</g>
</g>
<!-- Node14 -->
<g id="Node000014" class="node">
<title>Node14</title>
<g id="a_Node000014"><a xlink:title=" ">
<polygon fill="#e0e0e0" stroke="#999999" points="717.38,-19.25 678.12,-19.25 678.12,0 717.38,0 717.38,-19.25"/>
<text text-anchor="middle" x="697.75" y="-5.75" font-family="Helvetica,sans-Serif" font-size="10.00">utility</text>
</a>
</g>
</g>
<!-- Node10&#45;&gt;Node14 -->
<g id="edge15_Node000010_Node000014" class="edge">
<title>Node10&#45;&gt;Node14</title>
<g id="a_edge15_Node000010_Node000014"><a xlink:title=" ">
<path fill="none" stroke="#63b8ff" d="M697.75,-54.95C697.75,-47.71 697.75,-38.84 697.75,-30.94"/>
<polygon fill="#63b8ff" stroke="#63b8ff" points="701.25,-31.21 697.75,-21.21 694.25,-31.21 701.25,-31.21"/>
</a>
</g>
</g>
<!-- Node15 -->
<g id="Node000015" class="node">
<title>Node15</title>
<g id="a_Node000015"><a xlink:title=" ">
<polygon fill="#e0e0e0" stroke="#999999" points="906.38,-19.25 861.12,-19.25 861.12,0 906.38,0 906.38,-19.25"/>
<text text-anchor="middle" x="883.75" y="-5.75" font-family="Helvetica,sans-Serif" font-size="10.00">variant</text>
</a>
</g>
</g>
<!-- Node10&#45;&gt;Node15 -->
<g id="edge16_Node000010_Node000015" class="edge">
<title>Node10&#45;&gt;Node15</title>
<g id="a_edge16_Node000010_Node000015"><a xlink:title=" ">
<path fill="none" stroke="#63b8ff" d="M744.21,-54.8C777.22,-44.35 820.77,-30.56 850.38,-21.19"/>
<polygon fill="#63b8ff" stroke="#63b8ff" points="851.08,-24.64 859.55,-18.28 848.96,-17.96 851.08,-24.64"/>
</a>
</g>
</g>
<!-- Node16&#45;&gt;Node3 -->
<g id="edge23_Node000016_Node000003" class="edge">
<title>Node16&#45;&gt;Node3</title>
<g id="a_edge23_Node000016_Node000003"><a xlink:title=" ">
<path fill="none" stroke="#63b8ff" d="M398.19,-60.45C389.2,-58.57 379.67,-56.72 370.75,-55.25 238.34,-33.48 200.43,-42.82 65.02,-19.44"/>
<polygon fill="#63b8ff" stroke="#63b8ff" points="65.75,-16.02 55.3,-17.73 64.54,-22.91 65.75,-16.02"/>
</a>
</g>
</g>
<!-- Node16&#45;&gt;Node8 -->
<g id="edge27_Node000016_Node000008" class="edge">
<title>Node16&#45;&gt;Node8</title>
<g id="a_edge27_Node000016_Node000008"><a xlink:title=" ">
<path fill="none" stroke="#63b8ff" d="M468.72,-60.43C505.84,-49.56 567.79,-31.41 605.79,-20.28"/>
<polygon fill="#63b8ff" stroke="#63b8ff" points="606.69,-23.66 615.3,-17.49 604.72,-16.95 606.69,-23.66"/>
</a>
</g>
</g>
<!-- Node16&#45;&gt;Node11 -->
<g id="edge19_Node000016_Node000011" class="edge">
<title>Node16&#45;&gt;Node11</title>
<g id="a_edge19_Node000016_Node000011"><a xlink:title=" ">
<path fill="none" stroke="#63b8ff" d="M458.39,-60.43C480.39,-50.76 515.47,-35.35 540.78,-24.23"/>
<polygon fill="#63b8ff" stroke="#63b8ff" points="542.17,-27.44 549.92,-20.22 539.35,-21.04 542.17,-27.44"/>
</a>
</g>
</g>
<!-- Node16&#45;&gt;Node14 -->
<g id="edge26_Node000016_Node000014" class="edge">
<title>Node16&#45;&gt;Node14</title>
<g id="a_edge26_Node000016_Node000014"><a xlink:title=" ">
<path fill="none" stroke="#63b8ff" d="M485.58,-60.38C530.29,-51.58 599.13,-37.33 667.04,-19.8"/>
<polygon fill="#63b8ff" stroke="#63b8ff" points="667.67,-23.26 676.46,-17.34 665.9,-16.48 667.67,-23.26"/>
</a>
</g>
</g>
<!-- Node17 -->
<g id="Node000017" class="node">
<title>Node17</title>
<g id="a_Node000017"><a xlink:title=" ">
<polygon fill="#e0e0e0" stroke="#999999" points="459.38,-19.25 414.12,-19.25 414.12,0 459.38,0 459.38,-19.25"/>
<text text-anchor="middle" x="436.75" y="-5.75" font-family="Helvetica,sans-Serif" font-size="10.00">chrono</text>
</a>
</g>
</g>
<!-- Node16&#45;&gt;Node17 -->
<g id="edge20_Node000016_Node000017" class="edge">
<title>Node16&#45;&gt;Node17</title>
<g id="a_edge20_Node000016_Node000017"><a xlink:title=" ">
<path fill="none" stroke="#63b8ff" d="M437.6,-60.56C437.47,-52.78 437.27,-41.2 437.1,-31.16"/>
<polygon fill="#63b8ff" stroke="#63b8ff" points="440.6,-31.1 436.93,-21.16 433.6,-31.22 440.6,-31.1"/>
</a>
</g>
</g>
<!-- Node18 -->
<g id="Node000018" class="node">
<title>Node18</title>
<g id="a_Node000018"><a xlink:title=" ">
<polygon fill="#e0e0e0" stroke="#999999" points="525.88,-19.25 477.62,-19.25 477.62,0 525.88,0 525.88,-19.25"/>
<text text-anchor="middle" x="501.75" y="-5.75" font-family="Helvetica,sans-Serif" font-size="10.00">cstddef</text>
</a>
</g>
</g>
<!-- Node16&#45;&gt;Node18 -->
<g id="edge21_Node000016_Node000018" class="edge">
<title>Node16&#45;&gt;Node18</title>
<g id="a_edge21_Node000016_Node000018"><a xlink:title=" ">
<path fill="none" stroke="#63b8ff" d="M447.47,-60.56C457.06,-51.74 471.94,-38.05 483.69,-27.23"/>
<polygon fill="#63b8ff" stroke="#63b8ff" points="485.83,-30.02 490.82,-20.68 481.1,-24.87 485.83,-30.02"/>
</a>
</g>
</g>
<!-- Node19 -->
<g id="Node000019" class="node">
<title>Node19</title>
<g id="a_Node000019"><a xlink:title=" ">
<polygon fill="#e0e0e0" stroke="#999999" points="121.62,-19.25 71.88,-19.25 71.88,0 121.62,0 121.62,-19.25"/>
<text text-anchor="middle" x="96.75" y="-5.75" font-family="Helvetica,sans-Serif" font-size="10.00">iomanip</text>
</a>
</g>
</g>
<!-- Node16&#45;&gt;Node19 -->
<g id="edge22_Node000016_Node000019" class="edge">
<title>Node16&#45;&gt;Node19</title>
<g id="a_edge22_Node000016_Node000019"><a xlink:title=" ">
<path fill="none" stroke="#63b8ff" d="M397.08,-60.44C388.41,-58.62 379.29,-56.8 370.75,-55.25 268.14,-36.66 238.44,-40.26 133.07,-19.54"/>
<polygon fill="#63b8ff" stroke="#63b8ff" points="133.91,-16.13 123.42,-17.61 132.54,-23 133.91,-16.13"/>
</a>
</g>
</g>
<!-- Node20 -->
<g id="Node000020" class="node">
<title>Node20</title>
<g id="a_Node000020"><a xlink:title=" ">
<polygon fill="#e0e0e0" stroke="#999999" points="179.75,-19.25 139.75,-19.25 139.75,0 179.75,0 179.75,-19.25"/>
<text text-anchor="middle" x="159.75" y="-5.75" font-family="Helvetica,sans-Serif" font-size="10.00">string</text>
</a>
</g>
</g>
<!-- Node16&#45;&gt;Node20 -->
<g id="edge24_Node000016_Node000020" class="edge">
<title>Node16&#45;&gt;Node20</title>
<g id="a_edge24_Node000016_Node000020"><a xlink:title=" ">
<path fill="none" stroke="#63b8ff" d="M395.6,-60.44C387.36,-58.7 378.79,-56.9 370.75,-55.25 293.45,-39.39 270.73,-39.03 191.05,-19.63"/>
<polygon fill="#63b8ff" stroke="#63b8ff" points="191.98,-16.26 181.43,-17.26 190.31,-23.05 191.98,-16.26"/>
</a>
</g>
</g>
<!-- Node21 -->
<g id="Node000021" class="node">
<title>Node21</title>
<g id="a_Node000021"><a xlink:title=" ">
<polygon fill="#e0e0e0" stroke="#999999" points="280.12,-19.25 197.38,-19.25 197.38,0 280.12,0 280.12,-19.25"/>
<text text-anchor="middle" x="238.75" y="-5.75" font-family="Helvetica,sans-Serif" font-size="10.00">unordered_map</text>
</a>
</g>
</g>
<!-- Node16&#45;&gt;Node21 -->
<g id="edge25_Node000016_Node000021" class="edge">
<title>Node16&#45;&gt;Node21</title>
<g id="a_edge25_Node000016_Node000021"><a xlink:title=" ">
<path fill="none" stroke="#63b8ff" d="M407.09,-60.43C373.06,-50.36 317.94,-34.05 280.1,-22.86"/>
<polygon fill="#63b8ff" stroke="#63b8ff" points="281.48,-19.62 270.89,-20.13 279.49,-26.33 281.48,-19.62"/>
</a>
</g>
</g>
<!-- Node22 -->
<g id="Node000022" class="node">
<title>Node22</title>
<g id="a_Node000022"><a xlink:title=" ">
<polygon fill="#e0e0e0" stroke="#999999" points="395.62,-19.25 297.88,-19.25 297.88,0 395.62,0 395.62,-19.25"/>
<text text-anchor="middle" x="346.75" y="-5.75" font-family="Helvetica,sans-Serif" font-size="10.00">nlohmann/json.hpp</text>
</a>
</g>
</g>
<!-- Node16&#45;&gt;Node22 -->
<g id="edge28_Node000016_Node000022" class="edge">
<title>Node16&#45;&gt;Node22</title>
<g id="a_edge28_Node000016_Node000022"><a xlink:title=" ">
<path fill="none" stroke="#63b8ff" d="M423.93,-60.56C409.63,-51.31 387.05,-36.7 370,-25.67"/>
<polygon fill="#63b8ff" stroke="#63b8ff" points="372.27,-22.97 361.97,-20.47 368.47,-28.84 372.27,-22.97"/>
</a>
</g>
</g>
</g>
</svg>

<g id="navigator" transform="translate(0 0)" fill="#404254">
  <rect fill="#f2f5e9" fill-opacity="0.5" stroke="#606060" stroke-width=".5" x="0" y="0" width="60" height="60"/>
  <use id="zoomplus" xlink:href="#zoomPlus" x="17" y="9" onmousedown="handleZoom(evt,'in')"/>
  <use id="zoomminus" xlink:href="#zoomMin" x="42" y="9" onmousedown="handleZoom(evt,'out')"/>
  <use id="reset" xlink:href="#resetDef" x="30" y="36" onmousedown="handleReset()"/>
   <use id="arrowup" xlink:href="#arrowUp" x="0" y="0" onmousedown="handlePan(0,-1)"/>
  <use id="arrowright" xlink:href="#arrowRight" x="0" y="0" onmousedown="handlePan(1,0)"/>
  <use id="arrowdown" xlink:href="#arrowDown" x="0" y="0" onmousedown="handlePan(0,1)"/>
  <use id="arrowleft" xlink:href="#arrowLeft" x="0" y="0" onmousedown="handlePan(-1,0)"/>
</g>
<svg viewBox="0 0 15 15" width="100%" height="30px" preserveAspectRatio="xMaxYMin meet">
 <g id="arrow_out" transform="scale(0.3 0.3)">
  <a xlink:href="pcout_8hpp__incl_org.svg" target="_base">
   <rect id="button" ry="5" rx="5" y="6" x="6" height="38" width="38"
        fill="#f2f5e9" fill-opacity="0.5" stroke="#606060" stroke-width="1.0"/>
   <path id="arrow"
     d="M 11.500037,31.436501 C 11.940474,20.09759 22.043105,11.32322 32.158766,21.979434 L 37.068811,17.246167 C 37.068811,17.246167 37.088388,32 37.088388,32 L 22.160133,31.978069 C 22.160133,31.978069 26.997745,27.140456 26.997745,27.140456 C 18.528582,18.264221 13.291696,25.230495 11.500037,31.436501 z"
     style="fill:#404040;"/>
  </a>
 </g>
</svg>

<style type='text/css'>
<![CDATA[
[data-mouse-over-selected='false'] { opacity: 0.7; }
[data-mouse-over-selected='true']  { opacity: 1.0; }
]]>
</style>
<script type="application/ecmascript"><![CDATA[
document.addEventListener('DOMContentLoaded', (event) => {
  highlightEdges();
  highlightAdjacentNodes();
});
]]></script>
</svg>
