<?xml version="1.0" encoding="UTF-8" standalone="no"?>
<!DOCTYPE svg PUBLIC "-//W3C//DTD SVG 1.1//EN"
 "http://www.w3.org/Graphics/SVG/1.1/DTD/svg11.dtd">
<!-- Generated by graphviz version 2.42.4 (0)
 -->
<!-- Title: /__w/vulpes/vulpes/vulpes/la/petsc_utils.hpp Pages: 1 -->
<svg width="1698pt" height="566pt"
 viewBox="0.00 0.00 1697.50 566.00" xmlns="http://www.w3.org/2000/svg" xmlns:xlink="http://www.w3.org/1999/xlink">
<g id="graph0" class="graph" transform="scale(1 1) rotate(0) translate(4 562)">
<title>/__w/vulpes/vulpes/vulpes/la/petsc_utils.hpp</title>
<!-- Node1 -->
<g id="Node000001" class="node">
<title>Node1</title>
<g id="a_Node000001"><a xlink:title=" ">
<polygon fill="#999999" stroke="#666666" points="637,-558 497,-558 497,-528 637,-528 637,-558"/>
<text text-anchor="start" x="505" y="-546" font-family="Helvetica,sans-Serif" font-size="10.00">/__w/vulpes/vulpes</text>
<text text-anchor="middle" x="567" y="-535" font-family="Helvetica,sans-Serif" font-size="10.00">/vulpes/la/petsc_utils.hpp</text>
</a>
</g>
</g>
<!-- Node2 -->
<g id="Node000002" class="node">
<title>Node2</title>
<g id="a_Node000002"><a xlink:href="linear__solver_8hpp.html" target="_top" xlink:title=" ">
<polygon fill="white" stroke="#666666" points="369,-343.5 219,-343.5 219,-313.5 369,-313.5 369,-343.5"/>
<text text-anchor="start" x="227" y="-331.5" font-family="Helvetica,sans-Serif" font-size="10.00">/__w/vulpes/vulpes</text>
<text text-anchor="middle" x="294" y="-320.5" font-family="Helvetica,sans-Serif" font-size="10.00">/vulpes/la/linear_solver.hpp</text>
</a>
</g>
</g>
<!-- Node1&#45;&gt;Node2 -->
<g id="edge1_Node000001_Node000002" class="edge">
<title>Node1&#45;&gt;Node2</title>
<g id="a_edge1_Node000001_Node000002"><a xlink:title=" ">
<path fill="none" stroke="#63b8ff" d="M517.59,-524.23C470.69,-505.46 400.36,-472.17 352,-426 326.55,-401.71 308.22,-363.87 299.57,-343.54"/>
<polygon fill="#63b8ff" stroke="#63b8ff" points="516.35,-527.5 526.93,-527.9 518.91,-520.99 516.35,-527.5"/>
</a>
</g>
</g>
<!-- Node12 -->
<g id="Node000012" class="node">
<title>Node12</title>
<g id="a_Node000012"><a xlink:href="sparse__matrix_8hpp.html" target="_top" xlink:title=" ">
<polygon fill="white" stroke="#666666" points="583,-420.5 425,-420.5 425,-390.5 583,-390.5 583,-420.5"/>
<text text-anchor="start" x="433" y="-408.5" font-family="Helvetica,sans-Serif" font-size="10.00">/__w/vulpes/vulpes</text>
<text text-anchor="middle" x="504" y="-397.5" font-family="Helvetica,sans-Serif" font-size="10.00">/vulpes/la/sparse_matrix.hpp</text>
</a>
</g>
</g>
<!-- Node1&#45;&gt;Node12 -->
<g id="edge11_Node000001_Node000012" class="edge">
<title>Node1&#45;&gt;Node12</title>
<g id="a_edge11_Node000001_Node000012"><a xlink:title=" ">
<path fill="none" stroke="#63b8ff" d="M556.12,-518.6C542.99,-490.35 521.33,-443.77 510.53,-420.55"/>
<polygon fill="#63b8ff" stroke="#63b8ff" points="552.99,-520.16 560.38,-527.76 559.33,-517.21 552.99,-520.16"/>
</a>
</g>
</g>
<!-- Node16 -->
<g id="Node000016" class="node">
<title>Node16</title>
<g id="a_Node000016"><a xlink:href="la_2tensor_8hpp.html" target="_top" xlink:title=" ">
<polygon fill="white" stroke="#666666" points="825,-492 707,-492 707,-462 825,-462 825,-492"/>
<text text-anchor="start" x="715" y="-480" font-family="Helvetica,sans-Serif" font-size="10.00">/__w/vulpes/vulpes</text>
<text text-anchor="middle" x="766" y="-469" font-family="Helvetica,sans-Serif" font-size="10.00">/vulpes/la/tensor.hpp</text>
</a>
</g>
</g>
<!-- Node1&#45;&gt;Node16 -->
<g id="edge23_Node000001_Node000016" class="edge">
<title>Node1&#45;&gt;Node16</title>
<g id="a_edge23_Node000001_Node000016"><a xlink:title=" ">
<path fill="none" stroke="#63b8ff" d="M620.31,-524.86C652.26,-514.58 692.38,-501.68 722.43,-492.01"/>
<polygon fill="#63b8ff" stroke="#63b8ff" points="619.12,-521.56 610.67,-527.95 621.26,-528.23 619.12,-521.56"/>
</a>
</g>
</g>
<!-- Node17 -->
<g id="Node000017" class="node">
<title>Node17</title>
<g id="a_Node000017"><a xlink:href="vector_8hpp.html" target="_top" xlink:title=" ">
<polygon fill="white" stroke="#666666" points="689,-492 571,-492 571,-462 689,-462 689,-492"/>
<text text-anchor="start" x="579" y="-480" font-family="Helvetica,sans-Serif" font-size="10.00">/__w/vulpes/vulpes</text>
<text text-anchor="middle" x="630" y="-469" font-family="Helvetica,sans-Serif" font-size="10.00">/vulpes/la/vector.hpp</text>
</a>
</g>
</g>
<!-- Node1&#45;&gt;Node17 -->
<g id="edge24_Node000001_Node000017" class="edge">
<title>Node1&#45;&gt;Node17</title>
<g id="a_edge24_Node000001_Node000017"><a xlink:title=" ">
<path fill="none" stroke="#63b8ff" d="M588.02,-520.65C597.25,-511.27 607.83,-500.53 616.06,-492.16"/>
<polygon fill="#63b8ff" stroke="#63b8ff" points="585.5,-518.21 580.98,-527.8 590.49,-523.13 585.5,-518.21"/>
</a>
</g>
</g>
<!-- Node3 -->
<g id="Node000003" class="node">
<title>Node3</title>
<g id="a_Node000003"><a xlink:href="dg__utils_8hpp.html" target="_top" xlink:title=" ">
<polygon fill="white" stroke="#666666" points="1016.5,-41 899.5,-41 899.5,0 1016.5,0 1016.5,-41"/>
<text text-anchor="start" x="907.5" y="-29" font-family="Helvetica,sans-Serif" font-size="10.00">/__w/vulpes/vulpes</text>
<text text-anchor="start" x="907.5" y="-18" font-family="Helvetica,sans-Serif" font-size="10.00">/vulpes/assemble/dg</text>
<text text-anchor="middle" x="958" y="-7" font-family="Helvetica,sans-Serif" font-size="10.00">_utils.hpp</text>
</a>
</g>
</g>
<!-- Node2&#45;&gt;Node3 -->
<g id="edge2_Node000002_Node000003" class="edge">
<title>Node2&#45;&gt;Node3</title>
<g id="a_edge2_Node000002_Node000003"><a xlink:title=" ">
<path fill="none" stroke="#63b8ff" d="M304.13,-303.91C314.32,-282.51 331.84,-251.3 355,-231 517.54,-88.57 782.33,-41.57 899.29,-27.26"/>
<polygon fill="#63b8ff" stroke="#63b8ff" points="300.83,-302.7 299.84,-313.25 307.19,-305.62 300.83,-302.7"/>
</a>
</g>
</g>
<!-- Node4 -->
<g id="Node000004" class="node">
<title>Node4</title>
<g id="a_Node000004"><a xlink:href="linear__solver_8cpp.html" target="_top" xlink:title=" ">
<polygon fill="white" stroke="#666666" points="513.5,-266.5 364.5,-266.5 364.5,-236.5 513.5,-236.5 513.5,-266.5"/>
<text text-anchor="start" x="372.5" y="-254.5" font-family="Helvetica,sans-Serif" font-size="10.00">/__w/vulpes/vulpes</text>
<text text-anchor="middle" x="439" y="-243.5" font-family="Helvetica,sans-Serif" font-size="10.00">/vulpes/la/linear_solver.cpp</text>
</a>
</g>
</g>
<!-- Node2&#45;&gt;Node4 -->
<g id="edge3_Node000002_Node000004" class="edge">
<title>Node2&#45;&gt;Node4</title>
<g id="a_edge3_Node000002_Node000004"><a xlink:title=" ">
<path fill="none" stroke="#63b8ff" d="M330.21,-308.77C355.52,-295.68 388.8,-278.47 411.85,-266.54"/>
<polygon fill="#63b8ff" stroke="#63b8ff" points="328.55,-305.69 321.27,-313.39 331.76,-311.91 328.55,-305.69"/>
</a>
</g>
</g>
<!-- Node5 -->
<g id="Node000005" class="node">
<title>Node5</title>
<g id="a_Node000005"><a xlink:href="cranknicolson_8hpp.html" target="_top" xlink:title=" ">
<polygon fill="white" stroke="#666666" points="811.5,-272 680.5,-272 680.5,-231 811.5,-231 811.5,-272"/>
<text text-anchor="start" x="688.5" y="-260" font-family="Helvetica,sans-Serif" font-size="10.00">/__w/vulpes/vulpes</text>
<text text-anchor="start" x="688.5" y="-249" font-family="Helvetica,sans-Serif" font-size="10.00">/vulpes/timeintegration</text>
<text text-anchor="middle" x="746" y="-238" font-family="Helvetica,sans-Serif" font-size="10.00">/cranknicolson.hpp</text>
</a>
</g>
</g>
<!-- Node2&#45;&gt;Node5 -->
<g id="edge4_Node000002_Node000005" class="edge">
<title>Node2&#45;&gt;Node5</title>
<g id="a_edge4_Node000002_Node000005"><a xlink:title=" ">
<path fill="none" stroke="#63b8ff" d="M360.61,-311.36C366.47,-310.14 372.33,-309 378,-308 507.19,-285.13 542.12,-296.56 671,-272 674.04,-271.42 677.14,-270.79 680.26,-270.12"/>
<polygon fill="#63b8ff" stroke="#63b8ff" points="359.81,-307.95 350.77,-313.46 361.28,-314.8 359.81,-307.95"/>
</a>
</g>
</g>
<!-- Node7 -->
<g id="Node000007" class="node">
<title>Node7</title>
<g id="a_Node000007"><a xlink:href="imex_8hpp.html" target="_top" xlink:title=" ">
<polygon fill="white" stroke="#666666" points="159.5,-272 28.5,-272 28.5,-231 159.5,-231 159.5,-272"/>
<text text-anchor="start" x="36.5" y="-260" font-family="Helvetica,sans-Serif" font-size="10.00">/__w/vulpes/vulpes</text>
<text text-anchor="start" x="36.5" y="-249" font-family="Helvetica,sans-Serif" font-size="10.00">/vulpes/timeintegration</text>
<text text-anchor="middle" x="94" y="-238" font-family="Helvetica,sans-Serif" font-size="10.00">/dae/imex.hpp</text>
</a>
</g>
</g>
<!-- Node2&#45;&gt;Node7 -->
<g id="edge6_Node000002_Node000007" class="edge">
<title>Node2&#45;&gt;Node7</title>
<g id="a_edge6_Node000002_Node000007"><a xlink:title=" ">
<path fill="none" stroke="#63b8ff" d="M246.9,-309.84C216.66,-298.5 177.35,-283.76 146.17,-272.06"/>
<polygon fill="#63b8ff" stroke="#63b8ff" points="245.79,-313.16 256.38,-313.39 248.25,-306.6 245.79,-313.16"/>
</a>
</g>
</g>
<!-- Node8 -->
<g id="Node000008" class="node">
<title>Node8</title>
<g id="a_Node000008"><a xlink:href="solverfkpp_8hpp.html" target="_top" xlink:title=" ">
<polygon fill="white" stroke="#666666" points="308.5,-272 177.5,-272 177.5,-231 308.5,-231 308.5,-272"/>
<text text-anchor="start" x="185.5" y="-260" font-family="Helvetica,sans-Serif" font-size="10.00">/__w/vulpes/vulpes</text>
<text text-anchor="start" x="185.5" y="-249" font-family="Helvetica,sans-Serif" font-size="10.00">/vulpes/timeintegration</text>
<text text-anchor="middle" x="243" y="-238" font-family="Helvetica,sans-Serif" font-size="10.00">/solverfkpp.hpp</text>
</a>
</g>
</g>
<!-- Node2&#45;&gt;Node8 -->
<g id="edge7_Node000002_Node000008" class="edge">
<title>Node2&#45;&gt;Node8</title>
<g id="a_edge7_Node000002_Node000008"><a xlink:title=" ">
<path fill="none" stroke="#63b8ff" d="M278.58,-304.82C271.51,-294.42 263.2,-282.21 256.4,-272.2"/>
<polygon fill="#63b8ff" stroke="#63b8ff" points="275.89,-307.09 284.41,-313.39 281.68,-303.16 275.89,-307.09"/>
</a>
</g>
</g>
<!-- Node10 -->
<g id="Node000010" class="node">
<title>Node10</title>
<g id="a_Node000010"><a xlink:href="solvermfk_8hpp.html" target="_top" xlink:title=" ">
<polygon fill="white" stroke="#666666" points="662.5,-272 531.5,-272 531.5,-231 662.5,-231 662.5,-272"/>
<text text-anchor="start" x="539.5" y="-260" font-family="Helvetica,sans-Serif" font-size="10.00">/__w/vulpes/vulpes</text>
<text text-anchor="start" x="539.5" y="-249" font-family="Helvetica,sans-Serif" font-size="10.00">/vulpes/timeintegration</text>
<text text-anchor="middle" x="597" y="-238" font-family="Helvetica,sans-Serif" font-size="10.00">/solvermfk.hpp</text>
</a>
</g>
</g>
<!-- Node2&#45;&gt;Node10 -->
<g id="edge9_Node000002_Node000010" class="edge">
<title>Node2&#45;&gt;Node10</title>
<g id="a_edge9_Node000002_Node000010"><a xlink:title=" ">
<path fill="none" stroke="#63b8ff" d="M362.64,-311.09C407.94,-300.18 468.56,-285.45 522,-272 525,-271.24 528.07,-270.47 531.16,-269.68"/>
<polygon fill="#63b8ff" stroke="#63b8ff" points="361.54,-307.75 352.64,-313.49 363.18,-314.56 361.54,-307.75"/>
</a>
</g>
</g>
<!-- Node6 -->
<g id="Node000006" class="node">
<title>Node6</title>
<g id="a_Node000006"><a xlink:href="cranknicolson_8cpp.html" target="_top" xlink:title=" ">
<polygon fill="white" stroke="#666666" points="811.5,-195 680.5,-195 680.5,-154 811.5,-154 811.5,-195"/>
<text text-anchor="start" x="688.5" y="-183" font-family="Helvetica,sans-Serif" font-size="10.00">/__w/vulpes/vulpes</text>
<text text-anchor="start" x="688.5" y="-172" font-family="Helvetica,sans-Serif" font-size="10.00">/vulpes/timeintegration</text>
<text text-anchor="middle" x="746" y="-161" font-family="Helvetica,sans-Serif" font-size="10.00">/cranknicolson.cpp</text>
</a>
</g>
</g>
<!-- Node5&#45;&gt;Node6 -->
<g id="edge5_Node000005_Node000006" class="edge">
<title>Node5&#45;&gt;Node6</title>
<g id="a_edge5_Node000005_Node000006"><a xlink:title=" ">
<path fill="none" stroke="#63b8ff" d="M746,-220.69C746,-212.08 746,-202.9 746,-195.07"/>
<polygon fill="#63b8ff" stroke="#63b8ff" points="742.5,-220.79 746,-230.79 749.5,-220.79 742.5,-220.79"/>
</a>
</g>
</g>
<!-- Node9 -->
<g id="Node000009" class="node">
<title>Node9</title>
<g id="a_Node000009"><a xlink:href="solverfkpp_8cpp.html" target="_top" xlink:title=" ">
<polygon fill="white" stroke="#666666" points="308.5,-195 177.5,-195 177.5,-154 308.5,-154 308.5,-195"/>
<text text-anchor="start" x="185.5" y="-183" font-family="Helvetica,sans-Serif" font-size="10.00">/__w/vulpes/vulpes</text>
<text text-anchor="start" x="185.5" y="-172" font-family="Helvetica,sans-Serif" font-size="10.00">/vulpes/timeintegration</text>
<text text-anchor="middle" x="243" y="-161" font-family="Helvetica,sans-Serif" font-size="10.00">/solverfkpp.cpp</text>
</a>
</g>
</g>
<!-- Node8&#45;&gt;Node9 -->
<g id="edge8_Node000008_Node000009" class="edge">
<title>Node8&#45;&gt;Node9</title>
<g id="a_edge8_Node000008_Node000009"><a xlink:title=" ">
<path fill="none" stroke="#63b8ff" d="M243,-220.69C243,-212.08 243,-202.9 243,-195.07"/>
<polygon fill="#63b8ff" stroke="#63b8ff" points="239.5,-220.79 243,-230.79 246.5,-220.79 239.5,-220.79"/>
</a>
</g>
</g>
<!-- Node11 -->
<g id="Node000011" class="node">
<title>Node11</title>
<g id="a_Node000011"><a xlink:href="solvermfk_8cpp.html" target="_top" xlink:title=" ">
<polygon fill="white" stroke="#666666" points="662.5,-195 531.5,-195 531.5,-154 662.5,-154 662.5,-195"/>
<text text-anchor="start" x="539.5" y="-183" font-family="Helvetica,sans-Serif" font-size="10.00">/__w/vulpes/vulpes</text>
<text text-anchor="start" x="539.5" y="-172" font-family="Helvetica,sans-Serif" font-size="10.00">/vulpes/timeintegration</text>
<text text-anchor="middle" x="597" y="-161" font-family="Helvetica,sans-Serif" font-size="10.00">/solvermfk.cpp</text>
</a>
</g>
</g>
<!-- Node10&#45;&gt;Node11 -->
<g id="edge10_Node000010_Node000011" class="edge">
<title>Node10&#45;&gt;Node11</title>
<g id="a_edge10_Node000010_Node000011"><a xlink:title=" ">
<path fill="none" stroke="#63b8ff" d="M597,-220.69C597,-212.08 597,-202.9 597,-195.07"/>
<polygon fill="#63b8ff" stroke="#63b8ff" points="593.5,-220.79 597,-230.79 600.5,-220.79 593.5,-220.79"/>
</a>
</g>
</g>
<!-- Node12&#45;&gt;Node2 -->
<g id="edge13_Node000012_Node000002" class="edge">
<title>Node12&#45;&gt;Node2</title>
<g id="a_edge13_Node000012_Node000002"><a xlink:title=" ">
<path fill="none" stroke="#63b8ff" d="M454.91,-386.97C417.87,-373.74 367.73,-355.83 333.32,-343.54"/>
<polygon fill="#63b8ff" stroke="#63b8ff" points="453.91,-390.33 464.5,-390.39 456.26,-383.73 453.91,-390.33"/>
</a>
</g>
</g>
<!-- Node12&#45;&gt;Node3 -->
<g id="edge12_Node000012_Node000003" class="edge">
<title>Node12&#45;&gt;Node3</title>
<g id="a_edge12_Node000012_Node000003"><a xlink:title=" ">
<path fill="none" stroke="#63b8ff" d="M414.39,-400.86C339.55,-395.47 231.09,-382.1 142,-349 70.47,-322.42 0,-328.81 0,-252.5 0,-252.5 0,-252.5 0,-173.5 0,-81.99 690.72,-36.29 899.16,-24.59"/>
<polygon fill="#63b8ff" stroke="#63b8ff" points="414.51,-404.38 424.72,-401.57 414.99,-397.39 414.51,-404.38"/>
</a>
</g>
</g>
<!-- Node12&#45;&gt;Node5 -->
<g id="edge17_Node000012_Node000005" class="edge">
<title>Node12&#45;&gt;Node5</title>
<g id="a_edge17_Node000012_Node000005"><a xlink:title=" ">
<path fill="none" stroke="#63b8ff" d="M535.04,-385.01C581.38,-355.9 668.17,-301.39 714.67,-272.18"/>
<polygon fill="#63b8ff" stroke="#63b8ff" points="532.94,-382.19 526.33,-390.47 536.66,-388.12 532.94,-382.19"/>
</a>
</g>
</g>
<!-- Node12&#45;&gt;Node7 -->
<g id="edge18_Node000012_Node000007" class="edge">
<title>Node12&#45;&gt;Node7</title>
<g id="a_edge18_Node000012_Node000007"><a xlink:title=" ">
<path fill="none" stroke="#63b8ff" d="M414.38,-401.31C351.3,-396 266.44,-382.55 199,-349 161.76,-330.47 128.18,-294.7 109.49,-272.3"/>
<polygon fill="#63b8ff" stroke="#63b8ff" points="414.46,-404.83 424.71,-402.12 415.01,-397.85 414.46,-404.83"/>
</a>
</g>
</g>
<!-- Node12&#45;&gt;Node8 -->
<g id="edge19_Node000012_Node000008" class="edge">
<title>Node12&#45;&gt;Node8</title>
<g id="a_edge19_Node000012_Node000008"><a xlink:title=" ">
<path fill="none" stroke="#63b8ff" d="M414.52,-399.85C337.78,-393.77 235.66,-379.95 210,-349 191.47,-326.64 210.22,-293.33 226.1,-272.27"/>
<polygon fill="#63b8ff" stroke="#63b8ff" points="414.46,-403.35 424.69,-400.62 414.99,-396.37 414.46,-403.35"/>
</a>
</g>
</g>
<!-- Node12&#45;&gt;Node10 -->
<g id="edge20_Node000012_Node000010" class="edge">
<title>Node12&#45;&gt;Node10</title>
<g id="a_edge20_Node000012_Node000010"><a xlink:title=" ">
<path fill="none" stroke="#63b8ff" d="M525.62,-383.05C534.8,-373.22 545.16,-361.08 553,-349 569.14,-324.13 582.38,-292.37 589.99,-272.23"/>
<polygon fill="#63b8ff" stroke="#63b8ff" points="522.98,-380.75 518.59,-390.39 528.03,-385.59 522.98,-380.75"/>
</a>
</g>
</g>
<!-- Node13 -->
<g id="Node000013" class="node">
<title>Node13</title>
<g id="a_Node000013"><a xlink:href="sparse__matrix_8cpp.html" target="_top" xlink:title=" ">
<polygon fill="white" stroke="#666666" points="544.5,-343.5 387.5,-343.5 387.5,-313.5 544.5,-313.5 544.5,-343.5"/>
<text text-anchor="start" x="395.5" y="-331.5" font-family="Helvetica,sans-Serif" font-size="10.00">/__w/vulpes/vulpes</text>
<text text-anchor="middle" x="466" y="-320.5" font-family="Helvetica,sans-Serif" font-size="10.00">/vulpes/la/sparse_matrix.cpp</text>
</a>
</g>
</g>
<!-- Node12&#45;&gt;Node13 -->
<g id="edge14_Node000012_Node000013" class="edge">
<title>Node12&#45;&gt;Node13</title>
<g id="a_edge14_Node000012_Node000013"><a xlink:title=" ">
<path fill="none" stroke="#63b8ff" d="M492.17,-381.15C485.92,-368.82 478.47,-354.11 473.12,-343.54"/>
<polygon fill="#63b8ff" stroke="#63b8ff" points="489.21,-383.05 496.85,-390.39 495.45,-379.89 489.21,-383.05"/>
</a>
</g>
</g>
<!-- Node14 -->
<g id="Node000014" class="node">
<title>Node14</title>
<g id="a_Node000014"><a xlink:href="vector__block__utils_8hpp.html" target="_top" xlink:title=" ">
<polygon fill="white" stroke="#666666" points="972.5,-349 843.5,-349 843.5,-308 972.5,-308 972.5,-349"/>
<text text-anchor="start" x="851.5" y="-337" font-family="Helvetica,sans-Serif" font-size="10.00">/__w/vulpes/vulpes</text>
<text text-anchor="start" x="851.5" y="-326" font-family="Helvetica,sans-Serif" font-size="10.00">/vulpes/la/vector_block</text>
<text text-anchor="middle" x="908" y="-315" font-family="Helvetica,sans-Serif" font-size="10.00">_utils.hpp</text>
</a>
</g>
</g>
<!-- Node12&#45;&gt;Node14 -->
<g id="edge15_Node000012_Node000014" class="edge">
<title>Node12&#45;&gt;Node14</title>
<g id="a_edge15_Node000012_Node000014"><a xlink:title=" ">
<path fill="none" stroke="#63b8ff" d="M589.52,-388.62C665.33,-374.55 774.38,-354.3 843.19,-341.53"/>
<polygon fill="#63b8ff" stroke="#63b8ff" points="588.71,-385.21 579.52,-390.48 589.99,-392.1 588.71,-385.21"/>
</a>
</g>
</g>
<!-- Node15 -->
<g id="Node000015" class="node">
<title>Node15</title>
<g id="a_Node000015"><a xlink:href="io_8hpp.html" target="_top" xlink:title=" ">
<polygon fill="white" stroke="#666666" points="786.5,-343.5 677.5,-343.5 677.5,-313.5 786.5,-313.5 786.5,-343.5"/>
<text text-anchor="start" x="685.5" y="-331.5" font-family="Helvetica,sans-Serif" font-size="10.00">/__w/vulpes/vulpes</text>
<text text-anchor="middle" x="732" y="-320.5" font-family="Helvetica,sans-Serif" font-size="10.00">/vulpes/utils/io.hpp</text>
</a>
</g>
</g>
<!-- Node12&#45;&gt;Node15 -->
<g id="edge21_Node000012_Node000015" class="edge">
<title>Node12&#45;&gt;Node15</title>
<g id="a_edge21_Node000012_Node000015"><a xlink:title=" ">
<path fill="none" stroke="#63b8ff" d="M556.26,-387.31C596.53,-374.06 651.52,-355.97 689.2,-343.58"/>
<polygon fill="#63b8ff" stroke="#63b8ff" points="555.02,-384.03 546.62,-390.48 557.21,-390.68 555.02,-384.03"/>
</a>
</g>
</g>
<!-- Node14&#45;&gt;Node3 -->
<g id="edge16_Node000014_Node000003" class="edge">
<title>Node14&#45;&gt;Node3</title>
<g id="a_edge16_Node000014_Node000003"><a xlink:title=" ">
<path fill="none" stroke="#63b8ff" d="M912.82,-297.97C922.95,-235.99 946.2,-93.73 954.76,-41.34"/>
<polygon fill="#63b8ff" stroke="#63b8ff" points="909.36,-297.46 911.2,-307.89 916.27,-298.59 909.36,-297.46"/>
</a>
</g>
</g>
<!-- Node15&#45;&gt;Node5 -->
<g id="edge22_Node000015_Node000005" class="edge">
<title>Node15&#45;&gt;Node5</title>
<g id="a_edge22_Node000015_Node000005"><a xlink:title=" ">
<path fill="none" stroke="#63b8ff" d="M736.47,-303.55C738.36,-293.44 740.53,-281.81 742.32,-272.2"/>
<polygon fill="#63b8ff" stroke="#63b8ff" points="733.03,-302.92 734.63,-313.39 739.91,-304.21 733.03,-302.92"/>
</a>
</g>
</g>
<!-- Node17&#45;&gt;Node2 -->
<g id="edge39_Node000017_Node000002" class="edge">
<title>Node17&#45;&gt;Node2</title>
<g id="a_edge39_Node000017_Node000002"><a xlink:title=" ">
<path fill="none" stroke="#63b8ff" d="M560.77,-467.71C517.56,-460.65 461.65,-448.02 416,-426 371.73,-404.65 328.74,-364.88 307.59,-343.68"/>
<polygon fill="#63b8ff" stroke="#63b8ff" points="560.49,-471.2 570.91,-469.3 561.58,-464.29 560.49,-471.2"/>
</a>
</g>
</g>
<!-- Node17&#45;&gt;Node3 -->
<g id="edge25_Node000017_Node000003" class="edge">
<title>Node17&#45;&gt;Node3</title>
<g id="a_edge25_Node000017_Node000003"><a xlink:title=" ">
<path fill="none" stroke="#63b8ff" d="M699.35,-462.14C786.34,-452.81 978.97,-478.47 1026,-426 1038.16,-412.43 1027.68,-403.14 1026,-385 1013.67,-252.03 976.49,-95.17 962.97,-41.02"/>
<polygon fill="#63b8ff" stroke="#63b8ff" points="698.74,-458.69 689.28,-463.45 699.65,-465.63 698.74,-458.69"/>
</a>
</g>
</g>
<!-- Node17&#45;&gt;Node5 -->
<g id="edge44_Node000017_Node000005" class="edge">
<title>Node17&#45;&gt;Node5</title>
<g id="a_edge44_Node000017_Node000005"><a xlink:title=" ">
<path fill="none" stroke="#63b8ff" d="M649.68,-454.18C657.2,-445.58 665.71,-435.5 673,-426 686.44,-408.5 683.69,-398.68 701,-385 736.1,-357.27 769.65,-385.86 795,-349 812.14,-324.08 788.34,-292.33 768.32,-272.21"/>
<polygon fill="#63b8ff" stroke="#63b8ff" points="646.85,-452.1 642.85,-461.91 652.1,-456.74 646.85,-452.1"/>
</a>
</g>
</g>
<!-- Node17&#45;&gt;Node7 -->
<g id="edge45_Node000017_Node000007" class="edge">
<title>Node17&#45;&gt;Node7</title>
<g id="a_edge45_Node000017_Node000007"><a xlink:title=" ">
<path fill="none" stroke="#63b8ff" d="M560.81,-473.81C460.96,-469.58 282.38,-457.71 227,-426 163.44,-389.6 120.12,-309.47 102.65,-272.24"/>
<polygon fill="#63b8ff" stroke="#63b8ff" points="560.67,-477.3 570.81,-474.22 560.96,-470.31 560.67,-477.3"/>
</a>
</g>
</g>
<!-- Node17&#45;&gt;Node8 -->
<g id="edge46_Node000017_Node000008" class="edge">
<title>Node17&#45;&gt;Node8</title>
<g id="a_edge46_Node000017_Node000008"><a xlink:title=" ">
<path fill="none" stroke="#63b8ff" d="M560.74,-469.16C503.65,-462.2 421.11,-449.07 352,-426 279.79,-401.9 238.94,-413.81 199,-349 183.45,-323.76 204.86,-292.1 222.89,-272.08"/>
<polygon fill="#63b8ff" stroke="#63b8ff" points="560.4,-472.64 570.74,-470.35 561.22,-465.69 560.4,-472.64"/>
</a>
</g>
</g>
<!-- Node17&#45;&gt;Node10 -->
<g id="edge47_Node000017_Node000010" class="edge">
<title>Node17&#45;&gt;Node10</title>
<g id="a_edge47_Node000017_Node000010"><a xlink:title=" ">
<path fill="none" stroke="#63b8ff" d="M626.42,-451.73C619.84,-407.19 605.97,-313.24 599.92,-272.28"/>
<polygon fill="#63b8ff" stroke="#63b8ff" points="622.96,-452.3 627.89,-461.68 629.89,-451.28 622.96,-452.3"/>
</a>
</g>
</g>
<!-- Node17&#45;&gt;Node12 -->
<g id="edge40_Node000017_Node000012" class="edge">
<title>Node17&#45;&gt;Node12</title>
<g id="a_edge40_Node000017_Node000012"><a xlink:title=" ">
<path fill="none" stroke="#63b8ff" d="M595.62,-457.03C574.72,-445.51 548.49,-431.04 529.46,-420.54"/>
<polygon fill="#63b8ff" stroke="#63b8ff" points="594.06,-460.17 604.5,-461.94 597.44,-454.04 594.06,-460.17"/>
</a>
</g>
</g>
<!-- Node17&#45;&gt;Node14 -->
<g id="edge42_Node000017_Node000014" class="edge">
<title>Node17&#45;&gt;Node14</title>
<g id="a_edge42_Node000017_Node000014"><a xlink:title=" ">
<path fill="none" stroke="#63b8ff" d="M660.26,-456.15C673.14,-447.33 688.13,-436.57 701,-426 721.41,-409.24 721.41,-398.67 744,-385 761.17,-374.62 805.03,-359.97 843.08,-348.33"/>
<polygon fill="#63b8ff" stroke="#63b8ff" points="658.05,-453.42 651.73,-461.92 661.98,-459.22 658.05,-453.42"/>
</a>
</g>
</g>
<!-- Node17&#45;&gt;Node15 -->
<g id="edge48_Node000017_Node000015" class="edge">
<title>Node17&#45;&gt;Node15</title>
<g id="a_edge48_Node000017_Node000015"><a xlink:title=" ">
<path fill="none" stroke="#63b8ff" d="M638.33,-452.38C645.74,-433.19 657.76,-405.96 673,-385 684.58,-369.08 701.14,-353.97 713.77,-343.55"/>
<polygon fill="#63b8ff" stroke="#63b8ff" points="635.01,-451.27 634.79,-461.86 641.57,-453.72 635.01,-451.27"/>
</a>
</g>
</g>
<!-- Node18 -->
<g id="Node000018" class="node">
<title>Node18</title>
<g id="a_Node000018"><a xlink:href="fe__expr__func_8hpp.html" target="_top" xlink:title=" ">
<polygon fill="white" stroke="#666666" points="1218.5,-426 1077.5,-426 1077.5,-385 1218.5,-385 1218.5,-426"/>
<text text-anchor="start" x="1085.5" y="-414" font-family="Helvetica,sans-Serif" font-size="10.00">/__w/vulpes/vulpes</text>
<text text-anchor="start" x="1085.5" y="-403" font-family="Helvetica,sans-Serif" font-size="10.00">/vulpes/fe/fe_expressions</text>
<text text-anchor="middle" x="1148" y="-392" font-family="Helvetica,sans-Serif" font-size="10.00">/fe_expr_func.hpp</text>
</a>
</g>
</g>
<!-- Node17&#45;&gt;Node18 -->
<g id="edge26_Node000017_Node000018" class="edge">
<title>Node17&#45;&gt;Node18</title>
<g id="a_edge26_Node000017_Node000018"><a xlink:title=" ">
<path fill="none" stroke="#63b8ff" d="M699.46,-461.89C859.19,-438.25 903.02,-450.78 1059,-426 1064.94,-425.06 1071.07,-423.96 1077.22,-422.79"/>
<polygon fill="#63b8ff" stroke="#63b8ff" points="698.64,-458.47 689.27,-463.42 699.68,-465.39 698.64,-458.47"/>
</a>
</g>
</g>
<!-- Node27 -->
<g id="Node000027" class="node">
<title>Node27</title>
<g id="a_Node000027"><a xlink:href="vector_8cpp.html" target="_top" xlink:title=" ">
<polygon fill="white" stroke="#666666" points="870.5,-420.5 753.5,-420.5 753.5,-390.5 870.5,-390.5 870.5,-420.5"/>
<text text-anchor="start" x="761.5" y="-408.5" font-family="Helvetica,sans-Serif" font-size="10.00">/__w/vulpes/vulpes</text>
<text text-anchor="middle" x="812" y="-397.5" font-family="Helvetica,sans-Serif" font-size="10.00">/vulpes/la/vector.cpp</text>
</a>
</g>
</g>
<!-- Node17&#45;&gt;Node27 -->
<g id="edge41_Node000017_Node000027" class="edge">
<title>Node17&#45;&gt;Node27</title>
<g id="a_edge41_Node000017_Node000027"><a xlink:title=" ">
<path fill="none" stroke="#63b8ff" d="M676.45,-458.26C707.12,-446.55 746.75,-431.42 775.22,-420.54"/>
<polygon fill="#63b8ff" stroke="#63b8ff" points="674.92,-455.1 666.83,-461.94 677.42,-461.64 674.92,-455.1"/>
</a>
</g>
</g>
<!-- Node28 -->
<g id="Node000028" class="node">
<title>Node28</title>
<g id="a_Node000028"><a xlink:href="project__solution_8hpp.html" target="_top" xlink:title=" ">
<polygon fill="white" stroke="#666666" points="1017,-426 889,-426 889,-385 1017,-385 1017,-426"/>
<text text-anchor="start" x="897" y="-414" font-family="Helvetica,sans-Serif" font-size="10.00">/__w/vulpes/vulpes</text>
<text text-anchor="start" x="897" y="-403" font-family="Helvetica,sans-Serif" font-size="10.00">/vulpes/postprocessing</text>
<text text-anchor="middle" x="953" y="-392" font-family="Helvetica,sans-Serif" font-size="10.00">/project_solution.hpp</text>
</a>
</g>
</g>
<!-- Node17&#45;&gt;Node28 -->
<g id="edge43_Node000017_Node000028" class="edge">
<title>Node17&#45;&gt;Node28</title>
<g id="a_edge43_Node000017_Node000028"><a xlink:title=" ">
<path fill="none" stroke="#63b8ff" d="M699.46,-461.72C780.1,-445.6 802.21,-443.74 879,-426 882.24,-425.25 885.55,-424.47 888.88,-423.65"/>
<polygon fill="#63b8ff" stroke="#63b8ff" points="698.45,-458.36 689.33,-463.76 699.83,-465.22 698.45,-458.36"/>
</a>
</g>
</g>
<!-- Node19 -->
<g id="Node000019" class="node">
<title>Node19</title>
<g id="a_Node000019"><a xlink:href="fe__expression_8hpp.html" target="_top" xlink:title=" ">
<polygon fill="white" stroke="#666666" points="1244.5,-343.5 1087.5,-343.5 1087.5,-313.5 1244.5,-313.5 1244.5,-343.5"/>
<text text-anchor="start" x="1095.5" y="-331.5" font-family="Helvetica,sans-Serif" font-size="10.00">/__w/vulpes/vulpes</text>
<text text-anchor="middle" x="1166" y="-320.5" font-family="Helvetica,sans-Serif" font-size="10.00">/vulpes/fe/fe_expression.hpp</text>
</a>
</g>
</g>
<!-- Node18&#45;&gt;Node19 -->
<g id="edge27_Node000018_Node000019" class="edge">
<title>Node18&#45;&gt;Node19</title>
<g id="a_edge27_Node000018_Node000019"><a xlink:title=" ">
<path fill="none" stroke="#63b8ff" d="M1155.09,-374.94C1157.66,-364.25 1160.44,-352.66 1162.55,-343.86"/>
<polygon fill="#63b8ff" stroke="#63b8ff" points="1151.66,-374.25 1152.73,-384.79 1158.47,-375.89 1151.66,-374.25"/>
</a>
</g>
</g>
<!-- Node19&#45;&gt;Node3 -->
<g id="edge28_Node000019_Node000003" class="edge">
<title>Node19&#45;&gt;Node3</title>
<g id="a_edge28_Node000019_Node000003"><a xlink:title=" ">
<path fill="none" stroke="#63b8ff" d="M1164.8,-303.08C1162.98,-282.84 1158.42,-253.8 1147,-231 1105.99,-149.09 1024.04,-75.06 982.85,-41.1"/>
<polygon fill="#63b8ff" stroke="#63b8ff" points="1161.33,-303.61 1165.55,-313.32 1168.31,-303.09 1161.33,-303.61"/>
</a>
</g>
</g>
<!-- Node20 -->
<g id="Node000020" class="node">
<title>Node20</title>
<g id="a_Node000020"><a xlink:href="integrator__base_8hpp.html" target="_top" xlink:title=" ">
<polygon fill="white" stroke="#666666" points="1452.5,-195 1299.5,-195 1299.5,-154 1452.5,-154 1452.5,-195"/>
<text text-anchor="start" x="1307.5" y="-183" font-family="Helvetica,sans-Serif" font-size="10.00">/__w/vulpes/vulpes</text>
<text text-anchor="start" x="1307.5" y="-172" font-family="Helvetica,sans-Serif" font-size="10.00">/vulpes/assemble/integrator</text>
<text text-anchor="middle" x="1376" y="-161" font-family="Helvetica,sans-Serif" font-size="10.00">_base.hpp</text>
</a>
</g>
</g>
<!-- Node19&#45;&gt;Node20 -->
<g id="edge29_Node000019_Node000020" class="edge">
<title>Node19&#45;&gt;Node20</title>
<g id="a_edge29_Node000019_Node000020"><a xlink:title=" ">
<path fill="none" stroke="#63b8ff" d="M1255,-321.56C1291.41,-314.59 1331,-300.41 1357,-272 1376.14,-251.09 1378.45,-216.72 1377.7,-195.14"/>
<polygon fill="#63b8ff" stroke="#63b8ff" points="1254.08,-318.17 1244.83,-323.34 1255.28,-325.07 1254.08,-318.17"/>
</a>
</g>
</g>
<!-- Node25 -->
<g id="Node000025" class="node">
<title>Node25</title>
<g id="a_Node000025"><a xlink:href="integrator__traits_8hpp.html" target="_top" xlink:title=" ">
<polygon fill="white" stroke="#666666" points="1347.5,-272 1194.5,-272 1194.5,-231 1347.5,-231 1347.5,-272"/>
<text text-anchor="start" x="1202.5" y="-260" font-family="Helvetica,sans-Serif" font-size="10.00">/__w/vulpes/vulpes</text>
<text text-anchor="start" x="1202.5" y="-249" font-family="Helvetica,sans-Serif" font-size="10.00">/vulpes/assemble/integrator</text>
<text text-anchor="middle" x="1271" y="-238" font-family="Helvetica,sans-Serif" font-size="10.00">_traits.hpp</text>
</a>
</g>
</g>
<!-- Node19&#45;&gt;Node25 -->
<g id="edge36_Node000019_Node000025" class="edge">
<title>Node19&#45;&gt;Node25</title>
<g id="a_edge36_Node000019_Node000025"><a xlink:title=" ">
<path fill="none" stroke="#63b8ff" d="M1194.27,-307.31C1209.52,-296.41 1228.27,-283.02 1243.41,-272.2"/>
<polygon fill="#63b8ff" stroke="#63b8ff" points="1191.85,-304.73 1185.75,-313.39 1195.92,-310.43 1191.85,-304.73"/>
</a>
</g>
</g>
<!-- Node26 -->
<g id="Node000026" class="node">
<title>Node26</title>
<g id="a_Node000026"><a xlink:href="fe__vem_8hpp.html" target="_top" xlink:title=" ">
<polygon fill="white" stroke="#666666" points="1138,-272 1022,-272 1022,-231 1138,-231 1138,-272"/>
<text text-anchor="start" x="1030" y="-260" font-family="Helvetica,sans-Serif" font-size="10.00">/__w/vulpes/vulpes</text>
<text text-anchor="start" x="1030" y="-249" font-family="Helvetica,sans-Serif" font-size="10.00">/vulpes/fe/fe_spaces</text>
<text text-anchor="middle" x="1080" y="-238" font-family="Helvetica,sans-Serif" font-size="10.00">/fe_vem.hpp</text>
</a>
</g>
</g>
<!-- Node19&#45;&gt;Node26 -->
<g id="edge38_Node000019_Node000026" class="edge">
<title>Node19&#45;&gt;Node26</title>
<g id="a_edge38_Node000019_Node000026"><a xlink:title=" ">
<path fill="none" stroke="#63b8ff" d="M1142.14,-306.69C1129.78,-295.91 1114.77,-282.82 1102.59,-272.2"/>
<polygon fill="#63b8ff" stroke="#63b8ff" points="1139.99,-309.46 1149.82,-313.39 1144.59,-304.18 1139.99,-309.46"/>
</a>
</g>
</g>
<!-- Node21 -->
<g id="Node000021" class="node">
<title>Node21</title>
<g id="a_Node000021"><a xlink:href="integrator__gauss_8hpp.html" target="_top" xlink:title=" ">
<polygon fill="white" stroke="#666666" points="1347.5,-118 1194.5,-118 1194.5,-77 1347.5,-77 1347.5,-118"/>
<text text-anchor="start" x="1202.5" y="-106" font-family="Helvetica,sans-Serif" font-size="10.00">/__w/vulpes/vulpes</text>
<text text-anchor="start" x="1202.5" y="-95" font-family="Helvetica,sans-Serif" font-size="10.00">/vulpes/assemble/integrator</text>
<text text-anchor="middle" x="1271" y="-84" font-family="Helvetica,sans-Serif" font-size="10.00">_gauss.hpp</text>
</a>
</g>
</g>
<!-- Node20&#45;&gt;Node21 -->
<g id="edge30_Node000020_Node000021" class="edge">
<title>Node20&#45;&gt;Node21</title>
<g id="a_edge30_Node000020_Node000021"><a xlink:title=" ">
<path fill="none" stroke="#63b8ff" d="M1340.43,-148.09C1326.75,-138.32 1311.35,-127.32 1298.54,-118.17"/>
<polygon fill="#63b8ff" stroke="#63b8ff" points="1338.51,-151.03 1348.69,-153.99 1342.58,-145.33 1338.51,-151.03"/>
</a>
</g>
</g>
<!-- Node22 -->
<g id="Node000022" class="node">
<title>Node22</title>
<g id="a_Node000022"><a xlink:href="integrator__qfree_8hpp.html" target="_top" xlink:title=" ">
<polygon fill="white" stroke="#666666" points="1689.5,-118 1536.5,-118 1536.5,-77 1689.5,-77 1689.5,-118"/>
<text text-anchor="start" x="1544.5" y="-106" font-family="Helvetica,sans-Serif" font-size="10.00">/__w/vulpes/vulpes</text>
<text text-anchor="start" x="1544.5" y="-95" font-family="Helvetica,sans-Serif" font-size="10.00">/vulpes/assemble/integrator</text>
<text text-anchor="middle" x="1613" y="-84" font-family="Helvetica,sans-Serif" font-size="10.00">_qfree.hpp</text>
</a>
</g>
</g>
<!-- Node20&#45;&gt;Node22 -->
<g id="edge31_Node000020_Node000022" class="edge">
<title>Node20&#45;&gt;Node22</title>
<g id="a_edge31_Node000020_Node000022"><a xlink:title=" ">
<path fill="none" stroke="#63b8ff" d="M1447.27,-150.94C1480.39,-140.46 1519.4,-128.12 1551.25,-118.04"/>
<polygon fill="#63b8ff" stroke="#63b8ff" points="1446.13,-147.64 1437.65,-153.99 1448.24,-154.31 1446.13,-147.64"/>
</a>
</g>
</g>
<!-- Node24 -->
<g id="Node000024" class="node">
<title>Node24</title>
<g id="a_Node000024"><a xlink:href="integrator__simplexify_8hpp.html" target="_top" xlink:title=" ">
<polygon fill="white" stroke="#666666" points="1518.5,-118 1365.5,-118 1365.5,-77 1518.5,-77 1518.5,-118"/>
<text text-anchor="start" x="1373.5" y="-106" font-family="Helvetica,sans-Serif" font-size="10.00">/__w/vulpes/vulpes</text>
<text text-anchor="start" x="1373.5" y="-95" font-family="Helvetica,sans-Serif" font-size="10.00">/vulpes/assemble/integrator</text>
<text text-anchor="middle" x="1442" y="-84" font-family="Helvetica,sans-Serif" font-size="10.00">_simplexify.hpp</text>
</a>
</g>
</g>
<!-- Node20&#45;&gt;Node24 -->
<g id="edge33_Node000020_Node000024" class="edge">
<title>Node20&#45;&gt;Node24</title>
<g id="a_edge33_Node000020_Node000024"><a xlink:title=" ">
<path fill="none" stroke="#63b8ff" d="M1399.99,-146.23C1408.2,-136.91 1417.21,-126.67 1424.78,-118.07"/>
<polygon fill="#63b8ff" stroke="#63b8ff" points="1397.32,-143.98 1393.34,-153.79 1402.57,-148.6 1397.32,-143.98"/>
</a>
</g>
</g>
<!-- Node23 -->
<g id="Node000023" class="node">
<title>Node23</title>
<g id="a_Node000023"><a xlink:href="integrator__vem_8hpp.html" target="_top" xlink:title=" ">
<polygon fill="white" stroke="#666666" points="1603.5,-41 1450.5,-41 1450.5,0 1603.5,0 1603.5,-41"/>
<text text-anchor="start" x="1458.5" y="-29" font-family="Helvetica,sans-Serif" font-size="10.00">/__w/vulpes/vulpes</text>
<text text-anchor="start" x="1458.5" y="-18" font-family="Helvetica,sans-Serif" font-size="10.00">/vulpes/assemble/integrator</text>
<text text-anchor="middle" x="1527" y="-7" font-family="Helvetica,sans-Serif" font-size="10.00">_vem.hpp</text>
</a>
</g>
</g>
<!-- Node22&#45;&gt;Node23 -->
<g id="edge32_Node000022_Node000023" class="edge">
<title>Node22&#45;&gt;Node23</title>
<g id="a_edge32_Node000022_Node000023"><a xlink:title=" ">
<path fill="none" stroke="#63b8ff" d="M1582.69,-70.07C1571.75,-60.52 1559.6,-49.93 1549.44,-41.07"/>
<polygon fill="#63b8ff" stroke="#63b8ff" points="1580.57,-72.86 1590.4,-76.79 1585.17,-67.58 1580.57,-72.86"/>
</a>
</g>
</g>
<!-- Node24&#45;&gt;Node3 -->
<g id="edge34_Node000024_Node000003" class="edge">
<title>Node24&#45;&gt;Node3</title>
<g id="a_edge34_Node000024_Node000003"><a xlink:title=" ">
<path fill="none" stroke="#63b8ff" d="M1354.97,-76.69C1229.35,-53.96 1092.72,-36.87 1016.74,-28.04"/>
<polygon fill="#63b8ff" stroke="#63b8ff" points="1354.69,-80.2 1365.15,-78.55 1355.94,-73.31 1354.69,-80.2"/>
</a>
</g>
</g>
<!-- Node24&#45;&gt;Node23 -->
<g id="edge35_Node000024_Node000023" class="edge">
<title>Node24&#45;&gt;Node23</title>
<g id="a_edge35_Node000024_Node000023"><a xlink:title=" ">
<path fill="none" stroke="#63b8ff" d="M1471.95,-70.07C1482.77,-60.52 1494.78,-49.93 1504.82,-41.07"/>
<polygon fill="#63b8ff" stroke="#63b8ff" points="1469.52,-67.55 1464.33,-76.79 1474.15,-72.8 1469.52,-67.55"/>
</a>
</g>
</g>
<!-- Node25&#45;&gt;Node20 -->
<g id="edge37_Node000025_Node000020" class="edge">
<title>Node25&#45;&gt;Node20</title>
<g id="a_edge37_Node000025_Node000020"><a xlink:title=" ">
<path fill="none" stroke="#63b8ff" d="M1306.57,-225.09C1320.25,-215.32 1335.65,-204.32 1348.46,-195.17"/>
<polygon fill="#63b8ff" stroke="#63b8ff" points="1304.42,-222.33 1298.31,-230.99 1308.49,-228.03 1304.42,-222.33"/>
</a>
</g>
</g>
</g>
</svg>
