<?xml version="1.0" encoding="UTF-8" standalone="no"?>
<!DOCTYPE svg PUBLIC "-//W3C//DTD SVG 1.1//EN"
 "http://www.w3.org/Graphics/SVG/1.1/DTD/svg11.dtd">
<!-- Generated by graphviz version 2.42.4 (0)
 -->
<!-- Title: /__w/vulpes/vulpes/vulpes/la/petsc_utils.hpp Pages: 1 -->
<!--zoomable 555 -->

<svg id="main" version="1.1" xmlns="http://www.w3.org/2000/svg" xmlns:xlink="http://www.w3.org/1999/xlink" xml:space="preserve" onload="init(evt)">
<style type="text/css"><![CDATA[
.node, .edge {opacity: 0.7;}
.node.selected, .edge.selected {opacity: 1;}
.edge:hover path { stroke: red; }
.edge:hover polygon { stroke: red; fill: red; }
]]></style>

<defs>
  <circle id="rim" cx="0" cy="0" r="7"/>
  <circle id="rim2" cx="0" cy="0" r="3.5"/>
  <g id="zoomPlus">
    <use xlink:href="#rim" fill="#404040"><set attributeName="fill" to="#808080" begin="zoomplus.mouseover" end="zoomplus.mouseout"/></use>
    <path d="M-4,0h8M0,-4v8" fill="none" stroke="white" stroke-width="1.5" pointer-events="none"/>
  </g>
  <g id="zoomMin">
    <use xlink:href="#rim" fill="#404040"><set attributeName="fill" to="#808080" begin="zoomminus.mouseover" end="zoomminus.mouseout"/></use>
    <path d="M-4,0h8" fill="none" stroke="white" stroke-width="1.5" pointer-events="none"/>
  </g>
  <g id="arrowUp" transform="translate(30 24)">
    <use xlink:href="#rim"/>
    <path pointer-events="none" fill="none" stroke="white" stroke-width="1.5" d="M0,-3.0v7 M-2.5,-0.5L0,-3.0L2.5,-0.5"/>
  </g>
  <g id="arrowRight" transform="rotate(90) translate(36 -43)">
    <use xlink:href="#rim"/>
    <path pointer-events="none" fill="none" stroke="white" stroke-width="1.5" d="M0,-3.0v7 M-2.5,-0.5L0,-3.0L2.5,-0.5"/>
  </g>
  <g id="arrowDown" transform="rotate(180) translate(-30 -48)">
    <use xlink:href="#rim"/>
    <path pointer-events="none" fill="none" stroke="white" stroke-width="1.5" d="M0,-3.0v7 M-2.5,-0.5L0,-3.0L2.5,-0.5"/>
  </g>
  <g id="arrowLeft" transform="rotate(270) translate(-36 17)">
    <use xlink:href="#rim"/>
    <path pointer-events="none" fill="none" stroke="white" stroke-width="1.5" d="M0,-3.0v7 M-2.5,-0.5L0,-3.0L2.5,-0.5"/>
  </g>
  <g id="resetDef">
    <use xlink:href="#rim2" fill="#404040"><set attributeName="fill" to="#808080" begin="reset.mouseover" end="reset.mouseout"/></use>
  </g>
</defs>
<script type="application/ecmascript">
var viewWidth = 1419;
var viewHeight = 555;
var sectionId = 'dynsection-1';
</script>
<script type="application/ecmascript" xlink:href="svg.min.js"/>
<svg id="graph" class="graph">
<g id="viewport">
<title>/__w/vulpes/vulpes/vulpes/la/petsc_utils.hpp</title>
<!-- Node1 -->
<g id="Node000001" class="node">
<title>Node1</title>
<g id="a_Node000001"><a xlink:title=" ">
<polygon fill="#999999" stroke="#666666" points="448.5,-547 308.5,-547 308.5,-517 448.5,-517 448.5,-547"/>
<text text-anchor="start" x="316.5" y="-535" font-family="Helvetica,sans-Serif" font-size="10.00">/__w/vulpes/vulpes</text>
<text text-anchor="middle" x="378.5" y="-524" font-family="Helvetica,sans-Serif" font-size="10.00">/vulpes/la/petsc_utils.hpp</text>
</a>
</g>
</g>
<!-- Node2 -->
<g id="Node000002" class="node">
<title>Node2</title>
<g id="a_Node000002"><a xlink:href="linear__solver_8hpp.html" target="_top" xlink:title=" ">
<polygon fill="white" stroke="#666666" points="427.5,-338 277.5,-338 277.5,-308 427.5,-308 427.5,-338"/>
<text text-anchor="start" x="285.5" y="-326" font-family="Helvetica,sans-Serif" font-size="10.00">/__w/vulpes/vulpes</text>
<text text-anchor="middle" x="352.5" y="-315" font-family="Helvetica,sans-Serif" font-size="10.00">/vulpes/la/linear_solver.hpp</text>
</a>
</g>
</g>
<!-- Node1&#45;&gt;Node2 -->
<g id="edge1_Node000001_Node000002" class="edge">
<title>Node1&#45;&gt;Node2</title>
<g id="a_edge1_Node000001_Node000002"><a xlink:title=" ">
<path fill="none" stroke="#63b8ff" d="M333.25,-512.5C294.87,-494.08 242.36,-461.77 218.5,-415 210.22,-398.77 208.11,-388.97 218.5,-374 232.16,-354.32 254.57,-342.37 277.18,-335.12"/>
<polygon fill="#63b8ff" stroke="#63b8ff" points="332.13,-515.84 342.68,-516.88 335.08,-509.49 332.13,-515.84"/>
</a>
</g>
</g>
<!-- Node12 -->
<g id="Node000012" class="node">
<title>Node12</title>
<g id="a_Node000012"><a xlink:href="sparse__matrix_8hpp.html" target="_top" xlink:title=" ">
<polygon fill="white" stroke="#666666" points="397.5,-409.5 239.5,-409.5 239.5,-379.5 397.5,-379.5 397.5,-409.5"/>
<text text-anchor="start" x="247.5" y="-397.5" font-family="Helvetica,sans-Serif" font-size="10.00">/__w/vulpes/vulpes</text>
<text text-anchor="middle" x="318.5" y="-386.5" font-family="Helvetica,sans-Serif" font-size="10.00">/vulpes/la/sparse_matrix.hpp</text>
</a>
</g>
</g>
<!-- Node1&#45;&gt;Node12 -->
<g id="edge11_Node000001_Node000012" class="edge">
<title>Node1&#45;&gt;Node12</title>
<g id="a_edge11_Node000001_Node000012"><a xlink:title=" ">
<path fill="none" stroke="#63b8ff" d="M368.14,-507.6C355.63,-479.35 335,-432.77 324.72,-409.55"/>
<polygon fill="#63b8ff" stroke="#63b8ff" points="364.94,-509.03 372.19,-516.76 371.34,-506.19 364.94,-509.03"/>
</a>
</g>
</g>
<!-- Node14 -->
<g id="Node000014" class="node">
<title>Node14</title>
<g id="a_Node000014"><a xlink:href="la_2tensor_8hpp.html" target="_top" xlink:title=" ">
<polygon fill="white" stroke="#666666" points="651.5,-481 533.5,-481 533.5,-451 651.5,-451 651.5,-481"/>
<text text-anchor="start" x="541.5" y="-469" font-family="Helvetica,sans-Serif" font-size="10.00">/__w/vulpes/vulpes</text>
<text text-anchor="middle" x="592.5" y="-458" font-family="Helvetica,sans-Serif" font-size="10.00">/vulpes/la/tensor.hpp</text>
</a>
</g>
</g>
<!-- Node1&#45;&gt;Node14 -->
<g id="edge19_Node000001_Node000014" class="edge">
<title>Node1&#45;&gt;Node14</title>
<g id="a_edge19_Node000001_Node000014"><a xlink:title=" ">
<path fill="none" stroke="#63b8ff" d="M435.38,-513.99C469.81,-503.69 513.2,-490.72 545.65,-481.01"/>
<polygon fill="#63b8ff" stroke="#63b8ff" points="434.04,-510.74 425.46,-516.95 436.05,-517.44 434.04,-510.74"/>
</a>
</g>
</g>
<!-- Node15 -->
<g id="Node000015" class="node">
<title>Node15</title>
<g id="a_Node000015"><a xlink:href="vector_8hpp.html" target="_top" xlink:title=" ">
<polygon fill="white" stroke="#666666" points="515.5,-481 397.5,-481 397.5,-451 515.5,-451 515.5,-481"/>
<text text-anchor="start" x="405.5" y="-469" font-family="Helvetica,sans-Serif" font-size="10.00">/__w/vulpes/vulpes</text>
<text text-anchor="middle" x="456.5" y="-458" font-family="Helvetica,sans-Serif" font-size="10.00">/vulpes/la/vector.hpp</text>
</a>
</g>
</g>
<!-- Node1&#45;&gt;Node15 -->
<g id="edge20_Node000001_Node000015" class="edge">
<title>Node1&#45;&gt;Node15</title>
<g id="a_edge20_Node000001_Node000015"><a xlink:title=" ">
<path fill="none" stroke="#63b8ff" d="M403.85,-510.2C415.43,-500.7 428.85,-489.69 439.24,-481.16"/>
<polygon fill="#63b8ff" stroke="#63b8ff" points="401.32,-507.75 395.81,-516.8 405.76,-513.16 401.32,-507.75"/>
</a>
</g>
</g>
<!-- Node3 -->
<g id="Node000003" class="node">
<title>Node3</title>
<g id="a_Node000003"><a xlink:href="dg__utils_8hpp.html" target="_top" xlink:title=" ">
<polygon fill="white" stroke="#666666" points="908,-41 791,-41 791,0 908,0 908,-41"/>
<text text-anchor="start" x="799" y="-29" font-family="Helvetica,sans-Serif" font-size="10.00">/__w/vulpes/vulpes</text>
<text text-anchor="start" x="799" y="-18" font-family="Helvetica,sans-Serif" font-size="10.00">/vulpes/assemble/dg</text>
<text text-anchor="middle" x="849.5" y="-7" font-family="Helvetica,sans-Serif" font-size="10.00">_utils.hpp</text>
</a>
</g>
</g>
<!-- Node2&#45;&gt;Node3 -->
<g id="edge2_Node000002_Node000003" class="edge">
<title>Node2&#45;&gt;Node3</title>
<g id="a_edge2_Node000002_Node000003"><a xlink:title=" ">
<path fill="none" stroke="#63b8ff" d="M399.04,-303.84C417.5,-295.53 438.36,-284.7 455.5,-272 475.46,-257.21 474.14,-246.58 493.5,-231 597.56,-147.26 738.64,-74.48 807.79,-41.03"/>
<polygon fill="#63b8ff" stroke="#63b8ff" points="397.4,-300.74 389.64,-307.95 400.2,-307.15 397.4,-300.74"/>
</a>
</g>
</g>
<!-- Node4 -->
<g id="Node000004" class="node">
<title>Node4</title>
<g id="a_Node000004"><a xlink:href="linear__solver_8cpp.html" target="_top" xlink:title=" ">
<polygon fill="white" stroke="#666666" points="447,-266.5 298,-266.5 298,-236.5 447,-236.5 447,-266.5"/>
<text text-anchor="start" x="306" y="-254.5" font-family="Helvetica,sans-Serif" font-size="10.00">/__w/vulpes/vulpes</text>
<text text-anchor="middle" x="372.5" y="-243.5" font-family="Helvetica,sans-Serif" font-size="10.00">/vulpes/la/linear_solver.cpp</text>
</a>
</g>
</g>
<!-- Node2&#45;&gt;Node4 -->
<g id="edge3_Node000002_Node000004" class="edge">
<title>Node2&#45;&gt;Node4</title>
<g id="a_edge3_Node000002_Node000004"><a xlink:title=" ">
<path fill="none" stroke="#63b8ff" d="M359.38,-298.08C362.41,-287.56 365.86,-275.58 368.46,-266.54"/>
<polygon fill="#63b8ff" stroke="#63b8ff" points="355.95,-297.36 356.55,-307.94 362.68,-299.29 355.95,-297.36"/>
</a>
</g>
</g>
<!-- Node5 -->
<g id="Node000005" class="node">
<title>Node5</title>
<g id="a_Node000005"><a xlink:href="cranknicolson_8hpp.html" target="_top" xlink:title=" ">
<polygon fill="white" stroke="#666666" points="783,-272 652,-272 652,-231 783,-231 783,-272"/>
<text text-anchor="start" x="660" y="-260" font-family="Helvetica,sans-Serif" font-size="10.00">/__w/vulpes/vulpes</text>
<text text-anchor="start" x="660" y="-249" font-family="Helvetica,sans-Serif" font-size="10.00">/vulpes/timeintegration</text>
<text text-anchor="middle" x="717.5" y="-238" font-family="Helvetica,sans-Serif" font-size="10.00">/cranknicolson.hpp</text>
</a>
</g>
</g>
<!-- Node2&#45;&gt;Node5 -->
<g id="edge4_Node000002_Node000005" class="edge">
<title>Node2&#45;&gt;Node5</title>
<g id="a_edge4_Node000002_Node000005"><a xlink:title=" ">
<path fill="none" stroke="#63b8ff" d="M437.73,-307.68C515.97,-294.47 622.68,-276.28 642.5,-272 645.52,-271.35 648.61,-270.65 651.72,-269.93"/>
<polygon fill="#63b8ff" stroke="#63b8ff" points="437.13,-304.23 427.86,-309.34 438.3,-311.13 437.13,-304.23"/>
</a>
</g>
</g>
<!-- Node7 -->
<g id="Node000007" class="node">
<title>Node7</title>
<g id="a_Node000007"><a xlink:href="imex_8hpp.html" target="_top" xlink:title=" ">
<polygon fill="white" stroke="#666666" points="634,-272 503,-272 503,-231 634,-231 634,-272"/>
<text text-anchor="start" x="511" y="-260" font-family="Helvetica,sans-Serif" font-size="10.00">/__w/vulpes/vulpes</text>
<text text-anchor="start" x="511" y="-249" font-family="Helvetica,sans-Serif" font-size="10.00">/vulpes/timeintegration</text>
<text text-anchor="middle" x="568.5" y="-238" font-family="Helvetica,sans-Serif" font-size="10.00">/dae/imex.hpp</text>
</a>
</g>
</g>
<!-- Node2&#45;&gt;Node7 -->
<g id="edge6_Node000002_Node000007" class="edge">
<title>Node2&#45;&gt;Node7</title>
<g id="a_edge6_Node000002_Node000007"><a xlink:title=" ">
<path fill="none" stroke="#63b8ff" d="M405.92,-304.81C436.76,-294.89 475.65,-282.37 507.67,-272.07"/>
<polygon fill="#63b8ff" stroke="#63b8ff" points="404.66,-301.54 396.21,-307.94 406.8,-308.2 404.66,-301.54"/>
</a>
</g>
</g>
<!-- Node8 -->
<g id="Node000008" class="node">
<title>Node8</title>
<g id="a_Node000008"><a xlink:href="solverfkpp_8hpp.html" target="_top" xlink:title=" ">
<polygon fill="white" stroke="#666666" points="131,-272 0,-272 0,-231 131,-231 131,-272"/>
<text text-anchor="start" x="8" y="-260" font-family="Helvetica,sans-Serif" font-size="10.00">/__w/vulpes/vulpes</text>
<text text-anchor="start" x="8" y="-249" font-family="Helvetica,sans-Serif" font-size="10.00">/vulpes/timeintegration</text>
<text text-anchor="middle" x="65.5" y="-238" font-family="Helvetica,sans-Serif" font-size="10.00">/solverfkpp.hpp</text>
</a>
</g>
</g>
<!-- Node2&#45;&gt;Node8 -->
<g id="edge7_Node000002_Node000008" class="edge">
<title>Node2&#45;&gt;Node8</title>
<g id="a_edge7_Node000002_Node000008"><a xlink:title=" ">
<path fill="none" stroke="#63b8ff" d="M280.89,-305.7C239.5,-296.15 186.49,-283.7 139.5,-272 136.79,-271.33 134.03,-270.63 131.24,-269.92"/>
<polygon fill="#63b8ff" stroke="#63b8ff" points="280.35,-309.17 290.88,-308 281.92,-302.34 280.35,-309.17"/>
</a>
</g>
</g>
<!-- Node10 -->
<g id="Node000010" class="node">
<title>Node10</title>
<g id="a_Node000010"><a xlink:href="solvermfk_8hpp.html" target="_top" xlink:title=" ">
<polygon fill="white" stroke="#666666" points="280,-272 149,-272 149,-231 280,-231 280,-272"/>
<text text-anchor="start" x="157" y="-260" font-family="Helvetica,sans-Serif" font-size="10.00">/__w/vulpes/vulpes</text>
<text text-anchor="start" x="157" y="-249" font-family="Helvetica,sans-Serif" font-size="10.00">/vulpes/timeintegration</text>
<text text-anchor="middle" x="214.5" y="-238" font-family="Helvetica,sans-Serif" font-size="10.00">/solvermfk.hpp</text>
</a>
</g>
</g>
<!-- Node2&#45;&gt;Node10 -->
<g id="edge9_Node000002_Node000010" class="edge">
<title>Node2&#45;&gt;Node10</title>
<g id="a_edge9_Node000002_Node000010"><a xlink:title=" ">
<path fill="none" stroke="#63b8ff" d="M315.52,-303.38C296.31,-293.7 272.84,-281.88 253.37,-272.07"/>
<polygon fill="#63b8ff" stroke="#63b8ff" points="314.07,-306.56 324.57,-307.94 317.22,-300.31 314.07,-306.56"/>
</a>
</g>
</g>
<!-- Node6 -->
<g id="Node000006" class="node">
<title>Node6</title>
<g id="a_Node000006"><a xlink:href="cranknicolson_8cpp.html" target="_top" xlink:title=" ">
<polygon fill="white" stroke="#666666" points="783,-195 652,-195 652,-154 783,-154 783,-195"/>
<text text-anchor="start" x="660" y="-183" font-family="Helvetica,sans-Serif" font-size="10.00">/__w/vulpes/vulpes</text>
<text text-anchor="start" x="660" y="-172" font-family="Helvetica,sans-Serif" font-size="10.00">/vulpes/timeintegration</text>
<text text-anchor="middle" x="717.5" y="-161" font-family="Helvetica,sans-Serif" font-size="10.00">/cranknicolson.cpp</text>
</a>
</g>
</g>
<!-- Node5&#45;&gt;Node6 -->
<g id="edge5_Node000005_Node000006" class="edge">
<title>Node5&#45;&gt;Node6</title>
<g id="a_edge5_Node000005_Node000006"><a xlink:title=" ">
<path fill="none" stroke="#63b8ff" d="M717.5,-220.69C717.5,-212.08 717.5,-202.9 717.5,-195.07"/>
<polygon fill="#63b8ff" stroke="#63b8ff" points="714,-220.79 717.5,-230.79 721,-220.79 714,-220.79"/>
</a>
</g>
</g>
<!-- Node9 -->
<g id="Node000009" class="node">
<title>Node9</title>
<g id="a_Node000009"><a xlink:href="solverfkpp_8cpp.html" target="_top" xlink:title=" ">
<polygon fill="white" stroke="#666666" points="131,-195 0,-195 0,-154 131,-154 131,-195"/>
<text text-anchor="start" x="8" y="-183" font-family="Helvetica,sans-Serif" font-size="10.00">/__w/vulpes/vulpes</text>
<text text-anchor="start" x="8" y="-172" font-family="Helvetica,sans-Serif" font-size="10.00">/vulpes/timeintegration</text>
<text text-anchor="middle" x="65.5" y="-161" font-family="Helvetica,sans-Serif" font-size="10.00">/solverfkpp.cpp</text>
</a>
</g>
</g>
<!-- Node8&#45;&gt;Node9 -->
<g id="edge8_Node000008_Node000009" class="edge">
<title>Node8&#45;&gt;Node9</title>
<g id="a_edge8_Node000008_Node000009"><a xlink:title=" ">
<path fill="none" stroke="#63b8ff" d="M65.5,-220.69C65.5,-212.08 65.5,-202.9 65.5,-195.07"/>
<polygon fill="#63b8ff" stroke="#63b8ff" points="62,-220.79 65.5,-230.79 69,-220.79 62,-220.79"/>
</a>
</g>
</g>
<!-- Node11 -->
<g id="Node000011" class="node">
<title>Node11</title>
<g id="a_Node000011"><a xlink:href="solvermfk_8cpp.html" target="_top" xlink:title=" ">
<polygon fill="white" stroke="#666666" points="280,-195 149,-195 149,-154 280,-154 280,-195"/>
<text text-anchor="start" x="157" y="-183" font-family="Helvetica,sans-Serif" font-size="10.00">/__w/vulpes/vulpes</text>
<text text-anchor="start" x="157" y="-172" font-family="Helvetica,sans-Serif" font-size="10.00">/vulpes/timeintegration</text>
<text text-anchor="middle" x="214.5" y="-161" font-family="Helvetica,sans-Serif" font-size="10.00">/solvermfk.cpp</text>
</a>
</g>
</g>
<!-- Node10&#45;&gt;Node11 -->
<g id="edge10_Node000010_Node000011" class="edge">
<title>Node10&#45;&gt;Node11</title>
<g id="a_edge10_Node000010_Node000011"><a xlink:title=" ">
<path fill="none" stroke="#63b8ff" d="M214.5,-220.69C214.5,-212.08 214.5,-202.9 214.5,-195.07"/>
<polygon fill="#63b8ff" stroke="#63b8ff" points="211,-220.79 214.5,-230.79 218,-220.79 211,-220.79"/>
</a>
</g>
</g>
<!-- Node12&#45;&gt;Node2 -->
<g id="edge13_Node000012_Node000002" class="edge">
<title>Node12&#45;&gt;Node2</title>
<g id="a_edge13_Node000012_Node000002"><a xlink:title=" ">
<path fill="none" stroke="#63b8ff" d="M329.88,-370.23C335.1,-359.56 341.12,-347.27 345.63,-338.04"/>
<polygon fill="#63b8ff" stroke="#63b8ff" points="326.63,-368.91 325.38,-379.44 332.92,-371.99 326.63,-368.91"/>
</a>
</g>
</g>
<!-- Node12&#45;&gt;Node3 -->
<g id="edge12_Node000012_Node000003" class="edge">
<title>Node12&#45;&gt;Node3</title>
<g id="a_edge12_Node000012_Node000003"><a xlink:title=" ">
<path fill="none" stroke="#63b8ff" d="M388.93,-377.37C394.86,-376.17 400.78,-375.03 406.5,-374 591.44,-340.66 811.5,-440.43 811.5,-252.5 811.5,-252.5 811.5,-252.5 811.5,-173.5 811.5,-124.81 830.08,-69.9 841.25,-41.27"/>
<polygon fill="#63b8ff" stroke="#63b8ff" points="388.05,-373.98 378.97,-379.44 389.47,-380.84 388.05,-373.98"/>
</a>
</g>
</g>
<!-- Node12&#45;&gt;Node5 -->
<g id="edge15_Node000012_Node000005" class="edge">
<title>Node12&#45;&gt;Node5</title>
<g id="a_edge15_Node000012_Node000005"><a xlink:title=" ">
<path fill="none" stroke="#63b8ff" d="M389.99,-377.3C395.57,-376.14 401.12,-375.03 406.5,-374 505.11,-355.13 539.79,-383.07 629.5,-338 660.34,-322.51 687.38,-292.39 703.09,-272.35"/>
<polygon fill="#63b8ff" stroke="#63b8ff" points="389.02,-373.92 379.95,-379.41 390.46,-380.77 389.02,-373.92"/>
</a>
</g>
</g>
<!-- Node12&#45;&gt;Node7 -->
<g id="edge16_Node000012_Node000007" class="edge">
<title>Node12&#45;&gt;Node7</title>
<g id="a_edge16_Node000012_Node000007"><a xlink:title=" ">
<path fill="none" stroke="#63b8ff" d="M390.3,-377.32C395.78,-376.16 401.22,-375.05 406.5,-374 451.87,-364.99 581.76,-373.42 611.5,-338 628.27,-318.02 608.3,-290.39 590.34,-272.01"/>
<polygon fill="#63b8ff" stroke="#63b8ff" points="389.5,-373.91 380.45,-379.41 390.96,-380.75 389.5,-373.91"/>
</a>
</g>
</g>
<!-- Node12&#45;&gt;Node8 -->
<g id="edge17_Node000012_Node000008" class="edge">
<title>Node12&#45;&gt;Node8</title>
<g id="a_edge17_Node000012_Node000008"><a xlink:title=" ">
<path fill="none" stroke="#63b8ff" d="M284.54,-374.58C236.54,-347.82 149.26,-299.18 100.62,-272.08"/>
<polygon fill="#63b8ff" stroke="#63b8ff" points="282.88,-377.65 293.32,-379.46 286.29,-371.54 282.88,-377.65"/>
</a>
</g>
</g>
<!-- Node12&#45;&gt;Node10 -->
<g id="edge18_Node000012_Node000010" class="edge">
<title>Node12&#45;&gt;Node10</title>
<g id="a_edge18_Node000012_Node000010"><a xlink:title=" ">
<path fill="none" stroke="#63b8ff" d="M297.56,-371.99C288.25,-362 277.4,-349.75 268.5,-338 252.17,-316.45 235.95,-289.89 225.61,-272.14"/>
<polygon fill="#63b8ff" stroke="#63b8ff" points="295.22,-374.61 304.64,-379.47 300.31,-369.8 295.22,-374.61"/>
</a>
</g>
</g>
<!-- Node13 -->
<g id="Node000013" class="node">
<title>Node13</title>
<g id="a_Node000013"><a xlink:href="sparse__matrix_8cpp.html" target="_top" xlink:title=" ">
<polygon fill="white" stroke="#666666" points="603,-338 446,-338 446,-308 603,-308 603,-338"/>
<text text-anchor="start" x="454" y="-326" font-family="Helvetica,sans-Serif" font-size="10.00">/__w/vulpes/vulpes</text>
<text text-anchor="middle" x="524.5" y="-315" font-family="Helvetica,sans-Serif" font-size="10.00">/vulpes/la/sparse_matrix.cpp</text>
</a>
</g>
</g>
<!-- Node12&#45;&gt;Node13 -->
<g id="edge14_Node000012_Node000013" class="edge">
<title>Node12&#45;&gt;Node13</title>
<g id="a_edge14_Node000012_Node000013"><a xlink:title=" ">
<path fill="none" stroke="#63b8ff" d="M369.72,-376.22C404.62,-364.45 450.22,-349.06 482.87,-338.04"/>
<polygon fill="#63b8ff" stroke="#63b8ff" points="368.54,-372.92 360.19,-379.44 370.78,-379.56 368.54,-372.92"/>
</a>
</g>
</g>
<!-- Node15&#45;&gt;Node2 -->
<g id="edge35_Node000015_Node000002" class="edge">
<title>Node15&#45;&gt;Node2</title>
<g id="a_edge35_Node000015_Node000002"><a xlink:title=" ">
<path fill="none" stroke="#63b8ff" d="M387.32,-459.08C328.29,-452.42 249.94,-439.21 230.5,-415 219.09,-400.79 220.35,-389.13 230.5,-374 242.04,-356.8 260.67,-345.51 279.93,-338.1"/>
<polygon fill="#63b8ff" stroke="#63b8ff" points="387.04,-462.57 397.36,-460.17 387.8,-455.61 387.04,-462.57"/>
</a>
</g>
</g>
<!-- Node15&#45;&gt;Node3 -->
<g id="edge21_Node000015_Node000003" class="edge">
<title>Node15&#45;&gt;Node3</title>
<g id="a_edge21_Node000015_Node000003"><a xlink:title=" ">
<path fill="none" stroke="#63b8ff" d="M525.74,-450.9C683.88,-424.38 849.5,-475.9 849.5,-324 849.5,-324 849.5,-324 849.5,-173.5 849.5,-126 849.5,-70.15 849.5,-41.18"/>
<polygon fill="#63b8ff" stroke="#63b8ff" points="525.05,-447.47 515.82,-452.67 526.28,-454.36 525.05,-447.47"/>
</a>
</g>
</g>
<!-- Node15&#45;&gt;Node5 -->
<g id="edge39_Node000015_Node000005" class="edge">
<title>Node15&#45;&gt;Node5</title>
<g id="a_edge39_Node000015_Node000005"><a xlink:title=" ">
<path fill="none" stroke="#63b8ff" d="M525.72,-450.97C609.74,-437.66 655.81,-475.51 708.5,-415 743.48,-374.83 731.82,-305.71 723.25,-272.06"/>
<polygon fill="#63b8ff" stroke="#63b8ff" points="525.05,-447.54 515.83,-452.75 526.29,-454.43 525.05,-447.54"/>
</a>
</g>
</g>
<!-- Node15&#45;&gt;Node7 -->
<g id="edge40_Node000015_Node000007" class="edge">
<title>Node15&#45;&gt;Node7</title>
<g id="a_edge40_Node000015_Node000007"><a xlink:title=" ">
<path fill="none" stroke="#63b8ff" d="M525.61,-450.64C593.5,-436.45 687.18,-416.63 688.5,-415 728.93,-364.93 649.74,-303.15 601.65,-272.17"/>
<polygon fill="#63b8ff" stroke="#63b8ff" points="524.86,-447.22 515.79,-452.69 526.29,-454.07 524.86,-447.22"/>
</a>
</g>
</g>
<!-- Node15&#45;&gt;Node8 -->
<g id="edge41_Node000015_Node000008" class="edge">
<title>Node15&#45;&gt;Node8</title>
<g id="a_edge41_Node000015_Node000008"><a xlink:title=" ">
<path fill="none" stroke="#63b8ff" d="M387.37,-464.49C332.14,-461.21 254.64,-449.94 196.5,-415 137.49,-379.53 93.91,-307.2 75.36,-272.26"/>
<polygon fill="#63b8ff" stroke="#63b8ff" points="387.24,-467.99 397.41,-465.02 387.61,-461 387.24,-467.99"/>
</a>
</g>
</g>
<!-- Node15&#45;&gt;Node10 -->
<g id="edge42_Node000015_Node000010" class="edge">
<title>Node15&#45;&gt;Node10</title>
<g id="a_edge42_Node000015_Node000010"><a xlink:title=" ">
<path fill="none" stroke="#63b8ff" d="M387.06,-459.81C324.68,-453.55 239.74,-440.51 218.5,-415 184.56,-374.22 198.31,-305.7 208.01,-272.17"/>
<polygon fill="#63b8ff" stroke="#63b8ff" points="386.96,-463.32 397.25,-460.79 387.63,-456.35 386.96,-463.32"/>
</a>
</g>
</g>
<!-- Node15&#45;&gt;Node12 -->
<g id="edge36_Node000015_Node000012" class="edge">
<title>Node15&#45;&gt;Node12</title>
<g id="a_edge36_Node000015_Node000012"><a xlink:title=" ">
<path fill="none" stroke="#63b8ff" d="M419.46,-446.34C396.47,-434.77 367.42,-420.14 346.38,-409.54"/>
<polygon fill="#63b8ff" stroke="#63b8ff" points="418.07,-449.56 428.57,-450.94 421.22,-443.31 418.07,-449.56"/>
</a>
</g>
</g>
<!-- Node16 -->
<g id="Node000016" class="node">
<title>Node16</title>
<g id="a_Node000016"><a xlink:href="fe__expr__func_8hpp.html" target="_top" xlink:title=" ">
<polygon fill="white" stroke="#666666" points="1023,-415 882,-415 882,-374 1023,-374 1023,-415"/>
<text text-anchor="start" x="890" y="-403" font-family="Helvetica,sans-Serif" font-size="10.00">/__w/vulpes/vulpes</text>
<text text-anchor="start" x="890" y="-392" font-family="Helvetica,sans-Serif" font-size="10.00">/vulpes/fe/fe_expressions</text>
<text text-anchor="middle" x="952.5" y="-381" font-family="Helvetica,sans-Serif" font-size="10.00">/fe_expr_func.hpp</text>
</a>
</g>
</g>
<!-- Node15&#45;&gt;Node16 -->
<g id="edge22_Node000015_Node000016" class="edge">
<title>Node15&#45;&gt;Node16</title>
<g id="a_edge22_Node000015_Node000016"><a xlink:title=" ">
<path fill="none" stroke="#63b8ff" d="M525.83,-450.9C675.97,-428.18 717.15,-438.73 863.5,-415 869.43,-414.04 875.57,-412.93 881.71,-411.75"/>
<polygon fill="#63b8ff" stroke="#63b8ff" points="525.13,-447.46 515.78,-452.44 526.19,-454.38 525.13,-447.46"/>
</a>
</g>
</g>
<!-- Node25 -->
<g id="Node000025" class="node">
<title>Node25</title>
<g id="a_Node000025"><a xlink:href="vector_8cpp.html" target="_top" xlink:title=" ">
<polygon fill="white" stroke="#666666" points="533,-409.5 416,-409.5 416,-379.5 533,-379.5 533,-409.5"/>
<text text-anchor="start" x="424" y="-397.5" font-family="Helvetica,sans-Serif" font-size="10.00">/__w/vulpes/vulpes</text>
<text text-anchor="middle" x="474.5" y="-386.5" font-family="Helvetica,sans-Serif" font-size="10.00">/vulpes/la/vector.cpp</text>
</a>
</g>
</g>
<!-- Node15&#45;&gt;Node25 -->
<g id="edge37_Node000015_Node000025" class="edge">
<title>Node15&#45;&gt;Node25</title>
<g id="a_edge37_Node000015_Node000025"><a xlink:title=" ">
<path fill="none" stroke="#63b8ff" d="M462.7,-441.08C465.42,-430.56 468.52,-418.58 470.86,-409.54"/>
<polygon fill="#63b8ff" stroke="#63b8ff" points="459.26,-440.38 460.14,-450.94 466.04,-442.13 459.26,-440.38"/>
</a>
</g>
</g>
<!-- Node26 -->
<g id="Node000026" class="node">
<title>Node26</title>
<g id="a_Node000026"><a xlink:href="project__solution_8hpp.html" target="_top" xlink:title=" ">
<polygon fill="white" stroke="#666666" points="679.5,-415 551.5,-415 551.5,-374 679.5,-374 679.5,-415"/>
<text text-anchor="start" x="559.5" y="-403" font-family="Helvetica,sans-Serif" font-size="10.00">/__w/vulpes/vulpes</text>
<text text-anchor="start" x="559.5" y="-392" font-family="Helvetica,sans-Serif" font-size="10.00">/vulpes/postprocessing</text>
<text text-anchor="middle" x="615.5" y="-381" font-family="Helvetica,sans-Serif" font-size="10.00">/project_solution.hpp</text>
</a>
</g>
</g>
<!-- Node15&#45;&gt;Node26 -->
<g id="edge38_Node000015_Node000026" class="edge">
<title>Node15&#45;&gt;Node26</title>
<g id="a_edge38_Node000015_Node000026"><a xlink:title=" ">
<path fill="none" stroke="#63b8ff" d="M497.9,-446.9C520.26,-437.13 547.87,-425.06 570.72,-415.07"/>
<polygon fill="#63b8ff" stroke="#63b8ff" points="496.44,-443.72 488.68,-450.94 499.24,-450.14 496.44,-443.72"/>
</a>
</g>
</g>
<!-- Node17 -->
<g id="Node000017" class="node">
<title>Node17</title>
<g id="a_Node000017"><a xlink:href="fe__expression_8hpp.html" target="_top" xlink:title=" ">
<polygon fill="white" stroke="#666666" points="1035,-338 878,-338 878,-308 1035,-308 1035,-338"/>
<text text-anchor="start" x="886" y="-326" font-family="Helvetica,sans-Serif" font-size="10.00">/__w/vulpes/vulpes</text>
<text text-anchor="middle" x="956.5" y="-315" font-family="Helvetica,sans-Serif" font-size="10.00">/vulpes/fe/fe_expression.hpp</text>
</a>
</g>
</g>
<!-- Node16&#45;&gt;Node17 -->
<g id="edge23_Node000016_Node000017" class="edge">
<title>Node16&#45;&gt;Node17</title>
<g id="a_edge23_Node000016_Node000017"><a xlink:title=" ">
<path fill="none" stroke="#63b8ff" d="M954.22,-363.66C954.73,-354.76 955.27,-345.42 955.69,-338.04"/>
<polygon fill="#63b8ff" stroke="#63b8ff" points="950.72,-363.59 953.64,-373.77 957.7,-363.99 950.72,-363.59"/>
</a>
</g>
</g>
<!-- Node17&#45;&gt;Node3 -->
<g id="edge24_Node000017_Node000003" class="edge">
<title>Node17&#45;&gt;Node3</title>
<g id="a_edge24_Node000017_Node000003"><a xlink:title=" ">
<path fill="none" stroke="#63b8ff" d="M948.03,-298.22C927.52,-240.61 875.44,-94.36 856.51,-41.2"/>
<polygon fill="#63b8ff" stroke="#63b8ff" points="944.83,-299.66 951.48,-307.91 951.43,-297.31 944.83,-299.66"/>
</a>
</g>
</g>
<!-- Node18 -->
<g id="Node000018" class="node">
<title>Node18</title>
<g id="a_Node000018"><a xlink:href="integrator__base_8hpp.html" target="_top" xlink:title=" ">
<polygon fill="white" stroke="#666666" points="1122,-195 969,-195 969,-154 1122,-154 1122,-195"/>
<text text-anchor="start" x="977" y="-183" font-family="Helvetica,sans-Serif" font-size="10.00">/__w/vulpes/vulpes</text>
<text text-anchor="start" x="977" y="-172" font-family="Helvetica,sans-Serif" font-size="10.00">/vulpes/assemble/integrator</text>
<text text-anchor="middle" x="1045.5" y="-161" font-family="Helvetica,sans-Serif" font-size="10.00">_base.hpp</text>
</a>
</g>
</g>
<!-- Node17&#45;&gt;Node18 -->
<g id="edge25_Node000017_Node000018" class="edge">
<title>Node17&#45;&gt;Node18</title>
<g id="a_edge25_Node000017_Node000018"><a xlink:title=" ">
<path fill="none" stroke="#63b8ff" d="M951.84,-297.86C949.38,-278.5 948.92,-251.31 960.5,-231 969.23,-215.69 984.11,-203.87 999,-195.15"/>
<polygon fill="#63b8ff" stroke="#63b8ff" points="948.41,-298.62 953.39,-307.98 955.33,-297.56 948.41,-298.62"/>
</a>
</g>
</g>
<!-- Node23 -->
<g id="Node000023" class="node">
<title>Node23</title>
<g id="a_Node000023"><a xlink:href="integrator__traits_8hpp.html" target="_top" xlink:title=" ">
<polygon fill="white" stroke="#666666" points="1122,-272 969,-272 969,-231 1122,-231 1122,-272"/>
<text text-anchor="start" x="977" y="-260" font-family="Helvetica,sans-Serif" font-size="10.00">/__w/vulpes/vulpes</text>
<text text-anchor="start" x="977" y="-249" font-family="Helvetica,sans-Serif" font-size="10.00">/vulpes/assemble/integrator</text>
<text text-anchor="middle" x="1045.5" y="-238" font-family="Helvetica,sans-Serif" font-size="10.00">_traits.hpp</text>
</a>
</g>
</g>
<!-- Node17&#45;&gt;Node23 -->
<g id="edge32_Node000017_Node000023" class="edge">
<title>Node17&#45;&gt;Node23</title>
<g id="a_edge32_Node000017_Node000023"><a xlink:title=" ">
<path fill="none" stroke="#63b8ff" d="M982.4,-301.77C994.38,-292.42 1008.56,-281.35 1020.43,-272.07"/>
<polygon fill="#63b8ff" stroke="#63b8ff" points="980.24,-299.02 974.51,-307.94 984.55,-304.54 980.24,-299.02"/>
</a>
</g>
</g>
<!-- Node24 -->
<g id="Node000024" class="node">
<title>Node24</title>
<g id="a_Node000024"><a xlink:href="fe__vem_8hpp.html" target="_top" xlink:title=" ">
<polygon fill="white" stroke="#666666" points="1256.5,-272 1140.5,-272 1140.5,-231 1256.5,-231 1256.5,-272"/>
<text text-anchor="start" x="1148.5" y="-260" font-family="Helvetica,sans-Serif" font-size="10.00">/__w/vulpes/vulpes</text>
<text text-anchor="start" x="1148.5" y="-249" font-family="Helvetica,sans-Serif" font-size="10.00">/vulpes/fe/fe_spaces</text>
<text text-anchor="middle" x="1198.5" y="-238" font-family="Helvetica,sans-Serif" font-size="10.00">/fe_vem.hpp</text>
</a>
</g>
</g>
<!-- Node17&#45;&gt;Node24 -->
<g id="edge34_Node000017_Node000024" class="edge">
<title>Node17&#45;&gt;Node24</title>
<g id="a_edge34_Node000017_Node000024"><a xlink:title=" ">
<path fill="none" stroke="#63b8ff" d="M1015.68,-305.17C1049.59,-295.51 1092.95,-283.12 1131.5,-272 1134.41,-271.16 1137.39,-270.3 1140.4,-269.43"/>
<polygon fill="#63b8ff" stroke="#63b8ff" points="1014.58,-301.84 1005.93,-307.95 1016.5,-308.57 1014.58,-301.84"/>
</a>
</g>
</g>
<!-- Node19 -->
<g id="Node000019" class="node">
<title>Node19</title>
<g id="a_Node000019"><a xlink:href="integrator__gauss_8hpp.html" target="_top" xlink:title=" ">
<polygon fill="white" stroke="#666666" points="1411,-118 1258,-118 1258,-77 1411,-77 1411,-118"/>
<text text-anchor="start" x="1266" y="-106" font-family="Helvetica,sans-Serif" font-size="10.00">/__w/vulpes/vulpes</text>
<text text-anchor="start" x="1266" y="-95" font-family="Helvetica,sans-Serif" font-size="10.00">/vulpes/assemble/integrator</text>
<text text-anchor="middle" x="1334.5" y="-84" font-family="Helvetica,sans-Serif" font-size="10.00">_gauss.hpp</text>
</a>
</g>
</g>
<!-- Node18&#45;&gt;Node19 -->
<g id="edge26_Node000018_Node000019" class="edge">
<title>Node18&#45;&gt;Node19</title>
<g id="a_edge26_Node000018_Node000019"><a xlink:title=" ">
<path fill="none" stroke="#63b8ff" d="M1130.6,-151.42C1171.37,-140.84 1219.78,-128.27 1259.2,-118.04"/>
<polygon fill="#63b8ff" stroke="#63b8ff" points="1129.48,-148.09 1120.68,-153.99 1131.24,-154.87 1129.48,-148.09"/>
</a>
</g>
</g>
<!-- Node20 -->
<g id="Node000020" class="node">
<title>Node20</title>
<g id="a_Node000020"><a xlink:href="integrator__qfree_8hpp.html" target="_top" xlink:title=" ">
<polygon fill="white" stroke="#666666" points="1240,-118 1087,-118 1087,-77 1240,-77 1240,-118"/>
<text text-anchor="start" x="1095" y="-106" font-family="Helvetica,sans-Serif" font-size="10.00">/__w/vulpes/vulpes</text>
<text text-anchor="start" x="1095" y="-95" font-family="Helvetica,sans-Serif" font-size="10.00">/vulpes/assemble/integrator</text>
<text text-anchor="middle" x="1163.5" y="-84" font-family="Helvetica,sans-Serif" font-size="10.00">_qfree.hpp</text>
</a>
</g>
</g>
<!-- Node18&#45;&gt;Node20 -->
<g id="edge27_Node000018_Node000020" class="edge">
<title>Node18&#45;&gt;Node20</title>
<g id="a_edge27_Node000018_Node000020"><a xlink:title=" ">
<path fill="none" stroke="#63b8ff" d="M1085.04,-148.37C1100.52,-138.53 1118.01,-127.41 1132.55,-118.17"/>
<polygon fill="#63b8ff" stroke="#63b8ff" points="1082.76,-145.67 1076.2,-153.99 1086.51,-151.58 1082.76,-145.67"/>
</a>
</g>
</g>
<!-- Node22 -->
<g id="Node000022" class="node">
<title>Node22</title>
<g id="a_Node000022"><a xlink:href="integrator__simplexify_8hpp.html" target="_top" xlink:title=" ">
<polygon fill="white" stroke="#666666" points="1069,-118 916,-118 916,-77 1069,-77 1069,-118"/>
<text text-anchor="start" x="924" y="-106" font-family="Helvetica,sans-Serif" font-size="10.00">/__w/vulpes/vulpes</text>
<text text-anchor="start" x="924" y="-95" font-family="Helvetica,sans-Serif" font-size="10.00">/vulpes/assemble/integrator</text>
<text text-anchor="middle" x="992.5" y="-84" font-family="Helvetica,sans-Serif" font-size="10.00">_simplexify.hpp</text>
</a>
</g>
</g>
<!-- Node18&#45;&gt;Node22 -->
<g id="edge29_Node000018_Node000022" class="edge">
<title>Node18&#45;&gt;Node22</title>
<g id="a_edge29_Node000018_Node000022"><a xlink:title=" ">
<path fill="none" stroke="#63b8ff" d="M1025.64,-145.39C1019.21,-136.3 1012.22,-126.41 1006.33,-118.07"/>
<polygon fill="#63b8ff" stroke="#63b8ff" points="1022.95,-147.65 1031.57,-153.79 1028.66,-143.61 1022.95,-147.65"/>
</a>
</g>
</g>
<!-- Node21 -->
<g id="Node000021" class="node">
<title>Node21</title>
<g id="a_Node000021"><a xlink:href="integrator__vem_8hpp.html" target="_top" xlink:title=" ">
<polygon fill="white" stroke="#666666" points="1159,-41 1006,-41 1006,0 1159,0 1159,-41"/>
<text text-anchor="start" x="1014" y="-29" font-family="Helvetica,sans-Serif" font-size="10.00">/__w/vulpes/vulpes</text>
<text text-anchor="start" x="1014" y="-18" font-family="Helvetica,sans-Serif" font-size="10.00">/vulpes/assemble/integrator</text>
<text text-anchor="middle" x="1082.5" y="-7" font-family="Helvetica,sans-Serif" font-size="10.00">_vem.hpp</text>
</a>
</g>
</g>
<!-- Node20&#45;&gt;Node21 -->
<g id="edge28_Node000020_Node000021" class="edge">
<title>Node20&#45;&gt;Node21</title>
<g id="a_edge28_Node000020_Node000021"><a xlink:title=" ">
<path fill="none" stroke="#63b8ff" d="M1134.65,-69.79C1124.42,-60.32 1113.11,-49.84 1103.64,-41.07"/>
<polygon fill="#63b8ff" stroke="#63b8ff" points="1132.5,-72.57 1142.22,-76.79 1137.26,-67.43 1132.5,-72.57"/>
</a>
</g>
</g>
<!-- Node22&#45;&gt;Node3 -->
<g id="edge30_Node000022_Node000003" class="edge">
<title>Node22&#45;&gt;Node3</title>
<g id="a_edge30_Node000022_Node000003"><a xlink:title=" ">
<path fill="none" stroke="#63b8ff" d="M946.42,-72.33C927.21,-62.26 905.2,-50.71 887.01,-41.17"/>
<polygon fill="#63b8ff" stroke="#63b8ff" points="944.82,-75.45 955.3,-76.99 948.07,-69.25 944.82,-75.45"/>
</a>
</g>
</g>
<!-- Node22&#45;&gt;Node21 -->
<g id="edge31_Node000022_Node000021" class="edge">
<title>Node22&#45;&gt;Node21</title>
<g id="a_edge31_Node000022_Node000021"><a xlink:title=" ">
<path fill="none" stroke="#63b8ff" d="M1023.88,-70.35C1035.42,-60.73 1048.28,-50.01 1059.01,-41.07"/>
<polygon fill="#63b8ff" stroke="#63b8ff" points="1021.59,-67.7 1016.15,-76.79 1026.07,-73.08 1021.59,-67.7"/>
</a>
</g>
</g>
<!-- Node23&#45;&gt;Node18 -->
<g id="edge33_Node000023_Node000018" class="edge">
<title>Node23&#45;&gt;Node18</title>
<g id="a_edge33_Node000023_Node000018"><a xlink:title=" ">
<path fill="none" stroke="#63b8ff" d="M1045.5,-220.69C1045.5,-212.08 1045.5,-202.9 1045.5,-195.07"/>
<polygon fill="#63b8ff" stroke="#63b8ff" points="1042,-220.79 1045.5,-230.79 1049,-220.79 1042,-220.79"/>
</a>
</g>
</g>
</g>
</svg>

<g id="navigator" transform="translate(0 0)" fill="#404254">
  <rect fill="#f2f5e9" fill-opacity="0.5" stroke="#606060" stroke-width=".5" x="0" y="0" width="60" height="60"/>
  <use id="zoomplus" xlink:href="#zoomPlus" x="17" y="9" onmousedown="handleZoom(evt,'in')"/>
  <use id="zoomminus" xlink:href="#zoomMin" x="42" y="9" onmousedown="handleZoom(evt,'out')"/>
  <use id="reset" xlink:href="#resetDef" x="30" y="36" onmousedown="handleReset()"/>
   <use id="arrowup" xlink:href="#arrowUp" x="0" y="0" onmousedown="handlePan(0,-1)"/>
  <use id="arrowright" xlink:href="#arrowRight" x="0" y="0" onmousedown="handlePan(1,0)"/>
  <use id="arrowdown" xlink:href="#arrowDown" x="0" y="0" onmousedown="handlePan(0,1)"/>
  <use id="arrowleft" xlink:href="#arrowLeft" x="0" y="0" onmousedown="handlePan(-1,0)"/>
</g>
<svg viewBox="0 0 15 15" width="100%" height="30px" preserveAspectRatio="xMaxYMin meet">
 <g id="arrow_out" transform="scale(0.3 0.3)">
  <a xlink:href="petsc__utils_8hpp__dep__incl_org.svg" target="_base">
   <rect id="button" ry="5" rx="5" y="6" x="6" height="38" width="38"
        fill="#f2f5e9" fill-opacity="0.5" stroke="#606060" stroke-width="1.0"/>
   <path id="arrow"
     d="M 11.500037,31.436501 C 11.940474,20.09759 22.043105,11.32322 32.158766,21.979434 L 37.068811,17.246167 C 37.068811,17.246167 37.088388,32 37.088388,32 L 22.160133,31.978069 C 22.160133,31.978069 26.997745,27.140456 26.997745,27.140456 C 18.528582,18.264221 13.291696,25.230495 11.500037,31.436501 z"
     style="fill:#404040;"/>
  </a>
 </g>
</svg>

<style type='text/css'>
<![CDATA[
[data-mouse-over-selected='false'] { opacity: 0.7; }
[data-mouse-over-selected='true']  { opacity: 1.0; }
]]>
</style>
<script type="application/ecmascript"><![CDATA[
document.addEventListener('DOMContentLoaded', (event) => {
  highlightEdges();
  highlightAdjacentNodes();
});
]]></script>
</svg>
