<?xml version="1.0" encoding="UTF-8" standalone="no"?>
<!DOCTYPE svg PUBLIC "-//W3C//DTD SVG 1.1//EN"
 "http://www.w3.org/Graphics/SVG/1.1/DTD/svg11.dtd">
<!-- Generated by graphviz version 12.2.1 (20241206.2353)
 -->
<!-- Title: /Users/ilariomazzieri/Desktop/vulpes/vulpes/la/petsc_utils.hpp Pages: 1 -->
<!--zoomable 605 -->

<svg id="main" version="1.1" xmlns="http://www.w3.org/2000/svg" xmlns:xlink="http://www.w3.org/1999/xlink" xml:space="preserve" onload="init(evt)">
<style type="text/css"><![CDATA[
.node, .edge {opacity: 0.7;}
.node.selected, .edge.selected {opacity: 1;}
.edge:hover path { stroke: red; }
.edge:hover polygon { stroke: red; fill: red; }
]]></style>

<defs>
  <circle id="rim" cx="0" cy="0" r="7"/>
  <circle id="rim2" cx="0" cy="0" r="3.5"/>
  <g id="zoomPlus">
    <use xlink:href="#rim" fill="#404040"><set attributeName="fill" to="#808080" begin="zoomplus.mouseover" end="zoomplus.mouseout"/></use>
    <path d="M-4,0h8M0,-4v8" fill="none" stroke="white" stroke-width="1.5" pointer-events="none"/>
  </g>
  <g id="zoomMin">
    <use xlink:href="#rim" fill="#404040"><set attributeName="fill" to="#808080" begin="zoomminus.mouseover" end="zoomminus.mouseout"/></use>
    <path d="M-4,0h8" fill="none" stroke="white" stroke-width="1.5" pointer-events="none"/>
  </g>
  <g id="arrowUp" transform="translate(30 24)">
    <use xlink:href="#rim"/>
    <path pointer-events="none" fill="none" stroke="white" stroke-width="1.5" d="M0,-3.0v7 M-2.5,-0.5L0,-3.0L2.5,-0.5"/>
  </g>
  <g id="arrowRight" transform="rotate(90) translate(36 -43)">
    <use xlink:href="#rim"/>
    <path pointer-events="none" fill="none" stroke="white" stroke-width="1.5" d="M0,-3.0v7 M-2.5,-0.5L0,-3.0L2.5,-0.5"/>
  </g>
  <g id="arrowDown" transform="rotate(180) translate(-30 -48)">
    <use xlink:href="#rim"/>
    <path pointer-events="none" fill="none" stroke="white" stroke-width="1.5" d="M0,-3.0v7 M-2.5,-0.5L0,-3.0L2.5,-0.5"/>
  </g>
  <g id="arrowLeft" transform="rotate(270) translate(-36 17)">
    <use xlink:href="#rim"/>
    <path pointer-events="none" fill="none" stroke="white" stroke-width="1.5" d="M0,-3.0v7 M-2.5,-0.5L0,-3.0L2.5,-0.5"/>
  </g>
  <g id="resetDef">
    <use xlink:href="#rim2" fill="#404040"><set attributeName="fill" to="#808080" begin="reset.mouseover" end="reset.mouseout"/></use>
  </g>
</defs>
<script type="application/ecmascript">
var viewWidth = 1733;
var viewHeight = 605;
var sectionId = 'dynsection-1';
</script>
<script type="application/ecmascript" xlink:href="svg.min.js"/>
<svg id="graph" class="graph">
<g id="viewport">
<title>/Users/ilariomazzieri/Desktop/vulpes/vulpes/la/petsc_utils.hpp</title>
<!-- Node1 -->
<g id="Node000001" class="node">
<title>Node1</title>
<g id="a_Node000001"><a xlink:title=" ">
<polygon fill="#999999" stroke="#666666" points="625.38,-597.25 506.62,-597.25 506.62,-555.5 625.38,-555.5 625.38,-597.25"/>
<text text-anchor="start" x="514.62" y="-583.75" font-family="Helvetica,sans-Serif" font-size="10.00">/Users/ilariomazzieri</text>
<text text-anchor="start" x="514.62" y="-572.5" font-family="Helvetica,sans-Serif" font-size="10.00">/Desktop/vulpes/vulpes</text>
<text text-anchor="middle" x="566" y="-561.25" font-family="Helvetica,sans-Serif" font-size="10.00">/la/petsc_utils.hpp</text>
</a>
</g>
</g>
<!-- Node2 -->
<g id="Node000002" class="node">
<title>Node2</title>
<g id="a_Node000002"><a xlink:href="linear__solver_8hpp.html" target="_top" xlink:title=" ">
<polygon fill="white" stroke="#666666" points="407.38,-352.75 288.62,-352.75 288.62,-311 407.38,-311 407.38,-352.75"/>
<text text-anchor="start" x="296.62" y="-339.25" font-family="Helvetica,sans-Serif" font-size="10.00">/Users/ilariomazzieri</text>
<text text-anchor="start" x="296.62" y="-328" font-family="Helvetica,sans-Serif" font-size="10.00">/Desktop/vulpes/vulpes</text>
<text text-anchor="middle" x="348" y="-316.75" font-family="Helvetica,sans-Serif" font-size="10.00">/la/linear_solver.hpp</text>
</a>
</g>
</g>
<!-- Node1&#45;&gt;Node2 -->
<g id="edge1_Node000001_Node000002" class="edge">
<title>Node1&#45;&gt;Node2</title>
<g id="a_edge1_Node000001_Node000002"><a xlink:title=" ">
<path fill="none" stroke="#63b8ff" d="M519.19,-549.48C480.24,-525.87 425.75,-487.71 391,-441.75 370.41,-414.52 358.32,-376.14 352.45,-352.97"/>
<polygon fill="#63b8ff" stroke="#63b8ff" points="517.05,-552.28 527.43,-554.4 520.63,-546.27 517.05,-552.28"/>
</a>
</g>
</g>
<!-- Node12 -->
<g id="Node000012" class="node">
<title>Node12</title>
<g id="a_Node000012"><a xlink:href="sparse__matrix_8hpp.html" target="_top" xlink:title=" ">
<polygon fill="white" stroke="#666666" points="582.38,-436.12 463.62,-436.12 463.62,-394.38 582.38,-394.38 582.38,-436.12"/>
<text text-anchor="start" x="471.62" y="-422.62" font-family="Helvetica,sans-Serif" font-size="10.00">/Users/ilariomazzieri</text>
<text text-anchor="start" x="471.62" y="-411.38" font-family="Helvetica,sans-Serif" font-size="10.00">/Desktop/vulpes/vulpes</text>
<text text-anchor="middle" x="523" y="-400.12" font-family="Helvetica,sans-Serif" font-size="10.00">/la/sparse_matrix.hpp</text>
</a>
</g>
</g>
<!-- Node1&#45;&gt;Node12 -->
<g id="edge11_Node000001_Node000012" class="edge">
<title>Node1&#45;&gt;Node12</title>
<g id="a_edge11_Node000001_Node000012"><a xlink:title=" ">
<path fill="none" stroke="#63b8ff" d="M557.6,-544.3C548.99,-512.41 535.83,-463.72 528.47,-436.49"/>
<polygon fill="#63b8ff" stroke="#63b8ff" points="554.17,-545.02 560.16,-553.76 560.93,-543.19 554.17,-545.02"/>
</a>
</g>
</g>
<!-- Node16 -->
<g id="Node000016" class="node">
<title>Node16</title>
<g id="a_Node000016"><a xlink:href="la_2tensor_8hpp.html" target="_top" xlink:title=" ">
<polygon fill="white" stroke="#666666" points="825.38,-519.5 706.62,-519.5 706.62,-477.75 825.38,-477.75 825.38,-519.5"/>
<text text-anchor="start" x="714.62" y="-506" font-family="Helvetica,sans-Serif" font-size="10.00">/Users/ilariomazzieri</text>
<text text-anchor="start" x="714.62" y="-494.75" font-family="Helvetica,sans-Serif" font-size="10.00">/Desktop/vulpes/vulpes</text>
<text text-anchor="middle" x="766" y="-483.5" font-family="Helvetica,sans-Serif" font-size="10.00">/la/tensor.hpp</text>
</a>
</g>
</g>
<!-- Node1&#45;&gt;Node16 -->
<g id="edge23_Node000001_Node000016" class="edge">
<title>Node1&#45;&gt;Node16</title>
<g id="a_edge23_Node000001_Node000016"><a xlink:title=" ">
<path fill="none" stroke="#63b8ff" d="M630.29,-551.03C656.73,-541.01 687.02,-529.54 712.26,-519.98"/>
<polygon fill="#63b8ff" stroke="#63b8ff" points="629.12,-547.72 621.01,-554.54 631.6,-554.27 629.12,-547.72"/>
</a>
</g>
</g>
<!-- Node17 -->
<g id="Node000017" class="node">
<title>Node17</title>
<g id="a_Node000017"><a xlink:href="vector_8hpp.html" target="_top" xlink:title=" ">
<polygon fill="white" stroke="#666666" points="688.38,-519.5 569.62,-519.5 569.62,-477.75 688.38,-477.75 688.38,-519.5"/>
<text text-anchor="start" x="577.62" y="-506" font-family="Helvetica,sans-Serif" font-size="10.00">/Users/ilariomazzieri</text>
<text text-anchor="start" x="577.62" y="-494.75" font-family="Helvetica,sans-Serif" font-size="10.00">/Desktop/vulpes/vulpes</text>
<text text-anchor="middle" x="629" y="-483.5" font-family="Helvetica,sans-Serif" font-size="10.00">/la/vector.hpp</text>
</a>
</g>
</g>
<!-- Node1&#45;&gt;Node17 -->
<g id="edge24_Node000001_Node000017" class="edge">
<title>Node1&#45;&gt;Node17</title>
<g id="a_edge24_Node000001_Node000017"><a xlink:title=" ">
<path fill="none" stroke="#63b8ff" d="M590.21,-546.26C597.51,-537.49 605.36,-528.05 612.07,-519.98"/>
<polygon fill="#63b8ff" stroke="#63b8ff" points="587.55,-543.99 583.85,-553.91 592.94,-548.46 587.55,-543.99"/>
</a>
</g>
</g>
<!-- Node3 -->
<g id="Node000003" class="node">
<title>Node3</title>
<g id="a_Node000003"><a xlink:href="dg__utils_8hpp.html" target="_top" xlink:title=" ">
<polygon fill="white" stroke="#666666" points="1026.38,-41.75 907.62,-41.75 907.62,0 1026.38,0 1026.38,-41.75"/>
<text text-anchor="start" x="915.62" y="-28.25" font-family="Helvetica,sans-Serif" font-size="10.00">/Users/ilariomazzieri</text>
<text text-anchor="start" x="915.62" y="-17" font-family="Helvetica,sans-Serif" font-size="10.00">/Desktop/vulpes/vulpes</text>
<text text-anchor="middle" x="967" y="-5.75" font-family="Helvetica,sans-Serif" font-size="10.00">/assemble/dg_utils.hpp</text>
</a>
</g>
</g>
<!-- Node2&#45;&gt;Node3 -->
<g id="edge2_Node000002_Node000003" class="edge">
<title>Node2&#45;&gt;Node3</title>
<g id="a_edge2_Node000002_Node000003"><a xlink:title=" ">
<path fill="none" stroke="#63b8ff" d="M354.72,-299.77C360.47,-279.04 370.5,-252.22 387,-233.25 432.69,-180.71 459.03,-182.99 523,-155.5 655.76,-98.45 820.63,-55.71 907.32,-35.26"/>
<polygon fill="#63b8ff" stroke="#63b8ff" points="351.34,-298.84 352.26,-309.4 358.12,-300.58 351.34,-298.84"/>
</a>
</g>
</g>
<!-- Node4 -->
<g id="Node000004" class="node">
<title>Node4</title>
<g id="a_Node000004"><a xlink:href="linear__solver_8cpp.html" target="_top" xlink:title=" ">
<polygon fill="white" stroke="#666666" points="514.38,-275 395.62,-275 395.62,-233.25 514.38,-233.25 514.38,-275"/>
<text text-anchor="start" x="403.62" y="-261.5" font-family="Helvetica,sans-Serif" font-size="10.00">/Users/ilariomazzieri</text>
<text text-anchor="start" x="403.62" y="-250.25" font-family="Helvetica,sans-Serif" font-size="10.00">/Desktop/vulpes/vulpes</text>
<text text-anchor="middle" x="455" y="-239" font-family="Helvetica,sans-Serif" font-size="10.00">/la/linear_solver.cpp</text>
</a>
</g>
</g>
<!-- Node2&#45;&gt;Node4 -->
<g id="edge3_Node000002_Node000004" class="edge">
<title>Node2&#45;&gt;Node4</title>
<g id="a_edge3_Node000002_Node000004"><a xlink:title=" ">
<path fill="none" stroke="#63b8ff" d="M386.02,-303.96C399.26,-294.59 413.88,-284.23 426.25,-275.48"/>
<polygon fill="#63b8ff" stroke="#63b8ff" points="384.05,-301.07 377.91,-309.7 388.09,-306.78 384.05,-301.07"/>
</a>
</g>
</g>
<!-- Node5 -->
<g id="Node000005" class="node">
<title>Node5</title>
<g id="a_Node000005"><a xlink:href="cranknicolson_8hpp.html" target="_top" xlink:title=" ">
<polygon fill="white" stroke="#666666" points="862.25,-275 697.75,-275 697.75,-233.25 862.25,-233.25 862.25,-275"/>
<text text-anchor="start" x="705.75" y="-261.5" font-family="Helvetica,sans-Serif" font-size="10.00">/Users/ilariomazzieri</text>
<text text-anchor="start" x="705.75" y="-250.25" font-family="Helvetica,sans-Serif" font-size="10.00">/Desktop/vulpes/vulpes</text>
<text text-anchor="middle" x="780" y="-239" font-family="Helvetica,sans-Serif" font-size="10.00">/timeintegration/cranknicolson.hpp</text>
</a>
</g>
</g>
<!-- Node2&#45;&gt;Node5 -->
<g id="edge4_Node000002_Node000005" class="edge">
<title>Node2&#45;&gt;Node5</title>
<g id="a_edge4_Node000002_Node000005"><a xlink:title=" ">
<path fill="none" stroke="#63b8ff" d="M418.77,-310.81C538.34,-286.61 572.4,-295.41 689,-275 691.87,-274.5 694.78,-273.97 697.72,-273.42"/>
<polygon fill="#63b8ff" stroke="#63b8ff" points="418.27,-307.34 409.19,-312.78 419.69,-314.19 418.27,-307.34"/>
</a>
</g>
</g>
<!-- Node7 -->
<g id="Node000007" class="node">
<title>Node7</title>
<g id="a_Node000007"><a xlink:href="imex_8hpp.html" target="_top" xlink:title=" ">
<polygon fill="white" stroke="#666666" points="172.12,-275 27.88,-275 27.88,-233.25 172.12,-233.25 172.12,-275"/>
<text text-anchor="start" x="35.88" y="-261.5" font-family="Helvetica,sans-Serif" font-size="10.00">/Users/ilariomazzieri</text>
<text text-anchor="start" x="35.88" y="-250.25" font-family="Helvetica,sans-Serif" font-size="10.00">/Desktop/vulpes/vulpes</text>
<text text-anchor="middle" x="100" y="-239" font-family="Helvetica,sans-Serif" font-size="10.00">/timeintegration/dae/imex.hpp</text>
</a>
</g>
</g>
<!-- Node2&#45;&gt;Node7 -->
<g id="edge6_Node000002_Node000007" class="edge">
<title>Node2&#45;&gt;Node7</title>
<g id="a_edge6_Node000002_Node000007"><a xlink:title=" ">
<path fill="none" stroke="#63b8ff" d="M277.71,-309.4C242.85,-298.76 200.97,-285.96 166.62,-275.47"/>
<polygon fill="#63b8ff" stroke="#63b8ff" points="276.25,-312.62 286.83,-312.19 278.29,-305.92 276.25,-312.62"/>
</a>
</g>
</g>
<!-- Node8 -->
<g id="Node000008" class="node">
<title>Node8</title>
<g id="a_Node000008"><a xlink:href="solverfkpp_8hpp.html" target="_top" xlink:title=" ">
<polygon fill="white" stroke="#666666" points="339.75,-275 190.25,-275 190.25,-233.25 339.75,-233.25 339.75,-275"/>
<text text-anchor="start" x="198.25" y="-261.5" font-family="Helvetica,sans-Serif" font-size="10.00">/Users/ilariomazzieri</text>
<text text-anchor="start" x="198.25" y="-250.25" font-family="Helvetica,sans-Serif" font-size="10.00">/Desktop/vulpes/vulpes</text>
<text text-anchor="middle" x="265" y="-239" font-family="Helvetica,sans-Serif" font-size="10.00">/timeintegration/solverfkpp.hpp</text>
</a>
</g>
</g>
<!-- Node2&#45;&gt;Node8 -->
<g id="edge7_Node000002_Node000008" class="edge">
<title>Node2&#45;&gt;Node8</title>
<g id="a_edge7_Node000002_Node000008"><a xlink:title=" ">
<path fill="none" stroke="#63b8ff" d="M317.31,-302.86C307.36,-293.78 296.52,-283.89 287.3,-275.48"/>
<polygon fill="#63b8ff" stroke="#63b8ff" points="314.89,-305.4 324.64,-309.56 319.61,-300.23 314.89,-305.4"/>
</a>
</g>
</g>
<!-- Node10 -->
<g id="Node000010" class="node">
<title>Node10</title>
<g id="a_Node000010"><a xlink:href="solvermfk_8hpp.html" target="_top" xlink:title=" ">
<polygon fill="white" stroke="#666666" points="679.62,-275 532.38,-275 532.38,-233.25 679.62,-233.25 679.62,-275"/>
<text text-anchor="start" x="540.38" y="-261.5" font-family="Helvetica,sans-Serif" font-size="10.00">/Users/ilariomazzieri</text>
<text text-anchor="start" x="540.38" y="-250.25" font-family="Helvetica,sans-Serif" font-size="10.00">/Desktop/vulpes/vulpes</text>
<text text-anchor="middle" x="606" y="-239" font-family="Helvetica,sans-Serif" font-size="10.00">/timeintegration/solvermfk.hpp</text>
</a>
</g>
</g>
<!-- Node2&#45;&gt;Node10 -->
<g id="edge9_Node000002_Node000010" class="edge">
<title>Node2&#45;&gt;Node10</title>
<g id="a_edge9_Node000002_Node000010"><a xlink:title=" ">
<path fill="none" stroke="#63b8ff" d="M418.5,-310.18C455.34,-299.36 500.27,-286.17 536.9,-275.41"/>
<polygon fill="#63b8ff" stroke="#63b8ff" points="417.9,-306.7 409.29,-312.88 419.87,-313.42 417.9,-306.7"/>
</a>
</g>
</g>
<!-- Node6 -->
<g id="Node000006" class="node">
<title>Node6</title>
<g id="a_Node000006"><a xlink:href="cranknicolson_8cpp.html" target="_top" xlink:title=" ">
<polygon fill="white" stroke="#666666" points="862.25,-197.25 697.75,-197.25 697.75,-155.5 862.25,-155.5 862.25,-197.25"/>
<text text-anchor="start" x="705.75" y="-183.75" font-family="Helvetica,sans-Serif" font-size="10.00">/Users/ilariomazzieri</text>
<text text-anchor="start" x="705.75" y="-172.5" font-family="Helvetica,sans-Serif" font-size="10.00">/Desktop/vulpes/vulpes</text>
<text text-anchor="middle" x="780" y="-161.25" font-family="Helvetica,sans-Serif" font-size="10.00">/timeintegration/cranknicolson.cpp</text>
</a>
</g>
</g>
<!-- Node5&#45;&gt;Node6 -->
<g id="edge5_Node000005_Node000006" class="edge">
<title>Node5&#45;&gt;Node6</title>
<g id="a_edge5_Node000005_Node000006"><a xlink:title=" ">
<path fill="none" stroke="#63b8ff" d="M780,-221.5C780,-213.46 780,-205.04 780,-197.73"/>
<polygon fill="#63b8ff" stroke="#63b8ff" points="776.5,-221.31 780,-231.31 783.5,-221.31 776.5,-221.31"/>
</a>
</g>
</g>
<!-- Node9 -->
<g id="Node000009" class="node">
<title>Node9</title>
<g id="a_Node000009"><a xlink:href="solverfkpp_8cpp.html" target="_top" xlink:title=" ">
<polygon fill="white" stroke="#666666" points="339.75,-197.25 190.25,-197.25 190.25,-155.5 339.75,-155.5 339.75,-197.25"/>
<text text-anchor="start" x="198.25" y="-183.75" font-family="Helvetica,sans-Serif" font-size="10.00">/Users/ilariomazzieri</text>
<text text-anchor="start" x="198.25" y="-172.5" font-family="Helvetica,sans-Serif" font-size="10.00">/Desktop/vulpes/vulpes</text>
<text text-anchor="middle" x="265" y="-161.25" font-family="Helvetica,sans-Serif" font-size="10.00">/timeintegration/solverfkpp.cpp</text>
</a>
</g>
</g>
<!-- Node8&#45;&gt;Node9 -->
<g id="edge8_Node000008_Node000009" class="edge">
<title>Node8&#45;&gt;Node9</title>
<g id="a_edge8_Node000008_Node000009"><a xlink:title=" ">
<path fill="none" stroke="#63b8ff" d="M265,-221.5C265,-213.46 265,-205.04 265,-197.73"/>
<polygon fill="#63b8ff" stroke="#63b8ff" points="261.5,-221.31 265,-231.31 268.5,-221.31 261.5,-221.31"/>
</a>
</g>
</g>
<!-- Node11 -->
<g id="Node000011" class="node">
<title>Node11</title>
<g id="a_Node000011"><a xlink:href="solvermfk_8cpp.html" target="_top" xlink:title=" ">
<polygon fill="white" stroke="#666666" points="679.62,-197.25 532.38,-197.25 532.38,-155.5 679.62,-155.5 679.62,-197.25"/>
<text text-anchor="start" x="540.38" y="-183.75" font-family="Helvetica,sans-Serif" font-size="10.00">/Users/ilariomazzieri</text>
<text text-anchor="start" x="540.38" y="-172.5" font-family="Helvetica,sans-Serif" font-size="10.00">/Desktop/vulpes/vulpes</text>
<text text-anchor="middle" x="606" y="-161.25" font-family="Helvetica,sans-Serif" font-size="10.00">/timeintegration/solvermfk.cpp</text>
</a>
</g>
</g>
<!-- Node10&#45;&gt;Node11 -->
<g id="edge10_Node000010_Node000011" class="edge">
<title>Node10&#45;&gt;Node11</title>
<g id="a_edge10_Node000010_Node000011"><a xlink:title=" ">
<path fill="none" stroke="#63b8ff" d="M606,-221.5C606,-213.46 606,-205.04 606,-197.73"/>
<polygon fill="#63b8ff" stroke="#63b8ff" points="602.5,-221.31 606,-231.31 609.5,-221.31 602.5,-221.31"/>
</a>
</g>
</g>
<!-- Node12&#45;&gt;Node2 -->
<g id="edge13_Node000012_Node000002" class="edge">
<title>Node12&#45;&gt;Node2</title>
<g id="a_edge13_Node000012_Node000002"><a xlink:title=" ">
<path fill="none" stroke="#63b8ff" d="M468.95,-389.12C444.16,-377.59 415.15,-364.1 391.76,-353.22"/>
<polygon fill="#63b8ff" stroke="#63b8ff" points="467.38,-392.24 477.92,-393.29 470.33,-385.9 467.38,-392.24"/>
</a>
</g>
</g>
<!-- Node12&#45;&gt;Node3 -->
<g id="edge12_Node000012_Node000003" class="edge">
<title>Node12&#45;&gt;Node3</title>
<g id="a_edge12_Node000012_Node000003"><a xlink:title=" ">
<path fill="none" stroke="#63b8ff" d="M452.02,-407.64C309.07,-392.35 0,-348.51 0,-255.12 0,-255.12 0,-255.12 0,-175.38 0,-83.05 696.41,-36.88 907.24,-25.02"/>
<polygon fill="#63b8ff" stroke="#63b8ff" points="451.44,-411.1 461.75,-408.66 452.17,-404.14 451.44,-411.1"/>
</a>
</g>
</g>
<!-- Node12&#45;&gt;Node5 -->
<g id="edge17_Node000012_Node000005" class="edge">
<title>Node12&#45;&gt;Node5</title>
<g id="a_edge17_Node000012_Node000005"><a xlink:title=" ">
<path fill="none" stroke="#63b8ff" d="M557.43,-387.13C585.94,-365.27 627.97,-334.43 667,-311 688.67,-297.99 713.79,-285.35 734.83,-275.39"/>
<polygon fill="#63b8ff" stroke="#63b8ff" points="555.64,-384.09 549.87,-392.97 559.92,-389.63 555.64,-384.09"/>
</a>
</g>
</g>
<!-- Node12&#45;&gt;Node7 -->
<g id="edge18_Node000012_Node000007" class="edge">
<title>Node12&#45;&gt;Node7</title>
<g id="a_edge18_Node000012_Node000007"><a xlink:title=" ">
<path fill="none" stroke="#63b8ff" d="M452.15,-404.11C397.88,-394.85 321.89,-378.58 259,-352.75 209.41,-332.38 157.49,-297.55 126.97,-275.46"/>
<polygon fill="#63b8ff" stroke="#63b8ff" points="451.46,-407.55 461.9,-405.74 452.61,-400.64 451.46,-407.55"/>
</a>
</g>
</g>
<!-- Node12&#45;&gt;Node8 -->
<g id="edge19_Node000012_Node000008" class="edge">
<title>Node12&#45;&gt;Node8</title>
<g id="a_edge19_Node000012_Node000008"><a xlink:title=" ">
<path fill="none" stroke="#63b8ff" d="M452.19,-405.08C388.98,-395.4 302.95,-378 280,-352.75 260.97,-331.81 260.24,-297.31 262.12,-275.43"/>
<polygon fill="#63b8ff" stroke="#63b8ff" points="451.41,-408.5 461.81,-406.52 452.44,-401.58 451.41,-408.5"/>
</a>
</g>
</g>
<!-- Node12&#45;&gt;Node10 -->
<g id="edge20_Node000012_Node000010" class="edge">
<title>Node12&#45;&gt;Node10</title>
<g id="a_edge20_Node000012_Node000010"><a xlink:title=" ">
<path fill="none" stroke="#63b8ff" d="M538.77,-384.01C555.39,-352.14 581.11,-302.84 595.44,-275.37"/>
<polygon fill="#63b8ff" stroke="#63b8ff" points="535.73,-382.27 534.21,-392.75 541.94,-385.51 535.73,-382.27"/>
</a>
</g>
</g>
<!-- Node13 -->
<g id="Node000013" class="node">
<title>Node13</title>
<g id="a_Node000013"><a xlink:href="sparse__matrix_8cpp.html" target="_top" xlink:title=" ">
<polygon fill="white" stroke="#666666" points="544.38,-352.75 425.62,-352.75 425.62,-311 544.38,-311 544.38,-352.75"/>
<text text-anchor="start" x="433.62" y="-339.25" font-family="Helvetica,sans-Serif" font-size="10.00">/Users/ilariomazzieri</text>
<text text-anchor="start" x="433.62" y="-328" font-family="Helvetica,sans-Serif" font-size="10.00">/Desktop/vulpes/vulpes</text>
<text text-anchor="middle" x="485" y="-316.75" font-family="Helvetica,sans-Serif" font-size="10.00">/la/sparse_matrix.cpp</text>
</a>
</g>
</g>
<!-- Node12&#45;&gt;Node13 -->
<g id="edge14_Node000012_Node000013" class="edge">
<title>Node12&#45;&gt;Node13</title>
<g id="a_edge14_Node000012_Node000013"><a xlink:title=" ">
<path fill="none" stroke="#63b8ff" d="M508.81,-383.87C504.01,-373.58 498.76,-362.34 494.42,-353.04"/>
<polygon fill="#63b8ff" stroke="#63b8ff" points="505.56,-385.18 512.97,-392.76 511.91,-382.22 505.56,-385.18"/>
</a>
</g>
</g>
<!-- Node14 -->
<g id="Node000014" class="node">
<title>Node14</title>
<g id="a_Node000014"><a xlink:href="vector__block__utils_8hpp.html" target="_top" xlink:title=" ">
<polygon fill="white" stroke="#666666" points="977.5,-352.75 850.5,-352.75 850.5,-311 977.5,-311 977.5,-352.75"/>
<text text-anchor="start" x="858.5" y="-339.25" font-family="Helvetica,sans-Serif" font-size="10.00">/Users/ilariomazzieri</text>
<text text-anchor="start" x="858.5" y="-328" font-family="Helvetica,sans-Serif" font-size="10.00">/Desktop/vulpes/vulpes</text>
<text text-anchor="middle" x="914" y="-316.75" font-family="Helvetica,sans-Serif" font-size="10.00">/la/vector_block_utils.hpp</text>
</a>
</g>
</g>
<!-- Node12&#45;&gt;Node14 -->
<g id="edge15_Node000012_Node000014" class="edge">
<title>Node12&#45;&gt;Node14</title>
<g id="a_edge15_Node000012_Node000014"><a xlink:title=" ">
<path fill="none" stroke="#63b8ff" d="M593.74,-399.53C666.84,-384.31 779.9,-360.78 850.3,-346.13"/>
<polygon fill="#63b8ff" stroke="#63b8ff" points="593.37,-396.03 584.29,-401.49 594.8,-402.88 593.37,-396.03"/>
</a>
</g>
</g>
<!-- Node15 -->
<g id="Node000015" class="node">
<title>Node15</title>
<g id="a_Node000015"><a xlink:href="io_8hpp.html" target="_top" xlink:title=" ">
<polygon fill="white" stroke="#666666" points="794.38,-352.75 675.62,-352.75 675.62,-311 794.38,-311 794.38,-352.75"/>
<text text-anchor="start" x="683.62" y="-339.25" font-family="Helvetica,sans-Serif" font-size="10.00">/Users/ilariomazzieri</text>
<text text-anchor="start" x="683.62" y="-328" font-family="Helvetica,sans-Serif" font-size="10.00">/Desktop/vulpes/vulpes</text>
<text text-anchor="middle" x="735" y="-316.75" font-family="Helvetica,sans-Serif" font-size="10.00">/utils/io.hpp</text>
</a>
</g>
</g>
<!-- Node12&#45;&gt;Node15 -->
<g id="edge21_Node000012_Node000015" class="edge">
<title>Node12&#45;&gt;Node15</title>
<g id="a_edge21_Node000012_Node000015"><a xlink:title=" ">
<path fill="none" stroke="#63b8ff" d="M586.47,-389.89C616.93,-378.19 653.02,-364.34 681.99,-353.22"/>
<polygon fill="#63b8ff" stroke="#63b8ff" points="585.44,-386.53 577.36,-393.38 587.95,-393.07 585.44,-386.53"/>
</a>
</g>
</g>
<!-- Node14&#45;&gt;Node3 -->
<g id="edge16_Node000014_Node000003" class="edge">
<title>Node14&#45;&gt;Node3</title>
<g id="a_edge16_Node000014_Node000003"><a xlink:title=" ">
<path fill="none" stroke="#63b8ff" d="M919.4,-299.37C930.26,-236.05 954.47,-94.91 963.51,-42.22"/>
<polygon fill="#63b8ff" stroke="#63b8ff" points="915.97,-298.66 917.73,-309.11 922.87,-299.84 915.97,-298.66"/>
</a>
</g>
</g>
<!-- Node15&#45;&gt;Node5 -->
<g id="edge22_Node000015_Node000005" class="edge">
<title>Node15&#45;&gt;Node5</title>
<g id="a_edge22_Node000015_Node000005"><a xlink:title=" ">
<path fill="none" stroke="#63b8ff" d="M752.79,-300.93C757.86,-292.39 763.26,-283.3 767.91,-275.48"/>
<polygon fill="#63b8ff" stroke="#63b8ff" points="749.93,-298.89 747.83,-309.27 755.95,-302.46 749.93,-298.89"/>
</a>
</g>
</g>
<!-- Node17&#45;&gt;Node2 -->
<g id="edge39_Node000017_Node000002" class="edge">
<title>Node17&#45;&gt;Node2</title>
<g id="a_edge39_Node000017_Node000002"><a xlink:title=" ">
<path fill="none" stroke="#63b8ff" d="M558.21,-483.18C525.23,-474.42 486.42,-461.12 455,-441.75 416.42,-417.97 381.64,-377.38 362.8,-353.05"/>
<polygon fill="#63b8ff" stroke="#63b8ff" points="557.13,-486.51 567.68,-485.6 558.86,-479.73 557.13,-486.51"/>
</a>
</g>
</g>
<!-- Node17&#45;&gt;Node3 -->
<g id="edge25_Node000017_Node000003" class="edge">
<title>Node17&#45;&gt;Node3</title>
<g id="a_edge25_Node000017_Node000003"><a xlink:title=" ">
<path fill="none" stroke="#63b8ff" d="M699.79,-477.93C785.11,-466.42 970.71,-492.46 1016,-441.75 1042.95,-411.58 987.12,-121.88 971.12,-42.12"/>
<polygon fill="#63b8ff" stroke="#63b8ff" points="699.48,-474.44 690.18,-479.52 700.62,-481.34 699.48,-474.44"/>
</a>
</g>
</g>
<!-- Node17&#45;&gt;Node5 -->
<g id="edge44_Node000017_Node000005" class="edge">
<title>Node17&#45;&gt;Node5</title>
<g id="a_edge44_Node000017_Node000005"><a xlink:title=" ">
<path fill="none" stroke="#63b8ff" d="M653.07,-468.28C659.52,-459.92 666.28,-450.65 672,-441.75 686.4,-419.34 679.81,-406.13 700,-388.75 736.76,-357.12 774.93,-392.29 803,-352.75 819.43,-329.6 805.61,-296.36 793.41,-275.25"/>
<polygon fill="#63b8ff" stroke="#63b8ff" points="650.37,-466.06 646.94,-476.09 655.87,-470.39 650.37,-466.06"/>
</a>
</g>
</g>
<!-- Node17&#45;&gt;Node7 -->
<g id="edge45_Node000017_Node000007" class="edge">
<title>Node17&#45;&gt;Node7</title>
<g id="a_edge45_Node000017_Node000007"><a xlink:title=" ">
<path fill="none" stroke="#63b8ff" d="M557.76,-491.52C470.34,-483.11 327.95,-466.19 281,-441.75 203.13,-401.21 139.1,-314.55 112.84,-275.24"/>
<polygon fill="#63b8ff" stroke="#63b8ff" points="557.39,-495 567.68,-492.46 558.05,-488.03 557.39,-495"/>
</a>
</g>
</g>
<!-- Node17&#45;&gt;Node8 -->
<g id="edge46_Node000017_Node000008" class="edge">
<title>Node17&#45;&gt;Node8</title>
<g id="a_edge46_Node000017_Node000008"><a xlink:title=" ">
<path fill="none" stroke="#63b8ff" d="M558.07,-487.89C509.58,-479.59 444.65,-465.19 391,-441.75 326.16,-413.42 292.22,-415.22 259,-352.75 246.08,-328.46 251.92,-295.82 257.94,-275.12"/>
<polygon fill="#63b8ff" stroke="#63b8ff" points="557.46,-491.34 567.9,-489.52 558.61,-484.43 557.46,-491.34"/>
</a>
</g>
</g>
<!-- Node17&#45;&gt;Node10 -->
<g id="edge47_Node000017_Node000010" class="edge">
<title>Node17&#45;&gt;Node10</title>
<g id="a_edge47_Node000017_Node000010"><a xlink:title=" ">
<path fill="none" stroke="#63b8ff" d="M626.02,-466.18C621.23,-415.68 611.95,-317.85 607.93,-275.5"/>
<polygon fill="#63b8ff" stroke="#63b8ff" points="622.51,-466.24 626.94,-475.86 629.48,-465.57 622.51,-466.24"/>
</a>
</g>
</g>
<!-- Node17&#45;&gt;Node12 -->
<g id="edge40_Node000017_Node000012" class="edge">
<title>Node17&#45;&gt;Node12</title>
<g id="a_edge40_Node000017_Node000012"><a xlink:title=" ">
<path fill="none" stroke="#63b8ff" d="M593.42,-470.31C579.06,-459.29 562.79,-446.8 549.5,-436.6"/>
<polygon fill="#63b8ff" stroke="#63b8ff" points="591.26,-473.07 601.32,-476.38 595.52,-467.51 591.26,-473.07"/>
</a>
</g>
</g>
<!-- Node17&#45;&gt;Node14 -->
<g id="edge42_Node000017_Node000014" class="edge">
<title>Node17&#45;&gt;Node14</title>
<g id="a_edge42_Node000017_Node000014"><a xlink:title=" ">
<path fill="none" stroke="#63b8ff" d="M666.64,-470.51C677.82,-461.81 689.79,-451.81 700,-441.75 721.61,-420.46 718.01,-405.94 743,-388.75 760.82,-376.49 809.41,-361.14 850.26,-349.64"/>
<polygon fill="#63b8ff" stroke="#63b8ff" points="664.53,-467.72 658.71,-476.57 668.78,-473.29 664.53,-467.72"/>
</a>
</g>
</g>
<!-- Node17&#45;&gt;Node15 -->
<g id="edge48_Node000017_Node000015" class="edge">
<title>Node17&#45;&gt;Node15</title>
<g id="a_edge48_Node000017_Node000015"><a xlink:title=" ">
<path fill="none" stroke="#63b8ff" d="M637.02,-466.56C643.89,-443.68 655.35,-412.54 672,-388.75 681.47,-375.22 694.86,-362.74 706.86,-353.03"/>
<polygon fill="#63b8ff" stroke="#63b8ff" points="633.72,-465.35 634.34,-475.92 640.45,-467.27 633.72,-465.35"/>
</a>
</g>
</g>
<!-- Node18 -->
<g id="Node000018" class="node">
<title>Node18</title>
<g id="a_Node000018"><a xlink:href="fe__expr__func_8hpp.html" target="_top" xlink:title=" ">
<polygon fill="white" stroke="#666666" points="1232.75,-441.75 1101.25,-441.75 1101.25,-388.75 1232.75,-388.75 1232.75,-441.75"/>
<text text-anchor="start" x="1109.25" y="-428.25" font-family="Helvetica,sans-Serif" font-size="10.00">/Users/ilariomazzieri</text>
<text text-anchor="start" x="1109.25" y="-417" font-family="Helvetica,sans-Serif" font-size="10.00">/Desktop/vulpes/vulpes</text>
<text text-anchor="start" x="1109.25" y="-405.75" font-family="Helvetica,sans-Serif" font-size="10.00">/fe/fe_expressions/fe_expr</text>
<text text-anchor="middle" x="1167" y="-394.5" font-family="Helvetica,sans-Serif" font-size="10.00">_func.hpp</text>
</a>
</g>
</g>
<!-- Node17&#45;&gt;Node18 -->
<g id="edge26_Node000017_Node000018" class="edge">
<title>Node17&#45;&gt;Node18</title>
<g id="a_edge26_Node000017_Node000018"><a xlink:title=" ">
<path fill="none" stroke="#63b8ff" d="M699.96,-477.57C854,-448.77 897.75,-465.77 1049,-441.75 1065.87,-439.07 1083.96,-435.51 1100.78,-431.91"/>
<polygon fill="#63b8ff" stroke="#63b8ff" points="699.33,-474.13 690.17,-479.45 700.65,-481.01 699.33,-474.13"/>
</a>
</g>
</g>
<!-- Node27 -->
<g id="Node000027" class="node">
<title>Node27</title>
<g id="a_Node000027"><a xlink:href="vector_8cpp.html" target="_top" xlink:title=" ">
<polygon fill="white" stroke="#666666" points="870.38,-436.12 751.62,-436.12 751.62,-394.38 870.38,-394.38 870.38,-436.12"/>
<text text-anchor="start" x="759.62" y="-422.62" font-family="Helvetica,sans-Serif" font-size="10.00">/Users/ilariomazzieri</text>
<text text-anchor="start" x="759.62" y="-411.38" font-family="Helvetica,sans-Serif" font-size="10.00">/Desktop/vulpes/vulpes</text>
<text text-anchor="middle" x="811" y="-400.12" font-family="Helvetica,sans-Serif" font-size="10.00">/la/vector.cpp</text>
</a>
</g>
</g>
<!-- Node17&#45;&gt;Node27 -->
<g id="edge41_Node000017_Node000027" class="edge">
<title>Node17&#45;&gt;Node27</title>
<g id="a_edge41_Node000017_Node000027"><a xlink:title=" ">
<path fill="none" stroke="#63b8ff" d="M684.86,-472.65C710.72,-461.09 741.05,-447.52 765.49,-436.6"/>
<polygon fill="#63b8ff" stroke="#63b8ff" points="683.54,-469.41 675.84,-476.68 686.4,-475.8 683.54,-469.41"/>
</a>
</g>
</g>
<!-- Node28 -->
<g id="Node000028" class="node">
<title>Node28</title>
<g id="a_Node000028"><a xlink:href="project__solution_8hpp.html" target="_top" xlink:title=" ">
<polygon fill="white" stroke="#666666" points="1007.38,-441.75 888.62,-441.75 888.62,-388.75 1007.38,-388.75 1007.38,-441.75"/>
<text text-anchor="start" x="896.62" y="-428.25" font-family="Helvetica,sans-Serif" font-size="10.00">/Users/ilariomazzieri</text>
<text text-anchor="start" x="896.62" y="-417" font-family="Helvetica,sans-Serif" font-size="10.00">/Desktop/vulpes/vulpes</text>
<text text-anchor="start" x="896.62" y="-405.75" font-family="Helvetica,sans-Serif" font-size="10.00">/postprocessing/project</text>
<text text-anchor="middle" x="948" y="-394.5" font-family="Helvetica,sans-Serif" font-size="10.00">_solution.hpp</text>
</a>
</g>
</g>
<!-- Node17&#45;&gt;Node28 -->
<g id="edge43_Node000017_Node000028" class="edge">
<title>Node17&#45;&gt;Node28</title>
<g id="a_edge43_Node000017_Node000028"><a xlink:title=" ">
<path fill="none" stroke="#63b8ff" d="M699.86,-477.43C779.73,-458.82 803.46,-463.08 879,-441.75 882.07,-440.88 885.2,-439.94 888.35,-438.95"/>
<polygon fill="#63b8ff" stroke="#63b8ff" points="699.14,-474 690.23,-479.73 700.77,-480.81 699.14,-474"/>
</a>
</g>
</g>
<!-- Node19 -->
<g id="Node000019" class="node">
<title>Node19</title>
<g id="a_Node000019"><a xlink:href="fe__expression_8hpp.html" target="_top" xlink:title=" ">
<polygon fill="white" stroke="#666666" points="1244.38,-352.75 1125.62,-352.75 1125.62,-311 1244.38,-311 1244.38,-352.75"/>
<text text-anchor="start" x="1133.62" y="-339.25" font-family="Helvetica,sans-Serif" font-size="10.00">/Users/ilariomazzieri</text>
<text text-anchor="start" x="1133.62" y="-328" font-family="Helvetica,sans-Serif" font-size="10.00">/Desktop/vulpes/vulpes</text>
<text text-anchor="middle" x="1185" y="-316.75" font-family="Helvetica,sans-Serif" font-size="10.00">/fe/fe_expression.hpp</text>
</a>
</g>
</g>
<!-- Node18&#45;&gt;Node19 -->
<g id="edge27_Node000018_Node000019" class="edge">
<title>Node18&#45;&gt;Node19</title>
<g id="a_edge27_Node000018_Node000019"><a xlink:title=" ">
<path fill="none" stroke="#63b8ff" d="M1175.16,-377.36C1177.01,-368.99 1178.91,-360.41 1180.54,-353.04"/>
<polygon fill="#63b8ff" stroke="#63b8ff" points="1171.76,-376.5 1173.02,-387.02 1178.6,-378.02 1171.76,-376.5"/>
</a>
</g>
</g>
<!-- Node19&#45;&gt;Node3 -->
<g id="edge28_Node000019_Node000003" class="edge">
<title>Node19&#45;&gt;Node3</title>
<g id="a_edge28_Node000019_Node000003"><a xlink:title=" ">
<path fill="none" stroke="#63b8ff" d="M1183.36,-299.5C1181.26,-279.61 1176.55,-253.83 1166,-233.25 1123.35,-150.05 1038.02,-76.44 994.26,-42.21"/>
<polygon fill="#63b8ff" stroke="#63b8ff" points="1179.85,-299.57 1184.2,-309.23 1186.82,-298.97 1179.85,-299.57"/>
</a>
</g>
</g>
<!-- Node20 -->
<g id="Node000020" class="node">
<title>Node20</title>
<g id="a_Node000020"><a xlink:href="integrator__base_8hpp.html" target="_top" xlink:title=" ">
<polygon fill="white" stroke="#666666" points="1465.75,-197.25 1316.25,-197.25 1316.25,-155.5 1465.75,-155.5 1465.75,-197.25"/>
<text text-anchor="start" x="1324.25" y="-183.75" font-family="Helvetica,sans-Serif" font-size="10.00">/Users/ilariomazzieri</text>
<text text-anchor="start" x="1324.25" y="-172.5" font-family="Helvetica,sans-Serif" font-size="10.00">/Desktop/vulpes/vulpes</text>
<text text-anchor="middle" x="1391" y="-161.25" font-family="Helvetica,sans-Serif" font-size="10.00">/assemble/integrator_base.hpp</text>
</a>
</g>
</g>
<!-- Node19&#45;&gt;Node20 -->
<g id="edge29_Node000019_Node000020" class="edge">
<title>Node19&#45;&gt;Node20</title>
<g id="a_edge29_Node000019_Node000020"><a xlink:title=" ">
<path fill="none" stroke="#63b8ff" d="M1255.67,-327.19C1295.35,-321.33 1342.63,-307.4 1372,-275 1391.13,-253.89 1393.5,-219.44 1392.76,-197.61"/>
<polygon fill="#63b8ff" stroke="#63b8ff" points="1255.4,-323.69 1245.94,-328.46 1256.31,-330.63 1255.4,-323.69"/>
</a>
</g>
</g>
<!-- Node25 -->
<g id="Node000025" class="node">
<title>Node25</title>
<g id="a_Node000025"><a xlink:href="integrator__traits_8hpp.html" target="_top" xlink:title=" ">
<polygon fill="white" stroke="#666666" points="1363.12,-275 1212.88,-275 1212.88,-233.25 1363.12,-233.25 1363.12,-275"/>
<text text-anchor="start" x="1220.88" y="-261.5" font-family="Helvetica,sans-Serif" font-size="10.00">/Users/ilariomazzieri</text>
<text text-anchor="start" x="1220.88" y="-250.25" font-family="Helvetica,sans-Serif" font-size="10.00">/Desktop/vulpes/vulpes</text>
<text text-anchor="middle" x="1288" y="-239" font-family="Helvetica,sans-Serif" font-size="10.00">/assemble/integrator_traits.hpp</text>
</a>
</g>
</g>
<!-- Node19&#45;&gt;Node25 -->
<g id="edge36_Node000019_Node000025" class="edge">
<title>Node19&#45;&gt;Node25</title>
<g id="a_edge36_Node000019_Node000025"><a xlink:title=" ">
<path fill="none" stroke="#63b8ff" d="M1221.6,-303.96C1234.34,-294.59 1248.42,-284.23 1260.32,-275.48"/>
<polygon fill="#63b8ff" stroke="#63b8ff" points="1219.8,-300.93 1213.82,-309.68 1223.95,-306.57 1219.8,-300.93"/>
</a>
</g>
</g>
<!-- Node26 -->
<g id="Node000026" class="node">
<title>Node26</title>
<g id="a_Node000026"><a xlink:href="fe__vem_8hpp.html" target="_top" xlink:title=" ">
<polygon fill="white" stroke="#666666" points="1156.62,-275 1027.38,-275 1027.38,-233.25 1156.62,-233.25 1156.62,-275"/>
<text text-anchor="start" x="1035.38" y="-261.5" font-family="Helvetica,sans-Serif" font-size="10.00">/Users/ilariomazzieri</text>
<text text-anchor="start" x="1035.38" y="-250.25" font-family="Helvetica,sans-Serif" font-size="10.00">/Desktop/vulpes/vulpes</text>
<text text-anchor="middle" x="1092" y="-239" font-family="Helvetica,sans-Serif" font-size="10.00">/fe/fe_spaces/fe_vem.hpp</text>
</a>
</g>
</g>
<!-- Node19&#45;&gt;Node26 -->
<g id="edge38_Node000019_Node000026" class="edge">
<title>Node19&#45;&gt;Node26</title>
<g id="a_edge38_Node000019_Node000026"><a xlink:title=" ">
<path fill="none" stroke="#63b8ff" d="M1151.28,-303.41C1139.96,-294.19 1127.53,-284.06 1116.99,-275.48"/>
<polygon fill="#63b8ff" stroke="#63b8ff" points="1148.94,-306.02 1158.9,-309.62 1153.36,-300.59 1148.94,-306.02"/>
</a>
</g>
</g>
<!-- Node21 -->
<g id="Node000021" class="node">
<title>Node21</title>
<g id="a_Node000021"><a xlink:href="integrator__gauss_8hpp.html" target="_top" xlink:title=" ">
<polygon fill="white" stroke="#666666" points="1367.38,-119.5 1212.62,-119.5 1212.62,-77.75 1367.38,-77.75 1367.38,-119.5"/>
<text text-anchor="start" x="1220.62" y="-106" font-family="Helvetica,sans-Serif" font-size="10.00">/Users/ilariomazzieri</text>
<text text-anchor="start" x="1220.62" y="-94.75" font-family="Helvetica,sans-Serif" font-size="10.00">/Desktop/vulpes/vulpes</text>
<text text-anchor="middle" x="1290" y="-83.5" font-family="Helvetica,sans-Serif" font-size="10.00">/assemble/integrator_gauss.hpp</text>
</a>
</g>
</g>
<!-- Node20&#45;&gt;Node21 -->
<g id="edge30_Node000020_Node000021" class="edge">
<title>Node20&#45;&gt;Node21</title>
<g id="a_edge30_Node000020_Node000021"><a xlink:title=" ">
<path fill="none" stroke="#63b8ff" d="M1354.75,-148.19C1342.35,-138.89 1328.7,-128.65 1317.14,-119.98"/>
<polygon fill="#63b8ff" stroke="#63b8ff" points="1352.62,-150.97 1362.72,-154.17 1356.82,-145.37 1352.62,-150.97"/>
</a>
</g>
</g>
<!-- Node22 -->
<g id="Node000022" class="node">
<title>Node22</title>
<g id="a_Node000022"><a xlink:href="integrator__qfree_8hpp.html" target="_top" xlink:title=" ">
<polygon fill="white" stroke="#666666" points="1725.12,-119.5 1574.88,-119.5 1574.88,-77.75 1725.12,-77.75 1725.12,-119.5"/>
<text text-anchor="start" x="1582.88" y="-106" font-family="Helvetica,sans-Serif" font-size="10.00">/Users/ilariomazzieri</text>
<text text-anchor="start" x="1582.88" y="-94.75" font-family="Helvetica,sans-Serif" font-size="10.00">/Desktop/vulpes/vulpes</text>
<text text-anchor="middle" x="1650" y="-83.5" font-family="Helvetica,sans-Serif" font-size="10.00">/assemble/integrator_qfree.hpp</text>
</a>
</g>
</g>
<!-- Node20&#45;&gt;Node22 -->
<g id="edge31_Node000020_Node000022" class="edge">
<title>Node20&#45;&gt;Node22</title>
<g id="a_edge31_Node000020_Node000022"><a xlink:title=" ">
<path fill="none" stroke="#63b8ff" d="M1471.07,-151.96C1506.05,-141.73 1546.7,-129.84 1580.4,-119.98"/>
<polygon fill="#63b8ff" stroke="#63b8ff" points="1470.48,-148.48 1461.86,-154.65 1472.44,-155.2 1470.48,-148.48"/>
</a>
</g>
</g>
<!-- Node24 -->
<g id="Node000024" class="node">
<title>Node24</title>
<g id="a_Node000024"><a xlink:href="integrator__simplexify_8hpp.html" target="_top" xlink:title=" ">
<polygon fill="white" stroke="#666666" points="1556.62,-119.5 1385.38,-119.5 1385.38,-77.75 1556.62,-77.75 1556.62,-119.5"/>
<text text-anchor="start" x="1393.38" y="-106" font-family="Helvetica,sans-Serif" font-size="10.00">/Users/ilariomazzieri</text>
<text text-anchor="start" x="1393.38" y="-94.75" font-family="Helvetica,sans-Serif" font-size="10.00">/Desktop/vulpes/vulpes</text>
<text text-anchor="middle" x="1471" y="-83.5" font-family="Helvetica,sans-Serif" font-size="10.00">/assemble/integrator_simplexify.hpp</text>
</a>
</g>
</g>
<!-- Node20&#45;&gt;Node24 -->
<g id="edge33_Node000020_Node000024" class="edge">
<title>Node20&#45;&gt;Node24</title>
<g id="a_edge33_Node000020_Node000024"><a xlink:title=" ">
<path fill="none" stroke="#63b8ff" d="M1420.58,-147.36C1430.17,-138.28 1440.62,-128.39 1449.5,-119.98"/>
<polygon fill="#63b8ff" stroke="#63b8ff" points="1418.39,-144.62 1413.54,-154.03 1423.21,-149.7 1418.39,-144.62"/>
</a>
</g>
</g>
<!-- Node23 -->
<g id="Node000023" class="node">
<title>Node23</title>
<g id="a_Node000023"><a xlink:href="integrator__vem_8hpp.html" target="_top" xlink:title=" ">
<polygon fill="white" stroke="#666666" points="1633.62,-41.75 1486.38,-41.75 1486.38,0 1633.62,0 1633.62,-41.75"/>
<text text-anchor="start" x="1494.38" y="-28.25" font-family="Helvetica,sans-Serif" font-size="10.00">/Users/ilariomazzieri</text>
<text text-anchor="start" x="1494.38" y="-17" font-family="Helvetica,sans-Serif" font-size="10.00">/Desktop/vulpes/vulpes</text>
<text text-anchor="middle" x="1560" y="-5.75" font-family="Helvetica,sans-Serif" font-size="10.00">/assemble/integrator_vem.hpp</text>
</a>
</g>
</g>
<!-- Node22&#45;&gt;Node23 -->
<g id="edge32_Node000022_Node000023" class="edge">
<title>Node22&#45;&gt;Node23</title>
<g id="a_edge32_Node000022_Node000023"><a xlink:title=" ">
<path fill="none" stroke="#63b8ff" d="M1617.37,-70.16C1606.41,-60.94 1594.38,-50.81 1584.18,-42.23"/>
<polygon fill="#63b8ff" stroke="#63b8ff" points="1614.82,-72.59 1624.72,-76.35 1619.33,-67.23 1614.82,-72.59"/>
</a>
</g>
</g>
<!-- Node24&#45;&gt;Node3 -->
<g id="edge34_Node000024_Node000003" class="edge">
<title>Node24&#45;&gt;Node3</title>
<g id="a_edge34_Node000024_Node000003"><a xlink:title=" ">
<path fill="none" stroke="#63b8ff" d="M1373.79,-77.43C1244.21,-55.38 1104.41,-37.87 1026.81,-28.71"/>
<polygon fill="#63b8ff" stroke="#63b8ff" points="1373.15,-80.87 1383.6,-79.11 1374.34,-73.97 1373.15,-80.87"/>
</a>
</g>
</g>
<!-- Node24&#45;&gt;Node23 -->
<g id="edge35_Node000024_Node000023" class="edge">
<title>Node24&#45;&gt;Node23</title>
<g id="a_edge35_Node000024_Node000023"><a xlink:title=" ">
<path fill="none" stroke="#63b8ff" d="M1503.59,-69.89C1514.34,-60.73 1526.1,-50.73 1536.08,-42.23"/>
<polygon fill="#63b8ff" stroke="#63b8ff" points="1501.35,-67.2 1496,-76.34 1505.89,-72.53 1501.35,-67.2"/>
</a>
</g>
</g>
<!-- Node25&#45;&gt;Node20 -->
<g id="edge37_Node000025_Node000020" class="edge">
<title>Node25&#45;&gt;Node20</title>
<g id="a_edge37_Node000025_Node000020"><a xlink:title=" ">
<path fill="none" stroke="#63b8ff" d="M1324.6,-226.21C1337.34,-216.84 1351.42,-206.48 1363.32,-197.73"/>
<polygon fill="#63b8ff" stroke="#63b8ff" points="1322.8,-223.18 1316.82,-231.93 1326.95,-228.82 1322.8,-223.18"/>
</a>
</g>
</g>
</g>
</svg>

<g id="navigator" transform="translate(0 0)" fill="#404254">
  <rect fill="#f2f5e9" fill-opacity="0.5" stroke="#606060" stroke-width=".5" x="0" y="0" width="60" height="60"/>
  <use id="zoomplus" xlink:href="#zoomPlus" x="17" y="9" onmousedown="handleZoom(evt,'in')"/>
  <use id="zoomminus" xlink:href="#zoomMin" x="42" y="9" onmousedown="handleZoom(evt,'out')"/>
  <use id="reset" xlink:href="#resetDef" x="30" y="36" onmousedown="handleReset()"/>
   <use id="arrowup" xlink:href="#arrowUp" x="0" y="0" onmousedown="handlePan(0,-1)"/>
  <use id="arrowright" xlink:href="#arrowRight" x="0" y="0" onmousedown="handlePan(1,0)"/>
  <use id="arrowdown" xlink:href="#arrowDown" x="0" y="0" onmousedown="handlePan(0,1)"/>
  <use id="arrowleft" xlink:href="#arrowLeft" x="0" y="0" onmousedown="handlePan(-1,0)"/>
</g>
<svg viewBox="0 0 15 15" width="100%" height="30px" preserveAspectRatio="xMaxYMin meet">
 <g id="arrow_out" transform="scale(0.3 0.3)">
  <a xlink:href="petsc__utils_8hpp__dep__incl_org.svg" target="_base">
   <rect id="button" ry="5" rx="5" y="6" x="6" height="38" width="38"
        fill="#f2f5e9" fill-opacity="0.5" stroke="#606060" stroke-width="1.0"/>
   <path id="arrow"
     d="M 11.500037,31.436501 C 11.940474,20.09759 22.043105,11.32322 32.158766,21.979434 L 37.068811,17.246167 C 37.068811,17.246167 37.088388,32 37.088388,32 L 22.160133,31.978069 C 22.160133,31.978069 26.997745,27.140456 26.997745,27.140456 C 18.528582,18.264221 13.291696,25.230495 11.500037,31.436501 z"
     style="fill:#404040;"/>
  </a>
 </g>
</svg>

<style type='text/css'>
<![CDATA[
[data-mouse-over-selected='false'] { opacity: 0.7; }
[data-mouse-over-selected='true']  { opacity: 1.0; }
]]>
</style>
<script type="application/ecmascript"><![CDATA[
document.addEventListener('DOMContentLoaded', (event) => {
  highlightEdges();
  highlightAdjacentNodes();
});
]]></script>
</svg>
