<?xml version="1.0" encoding="UTF-8" standalone="no"?>
<!DOCTYPE svg PUBLIC "-//W3C//DTD SVG 1.1//EN"
 "http://www.w3.org/Graphics/SVG/1.1/DTD/svg11.dtd">
<!-- Generated by graphviz version 2.42.4 (0)
 -->
<!-- Title: /__w/vulpes/vulpes/vulpes/la/petsc_utils.hpp Pages: 1 -->
<svg width="1071pt" height="214pt"
 viewBox="0.00 0.00 1071.00 214.00" xmlns="http://www.w3.org/2000/svg" xmlns:xlink="http://www.w3.org/1999/xlink">
<g id="graph0" class="graph" transform="scale(1 1) rotate(0) translate(4 210)">
<title>/__w/vulpes/vulpes/vulpes/la/petsc_utils.hpp</title>
<!-- Node1 -->
<g id="Node000001" class="node">
<title>Node1</title>
<g id="a_Node000001"><a xlink:title=" ">
<polygon fill="#999999" stroke="#666666" points="241,-206 101,-206 101,-176 241,-176 241,-206"/>
<text text-anchor="start" x="109" y="-194" font-family="Helvetica,sans-Serif" font-size="10.00">/__w/vulpes/vulpes</text>
<text text-anchor="middle" x="171" y="-183" font-family="Helvetica,sans-Serif" font-size="10.00">/vulpes/la/petsc_utils.hpp</text>
</a>
</g>
</g>
<!-- Node2 -->
<g id="Node000002" class="node">
<title>Node2</title>
<g id="a_Node000002"><a xlink:title=" ">
<polygon fill="#e0e0e0" stroke="#999999" points="143,-140 75,-140 75,-121 143,-121 143,-140"/>
<text text-anchor="middle" x="109" y="-128" font-family="Helvetica,sans-Serif" font-size="10.00">petscsys.h</text>
</a>
</g>
</g>
<!-- Node1&#45;&gt;Node2 -->
<g id="edge1_Node000001_Node000002" class="edge">
<title>Node1&#45;&gt;Node2</title>
<g id="a_edge1_Node000001_Node000002"><a xlink:title=" ">
<path fill="none" stroke="#63b8ff" d="M155.99,-175.84C146.81,-167.17 135.05,-156.08 125.59,-147.15"/>
<polygon fill="#63b8ff" stroke="#63b8ff" points="127.97,-144.58 118.29,-140.27 123.16,-149.67 127.97,-144.58"/>
</a>
</g>
</g>
<!-- Node3 -->
<g id="Node000003" class="node">
<title>Node3</title>
<g id="a_Node000003"><a xlink:title=" ">
<polygon fill="#e0e0e0" stroke="#999999" points="44,-19 0,-19 0,0 44,0 44,-19"/>
<text text-anchor="middle" x="22" y="-7" font-family="Helvetica,sans-Serif" font-size="10.00">string</text>
</a>
</g>
</g>
<!-- Node1&#45;&gt;Node3 -->
<g id="edge2_Node000001_Node000003" class="edge">
<title>Node1&#45;&gt;Node3</title>
<g id="a_edge2_Node000001_Node000003"><a xlink:title=" ">
<path fill="none" stroke="#63b8ff" d="M169.57,-175.79C167.55,-161.1 162.82,-137.97 152,-121 124.56,-77.95 75.14,-42.78 45.78,-24.4"/>
<polygon fill="#63b8ff" stroke="#63b8ff" points="47.36,-21.26 37.01,-19.03 43.71,-27.23 47.36,-21.26"/>
</a>
</g>
</g>
<!-- Node4 -->
<g id="Node000004" class="node">
<title>Node4</title>
<g id="a_Node000004"><a xlink:href="mpi__wrappers_8hpp.html" target="_top" xlink:title=" ">
<polygon fill="white" stroke="#666666" points="714,-140 548,-140 548,-121 714,-121 714,-140"/>
<text text-anchor="middle" x="631" y="-128" font-family="Helvetica,sans-Serif" font-size="10.00">vulpes/utils/mpi_wrappers.hpp</text>
</a>
</g>
</g>
<!-- Node1&#45;&gt;Node4 -->
<g id="edge3_Node000001_Node000004" class="edge">
<title>Node1&#45;&gt;Node4</title>
<g id="a_edge3_Node000001_Node000004"><a xlink:title=" ">
<path fill="none" stroke="#63b8ff" d="M241.11,-181.08C325.43,-170.36 466.47,-152.42 553.82,-141.32"/>
<polygon fill="#63b8ff" stroke="#63b8ff" points="554.45,-144.76 563.93,-140.03 553.57,-137.82 554.45,-144.76"/>
</a>
</g>
</g>
<!-- Node5 -->
<g id="Node000005" class="node">
<title>Node5</title>
<g id="a_Node000005"><a xlink:title=" ">
<polygon fill="#e0e0e0" stroke="#999999" points="533,-79.5 489,-79.5 489,-60.5 533,-60.5 533,-79.5"/>
<text text-anchor="middle" x="511" y="-67.5" font-family="Helvetica,sans-Serif" font-size="10.00">mpi.h</text>
</a>
</g>
</g>
<!-- Node4&#45;&gt;Node5 -->
<g id="edge4_Node000004_Node000005" class="edge">
<title>Node4&#45;&gt;Node5</title>
<g id="a_edge4_Node000004_Node000005"><a xlink:title=" ">
<path fill="none" stroke="#63b8ff" d="M613.55,-120.99C593.64,-111.29 560.86,-95.31 537.73,-84.03"/>
<polygon fill="#63b8ff" stroke="#63b8ff" points="538.99,-80.75 528.47,-79.52 535.93,-87.04 538.99,-80.75"/>
</a>
</g>
</g>
<!-- Node6 -->
<g id="Node000006" class="node">
<title>Node6</title>
<g id="a_Node000006"><a xlink:title=" ">
<polygon fill="#e0e0e0" stroke="#999999" points="603,-79.5 551,-79.5 551,-60.5 603,-60.5 603,-79.5"/>
<text text-anchor="middle" x="577" y="-67.5" font-family="Helvetica,sans-Serif" font-size="10.00">petsc.h</text>
</a>
</g>
</g>
<!-- Node4&#45;&gt;Node6 -->
<g id="edge5_Node000004_Node000006" class="edge">
<title>Node4&#45;&gt;Node6</title>
<g id="a_edge5_Node000004_Node000006"><a xlink:title=" ">
<path fill="none" stroke="#63b8ff" d="M623.03,-120.87C614.9,-112.05 602.07,-98.16 592.02,-87.27"/>
<polygon fill="#63b8ff" stroke="#63b8ff" points="594.36,-84.64 585,-79.67 589.21,-89.39 594.36,-84.64"/>
</a>
</g>
</g>
<!-- Node7 -->
<g id="Node000007" class="node">
<title>Node7</title>
<g id="a_Node000007"><a xlink:title=" ">
<polygon fill="#e0e0e0" stroke="#999999" points="1063,-19 1011,-19 1011,0 1063,0 1063,-19"/>
<text text-anchor="middle" x="1037" y="-7" font-family="Helvetica,sans-Serif" font-size="10.00">cassert</text>
</a>
</g>
</g>
<!-- Node4&#45;&gt;Node7 -->
<g id="edge6_Node000004_Node000007" class="edge">
<title>Node4&#45;&gt;Node7</title>
<g id="a_edge6_Node000004_Node000007"><a xlink:title=" ">
<path fill="none" stroke="#63b8ff" d="M714.24,-126.98C775.24,-122.79 859.09,-112.06 928,-85 963.84,-70.93 999.59,-43.24 1019.92,-25.87"/>
<polygon fill="#63b8ff" stroke="#63b8ff" points="1022.42,-28.34 1027.65,-19.12 1017.81,-23.06 1022.42,-28.34"/>
</a>
</g>
</g>
<!-- Node8 -->
<g id="Node000008" class="node">
<title>Node8</title>
<g id="a_Node000008"><a xlink:title=" ">
<polygon fill="#e0e0e0" stroke="#999999" points="576,-19 516,-19 516,0 576,0 576,-19"/>
<text text-anchor="middle" x="546" y="-7" font-family="Helvetica,sans-Serif" font-size="10.00">iostream</text>
</a>
</g>
</g>
<!-- Node4&#45;&gt;Node8 -->
<g id="edge7_Node000004_Node000008" class="edge">
<title>Node4&#45;&gt;Node8</title>
<g id="a_edge7_Node000004_Node000008"><a xlink:title=" ">
<path fill="none" stroke="#63b8ff" d="M630.75,-120.87C629.92,-106.08 626.45,-75.52 612,-55 602.71,-41.82 588.18,-31.41 575.12,-23.98"/>
<polygon fill="#63b8ff" stroke="#63b8ff" points="576.43,-20.71 565.96,-19.1 573.14,-26.89 576.43,-20.71"/>
</a>
</g>
</g>
<!-- Node9 -->
<g id="Node000009" class="node">
<title>Node9</title>
<g id="a_Node000009"><a xlink:title=" ">
<polygon fill="#e0e0e0" stroke="#999999" points="641.5,-19 594.5,-19 594.5,0 641.5,0 641.5,-19"/>
<text text-anchor="middle" x="618" y="-7" font-family="Helvetica,sans-Serif" font-size="10.00">vector</text>
</a>
</g>
</g>
<!-- Node4&#45;&gt;Node9 -->
<g id="edge8_Node000004_Node000009" class="edge">
<title>Node4&#45;&gt;Node9</title>
<g id="a_edge8_Node000004_Node000009"><a xlink:title=" ">
<path fill="none" stroke="#63b8ff" d="M635.25,-120.67C641.44,-106.6 651.52,-78.32 645,-55 642.24,-45.12 636.61,-35.25 631.21,-27.32"/>
<polygon fill="#63b8ff" stroke="#63b8ff" points="633.87,-25.04 625.15,-19.03 628.22,-29.17 633.87,-25.04"/>
</a>
</g>
</g>
<!-- Node10 -->
<g id="Node000010" class="node">
<title>Node10</title>
<g id="a_Node000010"><a xlink:title=" ">
<polygon fill="#e0e0e0" stroke="#999999" points="918.5,-79.5 841.5,-79.5 841.5,-60.5 918.5,-60.5 918.5,-79.5"/>
<text text-anchor="middle" x="880" y="-67.5" font-family="Helvetica,sans-Serif" font-size="10.00">Eigen/Dense</text>
</a>
</g>
</g>
<!-- Node4&#45;&gt;Node10 -->
<g id="edge9_Node000004_Node000010" class="edge">
<title>Node4&#45;&gt;Node10</title>
<g id="a_edge9_Node000004_Node000010"><a xlink:title=" ">
<path fill="none" stroke="#63b8ff" d="M674.17,-120.94C715.21,-112.57 778.59,-99.08 833,-85 836.13,-84.19 839.37,-83.31 842.61,-82.4"/>
<polygon fill="#63b8ff" stroke="#63b8ff" points="843.62,-85.76 852.26,-79.63 841.68,-79.03 843.62,-85.76"/>
</a>
</g>
</g>
<!-- Node11 -->
<g id="Node000011" class="node">
<title>Node11</title>
<g id="a_Node000011"><a xlink:href="crs__map_8hpp.html" target="_top" xlink:title=" ">
<polygon fill="white" stroke="#666666" points="823.5,-85 706.5,-85 706.5,-55 823.5,-55 823.5,-85"/>
<text text-anchor="start" x="714.5" y="-73" font-family="Helvetica,sans-Serif" font-size="10.00">vulpes/datastructure</text>
<text text-anchor="middle" x="765" y="-62" font-family="Helvetica,sans-Serif" font-size="10.00">/crs_map.hpp</text>
</a>
</g>
</g>
<!-- Node4&#45;&gt;Node11 -->
<g id="edge10_Node000004_Node000011" class="edge">
<title>Node4&#45;&gt;Node11</title>
<g id="a_edge10_Node000004_Node000011"><a xlink:title=" ">
<path fill="none" stroke="#63b8ff" d="M650.48,-120.99C669.52,-112.68 699.09,-99.78 723.41,-89.16"/>
<polygon fill="#63b8ff" stroke="#63b8ff" points="725.02,-92.27 732.78,-85.06 722.22,-85.86 725.02,-92.27"/>
</a>
</g>
</g>
<!-- Node17 -->
<g id="Node000017" class="node">
<title>Node17</title>
<g id="a_Node000017"><a xlink:href="profiler_8hpp.html" target="_top" xlink:title=" ">
<polygon fill="white" stroke="#666666" points="470.5,-79.5 339.5,-79.5 339.5,-60.5 470.5,-60.5 470.5,-79.5"/>
<text text-anchor="middle" x="405" y="-67.5" font-family="Helvetica,sans-Serif" font-size="10.00">vulpes/utils/profiler.hpp</text>
</a>
</g>
</g>
<!-- Node4&#45;&gt;Node17 -->
<g id="edge18_Node000004_Node000017" class="edge">
<title>Node4&#45;&gt;Node17</title>
<g id="a_edge18_Node000004_Node000017"><a xlink:title=" ">
<path fill="none" stroke="#63b8ff" d="M598.14,-120.99C558.39,-110.7 491.37,-93.36 447.67,-82.04"/>
<polygon fill="#63b8ff" stroke="#63b8ff" points="448.46,-78.63 437.9,-79.52 446.71,-85.41 448.46,-78.63"/>
</a>
</g>
</g>
<!-- Node11&#45;&gt;Node7 -->
<g id="edge13_Node000011_Node000007" class="edge">
<title>Node11&#45;&gt;Node7</title>
<g id="a_edge13_Node000011_Node000007"><a xlink:title=" ">
<path fill="none" stroke="#63b8ff" d="M823.69,-56.83C878.19,-45.5 956.4,-29.13 1000.89,-19.19"/>
<polygon fill="#63b8ff" stroke="#63b8ff" points="1001.66,-22.6 1010.65,-16.99 1000.12,-15.78 1001.66,-22.6"/>
</a>
</g>
</g>
<!-- Node11&#45;&gt;Node9 -->
<g id="edge17_Node000011_Node000009" class="edge">
<title>Node11&#45;&gt;Node9</title>
<g id="a_edge17_Node000011_Node000009"><a xlink:title=" ">
<path fill="none" stroke="#63b8ff" d="M729.79,-54.99C705.26,-45.23 672.85,-32.33 649.24,-22.93"/>
<polygon fill="#63b8ff" stroke="#63b8ff" points="650.29,-19.58 639.71,-19.14 647.71,-26.09 650.29,-19.58"/>
</a>
</g>
</g>
<!-- Node12 -->
<g id="Node000012" class="node">
<title>Node12</title>
<g id="a_Node000012"><a xlink:title=" ">
<polygon fill="#e0e0e0" stroke="#999999" points="724,-19 660,-19 660,0 724,0 724,-19"/>
<text text-anchor="middle" x="692" y="-7" font-family="Helvetica,sans-Serif" font-size="10.00">algorithm</text>
</a>
</g>
</g>
<!-- Node11&#45;&gt;Node12 -->
<g id="edge11_Node000011_Node000012" class="edge">
<title>Node11&#45;&gt;Node12</title>
<g id="a_edge11_Node000011_Node000012"><a xlink:title=" ">
<path fill="none" stroke="#63b8ff" d="M747.33,-54.84C736.3,-46 722.11,-34.63 710.87,-25.62"/>
<polygon fill="#63b8ff" stroke="#63b8ff" points="712.93,-22.79 702.94,-19.27 708.55,-28.25 712.93,-22.79"/>
</a>
</g>
</g>
<!-- Node13 -->
<g id="Node000013" class="node">
<title>Node13</title>
<g id="a_Node000013"><a xlink:title=" ">
<polygon fill="#e0e0e0" stroke="#999999" points="917,-19 875,-19 875,0 917,0 917,-19"/>
<text text-anchor="middle" x="896" y="-7" font-family="Helvetica,sans-Serif" font-size="10.00">array</text>
</a>
</g>
</g>
<!-- Node11&#45;&gt;Node13 -->
<g id="edge12_Node000011_Node000013" class="edge">
<title>Node11&#45;&gt;Node13</title>
<g id="a_edge12_Node000011_Node000013"><a xlink:title=" ">
<path fill="none" stroke="#63b8ff" d="M796.38,-54.99C817.94,-45.36 846.35,-32.67 867.31,-23.31"/>
<polygon fill="#63b8ff" stroke="#63b8ff" points="868.95,-26.41 876.65,-19.14 866.1,-20.02 868.95,-26.41"/>
</a>
</g>
</g>
<!-- Node14 -->
<g id="Node000014" class="node">
<title>Node14</title>
<g id="a_Node000014"><a xlink:title=" ">
<polygon fill="#e0e0e0" stroke="#999999" points="992.5,-19 935.5,-19 935.5,0 992.5,0 992.5,-19"/>
<text text-anchor="middle" x="964" y="-7" font-family="Helvetica,sans-Serif" font-size="10.00">ostream</text>
</a>
</g>
</g>
<!-- Node11&#45;&gt;Node14 -->
<g id="edge14_Node000011_Node000014" class="edge">
<title>Node11&#45;&gt;Node14</title>
<g id="a_edge14_Node000011_Node000014"><a xlink:title=" ">
<path fill="none" stroke="#63b8ff" d="M812.67,-54.99C847.22,-44.83 893.34,-31.27 925.55,-21.8"/>
<polygon fill="#63b8ff" stroke="#63b8ff" points="926.88,-25.06 935.48,-18.88 924.9,-18.35 926.88,-25.06"/>
</a>
</g>
</g>
<!-- Node15 -->
<g id="Node000015" class="node">
<title>Node15</title>
<g id="a_Node000015"><a xlink:title=" ">
<polygon fill="#e0e0e0" stroke="#999999" points="787.5,-19 742.5,-19 742.5,0 787.5,0 787.5,-19"/>
<text text-anchor="middle" x="765" y="-7" font-family="Helvetica,sans-Serif" font-size="10.00">utility</text>
</a>
</g>
</g>
<!-- Node11&#45;&gt;Node15 -->
<g id="edge15_Node000011_Node000015" class="edge">
<title>Node11&#45;&gt;Node15</title>
<g id="a_edge15_Node000011_Node000015"><a xlink:title=" ">
<path fill="none" stroke="#63b8ff" d="M765,-54.84C765,-47.21 765,-37.7 765,-29.45"/>
<polygon fill="#63b8ff" stroke="#63b8ff" points="768.5,-29.27 765,-19.27 761.5,-29.27 768.5,-29.27"/>
</a>
</g>
</g>
<!-- Node16 -->
<g id="Node000016" class="node">
<title>Node16</title>
<g id="a_Node000016"><a xlink:title=" ">
<polygon fill="#e0e0e0" stroke="#999999" points="856.5,-19 805.5,-19 805.5,0 856.5,0 856.5,-19"/>
<text text-anchor="middle" x="831" y="-7" font-family="Helvetica,sans-Serif" font-size="10.00">variant</text>
</a>
</g>
</g>
<!-- Node11&#45;&gt;Node16 -->
<g id="edge16_Node000011_Node000016" class="edge">
<title>Node11&#45;&gt;Node16</title>
<g id="a_edge16_Node000011_Node000016"><a xlink:title=" ">
<path fill="none" stroke="#63b8ff" d="M780.98,-54.84C790.75,-46.17 803.27,-35.08 813.34,-26.15"/>
<polygon fill="#63b8ff" stroke="#63b8ff" points="815.95,-28.52 821.11,-19.27 811.31,-23.28 815.95,-28.52"/>
</a>
</g>
</g>
<!-- Node17&#45;&gt;Node3 -->
<g id="edge24_Node000017_Node000003" class="edge">
<title>Node17&#45;&gt;Node3</title>
<g id="a_edge24_Node000017_Node000003"><a xlink:title=" ">
<path fill="none" stroke="#63b8ff" d="M339.37,-62.19C270.5,-54.48 158.98,-40.4 54.07,-18.99"/>
<polygon fill="#63b8ff" stroke="#63b8ff" points="54.77,-15.56 44.27,-16.97 53.35,-22.42 54.77,-15.56"/>
</a>
</g>
</g>
<!-- Node17&#45;&gt;Node8 -->
<g id="edge23_Node000017_Node000008" class="edge">
<title>Node17&#45;&gt;Node8</title>
<g id="a_edge23_Node000017_Node000008"><a xlink:title=" ">
<path fill="none" stroke="#63b8ff" d="M425.5,-60.49C449.31,-50.62 488.79,-34.23 516.04,-22.93"/>
<polygon fill="#63b8ff" stroke="#63b8ff" points="517.58,-26.08 525.47,-19.02 514.89,-19.62 517.58,-26.08"/>
</a>
</g>
</g>
<!-- Node17&#45;&gt;Node9 -->
<g id="edge27_Node000017_Node000009" class="edge">
<title>Node17&#45;&gt;Node9</title>
<g id="a_edge27_Node000017_Node000009"><a xlink:title=" ">
<path fill="none" stroke="#63b8ff" d="M435.97,-60.49C475.54,-49.63 543.77,-30.89 584.51,-19.7"/>
<polygon fill="#63b8ff" stroke="#63b8ff" points="585.52,-23.05 594.24,-17.03 583.67,-16.3 585.52,-23.05"/>
</a>
</g>
</g>
<!-- Node17&#45;&gt;Node12 -->
<g id="edge19_Node000017_Node000012" class="edge">
<title>Node17&#45;&gt;Node12</title>
<g id="a_edge19_Node000017_Node000012"><a xlink:title=" ">
<path fill="none" stroke="#63b8ff" d="M446.73,-60.49C501.06,-49.42 595.5,-30.17 649.97,-19.07"/>
<polygon fill="#63b8ff" stroke="#63b8ff" points="650.89,-22.45 659.99,-17.03 649.49,-15.59 650.89,-22.45"/>
</a>
</g>
</g>
<!-- Node17&#45;&gt;Node15 -->
<g id="edge26_Node000017_Node000015" class="edge">
<title>Node17&#45;&gt;Node15</title>
<g id="a_edge26_Node000017_Node000015"><a xlink:title=" ">
<path fill="none" stroke="#63b8ff" d="M448.96,-60.46C459.14,-58.58 469.94,-56.65 480,-55 588.9,-37.1 619.95,-41.35 732.32,-18.9"/>
<polygon fill="#63b8ff" stroke="#63b8ff" points="733.25,-22.29 742.35,-16.87 731.86,-15.42 733.25,-22.29"/>
</a>
</g>
</g>
<!-- Node18 -->
<g id="Node000018" class="node">
<title>Node18</title>
<g id="a_Node000018"><a xlink:title=" ">
<polygon fill="#e0e0e0" stroke="#999999" points="352,-19 302,-19 302,0 352,0 352,-19"/>
<text text-anchor="middle" x="327" y="-7" font-family="Helvetica,sans-Serif" font-size="10.00">chrono</text>
</a>
</g>
</g>
<!-- Node17&#45;&gt;Node18 -->
<g id="edge20_Node000017_Node000018" class="edge">
<title>Node17&#45;&gt;Node18</title>
<g id="a_edge20_Node000017_Node000018"><a xlink:title=" ">
<path fill="none" stroke="#63b8ff" d="M393.49,-60.37C381.16,-51.12 361.38,-36.28 346.59,-25.19"/>
<polygon fill="#63b8ff" stroke="#63b8ff" points="348.66,-22.37 338.56,-19.17 344.46,-27.97 348.66,-22.37"/>
</a>
</g>
</g>
<!-- Node19 -->
<g id="Node000019" class="node">
<title>Node19</title>
<g id="a_Node000019"><a xlink:title=" ">
<polygon fill="#e0e0e0" stroke="#999999" points="423.5,-19 370.5,-19 370.5,0 423.5,0 423.5,-19"/>
<text text-anchor="middle" x="397" y="-7" font-family="Helvetica,sans-Serif" font-size="10.00">cstddef</text>
</a>
</g>
</g>
<!-- Node17&#45;&gt;Node19 -->
<g id="edge21_Node000017_Node000019" class="edge">
<title>Node17&#45;&gt;Node19</title>
<g id="a_edge21_Node000017_Node000019"><a xlink:title=" ">
<path fill="none" stroke="#63b8ff" d="M403.82,-60.37C402.71,-52.25 401.01,-39.81 399.58,-29.39"/>
<polygon fill="#63b8ff" stroke="#63b8ff" points="403.01,-28.6 398.19,-19.17 396.07,-29.55 403.01,-28.6"/>
</a>
</g>
</g>
<!-- Node20 -->
<g id="Node000020" class="node">
<title>Node20</title>
<g id="a_Node000020"><a xlink:title=" ">
<polygon fill="#e0e0e0" stroke="#999999" points="498,-19 442,-19 442,0 498,0 498,-19"/>
<text text-anchor="middle" x="470" y="-7" font-family="Helvetica,sans-Serif" font-size="10.00">iomanip</text>
</a>
</g>
</g>
<!-- Node17&#45;&gt;Node20 -->
<g id="edge22_Node000017_Node000020" class="edge">
<title>Node17&#45;&gt;Node20</title>
<g id="a_edge22_Node000017_Node000020"><a xlink:title=" ">
<path fill="none" stroke="#63b8ff" d="M414.59,-60.37C424.58,-51.38 440.43,-37.11 452.63,-26.14"/>
<polygon fill="#63b8ff" stroke="#63b8ff" points="455.28,-28.46 460.37,-19.17 450.6,-23.26 455.28,-28.46"/>
</a>
</g>
</g>
<!-- Node21 -->
<g id="Node000021" class="node">
<title>Node21</title>
<g id="a_Node000021"><a xlink:title=" ">
<polygon fill="#e0e0e0" stroke="#999999" points="155.5,-19 62.5,-19 62.5,0 155.5,0 155.5,-19"/>
<text text-anchor="middle" x="109" y="-7" font-family="Helvetica,sans-Serif" font-size="10.00">unordered_map</text>
</a>
</g>
</g>
<!-- Node17&#45;&gt;Node21 -->
<g id="edge25_Node000017_Node000021" class="edge">
<title>Node17&#45;&gt;Node21</title>
<g id="a_edge25_Node000017_Node000021"><a xlink:title=" ">
<path fill="none" stroke="#63b8ff" d="M361.96,-60.49C309.02,-50.03 219.16,-32.27 162.02,-20.98"/>
<polygon fill="#63b8ff" stroke="#63b8ff" points="162.58,-17.52 152.09,-19.02 161.22,-24.39 162.58,-17.52"/>
</a>
</g>
</g>
<!-- Node22 -->
<g id="Node000022" class="node">
<title>Node22</title>
<g id="a_Node000022"><a xlink:title=" ">
<polygon fill="#e0e0e0" stroke="#999999" points="284,-19 174,-19 174,0 284,0 284,-19"/>
<text text-anchor="middle" x="229" y="-7" font-family="Helvetica,sans-Serif" font-size="10.00">nlohmann/json.hpp</text>
</a>
</g>
</g>
<!-- Node17&#45;&gt;Node22 -->
<g id="edge28_Node000017_Node000022" class="edge">
<title>Node17&#45;&gt;Node22</title>
<g id="a_edge28_Node000017_Node000022"><a xlink:title=" ">
<path fill="none" stroke="#63b8ff" d="M379.41,-60.49C349.04,-50.4 298.24,-33.51 264.18,-22.19"/>
<polygon fill="#63b8ff" stroke="#63b8ff" points="265.22,-18.85 254.62,-19.02 263.01,-25.49 265.22,-18.85"/>
</a>
</g>
</g>
</g>
</svg>
