<?xml version="1.0" encoding="UTF-8" standalone="no"?>
<!DOCTYPE svg PUBLIC "-//W3C//DTD SVG 1.1//EN"
 "http://www.w3.org/Graphics/SVG/1.1/DTD/svg11.dtd">
<!-- Generated by graphviz version 2.42.4 (0)
 -->
<!-- Title: /__w/vulpes/vulpes/vulpes/la/petsc_utils.hpp Pages: 1 -->
<svg width="613pt" height="214pt"
 viewBox="0.00 0.00 613.00 214.00" xmlns="http://www.w3.org/2000/svg" xmlns:xlink="http://www.w3.org/1999/xlink">
<g id="graph0" class="graph" transform="scale(1 1) rotate(0) translate(4 210)">
<title>/__w/vulpes/vulpes/vulpes/la/petsc_utils.hpp</title>
<!-- Node1 -->
<g id="Node000001" class="node">
<title>Node1</title>
<g id="a_Node000001"><a xlink:title=" ">
<polygon fill="#999999" stroke="#666666" points="178,-206 38,-206 38,-176 178,-176 178,-206"/>
<text text-anchor="start" x="46" y="-194" font-family="Helvetica,sans-Serif" font-size="10.00">/__w/vulpes/vulpes</text>
<text text-anchor="middle" x="108" y="-183" font-family="Helvetica,sans-Serif" font-size="10.00">/vulpes/la/petsc_utils.hpp</text>
</a>
</g>
</g>
<!-- Node2 -->
<g id="Node000002" class="node">
<title>Node2</title>
<g id="a_Node000002"><a xlink:title=" ">
<polygon fill="#e0e0e0" stroke="#999999" points="68,-140 0,-140 0,-121 68,-121 68,-140"/>
<text text-anchor="middle" x="34" y="-128" font-family="Helvetica,sans-Serif" font-size="10.00">petscsys.h</text>
</a>
</g>
</g>
<!-- Node1&#45;&gt;Node2 -->
<g id="edge1_Node000001_Node000002" class="edge">
<title>Node1&#45;&gt;Node2</title>
<g id="a_edge1_Node000001_Node000002"><a xlink:title=" ">
<path fill="none" stroke="#63b8ff" d="M90.09,-175.84C78.91,-167 64.52,-155.63 53.12,-146.62"/>
<polygon fill="#63b8ff" stroke="#63b8ff" points="55.1,-143.72 45.09,-140.27 50.76,-149.21 55.1,-143.72"/>
</a>
</g>
</g>
<!-- Node3 -->
<g id="Node000003" class="node">
<title>Node3</title>
<g id="a_Node000003"><a xlink:title=" ">
<polygon fill="#e0e0e0" stroke="#999999" points="130,-140 86,-140 86,-121 130,-121 130,-140"/>
<text text-anchor="middle" x="108" y="-128" font-family="Helvetica,sans-Serif" font-size="10.00">string</text>
</a>
</g>
</g>
<!-- Node1&#45;&gt;Node3 -->
<g id="edge2_Node000001_Node000003" class="edge">
<title>Node1&#45;&gt;Node3</title>
<g id="a_edge2_Node000001_Node000003"><a xlink:title=" ">
<path fill="none" stroke="#63b8ff" d="M108,-175.84C108,-168.21 108,-158.7 108,-150.45"/>
<polygon fill="#63b8ff" stroke="#63b8ff" points="111.5,-150.27 108,-140.27 104.5,-150.27 111.5,-150.27"/>
</a>
</g>
</g>
<!-- Node4 -->
<g id="Node000004" class="node">
<title>Node4</title>
<g id="a_Node000004"><a xlink:href="mpi__wrappers_8hpp.html" target="_top" xlink:title=" ">
<polygon fill="white" stroke="#666666" points="314,-140 148,-140 148,-121 314,-121 314,-140"/>
<text text-anchor="middle" x="231" y="-128" font-family="Helvetica,sans-Serif" font-size="10.00">vulpes/utils/mpi_wrappers.hpp</text>
</a>
</g>
</g>
<!-- Node1&#45;&gt;Node4 -->
<g id="edge3_Node000001_Node000004" class="edge">
<title>Node1&#45;&gt;Node4</title>
<g id="a_edge3_Node000001_Node000004"><a xlink:title=" ">
<path fill="none" stroke="#63b8ff" d="M137.46,-175.99C157.62,-166.4 184.14,-153.79 203.8,-144.44"/>
<polygon fill="#63b8ff" stroke="#63b8ff" points="205.31,-147.6 212.84,-140.14 202.3,-141.27 205.31,-147.6"/>
</a>
</g>
</g>
<!-- Node5 -->
<g id="Node000005" class="node">
<title>Node5</title>
<g id="a_Node000005"><a xlink:title=" ">
<polygon fill="#e0e0e0" stroke="#999999" points="95,-79.5 51,-79.5 51,-60.5 95,-60.5 95,-79.5"/>
<text text-anchor="middle" x="73" y="-67.5" font-family="Helvetica,sans-Serif" font-size="10.00">mpi.h</text>
</a>
</g>
</g>
<!-- Node4&#45;&gt;Node5 -->
<g id="edge4_Node000004_Node000005" class="edge">
<title>Node4&#45;&gt;Node5</title>
<g id="a_edge4_Node000004_Node000005"><a xlink:title=" ">
<path fill="none" stroke="#63b8ff" d="M204.48,-120.96C178.62,-112.45 138.27,-98.71 104,-85 102.83,-84.53 101.64,-84.04 100.43,-83.54"/>
<polygon fill="#63b8ff" stroke="#63b8ff" points="101.81,-80.32 91.25,-79.56 99.03,-86.75 101.81,-80.32"/>
</a>
</g>
</g>
<!-- Node6 -->
<g id="Node000006" class="node">
<title>Node6</title>
<g id="a_Node000006"><a xlink:title=" ">
<polygon fill="#e0e0e0" stroke="#999999" points="165,-79.5 113,-79.5 113,-60.5 165,-60.5 165,-79.5"/>
<text text-anchor="middle" x="139" y="-67.5" font-family="Helvetica,sans-Serif" font-size="10.00">petsc.h</text>
</a>
</g>
</g>
<!-- Node4&#45;&gt;Node6 -->
<g id="edge5_Node000004_Node000006" class="edge">
<title>Node4&#45;&gt;Node6</title>
<g id="a_edge5_Node000004_Node000006"><a xlink:title=" ">
<path fill="none" stroke="#63b8ff" d="M217.43,-120.87C202.61,-111.45 178.67,-96.23 161.14,-85.08"/>
<polygon fill="#63b8ff" stroke="#63b8ff" points="162.95,-82.08 152.63,-79.67 159.19,-87.99 162.95,-82.08"/>
</a>
</g>
</g>
<!-- Node7 -->
<g id="Node000007" class="node">
<title>Node7</title>
<g id="a_Node000007"><a xlink:title=" ">
<polygon fill="#e0e0e0" stroke="#999999" points="189,-19 137,-19 137,0 189,0 189,-19"/>
<text text-anchor="middle" x="163" y="-7" font-family="Helvetica,sans-Serif" font-size="10.00">cassert</text>
</a>
</g>
</g>
<!-- Node4&#45;&gt;Node7 -->
<g id="edge6_Node000004_Node000007" class="edge">
<title>Node4&#45;&gt;Node7</title>
<g id="a_edge6_Node000004_Node000007"><a xlink:title=" ">
<path fill="none" stroke="#63b8ff" d="M226.11,-120.94C215.04,-101.57 187.87,-54.02 173.05,-28.08"/>
<polygon fill="#63b8ff" stroke="#63b8ff" points="176.03,-26.25 168.03,-19.3 169.95,-29.72 176.03,-26.25"/>
</a>
</g>
</g>
<!-- Node8 -->
<g id="Node000008" class="node">
<title>Node8</title>
<g id="a_Node000008"><a xlink:title=" ">
<polygon fill="#e0e0e0" stroke="#999999" points="455,-79.5 395,-79.5 395,-60.5 455,-60.5 455,-79.5"/>
<text text-anchor="middle" x="425" y="-67.5" font-family="Helvetica,sans-Serif" font-size="10.00">iostream</text>
</a>
</g>
</g>
<!-- Node4&#45;&gt;Node8 -->
<g id="edge7_Node000004_Node000008" class="edge">
<title>Node4&#45;&gt;Node8</title>
<g id="a_edge7_Node000004_Node000008"><a xlink:title=" ">
<path fill="none" stroke="#63b8ff" d="M262.95,-120.98C294.41,-112.44 343.77,-98.63 386,-85 388.11,-84.32 390.29,-83.6 392.47,-82.86"/>
<polygon fill="#63b8ff" stroke="#63b8ff" points="393.7,-86.14 401.99,-79.54 391.39,-79.52 393.7,-86.14"/>
</a>
</g>
</g>
<!-- Node9 -->
<g id="Node000009" class="node">
<title>Node9</title>
<g id="a_Node000009"><a xlink:title=" ">
<polygon fill="#e0e0e0" stroke="#999999" points="254.5,-19 207.5,-19 207.5,0 254.5,0 254.5,-19"/>
<text text-anchor="middle" x="231" y="-7" font-family="Helvetica,sans-Serif" font-size="10.00">vector</text>
</a>
</g>
</g>
<!-- Node4&#45;&gt;Node9 -->
<g id="edge8_Node000004_Node000009" class="edge">
<title>Node4&#45;&gt;Node9</title>
<g id="a_edge8_Node000004_Node000009"><a xlink:title=" ">
<path fill="none" stroke="#63b8ff" d="M231,-120.94C231,-101.91 231,-55.69 231,-29.47"/>
<polygon fill="#63b8ff" stroke="#63b8ff" points="234.5,-29.3 231,-19.3 227.5,-29.3 234.5,-29.3"/>
</a>
</g>
</g>
<!-- Node10 -->
<g id="Node000010" class="node">
<title>Node10</title>
<g id="a_Node000010"><a xlink:title=" ">
<polygon fill="#e0e0e0" stroke="#999999" points="550.5,-79.5 473.5,-79.5 473.5,-60.5 550.5,-60.5 550.5,-79.5"/>
<text text-anchor="middle" x="512" y="-67.5" font-family="Helvetica,sans-Serif" font-size="10.00">Eigen/Dense</text>
</a>
</g>
</g>
<!-- Node4&#45;&gt;Node10 -->
<g id="edge9_Node000004_Node000010" class="edge">
<title>Node4&#45;&gt;Node10</title>
<g id="a_edge9_Node000004_Node000010"><a xlink:title=" ">
<path fill="none" stroke="#63b8ff" d="M283.59,-120.93C331.01,-112.85 402.54,-99.8 464,-85 467.44,-84.17 471,-83.25 474.55,-82.29"/>
<polygon fill="#63b8ff" stroke="#63b8ff" points="475.77,-85.59 484.45,-79.52 473.88,-78.85 475.77,-85.59"/>
</a>
</g>
</g>
<!-- Node11 -->
<g id="Node000011" class="node">
<title>Node11</title>
<g id="a_Node000011"><a xlink:href="crs__map_8hpp.html" target="_top" xlink:title=" ">
<polygon fill="white" stroke="#666666" points="376.5,-85 259.5,-85 259.5,-55 376.5,-55 376.5,-85"/>
<text text-anchor="start" x="267.5" y="-73" font-family="Helvetica,sans-Serif" font-size="10.00">vulpes/datastructure</text>
<text text-anchor="middle" x="318" y="-62" font-family="Helvetica,sans-Serif" font-size="10.00">/crs_map.hpp</text>
</a>
</g>
</g>
<!-- Node4&#45;&gt;Node11 -->
<g id="edge10_Node000004_Node000011" class="edge">
<title>Node4&#45;&gt;Node11</title>
<g id="a_edge10_Node000004_Node000011"><a xlink:title=" ">
<path fill="none" stroke="#63b8ff" d="M243.84,-120.87C255.53,-113 273.25,-101.09 288.43,-90.89"/>
<polygon fill="#63b8ff" stroke="#63b8ff" points="290.66,-93.6 297.01,-85.11 286.76,-87.79 290.66,-93.6"/>
</a>
</g>
</g>
<!-- Node11&#45;&gt;Node7 -->
<g id="edge13_Node000011_Node000007" class="edge">
<title>Node11&#45;&gt;Node7</title>
<g id="a_edge13_Node000011_Node000007"><a xlink:title=" ">
<path fill="none" stroke="#63b8ff" d="M280.87,-54.99C254.78,-45.14 220.22,-32.1 195.27,-22.68"/>
<polygon fill="#63b8ff" stroke="#63b8ff" points="196.48,-19.4 185.89,-19.14 194.01,-25.94 196.48,-19.4"/>
</a>
</g>
</g>
<!-- Node11&#45;&gt;Node9 -->
<g id="edge17_Node000011_Node000009" class="edge">
<title>Node11&#45;&gt;Node9</title>
<g id="a_edge17_Node000011_Node000009"><a xlink:title=" ">
<path fill="none" stroke="#63b8ff" d="M296.94,-54.84C283.46,-45.77 266.01,-34.04 252.45,-24.92"/>
<polygon fill="#63b8ff" stroke="#63b8ff" points="254.03,-21.77 243.78,-19.09 250.13,-27.58 254.03,-21.77"/>
</a>
</g>
</g>
<!-- Node12 -->
<g id="Node000012" class="node">
<title>Node12</title>
<g id="a_Node000012"><a xlink:title=" ">
<polygon fill="#e0e0e0" stroke="#999999" points="605,-19 541,-19 541,0 605,0 605,-19"/>
<text text-anchor="middle" x="573" y="-7" font-family="Helvetica,sans-Serif" font-size="10.00">algorithm</text>
</a>
</g>
</g>
<!-- Node11&#45;&gt;Node12 -->
<g id="edge11_Node000011_Node000012" class="edge">
<title>Node11&#45;&gt;Node12</title>
<g id="a_edge11_Node000011_Node000012"><a xlink:title=" ">
<path fill="none" stroke="#63b8ff" d="M376.5,-55.58C423.64,-44.77 488.78,-29.82 530.9,-20.16"/>
<polygon fill="#63b8ff" stroke="#63b8ff" points="531.86,-23.53 540.83,-17.88 530.3,-16.71 531.86,-23.53"/>
</a>
</g>
</g>
<!-- Node13 -->
<g id="Node000013" class="node">
<title>Node13</title>
<g id="a_Node000013"><a xlink:title=" ">
<polygon fill="#e0e0e0" stroke="#999999" points="315,-19 273,-19 273,0 315,0 315,-19"/>
<text text-anchor="middle" x="294" y="-7" font-family="Helvetica,sans-Serif" font-size="10.00">array</text>
</a>
</g>
</g>
<!-- Node11&#45;&gt;Node13 -->
<g id="edge12_Node000011_Node000013" class="edge">
<title>Node11&#45;&gt;Node13</title>
<g id="a_edge12_Node000011_Node000013"><a xlink:title=" ">
<path fill="none" stroke="#63b8ff" d="M312.19,-54.84C308.96,-46.95 304.89,-37.05 301.43,-28.61"/>
<polygon fill="#63b8ff" stroke="#63b8ff" points="304.63,-27.19 297.6,-19.27 298.15,-29.85 304.63,-27.19"/>
</a>
</g>
</g>
<!-- Node14 -->
<g id="Node000014" class="node">
<title>Node14</title>
<g id="a_Node000014"><a xlink:title=" ">
<polygon fill="#e0e0e0" stroke="#999999" points="390.5,-19 333.5,-19 333.5,0 390.5,0 390.5,-19"/>
<text text-anchor="middle" x="362" y="-7" font-family="Helvetica,sans-Serif" font-size="10.00">ostream</text>
</a>
</g>
</g>
<!-- Node11&#45;&gt;Node14 -->
<g id="edge14_Node000011_Node000014" class="edge">
<title>Node11&#45;&gt;Node14</title>
<g id="a_edge14_Node000011_Node000014"><a xlink:title=" ">
<path fill="none" stroke="#63b8ff" d="M328.65,-54.84C334.84,-46.61 342.69,-36.18 349.21,-27.51"/>
<polygon fill="#63b8ff" stroke="#63b8ff" points="352.19,-29.36 355.41,-19.27 346.6,-25.15 352.19,-29.36"/>
</a>
</g>
</g>
<!-- Node15 -->
<g id="Node000015" class="node">
<title>Node15</title>
<g id="a_Node000015"><a xlink:title=" ">
<polygon fill="#e0e0e0" stroke="#999999" points="453.5,-19 408.5,-19 408.5,0 453.5,0 453.5,-19"/>
<text text-anchor="middle" x="431" y="-7" font-family="Helvetica,sans-Serif" font-size="10.00">utility</text>
</a>
</g>
</g>
<!-- Node11&#45;&gt;Node15 -->
<g id="edge15_Node000011_Node000015" class="edge">
<title>Node11&#45;&gt;Node15</title>
<g id="a_edge15_Node000011_Node000015"><a xlink:title=" ">
<path fill="none" stroke="#63b8ff" d="M345.07,-54.99C363.25,-45.58 387.07,-33.24 405.02,-23.95"/>
<polygon fill="#63b8ff" stroke="#63b8ff" points="407.04,-26.84 414.31,-19.14 403.82,-20.63 407.04,-26.84"/>
</a>
</g>
</g>
<!-- Node16 -->
<g id="Node000016" class="node">
<title>Node16</title>
<g id="a_Node000016"><a xlink:title=" ">
<polygon fill="#e0e0e0" stroke="#999999" points="522.5,-19 471.5,-19 471.5,0 522.5,0 522.5,-19"/>
<text text-anchor="middle" x="497" y="-7" font-family="Helvetica,sans-Serif" font-size="10.00">variant</text>
</a>
</g>
</g>
<!-- Node11&#45;&gt;Node16 -->
<g id="edge16_Node000011_Node000016" class="edge">
<title>Node11&#45;&gt;Node16</title>
<g id="a_edge16_Node000011_Node000016"><a xlink:title=" ">
<path fill="none" stroke="#63b8ff" d="M360.87,-54.99C391.68,-44.92 432.72,-31.51 461.66,-22.05"/>
<polygon fill="#63b8ff" stroke="#63b8ff" points="462.93,-25.32 471.35,-18.88 460.76,-18.66 462.93,-25.32"/>
</a>
</g>
</g>
</g>
</svg>
