<?xml version="1.0" encoding="UTF-8" standalone="no"?>
<!DOCTYPE svg PUBLIC "-//W3C//DTD SVG 1.1//EN"
 "http://www.w3.org/Graphics/SVG/1.1/DTD/svg11.dtd">
<!-- Generated by graphviz version 2.42.4 (0)
 -->
<!-- Title: /__w/vulpes/vulpes/vulpes/la/petsc_utils.hpp Pages: 1 -->
<svg width="637pt" height="324pt"
 viewBox="0.00 0.00 636.50 324.00" xmlns="http://www.w3.org/2000/svg" xmlns:xlink="http://www.w3.org/1999/xlink">
<g id="graph0" class="graph" transform="scale(1 1) rotate(0) translate(4 320)">
<title>/__w/vulpes/vulpes/vulpes/la/petsc_utils.hpp</title>
<!-- Node1 -->
<g id="Node000001" class="node">
<title>Node1</title>
<g id="a_Node000001"><a xlink:title=" ">
<polygon fill="#999999" stroke="#666666" points="373,-316 233,-316 233,-286 373,-286 373,-316"/>
<text text-anchor="start" x="241" y="-304" font-family="Helvetica,sans-Serif" font-size="10.00">/__w/vulpes/vulpes</text>
<text text-anchor="middle" x="303" y="-293" font-family="Helvetica,sans-Serif" font-size="10.00">/vulpes/la/petsc_utils.hpp</text>
</a>
</g>
</g>
<!-- Node2 -->
<g id="Node000002" class="node">
<title>Node2</title>
<g id="a_Node000002"><a xlink:href="linear__solver_8hpp.html" target="_top" xlink:title=" ">
<polygon fill="white" stroke="#666666" points="150,-101.5 0,-101.5 0,-71.5 150,-71.5 150,-101.5"/>
<text text-anchor="start" x="8" y="-89.5" font-family="Helvetica,sans-Serif" font-size="10.00">/__w/vulpes/vulpes</text>
<text text-anchor="middle" x="75" y="-78.5" font-family="Helvetica,sans-Serif" font-size="10.00">/vulpes/la/linear_solver.hpp</text>
</a>
</g>
</g>
<!-- Node1&#45;&gt;Node2 -->
<g id="edge1_Node000001_Node000002" class="edge">
<title>Node1&#45;&gt;Node2</title>
<g id="a_edge1_Node000001_Node000002"><a xlink:title=" ">
<path fill="none" stroke="#63b8ff" d="M224.32,-283.16C171.23,-267.27 105.05,-237.58 72,-184 56.25,-158.46 63.99,-121.46 70.07,-101.51"/>
<polygon fill="#63b8ff" stroke="#63b8ff" points="223.49,-286.56 234.07,-285.97 225.43,-279.84 223.49,-286.56"/>
</a>
</g>
</g>
<!-- Node4 -->
<g id="Node000004" class="node">
<title>Node4</title>
<g id="a_Node000004"><a xlink:href="sparse__matrix_8hpp.html" target="_top" xlink:title=" ">
<polygon fill="white" stroke="#666666" points="581,-178.5 423,-178.5 423,-148.5 581,-148.5 581,-178.5"/>
<text text-anchor="start" x="431" y="-166.5" font-family="Helvetica,sans-Serif" font-size="10.00">/__w/vulpes/vulpes</text>
<text text-anchor="middle" x="502" y="-155.5" font-family="Helvetica,sans-Serif" font-size="10.00">/vulpes/la/sparse_matrix.hpp</text>
</a>
</g>
</g>
<!-- Node1&#45;&gt;Node4 -->
<g id="edge3_Node000001_Node000004" class="edge">
<title>Node1&#45;&gt;Node4</title>
<g id="a_edge3_Node000001_Node000004"><a xlink:title=" ">
<path fill="none" stroke="#63b8ff" d="M332.35,-280.02C373.11,-252.26 445.86,-202.73 481.36,-178.55"/>
<polygon fill="#63b8ff" stroke="#63b8ff" points="330.22,-277.23 323.92,-285.76 334.16,-283.02 330.22,-277.23"/>
</a>
</g>
</g>
<!-- Node7 -->
<g id="Node000007" class="node">
<title>Node7</title>
<g id="a_Node000007"><a xlink:href="vector_8hpp.html" target="_top" xlink:title=" ">
<polygon fill="white" stroke="#666666" points="362,-250 244,-250 244,-220 362,-220 362,-250"/>
<text text-anchor="start" x="252" y="-238" font-family="Helvetica,sans-Serif" font-size="10.00">/__w/vulpes/vulpes</text>
<text text-anchor="middle" x="303" y="-227" font-family="Helvetica,sans-Serif" font-size="10.00">/vulpes/la/vector.hpp</text>
</a>
</g>
</g>
<!-- Node1&#45;&gt;Node7 -->
<g id="edge7_Node000001_Node000007" class="edge">
<title>Node1&#45;&gt;Node7</title>
<g id="a_edge7_Node000001_Node000007"><a xlink:title=" ">
<path fill="none" stroke="#63b8ff" d="M303,-275.54C303,-266.96 303,-257.61 303,-250.16"/>
<polygon fill="#63b8ff" stroke="#63b8ff" points="299.5,-275.8 303,-285.8 306.5,-275.8 299.5,-275.8"/>
</a>
</g>
</g>
<!-- Node3 -->
<g id="Node000003" class="node">
<title>Node3</title>
<g id="a_Node000003"><a xlink:href="linear__solver_8cpp.html" target="_top" xlink:title=" ">
<polygon fill="white" stroke="#666666" points="149.5,-30 0.5,-30 0.5,0 149.5,0 149.5,-30"/>
<text text-anchor="start" x="8.5" y="-18" font-family="Helvetica,sans-Serif" font-size="10.00">/__w/vulpes/vulpes</text>
<text text-anchor="middle" x="75" y="-7" font-family="Helvetica,sans-Serif" font-size="10.00">/vulpes/la/linear_solver.cpp</text>
</a>
</g>
</g>
<!-- Node2&#45;&gt;Node3 -->
<g id="edge2_Node000002_Node000003" class="edge">
<title>Node2&#45;&gt;Node3</title>
<g id="a_edge2_Node000002_Node000003"><a xlink:title=" ">
<path fill="none" stroke="#63b8ff" d="M75,-61.25C75,-50.81 75,-38.99 75,-30.04"/>
<polygon fill="#63b8ff" stroke="#63b8ff" points="71.5,-61.44 75,-71.44 78.5,-61.44 71.5,-61.44"/>
</a>
</g>
</g>
<!-- Node4&#45;&gt;Node2 -->
<g id="edge5_Node000004_Node000002" class="edge">
<title>Node4&#45;&gt;Node2</title>
<g id="a_edge5_Node000004_Node000002"><a xlink:title=" ">
<path fill="none" stroke="#63b8ff" d="M412.43,-146.77C334.72,-133.12 223.51,-113.59 150.31,-100.73"/>
<polygon fill="#63b8ff" stroke="#63b8ff" points="412.23,-150.29 422.69,-148.57 413.44,-143.39 412.23,-150.29"/>
</a>
</g>
</g>
<!-- Node5 -->
<g id="Node000005" class="node">
<title>Node5</title>
<g id="a_Node000005"><a xlink:href="dg__utils_8hpp.html" target="_top" xlink:title=" ">
<polygon fill="white" stroke="#666666" points="453.5,-107 336.5,-107 336.5,-66 453.5,-66 453.5,-107"/>
<text text-anchor="start" x="344.5" y="-95" font-family="Helvetica,sans-Serif" font-size="10.00">/__w/vulpes/vulpes</text>
<text text-anchor="start" x="344.5" y="-84" font-family="Helvetica,sans-Serif" font-size="10.00">/vulpes/assemble/dg</text>
<text text-anchor="middle" x="395" y="-73" font-family="Helvetica,sans-Serif" font-size="10.00">_utils.hpp</text>
</a>
</g>
</g>
<!-- Node4&#45;&gt;Node5 -->
<g id="edge4_Node000004_Node000005" class="edge">
<title>Node4&#45;&gt;Node5</title>
<g id="a_edge4_Node000004_Node000005"><a xlink:title=" ">
<path fill="none" stroke="#63b8ff" d="M473.62,-142.61C458,-131.66 438.69,-118.12 423.11,-107.2"/>
<polygon fill="#63b8ff" stroke="#63b8ff" points="471.68,-145.52 481.87,-148.39 475.69,-139.79 471.68,-145.52"/>
</a>
</g>
</g>
<!-- Node6 -->
<g id="Node000006" class="node">
<title>Node6</title>
<g id="a_Node000006"><a xlink:href="sparse__matrix_8cpp.html" target="_top" xlink:title=" ">
<polygon fill="white" stroke="#666666" points="628.5,-101.5 471.5,-101.5 471.5,-71.5 628.5,-71.5 628.5,-101.5"/>
<text text-anchor="start" x="479.5" y="-89.5" font-family="Helvetica,sans-Serif" font-size="10.00">/__w/vulpes/vulpes</text>
<text text-anchor="middle" x="550" y="-78.5" font-family="Helvetica,sans-Serif" font-size="10.00">/vulpes/la/sparse_matrix.cpp</text>
</a>
</g>
</g>
<!-- Node4&#45;&gt;Node6 -->
<g id="edge6_Node000004_Node000006" class="edge">
<title>Node4&#45;&gt;Node6</title>
<g id="a_edge6_Node000004_Node000006"><a xlink:title=" ">
<path fill="none" stroke="#63b8ff" d="M516.48,-139.88C524.46,-127.41 534.12,-112.32 541.01,-101.54"/>
<polygon fill="#63b8ff" stroke="#63b8ff" points="513.47,-138.08 511.03,-148.39 519.37,-141.86 513.47,-138.08"/>
</a>
</g>
</g>
<!-- Node7&#45;&gt;Node2 -->
<g id="edge9_Node000007_Node000002" class="edge">
<title>Node7&#45;&gt;Node2</title>
<g id="a_edge9_Node000007_Node000002"><a xlink:title=" ">
<path fill="none" stroke="#63b8ff" d="M233.72,-225.55C180.59,-217.64 113.21,-204 94,-184 72.59,-161.71 71.96,-122.7 73.42,-101.76"/>
<polygon fill="#63b8ff" stroke="#63b8ff" points="233.4,-229.04 243.8,-227.01 234.4,-222.11 233.4,-229.04"/>
</a>
</g>
</g>
<!-- Node7&#45;&gt;Node4 -->
<g id="edge10_Node000007_Node000004" class="edge">
<title>Node7&#45;&gt;Node4</title>
<g id="a_edge10_Node000007_Node000004"><a xlink:title=" ">
<path fill="none" stroke="#63b8ff" d="M352.92,-216.57C386.57,-204.81 430.38,-189.51 461.79,-178.54"/>
<polygon fill="#63b8ff" stroke="#63b8ff" points="351.56,-213.33 343.27,-219.94 353.87,-219.94 351.56,-213.33"/>
</a>
</g>
</g>
<!-- Node7&#45;&gt;Node5 -->
<g id="edge8_Node000007_Node000005" class="edge">
<title>Node7&#45;&gt;Node5</title>
<g id="a_edge8_Node000007_Node000005"><a xlink:title=" ">
<path fill="none" stroke="#63b8ff" d="M342.88,-214.59C355.25,-206.71 367.77,-196.49 376,-184 391.31,-160.75 394.82,-127.99 395.36,-107.25"/>
<polygon fill="#63b8ff" stroke="#63b8ff" points="340.76,-211.77 333.96,-219.9 344.34,-217.79 340.76,-211.77"/>
</a>
</g>
</g>
<!-- Node8 -->
<g id="Node000008" class="node">
<title>Node8</title>
<g id="a_Node000008"><a xlink:href="vector_8cpp.html" target="_top" xlink:title=" ">
<polygon fill="white" stroke="#666666" points="220.5,-178.5 103.5,-178.5 103.5,-148.5 220.5,-148.5 220.5,-178.5"/>
<text text-anchor="start" x="111.5" y="-166.5" font-family="Helvetica,sans-Serif" font-size="10.00">/__w/vulpes/vulpes</text>
<text text-anchor="middle" x="162" y="-155.5" font-family="Helvetica,sans-Serif" font-size="10.00">/vulpes/la/vector.cpp</text>
</a>
</g>
</g>
<!-- Node7&#45;&gt;Node8 -->
<g id="edge11_Node000007_Node000008" class="edge">
<title>Node7&#45;&gt;Node8</title>
<g id="a_edge11_Node000007_Node000008"><a xlink:title=" ">
<path fill="none" stroke="#63b8ff" d="M265.46,-215.5C241.93,-203.9 212.08,-189.18 190.49,-178.54"/>
<polygon fill="#63b8ff" stroke="#63b8ff" points="263.95,-218.65 274.47,-219.94 267.04,-212.38 263.95,-218.65"/>
</a>
</g>
</g>
<!-- Node9 -->
<g id="Node000009" class="node">
<title>Node9</title>
<g id="a_Node000009"><a xlink:href="project__solution_8hpp.html" target="_top" xlink:title=" ">
<polygon fill="white" stroke="#666666" points="367,-184 239,-184 239,-143 367,-143 367,-184"/>
<text text-anchor="start" x="247" y="-172" font-family="Helvetica,sans-Serif" font-size="10.00">/__w/vulpes/vulpes</text>
<text text-anchor="start" x="247" y="-161" font-family="Helvetica,sans-Serif" font-size="10.00">/vulpes/postprocessing</text>
<text text-anchor="middle" x="303" y="-150" font-family="Helvetica,sans-Serif" font-size="10.00">/project_solution.hpp</text>
</a>
</g>
</g>
<!-- Node7&#45;&gt;Node9 -->
<g id="edge12_Node000007_Node000009" class="edge">
<title>Node7&#45;&gt;Node9</title>
<g id="a_edge12_Node000007_Node000009"><a xlink:title=" ">
<path fill="none" stroke="#63b8ff" d="M303,-209.91C303,-201.47 303,-192.1 303,-184.07"/>
<polygon fill="#63b8ff" stroke="#63b8ff" points="299.5,-209.94 303,-219.94 306.5,-209.94 299.5,-209.94"/>
</a>
</g>
</g>
</g>
</svg>
