<?xml version="1.0" encoding="UTF-8" standalone="no"?>
<!DOCTYPE svg PUBLIC "-//W3C//DTD SVG 1.1//EN"
 "http://www.w3.org/Graphics/SVG/1.1/DTD/svg11.dtd">
<!-- Generated by graphviz version 12.2.1 (20241206.2353)
 -->
<!-- Title: /Users/ilariomazzieri/Desktop/vulpes/vulpes/la/petsc_utils.hpp Pages: 1 -->
<!--zoomable 605 -->

<svg id="main" version="1.1" xmlns="http://www.w3.org/2000/svg" xmlns:xlink="http://www.w3.org/1999/xlink" xml:space="preserve" onload="init(evt)">
<style type="text/css"><![CDATA[
.node, .edge {opacity: 0.7;}
.node.selected, .edge.selected {opacity: 1;}
.edge:hover path { stroke: red; }
.edge:hover polygon { stroke: red; fill: red; }
]]></style>

<defs>
  <circle id="rim" cx="0" cy="0" r="7"/>
  <circle id="rim2" cx="0" cy="0" r="3.5"/>
  <g id="zoomPlus">
    <use xlink:href="#rim" fill="#404040"><set attributeName="fill" to="#808080" begin="zoomplus.mouseover" end="zoomplus.mouseout"/></use>
    <path d="M-4,0h8M0,-4v8" fill="none" stroke="white" stroke-width="1.5" pointer-events="none"/>
  </g>
  <g id="zoomMin">
    <use xlink:href="#rim" fill="#404040"><set attributeName="fill" to="#808080" begin="zoomminus.mouseover" end="zoomminus.mouseout"/></use>
    <path d="M-4,0h8" fill="none" stroke="white" stroke-width="1.5" pointer-events="none"/>
  </g>
  <g id="arrowUp" transform="translate(30 24)">
    <use xlink:href="#rim"/>
    <path pointer-events="none" fill="none" stroke="white" stroke-width="1.5" d="M0,-3.0v7 M-2.5,-0.5L0,-3.0L2.5,-0.5"/>
  </g>
  <g id="arrowRight" transform="rotate(90) translate(36 -43)">
    <use xlink:href="#rim"/>
    <path pointer-events="none" fill="none" stroke="white" stroke-width="1.5" d="M0,-3.0v7 M-2.5,-0.5L0,-3.0L2.5,-0.5"/>
  </g>
  <g id="arrowDown" transform="rotate(180) translate(-30 -48)">
    <use xlink:href="#rim"/>
    <path pointer-events="none" fill="none" stroke="white" stroke-width="1.5" d="M0,-3.0v7 M-2.5,-0.5L0,-3.0L2.5,-0.5"/>
  </g>
  <g id="arrowLeft" transform="rotate(270) translate(-36 17)">
    <use xlink:href="#rim"/>
    <path pointer-events="none" fill="none" stroke="white" stroke-width="1.5" d="M0,-3.0v7 M-2.5,-0.5L0,-3.0L2.5,-0.5"/>
  </g>
  <g id="resetDef">
    <use xlink:href="#rim2" fill="#404040"><set attributeName="fill" to="#808080" begin="reset.mouseover" end="reset.mouseout"/></use>
  </g>
</defs>
<script type="application/ecmascript">
var viewWidth = 1486;
var viewHeight = 605;
var sectionId = 'dynsection-1';
</script>
<script type="application/ecmascript" xlink:href="svg.min.js"/>
<svg id="graph" class="graph">
<g id="viewport">
<title>/Users/ilariomazzieri/Desktop/vulpes/vulpes/la/petsc_utils.hpp</title>
<!-- Node1 -->
<g id="Node000001" class="node">
<title>Node1</title>
<g id="a_Node000001"><a xlink:title=" ">
<polygon fill="#999999" stroke="#666666" points="467.12,-597.25 348.38,-597.25 348.38,-555.5 467.12,-555.5 467.12,-597.25"/>
<text text-anchor="start" x="356.38" y="-583.75" font-family="Helvetica,sans-Serif" font-size="10.00">/Users/ilariomazzieri</text>
<text text-anchor="start" x="356.38" y="-572.5" font-family="Helvetica,sans-Serif" font-size="10.00">/Desktop/vulpes/vulpes</text>
<text text-anchor="middle" x="407.75" y="-561.25" font-family="Helvetica,sans-Serif" font-size="10.00">/la/petsc_utils.hpp</text>
</a>
</g>
</g>
<!-- Node2 -->
<g id="Node000002" class="node">
<title>Node2</title>
<g id="a_Node000002"><a xlink:href="linear__solver_8hpp.html" target="_top" xlink:title=" ">
<polygon fill="white" stroke="#666666" points="432.12,-352.75 313.38,-352.75 313.38,-311 432.12,-311 432.12,-352.75"/>
<text text-anchor="start" x="321.38" y="-339.25" font-family="Helvetica,sans-Serif" font-size="10.00">/Users/ilariomazzieri</text>
<text text-anchor="start" x="321.38" y="-328" font-family="Helvetica,sans-Serif" font-size="10.00">/Desktop/vulpes/vulpes</text>
<text text-anchor="middle" x="372.75" y="-316.75" font-family="Helvetica,sans-Serif" font-size="10.00">/la/linear_solver.hpp</text>
</a>
</g>
</g>
<!-- Node1&#45;&gt;Node2 -->
<g id="edge1_Node000001_Node000002" class="edge">
<title>Node1&#45;&gt;Node2</title>
<g id="a_edge1_Node000001_Node000002"><a xlink:title=" ">
<path fill="none" stroke="#63b8ff" d="M365.61,-548.46C332.86,-524.82 289.9,-487.17 270.75,-441.75 261.6,-420.04 258.74,-409.02 270.75,-388.75 280.32,-372.59 296.4,-360.8 312.99,-352.34"/>
<polygon fill="#63b8ff" stroke="#63b8ff" points="363.54,-551.28 373.74,-554.17 367.57,-545.56 363.54,-551.28"/>
</a>
</g>
</g>
<!-- Node12 -->
<g id="Node000012" class="node">
<title>Node12</title>
<g id="a_Node000012"><a xlink:href="sparse__matrix_8hpp.html" target="_top" xlink:title=" ">
<polygon fill="white" stroke="#666666" points="412.12,-436.12 293.38,-436.12 293.38,-394.38 412.12,-394.38 412.12,-436.12"/>
<text text-anchor="start" x="301.38" y="-422.62" font-family="Helvetica,sans-Serif" font-size="10.00">/Users/ilariomazzieri</text>
<text text-anchor="start" x="301.38" y="-411.38" font-family="Helvetica,sans-Serif" font-size="10.00">/Desktop/vulpes/vulpes</text>
<text text-anchor="middle" x="352.75" y="-400.12" font-family="Helvetica,sans-Serif" font-size="10.00">/la/sparse_matrix.hpp</text>
</a>
</g>
</g>
<!-- Node1&#45;&gt;Node12 -->
<g id="edge11_Node000001_Node000012" class="edge">
<title>Node1&#45;&gt;Node12</title>
<g id="a_edge11_Node000001_Node000012"><a xlink:title=" ">
<path fill="none" stroke="#63b8ff" d="M397.16,-544.72C386.14,-512.84 369.2,-463.84 359.75,-436.49"/>
<polygon fill="#63b8ff" stroke="#63b8ff" points="393.71,-545.48 400.29,-553.79 400.33,-543.2 393.71,-545.48"/>
</a>
</g>
</g>
<!-- Node14 -->
<g id="Node000014" class="node">
<title>Node14</title>
<g id="a_Node000014"><a xlink:href="la_2tensor_8hpp.html" target="_top" xlink:title=" ">
<polygon fill="white" stroke="#666666" points="673.12,-519.5 554.38,-519.5 554.38,-477.75 673.12,-477.75 673.12,-519.5"/>
<text text-anchor="start" x="562.38" y="-506" font-family="Helvetica,sans-Serif" font-size="10.00">/Users/ilariomazzieri</text>
<text text-anchor="start" x="562.38" y="-494.75" font-family="Helvetica,sans-Serif" font-size="10.00">/Desktop/vulpes/vulpes</text>
<text text-anchor="middle" x="613.75" y="-483.5" font-family="Helvetica,sans-Serif" font-size="10.00">/la/tensor.hpp</text>
</a>
</g>
</g>
<!-- Node1&#45;&gt;Node14 -->
<g id="edge19_Node000001_Node000014" class="edge">
<title>Node1&#45;&gt;Node14</title>
<g id="a_edge19_Node000001_Node000014"><a xlink:title=" ">
<path fill="none" stroke="#63b8ff" d="M473.6,-551.16C500.93,-541.11 532.28,-529.58 558.39,-519.98"/>
<polygon fill="#63b8ff" stroke="#63b8ff" points="472.55,-547.82 464.37,-554.55 474.97,-554.39 472.55,-547.82"/>
</a>
</g>
</g>
<!-- Node15 -->
<g id="Node000015" class="node">
<title>Node15</title>
<g id="a_Node000015"><a xlink:href="vector_8hpp.html" target="_top" xlink:title=" ">
<polygon fill="white" stroke="#666666" points="536.12,-519.5 417.38,-519.5 417.38,-477.75 536.12,-477.75 536.12,-519.5"/>
<text text-anchor="start" x="425.38" y="-506" font-family="Helvetica,sans-Serif" font-size="10.00">/Users/ilariomazzieri</text>
<text text-anchor="start" x="425.38" y="-494.75" font-family="Helvetica,sans-Serif" font-size="10.00">/Desktop/vulpes/vulpes</text>
<text text-anchor="middle" x="476.75" y="-483.5" font-family="Helvetica,sans-Serif" font-size="10.00">/la/vector.hpp</text>
</a>
</g>
</g>
<!-- Node1&#45;&gt;Node15 -->
<g id="edge20_Node000001_Node000015" class="edge">
<title>Node1&#45;&gt;Node15</title>
<g id="a_edge20_Node000001_Node000015"><a xlink:title=" ">
<path fill="none" stroke="#63b8ff" d="M433.77,-546.81C441.9,-537.89 450.7,-528.22 458.21,-519.98"/>
<polygon fill="#63b8ff" stroke="#63b8ff" points="431.41,-544.21 427.26,-553.96 436.58,-548.92 431.41,-544.21"/>
</a>
</g>
</g>
<!-- Node3 -->
<g id="Node000003" class="node">
<title>Node3</title>
<g id="a_Node000003"><a xlink:href="dg__utils_8hpp.html" target="_top" xlink:title=" ">
<polygon fill="white" stroke="#666666" points="958.12,-41.75 839.38,-41.75 839.38,0 958.12,0 958.12,-41.75"/>
<text text-anchor="start" x="847.38" y="-28.25" font-family="Helvetica,sans-Serif" font-size="10.00">/Users/ilariomazzieri</text>
<text text-anchor="start" x="847.38" y="-17" font-family="Helvetica,sans-Serif" font-size="10.00">/Desktop/vulpes/vulpes</text>
<text text-anchor="middle" x="898.75" y="-5.75" font-family="Helvetica,sans-Serif" font-size="10.00">/assemble/dg_utils.hpp</text>
</a>
</g>
</g>
<!-- Node2&#45;&gt;Node3 -->
<g id="edge2_Node000002_Node000003" class="edge">
<title>Node2&#45;&gt;Node3</title>
<g id="a_edge2_Node000002_Node000003"><a xlink:title=" ">
<path fill="none" stroke="#63b8ff" d="M418.71,-304.51C432.44,-295.82 447.17,-285.63 459.75,-275 478.91,-258.8 477.91,-248.61 497.75,-233.25 611.63,-145.09 767.61,-74.96 847.31,-42.13"/>
<polygon fill="#63b8ff" stroke="#63b8ff" points="416.88,-301.53 410.22,-309.77 420.56,-307.48 416.88,-301.53"/>
</a>
</g>
</g>
<!-- Node4 -->
<g id="Node000004" class="node">
<title>Node4</title>
<g id="a_Node000004"><a xlink:href="linear__solver_8cpp.html" target="_top" xlink:title=" ">
<polygon fill="white" stroke="#666666" points="451.12,-275 332.38,-275 332.38,-233.25 451.12,-233.25 451.12,-275"/>
<text text-anchor="start" x="340.38" y="-261.5" font-family="Helvetica,sans-Serif" font-size="10.00">/Users/ilariomazzieri</text>
<text text-anchor="start" x="340.38" y="-250.25" font-family="Helvetica,sans-Serif" font-size="10.00">/Desktop/vulpes/vulpes</text>
<text text-anchor="middle" x="391.75" y="-239" font-family="Helvetica,sans-Serif" font-size="10.00">/la/linear_solver.cpp</text>
</a>
</g>
</g>
<!-- Node2&#45;&gt;Node4 -->
<g id="edge3_Node000002_Node000004" class="edge">
<title>Node2&#45;&gt;Node4</title>
<g id="a_edge3_Node000002_Node000004"><a xlink:title=" ">
<path fill="none" stroke="#63b8ff" d="M380.61,-299.53C382.65,-291.41 384.79,-282.87 386.64,-275.48"/>
<polygon fill="#63b8ff" stroke="#63b8ff" points="377.25,-298.56 378.21,-309.11 384.04,-300.26 377.25,-298.56"/>
</a>
</g>
</g>
<!-- Node5 -->
<g id="Node000005" class="node">
<title>Node5</title>
<g id="a_Node000005"><a xlink:href="cranknicolson_8hpp.html" target="_top" xlink:title=" ">
<polygon fill="white" stroke="#666666" points="833,-275 668.5,-275 668.5,-233.25 833,-233.25 833,-275"/>
<text text-anchor="start" x="676.5" y="-261.5" font-family="Helvetica,sans-Serif" font-size="10.00">/Users/ilariomazzieri</text>
<text text-anchor="start" x="676.5" y="-250.25" font-family="Helvetica,sans-Serif" font-size="10.00">/Desktop/vulpes/vulpes</text>
<text text-anchor="middle" x="750.75" y="-239" font-family="Helvetica,sans-Serif" font-size="10.00">/timeintegration/cranknicolson.hpp</text>
</a>
</g>
</g>
<!-- Node2&#45;&gt;Node5 -->
<g id="edge4_Node000002_Node000005" class="edge">
<title>Node2&#45;&gt;Node5</title>
<g id="a_edge4_Node000002_Node000005"><a xlink:title=" ">
<path fill="none" stroke="#63b8ff" d="M443.56,-310.73C539.49,-289.64 566.79,-292.82 659.75,-275 662.61,-274.45 665.52,-273.88 668.45,-273.3"/>
<polygon fill="#63b8ff" stroke="#63b8ff" points="442.95,-307.28 433.96,-312.88 444.48,-314.11 442.95,-307.28"/>
</a>
</g>
</g>
<!-- Node7 -->
<g id="Node000007" class="node">
<title>Node7</title>
<g id="a_Node000007"><a xlink:href="imex_8hpp.html" target="_top" xlink:title=" ">
<polygon fill="white" stroke="#666666" points="650.88,-275 506.62,-275 506.62,-233.25 650.88,-233.25 650.88,-275"/>
<text text-anchor="start" x="514.62" y="-261.5" font-family="Helvetica,sans-Serif" font-size="10.00">/Users/ilariomazzieri</text>
<text text-anchor="start" x="514.62" y="-250.25" font-family="Helvetica,sans-Serif" font-size="10.00">/Desktop/vulpes/vulpes</text>
<text text-anchor="middle" x="578.75" y="-239" font-family="Helvetica,sans-Serif" font-size="10.00">/timeintegration/dae/imex.hpp</text>
</a>
</g>
</g>
<!-- Node2&#45;&gt;Node7 -->
<g id="edge6_Node000002_Node000007" class="edge">
<title>Node2&#45;&gt;Node7</title>
<g id="a_edge6_Node000002_Node000007"><a xlink:title=" ">
<path fill="none" stroke="#63b8ff" d="M438.6,-306.66C465.93,-296.61 497.28,-285.08 523.39,-275.48"/>
<polygon fill="#63b8ff" stroke="#63b8ff" points="437.55,-303.32 429.37,-310.05 439.97,-309.89 437.55,-303.32"/>
</a>
</g>
</g>
<!-- Node8 -->
<g id="Node000008" class="node">
<title>Node8</title>
<g id="a_Node000008"><a xlink:href="solverfkpp_8hpp.html" target="_top" xlink:title=" ">
<polygon fill="white" stroke="#666666" points="149.5,-275 0,-275 0,-233.25 149.5,-233.25 149.5,-275"/>
<text text-anchor="start" x="8" y="-261.5" font-family="Helvetica,sans-Serif" font-size="10.00">/Users/ilariomazzieri</text>
<text text-anchor="start" x="8" y="-250.25" font-family="Helvetica,sans-Serif" font-size="10.00">/Desktop/vulpes/vulpes</text>
<text text-anchor="middle" x="74.75" y="-239" font-family="Helvetica,sans-Serif" font-size="10.00">/timeintegration/solverfkpp.hpp</text>
</a>
</g>
</g>
<!-- Node2&#45;&gt;Node8 -->
<g id="edge7_Node000002_Node000008" class="edge">
<title>Node2&#45;&gt;Node8</title>
<g id="a_edge7_Node000002_Node000008"><a xlink:title=" ">
<path fill="none" stroke="#63b8ff" d="M302.12,-312.92C256.27,-301.27 196.58,-286.09 149.86,-274.22"/>
<polygon fill="#63b8ff" stroke="#63b8ff" points="301.14,-316.28 311.69,-315.36 302.87,-309.5 301.14,-316.28"/>
</a>
</g>
</g>
<!-- Node10 -->
<g id="Node000010" class="node">
<title>Node10</title>
<g id="a_Node000010"><a xlink:href="solvermfk_8hpp.html" target="_top" xlink:title=" ">
<polygon fill="white" stroke="#666666" points="314.38,-275 167.12,-275 167.12,-233.25 314.38,-233.25 314.38,-275"/>
<text text-anchor="start" x="175.12" y="-261.5" font-family="Helvetica,sans-Serif" font-size="10.00">/Users/ilariomazzieri</text>
<text text-anchor="start" x="175.12" y="-250.25" font-family="Helvetica,sans-Serif" font-size="10.00">/Desktop/vulpes/vulpes</text>
<text text-anchor="middle" x="240.75" y="-239" font-family="Helvetica,sans-Serif" font-size="10.00">/timeintegration/solvermfk.hpp</text>
</a>
</g>
</g>
<!-- Node2&#45;&gt;Node10 -->
<g id="edge9_Node000002_Node000010" class="edge">
<title>Node2&#45;&gt;Node10</title>
<g id="a_edge9_Node000002_Node000010"><a xlink:title=" ">
<path fill="none" stroke="#63b8ff" d="M327.74,-305.05C310.92,-295.39 292.07,-284.57 276.22,-275.48"/>
<polygon fill="#63b8ff" stroke="#63b8ff" points="325.65,-307.88 336.06,-309.82 329.13,-301.81 325.65,-307.88"/>
</a>
</g>
</g>
<!-- Node6 -->
<g id="Node000006" class="node">
<title>Node6</title>
<g id="a_Node000006"><a xlink:href="cranknicolson_8cpp.html" target="_top" xlink:title=" ">
<polygon fill="white" stroke="#666666" points="833,-197.25 668.5,-197.25 668.5,-155.5 833,-155.5 833,-197.25"/>
<text text-anchor="start" x="676.5" y="-183.75" font-family="Helvetica,sans-Serif" font-size="10.00">/Users/ilariomazzieri</text>
<text text-anchor="start" x="676.5" y="-172.5" font-family="Helvetica,sans-Serif" font-size="10.00">/Desktop/vulpes/vulpes</text>
<text text-anchor="middle" x="750.75" y="-161.25" font-family="Helvetica,sans-Serif" font-size="10.00">/timeintegration/cranknicolson.cpp</text>
</a>
</g>
</g>
<!-- Node5&#45;&gt;Node6 -->
<g id="edge5_Node000005_Node000006" class="edge">
<title>Node5&#45;&gt;Node6</title>
<g id="a_edge5_Node000005_Node000006"><a xlink:title=" ">
<path fill="none" stroke="#63b8ff" d="M750.75,-221.5C750.75,-213.46 750.75,-205.04 750.75,-197.73"/>
<polygon fill="#63b8ff" stroke="#63b8ff" points="747.25,-221.31 750.75,-231.31 754.25,-221.31 747.25,-221.31"/>
</a>
</g>
</g>
<!-- Node9 -->
<g id="Node000009" class="node">
<title>Node9</title>
<g id="a_Node000009"><a xlink:href="solverfkpp_8cpp.html" target="_top" xlink:title=" ">
<polygon fill="white" stroke="#666666" points="149.5,-197.25 0,-197.25 0,-155.5 149.5,-155.5 149.5,-197.25"/>
<text text-anchor="start" x="8" y="-183.75" font-family="Helvetica,sans-Serif" font-size="10.00">/Users/ilariomazzieri</text>
<text text-anchor="start" x="8" y="-172.5" font-family="Helvetica,sans-Serif" font-size="10.00">/Desktop/vulpes/vulpes</text>
<text text-anchor="middle" x="74.75" y="-161.25" font-family="Helvetica,sans-Serif" font-size="10.00">/timeintegration/solverfkpp.cpp</text>
</a>
</g>
</g>
<!-- Node8&#45;&gt;Node9 -->
<g id="edge8_Node000008_Node000009" class="edge">
<title>Node8&#45;&gt;Node9</title>
<g id="a_edge8_Node000008_Node000009"><a xlink:title=" ">
<path fill="none" stroke="#63b8ff" d="M74.75,-221.5C74.75,-213.46 74.75,-205.04 74.75,-197.73"/>
<polygon fill="#63b8ff" stroke="#63b8ff" points="71.25,-221.31 74.75,-231.31 78.25,-221.31 71.25,-221.31"/>
</a>
</g>
</g>
<!-- Node11 -->
<g id="Node000011" class="node">
<title>Node11</title>
<g id="a_Node000011"><a xlink:href="solvermfk_8cpp.html" target="_top" xlink:title=" ">
<polygon fill="white" stroke="#666666" points="314.38,-197.25 167.12,-197.25 167.12,-155.5 314.38,-155.5 314.38,-197.25"/>
<text text-anchor="start" x="175.12" y="-183.75" font-family="Helvetica,sans-Serif" font-size="10.00">/Users/ilariomazzieri</text>
<text text-anchor="start" x="175.12" y="-172.5" font-family="Helvetica,sans-Serif" font-size="10.00">/Desktop/vulpes/vulpes</text>
<text text-anchor="middle" x="240.75" y="-161.25" font-family="Helvetica,sans-Serif" font-size="10.00">/timeintegration/solvermfk.cpp</text>
</a>
</g>
</g>
<!-- Node10&#45;&gt;Node11 -->
<g id="edge10_Node000010_Node000011" class="edge">
<title>Node10&#45;&gt;Node11</title>
<g id="a_edge10_Node000010_Node000011"><a xlink:title=" ">
<path fill="none" stroke="#63b8ff" d="M240.75,-221.5C240.75,-213.46 240.75,-205.04 240.75,-197.73"/>
<polygon fill="#63b8ff" stroke="#63b8ff" points="237.25,-221.31 240.75,-231.31 244.25,-221.31 237.25,-221.31"/>
</a>
</g>
</g>
<!-- Node12&#45;&gt;Node2 -->
<g id="edge13_Node000012_Node000002" class="edge">
<title>Node12&#45;&gt;Node2</title>
<g id="a_edge13_Node000012_Node000002"><a xlink:title=" ">
<path fill="none" stroke="#63b8ff" d="M360.38,-383.22C362.86,-373.1 365.56,-362.14 367.79,-353.04"/>
<polygon fill="#63b8ff" stroke="#63b8ff" points="357.04,-382.12 358.06,-392.67 363.84,-383.79 357.04,-382.12"/>
</a>
</g>
</g>
<!-- Node12&#45;&gt;Node3 -->
<g id="edge12_Node000012_Node000003" class="edge">
<title>Node12&#45;&gt;Node3</title>
<g id="a_edge12_Node000012_Node000003"><a xlink:title=" ">
<path fill="none" stroke="#63b8ff" d="M415.29,-390.54C417.46,-389.9 419.62,-389.31 421.75,-388.75 619.07,-337.18 860.75,-459.07 860.75,-255.12 860.75,-255.12 860.75,-255.12 860.75,-175.38 860.75,-126.23 879.33,-70.77 890.5,-41.84"/>
<polygon fill="#63b8ff" stroke="#63b8ff" points="414.35,-387.16 405.84,-393.47 416.43,-393.85 414.35,-387.16"/>
</a>
</g>
</g>
<!-- Node12&#45;&gt;Node5 -->
<g id="edge15_Node000012_Node000005" class="edge">
<title>Node12&#45;&gt;Node5</title>
<g id="a_edge15_Node000012_Node000005"><a xlink:title=" ">
<path fill="none" stroke="#63b8ff" d="M416.12,-390.41C418.01,-389.84 419.89,-389.28 421.75,-388.75 498.53,-366.85 523.75,-382.72 597.75,-352.75 646.38,-333.05 696.47,-297.68 725.55,-275.36"/>
<polygon fill="#63b8ff" stroke="#63b8ff" points="415.11,-387.06 406.66,-393.46 417.25,-393.73 415.11,-387.06"/>
</a>
</g>
</g>
<!-- Node12&#45;&gt;Node7 -->
<g id="edge16_Node000012_Node000007" class="edge">
<title>Node12&#45;&gt;Node7</title>
<g id="a_edge16_Node000012_Node000007"><a xlink:title=" ">
<path fill="none" stroke="#63b8ff" d="M416.52,-390.36C418.28,-389.8 420.02,-389.27 421.75,-388.75 489.93,-368.38 533.17,-408.21 577.75,-352.75 595.17,-331.09 590.68,-297.11 585.2,-275.49"/>
<polygon fill="#63b8ff" stroke="#63b8ff" points="415.48,-387.01 407.07,-393.46 417.67,-393.66 415.48,-387.01"/>
</a>
</g>
</g>
<!-- Node12&#45;&gt;Node8 -->
<g id="edge17_Node000012_Node000008" class="edge">
<title>Node12&#45;&gt;Node8</title>
<g id="a_edge17_Node000012_Node000008"><a xlink:title=" ">
<path fill="none" stroke="#63b8ff" d="M307.4,-388.29C252.22,-356.71 160.21,-304.04 110.03,-275.32"/>
<polygon fill="#63b8ff" stroke="#63b8ff" points="305.53,-391.25 315.95,-393.18 309.01,-385.18 305.53,-391.25"/>
</a>
</g>
</g>
<!-- Node12&#45;&gt;Node10 -->
<g id="edge18_Node000012_Node000010" class="edge">
<title>Node12&#45;&gt;Node10</title>
<g id="a_edge18_Node000012_Node000010"><a xlink:title=" ">
<path fill="none" stroke="#63b8ff" d="M329.3,-385.22C321.32,-375.08 312.48,-363.54 304.75,-352.75 285.99,-326.55 265.84,-295.24 253.27,-275.27"/>
<polygon fill="#63b8ff" stroke="#63b8ff" points="326.42,-387.23 335.38,-392.89 331.91,-382.88 326.42,-387.23"/>
</a>
</g>
</g>
<!-- Node13 -->
<g id="Node000013" class="node">
<title>Node13</title>
<g id="a_Node000013"><a xlink:href="sparse__matrix_8cpp.html" target="_top" xlink:title=" ">
<polygon fill="white" stroke="#666666" points="569.12,-352.75 450.38,-352.75 450.38,-311 569.12,-311 569.12,-352.75"/>
<text text-anchor="start" x="458.38" y="-339.25" font-family="Helvetica,sans-Serif" font-size="10.00">/Users/ilariomazzieri</text>
<text text-anchor="start" x="458.38" y="-328" font-family="Helvetica,sans-Serif" font-size="10.00">/Desktop/vulpes/vulpes</text>
<text text-anchor="middle" x="509.75" y="-316.75" font-family="Helvetica,sans-Serif" font-size="10.00">/la/sparse_matrix.cpp</text>
</a>
</g>
</g>
<!-- Node12&#45;&gt;Node13 -->
<g id="edge14_Node000012_Node000013" class="edge">
<title>Node12&#45;&gt;Node13</title>
<g id="a_edge14_Node000012_Node000013"><a xlink:title=" ">
<path fill="none" stroke="#63b8ff" d="M402.13,-388.65C424.18,-377.23 449.79,-363.95 470.49,-353.22"/>
<polygon fill="#63b8ff" stroke="#63b8ff" points="400.57,-385.52 393.31,-393.23 403.8,-391.73 400.57,-385.52"/>
</a>
</g>
</g>
<!-- Node15&#45;&gt;Node2 -->
<g id="edge35_Node000015_Node000002" class="edge">
<title>Node15&#45;&gt;Node2</title>
<g id="a_edge35_Node000015_Node000002"><a xlink:title=" ">
<path fill="none" stroke="#63b8ff" d="M406.13,-486.15C357.71,-476.68 299.64,-461.59 284.75,-441.75 270.61,-422.91 273.4,-409.39 284.75,-388.75 293.12,-373.52 307.58,-361.86 322.4,-353.23"/>
<polygon fill="#63b8ff" stroke="#63b8ff" points="405.28,-489.56 415.75,-487.98 406.58,-482.68 405.28,-489.56"/>
</a>
</g>
</g>
<!-- Node15&#45;&gt;Node3 -->
<g id="edge21_Node000015_Node000003" class="edge">
<title>Node15&#45;&gt;Node3</title>
<g id="a_edge21_Node000015_Node000003"><a xlink:title=" ">
<path fill="none" stroke="#63b8ff" d="M547.49,-477.57C718.67,-441.62 898.75,-498.9 898.75,-332.88 898.75,-332.88 898.75,-332.88 898.75,-175.38 898.75,-127.67 898.75,-71.63 898.75,-42.24"/>
<polygon fill="#63b8ff" stroke="#63b8ff" points="546.97,-474.1 537.97,-479.69 548.49,-480.94 546.97,-474.1"/>
</a>
</g>
</g>
<!-- Node15&#45;&gt;Node5 -->
<g id="edge39_Node000015_Node000005" class="edge">
<title>Node15&#45;&gt;Node5</title>
<g id="a_edge39_Node000015_Node000005"><a xlink:title=" ">
<path fill="none" stroke="#63b8ff" d="M547.55,-477.64C623.94,-462.29 663.39,-494.11 714.75,-441.75 759.35,-396.28 757.16,-313.3 753.38,-275.21"/>
<polygon fill="#63b8ff" stroke="#63b8ff" points="546.98,-474.18 538,-479.8 548.52,-481.01 546.98,-474.18"/>
</a>
</g>
</g>
<!-- Node15&#45;&gt;Node7 -->
<g id="edge40_Node000015_Node000007" class="edge">
<title>Node15&#45;&gt;Node7</title>
<g id="a_edge40_Node000015_Node000007"><a xlink:title=" ">
<path fill="none" stroke="#63b8ff" d="M547.72,-477.6C615.78,-463.64 654.75,-492.56 694.75,-441.75 739.23,-385.24 655.31,-310.77 607.97,-275.42"/>
<polygon fill="#63b8ff" stroke="#63b8ff" points="546.95,-474.19 538.02,-479.88 548.55,-481 546.95,-474.19"/>
</a>
</g>
</g>
<!-- Node15&#45;&gt;Node8 -->
<g id="edge41_Node000015_Node000008" class="edge">
<title>Node15&#45;&gt;Node8</title>
<g id="a_edge41_Node000015_Node000008"><a xlink:title=" ">
<path fill="none" stroke="#63b8ff" d="M405.75,-492.27C356.3,-485.92 290.4,-472.05 239.75,-441.75 167.94,-398.78 110.42,-314.15 86.61,-275.38"/>
<polygon fill="#63b8ff" stroke="#63b8ff" points="405.14,-495.72 415.49,-493.44 405.98,-488.77 405.14,-495.72"/>
</a>
</g>
</g>
<!-- Node15&#45;&gt;Node10 -->
<g id="edge42_Node000015_Node000010" class="edge">
<title>Node15&#45;&gt;Node10</title>
<g id="a_edge42_Node000015_Node000010"><a xlink:title=" ">
<path fill="none" stroke="#63b8ff" d="M405.64,-486.73C353.54,-477.26 288.88,-461.9 270.75,-441.75 228.5,-394.79 232.83,-312.93 237.57,-275.21"/>
<polygon fill="#63b8ff" stroke="#63b8ff" points="404.94,-490.16 415.39,-488.46 406.16,-483.27 404.94,-490.16"/>
</a>
</g>
</g>
<!-- Node15&#45;&gt;Node12 -->
<g id="edge36_Node000015_Node000012" class="edge">
<title>Node15&#45;&gt;Node12</title>
<g id="a_edge36_Node000015_Node000012"><a xlink:title=" ">
<path fill="none" stroke="#63b8ff" d="M436.56,-471.25C419.42,-460 399.74,-447.09 383.76,-436.6"/>
<polygon fill="#63b8ff" stroke="#63b8ff" points="434.23,-473.91 444.51,-476.47 438.07,-468.06 434.23,-473.91"/>
</a>
</g>
</g>
<!-- Node16 -->
<g id="Node000016" class="node">
<title>Node16</title>
<g id="a_Node000016"><a xlink:href="fe__expr__func_8hpp.html" target="_top" xlink:title=" ">
<polygon fill="white" stroke="#666666" points="1058.5,-441.75 927,-441.75 927,-388.75 1058.5,-388.75 1058.5,-441.75"/>
<text text-anchor="start" x="935" y="-428.25" font-family="Helvetica,sans-Serif" font-size="10.00">/Users/ilariomazzieri</text>
<text text-anchor="start" x="935" y="-417" font-family="Helvetica,sans-Serif" font-size="10.00">/Desktop/vulpes/vulpes</text>
<text text-anchor="start" x="935" y="-405.75" font-family="Helvetica,sans-Serif" font-size="10.00">/fe/fe_expressions/fe_expr</text>
<text text-anchor="middle" x="992.75" y="-394.5" font-family="Helvetica,sans-Serif" font-size="10.00">_func.hpp</text>
</a>
</g>
</g>
<!-- Node15&#45;&gt;Node16 -->
<g id="edge22_Node000015_Node000016" class="edge">
<title>Node15&#45;&gt;Node16</title>
<g id="a_edge22_Node000015_Node000016"><a xlink:title=" ">
<path fill="none" stroke="#63b8ff" d="M547.72,-477.59C708.82,-448.16 755.83,-474.08 912.75,-441.75 917.32,-440.81 922,-439.7 926.68,-438.49"/>
<polygon fill="#63b8ff" stroke="#63b8ff" points="547.1,-474.15 537.92,-479.43 548.39,-481.03 547.1,-474.15"/>
</a>
</g>
</g>
<!-- Node25 -->
<g id="Node000025" class="node">
<title>Node25</title>
<g id="a_Node000025"><a xlink:href="vector_8cpp.html" target="_top" xlink:title=" ">
<polygon fill="white" stroke="#666666" points="549.12,-436.12 430.38,-436.12 430.38,-394.38 549.12,-394.38 549.12,-436.12"/>
<text text-anchor="start" x="438.38" y="-422.62" font-family="Helvetica,sans-Serif" font-size="10.00">/Users/ilariomazzieri</text>
<text text-anchor="start" x="438.38" y="-411.38" font-family="Helvetica,sans-Serif" font-size="10.00">/Desktop/vulpes/vulpes</text>
<text text-anchor="middle" x="489.75" y="-400.12" font-family="Helvetica,sans-Serif" font-size="10.00">/la/vector.cpp</text>
</a>
</g>
</g>
<!-- Node15&#45;&gt;Node25 -->
<g id="edge37_Node000015_Node000025" class="edge">
<title>Node15&#45;&gt;Node25</title>
<g id="a_edge37_Node000015_Node000025"><a xlink:title=" ">
<path fill="none" stroke="#63b8ff" d="M481.76,-466.27C483.36,-456.24 485.09,-445.42 486.53,-436.42"/>
<polygon fill="#63b8ff" stroke="#63b8ff" points="478.32,-465.59 480.2,-476.02 485.24,-466.69 478.32,-465.59"/>
</a>
</g>
</g>
<!-- Node26 -->
<g id="Node000026" class="node">
<title>Node26</title>
<g id="a_Node000026"><a xlink:href="project__solution_8hpp.html" target="_top" xlink:title=" ">
<polygon fill="white" stroke="#666666" points="686.12,-441.75 567.38,-441.75 567.38,-388.75 686.12,-388.75 686.12,-441.75"/>
<text text-anchor="start" x="575.38" y="-428.25" font-family="Helvetica,sans-Serif" font-size="10.00">/Users/ilariomazzieri</text>
<text text-anchor="start" x="575.38" y="-417" font-family="Helvetica,sans-Serif" font-size="10.00">/Desktop/vulpes/vulpes</text>
<text text-anchor="start" x="575.38" y="-405.75" font-family="Helvetica,sans-Serif" font-size="10.00">/postprocessing/project</text>
<text text-anchor="middle" x="626.75" y="-394.5" font-family="Helvetica,sans-Serif" font-size="10.00">_solution.hpp</text>
</a>
</g>
</g>
<!-- Node15&#45;&gt;Node26 -->
<g id="edge38_Node000015_Node000026" class="edge">
<title>Node15&#45;&gt;Node26</title>
<g id="a_edge38_Node000015_Node000026"><a xlink:title=" ">
<path fill="none" stroke="#63b8ff" d="M524.2,-471.88C541.69,-462.4 561.49,-451.66 578.99,-442.16"/>
<polygon fill="#63b8ff" stroke="#63b8ff" points="522.67,-468.73 515.54,-476.58 526,-474.89 522.67,-468.73"/>
</a>
</g>
</g>
<!-- Node17 -->
<g id="Node000017" class="node">
<title>Node17</title>
<g id="a_Node000017"><a xlink:href="fe__expression_8hpp.html" target="_top" xlink:title=" ">
<polygon fill="white" stroke="#666666" points="1052.12,-352.75 933.38,-352.75 933.38,-311 1052.12,-311 1052.12,-352.75"/>
<text text-anchor="start" x="941.38" y="-339.25" font-family="Helvetica,sans-Serif" font-size="10.00">/Users/ilariomazzieri</text>
<text text-anchor="start" x="941.38" y="-328" font-family="Helvetica,sans-Serif" font-size="10.00">/Desktop/vulpes/vulpes</text>
<text text-anchor="middle" x="992.75" y="-316.75" font-family="Helvetica,sans-Serif" font-size="10.00">/fe/fe_expression.hpp</text>
</a>
</g>
</g>
<!-- Node16&#45;&gt;Node17 -->
<g id="edge23_Node000016_Node000017" class="edge">
<title>Node16&#45;&gt;Node17</title>
<g id="a_edge23_Node000016_Node000017"><a xlink:title=" ">
<path fill="none" stroke="#63b8ff" d="M992.75,-377.08C992.75,-368.8 992.75,-360.33 992.75,-353.04"/>
<polygon fill="#63b8ff" stroke="#63b8ff" points="989.25,-376.99 992.75,-386.99 996.25,-376.99 989.25,-376.99"/>
</a>
</g>
</g>
<!-- Node17&#45;&gt;Node3 -->
<g id="edge24_Node000017_Node000003" class="edge">
<title>Node17&#45;&gt;Node3</title>
<g id="a_edge24_Node000017_Node000003"><a xlink:title=" ">
<path fill="none" stroke="#63b8ff" d="M983.29,-299.77C964.08,-236.64 921,-95.02 904.94,-42.22"/>
<polygon fill="#63b8ff" stroke="#63b8ff" points="979.88,-300.6 986.14,-309.15 986.58,-298.57 979.88,-300.6"/>
</a>
</g>
</g>
<!-- Node18 -->
<g id="Node000018" class="node">
<title>Node18</title>
<g id="a_Node000018"><a xlink:href="integrator__base_8hpp.html" target="_top" xlink:title=" ">
<polygon fill="white" stroke="#666666" points="1161.5,-197.25 1012,-197.25 1012,-155.5 1161.5,-155.5 1161.5,-197.25"/>
<text text-anchor="start" x="1020" y="-183.75" font-family="Helvetica,sans-Serif" font-size="10.00">/Users/ilariomazzieri</text>
<text text-anchor="start" x="1020" y="-172.5" font-family="Helvetica,sans-Serif" font-size="10.00">/Desktop/vulpes/vulpes</text>
<text text-anchor="middle" x="1086.75" y="-161.25" font-family="Helvetica,sans-Serif" font-size="10.00">/assemble/integrator_base.hpp</text>
</a>
</g>
</g>
<!-- Node17&#45;&gt;Node18 -->
<g id="edge25_Node000017_Node000018" class="edge">
<title>Node17&#45;&gt;Node18</title>
<g id="a_edge25_Node000017_Node000018"><a xlink:title=" ">
<path fill="none" stroke="#63b8ff" d="M989.37,-299.17C988.74,-278.93 990.88,-252.91 1002.75,-233.25 1011.8,-218.25 1026.6,-206.45 1041.27,-197.63"/>
<polygon fill="#63b8ff" stroke="#63b8ff" points="985.88,-299.32 989.95,-309.1 992.86,-298.92 985.88,-299.32"/>
</a>
</g>
</g>
<!-- Node23 -->
<g id="Node000023" class="node">
<title>Node23</title>
<g id="a_Node000023"><a xlink:href="integrator__traits_8hpp.html" target="_top" xlink:title=" ">
<polygon fill="white" stroke="#666666" points="1161.88,-275 1011.62,-275 1011.62,-233.25 1161.88,-233.25 1161.88,-275"/>
<text text-anchor="start" x="1019.62" y="-261.5" font-family="Helvetica,sans-Serif" font-size="10.00">/Users/ilariomazzieri</text>
<text text-anchor="start" x="1019.62" y="-250.25" font-family="Helvetica,sans-Serif" font-size="10.00">/Desktop/vulpes/vulpes</text>
<text text-anchor="middle" x="1086.75" y="-239" font-family="Helvetica,sans-Serif" font-size="10.00">/assemble/integrator_traits.hpp</text>
</a>
</g>
</g>
<!-- Node17&#45;&gt;Node23 -->
<g id="edge32_Node000017_Node000023" class="edge">
<title>Node17&#45;&gt;Node23</title>
<g id="a_edge32_Node000017_Node000023"><a xlink:title=" ">
<path fill="none" stroke="#63b8ff" d="M1026.83,-303.41C1038.28,-294.19 1050.84,-284.06 1061.49,-275.48"/>
<polygon fill="#63b8ff" stroke="#63b8ff" points="1024.71,-300.63 1019.12,-309.63 1029.1,-306.08 1024.71,-300.63"/>
</a>
</g>
</g>
<!-- Node24 -->
<g id="Node000024" class="node">
<title>Node24</title>
<g id="a_Node000024"><a xlink:href="fe__vem_8hpp.html" target="_top" xlink:title=" ">
<polygon fill="white" stroke="#666666" points="1309.38,-275 1180.12,-275 1180.12,-233.25 1309.38,-233.25 1309.38,-275"/>
<text text-anchor="start" x="1188.12" y="-261.5" font-family="Helvetica,sans-Serif" font-size="10.00">/Users/ilariomazzieri</text>
<text text-anchor="start" x="1188.12" y="-250.25" font-family="Helvetica,sans-Serif" font-size="10.00">/Desktop/vulpes/vulpes</text>
<text text-anchor="middle" x="1244.75" y="-239" font-family="Helvetica,sans-Serif" font-size="10.00">/fe/fe_spaces/fe_vem.hpp</text>
</a>
</g>
</g>
<!-- Node17&#45;&gt;Node24 -->
<g id="edge34_Node000017_Node000024" class="edge">
<title>Node17&#45;&gt;Node24</title>
<g id="a_edge34_Node000017_Node000024"><a xlink:title=" ">
<path fill="none" stroke="#63b8ff" d="M1063.05,-309.74C1099.59,-298.76 1143.97,-285.42 1179.71,-274.67"/>
<polygon fill="#63b8ff" stroke="#63b8ff" points="1062.49,-306.26 1053.92,-312.49 1064.5,-312.96 1062.49,-306.26"/>
</a>
</g>
</g>
<!-- Node19 -->
<g id="Node000019" class="node">
<title>Node19</title>
<g id="a_Node000019"><a xlink:href="integrator__gauss_8hpp.html" target="_top" xlink:title=" ">
<polygon fill="white" stroke="#666666" points="1478.12,-119.5 1323.38,-119.5 1323.38,-77.75 1478.12,-77.75 1478.12,-119.5"/>
<text text-anchor="start" x="1331.38" y="-106" font-family="Helvetica,sans-Serif" font-size="10.00">/Users/ilariomazzieri</text>
<text text-anchor="start" x="1331.38" y="-94.75" font-family="Helvetica,sans-Serif" font-size="10.00">/Desktop/vulpes/vulpes</text>
<text text-anchor="middle" x="1400.75" y="-83.5" font-family="Helvetica,sans-Serif" font-size="10.00">/assemble/integrator_gauss.hpp</text>
</a>
</g>
</g>
<!-- Node18&#45;&gt;Node19 -->
<g id="edge26_Node000018_Node000019" class="edge">
<title>Node18&#45;&gt;Node19</title>
<g id="a_edge26_Node000018_Node000019"><a xlink:title=" ">
<path fill="none" stroke="#63b8ff" d="M1173.04,-154.56C1219.99,-143.23 1277.62,-129.33 1323.15,-118.35"/>
<polygon fill="#63b8ff" stroke="#63b8ff" points="1172.33,-151.13 1163.43,-156.88 1173.97,-157.93 1172.33,-151.13"/>
</a>
</g>
</g>
<!-- Node20 -->
<g id="Node000020" class="node">
<title>Node20</title>
<g id="a_Node000020"><a xlink:href="integrator__qfree_8hpp.html" target="_top" xlink:title=" ">
<polygon fill="white" stroke="#666666" points="1304.88,-119.5 1154.62,-119.5 1154.62,-77.75 1304.88,-77.75 1304.88,-119.5"/>
<text text-anchor="start" x="1162.62" y="-106" font-family="Helvetica,sans-Serif" font-size="10.00">/Users/ilariomazzieri</text>
<text text-anchor="start" x="1162.62" y="-94.75" font-family="Helvetica,sans-Serif" font-size="10.00">/Desktop/vulpes/vulpes</text>
<text text-anchor="middle" x="1229.75" y="-83.5" font-family="Helvetica,sans-Serif" font-size="10.00">/assemble/integrator_qfree.hpp</text>
</a>
</g>
</g>
<!-- Node18&#45;&gt;Node20 -->
<g id="edge27_Node000018_Node000020" class="edge">
<title>Node18&#45;&gt;Node20</title>
<g id="a_edge27_Node000018_Node000020"><a xlink:title=" ">
<path fill="none" stroke="#63b8ff" d="M1135,-149.82C1153.35,-140.1 1174,-129.16 1191.32,-119.98"/>
<polygon fill="#63b8ff" stroke="#63b8ff" points="1133.61,-146.59 1126.41,-154.37 1136.88,-152.78 1133.61,-146.59"/>
</a>
</g>
</g>
<!-- Node22 -->
<g id="Node000022" class="node">
<title>Node22</title>
<g id="a_Node000022"><a xlink:href="integrator__simplexify_8hpp.html" target="_top" xlink:title=" ">
<polygon fill="white" stroke="#666666" points="1136.38,-119.5 965.12,-119.5 965.12,-77.75 1136.38,-77.75 1136.38,-119.5"/>
<text text-anchor="start" x="973.12" y="-106" font-family="Helvetica,sans-Serif" font-size="10.00">/Users/ilariomazzieri</text>
<text text-anchor="start" x="973.12" y="-94.75" font-family="Helvetica,sans-Serif" font-size="10.00">/Desktop/vulpes/vulpes</text>
<text text-anchor="middle" x="1050.75" y="-83.5" font-family="Helvetica,sans-Serif" font-size="10.00">/assemble/integrator_simplexify.hpp</text>
</a>
</g>
</g>
<!-- Node18&#45;&gt;Node22 -->
<g id="edge29_Node000018_Node000022" class="edge">
<title>Node18&#45;&gt;Node22</title>
<g id="a_edge29_Node000018_Node000022"><a xlink:title=" ">
<path fill="none" stroke="#63b8ff" d="M1072.25,-144.87C1068.27,-136.5 1064.06,-127.63 1060.42,-119.98"/>
<polygon fill="#63b8ff" stroke="#63b8ff" points="1069,-146.18 1076.45,-153.71 1075.32,-143.17 1069,-146.18"/>
</a>
</g>
</g>
<!-- Node21 -->
<g id="Node000021" class="node">
<title>Node21</title>
<g id="a_Node000021"><a xlink:href="integrator__vem_8hpp.html" target="_top" xlink:title=" ">
<polygon fill="white" stroke="#666666" points="1213.38,-41.75 1066.12,-41.75 1066.12,0 1213.38,0 1213.38,-41.75"/>
<text text-anchor="start" x="1074.12" y="-28.25" font-family="Helvetica,sans-Serif" font-size="10.00">/Users/ilariomazzieri</text>
<text text-anchor="start" x="1074.12" y="-17" font-family="Helvetica,sans-Serif" font-size="10.00">/Desktop/vulpes/vulpes</text>
<text text-anchor="middle" x="1139.75" y="-5.75" font-family="Helvetica,sans-Serif" font-size="10.00">/assemble/integrator_vem.hpp</text>
</a>
</g>
</g>
<!-- Node20&#45;&gt;Node21 -->
<g id="edge28_Node000020_Node000021" class="edge">
<title>Node20&#45;&gt;Node21</title>
<g id="a_edge28_Node000020_Node000021"><a xlink:title=" ">
<path fill="none" stroke="#63b8ff" d="M1197.12,-70.16C1186.16,-60.94 1174.13,-50.81 1163.93,-42.23"/>
<polygon fill="#63b8ff" stroke="#63b8ff" points="1194.57,-72.59 1204.47,-76.35 1199.08,-67.23 1194.57,-72.59"/>
</a>
</g>
</g>
<!-- Node22&#45;&gt;Node3 -->
<g id="edge30_Node000022_Node000003" class="edge">
<title>Node22&#45;&gt;Node3</title>
<g id="a_edge30_Node000022_Node000003"><a xlink:title=" ">
<path fill="none" stroke="#63b8ff" d="M999.74,-72.2C980.16,-62.45 958.1,-51.45 939.6,-42.23"/>
<polygon fill="#63b8ff" stroke="#63b8ff" points="998.15,-75.32 1008.66,-76.65 1001.27,-69.06 998.15,-75.32"/>
</a>
</g>
</g>
<!-- Node22&#45;&gt;Node21 -->
<g id="edge31_Node000022_Node000021" class="edge">
<title>Node22&#45;&gt;Node21</title>
<g id="a_edge31_Node000022_Node000021"><a xlink:title=" ">
<path fill="none" stroke="#63b8ff" d="M1083.34,-69.89C1094.09,-60.73 1105.85,-50.73 1115.83,-42.23"/>
<polygon fill="#63b8ff" stroke="#63b8ff" points="1081.1,-67.2 1075.75,-76.34 1085.64,-72.53 1081.1,-67.2"/>
</a>
</g>
</g>
<!-- Node23&#45;&gt;Node18 -->
<g id="edge33_Node000023_Node000018" class="edge">
<title>Node23&#45;&gt;Node18</title>
<g id="a_edge33_Node000023_Node000018"><a xlink:title=" ">
<path fill="none" stroke="#63b8ff" d="M1086.75,-221.5C1086.75,-213.46 1086.75,-205.04 1086.75,-197.73"/>
<polygon fill="#63b8ff" stroke="#63b8ff" points="1083.25,-221.31 1086.75,-231.31 1090.25,-221.31 1083.25,-221.31"/>
</a>
</g>
</g>
</g>
</svg>

<g id="navigator" transform="translate(0 0)" fill="#404254">
  <rect fill="#f2f5e9" fill-opacity="0.5" stroke="#606060" stroke-width=".5" x="0" y="0" width="60" height="60"/>
  <use id="zoomplus" xlink:href="#zoomPlus" x="17" y="9" onmousedown="handleZoom(evt,'in')"/>
  <use id="zoomminus" xlink:href="#zoomMin" x="42" y="9" onmousedown="handleZoom(evt,'out')"/>
  <use id="reset" xlink:href="#resetDef" x="30" y="36" onmousedown="handleReset()"/>
   <use id="arrowup" xlink:href="#arrowUp" x="0" y="0" onmousedown="handlePan(0,-1)"/>
  <use id="arrowright" xlink:href="#arrowRight" x="0" y="0" onmousedown="handlePan(1,0)"/>
  <use id="arrowdown" xlink:href="#arrowDown" x="0" y="0" onmousedown="handlePan(0,1)"/>
  <use id="arrowleft" xlink:href="#arrowLeft" x="0" y="0" onmousedown="handlePan(-1,0)"/>
</g>
<svg viewBox="0 0 15 15" width="100%" height="30px" preserveAspectRatio="xMaxYMin meet">
 <g id="arrow_out" transform="scale(0.3 0.3)">
  <a xlink:href="petsc__utils_8hpp__dep__incl_org.svg" target="_base">
   <rect id="button" ry="5" rx="5" y="6" x="6" height="38" width="38"
        fill="#f2f5e9" fill-opacity="0.5" stroke="#606060" stroke-width="1.0"/>
   <path id="arrow"
     d="M 11.500037,31.436501 C 11.940474,20.09759 22.043105,11.32322 32.158766,21.979434 L 37.068811,17.246167 C 37.068811,17.246167 37.088388,32 37.088388,32 L 22.160133,31.978069 C 22.160133,31.978069 26.997745,27.140456 26.997745,27.140456 C 18.528582,18.264221 13.291696,25.230495 11.500037,31.436501 z"
     style="fill:#404040;"/>
  </a>
 </g>
</svg>

<style type='text/css'>
<![CDATA[
[data-mouse-over-selected='false'] { opacity: 0.7; }
[data-mouse-over-selected='true']  { opacity: 1.0; }
]]>
</style>
<script type="application/ecmascript"><![CDATA[
document.addEventListener('DOMContentLoaded', (event) => {
  highlightEdges();
  highlightAdjacentNodes();
});
]]></script>
</svg>
