<?xml version="1.0" encoding="UTF-8" standalone="no"?>
<!DOCTYPE svg PUBLIC "-//W3C//DTD SVG 1.1//EN"
 "http://www.w3.org/Graphics/SVG/1.1/DTD/svg11.dtd">
<!-- Generated by graphviz version 12.2.1 (20241206.2353)
 -->
<!-- Title: /Users/ilariomazzieri/Desktop/vulpes/vulpes/polynomials/polynomial.hpp Pages: 1 -->
<svg width="535pt" height="172pt"
 viewBox="0.00 0.00 534.75 171.50" xmlns="http://www.w3.org/2000/svg" xmlns:xlink="http://www.w3.org/1999/xlink">
<g id="graph0" class="graph" transform="scale(1 1) rotate(0) translate(4 167.5)">
<title>/Users/ilariomazzieri/Desktop/vulpes/vulpes/polynomials/polynomial.hpp</title>
<!-- Node1 -->
<g id="Node000001" class="node">
<title>Node1</title>
<g id="a_Node000001"><a xlink:title=" ">
<polygon fill="#999999" stroke="#666666" points="371.62,-163.5 232.62,-163.5 232.62,-121.75 371.62,-121.75 371.62,-163.5"/>
<text text-anchor="start" x="240.62" y="-150" font-family="Helvetica,sans-Serif" font-size="10.00">/Users/ilariomazzieri</text>
<text text-anchor="start" x="240.62" y="-138.75" font-family="Helvetica,sans-Serif" font-size="10.00">/Desktop/vulpes/vulpes</text>
<text text-anchor="middle" x="302.12" y="-127.5" font-family="Helvetica,sans-Serif" font-size="10.00">/polynomials/polynomial.hpp</text>
</a>
</g>
</g>
<!-- Node2 -->
<g id="Node000002" class="node">
<title>Node2</title>
<g id="a_Node000002"><a xlink:title=" ">
<polygon fill="#e0e0e0" stroke="#999999" points="48.25,-19.25 0,-19.25 0,0 48.25,0 48.25,-19.25"/>
<text text-anchor="middle" x="24.12" y="-5.75" font-family="Helvetica,sans-Serif" font-size="10.00">cstddef</text>
</a>
</g>
</g>
<!-- Node1&#45;&gt;Node2 -->
<g id="edge1_Node000001_Node000002" class="edge">
<title>Node1&#45;&gt;Node2</title>
<g id="a_edge1_Node000001_Node000002"><a xlink:title=" ">
<path fill="none" stroke="#63b8ff" d="M232.19,-122.87C201.63,-113.51 165.82,-100.92 135.12,-85.75 101.11,-68.94 65.4,-43.08 43.95,-26.5"/>
<polygon fill="#63b8ff" stroke="#63b8ff" points="46.38,-23.96 36.35,-20.54 42.06,-29.47 46.38,-23.96"/>
</a>
</g>
</g>
<!-- Node3 -->
<g id="Node000003" class="node">
<title>Node3</title>
<g id="a_Node000003"><a xlink:title=" ">
<polygon fill="#e0e0e0" stroke="#999999" points="526.75,-80.12 475.5,-80.12 475.5,-60.88 526.75,-60.88 526.75,-80.12"/>
<text text-anchor="middle" x="501.12" y="-66.62" font-family="Helvetica,sans-Serif" font-size="10.00">ostream</text>
</a>
</g>
</g>
<!-- Node1&#45;&gt;Node3 -->
<g id="edge2_Node000001_Node000003" class="edge">
<title>Node1&#45;&gt;Node3</title>
<g id="a_edge2_Node000001_Node000003"><a xlink:title=" ">
<path fill="none" stroke="#63b8ff" d="M360.3,-121.25C390.4,-110.69 427.75,-97.56 461.12,-85.75 462.45,-85.28 463.81,-84.8 465.18,-84.32"/>
<polygon fill="#63b8ff" stroke="#63b8ff" points="466.06,-87.72 474.31,-81.07 463.72,-81.12 466.06,-87.72"/>
</a>
</g>
</g>
<!-- Node4 -->
<g id="Node000004" class="node">
<title>Node4</title>
<g id="a_Node000004"><a xlink:title=" ">
<polygon fill="#e0e0e0" stroke="#999999" points="470.62,-19.25 427.62,-19.25 427.62,0 470.62,0 470.62,-19.25"/>
<text text-anchor="middle" x="449.12" y="-5.75" font-family="Helvetica,sans-Serif" font-size="10.00">vector</text>
</a>
</g>
</g>
<!-- Node1&#45;&gt;Node4 -->
<g id="edge3_Node000001_Node000004" class="edge">
<title>Node1&#45;&gt;Node4</title>
<g id="a_edge3_Node000001_Node000004"><a xlink:title=" ">
<path fill="none" stroke="#63b8ff" d="M371.96,-123.26C392.52,-114.82 413.41,-102.76 428.12,-85.75 441.4,-70.4 446.33,-47.29 448.13,-30.76"/>
<polygon fill="#63b8ff" stroke="#63b8ff" points="451.59,-31.38 448.88,-21.14 444.62,-30.84 451.59,-31.38"/>
</a>
</g>
</g>
<!-- Node5 -->
<g id="Node000005" class="node">
<title>Node5</title>
<g id="a_Node000005"><a xlink:title=" ">
<polygon fill="#e0e0e0" stroke="#999999" points="138.25,-19.25 66,-19.25 66,0 138.25,0 138.25,-19.25"/>
<text text-anchor="middle" x="102.12" y="-5.75" font-family="Helvetica,sans-Serif" font-size="10.00">Eigen/Dense</text>
</a>
</g>
</g>
<!-- Node1&#45;&gt;Node5 -->
<g id="edge4_Node000001_Node000005" class="edge">
<title>Node1&#45;&gt;Node5</title>
<g id="a_edge4_Node000001_Node000005"><a xlink:title=" ">
<path fill="none" stroke="#63b8ff" d="M241.68,-121.33C219.1,-112.27 193.91,-100.32 173.12,-85.75 150.03,-69.57 128.53,-44.94 115.38,-28.34"/>
<polygon fill="#63b8ff" stroke="#63b8ff" points="118.45,-26.59 109.57,-20.81 112.91,-30.87 118.45,-26.59"/>
</a>
</g>
</g>
<!-- Node6 -->
<g id="Node000006" class="node">
<title>Node6</title>
<g id="a_Node000006"><a xlink:href="datastructure_2tensor_8hpp.html" target="_top" xlink:title=" ">
<polygon fill="white" stroke="#666666" points="419.38,-85.75 314.88,-85.75 314.88,-55.25 419.38,-55.25 419.38,-85.75"/>
<text text-anchor="start" x="322.88" y="-72.25" font-family="Helvetica,sans-Serif" font-size="10.00">vulpes/datastructure</text>
<text text-anchor="middle" x="367.12" y="-61" font-family="Helvetica,sans-Serif" font-size="10.00">/tensor.hpp</text>
</a>
</g>
</g>
<!-- Node1&#45;&gt;Node6 -->
<g id="edge5_Node000001_Node000006" class="edge">
<title>Node1&#45;&gt;Node6</title>
<g id="a_edge5_Node000001_Node000006"><a xlink:title=" ">
<path fill="none" stroke="#63b8ff" d="M320.93,-121.34C328.8,-112.85 337.99,-102.94 346.08,-94.2"/>
<polygon fill="#63b8ff" stroke="#63b8ff" points="348.47,-96.77 352.7,-87.06 343.34,-92.01 348.47,-96.77"/>
</a>
</g>
</g>
<!-- Node8 -->
<g id="Node000008" class="node">
<title>Node8</title>
<g id="a_Node000008"><a xlink:href="vmath_8hpp.html" target="_top" xlink:title=" ">
<polygon fill="white" stroke="#666666" points="296.25,-80.12 182,-80.12 182,-60.88 296.25,-60.88 296.25,-80.12"/>
<text text-anchor="middle" x="239.12" y="-66.62" font-family="Helvetica,sans-Serif" font-size="10.00">vulpes/utils/vmath.hpp</text>
</a>
</g>
</g>
<!-- Node1&#45;&gt;Node8 -->
<g id="edge8_Node000001_Node000008" class="edge">
<title>Node1&#45;&gt;Node8</title>
<g id="a_edge8_Node000001_Node000008"><a xlink:title=" ">
<path fill="none" stroke="#63b8ff" d="M283.9,-121.34C274.65,-111.04 263.53,-98.66 254.68,-88.81"/>
<polygon fill="#63b8ff" stroke="#63b8ff" points="257.33,-86.53 248.04,-81.43 252.12,-91.21 257.33,-86.53"/>
</a>
</g>
</g>
<!-- Node6&#45;&gt;Node4 -->
<g id="edge7_Node000006_Node000004" class="edge">
<title>Node6&#45;&gt;Node4</title>
<g id="a_edge7_Node000006_Node000004"><a xlink:title=" ">
<path fill="none" stroke="#63b8ff" d="M387.39,-54.95C399.52,-46.24 414.93,-35.18 427.32,-26.28"/>
<polygon fill="#63b8ff" stroke="#63b8ff" points="429.17,-29.26 435.25,-20.58 425.09,-23.57 429.17,-29.26"/>
</a>
</g>
</g>
<!-- Node7 -->
<g id="Node000007" class="node">
<title>Node7</title>
<g id="a_Node000007"><a xlink:title=" ">
<polygon fill="#e0e0e0" stroke="#999999" points="410,-19.25 348.25,-19.25 348.25,0 410,0 410,-19.25"/>
<text text-anchor="middle" x="379.12" y="-5.75" font-family="Helvetica,sans-Serif" font-size="10.00">type_traits</text>
</a>
</g>
</g>
<!-- Node6&#45;&gt;Node7 -->
<g id="edge6_Node000006_Node000007" class="edge">
<title>Node6&#45;&gt;Node7</title>
<g id="a_edge6_Node000006_Node000007"><a xlink:title=" ">
<path fill="none" stroke="#63b8ff" d="M370.09,-54.95C371.57,-47.71 373.38,-38.84 374.98,-30.94"/>
<polygon fill="#63b8ff" stroke="#63b8ff" points="378.41,-31.68 376.97,-21.18 371.55,-30.28 378.41,-31.68"/>
</a>
</g>
</g>
<!-- Node8&#45;&gt;Node2 -->
<g id="edge10_Node000008_Node000002" class="edge">
<title>Node8&#45;&gt;Node2</title>
<g id="a_edge10_Node000008_Node000002"><a xlink:title=" ">
<path fill="none" stroke="#63b8ff" d="M206,-60.43C166.36,-49.57 100.24,-31.47 59.59,-20.34"/>
<polygon fill="#63b8ff" stroke="#63b8ff" points="60.62,-16.99 50.05,-17.72 58.77,-23.74 60.62,-16.99"/>
</a>
</g>
</g>
<!-- Node8&#45;&gt;Node5 -->
<g id="edge14_Node000008_Node000005" class="edge">
<title>Node8&#45;&gt;Node5</title>
<g id="a_edge14_Node000008_Node000005"><a xlink:title=" ">
<path fill="none" stroke="#63b8ff" d="M218.02,-60.43C195.43,-50.72 159.34,-35.21 133.44,-24.08"/>
<polygon fill="#63b8ff" stroke="#63b8ff" points="134.99,-20.94 124.42,-20.21 132.23,-27.37 134.99,-20.94"/>
</a>
</g>
</g>
<!-- Node8&#45;&gt;Node7 -->
<g id="edge13_Node000008_Node000007" class="edge">
<title>Node8&#45;&gt;Node7</title>
<g id="a_edge13_Node000008_Node000007"><a xlink:title=" ">
<path fill="none" stroke="#63b8ff" d="M260.69,-60.43C283.88,-50.68 320.98,-35.08 347.48,-23.93"/>
<polygon fill="#63b8ff" stroke="#63b8ff" points="348.51,-27.3 356.37,-20.2 345.79,-20.85 348.51,-27.3"/>
</a>
</g>
</g>
<!-- Node9 -->
<g id="Node000009" class="node">
<title>Node9</title>
<g id="a_Node000009"><a xlink:title=" ">
<polygon fill="#e0e0e0" stroke="#999999" points="329.88,-19.25 276.38,-19.25 276.38,0 329.88,0 329.88,-19.25"/>
<text text-anchor="middle" x="303.12" y="-5.75" font-family="Helvetica,sans-Serif" font-size="10.00">gmpxx.h</text>
</a>
</g>
</g>
<!-- Node8&#45;&gt;Node9 -->
<g id="edge9_Node000008_Node000009" class="edge">
<title>Node8&#45;&gt;Node9</title>
<g id="a_edge9_Node000008_Node000009"><a xlink:title=" ">
<path fill="none" stroke="#63b8ff" d="M248.85,-60.56C258.43,-51.74 273.31,-38.05 285.07,-27.23"/>
<polygon fill="#63b8ff" stroke="#63b8ff" points="287.21,-30.02 292.2,-20.68 282.47,-24.87 287.21,-30.02"/>
</a>
</g>
</g>
<!-- Node10 -->
<g id="Node000010" class="node">
<title>Node10</title>
<g id="a_Node000010"><a xlink:title=" ">
<polygon fill="#e0e0e0" stroke="#999999" points="201.75,-19.25 156.5,-19.25 156.5,0 201.75,0 201.75,-19.25"/>
<text text-anchor="middle" x="179.12" y="-5.75" font-family="Helvetica,sans-Serif" font-size="10.00">cstdint</text>
</a>
</g>
</g>
<!-- Node8&#45;&gt;Node10 -->
<g id="edge11_Node000008_Node000010" class="edge">
<title>Node8&#45;&gt;Node10</title>
<g id="a_edge11_Node000008_Node000010"><a xlink:title=" ">
<path fill="none" stroke="#63b8ff" d="M230.01,-60.56C221.11,-51.83 207.35,-38.32 196.38,-27.55"/>
<polygon fill="#63b8ff" stroke="#63b8ff" points="198.99,-25.22 189.4,-20.71 194.09,-30.21 198.99,-25.22"/>
</a>
</g>
</g>
<!-- Node11 -->
<g id="Node000011" class="node">
<title>Node11</title>
<g id="a_Node000011"><a xlink:title=" ">
<polygon fill="#e0e0e0" stroke="#999999" points="258.75,-19.25 219.5,-19.25 219.5,0 258.75,0 258.75,-19.25"/>
<text text-anchor="middle" x="239.12" y="-5.75" font-family="Helvetica,sans-Serif" font-size="10.00">limits</text>
</a>
</g>
</g>
<!-- Node8&#45;&gt;Node11 -->
<g id="edge12_Node000008_Node000011" class="edge">
<title>Node8&#45;&gt;Node11</title>
<g id="a_edge12_Node000008_Node000011"><a xlink:title=" ">
<path fill="none" stroke="#63b8ff" d="M239.12,-60.56C239.12,-52.78 239.12,-41.2 239.12,-31.16"/>
<polygon fill="#63b8ff" stroke="#63b8ff" points="242.63,-31.16 239.13,-21.16 235.63,-31.16 242.63,-31.16"/>
</a>
</g>
</g>
</g>
</svg>
