<?xml version="1.0" encoding="UTF-8" standalone="no"?>
<!DOCTYPE svg PUBLIC "-//W3C//DTD SVG 1.1//EN"
 "http://www.w3.org/Graphics/SVG/1.1/DTD/svg11.dtd">
<!-- Generated by graphviz version 2.43.0 (0)
 -->
<!-- Title: /__w/vulpes/vulpes/vulpes/polynomials/polynomial.hpp Pages: 1 -->
<svg width="578pt" height="170pt"
 viewBox="0.00 0.00 578.00 170.00" xmlns="http://www.w3.org/2000/svg" xmlns:xlink="http://www.w3.org/1999/xlink">
<g id="graph0" class="graph" transform="scale(1 1) rotate(0) translate(4 166)">
<title>/__w/vulpes/vulpes/vulpes/polynomials/polynomial.hpp</title>
<!-- Node1 -->
<g id="Node000001" class="node">
<title>Node1</title>
<g id="a_Node000001"><a xlink:title=" ">
<polygon fill="#999999" stroke="#666666" points="384,-162 269,-162 269,-121 384,-121 384,-162"/>
<text text-anchor="start" x="277" y="-150" font-family="Helvetica,sans-Serif" font-size="10.00">/__w/vulpes/vulpes</text>
<text text-anchor="start" x="277" y="-139" font-family="Helvetica,sans-Serif" font-size="10.00">/vulpes/polynomials</text>
<text text-anchor="middle" x="326.5" y="-128" font-family="Helvetica,sans-Serif" font-size="10.00">/polynomial.hpp</text>
</a>
</g>
</g>
<!-- Node2 -->
<g id="Node000002" class="node">
<title>Node2</title>
<g id="a_Node000002"><a xlink:title=" ">
<polygon fill="#e0e0e0" stroke="#999999" points="53,-19 0,-19 0,0 53,0 53,-19"/>
<text text-anchor="middle" x="26.5" y="-7" font-family="Helvetica,sans-Serif" font-size="10.00">cstddef</text>
</a>
</g>
</g>
<!-- Node1&#45;&gt;Node2 -->
<g id="edge1_Node000001_Node000002" class="edge">
<title>Node1&#45;&gt;Node2</title>
<g id="a_edge1_Node000001_Node000002"><a xlink:title=" ">
<path fill="none" stroke="#63b8ff" d="M268.9,-127.15C232.36,-117.67 184.59,-103.37 144.5,-85 107.75,-68.16 68.78,-41.63 46.09,-25.19"/>
<polygon fill="#63b8ff" stroke="#63b8ff" points="48.1,-22.31 37.96,-19.22 43.95,-27.96 48.1,-22.31"/>
</a>
</g>
</g>
<!-- Node3 -->
<g id="Node000003" class="node">
<title>Node3</title>
<g id="a_Node000003"><a xlink:title=" ">
<polygon fill="#e0e0e0" stroke="#999999" points="570,-79.5 513,-79.5 513,-60.5 570,-60.5 570,-79.5"/>
<text text-anchor="middle" x="541.5" y="-67.5" font-family="Helvetica,sans-Serif" font-size="10.00">ostream</text>
</a>
</g>
</g>
<!-- Node1&#45;&gt;Node3 -->
<g id="edge2_Node000001_Node000003" class="edge">
<title>Node1&#45;&gt;Node3</title>
<g id="a_edge2_Node000001_Node000003"><a xlink:title=" ">
<path fill="none" stroke="#63b8ff" d="M384.24,-121.91C417.63,-111.15 460.44,-97.34 498.5,-85 500.77,-84.26 503.1,-83.51 505.46,-82.74"/>
<polygon fill="#63b8ff" stroke="#63b8ff" points="506.7,-86.02 515.12,-79.6 504.53,-79.36 506.7,-86.02"/>
</a>
</g>
</g>
<!-- Node4 -->
<g id="Node000004" class="node">
<title>Node4</title>
<g id="a_Node000004"><a xlink:title=" ">
<polygon fill="#e0e0e0" stroke="#999999" points="508,-19 461,-19 461,0 508,0 508,-19"/>
<text text-anchor="middle" x="484.5" y="-7" font-family="Helvetica,sans-Serif" font-size="10.00">vector</text>
</a>
</g>
</g>
<!-- Node1&#45;&gt;Node4 -->
<g id="edge3_Node000001_Node000004" class="edge">
<title>Node1&#45;&gt;Node4</title>
<g id="a_edge3_Node000001_Node000004"><a xlink:title=" ">
<path fill="none" stroke="#63b8ff" d="M384.04,-130.29C412.31,-122.44 444.68,-108.73 465.5,-85 479.09,-69.51 483.2,-45.61 484.32,-29.08"/>
<polygon fill="#63b8ff" stroke="#63b8ff" points="487.82,-29.13 484.7,-19 480.83,-28.86 487.82,-29.13"/>
</a>
</g>
</g>
<!-- Node5 -->
<g id="Node000005" class="node">
<title>Node5</title>
<g id="a_Node000005"><a xlink:title=" ">
<polygon fill="#e0e0e0" stroke="#999999" points="148,-19 71,-19 71,0 148,0 148,-19"/>
<text text-anchor="middle" x="109.5" y="-7" font-family="Helvetica,sans-Serif" font-size="10.00">Eigen/Dense</text>
</a>
</g>
</g>
<!-- Node1&#45;&gt;Node5 -->
<g id="edge4_Node000001_Node000005" class="edge">
<title>Node1&#45;&gt;Node5</title>
<g id="a_edge4_Node000001_Node000005"><a xlink:title=" ">
<path fill="none" stroke="#63b8ff" d="M268.86,-124.27C241.68,-115.12 209.57,-102.06 183.5,-85 159.05,-69 136.2,-43.82 122.54,-27.24"/>
<polygon fill="#63b8ff" stroke="#63b8ff" points="124.93,-24.63 115.94,-19.02 119.47,-29.01 124.93,-24.63"/>
</a>
</g>
</g>
<!-- Node6 -->
<g id="Node000006" class="node">
<title>Node6</title>
<g id="a_Node000006"><a xlink:href="tensor_8hpp.html" target="_top" xlink:title=" ">
<polygon fill="white" stroke="#666666" points="456,-85 339,-85 339,-55 456,-55 456,-85"/>
<text text-anchor="start" x="347" y="-73" font-family="Helvetica,sans-Serif" font-size="10.00">vulpes/datastructure</text>
<text text-anchor="middle" x="397.5" y="-62" font-family="Helvetica,sans-Serif" font-size="10.00">/tensor.hpp</text>
</a>
</g>
</g>
<!-- Node1&#45;&gt;Node6 -->
<g id="edge5_Node000001_Node000006" class="edge">
<title>Node1&#45;&gt;Node6</title>
<g id="a_edge5_Node000001_Node000006"><a xlink:title=" ">
<path fill="none" stroke="#63b8ff" d="M346.66,-120.77C355.75,-111.87 366.51,-101.33 375.79,-92.25"/>
<polygon fill="#63b8ff" stroke="#63b8ff" points="378.46,-94.53 383.16,-85.04 373.56,-89.53 378.46,-94.53"/>
</a>
</g>
</g>
<!-- Node8 -->
<g id="Node000008" class="node">
<title>Node8</title>
<g id="a_Node000008"><a xlink:href="vmath_8hpp.html" target="_top" xlink:title=" ">
<polygon fill="white" stroke="#666666" points="320.5,-79.5 192.5,-79.5 192.5,-60.5 320.5,-60.5 320.5,-79.5"/>
<text text-anchor="middle" x="256.5" y="-67.5" font-family="Helvetica,sans-Serif" font-size="10.00">vulpes/utils/vmath.hpp</text>
</a>
</g>
</g>
<!-- Node1&#45;&gt;Node8 -->
<g id="edge8_Node000001_Node000008" class="edge">
<title>Node1&#45;&gt;Node8</title>
<g id="a_edge8_Node000001_Node000008"><a xlink:title=" ">
<path fill="none" stroke="#63b8ff" d="M306.63,-120.77C295.91,-110.13 282.85,-97.16 272.75,-87.13"/>
<polygon fill="#63b8ff" stroke="#63b8ff" points="274.95,-84.38 265.38,-79.82 270.01,-89.35 274.95,-84.38"/>
</a>
</g>
</g>
<!-- Node6&#45;&gt;Node4 -->
<g id="edge7_Node000006_Node000004" class="edge">
<title>Node6&#45;&gt;Node4</title>
<g id="a_edge7_Node000006_Node000004"><a xlink:title=" ">
<path fill="none" stroke="#63b8ff" d="M418.56,-54.84C432.04,-45.77 449.49,-34.04 463.05,-24.92"/>
<polygon fill="#63b8ff" stroke="#63b8ff" points="465.37,-27.58 471.72,-19.09 461.47,-21.77 465.37,-27.58"/>
</a>
</g>
</g>
<!-- Node7 -->
<g id="Node000007" class="node">
<title>Node7</title>
<g id="a_Node000007"><a xlink:title=" ">
<polygon fill="#e0e0e0" stroke="#999999" points="443,-19 374,-19 374,0 443,0 443,-19"/>
<text text-anchor="middle" x="408.5" y="-7" font-family="Helvetica,sans-Serif" font-size="10.00">type_traits</text>
</a>
</g>
</g>
<!-- Node6&#45;&gt;Node7 -->
<g id="edge6_Node000006_Node000007" class="edge">
<title>Node6&#45;&gt;Node7</title>
<g id="a_edge6_Node000006_Node000007"><a xlink:title=" ">
<path fill="none" stroke="#63b8ff" d="M400.16,-54.84C401.61,-47.13 403.43,-37.49 404.99,-29.17"/>
<polygon fill="#63b8ff" stroke="#63b8ff" points="408.44,-29.74 406.85,-19.27 401.56,-28.45 408.44,-29.74"/>
</a>
</g>
</g>
<!-- Node8&#45;&gt;Node2 -->
<g id="edge10_Node000008_Node000002" class="edge">
<title>Node8&#45;&gt;Node2</title>
<g id="a_edge10_Node000008_Node000002"><a xlink:title=" ">
<path fill="none" stroke="#63b8ff" d="M223.06,-60.49C180.4,-49.65 106.92,-30.95 62.9,-19.76"/>
<polygon fill="#63b8ff" stroke="#63b8ff" points="63.73,-16.36 53.17,-17.28 62,-23.14 63.73,-16.36"/>
</a>
</g>
</g>
<!-- Node8&#45;&gt;Node5 -->
<g id="edge14_Node000008_Node000005" class="edge">
<title>Node8&#45;&gt;Node5</title>
<g id="a_edge14_Node000008_Node000005"><a xlink:title=" ">
<path fill="none" stroke="#63b8ff" d="M235.12,-60.49C210.19,-50.57 168.78,-34.09 140.36,-22.78"/>
<polygon fill="#63b8ff" stroke="#63b8ff" points="141.49,-19.46 130.9,-19.02 138.9,-25.97 141.49,-19.46"/>
</a>
</g>
</g>
<!-- Node8&#45;&gt;Node7 -->
<g id="edge13_Node000008_Node000007" class="edge">
<title>Node8&#45;&gt;Node7</title>
<g id="a_edge13_Node000008_Node000007"><a xlink:title=" ">
<path fill="none" stroke="#63b8ff" d="M278.6,-60.49C304.49,-50.53 347.58,-33.95 376.97,-22.63"/>
<polygon fill="#63b8ff" stroke="#63b8ff" points="378.3,-25.88 386.37,-19.02 375.78,-19.34 378.3,-25.88"/>
</a>
</g>
</g>
<!-- Node9 -->
<g id="Node000009" class="node">
<title>Node9</title>
<g id="a_Node000009"><a xlink:title=" ">
<polygon fill="#e0e0e0" stroke="#999999" points="356,-19 297,-19 297,0 356,0 356,-19"/>
<text text-anchor="middle" x="326.5" y="-7" font-family="Helvetica,sans-Serif" font-size="10.00">gmpxx.h</text>
</a>
</g>
</g>
<!-- Node8&#45;&gt;Node9 -->
<g id="edge9_Node000008_Node000009" class="edge">
<title>Node8&#45;&gt;Node9</title>
<g id="a_edge9_Node000008_Node000009"><a xlink:title=" ">
<path fill="none" stroke="#63b8ff" d="M266.83,-60.37C277.69,-51.3 294.99,-36.84 308.17,-25.82"/>
<polygon fill="#63b8ff" stroke="#63b8ff" points="310.7,-28.27 316.13,-19.17 306.21,-22.89 310.7,-28.27"/>
</a>
</g>
</g>
<!-- Node10 -->
<g id="Node000010" class="node">
<title>Node10</title>
<g id="a_Node000010"><a xlink:title=" ">
<polygon fill="#e0e0e0" stroke="#999999" points="216.5,-19 166.5,-19 166.5,0 216.5,0 216.5,-19"/>
<text text-anchor="middle" x="191.5" y="-7" font-family="Helvetica,sans-Serif" font-size="10.00">cstdint</text>
</a>
</g>
</g>
<!-- Node8&#45;&gt;Node10 -->
<g id="edge11_Node000008_Node000010" class="edge">
<title>Node8&#45;&gt;Node10</title>
<g id="a_edge11_Node000008_Node000010"><a xlink:title=" ">
<path fill="none" stroke="#63b8ff" d="M246.91,-60.37C236.92,-51.38 221.07,-37.11 208.87,-26.14"/>
<polygon fill="#63b8ff" stroke="#63b8ff" points="210.9,-23.26 201.13,-19.17 206.22,-28.46 210.9,-23.26"/>
</a>
</g>
</g>
<!-- Node11 -->
<g id="Node000011" class="node">
<title>Node11</title>
<g id="a_Node000011"><a xlink:title=" ">
<polygon fill="#e0e0e0" stroke="#999999" points="278.5,-19 234.5,-19 234.5,0 278.5,0 278.5,-19"/>
<text text-anchor="middle" x="256.5" y="-7" font-family="Helvetica,sans-Serif" font-size="10.00">limits</text>
</a>
</g>
</g>
<!-- Node8&#45;&gt;Node11 -->
<g id="edge12_Node000008_Node000011" class="edge">
<title>Node8&#45;&gt;Node11</title>
<g id="a_edge12_Node000008_Node000011"><a xlink:title=" ">
<path fill="none" stroke="#63b8ff" d="M256.5,-60.37C256.5,-52.25 256.5,-39.81 256.5,-29.39"/>
<polygon fill="#63b8ff" stroke="#63b8ff" points="260,-29.17 256.5,-19.17 253,-29.17 260,-29.17"/>
</a>
</g>
</g>
</g>
</svg>
