<?xml version="1.0" encoding="UTF-8" standalone="no"?>
<!DOCTYPE svg PUBLIC "-//W3C//DTD SVG 1.1//EN"
 "http://www.w3.org/Graphics/SVG/1.1/DTD/svg11.dtd">
<!-- Generated by graphviz version 2.42.4 (0)
 -->
<!-- Title: /__w/vulpes/vulpes/vulpes/polynomials/polynomial.hpp Pages: 1 -->
<svg width="1751pt" height="808pt"
 viewBox="0.00 0.00 1751.00 808.00" xmlns="http://www.w3.org/2000/svg" xmlns:xlink="http://www.w3.org/1999/xlink">
<g id="graph0" class="graph" transform="scale(1 1) rotate(0) translate(4 804)">
<title>/__w/vulpes/vulpes/vulpes/polynomials/polynomial.hpp</title>
<!-- Node1 -->
<g id="Node000001" class="node">
<title>Node1</title>
<g id="a_Node000001"><a xlink:title=" ">
<polygon fill="#999999" stroke="#666666" points="1267,-800 1152,-800 1152,-759 1267,-759 1267,-800"/>
<text text-anchor="start" x="1160" y="-788" font-family="Helvetica,sans-Serif" font-size="10.00">/__w/vulpes/vulpes</text>
<text text-anchor="start" x="1160" y="-777" font-family="Helvetica,sans-Serif" font-size="10.00">/vulpes/polynomials</text>
<text text-anchor="middle" x="1209.5" y="-766" font-family="Helvetica,sans-Serif" font-size="10.00">/polynomial.hpp</text>
</a>
</g>
</g>
<!-- Node2 -->
<g id="Node000002" class="node">
<title>Node2</title>
<g id="a_Node000002"><a xlink:href="dof__policy_8hpp.html" target="_top" xlink:title=" ">
<polygon fill="white" stroke="#666666" points="1095,-717.5 958,-717.5 958,-687.5 1095,-687.5 1095,-717.5"/>
<text text-anchor="start" x="966" y="-705.5" font-family="Helvetica,sans-Serif" font-size="10.00">/__w/vulpes/vulpes</text>
<text text-anchor="middle" x="1026.5" y="-694.5" font-family="Helvetica,sans-Serif" font-size="10.00">/vulpes/fe/dof_policy.hpp</text>
</a>
</g>
</g>
<!-- Node1&#45;&gt;Node2 -->
<g id="edge1_Node000001_Node000002" class="edge">
<title>Node1&#45;&gt;Node2</title>
<g id="a_edge1_Node000001_Node000002"><a xlink:title=" ">
<path fill="none" stroke="#63b8ff" d="M1152.38,-755.09C1122.37,-742.79 1086.59,-728.13 1060.86,-717.58"/>
<polygon fill="#63b8ff" stroke="#63b8ff" points="1151.32,-758.44 1161.9,-758.99 1153.97,-751.96 1151.32,-758.44"/>
</a>
</g>
</g>
<!-- Node3 -->
<g id="Node000003" class="node">
<title>Node3</title>
<g id="a_Node000003"><a xlink:href="fe__space_8hpp.html" target="_top" xlink:title=" ">
<polygon fill="white" stroke="#666666" points="1097.5,-640.5 965.5,-640.5 965.5,-610.5 1097.5,-610.5 1097.5,-640.5"/>
<text text-anchor="start" x="973.5" y="-628.5" font-family="Helvetica,sans-Serif" font-size="10.00">/__w/vulpes/vulpes</text>
<text text-anchor="middle" x="1031.5" y="-617.5" font-family="Helvetica,sans-Serif" font-size="10.00">/vulpes/fe/fe_space.hpp</text>
</a>
</g>
</g>
<!-- Node1&#45;&gt;Node3 -->
<g id="edge43_Node000001_Node000003" class="edge">
<title>Node1&#45;&gt;Node3</title>
<g id="a_edge43_Node000001_Node000003"><a xlink:title=" ">
<path fill="none" stroke="#63b8ff" d="M1176.79,-752.22C1165.97,-743.2 1154.01,-732.89 1143.5,-723 1125.18,-705.77 1123.24,-698.78 1104.5,-682 1087.54,-666.81 1066.75,-651.28 1051.7,-640.52"/>
<polygon fill="#63b8ff" stroke="#63b8ff" points="1174.86,-755.16 1184.8,-758.83 1179.32,-749.77 1174.86,-755.16"/>
</a>
</g>
</g>
<!-- Node26 -->
<g id="Node000026" class="node">
<title>Node26</title>
<g id="a_Node000026"><a xlink:href="polynomial1d_8hpp.html" target="_top" xlink:title=" ">
<polygon fill="white" stroke="#666666" points="1533,-723 1418,-723 1418,-682 1533,-682 1533,-723"/>
<text text-anchor="start" x="1426" y="-711" font-family="Helvetica,sans-Serif" font-size="10.00">/__w/vulpes/vulpes</text>
<text text-anchor="start" x="1426" y="-700" font-family="Helvetica,sans-Serif" font-size="10.00">/vulpes/polynomials</text>
<text text-anchor="middle" x="1475.5" y="-689" font-family="Helvetica,sans-Serif" font-size="10.00">/polynomial1d.hpp</text>
</a>
</g>
</g>
<!-- Node1&#45;&gt;Node26 -->
<g id="edge44_Node000001_Node000026" class="edge">
<title>Node1&#45;&gt;Node26</title>
<g id="a_edge44_Node000001_Node000026"><a xlink:title=" ">
<path fill="none" stroke="#63b8ff" d="M1277.45,-759.94C1316.19,-749.29 1365.62,-735.57 1409.5,-723 1412.26,-722.21 1415.08,-721.4 1417.92,-720.57"/>
<polygon fill="#63b8ff" stroke="#63b8ff" points="1276.05,-756.7 1267.33,-762.72 1277.9,-763.45 1276.05,-756.7"/>
</a>
</g>
</g>
<!-- Node30 -->
<g id="Node000030" class="node">
<title>Node30</title>
<g id="a_Node000030"><a xlink:href="polynomial2d_8hpp.html" target="_top" xlink:title=" ">
<polygon fill="white" stroke="#666666" points="1267,-723 1152,-723 1152,-682 1267,-682 1267,-723"/>
<text text-anchor="start" x="1160" y="-711" font-family="Helvetica,sans-Serif" font-size="10.00">/__w/vulpes/vulpes</text>
<text text-anchor="start" x="1160" y="-700" font-family="Helvetica,sans-Serif" font-size="10.00">/vulpes/polynomials</text>
<text text-anchor="middle" x="1209.5" y="-689" font-family="Helvetica,sans-Serif" font-size="10.00">/polynomial2d.hpp</text>
</a>
</g>
</g>
<!-- Node1&#45;&gt;Node30 -->
<g id="edge54_Node000001_Node000030" class="edge">
<title>Node1&#45;&gt;Node30</title>
<g id="a_edge54_Node000001_Node000030"><a xlink:title=" ">
<path fill="none" stroke="#63b8ff" d="M1209.5,-748.69C1209.5,-740.08 1209.5,-730.9 1209.5,-723.07"/>
<polygon fill="#63b8ff" stroke="#63b8ff" points="1206,-748.79 1209.5,-758.79 1213,-748.79 1206,-748.79"/>
</a>
</g>
</g>
<!-- Node31 -->
<g id="Node000031" class="node">
<title>Node31</title>
<g id="a_Node000031"><a xlink:href="polynomial3d_8hpp.html" target="_top" xlink:title=" ">
<polygon fill="white" stroke="#666666" points="1400,-723 1285,-723 1285,-682 1400,-682 1400,-723"/>
<text text-anchor="start" x="1293" y="-711" font-family="Helvetica,sans-Serif" font-size="10.00">/__w/vulpes/vulpes</text>
<text text-anchor="start" x="1293" y="-700" font-family="Helvetica,sans-Serif" font-size="10.00">/vulpes/polynomials</text>
<text text-anchor="middle" x="1342.5" y="-689" font-family="Helvetica,sans-Serif" font-size="10.00">/polynomial3d.hpp</text>
</a>
</g>
</g>
<!-- Node1&#45;&gt;Node31 -->
<g id="edge56_Node000001_Node000031" class="edge">
<title>Node1&#45;&gt;Node31</title>
<g id="a_edge56_Node000001_Node000031"><a xlink:title=" ">
<path fill="none" stroke="#63b8ff" d="M1253.09,-753.92C1270.78,-743.95 1290.93,-732.58 1307.61,-723.17"/>
<polygon fill="#63b8ff" stroke="#63b8ff" points="1251.09,-751.03 1244.1,-758.99 1254.53,-757.13 1251.09,-751.03"/>
</a>
</g>
</g>
<!-- Node2&#45;&gt;Node3 -->
<g id="edge2_Node000002_Node000003" class="edge">
<title>Node2&#45;&gt;Node3</title>
<g id="a_edge2_Node000002_Node000003"><a xlink:title=" ">
<path fill="none" stroke="#63b8ff" d="M1028.11,-677.41C1028.92,-665.24 1029.87,-650.9 1030.56,-640.54"/>
<polygon fill="#63b8ff" stroke="#63b8ff" points="1024.61,-677.18 1027.44,-687.39 1031.6,-677.65 1024.61,-677.18"/>
</a>
</g>
</g>
<!-- Node4 -->
<g id="Node000004" class="node">
<title>Node4</title>
<g id="a_Node000004"><a xlink:href="integrator__gauss_8hpp.html" target="_top" xlink:title=" ">
<polygon fill="white" stroke="#666666" points="153,-118 0,-118 0,-77 153,-77 153,-118"/>
<text text-anchor="start" x="8" y="-106" font-family="Helvetica,sans-Serif" font-size="10.00">/__w/vulpes/vulpes</text>
<text text-anchor="start" x="8" y="-95" font-family="Helvetica,sans-Serif" font-size="10.00">/vulpes/assemble/integrator</text>
<text text-anchor="middle" x="76.5" y="-84" font-family="Helvetica,sans-Serif" font-size="10.00">_gauss.hpp</text>
</a>
</g>
</g>
<!-- Node3&#45;&gt;Node4 -->
<g id="edge3_Node000003_Node000004" class="edge">
<title>Node3&#45;&gt;Node4</title>
<g id="a_edge3_Node000003_Node000004"><a xlink:title=" ">
<path fill="none" stroke="#63b8ff" d="M955.27,-622.78C760.86,-617.94 257.18,-602.3 189.5,-569 138.22,-543.77 104.5,-529.65 104.5,-472.5 104.5,-472.5 104.5,-472.5 104.5,-250.5 104.5,-202.47 90.81,-147.29 82.58,-118.45"/>
<polygon fill="#63b8ff" stroke="#63b8ff" points="955.32,-626.29 965.4,-623.03 955.49,-619.29 955.32,-626.29"/>
</a>
</g>
</g>
<!-- Node5 -->
<g id="Node000005" class="node">
<title>Node5</title>
<g id="a_Node000005"><a xlink:href="integrator__qfree_8hpp.html" target="_top" xlink:title=" ">
<polygon fill="white" stroke="#666666" points="324,-118 171,-118 171,-77 324,-77 324,-118"/>
<text text-anchor="start" x="179" y="-106" font-family="Helvetica,sans-Serif" font-size="10.00">/__w/vulpes/vulpes</text>
<text text-anchor="start" x="179" y="-95" font-family="Helvetica,sans-Serif" font-size="10.00">/vulpes/assemble/integrator</text>
<text text-anchor="middle" x="247.5" y="-84" font-family="Helvetica,sans-Serif" font-size="10.00">_qfree.hpp</text>
</a>
</g>
</g>
<!-- Node3&#45;&gt;Node5 -->
<g id="edge4_Node000003_Node000005" class="edge">
<title>Node3&#45;&gt;Node5</title>
<g id="a_edge4_Node000003_Node000005"><a xlink:title=" ">
<path fill="none" stroke="#63b8ff" d="M955.09,-621.9C774.32,-615.34 330.91,-596.62 269.5,-569 213.46,-543.8 170.5,-533.94 170.5,-472.5 170.5,-472.5 170.5,-472.5 170.5,-250.5 170.5,-206.79 168.51,-192.34 189.5,-154 197.06,-140.19 209.25,-127.75 220.51,-118.17"/>
<polygon fill="#63b8ff" stroke="#63b8ff" points="955.2,-625.41 965.32,-622.27 955.45,-618.42 955.2,-625.41"/>
</a>
</g>
</g>
<!-- Node7 -->
<g id="Node000007" class="node">
<title>Node7</title>
<g id="a_Node000007"><a xlink:href="integrator__simplexify_8hpp.html" target="_top" xlink:title=" ">
<polygon fill="white" stroke="#666666" points="495,-118 342,-118 342,-77 495,-77 495,-118"/>
<text text-anchor="start" x="350" y="-106" font-family="Helvetica,sans-Serif" font-size="10.00">/__w/vulpes/vulpes</text>
<text text-anchor="start" x="350" y="-95" font-family="Helvetica,sans-Serif" font-size="10.00">/vulpes/assemble/integrator</text>
<text text-anchor="middle" x="418.5" y="-84" font-family="Helvetica,sans-Serif" font-size="10.00">_simplexify.hpp</text>
</a>
</g>
</g>
<!-- Node3&#45;&gt;Node7 -->
<g id="edge6_Node000003_Node000007" class="edge">
<title>Node3&#45;&gt;Node7</title>
<g id="a_edge6_Node000003_Node000007"><a xlink:title=" ">
<path fill="none" stroke="#63b8ff" d="M955.01,-624.33C778.7,-623.14 355.47,-615.42 312.5,-569 293.6,-548.59 209.23,-554.41 332.5,-231 339.72,-212.06 349.04,-211.72 360.5,-195 378.19,-169.21 396.42,-137.96 407.61,-118.15"/>
<polygon fill="#63b8ff" stroke="#63b8ff" points="955.23,-627.83 965.25,-624.39 955.27,-620.83 955.23,-627.83"/>
</a>
</g>
</g>
<!-- Node9 -->
<g id="Node000009" class="node">
<title>Node9</title>
<g id="a_Node000009"><a xlink:href="dof__handler_8hpp.html" target="_top" xlink:title=" ">
<polygon fill="white" stroke="#666666" points="1110,-563.5 953,-563.5 953,-533.5 1110,-533.5 1110,-563.5"/>
<text text-anchor="start" x="961" y="-551.5" font-family="Helvetica,sans-Serif" font-size="10.00">/__w/vulpes/vulpes</text>
<text text-anchor="middle" x="1031.5" y="-540.5" font-family="Helvetica,sans-Serif" font-size="10.00">/vulpes/dofs/dof_handler.hpp</text>
</a>
</g>
</g>
<!-- Node3&#45;&gt;Node9 -->
<g id="edge9_Node000003_Node000009" class="edge">
<title>Node3&#45;&gt;Node9</title>
<g id="a_edge9_Node000003_Node000009"><a xlink:title=" ">
<path fill="none" stroke="#63b8ff" d="M1031.5,-600.04C1031.5,-587.95 1031.5,-573.79 1031.5,-563.54"/>
<polygon fill="#63b8ff" stroke="#63b8ff" points="1028,-600.39 1031.5,-610.39 1035,-600.39 1028,-600.39"/>
</a>
</g>
</g>
<!-- Node11 -->
<g id="Node000011" class="node">
<title>Node11</title>
<g id="a_Node000011"><a xlink:href="fe__expr__base_8hpp.html" target="_top" xlink:title=" ">
<polygon fill="white" stroke="#666666" points="877,-492 736,-492 736,-451 877,-451 877,-492"/>
<text text-anchor="start" x="744" y="-480" font-family="Helvetica,sans-Serif" font-size="10.00">/__w/vulpes/vulpes</text>
<text text-anchor="start" x="744" y="-469" font-family="Helvetica,sans-Serif" font-size="10.00">/vulpes/fe/fe_expressions</text>
<text text-anchor="middle" x="806.5" y="-458" font-family="Helvetica,sans-Serif" font-size="10.00">/fe_expr_base.hpp</text>
</a>
</g>
</g>
<!-- Node3&#45;&gt;Node11 -->
<g id="edge12_Node000003_Node000011" class="edge">
<title>Node3&#45;&gt;Node11</title>
<g id="a_edge12_Node000003_Node000011"><a xlink:title=" ">
<path fill="none" stroke="#63b8ff" d="M999.62,-604.94C982.8,-594.48 961.88,-581.26 943.5,-569 904.77,-543.17 860.94,-511.93 833.51,-492.14"/>
<polygon fill="#63b8ff" stroke="#63b8ff" points="998.16,-608.15 1008.5,-610.44 1001.85,-602.2 998.16,-608.15"/>
</a>
</g>
</g>
<!-- Node15 -->
<g id="Node000015" class="node">
<title>Node15</title>
<g id="a_Node000015"><a xlink:href="fe__vem_8hpp.html" target="_top" xlink:title=" ">
<polygon fill="white" stroke="#666666" points="1247.5,-272 1131.5,-272 1131.5,-231 1247.5,-231 1247.5,-272"/>
<text text-anchor="start" x="1139.5" y="-260" font-family="Helvetica,sans-Serif" font-size="10.00">/__w/vulpes/vulpes</text>
<text text-anchor="start" x="1139.5" y="-249" font-family="Helvetica,sans-Serif" font-size="10.00">/vulpes/fe/fe_spaces</text>
<text text-anchor="middle" x="1189.5" y="-238" font-family="Helvetica,sans-Serif" font-size="10.00">/fe_vem.hpp</text>
</a>
</g>
</g>
<!-- Node3&#45;&gt;Node15 -->
<g id="edge37_Node000003_Node000015" class="edge">
<title>Node3&#45;&gt;Node15</title>
<g id="a_edge37_Node000003_Node000015"><a xlink:title=" ">
<path fill="none" stroke="#63b8ff" d="M1075.64,-605.59C1091.66,-596.67 1108.51,-584.53 1119.5,-569 1144.92,-533.1 1141.5,-516.49 1141.5,-472.5 1141.5,-472.5 1141.5,-472.5 1141.5,-393.5 1141.5,-348.25 1163.93,-298.97 1178.12,-272.32"/>
<polygon fill="#63b8ff" stroke="#63b8ff" points="1073.58,-602.72 1066.36,-610.47 1076.84,-608.92 1073.58,-602.72"/>
</a>
</g>
</g>
<!-- Node20 -->
<g id="Node000020" class="node">
<title>Node20</title>
<g id="a_Node000020"><a xlink:href="fe__lagrange__simplex_8hpp.html" target="_top" xlink:title=" ">
<polygon fill="white" stroke="#666666" points="1389,-569 1246,-569 1246,-528 1389,-528 1389,-569"/>
<text text-anchor="start" x="1254" y="-557" font-family="Helvetica,sans-Serif" font-size="10.00">/__w/vulpes/vulpes</text>
<text text-anchor="start" x="1254" y="-546" font-family="Helvetica,sans-Serif" font-size="10.00">/vulpes/fe/fe_spaces</text>
<text text-anchor="middle" x="1317.5" y="-535" font-family="Helvetica,sans-Serif" font-size="10.00">/fe_lagrange_simplex.hpp</text>
</a>
</g>
</g>
<!-- Node3&#45;&gt;Node20 -->
<g id="edge30_Node000003_Node000020" class="edge">
<title>Node3&#45;&gt;Node20</title>
<g id="a_edge30_Node000003_Node000020"><a xlink:title=" ">
<path fill="none" stroke="#63b8ff" d="M1094.83,-607.89C1139.54,-596.17 1199.51,-580.44 1245.95,-568.26"/>
<polygon fill="#63b8ff" stroke="#63b8ff" points="1093.74,-604.56 1084.96,-610.48 1095.52,-611.33 1093.74,-604.56"/>
</a>
</g>
</g>
<!-- Node22 -->
<g id="Node000022" class="node">
<title>Node22</title>
<g id="a_Node000022"><a xlink:href="fe__lagrange__tensor_8hpp.html" target="_top" xlink:title=" ">
<polygon fill="white" stroke="#666666" points="1303.5,-492 1169.5,-492 1169.5,-451 1303.5,-451 1303.5,-492"/>
<text text-anchor="start" x="1177.5" y="-480" font-family="Helvetica,sans-Serif" font-size="10.00">/__w/vulpes/vulpes</text>
<text text-anchor="start" x="1177.5" y="-469" font-family="Helvetica,sans-Serif" font-size="10.00">/vulpes/fe/fe_spaces</text>
<text text-anchor="middle" x="1236.5" y="-458" font-family="Helvetica,sans-Serif" font-size="10.00">/fe_lagrange_tensor.hpp</text>
</a>
</g>
</g>
<!-- Node3&#45;&gt;Node22 -->
<g id="edge34_Node000003_Node000022" class="edge">
<title>Node3&#45;&gt;Node22</title>
<g id="a_edge34_Node000003_Node000022"><a xlink:title=" ">
<path fill="none" stroke="#63b8ff" d="M1085.05,-606.68C1108.05,-597.53 1134.42,-584.92 1155.5,-569 1184.3,-547.25 1209.63,-513.45 1223.99,-492.17"/>
<polygon fill="#63b8ff" stroke="#63b8ff" points="1083.5,-603.53 1075.43,-610.39 1086.02,-610.06 1083.5,-603.53"/>
</a>
</g>
</g>
<!-- Node23 -->
<g id="Node000023" class="node">
<title>Node23</title>
<g id="a_Node000023"><a xlink:href="fe__modal__simplex_8hpp.html" target="_top" xlink:title=" ">
<polygon fill="white" stroke="#666666" points="1453,-492 1322,-492 1322,-451 1453,-451 1453,-492"/>
<text text-anchor="start" x="1330" y="-480" font-family="Helvetica,sans-Serif" font-size="10.00">/__w/vulpes/vulpes</text>
<text text-anchor="start" x="1330" y="-469" font-family="Helvetica,sans-Serif" font-size="10.00">/vulpes/fe/fe_spaces</text>
<text text-anchor="middle" x="1387.5" y="-458" font-family="Helvetica,sans-Serif" font-size="10.00">/fe_modal_simplex.hpp</text>
</a>
</g>
</g>
<!-- Node3&#45;&gt;Node23 -->
<g id="edge35_Node000003_Node000023" class="edge">
<title>Node3&#45;&gt;Node23</title>
<g id="a_edge35_Node000003_Node000023"><a xlink:title=" ">
<path fill="none" stroke="#63b8ff" d="M1096.82,-607.5C1126.24,-598.37 1160.75,-585.55 1189.5,-569 1213.81,-555 1213.3,-542.2 1237.5,-528 1263.6,-512.68 1294.67,-500.35 1321.74,-491.23"/>
<polygon fill="#63b8ff" stroke="#63b8ff" points="1095.61,-604.21 1087.05,-610.46 1097.63,-610.91 1095.61,-604.21"/>
</a>
</g>
</g>
<!-- Node24 -->
<g id="Node000024" class="node">
<title>Node24</title>
<g id="a_Node000024"><a xlink:href="fe__modal__tensor_8hpp.html" target="_top" xlink:title=" ">
<polygon fill="white" stroke="#666666" points="1642.5,-569 1520.5,-569 1520.5,-528 1642.5,-528 1642.5,-569"/>
<text text-anchor="start" x="1528.5" y="-557" font-family="Helvetica,sans-Serif" font-size="10.00">/__w/vulpes/vulpes</text>
<text text-anchor="start" x="1528.5" y="-546" font-family="Helvetica,sans-Serif" font-size="10.00">/vulpes/fe/fe_spaces</text>
<text text-anchor="middle" x="1581.5" y="-535" font-family="Helvetica,sans-Serif" font-size="10.00">/fe_modal_tensor.hpp</text>
</a>
</g>
</g>
<!-- Node3&#45;&gt;Node24 -->
<g id="edge36_Node000003_Node000024" class="edge">
<title>Node3&#45;&gt;Node24</title>
<g id="a_edge36_Node000003_Node000024"><a xlink:title=" ">
<path fill="none" stroke="#63b8ff" d="M1107.61,-614.12C1217.71,-599.11 1419.28,-571.62 1520.34,-557.84"/>
<polygon fill="#63b8ff" stroke="#63b8ff" points="1107,-610.67 1097.57,-615.49 1107.95,-617.61 1107,-610.67"/>
</a>
</g>
</g>
<!-- Node25 -->
<g id="Node000025" class="node">
<title>Node25</title>
<g id="a_Node000025"><a xlink:href="fe__values_8hpp.html" target="_top" xlink:title=" ">
<polygon fill="white" stroke="#666666" points="457.5,-563.5 321.5,-563.5 321.5,-533.5 457.5,-533.5 457.5,-563.5"/>
<text text-anchor="start" x="329.5" y="-551.5" font-family="Helvetica,sans-Serif" font-size="10.00">/__w/vulpes/vulpes</text>
<text text-anchor="middle" x="389.5" y="-540.5" font-family="Helvetica,sans-Serif" font-size="10.00">/vulpes/fe/fe_values.hpp</text>
</a>
</g>
</g>
<!-- Node3&#45;&gt;Node25 -->
<g id="edge38_Node000003_Node000025" class="edge">
<title>Node3&#45;&gt;Node25</title>
<g id="a_edge38_Node000003_Node000025"><a xlink:title=" ">
<path fill="none" stroke="#63b8ff" d="M955.24,-615.59C829.01,-600.85 578.64,-571.6 457.84,-557.48"/>
<polygon fill="#63b8ff" stroke="#63b8ff" points="954.87,-619.07 965.21,-616.76 955.69,-612.12 954.87,-619.07"/>
</a>
</g>
</g>
<!-- Node6 -->
<g id="Node000006" class="node">
<title>Node6</title>
<g id="a_Node000006"><a xlink:href="integrator__vem_8hpp.html" target="_top" xlink:title=" ">
<polygon fill="white" stroke="#666666" points="440,-41 287,-41 287,0 440,0 440,-41"/>
<text text-anchor="start" x="295" y="-29" font-family="Helvetica,sans-Serif" font-size="10.00">/__w/vulpes/vulpes</text>
<text text-anchor="start" x="295" y="-18" font-family="Helvetica,sans-Serif" font-size="10.00">/vulpes/assemble/integrator</text>
<text text-anchor="middle" x="363.5" y="-7" font-family="Helvetica,sans-Serif" font-size="10.00">_vem.hpp</text>
</a>
</g>
</g>
<!-- Node5&#45;&gt;Node6 -->
<g id="edge5_Node000005_Node000006" class="edge">
<title>Node5&#45;&gt;Node6</title>
<g id="a_edge5_Node000005_Node000006"><a xlink:title=" ">
<path fill="none" stroke="#63b8ff" d="M286.37,-71.37C301.59,-61.53 318.79,-50.41 333.07,-41.17"/>
<polygon fill="#63b8ff" stroke="#63b8ff" points="284.17,-68.62 277.67,-76.99 287.97,-74.5 284.17,-68.62"/>
</a>
</g>
</g>
<!-- Node7&#45;&gt;Node6 -->
<g id="edge8_Node000007_Node000006" class="edge">
<title>Node7&#45;&gt;Node6</title>
<g id="a_edge8_Node000007_Node000006"><a xlink:title=" ">
<path fill="none" stroke="#63b8ff" d="M398.09,-68.67C391.37,-59.5 384.03,-49.5 377.85,-41.07"/>
<polygon fill="#63b8ff" stroke="#63b8ff" points="395.31,-70.8 404.05,-76.79 400.96,-66.66 395.31,-70.8"/>
</a>
</g>
</g>
<!-- Node8 -->
<g id="Node000008" class="node">
<title>Node8</title>
<g id="a_Node000008"><a xlink:href="dg__utils_8hpp.html" target="_top" xlink:title=" ">
<polygon fill="white" stroke="#666666" points="636,-41 519,-41 519,0 636,0 636,-41"/>
<text text-anchor="start" x="527" y="-29" font-family="Helvetica,sans-Serif" font-size="10.00">/__w/vulpes/vulpes</text>
<text text-anchor="start" x="527" y="-18" font-family="Helvetica,sans-Serif" font-size="10.00">/vulpes/assemble/dg</text>
<text text-anchor="middle" x="577.5" y="-7" font-family="Helvetica,sans-Serif" font-size="10.00">_utils.hpp</text>
</a>
</g>
</g>
<!-- Node7&#45;&gt;Node8 -->
<g id="edge7_Node000007_Node000008" class="edge">
<title>Node7&#45;&gt;Node8</title>
<g id="a_edge7_Node000007_Node000008"><a xlink:title=" ">
<path fill="none" stroke="#63b8ff" d="M468.91,-72.72C490.55,-62.51 515.53,-50.73 536.07,-41.04"/>
<polygon fill="#63b8ff" stroke="#63b8ff" points="467.41,-69.56 459.86,-76.99 470.4,-75.89 467.41,-69.56"/>
</a>
</g>
</g>
<!-- Node9&#45;&gt;Node8 -->
<g id="edge10_Node000009_Node000008" class="edge">
<title>Node9&#45;&gt;Node8</title>
<g id="a_edge10_Node000009_Node000008"><a xlink:title=" ">
<path fill="none" stroke="#63b8ff" d="M1056.98,-526.62C1067.03,-517.08 1077.76,-505.01 1084.5,-492 1104.62,-453.19 1103.5,-439.21 1103.5,-395.5 1103.5,-395.5 1103.5,-395.5 1103.5,-173.5 1103.5,-77.08 773.16,-38.02 636.05,-25.96"/>
<polygon fill="#63b8ff" stroke="#63b8ff" points="1054.56,-524.09 1049.51,-533.4 1059.26,-529.27 1054.56,-524.09"/>
</a>
</g>
</g>
<!-- Node10 -->
<g id="Node000010" class="node">
<title>Node10</title>
<g id="a_Node000010"><a xlink:href="project__solution_8hpp.html" target="_top" xlink:title=" ">
<polygon fill="white" stroke="#666666" points="1075.5,-492 947.5,-492 947.5,-451 1075.5,-451 1075.5,-492"/>
<text text-anchor="start" x="955.5" y="-480" font-family="Helvetica,sans-Serif" font-size="10.00">/__w/vulpes/vulpes</text>
<text text-anchor="start" x="955.5" y="-469" font-family="Helvetica,sans-Serif" font-size="10.00">/vulpes/postprocessing</text>
<text text-anchor="middle" x="1011.5" y="-458" font-family="Helvetica,sans-Serif" font-size="10.00">/project_solution.hpp</text>
</a>
</g>
</g>
<!-- Node9&#45;&gt;Node10 -->
<g id="edge11_Node000009_Node000010" class="edge">
<title>Node9&#45;&gt;Node10</title>
<g id="a_edge11_Node000009_Node000010"><a xlink:title=" ">
<path fill="none" stroke="#63b8ff" d="M1025.11,-523.55C1022.42,-513.44 1019.32,-501.81 1016.75,-492.2"/>
<polygon fill="#63b8ff" stroke="#63b8ff" points="1021.78,-524.63 1027.74,-533.39 1028.54,-522.83 1021.78,-524.63"/>
</a>
</g>
</g>
<!-- Node12 -->
<g id="Node000012" class="node">
<title>Node12</title>
<g id="a_Node000012"><a xlink:href="fe__expression_8hpp.html" target="_top" xlink:title=" ">
<polygon fill="white" stroke="#666666" points="726,-338 569,-338 569,-308 726,-308 726,-338"/>
<text text-anchor="start" x="577" y="-326" font-family="Helvetica,sans-Serif" font-size="10.00">/__w/vulpes/vulpes</text>
<text text-anchor="middle" x="647.5" y="-315" font-family="Helvetica,sans-Serif" font-size="10.00">/vulpes/fe/fe_expression.hpp</text>
</a>
</g>
</g>
<!-- Node11&#45;&gt;Node12 -->
<g id="edge13_Node000011_Node000012" class="edge">
<title>Node11&#45;&gt;Node12</title>
<g id="a_edge13_Node000011_Node000012"><a xlink:title=" ">
<path fill="none" stroke="#63b8ff" d="M857.89,-445.13C868.96,-437.1 879.22,-427.09 885.5,-415 893.9,-398.83 896.98,-388.15 885.5,-374 865.58,-349.46 787.52,-336.52 726.16,-330.01"/>
<polygon fill="#63b8ff" stroke="#63b8ff" points="855.66,-442.4 849.31,-450.88 859.57,-448.21 855.66,-442.4"/>
</a>
</g>
</g>
<!-- Node16 -->
<g id="Node000016" class="node">
<title>Node16</title>
<g id="a_Node000016"><a xlink:href="fe__expr__basis_8hpp.html" target="_top" xlink:title=" ">
<polygon fill="white" stroke="#666666" points="1075,-415 934,-415 934,-374 1075,-374 1075,-415"/>
<text text-anchor="start" x="942" y="-403" font-family="Helvetica,sans-Serif" font-size="10.00">/__w/vulpes/vulpes</text>
<text text-anchor="start" x="942" y="-392" font-family="Helvetica,sans-Serif" font-size="10.00">/vulpes/fe/fe_expressions</text>
<text text-anchor="middle" x="1004.5" y="-381" font-family="Helvetica,sans-Serif" font-size="10.00">/fe_expr_basis.hpp</text>
</a>
</g>
</g>
<!-- Node11&#45;&gt;Node16 -->
<g id="edge22_Node000011_Node000016" class="edge">
<title>Node11&#45;&gt;Node16</title>
<g id="a_edge22_Node000011_Node000016"><a xlink:title=" ">
<path fill="none" stroke="#63b8ff" d="M867.47,-447.4C894.83,-437.04 926.76,-424.95 952.91,-415.04"/>
<polygon fill="#63b8ff" stroke="#63b8ff" points="866.12,-444.18 858.01,-450.99 868.6,-450.72 866.12,-444.18"/>
</a>
</g>
</g>
<!-- Node17 -->
<g id="Node000017" class="node">
<title>Node17</title>
<g id="a_Node000017"><a xlink:href="fe__expr__func_8hpp.html" target="_top" xlink:title=" ">
<polygon fill="white" stroke="#666666" points="559,-415 418,-415 418,-374 559,-374 559,-415"/>
<text text-anchor="start" x="426" y="-403" font-family="Helvetica,sans-Serif" font-size="10.00">/__w/vulpes/vulpes</text>
<text text-anchor="start" x="426" y="-392" font-family="Helvetica,sans-Serif" font-size="10.00">/vulpes/fe/fe_expressions</text>
<text text-anchor="middle" x="488.5" y="-381" font-family="Helvetica,sans-Serif" font-size="10.00">/fe_expr_func.hpp</text>
</a>
</g>
</g>
<!-- Node11&#45;&gt;Node17 -->
<g id="edge24_Node000011_Node000017" class="edge">
<title>Node11&#45;&gt;Node17</title>
<g id="a_edge24_Node000011_Node000017"><a xlink:title=" ">
<path fill="none" stroke="#63b8ff" d="M725.86,-452.07C679.5,-441.4 620.18,-427.62 567.5,-415 564.75,-414.34 561.95,-413.67 559.12,-412.98"/>
<polygon fill="#63b8ff" stroke="#63b8ff" points="725.32,-455.53 735.85,-454.36 726.89,-448.71 725.32,-455.53"/>
</a>
</g>
</g>
<!-- Node18 -->
<g id="Node000018" class="node">
<title>Node18</title>
<g id="a_Node000018"><a xlink:href="fe__expr__op_8hpp.html" target="_top" xlink:title=" ">
<polygon fill="white" stroke="#666666" points="718,-415 577,-415 577,-374 718,-374 718,-415"/>
<text text-anchor="start" x="585" y="-403" font-family="Helvetica,sans-Serif" font-size="10.00">/__w/vulpes/vulpes</text>
<text text-anchor="start" x="585" y="-392" font-family="Helvetica,sans-Serif" font-size="10.00">/vulpes/fe/fe_expressions</text>
<text text-anchor="middle" x="647.5" y="-381" font-family="Helvetica,sans-Serif" font-size="10.00">/fe_expr_op.hpp</text>
</a>
</g>
</g>
<!-- Node11&#45;&gt;Node18 -->
<g id="edge26_Node000011_Node000018" class="edge">
<title>Node11&#45;&gt;Node18</title>
<g id="a_edge26_Node000011_Node000018"><a xlink:title=" ">
<path fill="none" stroke="#63b8ff" d="M756.09,-446.72C734.45,-436.51 709.47,-424.73 688.93,-415.04"/>
<polygon fill="#63b8ff" stroke="#63b8ff" points="754.6,-449.89 765.14,-450.99 757.59,-443.56 754.6,-449.89"/>
</a>
</g>
</g>
<!-- Node19 -->
<g id="Node000019" class="node">
<title>Node19</title>
<g id="a_Node000019"><a xlink:href="fe__expr__unary_8hpp.html" target="_top" xlink:title=" ">
<polygon fill="white" stroke="#666666" points="877,-415 736,-415 736,-374 877,-374 877,-415"/>
<text text-anchor="start" x="744" y="-403" font-family="Helvetica,sans-Serif" font-size="10.00">/__w/vulpes/vulpes</text>
<text text-anchor="start" x="744" y="-392" font-family="Helvetica,sans-Serif" font-size="10.00">/vulpes/fe/fe_expressions</text>
<text text-anchor="middle" x="806.5" y="-381" font-family="Helvetica,sans-Serif" font-size="10.00">/fe_expr_unary.hpp</text>
</a>
</g>
</g>
<!-- Node11&#45;&gt;Node19 -->
<g id="edge28_Node000011_Node000019" class="edge">
<title>Node11&#45;&gt;Node19</title>
<g id="a_edge28_Node000011_Node000019"><a xlink:title=" ">
<path fill="none" stroke="#63b8ff" d="M806.5,-440.69C806.5,-432.08 806.5,-422.9 806.5,-415.07"/>
<polygon fill="#63b8ff" stroke="#63b8ff" points="803,-440.79 806.5,-450.79 810,-440.79 803,-440.79"/>
</a>
</g>
</g>
<!-- Node12&#45;&gt;Node8 -->
<g id="edge14_Node000012_Node000008" class="edge">
<title>Node12&#45;&gt;Node8</title>
<g id="a_edge14_Node000012_Node000008"><a xlink:title=" ">
<path fill="none" stroke="#63b8ff" d="M641.88,-297.87C628.4,-240 594.45,-94.25 582.09,-41.2"/>
<polygon fill="#63b8ff" stroke="#63b8ff" points="638.54,-298.96 644.22,-307.91 645.36,-297.38 638.54,-298.96"/>
</a>
</g>
</g>
<!-- Node13 -->
<g id="Node000013" class="node">
<title>Node13</title>
<g id="a_Node000013"><a xlink:href="integrator__base_8hpp.html" target="_top" xlink:title=" ">
<polygon fill="white" stroke="#666666" points="352,-195 199,-195 199,-154 352,-154 352,-195"/>
<text text-anchor="start" x="207" y="-183" font-family="Helvetica,sans-Serif" font-size="10.00">/__w/vulpes/vulpes</text>
<text text-anchor="start" x="207" y="-172" font-family="Helvetica,sans-Serif" font-size="10.00">/vulpes/assemble/integrator</text>
<text text-anchor="middle" x="275.5" y="-161" font-family="Helvetica,sans-Serif" font-size="10.00">_base.hpp</text>
</a>
</g>
</g>
<!-- Node12&#45;&gt;Node13 -->
<g id="edge15_Node000012_Node000013" class="edge">
<title>Node12&#45;&gt;Node13</title>
<g id="a_edge15_Node000012_Node000013"><a xlink:title=" ">
<path fill="none" stroke="#63b8ff" d="M621.47,-301.85C593.68,-281.27 547.66,-249.73 503.5,-231 455.03,-210.44 397.38,-196.49 352.18,-187.72"/>
<polygon fill="#63b8ff" stroke="#63b8ff" points="619.38,-304.66 629.48,-307.86 623.58,-299.06 619.38,-304.66"/>
</a>
</g>
</g>
<!-- Node14 -->
<g id="Node000014" class="node">
<title>Node14</title>
<g id="a_Node000014"><a xlink:href="integrator__traits_8hpp.html" target="_top" xlink:title=" ">
<polygon fill="white" stroke="#666666" points="495,-272 342,-272 342,-231 495,-231 495,-272"/>
<text text-anchor="start" x="350" y="-260" font-family="Helvetica,sans-Serif" font-size="10.00">/__w/vulpes/vulpes</text>
<text text-anchor="start" x="350" y="-249" font-family="Helvetica,sans-Serif" font-size="10.00">/vulpes/assemble/integrator</text>
<text text-anchor="middle" x="418.5" y="-238" font-family="Helvetica,sans-Serif" font-size="10.00">_traits.hpp</text>
</a>
</g>
</g>
<!-- Node12&#45;&gt;Node14 -->
<g id="edge19_Node000012_Node000014" class="edge">
<title>Node12&#45;&gt;Node14</title>
<g id="a_edge19_Node000012_Node000014"><a xlink:title=" ">
<path fill="none" stroke="#63b8ff" d="M591.29,-304.94C558.52,-295 517.08,-282.42 482.99,-272.07"/>
<polygon fill="#63b8ff" stroke="#63b8ff" points="590.57,-308.38 601.16,-307.94 592.61,-301.68 590.57,-308.38"/>
</a>
</g>
</g>
<!-- Node12&#45;&gt;Node15 -->
<g id="edge21_Node000012_Node000015" class="edge">
<title>Node12&#45;&gt;Node15</title>
<g id="a_edge21_Node000012_Node000015"><a xlink:title=" ">
<path fill="none" stroke="#63b8ff" d="M736.25,-310.62C847.9,-296.3 1036.49,-272.12 1131.34,-259.96"/>
<polygon fill="#63b8ff" stroke="#63b8ff" points="735.5,-307.19 726.02,-311.93 736.39,-314.13 735.5,-307.19"/>
</a>
</g>
</g>
<!-- Node13&#45;&gt;Node4 -->
<g id="edge16_Node000013_Node000004" class="edge">
<title>Node13&#45;&gt;Node4</title>
<g id="a_edge16_Node000013_Node000004"><a xlink:title=" ">
<path fill="none" stroke="#63b8ff" d="M214.22,-150.4C186.72,-140.04 154.63,-127.95 128.35,-118.04"/>
<polygon fill="#63b8ff" stroke="#63b8ff" points="213.14,-153.74 223.73,-153.99 215.61,-147.19 213.14,-153.74"/>
</a>
</g>
</g>
<!-- Node13&#45;&gt;Node5 -->
<g id="edge17_Node000013_Node000005" class="edge">
<title>Node13&#45;&gt;Node5</title>
<g id="a_edge17_Node000013_Node000005"><a xlink:title=" ">
<path fill="none" stroke="#63b8ff" d="M264.58,-144.26C261.31,-135.48 257.79,-126.07 254.81,-118.07"/>
<polygon fill="#63b8ff" stroke="#63b8ff" points="261.37,-145.65 268.14,-153.79 267.92,-143.2 261.37,-145.65"/>
</a>
</g>
</g>
<!-- Node13&#45;&gt;Node7 -->
<g id="edge18_Node000013_Node000007" class="edge">
<title>Node13&#45;&gt;Node7</title>
<g id="a_edge18_Node000013_Node000007"><a xlink:title=" ">
<path fill="none" stroke="#63b8ff" d="M321.58,-149.33C340.79,-139.26 362.8,-127.71 380.99,-118.17"/>
<polygon fill="#63b8ff" stroke="#63b8ff" points="319.93,-146.25 312.7,-153.99 323.18,-152.45 319.93,-146.25"/>
</a>
</g>
</g>
<!-- Node14&#45;&gt;Node13 -->
<g id="edge20_Node000014_Node000013" class="edge">
<title>Node14&#45;&gt;Node13</title>
<g id="a_edge20_Node000014_Node000013"><a xlink:title=" ">
<path fill="none" stroke="#63b8ff" d="M372.42,-226.33C353.21,-216.26 331.2,-204.71 313.01,-195.17"/>
<polygon fill="#63b8ff" stroke="#63b8ff" points="370.82,-229.45 381.3,-230.99 374.07,-223.25 370.82,-229.45"/>
</a>
</g>
</g>
<!-- Node16&#45;&gt;Node12 -->
<g id="edge23_Node000016_Node000012" class="edge">
<title>Node16&#45;&gt;Node12</title>
<g id="a_edge23_Node000016_Node000012"><a xlink:title=" ">
<path fill="none" stroke="#63b8ff" d="M923.41,-374.81C922.1,-374.54 920.79,-374.27 919.5,-374 854.61,-360.6 780.64,-347.12 726.24,-337.53"/>
<polygon fill="#63b8ff" stroke="#63b8ff" points="923.08,-378.32 933.59,-376.99 924.54,-371.48 923.08,-378.32"/>
</a>
</g>
</g>
<!-- Node17&#45;&gt;Node12 -->
<g id="edge25_Node000017_Node000012" class="edge">
<title>Node17&#45;&gt;Node12</title>
<g id="a_edge25_Node000017_Node000012"><a xlink:title=" ">
<path fill="none" stroke="#63b8ff" d="M542.62,-369.85C566.75,-359.3 594.38,-347.22 615.21,-338.11"/>
<polygon fill="#63b8ff" stroke="#63b8ff" points="540.97,-366.74 533.21,-373.96 543.78,-373.16 540.97,-366.74"/>
</a>
</g>
</g>
<!-- Node18&#45;&gt;Node12 -->
<g id="edge27_Node000018_Node000012" class="edge">
<title>Node18&#45;&gt;Node12</title>
<g id="a_edge27_Node000018_Node000012"><a xlink:title=" ">
<path fill="none" stroke="#63b8ff" d="M647.5,-363.66C647.5,-354.76 647.5,-345.42 647.5,-338.04"/>
<polygon fill="#63b8ff" stroke="#63b8ff" points="644,-363.77 647.5,-373.77 651,-363.77 644,-363.77"/>
</a>
</g>
</g>
<!-- Node19&#45;&gt;Node12 -->
<g id="edge29_Node000019_Node000012" class="edge">
<title>Node19&#45;&gt;Node12</title>
<g id="a_edge29_Node000019_Node000012"><a xlink:title=" ">
<path fill="none" stroke="#63b8ff" d="M752.38,-369.85C728.25,-359.3 700.62,-347.22 679.79,-338.11"/>
<polygon fill="#63b8ff" stroke="#63b8ff" points="751.22,-373.16 761.79,-373.96 754.03,-366.74 751.22,-373.16"/>
</a>
</g>
</g>
<!-- Node21 -->
<g id="Node000021" class="node">
<title>Node21</title>
<g id="a_Node000021"><a xlink:href="fe__lagrange__simplex_8cpp.html" target="_top" xlink:title=" ">
<polygon fill="white" stroke="#666666" points="1613.5,-492 1471.5,-492 1471.5,-451 1613.5,-451 1613.5,-492"/>
<text text-anchor="start" x="1479.5" y="-480" font-family="Helvetica,sans-Serif" font-size="10.00">/__w/vulpes/vulpes</text>
<text text-anchor="start" x="1479.5" y="-469" font-family="Helvetica,sans-Serif" font-size="10.00">/vulpes/fe/fe_spaces</text>
<text text-anchor="middle" x="1542.5" y="-458" font-family="Helvetica,sans-Serif" font-size="10.00">/fe_lagrange_simplex.cpp</text>
</a>
</g>
</g>
<!-- Node20&#45;&gt;Node21 -->
<g id="edge31_Node000020_Node000021" class="edge">
<title>Node20&#45;&gt;Node21</title>
<g id="a_edge31_Node000020_Node000021"><a xlink:title=" ">
<path fill="none" stroke="#63b8ff" d="M1385.57,-524.81C1416.93,-514.36 1453.77,-502.08 1483.87,-492.04"/>
<polygon fill="#63b8ff" stroke="#63b8ff" points="1384.41,-521.51 1376.03,-527.99 1386.62,-528.15 1384.41,-521.51"/>
</a>
</g>
</g>
<!-- Node20&#45;&gt;Node22 -->
<g id="edge32_Node000020_Node000022" class="edge">
<title>Node20&#45;&gt;Node22</title>
<g id="a_edge32_Node000020_Node000022"><a xlink:title=" ">
<path fill="none" stroke="#63b8ff" d="M1288.65,-520.79C1278.42,-511.32 1267.11,-500.84 1257.64,-492.07"/>
<polygon fill="#63b8ff" stroke="#63b8ff" points="1286.5,-523.57 1296.22,-527.79 1291.26,-518.43 1286.5,-523.57"/>
</a>
</g>
</g>
<!-- Node20&#45;&gt;Node23 -->
<g id="edge33_Node000020_Node000023" class="edge">
<title>Node20&#45;&gt;Node23</title>
<g id="a_edge33_Node000020_Node000023"><a xlink:title=" ">
<path fill="none" stroke="#63b8ff" d="M1342.95,-520.23C1351.65,-510.91 1361.21,-500.67 1369.23,-492.07"/>
<polygon fill="#63b8ff" stroke="#63b8ff" points="1340.16,-518.1 1335.89,-527.79 1345.27,-522.87 1340.16,-518.1"/>
</a>
</g>
</g>
<!-- Node25&#45;&gt;Node8 -->
<g id="edge39_Node000025_Node000008" class="edge">
<title>Node25&#45;&gt;Node8</title>
<g id="a_edge39_Node000025_Node000008"><a xlink:title=" ">
<path fill="none" stroke="#63b8ff" d="M387.48,-523.04C385.63,-488.25 385.96,-423.22 408.5,-374 434.3,-317.68 472.8,-325.81 503.5,-272 548.34,-193.43 568.23,-85.19 574.83,-41.24"/>
<polygon fill="#63b8ff" stroke="#63b8ff" points="384,-523.46 388.14,-533.22 390.99,-523.01 384,-523.46"/>
</a>
</g>
</g>
<!-- Node25&#45;&gt;Node11 -->
<g id="edge42_Node000025_Node000011" class="edge">
<title>Node25&#45;&gt;Node11</title>
<g id="a_edge42_Node000025_Node000011"><a xlink:title=" ">
<path fill="none" stroke="#63b8ff" d="M468.03,-533.38C545.16,-519.5 661.74,-498.54 735.98,-485.18"/>
<polygon fill="#63b8ff" stroke="#63b8ff" points="467.11,-529.98 457.89,-535.2 468.35,-536.87 467.11,-529.98"/>
</a>
</g>
</g>
<!-- Node25&#45;&gt;Node13 -->
<g id="edge40_Node000025_Node000013" class="edge">
<title>Node25&#45;&gt;Node13</title>
<g id="a_edge40_Node000025_Node000013"><a xlink:title=" ">
<path fill="none" stroke="#63b8ff" d="M379.62,-524.01C375.64,-514.2 371.14,-502.62 367.5,-492 329.57,-381.3 293.53,-245.49 280.57,-195.33"/>
<polygon fill="#63b8ff" stroke="#63b8ff" points="376.48,-525.58 383.52,-533.49 382.95,-522.91 376.48,-525.58"/>
</a>
</g>
</g>
<!-- Node25&#45;&gt;Node14 -->
<g id="edge41_Node000025_Node000014" class="edge">
<title>Node25&#45;&gt;Node14</title>
<g id="a_edge41_Node000025_Node000014"><a xlink:title=" ">
<path fill="none" stroke="#63b8ff" d="M382.03,-523.36C379.41,-513.71 376.8,-502.43 375.5,-492 369.04,-439.96 366.62,-425.69 375.5,-374 381.9,-336.73 398.59,-295.72 409.19,-272.15"/>
<polygon fill="#63b8ff" stroke="#63b8ff" points="378.7,-524.43 384.82,-533.08 385.43,-522.5 378.7,-524.43"/>
</a>
</g>
</g>
<!-- Node26&#45;&gt;Node24 -->
<g id="edge45_Node000026_Node000024" class="edge">
<title>Node26&#45;&gt;Node24</title>
<g id="a_edge45_Node000026_Node000024"><a xlink:title=" ">
<path fill="none" stroke="#63b8ff" d="M1529.57,-676.51C1542.06,-668.41 1554.13,-658.27 1562.5,-646 1578.19,-623.01 1581.6,-590.17 1582.01,-569.35"/>
<polygon fill="#63b8ff" stroke="#63b8ff" points="1527.61,-673.61 1520.89,-681.8 1531.25,-679.59 1527.61,-673.61"/>
</a>
</g>
</g>
<!-- Node27 -->
<g id="Node000027" class="node">
<title>Node27</title>
<g id="a_Node000027"><a xlink:href="ndpolynomial_8hpp.html" target="_top" xlink:title=" ">
<polygon fill="white" stroke="#666666" points="1375,-646 1260,-646 1260,-605 1375,-605 1375,-646"/>
<text text-anchor="start" x="1268" y="-634" font-family="Helvetica,sans-Serif" font-size="10.00">/__w/vulpes/vulpes</text>
<text text-anchor="start" x="1268" y="-623" font-family="Helvetica,sans-Serif" font-size="10.00">/vulpes/polynomials</text>
<text text-anchor="middle" x="1317.5" y="-612" font-family="Helvetica,sans-Serif" font-size="10.00">/ndpolynomial.hpp</text>
</a>
</g>
</g>
<!-- Node26&#45;&gt;Node27 -->
<g id="edge46_Node000026_Node000027" class="edge">
<title>Node26&#45;&gt;Node27</title>
<g id="a_edge46_Node000026_Node000027"><a xlink:title=" ">
<path fill="none" stroke="#63b8ff" d="M1425.12,-677.59C1403.68,-667.41 1378.99,-655.69 1358.67,-646.04"/>
<polygon fill="#63b8ff" stroke="#63b8ff" points="1423.87,-680.86 1434.4,-681.99 1426.87,-674.54 1423.87,-680.86"/>
</a>
</g>
</g>
<!-- Node28 -->
<g id="Node000028" class="node">
<title>Node28</title>
<g id="a_Node000028"><a xlink:href="sparse__polynomial_8hpp.html" target="_top" xlink:title=" ">
<polygon fill="white" stroke="#666666" points="1743,-646 1610,-646 1610,-605 1743,-605 1743,-646"/>
<text text-anchor="start" x="1618" y="-634" font-family="Helvetica,sans-Serif" font-size="10.00">/__w/vulpes/vulpes</text>
<text text-anchor="start" x="1618" y="-623" font-family="Helvetica,sans-Serif" font-size="10.00">/vulpes/polynomials</text>
<text text-anchor="middle" x="1676.5" y="-612" font-family="Helvetica,sans-Serif" font-size="10.00">/sparse_polynomial.hpp</text>
</a>
</g>
</g>
<!-- Node26&#45;&gt;Node28 -->
<g id="edge50_Node000026_Node000028" class="edge">
<title>Node26&#45;&gt;Node28</title>
<g id="a_edge50_Node000026_Node000028"><a xlink:title=" ">
<path fill="none" stroke="#63b8ff" d="M1537.4,-678.4C1565.17,-668.04 1597.58,-655.95 1624.13,-646.04"/>
<polygon fill="#63b8ff" stroke="#63b8ff" points="1535.93,-675.22 1527.79,-681.99 1538.38,-681.77 1535.93,-675.22"/>
</a>
</g>
</g>
<!-- Node29 -->
<g id="Node000029" class="node">
<title>Node29</title>
<g id="a_Node000029"><a xlink:href="gauss_8cpp.html" target="_top" xlink:title=" ">
<polygon fill="white" stroke="#666666" points="1553.5,-640.5 1393.5,-640.5 1393.5,-610.5 1553.5,-610.5 1553.5,-640.5"/>
<text text-anchor="start" x="1401.5" y="-628.5" font-family="Helvetica,sans-Serif" font-size="10.00">/__w/vulpes/vulpes</text>
<text text-anchor="middle" x="1473.5" y="-617.5" font-family="Helvetica,sans-Serif" font-size="10.00">/vulpes/quadrature/gauss.cpp</text>
</a>
</g>
</g>
<!-- Node26&#45;&gt;Node29 -->
<g id="edge53_Node000026_Node000029" class="edge">
<title>Node26&#45;&gt;Node29</title>
<g id="a_edge53_Node000026_Node000029"><a xlink:title=" ">
<path fill="none" stroke="#63b8ff" d="M1474.7,-671.61C1474.42,-661.01 1474.12,-649.57 1473.88,-640.86"/>
<polygon fill="#63b8ff" stroke="#63b8ff" points="1471.21,-671.89 1474.97,-681.79 1478.21,-671.7 1471.21,-671.89"/>
</a>
</g>
</g>
<!-- Node27&#45;&gt;Node20 -->
<g id="edge48_Node000027_Node000020" class="edge">
<title>Node27&#45;&gt;Node20</title>
<g id="a_edge48_Node000027_Node000020"><a xlink:title=" ">
<path fill="none" stroke="#63b8ff" d="M1317.5,-594.69C1317.5,-586.08 1317.5,-576.9 1317.5,-569.07"/>
<polygon fill="#63b8ff" stroke="#63b8ff" points="1314,-594.79 1317.5,-604.79 1321,-594.79 1314,-594.79"/>
</a>
</g>
</g>
<!-- Node27&#45;&gt;Node21 -->
<g id="edge47_Node000027_Node000021" class="edge">
<title>Node27&#45;&gt;Node21</title>
<g id="a_edge47_Node000027_Node000021"><a xlink:title=" ">
<path fill="none" stroke="#63b8ff" d="M1363.93,-599.88C1380.5,-590.67 1399.11,-579.8 1415.5,-569 1452.73,-544.47 1493.36,-512.63 1518.39,-492.37"/>
<polygon fill="#63b8ff" stroke="#63b8ff" points="1362.03,-596.93 1354.97,-604.83 1365.41,-603.06 1362.03,-596.93"/>
</a>
</g>
</g>
<!-- Node27&#45;&gt;Node23 -->
<g id="edge49_Node000027_Node000023" class="edge">
<title>Node27&#45;&gt;Node23</title>
<g id="a_edge49_Node000027_Node000023"><a xlink:title=" ">
<path fill="none" stroke="#63b8ff" d="M1370.16,-599.36C1381.52,-591.32 1392.04,-581.26 1398.5,-569 1411.24,-544.83 1403.45,-512.61 1396.01,-492.2"/>
<polygon fill="#63b8ff" stroke="#63b8ff" points="1368.24,-596.44 1361.8,-604.85 1372.08,-602.29 1368.24,-596.44"/>
</a>
</g>
</g>
<!-- Node28&#45;&gt;Node15 -->
<g id="edge52_Node000028_Node000015" class="edge">
<title>Node28&#45;&gt;Node15</title>
<g id="a_edge52_Node000028_Node000015"><a xlink:title=" ">
<path fill="none" stroke="#63b8ff" d="M1675.57,-594.8C1674.69,-564.17 1673.5,-515 1673.5,-472.5 1673.5,-472.5 1673.5,-472.5 1673.5,-393.5 1673.5,-305.76 1376.61,-268.97 1247.88,-257.14"/>
<polygon fill="#63b8ff" stroke="#63b8ff" points="1672.07,-594.93 1675.86,-604.83 1679.07,-594.73 1672.07,-594.93"/>
</a>
</g>
</g>
<!-- Node28&#45;&gt;Node24 -->
<g id="edge51_Node000028_Node000024" class="edge">
<title>Node28&#45;&gt;Node24</title>
<g id="a_edge51_Node000028_Node000024"><a xlink:title=" ">
<path fill="none" stroke="#63b8ff" d="M1643.37,-598.35C1631.19,-588.73 1617.62,-578.01 1606.29,-569.07"/>
<polygon fill="#63b8ff" stroke="#63b8ff" points="1641.52,-601.35 1651.54,-604.79 1645.86,-595.85 1641.52,-601.35"/>
</a>
</g>
</g>
<!-- Node30&#45;&gt;Node27 -->
<g id="edge55_Node000030_Node000027" class="edge">
<title>Node30&#45;&gt;Node27</title>
<g id="a_edge55_Node000030_Node000027"><a xlink:title=" ">
<path fill="none" stroke="#63b8ff" d="M1246.09,-676.09C1260.16,-666.32 1275.99,-655.32 1289.17,-646.17"/>
<polygon fill="#63b8ff" stroke="#63b8ff" points="1243.81,-673.41 1237.59,-681.99 1247.8,-679.16 1243.81,-673.41"/>
</a>
</g>
</g>
<!-- Node31&#45;&gt;Node27 -->
<g id="edge57_Node000031_Node000027" class="edge">
<title>Node31&#45;&gt;Node27</title>
<g id="a_edge57_Node000031_Node000027"><a xlink:title=" ">
<path fill="none" stroke="#63b8ff" d="M1332.75,-672.26C1329.83,-663.48 1326.69,-654.07 1324.02,-646.07"/>
<polygon fill="#63b8ff" stroke="#63b8ff" points="1329.45,-673.41 1335.93,-681.79 1336.09,-671.2 1329.45,-673.41"/>
</a>
</g>
</g>
</g>
</svg>
