<?xml version="1.0" encoding="UTF-8" standalone="no"?>
<!DOCTYPE svg PUBLIC "-//W3C//DTD SVG 1.1//EN"
 "http://www.w3.org/Graphics/SVG/1.1/DTD/svg11.dtd">
<!-- Generated by graphviz version 12.2.1 (20241206.2353)
 -->
<!-- Title: /Users/ilariomazzieri/Desktop/vulpes/vulpes/polynomials/polynomial1d.hpp Pages: 1 -->
<svg width="718pt" height="306pt"
 viewBox="0.00 0.00 717.62 305.50" xmlns="http://www.w3.org/2000/svg" xmlns:xlink="http://www.w3.org/1999/xlink">
<g id="graph0" class="graph" transform="scale(1 1) rotate(0) translate(4 301.5)">
<title>/Users/ilariomazzieri/Desktop/vulpes/vulpes/polynomials/polynomial1d.hpp</title>
<!-- Node1 -->
<g id="Node000001" class="node">
<title>Node1</title>
<g id="a_Node000001"><a xlink:title=" ">
<polygon fill="#999999" stroke="#666666" points="503,-297.5 353.5,-297.5 353.5,-255.75 503,-255.75 503,-297.5"/>
<text text-anchor="start" x="361.5" y="-284" font-family="Helvetica,sans-Serif" font-size="10.00">/Users/ilariomazzieri</text>
<text text-anchor="start" x="361.5" y="-272.75" font-family="Helvetica,sans-Serif" font-size="10.00">/Desktop/vulpes/vulpes</text>
<text text-anchor="middle" x="428.25" y="-261.5" font-family="Helvetica,sans-Serif" font-size="10.00">/polynomials/polynomial1d.hpp</text>
</a>
</g>
</g>
<!-- Node2 -->
<g id="Node000002" class="node">
<title>Node2</title>
<g id="a_Node000002"><a xlink:href="fe__modal__tensor_8hpp.html" target="_top" xlink:title=" ">
<polygon fill="white" stroke="#666666" points="449.62,-142 330.88,-142 330.88,-89 449.62,-89 449.62,-142"/>
<text text-anchor="start" x="338.88" y="-128.5" font-family="Helvetica,sans-Serif" font-size="10.00">/Users/ilariomazzieri</text>
<text text-anchor="start" x="338.88" y="-117.25" font-family="Helvetica,sans-Serif" font-size="10.00">/Desktop/vulpes/vulpes</text>
<text text-anchor="start" x="338.88" y="-106" font-family="Helvetica,sans-Serif" font-size="10.00">/fe/fe_spaces/fe_modal</text>
<text text-anchor="middle" x="390.25" y="-94.75" font-family="Helvetica,sans-Serif" font-size="10.00">_tensor.hpp</text>
</a>
</g>
</g>
<!-- Node1&#45;&gt;Node2 -->
<g id="edge1_Node000001_Node000002" class="edge">
<title>Node1&#45;&gt;Node2</title>
<g id="a_edge1_Node000001_Node000002"><a xlink:title=" ">
<path fill="none" stroke="#63b8ff" d="M403.46,-246.16C398.05,-238.08 393.1,-229 390.25,-219.75 382.39,-194.22 383.68,-163.43 386.13,-142.16"/>
<polygon fill="#63b8ff" stroke="#63b8ff" points="400.59,-248.16 409.29,-254.21 406.27,-244.06 400.59,-248.16"/>
</a>
</g>
</g>
<!-- Node3 -->
<g id="Node000003" class="node">
<title>Node3</title>
<g id="a_Node000003"><a xlink:href="ndpolynomial_8hpp.html" target="_top" xlink:title=" ">
<polygon fill="white" stroke="#666666" points="324,-219.75 174.5,-219.75 174.5,-178 324,-178 324,-219.75"/>
<text text-anchor="start" x="182.5" y="-206.25" font-family="Helvetica,sans-Serif" font-size="10.00">/Users/ilariomazzieri</text>
<text text-anchor="start" x="182.5" y="-195" font-family="Helvetica,sans-Serif" font-size="10.00">/Desktop/vulpes/vulpes</text>
<text text-anchor="middle" x="249.25" y="-183.75" font-family="Helvetica,sans-Serif" font-size="10.00">/polynomials/ndpolynomial.hpp</text>
</a>
</g>
</g>
<!-- Node1&#45;&gt;Node3 -->
<g id="edge2_Node000001_Node000003" class="edge">
<title>Node1&#45;&gt;Node3</title>
<g id="a_edge2_Node000001_Node000003"><a xlink:title=" ">
<path fill="none" stroke="#63b8ff" d="M369.77,-250.88C346.32,-240.95 319.64,-229.66 297.35,-220.23"/>
<polygon fill="#63b8ff" stroke="#63b8ff" points="368.31,-254.06 378.89,-254.74 371.04,-247.61 368.31,-254.06"/>
</a>
</g>
</g>
<!-- Node8 -->
<g id="Node000008" class="node">
<title>Node8</title>
<g id="a_Node000008"><a xlink:href="sparse__polynomial_8hpp.html" target="_top" xlink:title=" ">
<polygon fill="white" stroke="#666666" points="573,-219.75 399.5,-219.75 399.5,-178 573,-178 573,-219.75"/>
<text text-anchor="start" x="407.5" y="-206.25" font-family="Helvetica,sans-Serif" font-size="10.00">/Users/ilariomazzieri</text>
<text text-anchor="start" x="407.5" y="-195" font-family="Helvetica,sans-Serif" font-size="10.00">/Desktop/vulpes/vulpes</text>
<text text-anchor="middle" x="486.25" y="-183.75" font-family="Helvetica,sans-Serif" font-size="10.00">/polynomials/sparse_polynomial.hpp</text>
</a>
</g>
</g>
<!-- Node1&#45;&gt;Node8 -->
<g id="edge9_Node000001_Node000008" class="edge">
<title>Node1&#45;&gt;Node8</title>
<g id="a_edge9_Node000001_Node000008"><a xlink:title=" ">
<path fill="none" stroke="#63b8ff" d="M450.76,-246.23C457.41,-237.54 464.55,-228.22 470.66,-220.23"/>
<polygon fill="#63b8ff" stroke="#63b8ff" points="448.01,-244.06 444.71,-254.12 453.57,-248.31 448.01,-244.06"/>
</a>
</g>
</g>
<!-- Node10 -->
<g id="Node000010" class="node">
<title>Node10</title>
<g id="a_Node000010"><a xlink:href="gauss_8cpp.html" target="_top" xlink:title=" ">
<polygon fill="white" stroke="#666666" points="709.62,-219.75 590.88,-219.75 590.88,-178 709.62,-178 709.62,-219.75"/>
<text text-anchor="start" x="598.88" y="-206.25" font-family="Helvetica,sans-Serif" font-size="10.00">/Users/ilariomazzieri</text>
<text text-anchor="start" x="598.88" y="-195" font-family="Helvetica,sans-Serif" font-size="10.00">/Desktop/vulpes/vulpes</text>
<text text-anchor="middle" x="650.25" y="-183.75" font-family="Helvetica,sans-Serif" font-size="10.00">/quadrature/gauss.cpp</text>
</a>
</g>
</g>
<!-- Node1&#45;&gt;Node10 -->
<g id="edge12_Node000001_Node000010" class="edge">
<title>Node1&#45;&gt;Node10</title>
<g id="a_edge12_Node000001_Node000010"><a xlink:title=" ">
<path fill="none" stroke="#63b8ff" d="M498.44,-251.68C528.07,-241.57 562.2,-229.92 590.59,-220.23"/>
<polygon fill="#63b8ff" stroke="#63b8ff" points="497.51,-248.29 489.17,-254.84 499.77,-254.92 497.51,-248.29"/>
</a>
</g>
</g>
<!-- Node4 -->
<g id="Node000004" class="node">
<title>Node4</title>
<g id="a_Node000004"><a xlink:href="fe__lagrange__simplex_8cpp.html" target="_top" xlink:title=" ">
<polygon fill="white" stroke="#666666" points="128.5,-53 0,-53 0,0 128.5,0 128.5,-53"/>
<text text-anchor="start" x="8" y="-39.5" font-family="Helvetica,sans-Serif" font-size="10.00">/Users/ilariomazzieri</text>
<text text-anchor="start" x="8" y="-28.25" font-family="Helvetica,sans-Serif" font-size="10.00">/Desktop/vulpes/vulpes</text>
<text text-anchor="start" x="8" y="-17" font-family="Helvetica,sans-Serif" font-size="10.00">/fe/fe_spaces/fe_lagrange</text>
<text text-anchor="middle" x="64.25" y="-5.75" font-family="Helvetica,sans-Serif" font-size="10.00">_simplex.cpp</text>
</a>
</g>
</g>
<!-- Node3&#45;&gt;Node4 -->
<g id="edge3_Node000003_Node000004" class="edge">
<title>Node3&#45;&gt;Node4</title>
<g id="a_edge3_Node000003_Node000004"><a xlink:title=" ">
<path fill="none" stroke="#63b8ff" d="M184.79,-172.63C168.51,-164.4 151.81,-154.18 138.25,-142 110.07,-116.7 88.21,-78.3 75.78,-53.05"/>
<polygon fill="#63b8ff" stroke="#63b8ff" points="182.96,-175.64 193.49,-176.84 186.01,-169.34 182.96,-175.64"/>
</a>
</g>
</g>
<!-- Node5 -->
<g id="Node000005" class="node">
<title>Node5</title>
<g id="a_Node000005"><a xlink:href="fe__lagrange__simplex_8hpp.html" target="_top" xlink:title=" ">
<polygon fill="white" stroke="#666666" points="275.5,-142 147,-142 147,-89 275.5,-89 275.5,-142"/>
<text text-anchor="start" x="155" y="-128.5" font-family="Helvetica,sans-Serif" font-size="10.00">/Users/ilariomazzieri</text>
<text text-anchor="start" x="155" y="-117.25" font-family="Helvetica,sans-Serif" font-size="10.00">/Desktop/vulpes/vulpes</text>
<text text-anchor="start" x="155" y="-106" font-family="Helvetica,sans-Serif" font-size="10.00">/fe/fe_spaces/fe_lagrange</text>
<text text-anchor="middle" x="211.25" y="-94.75" font-family="Helvetica,sans-Serif" font-size="10.00">_simplex.hpp</text>
</a>
</g>
</g>
<!-- Node3&#45;&gt;Node5 -->
<g id="edge4_Node000003_Node000005" class="edge">
<title>Node3&#45;&gt;Node5</title>
<g id="a_edge4_Node000003_Node000005"><a xlink:title=" ">
<path fill="none" stroke="#63b8ff" d="M235,-167.36C231.13,-159.08 226.99,-150.21 223.27,-142.23"/>
<polygon fill="#63b8ff" stroke="#63b8ff" points="231.81,-168.81 239.22,-176.39 238.16,-165.85 231.81,-168.81"/>
</a>
</g>
</g>
<!-- Node7 -->
<g id="Node000007" class="node">
<title>Node7</title>
<g id="a_Node000007"><a xlink:href="fe__modal__simplex_8hpp.html" target="_top" xlink:title=" ">
<polygon fill="white" stroke="#666666" points="412.62,-53 293.88,-53 293.88,0 412.62,0 412.62,-53"/>
<text text-anchor="start" x="301.88" y="-39.5" font-family="Helvetica,sans-Serif" font-size="10.00">/Users/ilariomazzieri</text>
<text text-anchor="start" x="301.88" y="-28.25" font-family="Helvetica,sans-Serif" font-size="10.00">/Desktop/vulpes/vulpes</text>
<text text-anchor="start" x="301.88" y="-17" font-family="Helvetica,sans-Serif" font-size="10.00">/fe/fe_spaces/fe_modal</text>
<text text-anchor="middle" x="353.25" y="-5.75" font-family="Helvetica,sans-Serif" font-size="10.00">_simplex.hpp</text>
</a>
</g>
</g>
<!-- Node3&#45;&gt;Node7 -->
<g id="edge8_Node000003_Node000007" class="edge">
<title>Node3&#45;&gt;Node7</title>
<g id="a_edge8_Node000003_Node000007"><a xlink:title=" ">
<path fill="none" stroke="#63b8ff" d="M267.93,-168.27C273.23,-159.8 279,-150.55 284.25,-142 302.84,-111.75 323.86,-76.76 337.76,-53.5"/>
<polygon fill="#63b8ff" stroke="#63b8ff" points="265.13,-166.14 262.78,-176.47 271.06,-169.87 265.13,-166.14"/>
</a>
</g>
</g>
<!-- Node5&#45;&gt;Node4 -->
<g id="edge5_Node000005_Node000004" class="edge">
<title>Node5&#45;&gt;Node4</title>
<g id="a_edge5_Node000005_Node000004"><a xlink:title=" ">
<path fill="none" stroke="#63b8ff" d="M158.07,-83.03C141.65,-73.31 123.76,-62.72 108.04,-53.42"/>
<polygon fill="#63b8ff" stroke="#63b8ff" points="155.85,-85.78 166.24,-87.86 159.42,-79.76 155.85,-85.78"/>
</a>
</g>
</g>
<!-- Node6 -->
<g id="Node000006" class="node">
<title>Node6</title>
<g id="a_Node000006"><a xlink:href="fe__lagrange__tensor_8hpp.html" target="_top" xlink:title=" ">
<polygon fill="white" stroke="#666666" points="275.5,-53 147,-53 147,0 275.5,0 275.5,-53"/>
<text text-anchor="start" x="155" y="-39.5" font-family="Helvetica,sans-Serif" font-size="10.00">/Users/ilariomazzieri</text>
<text text-anchor="start" x="155" y="-28.25" font-family="Helvetica,sans-Serif" font-size="10.00">/Desktop/vulpes/vulpes</text>
<text text-anchor="start" x="155" y="-17" font-family="Helvetica,sans-Serif" font-size="10.00">/fe/fe_spaces/fe_lagrange</text>
<text text-anchor="middle" x="211.25" y="-5.75" font-family="Helvetica,sans-Serif" font-size="10.00">_tensor.hpp</text>
</a>
</g>
</g>
<!-- Node5&#45;&gt;Node6 -->
<g id="edge6_Node000005_Node000006" class="edge">
<title>Node5&#45;&gt;Node6</title>
<g id="a_edge6_Node000005_Node000006"><a xlink:title=" ">
<path fill="none" stroke="#63b8ff" d="M211.25,-77.61C211.25,-69.41 211.25,-60.89 211.25,-53.25"/>
<polygon fill="#63b8ff" stroke="#63b8ff" points="207.75,-77.35 211.25,-87.35 214.75,-77.35 207.75,-77.35"/>
</a>
</g>
</g>
<!-- Node5&#45;&gt;Node7 -->
<g id="edge7_Node000005_Node000007" class="edge">
<title>Node5&#45;&gt;Node7</title>
<g id="a_edge7_Node000005_Node000007"><a xlink:title=" ">
<path fill="none" stroke="#63b8ff" d="M263.07,-82.75C278.81,-73.11 295.91,-62.63 310.95,-53.42"/>
<polygon fill="#63b8ff" stroke="#63b8ff" points="261.46,-79.63 254.76,-87.84 265.12,-85.6 261.46,-79.63"/>
</a>
</g>
</g>
<!-- Node8&#45;&gt;Node2 -->
<g id="edge10_Node000008_Node000002" class="edge">
<title>Node8&#45;&gt;Node2</title>
<g id="a_edge10_Node000008_Node000002"><a xlink:title=" ">
<path fill="none" stroke="#63b8ff" d="M453.83,-170.39C443.09,-161.29 431.18,-151.2 420.6,-142.23"/>
<polygon fill="#63b8ff" stroke="#63b8ff" points="451.47,-172.98 461.37,-176.78 456,-167.65 451.47,-172.98"/>
</a>
</g>
</g>
<!-- Node9 -->
<g id="Node000009" class="node">
<title>Node9</title>
<g id="a_Node000009"><a xlink:href="fe__vem_8hpp.html" target="_top" xlink:title=" ">
<polygon fill="white" stroke="#666666" points="596.88,-136.38 467.62,-136.38 467.62,-94.62 596.88,-94.62 596.88,-136.38"/>
<text text-anchor="start" x="475.62" y="-122.88" font-family="Helvetica,sans-Serif" font-size="10.00">/Users/ilariomazzieri</text>
<text text-anchor="start" x="475.62" y="-111.62" font-family="Helvetica,sans-Serif" font-size="10.00">/Desktop/vulpes/vulpes</text>
<text text-anchor="middle" x="532.25" y="-100.38" font-family="Helvetica,sans-Serif" font-size="10.00">/fe/fe_spaces/fe_vem.hpp</text>
</a>
</g>
</g>
<!-- Node8&#45;&gt;Node9 -->
<g id="edge11_Node000008_Node000009" class="edge">
<title>Node8&#45;&gt;Node9</title>
<g id="a_edge11_Node000008_Node000009"><a xlink:title=" ">
<path fill="none" stroke="#63b8ff" d="M503.24,-167.82C509.11,-157.44 515.54,-146.06 520.85,-136.67"/>
<polygon fill="#63b8ff" stroke="#63b8ff" points="500.24,-166.01 498.37,-176.44 506.33,-169.46 500.24,-166.01"/>
</a>
</g>
</g>
</g>
</svg>
