<?xml version="1.0" encoding="UTF-8" standalone="no"?>
<!DOCTYPE svg PUBLIC "-//W3C//DTD SVG 1.1//EN"
 "http://www.w3.org/Graphics/SVG/1.1/DTD/svg11.dtd">
<!-- Generated by graphviz version 2.42.4 (0)
 -->
<!-- Title: /__w/vulpes/vulpes/vulpes/polynomials/polynomial.hpp Pages: 1 -->
<!--zoomable 808 -->

<svg id="main" version="1.1" xmlns="http://www.w3.org/2000/svg" xmlns:xlink="http://www.w3.org/1999/xlink" xml:space="preserve" onload="init(evt)">
<style type="text/css"><![CDATA[
.node, .edge {opacity: 0.7;}
.node.selected, .edge.selected {opacity: 1;}
.edge:hover path { stroke: red; }
.edge:hover polygon { stroke: red; fill: red; }
]]></style>

<defs>
  <circle id="rim" cx="0" cy="0" r="7"/>
  <circle id="rim2" cx="0" cy="0" r="3.5"/>
  <g id="zoomPlus">
    <use xlink:href="#rim" fill="#404040"><set attributeName="fill" to="#808080" begin="zoomplus.mouseover" end="zoomplus.mouseout"/></use>
    <path d="M-4,0h8M0,-4v8" fill="none" stroke="white" stroke-width="1.5" pointer-events="none"/>
  </g>
  <g id="zoomMin">
    <use xlink:href="#rim" fill="#404040"><set attributeName="fill" to="#808080" begin="zoomminus.mouseover" end="zoomminus.mouseout"/></use>
    <path d="M-4,0h8" fill="none" stroke="white" stroke-width="1.5" pointer-events="none"/>
  </g>
  <g id="arrowUp" transform="translate(30 24)">
    <use xlink:href="#rim"/>
    <path pointer-events="none" fill="none" stroke="white" stroke-width="1.5" d="M0,-3.0v7 M-2.5,-0.5L0,-3.0L2.5,-0.5"/>
  </g>
  <g id="arrowRight" transform="rotate(90) translate(36 -43)">
    <use xlink:href="#rim"/>
    <path pointer-events="none" fill="none" stroke="white" stroke-width="1.5" d="M0,-3.0v7 M-2.5,-0.5L0,-3.0L2.5,-0.5"/>
  </g>
  <g id="arrowDown" transform="rotate(180) translate(-30 -48)">
    <use xlink:href="#rim"/>
    <path pointer-events="none" fill="none" stroke="white" stroke-width="1.5" d="M0,-3.0v7 M-2.5,-0.5L0,-3.0L2.5,-0.5"/>
  </g>
  <g id="arrowLeft" transform="rotate(270) translate(-36 17)">
    <use xlink:href="#rim"/>
    <path pointer-events="none" fill="none" stroke="white" stroke-width="1.5" d="M0,-3.0v7 M-2.5,-0.5L0,-3.0L2.5,-0.5"/>
  </g>
  <g id="resetDef">
    <use xlink:href="#rim2" fill="#404040"><set attributeName="fill" to="#808080" begin="reset.mouseover" end="reset.mouseout"/></use>
  </g>
</defs>
<script type="application/ecmascript">
var viewWidth = 1755;
var viewHeight = 808;
var sectionId = 'dynsection-1';
</script>
<script type="application/ecmascript" xlink:href="svg.min.js"/>
<svg id="graph" class="graph">
<g id="viewport">
<title>/__w/vulpes/vulpes/vulpes/polynomials/polynomial.hpp</title>
<!-- Node1 -->
<g id="Node000001" class="node">
<title>Node1</title>
<g id="a_Node000001"><a xlink:title=" ">
<polygon fill="#999999" stroke="#666666" points="1289.5,-800 1174.5,-800 1174.5,-759 1289.5,-759 1289.5,-800"/>
<text text-anchor="start" x="1182.5" y="-788" font-family="Helvetica,sans-Serif" font-size="10.00">/__w/vulpes/vulpes</text>
<text text-anchor="start" x="1182.5" y="-777" font-family="Helvetica,sans-Serif" font-size="10.00">/vulpes/polynomials</text>
<text text-anchor="middle" x="1232" y="-766" font-family="Helvetica,sans-Serif" font-size="10.00">/polynomial.hpp</text>
</a>
</g>
</g>
<!-- Node2 -->
<g id="Node000002" class="node">
<title>Node2</title>
<g id="a_Node000002"><a xlink:href="dof__policy_8hpp.html" target="_top" xlink:title=" ">
<polygon fill="white" stroke="#666666" points="1203.5,-717.5 1066.5,-717.5 1066.5,-687.5 1203.5,-687.5 1203.5,-717.5"/>
<text text-anchor="start" x="1074.5" y="-705.5" font-family="Helvetica,sans-Serif" font-size="10.00">/__w/vulpes/vulpes</text>
<text text-anchor="middle" x="1135" y="-694.5" font-family="Helvetica,sans-Serif" font-size="10.00">/vulpes/fe/dof_policy.hpp</text>
</a>
</g>
</g>
<!-- Node1&#45;&gt;Node2 -->
<g id="edge1_Node000001_Node000002" class="edge">
<title>Node1&#45;&gt;Node2</title>
<g id="a_edge1_Node000001_Node000002"><a xlink:title=" ">
<path fill="none" stroke="#63b8ff" d="M1198.62,-752.69C1183.46,-740.97 1166.11,-727.56 1153.37,-717.7"/>
<polygon fill="#63b8ff" stroke="#63b8ff" points="1196.72,-755.64 1206.77,-758.99 1201,-750.1 1196.72,-755.64"/>
</a>
</g>
</g>
<!-- Node3 -->
<g id="Node000003" class="node">
<title>Node3</title>
<g id="a_Node000003"><a xlink:href="fe__space_8hpp.html" target="_top" xlink:title=" ">
<polygon fill="white" stroke="#666666" points="1204,-640.5 1072,-640.5 1072,-610.5 1204,-610.5 1204,-640.5"/>
<text text-anchor="start" x="1080" y="-628.5" font-family="Helvetica,sans-Serif" font-size="10.00">/__w/vulpes/vulpes</text>
<text text-anchor="middle" x="1138" y="-617.5" font-family="Helvetica,sans-Serif" font-size="10.00">/vulpes/fe/fe_space.hpp</text>
</a>
</g>
</g>
<!-- Node1&#45;&gt;Node3 -->
<g id="edge42_Node000001_Node000003" class="edge">
<title>Node1&#45;&gt;Node3</title>
<g id="a_edge42_Node000001_Node000003"><a xlink:title=" ">
<path fill="none" stroke="#63b8ff" d="M1231.24,-748.67C1229.49,-728.48 1224.67,-701.96 1212,-682 1200.72,-664.24 1181.61,-650.12 1165.63,-640.57"/>
<polygon fill="#63b8ff" stroke="#63b8ff" points="1227.77,-749.12 1231.92,-758.87 1234.75,-748.66 1227.77,-749.12"/>
</a>
</g>
</g>
<!-- Node26 -->
<g id="Node000026" class="node">
<title>Node26</title>
<g id="a_Node000026"><a xlink:href="polynomial1d_8hpp.html" target="_top" xlink:title=" ">
<polygon fill="white" stroke="#666666" points="397.5,-723 282.5,-723 282.5,-682 397.5,-682 397.5,-723"/>
<text text-anchor="start" x="290.5" y="-711" font-family="Helvetica,sans-Serif" font-size="10.00">/__w/vulpes/vulpes</text>
<text text-anchor="start" x="290.5" y="-700" font-family="Helvetica,sans-Serif" font-size="10.00">/vulpes/polynomials</text>
<text text-anchor="middle" x="340" y="-689" font-family="Helvetica,sans-Serif" font-size="10.00">/polynomial1d.hpp</text>
</a>
</g>
</g>
<!-- Node1&#45;&gt;Node26 -->
<g id="edge43_Node000001_Node000026" class="edge">
<title>Node1&#45;&gt;Node26</title>
<g id="a_edge43_Node000001_Node000026"><a xlink:title=" ">
<path fill="none" stroke="#63b8ff" d="M1164.12,-772.79C994.73,-758.55 555.7,-721.64 397.71,-708.35"/>
<polygon fill="#63b8ff" stroke="#63b8ff" points="1163.9,-776.29 1174.16,-773.64 1164.49,-769.31 1163.9,-776.29"/>
</a>
</g>
</g>
<!-- Node30 -->
<g id="Node000030" class="node">
<title>Node30</title>
<g id="a_Node000030"><a xlink:href="polynomial2d_8hpp.html" target="_top" xlink:title=" ">
<polygon fill="white" stroke="#666666" points="1375.5,-723 1260.5,-723 1260.5,-682 1375.5,-682 1375.5,-723"/>
<text text-anchor="start" x="1268.5" y="-711" font-family="Helvetica,sans-Serif" font-size="10.00">/__w/vulpes/vulpes</text>
<text text-anchor="start" x="1268.5" y="-700" font-family="Helvetica,sans-Serif" font-size="10.00">/vulpes/polynomials</text>
<text text-anchor="middle" x="1318" y="-689" font-family="Helvetica,sans-Serif" font-size="10.00">/polynomial2d.hpp</text>
</a>
</g>
</g>
<!-- Node1&#45;&gt;Node30 -->
<g id="edge53_Node000001_Node000030" class="edge">
<title>Node1&#45;&gt;Node30</title>
<g id="a_edge53_Node000001_Node000030"><a xlink:title=" ">
<path fill="none" stroke="#63b8ff" d="M1262.31,-752.07C1273.25,-742.52 1285.4,-731.93 1295.56,-723.07"/>
<polygon fill="#63b8ff" stroke="#63b8ff" points="1259.83,-749.58 1254.6,-758.79 1264.43,-754.86 1259.83,-749.58"/>
</a>
</g>
</g>
<!-- Node31 -->
<g id="Node000031" class="node">
<title>Node31</title>
<g id="a_Node000031"><a xlink:href="polynomial3d_8hpp.html" target="_top" xlink:title=" ">
<polygon fill="white" stroke="#666666" points="1508.5,-723 1393.5,-723 1393.5,-682 1508.5,-682 1508.5,-723"/>
<text text-anchor="start" x="1401.5" y="-711" font-family="Helvetica,sans-Serif" font-size="10.00">/__w/vulpes/vulpes</text>
<text text-anchor="start" x="1401.5" y="-700" font-family="Helvetica,sans-Serif" font-size="10.00">/vulpes/polynomials</text>
<text text-anchor="middle" x="1451" y="-689" font-family="Helvetica,sans-Serif" font-size="10.00">/polynomial3d.hpp</text>
</a>
</g>
</g>
<!-- Node1&#45;&gt;Node31 -->
<g id="edge55_Node000001_Node000031" class="edge">
<title>Node1&#45;&gt;Node31</title>
<g id="a_edge55_Node000001_Node000031"><a xlink:title=" ">
<path fill="none" stroke="#63b8ff" d="M1298.65,-755.67C1329.08,-745.25 1364.76,-733.03 1393.94,-723.04"/>
<polygon fill="#63b8ff" stroke="#63b8ff" points="1297.29,-752.44 1288.97,-758.99 1299.56,-759.06 1297.29,-752.44"/>
</a>
</g>
</g>
<!-- Node2&#45;&gt;Node3 -->
<g id="edge2_Node000002_Node000003" class="edge">
<title>Node2&#45;&gt;Node3</title>
<g id="a_edge2_Node000002_Node000003"><a xlink:title=" ">
<path fill="none" stroke="#63b8ff" d="M1135.98,-677.04C1136.46,-664.95 1137.03,-650.79 1137.44,-640.54"/>
<polygon fill="#63b8ff" stroke="#63b8ff" points="1132.47,-677.26 1135.56,-687.39 1139.46,-677.54 1132.47,-677.26"/>
</a>
</g>
</g>
<!-- Node4 -->
<g id="Node000004" class="node">
<title>Node4</title>
<g id="a_Node000004"><a xlink:href="integrator__gauss_8hpp.html" target="_top" xlink:title=" ">
<polygon fill="white" stroke="#666666" points="1175.5,-118 1022.5,-118 1022.5,-77 1175.5,-77 1175.5,-118"/>
<text text-anchor="start" x="1030.5" y="-106" font-family="Helvetica,sans-Serif" font-size="10.00">/__w/vulpes/vulpes</text>
<text text-anchor="start" x="1030.5" y="-95" font-family="Helvetica,sans-Serif" font-size="10.00">/vulpes/assemble/integrator</text>
<text text-anchor="middle" x="1099" y="-84" font-family="Helvetica,sans-Serif" font-size="10.00">_gauss.hpp</text>
</a>
</g>
</g>
<!-- Node3&#45;&gt;Node4 -->
<g id="edge3_Node000003_Node000004" class="edge">
<title>Node3&#45;&gt;Node4</title>
<g id="a_edge3_Node000003_Node000004"><a xlink:title=" ">
<path fill="none" stroke="#63b8ff" d="M1175.73,-605.09C1190.03,-595.95 1205.2,-583.79 1215,-569 1239.3,-532.33 1237,-516.49 1237,-472.5 1237,-472.5 1237,-472.5 1237,-250.5 1237,-190.09 1176.5,-143.04 1135.62,-118.14"/>
<polygon fill="#63b8ff" stroke="#63b8ff" points="1173.74,-602.2 1167,-610.38 1177.36,-608.19 1173.74,-602.2"/>
</a>
</g>
</g>
<!-- Node5 -->
<g id="Node000005" class="node">
<title>Node5</title>
<g id="a_Node000005"><a xlink:href="integrator__qfree_8hpp.html" target="_top" xlink:title=" ">
<polygon fill="white" stroke="#666666" points="1346.5,-118 1193.5,-118 1193.5,-77 1346.5,-77 1346.5,-118"/>
<text text-anchor="start" x="1201.5" y="-106" font-family="Helvetica,sans-Serif" font-size="10.00">/__w/vulpes/vulpes</text>
<text text-anchor="start" x="1201.5" y="-95" font-family="Helvetica,sans-Serif" font-size="10.00">/vulpes/assemble/integrator</text>
<text text-anchor="middle" x="1270" y="-84" font-family="Helvetica,sans-Serif" font-size="10.00">_qfree.hpp</text>
</a>
</g>
</g>
<!-- Node3&#45;&gt;Node5 -->
<g id="edge4_Node000003_Node000005" class="edge">
<title>Node3&#45;&gt;Node5</title>
<g id="a_edge4_Node000003_Node000005"><a xlink:title=" ">
<path fill="none" stroke="#63b8ff" d="M1187.07,-606.21C1205.4,-597.34 1225.12,-585.06 1239,-569 1268.93,-534.37 1275,-518.28 1275,-472.5 1275,-472.5 1275,-472.5 1275,-250.5 1275,-202.97 1272.53,-147.14 1271.06,-118.17"/>
<polygon fill="#63b8ff" stroke="#63b8ff" points="1185.55,-603.06 1177.93,-610.42 1188.47,-609.42 1185.55,-603.06"/>
</a>
</g>
</g>
<!-- Node7 -->
<g id="Node000007" class="node">
<title>Node7</title>
<g id="a_Node000007"><a xlink:href="integrator__simplexify_8hpp.html" target="_top" xlink:title=" ">
<polygon fill="white" stroke="#666666" points="1004.5,-118 851.5,-118 851.5,-77 1004.5,-77 1004.5,-118"/>
<text text-anchor="start" x="859.5" y="-106" font-family="Helvetica,sans-Serif" font-size="10.00">/__w/vulpes/vulpes</text>
<text text-anchor="start" x="859.5" y="-95" font-family="Helvetica,sans-Serif" font-size="10.00">/vulpes/assemble/integrator</text>
<text text-anchor="middle" x="928" y="-84" font-family="Helvetica,sans-Serif" font-size="10.00">_simplexify.hpp</text>
</a>
</g>
</g>
<!-- Node3&#45;&gt;Node7 -->
<g id="edge6_Node000003_Node000007" class="edge">
<title>Node3&#45;&gt;Node7</title>
<g id="a_edge6_Node000003_Node000007"><a xlink:title=" ">
<path fill="none" stroke="#63b8ff" d="M1061.8,-622.85C882.73,-618.4 445.96,-604.04 390,-569 347.97,-542.68 334,-522.09 334,-472.5 334,-472.5 334,-472.5 334,-250.5 334,-144.92 690.68,-111.7 851.26,-102.09"/>
<polygon fill="#63b8ff" stroke="#63b8ff" points="1061.85,-626.35 1071.93,-623.09 1062.02,-619.35 1061.85,-626.35"/>
</a>
</g>
</g>
<!-- Node8 -->
<g id="Node000008" class="node">
<title>Node8</title>
<g id="a_Node000008"><a xlink:href="dof__handler_8hpp.html" target="_top" xlink:title=" ">
<polygon fill="white" stroke="#666666" points="634.5,-563.5 477.5,-563.5 477.5,-533.5 634.5,-533.5 634.5,-563.5"/>
<text text-anchor="start" x="485.5" y="-551.5" font-family="Helvetica,sans-Serif" font-size="10.00">/__w/vulpes/vulpes</text>
<text text-anchor="middle" x="556" y="-540.5" font-family="Helvetica,sans-Serif" font-size="10.00">/vulpes/dofs/dof_handler.hpp</text>
</a>
</g>
</g>
<!-- Node3&#45;&gt;Node8 -->
<g id="edge8_Node000003_Node000008" class="edge">
<title>Node3&#45;&gt;Node8</title>
<g id="a_edge8_Node000003_Node000008"><a xlink:title=" ">
<path fill="none" stroke="#63b8ff" d="M1061.71,-614.67C950.96,-600.4 746.68,-574.07 634.63,-559.63"/>
<polygon fill="#63b8ff" stroke="#63b8ff" points="1061.44,-618.16 1071.8,-615.97 1062.33,-611.22 1061.44,-618.16"/>
</a>
</g>
</g>
<!-- Node11 -->
<g id="Node000011" class="node">
<title>Node11</title>
<g id="a_Node000011"><a xlink:href="fe__expr__base_8hpp.html" target="_top" xlink:title=" ">
<polygon fill="white" stroke="#666666" points="1056.5,-492 915.5,-492 915.5,-451 1056.5,-451 1056.5,-492"/>
<text text-anchor="start" x="923.5" y="-480" font-family="Helvetica,sans-Serif" font-size="10.00">/__w/vulpes/vulpes</text>
<text text-anchor="start" x="923.5" y="-469" font-family="Helvetica,sans-Serif" font-size="10.00">/vulpes/fe/fe_expressions</text>
<text text-anchor="middle" x="986" y="-458" font-family="Helvetica,sans-Serif" font-size="10.00">/fe_expr_base.hpp</text>
</a>
</g>
</g>
<!-- Node3&#45;&gt;Node11 -->
<g id="edge11_Node000003_Node000011" class="edge">
<title>Node3&#45;&gt;Node11</title>
<g id="a_edge11_Node000003_Node000011"><a xlink:title=" ">
<path fill="none" stroke="#63b8ff" d="M1106.11,-604.54C1091.6,-594.72 1074.65,-582.17 1061,-569 1036.26,-545.14 1012.8,-512.83 998.9,-492.33"/>
<polygon fill="#63b8ff" stroke="#63b8ff" points="1104.51,-607.68 1114.78,-610.28 1108.38,-601.84 1104.51,-607.68"/>
</a>
</g>
</g>
<!-- Node15 -->
<g id="Node000015" class="node">
<title>Node15</title>
<g id="a_Node000015"><a xlink:href="fe__vem_8hpp.html" target="_top" xlink:title=" ">
<polygon fill="white" stroke="#666666" points="478,-272 362,-272 362,-231 478,-231 478,-272"/>
<text text-anchor="start" x="370" y="-260" font-family="Helvetica,sans-Serif" font-size="10.00">/__w/vulpes/vulpes</text>
<text text-anchor="start" x="370" y="-249" font-family="Helvetica,sans-Serif" font-size="10.00">/vulpes/fe/fe_spaces</text>
<text text-anchor="middle" x="420" y="-238" font-family="Helvetica,sans-Serif" font-size="10.00">/fe_vem.hpp</text>
</a>
</g>
</g>
<!-- Node3&#45;&gt;Node15 -->
<g id="edge36_Node000003_Node000015" class="edge">
<title>Node3&#45;&gt;Node15</title>
<g id="a_edge36_Node000003_Node000015"><a xlink:title=" ">
<path fill="none" stroke="#63b8ff" d="M1061.65,-624.71C908.96,-624.07 571.71,-617.07 468,-569 413.11,-543.56 372,-533 372,-472.5 372,-472.5 372,-472.5 372,-393.5 372,-348.25 394.43,-298.97 408.62,-272.32"/>
<polygon fill="#63b8ff" stroke="#63b8ff" points="1061.86,-628.21 1071.88,-624.74 1061.89,-621.21 1061.86,-628.21"/>
</a>
</g>
</g>
<!-- Node20 -->
<g id="Node000020" class="node">
<title>Node20</title>
<g id="a_Node000020"><a xlink:href="fe__lagrange__simplex_8hpp.html" target="_top" xlink:title=" ">
<polygon fill="white" stroke="#666666" points="1522.5,-569 1379.5,-569 1379.5,-528 1522.5,-528 1522.5,-569"/>
<text text-anchor="start" x="1387.5" y="-557" font-family="Helvetica,sans-Serif" font-size="10.00">/__w/vulpes/vulpes</text>
<text text-anchor="start" x="1387.5" y="-546" font-family="Helvetica,sans-Serif" font-size="10.00">/vulpes/fe/fe_spaces</text>
<text text-anchor="middle" x="1451" y="-535" font-family="Helvetica,sans-Serif" font-size="10.00">/fe_lagrange_simplex.hpp</text>
</a>
</g>
</g>
<!-- Node3&#45;&gt;Node20 -->
<g id="edge29_Node000003_Node000020" class="edge">
<title>Node3&#45;&gt;Node20</title>
<g id="a_edge29_Node000003_Node000020"><a xlink:title=" ">
<path fill="none" stroke="#63b8ff" d="M1206.48,-608.09C1257.64,-595.83 1327.4,-579.12 1379.32,-566.68"/>
<polygon fill="#63b8ff" stroke="#63b8ff" points="1205.41,-604.75 1196.51,-610.48 1207.05,-611.55 1205.41,-604.75"/>
</a>
</g>
</g>
<!-- Node22 -->
<g id="Node000022" class="node">
<title>Node22</title>
<g id="a_Node000022"><a xlink:href="fe__lagrange__tensor_8hpp.html" target="_top" xlink:title=" ">
<polygon fill="white" stroke="#666666" points="1437,-492 1303,-492 1303,-451 1437,-451 1437,-492"/>
<text text-anchor="start" x="1311" y="-480" font-family="Helvetica,sans-Serif" font-size="10.00">/__w/vulpes/vulpes</text>
<text text-anchor="start" x="1311" y="-469" font-family="Helvetica,sans-Serif" font-size="10.00">/vulpes/fe/fe_spaces</text>
<text text-anchor="middle" x="1370" y="-458" font-family="Helvetica,sans-Serif" font-size="10.00">/fe_lagrange_tensor.hpp</text>
</a>
</g>
</g>
<!-- Node3&#45;&gt;Node22 -->
<g id="edge33_Node000003_Node000022" class="edge">
<title>Node3&#45;&gt;Node22</title>
<g id="a_edge33_Node000003_Node000022"><a xlink:title=" ">
<path fill="none" stroke="#63b8ff" d="M1207.16,-607.41C1234.22,-598.66 1264.57,-586.16 1289,-569 1318.71,-548.13 1343.95,-513.75 1358.02,-492.16"/>
<polygon fill="#63b8ff" stroke="#63b8ff" points="1205.86,-604.15 1197.35,-610.46 1207.94,-610.83 1205.86,-604.15"/>
</a>
</g>
</g>
<!-- Node23 -->
<g id="Node000023" class="node">
<title>Node23</title>
<g id="a_Node000023"><a xlink:href="fe__modal__simplex_8hpp.html" target="_top" xlink:title=" ">
<polygon fill="white" stroke="#666666" points="1586.5,-492 1455.5,-492 1455.5,-451 1586.5,-451 1586.5,-492"/>
<text text-anchor="start" x="1463.5" y="-480" font-family="Helvetica,sans-Serif" font-size="10.00">/__w/vulpes/vulpes</text>
<text text-anchor="start" x="1463.5" y="-469" font-family="Helvetica,sans-Serif" font-size="10.00">/vulpes/fe/fe_spaces</text>
<text text-anchor="middle" x="1521" y="-458" font-family="Helvetica,sans-Serif" font-size="10.00">/fe_modal_simplex.hpp</text>
</a>
</g>
</g>
<!-- Node3&#45;&gt;Node23 -->
<g id="edge34_Node000003_Node000023" class="edge">
<title>Node3&#45;&gt;Node23</title>
<g id="a_edge34_Node000003_Node000023"><a xlink:title=" ">
<path fill="none" stroke="#63b8ff" d="M1214.16,-609.93C1249.34,-601.22 1290.79,-588.06 1325,-569 1348.92,-555.67 1347.53,-542.11 1371,-528 1397.06,-512.34 1428.27,-499.92 1455.46,-490.84"/>
<polygon fill="#63b8ff" stroke="#63b8ff" points="1213.32,-606.53 1204.41,-612.27 1214.95,-613.34 1213.32,-606.53"/>
</a>
</g>
</g>
<!-- Node24 -->
<g id="Node000024" class="node">
<title>Node24</title>
<g id="a_Node000024"><a xlink:href="fe__modal__tensor_8hpp.html" target="_top" xlink:title=" ">
<polygon fill="white" stroke="#666666" points="306,-569 184,-569 184,-528 306,-528 306,-569"/>
<text text-anchor="start" x="192" y="-557" font-family="Helvetica,sans-Serif" font-size="10.00">/__w/vulpes/vulpes</text>
<text text-anchor="start" x="192" y="-546" font-family="Helvetica,sans-Serif" font-size="10.00">/vulpes/fe/fe_spaces</text>
<text text-anchor="middle" x="245" y="-535" font-family="Helvetica,sans-Serif" font-size="10.00">/fe_modal_tensor.hpp</text>
</a>
</g>
</g>
<!-- Node3&#45;&gt;Node24 -->
<g id="edge35_Node000003_Node000024" class="edge">
<title>Node3&#45;&gt;Node24</title>
<g id="a_edge35_Node000003_Node000024"><a xlink:title=" ">
<path fill="none" stroke="#63b8ff" d="M1061.64,-624.06C916.3,-622.17 590.29,-612.91 320,-569 315.48,-568.27 310.85,-567.38 306.2,-566.4"/>
<polygon fill="#63b8ff" stroke="#63b8ff" points="1061.74,-627.56 1071.79,-624.18 1061.83,-620.56 1061.74,-627.56"/>
</a>
</g>
</g>
<!-- Node25 -->
<g id="Node000025" class="node">
<title>Node25</title>
<g id="a_Node000025"><a xlink:href="fe__values_8hpp.html" target="_top" xlink:title=" ">
<polygon fill="white" stroke="#666666" points="1206,-563.5 1070,-563.5 1070,-533.5 1206,-533.5 1206,-563.5"/>
<text text-anchor="start" x="1078" y="-551.5" font-family="Helvetica,sans-Serif" font-size="10.00">/__w/vulpes/vulpes</text>
<text text-anchor="middle" x="1138" y="-540.5" font-family="Helvetica,sans-Serif" font-size="10.00">/vulpes/fe/fe_values.hpp</text>
</a>
</g>
</g>
<!-- Node3&#45;&gt;Node25 -->
<g id="edge37_Node000003_Node000025" class="edge">
<title>Node3&#45;&gt;Node25</title>
<g id="a_edge37_Node000003_Node000025"><a xlink:title=" ">
<path fill="none" stroke="#63b8ff" d="M1138,-600.04C1138,-587.95 1138,-573.79 1138,-563.54"/>
<polygon fill="#63b8ff" stroke="#63b8ff" points="1134.5,-600.39 1138,-610.39 1141.5,-600.39 1134.5,-600.39"/>
</a>
</g>
</g>
<!-- Node6 -->
<g id="Node000006" class="node">
<title>Node6</title>
<g id="a_Node000006"><a xlink:href="integrator__vem_8hpp.html" target="_top" xlink:title=" ">
<polygon fill="white" stroke="#666666" points="1175.5,-41 1022.5,-41 1022.5,0 1175.5,0 1175.5,-41"/>
<text text-anchor="start" x="1030.5" y="-29" font-family="Helvetica,sans-Serif" font-size="10.00">/__w/vulpes/vulpes</text>
<text text-anchor="start" x="1030.5" y="-18" font-family="Helvetica,sans-Serif" font-size="10.00">/vulpes/assemble/integrator</text>
<text text-anchor="middle" x="1099" y="-7" font-family="Helvetica,sans-Serif" font-size="10.00">_vem.hpp</text>
</a>
</g>
</g>
<!-- Node5&#45;&gt;Node6 -->
<g id="edge5_Node000005_Node000006" class="edge">
<title>Node5&#45;&gt;Node6</title>
<g id="a_edge5_Node000005_Node000006"><a xlink:title=" ">
<path fill="none" stroke="#63b8ff" d="M1216.1,-72.86C1192.75,-62.62 1165.75,-50.77 1143.56,-41.04"/>
<polygon fill="#63b8ff" stroke="#63b8ff" points="1214.95,-76.18 1225.52,-76.99 1217.77,-69.77 1214.95,-76.18"/>
</a>
</g>
</g>
<!-- Node7&#45;&gt;Node6 -->
<g id="edge7_Node000007_Node000006" class="edge">
<title>Node7&#45;&gt;Node6</title>
<g id="a_edge7_Node000007_Node000006"><a xlink:title=" ">
<path fill="none" stroke="#63b8ff" d="M981.9,-72.86C1005.25,-62.62 1032.25,-50.77 1054.44,-41.04"/>
<polygon fill="#63b8ff" stroke="#63b8ff" points="980.23,-69.77 972.48,-76.99 983.05,-76.18 980.23,-69.77"/>
</a>
</g>
</g>
<!-- Node9 -->
<g id="Node000009" class="node">
<title>Node9</title>
<g id="a_Node000009"><a xlink:href="dg__utils_8hpp.html" target="_top" xlink:title=" ">
<polygon fill="white" stroke="#666666" points="986.5,-272 869.5,-272 869.5,-231 986.5,-231 986.5,-272"/>
<text text-anchor="start" x="877.5" y="-260" font-family="Helvetica,sans-Serif" font-size="10.00">/__w/vulpes/vulpes</text>
<text text-anchor="start" x="877.5" y="-249" font-family="Helvetica,sans-Serif" font-size="10.00">/vulpes/assemble/dg</text>
<text text-anchor="middle" x="928" y="-238" font-family="Helvetica,sans-Serif" font-size="10.00">_utils.hpp</text>
</a>
</g>
</g>
<!-- Node8&#45;&gt;Node9 -->
<g id="edge9_Node000008_Node000009" class="edge">
<title>Node8&#45;&gt;Node9</title>
<g id="a_edge9_Node000008_Node000009"><a xlink:title=" ">
<path fill="none" stroke="#63b8ff" d="M557.63,-523.21C557.73,-501.7 554.39,-470.76 537,-451 503.57,-413.02 458.58,-456.05 429,-415 418.35,-400.22 417.74,-388.33 429,-374 483.26,-304.94 749.51,-270.22 869.35,-257.88"/>
<polygon fill="#63b8ff" stroke="#63b8ff" points="554.12,-523.38 557.32,-533.48 561.12,-523.59 554.12,-523.38"/>
</a>
</g>
</g>
<!-- Node10 -->
<g id="Node000010" class="node">
<title>Node10</title>
<g id="a_Node000010"><a xlink:href="project__solution_8hpp.html" target="_top" xlink:title=" ">
<polygon fill="white" stroke="#666666" points="528,-492 400,-492 400,-451 528,-451 528,-492"/>
<text text-anchor="start" x="408" y="-480" font-family="Helvetica,sans-Serif" font-size="10.00">/__w/vulpes/vulpes</text>
<text text-anchor="start" x="408" y="-469" font-family="Helvetica,sans-Serif" font-size="10.00">/vulpes/postprocessing</text>
<text text-anchor="middle" x="464" y="-458" font-family="Helvetica,sans-Serif" font-size="10.00">/project_solution.hpp</text>
</a>
</g>
</g>
<!-- Node8&#45;&gt;Node10 -->
<g id="edge10_Node000008_Node000010" class="edge">
<title>Node8&#45;&gt;Node10</title>
<g id="a_edge10_Node000008_Node000010"><a xlink:title=" ">
<path fill="none" stroke="#63b8ff" d="M530.85,-527C517.56,-516.16 501.32,-502.92 488.17,-492.2"/>
<polygon fill="#63b8ff" stroke="#63b8ff" points="528.73,-529.79 538.7,-533.39 533.16,-524.36 528.73,-529.79"/>
</a>
</g>
</g>
<!-- Node12 -->
<g id="Node000012" class="node">
<title>Node12</title>
<g id="a_Node000012"><a xlink:href="fe__expression_8hpp.html" target="_top" xlink:title=" ">
<polygon fill="white" stroke="#666666" points="919.5,-338 762.5,-338 762.5,-308 919.5,-308 919.5,-338"/>
<text text-anchor="start" x="770.5" y="-326" font-family="Helvetica,sans-Serif" font-size="10.00">/__w/vulpes/vulpes</text>
<text text-anchor="middle" x="841" y="-315" font-family="Helvetica,sans-Serif" font-size="10.00">/vulpes/fe/fe_expression.hpp</text>
</a>
</g>
</g>
<!-- Node11&#45;&gt;Node12 -->
<g id="edge12_Node000011_Node000012" class="edge">
<title>Node11&#45;&gt;Node12</title>
<g id="a_edge12_Node000011_Node000012"><a xlink:title=" ">
<path fill="none" stroke="#63b8ff" d="M1037.39,-445.13C1048.46,-437.1 1058.72,-427.09 1065,-415 1073.4,-398.83 1076.4,-388.22 1065,-374 1046.84,-351.34 976.75,-338.28 919.75,-331.23"/>
<polygon fill="#63b8ff" stroke="#63b8ff" points="1035.16,-442.4 1028.81,-450.88 1039.07,-448.21 1035.16,-442.4"/>
</a>
</g>
</g>
<!-- Node16 -->
<g id="Node000016" class="node">
<title>Node16</title>
<g id="a_Node000016"><a xlink:href="fe__expr__basis_8hpp.html" target="_top" xlink:title=" ">
<polygon fill="white" stroke="#666666" points="579.5,-415 438.5,-415 438.5,-374 579.5,-374 579.5,-415"/>
<text text-anchor="start" x="446.5" y="-403" font-family="Helvetica,sans-Serif" font-size="10.00">/__w/vulpes/vulpes</text>
<text text-anchor="start" x="446.5" y="-392" font-family="Helvetica,sans-Serif" font-size="10.00">/vulpes/fe/fe_expressions</text>
<text text-anchor="middle" x="509" y="-381" font-family="Helvetica,sans-Serif" font-size="10.00">/fe_expr_basis.hpp</text>
</a>
</g>
</g>
<!-- Node11&#45;&gt;Node16 -->
<g id="edge21_Node000011_Node000016" class="edge">
<title>Node11&#45;&gt;Node16</title>
<g id="a_edge21_Node000011_Node000016"><a xlink:title=" ">
<path fill="none" stroke="#63b8ff" d="M905.09,-461.7C824.38,-452.35 697.06,-436 588,-415 585.23,-414.47 582.4,-413.9 579.56,-413.3"/>
<polygon fill="#63b8ff" stroke="#63b8ff" points="904.85,-465.2 915.18,-462.87 905.65,-458.25 904.85,-465.2"/>
</a>
</g>
</g>
<!-- Node17 -->
<g id="Node000017" class="node">
<title>Node17</title>
<g id="a_Node000017"><a xlink:href="fe__expr__func_8hpp.html" target="_top" xlink:title=" ">
<polygon fill="white" stroke="#666666" points="738.5,-415 597.5,-415 597.5,-374 738.5,-374 738.5,-415"/>
<text text-anchor="start" x="605.5" y="-403" font-family="Helvetica,sans-Serif" font-size="10.00">/__w/vulpes/vulpes</text>
<text text-anchor="start" x="605.5" y="-392" font-family="Helvetica,sans-Serif" font-size="10.00">/vulpes/fe/fe_expressions</text>
<text text-anchor="middle" x="668" y="-381" font-family="Helvetica,sans-Serif" font-size="10.00">/fe_expr_func.hpp</text>
</a>
</g>
</g>
<!-- Node11&#45;&gt;Node17 -->
<g id="edge23_Node000011_Node000017" class="edge">
<title>Node11&#45;&gt;Node17</title>
<g id="a_edge23_Node000011_Node000017"><a xlink:title=" ">
<path fill="none" stroke="#63b8ff" d="M905.36,-452.07C859,-441.4 799.68,-427.62 747,-415 744.25,-414.34 741.45,-413.67 738.62,-412.98"/>
<polygon fill="#63b8ff" stroke="#63b8ff" points="904.82,-455.53 915.35,-454.36 906.39,-448.71 904.82,-455.53"/>
</a>
</g>
</g>
<!-- Node18 -->
<g id="Node000018" class="node">
<title>Node18</title>
<g id="a_Node000018"><a xlink:href="fe__expr__op_8hpp.html" target="_top" xlink:title=" ">
<polygon fill="white" stroke="#666666" points="897.5,-415 756.5,-415 756.5,-374 897.5,-374 897.5,-415"/>
<text text-anchor="start" x="764.5" y="-403" font-family="Helvetica,sans-Serif" font-size="10.00">/__w/vulpes/vulpes</text>
<text text-anchor="start" x="764.5" y="-392" font-family="Helvetica,sans-Serif" font-size="10.00">/vulpes/fe/fe_expressions</text>
<text text-anchor="middle" x="827" y="-381" font-family="Helvetica,sans-Serif" font-size="10.00">/fe_expr_op.hpp</text>
</a>
</g>
</g>
<!-- Node11&#45;&gt;Node18 -->
<g id="edge25_Node000011_Node000018" class="edge">
<title>Node11&#45;&gt;Node18</title>
<g id="a_edge25_Node000011_Node000018"><a xlink:title=" ">
<path fill="none" stroke="#63b8ff" d="M935.59,-446.72C913.95,-436.51 888.97,-424.73 868.43,-415.04"/>
<polygon fill="#63b8ff" stroke="#63b8ff" points="934.1,-449.89 944.64,-450.99 937.09,-443.56 934.1,-449.89"/>
</a>
</g>
</g>
<!-- Node19 -->
<g id="Node000019" class="node">
<title>Node19</title>
<g id="a_Node000019"><a xlink:href="fe__expr__unary_8hpp.html" target="_top" xlink:title=" ">
<polygon fill="white" stroke="#666666" points="1056.5,-415 915.5,-415 915.5,-374 1056.5,-374 1056.5,-415"/>
<text text-anchor="start" x="923.5" y="-403" font-family="Helvetica,sans-Serif" font-size="10.00">/__w/vulpes/vulpes</text>
<text text-anchor="start" x="923.5" y="-392" font-family="Helvetica,sans-Serif" font-size="10.00">/vulpes/fe/fe_expressions</text>
<text text-anchor="middle" x="986" y="-381" font-family="Helvetica,sans-Serif" font-size="10.00">/fe_expr_unary.hpp</text>
</a>
</g>
</g>
<!-- Node11&#45;&gt;Node19 -->
<g id="edge27_Node000011_Node000019" class="edge">
<title>Node11&#45;&gt;Node19</title>
<g id="a_edge27_Node000011_Node000019"><a xlink:title=" ">
<path fill="none" stroke="#63b8ff" d="M986,-440.69C986,-432.08 986,-422.9 986,-415.07"/>
<polygon fill="#63b8ff" stroke="#63b8ff" points="982.5,-440.79 986,-450.79 989.5,-440.79 982.5,-440.79"/>
</a>
</g>
</g>
<!-- Node12&#45;&gt;Node9 -->
<g id="edge13_Node000012_Node000009" class="edge">
<title>Node12&#45;&gt;Node9</title>
<g id="a_edge13_Node000012_Node000009"><a xlink:title=" ">
<path fill="none" stroke="#63b8ff" d="M866.66,-301.5C878.3,-292.21 892,-281.26 903.5,-272.07"/>
<polygon fill="#63b8ff" stroke="#63b8ff" points="864.23,-298.96 858.61,-307.94 868.6,-304.43 864.23,-298.96"/>
</a>
</g>
</g>
<!-- Node13 -->
<g id="Node000013" class="node">
<title>Node13</title>
<g id="a_Node000013"><a xlink:href="integrator__base_8hpp.html" target="_top" xlink:title=" ">
<polygon fill="white" stroke="#666666" points="1172.5,-195 1019.5,-195 1019.5,-154 1172.5,-154 1172.5,-195"/>
<text text-anchor="start" x="1027.5" y="-183" font-family="Helvetica,sans-Serif" font-size="10.00">/__w/vulpes/vulpes</text>
<text text-anchor="start" x="1027.5" y="-172" font-family="Helvetica,sans-Serif" font-size="10.00">/vulpes/assemble/integrator</text>
<text text-anchor="middle" x="1096" y="-161" font-family="Helvetica,sans-Serif" font-size="10.00">_base.hpp</text>
</a>
</g>
</g>
<!-- Node12&#45;&gt;Node13 -->
<g id="edge14_Node000012_Node000013" class="edge">
<title>Node12&#45;&gt;Node13</title>
<g id="a_edge14_Node000012_Node000013"><a xlink:title=" ">
<path fill="none" stroke="#63b8ff" d="M839.38,-297.73C839.4,-277.25 842.9,-248.53 860,-231 882.04,-208.4 959.28,-193.23 1019.46,-184.54"/>
<polygon fill="#63b8ff" stroke="#63b8ff" points="835.88,-297.96 839.65,-307.87 842.88,-297.78 835.88,-297.96"/>
</a>
</g>
</g>
<!-- Node14 -->
<g id="Node000014" class="node">
<title>Node14</title>
<g id="a_Node000014"><a xlink:href="integrator__traits_8hpp.html" target="_top" xlink:title=" ">
<polygon fill="white" stroke="#666666" points="1170.5,-272 1017.5,-272 1017.5,-231 1170.5,-231 1170.5,-272"/>
<text text-anchor="start" x="1025.5" y="-260" font-family="Helvetica,sans-Serif" font-size="10.00">/__w/vulpes/vulpes</text>
<text text-anchor="start" x="1025.5" y="-249" font-family="Helvetica,sans-Serif" font-size="10.00">/vulpes/assemble/integrator</text>
<text text-anchor="middle" x="1094" y="-238" font-family="Helvetica,sans-Serif" font-size="10.00">_traits.hpp</text>
</a>
</g>
</g>
<!-- Node12&#45;&gt;Node14 -->
<g id="edge18_Node000012_Node000014" class="edge">
<title>Node12&#45;&gt;Node14</title>
<g id="a_edge18_Node000012_Node000014"><a xlink:title=" ">
<path fill="none" stroke="#63b8ff" d="M902.17,-305.2C938.51,-295.21 984.76,-282.51 1022.75,-272.07"/>
<polygon fill="#63b8ff" stroke="#63b8ff" points="900.91,-301.91 892.2,-307.94 902.77,-308.66 900.91,-301.91"/>
</a>
</g>
</g>
<!-- Node12&#45;&gt;Node15 -->
<g id="edge20_Node000012_Node000015" class="edge">
<title>Node12&#45;&gt;Node15</title>
<g id="a_edge20_Node000012_Node000015"><a xlink:title=" ">
<path fill="none" stroke="#63b8ff" d="M752.43,-307.38C669.82,-293.74 548.96,-273.79 478.01,-262.08"/>
<polygon fill="#63b8ff" stroke="#63b8ff" points="751.87,-310.83 762.31,-309.01 753.01,-303.93 751.87,-310.83"/>
</a>
</g>
</g>
<!-- Node13&#45;&gt;Node4 -->
<g id="edge15_Node000013_Node000004" class="edge">
<title>Node13&#45;&gt;Node4</title>
<g id="a_edge15_Node000013_Node000004"><a xlink:title=" ">
<path fill="none" stroke="#63b8ff" d="M1097.19,-143.69C1097.54,-135.08 1097.9,-125.9 1098.22,-118.07"/>
<polygon fill="#63b8ff" stroke="#63b8ff" points="1093.69,-143.66 1096.79,-153.79 1100.69,-143.94 1093.69,-143.66"/>
</a>
</g>
</g>
<!-- Node13&#45;&gt;Node5 -->
<g id="edge16_Node000013_Node000005" class="edge">
<title>Node13&#45;&gt;Node5</title>
<g id="a_edge16_Node000013_Node000005"><a xlink:title=" ">
<path fill="none" stroke="#63b8ff" d="M1150.53,-150C1174.36,-139.72 1201.98,-127.82 1224.66,-118.04"/>
<polygon fill="#63b8ff" stroke="#63b8ff" points="1149.06,-146.82 1141.26,-153.99 1151.83,-153.25 1149.06,-146.82"/>
</a>
</g>
</g>
<!-- Node13&#45;&gt;Node7 -->
<g id="edge17_Node000013_Node000007" class="edge">
<title>Node13&#45;&gt;Node7</title>
<g id="a_edge17_Node000013_Node000007"><a xlink:title=" ">
<path fill="none" stroke="#63b8ff" d="M1043.04,-149.86C1020.11,-139.62 993.57,-127.77 971.77,-118.04"/>
<polygon fill="#63b8ff" stroke="#63b8ff" points="1041.74,-153.11 1052.3,-153.99 1044.59,-146.72 1041.74,-153.11"/>
</a>
</g>
</g>
<!-- Node14&#45;&gt;Node13 -->
<g id="edge19_Node000014_Node000013" class="edge">
<title>Node14&#45;&gt;Node13</title>
<g id="a_edge19_Node000014_Node000013"><a xlink:title=" ">
<path fill="none" stroke="#63b8ff" d="M1094.79,-220.69C1095.02,-212.08 1095.27,-202.9 1095.48,-195.07"/>
<polygon fill="#63b8ff" stroke="#63b8ff" points="1091.29,-220.7 1094.53,-230.79 1098.29,-220.89 1091.29,-220.7"/>
</a>
</g>
</g>
<!-- Node16&#45;&gt;Node12 -->
<g id="edge22_Node000016_Node000012" class="edge">
<title>Node16&#45;&gt;Node12</title>
<g id="a_edge22_Node000016_Node000012"><a xlink:title=" ">
<path fill="none" stroke="#63b8ff" d="M589.52,-373.7C653.89,-359.54 717.34,-347.09 765.25,-338.01"/>
<polygon fill="#63b8ff" stroke="#63b8ff" points="588.6,-370.32 579.6,-375.9 590.12,-377.16 588.6,-370.32"/>
</a>
</g>
</g>
<!-- Node17&#45;&gt;Node12 -->
<g id="edge24_Node000017_Node000012" class="edge">
<title>Node17&#45;&gt;Node12</title>
<g id="a_edge24_Node000017_Node000012"><a xlink:title=" ">
<path fill="none" stroke="#63b8ff" d="M726.22,-370.11C752.74,-359.46 783.25,-347.2 806.14,-338"/>
<polygon fill="#63b8ff" stroke="#63b8ff" points="724.63,-366.98 716.65,-373.96 727.23,-373.48 724.63,-366.98"/>
</a>
</g>
</g>
<!-- Node18&#45;&gt;Node12 -->
<g id="edge26_Node000018_Node000012" class="edge">
<title>Node18&#45;&gt;Node12</title>
<g id="a_edge26_Node000018_Node000012"><a xlink:title=" ">
<path fill="none" stroke="#63b8ff" d="M832.95,-363.95C834.76,-354.96 836.67,-345.5 838.17,-338.04"/>
<polygon fill="#63b8ff" stroke="#63b8ff" points="829.52,-363.28 830.97,-373.77 836.38,-364.66 829.52,-363.28"/>
</a>
</g>
</g>
<!-- Node19&#45;&gt;Node12 -->
<g id="edge28_Node000019_Node000012" class="edge">
<title>Node19&#45;&gt;Node12</title>
<g id="a_edge28_Node000019_Node000012"><a xlink:title=" ">
<path fill="none" stroke="#63b8ff" d="M936.06,-369.56C914.19,-359.08 889.28,-347.14 870.44,-338.11"/>
<polygon fill="#63b8ff" stroke="#63b8ff" points="934.69,-372.79 945.22,-373.96 937.72,-366.48 934.69,-372.79"/>
</a>
</g>
</g>
<!-- Node21 -->
<g id="Node000021" class="node">
<title>Node21</title>
<g id="a_Node000021"><a xlink:href="fe__lagrange__simplex_8cpp.html" target="_top" xlink:title=" ">
<polygon fill="white" stroke="#666666" points="1747,-492 1605,-492 1605,-451 1747,-451 1747,-492"/>
<text text-anchor="start" x="1613" y="-480" font-family="Helvetica,sans-Serif" font-size="10.00">/__w/vulpes/vulpes</text>
<text text-anchor="start" x="1613" y="-469" font-family="Helvetica,sans-Serif" font-size="10.00">/vulpes/fe/fe_spaces</text>
<text text-anchor="middle" x="1676" y="-458" font-family="Helvetica,sans-Serif" font-size="10.00">/fe_lagrange_simplex.cpp</text>
</a>
</g>
</g>
<!-- Node20&#45;&gt;Node21 -->
<g id="edge30_Node000020_Node000021" class="edge">
<title>Node20&#45;&gt;Node21</title>
<g id="a_edge30_Node000020_Node000021"><a xlink:title=" ">
<path fill="none" stroke="#63b8ff" d="M1519.07,-524.81C1550.43,-514.36 1587.27,-502.08 1617.37,-492.04"/>
<polygon fill="#63b8ff" stroke="#63b8ff" points="1517.91,-521.51 1509.53,-527.99 1520.12,-528.15 1517.91,-521.51"/>
</a>
</g>
</g>
<!-- Node20&#45;&gt;Node22 -->
<g id="edge31_Node000020_Node000022" class="edge">
<title>Node20&#45;&gt;Node22</title>
<g id="a_edge31_Node000020_Node000022"><a xlink:title=" ">
<path fill="none" stroke="#63b8ff" d="M1422.15,-520.79C1411.92,-511.32 1400.61,-500.84 1391.14,-492.07"/>
<polygon fill="#63b8ff" stroke="#63b8ff" points="1420,-523.57 1429.72,-527.79 1424.76,-518.43 1420,-523.57"/>
</a>
</g>
</g>
<!-- Node20&#45;&gt;Node23 -->
<g id="edge32_Node000020_Node000023" class="edge">
<title>Node20&#45;&gt;Node23</title>
<g id="a_edge32_Node000020_Node000023"><a xlink:title=" ">
<path fill="none" stroke="#63b8ff" d="M1476.45,-520.23C1485.15,-510.91 1494.71,-500.67 1502.73,-492.07"/>
<polygon fill="#63b8ff" stroke="#63b8ff" points="1473.66,-518.1 1469.39,-527.79 1478.77,-522.87 1473.66,-518.1"/>
</a>
</g>
</g>
<!-- Node25&#45;&gt;Node9 -->
<g id="edge38_Node000025_Node000009" class="edge">
<title>Node25&#45;&gt;Node9</title>
<g id="a_edge38_Node000025_Node000009"><a xlink:title=" ">
<path fill="none" stroke="#63b8ff" d="M1134.94,-523.27C1129.49,-487.78 1115.48,-420.82 1083,-374 1051.92,-329.19 999.4,-293.05 964.22,-272.18"/>
<polygon fill="#63b8ff" stroke="#63b8ff" points="1131.48,-523.81 1136.36,-533.21 1138.41,-522.81 1131.48,-523.81"/>
</a>
</g>
</g>
<!-- Node25&#45;&gt;Node11 -->
<g id="edge41_Node000025_Node000011" class="edge">
<title>Node25&#45;&gt;Node11</title>
<g id="a_edge41_Node000025_Node000011"><a xlink:title=" ">
<path fill="none" stroke="#63b8ff" d="M1100.4,-528.95C1077.67,-517.73 1048.73,-503.45 1025.65,-492.06"/>
<polygon fill="#63b8ff" stroke="#63b8ff" points="1098.89,-532.11 1109.41,-533.39 1101.99,-525.83 1098.89,-532.11"/>
</a>
</g>
</g>
<!-- Node25&#45;&gt;Node13 -->
<g id="edge39_Node000025_Node000013" class="edge">
<title>Node25&#45;&gt;Node13</title>
<g id="a_edge39_Node000025_Node000013"><a xlink:title=" ">
<path fill="none" stroke="#63b8ff" d="M1153.57,-524.66C1171.64,-495.88 1199,-444.25 1199,-395.5 1199,-395.5 1199,-395.5 1199,-322 1199,-280.59 1202.34,-265.2 1179,-231 1168.84,-216.11 1153.23,-204.16 1138.29,-195.21"/>
<polygon fill="#63b8ff" stroke="#63b8ff" points="1150.56,-522.87 1148.07,-533.17 1156.44,-526.67 1150.56,-522.87"/>
</a>
</g>
</g>
<!-- Node25&#45;&gt;Node14 -->
<g id="edge40_Node000025_Node000014" class="edge">
<title>Node25&#45;&gt;Node14</title>
<g id="a_edge40_Node000025_Node000014"><a xlink:title=" ">
<path fill="none" stroke="#63b8ff" d="M1142.86,-523.42C1150.71,-479.28 1162.84,-383.02 1137,-308 1132.4,-294.63 1123.14,-281.98 1114.38,-272.15"/>
<polygon fill="#63b8ff" stroke="#63b8ff" points="1139.38,-523.01 1140.98,-533.48 1146.26,-524.29 1139.38,-523.01"/>
</a>
</g>
</g>
<!-- Node26&#45;&gt;Node24 -->
<g id="edge44_Node000026_Node000024" class="edge">
<title>Node26&#45;&gt;Node24</title>
<g id="a_edge44_Node000026_Node000024"><a xlink:title=" ">
<path fill="none" stroke="#63b8ff" d="M339.28,-671.64C337.55,-651.44 332.74,-624.91 320,-605 310.66,-590.4 296.03,-578.31 282.15,-569.18"/>
<polygon fill="#63b8ff" stroke="#63b8ff" points="335.81,-672.1 339.95,-681.85 342.79,-671.64 335.81,-672.1"/>
</a>
</g>
</g>
<!-- Node27 -->
<g id="Node000027" class="node">
<title>Node27</title>
<g id="a_Node000027"><a xlink:href="ndpolynomial_8hpp.html" target="_top" xlink:title=" ">
<polygon fill="white" stroke="#666666" points="1508.5,-646 1393.5,-646 1393.5,-605 1508.5,-605 1508.5,-646"/>
<text text-anchor="start" x="1401.5" y="-634" font-family="Helvetica,sans-Serif" font-size="10.00">/__w/vulpes/vulpes</text>
<text text-anchor="start" x="1401.5" y="-623" font-family="Helvetica,sans-Serif" font-size="10.00">/vulpes/polynomials</text>
<text text-anchor="middle" x="1451" y="-612" font-family="Helvetica,sans-Serif" font-size="10.00">/ndpolynomial.hpp</text>
</a>
</g>
</g>
<!-- Node26&#45;&gt;Node27 -->
<g id="edge45_Node000026_Node000027" class="edge">
<title>Node26&#45;&gt;Node27</title>
<g id="a_edge45_Node000026_Node000027"><a xlink:title=" ">
<path fill="none" stroke="#63b8ff" d="M407.95,-697.6C554.88,-689.09 913.1,-667.82 1213,-646 1274.61,-641.52 1345.13,-635.65 1393.31,-631.52"/>
<polygon fill="#63b8ff" stroke="#63b8ff" points="407.52,-694.12 397.74,-698.19 407.93,-701.11 407.52,-694.12"/>
</a>
</g>
</g>
<!-- Node28 -->
<g id="Node000028" class="node">
<title>Node28</title>
<g id="a_Node000028"><a xlink:href="sparse__polynomial_8hpp.html" target="_top" xlink:title=" ">
<polygon fill="white" stroke="#666666" points="311.5,-646 178.5,-646 178.5,-605 311.5,-605 311.5,-646"/>
<text text-anchor="start" x="186.5" y="-634" font-family="Helvetica,sans-Serif" font-size="10.00">/__w/vulpes/vulpes</text>
<text text-anchor="start" x="186.5" y="-623" font-family="Helvetica,sans-Serif" font-size="10.00">/vulpes/polynomials</text>
<text text-anchor="middle" x="245" y="-612" font-family="Helvetica,sans-Serif" font-size="10.00">/sparse_polynomial.hpp</text>
</a>
</g>
</g>
<!-- Node26&#45;&gt;Node28 -->
<g id="edge49_Node000026_Node000028" class="edge">
<title>Node26&#45;&gt;Node28</title>
<g id="a_edge49_Node000026_Node000028"><a xlink:title=" ">
<path fill="none" stroke="#63b8ff" d="M306.87,-675.35C294.69,-665.73 281.12,-655.01 269.79,-646.07"/>
<polygon fill="#63b8ff" stroke="#63b8ff" points="305.02,-678.35 315.04,-681.79 309.36,-672.85 305.02,-678.35"/>
</a>
</g>
</g>
<!-- Node29 -->
<g id="Node000029" class="node">
<title>Node29</title>
<g id="a_Node000029"><a xlink:href="gauss_8cpp.html" target="_top" xlink:title=" ">
<polygon fill="white" stroke="#666666" points="160,-640.5 0,-640.5 0,-610.5 160,-610.5 160,-640.5"/>
<text text-anchor="start" x="8" y="-628.5" font-family="Helvetica,sans-Serif" font-size="10.00">/__w/vulpes/vulpes</text>
<text text-anchor="middle" x="80" y="-617.5" font-family="Helvetica,sans-Serif" font-size="10.00">/vulpes/quadrature/gauss.cpp</text>
</a>
</g>
</g>
<!-- Node26&#45;&gt;Node29 -->
<g id="edge52_Node000026_Node000029" class="edge">
<title>Node26&#45;&gt;Node29</title>
<g id="a_edge52_Node000026_Node000029"><a xlink:title=" ">
<path fill="none" stroke="#63b8ff" d="M272.61,-682.06C227.58,-669.07 169.39,-652.29 128.81,-640.58"/>
<polygon fill="#63b8ff" stroke="#63b8ff" points="271.72,-685.45 282.3,-684.86 273.66,-678.72 271.72,-685.45"/>
</a>
</g>
</g>
<!-- Node27&#45;&gt;Node20 -->
<g id="edge47_Node000027_Node000020" class="edge">
<title>Node27&#45;&gt;Node20</title>
<g id="a_edge47_Node000027_Node000020"><a xlink:title=" ">
<path fill="none" stroke="#63b8ff" d="M1451,-594.69C1451,-586.08 1451,-576.9 1451,-569.07"/>
<polygon fill="#63b8ff" stroke="#63b8ff" points="1447.5,-594.79 1451,-604.79 1454.5,-594.79 1447.5,-594.79"/>
</a>
</g>
</g>
<!-- Node27&#45;&gt;Node21 -->
<g id="edge46_Node000027_Node000021" class="edge">
<title>Node27&#45;&gt;Node21</title>
<g id="a_edge46_Node000027_Node000021"><a xlink:title=" ">
<path fill="none" stroke="#63b8ff" d="M1497.43,-599.88C1514,-590.67 1532.61,-579.8 1549,-569 1586.23,-544.47 1626.86,-512.63 1651.89,-492.37"/>
<polygon fill="#63b8ff" stroke="#63b8ff" points="1495.53,-596.93 1488.47,-604.83 1498.91,-603.06 1495.53,-596.93"/>
</a>
</g>
</g>
<!-- Node27&#45;&gt;Node23 -->
<g id="edge48_Node000027_Node000023" class="edge">
<title>Node27&#45;&gt;Node23</title>
<g id="a_edge48_Node000027_Node000023"><a xlink:title=" ">
<path fill="none" stroke="#63b8ff" d="M1503.66,-599.36C1515.02,-591.32 1525.54,-581.26 1532,-569 1544.74,-544.83 1536.95,-512.61 1529.51,-492.2"/>
<polygon fill="#63b8ff" stroke="#63b8ff" points="1501.74,-596.44 1495.3,-604.85 1505.58,-602.29 1501.74,-596.44"/>
</a>
</g>
</g>
<!-- Node28&#45;&gt;Node15 -->
<g id="edge51_Node000028_Node000015" class="edge">
<title>Node28&#45;&gt;Node15</title>
<g id="a_edge51_Node000028_Node000015"><a xlink:title=" ">
<path fill="none" stroke="#63b8ff" d="M202.89,-598.9C192.32,-590.59 182.01,-580.5 175,-569 152.25,-531.68 156,-516.21 156,-472.5 156,-472.5 156,-472.5 156,-393.5 156,-300.88 283.99,-268.88 361.74,-257.99"/>
<polygon fill="#63b8ff" stroke="#63b8ff" points="200.85,-601.74 210.97,-604.9 205.03,-596.12 200.85,-601.74"/>
</a>
</g>
</g>
<!-- Node28&#45;&gt;Node24 -->
<g id="edge50_Node000028_Node000024" class="edge">
<title>Node28&#45;&gt;Node24</title>
<g id="a_edge50_Node000028_Node000024"><a xlink:title=" ">
<path fill="none" stroke="#63b8ff" d="M245,-594.69C245,-586.08 245,-576.9 245,-569.07"/>
<polygon fill="#63b8ff" stroke="#63b8ff" points="241.5,-594.79 245,-604.79 248.5,-594.79 241.5,-594.79"/>
</a>
</g>
</g>
<!-- Node30&#45;&gt;Node27 -->
<g id="edge54_Node000030_Node000027" class="edge">
<title>Node30&#45;&gt;Node27</title>
<g id="a_edge54_Node000030_Node000027"><a xlink:title=" ">
<path fill="none" stroke="#63b8ff" d="M1361.59,-676.92C1379.28,-666.95 1399.43,-655.58 1416.11,-646.17"/>
<polygon fill="#63b8ff" stroke="#63b8ff" points="1359.59,-674.03 1352.6,-681.99 1363.03,-680.13 1359.59,-674.03"/>
</a>
</g>
</g>
<!-- Node31&#45;&gt;Node27 -->
<g id="edge56_Node000031_Node000027" class="edge">
<title>Node31&#45;&gt;Node27</title>
<g id="a_edge56_Node000031_Node000027"><a xlink:title=" ">
<path fill="none" stroke="#63b8ff" d="M1451,-671.69C1451,-663.08 1451,-653.9 1451,-646.07"/>
<polygon fill="#63b8ff" stroke="#63b8ff" points="1447.5,-671.79 1451,-681.79 1454.5,-671.79 1447.5,-671.79"/>
</a>
</g>
</g>
</g>
</svg>

<g id="navigator" transform="translate(0 0)" fill="#404254">
  <rect fill="#f2f5e9" fill-opacity="0.5" stroke="#606060" stroke-width=".5" x="0" y="0" width="60" height="60"/>
  <use id="zoomplus" xlink:href="#zoomPlus" x="17" y="9" onmousedown="handleZoom(evt,'in')"/>
  <use id="zoomminus" xlink:href="#zoomMin" x="42" y="9" onmousedown="handleZoom(evt,'out')"/>
  <use id="reset" xlink:href="#resetDef" x="30" y="36" onmousedown="handleReset()"/>
   <use id="arrowup" xlink:href="#arrowUp" x="0" y="0" onmousedown="handlePan(0,-1)"/>
  <use id="arrowright" xlink:href="#arrowRight" x="0" y="0" onmousedown="handlePan(1,0)"/>
  <use id="arrowdown" xlink:href="#arrowDown" x="0" y="0" onmousedown="handlePan(0,1)"/>
  <use id="arrowleft" xlink:href="#arrowLeft" x="0" y="0" onmousedown="handlePan(-1,0)"/>
</g>
<svg viewBox="0 0 15 15" width="100%" height="30px" preserveAspectRatio="xMaxYMin meet">
 <g id="arrow_out" transform="scale(0.3 0.3)">
  <a xlink:href="polynomial_8hpp__dep__incl_org.svg" target="_base">
   <rect id="button" ry="5" rx="5" y="6" x="6" height="38" width="38"
        fill="#f2f5e9" fill-opacity="0.5" stroke="#606060" stroke-width="1.0"/>
   <path id="arrow"
     d="M 11.500037,31.436501 C 11.940474,20.09759 22.043105,11.32322 32.158766,21.979434 L 37.068811,17.246167 C 37.068811,17.246167 37.088388,32 37.088388,32 L 22.160133,31.978069 C 22.160133,31.978069 26.997745,27.140456 26.997745,27.140456 C 18.528582,18.264221 13.291696,25.230495 11.500037,31.436501 z"
     style="fill:#404040;"/>
  </a>
 </g>
</svg>

<style type='text/css'>
<![CDATA[
[data-mouse-over-selected='false'] { opacity: 0.7; }
[data-mouse-over-selected='true']  { opacity: 1.0; }
]]>
</style>
<script type="application/ecmascript"><![CDATA[
document.addEventListener('DOMContentLoaded', (event) => {
  highlightEdges();
  highlightAdjacentNodes();
});
]]></script>
</svg>
