<?xml version="1.0" encoding="UTF-8" standalone="no"?>
<!DOCTYPE svg PUBLIC "-//W3C//DTD SVG 1.1//EN"
 "http://www.w3.org/Graphics/SVG/1.1/DTD/svg11.dtd">
<!-- Generated by graphviz version 2.43.0 (0)
 -->
<!-- Title: /__w/vulpes/vulpes/vulpes/polynomials/polynomial3d.hpp Pages: 1 -->
<!--zoomable 236 -->

<svg id="main" version="1.1" xmlns="http://www.w3.org/2000/svg" xmlns:xlink="http://www.w3.org/1999/xlink" xml:space="preserve" onload="init(evt)">
<style type="text/css"><![CDATA[
.node, .edge {opacity: 0.7;}
.node.selected, .edge.selected {opacity: 1;}
.edge:hover path { stroke: red; }
.edge:hover polygon { stroke: red; fill: red; }
]]></style>

<defs>
  <circle id="rim" cx="0" cy="0" r="7"/>
  <circle id="rim2" cx="0" cy="0" r="3.5"/>
  <g id="zoomPlus">
    <use xlink:href="#rim" fill="#404040"><set attributeName="fill" to="#808080" begin="zoomplus.mouseover" end="zoomplus.mouseout"/></use>
    <path d="M-4,0h8M0,-4v8" fill="none" stroke="white" stroke-width="1.5" pointer-events="none"/>
  </g>
  <g id="zoomMin">
    <use xlink:href="#rim" fill="#404040"><set attributeName="fill" to="#808080" begin="zoomminus.mouseover" end="zoomminus.mouseout"/></use>
    <path d="M-4,0h8" fill="none" stroke="white" stroke-width="1.5" pointer-events="none"/>
  </g>
  <g id="arrowUp" transform="translate(30 24)">
    <use xlink:href="#rim"/>
    <path pointer-events="none" fill="none" stroke="white" stroke-width="1.5" d="M0,-3.0v7 M-2.5,-0.5L0,-3.0L2.5,-0.5"/>
  </g>
  <g id="arrowRight" transform="rotate(90) translate(36 -43)">
    <use xlink:href="#rim"/>
    <path pointer-events="none" fill="none" stroke="white" stroke-width="1.5" d="M0,-3.0v7 M-2.5,-0.5L0,-3.0L2.5,-0.5"/>
  </g>
  <g id="arrowDown" transform="rotate(180) translate(-30 -48)">
    <use xlink:href="#rim"/>
    <path pointer-events="none" fill="none" stroke="white" stroke-width="1.5" d="M0,-3.0v7 M-2.5,-0.5L0,-3.0L2.5,-0.5"/>
  </g>
  <g id="arrowLeft" transform="rotate(270) translate(-36 17)">
    <use xlink:href="#rim"/>
    <path pointer-events="none" fill="none" stroke="white" stroke-width="1.5" d="M0,-3.0v7 M-2.5,-0.5L0,-3.0L2.5,-0.5"/>
  </g>
  <g id="resetDef">
    <use xlink:href="#rim2" fill="#404040"><set attributeName="fill" to="#808080" begin="reset.mouseover" end="reset.mouseout"/></use>
  </g>
</defs>
<script type="application/ecmascript">
var viewWidth = 611;
var viewHeight = 236;
var sectionId = 'dynsection-0';
</script>
<script type="application/ecmascript" xlink:href="svg.min.js"/>
<svg id="graph" class="graph">
<g id="viewport">
<title>/__w/vulpes/vulpes/vulpes/polynomials/polynomial3d.hpp</title>
<!-- Node1 -->
<g id="Node000001" class="node">
<title>Node1</title>
<g id="a_Node000001"><a xlink:title=" ">
<polygon fill="#999999" stroke="#666666" points="373,-228 258,-228 258,-187 373,-187 373,-228"/>
<text text-anchor="start" x="266" y="-216" font-family="Helvetica,sans-Serif" font-size="10.00">/__w/vulpes/vulpes</text>
<text text-anchor="start" x="266" y="-205" font-family="Helvetica,sans-Serif" font-size="10.00">/vulpes/polynomials</text>
<text text-anchor="middle" x="315.5" y="-194" font-family="Helvetica,sans-Serif" font-size="10.00">/polynomial3d.hpp</text>
</a>
</g>
</g>
<!-- Node2 -->
<g id="Node000002" class="node">
<title>Node2</title>
<g id="a_Node000002"><a xlink:title=" ">
<polygon fill="#e0e0e0" stroke="#999999" points="53,-19 0,-19 0,0 53,0 53,-19"/>
<text text-anchor="middle" x="26.5" y="-7" font-family="Helvetica,sans-Serif" font-size="10.00">cstddef</text>
</a>
</g>
</g>
<!-- Node1&#45;&gt;Node2 -->
<g id="edge1_Node000001_Node000002" class="edge">
<title>Node1&#45;&gt;Node2</title>
<g id="a_edge1_Node000001_Node000002"><a xlink:title=" ">
<path fill="none" stroke="#63b8ff" d="M257.79,-198.63C192.93,-186.46 89.97,-156.49 38.5,-85 26.92,-68.92 24.84,-45.82 25.07,-29.63"/>
<polygon fill="#63b8ff" stroke="#63b8ff" points="28.58,-29.4 25.54,-19.25 21.59,-29.08 28.58,-29.4"/>
</a>
</g>
</g>
<!-- Node3 -->
<g id="Node000003" class="node">
<title>Node3</title>
<g id="a_Node000003"><a xlink:title=" ">
<polygon fill="#e0e0e0" stroke="#999999" points="105,-79.5 48,-79.5 48,-60.5 105,-60.5 105,-79.5"/>
<text text-anchor="middle" x="76.5" y="-67.5" font-family="Helvetica,sans-Serif" font-size="10.00">ostream</text>
</a>
</g>
</g>
<!-- Node1&#45;&gt;Node3 -->
<g id="edge2_Node000001_Node000003" class="edge">
<title>Node1&#45;&gt;Node3</title>
<g id="a_edge2_Node000001_Node000003"><a xlink:title=" ">
<path fill="none" stroke="#63b8ff" d="M281,-186.94C231.85,-159.07 142.91,-108.65 100.39,-84.55"/>
<polygon fill="#63b8ff" stroke="#63b8ff" points="102.01,-81.44 91.58,-79.55 98.55,-87.53 102.01,-81.44"/>
</a>
</g>
</g>
<!-- Node4 -->
<g id="Node000004" class="node">
<title>Node4</title>
<g id="a_Node000004"><a xlink:title=" ">
<polygon fill="#e0e0e0" stroke="#999999" points="603,-145.5 558,-145.5 558,-126.5 603,-126.5 603,-145.5"/>
<text text-anchor="middle" x="580.5" y="-133.5" font-family="Helvetica,sans-Serif" font-size="10.00">utility</text>
</a>
</g>
</g>
<!-- Node1&#45;&gt;Node4 -->
<g id="edge3_Node000001_Node000004" class="edge">
<title>Node1&#45;&gt;Node4</title>
<g id="a_edge3_Node000001_Node000004"><a xlink:title=" ">
<path fill="none" stroke="#63b8ff" d="M373.19,-194.52C419.61,-184.38 486.29,-168.71 543.5,-151 545.42,-150.41 547.38,-149.76 549.36,-149.1"/>
<polygon fill="#63b8ff" stroke="#63b8ff" points="550.9,-152.26 559.13,-145.59 548.54,-145.67 550.9,-152.26"/>
</a>
</g>
</g>
<!-- Node5 -->
<g id="Node000005" class="node">
<title>Node5</title>
<g id="a_Node000005"><a xlink:title=" ">
<polygon fill="#e0e0e0" stroke="#999999" points="508,-19 461,-19 461,0 508,0 508,-19"/>
<text text-anchor="middle" x="484.5" y="-7" font-family="Helvetica,sans-Serif" font-size="10.00">vector</text>
</a>
</g>
</g>
<!-- Node1&#45;&gt;Node5 -->
<g id="edge4_Node000001_Node000005" class="edge">
<title>Node1&#45;&gt;Node5</title>
<g id="a_edge4_Node000001_Node000005"><a xlink:title=" ">
<path fill="none" stroke="#63b8ff" d="M373.29,-188.23C419.68,-170.13 481.68,-137.43 510.5,-85 520.76,-66.33 508.97,-42.86 498.12,-27.3"/>
<polygon fill="#63b8ff" stroke="#63b8ff" points="500.82,-25.06 492.02,-19.16 495.21,-29.26 500.82,-25.06"/>
</a>
</g>
</g>
<!-- Node6 -->
<g id="Node000006" class="node">
<title>Node6</title>
<g id="a_Node000006"><a xlink:href="tensor_8hpp.html" target="_top" xlink:title=" ">
<polygon fill="white" stroke="#666666" points="501,-85 384,-85 384,-55 501,-55 501,-85"/>
<text text-anchor="start" x="392" y="-73" font-family="Helvetica,sans-Serif" font-size="10.00">vulpes/datastructure</text>
<text text-anchor="middle" x="442.5" y="-62" font-family="Helvetica,sans-Serif" font-size="10.00">/tensor.hpp</text>
</a>
</g>
</g>
<!-- Node1&#45;&gt;Node6 -->
<g id="edge5_Node000001_Node000006" class="edge">
<title>Node1&#45;&gt;Node6</title>
<g id="a_edge5_Node000001_Node000006"><a xlink:title=" ">
<path fill="none" stroke="#63b8ff" d="M340.95,-186.81C353.41,-176.67 368.31,-163.78 380.5,-151 397.69,-132.97 414.85,-110.38 426.75,-93.81"/>
<polygon fill="#63b8ff" stroke="#63b8ff" points="429.86,-95.47 432.78,-85.29 424.15,-91.43 429.86,-95.47"/>
</a>
</g>
</g>
<!-- Node8 -->
<g id="Node000008" class="node">
<title>Node8</title>
<g id="a_Node000008"><a xlink:href="polynomial_8hpp.html" target="_top" xlink:title=" ">
<polygon fill="white" stroke="#666666" points="371.5,-151 259.5,-151 259.5,-121 371.5,-121 371.5,-151"/>
<text text-anchor="start" x="267.5" y="-139" font-family="Helvetica,sans-Serif" font-size="10.00">vulpes/polynomials</text>
<text text-anchor="middle" x="315.5" y="-128" font-family="Helvetica,sans-Serif" font-size="10.00">/polynomial.hpp</text>
</a>
</g>
</g>
<!-- Node1&#45;&gt;Node8 -->
<g id="edge8_Node000001_Node000008" class="edge">
<title>Node1&#45;&gt;Node8</title>
<g id="a_edge8_Node000001_Node000008"><a xlink:title=" ">
<path fill="none" stroke="#63b8ff" d="M315.5,-186.77C315.5,-178.85 315.5,-169.63 315.5,-161.3"/>
<polygon fill="#63b8ff" stroke="#63b8ff" points="319,-161.04 315.5,-151.04 312,-161.04 319,-161.04"/>
</a>
</g>
</g>
<!-- Node10 -->
<g id="Node000010" class="node">
<title>Node10</title>
<g id="a_Node000010"><a xlink:href="vmath_8hpp.html" target="_top" xlink:title=" ">
<polygon fill="white" stroke="#666666" points="289.5,-79.5 161.5,-79.5 161.5,-60.5 289.5,-60.5 289.5,-79.5"/>
<text text-anchor="middle" x="225.5" y="-67.5" font-family="Helvetica,sans-Serif" font-size="10.00">vulpes/utils/vmath.hpp</text>
</a>
</g>
</g>
<!-- Node1&#45;&gt;Node10 -->
<g id="edge21_Node000001_Node000010" class="edge">
<title>Node1&#45;&gt;Node10</title>
<g id="a_edge21_Node000001_Node000010"><a xlink:title=" ">
<path fill="none" stroke="#63b8ff" d="M285.96,-186.99C273.48,-177.45 259.74,-164.99 250.5,-151 238.12,-132.25 231.58,-107.02 228.34,-89.95"/>
<polygon fill="#63b8ff" stroke="#63b8ff" points="231.71,-88.89 226.59,-79.61 224.81,-90.05 231.71,-88.89"/>
</a>
</g>
</g>
<!-- Node6&#45;&gt;Node5 -->
<g id="edge7_Node000006_Node000005" class="edge">
<title>Node6&#45;&gt;Node5</title>
<g id="a_edge7_Node000006_Node000005"><a xlink:title=" ">
<path fill="none" stroke="#63b8ff" d="M452.67,-54.84C458.58,-46.61 466.06,-36.18 472.29,-27.51"/>
<polygon fill="#63b8ff" stroke="#63b8ff" points="475.22,-29.43 478.21,-19.27 469.53,-25.35 475.22,-29.43"/>
</a>
</g>
</g>
<!-- Node7 -->
<g id="Node000007" class="node">
<title>Node7</title>
<g id="a_Node000007"><a xlink:title=" ">
<polygon fill="#e0e0e0" stroke="#999999" points="443,-19 374,-19 374,0 443,0 443,-19"/>
<text text-anchor="middle" x="408.5" y="-7" font-family="Helvetica,sans-Serif" font-size="10.00">type_traits</text>
</a>
</g>
</g>
<!-- Node6&#45;&gt;Node7 -->
<g id="edge6_Node000006_Node000007" class="edge">
<title>Node6&#45;&gt;Node7</title>
<g id="a_edge6_Node000006_Node000007"><a xlink:title=" ">
<path fill="none" stroke="#63b8ff" d="M434.27,-54.84C429.59,-46.78 423.68,-36.62 418.7,-28.06"/>
<polygon fill="#63b8ff" stroke="#63b8ff" points="421.65,-26.15 413.59,-19.27 415.59,-29.67 421.65,-26.15"/>
</a>
</g>
</g>
<!-- Node8&#45;&gt;Node2 -->
<g id="edge9_Node000008_Node000002" class="edge">
<title>Node8&#45;&gt;Node2</title>
<g id="a_edge9_Node000008_Node000002"><a xlink:title=" ">
<path fill="none" stroke="#63b8ff" d="M259.25,-123.04C226.91,-114.88 186.16,-102.38 152.5,-85 133.07,-74.97 131.98,-66.69 113.5,-55 94.63,-43.06 72.17,-31.63 54.79,-23.35"/>
<polygon fill="#63b8ff" stroke="#63b8ff" points="56.26,-20.17 45.72,-19.09 53.28,-26.51 56.26,-20.17"/>
</a>
</g>
</g>
<!-- Node8&#45;&gt;Node3 -->
<g id="edge10_Node000008_Node000003" class="edge">
<title>Node8&#45;&gt;Node3</title>
<g id="a_edge10_Node000008_Node000003"><a xlink:title=" ">
<path fill="none" stroke="#63b8ff" d="M259.48,-121.73C220.14,-112.17 166.38,-98.6 119.5,-85 116.9,-84.25 114.23,-83.44 111.54,-82.62"/>
<polygon fill="#63b8ff" stroke="#63b8ff" points="112.47,-79.24 101.88,-79.57 110.36,-85.91 112.47,-79.24"/>
</a>
</g>
</g>
<!-- Node8&#45;&gt;Node5 -->
<g id="edge11_Node000008_Node000005" class="edge">
<title>Node8&#45;&gt;Node5</title>
<g id="a_edge11_Node000008_Node000005"><a xlink:title=" ">
<path fill="none" stroke="#63b8ff" d="M323.01,-120.71C332.9,-103.09 351.86,-73.25 375.5,-55 387.75,-45.54 423.64,-31.71 450.92,-21.98"/>
<polygon fill="#63b8ff" stroke="#63b8ff" points="452.25,-25.22 460.52,-18.6 449.92,-18.62 452.25,-25.22"/>
</a>
</g>
</g>
<!-- Node8&#45;&gt;Node6 -->
<g id="edge13_Node000008_Node000006" class="edge">
<title>Node8&#45;&gt;Node6</title>
<g id="a_edge13_Node000008_Node000006"><a xlink:title=" ">
<path fill="none" stroke="#63b8ff" d="M343.37,-120.95C361.65,-111.74 385.75,-99.6 405.62,-89.59"/>
<polygon fill="#63b8ff" stroke="#63b8ff" points="407.34,-92.64 414.69,-85.01 404.19,-86.39 407.34,-92.64"/>
</a>
</g>
</g>
<!-- Node9 -->
<g id="Node000009" class="node">
<title>Node9</title>
<g id="a_Node000009"><a xlink:title=" ">
<polygon fill="#e0e0e0" stroke="#999999" points="356,-19 279,-19 279,0 356,0 356,-19"/>
<text text-anchor="middle" x="317.5" y="-7" font-family="Helvetica,sans-Serif" font-size="10.00">Eigen/Dense</text>
</a>
</g>
</g>
<!-- Node8&#45;&gt;Node9 -->
<g id="edge12_Node000008_Node000009" class="edge">
<title>Node8&#45;&gt;Node9</title>
<g id="a_edge12_Node000008_Node000009"><a xlink:title=" ">
<path fill="none" stroke="#63b8ff" d="M315.73,-120.72C316.09,-98.12 316.8,-54.12 317.2,-29.09"/>
<polygon fill="#63b8ff" stroke="#63b8ff" points="320.7,-29.12 317.36,-19.07 313.7,-29.01 320.7,-29.12"/>
</a>
</g>
</g>
<!-- Node8&#45;&gt;Node10 -->
<g id="edge14_Node000008_Node000010" class="edge">
<title>Node8&#45;&gt;Node10</title>
<g id="a_edge14_Node000008_Node000010"><a xlink:title=" ">
<path fill="none" stroke="#63b8ff" d="M295.53,-120.8C280.86,-110.37 260.99,-96.24 246.16,-85.69"/>
<polygon fill="#63b8ff" stroke="#63b8ff" points="247.85,-82.6 237.68,-79.66 243.8,-88.31 247.85,-82.6"/>
</a>
</g>
</g>
<!-- Node10&#45;&gt;Node2 -->
<g id="edge16_Node000010_Node000002" class="edge">
<title>Node10&#45;&gt;Node2</title>
<g id="a_edge16_Node000010_Node000002"><a xlink:title=" ">
<path fill="none" stroke="#63b8ff" d="M196.56,-60.49C161.24,-50.11 101.46,-32.54 63.01,-21.23"/>
<polygon fill="#63b8ff" stroke="#63b8ff" points="63.82,-17.82 53.24,-18.36 61.85,-24.54 63.82,-17.82"/>
</a>
</g>
</g>
<!-- Node10&#45;&gt;Node7 -->
<g id="edge19_Node000010_Node000007" class="edge">
<title>Node10&#45;&gt;Node7</title>
<g id="a_edge19_Node000010_Node000007"><a xlink:title=" ">
<path fill="none" stroke="#63b8ff" d="M252.11,-60.49C283.69,-50.4 336.51,-33.51 371.92,-22.19"/>
<polygon fill="#63b8ff" stroke="#63b8ff" points="373.4,-25.4 381.86,-19.02 371.27,-18.73 373.4,-25.4"/>
</a>
</g>
</g>
<!-- Node10&#45;&gt;Node9 -->
<g id="edge20_Node000010_Node000009" class="edge">
<title>Node10&#45;&gt;Node9</title>
<g id="a_edge20_Node000010_Node000009"><a xlink:title=" ">
<path fill="none" stroke="#63b8ff" d="M239.07,-60.37C253.89,-50.95 277.83,-35.73 295.36,-24.58"/>
<polygon fill="#63b8ff" stroke="#63b8ff" points="297.31,-27.49 303.87,-19.17 293.55,-21.58 297.31,-27.49"/>
</a>
</g>
</g>
<!-- Node11 -->
<g id="Node000011" class="node">
<title>Node11</title>
<g id="a_Node000011"><a xlink:title=" ">
<polygon fill="#e0e0e0" stroke="#999999" points="130,-19 71,-19 71,0 130,0 130,-19"/>
<text text-anchor="middle" x="100.5" y="-7" font-family="Helvetica,sans-Serif" font-size="10.00">gmpxx.h</text>
</a>
</g>
</g>
<!-- Node10&#45;&gt;Node11 -->
<g id="edge15_Node000010_Node000011" class="edge">
<title>Node10&#45;&gt;Node11</title>
<g id="a_edge15_Node000010_Node000011"><a xlink:title=" ">
<path fill="none" stroke="#63b8ff" d="M207.32,-60.49C186.49,-50.75 152.13,-34.66 128.02,-23.38"/>
<polygon fill="#63b8ff" stroke="#63b8ff" points="129.24,-20.09 118.7,-19.02 126.27,-26.43 129.24,-20.09"/>
</a>
</g>
</g>
<!-- Node12 -->
<g id="Node000012" class="node">
<title>Node12</title>
<g id="a_Node000012"><a xlink:title=" ">
<polygon fill="#e0e0e0" stroke="#999999" points="198.5,-19 148.5,-19 148.5,0 198.5,0 198.5,-19"/>
<text text-anchor="middle" x="173.5" y="-7" font-family="Helvetica,sans-Serif" font-size="10.00">cstdint</text>
</a>
</g>
</g>
<!-- Node10&#45;&gt;Node12 -->
<g id="edge17_Node000010_Node000012" class="edge">
<title>Node10&#45;&gt;Node12</title>
<g id="a_edge17_Node000010_Node000012"><a xlink:title=" ">
<path fill="none" stroke="#63b8ff" d="M217.83,-60.37C209.99,-51.55 197.64,-37.66 187.96,-26.77"/>
<polygon fill="#63b8ff" stroke="#63b8ff" points="190.46,-24.32 181.2,-19.17 185.23,-28.97 190.46,-24.32"/>
</a>
</g>
</g>
<!-- Node13 -->
<g id="Node000013" class="node">
<title>Node13</title>
<g id="a_Node000013"><a xlink:title=" ">
<polygon fill="#e0e0e0" stroke="#999999" points="260.5,-19 216.5,-19 216.5,0 260.5,0 260.5,-19"/>
<text text-anchor="middle" x="238.5" y="-7" font-family="Helvetica,sans-Serif" font-size="10.00">limits</text>
</a>
</g>
</g>
<!-- Node10&#45;&gt;Node13 -->
<g id="edge18_Node000010_Node000013" class="edge">
<title>Node10&#45;&gt;Node13</title>
<g id="a_edge18_Node000010_Node000013"><a xlink:title=" ">
<path fill="none" stroke="#63b8ff" d="M227.42,-60.37C229.24,-52.16 232.05,-39.54 234.38,-29.05"/>
<polygon fill="#63b8ff" stroke="#63b8ff" points="237.82,-29.69 236.57,-19.17 230.99,-28.17 237.82,-29.69"/>
</a>
</g>
</g>
</g>
</svg>

<g id="navigator" transform="translate(0 0)" fill="#404254">
  <rect fill="#f2f5e9" fill-opacity="0.5" stroke="#606060" stroke-width=".5" x="0" y="0" width="60" height="60"/>
  <use id="zoomplus" xlink:href="#zoomPlus" x="17" y="9" onmousedown="handleZoom(evt,'in')"/>
  <use id="zoomminus" xlink:href="#zoomMin" x="42" y="9" onmousedown="handleZoom(evt,'out')"/>
  <use id="reset" xlink:href="#resetDef" x="30" y="36" onmousedown="handleReset()"/>
   <use id="arrowup" xlink:href="#arrowUp" x="0" y="0" onmousedown="handlePan(0,-1)"/>
  <use id="arrowright" xlink:href="#arrowRight" x="0" y="0" onmousedown="handlePan(1,0)"/>
  <use id="arrowdown" xlink:href="#arrowDown" x="0" y="0" onmousedown="handlePan(0,1)"/>
  <use id="arrowleft" xlink:href="#arrowLeft" x="0" y="0" onmousedown="handlePan(-1,0)"/>
</g>
<svg viewBox="0 0 15 15" width="100%" height="30px" preserveAspectRatio="xMaxYMin meet">
 <g id="arrow_out" transform="scale(0.3 0.3)">
  <a xlink:href="polynomial3d_8hpp__incl_org.svg" target="_base">
   <rect id="button" ry="5" rx="5" y="6" x="6" height="38" width="38"
        fill="#f2f5e9" fill-opacity="0.5" stroke="#606060" stroke-width="1.0"/>
   <path id="arrow"
     d="M 11.500037,31.436501 C 11.940474,20.09759 22.043105,11.32322 32.158766,21.979434 L 37.068811,17.246167 C 37.068811,17.246167 37.088388,32 37.088388,32 L 22.160133,31.978069 C 22.160133,31.978069 26.997745,27.140456 26.997745,27.140456 C 18.528582,18.264221 13.291696,25.230495 11.500037,31.436501 z"
     style="fill:#404040;"/>
  </a>
 </g>
</svg>

<style type='text/css'>
<![CDATA[
[data-mouse-over-selected='false'] { opacity: 0.7; }
[data-mouse-over-selected='true']  { opacity: 1.0; }
]]>
</style>
<script type="application/ecmascript"><![CDATA[
document.addEventListener('DOMContentLoaded', (event) => {
  highlightEdges();
  highlightAdjacentNodes();
});
]]></script>
</svg>
