<?xml version="1.0" encoding="UTF-8" standalone="no"?>
<!DOCTYPE svg PUBLIC "-//W3C//DTD SVG 1.1//EN"
 "http://www.w3.org/Graphics/SVG/1.1/DTD/svg11.dtd">
<!-- Generated by graphviz version 2.42.4 (0)
 -->
<!-- Title: /__w/vulpes/vulpes/vulpes/polynomials/polynomial.hpp Pages: 1 -->
<svg width="1668pt" height="885pt"
 viewBox="0.00 0.00 1668.00 885.00" xmlns="http://www.w3.org/2000/svg" xmlns:xlink="http://www.w3.org/1999/xlink">
<g id="graph0" class="graph" transform="scale(1 1) rotate(0) translate(4 881)">
<title>/__w/vulpes/vulpes/vulpes/polynomials/polynomial.hpp</title>
<!-- Node1 -->
<g id="Node000001" class="node">
<title>Node1</title>
<g id="a_Node000001"><a xlink:title=" ">
<polygon fill="#999999" stroke="#666666" points="1184,-877 1069,-877 1069,-836 1184,-836 1184,-877"/>
<text text-anchor="start" x="1077" y="-865" font-family="Helvetica,sans-Serif" font-size="10.00">/__w/vulpes/vulpes</text>
<text text-anchor="start" x="1077" y="-854" font-family="Helvetica,sans-Serif" font-size="10.00">/vulpes/polynomials</text>
<text text-anchor="middle" x="1126.5" y="-843" font-family="Helvetica,sans-Serif" font-size="10.00">/polynomial.hpp</text>
</a>
</g>
</g>
<!-- Node2 -->
<g id="Node000002" class="node">
<title>Node2</title>
<g id="a_Node000002"><a xlink:href="dof__policy_8hpp.html" target="_top" xlink:title=" ">
<polygon fill="white" stroke="#666666" points="1012,-794.5 875,-794.5 875,-764.5 1012,-764.5 1012,-794.5"/>
<text text-anchor="start" x="883" y="-782.5" font-family="Helvetica,sans-Serif" font-size="10.00">/__w/vulpes/vulpes</text>
<text text-anchor="middle" x="943.5" y="-771.5" font-family="Helvetica,sans-Serif" font-size="10.00">/vulpes/fe/dof_policy.hpp</text>
</a>
</g>
</g>
<!-- Node1&#45;&gt;Node2 -->
<g id="edge1_Node000001_Node000002" class="edge">
<title>Node1&#45;&gt;Node2</title>
<g id="a_edge1_Node000001_Node000002"><a xlink:title=" ">
<path fill="none" stroke="#63b8ff" d="M1069.38,-832.09C1039.37,-819.79 1003.59,-805.13 977.86,-794.58"/>
<polygon fill="#63b8ff" stroke="#63b8ff" points="1068.32,-835.44 1078.9,-835.99 1070.97,-828.96 1068.32,-835.44"/>
</a>
</g>
</g>
<!-- Node3 -->
<g id="Node000003" class="node">
<title>Node3</title>
<g id="a_Node000003"><a xlink:href="fe__space_8hpp.html" target="_top" xlink:title=" ">
<polygon fill="white" stroke="#666666" points="1014.5,-717.5 882.5,-717.5 882.5,-687.5 1014.5,-687.5 1014.5,-717.5"/>
<text text-anchor="start" x="890.5" y="-705.5" font-family="Helvetica,sans-Serif" font-size="10.00">/__w/vulpes/vulpes</text>
<text text-anchor="middle" x="948.5" y="-694.5" font-family="Helvetica,sans-Serif" font-size="10.00">/vulpes/fe/fe_space.hpp</text>
</a>
</g>
</g>
<!-- Node1&#45;&gt;Node3 -->
<g id="edge47_Node000001_Node000003" class="edge">
<title>Node1&#45;&gt;Node3</title>
<g id="a_edge47_Node000001_Node000003"><a xlink:title=" ">
<path fill="none" stroke="#63b8ff" d="M1093.79,-829.22C1082.97,-820.2 1071.01,-809.89 1060.5,-800 1042.18,-782.77 1040.24,-775.78 1021.5,-759 1004.54,-743.81 983.75,-728.28 968.7,-717.52"/>
<polygon fill="#63b8ff" stroke="#63b8ff" points="1091.86,-832.16 1101.8,-835.83 1096.32,-826.77 1091.86,-832.16"/>
</a>
</g>
</g>
<!-- Node27 -->
<g id="Node000027" class="node">
<title>Node27</title>
<g id="a_Node000027"><a xlink:href="polynomial1d_8hpp.html" target="_top" xlink:title=" ">
<polygon fill="white" stroke="#666666" points="1450,-800 1335,-800 1335,-759 1450,-759 1450,-800"/>
<text text-anchor="start" x="1343" y="-788" font-family="Helvetica,sans-Serif" font-size="10.00">/__w/vulpes/vulpes</text>
<text text-anchor="start" x="1343" y="-777" font-family="Helvetica,sans-Serif" font-size="10.00">/vulpes/polynomials</text>
<text text-anchor="middle" x="1392.5" y="-766" font-family="Helvetica,sans-Serif" font-size="10.00">/polynomial1d.hpp</text>
</a>
</g>
</g>
<!-- Node1&#45;&gt;Node27 -->
<g id="edge48_Node000001_Node000027" class="edge">
<title>Node1&#45;&gt;Node27</title>
<g id="a_edge48_Node000001_Node000027"><a xlink:title=" ">
<path fill="none" stroke="#63b8ff" d="M1194.45,-836.94C1233.19,-826.29 1282.62,-812.57 1326.5,-800 1329.26,-799.21 1332.08,-798.4 1334.92,-797.57"/>
<polygon fill="#63b8ff" stroke="#63b8ff" points="1193.05,-833.7 1184.33,-839.72 1194.9,-840.45 1193.05,-833.7"/>
</a>
</g>
</g>
<!-- Node31 -->
<g id="Node000031" class="node">
<title>Node31</title>
<g id="a_Node000031"><a xlink:href="polynomial2d_8hpp.html" target="_top" xlink:title=" ">
<polygon fill="white" stroke="#666666" points="1184,-800 1069,-800 1069,-759 1184,-759 1184,-800"/>
<text text-anchor="start" x="1077" y="-788" font-family="Helvetica,sans-Serif" font-size="10.00">/__w/vulpes/vulpes</text>
<text text-anchor="start" x="1077" y="-777" font-family="Helvetica,sans-Serif" font-size="10.00">/vulpes/polynomials</text>
<text text-anchor="middle" x="1126.5" y="-766" font-family="Helvetica,sans-Serif" font-size="10.00">/polynomial2d.hpp</text>
</a>
</g>
</g>
<!-- Node1&#45;&gt;Node31 -->
<g id="edge58_Node000001_Node000031" class="edge">
<title>Node1&#45;&gt;Node31</title>
<g id="a_edge58_Node000001_Node000031"><a xlink:title=" ">
<path fill="none" stroke="#63b8ff" d="M1126.5,-825.69C1126.5,-817.08 1126.5,-807.9 1126.5,-800.07"/>
<polygon fill="#63b8ff" stroke="#63b8ff" points="1123,-825.79 1126.5,-835.79 1130,-825.79 1123,-825.79"/>
</a>
</g>
</g>
<!-- Node32 -->
<g id="Node000032" class="node">
<title>Node32</title>
<g id="a_Node000032"><a xlink:href="polynomial3d_8hpp.html" target="_top" xlink:title=" ">
<polygon fill="white" stroke="#666666" points="1317,-800 1202,-800 1202,-759 1317,-759 1317,-800"/>
<text text-anchor="start" x="1210" y="-788" font-family="Helvetica,sans-Serif" font-size="10.00">/__w/vulpes/vulpes</text>
<text text-anchor="start" x="1210" y="-777" font-family="Helvetica,sans-Serif" font-size="10.00">/vulpes/polynomials</text>
<text text-anchor="middle" x="1259.5" y="-766" font-family="Helvetica,sans-Serif" font-size="10.00">/polynomial3d.hpp</text>
</a>
</g>
</g>
<!-- Node1&#45;&gt;Node32 -->
<g id="edge60_Node000001_Node000032" class="edge">
<title>Node1&#45;&gt;Node32</title>
<g id="a_edge60_Node000001_Node000032"><a xlink:title=" ">
<path fill="none" stroke="#63b8ff" d="M1170.09,-830.92C1187.78,-820.95 1207.93,-809.58 1224.61,-800.17"/>
<polygon fill="#63b8ff" stroke="#63b8ff" points="1168.09,-828.03 1161.1,-835.99 1171.53,-834.13 1168.09,-828.03"/>
</a>
</g>
</g>
<!-- Node2&#45;&gt;Node3 -->
<g id="edge2_Node000002_Node000003" class="edge">
<title>Node2&#45;&gt;Node3</title>
<g id="a_edge2_Node000002_Node000003"><a xlink:title=" ">
<path fill="none" stroke="#63b8ff" d="M945.11,-754.41C945.92,-742.24 946.87,-727.9 947.56,-717.54"/>
<polygon fill="#63b8ff" stroke="#63b8ff" points="941.61,-754.18 944.44,-764.39 948.6,-754.65 941.61,-754.18"/>
</a>
</g>
</g>
<!-- Node4 -->
<g id="Node000004" class="node">
<title>Node4</title>
<g id="a_Node000004"><a xlink:href="integrator__gauss_8hpp.html" target="_top" xlink:title=" ">
<polygon fill="white" stroke="#666666" points="153,-118 0,-118 0,-77 153,-77 153,-118"/>
<text text-anchor="start" x="8" y="-106" font-family="Helvetica,sans-Serif" font-size="10.00">/__w/vulpes/vulpes</text>
<text text-anchor="start" x="8" y="-95" font-family="Helvetica,sans-Serif" font-size="10.00">/vulpes/assemble/integrator</text>
<text text-anchor="middle" x="76.5" y="-84" font-family="Helvetica,sans-Serif" font-size="10.00">_gauss.hpp</text>
</a>
</g>
</g>
<!-- Node3&#45;&gt;Node4 -->
<g id="edge3_Node000003_Node000004" class="edge">
<title>Node3&#45;&gt;Node4</title>
<g id="a_edge3_Node000003_Node000004"><a xlink:title=" ">
<path fill="none" stroke="#63b8ff" d="M872.25,-699.19C691.88,-693.25 249.57,-675.83 189.5,-646 138.31,-620.58 104.5,-606.65 104.5,-549.5 104.5,-549.5 104.5,-549.5 104.5,-250.5 104.5,-202.47 90.81,-147.29 82.58,-118.45"/>
<polygon fill="#63b8ff" stroke="#63b8ff" points="872.35,-702.69 882.45,-699.52 872.57,-695.7 872.35,-702.69"/>
</a>
</g>
</g>
<!-- Node5 -->
<g id="Node000005" class="node">
<title>Node5</title>
<g id="a_Node000005"><a xlink:href="integrator__qfree_8hpp.html" target="_top" xlink:title=" ">
<polygon fill="white" stroke="#666666" points="324,-118 171,-118 171,-77 324,-77 324,-118"/>
<text text-anchor="start" x="179" y="-106" font-family="Helvetica,sans-Serif" font-size="10.00">/__w/vulpes/vulpes</text>
<text text-anchor="start" x="179" y="-95" font-family="Helvetica,sans-Serif" font-size="10.00">/vulpes/assemble/integrator</text>
<text text-anchor="middle" x="247.5" y="-84" font-family="Helvetica,sans-Serif" font-size="10.00">_qfree.hpp</text>
</a>
</g>
</g>
<!-- Node3&#45;&gt;Node5 -->
<g id="edge4_Node000003_Node000005" class="edge">
<title>Node3&#45;&gt;Node5</title>
<g id="a_edge4_Node000003_Node000005"><a xlink:title=" ">
<path fill="none" stroke="#63b8ff" d="M872.23,-701.27C719.68,-699.84 382.57,-691.44 277.5,-646 218.72,-620.58 170.5,-613.54 170.5,-549.5 170.5,-549.5 170.5,-549.5 170.5,-250.5 170.5,-206.79 168.51,-192.34 189.5,-154 197.06,-140.19 209.25,-127.75 220.51,-118.17"/>
<polygon fill="#63b8ff" stroke="#63b8ff" points="872.42,-704.78 882.45,-701.36 872.48,-697.78 872.42,-704.78"/>
</a>
</g>
</g>
<!-- Node7 -->
<g id="Node000007" class="node">
<title>Node7</title>
<g id="a_Node000007"><a xlink:href="integrator__simplexify_8hpp.html" target="_top" xlink:title=" ">
<polygon fill="white" stroke="#666666" points="495,-118 342,-118 342,-77 495,-77 495,-118"/>
<text text-anchor="start" x="350" y="-106" font-family="Helvetica,sans-Serif" font-size="10.00">/__w/vulpes/vulpes</text>
<text text-anchor="start" x="350" y="-95" font-family="Helvetica,sans-Serif" font-size="10.00">/vulpes/assemble/integrator</text>
<text text-anchor="middle" x="418.5" y="-84" font-family="Helvetica,sans-Serif" font-size="10.00">_simplexify.hpp</text>
</a>
</g>
</g>
<!-- Node3&#45;&gt;Node7 -->
<g id="edge6_Node000003_Node000007" class="edge">
<title>Node3&#45;&gt;Node7</title>
<g id="a_edge6_Node000003_Node000007"><a xlink:title=" ">
<path fill="none" stroke="#63b8ff" d="M872.17,-699.33C712.91,-694.17 356.32,-679.03 312.5,-646 275.82,-618.35 275.5,-595.43 275.5,-549.5 275.5,-549.5 275.5,-549.5 275.5,-470.5 275.5,-361.08 285.17,-329.65 332.5,-231 341.27,-212.72 349.04,-211.72 360.5,-195 378.19,-169.21 396.42,-137.96 407.61,-118.15"/>
<polygon fill="#63b8ff" stroke="#63b8ff" points="872.26,-702.84 882.37,-699.66 872.48,-695.84 872.26,-702.84"/>
</a>
</g>
</g>
<!-- Node9 -->
<g id="Node000009" class="node">
<title>Node9</title>
<g id="a_Node000009"><a xlink:href="dof__handler_8hpp.html" target="_top" xlink:title=" ">
<polygon fill="white" stroke="#666666" points="1027,-640.5 870,-640.5 870,-610.5 1027,-610.5 1027,-640.5"/>
<text text-anchor="start" x="878" y="-628.5" font-family="Helvetica,sans-Serif" font-size="10.00">/__w/vulpes/vulpes</text>
<text text-anchor="middle" x="948.5" y="-617.5" font-family="Helvetica,sans-Serif" font-size="10.00">/vulpes/dofs/dof_handler.hpp</text>
</a>
</g>
</g>
<!-- Node3&#45;&gt;Node9 -->
<g id="edge9_Node000003_Node000009" class="edge">
<title>Node3&#45;&gt;Node9</title>
<g id="a_edge9_Node000003_Node000009"><a xlink:title=" ">
<path fill="none" stroke="#63b8ff" d="M948.5,-677.04C948.5,-664.95 948.5,-650.79 948.5,-640.54"/>
<polygon fill="#63b8ff" stroke="#63b8ff" points="945,-677.39 948.5,-687.39 952,-677.39 945,-677.39"/>
</a>
</g>
</g>
<!-- Node11 -->
<g id="Node000011" class="node">
<title>Node11</title>
<g id="a_Node000011"><a xlink:href="fe__expr__base_8hpp.html" target="_top" xlink:title=" ">
<polygon fill="white" stroke="#666666" points="795,-569 654,-569 654,-528 795,-528 795,-569"/>
<text text-anchor="start" x="662" y="-557" font-family="Helvetica,sans-Serif" font-size="10.00">/__w/vulpes/vulpes</text>
<text text-anchor="start" x="662" y="-546" font-family="Helvetica,sans-Serif" font-size="10.00">/vulpes/fe/fe_expressions</text>
<text text-anchor="middle" x="724.5" y="-535" font-family="Helvetica,sans-Serif" font-size="10.00">/fe_expr_base.hpp</text>
</a>
</g>
</g>
<!-- Node3&#45;&gt;Node11 -->
<g id="edge12_Node000003_Node000011" class="edge">
<title>Node3&#45;&gt;Node11</title>
<g id="a_edge12_Node000003_Node000011"><a xlink:title=" ">
<path fill="none" stroke="#63b8ff" d="M916.6,-681.96C899.77,-671.51 878.86,-658.29 860.5,-646 822.01,-620.23 778.51,-588.98 751.29,-569.16"/>
<polygon fill="#63b8ff" stroke="#63b8ff" points="915.14,-685.18 925.49,-687.46 918.83,-679.22 915.14,-685.18"/>
</a>
</g>
</g>
<!-- Node15 -->
<g id="Node000015" class="node">
<title>Node15</title>
<g id="a_Node000015"><a xlink:href="fe__vem_8hpp.html" target="_top" xlink:title=" ">
<polygon fill="white" stroke="#666666" points="1164.5,-272 1048.5,-272 1048.5,-231 1164.5,-231 1164.5,-272"/>
<text text-anchor="start" x="1056.5" y="-260" font-family="Helvetica,sans-Serif" font-size="10.00">/__w/vulpes/vulpes</text>
<text text-anchor="start" x="1056.5" y="-249" font-family="Helvetica,sans-Serif" font-size="10.00">/vulpes/fe/fe_spaces</text>
<text text-anchor="middle" x="1106.5" y="-238" font-family="Helvetica,sans-Serif" font-size="10.00">/fe_vem.hpp</text>
</a>
</g>
</g>
<!-- Node3&#45;&gt;Node15 -->
<g id="edge41_Node000003_Node000015" class="edge">
<title>Node3&#45;&gt;Node15</title>
<g id="a_edge41_Node000003_Node000015"><a xlink:title=" ">
<path fill="none" stroke="#63b8ff" d="M992.64,-682.59C1008.66,-673.67 1025.51,-661.53 1036.5,-646 1061.92,-610.1 1058.5,-593.49 1058.5,-549.5 1058.5,-549.5 1058.5,-549.5 1058.5,-393.5 1058.5,-348.25 1080.93,-298.97 1095.12,-272.32"/>
<polygon fill="#63b8ff" stroke="#63b8ff" points="990.58,-679.72 983.36,-687.47 993.84,-685.92 990.58,-679.72"/>
</a>
</g>
</g>
<!-- Node21 -->
<g id="Node000021" class="node">
<title>Node21</title>
<g id="a_Node000021"><a xlink:href="fe__lagrange__simplex_8hpp.html" target="_top" xlink:title=" ">
<polygon fill="white" stroke="#666666" points="1306,-646 1163,-646 1163,-605 1306,-605 1306,-646"/>
<text text-anchor="start" x="1171" y="-634" font-family="Helvetica,sans-Serif" font-size="10.00">/__w/vulpes/vulpes</text>
<text text-anchor="start" x="1171" y="-623" font-family="Helvetica,sans-Serif" font-size="10.00">/vulpes/fe/fe_spaces</text>
<text text-anchor="middle" x="1234.5" y="-612" font-family="Helvetica,sans-Serif" font-size="10.00">/fe_lagrange_simplex.hpp</text>
</a>
</g>
</g>
<!-- Node3&#45;&gt;Node21 -->
<g id="edge34_Node000003_Node000021" class="edge">
<title>Node3&#45;&gt;Node21</title>
<g id="a_edge34_Node000003_Node000021"><a xlink:title=" ">
<path fill="none" stroke="#63b8ff" d="M1011.83,-684.89C1056.54,-673.17 1116.51,-657.44 1162.95,-645.26"/>
<polygon fill="#63b8ff" stroke="#63b8ff" points="1010.74,-681.56 1001.96,-687.48 1012.52,-688.33 1010.74,-681.56"/>
</a>
</g>
</g>
<!-- Node23 -->
<g id="Node000023" class="node">
<title>Node23</title>
<g id="a_Node000023"><a xlink:href="fe__lagrange__tensor_8hpp.html" target="_top" xlink:title=" ">
<polygon fill="white" stroke="#666666" points="1220.5,-569 1086.5,-569 1086.5,-528 1220.5,-528 1220.5,-569"/>
<text text-anchor="start" x="1094.5" y="-557" font-family="Helvetica,sans-Serif" font-size="10.00">/__w/vulpes/vulpes</text>
<text text-anchor="start" x="1094.5" y="-546" font-family="Helvetica,sans-Serif" font-size="10.00">/vulpes/fe/fe_spaces</text>
<text text-anchor="middle" x="1153.5" y="-535" font-family="Helvetica,sans-Serif" font-size="10.00">/fe_lagrange_tensor.hpp</text>
</a>
</g>
</g>
<!-- Node3&#45;&gt;Node23 -->
<g id="edge38_Node000003_Node000023" class="edge">
<title>Node3&#45;&gt;Node23</title>
<g id="a_edge38_Node000003_Node000023"><a xlink:title=" ">
<path fill="none" stroke="#63b8ff" d="M1002.05,-683.68C1025.05,-674.53 1051.42,-661.92 1072.5,-646 1101.3,-624.25 1126.63,-590.45 1140.99,-569.17"/>
<polygon fill="#63b8ff" stroke="#63b8ff" points="1000.5,-680.53 992.43,-687.39 1003.02,-687.06 1000.5,-680.53"/>
</a>
</g>
</g>
<!-- Node24 -->
<g id="Node000024" class="node">
<title>Node24</title>
<g id="a_Node000024"><a xlink:href="fe__modal__simplex_8hpp.html" target="_top" xlink:title=" ">
<polygon fill="white" stroke="#666666" points="1370,-569 1239,-569 1239,-528 1370,-528 1370,-569"/>
<text text-anchor="start" x="1247" y="-557" font-family="Helvetica,sans-Serif" font-size="10.00">/__w/vulpes/vulpes</text>
<text text-anchor="start" x="1247" y="-546" font-family="Helvetica,sans-Serif" font-size="10.00">/vulpes/fe/fe_spaces</text>
<text text-anchor="middle" x="1304.5" y="-535" font-family="Helvetica,sans-Serif" font-size="10.00">/fe_modal_simplex.hpp</text>
</a>
</g>
</g>
<!-- Node3&#45;&gt;Node24 -->
<g id="edge39_Node000003_Node000024" class="edge">
<title>Node3&#45;&gt;Node24</title>
<g id="a_edge39_Node000003_Node000024"><a xlink:title=" ">
<path fill="none" stroke="#63b8ff" d="M1013.82,-684.5C1043.24,-675.37 1077.75,-662.55 1106.5,-646 1130.81,-632 1130.3,-619.2 1154.5,-605 1180.6,-589.68 1211.67,-577.35 1238.74,-568.23"/>
<polygon fill="#63b8ff" stroke="#63b8ff" points="1012.61,-681.21 1004.05,-687.46 1014.63,-687.91 1012.61,-681.21"/>
</a>
</g>
</g>
<!-- Node25 -->
<g id="Node000025" class="node">
<title>Node25</title>
<g id="a_Node000025"><a xlink:href="fe__modal__tensor_8hpp.html" target="_top" xlink:title=" ">
<polygon fill="white" stroke="#666666" points="1559.5,-646 1437.5,-646 1437.5,-605 1559.5,-605 1559.5,-646"/>
<text text-anchor="start" x="1445.5" y="-634" font-family="Helvetica,sans-Serif" font-size="10.00">/__w/vulpes/vulpes</text>
<text text-anchor="start" x="1445.5" y="-623" font-family="Helvetica,sans-Serif" font-size="10.00">/vulpes/fe/fe_spaces</text>
<text text-anchor="middle" x="1498.5" y="-612" font-family="Helvetica,sans-Serif" font-size="10.00">/fe_modal_tensor.hpp</text>
</a>
</g>
</g>
<!-- Node3&#45;&gt;Node25 -->
<g id="edge40_Node000003_Node000025" class="edge">
<title>Node3&#45;&gt;Node25</title>
<g id="a_edge40_Node000003_Node000025"><a xlink:title=" ">
<path fill="none" stroke="#63b8ff" d="M1024.61,-691.12C1134.71,-676.11 1336.28,-648.62 1437.34,-634.84"/>
<polygon fill="#63b8ff" stroke="#63b8ff" points="1024,-687.67 1014.57,-692.49 1024.95,-694.61 1024,-687.67"/>
</a>
</g>
</g>
<!-- Node26 -->
<g id="Node000026" class="node">
<title>Node26</title>
<g id="a_Node000026"><a xlink:href="fe__values_8hpp.html" target="_top" xlink:title=" ">
<polygon fill="white" stroke="#666666" points="457.5,-640.5 321.5,-640.5 321.5,-610.5 457.5,-610.5 457.5,-640.5"/>
<text text-anchor="start" x="329.5" y="-628.5" font-family="Helvetica,sans-Serif" font-size="10.00">/__w/vulpes/vulpes</text>
<text text-anchor="middle" x="389.5" y="-617.5" font-family="Helvetica,sans-Serif" font-size="10.00">/vulpes/fe/fe_values.hpp</text>
</a>
</g>
</g>
<!-- Node3&#45;&gt;Node26 -->
<g id="edge42_Node000003_Node000026" class="edge">
<title>Node3&#45;&gt;Node26</title>
<g id="a_edge42_Node000003_Node000026"><a xlink:title=" ">
<path fill="none" stroke="#63b8ff" d="M872.47,-691.3C762.95,-676.6 562.45,-649.7 457.55,-635.63"/>
<polygon fill="#63b8ff" stroke="#63b8ff" points="872.08,-694.78 882.46,-692.64 873.01,-687.84 872.08,-694.78"/>
</a>
</g>
</g>
<!-- Node6 -->
<g id="Node000006" class="node">
<title>Node6</title>
<g id="a_Node000006"><a xlink:href="integrator__vem_8hpp.html" target="_top" xlink:title=" ">
<polygon fill="white" stroke="#666666" points="440,-41 287,-41 287,0 440,0 440,-41"/>
<text text-anchor="start" x="295" y="-29" font-family="Helvetica,sans-Serif" font-size="10.00">/__w/vulpes/vulpes</text>
<text text-anchor="start" x="295" y="-18" font-family="Helvetica,sans-Serif" font-size="10.00">/vulpes/assemble/integrator</text>
<text text-anchor="middle" x="363.5" y="-7" font-family="Helvetica,sans-Serif" font-size="10.00">_vem.hpp</text>
</a>
</g>
</g>
<!-- Node5&#45;&gt;Node6 -->
<g id="edge5_Node000005_Node000006" class="edge">
<title>Node5&#45;&gt;Node6</title>
<g id="a_edge5_Node000005_Node000006"><a xlink:title=" ">
<path fill="none" stroke="#63b8ff" d="M286.37,-71.37C301.59,-61.53 318.79,-50.41 333.07,-41.17"/>
<polygon fill="#63b8ff" stroke="#63b8ff" points="284.17,-68.62 277.67,-76.99 287.97,-74.5 284.17,-68.62"/>
</a>
</g>
</g>
<!-- Node7&#45;&gt;Node6 -->
<g id="edge8_Node000007_Node000006" class="edge">
<title>Node7&#45;&gt;Node6</title>
<g id="a_edge8_Node000007_Node000006"><a xlink:title=" ">
<path fill="none" stroke="#63b8ff" d="M398.09,-68.67C391.37,-59.5 384.03,-49.5 377.85,-41.07"/>
<polygon fill="#63b8ff" stroke="#63b8ff" points="395.31,-70.8 404.05,-76.79 400.96,-66.66 395.31,-70.8"/>
</a>
</g>
</g>
<!-- Node8 -->
<g id="Node000008" class="node">
<title>Node8</title>
<g id="a_Node000008"><a xlink:href="dg__utils_8hpp.html" target="_top" xlink:title=" ">
<polygon fill="white" stroke="#666666" points="636,-41 519,-41 519,0 636,0 636,-41"/>
<text text-anchor="start" x="527" y="-29" font-family="Helvetica,sans-Serif" font-size="10.00">/__w/vulpes/vulpes</text>
<text text-anchor="start" x="527" y="-18" font-family="Helvetica,sans-Serif" font-size="10.00">/vulpes/assemble/dg</text>
<text text-anchor="middle" x="577.5" y="-7" font-family="Helvetica,sans-Serif" font-size="10.00">_utils.hpp</text>
</a>
</g>
</g>
<!-- Node7&#45;&gt;Node8 -->
<g id="edge7_Node000007_Node000008" class="edge">
<title>Node7&#45;&gt;Node8</title>
<g id="a_edge7_Node000007_Node000008"><a xlink:title=" ">
<path fill="none" stroke="#63b8ff" d="M468.91,-72.72C490.55,-62.51 515.53,-50.73 536.07,-41.04"/>
<polygon fill="#63b8ff" stroke="#63b8ff" points="467.41,-69.56 459.86,-76.99 470.4,-75.89 467.41,-69.56"/>
</a>
</g>
</g>
<!-- Node9&#45;&gt;Node8 -->
<g id="edge10_Node000009_Node000008" class="edge">
<title>Node9&#45;&gt;Node8</title>
<g id="a_edge10_Node000009_Node000008"><a xlink:title=" ">
<path fill="none" stroke="#63b8ff" d="M973.98,-603.62C984.03,-594.08 994.76,-582.01 1001.5,-569 1021.62,-530.19 1020.5,-516.21 1020.5,-472.5 1020.5,-472.5 1020.5,-472.5 1020.5,-173.5 1020.5,-93.21 756.83,-46.33 636.33,-29.11"/>
<polygon fill="#63b8ff" stroke="#63b8ff" points="971.56,-601.09 966.51,-610.4 976.26,-606.27 971.56,-601.09"/>
</a>
</g>
</g>
<!-- Node10 -->
<g id="Node000010" class="node">
<title>Node10</title>
<g id="a_Node000010"><a xlink:href="project__solution_8hpp.html" target="_top" xlink:title=" ">
<polygon fill="white" stroke="#666666" points="992.5,-569 864.5,-569 864.5,-528 992.5,-528 992.5,-569"/>
<text text-anchor="start" x="872.5" y="-557" font-family="Helvetica,sans-Serif" font-size="10.00">/__w/vulpes/vulpes</text>
<text text-anchor="start" x="872.5" y="-546" font-family="Helvetica,sans-Serif" font-size="10.00">/vulpes/postprocessing</text>
<text text-anchor="middle" x="928.5" y="-535" font-family="Helvetica,sans-Serif" font-size="10.00">/project_solution.hpp</text>
</a>
</g>
</g>
<!-- Node9&#45;&gt;Node10 -->
<g id="edge11_Node000009_Node000010" class="edge">
<title>Node9&#45;&gt;Node10</title>
<g id="a_edge11_Node000009_Node000010"><a xlink:title=" ">
<path fill="none" stroke="#63b8ff" d="M942.11,-600.55C939.42,-590.44 936.32,-578.81 933.75,-569.2"/>
<polygon fill="#63b8ff" stroke="#63b8ff" points="938.78,-601.63 944.74,-610.39 945.54,-599.83 938.78,-601.63"/>
</a>
</g>
</g>
<!-- Node12 -->
<g id="Node000012" class="node">
<title>Node12</title>
<g id="a_Node000012"><a xlink:href="fe__expression_8hpp.html" target="_top" xlink:title=" ">
<polygon fill="white" stroke="#666666" points="775,-338 618,-338 618,-308 775,-308 775,-338"/>
<text text-anchor="start" x="626" y="-326" font-family="Helvetica,sans-Serif" font-size="10.00">/__w/vulpes/vulpes</text>
<text text-anchor="middle" x="696.5" y="-315" font-family="Helvetica,sans-Serif" font-size="10.00">/vulpes/fe/fe_expression.hpp</text>
</a>
</g>
</g>
<!-- Node11&#45;&gt;Node12 -->
<g id="edge13_Node000011_Node000012" class="edge">
<title>Node11&#45;&gt;Node12</title>
<g id="a_edge13_Node000011_Node000012"><a xlink:title=" ">
<path fill="none" stroke="#63b8ff" d="M749.47,-519.94C755.59,-511.56 761.3,-501.92 764.5,-492 770.1,-474.66 767.03,-469.05 764.5,-451 759.56,-415.75 759.91,-405.04 742.5,-374 734.89,-360.42 722.89,-347.55 713.06,-338.27"/>
<polygon fill="#63b8ff" stroke="#63b8ff" points="746.68,-517.84 743.3,-527.88 752.2,-522.14 746.68,-517.84"/>
</a>
</g>
</g>
<!-- Node16 -->
<g id="Node000016" class="node">
<title>Node16</title>
<g id="a_Node000016"><a xlink:href="fe__expr__basis_8hpp.html" target="_top" xlink:title=" ">
<polygon fill="white" stroke="#666666" points="756,-492 615,-492 615,-451 756,-451 756,-492"/>
<text text-anchor="start" x="623" y="-480" font-family="Helvetica,sans-Serif" font-size="10.00">/__w/vulpes/vulpes</text>
<text text-anchor="start" x="623" y="-469" font-family="Helvetica,sans-Serif" font-size="10.00">/vulpes/fe/fe_expressions</text>
<text text-anchor="middle" x="685.5" y="-458" font-family="Helvetica,sans-Serif" font-size="10.00">/fe_expr_basis.hpp</text>
</a>
</g>
</g>
<!-- Node11&#45;&gt;Node16 -->
<g id="edge22_Node000011_Node000016" class="edge">
<title>Node11&#45;&gt;Node16</title>
<g id="a_edge22_Node000011_Node000016"><a xlink:title=" ">
<path fill="none" stroke="#63b8ff" d="M709.59,-518.83C704.94,-509.89 699.92,-500.24 695.68,-492.07"/>
<polygon fill="#63b8ff" stroke="#63b8ff" points="706.53,-520.54 714.25,-527.79 712.74,-517.31 706.53,-520.54"/>
</a>
</g>
</g>
<!-- Node17 -->
<g id="Node000017" class="node">
<title>Node17</title>
<g id="a_Node000017"><a xlink:href="fe__expr__vector_8hpp.html" target="_top" xlink:title="Bilinear/linear expressions for vector&#45;valued FE spaces.">
<polygon fill="white" stroke="#666666" points="718,-415 577,-415 577,-374 718,-374 718,-415"/>
<text text-anchor="start" x="585" y="-403" font-family="Helvetica,sans-Serif" font-size="10.00">/__w/vulpes/vulpes</text>
<text text-anchor="start" x="585" y="-392" font-family="Helvetica,sans-Serif" font-size="10.00">/vulpes/fe/fe_expressions</text>
<text text-anchor="middle" x="647.5" y="-381" font-family="Helvetica,sans-Serif" font-size="10.00">/fe_expr_vector.hpp</text>
</a>
</g>
</g>
<!-- Node11&#45;&gt;Node17 -->
<g id="edge33_Node000011_Node000017" class="edge">
<title>Node11&#45;&gt;Node17</title>
<g id="a_edge33_Node000011_Node000017"><a xlink:title=" ">
<path fill="none" stroke="#63b8ff" d="M644.59,-525.46C629.1,-517.46 614.82,-506.63 605.5,-492 589.7,-467.19 610.38,-435.42 627.91,-415.25"/>
<polygon fill="#63b8ff" stroke="#63b8ff" points="643.28,-528.72 653.81,-529.86 646.29,-522.4 643.28,-528.72"/>
</a>
</g>
</g>
<!-- Node18 -->
<g id="Node000018" class="node">
<title>Node18</title>
<g id="a_Node000018"><a xlink:href="fe__expr__func_8hpp.html" target="_top" xlink:title=" ">
<polygon fill="white" stroke="#666666" points="559,-415 418,-415 418,-374 559,-374 559,-415"/>
<text text-anchor="start" x="426" y="-403" font-family="Helvetica,sans-Serif" font-size="10.00">/__w/vulpes/vulpes</text>
<text text-anchor="start" x="426" y="-392" font-family="Helvetica,sans-Serif" font-size="10.00">/vulpes/fe/fe_expressions</text>
<text text-anchor="middle" x="488.5" y="-381" font-family="Helvetica,sans-Serif" font-size="10.00">/fe_expr_func.hpp</text>
</a>
</g>
</g>
<!-- Node11&#45;&gt;Node18 -->
<g id="edge26_Node000011_Node000018" class="edge">
<title>Node11&#45;&gt;Node18</title>
<g id="a_edge26_Node000011_Node000018"><a xlink:title=" ">
<path fill="none" stroke="#63b8ff" d="M659.55,-524.08C638.69,-515.33 615.96,-504.45 596.5,-492 561.76,-469.78 527.21,-436.42 506.86,-415.32"/>
<polygon fill="#63b8ff" stroke="#63b8ff" points="658.41,-527.39 668.99,-527.95 661.06,-520.91 658.41,-527.39"/>
</a>
</g>
</g>
<!-- Node19 -->
<g id="Node000019" class="node">
<title>Node19</title>
<g id="a_Node000019"><a xlink:href="fe__expr__op_8hpp.html" target="_top" xlink:title=" ">
<polygon fill="white" stroke="#666666" points="954,-415 813,-415 813,-374 954,-374 954,-415"/>
<text text-anchor="start" x="821" y="-403" font-family="Helvetica,sans-Serif" font-size="10.00">/__w/vulpes/vulpes</text>
<text text-anchor="start" x="821" y="-392" font-family="Helvetica,sans-Serif" font-size="10.00">/vulpes/fe/fe_expressions</text>
<text text-anchor="middle" x="883.5" y="-381" font-family="Helvetica,sans-Serif" font-size="10.00">/fe_expr_op.hpp</text>
</a>
</g>
</g>
<!-- Node11&#45;&gt;Node19 -->
<g id="edge28_Node000011_Node000019" class="edge">
<title>Node11&#45;&gt;Node19</title>
<g id="a_edge28_Node000011_Node000019"><a xlink:title=" ">
<path fill="none" stroke="#63b8ff" d="M761.56,-522.02C773.75,-513.03 787.1,-502.54 798.5,-492 825.06,-467.45 852.04,-435.33 868.28,-415.05"/>
<polygon fill="#63b8ff" stroke="#63b8ff" points="759.38,-519.27 753.34,-527.97 763.49,-524.94 759.38,-519.27"/>
</a>
</g>
</g>
<!-- Node20 -->
<g id="Node000020" class="node">
<title>Node20</title>
<g id="a_Node000020"><a xlink:href="fe__expr__unary_8hpp.html" target="_top" xlink:title=" ">
<polygon fill="white" stroke="#666666" points="992,-492 851,-492 851,-451 992,-451 992,-492"/>
<text text-anchor="start" x="859" y="-480" font-family="Helvetica,sans-Serif" font-size="10.00">/__w/vulpes/vulpes</text>
<text text-anchor="start" x="859" y="-469" font-family="Helvetica,sans-Serif" font-size="10.00">/vulpes/fe/fe_expressions</text>
<text text-anchor="middle" x="921.5" y="-458" font-family="Helvetica,sans-Serif" font-size="10.00">/fe_expr_unary.hpp</text>
</a>
</g>
</g>
<!-- Node11&#45;&gt;Node20 -->
<g id="edge30_Node000011_Node000020" class="edge">
<title>Node11&#45;&gt;Node20</title>
<g id="a_edge30_Node000011_Node000020"><a xlink:title=" ">
<path fill="none" stroke="#63b8ff" d="M785.17,-524.4C812.39,-514.04 844.15,-501.95 870.17,-492.04"/>
<polygon fill="#63b8ff" stroke="#63b8ff" points="783.85,-521.16 775.75,-527.99 786.34,-527.7 783.85,-521.16"/>
</a>
</g>
</g>
<!-- Node12&#45;&gt;Node8 -->
<g id="edge14_Node000012_Node000008" class="edge">
<title>Node12&#45;&gt;Node8</title>
<g id="a_edge14_Node000012_Node000008"><a xlink:title=" ">
<path fill="none" stroke="#63b8ff" d="M687.23,-298.58C664.51,-241.22 606.4,-94.47 585.3,-41.2"/>
<polygon fill="#63b8ff" stroke="#63b8ff" points="683.98,-299.9 690.92,-307.91 690.49,-297.32 683.98,-299.9"/>
</a>
</g>
</g>
<!-- Node13 -->
<g id="Node000013" class="node">
<title>Node13</title>
<g id="a_Node000013"><a xlink:href="integrator__base_8hpp.html" target="_top" xlink:title=" ">
<polygon fill="white" stroke="#666666" points="352,-195 199,-195 199,-154 352,-154 352,-195"/>
<text text-anchor="start" x="207" y="-183" font-family="Helvetica,sans-Serif" font-size="10.00">/__w/vulpes/vulpes</text>
<text text-anchor="start" x="207" y="-172" font-family="Helvetica,sans-Serif" font-size="10.00">/vulpes/assemble/integrator</text>
<text text-anchor="middle" x="275.5" y="-161" font-family="Helvetica,sans-Serif" font-size="10.00">_base.hpp</text>
</a>
</g>
</g>
<!-- Node12&#45;&gt;Node13 -->
<g id="edge15_Node000012_Node000013" class="edge">
<title>Node12&#45;&gt;Node13</title>
<g id="a_edge15_Node000012_Node000013"><a xlink:title=" ">
<path fill="none" stroke="#63b8ff" d="M661.9,-303.07C623.95,-282.93 560.81,-251.25 503.5,-231 454.14,-213.56 396.89,-199.64 352.1,-190.11"/>
<polygon fill="#63b8ff" stroke="#63b8ff" points="660.51,-306.3 670.98,-307.92 663.81,-300.12 660.51,-306.3"/>
</a>
</g>
</g>
<!-- Node14 -->
<g id="Node000014" class="node">
<title>Node14</title>
<g id="a_Node000014"><a xlink:href="integrator__traits_8hpp.html" target="_top" xlink:title=" ">
<polygon fill="white" stroke="#666666" points="495,-272 342,-272 342,-231 495,-231 495,-272"/>
<text text-anchor="start" x="350" y="-260" font-family="Helvetica,sans-Serif" font-size="10.00">/__w/vulpes/vulpes</text>
<text text-anchor="start" x="350" y="-249" font-family="Helvetica,sans-Serif" font-size="10.00">/vulpes/assemble/integrator</text>
<text text-anchor="middle" x="418.5" y="-238" font-family="Helvetica,sans-Serif" font-size="10.00">_traits.hpp</text>
</a>
</g>
</g>
<!-- Node12&#45;&gt;Node14 -->
<g id="edge19_Node000012_Node000014" class="edge">
<title>Node12&#45;&gt;Node14</title>
<g id="a_edge19_Node000012_Node000014"><a xlink:title=" ">
<path fill="none" stroke="#63b8ff" d="M630.45,-305.49C589.84,-295.34 537.65,-282.29 495.22,-271.68"/>
<polygon fill="#63b8ff" stroke="#63b8ff" points="629.69,-308.91 640.24,-307.94 631.39,-302.11 629.69,-308.91"/>
</a>
</g>
</g>
<!-- Node12&#45;&gt;Node15 -->
<g id="edge21_Node000012_Node000015" class="edge">
<title>Node12&#45;&gt;Node15</title>
<g id="a_edge21_Node000012_Node000015"><a xlink:title=" ">
<path fill="none" stroke="#63b8ff" d="M785.1,-306.98C864.85,-293.46 979.75,-273.99 1048.39,-262.35"/>
<polygon fill="#63b8ff" stroke="#63b8ff" points="784.34,-303.56 775.07,-308.68 785.51,-310.46 784.34,-303.56"/>
</a>
</g>
</g>
<!-- Node13&#45;&gt;Node4 -->
<g id="edge16_Node000013_Node000004" class="edge">
<title>Node13&#45;&gt;Node4</title>
<g id="a_edge16_Node000013_Node000004"><a xlink:title=" ">
<path fill="none" stroke="#63b8ff" d="M214.22,-150.4C186.72,-140.04 154.63,-127.95 128.35,-118.04"/>
<polygon fill="#63b8ff" stroke="#63b8ff" points="213.14,-153.74 223.73,-153.99 215.61,-147.19 213.14,-153.74"/>
</a>
</g>
</g>
<!-- Node13&#45;&gt;Node5 -->
<g id="edge17_Node000013_Node000005" class="edge">
<title>Node13&#45;&gt;Node5</title>
<g id="a_edge17_Node000013_Node000005"><a xlink:title=" ">
<path fill="none" stroke="#63b8ff" d="M264.58,-144.26C261.31,-135.48 257.79,-126.07 254.81,-118.07"/>
<polygon fill="#63b8ff" stroke="#63b8ff" points="261.37,-145.65 268.14,-153.79 267.92,-143.2 261.37,-145.65"/>
</a>
</g>
</g>
<!-- Node13&#45;&gt;Node7 -->
<g id="edge18_Node000013_Node000007" class="edge">
<title>Node13&#45;&gt;Node7</title>
<g id="a_edge18_Node000013_Node000007"><a xlink:title=" ">
<path fill="none" stroke="#63b8ff" d="M321.58,-149.33C340.79,-139.26 362.8,-127.71 380.99,-118.17"/>
<polygon fill="#63b8ff" stroke="#63b8ff" points="319.93,-146.25 312.7,-153.99 323.18,-152.45 319.93,-146.25"/>
</a>
</g>
</g>
<!-- Node14&#45;&gt;Node13 -->
<g id="edge20_Node000014_Node000013" class="edge">
<title>Node14&#45;&gt;Node13</title>
<g id="a_edge20_Node000014_Node000013"><a xlink:title=" ">
<path fill="none" stroke="#63b8ff" d="M372.42,-226.33C353.21,-216.26 331.2,-204.71 313.01,-195.17"/>
<polygon fill="#63b8ff" stroke="#63b8ff" points="370.82,-229.45 381.3,-230.99 374.07,-223.25 370.82,-229.45"/>
</a>
</g>
</g>
<!-- Node16&#45;&gt;Node12 -->
<g id="edge23_Node000016_Node000012" class="edge">
<title>Node16&#45;&gt;Node12</title>
<g id="a_edge23_Node000016_Node000012"><a xlink:title=" ">
<path fill="none" stroke="#63b8ff" d="M711.09,-443.03C717.36,-434.65 723.21,-424.98 726.5,-415 732.2,-397.69 731.36,-391.56 726.5,-374 722.88,-360.93 714.83,-347.84 707.98,-338.34"/>
<polygon fill="#63b8ff" stroke="#63b8ff" points="708.27,-440.96 704.76,-450.96 713.73,-445.33 708.27,-440.96"/>
</a>
</g>
</g>
<!-- Node16&#45;&gt;Node17 -->
<g id="edge24_Node000016_Node000017" class="edge">
<title>Node16&#45;&gt;Node17</title>
<g id="a_edge24_Node000016_Node000017"><a xlink:title=" ">
<path fill="none" stroke="#63b8ff" d="M670.97,-441.83C666.44,-432.89 661.55,-423.24 657.42,-415.07"/>
<polygon fill="#63b8ff" stroke="#63b8ff" points="667.87,-443.46 675.52,-450.79 674.12,-440.29 667.87,-443.46"/>
</a>
</g>
</g>
<!-- Node17&#45;&gt;Node12 -->
<g id="edge25_Node000017_Node000012" class="edge">
<title>Node17&#45;&gt;Node12</title>
<g id="a_edge25_Node000017_Node000012"><a xlink:title=" ">
<path fill="none" stroke="#63b8ff" d="M667.31,-365.4C673.95,-355.99 681.06,-345.9 686.6,-338.04"/>
<polygon fill="#63b8ff" stroke="#63b8ff" points="664.31,-363.58 661.41,-373.77 670.03,-367.61 664.31,-363.58"/>
</a>
</g>
</g>
<!-- Node18&#45;&gt;Node12 -->
<g id="edge27_Node000018_Node000012" class="edge">
<title>Node18&#45;&gt;Node12</title>
<g id="a_edge27_Node000018_Node000012"><a xlink:title=" ">
<path fill="none" stroke="#63b8ff" d="M556.82,-370.67C589.1,-359.89 626.58,-347.36 654.59,-338"/>
<polygon fill="#63b8ff" stroke="#63b8ff" points="555.37,-367.47 546.99,-373.96 557.59,-374.11 555.37,-367.47"/>
</a>
</g>
</g>
<!-- Node19&#45;&gt;Node12 -->
<g id="edge29_Node000019_Node000012" class="edge">
<title>Node19&#45;&gt;Node12</title>
<g id="a_edge29_Node000019_Node000012"><a xlink:title=" ">
<path fill="none" stroke="#63b8ff" d="M821.32,-370.39C792.48,-359.67 759.14,-347.28 734.18,-338"/>
<polygon fill="#63b8ff" stroke="#63b8ff" points="820.32,-373.75 830.91,-373.96 822.76,-367.19 820.32,-373.75"/>
</a>
</g>
</g>
<!-- Node20&#45;&gt;Node12 -->
<g id="edge31_Node000020_Node000012" class="edge">
<title>Node20&#45;&gt;Node12</title>
<g id="a_edge31_Node000020_Node000012"><a xlink:title=" ">
<path fill="none" stroke="#63b8ff" d="M947.52,-443.17C964.01,-422.49 979.33,-394.28 962.5,-374 939.02,-345.7 844.84,-333.32 775.18,-327.96"/>
<polygon fill="#63b8ff" stroke="#63b8ff" points="944.72,-441.06 940.96,-450.97 950.08,-445.57 944.72,-441.06"/>
</a>
</g>
</g>
<!-- Node20&#45;&gt;Node19 -->
<g id="edge32_Node000020_Node000019" class="edge">
<title>Node20&#45;&gt;Node19</title>
<g id="a_edge32_Node000020_Node000019"><a xlink:title=" ">
<path fill="none" stroke="#63b8ff" d="M906.97,-441.83C902.44,-432.89 897.55,-423.24 893.42,-415.07"/>
<polygon fill="#63b8ff" stroke="#63b8ff" points="903.87,-443.46 911.52,-450.79 910.12,-440.29 903.87,-443.46"/>
</a>
</g>
</g>
<!-- Node22 -->
<g id="Node000022" class="node">
<title>Node22</title>
<g id="a_Node000022"><a xlink:href="fe__lagrange__simplex_8cpp.html" target="_top" xlink:title=" ">
<polygon fill="white" stroke="#666666" points="1530.5,-569 1388.5,-569 1388.5,-528 1530.5,-528 1530.5,-569"/>
<text text-anchor="start" x="1396.5" y="-557" font-family="Helvetica,sans-Serif" font-size="10.00">/__w/vulpes/vulpes</text>
<text text-anchor="start" x="1396.5" y="-546" font-family="Helvetica,sans-Serif" font-size="10.00">/vulpes/fe/fe_spaces</text>
<text text-anchor="middle" x="1459.5" y="-535" font-family="Helvetica,sans-Serif" font-size="10.00">/fe_lagrange_simplex.cpp</text>
</a>
</g>
</g>
<!-- Node21&#45;&gt;Node22 -->
<g id="edge35_Node000021_Node000022" class="edge">
<title>Node21&#45;&gt;Node22</title>
<g id="a_edge35_Node000021_Node000022"><a xlink:title=" ">
<path fill="none" stroke="#63b8ff" d="M1302.57,-601.81C1333.93,-591.36 1370.77,-579.08 1400.87,-569.04"/>
<polygon fill="#63b8ff" stroke="#63b8ff" points="1301.41,-598.51 1293.03,-604.99 1303.62,-605.15 1301.41,-598.51"/>
</a>
</g>
</g>
<!-- Node21&#45;&gt;Node23 -->
<g id="edge36_Node000021_Node000023" class="edge">
<title>Node21&#45;&gt;Node23</title>
<g id="a_edge36_Node000021_Node000023"><a xlink:title=" ">
<path fill="none" stroke="#63b8ff" d="M1205.65,-597.79C1195.42,-588.32 1184.11,-577.84 1174.64,-569.07"/>
<polygon fill="#63b8ff" stroke="#63b8ff" points="1203.5,-600.57 1213.22,-604.79 1208.26,-595.43 1203.5,-600.57"/>
</a>
</g>
</g>
<!-- Node21&#45;&gt;Node24 -->
<g id="edge37_Node000021_Node000024" class="edge">
<title>Node21&#45;&gt;Node24</title>
<g id="a_edge37_Node000021_Node000024"><a xlink:title=" ">
<path fill="none" stroke="#63b8ff" d="M1259.95,-597.23C1268.65,-587.91 1278.21,-577.67 1286.23,-569.07"/>
<polygon fill="#63b8ff" stroke="#63b8ff" points="1257.16,-595.1 1252.89,-604.79 1262.27,-599.87 1257.16,-595.1"/>
</a>
</g>
</g>
<!-- Node26&#45;&gt;Node8 -->
<g id="edge43_Node000026_Node000008" class="edge">
<title>Node26&#45;&gt;Node8</title>
<g id="a_edge43_Node000026_Node000008"><a xlink:title=" ">
<path fill="none" stroke="#63b8ff" d="M386.25,-600.48C381.08,-554.36 374.73,-451.12 408.5,-374 433.35,-317.25 472.8,-325.81 503.5,-272 548.34,-193.43 568.23,-85.19 574.83,-41.24"/>
<polygon fill="#63b8ff" stroke="#63b8ff" points="382.78,-600.92 387.45,-610.43 389.73,-600.08 382.78,-600.92"/>
</a>
</g>
</g>
<!-- Node26&#45;&gt;Node11 -->
<g id="edge46_Node000026_Node000011" class="edge">
<title>Node26&#45;&gt;Node11</title>
<g id="a_edge46_Node000026_Node000011"><a xlink:title=" ">
<path fill="none" stroke="#63b8ff" d="M462.11,-608.24C518.92,-595.53 597.46,-577.94 653.78,-565.33"/>
<polygon fill="#63b8ff" stroke="#63b8ff" points="461.11,-604.88 452.12,-610.48 462.64,-611.71 461.11,-604.88"/>
</a>
</g>
</g>
<!-- Node26&#45;&gt;Node13 -->
<g id="edge44_Node000026_Node000013" class="edge">
<title>Node26&#45;&gt;Node13</title>
<g id="a_edge44_Node000026_Node000013"><a xlink:title=" ">
<path fill="none" stroke="#63b8ff" d="M373.16,-601.88C366.81,-592.16 360,-580.43 355.5,-569 301.61,-432.13 282.21,-253.56 277.05,-195.01"/>
<polygon fill="#63b8ff" stroke="#63b8ff" points="370.27,-603.85 378.78,-610.17 376.06,-599.93 370.27,-603.85"/>
</a>
</g>
</g>
<!-- Node26&#45;&gt;Node14 -->
<g id="edge45_Node000026_Node000014" class="edge">
<title>Node26&#45;&gt;Node14</title>
<g id="a_edge45_Node000026_Node000014"><a xlink:title=" ">
<path fill="none" stroke="#63b8ff" d="M379.69,-600.66C368.43,-571.12 351.5,-518.97 351.5,-472.5 351.5,-472.5 351.5,-472.5 351.5,-393.5 351.5,-346.34 382.45,-298.15 402.28,-272.12"/>
<polygon fill="#63b8ff" stroke="#63b8ff" points="376.49,-602.09 383.39,-610.13 383,-599.54 376.49,-602.09"/>
</a>
</g>
</g>
<!-- Node27&#45;&gt;Node25 -->
<g id="edge49_Node000027_Node000025" class="edge">
<title>Node27&#45;&gt;Node25</title>
<g id="a_edge49_Node000027_Node000025"><a xlink:title=" ">
<path fill="none" stroke="#63b8ff" d="M1446.57,-753.51C1459.06,-745.41 1471.13,-735.27 1479.5,-723 1495.19,-700.01 1498.6,-667.17 1499.01,-646.35"/>
<polygon fill="#63b8ff" stroke="#63b8ff" points="1444.61,-750.61 1437.89,-758.8 1448.25,-756.59 1444.61,-750.61"/>
</a>
</g>
</g>
<!-- Node28 -->
<g id="Node000028" class="node">
<title>Node28</title>
<g id="a_Node000028"><a xlink:href="ndpolynomial_8hpp.html" target="_top" xlink:title=" ">
<polygon fill="white" stroke="#666666" points="1292,-723 1177,-723 1177,-682 1292,-682 1292,-723"/>
<text text-anchor="start" x="1185" y="-711" font-family="Helvetica,sans-Serif" font-size="10.00">/__w/vulpes/vulpes</text>
<text text-anchor="start" x="1185" y="-700" font-family="Helvetica,sans-Serif" font-size="10.00">/vulpes/polynomials</text>
<text text-anchor="middle" x="1234.5" y="-689" font-family="Helvetica,sans-Serif" font-size="10.00">/ndpolynomial.hpp</text>
</a>
</g>
</g>
<!-- Node27&#45;&gt;Node28 -->
<g id="edge50_Node000027_Node000028" class="edge">
<title>Node27&#45;&gt;Node28</title>
<g id="a_edge50_Node000027_Node000028"><a xlink:title=" ">
<path fill="none" stroke="#63b8ff" d="M1342.12,-754.59C1320.68,-744.41 1295.99,-732.69 1275.67,-723.04"/>
<polygon fill="#63b8ff" stroke="#63b8ff" points="1340.87,-757.86 1351.4,-758.99 1343.87,-751.54 1340.87,-757.86"/>
</a>
</g>
</g>
<!-- Node29 -->
<g id="Node000029" class="node">
<title>Node29</title>
<g id="a_Node000029"><a xlink:href="sparse__polynomial_8hpp.html" target="_top" xlink:title=" ">
<polygon fill="white" stroke="#666666" points="1660,-723 1527,-723 1527,-682 1660,-682 1660,-723"/>
<text text-anchor="start" x="1535" y="-711" font-family="Helvetica,sans-Serif" font-size="10.00">/__w/vulpes/vulpes</text>
<text text-anchor="start" x="1535" y="-700" font-family="Helvetica,sans-Serif" font-size="10.00">/vulpes/polynomials</text>
<text text-anchor="middle" x="1593.5" y="-689" font-family="Helvetica,sans-Serif" font-size="10.00">/sparse_polynomial.hpp</text>
</a>
</g>
</g>
<!-- Node27&#45;&gt;Node29 -->
<g id="edge54_Node000027_Node000029" class="edge">
<title>Node27&#45;&gt;Node29</title>
<g id="a_edge54_Node000027_Node000029"><a xlink:title=" ">
<path fill="none" stroke="#63b8ff" d="M1454.4,-755.4C1482.17,-745.04 1514.58,-732.95 1541.13,-723.04"/>
<polygon fill="#63b8ff" stroke="#63b8ff" points="1452.93,-752.22 1444.79,-758.99 1455.38,-758.77 1452.93,-752.22"/>
</a>
</g>
</g>
<!-- Node30 -->
<g id="Node000030" class="node">
<title>Node30</title>
<g id="a_Node000030"><a xlink:href="gauss_8cpp.html" target="_top" xlink:title=" ">
<polygon fill="white" stroke="#666666" points="1470.5,-717.5 1310.5,-717.5 1310.5,-687.5 1470.5,-687.5 1470.5,-717.5"/>
<text text-anchor="start" x="1318.5" y="-705.5" font-family="Helvetica,sans-Serif" font-size="10.00">/__w/vulpes/vulpes</text>
<text text-anchor="middle" x="1390.5" y="-694.5" font-family="Helvetica,sans-Serif" font-size="10.00">/vulpes/quadrature/gauss.cpp</text>
</a>
</g>
</g>
<!-- Node27&#45;&gt;Node30 -->
<g id="edge57_Node000027_Node000030" class="edge">
<title>Node27&#45;&gt;Node30</title>
<g id="a_edge57_Node000027_Node000030"><a xlink:title=" ">
<path fill="none" stroke="#63b8ff" d="M1391.7,-748.61C1391.42,-738.01 1391.12,-726.57 1390.88,-717.86"/>
<polygon fill="#63b8ff" stroke="#63b8ff" points="1388.21,-748.89 1391.97,-758.79 1395.21,-748.7 1388.21,-748.89"/>
</a>
</g>
</g>
<!-- Node28&#45;&gt;Node21 -->
<g id="edge52_Node000028_Node000021" class="edge">
<title>Node28&#45;&gt;Node21</title>
<g id="a_edge52_Node000028_Node000021"><a xlink:title=" ">
<path fill="none" stroke="#63b8ff" d="M1234.5,-671.69C1234.5,-663.08 1234.5,-653.9 1234.5,-646.07"/>
<polygon fill="#63b8ff" stroke="#63b8ff" points="1231,-671.79 1234.5,-681.79 1238,-671.79 1231,-671.79"/>
</a>
</g>
</g>
<!-- Node28&#45;&gt;Node22 -->
<g id="edge51_Node000028_Node000022" class="edge">
<title>Node28&#45;&gt;Node22</title>
<g id="a_edge51_Node000028_Node000022"><a xlink:title=" ">
<path fill="none" stroke="#63b8ff" d="M1280.93,-676.88C1297.5,-667.67 1316.11,-656.8 1332.5,-646 1369.73,-621.47 1410.36,-589.63 1435.39,-569.37"/>
<polygon fill="#63b8ff" stroke="#63b8ff" points="1279.03,-673.93 1271.97,-681.83 1282.41,-680.06 1279.03,-673.93"/>
</a>
</g>
</g>
<!-- Node28&#45;&gt;Node24 -->
<g id="edge53_Node000028_Node000024" class="edge">
<title>Node28&#45;&gt;Node24</title>
<g id="a_edge53_Node000028_Node000024"><a xlink:title=" ">
<path fill="none" stroke="#63b8ff" d="M1287.16,-676.36C1298.52,-668.32 1309.04,-658.26 1315.5,-646 1328.24,-621.83 1320.45,-589.61 1313.01,-569.2"/>
<polygon fill="#63b8ff" stroke="#63b8ff" points="1285.24,-673.44 1278.8,-681.85 1289.08,-679.29 1285.24,-673.44"/>
</a>
</g>
</g>
<!-- Node29&#45;&gt;Node15 -->
<g id="edge56_Node000029_Node000015" class="edge">
<title>Node29&#45;&gt;Node15</title>
<g id="a_edge56_Node000029_Node000015"><a xlink:title=" ">
<path fill="none" stroke="#63b8ff" d="M1592.57,-671.8C1591.69,-641.17 1590.5,-592 1590.5,-549.5 1590.5,-549.5 1590.5,-549.5 1590.5,-393.5 1590.5,-305.76 1293.61,-268.97 1164.88,-257.14"/>
<polygon fill="#63b8ff" stroke="#63b8ff" points="1589.07,-671.93 1592.86,-681.83 1596.07,-671.73 1589.07,-671.93"/>
</a>
</g>
</g>
<!-- Node29&#45;&gt;Node25 -->
<g id="edge55_Node000029_Node000025" class="edge">
<title>Node29&#45;&gt;Node25</title>
<g id="a_edge55_Node000029_Node000025"><a xlink:title=" ">
<path fill="none" stroke="#63b8ff" d="M1560.37,-675.35C1548.19,-665.73 1534.62,-655.01 1523.29,-646.07"/>
<polygon fill="#63b8ff" stroke="#63b8ff" points="1558.52,-678.35 1568.54,-681.79 1562.86,-672.85 1558.52,-678.35"/>
</a>
</g>
</g>
<!-- Node31&#45;&gt;Node28 -->
<g id="edge59_Node000031_Node000028" class="edge">
<title>Node31&#45;&gt;Node28</title>
<g id="a_edge59_Node000031_Node000028"><a xlink:title=" ">
<path fill="none" stroke="#63b8ff" d="M1163.09,-753.09C1177.16,-743.32 1192.99,-732.32 1206.17,-723.17"/>
<polygon fill="#63b8ff" stroke="#63b8ff" points="1160.81,-750.41 1154.59,-758.99 1164.8,-756.16 1160.81,-750.41"/>
</a>
</g>
</g>
<!-- Node32&#45;&gt;Node28 -->
<g id="edge61_Node000032_Node000028" class="edge">
<title>Node32&#45;&gt;Node28</title>
<g id="a_edge61_Node000032_Node000028"><a xlink:title=" ">
<path fill="none" stroke="#63b8ff" d="M1249.75,-749.26C1246.83,-740.48 1243.69,-731.07 1241.02,-723.07"/>
<polygon fill="#63b8ff" stroke="#63b8ff" points="1246.45,-750.41 1252.93,-758.79 1253.09,-748.2 1246.45,-750.41"/>
</a>
</g>
</g>
</g>
</svg>
