<?xml version="1.0" encoding="UTF-8" standalone="no"?>
<!DOCTYPE svg PUBLIC "-//W3C//DTD SVG 1.1//EN"
 "http://www.w3.org/Graphics/SVG/1.1/DTD/svg11.dtd">
<!-- Generated by graphviz version 12.2.1 (20241206.2353)
 -->
<!-- Title: /Users/ilariomazzieri/Desktop/vulpes/vulpes/polynomials/polynomial1d.hpp Pages: 1 -->
<svg width="487pt" height="238pt"
 viewBox="0.00 0.00 486.62 238.00" xmlns="http://www.w3.org/2000/svg" xmlns:xlink="http://www.w3.org/1999/xlink">

<svg id="main" version="1.1" xmlns="http://www.w3.org/2000/svg" xmlns:xlink="http://www.w3.org/1999/xlink" xml:space="preserve" onload="init(evt)">
<style type="text/css"><![CDATA[
.node, .edge {opacity: 0.7;}
.node.selected, .edge.selected {opacity: 1;}
.edge:hover path { stroke: red; }
.edge:hover polygon { stroke: red; fill: red; }
]]></style>
<script type="application/ecmascript" xlink:href="svg.min.js"/>
<svg id="graph" class="graph">
<g id="graph0" class="graph" transform="scale(1 1) rotate(0) translate(4 234)">
<title>/Users/ilariomazzieri/Desktop/vulpes/vulpes/polynomials/polynomial1d.hpp</title>
<!-- Node1 -->
<g id="Node000001" class="node">
<title>Node1</title>
<g id="a_Node000001"><a xlink:title=" ">
<polygon fill="#999999" stroke="#666666" points="247.88,-230 98.38,-230 98.38,-188.25 247.88,-188.25 247.88,-230"/>
<text text-anchor="start" x="106.38" y="-216.5" font-family="Helvetica,sans-Serif" font-size="10.00">/Users/ilariomazzieri</text>
<text text-anchor="start" x="106.38" y="-205.25" font-family="Helvetica,sans-Serif" font-size="10.00">/Desktop/vulpes/vulpes</text>
<text text-anchor="middle" x="173.12" y="-194" font-family="Helvetica,sans-Serif" font-size="10.00">/polynomials/polynomial1d.hpp</text>
</a>
</g>
</g>
<!-- Node2 -->
<g id="Node000002" class="node">
<title>Node2</title>
<g id="a_Node000002"><a xlink:title=" ">
<polygon fill="#e0e0e0" stroke="#999999" points="48.25,-19.25 0,-19.25 0,0 48.25,0 48.25,-19.25"/>
<text text-anchor="middle" x="24.12" y="-5.75" font-family="Helvetica,sans-Serif" font-size="10.00">cstddef</text>
</a>
</g>
</g>
<!-- Node1&#45;&gt;Node2 -->
<g id="edge1_Node000001_Node000002" class="edge">
<title>Node1&#45;&gt;Node2</title>
<g id="a_edge1_Node000001_Node000002"><a xlink:title=" ">
<path fill="none" stroke="#63b8ff" d="M139.94,-187.8C108.28,-166.52 61.98,-130.03 38.12,-85.75 28.89,-68.61 25.64,-46.43 24.55,-30.62"/>
<polygon fill="#63b8ff" stroke="#63b8ff" points="28.07,-30.88 24.13,-21.04 21.07,-31.19 28.07,-30.88"/>
</a>
</g>
</g>
<!-- Node3 -->
<g id="Node000003" class="node">
<title>Node3</title>
<g id="a_Node000003"><a xlink:title=" ">
<polygon fill="#e0e0e0" stroke="#999999" points="98.75,-80.12 47.5,-80.12 47.5,-60.88 98.75,-60.88 98.75,-80.12"/>
<text text-anchor="middle" x="73.12" y="-66.62" font-family="Helvetica,sans-Serif" font-size="10.00">ostream</text>
</a>
</g>
</g>
<!-- Node1&#45;&gt;Node3 -->
<g id="edge2_Node000001_Node000003" class="edge">
<title>Node1&#45;&gt;Node3</title>
<g id="a_edge2_Node000001_Node000003"><a xlink:title=" ">
<path fill="none" stroke="#63b8ff" d="M158.37,-187.97C138.98,-161.48 105.21,-115.34 86.53,-89.81"/>
<polygon fill="#63b8ff" stroke="#63b8ff" points="89.36,-87.76 80.63,-81.76 83.71,-91.89 89.36,-87.76"/>
</a>
</g>
</g>
<!-- Node4 -->
<g id="Node000004" class="node">
<title>Node4</title>
<g id="a_Node000004"><a xlink:title=" ">
<polygon fill="#e0e0e0" stroke="#999999" points="478.62,-19.25 435.62,-19.25 435.62,0 478.62,0 478.62,-19.25"/>
<text text-anchor="middle" x="457.12" y="-5.75" font-family="Helvetica,sans-Serif" font-size="10.00">vector</text>
</a>
</g>
</g>
<!-- Node1&#45;&gt;Node4 -->
<g id="edge3_Node000001_Node000004" class="edge">
<title>Node1&#45;&gt;Node4</title>
<g id="a_edge3_Node000001_Node000004"><a xlink:title=" ">
<path fill="none" stroke="#63b8ff" d="M248.21,-199.3C316.62,-186.82 413.83,-156.92 460.12,-85.75 470.79,-69.36 467.94,-46.42 463.75,-30.22"/>
<polygon fill="#63b8ff" stroke="#63b8ff" points="467.15,-29.37 460.92,-20.81 460.45,-31.39 467.15,-29.37"/>
</a>
</g>
</g>
<!-- Node5 -->
<g id="Node000005" class="node">
<title>Node5</title>
<g id="a_Node000005"><a xlink:href="polynomial_8hpp.html" target="_top" xlink:title=" ">
<polygon fill="white" stroke="#666666" points="300.75,-152.25 201.5,-152.25 201.5,-121.75 300.75,-121.75 300.75,-152.25"/>
<text text-anchor="start" x="209.5" y="-138.75" font-family="Helvetica,sans-Serif" font-size="10.00">vulpes/polynomials</text>
<text text-anchor="middle" x="251.12" y="-127.5" font-family="Helvetica,sans-Serif" font-size="10.00">/polynomial.hpp</text>
</a>
</g>
</g>
<!-- Node1&#45;&gt;Node5 -->
<g id="edge4_Node000001_Node000005" class="edge">
<title>Node1&#45;&gt;Node5</title>
<g id="a_edge4_Node000001_Node000005"><a xlink:title=" ">
<path fill="none" stroke="#63b8ff" d="M195.69,-187.84C205.43,-179.08 216.85,-168.82 226.78,-159.88"/>
<polygon fill="#63b8ff" stroke="#63b8ff" points="228.83,-162.75 233.93,-153.46 224.15,-157.55 228.83,-162.75"/>
</a>
</g>
</g>
<!-- Node9 -->
<g id="Node000009" class="node">
<title>Node9</title>
<g id="a_Node000009"><a xlink:href="vmath_8hpp.html" target="_top" xlink:title=" ">
<polygon fill="white" stroke="#666666" points="269.25,-80.12 155,-80.12 155,-60.88 269.25,-60.88 269.25,-80.12"/>
<text text-anchor="middle" x="212.12" y="-66.62" font-family="Helvetica,sans-Serif" font-size="10.00">vulpes/utils/vmath.hpp</text>
</a>
</g>
</g>
<!-- Node1&#45;&gt;Node9 -->
<g id="edge19_Node000001_Node000009" class="edge">
<title>Node1&#45;&gt;Node9</title>
<g id="a_edge19_Node000001_Node000009"><a xlink:title=" ">
<path fill="none" stroke="#63b8ff" d="M176.6,-187.99C179.87,-170.33 185.28,-144.06 192.12,-121.75 195.3,-111.4 199.67,-100.18 203.52,-90.97"/>
<polygon fill="#63b8ff" stroke="#63b8ff" points="206.65,-92.56 207.38,-81.99 200.22,-89.79 206.65,-92.56"/>
</a>
</g>
</g>
<!-- Node5&#45;&gt;Node2 -->
<g id="edge5_Node000005_Node000002" class="edge">
<title>Node5&#45;&gt;Node2</title>
<g id="a_edge5_Node000005_Node000002"><a xlink:title=" ">
<path fill="none" stroke="#63b8ff" d="M215.53,-121.42C194.68,-112.28 168.19,-99.63 146.12,-85.75 127.79,-74.22 126.21,-67.16 108.12,-55.25 90.82,-43.85 70.29,-32.9 53.86,-24.7"/>
<polygon fill="#63b8ff" stroke="#63b8ff" points="55.61,-21.66 45.09,-20.4 52.52,-27.95 55.61,-21.66"/>
</a>
</g>
</g>
<!-- Node5&#45;&gt;Node3 -->
<g id="edge6_Node000005_Node000003" class="edge">
<title>Node5&#45;&gt;Node3</title>
<g id="a_edge6_Node000005_Node000003"><a xlink:title=" ">
<path fill="none" stroke="#63b8ff" d="M210.73,-121.36C180.08,-110.26 138.34,-95.13 108.89,-84.46"/>
<polygon fill="#63b8ff" stroke="#63b8ff" points="110.27,-81.24 99.67,-81.12 107.88,-87.82 110.27,-81.24"/>
</a>
</g>
</g>
<!-- Node5&#45;&gt;Node4 -->
<g id="edge7_Node000005_Node000004" class="edge">
<title>Node5&#45;&gt;Node4</title>
<g id="a_edge7_Node000005_Node000004"><a xlink:title=" ">
<path fill="none" stroke="#63b8ff" d="M300.88,-135.88C343.06,-133.04 402.26,-122.15 438.12,-85.75 452.42,-71.24 456.45,-47.62 457.36,-30.73"/>
<polygon fill="#63b8ff" stroke="#63b8ff" points="460.86,-30.97 457.54,-20.91 453.86,-30.85 460.86,-30.97"/>
</a>
</g>
</g>
<!-- Node6 -->
<g id="Node000006" class="node">
<title>Node6</title>
<g id="a_Node000006"><a xlink:title=" ">
<polygon fill="#e0e0e0" stroke="#999999" points="330.25,-19.25 258,-19.25 258,0 330.25,0 330.25,-19.25"/>
<text text-anchor="middle" x="294.12" y="-5.75" font-family="Helvetica,sans-Serif" font-size="10.00">Eigen/Dense</text>
</a>
</g>
</g>
<!-- Node5&#45;&gt;Node6 -->
<g id="edge8_Node000005_Node000006" class="edge">
<title>Node5&#45;&gt;Node6</title>
<g id="a_edge8_Node000005_Node000006"><a xlink:title=" ">
<path fill="none" stroke="#63b8ff" d="M260.3,-121.56C266.16,-111.79 273.49,-98.4 278.12,-85.75 284.72,-67.75 288.96,-46.28 291.4,-30.91"/>
<polygon fill="#63b8ff" stroke="#63b8ff" points="294.85,-31.54 292.83,-21.14 287.92,-30.53 294.85,-31.54"/>
</a>
</g>
</g>
<!-- Node7 -->
<g id="Node000007" class="node">
<title>Node7</title>
<g id="a_Node000007"><a xlink:href="datastructure_2tensor_8hpp.html" target="_top" xlink:title=" ">
<polygon fill="white" stroke="#666666" points="429.38,-85.75 324.88,-85.75 324.88,-55.25 429.38,-55.25 429.38,-85.75"/>
<text text-anchor="start" x="332.88" y="-72.25" font-family="Helvetica,sans-Serif" font-size="10.00">vulpes/datastructure</text>
<text text-anchor="middle" x="377.12" y="-61" font-family="Helvetica,sans-Serif" font-size="10.00">/tensor.hpp</text>
</a>
</g>
</g>
<!-- Node5&#45;&gt;Node7 -->
<g id="edge9_Node000005_Node000007" class="edge">
<title>Node5&#45;&gt;Node7</title>
<g id="a_edge9_Node000005_Node000007"><a xlink:title=" ">
<path fill="none" stroke="#63b8ff" d="M279.72,-121.36C297.12,-112.46 319.56,-100.97 338.53,-91.26"/>
<polygon fill="#63b8ff" stroke="#63b8ff" points="339.99,-94.44 347.3,-86.77 336.8,-88.21 339.99,-94.44"/>
</a>
</g>
</g>
<!-- Node5&#45;&gt;Node9 -->
<g id="edge12_Node000005_Node000009" class="edge">
<title>Node5&#45;&gt;Node9</title>
<g id="a_edge12_Node000005_Node000009"><a xlink:title=" ">
<path fill="none" stroke="#63b8ff" d="M242.28,-121.36C236.66,-112.08 229.36,-100 223.34,-90.05"/>
<polygon fill="#63b8ff" stroke="#63b8ff" points="226.41,-88.36 218.24,-81.62 220.42,-91.99 226.41,-88.36"/>
</a>
</g>
</g>
<!-- Node7&#45;&gt;Node4 -->
<g id="edge11_Node000007_Node000004" class="edge">
<title>Node7&#45;&gt;Node4</title>
<g id="a_edge11_Node000007_Node000004"><a xlink:title=" ">
<path fill="none" stroke="#63b8ff" d="M396.9,-54.95C408.73,-46.24 423.76,-35.18 435.85,-26.28"/>
<polygon fill="#63b8ff" stroke="#63b8ff" points="437.59,-29.34 443.57,-20.6 433.44,-23.71 437.59,-29.34"/>
</a>
</g>
</g>
<!-- Node8 -->
<g id="Node000008" class="node">
<title>Node8</title>
<g id="a_Node000008"><a xlink:title=" ">
<polygon fill="#e0e0e0" stroke="#999999" points="410,-19.25 348.25,-19.25 348.25,0 410,0 410,-19.25"/>
<text text-anchor="middle" x="379.12" y="-5.75" font-family="Helvetica,sans-Serif" font-size="10.00">type_traits</text>
</a>
</g>
</g>
<!-- Node7&#45;&gt;Node8 -->
<g id="edge10_Node000007_Node000008" class="edge">
<title>Node7&#45;&gt;Node8</title>
<g id="a_edge10_Node000007_Node000008"><a xlink:title=" ">
<path fill="none" stroke="#63b8ff" d="M377.62,-54.95C377.87,-47.71 378.17,-38.84 378.43,-30.94"/>
<polygon fill="#63b8ff" stroke="#63b8ff" points="381.92,-31.33 378.77,-21.21 374.93,-31.09 381.92,-31.33"/>
</a>
</g>
</g>
<!-- Node9&#45;&gt;Node2 -->
<g id="edge14_Node000009_Node000002" class="edge">
<title>Node9&#45;&gt;Node2</title>
<g id="a_edge14_Node000009_Node000002"><a xlink:title=" ">
<path fill="none" stroke="#63b8ff" d="M183.16,-60.43C149.89,-50.01 95.29,-32.91 59.53,-21.71"/>
<polygon fill="#63b8ff" stroke="#63b8ff" points="60.66,-18.4 50.07,-18.75 58.57,-25.08 60.66,-18.4"/>
</a>
</g>
</g>
<!-- Node9&#45;&gt;Node6 -->
<g id="edge18_Node000009_Node000006" class="edge">
<title>Node9&#45;&gt;Node6</title>
<g id="a_edge18_Node000009_Node000006"><a xlink:title=" ">
<path fill="none" stroke="#63b8ff" d="M224.58,-60.56C237.22,-51.48 257.05,-37.24 272.31,-26.29"/>
<polygon fill="#63b8ff" stroke="#63b8ff" points="274.24,-29.21 280.32,-20.53 270.16,-23.52 274.24,-29.21"/>
</a>
</g>
</g>
<!-- Node9&#45;&gt;Node8 -->
<g id="edge17_Node000009_Node000008" class="edge">
<title>Node9&#45;&gt;Node8</title>
<g id="a_edge17_Node000009_Node000008"><a xlink:title=" ">
<path fill="none" stroke="#63b8ff" d="M237.85,-60.43C265.93,-50.53 311.09,-34.61 342.77,-23.44"/>
<polygon fill="#63b8ff" stroke="#63b8ff" points="343.67,-26.83 351.94,-20.21 341.35,-20.23 343.67,-26.83"/>
</a>
</g>
</g>
<!-- Node10 -->
<g id="Node000010" class="node">
<title>Node10</title>
<g id="a_Node000010"><a xlink:title=" ">
<polygon fill="#e0e0e0" stroke="#999999" points="119.88,-19.25 66.38,-19.25 66.38,0 119.88,0 119.88,-19.25"/>
<text text-anchor="middle" x="93.12" y="-5.75" font-family="Helvetica,sans-Serif" font-size="10.00">gmpxx.h</text>
</a>
</g>
</g>
<!-- Node9&#45;&gt;Node10 -->
<g id="edge13_Node000009_Node000010" class="edge">
<title>Node9&#45;&gt;Node10</title>
<g id="a_edge13_Node000009_Node000010"><a xlink:title=" ">
<path fill="none" stroke="#63b8ff" d="M193.79,-60.43C174.52,-50.89 143.94,-35.77 121.54,-24.68"/>
<polygon fill="#63b8ff" stroke="#63b8ff" points="123.16,-21.58 112.64,-20.28 120.05,-27.85 123.16,-21.58"/>
</a>
</g>
</g>
<!-- Node11 -->
<g id="Node000011" class="node">
<title>Node11</title>
<g id="a_Node000011"><a xlink:title=" ">
<polygon fill="#e0e0e0" stroke="#999999" points="182.75,-19.25 137.5,-19.25 137.5,0 182.75,0 182.75,-19.25"/>
<text text-anchor="middle" x="160.12" y="-5.75" font-family="Helvetica,sans-Serif" font-size="10.00">cstdint</text>
</a>
</g>
</g>
<!-- Node9&#45;&gt;Node11 -->
<g id="edge15_Node000009_Node000011" class="edge">
<title>Node9&#45;&gt;Node11</title>
<g id="a_edge15_Node000009_Node000011"><a xlink:title=" ">
<path fill="none" stroke="#63b8ff" d="M204.23,-60.56C196.67,-52 185.06,-38.85 175.64,-28.2"/>
<polygon fill="#63b8ff" stroke="#63b8ff" points="178.34,-25.96 169.1,-20.79 173.1,-30.6 178.34,-25.96"/>
</a>
</g>
</g>
<!-- Node12 -->
<g id="Node000012" class="node">
<title>Node12</title>
<g id="a_Node000012"><a xlink:title=" ">
<polygon fill="#e0e0e0" stroke="#999999" points="239.75,-19.25 200.5,-19.25 200.5,0 239.75,0 239.75,-19.25"/>
<text text-anchor="middle" x="220.12" y="-5.75" font-family="Helvetica,sans-Serif" font-size="10.00">limits</text>
</a>
</g>
</g>
<!-- Node9&#45;&gt;Node12 -->
<g id="edge16_Node000009_Node000012" class="edge">
<title>Node9&#45;&gt;Node12</title>
<g id="a_edge16_Node000009_Node000012"><a xlink:title=" ">
<path fill="none" stroke="#63b8ff" d="M213.34,-60.56C214.41,-52.69 216,-40.95 217.38,-30.82"/>
<polygon fill="#63b8ff" stroke="#63b8ff" points="220.82,-31.53 218.69,-21.15 213.88,-30.59 220.82,-31.53"/>
</a>
</g>
</g>
</g>
</svg>
</svg>

<style type='text/css'>
<![CDATA[
[data-mouse-over-selected='false'] { opacity: 0.7; }
[data-mouse-over-selected='true']  { opacity: 1.0; }
]]>
</style>
<script type="application/ecmascript"><![CDATA[
document.addEventListener('DOMContentLoaded', (event) => {
  highlightEdges();
  highlightAdjacentNodes();
});
]]></script>
</svg>
