<?xml version="1.0" encoding="UTF-8" standalone="no"?>
<!DOCTYPE svg PUBLIC "-//W3C//DTD SVG 1.1//EN"
 "http://www.w3.org/Graphics/SVG/1.1/DTD/svg11.dtd">
<!-- Generated by graphviz version 2.42.4 (0)
 -->
<!-- Title: /__w/vulpes/vulpes/vulpes/polynomials/polynomial.hpp Pages: 1 -->
<!--zoomable 808 -->

<svg id="main" version="1.1" xmlns="http://www.w3.org/2000/svg" xmlns:xlink="http://www.w3.org/1999/xlink" xml:space="preserve" onload="init(evt)">
<style type="text/css"><![CDATA[
.node, .edge {opacity: 0.7;}
.node.selected, .edge.selected {opacity: 1;}
.edge:hover path { stroke: red; }
.edge:hover polygon { stroke: red; fill: red; }
]]></style>

<defs>
  <circle id="rim" cx="0" cy="0" r="7"/>
  <circle id="rim2" cx="0" cy="0" r="3.5"/>
  <g id="zoomPlus">
    <use xlink:href="#rim" fill="#404040"><set attributeName="fill" to="#808080" begin="zoomplus.mouseover" end="zoomplus.mouseout"/></use>
    <path d="M-4,0h8M0,-4v8" fill="none" stroke="white" stroke-width="1.5" pointer-events="none"/>
  </g>
  <g id="zoomMin">
    <use xlink:href="#rim" fill="#404040"><set attributeName="fill" to="#808080" begin="zoomminus.mouseover" end="zoomminus.mouseout"/></use>
    <path d="M-4,0h8" fill="none" stroke="white" stroke-width="1.5" pointer-events="none"/>
  </g>
  <g id="arrowUp" transform="translate(30 24)">
    <use xlink:href="#rim"/>
    <path pointer-events="none" fill="none" stroke="white" stroke-width="1.5" d="M0,-3.0v7 M-2.5,-0.5L0,-3.0L2.5,-0.5"/>
  </g>
  <g id="arrowRight" transform="rotate(90) translate(36 -43)">
    <use xlink:href="#rim"/>
    <path pointer-events="none" fill="none" stroke="white" stroke-width="1.5" d="M0,-3.0v7 M-2.5,-0.5L0,-3.0L2.5,-0.5"/>
  </g>
  <g id="arrowDown" transform="rotate(180) translate(-30 -48)">
    <use xlink:href="#rim"/>
    <path pointer-events="none" fill="none" stroke="white" stroke-width="1.5" d="M0,-3.0v7 M-2.5,-0.5L0,-3.0L2.5,-0.5"/>
  </g>
  <g id="arrowLeft" transform="rotate(270) translate(-36 17)">
    <use xlink:href="#rim"/>
    <path pointer-events="none" fill="none" stroke="white" stroke-width="1.5" d="M0,-3.0v7 M-2.5,-0.5L0,-3.0L2.5,-0.5"/>
  </g>
  <g id="resetDef">
    <use xlink:href="#rim2" fill="#404040"><set attributeName="fill" to="#808080" begin="reset.mouseover" end="reset.mouseout"/></use>
  </g>
</defs>
<script type="application/ecmascript">
var viewWidth = 1597;
var viewHeight = 808;
var sectionId = 'dynsection-1';
</script>
<script type="application/ecmascript" xlink:href="svg.min.js"/>
<svg id="graph" class="graph">
<g id="viewport">
<title>/__w/vulpes/vulpes/vulpes/polynomials/polynomial.hpp</title>
<!-- Node1 -->
<g id="Node000001" class="node">
<title>Node1</title>
<g id="a_Node000001"><a xlink:title=" ">
<polygon fill="#999999" stroke="#666666" points="1131.5,-800 1016.5,-800 1016.5,-759 1131.5,-759 1131.5,-800"/>
<text text-anchor="start" x="1024.5" y="-788" font-family="Helvetica,sans-Serif" font-size="10.00">/__w/vulpes/vulpes</text>
<text text-anchor="start" x="1024.5" y="-777" font-family="Helvetica,sans-Serif" font-size="10.00">/vulpes/polynomials</text>
<text text-anchor="middle" x="1074" y="-766" font-family="Helvetica,sans-Serif" font-size="10.00">/polynomial.hpp</text>
</a>
</g>
</g>
<!-- Node2 -->
<g id="Node000002" class="node">
<title>Node2</title>
<g id="a_Node000002"><a xlink:href="dof__policy_8hpp.html" target="_top" xlink:title=" ">
<polygon fill="white" stroke="#666666" points="1045.5,-717.5 908.5,-717.5 908.5,-687.5 1045.5,-687.5 1045.5,-717.5"/>
<text text-anchor="start" x="916.5" y="-705.5" font-family="Helvetica,sans-Serif" font-size="10.00">/__w/vulpes/vulpes</text>
<text text-anchor="middle" x="977" y="-694.5" font-family="Helvetica,sans-Serif" font-size="10.00">/vulpes/fe/dof_policy.hpp</text>
</a>
</g>
</g>
<!-- Node1&#45;&gt;Node2 -->
<g id="edge1_Node000001_Node000002" class="edge">
<title>Node1&#45;&gt;Node2</title>
<g id="a_edge1_Node000001_Node000002"><a xlink:title=" ">
<path fill="none" stroke="#63b8ff" d="M1040.62,-752.69C1025.46,-740.97 1008.11,-727.56 995.37,-717.7"/>
<polygon fill="#63b8ff" stroke="#63b8ff" points="1038.72,-755.64 1048.77,-758.99 1043,-750.1 1038.72,-755.64"/>
</a>
</g>
</g>
<!-- Node3 -->
<g id="Node000003" class="node">
<title>Node3</title>
<g id="a_Node000003"><a xlink:href="fe__space_8hpp.html" target="_top" xlink:title=" ">
<polygon fill="white" stroke="#666666" points="1046,-640.5 914,-640.5 914,-610.5 1046,-610.5 1046,-640.5"/>
<text text-anchor="start" x="922" y="-628.5" font-family="Helvetica,sans-Serif" font-size="10.00">/__w/vulpes/vulpes</text>
<text text-anchor="middle" x="980" y="-617.5" font-family="Helvetica,sans-Serif" font-size="10.00">/vulpes/fe/fe_space.hpp</text>
</a>
</g>
</g>
<!-- Node1&#45;&gt;Node3 -->
<g id="edge40_Node000001_Node000003" class="edge">
<title>Node1&#45;&gt;Node3</title>
<g id="a_edge40_Node000001_Node000003"><a xlink:title=" ">
<path fill="none" stroke="#63b8ff" d="M1073.24,-748.67C1071.49,-728.48 1066.67,-701.96 1054,-682 1042.72,-664.24 1023.61,-650.12 1007.63,-640.57"/>
<polygon fill="#63b8ff" stroke="#63b8ff" points="1069.77,-749.12 1073.92,-758.87 1076.75,-748.66 1069.77,-749.12"/>
</a>
</g>
</g>
<!-- Node25 -->
<g id="Node000025" class="node">
<title>Node25</title>
<g id="a_Node000025"><a xlink:href="polynomial1d_8hpp.html" target="_top" xlink:title=" ">
<polygon fill="white" stroke="#666666" points="397.5,-723 282.5,-723 282.5,-682 397.5,-682 397.5,-723"/>
<text text-anchor="start" x="290.5" y="-711" font-family="Helvetica,sans-Serif" font-size="10.00">/__w/vulpes/vulpes</text>
<text text-anchor="start" x="290.5" y="-700" font-family="Helvetica,sans-Serif" font-size="10.00">/vulpes/polynomials</text>
<text text-anchor="middle" x="340" y="-689" font-family="Helvetica,sans-Serif" font-size="10.00">/polynomial1d.hpp</text>
</a>
</g>
</g>
<!-- Node1&#45;&gt;Node25 -->
<g id="edge41_Node000001_Node000025" class="edge">
<title>Node1&#45;&gt;Node25</title>
<g id="a_edge41_Node000001_Node000025"><a xlink:title=" ">
<path fill="none" stroke="#63b8ff" d="M1006.43,-771.6C863.24,-756.96 531.48,-723.07 397.58,-709.38"/>
<polygon fill="#63b8ff" stroke="#63b8ff" points="1006.1,-775.08 1016.4,-772.61 1006.81,-768.12 1006.1,-775.08"/>
</a>
</g>
</g>
<!-- Node29 -->
<g id="Node000029" class="node">
<title>Node29</title>
<g id="a_Node000029"><a xlink:href="polynomial2d_8hpp.html" target="_top" xlink:title=" ">
<polygon fill="white" stroke="#666666" points="1217.5,-723 1102.5,-723 1102.5,-682 1217.5,-682 1217.5,-723"/>
<text text-anchor="start" x="1110.5" y="-711" font-family="Helvetica,sans-Serif" font-size="10.00">/__w/vulpes/vulpes</text>
<text text-anchor="start" x="1110.5" y="-700" font-family="Helvetica,sans-Serif" font-size="10.00">/vulpes/polynomials</text>
<text text-anchor="middle" x="1160" y="-689" font-family="Helvetica,sans-Serif" font-size="10.00">/polynomial2d.hpp</text>
</a>
</g>
</g>
<!-- Node1&#45;&gt;Node29 -->
<g id="edge51_Node000001_Node000029" class="edge">
<title>Node1&#45;&gt;Node29</title>
<g id="a_edge51_Node000001_Node000029"><a xlink:title=" ">
<path fill="none" stroke="#63b8ff" d="M1104.31,-752.07C1115.25,-742.52 1127.4,-731.93 1137.56,-723.07"/>
<polygon fill="#63b8ff" stroke="#63b8ff" points="1101.83,-749.58 1096.6,-758.79 1106.43,-754.86 1101.83,-749.58"/>
</a>
</g>
</g>
<!-- Node30 -->
<g id="Node000030" class="node">
<title>Node30</title>
<g id="a_Node000030"><a xlink:href="polynomial3d_8hpp.html" target="_top" xlink:title=" ">
<polygon fill="white" stroke="#666666" points="1350.5,-723 1235.5,-723 1235.5,-682 1350.5,-682 1350.5,-723"/>
<text text-anchor="start" x="1243.5" y="-711" font-family="Helvetica,sans-Serif" font-size="10.00">/__w/vulpes/vulpes</text>
<text text-anchor="start" x="1243.5" y="-700" font-family="Helvetica,sans-Serif" font-size="10.00">/vulpes/polynomials</text>
<text text-anchor="middle" x="1293" y="-689" font-family="Helvetica,sans-Serif" font-size="10.00">/polynomial3d.hpp</text>
</a>
</g>
</g>
<!-- Node1&#45;&gt;Node30 -->
<g id="edge53_Node000001_Node000030" class="edge">
<title>Node1&#45;&gt;Node30</title>
<g id="a_edge53_Node000001_Node000030"><a xlink:title=" ">
<path fill="none" stroke="#63b8ff" d="M1140.65,-755.67C1171.08,-745.25 1206.76,-733.03 1235.94,-723.04"/>
<polygon fill="#63b8ff" stroke="#63b8ff" points="1139.29,-752.44 1130.97,-758.99 1141.56,-759.06 1139.29,-752.44"/>
</a>
</g>
</g>
<!-- Node2&#45;&gt;Node3 -->
<g id="edge2_Node000002_Node000003" class="edge">
<title>Node2&#45;&gt;Node3</title>
<g id="a_edge2_Node000002_Node000003"><a xlink:title=" ">
<path fill="none" stroke="#63b8ff" d="M977.98,-677.04C978.46,-664.95 979.03,-650.79 979.44,-640.54"/>
<polygon fill="#63b8ff" stroke="#63b8ff" points="974.47,-677.26 977.56,-687.39 981.46,-677.54 974.47,-677.26"/>
</a>
</g>
</g>
<!-- Node4 -->
<g id="Node000004" class="node">
<title>Node4</title>
<g id="a_Node000004"><a xlink:href="integrator__gauss_8hpp.html" target="_top" xlink:title=" ">
<polygon fill="white" stroke="#666666" points="1017.5,-118 864.5,-118 864.5,-77 1017.5,-77 1017.5,-118"/>
<text text-anchor="start" x="872.5" y="-106" font-family="Helvetica,sans-Serif" font-size="10.00">/__w/vulpes/vulpes</text>
<text text-anchor="start" x="872.5" y="-95" font-family="Helvetica,sans-Serif" font-size="10.00">/vulpes/assemble/integrator</text>
<text text-anchor="middle" x="941" y="-84" font-family="Helvetica,sans-Serif" font-size="10.00">_gauss.hpp</text>
</a>
</g>
</g>
<!-- Node3&#45;&gt;Node4 -->
<g id="edge3_Node000003_Node000004" class="edge">
<title>Node3&#45;&gt;Node4</title>
<g id="a_edge3_Node000003_Node000004"><a xlink:title=" ">
<path fill="none" stroke="#63b8ff" d="M1017.73,-605.09C1032.03,-595.95 1047.2,-583.79 1057,-569 1081.3,-532.33 1079,-516.49 1079,-472.5 1079,-472.5 1079,-472.5 1079,-250.5 1079,-190.09 1018.5,-143.04 977.62,-118.14"/>
<polygon fill="#63b8ff" stroke="#63b8ff" points="1015.74,-602.2 1009,-610.38 1019.36,-608.19 1015.74,-602.2"/>
</a>
</g>
</g>
<!-- Node5 -->
<g id="Node000005" class="node">
<title>Node5</title>
<g id="a_Node000005"><a xlink:href="integrator__qfree_8hpp.html" target="_top" xlink:title=" ">
<polygon fill="white" stroke="#666666" points="1188.5,-118 1035.5,-118 1035.5,-77 1188.5,-77 1188.5,-118"/>
<text text-anchor="start" x="1043.5" y="-106" font-family="Helvetica,sans-Serif" font-size="10.00">/__w/vulpes/vulpes</text>
<text text-anchor="start" x="1043.5" y="-95" font-family="Helvetica,sans-Serif" font-size="10.00">/vulpes/assemble/integrator</text>
<text text-anchor="middle" x="1112" y="-84" font-family="Helvetica,sans-Serif" font-size="10.00">_qfree.hpp</text>
</a>
</g>
</g>
<!-- Node3&#45;&gt;Node5 -->
<g id="edge4_Node000003_Node000005" class="edge">
<title>Node3&#45;&gt;Node5</title>
<g id="a_edge4_Node000003_Node000005"><a xlink:title=" ">
<path fill="none" stroke="#63b8ff" d="M1029.07,-606.21C1047.4,-597.34 1067.12,-585.06 1081,-569 1110.93,-534.37 1117,-518.28 1117,-472.5 1117,-472.5 1117,-472.5 1117,-250.5 1117,-202.97 1114.53,-147.14 1113.06,-118.17"/>
<polygon fill="#63b8ff" stroke="#63b8ff" points="1027.55,-603.06 1019.93,-610.42 1030.47,-609.42 1027.55,-603.06"/>
</a>
</g>
</g>
<!-- Node7 -->
<g id="Node000007" class="node">
<title>Node7</title>
<g id="a_Node000007"><a xlink:href="integrator__simplexify_8hpp.html" target="_top" xlink:title=" ">
<polygon fill="white" stroke="#666666" points="846.5,-118 693.5,-118 693.5,-77 846.5,-77 846.5,-118"/>
<text text-anchor="start" x="701.5" y="-106" font-family="Helvetica,sans-Serif" font-size="10.00">/__w/vulpes/vulpes</text>
<text text-anchor="start" x="701.5" y="-95" font-family="Helvetica,sans-Serif" font-size="10.00">/vulpes/assemble/integrator</text>
<text text-anchor="middle" x="770" y="-84" font-family="Helvetica,sans-Serif" font-size="10.00">_simplexify.hpp</text>
</a>
</g>
</g>
<!-- Node3&#45;&gt;Node7 -->
<g id="edge6_Node000003_Node000007" class="edge">
<title>Node3&#45;&gt;Node7</title>
<g id="a_edge6_Node000003_Node000007"><a xlink:title=" ">
<path fill="none" stroke="#63b8ff" d="M903.83,-621.21C754.13,-614.18 432.35,-596.11 390,-569 348.24,-542.27 334,-522.09 334,-472.5 334,-472.5 334,-472.5 334,-250.5 334,-175.3 568.2,-128.68 693.31,-109.14"/>
<polygon fill="#63b8ff" stroke="#63b8ff" points="903.72,-624.71 913.87,-621.68 904.05,-617.72 903.72,-624.71"/>
</a>
</g>
</g>
<!-- Node8 -->
<g id="Node000008" class="node">
<title>Node8</title>
<g id="a_Node000008"><a xlink:href="dof__handler_8hpp.html" target="_top" xlink:title=" ">
<polygon fill="white" stroke="#666666" points="634.5,-563.5 477.5,-563.5 477.5,-533.5 634.5,-533.5 634.5,-563.5"/>
<text text-anchor="start" x="485.5" y="-551.5" font-family="Helvetica,sans-Serif" font-size="10.00">/__w/vulpes/vulpes</text>
<text text-anchor="middle" x="556" y="-540.5" font-family="Helvetica,sans-Serif" font-size="10.00">/vulpes/dofs/dof_handler.hpp</text>
</a>
</g>
</g>
<!-- Node3&#45;&gt;Node8 -->
<g id="edge8_Node000003_Node000008" class="edge">
<title>Node3&#45;&gt;Node8</title>
<g id="a_edge8_Node000003_Node000008"><a xlink:title=" ">
<path fill="none" stroke="#63b8ff" d="M903.77,-611.02C827.78,-597.57 711.62,-577.03 634.76,-563.43"/>
<polygon fill="#63b8ff" stroke="#63b8ff" points="903.29,-614.49 913.75,-612.78 904.51,-607.59 903.29,-614.49"/>
</a>
</g>
</g>
<!-- Node11 -->
<g id="Node000011" class="node">
<title>Node11</title>
<g id="a_Node000011"><a xlink:href="fe__expr__base_8hpp.html" target="_top" xlink:title=" ">
<polygon fill="white" stroke="#666666" points="887.5,-492 746.5,-492 746.5,-451 887.5,-451 887.5,-492"/>
<text text-anchor="start" x="754.5" y="-480" font-family="Helvetica,sans-Serif" font-size="10.00">/__w/vulpes/vulpes</text>
<text text-anchor="start" x="754.5" y="-469" font-family="Helvetica,sans-Serif" font-size="10.00">/vulpes/fe/fe_expressions</text>
<text text-anchor="middle" x="817" y="-458" font-family="Helvetica,sans-Serif" font-size="10.00">/fe_expr_base.hpp</text>
</a>
</g>
</g>
<!-- Node3&#45;&gt;Node11 -->
<g id="edge11_Node000003_Node000011" class="edge">
<title>Node3&#45;&gt;Node11</title>
<g id="a_edge11_Node000003_Node000011"><a xlink:title=" ">
<path fill="none" stroke="#63b8ff" d="M949.13,-604.54C934.56,-594.56 917.29,-581.88 903,-569 876,-544.66 848.73,-512.48 832.35,-492.13"/>
<polygon fill="#63b8ff" stroke="#63b8ff" points="947.54,-607.69 957.79,-610.38 951.46,-601.89 947.54,-607.69"/>
</a>
</g>
</g>
<!-- Node15 -->
<g id="Node000015" class="node">
<title>Node15</title>
<g id="a_Node000015"><a xlink:href="fe__vem_8hpp.html" target="_top" xlink:title=" ">
<polygon fill="white" stroke="#666666" points="478,-272 362,-272 362,-231 478,-231 478,-272"/>
<text text-anchor="start" x="370" y="-260" font-family="Helvetica,sans-Serif" font-size="10.00">/__w/vulpes/vulpes</text>
<text text-anchor="start" x="370" y="-249" font-family="Helvetica,sans-Serif" font-size="10.00">/vulpes/fe/fe_spaces</text>
<text text-anchor="middle" x="420" y="-238" font-family="Helvetica,sans-Serif" font-size="10.00">/fe_vem.hpp</text>
</a>
</g>
</g>
<!-- Node3&#45;&gt;Node15 -->
<g id="edge34_Node000003_Node000015" class="edge">
<title>Node3&#45;&gt;Node15</title>
<g id="a_edge34_Node000003_Node000015"><a xlink:title=" ">
<path fill="none" stroke="#63b8ff" d="M903.44,-622.4C779.96,-617.98 543.1,-604.97 468,-569 413.44,-542.87 372,-533 372,-472.5 372,-472.5 372,-472.5 372,-393.5 372,-348.25 394.43,-298.97 408.62,-272.32"/>
<polygon fill="#63b8ff" stroke="#63b8ff" points="903.46,-625.9 913.58,-622.75 903.7,-618.9 903.46,-625.9"/>
</a>
</g>
</g>
<!-- Node19 -->
<g id="Node000019" class="node">
<title>Node19</title>
<g id="a_Node000019"><a xlink:href="fe__lagrange__simplex_8hpp.html" target="_top" xlink:title=" ">
<polygon fill="white" stroke="#666666" points="1364.5,-569 1221.5,-569 1221.5,-528 1364.5,-528 1364.5,-569"/>
<text text-anchor="start" x="1229.5" y="-557" font-family="Helvetica,sans-Serif" font-size="10.00">/__w/vulpes/vulpes</text>
<text text-anchor="start" x="1229.5" y="-546" font-family="Helvetica,sans-Serif" font-size="10.00">/vulpes/fe/fe_spaces</text>
<text text-anchor="middle" x="1293" y="-535" font-family="Helvetica,sans-Serif" font-size="10.00">/fe_lagrange_simplex.hpp</text>
</a>
</g>
</g>
<!-- Node3&#45;&gt;Node19 -->
<g id="edge27_Node000003_Node000019" class="edge">
<title>Node3&#45;&gt;Node19</title>
<g id="a_edge27_Node000003_Node000019"><a xlink:title=" ">
<path fill="none" stroke="#63b8ff" d="M1048.48,-608.09C1099.64,-595.83 1169.4,-579.12 1221.32,-566.68"/>
<polygon fill="#63b8ff" stroke="#63b8ff" points="1047.41,-604.75 1038.51,-610.48 1049.05,-611.55 1047.41,-604.75"/>
</a>
</g>
</g>
<!-- Node21 -->
<g id="Node000021" class="node">
<title>Node21</title>
<g id="a_Node000021"><a xlink:href="fe__lagrange__tensor_8hpp.html" target="_top" xlink:title=" ">
<polygon fill="white" stroke="#666666" points="1279,-492 1145,-492 1145,-451 1279,-451 1279,-492"/>
<text text-anchor="start" x="1153" y="-480" font-family="Helvetica,sans-Serif" font-size="10.00">/__w/vulpes/vulpes</text>
<text text-anchor="start" x="1153" y="-469" font-family="Helvetica,sans-Serif" font-size="10.00">/vulpes/fe/fe_spaces</text>
<text text-anchor="middle" x="1212" y="-458" font-family="Helvetica,sans-Serif" font-size="10.00">/fe_lagrange_tensor.hpp</text>
</a>
</g>
</g>
<!-- Node3&#45;&gt;Node21 -->
<g id="edge31_Node000003_Node000021" class="edge">
<title>Node3&#45;&gt;Node21</title>
<g id="a_edge31_Node000003_Node000021"><a xlink:title=" ">
<path fill="none" stroke="#63b8ff" d="M1049.16,-607.41C1076.22,-598.66 1106.57,-586.16 1131,-569 1160.71,-548.13 1185.95,-513.75 1200.02,-492.16"/>
<polygon fill="#63b8ff" stroke="#63b8ff" points="1047.86,-604.15 1039.35,-610.46 1049.94,-610.83 1047.86,-604.15"/>
</a>
</g>
</g>
<!-- Node22 -->
<g id="Node000022" class="node">
<title>Node22</title>
<g id="a_Node000022"><a xlink:href="fe__modal__simplex_8hpp.html" target="_top" xlink:title=" ">
<polygon fill="white" stroke="#666666" points="1428.5,-492 1297.5,-492 1297.5,-451 1428.5,-451 1428.5,-492"/>
<text text-anchor="start" x="1305.5" y="-480" font-family="Helvetica,sans-Serif" font-size="10.00">/__w/vulpes/vulpes</text>
<text text-anchor="start" x="1305.5" y="-469" font-family="Helvetica,sans-Serif" font-size="10.00">/vulpes/fe/fe_spaces</text>
<text text-anchor="middle" x="1363" y="-458" font-family="Helvetica,sans-Serif" font-size="10.00">/fe_modal_simplex.hpp</text>
</a>
</g>
</g>
<!-- Node3&#45;&gt;Node22 -->
<g id="edge32_Node000003_Node000022" class="edge">
<title>Node3&#45;&gt;Node22</title>
<g id="a_edge32_Node000003_Node000022"><a xlink:title=" ">
<path fill="none" stroke="#63b8ff" d="M1056.16,-609.93C1091.34,-601.22 1132.79,-588.06 1167,-569 1190.92,-555.67 1189.53,-542.11 1213,-528 1239.06,-512.34 1270.27,-499.92 1297.46,-490.84"/>
<polygon fill="#63b8ff" stroke="#63b8ff" points="1055.32,-606.53 1046.41,-612.27 1056.95,-613.34 1055.32,-606.53"/>
</a>
</g>
</g>
<!-- Node23 -->
<g id="Node000023" class="node">
<title>Node23</title>
<g id="a_Node000023"><a xlink:href="fe__modal__tensor_8hpp.html" target="_top" xlink:title=" ">
<polygon fill="white" stroke="#666666" points="306,-569 184,-569 184,-528 306,-528 306,-569"/>
<text text-anchor="start" x="192" y="-557" font-family="Helvetica,sans-Serif" font-size="10.00">/__w/vulpes/vulpes</text>
<text text-anchor="start" x="192" y="-546" font-family="Helvetica,sans-Serif" font-size="10.00">/vulpes/fe/fe_spaces</text>
<text text-anchor="middle" x="245" y="-535" font-family="Helvetica,sans-Serif" font-size="10.00">/fe_modal_tensor.hpp</text>
</a>
</g>
</g>
<!-- Node3&#45;&gt;Node23 -->
<g id="edge33_Node000003_Node000023" class="edge">
<title>Node3&#45;&gt;Node23</title>
<g id="a_edge33_Node000003_Node000023"><a xlink:title=" ">
<path fill="none" stroke="#63b8ff" d="M903.86,-622.31C780.46,-617.82 529.47,-604.77 320,-569 315.49,-568.23 310.86,-567.32 306.21,-566.32"/>
<polygon fill="#63b8ff" stroke="#63b8ff" points="903.84,-625.81 913.96,-622.67 904.09,-618.82 903.84,-625.81"/>
</a>
</g>
</g>
<!-- Node24 -->
<g id="Node000024" class="node">
<title>Node24</title>
<g id="a_Node000024"><a xlink:href="fe__values_8hpp.html" target="_top" xlink:title=" ">
<polygon fill="white" stroke="#666666" points="1048,-563.5 912,-563.5 912,-533.5 1048,-533.5 1048,-563.5"/>
<text text-anchor="start" x="920" y="-551.5" font-family="Helvetica,sans-Serif" font-size="10.00">/__w/vulpes/vulpes</text>
<text text-anchor="middle" x="980" y="-540.5" font-family="Helvetica,sans-Serif" font-size="10.00">/vulpes/fe/fe_values.hpp</text>
</a>
</g>
</g>
<!-- Node3&#45;&gt;Node24 -->
<g id="edge35_Node000003_Node000024" class="edge">
<title>Node3&#45;&gt;Node24</title>
<g id="a_edge35_Node000003_Node000024"><a xlink:title=" ">
<path fill="none" stroke="#63b8ff" d="M980,-600.04C980,-587.95 980,-573.79 980,-563.54"/>
<polygon fill="#63b8ff" stroke="#63b8ff" points="976.5,-600.39 980,-610.39 983.5,-600.39 976.5,-600.39"/>
</a>
</g>
</g>
<!-- Node6 -->
<g id="Node000006" class="node">
<title>Node6</title>
<g id="a_Node000006"><a xlink:href="integrator__vem_8hpp.html" target="_top" xlink:title=" ">
<polygon fill="white" stroke="#666666" points="1017.5,-41 864.5,-41 864.5,0 1017.5,0 1017.5,-41"/>
<text text-anchor="start" x="872.5" y="-29" font-family="Helvetica,sans-Serif" font-size="10.00">/__w/vulpes/vulpes</text>
<text text-anchor="start" x="872.5" y="-18" font-family="Helvetica,sans-Serif" font-size="10.00">/vulpes/assemble/integrator</text>
<text text-anchor="middle" x="941" y="-7" font-family="Helvetica,sans-Serif" font-size="10.00">_vem.hpp</text>
</a>
</g>
</g>
<!-- Node5&#45;&gt;Node6 -->
<g id="edge5_Node000005_Node000006" class="edge">
<title>Node5&#45;&gt;Node6</title>
<g id="a_edge5_Node000005_Node000006"><a xlink:title=" ">
<path fill="none" stroke="#63b8ff" d="M1058.1,-72.86C1034.75,-62.62 1007.75,-50.77 985.56,-41.04"/>
<polygon fill="#63b8ff" stroke="#63b8ff" points="1056.95,-76.18 1067.52,-76.99 1059.77,-69.77 1056.95,-76.18"/>
</a>
</g>
</g>
<!-- Node7&#45;&gt;Node6 -->
<g id="edge7_Node000007_Node000006" class="edge">
<title>Node7&#45;&gt;Node6</title>
<g id="a_edge7_Node000007_Node000006"><a xlink:title=" ">
<path fill="none" stroke="#63b8ff" d="M823.9,-72.86C847.25,-62.62 874.25,-50.77 896.44,-41.04"/>
<polygon fill="#63b8ff" stroke="#63b8ff" points="822.23,-69.77 814.48,-76.99 825.05,-76.18 822.23,-69.77"/>
</a>
</g>
</g>
<!-- Node9 -->
<g id="Node000009" class="node">
<title>Node9</title>
<g id="a_Node000009"><a xlink:href="dg__utils_8hpp.html" target="_top" xlink:title=" ">
<polygon fill="white" stroke="#666666" points="841.5,-272 724.5,-272 724.5,-231 841.5,-231 841.5,-272"/>
<text text-anchor="start" x="732.5" y="-260" font-family="Helvetica,sans-Serif" font-size="10.00">/__w/vulpes/vulpes</text>
<text text-anchor="start" x="732.5" y="-249" font-family="Helvetica,sans-Serif" font-size="10.00">/vulpes/assemble/dg</text>
<text text-anchor="middle" x="783" y="-238" font-family="Helvetica,sans-Serif" font-size="10.00">_utils.hpp</text>
</a>
</g>
</g>
<!-- Node8&#45;&gt;Node9 -->
<g id="edge9_Node000008_Node000009" class="edge">
<title>Node8&#45;&gt;Node9</title>
<g id="a_edge9_Node000008_Node000009"><a xlink:title=" ">
<path fill="none" stroke="#63b8ff" d="M557.63,-523.21C557.73,-501.7 554.39,-470.76 537,-451 503.57,-413.02 458.58,-456.05 429,-415 418.35,-400.22 418.41,-388.83 429,-374 496.49,-279.48 642.32,-257.72 724.19,-253.19"/>
<polygon fill="#63b8ff" stroke="#63b8ff" points="554.12,-523.38 557.32,-533.48 561.12,-523.59 554.12,-523.38"/>
</a>
</g>
</g>
<!-- Node10 -->
<g id="Node000010" class="node">
<title>Node10</title>
<g id="a_Node000010"><a xlink:href="project__solution_8hpp.html" target="_top" xlink:title=" ">
<polygon fill="white" stroke="#666666" points="528,-492 400,-492 400,-451 528,-451 528,-492"/>
<text text-anchor="start" x="408" y="-480" font-family="Helvetica,sans-Serif" font-size="10.00">/__w/vulpes/vulpes</text>
<text text-anchor="start" x="408" y="-469" font-family="Helvetica,sans-Serif" font-size="10.00">/vulpes/postprocessing</text>
<text text-anchor="middle" x="464" y="-458" font-family="Helvetica,sans-Serif" font-size="10.00">/project_solution.hpp</text>
</a>
</g>
</g>
<!-- Node8&#45;&gt;Node10 -->
<g id="edge10_Node000008_Node000010" class="edge">
<title>Node8&#45;&gt;Node10</title>
<g id="a_edge10_Node000008_Node000010"><a xlink:title=" ">
<path fill="none" stroke="#63b8ff" d="M530.85,-527C517.56,-516.16 501.32,-502.92 488.17,-492.2"/>
<polygon fill="#63b8ff" stroke="#63b8ff" points="528.73,-529.79 538.7,-533.39 533.16,-524.36 528.73,-529.79"/>
</a>
</g>
</g>
<!-- Node12 -->
<g id="Node000012" class="node">
<title>Node12</title>
<g id="a_Node000012"><a xlink:href="fe__expression_8hpp.html" target="_top" xlink:title=" ">
<polygon fill="white" stroke="#666666" points="810.5,-338 653.5,-338 653.5,-308 810.5,-308 810.5,-338"/>
<text text-anchor="start" x="661.5" y="-326" font-family="Helvetica,sans-Serif" font-size="10.00">/__w/vulpes/vulpes</text>
<text text-anchor="middle" x="732" y="-315" font-family="Helvetica,sans-Serif" font-size="10.00">/vulpes/fe/fe_expression.hpp</text>
</a>
</g>
</g>
<!-- Node11&#45;&gt;Node12 -->
<g id="edge12_Node000011_Node000012" class="edge">
<title>Node11&#45;&gt;Node12</title>
<g id="a_edge12_Node000011_Node000012"><a xlink:title=" ">
<path fill="none" stroke="#63b8ff" d="M800.5,-442.06C782.41,-410.88 754.1,-362.09 740.23,-338.18"/>
<polygon fill="#63b8ff" stroke="#63b8ff" points="797.49,-443.85 805.54,-450.74 803.55,-440.34 797.49,-443.85"/>
</a>
</g>
</g>
<!-- Node16 -->
<g id="Node000016" class="node">
<title>Node16</title>
<g id="a_Node000016"><a xlink:href="fe__expr__basis_8hpp.html" target="_top" xlink:title=" ">
<polygon fill="white" stroke="#666666" points="936.5,-415 795.5,-415 795.5,-374 936.5,-374 936.5,-415"/>
<text text-anchor="start" x="803.5" y="-403" font-family="Helvetica,sans-Serif" font-size="10.00">/__w/vulpes/vulpes</text>
<text text-anchor="start" x="803.5" y="-392" font-family="Helvetica,sans-Serif" font-size="10.00">/vulpes/fe/fe_expressions</text>
<text text-anchor="middle" x="866" y="-381" font-family="Helvetica,sans-Serif" font-size="10.00">/fe_expr_basis.hpp</text>
</a>
</g>
</g>
<!-- Node11&#45;&gt;Node16 -->
<g id="edge21_Node000011_Node000016" class="edge">
<title>Node11&#45;&gt;Node16</title>
<g id="a_edge21_Node000011_Node000016"><a xlink:title=" ">
<path fill="none" stroke="#63b8ff" d="M835.36,-442.39C841.31,-433.3 847.76,-423.41 853.21,-415.07"/>
<polygon fill="#63b8ff" stroke="#63b8ff" points="832.41,-440.51 829.87,-450.79 838.27,-444.34 832.41,-440.51"/>
</a>
</g>
</g>
<!-- Node17 -->
<g id="Node000017" class="node">
<title>Node17</title>
<g id="a_Node000017"><a xlink:href="fe__expr__func_8hpp.html" target="_top" xlink:title=" ">
<polygon fill="white" stroke="#666666" points="579.5,-415 438.5,-415 438.5,-374 579.5,-374 579.5,-415"/>
<text text-anchor="start" x="446.5" y="-403" font-family="Helvetica,sans-Serif" font-size="10.00">/__w/vulpes/vulpes</text>
<text text-anchor="start" x="446.5" y="-392" font-family="Helvetica,sans-Serif" font-size="10.00">/vulpes/fe/fe_expressions</text>
<text text-anchor="middle" x="509" y="-381" font-family="Helvetica,sans-Serif" font-size="10.00">/fe_expr_func.hpp</text>
</a>
</g>
</g>
<!-- Node11&#45;&gt;Node17 -->
<g id="edge23_Node000011_Node000017" class="edge">
<title>Node11&#45;&gt;Node17</title>
<g id="a_edge23_Node000011_Node000017"><a xlink:title=" ">
<path fill="none" stroke="#63b8ff" d="M736.56,-451.09C692.64,-440.47 637.32,-427.06 588,-415 585.26,-414.33 582.46,-413.64 579.63,-412.95"/>
<polygon fill="#63b8ff" stroke="#63b8ff" points="735.77,-454.5 746.32,-453.45 737.42,-447.7 735.77,-454.5"/>
</a>
</g>
</g>
<!-- Node18 -->
<g id="Node000018" class="node">
<title>Node18</title>
<g id="a_Node000018"><a xlink:href="fe__expr__op_8hpp.html" target="_top" xlink:title=" ">
<polygon fill="white" stroke="#666666" points="738.5,-415 597.5,-415 597.5,-374 738.5,-374 738.5,-415"/>
<text text-anchor="start" x="605.5" y="-403" font-family="Helvetica,sans-Serif" font-size="10.00">/__w/vulpes/vulpes</text>
<text text-anchor="start" x="605.5" y="-392" font-family="Helvetica,sans-Serif" font-size="10.00">/vulpes/fe/fe_expressions</text>
<text text-anchor="middle" x="668" y="-381" font-family="Helvetica,sans-Serif" font-size="10.00">/fe_expr_op.hpp</text>
</a>
</g>
</g>
<!-- Node11&#45;&gt;Node18 -->
<g id="edge25_Node000011_Node000018" class="edge">
<title>Node11&#45;&gt;Node18</title>
<g id="a_edge25_Node000011_Node000018"><a xlink:title=" ">
<path fill="none" stroke="#63b8ff" d="M769.22,-446.45C749.06,-436.3 725.9,-424.64 706.82,-415.04"/>
<polygon fill="#63b8ff" stroke="#63b8ff" points="767.74,-449.62 778.24,-450.99 770.88,-443.37 767.74,-449.62"/>
</a>
</g>
</g>
<!-- Node12&#45;&gt;Node9 -->
<g id="edge13_Node000012_Node000009" class="edge">
<title>Node12&#45;&gt;Node9</title>
<g id="a_edge13_Node000012_Node000009"><a xlink:title=" ">
<path fill="none" stroke="#63b8ff" d="M748.24,-299.86C754.8,-290.94 762.29,-280.72 768.64,-272.07"/>
<polygon fill="#63b8ff" stroke="#63b8ff" points="745.42,-297.8 742.32,-307.94 751.06,-301.94 745.42,-297.8"/>
</a>
</g>
</g>
<!-- Node13 -->
<g id="Node000013" class="node">
<title>Node13</title>
<g id="a_Node000013"><a xlink:href="integrator__base_8hpp.html" target="_top" xlink:title=" ">
<polygon fill="white" stroke="#666666" points="1014.5,-195 861.5,-195 861.5,-154 1014.5,-154 1014.5,-195"/>
<text text-anchor="start" x="869.5" y="-183" font-family="Helvetica,sans-Serif" font-size="10.00">/__w/vulpes/vulpes</text>
<text text-anchor="start" x="869.5" y="-172" font-family="Helvetica,sans-Serif" font-size="10.00">/vulpes/assemble/integrator</text>
<text text-anchor="middle" x="938" y="-161" font-family="Helvetica,sans-Serif" font-size="10.00">_base.hpp</text>
</a>
</g>
</g>
<!-- Node12&#45;&gt;Node13 -->
<g id="edge14_Node000012_Node000013" class="edge">
<title>Node12&#45;&gt;Node13</title>
<g id="a_edge14_Node000012_Node000013"><a xlink:title=" ">
<path fill="none" stroke="#63b8ff" d="M718.43,-298.72C708.78,-278.76 699.94,-250.26 715,-231 733.09,-207.86 804.15,-192.98 861.26,-184.51"/>
<polygon fill="#63b8ff" stroke="#63b8ff" points="715.42,-300.5 723.14,-307.75 721.62,-297.27 715.42,-300.5"/>
</a>
</g>
</g>
<!-- Node14 -->
<g id="Node000014" class="node">
<title>Node14</title>
<g id="a_Node000014"><a xlink:href="integrator__traits_8hpp.html" target="_top" xlink:title=" ">
<polygon fill="white" stroke="#666666" points="1012.5,-272 859.5,-272 859.5,-231 1012.5,-231 1012.5,-272"/>
<text text-anchor="start" x="867.5" y="-260" font-family="Helvetica,sans-Serif" font-size="10.00">/__w/vulpes/vulpes</text>
<text text-anchor="start" x="867.5" y="-249" font-family="Helvetica,sans-Serif" font-size="10.00">/vulpes/assemble/integrator</text>
<text text-anchor="middle" x="936" y="-238" font-family="Helvetica,sans-Serif" font-size="10.00">_traits.hpp</text>
</a>
</g>
</g>
<!-- Node12&#45;&gt;Node14 -->
<g id="edge18_Node000012_Node000014" class="edge">
<title>Node12&#45;&gt;Node14</title>
<g id="a_edge18_Node000012_Node000014"><a xlink:title=" ">
<path fill="none" stroke="#63b8ff" d="M782.83,-304.68C811.9,-294.78 848.44,-282.33 878.55,-272.07"/>
<polygon fill="#63b8ff" stroke="#63b8ff" points="781.62,-301.4 773.28,-307.94 783.88,-308.02 781.62,-301.4"/>
</a>
</g>
</g>
<!-- Node12&#45;&gt;Node15 -->
<g id="edge20_Node000012_Node000015" class="edge">
<title>Node12&#45;&gt;Node15</title>
<g id="a_edge20_Node000012_Node000015"><a xlink:title=" ">
<path fill="none" stroke="#63b8ff" d="M658.8,-305.69C603.67,-293.41 529.1,-276.8 478.04,-265.43"/>
<polygon fill="#63b8ff" stroke="#63b8ff" points="658.34,-309.18 668.86,-307.94 659.86,-302.35 658.34,-309.18"/>
</a>
</g>
</g>
<!-- Node13&#45;&gt;Node4 -->
<g id="edge15_Node000013_Node000004" class="edge">
<title>Node13&#45;&gt;Node4</title>
<g id="a_edge15_Node000013_Node000004"><a xlink:title=" ">
<path fill="none" stroke="#63b8ff" d="M939.19,-143.69C939.54,-135.08 939.9,-125.9 940.22,-118.07"/>
<polygon fill="#63b8ff" stroke="#63b8ff" points="935.69,-143.66 938.79,-153.79 942.69,-143.94 935.69,-143.66"/>
</a>
</g>
</g>
<!-- Node13&#45;&gt;Node5 -->
<g id="edge16_Node000013_Node000005" class="edge">
<title>Node13&#45;&gt;Node5</title>
<g id="a_edge16_Node000013_Node000005"><a xlink:title=" ">
<path fill="none" stroke="#63b8ff" d="M992.53,-150C1016.36,-139.72 1043.98,-127.82 1066.66,-118.04"/>
<polygon fill="#63b8ff" stroke="#63b8ff" points="991.06,-146.82 983.26,-153.99 993.83,-153.25 991.06,-146.82"/>
</a>
</g>
</g>
<!-- Node13&#45;&gt;Node7 -->
<g id="edge17_Node000013_Node000007" class="edge">
<title>Node13&#45;&gt;Node7</title>
<g id="a_edge17_Node000013_Node000007"><a xlink:title=" ">
<path fill="none" stroke="#63b8ff" d="M885.04,-149.86C862.11,-139.62 835.57,-127.77 813.77,-118.04"/>
<polygon fill="#63b8ff" stroke="#63b8ff" points="883.74,-153.11 894.3,-153.99 886.59,-146.72 883.74,-153.11"/>
</a>
</g>
</g>
<!-- Node14&#45;&gt;Node13 -->
<g id="edge19_Node000014_Node000013" class="edge">
<title>Node14&#45;&gt;Node13</title>
<g id="a_edge19_Node000014_Node000013"><a xlink:title=" ">
<path fill="none" stroke="#63b8ff" d="M936.79,-220.69C937.02,-212.08 937.27,-202.9 937.48,-195.07"/>
<polygon fill="#63b8ff" stroke="#63b8ff" points="933.29,-220.7 936.53,-230.79 940.29,-220.89 933.29,-220.7"/>
</a>
</g>
</g>
<!-- Node16&#45;&gt;Node12 -->
<g id="edge22_Node000016_Node000012" class="edge">
<title>Node16&#45;&gt;Node12</title>
<g id="a_edge22_Node000016_Node000012"><a xlink:title=" ">
<path fill="none" stroke="#63b8ff" d="M819.31,-369.28C799.23,-358.87 776.46,-347.06 759.21,-338.11"/>
<polygon fill="#63b8ff" stroke="#63b8ff" points="817.83,-372.46 828.32,-373.96 821.05,-366.24 817.83,-372.46"/>
</a>
</g>
</g>
<!-- Node17&#45;&gt;Node12 -->
<g id="edge24_Node000017_Node000012" class="edge">
<title>Node17&#45;&gt;Node12</title>
<g id="a_edge24_Node000017_Node000012"><a xlink:title=" ">
<path fill="none" stroke="#63b8ff" d="M581.36,-370.95C616.16,-360.1 656.78,-347.44 687.07,-338"/>
<polygon fill="#63b8ff" stroke="#63b8ff" points="580.22,-367.64 571.71,-373.96 582.3,-374.32 580.22,-367.64"/>
</a>
</g>
</g>
<!-- Node18&#45;&gt;Node12 -->
<g id="edge26_Node000018_Node000012" class="edge">
<title>Node18&#45;&gt;Node12</title>
<g id="a_edge26_Node000018_Node000012"><a xlink:title=" ">
<path fill="none" stroke="#63b8ff" d="M693.08,-366.26C701.97,-356.61 711.61,-346.14 719.07,-338.04"/>
<polygon fill="#63b8ff" stroke="#63b8ff" points="690.37,-364.04 686.17,-373.77 695.52,-368.78 690.37,-364.04"/>
</a>
</g>
</g>
<!-- Node20 -->
<g id="Node000020" class="node">
<title>Node20</title>
<g id="a_Node000020"><a xlink:href="fe__lagrange__simplex_8cpp.html" target="_top" xlink:title=" ">
<polygon fill="white" stroke="#666666" points="1589,-492 1447,-492 1447,-451 1589,-451 1589,-492"/>
<text text-anchor="start" x="1455" y="-480" font-family="Helvetica,sans-Serif" font-size="10.00">/__w/vulpes/vulpes</text>
<text text-anchor="start" x="1455" y="-469" font-family="Helvetica,sans-Serif" font-size="10.00">/vulpes/fe/fe_spaces</text>
<text text-anchor="middle" x="1518" y="-458" font-family="Helvetica,sans-Serif" font-size="10.00">/fe_lagrange_simplex.cpp</text>
</a>
</g>
</g>
<!-- Node19&#45;&gt;Node20 -->
<g id="edge28_Node000019_Node000020" class="edge">
<title>Node19&#45;&gt;Node20</title>
<g id="a_edge28_Node000019_Node000020"><a xlink:title=" ">
<path fill="none" stroke="#63b8ff" d="M1361.07,-524.81C1392.43,-514.36 1429.27,-502.08 1459.37,-492.04"/>
<polygon fill="#63b8ff" stroke="#63b8ff" points="1359.91,-521.51 1351.53,-527.99 1362.12,-528.15 1359.91,-521.51"/>
</a>
</g>
</g>
<!-- Node19&#45;&gt;Node21 -->
<g id="edge29_Node000019_Node000021" class="edge">
<title>Node19&#45;&gt;Node21</title>
<g id="a_edge29_Node000019_Node000021"><a xlink:title=" ">
<path fill="none" stroke="#63b8ff" d="M1264.15,-520.79C1253.92,-511.32 1242.61,-500.84 1233.14,-492.07"/>
<polygon fill="#63b8ff" stroke="#63b8ff" points="1262,-523.57 1271.72,-527.79 1266.76,-518.43 1262,-523.57"/>
</a>
</g>
</g>
<!-- Node19&#45;&gt;Node22 -->
<g id="edge30_Node000019_Node000022" class="edge">
<title>Node19&#45;&gt;Node22</title>
<g id="a_edge30_Node000019_Node000022"><a xlink:title=" ">
<path fill="none" stroke="#63b8ff" d="M1318.45,-520.23C1327.15,-510.91 1336.71,-500.67 1344.73,-492.07"/>
<polygon fill="#63b8ff" stroke="#63b8ff" points="1315.66,-518.1 1311.39,-527.79 1320.77,-522.87 1315.66,-518.1"/>
</a>
</g>
</g>
<!-- Node24&#45;&gt;Node9 -->
<g id="edge36_Node000024_Node000009" class="edge">
<title>Node24&#45;&gt;Node9</title>
<g id="a_edge36_Node000024_Node000009"><a xlink:title=" ">
<path fill="none" stroke="#63b8ff" d="M980.38,-522.81C979.81,-487.22 974.46,-420.66 945,-374 915.53,-327.33 861.28,-292.2 823.72,-272.02"/>
<polygon fill="#63b8ff" stroke="#63b8ff" points="976.88,-523.23 980.42,-533.22 983.88,-523.2 976.88,-523.23"/>
</a>
</g>
</g>
<!-- Node24&#45;&gt;Node11 -->
<g id="edge39_Node000024_Node000011" class="edge">
<title>Node24&#45;&gt;Node11</title>
<g id="a_edge39_Node000024_Node000011"><a xlink:title=" ">
<path fill="none" stroke="#63b8ff" d="M940.01,-529.1C915.58,-517.86 884.38,-503.5 859.52,-492.06"/>
<polygon fill="#63b8ff" stroke="#63b8ff" points="938.79,-532.39 949.34,-533.39 941.72,-526.03 938.79,-532.39"/>
</a>
</g>
</g>
<!-- Node24&#45;&gt;Node13 -->
<g id="edge37_Node000024_Node000013" class="edge">
<title>Node24&#45;&gt;Node13</title>
<g id="a_edge37_Node000024_Node000013"><a xlink:title=" ">
<path fill="none" stroke="#63b8ff" d="M995.57,-524.66C1013.64,-495.88 1041,-444.25 1041,-395.5 1041,-395.5 1041,-395.5 1041,-322 1041,-280.59 1044.34,-265.2 1021,-231 1010.84,-216.11 995.23,-204.16 980.29,-195.21"/>
<polygon fill="#63b8ff" stroke="#63b8ff" points="992.56,-522.87 990.07,-533.17 998.44,-526.67 992.56,-522.87"/>
</a>
</g>
</g>
<!-- Node24&#45;&gt;Node14 -->
<g id="edge38_Node000024_Node000014" class="edge">
<title>Node24&#45;&gt;Node14</title>
<g id="a_edge38_Node000024_Node000014"><a xlink:title=" ">
<path fill="none" stroke="#63b8ff" d="M984.86,-523.42C992.71,-479.28 1004.84,-383.02 979,-308 974.4,-294.63 965.14,-281.98 956.38,-272.15"/>
<polygon fill="#63b8ff" stroke="#63b8ff" points="981.38,-523.01 982.98,-533.48 988.26,-524.29 981.38,-523.01"/>
</a>
</g>
</g>
<!-- Node25&#45;&gt;Node23 -->
<g id="edge42_Node000025_Node000023" class="edge">
<title>Node25&#45;&gt;Node23</title>
<g id="a_edge42_Node000025_Node000023"><a xlink:title=" ">
<path fill="none" stroke="#63b8ff" d="M339.28,-671.64C337.55,-651.44 332.74,-624.91 320,-605 310.66,-590.4 296.03,-578.31 282.15,-569.18"/>
<polygon fill="#63b8ff" stroke="#63b8ff" points="335.81,-672.1 339.95,-681.85 342.79,-671.64 335.81,-672.1"/>
</a>
</g>
</g>
<!-- Node26 -->
<g id="Node000026" class="node">
<title>Node26</title>
<g id="a_Node000026"><a xlink:href="ndpolynomial_8hpp.html" target="_top" xlink:title=" ">
<polygon fill="white" stroke="#666666" points="1350.5,-646 1235.5,-646 1235.5,-605 1350.5,-605 1350.5,-646"/>
<text text-anchor="start" x="1243.5" y="-634" font-family="Helvetica,sans-Serif" font-size="10.00">/__w/vulpes/vulpes</text>
<text text-anchor="start" x="1243.5" y="-623" font-family="Helvetica,sans-Serif" font-size="10.00">/vulpes/polynomials</text>
<text text-anchor="middle" x="1293" y="-612" font-family="Helvetica,sans-Serif" font-size="10.00">/ndpolynomial.hpp</text>
</a>
</g>
</g>
<!-- Node25&#45;&gt;Node26 -->
<g id="edge43_Node000025_Node000026" class="edge">
<title>Node25&#45;&gt;Node26</title>
<g id="a_edge43_Node000025_Node000026"><a xlink:title=" ">
<path fill="none" stroke="#63b8ff" d="M407.91,-696.33C534.96,-686.62 817.25,-664.97 1055,-646 1116.58,-641.09 1187.1,-635.29 1235.29,-631.3"/>
<polygon fill="#63b8ff" stroke="#63b8ff" points="407.64,-692.84 397.93,-697.09 408.17,-699.82 407.64,-692.84"/>
</a>
</g>
</g>
<!-- Node27 -->
<g id="Node000027" class="node">
<title>Node27</title>
<g id="a_Node000027"><a xlink:href="sparse__polynomial_8hpp.html" target="_top" xlink:title=" ">
<polygon fill="white" stroke="#666666" points="311.5,-646 178.5,-646 178.5,-605 311.5,-605 311.5,-646"/>
<text text-anchor="start" x="186.5" y="-634" font-family="Helvetica,sans-Serif" font-size="10.00">/__w/vulpes/vulpes</text>
<text text-anchor="start" x="186.5" y="-623" font-family="Helvetica,sans-Serif" font-size="10.00">/vulpes/polynomials</text>
<text text-anchor="middle" x="245" y="-612" font-family="Helvetica,sans-Serif" font-size="10.00">/sparse_polynomial.hpp</text>
</a>
</g>
</g>
<!-- Node25&#45;&gt;Node27 -->
<g id="edge47_Node000025_Node000027" class="edge">
<title>Node25&#45;&gt;Node27</title>
<g id="a_edge47_Node000025_Node000027"><a xlink:title=" ">
<path fill="none" stroke="#63b8ff" d="M306.87,-675.35C294.69,-665.73 281.12,-655.01 269.79,-646.07"/>
<polygon fill="#63b8ff" stroke="#63b8ff" points="305.02,-678.35 315.04,-681.79 309.36,-672.85 305.02,-678.35"/>
</a>
</g>
</g>
<!-- Node28 -->
<g id="Node000028" class="node">
<title>Node28</title>
<g id="a_Node000028"><a xlink:href="gauss_8cpp.html" target="_top" xlink:title=" ">
<polygon fill="white" stroke="#666666" points="160,-640.5 0,-640.5 0,-610.5 160,-610.5 160,-640.5"/>
<text text-anchor="start" x="8" y="-628.5" font-family="Helvetica,sans-Serif" font-size="10.00">/__w/vulpes/vulpes</text>
<text text-anchor="middle" x="80" y="-617.5" font-family="Helvetica,sans-Serif" font-size="10.00">/vulpes/quadrature/gauss.cpp</text>
</a>
</g>
</g>
<!-- Node25&#45;&gt;Node28 -->
<g id="edge50_Node000025_Node000028" class="edge">
<title>Node25&#45;&gt;Node28</title>
<g id="a_edge50_Node000025_Node000028"><a xlink:title=" ">
<path fill="none" stroke="#63b8ff" d="M272.61,-682.06C227.58,-669.07 169.39,-652.29 128.81,-640.58"/>
<polygon fill="#63b8ff" stroke="#63b8ff" points="271.72,-685.45 282.3,-684.86 273.66,-678.72 271.72,-685.45"/>
</a>
</g>
</g>
<!-- Node26&#45;&gt;Node19 -->
<g id="edge45_Node000026_Node000019" class="edge">
<title>Node26&#45;&gt;Node19</title>
<g id="a_edge45_Node000026_Node000019"><a xlink:title=" ">
<path fill="none" stroke="#63b8ff" d="M1293,-594.69C1293,-586.08 1293,-576.9 1293,-569.07"/>
<polygon fill="#63b8ff" stroke="#63b8ff" points="1289.5,-594.79 1293,-604.79 1296.5,-594.79 1289.5,-594.79"/>
</a>
</g>
</g>
<!-- Node26&#45;&gt;Node20 -->
<g id="edge44_Node000026_Node000020" class="edge">
<title>Node26&#45;&gt;Node20</title>
<g id="a_edge44_Node000026_Node000020"><a xlink:title=" ">
<path fill="none" stroke="#63b8ff" d="M1339.43,-599.88C1356,-590.67 1374.61,-579.8 1391,-569 1428.23,-544.47 1468.86,-512.63 1493.89,-492.37"/>
<polygon fill="#63b8ff" stroke="#63b8ff" points="1337.53,-596.93 1330.47,-604.83 1340.91,-603.06 1337.53,-596.93"/>
</a>
</g>
</g>
<!-- Node26&#45;&gt;Node22 -->
<g id="edge46_Node000026_Node000022" class="edge">
<title>Node26&#45;&gt;Node22</title>
<g id="a_edge46_Node000026_Node000022"><a xlink:title=" ">
<path fill="none" stroke="#63b8ff" d="M1345.66,-599.36C1357.02,-591.32 1367.54,-581.26 1374,-569 1386.74,-544.83 1378.95,-512.61 1371.51,-492.2"/>
<polygon fill="#63b8ff" stroke="#63b8ff" points="1343.74,-596.44 1337.3,-604.85 1347.58,-602.29 1343.74,-596.44"/>
</a>
</g>
</g>
<!-- Node27&#45;&gt;Node15 -->
<g id="edge49_Node000027_Node000015" class="edge">
<title>Node27&#45;&gt;Node15</title>
<g id="a_edge49_Node000027_Node000015"><a xlink:title=" ">
<path fill="none" stroke="#63b8ff" d="M202.89,-598.9C192.32,-590.59 182.01,-580.5 175,-569 152.25,-531.68 156,-516.21 156,-472.5 156,-472.5 156,-472.5 156,-393.5 156,-300.88 283.99,-268.88 361.74,-257.99"/>
<polygon fill="#63b8ff" stroke="#63b8ff" points="200.85,-601.74 210.97,-604.9 205.03,-596.12 200.85,-601.74"/>
</a>
</g>
</g>
<!-- Node27&#45;&gt;Node23 -->
<g id="edge48_Node000027_Node000023" class="edge">
<title>Node27&#45;&gt;Node23</title>
<g id="a_edge48_Node000027_Node000023"><a xlink:title=" ">
<path fill="none" stroke="#63b8ff" d="M245,-594.69C245,-586.08 245,-576.9 245,-569.07"/>
<polygon fill="#63b8ff" stroke="#63b8ff" points="241.5,-594.79 245,-604.79 248.5,-594.79 241.5,-594.79"/>
</a>
</g>
</g>
<!-- Node29&#45;&gt;Node26 -->
<g id="edge52_Node000029_Node000026" class="edge">
<title>Node29&#45;&gt;Node26</title>
<g id="a_edge52_Node000029_Node000026"><a xlink:title=" ">
<path fill="none" stroke="#63b8ff" d="M1203.59,-676.92C1221.28,-666.95 1241.43,-655.58 1258.11,-646.17"/>
<polygon fill="#63b8ff" stroke="#63b8ff" points="1201.59,-674.03 1194.6,-681.99 1205.03,-680.13 1201.59,-674.03"/>
</a>
</g>
</g>
<!-- Node30&#45;&gt;Node26 -->
<g id="edge54_Node000030_Node000026" class="edge">
<title>Node30&#45;&gt;Node26</title>
<g id="a_edge54_Node000030_Node000026"><a xlink:title=" ">
<path fill="none" stroke="#63b8ff" d="M1293,-671.69C1293,-663.08 1293,-653.9 1293,-646.07"/>
<polygon fill="#63b8ff" stroke="#63b8ff" points="1289.5,-671.79 1293,-681.79 1296.5,-671.79 1289.5,-671.79"/>
</a>
</g>
</g>
</g>
</svg>

<g id="navigator" transform="translate(0 0)" fill="#404254">
  <rect fill="#f2f5e9" fill-opacity="0.5" stroke="#606060" stroke-width=".5" x="0" y="0" width="60" height="60"/>
  <use id="zoomplus" xlink:href="#zoomPlus" x="17" y="9" onmousedown="handleZoom(evt,'in')"/>
  <use id="zoomminus" xlink:href="#zoomMin" x="42" y="9" onmousedown="handleZoom(evt,'out')"/>
  <use id="reset" xlink:href="#resetDef" x="30" y="36" onmousedown="handleReset()"/>
   <use id="arrowup" xlink:href="#arrowUp" x="0" y="0" onmousedown="handlePan(0,-1)"/>
  <use id="arrowright" xlink:href="#arrowRight" x="0" y="0" onmousedown="handlePan(1,0)"/>
  <use id="arrowdown" xlink:href="#arrowDown" x="0" y="0" onmousedown="handlePan(0,1)"/>
  <use id="arrowleft" xlink:href="#arrowLeft" x="0" y="0" onmousedown="handlePan(-1,0)"/>
</g>
<svg viewBox="0 0 15 15" width="100%" height="30px" preserveAspectRatio="xMaxYMin meet">
 <g id="arrow_out" transform="scale(0.3 0.3)">
  <a xlink:href="polynomial_8hpp__dep__incl_org.svg" target="_base">
   <rect id="button" ry="5" rx="5" y="6" x="6" height="38" width="38"
        fill="#f2f5e9" fill-opacity="0.5" stroke="#606060" stroke-width="1.0"/>
   <path id="arrow"
     d="M 11.500037,31.436501 C 11.940474,20.09759 22.043105,11.32322 32.158766,21.979434 L 37.068811,17.246167 C 37.068811,17.246167 37.088388,32 37.088388,32 L 22.160133,31.978069 C 22.160133,31.978069 26.997745,27.140456 26.997745,27.140456 C 18.528582,18.264221 13.291696,25.230495 11.500037,31.436501 z"
     style="fill:#404040;"/>
  </a>
 </g>
</svg>

<style type='text/css'>
<![CDATA[
[data-mouse-over-selected='false'] { opacity: 0.7; }
[data-mouse-over-selected='true']  { opacity: 1.0; }
]]>
</style>
<script type="application/ecmascript"><![CDATA[
document.addEventListener('DOMContentLoaded', (event) => {
  highlightEdges();
  highlightAdjacentNodes();
});
]]></script>
</svg>
