<?xml version="1.0" encoding="UTF-8" standalone="no"?>
<!DOCTYPE svg PUBLIC "-//W3C//DTD SVG 1.1//EN"
 "http://www.w3.org/Graphics/SVG/1.1/DTD/svg11.dtd">
<!-- Generated by graphviz version 2.42.4 (0)
 -->
<!-- Title: /__w/vulpes/vulpes/vulpes/utils/profiler.cpp Pages: 1 -->
<svg width="604pt" height="148pt"
 viewBox="0.00 0.00 603.50 148.00" xmlns="http://www.w3.org/2000/svg" xmlns:xlink="http://www.w3.org/1999/xlink">
<g id="graph0" class="graph" transform="scale(1 1) rotate(0) translate(4 144)">
<title>/__w/vulpes/vulpes/vulpes/utils/profiler.cpp</title>
<!-- Node1 -->
<g id="Node000001" class="node">
<title>Node1</title>
<g id="a_Node000001"><a xlink:title=" ">
<polygon fill="#999999" stroke="#666666" points="343.5,-140 210.5,-140 210.5,-110 343.5,-110 343.5,-140"/>
<text text-anchor="start" x="218.5" y="-128" font-family="Helvetica,sans-Serif" font-size="10.00">/__w/vulpes/vulpes</text>
<text text-anchor="middle" x="277" y="-117" font-family="Helvetica,sans-Serif" font-size="10.00">/vulpes/utils/profiler.cpp</text>
</a>
</g>
</g>
<!-- Node2 -->
<g id="Node000002" class="node">
<title>Node2</title>
<g id="a_Node000002"><a xlink:href="profiler_8hpp.html" target="_top" xlink:title=" ">
<polygon fill="white" stroke="#666666" points="342.5,-74 211.5,-74 211.5,-55 342.5,-55 342.5,-74"/>
<text text-anchor="middle" x="277" y="-62" font-family="Helvetica,sans-Serif" font-size="10.00">vulpes/utils/profiler.hpp</text>
</a>
</g>
</g>
<!-- Node1&#45;&gt;Node2 -->
<g id="edge1_Node000001_Node000002" class="edge">
<title>Node1&#45;&gt;Node2</title>
<g id="a_edge1_Node000001_Node000002"><a xlink:title=" ">
<path fill="none" stroke="#63b8ff" d="M277,-109.84C277,-102.21 277,-92.7 277,-84.45"/>
<polygon fill="#63b8ff" stroke="#63b8ff" points="280.5,-84.27 277,-74.27 273.5,-84.27 280.5,-84.27"/>
</a>
</g>
</g>
<!-- Node4 -->
<g id="Node000004" class="node">
<title>Node4</title>
<g id="a_Node000004"><a xlink:title=" ">
<polygon fill="#e0e0e0" stroke="#999999" points="50,-19 0,-19 0,0 50,0 50,-19"/>
<text text-anchor="middle" x="25" y="-7" font-family="Helvetica,sans-Serif" font-size="10.00">chrono</text>
</a>
</g>
</g>
<!-- Node1&#45;&gt;Node4 -->
<g id="edge10_Node000001_Node000004" class="edge">
<title>Node1&#45;&gt;Node4</title>
<g id="a_edge10_Node000001_Node000004"><a xlink:title=" ">
<path fill="none" stroke="#63b8ff" d="M245.85,-109.97C196.55,-87.76 101.27,-44.85 53.61,-23.38"/>
<polygon fill="#63b8ff" stroke="#63b8ff" points="54.75,-20.06 44.19,-19.14 51.87,-26.44 54.75,-20.06"/>
</a>
</g>
</g>
<!-- Node5 -->
<g id="Node000005" class="node">
<title>Node5</title>
<g id="a_Node000005"><a xlink:title=" ">
<polygon fill="#e0e0e0" stroke="#999999" points="121.5,-19 68.5,-19 68.5,0 121.5,0 121.5,-19"/>
<text text-anchor="middle" x="95" y="-7" font-family="Helvetica,sans-Serif" font-size="10.00">cstddef</text>
</a>
</g>
</g>
<!-- Node1&#45;&gt;Node5 -->
<g id="edge11_Node000001_Node000005" class="edge">
<title>Node1&#45;&gt;Node5</title>
<g id="a_edge11_Node000001_Node000005"><a xlink:title=" ">
<path fill="none" stroke="#63b8ff" d="M254.32,-109.85C219.33,-88.03 152.58,-46.41 117.63,-24.61"/>
<polygon fill="#63b8ff" stroke="#63b8ff" points="119.4,-21.59 109.06,-19.27 115.7,-27.53 119.4,-21.59"/>
</a>
</g>
</g>
<!-- Node8 -->
<g id="Node000008" class="node">
<title>Node8</title>
<g id="a_Node000008"><a xlink:title=" ">
<polygon fill="#e0e0e0" stroke="#999999" points="484,-19 440,-19 440,0 484,0 484,-19"/>
<text text-anchor="middle" x="462" y="-7" font-family="Helvetica,sans-Serif" font-size="10.00">string</text>
</a>
</g>
</g>
<!-- Node1&#45;&gt;Node8 -->
<g id="edge12_Node000001_Node000008" class="edge">
<title>Node1&#45;&gt;Node8</title>
<g id="a_edge12_Node000001_Node000008"><a xlink:title=" ">
<path fill="none" stroke="#63b8ff" d="M300.06,-109.85C335.62,-88.03 403.47,-46.41 439,-24.61"/>
<polygon fill="#63b8ff" stroke="#63b8ff" points="441.01,-27.48 447.7,-19.27 437.35,-21.52 441.01,-27.48"/>
</a>
</g>
</g>
<!-- Node9 -->
<g id="Node000009" class="node">
<title>Node9</title>
<g id="a_Node000009"><a xlink:title=" ">
<polygon fill="#e0e0e0" stroke="#999999" points="595.5,-19 502.5,-19 502.5,0 595.5,0 595.5,-19"/>
<text text-anchor="middle" x="549" y="-7" font-family="Helvetica,sans-Serif" font-size="10.00">unordered_map</text>
</a>
</g>
</g>
<!-- Node1&#45;&gt;Node9 -->
<g id="edge13_Node000001_Node000009" class="edge">
<title>Node1&#45;&gt;Node9</title>
<g id="a_edge13_Node000001_Node000009"><a xlink:title=" ">
<path fill="none" stroke="#63b8ff" d="M310.63,-109.97C364.06,-87.67 467.54,-44.49 518.77,-23.12"/>
<polygon fill="#63b8ff" stroke="#63b8ff" points="520.4,-26.23 528.28,-19.14 517.71,-19.77 520.4,-26.23"/>
</a>
</g>
</g>
<!-- Node3 -->
<g id="Node000003" class="node">
<title>Node3</title>
<g id="a_Node000003"><a xlink:title=" ">
<polygon fill="#e0e0e0" stroke="#999999" points="204,-19 140,-19 140,0 204,0 204,-19"/>
<text text-anchor="middle" x="172" y="-7" font-family="Helvetica,sans-Serif" font-size="10.00">algorithm</text>
</a>
</g>
</g>
<!-- Node2&#45;&gt;Node3 -->
<g id="edge2_Node000002_Node000003" class="edge">
<title>Node2&#45;&gt;Node3</title>
<g id="a_edge2_Node000002_Node000003"><a xlink:title=" ">
<path fill="none" stroke="#63b8ff" d="M260.13,-54.98C243.39,-46.54 217.5,-33.47 198.11,-23.68"/>
<polygon fill="#63b8ff" stroke="#63b8ff" points="199.68,-20.55 189.18,-19.17 196.53,-26.8 199.68,-20.55"/>
</a>
</g>
</g>
<!-- Node2&#45;&gt;Node4 -->
<g id="edge3_Node000002_Node000004" class="edge">
<title>Node2&#45;&gt;Node4</title>
<g id="a_edge3_Node000002_Node000004"><a xlink:title=" ">
<path fill="none" stroke="#63b8ff" d="M232.2,-54.95C190.2,-46.8 125.42,-33.89 60.26,-19.21"/>
<polygon fill="#63b8ff" stroke="#63b8ff" points="60.75,-15.73 50.22,-16.94 59.2,-22.56 60.75,-15.73"/>
</a>
</g>
</g>
<!-- Node2&#45;&gt;Node5 -->
<g id="edge4_Node000002_Node000005" class="edge">
<title>Node2&#45;&gt;Node5</title>
<g id="a_edge4_Node000002_Node000005"><a xlink:title=" ">
<path fill="none" stroke="#63b8ff" d="M247.76,-54.98C216.02,-45.74 165.32,-30.98 131.12,-21.02"/>
<polygon fill="#63b8ff" stroke="#63b8ff" points="132.09,-17.65 121.51,-18.22 130.13,-24.38 132.09,-17.65"/>
</a>
</g>
</g>
<!-- Node6 -->
<g id="Node000006" class="node">
<title>Node6</title>
<g id="a_Node000006"><a xlink:title=" ">
<polygon fill="#e0e0e0" stroke="#999999" points="278,-19 222,-19 222,0 278,0 278,-19"/>
<text text-anchor="middle" x="250" y="-7" font-family="Helvetica,sans-Serif" font-size="10.00">iomanip</text>
</a>
</g>
</g>
<!-- Node2&#45;&gt;Node6 -->
<g id="edge5_Node000002_Node000006" class="edge">
<title>Node2&#45;&gt;Node6</title>
<g id="a_edge5_Node000002_Node000006"><a xlink:title=" ">
<path fill="none" stroke="#63b8ff" d="M272.54,-54.75C268.88,-47.57 263.59,-37.18 259.05,-28.27"/>
<polygon fill="#63b8ff" stroke="#63b8ff" points="262.03,-26.41 254.38,-19.09 255.8,-29.59 262.03,-26.41"/>
</a>
</g>
</g>
<!-- Node7 -->
<g id="Node000007" class="node">
<title>Node7</title>
<g id="a_Node000007"><a xlink:title=" ">
<polygon fill="#e0e0e0" stroke="#999999" points="356,-19 296,-19 296,0 356,0 356,-19"/>
<text text-anchor="middle" x="326" y="-7" font-family="Helvetica,sans-Serif" font-size="10.00">iostream</text>
</a>
</g>
</g>
<!-- Node2&#45;&gt;Node7 -->
<g id="edge6_Node000002_Node000007" class="edge">
<title>Node2&#45;&gt;Node7</title>
<g id="a_edge6_Node000002_Node000007"><a xlink:title=" ">
<path fill="none" stroke="#63b8ff" d="M285.09,-54.75C292.16,-47.11 302.59,-35.82 311.15,-26.56"/>
<polygon fill="#63b8ff" stroke="#63b8ff" points="313.84,-28.81 318.06,-19.09 308.7,-24.06 313.84,-28.81"/>
</a>
</g>
</g>
<!-- Node2&#45;&gt;Node8 -->
<g id="edge7_Node000002_Node000008" class="edge">
<title>Node2&#45;&gt;Node8</title>
<g id="a_edge7_Node000002_Node000008"><a xlink:title=" ">
<path fill="none" stroke="#63b8ff" d="M306.72,-54.98C340.56,-45.29 395.62,-29.52 430.27,-19.59"/>
<polygon fill="#63b8ff" stroke="#63b8ff" points="431.25,-22.95 439.9,-16.83 429.32,-16.22 431.25,-22.95"/>
</a>
</g>
</g>
<!-- Node2&#45;&gt;Node9 -->
<g id="edge8_Node000002_Node000009" class="edge">
<title>Node2&#45;&gt;Node9</title>
<g id="a_edge8_Node000002_Node000009"><a xlink:title=" ">
<path fill="none" stroke="#63b8ff" d="M320.7,-54.98C368.15,-45.74 443.97,-30.97 495.08,-21.01"/>
<polygon fill="#63b8ff" stroke="#63b8ff" points="495.81,-24.43 504.96,-19.08 494.47,-17.56 495.81,-24.43"/>
</a>
</g>
</g>
<!-- Node10 -->
<g id="Node000010" class="node">
<title>Node10</title>
<g id="a_Node000010"><a xlink:title=" ">
<polygon fill="#e0e0e0" stroke="#999999" points="421.5,-19 374.5,-19 374.5,0 421.5,0 421.5,-19"/>
<text text-anchor="middle" x="398" y="-7" font-family="Helvetica,sans-Serif" font-size="10.00">vector</text>
</a>
</g>
</g>
<!-- Node2&#45;&gt;Node10 -->
<g id="edge9_Node000002_Node000010" class="edge">
<title>Node2&#45;&gt;Node10</title>
<g id="a_edge9_Node000002_Node000010"><a xlink:title=" ">
<path fill="none" stroke="#63b8ff" d="M296.44,-54.98C315.99,-46.42 346.38,-33.11 368.82,-23.28"/>
<polygon fill="#63b8ff" stroke="#63b8ff" points="370.45,-26.39 378.21,-19.17 367.64,-19.98 370.45,-26.39"/>
</a>
</g>
</g>
</g>
</svg>
