<?xml version="1.0" encoding="UTF-8" standalone="no"?>
<!DOCTYPE svg PUBLIC "-//W3C//DTD SVG 1.1//EN"
 "http://www.w3.org/Graphics/SVG/1.1/DTD/svg11.dtd">
<!-- Generated by graphviz version 12.2.1 (20241206.2353)
 -->
<!-- Title: /Users/ilariomazzieri/Desktop/vulpes/vulpes/utils/profiler.cpp Pages: 1 -->
<svg width="726pt" height="160pt"
 viewBox="0.00 0.00 726.38 160.25" xmlns="http://www.w3.org/2000/svg" xmlns:xlink="http://www.w3.org/1999/xlink">
<g id="graph0" class="graph" transform="scale(1 1) rotate(0) translate(4 156.25)">
<title>/Users/ilariomazzieri/Desktop/vulpes/vulpes/utils/profiler.cpp</title>
<!-- Node1 -->
<g id="Node000001" class="node">
<title>Node1</title>
<g id="a_Node000001"><a xlink:title=" ">
<polygon fill="#999999" stroke="#666666" points="401.25,-152.25 282.5,-152.25 282.5,-110.5 401.25,-110.5 401.25,-152.25"/>
<text text-anchor="start" x="290.5" y="-138.75" font-family="Helvetica,sans-Serif" font-size="10.00">/Users/ilariomazzieri</text>
<text text-anchor="start" x="290.5" y="-127.5" font-family="Helvetica,sans-Serif" font-size="10.00">/Desktop/vulpes/vulpes</text>
<text text-anchor="middle" x="341.88" y="-116.25" font-family="Helvetica,sans-Serif" font-size="10.00">/utils/profiler.cpp</text>
</a>
</g>
</g>
<!-- Node2 -->
<g id="Node000002" class="node">
<title>Node2</title>
<g id="a_Node000002"><a xlink:href="profiler_8hpp.html" target="_top" xlink:title=" ">
<polygon fill="white" stroke="#666666" points="442.75,-74.5 327,-74.5 327,-55.25 442.75,-55.25 442.75,-74.5"/>
<text text-anchor="middle" x="384.88" y="-61" font-family="Helvetica,sans-Serif" font-size="10.00">vulpes/utils/profiler.hpp</text>
</a>
</g>
</g>
<!-- Node1&#45;&gt;Node2 -->
<g id="edge1_Node000001_Node000002" class="edge">
<title>Node1&#45;&gt;Node2</title>
<g id="a_edge1_Node000001_Node000002"><a xlink:title=" ">
<path fill="none" stroke="#63b8ff" d="M355.24,-110.32C360.79,-102 367.19,-92.41 372.61,-84.27"/>
<polygon fill="#63b8ff" stroke="#63b8ff" points="375.35,-86.47 377.99,-76.2 369.53,-82.58 375.35,-86.47"/>
</a>
</g>
</g>
<!-- Node3 -->
<g id="Node000003" class="node">
<title>Node3</title>
<g id="a_Node000003"><a xlink:title=" ">
<polygon fill="#e0e0e0" stroke="#999999" points="55.75,-19.25 0,-19.25 0,0 55.75,0 55.75,-19.25"/>
<text text-anchor="middle" x="27.88" y="-5.75" font-family="Helvetica,sans-Serif" font-size="10.00">algorithm</text>
</a>
</g>
</g>
<!-- Node1&#45;&gt;Node3 -->
<g id="edge12_Node000001_Node000003" class="edge">
<title>Node1&#45;&gt;Node3</title>
<g id="a_edge12_Node000001_Node000003"><a xlink:title=" ">
<path fill="none" stroke="#63b8ff" d="M283.91,-110.04C254.71,-99.65 218.82,-86.67 186.88,-74.5 142.74,-57.68 92.18,-37.16 60.15,-23.99"/>
<polygon fill="#63b8ff" stroke="#63b8ff" points="61.62,-20.81 51.04,-20.23 58.95,-27.28 61.62,-20.81"/>
</a>
</g>
</g>
<!-- Node4 -->
<g id="Node000004" class="node">
<title>Node4</title>
<g id="a_Node000004"><a xlink:title=" ">
<polygon fill="#e0e0e0" stroke="#999999" points="119.5,-19.25 74.25,-19.25 74.25,0 119.5,0 119.5,-19.25"/>
<text text-anchor="middle" x="96.88" y="-5.75" font-family="Helvetica,sans-Serif" font-size="10.00">chrono</text>
</a>
</g>
</g>
<!-- Node1&#45;&gt;Node4 -->
<g id="edge13_Node000001_Node000004" class="edge">
<title>Node1&#45;&gt;Node4</title>
<g id="a_edge13_Node000001_Node000004"><a xlink:title=" ">
<path fill="none" stroke="#63b8ff" d="M300.07,-110.12C278.24,-99.53 251.11,-86.34 226.88,-74.5 191.93,-57.42 151.75,-37.66 125.42,-24.7"/>
<polygon fill="#63b8ff" stroke="#63b8ff" points="127.25,-21.7 116.73,-20.42 124.16,-27.98 127.25,-21.7"/>
</a>
</g>
</g>
<!-- Node5 -->
<g id="Node000005" class="node">
<title>Node5</title>
<g id="a_Node000005"><a xlink:title=" ">
<polygon fill="#e0e0e0" stroke="#999999" points="186,-19.25 137.75,-19.25 137.75,0 186,0 186,-19.25"/>
<text text-anchor="middle" x="161.88" y="-5.75" font-family="Helvetica,sans-Serif" font-size="10.00">cstddef</text>
</a>
</g>
</g>
<!-- Node1&#45;&gt;Node5 -->
<g id="edge14_Node000001_Node000005" class="edge">
<title>Node1&#45;&gt;Node5</title>
<g id="a_edge14_Node000001_Node000005"><a xlink:title=" ">
<path fill="none" stroke="#63b8ff" d="M311.34,-110.06C275.5,-86.22 216.89,-47.22 184.74,-25.84"/>
<polygon fill="#63b8ff" stroke="#63b8ff" points="186.82,-23.02 176.56,-20.39 182.95,-28.85 186.82,-23.02"/>
</a>
</g>
</g>
<!-- Node6 -->
<g id="Node000006" class="node">
<title>Node6</title>
<g id="a_Node000006"><a xlink:title=" ">
<polygon fill="#e0e0e0" stroke="#999999" points="253.75,-19.25 204,-19.25 204,0 253.75,0 253.75,-19.25"/>
<text text-anchor="middle" x="228.88" y="-5.75" font-family="Helvetica,sans-Serif" font-size="10.00">iomanip</text>
</a>
</g>
</g>
<!-- Node1&#45;&gt;Node6 -->
<g id="edge15_Node000001_Node000006" class="edge">
<title>Node1&#45;&gt;Node6</title>
<g id="a_edge15_Node000001_Node000006"><a xlink:title=" ">
<path fill="none" stroke="#63b8ff" d="M322.71,-110.06C300.89,-86.94 265.63,-49.57 245.11,-27.83"/>
<polygon fill="#63b8ff" stroke="#63b8ff" points="247.75,-25.53 238.34,-20.66 242.66,-30.33 247.75,-25.53"/>
</a>
</g>
</g>
<!-- Node7 -->
<g id="Node000007" class="node">
<title>Node7</title>
<g id="a_Node000007"><a xlink:title=" ">
<polygon fill="#e0e0e0" stroke="#999999" points="325.62,-19.25 272.12,-19.25 272.12,0 325.62,0 325.62,-19.25"/>
<text text-anchor="middle" x="298.88" y="-5.75" font-family="Helvetica,sans-Serif" font-size="10.00">iostream</text>
</a>
</g>
</g>
<!-- Node1&#45;&gt;Node7 -->
<g id="edge16_Node000001_Node000007" class="edge">
<title>Node1&#45;&gt;Node7</title>
<g id="a_edge16_Node000001_Node000007"><a xlink:title=" ">
<path fill="none" stroke="#63b8ff" d="M332.52,-110.17C327.82,-99.65 322.22,-86.51 317.88,-74.5 312.56,-59.83 307.57,-42.88 304.04,-30.13"/>
<polygon fill="#63b8ff" stroke="#63b8ff" points="307.52,-29.61 301.53,-20.87 300.77,-31.44 307.52,-29.61"/>
</a>
</g>
</g>
<!-- Node8 -->
<g id="Node000008" class="node">
<title>Node8</title>
<g id="a_Node000008"><a xlink:title=" ">
<polygon fill="#e0e0e0" stroke="#999999" points="499.88,-19.25 459.88,-19.25 459.88,0 499.88,0 499.88,-19.25"/>
<text text-anchor="middle" x="479.88" y="-5.75" font-family="Helvetica,sans-Serif" font-size="10.00">string</text>
</a>
</g>
</g>
<!-- Node1&#45;&gt;Node8 -->
<g id="edge17_Node000001_Node000008" class="edge">
<title>Node1&#45;&gt;Node8</title>
<g id="a_edge17_Node000001_Node000008"><a xlink:title=" ">
<path fill="none" stroke="#63b8ff" d="M399.67,-110.1C418.16,-101.4 437.53,-89.68 451.88,-74.5 463.58,-62.11 470.88,-44.03 475.08,-30.27"/>
<polygon fill="#63b8ff" stroke="#63b8ff" points="478.35,-31.56 477.6,-21 471.6,-29.72 478.35,-31.56"/>
</a>
</g>
</g>
<!-- Node9 -->
<g id="Node000009" class="node">
<title>Node9</title>
<g id="a_Node000009"><a xlink:title=" ">
<polygon fill="#e0e0e0" stroke="#999999" points="600.25,-19.25 517.5,-19.25 517.5,0 600.25,0 600.25,-19.25"/>
<text text-anchor="middle" x="558.88" y="-5.75" font-family="Helvetica,sans-Serif" font-size="10.00">unordered_map</text>
</a>
</g>
</g>
<!-- Node1&#45;&gt;Node9 -->
<g id="edge18_Node000001_Node000009" class="edge">
<title>Node1&#45;&gt;Node9</title>
<g id="a_edge18_Node000001_Node000009"><a xlink:title=" ">
<path fill="none" stroke="#63b8ff" d="M396.65,-110.07C420.37,-100.45 448.1,-88.1 471.88,-74.5 496.58,-60.37 522.59,-40.52 539.66,-26.72"/>
<polygon fill="#63b8ff" stroke="#63b8ff" points="541.48,-29.75 547,-20.7 537.04,-24.34 541.48,-29.75"/>
</a>
</g>
</g>
<!-- Node10 -->
<g id="Node000010" class="node">
<title>Node10</title>
<g id="a_Node000010"><a xlink:title=" ">
<polygon fill="#e0e0e0" stroke="#999999" points="657.5,-19.25 618.25,-19.25 618.25,0 657.5,0 657.5,-19.25"/>
<text text-anchor="middle" x="637.88" y="-5.75" font-family="Helvetica,sans-Serif" font-size="10.00">utility</text>
</a>
</g>
</g>
<!-- Node1&#45;&gt;Node10 -->
<g id="edge19_Node000001_Node000010" class="edge">
<title>Node1&#45;&gt;Node10</title>
<g id="a_edge19_Node000001_Node000010"><a xlink:title=" ">
<path fill="none" stroke="#63b8ff" d="M401.67,-110.92C431.7,-100.75 468.5,-87.7 500.88,-74.5 539.28,-58.84 582.47,-38.18 609.91,-24.65"/>
<polygon fill="#63b8ff" stroke="#63b8ff" points="611.19,-27.92 618.6,-20.34 608.08,-21.65 611.19,-27.92"/>
</a>
</g>
</g>
<!-- Node11 -->
<g id="Node000011" class="node">
<title>Node11</title>
<g id="a_Node000011"><a xlink:title=" ">
<polygon fill="#e0e0e0" stroke="#999999" points="718.38,-19.25 675.38,-19.25 675.38,0 718.38,0 718.38,-19.25"/>
<text text-anchor="middle" x="696.88" y="-5.75" font-family="Helvetica,sans-Serif" font-size="10.00">vector</text>
</a>
</g>
</g>
<!-- Node1&#45;&gt;Node11 -->
<g id="edge20_Node000001_Node000011" class="edge">
<title>Node1&#45;&gt;Node11</title>
<g id="a_edge20_Node000001_Node000011"><a xlink:title=" ">
<path fill="none" stroke="#63b8ff" d="M401.35,-114.86C439.98,-104.38 491.26,-89.73 535.88,-74.5 581.57,-58.9 633.28,-37.74 665.49,-24.13"/>
<polygon fill="#63b8ff" stroke="#63b8ff" points="666.79,-27.38 674.63,-20.25 664.06,-20.94 666.79,-27.38"/>
</a>
</g>
</g>
<!-- Node2&#45;&gt;Node3 -->
<g id="edge2_Node000002_Node000003" class="edge">
<title>Node2&#45;&gt;Node3</title>
<g id="a_edge2_Node000002_Node000003"><a xlink:title=" ">
<path fill="none" stroke="#63b8ff" d="M326.52,-57.35C264.57,-50.05 163.57,-37.14 67.22,-19.54"/>
<polygon fill="#63b8ff" stroke="#63b8ff" points="68.06,-16.13 57.59,-17.76 66.79,-23.02 68.06,-16.13"/>
</a>
</g>
</g>
<!-- Node2&#45;&gt;Node4 -->
<g id="edge3_Node000002_Node000004" class="edge">
<title>Node2&#45;&gt;Node4</title>
<g id="a_edge3_Node000002_Node000004"><a xlink:title=" ">
<path fill="none" stroke="#63b8ff" d="M326.63,-55.26C277.09,-47.59 203.85,-35.43 131.08,-19.57"/>
<polygon fill="#63b8ff" stroke="#63b8ff" points="131.88,-16.16 121.36,-17.42 130.37,-22.99 131.88,-16.16"/>
</a>
</g>
</g>
<!-- Node2&#45;&gt;Node5 -->
<g id="edge4_Node000002_Node000005" class="edge">
<title>Node2&#45;&gt;Node5</title>
<g id="a_edge4_Node000002_Node000005"><a xlink:title=" ">
<path fill="none" stroke="#63b8ff" d="M344.77,-54.76C308.6,-46.47 253.67,-33.72 197.28,-19.8"/>
<polygon fill="#63b8ff" stroke="#63b8ff" points="198.38,-16.47 187.84,-17.46 196.7,-23.27 198.38,-16.47"/>
</a>
</g>
</g>
<!-- Node2&#45;&gt;Node6 -->
<g id="edge5_Node000002_Node000006" class="edge">
<title>Node2&#45;&gt;Node6</title>
<g id="a_edge5_Node000002_Node000006"><a xlink:title=" ">
<path fill="none" stroke="#63b8ff" d="M358.41,-54.84C332.7,-46.07 293.47,-32.68 264.92,-22.93"/>
<polygon fill="#63b8ff" stroke="#63b8ff" points="266.2,-19.67 255.61,-19.75 263.94,-26.29 266.2,-19.67"/>
</a>
</g>
</g>
<!-- Node2&#45;&gt;Node7 -->
<g id="edge6_Node000002_Node000007" class="edge">
<title>Node2&#45;&gt;Node7</title>
<g id="a_edge6_Node000002_Node000007"><a xlink:title=" ">
<path fill="none" stroke="#63b8ff" d="M370.29,-54.84C357.44,-46.89 338.46,-35.14 323.3,-25.75"/>
<polygon fill="#63b8ff" stroke="#63b8ff" points="325.17,-22.79 314.82,-20.5 321.48,-28.74 325.17,-22.79"/>
</a>
</g>
</g>
<!-- Node2&#45;&gt;Node8 -->
<g id="edge7_Node000002_Node000008" class="edge">
<title>Node2&#45;&gt;Node8</title>
<g id="a_edge7_Node000002_Node000008"><a xlink:title=" ">
<path fill="none" stroke="#63b8ff" d="M400.99,-54.84C415.46,-46.73 436.95,-34.68 453.86,-25.21"/>
<polygon fill="#63b8ff" stroke="#63b8ff" points="455.35,-28.39 462.36,-20.44 451.93,-22.28 455.35,-28.39"/>
</a>
</g>
</g>
<!-- Node2&#45;&gt;Node9 -->
<g id="edge8_Node000002_Node000009" class="edge">
<title>Node2&#45;&gt;Node9</title>
<g id="a_edge8_Node000002_Node000009"><a xlink:title=" ">
<path fill="none" stroke="#63b8ff" d="M414.39,-54.84C443.01,-46.08 486.66,-32.73 518.49,-22.98"/>
<polygon fill="#63b8ff" stroke="#63b8ff" points="519.23,-26.42 527.77,-20.15 517.18,-19.73 519.23,-26.42"/>
</a>
</g>
</g>
<!-- Node2&#45;&gt;Node10 -->
<g id="edge9_Node000002_Node000010" class="edge">
<title>Node2&#45;&gt;Node10</title>
<g id="a_edge9_Node000002_Node000010"><a xlink:title=" ">
<path fill="none" stroke="#63b8ff" d="M437.68,-54.78C480.77,-47.04 543.44,-35.05 606.95,-19.54"/>
<polygon fill="#63b8ff" stroke="#63b8ff" points="607.64,-22.97 616.5,-17.17 605.96,-16.18 607.64,-22.97"/>
</a>
</g>
</g>
<!-- Node2&#45;&gt;Node11 -->
<g id="edge10_Node000002_Node000011" class="edge">
<title>Node2&#45;&gt;Node11</title>
<g id="a_edge10_Node000002_Node000011"><a xlink:title=" ">
<path fill="none" stroke="#63b8ff" d="M443.06,-56.8C497.89,-49.65 582.52,-37.39 664.04,-19.67"/>
<polygon fill="#63b8ff" stroke="#63b8ff" points="664.51,-23.15 673.52,-17.58 663,-16.32 664.51,-23.15"/>
</a>
</g>
</g>
<!-- Node12 -->
<g id="Node000012" class="node">
<title>Node12</title>
<g id="a_Node000012"><a xlink:title=" ">
<polygon fill="#e0e0e0" stroke="#999999" points="441.75,-19.25 344,-19.25 344,0 441.75,0 441.75,-19.25"/>
<text text-anchor="middle" x="392.88" y="-5.75" font-family="Helvetica,sans-Serif" font-size="10.00">nlohmann/json.hpp</text>
</a>
</g>
</g>
<!-- Node2&#45;&gt;Node12 -->
<g id="edge11_Node000002_Node000012" class="edge">
<title>Node2&#45;&gt;Node12</title>
<g id="a_edge11_Node000002_Node000012"><a xlink:title=" ">
<path fill="none" stroke="#63b8ff" d="M386.2,-55.08C387.19,-48.49 388.58,-39.21 389.84,-30.82"/>
<polygon fill="#63b8ff" stroke="#63b8ff" points="393.28,-31.51 391.3,-21.11 386.35,-30.47 393.28,-31.51"/>
</a>
</g>
</g>
</g>
</svg>
