<?xml version="1.0" encoding="UTF-8" standalone="no"?>
<!DOCTYPE svg PUBLIC "-//W3C//DTD SVG 1.1//EN"
 "http://www.w3.org/Graphics/SVG/1.1/DTD/svg11.dtd">
<!-- Generated by graphviz version 2.42.4 (0)
 -->
<!-- Title: /__w/vulpes/vulpes/vulpes/utils/profiler.hpp Pages: 1 -->
<svg width="603pt" height="93pt"
 viewBox="0.00 0.00 602.50 93.00" xmlns="http://www.w3.org/2000/svg" xmlns:xlink="http://www.w3.org/1999/xlink">
<g id="graph0" class="graph" transform="scale(1 1) rotate(0) translate(4 89)">
<title>/__w/vulpes/vulpes/vulpes/utils/profiler.hpp</title>
<!-- Node1 -->
<g id="Node000001" class="node">
<title>Node1</title>
<g id="a_Node000001"><a xlink:title=" ">
<polygon fill="#999999" stroke="#666666" points="355,-85 221,-85 221,-55 355,-55 355,-85"/>
<text text-anchor="start" x="229" y="-73" font-family="Helvetica,sans-Serif" font-size="10.00">/__w/vulpes/vulpes</text>
<text text-anchor="middle" x="288" y="-62" font-family="Helvetica,sans-Serif" font-size="10.00">/vulpes/utils/profiler.hpp</text>
</a>
</g>
</g>
<!-- Node2 -->
<g id="Node000002" class="node">
<title>Node2</title>
<g id="a_Node000002"><a xlink:title=" ">
<polygon fill="#e0e0e0" stroke="#999999" points="64,-19 0,-19 0,0 64,0 64,-19"/>
<text text-anchor="middle" x="32" y="-7" font-family="Helvetica,sans-Serif" font-size="10.00">algorithm</text>
</a>
</g>
</g>
<!-- Node1&#45;&gt;Node2 -->
<g id="edge1_Node000001_Node000002" class="edge">
<title>Node1&#45;&gt;Node2</title>
<g id="a_edge1_Node000001_Node000002"><a xlink:title=" ">
<path fill="none" stroke="#63b8ff" d="M226.68,-54.99C179.54,-44.21 115.65,-29.61 74.13,-20.13"/>
<polygon fill="#63b8ff" stroke="#63b8ff" points="74.86,-16.71 64.34,-17.89 73.31,-23.53 74.86,-16.71"/>
</a>
</g>
</g>
<!-- Node3 -->
<g id="Node000003" class="node">
<title>Node3</title>
<g id="a_Node000003"><a xlink:title=" ">
<polygon fill="#e0e0e0" stroke="#999999" points="132,-19 82,-19 82,0 132,0 132,-19"/>
<text text-anchor="middle" x="107" y="-7" font-family="Helvetica,sans-Serif" font-size="10.00">chrono</text>
</a>
</g>
</g>
<!-- Node1&#45;&gt;Node3 -->
<g id="edge2_Node000001_Node000003" class="edge">
<title>Node1&#45;&gt;Node3</title>
<g id="a_edge2_Node000001_Node000003"><a xlink:title=" ">
<path fill="none" stroke="#63b8ff" d="M244.65,-54.99C213.21,-44.83 171.25,-31.27 141.95,-21.8"/>
<polygon fill="#63b8ff" stroke="#63b8ff" points="142.75,-18.38 132.16,-18.63 140.59,-25.04 142.75,-18.38"/>
</a>
</g>
</g>
<!-- Node4 -->
<g id="Node000004" class="node">
<title>Node4</title>
<g id="a_Node000004"><a xlink:title=" ">
<polygon fill="#e0e0e0" stroke="#999999" points="203.5,-19 150.5,-19 150.5,0 203.5,0 203.5,-19"/>
<text text-anchor="middle" x="177" y="-7" font-family="Helvetica,sans-Serif" font-size="10.00">cstddef</text>
</a>
</g>
</g>
<!-- Node1&#45;&gt;Node4 -->
<g id="edge3_Node000001_Node000004" class="edge">
<title>Node1&#45;&gt;Node4</title>
<g id="a_edge3_Node000001_Node000004"><a xlink:title=" ">
<path fill="none" stroke="#63b8ff" d="M261.41,-54.99C243.55,-45.58 220.16,-33.24 202.52,-23.95"/>
<polygon fill="#63b8ff" stroke="#63b8ff" points="203.87,-20.71 193.39,-19.14 200.61,-26.9 203.87,-20.71"/>
</a>
</g>
</g>
<!-- Node5 -->
<g id="Node000005" class="node">
<title>Node5</title>
<g id="a_Node000005"><a xlink:title=" ">
<polygon fill="#e0e0e0" stroke="#999999" points="278,-19 222,-19 222,0 278,0 278,-19"/>
<text text-anchor="middle" x="250" y="-7" font-family="Helvetica,sans-Serif" font-size="10.00">iomanip</text>
</a>
</g>
</g>
<!-- Node1&#45;&gt;Node5 -->
<g id="edge4_Node000001_Node000005" class="edge">
<title>Node1&#45;&gt;Node5</title>
<g id="a_edge4_Node000001_Node000005"><a xlink:title=" ">
<path fill="none" stroke="#63b8ff" d="M278.8,-54.84C273.51,-46.69 266.82,-36.4 261.22,-27.78"/>
<polygon fill="#63b8ff" stroke="#63b8ff" points="264.08,-25.75 255.69,-19.27 258.21,-29.56 264.08,-25.75"/>
</a>
</g>
</g>
<!-- Node6 -->
<g id="Node000006" class="node">
<title>Node6</title>
<g id="a_Node000006"><a xlink:title=" ">
<polygon fill="#e0e0e0" stroke="#999999" points="356,-19 296,-19 296,0 356,0 356,-19"/>
<text text-anchor="middle" x="326" y="-7" font-family="Helvetica,sans-Serif" font-size="10.00">iostream</text>
</a>
</g>
</g>
<!-- Node1&#45;&gt;Node6 -->
<g id="edge5_Node000001_Node000006" class="edge">
<title>Node1&#45;&gt;Node6</title>
<g id="a_edge5_Node000001_Node000006"><a xlink:title=" ">
<path fill="none" stroke="#63b8ff" d="M297.2,-54.84C302.49,-46.69 309.18,-36.4 314.78,-27.78"/>
<polygon fill="#63b8ff" stroke="#63b8ff" points="317.79,-29.56 320.31,-19.27 311.92,-25.75 317.79,-29.56"/>
</a>
</g>
</g>
<!-- Node7 -->
<g id="Node000007" class="node">
<title>Node7</title>
<g id="a_Node000007"><a xlink:title=" ">
<polygon fill="#e0e0e0" stroke="#999999" points="418,-19 374,-19 374,0 418,0 418,-19"/>
<text text-anchor="middle" x="396" y="-7" font-family="Helvetica,sans-Serif" font-size="10.00">string</text>
</a>
</g>
</g>
<!-- Node1&#45;&gt;Node7 -->
<g id="edge6_Node000001_Node000007" class="edge">
<title>Node1&#45;&gt;Node7</title>
<g id="a_edge6_Node000001_Node000007"><a xlink:title=" ">
<path fill="none" stroke="#63b8ff" d="M313.87,-54.99C331.24,-45.58 354.01,-33.24 371.17,-23.95"/>
<polygon fill="#63b8ff" stroke="#63b8ff" points="372.92,-26.98 380.05,-19.14 369.59,-20.82 372.92,-26.98"/>
</a>
</g>
</g>
<!-- Node8 -->
<g id="Node000008" class="node">
<title>Node8</title>
<g id="a_Node000008"><a xlink:title=" ">
<polygon fill="#e0e0e0" stroke="#999999" points="529.5,-19 436.5,-19 436.5,0 529.5,0 529.5,-19"/>
<text text-anchor="middle" x="483" y="-7" font-family="Helvetica,sans-Serif" font-size="10.00">unordered_map</text>
</a>
</g>
</g>
<!-- Node1&#45;&gt;Node8 -->
<g id="edge7_Node000001_Node000008" class="edge">
<title>Node1&#45;&gt;Node8</title>
<g id="a_edge7_Node000001_Node000008"><a xlink:title=" ">
<path fill="none" stroke="#63b8ff" d="M334.71,-54.99C368.36,-44.89 413.21,-31.44 444.75,-21.98"/>
<polygon fill="#63b8ff" stroke="#63b8ff" points="445.92,-25.28 454.49,-19.05 443.9,-18.57 445.92,-25.28"/>
</a>
</g>
</g>
<!-- Node9 -->
<g id="Node000009" class="node">
<title>Node9</title>
<g id="a_Node000009"><a xlink:title=" ">
<polygon fill="#e0e0e0" stroke="#999999" points="594.5,-19 547.5,-19 547.5,0 594.5,0 594.5,-19"/>
<text text-anchor="middle" x="571" y="-7" font-family="Helvetica,sans-Serif" font-size="10.00">vector</text>
</a>
</g>
</g>
<!-- Node1&#45;&gt;Node9 -->
<g id="edge8_Node000001_Node000009" class="edge">
<title>Node1&#45;&gt;Node9</title>
<g id="a_edge8_Node000001_Node000009"><a xlink:title=" ">
<path fill="none" stroke="#63b8ff" d="M355.1,-56.82C403.42,-47.78 470.37,-34.69 537.39,-19.27"/>
<polygon fill="#63b8ff" stroke="#63b8ff" points="538.32,-22.65 547.28,-16.98 536.74,-15.83 538.32,-22.65"/>
</a>
</g>
</g>
</g>
</svg>
