<?xml version="1.0" encoding="UTF-8" standalone="no"?>
<!DOCTYPE svg PUBLIC "-//W3C//DTD SVG 1.1//EN"
 "http://www.w3.org/Graphics/SVG/1.1/DTD/svg11.dtd">
<!-- Generated by graphviz version 2.43.0 (0)
 -->
<!-- Title: /__w/vulpes/vulpes/vulpes/utils/profiler.hpp Pages: 1 -->
<svg width="793pt" height="258pt"
 viewBox="0.00 0.00 793.00 258.00" xmlns="http://www.w3.org/2000/svg" xmlns:xlink="http://www.w3.org/1999/xlink">
<g id="graph0" class="graph" transform="scale(1 1) rotate(0) translate(4 254)">
<title>/__w/vulpes/vulpes/vulpes/utils/profiler.hpp</title>
<!-- Node1 -->
<g id="Node000001" class="node">
<title>Node1</title>
<g id="a_Node000001"><a xlink:title=" ">
<polygon fill="#999999" stroke="#666666" points="634.5,-250 500.5,-250 500.5,-220 634.5,-220 634.5,-250"/>
<text text-anchor="start" x="508.5" y="-238" font-family="Helvetica,sans-Serif" font-size="10.00">/__w/vulpes/vulpes</text>
<text text-anchor="middle" x="567.5" y="-227" font-family="Helvetica,sans-Serif" font-size="10.00">/vulpes/utils/profiler.hpp</text>
</a>
</g>
</g>
<!-- Node2 -->
<g id="Node000002" class="node">
<title>Node2</title>
<g id="a_Node000002"><a xlink:href="dof__handler_8hpp.html" target="_top" xlink:title=" ">
<polygon fill="white" stroke="#666666" points="411,-184 254,-184 254,-154 411,-154 411,-184"/>
<text text-anchor="start" x="262" y="-172" font-family="Helvetica,sans-Serif" font-size="10.00">/__w/vulpes/vulpes</text>
<text text-anchor="middle" x="332.5" y="-161" font-family="Helvetica,sans-Serif" font-size="10.00">/vulpes/dofs/dof_handler.hpp</text>
</a>
</g>
</g>
<!-- Node1&#45;&gt;Node2 -->
<g id="edge1_Node000001_Node000002" class="edge">
<title>Node1&#45;&gt;Node2</title>
<g id="a_edge1_Node000001_Node000002"><a xlink:title=" ">
<path fill="none" stroke="#63b8ff" d="M506.01,-217.25C468.04,-206.91 419.89,-193.8 383.95,-184.01"/>
<polygon fill="#63b8ff" stroke="#63b8ff" points="505.36,-220.7 515.93,-219.95 507.2,-213.95 505.36,-220.7"/>
</a>
</g>
</g>
<!-- Node8 -->
<g id="Node000008" class="node">
<title>Node8</title>
<g id="a_Node000008"><a xlink:href="distance_8hpp.html" target="_top" xlink:title=" ">
<polygon fill="white" stroke="#666666" points="596,-184 429,-184 429,-154 596,-154 596,-184"/>
<text text-anchor="start" x="437" y="-172" font-family="Helvetica,sans-Serif" font-size="10.00">/__w/vulpes/vulpes</text>
<text text-anchor="middle" x="512.5" y="-161" font-family="Helvetica,sans-Serif" font-size="10.00">/vulpes/geometry/distance.hpp</text>
</a>
</g>
</g>
<!-- Node1&#45;&gt;Node8 -->
<g id="edge7_Node000001_Node000008" class="edge">
<title>Node1&#45;&gt;Node8</title>
<g id="a_edge7_Node000001_Node000008"><a xlink:title=" ">
<path fill="none" stroke="#63b8ff" d="M548.67,-212.09C540.73,-202.85 531.72,-192.36 524.67,-184.16"/>
<polygon fill="#63b8ff" stroke="#63b8ff" points="546.12,-214.49 555.29,-219.8 551.43,-209.93 546.12,-214.49"/>
</a>
</g>
</g>
<!-- Node9 -->
<g id="Node000009" class="node">
<title>Node9</title>
<g id="a_Node000009"><a xlink:href="mesher_8hpp.html" target="_top" xlink:title=" ">
<polygon fill="white" stroke="#666666" points="648.5,-112.5 486.5,-112.5 486.5,-82.5 648.5,-82.5 648.5,-112.5"/>
<text text-anchor="start" x="494.5" y="-100.5" font-family="Helvetica,sans-Serif" font-size="10.00">/__w/vulpes/vulpes</text>
<text text-anchor="middle" x="567.5" y="-89.5" font-family="Helvetica,sans-Serif" font-size="10.00">/vulpes/geometry/mesher.hpp</text>
</a>
</g>
</g>
<!-- Node1&#45;&gt;Node9 -->
<g id="edge9_Node000001_Node000009" class="edge">
<title>Node1&#45;&gt;Node9</title>
<g id="a_edge9_Node000001_Node000009"><a xlink:title=" ">
<path fill="none" stroke="#63b8ff" d="M588.6,-211.85C594.99,-203.73 601.19,-194.05 604.5,-184 608.68,-171.34 608.36,-166.76 604.5,-154 599.8,-138.48 589.18,-123.34 580.51,-112.8"/>
<polygon fill="#63b8ff" stroke="#63b8ff" points="585.76,-209.8 581.99,-219.7 591.11,-214.31 585.76,-209.8"/>
</a>
</g>
</g>
<!-- Node10 -->
<g id="Node000010" class="node">
<title>Node10</title>
<g id="a_Node000010"><a xlink:href="profiler_8cpp.html" target="_top" xlink:title=" ">
<polygon fill="white" stroke="#666666" points="785,-184 652,-184 652,-154 785,-154 785,-184"/>
<text text-anchor="start" x="660" y="-172" font-family="Helvetica,sans-Serif" font-size="10.00">/__w/vulpes/vulpes</text>
<text text-anchor="middle" x="718.5" y="-161" font-family="Helvetica,sans-Serif" font-size="10.00">/vulpes/utils/profiler.cpp</text>
</a>
</g>
</g>
<!-- Node1&#45;&gt;Node10 -->
<g id="edge10_Node000001_Node000010" class="edge">
<title>Node1&#45;&gt;Node10</title>
<g id="a_edge10_Node000001_Node000010"><a xlink:title=" ">
<path fill="none" stroke="#63b8ff" d="M610.16,-215.92C634.03,-205.8 663.33,-193.38 685.44,-184.01"/>
<polygon fill="#63b8ff" stroke="#63b8ff" points="608.48,-212.83 600.64,-219.95 611.21,-219.28 608.48,-212.83"/>
</a>
</g>
</g>
<!-- Node3 -->
<g id="Node000003" class="node">
<title>Node3</title>
<g id="a_Node000003"><a xlink:href="integrator__base_8hpp.html" target="_top" xlink:title=" ">
<polygon fill="white" stroke="#666666" points="409,-118 256,-118 256,-77 409,-77 409,-118"/>
<text text-anchor="start" x="264" y="-106" font-family="Helvetica,sans-Serif" font-size="10.00">/__w/vulpes/vulpes</text>
<text text-anchor="start" x="264" y="-95" font-family="Helvetica,sans-Serif" font-size="10.00">/vulpes/assemble/integrator</text>
<text text-anchor="middle" x="332.5" y="-84" font-family="Helvetica,sans-Serif" font-size="10.00">_base.hpp</text>
</a>
</g>
</g>
<!-- Node2&#45;&gt;Node3 -->
<g id="edge2_Node000002_Node000003" class="edge">
<title>Node2&#45;&gt;Node3</title>
<g id="a_edge2_Node000002_Node000003"><a xlink:title=" ">
<path fill="none" stroke="#63b8ff" d="M332.5,-143.91C332.5,-135.47 332.5,-126.1 332.5,-118.07"/>
<polygon fill="#63b8ff" stroke="#63b8ff" points="329,-143.94 332.5,-153.94 336,-143.94 329,-143.94"/>
</a>
</g>
</g>
<!-- Node4 -->
<g id="Node000004" class="node">
<title>Node4</title>
<g id="a_Node000004"><a xlink:href="integrator__gauss_8hpp.html" target="_top" xlink:title=" ">
<polygon fill="white" stroke="#666666" points="153,-41 0,-41 0,0 153,0 153,-41"/>
<text text-anchor="start" x="8" y="-29" font-family="Helvetica,sans-Serif" font-size="10.00">/__w/vulpes/vulpes</text>
<text text-anchor="start" x="8" y="-18" font-family="Helvetica,sans-Serif" font-size="10.00">/vulpes/assemble/integrator</text>
<text text-anchor="middle" x="76.5" y="-7" font-family="Helvetica,sans-Serif" font-size="10.00">_gauss.hpp</text>
</a>
</g>
</g>
<!-- Node3&#45;&gt;Node4 -->
<g id="edge3_Node000003_Node000004" class="edge">
<title>Node3&#45;&gt;Node4</title>
<g id="a_edge3_Node000003_Node000004"><a xlink:title=" ">
<path fill="none" stroke="#63b8ff" d="M255.97,-74.08C220.1,-63.57 177.75,-51.16 143.2,-41.04"/>
<polygon fill="#63b8ff" stroke="#63b8ff" points="255.33,-77.54 265.91,-76.99 257.29,-70.82 255.33,-77.54"/>
</a>
</g>
</g>
<!-- Node5 -->
<g id="Node000005" class="node">
<title>Node5</title>
<g id="a_Node000005"><a xlink:href="integrator__qfree_8hpp.html" target="_top" xlink:title=" ">
<polygon fill="white" stroke="#666666" points="324,-41 171,-41 171,0 324,0 324,-41"/>
<text text-anchor="start" x="179" y="-29" font-family="Helvetica,sans-Serif" font-size="10.00">/__w/vulpes/vulpes</text>
<text text-anchor="start" x="179" y="-18" font-family="Helvetica,sans-Serif" font-size="10.00">/vulpes/assemble/integrator</text>
<text text-anchor="middle" x="247.5" y="-7" font-family="Helvetica,sans-Serif" font-size="10.00">_qfree.hpp</text>
</a>
</g>
</g>
<!-- Node3&#45;&gt;Node5 -->
<g id="edge4_Node000003_Node000005" class="edge">
<title>Node3&#45;&gt;Node5</title>
<g id="a_edge4_Node000003_Node000005"><a xlink:title=" ">
<path fill="none" stroke="#63b8ff" d="M302.55,-70.07C291.73,-60.52 279.72,-49.93 269.68,-41.07"/>
<polygon fill="#63b8ff" stroke="#63b8ff" points="300.35,-72.8 310.17,-76.79 304.98,-67.55 300.35,-72.8"/>
</a>
</g>
</g>
<!-- Node6 -->
<g id="Node000006" class="node">
<title>Node6</title>
<g id="a_Node000006"><a xlink:href="integrator__simplexify_8hpp.html" target="_top" xlink:title=" ">
<polygon fill="white" stroke="#666666" points="495,-41 342,-41 342,0 495,0 495,-41"/>
<text text-anchor="start" x="350" y="-29" font-family="Helvetica,sans-Serif" font-size="10.00">/__w/vulpes/vulpes</text>
<text text-anchor="start" x="350" y="-18" font-family="Helvetica,sans-Serif" font-size="10.00">/vulpes/assemble/integrator</text>
<text text-anchor="middle" x="418.5" y="-7" font-family="Helvetica,sans-Serif" font-size="10.00">_simplexify.hpp</text>
</a>
</g>
</g>
<!-- Node3&#45;&gt;Node6 -->
<g id="edge5_Node000003_Node000006" class="edge">
<title>Node3&#45;&gt;Node6</title>
<g id="a_edge5_Node000003_Node000006"><a xlink:title=" ">
<path fill="none" stroke="#63b8ff" d="M362.81,-70.07C373.75,-60.52 385.9,-49.93 396.06,-41.07"/>
<polygon fill="#63b8ff" stroke="#63b8ff" points="360.33,-67.58 355.1,-76.79 364.93,-72.86 360.33,-67.58"/>
</a>
</g>
</g>
<!-- Node7 -->
<g id="Node000007" class="node">
<title>Node7</title>
<g id="a_Node000007"><a xlink:href="integrator__vem__moment_8hpp.html" target="_top" xlink:title=" ">
<polygon fill="white" stroke="#666666" points="666,-41 513,-41 513,0 666,0 666,-41"/>
<text text-anchor="start" x="521" y="-29" font-family="Helvetica,sans-Serif" font-size="10.00">/__w/vulpes/vulpes</text>
<text text-anchor="start" x="521" y="-18" font-family="Helvetica,sans-Serif" font-size="10.00">/vulpes/assemble/integrator</text>
<text text-anchor="middle" x="589.5" y="-7" font-family="Helvetica,sans-Serif" font-size="10.00">_vem_moment.hpp</text>
</a>
</g>
</g>
<!-- Node3&#45;&gt;Node7 -->
<g id="edge6_Node000003_Node000007" class="edge">
<title>Node3&#45;&gt;Node7</title>
<g id="a_edge6_Node000003_Node000007"><a xlink:title=" ">
<path fill="none" stroke="#63b8ff" d="M409.33,-74.08C445.34,-63.57 487.85,-51.16 522.54,-41.04"/>
<polygon fill="#63b8ff" stroke="#63b8ff" points="407.97,-70.83 399.35,-76.99 409.93,-77.55 407.97,-70.83"/>
</a>
</g>
</g>
<!-- Node8&#45;&gt;Node9 -->
<g id="edge8_Node000008_Node000009" class="edge">
<title>Node8&#45;&gt;Node9</title>
<g id="a_edge8_Node000008_Node000009"><a xlink:title=" ">
<path fill="none" stroke="#63b8ff" d="M529.89,-146.03C538.56,-135.07 548.79,-122.15 556.39,-112.54"/>
<polygon fill="#63b8ff" stroke="#63b8ff" points="527.09,-143.92 523.63,-153.94 532.58,-148.27 527.09,-143.92"/>
</a>
</g>
</g>
</g>
</svg>
