<?xml version="1.0" encoding="UTF-8" standalone="no"?>
<!DOCTYPE svg PUBLIC "-//W3C//DTD SVG 1.1//EN"
 "http://www.w3.org/Graphics/SVG/1.1/DTD/svg11.dtd">
<!-- Generated by graphviz version 2.42.4 (0)
 -->
<!-- Title: /__w/vulpes/vulpes/vulpes/utils/profiler.cpp Pages: 1 -->
<svg width="382pt" height="148pt"
 viewBox="0.00 0.00 381.50 148.00" xmlns="http://www.w3.org/2000/svg" xmlns:xlink="http://www.w3.org/1999/xlink">
<g id="graph0" class="graph" transform="scale(1 1) rotate(0) translate(4 144)">
<title>/__w/vulpes/vulpes/vulpes/utils/profiler.cpp</title>
<!-- Node1 -->
<g id="Node000001" class="node">
<title>Node1</title>
<g id="a_Node000001"><a xlink:title=" ">
<polygon fill="#999999" stroke="#666666" points="236.5,-140 103.5,-140 103.5,-110 236.5,-110 236.5,-140"/>
<text text-anchor="start" x="111.5" y="-128" font-family="Helvetica,sans-Serif" font-size="10.00">/__w/vulpes/vulpes</text>
<text text-anchor="middle" x="170" y="-117" font-family="Helvetica,sans-Serif" font-size="10.00">/vulpes/utils/profiler.cpp</text>
</a>
</g>
</g>
<!-- Node2 -->
<g id="Node000002" class="node">
<title>Node2</title>
<g id="a_Node000002"><a xlink:href="profiler_8hpp.html" target="_top" xlink:title=" ">
<polygon fill="white" stroke="#666666" points="235.5,-74 104.5,-74 104.5,-55 235.5,-55 235.5,-74"/>
<text text-anchor="middle" x="170" y="-62" font-family="Helvetica,sans-Serif" font-size="10.00">vulpes/utils/profiler.hpp</text>
</a>
</g>
</g>
<!-- Node1&#45;&gt;Node2 -->
<g id="edge1_Node000001_Node000002" class="edge">
<title>Node1&#45;&gt;Node2</title>
<g id="a_edge1_Node000001_Node000002"><a xlink:title=" ">
<path fill="none" stroke="#63b8ff" d="M170,-109.84C170,-102.21 170,-92.7 170,-84.45"/>
<polygon fill="#63b8ff" stroke="#63b8ff" points="173.5,-84.27 170,-74.27 166.5,-84.27 173.5,-84.27"/>
</a>
</g>
</g>
<!-- Node3 -->
<g id="Node000003" class="node">
<title>Node3</title>
<g id="a_Node000003"><a xlink:title=" ">
<polygon fill="#e0e0e0" stroke="#999999" points="50,-19 0,-19 0,0 50,0 50,-19"/>
<text text-anchor="middle" x="25" y="-7" font-family="Helvetica,sans-Serif" font-size="10.00">chrono</text>
</a>
</g>
</g>
<!-- Node1&#45;&gt;Node3 -->
<g id="edge7_Node000001_Node000003" class="edge">
<title>Node1&#45;&gt;Node3</title>
<g id="a_edge7_Node000001_Node000003"><a xlink:title=" ">
<path fill="none" stroke="#63b8ff" d="M142.32,-109.98C125.33,-100.79 103.54,-87.93 86,-74 68.13,-59.81 50.35,-40.57 38.64,-27"/>
<polygon fill="#63b8ff" stroke="#63b8ff" points="41.01,-24.39 31.88,-19.01 35.67,-28.91 41.01,-24.39"/>
</a>
</g>
</g>
<!-- Node4 -->
<g id="Node000004" class="node">
<title>Node4</title>
<g id="a_Node000004"><a xlink:title=" ">
<polygon fill="#e0e0e0" stroke="#999999" points="121.5,-19 68.5,-19 68.5,0 121.5,0 121.5,-19"/>
<text text-anchor="middle" x="95" y="-7" font-family="Helvetica,sans-Serif" font-size="10.00">cstddef</text>
</a>
</g>
</g>
<!-- Node1&#45;&gt;Node4 -->
<g id="edge8_Node000001_Node000004" class="edge">
<title>Node1&#45;&gt;Node4</title>
<g id="a_edge8_Node000001_Node000004"><a xlink:title=" ">
<path fill="none" stroke="#63b8ff" d="M134.93,-109.85C119.77,-101.77 103.57,-90 95,-74 87.68,-60.33 88.41,-42.52 90.54,-29.24"/>
<polygon fill="#63b8ff" stroke="#63b8ff" points="93.99,-29.83 92.52,-19.34 87.13,-28.46 93.99,-29.83"/>
</a>
</g>
</g>
<!-- Node6 -->
<g id="Node000006" class="node">
<title>Node6</title>
<g id="a_Node000006"><a xlink:title=" ">
<polygon fill="#e0e0e0" stroke="#999999" points="262,-19 218,-19 218,0 262,0 262,-19"/>
<text text-anchor="middle" x="240" y="-7" font-family="Helvetica,sans-Serif" font-size="10.00">string</text>
</a>
</g>
</g>
<!-- Node1&#45;&gt;Node6 -->
<g id="edge9_Node000001_Node000006" class="edge">
<title>Node1&#45;&gt;Node6</title>
<g id="a_edge9_Node000001_Node000006"><a xlink:title=" ">
<path fill="none" stroke="#63b8ff" d="M204.23,-109.95C219.3,-101.84 235.49,-90.02 244,-74 251.29,-60.28 249.36,-42.47 246.15,-29.21"/>
<polygon fill="#63b8ff" stroke="#63b8ff" points="249.43,-27.97 243.31,-19.32 242.7,-29.9 249.43,-27.97"/>
</a>
</g>
</g>
<!-- Node7 -->
<g id="Node000007" class="node">
<title>Node7</title>
<g id="a_Node000007"><a xlink:title=" ">
<polygon fill="#e0e0e0" stroke="#999999" points="373.5,-19 280.5,-19 280.5,0 373.5,0 373.5,-19"/>
<text text-anchor="middle" x="327" y="-7" font-family="Helvetica,sans-Serif" font-size="10.00">unordered_map</text>
</a>
</g>
</g>
<!-- Node1&#45;&gt;Node7 -->
<g id="edge10_Node000001_Node000007" class="edge">
<title>Node1&#45;&gt;Node7</title>
<g id="a_edge10_Node000001_Node000007"><a xlink:title=" ">
<path fill="none" stroke="#63b8ff" d="M200.3,-109.89C218.6,-100.76 241.98,-87.99 261,-74 280.3,-59.8 299.75,-40.31 312.49,-26.68"/>
<polygon fill="#63b8ff" stroke="#63b8ff" points="315.31,-28.79 319.49,-19.05 310.15,-24.05 315.31,-28.79"/>
</a>
</g>
</g>
<!-- Node2&#45;&gt;Node3 -->
<g id="edge2_Node000002_Node000003" class="edge">
<title>Node2&#45;&gt;Node3</title>
<g id="a_edge2_Node000002_Node000003"><a xlink:title=" ">
<path fill="none" stroke="#63b8ff" d="M146.7,-54.98C122.75,-46.23 85.22,-32.51 58.17,-22.62"/>
<polygon fill="#63b8ff" stroke="#63b8ff" points="59.31,-19.32 48.72,-19.17 56.91,-25.89 59.31,-19.32"/>
</a>
</g>
</g>
<!-- Node2&#45;&gt;Node4 -->
<g id="edge3_Node000002_Node000004" class="edge">
<title>Node2&#45;&gt;Node4</title>
<g id="a_edge3_Node000002_Node000004"><a xlink:title=" ">
<path fill="none" stroke="#63b8ff" d="M157.95,-54.98C146.54,-46.92 129.17,-34.65 115.57,-25.03"/>
<polygon fill="#63b8ff" stroke="#63b8ff" points="117.46,-22.08 107.27,-19.17 113.42,-27.8 117.46,-22.08"/>
</a>
</g>
</g>
<!-- Node5 -->
<g id="Node000005" class="node">
<title>Node5</title>
<g id="a_Node000005"><a xlink:title=" ">
<polygon fill="#e0e0e0" stroke="#999999" points="200,-19 140,-19 140,0 200,0 200,-19"/>
<text text-anchor="middle" x="170" y="-7" font-family="Helvetica,sans-Serif" font-size="10.00">iostream</text>
</a>
</g>
</g>
<!-- Node2&#45;&gt;Node5 -->
<g id="edge4_Node000002_Node000005" class="edge">
<title>Node2&#45;&gt;Node5</title>
<g id="a_edge4_Node000002_Node000005"><a xlink:title=" ">
<path fill="none" stroke="#63b8ff" d="M170,-54.75C170,-47.8 170,-37.85 170,-29.13"/>
<polygon fill="#63b8ff" stroke="#63b8ff" points="173.5,-29.09 170,-19.09 166.5,-29.09 173.5,-29.09"/>
</a>
</g>
</g>
<!-- Node2&#45;&gt;Node6 -->
<g id="edge5_Node000002_Node000006" class="edge">
<title>Node2&#45;&gt;Node6</title>
<g id="a_edge5_Node000002_Node000006"><a xlink:title=" ">
<path fill="none" stroke="#63b8ff" d="M181.25,-54.98C191.8,-47 207.8,-34.88 220.44,-25.31"/>
<polygon fill="#63b8ff" stroke="#63b8ff" points="222.69,-28 228.55,-19.17 218.46,-22.42 222.69,-28"/>
</a>
</g>
</g>
<!-- Node2&#45;&gt;Node7 -->
<g id="edge6_Node000002_Node000007" class="edge">
<title>Node2&#45;&gt;Node7</title>
<g id="a_edge6_Node000002_Node000007"><a xlink:title=" ">
<path fill="none" stroke="#63b8ff" d="M195.22,-54.98C221.36,-46.16 262.4,-32.31 291.73,-22.41"/>
<polygon fill="#63b8ff" stroke="#63b8ff" points="293.22,-25.6 301.58,-19.08 290.98,-18.96 293.22,-25.6"/>
</a>
</g>
</g>
</g>
</svg>
