<?xml version="1.0" encoding="UTF-8" standalone="no"?>
<!DOCTYPE svg PUBLIC "-//W3C//DTD SVG 1.1//EN"
 "http://www.w3.org/Graphics/SVG/1.1/DTD/svg11.dtd">
<!-- Generated by graphviz version 2.42.4 (0)
 -->
<!-- Title: /__w/vulpes/vulpes/vulpes/quadrature/qfree.hpp Pages: 1 -->
<svg width="1845pt" height="841pt"
 viewBox="0.00 0.00 1844.50 841.00" xmlns="http://www.w3.org/2000/svg" xmlns:xlink="http://www.w3.org/1999/xlink">
<g id="graph0" class="graph" transform="scale(1 1) rotate(0) translate(4 837)">
<title>/__w/vulpes/vulpes/vulpes/quadrature/qfree.hpp</title>
<!-- Node1 -->
<g id="Node000001" class="node">
<title>Node1</title>
<g id="a_Node000001"><a xlink:title=" ">
<polygon fill="#999999" stroke="#666666" points="634,-833 476,-833 476,-803 634,-803 634,-833"/>
<text text-anchor="start" x="484" y="-821" font-family="Helvetica,sans-Serif" font-size="10.00">/__w/vulpes/vulpes</text>
<text text-anchor="middle" x="555" y="-810" font-family="Helvetica,sans-Serif" font-size="10.00">/vulpes/quadrature/qfree.hpp</text>
</a>
</g>
</g>
<!-- Node2 -->
<g id="Node000002" class="node">
<title>Node2</title>
<g id="a_Node000002"><a xlink:href="integrator__qfree_8hpp.html" target="_top" xlink:title=" ">
<polygon fill="white" stroke="#666666" points="495.5,-118 342.5,-118 342.5,-77 495.5,-77 495.5,-118"/>
<text text-anchor="start" x="350.5" y="-106" font-family="Helvetica,sans-Serif" font-size="10.00">/__w/vulpes/vulpes</text>
<text text-anchor="start" x="350.5" y="-95" font-family="Helvetica,sans-Serif" font-size="10.00">/vulpes/assemble/integrator</text>
<text text-anchor="middle" x="419" y="-84" font-family="Helvetica,sans-Serif" font-size="10.00">_qfree.hpp</text>
</a>
</g>
</g>
<!-- Node1&#45;&gt;Node2 -->
<g id="edge1_Node000001_Node000002" class="edge">
<title>Node1&#45;&gt;Node2</title>
<g id="a_edge1_Node000001_Node000002"><a xlink:title=" ">
<path fill="none" stroke="#63b8ff" d="M465.66,-814.38C308.73,-807.34 0,-781.48 0,-687 0,-687 0,-687 0,-250.5 0,-178.54 221.19,-130.9 342.15,-110.24"/>
<polygon fill="#63b8ff" stroke="#63b8ff" points="465.64,-817.89 475.78,-814.82 465.94,-810.89 465.64,-817.89"/>
</a>
</g>
</g>
<!-- Node4 -->
<g id="Node000004" class="node">
<title>Node4</title>
<g id="a_Node000004"><a xlink:href="cell_8hpp.html" target="_top" xlink:title=" ">
<polygon fill="white" stroke="#666666" points="626.5,-767 483.5,-767 483.5,-737 626.5,-737 626.5,-767"/>
<text text-anchor="start" x="491.5" y="-755" font-family="Helvetica,sans-Serif" font-size="10.00">/__w/vulpes/vulpes</text>
<text text-anchor="middle" x="555" y="-744" font-family="Helvetica,sans-Serif" font-size="10.00">/vulpes/geometry/cell.hpp</text>
</a>
</g>
</g>
<!-- Node1&#45;&gt;Node4 -->
<g id="edge3_Node000001_Node000004" class="edge">
<title>Node1&#45;&gt;Node4</title>
<g id="a_edge3_Node000001_Node000004"><a xlink:title=" ">
<path fill="none" stroke="#63b8ff" d="M548.43,-792.83C548.02,-784.17 548.31,-774.7 549.29,-767.16"/>
<polygon fill="#63b8ff" stroke="#63b8ff" points="544.95,-793.13 549.28,-802.8 551.92,-792.54 544.95,-793.13"/>
</a>
</g>
</g>
<!-- Node28 -->
<g id="Node000028" class="node">
<title>Node28</title>
<g id="a_Node000028"><a xlink:href="frugal_8hpp.html" target="_top" xlink:title=" ">
<polygon fill="white" stroke="#666666" points="938.5,-701 777.5,-701 777.5,-671 938.5,-671 938.5,-701"/>
<text text-anchor="start" x="785.5" y="-689" font-family="Helvetica,sans-Serif" font-size="10.00">/__w/vulpes/vulpes</text>
<text text-anchor="middle" x="858" y="-678" font-family="Helvetica,sans-Serif" font-size="10.00">/vulpes/quadrature/frugal.hpp</text>
</a>
</g>
</g>
<!-- Node1&#45;&gt;Node28 -->
<g id="edge55_Node000001_Node000028" class="edge">
<title>Node1&#45;&gt;Node28</title>
<g id="a_edge55_Node000001_Node000028"><a xlink:title=" ">
<path fill="none" stroke="#63b8ff" d="M597.04,-798.96C657.96,-772.82 769.55,-724.95 824.96,-701.17"/>
<polygon fill="#63b8ff" stroke="#63b8ff" points="595.52,-795.8 587.71,-802.96 598.28,-802.24 595.52,-795.8"/>
</a>
</g>
</g>
<!-- Node29 -->
<g id="Node000029" class="node">
<title>Node29</title>
<g id="a_Node000029"><a xlink:href="simplexify_8hpp.html" target="_top" xlink:title=" ">
<polygon fill="white" stroke="#666666" points="342,-635 166,-635 166,-605 342,-605 342,-635"/>
<text text-anchor="start" x="174" y="-623" font-family="Helvetica,sans-Serif" font-size="10.00">/__w/vulpes/vulpes</text>
<text text-anchor="middle" x="254" y="-612" font-family="Helvetica,sans-Serif" font-size="10.00">/vulpes/geometry/simplexify.hpp</text>
</a>
</g>
</g>
<!-- Node1&#45;&gt;Node29 -->
<g id="edge50_Node000001_Node000029" class="edge">
<title>Node1&#45;&gt;Node29</title>
<g id="a_edge50_Node000001_Node000029"><a xlink:title=" ">
<path fill="none" stroke="#63b8ff" d="M512.05,-798.7C466.3,-778.22 392.8,-742.42 336,-701 308.68,-681.08 281.48,-652.34 266.3,-635.27"/>
<polygon fill="#63b8ff" stroke="#63b8ff" points="510.81,-801.98 521.37,-802.83 513.65,-795.58 510.81,-801.98"/>
</a>
</g>
</g>
<!-- Node3 -->
<g id="Node000003" class="node">
<title>Node3</title>
<g id="a_Node000003"><a xlink:href="integrator__vem_8hpp.html" target="_top" xlink:title=" ">
<polygon fill="white" stroke="#666666" points="580.5,-41 427.5,-41 427.5,0 580.5,0 580.5,-41"/>
<text text-anchor="start" x="435.5" y="-29" font-family="Helvetica,sans-Serif" font-size="10.00">/__w/vulpes/vulpes</text>
<text text-anchor="start" x="435.5" y="-18" font-family="Helvetica,sans-Serif" font-size="10.00">/vulpes/assemble/integrator</text>
<text text-anchor="middle" x="504" y="-7" font-family="Helvetica,sans-Serif" font-size="10.00">_vem.hpp</text>
</a>
</g>
</g>
<!-- Node2&#45;&gt;Node3 -->
<g id="edge2_Node000002_Node000003" class="edge">
<title>Node2&#45;&gt;Node3</title>
<g id="a_edge2_Node000002_Node000003"><a xlink:title=" ">
<path fill="none" stroke="#63b8ff" d="M448.95,-70.07C459.77,-60.52 471.78,-49.93 481.82,-41.07"/>
<polygon fill="#63b8ff" stroke="#63b8ff" points="446.52,-67.55 441.33,-76.79 451.15,-72.8 446.52,-67.55"/>
</a>
</g>
</g>
<!-- Node4&#45;&gt;Node1 -->
<g id="edge49_Node000004_Node000001" class="edge">
<title>Node4&#45;&gt;Node1</title>
<g id="a_edge49_Node000004_Node000001"><a xlink:title=" ">
<path fill="none" stroke="#63b8ff" d="M561.57,-777.13C561.98,-785.78 561.7,-795.26 560.72,-802.8"/>
<polygon fill="#63b8ff" stroke="#63b8ff" points="565.05,-776.83 560.71,-767.16 558.08,-777.43 565.05,-776.83"/>
</a>
</g>
</g>
<!-- Node5 -->
<g id="Node000005" class="node">
<title>Node5</title>
<g id="a_Node000005"><a xlink:href="cell__manager_8hpp.html" target="_top" xlink:title=" ">
<polygon fill="white" stroke="#666666" points="570,-569 448,-569 448,-528 570,-528 570,-569"/>
<text text-anchor="start" x="456" y="-557" font-family="Helvetica,sans-Serif" font-size="10.00">/__w/vulpes/vulpes</text>
<text text-anchor="start" x="456" y="-546" font-family="Helvetica,sans-Serif" font-size="10.00">/vulpes/assemble/cell</text>
<text text-anchor="middle" x="509" y="-535" font-family="Helvetica,sans-Serif" font-size="10.00">_manager.hpp</text>
</a>
</g>
</g>
<!-- Node4&#45;&gt;Node5 -->
<g id="edge4_Node000004_Node000005" class="edge">
<title>Node4&#45;&gt;Node5</title>
<g id="a_edge4_Node000004_Node000005"><a xlink:title=" ">
<path fill="none" stroke="#63b8ff" d="M547.92,-726.93C545.6,-718.73 543.08,-709.49 541,-701 529.47,-654.01 518.33,-598.2 512.74,-569.2"/>
<polygon fill="#63b8ff" stroke="#63b8ff" points="544.58,-727.98 550.71,-736.62 551.31,-726.05 544.58,-727.98"/>
</a>
</g>
</g>
<!-- Node10 -->
<g id="Node000010" class="node">
<title>Node10</title>
<g id="a_Node000010"><a xlink:href="dof__policy_8hpp.html" target="_top" xlink:title=" ">
<polygon fill="white" stroke="#666666" points="720.5,-701 583.5,-701 583.5,-671 720.5,-671 720.5,-701"/>
<text text-anchor="start" x="591.5" y="-689" font-family="Helvetica,sans-Serif" font-size="10.00">/__w/vulpes/vulpes</text>
<text text-anchor="middle" x="652" y="-678" font-family="Helvetica,sans-Serif" font-size="10.00">/vulpes/fe/dof_policy.hpp</text>
</a>
</g>
</g>
<!-- Node4&#45;&gt;Node10 -->
<g id="edge11_Node000004_Node000010" class="edge">
<title>Node4&#45;&gt;Node10</title>
<g id="a_edge11_Node000004_Node000010"><a xlink:title=" ">
<path fill="none" stroke="#63b8ff" d="M585.27,-731.03C599.95,-721.34 617.23,-709.94 630.53,-701.16"/>
<polygon fill="#63b8ff" stroke="#63b8ff" points="582.95,-728.37 576.53,-736.8 586.8,-734.21 582.95,-728.37"/>
</a>
</g>
</g>
<!-- Node11 -->
<g id="Node000011" class="node">
<title>Node11</title>
<g id="a_Node000011"><a xlink:href="fe__space_8hpp.html" target="_top" xlink:title=" ">
<polygon fill="white" stroke="#666666" points="1215,-635 1083,-635 1083,-605 1215,-605 1215,-635"/>
<text text-anchor="start" x="1091" y="-623" font-family="Helvetica,sans-Serif" font-size="10.00">/__w/vulpes/vulpes</text>
<text text-anchor="middle" x="1149" y="-612" font-family="Helvetica,sans-Serif" font-size="10.00">/vulpes/fe/fe_space.hpp</text>
</a>
</g>
</g>
<!-- Node4&#45;&gt;Node11 -->
<g id="edge45_Node000004_Node000011" class="edge">
<title>Node4&#45;&gt;Node11</title>
<g id="a_edge45_Node000004_Node000011"><a xlink:title=" ">
<path fill="none" stroke="#63b8ff" d="M636.31,-734.38C666.38,-726.51 700.14,-715.58 729,-701 748.52,-691.14 747.8,-679.38 768,-671 823.46,-648 989.29,-632.63 1082.86,-625.52"/>
<polygon fill="#63b8ff" stroke="#63b8ff" points="635.1,-731.08 626.27,-736.93 636.82,-737.86 635.1,-731.08"/>
</a>
</g>
</g>
<!-- Node26 -->
<g id="Node000026" class="node">
<title>Node26</title>
<g id="a_Node000026"><a xlink:href="fe__values_8hpp.html" target="_top" xlink:title=" ">
<polygon fill="white" stroke="#666666" points="900,-563.5 764,-563.5 764,-533.5 900,-533.5 900,-563.5"/>
<text text-anchor="start" x="772" y="-551.5" font-family="Helvetica,sans-Serif" font-size="10.00">/__w/vulpes/vulpes</text>
<text text-anchor="middle" x="832" y="-540.5" font-family="Helvetica,sans-Serif" font-size="10.00">/vulpes/fe/fe_values.hpp</text>
</a>
</g>
</g>
<!-- Node4&#45;&gt;Node26 -->
<g id="edge46_Node000004_Node000026" class="edge">
<title>Node4&#45;&gt;Node26</title>
<g id="a_edge46_Node000004_Node000026"><a xlink:title=" ">
<path fill="none" stroke="#63b8ff" d="M555.37,-726.57C556.83,-709.34 561.31,-686.64 574,-671 603.1,-635.16 726.73,-587.05 791.71,-563.58"/>
<polygon fill="#63b8ff" stroke="#63b8ff" points="551.86,-726.79 554.8,-736.97 558.85,-727.18 551.86,-726.79"/>
</a>
</g>
</g>
<!-- Node27 -->
<g id="Node000027" class="node">
<title>Node27</title>
<g id="a_Node000027"><a xlink:href="cell_8cpp.html" target="_top" xlink:title=" ">
<polygon fill="white" stroke="#666666" points="488.5,-701 345.5,-701 345.5,-671 488.5,-671 488.5,-701"/>
<text text-anchor="start" x="353.5" y="-689" font-family="Helvetica,sans-Serif" font-size="10.00">/__w/vulpes/vulpes</text>
<text text-anchor="middle" x="417" y="-678" font-family="Helvetica,sans-Serif" font-size="10.00">/vulpes/geometry/cell.cpp</text>
</a>
</g>
</g>
<!-- Node4&#45;&gt;Node27 -->
<g id="edge47_Node000004_Node000027" class="edge">
<title>Node4&#45;&gt;Node27</title>
<g id="a_edge47_Node000004_Node000027"><a xlink:title=" ">
<path fill="none" stroke="#63b8ff" d="M515.43,-732.65C493.73,-722.58 467.24,-710.3 447.21,-701.01"/>
<polygon fill="#63b8ff" stroke="#63b8ff" points="514.17,-735.92 524.72,-736.95 517.12,-729.57 514.17,-735.92"/>
</a>
</g>
</g>
<!-- Node4&#45;&gt;Node28 -->
<g id="edge48_Node000004_Node000028" class="edge">
<title>Node4&#45;&gt;Node28</title>
<g id="a_edge48_Node000004_Node000028"><a xlink:title=" ">
<path fill="none" stroke="#63b8ff" d="M631.49,-734.84C680.85,-724.42 744.43,-710.99 791.66,-701.01"/>
<polygon fill="#63b8ff" stroke="#63b8ff" points="630.56,-731.46 621.49,-736.95 632,-738.31 630.56,-731.46"/>
</a>
</g>
</g>
<!-- Node6 -->
<g id="Node000006" class="node">
<title>Node6</title>
<g id="a_Node000006"><a xlink:href="integrator__base_8hpp.html" target="_top" xlink:title=" ">
<polygon fill="white" stroke="#666666" points="732.5,-195 579.5,-195 579.5,-154 732.5,-154 732.5,-195"/>
<text text-anchor="start" x="587.5" y="-183" font-family="Helvetica,sans-Serif" font-size="10.00">/__w/vulpes/vulpes</text>
<text text-anchor="start" x="587.5" y="-172" font-family="Helvetica,sans-Serif" font-size="10.00">/vulpes/assemble/integrator</text>
<text text-anchor="middle" x="656" y="-161" font-family="Helvetica,sans-Serif" font-size="10.00">_base.hpp</text>
</a>
</g>
</g>
<!-- Node5&#45;&gt;Node6 -->
<g id="edge5_Node000005_Node000006" class="edge">
<title>Node5&#45;&gt;Node6</title>
<g id="a_edge5_Node000005_Node000006"><a xlink:title=" ">
<path fill="none" stroke="#63b8ff" d="M477.72,-520.88C469.52,-512.43 461.46,-502.52 456,-492 435.88,-453.19 437,-439.21 437,-395.5 437,-395.5 437,-395.5 437,-322 437,-251.55 516.25,-212.85 579.4,-193.19"/>
<polygon fill="#63b8ff" stroke="#63b8ff" points="475.3,-523.42 484.9,-527.92 480.2,-518.42 475.3,-523.42"/>
</a>
</g>
</g>
<!-- Node9 -->
<g id="Node000009" class="node">
<title>Node9</title>
<g id="a_Node000009"><a xlink:href="project__solution_8hpp.html" target="_top" xlink:title=" ">
<polygon fill="white" stroke="#666666" points="593,-492 465,-492 465,-451 593,-451 593,-492"/>
<text text-anchor="start" x="473" y="-480" font-family="Helvetica,sans-Serif" font-size="10.00">/__w/vulpes/vulpes</text>
<text text-anchor="start" x="473" y="-469" font-family="Helvetica,sans-Serif" font-size="10.00">/vulpes/postprocessing</text>
<text text-anchor="middle" x="529" y="-458" font-family="Helvetica,sans-Serif" font-size="10.00">/project_solution.hpp</text>
</a>
</g>
</g>
<!-- Node5&#45;&gt;Node9 -->
<g id="edge10_Node000005_Node000009" class="edge">
<title>Node5&#45;&gt;Node9</title>
<g id="a_edge10_Node000005_Node000009"><a xlink:title=" ">
<path fill="none" stroke="#63b8ff" d="M516.87,-517.98C519.19,-509.28 521.67,-499.98 523.78,-492.07"/>
<polygon fill="#63b8ff" stroke="#63b8ff" points="513.45,-517.23 514.25,-527.79 520.21,-519.03 513.45,-517.23"/>
</a>
</g>
</g>
<!-- Node6&#45;&gt;Node2 -->
<g id="edge7_Node000006_Node000002" class="edge">
<title>Node6&#45;&gt;Node2</title>
<g id="a_edge7_Node000006_Node000002"><a xlink:title=" ">
<path fill="none" stroke="#63b8ff" d="M584.73,-150.94C551.61,-140.46 512.6,-128.12 480.75,-118.04"/>
<polygon fill="#63b8ff" stroke="#63b8ff" points="583.76,-154.31 594.35,-153.99 585.87,-147.64 583.76,-154.31"/>
</a>
</g>
</g>
<!-- Node7 -->
<g id="Node000007" class="node">
<title>Node7</title>
<g id="a_Node000007"><a xlink:href="integrator__gauss_8hpp.html" target="_top" xlink:title=" ">
<polygon fill="white" stroke="#666666" points="1152.5,-118 999.5,-118 999.5,-77 1152.5,-77 1152.5,-118"/>
<text text-anchor="start" x="1007.5" y="-106" font-family="Helvetica,sans-Serif" font-size="10.00">/__w/vulpes/vulpes</text>
<text text-anchor="start" x="1007.5" y="-95" font-family="Helvetica,sans-Serif" font-size="10.00">/vulpes/assemble/integrator</text>
<text text-anchor="middle" x="1076" y="-84" font-family="Helvetica,sans-Serif" font-size="10.00">_gauss.hpp</text>
</a>
</g>
</g>
<!-- Node6&#45;&gt;Node7 -->
<g id="edge6_Node000006_Node000007" class="edge">
<title>Node6&#45;&gt;Node7</title>
<g id="a_edge6_Node000006_Node000007"><a xlink:title=" ">
<path fill="none" stroke="#63b8ff" d="M742.52,-158.05C818.09,-144.56 926.75,-125.15 999.27,-112.2"/>
<polygon fill="#63b8ff" stroke="#63b8ff" points="741.78,-154.63 732.55,-159.83 743.01,-161.52 741.78,-154.63"/>
</a>
</g>
</g>
<!-- Node8 -->
<g id="Node000008" class="node">
<title>Node8</title>
<g id="a_Node000008"><a xlink:href="integrator__simplexify_8hpp.html" target="_top" xlink:title=" ">
<polygon fill="white" stroke="#666666" points="688.5,-118 535.5,-118 535.5,-77 688.5,-77 688.5,-118"/>
<text text-anchor="start" x="543.5" y="-106" font-family="Helvetica,sans-Serif" font-size="10.00">/__w/vulpes/vulpes</text>
<text text-anchor="start" x="543.5" y="-95" font-family="Helvetica,sans-Serif" font-size="10.00">/vulpes/assemble/integrator</text>
<text text-anchor="middle" x="612" y="-84" font-family="Helvetica,sans-Serif" font-size="10.00">_simplexify.hpp</text>
</a>
</g>
</g>
<!-- Node6&#45;&gt;Node8 -->
<g id="edge8_Node000006_Node000008" class="edge">
<title>Node6&#45;&gt;Node8</title>
<g id="a_edge8_Node000006_Node000008"><a xlink:title=" ">
<path fill="none" stroke="#63b8ff" d="M639.34,-145.11C634.05,-136.09 628.32,-126.33 623.48,-118.07"/>
<polygon fill="#63b8ff" stroke="#63b8ff" points="636.36,-146.94 644.44,-153.79 642.4,-143.4 636.36,-146.94"/>
</a>
</g>
</g>
<!-- Node8&#45;&gt;Node3 -->
<g id="edge9_Node000008_Node000003" class="edge">
<title>Node8&#45;&gt;Node3</title>
<g id="a_edge9_Node000008_Node000003"><a xlink:title=" ">
<path fill="none" stroke="#63b8ff" d="M575.41,-71.09C561.34,-61.32 545.51,-50.32 532.33,-41.17"/>
<polygon fill="#63b8ff" stroke="#63b8ff" points="573.7,-74.16 583.91,-76.99 577.69,-68.41 573.7,-74.16"/>
</a>
</g>
</g>
<!-- Node10&#45;&gt;Node11 -->
<g id="edge12_Node000010_Node000011" class="edge">
<title>Node10&#45;&gt;Node11</title>
<g id="a_edge12_Node000010_Node000011"><a xlink:title=" ">
<path fill="none" stroke="#63b8ff" d="M731.06,-671.58C732.39,-671.38 733.7,-671.19 735,-671 857.52,-653.28 1001.08,-636.92 1082.91,-628.01"/>
<polygon fill="#63b8ff" stroke="#63b8ff" points="730.16,-668.17 720.8,-673.14 731.22,-675.09 730.16,-668.17"/>
</a>
</g>
</g>
<!-- Node11&#45;&gt;Node2 -->
<g id="edge14_Node000011_Node000002" class="edge">
<title>Node11&#45;&gt;Node2</title>
<g id="a_edge14_Node000011_Node000002"><a xlink:title=" ">
<path fill="none" stroke="#63b8ff" d="M1072.88,-618.67C899.47,-617.21 486.34,-609.47 439,-569 378.85,-517.58 399,-474.63 399,-395.5 399,-395.5 399,-395.5 399,-250.5 399,-202.59 408.89,-146.91 414.76,-118.07"/>
<polygon fill="#63b8ff" stroke="#63b8ff" points="1072.92,-622.17 1082.95,-618.75 1072.98,-615.17 1072.92,-622.17"/>
</a>
</g>
</g>
<!-- Node11&#45;&gt;Node7 -->
<g id="edge13_Node000011_Node000007" class="edge">
<title>Node11&#45;&gt;Node7</title>
<g id="a_edge13_Node000011_Node000007"><a xlink:title=" ">
<path fill="none" stroke="#63b8ff" d="M1225.13,-607.32C1271.36,-598.73 1324.53,-585.66 1341,-569 1372.08,-537.58 1365,-516.7 1365,-472.5 1365,-472.5 1365,-472.5 1365,-250.5 1365,-206.3 1372.83,-184.66 1341,-154 1314.47,-128.44 1221.07,-113.37 1152.65,-105.53"/>
<polygon fill="#63b8ff" stroke="#63b8ff" points="1224.31,-603.91 1215.09,-609.14 1225.55,-610.8 1224.31,-603.91"/>
</a>
</g>
</g>
<!-- Node11&#45;&gt;Node8 -->
<g id="edge15_Node000011_Node000008" class="edge">
<title>Node11&#45;&gt;Node8</title>
<g id="a_edge15_Node000011_Node000008"><a xlink:title=" ">
<path fill="none" stroke="#63b8ff" d="M1209.97,-601.36C1229.64,-593.63 1250.58,-583.05 1267,-569 1305.38,-536.17 1327,-523 1327,-472.5 1327,-472.5 1327,-472.5 1327,-250.5 1327,-185.78 872.97,-127.69 688.52,-106.76"/>
<polygon fill="#63b8ff" stroke="#63b8ff" points="1208.58,-598.14 1200.44,-604.92 1211.03,-604.7 1208.58,-598.14"/>
</a>
</g>
</g>
<!-- Node12 -->
<g id="Node000012" class="node">
<title>Node12</title>
<g id="a_Node000012"><a xlink:href="dof__handler_8hpp.html" target="_top" xlink:title=" ">
<polygon fill="white" stroke="#666666" points="745.5,-563.5 588.5,-563.5 588.5,-533.5 745.5,-533.5 745.5,-563.5"/>
<text text-anchor="start" x="596.5" y="-551.5" font-family="Helvetica,sans-Serif" font-size="10.00">/__w/vulpes/vulpes</text>
<text text-anchor="middle" x="667" y="-540.5" font-family="Helvetica,sans-Serif" font-size="10.00">/vulpes/dofs/dof_handler.hpp</text>
</a>
</g>
</g>
<!-- Node11&#45;&gt;Node12 -->
<g id="edge16_Node000011_Node000012" class="edge">
<title>Node11&#45;&gt;Node12</title>
<g id="a_edge16_Node000011_Node000012"><a xlink:title=" ">
<path fill="none" stroke="#63b8ff" d="M1072.42,-611.39C992.8,-602.98 864.71,-588.08 755,-569 745.9,-567.42 736.33,-565.53 726.97,-563.56"/>
<polygon fill="#63b8ff" stroke="#63b8ff" points="1072.53,-614.92 1082.84,-612.48 1073.26,-607.96 1072.53,-614.92"/>
</a>
</g>
</g>
<!-- Node14 -->
<g id="Node000014" class="node">
<title>Node14</title>
<g id="a_Node000014"><a xlink:href="fe__expr__base_8hpp.html" target="_top" xlink:title=" ">
<polygon fill="white" stroke="#666666" points="1141.5,-492 1000.5,-492 1000.5,-451 1141.5,-451 1141.5,-492"/>
<text text-anchor="start" x="1008.5" y="-480" font-family="Helvetica,sans-Serif" font-size="10.00">/__w/vulpes/vulpes</text>
<text text-anchor="start" x="1008.5" y="-469" font-family="Helvetica,sans-Serif" font-size="10.00">/vulpes/fe/fe_expressions</text>
<text text-anchor="middle" x="1071" y="-458" font-family="Helvetica,sans-Serif" font-size="10.00">/fe_expr_base.hpp</text>
</a>
</g>
</g>
<!-- Node11&#45;&gt;Node14 -->
<g id="edge19_Node000011_Node000014" class="edge">
<title>Node11&#45;&gt;Node14</title>
<g id="a_edge19_Node000011_Node000014"><a xlink:title=" ">
<path fill="none" stroke="#63b8ff" d="M1147.91,-594.8C1146.14,-575.62 1141.6,-548.69 1130,-528 1122.23,-514.14 1109.82,-501.7 1098.39,-492.13"/>
<polygon fill="#63b8ff" stroke="#63b8ff" points="1144.42,-595.12 1148.64,-604.83 1151.4,-594.6 1144.42,-595.12"/>
</a>
</g>
</g>
<!-- Node17 -->
<g id="Node000017" class="node">
<title>Node17</title>
<g id="a_Node000017"><a xlink:href="fe__vem_8hpp.html" target="_top" xlink:title=" ">
<polygon fill="white" stroke="#666666" points="1224,-272 1108,-272 1108,-231 1224,-231 1224,-272"/>
<text text-anchor="start" x="1116" y="-260" font-family="Helvetica,sans-Serif" font-size="10.00">/__w/vulpes/vulpes</text>
<text text-anchor="start" x="1116" y="-249" font-family="Helvetica,sans-Serif" font-size="10.00">/vulpes/fe/fe_spaces</text>
<text text-anchor="middle" x="1166" y="-238" font-family="Helvetica,sans-Serif" font-size="10.00">/fe_vem.hpp</text>
</a>
</g>
</g>
<!-- Node11&#45;&gt;Node17 -->
<g id="edge39_Node000011_Node000017" class="edge">
<title>Node11&#45;&gt;Node17</title>
<g id="a_edge39_Node000011_Node000017"><a xlink:title=" ">
<path fill="none" stroke="#63b8ff" d="M1187.14,-599.99C1228.59,-576.31 1289,-531.66 1289,-472.5 1289,-472.5 1289,-472.5 1289,-393.5 1289,-339.25 1236.66,-295.78 1200.26,-272.11"/>
<polygon fill="#63b8ff" stroke="#63b8ff" points="1185.4,-596.95 1178.35,-604.86 1188.79,-603.07 1185.4,-596.95"/>
</a>
</g>
</g>
<!-- Node21 -->
<g id="Node000021" class="node">
<title>Node21</title>
<g id="a_Node000021"><a xlink:href="fe__lagrange__simplex_8hpp.html" target="_top" xlink:title=" ">
<polygon fill="white" stroke="#666666" points="1631.5,-569 1488.5,-569 1488.5,-528 1631.5,-528 1631.5,-569"/>
<text text-anchor="start" x="1496.5" y="-557" font-family="Helvetica,sans-Serif" font-size="10.00">/__w/vulpes/vulpes</text>
<text text-anchor="start" x="1496.5" y="-546" font-family="Helvetica,sans-Serif" font-size="10.00">/vulpes/fe/fe_spaces</text>
<text text-anchor="middle" x="1560" y="-535" font-family="Helvetica,sans-Serif" font-size="10.00">/fe_lagrange_simplex.hpp</text>
</a>
</g>
</g>
<!-- Node11&#45;&gt;Node21 -->
<g id="edge32_Node000011_Node000021" class="edge">
<title>Node11&#45;&gt;Node21</title>
<g id="a_edge32_Node000011_Node000021"><a xlink:title=" ">
<path fill="none" stroke="#63b8ff" d="M1225.21,-606.23C1285.22,-596.16 1370.95,-581.74 1446,-569 1459.66,-566.68 1474.24,-564.2 1488.25,-561.8"/>
<polygon fill="#63b8ff" stroke="#63b8ff" points="1224.35,-602.82 1215.07,-607.93 1225.51,-609.73 1224.35,-602.82"/>
</a>
</g>
</g>
<!-- Node23 -->
<g id="Node000023" class="node">
<title>Node23</title>
<g id="a_Node000023"><a xlink:href="fe__lagrange__tensor_8hpp.html" target="_top" xlink:title=" ">
<polygon fill="white" stroke="#666666" points="1527,-492 1393,-492 1393,-451 1527,-451 1527,-492"/>
<text text-anchor="start" x="1401" y="-480" font-family="Helvetica,sans-Serif" font-size="10.00">/__w/vulpes/vulpes</text>
<text text-anchor="start" x="1401" y="-469" font-family="Helvetica,sans-Serif" font-size="10.00">/vulpes/fe/fe_spaces</text>
<text text-anchor="middle" x="1460" y="-458" font-family="Helvetica,sans-Serif" font-size="10.00">/fe_lagrange_tensor.hpp</text>
</a>
</g>
</g>
<!-- Node11&#45;&gt;Node23 -->
<g id="edge36_Node000011_Node000023" class="edge">
<title>Node11&#45;&gt;Node23</title>
<g id="a_edge36_Node000011_Node000023"><a xlink:title=" ">
<path fill="none" stroke="#63b8ff" d="M1225.3,-614.89C1272.43,-609.45 1332.56,-597.04 1379,-569 1410.46,-550 1435.51,-514.38 1449.02,-492.14"/>
<polygon fill="#63b8ff" stroke="#63b8ff" points="1224.72,-611.43 1215.15,-615.98 1225.46,-618.39 1224.72,-611.43"/>
</a>
</g>
</g>
<!-- Node24 -->
<g id="Node000024" class="node">
<title>Node24</title>
<g id="a_Node000024"><a xlink:href="fe__modal__simplex_8hpp.html" target="_top" xlink:title=" ">
<polygon fill="white" stroke="#666666" points="1836.5,-492 1705.5,-492 1705.5,-451 1836.5,-451 1836.5,-492"/>
<text text-anchor="start" x="1713.5" y="-480" font-family="Helvetica,sans-Serif" font-size="10.00">/__w/vulpes/vulpes</text>
<text text-anchor="start" x="1713.5" y="-469" font-family="Helvetica,sans-Serif" font-size="10.00">/vulpes/fe/fe_spaces</text>
<text text-anchor="middle" x="1771" y="-458" font-family="Helvetica,sans-Serif" font-size="10.00">/fe_modal_simplex.hpp</text>
</a>
</g>
</g>
<!-- Node11&#45;&gt;Node24 -->
<g id="edge37_Node000011_Node000024" class="edge">
<title>Node11&#45;&gt;Node24</title>
<g id="a_edge37_Node000011_Node000024"><a xlink:title=" ">
<path fill="none" stroke="#63b8ff" d="M1225.19,-616.19C1343.91,-610.98 1567.11,-597.65 1641,-569 1685.55,-551.72 1728.26,-514.84 1751.93,-492.01"/>
<polygon fill="#63b8ff" stroke="#63b8ff" points="1224.92,-612.7 1215.08,-616.62 1225.22,-619.69 1224.92,-612.7"/>
</a>
</g>
</g>
<!-- Node25 -->
<g id="Node000025" class="node">
<title>Node25</title>
<g id="a_Node000025"><a xlink:href="fe__modal__tensor_8hpp.html" target="_top" xlink:title=" ">
<polygon fill="white" stroke="#666666" points="1121,-569 999,-569 999,-528 1121,-528 1121,-569"/>
<text text-anchor="start" x="1007" y="-557" font-family="Helvetica,sans-Serif" font-size="10.00">/__w/vulpes/vulpes</text>
<text text-anchor="start" x="1007" y="-546" font-family="Helvetica,sans-Serif" font-size="10.00">/vulpes/fe/fe_spaces</text>
<text text-anchor="middle" x="1060" y="-535" font-family="Helvetica,sans-Serif" font-size="10.00">/fe_modal_tensor.hpp</text>
</a>
</g>
</g>
<!-- Node11&#45;&gt;Node25 -->
<g id="edge38_Node000011_Node000025" class="edge">
<title>Node11&#45;&gt;Node25</title>
<g id="a_edge38_Node000011_Node000025"><a xlink:title=" ">
<path fill="none" stroke="#63b8ff" d="M1123.1,-598.77C1111.12,-589.42 1096.94,-578.35 1085.07,-569.07"/>
<polygon fill="#63b8ff" stroke="#63b8ff" points="1120.95,-601.54 1130.99,-604.94 1125.26,-596.02 1120.95,-601.54"/>
</a>
</g>
</g>
<!-- Node11&#45;&gt;Node26 -->
<g id="edge40_Node000011_Node000026" class="edge">
<title>Node11&#45;&gt;Node26</title>
<g id="a_edge40_Node000011_Node000026"><a xlink:title=" ">
<path fill="none" stroke="#63b8ff" d="M1074.95,-602.76C1020.7,-590.87 947.8,-574.89 896.05,-563.54"/>
<polygon fill="#63b8ff" stroke="#63b8ff" points="1074.33,-606.21 1084.85,-604.94 1075.83,-599.38 1074.33,-606.21"/>
</a>
</g>
</g>
<!-- Node12&#45;&gt;Node9 -->
<g id="edge18_Node000012_Node000009" class="edge">
<title>Node12&#45;&gt;Node9</title>
<g id="a_edge18_Node000012_Node000009"><a xlink:title=" ">
<path fill="none" stroke="#63b8ff" d="M632.04,-528.5C611.53,-517.35 585.68,-503.3 564.99,-492.06"/>
<polygon fill="#63b8ff" stroke="#63b8ff" points="630.59,-531.69 641.04,-533.39 633.93,-525.54 630.59,-531.69"/>
</a>
</g>
</g>
<!-- Node13 -->
<g id="Node000013" class="node">
<title>Node13</title>
<g id="a_Node000013"><a xlink:href="dg__utils_8hpp.html" target="_top" xlink:title=" ">
<polygon fill="white" stroke="#666666" points="801.5,-272 684.5,-272 684.5,-231 801.5,-231 801.5,-272"/>
<text text-anchor="start" x="692.5" y="-260" font-family="Helvetica,sans-Serif" font-size="10.00">/__w/vulpes/vulpes</text>
<text text-anchor="start" x="692.5" y="-249" font-family="Helvetica,sans-Serif" font-size="10.00">/vulpes/assemble/dg</text>
<text text-anchor="middle" x="743" y="-238" font-family="Helvetica,sans-Serif" font-size="10.00">_utils.hpp</text>
</a>
</g>
</g>
<!-- Node12&#45;&gt;Node13 -->
<g id="edge17_Node000012_Node000013" class="edge">
<title>Node12&#45;&gt;Node13</title>
<g id="a_edge17_Node000012_Node000013"><a xlink:title=" ">
<path fill="none" stroke="#63b8ff" d="M655.42,-524.02C651.26,-514.35 647.08,-502.88 645,-492 641.58,-474.1 642.64,-469.07 645,-451 653.52,-385.79 649.08,-364.34 683,-308 691.27,-294.26 703.93,-281.84 715.49,-272.25"/>
<polygon fill="#63b8ff" stroke="#63b8ff" points="652.33,-525.69 659.66,-533.34 658.7,-522.79 652.33,-525.69"/>
</a>
</g>
</g>
<!-- Node15 -->
<g id="Node000015" class="node">
<title>Node15</title>
<g id="a_Node000015"><a xlink:href="fe__expression_8hpp.html" target="_top" xlink:title=" ">
<polygon fill="white" stroke="#666666" points="1074.5,-338 917.5,-338 917.5,-308 1074.5,-308 1074.5,-338"/>
<text text-anchor="start" x="925.5" y="-326" font-family="Helvetica,sans-Serif" font-size="10.00">/__w/vulpes/vulpes</text>
<text text-anchor="middle" x="996" y="-315" font-family="Helvetica,sans-Serif" font-size="10.00">/vulpes/fe/fe_expression.hpp</text>
</a>
</g>
</g>
<!-- Node14&#45;&gt;Node15 -->
<g id="edge20_Node000014_Node000015" class="edge">
<title>Node14&#45;&gt;Node15</title>
<g id="a_edge20_Node000014_Node000015"><a xlink:title=" ">
<path fill="none" stroke="#63b8ff" d="M1151.67,-462.11C1181.61,-454.63 1212.7,-440.72 1231,-415 1241.56,-400.15 1242.47,-388.16 1231,-374 1211.45,-349.85 1135.05,-336.87 1074.6,-330.24"/>
<polygon fill="#63b8ff" stroke="#63b8ff" points="1150.56,-458.77 1141.58,-464.41 1152.11,-465.6 1150.56,-458.77"/>
</a>
</g>
</g>
<!-- Node18 -->
<g id="Node000018" class="node">
<title>Node18</title>
<g id="a_Node000018"><a xlink:href="fe__expr__basis_8hpp.html" target="_top" xlink:title=" ">
<polygon fill="white" stroke="#666666" points="904.5,-415 763.5,-415 763.5,-374 904.5,-374 904.5,-415"/>
<text text-anchor="start" x="771.5" y="-403" font-family="Helvetica,sans-Serif" font-size="10.00">/__w/vulpes/vulpes</text>
<text text-anchor="start" x="771.5" y="-392" font-family="Helvetica,sans-Serif" font-size="10.00">/vulpes/fe/fe_expressions</text>
<text text-anchor="middle" x="834" y="-381" font-family="Helvetica,sans-Serif" font-size="10.00">/fe_expr_basis.hpp</text>
</a>
</g>
</g>
<!-- Node14&#45;&gt;Node18 -->
<g id="edge26_Node000014_Node000018" class="edge">
<title>Node14&#45;&gt;Node18</title>
<g id="a_edge26_Node000014_Node000018"><a xlink:title=" ">
<path fill="none" stroke="#63b8ff" d="M999.73,-447.94C966.61,-437.46 927.6,-425.12 895.75,-415.04"/>
<polygon fill="#63b8ff" stroke="#63b8ff" points="998.76,-451.31 1009.35,-450.99 1000.87,-444.64 998.76,-451.31"/>
</a>
</g>
</g>
<!-- Node19 -->
<g id="Node000019" class="node">
<title>Node19</title>
<g id="a_Node000019"><a xlink:href="fe__expr__func_8hpp.html" target="_top" xlink:title=" ">
<polygon fill="white" stroke="#666666" points="1063.5,-415 922.5,-415 922.5,-374 1063.5,-374 1063.5,-415"/>
<text text-anchor="start" x="930.5" y="-403" font-family="Helvetica,sans-Serif" font-size="10.00">/__w/vulpes/vulpes</text>
<text text-anchor="start" x="930.5" y="-392" font-family="Helvetica,sans-Serif" font-size="10.00">/vulpes/fe/fe_expressions</text>
<text text-anchor="middle" x="993" y="-381" font-family="Helvetica,sans-Serif" font-size="10.00">/fe_expr_func.hpp</text>
</a>
</g>
</g>
<!-- Node14&#45;&gt;Node19 -->
<g id="edge28_Node000014_Node000019" class="edge">
<title>Node14&#45;&gt;Node19</title>
<g id="a_edge28_Node000014_Node000019"><a xlink:title=" ">
<path fill="none" stroke="#63b8ff" d="M1043.22,-443.79C1033.37,-434.32 1022.47,-423.84 1013.36,-415.07"/>
<polygon fill="#63b8ff" stroke="#63b8ff" points="1040.87,-446.39 1050.51,-450.79 1045.72,-441.34 1040.87,-446.39"/>
</a>
</g>
</g>
<!-- Node20 -->
<g id="Node000020" class="node">
<title>Node20</title>
<g id="a_Node000020"><a xlink:href="fe__expr__op_8hpp.html" target="_top" xlink:title=" ">
<polygon fill="white" stroke="#666666" points="1222.5,-415 1081.5,-415 1081.5,-374 1222.5,-374 1222.5,-415"/>
<text text-anchor="start" x="1089.5" y="-403" font-family="Helvetica,sans-Serif" font-size="10.00">/__w/vulpes/vulpes</text>
<text text-anchor="start" x="1089.5" y="-392" font-family="Helvetica,sans-Serif" font-size="10.00">/vulpes/fe/fe_expressions</text>
<text text-anchor="middle" x="1152" y="-381" font-family="Helvetica,sans-Serif" font-size="10.00">/fe_expr_op.hpp</text>
</a>
</g>
</g>
<!-- Node14&#45;&gt;Node20 -->
<g id="edge30_Node000014_Node000020" class="edge">
<title>Node14&#45;&gt;Node20</title>
<g id="a_edge30_Node000014_Node000020"><a xlink:title=" ">
<path fill="none" stroke="#63b8ff" d="M1099.85,-443.79C1110.08,-434.32 1121.39,-423.84 1130.86,-415.07"/>
<polygon fill="#63b8ff" stroke="#63b8ff" points="1097.24,-441.43 1092.28,-450.79 1102,-446.57 1097.24,-441.43"/>
</a>
</g>
</g>
<!-- Node15&#45;&gt;Node6 -->
<g id="edge22_Node000015_Node000006" class="edge">
<title>Node15&#45;&gt;Node6</title>
<g id="a_edge22_Node000015_Node000006"><a xlink:title=" ">
<path fill="none" stroke="#63b8ff" d="M999.09,-297.58C1000.22,-277 998.13,-248.23 981,-231 947.1,-196.9 817.73,-183.66 732.79,-178.58"/>
<polygon fill="#63b8ff" stroke="#63b8ff" points="995.58,-297.51 998.23,-307.77 1002.56,-298.1 995.58,-297.51"/>
</a>
</g>
</g>
<!-- Node15&#45;&gt;Node13 -->
<g id="edge21_Node000015_Node000013" class="edge">
<title>Node15&#45;&gt;Node13</title>
<g id="a_edge21_Node000015_Node000013"><a xlink:title=" ">
<path fill="none" stroke="#63b8ff" d="M932.72,-305.34C896.7,-295.76 850.77,-283.41 810,-272 807.32,-271.25 804.57,-270.48 801.81,-269.69"/>
<polygon fill="#63b8ff" stroke="#63b8ff" points="932.04,-308.78 942.6,-307.96 933.84,-302.01 932.04,-308.78"/>
</a>
</g>
</g>
<!-- Node16 -->
<g id="Node000016" class="node">
<title>Node16</title>
<g id="a_Node000016"><a xlink:href="integrator__traits_8hpp.html" target="_top" xlink:title=" ">
<polygon fill="white" stroke="#666666" points="972.5,-272 819.5,-272 819.5,-231 972.5,-231 972.5,-272"/>
<text text-anchor="start" x="827.5" y="-260" font-family="Helvetica,sans-Serif" font-size="10.00">/__w/vulpes/vulpes</text>
<text text-anchor="start" x="827.5" y="-249" font-family="Helvetica,sans-Serif" font-size="10.00">/vulpes/assemble/integrator</text>
<text text-anchor="middle" x="896" y="-238" font-family="Helvetica,sans-Serif" font-size="10.00">_traits.hpp</text>
</a>
</g>
</g>
<!-- Node15&#45;&gt;Node16 -->
<g id="edge23_Node000015_Node000016" class="edge">
<title>Node15&#45;&gt;Node16</title>
<g id="a_edge23_Node000015_Node000016"><a xlink:title=" ">
<path fill="none" stroke="#63b8ff" d="M967.29,-302.04C953.74,-292.63 937.64,-281.44 924.16,-272.07"/>
<polygon fill="#63b8ff" stroke="#63b8ff" points="965.55,-305.1 975.76,-307.94 969.55,-299.35 965.55,-305.1"/>
</a>
</g>
</g>
<!-- Node15&#45;&gt;Node17 -->
<g id="edge25_Node000015_Node000017" class="edge">
<title>Node15&#45;&gt;Node17</title>
<g id="a_edge25_Node000015_Node000017"><a xlink:title=" ">
<path fill="none" stroke="#63b8ff" d="M1039.95,-304.03C1063.9,-294.24 1093.58,-282.11 1118.12,-272.07"/>
<polygon fill="#63b8ff" stroke="#63b8ff" points="1038.33,-300.91 1030.4,-307.94 1040.98,-307.39 1038.33,-300.91"/>
</a>
</g>
</g>
<!-- Node16&#45;&gt;Node6 -->
<g id="edge24_Node000016_Node000006" class="edge">
<title>Node16&#45;&gt;Node6</title>
<g id="a_edge24_Node000016_Node000006"><a xlink:title=" ">
<path fill="none" stroke="#63b8ff" d="M823.82,-227.94C790.28,-217.46 750.78,-205.12 718.53,-195.04"/>
<polygon fill="#63b8ff" stroke="#63b8ff" points="822.98,-231.35 833.57,-230.99 825.07,-224.67 822.98,-231.35"/>
</a>
</g>
</g>
<!-- Node18&#45;&gt;Node15 -->
<g id="edge27_Node000018_Node000015" class="edge">
<title>Node18&#45;&gt;Node15</title>
<g id="a_edge27_Node000018_Node000015"><a xlink:title=" ">
<path fill="none" stroke="#63b8ff" d="M888.84,-369.97C913.6,-359.35 942.01,-347.16 963.36,-338"/>
<polygon fill="#63b8ff" stroke="#63b8ff" points="887.37,-366.8 879.56,-373.96 890.13,-373.23 887.37,-366.8"/>
</a>
</g>
</g>
<!-- Node19&#45;&gt;Node15 -->
<g id="edge29_Node000019_Node000015" class="edge">
<title>Node19&#45;&gt;Node15</title>
<g id="a_edge29_Node000019_Node000015"><a xlink:title=" ">
<path fill="none" stroke="#63b8ff" d="M994.29,-363.66C994.67,-354.76 995.08,-345.42 995.39,-338.04"/>
<polygon fill="#63b8ff" stroke="#63b8ff" points="990.79,-363.63 993.85,-373.77 997.78,-363.93 990.79,-363.63"/>
</a>
</g>
</g>
<!-- Node20&#45;&gt;Node15 -->
<g id="edge31_Node000020_Node000015" class="edge">
<title>Node20&#45;&gt;Node15</title>
<g id="a_edge31_Node000020_Node000015"><a xlink:title=" ">
<path fill="none" stroke="#63b8ff" d="M1098.9,-369.85C1075.22,-359.3 1048.12,-347.22 1027.68,-338.11"/>
<polygon fill="#63b8ff" stroke="#63b8ff" points="1097.57,-373.08 1108.13,-373.96 1100.42,-366.69 1097.57,-373.08"/>
</a>
</g>
</g>
<!-- Node22 -->
<g id="Node000022" class="node">
<title>Node22</title>
<g id="a_Node000022"><a xlink:href="fe__lagrange__simplex_8cpp.html" target="_top" xlink:title=" ">
<polygon fill="white" stroke="#666666" points="1687,-492 1545,-492 1545,-451 1687,-451 1687,-492"/>
<text text-anchor="start" x="1553" y="-480" font-family="Helvetica,sans-Serif" font-size="10.00">/__w/vulpes/vulpes</text>
<text text-anchor="start" x="1553" y="-469" font-family="Helvetica,sans-Serif" font-size="10.00">/vulpes/fe/fe_spaces</text>
<text text-anchor="middle" x="1616" y="-458" font-family="Helvetica,sans-Serif" font-size="10.00">/fe_lagrange_simplex.cpp</text>
</a>
</g>
</g>
<!-- Node21&#45;&gt;Node22 -->
<g id="edge33_Node000021_Node000022" class="edge">
<title>Node21&#45;&gt;Node22</title>
<g id="a_edge33_Node000021_Node000022"><a xlink:title=" ">
<path fill="none" stroke="#63b8ff" d="M1580.78,-519.67C1587.63,-510.5 1595.1,-500.5 1601.38,-492.07"/>
<polygon fill="#63b8ff" stroke="#63b8ff" points="1577.89,-517.69 1574.71,-527.79 1583.5,-521.88 1577.89,-517.69"/>
</a>
</g>
</g>
<!-- Node21&#45;&gt;Node23 -->
<g id="edge34_Node000021_Node000023" class="edge">
<title>Node21&#45;&gt;Node23</title>
<g id="a_edge34_Node000021_Node000023"><a xlink:title=" ">
<path fill="none" stroke="#63b8ff" d="M1525.75,-521.82C1512.82,-512.11 1498.32,-501.24 1486.23,-492.17"/>
<polygon fill="#63b8ff" stroke="#63b8ff" points="1523.89,-524.79 1533.99,-527.99 1528.09,-519.19 1523.89,-524.79"/>
</a>
</g>
</g>
<!-- Node21&#45;&gt;Node24 -->
<g id="edge35_Node000021_Node000024" class="edge">
<title>Node21&#45;&gt;Node24</title>
<g id="a_edge35_Node000021_Node000024"><a xlink:title=" ">
<path fill="none" stroke="#63b8ff" d="M1624.6,-524.54C1653.84,-514.15 1688.03,-501.99 1716.02,-492.04"/>
<polygon fill="#63b8ff" stroke="#63b8ff" points="1623.14,-521.34 1614.89,-527.99 1625.48,-527.94 1623.14,-521.34"/>
</a>
</g>
</g>
<!-- Node26&#45;&gt;Node6 -->
<g id="edge42_Node000026_Node000006" class="edge">
<title>Node26&#45;&gt;Node6</title>
<g id="a_edge42_Node000026_Node000006"><a xlink:title=" ">
<path fill="none" stroke="#63b8ff" d="M782.49,-529.02C764.92,-520.23 746.43,-508.06 734,-492 662.12,-399.14 655.52,-248.88 655.6,-195.28"/>
<polygon fill="#63b8ff" stroke="#63b8ff" points="781.02,-532.19 791.56,-533.3 784.02,-525.87 781.02,-532.19"/>
</a>
</g>
</g>
<!-- Node26&#45;&gt;Node13 -->
<g id="edge41_Node000026_Node000013" class="edge">
<title>Node26&#45;&gt;Node13</title>
<g id="a_edge41_Node000026_Node000013"><a xlink:title=" ">
<path fill="none" stroke="#63b8ff" d="M792.98,-528.06C778.8,-519.03 764.04,-506.95 755,-492 712.12,-421.12 728.65,-315.71 738.14,-272.29"/>
<polygon fill="#63b8ff" stroke="#63b8ff" points="791.31,-531.14 801.69,-533.29 794.92,-525.14 791.31,-531.14"/>
</a>
</g>
</g>
<!-- Node26&#45;&gt;Node14 -->
<g id="edge44_Node000026_Node000014" class="edge">
<title>Node26&#45;&gt;Node14</title>
<g id="a_edge44_Node000026_Node000014"><a xlink:title=" ">
<path fill="none" stroke="#63b8ff" d="M886.59,-530.37C922.9,-518.97 970.69,-503.98 1008.52,-492.11"/>
<polygon fill="#63b8ff" stroke="#63b8ff" points="885.17,-527.15 876.67,-533.48 887.26,-533.83 885.17,-527.15"/>
</a>
</g>
</g>
<!-- Node26&#45;&gt;Node16 -->
<g id="edge43_Node000026_Node000016" class="edge">
<title>Node26&#45;&gt;Node16</title>
<g id="a_edge43_Node000026_Node000016"><a xlink:title=" ">
<path fill="none" stroke="#63b8ff" d="M809.63,-525.78C778.59,-492.87 728.94,-428.43 754,-374 775.37,-327.58 824.2,-292.29 858.6,-272"/>
<polygon fill="#63b8ff" stroke="#63b8ff" points="807.22,-528.32 816.69,-533.06 812.25,-523.45 807.22,-528.32"/>
</a>
</g>
</g>
<!-- Node29&#45;&gt;Node8 -->
<g id="edge51_Node000029_Node000008" class="edge">
<title>Node29&#45;&gt;Node8</title>
<g id="a_edge51_Node000029_Node000008"><a xlink:title=" ">
<path fill="none" stroke="#63b8ff" d="M248.15,-594.99C241.63,-566.1 232,-516.06 232,-472.5 232,-472.5 232,-472.5 232,-250.5 232,-185.84 424.06,-136.29 535.1,-113.05"/>
<polygon fill="#63b8ff" stroke="#63b8ff" points="244.79,-596.02 250.47,-604.96 251.61,-594.43 244.79,-596.02"/>
</a>
</g>
</g>
<!-- Node30 -->
<g id="Node000030" class="node">
<title>Node30</title>
<g id="a_Node000030"><a xlink:href="mesh__exporter_8hpp.html" target="_top" xlink:title=" ">
<polygon fill="white" stroke="#666666" points="392,-569 260,-569 260,-528 392,-528 392,-569"/>
<text text-anchor="start" x="268" y="-557" font-family="Helvetica,sans-Serif" font-size="10.00">/__w/vulpes/vulpes</text>
<text text-anchor="start" x="268" y="-546" font-family="Helvetica,sans-Serif" font-size="10.00">/vulpes/geometry/mesh</text>
<text text-anchor="middle" x="326" y="-535" font-family="Helvetica,sans-Serif" font-size="10.00">_exporter.hpp</text>
</a>
</g>
</g>
<!-- Node29&#45;&gt;Node30 -->
<g id="edge52_Node000029_Node000030" class="edge">
<title>Node29&#45;&gt;Node30</title>
<g id="a_edge52_Node000029_Node000030"><a xlink:title=" ">
<path fill="none" stroke="#63b8ff" d="M275.8,-597.96C285.31,-588.78 296.39,-578.08 305.72,-569.07"/>
<polygon fill="#63b8ff" stroke="#63b8ff" points="273.33,-595.47 268.57,-604.94 278.2,-600.51 273.33,-595.47"/>
</a>
</g>
</g>
<!-- Node31 -->
<g id="Node000031" class="node">
<title>Node31</title>
<g id="a_Node000031"><a xlink:href="simplexify_8cpp.html" target="_top" xlink:title=" ">
<polygon fill="white" stroke="#666666" points="203.5,-563.5 28.5,-563.5 28.5,-533.5 203.5,-533.5 203.5,-563.5"/>
<text text-anchor="start" x="36.5" y="-551.5" font-family="Helvetica,sans-Serif" font-size="10.00">/__w/vulpes/vulpes</text>
<text text-anchor="middle" x="116" y="-540.5" font-family="Helvetica,sans-Serif" font-size="10.00">/vulpes/geometry/simplexify.cpp</text>
</a>
</g>
</g>
<!-- Node29&#45;&gt;Node31 -->
<g id="edge54_Node000029_Node000031" class="edge">
<title>Node29&#45;&gt;Node31</title>
<g id="a_edge54_Node000029_Node000031"><a xlink:title=" ">
<path fill="none" stroke="#63b8ff" d="M216.96,-600.34C193.97,-588.77 164.92,-574.14 143.88,-563.54"/>
<polygon fill="#63b8ff" stroke="#63b8ff" points="215.57,-603.56 226.07,-604.94 218.72,-597.31 215.57,-603.56"/>
</a>
</g>
</g>
<!-- Node30&#45;&gt;Node9 -->
<g id="edge53_Node000030_Node000009" class="edge">
<title>Node30&#45;&gt;Node9</title>
<g id="a_edge53_Node000030_Node000009"><a xlink:title=" ">
<path fill="none" stroke="#63b8ff" d="M388.51,-524.4C416.56,-514.04 449.3,-501.95 476.11,-492.04"/>
<polygon fill="#63b8ff" stroke="#63b8ff" points="386.97,-521.24 378.81,-527.99 389.4,-527.81 386.97,-521.24"/>
</a>
</g>
</g>
</g>
</svg>
