<?xml version="1.0" encoding="UTF-8" standalone="no"?>
<!DOCTYPE svg PUBLIC "-//W3C//DTD SVG 1.1//EN"
 "http://www.w3.org/Graphics/SVG/1.1/DTD/svg11.dtd">
<!-- Generated by graphviz version 2.42.4 (0)
 -->
<!-- Title: /__w/vulpes/vulpes/vulpes/quadrature/qlibrary.hpp Pages: 1 -->
<svg width="517pt" height="115pt"
 viewBox="0.00 0.00 517.00 115.00" xmlns="http://www.w3.org/2000/svg" xmlns:xlink="http://www.w3.org/1999/xlink">
<g id="graph0" class="graph" transform="scale(1 1) rotate(0) translate(4 111)">
<title>/__w/vulpes/vulpes/vulpes/quadrature/qlibrary.hpp</title>
<!-- Node1 -->
<g id="Node000001" class="node">
<title>Node1</title>
<g id="a_Node000001"><a xlink:title=" ">
<polygon fill="#999999" stroke="#666666" points="331.5,-107 163.5,-107 163.5,-77 331.5,-77 331.5,-107"/>
<text text-anchor="start" x="171.5" y="-95" font-family="Helvetica,sans-Serif" font-size="10.00">/__w/vulpes/vulpes</text>
<text text-anchor="middle" x="247.5" y="-84" font-family="Helvetica,sans-Serif" font-size="10.00">/vulpes/quadrature/qlibrary.hpp</text>
</a>
</g>
</g>
<!-- Node2 -->
<g id="Node000002" class="node">
<title>Node2</title>
<g id="a_Node000002"><a xlink:href="integrator__gauss_8hpp.html" target="_top" xlink:title=" ">
<polygon fill="white" stroke="#666666" points="153,-41 0,-41 0,0 153,0 153,-41"/>
<text text-anchor="start" x="8" y="-29" font-family="Helvetica,sans-Serif" font-size="10.00">/__w/vulpes/vulpes</text>
<text text-anchor="start" x="8" y="-18" font-family="Helvetica,sans-Serif" font-size="10.00">/vulpes/assemble/integrator</text>
<text text-anchor="middle" x="76.5" y="-7" font-family="Helvetica,sans-Serif" font-size="10.00">_gauss.hpp</text>
</a>
</g>
</g>
<!-- Node1&#45;&gt;Node2 -->
<g id="edge1_Node000001_Node000002" class="edge">
<title>Node1&#45;&gt;Node2</title>
<g id="a_edge1_Node000001_Node000002"><a xlink:title=" ">
<path fill="none" stroke="#63b8ff" d="M203.61,-73.16C179.46,-63.35 149.45,-51.15 124.66,-41.07"/>
<polygon fill="#63b8ff" stroke="#63b8ff" points="202.31,-76.41 212.9,-76.94 204.95,-69.93 202.31,-76.41"/>
</a>
</g>
</g>
<!-- Node3 -->
<g id="Node000003" class="node">
<title>Node3</title>
<g id="a_Node000003"><a xlink:href="integrator__simplexify_8hpp.html" target="_top" xlink:title=" ">
<polygon fill="white" stroke="#666666" points="324,-41 171,-41 171,0 324,0 324,-41"/>
<text text-anchor="start" x="179" y="-29" font-family="Helvetica,sans-Serif" font-size="10.00">/__w/vulpes/vulpes</text>
<text text-anchor="start" x="179" y="-18" font-family="Helvetica,sans-Serif" font-size="10.00">/vulpes/assemble/integrator</text>
<text text-anchor="middle" x="247.5" y="-7" font-family="Helvetica,sans-Serif" font-size="10.00">_simplexify.hpp</text>
</a>
</g>
</g>
<!-- Node1&#45;&gt;Node3 -->
<g id="edge2_Node000001_Node000003" class="edge">
<title>Node1&#45;&gt;Node3</title>
<g id="a_edge2_Node000001_Node000003"><a xlink:title=" ">
<path fill="none" stroke="#63b8ff" d="M247.5,-66.91C247.5,-58.47 247.5,-49.1 247.5,-41.07"/>
<polygon fill="#63b8ff" stroke="#63b8ff" points="244,-66.94 247.5,-76.94 251,-66.94 244,-66.94"/>
</a>
</g>
</g>
<!-- Node4 -->
<g id="Node000004" class="node">
<title>Node4</title>
<g id="a_Node000004"><a xlink:href="qlibrary_8cpp.html" target="_top" xlink:title=" ">
<polygon fill="white" stroke="#666666" points="509,-35.5 342,-35.5 342,-5.5 509,-5.5 509,-35.5"/>
<text text-anchor="start" x="350" y="-23.5" font-family="Helvetica,sans-Serif" font-size="10.00">/__w/vulpes/vulpes</text>
<text text-anchor="middle" x="425.5" y="-12.5" font-family="Helvetica,sans-Serif" font-size="10.00">/vulpes/quadrature/qlibrary.cpp</text>
</a>
</g>
</g>
<!-- Node1&#45;&gt;Node4 -->
<g id="edge3_Node000001_Node000004" class="edge">
<title>Node1&#45;&gt;Node4</title>
<g id="a_edge3_Node000001_Node000004"><a xlink:title=" ">
<path fill="none" stroke="#63b8ff" d="M292.93,-73.26C322.92,-61.55 361.68,-46.42 389.53,-35.54"/>
<polygon fill="#63b8ff" stroke="#63b8ff" points="291.56,-70.04 283.52,-76.94 294.11,-76.56 291.56,-70.04"/>
</a>
</g>
</g>
</g>
</svg>
