<?xml version="1.0" encoding="UTF-8" standalone="no"?>
<!DOCTYPE svg PUBLIC "-//W3C//DTD SVG 1.1//EN"
 "http://www.w3.org/Graphics/SVG/1.1/DTD/svg11.dtd">
<!-- Generated by graphviz version 12.2.1 (20241206.2353)
 -->
<!-- Title: /Users/ilariomazzieri/Desktop/vulpes/vulpes/quadrature/qlibrary.cpp Pages: 1 -->
<!--zoomable 326 -->

<svg id="main" version="1.1" xmlns="http://www.w3.org/2000/svg" xmlns:xlink="http://www.w3.org/1999/xlink" xml:space="preserve" onload="init(evt)">
<style type="text/css"><![CDATA[
.node, .edge {opacity: 0.7;}
.node.selected, .edge.selected {opacity: 1;}
.edge:hover path { stroke: red; }
.edge:hover polygon { stroke: red; fill: red; }
]]></style>

<defs>
  <circle id="rim" cx="0" cy="0" r="7"/>
  <circle id="rim2" cx="0" cy="0" r="3.5"/>
  <g id="zoomPlus">
    <use xlink:href="#rim" fill="#404040"><set attributeName="fill" to="#808080" begin="zoomplus.mouseover" end="zoomplus.mouseout"/></use>
    <path d="M-4,0h8M0,-4v8" fill="none" stroke="white" stroke-width="1.5" pointer-events="none"/>
  </g>
  <g id="zoomMin">
    <use xlink:href="#rim" fill="#404040"><set attributeName="fill" to="#808080" begin="zoomminus.mouseover" end="zoomminus.mouseout"/></use>
    <path d="M-4,0h8" fill="none" stroke="white" stroke-width="1.5" pointer-events="none"/>
  </g>
  <g id="arrowUp" transform="translate(30 24)">
    <use xlink:href="#rim"/>
    <path pointer-events="none" fill="none" stroke="white" stroke-width="1.5" d="M0,-3.0v7 M-2.5,-0.5L0,-3.0L2.5,-0.5"/>
  </g>
  <g id="arrowRight" transform="rotate(90) translate(36 -43)">
    <use xlink:href="#rim"/>
    <path pointer-events="none" fill="none" stroke="white" stroke-width="1.5" d="M0,-3.0v7 M-2.5,-0.5L0,-3.0L2.5,-0.5"/>
  </g>
  <g id="arrowDown" transform="rotate(180) translate(-30 -48)">
    <use xlink:href="#rim"/>
    <path pointer-events="none" fill="none" stroke="white" stroke-width="1.5" d="M0,-3.0v7 M-2.5,-0.5L0,-3.0L2.5,-0.5"/>
  </g>
  <g id="arrowLeft" transform="rotate(270) translate(-36 17)">
    <use xlink:href="#rim"/>
    <path pointer-events="none" fill="none" stroke="white" stroke-width="1.5" d="M0,-3.0v7 M-2.5,-0.5L0,-3.0L2.5,-0.5"/>
  </g>
  <g id="resetDef">
    <use xlink:href="#rim2" fill="#404040"><set attributeName="fill" to="#808080" begin="reset.mouseover" end="reset.mouseout"/></use>
  </g>
</defs>
<script type="application/ecmascript">
var viewWidth = 722;
var viewHeight = 326;
var sectionId = 'dynsection-0';
</script>
<script type="application/ecmascript" xlink:href="svg.min.js"/>
<svg id="graph" class="graph">
<g id="viewport">
<title>/Users/ilariomazzieri/Desktop/vulpes/vulpes/quadrature/qlibrary.cpp</title>
<!-- Node1 -->
<g id="Node000001" class="node">
<title>Node1</title>
<g id="a_Node000001"><a xlink:title=" ">
<polygon fill="#999999" stroke="#666666" points="647.12,-318 528.38,-318 528.38,-276.25 647.12,-276.25 647.12,-318"/>
<text text-anchor="start" x="536.38" y="-304.5" font-family="Helvetica,sans-Serif" font-size="10.00">/Users/ilariomazzieri</text>
<text text-anchor="start" x="536.38" y="-293.25" font-family="Helvetica,sans-Serif" font-size="10.00">/Desktop/vulpes/vulpes</text>
<text text-anchor="middle" x="587.75" y="-282" font-family="Helvetica,sans-Serif" font-size="10.00">/quadrature/qlibrary.cpp</text>
</a>
</g>
</g>
<!-- Node2 -->
<g id="Node000002" class="node">
<title>Node2</title>
<g id="a_Node000002"><a xlink:href="qlibrary_8hpp.html" target="_top" xlink:title=" ">
<polygon fill="white" stroke="#666666" points="610.25,-240.25 465.25,-240.25 465.25,-221 610.25,-221 610.25,-240.25"/>
<text text-anchor="middle" x="537.75" y="-226.75" font-family="Helvetica,sans-Serif" font-size="10.00">vulpes/quadrature/qlibrary.hpp</text>
</a>
</g>
</g>
<!-- Node1&#45;&gt;Node2 -->
<g id="edge1_Node000001_Node000002" class="edge">
<title>Node1&#45;&gt;Node2</title>
<g id="a_edge1_Node000001_Node000002"><a xlink:title=" ">
<path fill="none" stroke="#63b8ff" d="M572.2,-276.07C565.68,-267.66 558.15,-257.95 551.8,-249.75"/>
<polygon fill="#63b8ff" stroke="#63b8ff" points="554.6,-247.65 545.71,-241.89 549.07,-251.94 554.6,-247.65"/>
</a>
</g>
</g>
<!-- Node5 -->
<g id="Node000005" class="node">
<title>Node5</title>
<g id="a_Node000005"><a xlink:title=" ">
<polygon fill="#e0e0e0" stroke="#999999" points="714.12,-185 679.38,-185 679.38,-165.75 714.12,-165.75 714.12,-185"/>
<text text-anchor="middle" x="696.75" y="-171.5" font-family="Helvetica,sans-Serif" font-size="10.00">map</text>
</a>
</g>
</g>
<!-- Node1&#45;&gt;Node5 -->
<g id="edge32_Node000001_Node000005" class="edge">
<title>Node1&#45;&gt;Node5</title>
<g id="a_edge32_Node000001_Node000005"><a xlink:title=" ">
<path fill="none" stroke="#63b8ff" d="M606.24,-275.81C627.29,-252.69 661.3,-215.32 681.09,-193.58"/>
<polygon fill="#63b8ff" stroke="#63b8ff" points="683.46,-196.18 687.6,-186.42 678.28,-191.46 683.46,-196.18"/>
</a>
</g>
</g>
<!-- Node3 -->
<g id="Node000003" class="node">
<title>Node3</title>
<g id="a_Node000003"><a xlink:title=" ">
<polygon fill="#e0e0e0" stroke="#999999" points="623.88,-185 575.62,-185 575.62,-165.75 623.88,-165.75 623.88,-185"/>
<text text-anchor="middle" x="599.75" y="-171.5" font-family="Helvetica,sans-Serif" font-size="10.00">cassert</text>
</a>
</g>
</g>
<!-- Node2&#45;&gt;Node3 -->
<g id="edge2_Node000002_Node000003" class="edge">
<title>Node2&#45;&gt;Node3</title>
<g id="a_edge2_Node000002_Node000003"><a xlink:title=" ">
<path fill="none" stroke="#63b8ff" d="M548.27,-220.59C557.14,-212.97 570.06,-201.87 580.74,-192.7"/>
<polygon fill="#63b8ff" stroke="#63b8ff" points="582.93,-195.43 588.24,-186.26 578.37,-190.12 582.93,-195.43"/>
</a>
</g>
</g>
<!-- Node4 -->
<g id="Node000004" class="node">
<title>Node4</title>
<g id="a_Node000004"><a xlink:title=" ">
<polygon fill="#e0e0e0" stroke="#999999" points="440.88,-19.25 392.62,-19.25 392.62,0 440.88,0 440.88,-19.25"/>
<text text-anchor="middle" x="416.75" y="-5.75" font-family="Helvetica,sans-Serif" font-size="10.00">cstddef</text>
</a>
</g>
</g>
<!-- Node2&#45;&gt;Node4 -->
<g id="edge3_Node000002_Node000004" class="edge">
<title>Node2&#45;&gt;Node4</title>
<g id="a_edge3_Node000002_Node000004"><a xlink:title=" ">
<path fill="none" stroke="#63b8ff" d="M580.76,-220.53C600.14,-214.05 621.22,-203.15 632.75,-185 639.67,-174.1 650.13,-141.17 631.75,-110.5 593.75,-47.1 503.25,-23.5 452.61,-15.06"/>
<polygon fill="#63b8ff" stroke="#63b8ff" points="453.16,-11.6 442.75,-13.54 452.1,-18.52 453.16,-11.6"/>
</a>
</g>
</g>
<!-- Node2&#45;&gt;Node5 -->
<g id="edge4_Node000002_Node000005" class="edge">
<title>Node2&#45;&gt;Node5</title>
<g id="a_edge4_Node000002_Node000005"><a xlink:title=" ">
<path fill="none" stroke="#63b8ff" d="M564.72,-220.59C593.51,-210.95 638.92,-195.74 668.27,-185.91"/>
<polygon fill="#63b8ff" stroke="#63b8ff" points="669.22,-189.28 677.6,-182.79 667,-182.65 669.22,-189.28"/>
</a>
</g>
</g>
<!-- Node6 -->
<g id="Node000006" class="node">
<title>Node6</title>
<g id="a_Node000006"><a xlink:title=" ">
<polygon fill="#e0e0e0" stroke="#999999" points="500.38,-185 449.12,-185 449.12,-165.75 500.38,-165.75 500.38,-185"/>
<text text-anchor="middle" x="474.75" y="-171.5" font-family="Helvetica,sans-Serif" font-size="10.00">memory</text>
</a>
</g>
</g>
<!-- Node2&#45;&gt;Node6 -->
<g id="edge5_Node000002_Node000006" class="edge">
<title>Node2&#45;&gt;Node6</title>
<g id="a_edge5_Node000002_Node000006"><a xlink:title=" ">
<path fill="none" stroke="#63b8ff" d="M527.06,-220.59C518.05,-212.97 504.92,-201.87 494.07,-192.7"/>
<polygon fill="#63b8ff" stroke="#63b8ff" points="496.33,-190.03 486.44,-186.25 491.81,-195.38 496.33,-190.03"/>
</a>
</g>
</g>
<!-- Node7 -->
<g id="Node000007" class="node">
<title>Node7</title>
<g id="a_Node000007"><a xlink:title=" ">
<polygon fill="#e0e0e0" stroke="#999999" points="557.38,-185 518.12,-185 518.12,-165.75 557.38,-165.75 557.38,-185"/>
<text text-anchor="middle" x="537.75" y="-171.5" font-family="Helvetica,sans-Serif" font-size="10.00">utility</text>
</a>
</g>
</g>
<!-- Node2&#45;&gt;Node7 -->
<g id="edge6_Node000002_Node000007" class="edge">
<title>Node2&#45;&gt;Node7</title>
<g id="a_edge6_Node000002_Node000007"><a xlink:title=" ">
<path fill="none" stroke="#63b8ff" d="M537.75,-220.83C537.75,-214.32 537.75,-205.17 537.75,-196.87"/>
<polygon fill="#63b8ff" stroke="#63b8ff" points="541.25,-196.87 537.75,-186.87 534.25,-196.87 541.25,-196.87"/>
</a>
</g>
</g>
<!-- Node8 -->
<g id="Node000008" class="node">
<title>Node8</title>
<g id="a_Node000008"><a xlink:href="gauss_8hpp.html" target="_top" xlink:title=" ">
<polygon fill="white" stroke="#666666" points="226.38,-185 85.12,-185 85.12,-165.75 226.38,-165.75 226.38,-185"/>
<text text-anchor="middle" x="155.75" y="-171.5" font-family="Helvetica,sans-Serif" font-size="10.00">vulpes/quadrature/gauss.hpp</text>
</a>
</g>
</g>
<!-- Node2&#45;&gt;Node8 -->
<g id="edge7_Node000002_Node000008" class="edge">
<title>Node2&#45;&gt;Node8</title>
<g id="a_edge7_Node000002_Node000008"><a xlink:title=" ">
<path fill="none" stroke="#63b8ff" d="M472.52,-220.53C405.87,-211.24 302.44,-196.82 232.04,-187.01"/>
<polygon fill="#63b8ff" stroke="#63b8ff" points="232.92,-183.6 222.53,-185.68 231.95,-190.53 232.92,-183.6"/>
</a>
</g>
</g>
<!-- Node10 -->
<g id="Node000010" class="node">
<title>Node10</title>
<g id="a_Node000010"><a xlink:href="qrule_8hpp.html" target="_top" xlink:title=" ">
<polygon fill="white" stroke="#666666" points="484.75,-129.75 348.75,-129.75 348.75,-110.5 484.75,-110.5 484.75,-129.75"/>
<text text-anchor="middle" x="416.75" y="-116.25" font-family="Helvetica,sans-Serif" font-size="10.00">vulpes/quadrature/qrule.hpp</text>
</a>
</g>
</g>
<!-- Node2&#45;&gt;Node10 -->
<g id="edge22_Node000002_Node000010" class="edge">
<title>Node2&#45;&gt;Node10</title>
<g id="a_edge22_Node000002_Node000010"><a xlink:title=" ">
<path fill="none" stroke="#63b8ff" d="M500.91,-220.51C480.47,-213.75 455.97,-202.6 439.75,-185 428.62,-172.92 422.79,-155.07 419.79,-141.3"/>
<polygon fill="#63b8ff" stroke="#63b8ff" points="423.26,-140.8 418.03,-131.59 416.37,-142.05 423.26,-140.8"/>
</a>
</g>
</g>
<!-- Node18 -->
<g id="Node000018" class="node">
<title>Node18</title>
<g id="a_Node000018"><a xlink:href="simplex_8hpp.html" target="_top" xlink:title=" ">
<polygon fill="white" stroke="#666666" points="393.12,-185 244.38,-185 244.38,-165.75 393.12,-165.75 393.12,-185"/>
<text text-anchor="middle" x="318.75" y="-171.5" font-family="Helvetica,sans-Serif" font-size="10.00">vulpes/quadrature/simplex.hpp</text>
</a>
</g>
</g>
<!-- Node2&#45;&gt;Node18 -->
<g id="edge23_Node000002_Node000018" class="edge">
<title>Node2&#45;&gt;Node18</title>
<g id="a_edge23_Node000002_Node000018"><a xlink:title=" ">
<path fill="none" stroke="#63b8ff" d="M500.6,-220.59C463.87,-211.66 407.48,-197.95 367.23,-188.16"/>
<polygon fill="#63b8ff" stroke="#63b8ff" points="368.1,-184.77 357.55,-185.81 366.44,-191.57 368.1,-184.77"/>
</a>
</g>
</g>
<!-- Node8&#45;&gt;Node4 -->
<g id="edge9_Node000008_Node000004" class="edge">
<title>Node8&#45;&gt;Node4</title>
<g id="a_edge9_Node000008_Node000004"><a xlink:title=" ">
<path fill="none" stroke="#63b8ff" d="M166.54,-165.55C192.33,-144.72 259.96,-91.52 321.75,-55.25 341.85,-43.45 365.58,-32.3 384.29,-24.1"/>
<polygon fill="#63b8ff" stroke="#63b8ff" points="385.48,-27.4 393.28,-20.23 382.71,-20.97 385.48,-27.4"/>
</a>
</g>
</g>
<!-- Node9 -->
<g id="Node000009" class="node">
<title>Node9</title>
<g id="a_Node000009"><a xlink:title=" ">
<polygon fill="#e0e0e0" stroke="#999999" points="53.5,-19.25 0,-19.25 0,0 53.5,0 53.5,-19.25"/>
<text text-anchor="middle" x="26.75" y="-5.75" font-family="Helvetica,sans-Serif" font-size="10.00">gmpxx.h</text>
</a>
</g>
</g>
<!-- Node8&#45;&gt;Node9 -->
<g id="edge8_Node000008_Node000009" class="edge">
<title>Node8&#45;&gt;Node9</title>
<g id="a_edge8_Node000008_Node000009"><a xlink:title=" ">
<path fill="none" stroke="#63b8ff" d="M145.66,-165.5C127.21,-148.92 87.48,-111.57 60.75,-74.5 50.63,-60.47 41.57,-43.06 35.34,-29.96"/>
<polygon fill="#63b8ff" stroke="#63b8ff" points="38.64,-28.75 31.28,-21.12 32.28,-31.67 38.64,-28.75"/>
</a>
</g>
</g>
<!-- Node8&#45;&gt;Node10 -->
<g id="edge10_Node000008_Node000010" class="edge">
<title>Node8&#45;&gt;Node10</title>
<g id="a_edge10_Node000008_Node000010"><a xlink:title=" ">
<path fill="none" stroke="#63b8ff" d="M200.32,-165.28C244.8,-156.21 313.26,-142.24 361.24,-132.45"/>
<polygon fill="#63b8ff" stroke="#63b8ff" points="361.78,-135.91 370.88,-130.48 360.38,-129.05 361.78,-135.91"/>
</a>
</g>
</g>
<!-- Node13 -->
<g id="Node000013" class="node">
<title>Node13</title>
<g id="a_Node000013"><a xlink:href="vmath_8hpp.html" target="_top" xlink:title=" ">
<polygon fill="white" stroke="#666666" points="216.88,-74.5 102.62,-74.5 102.62,-55.25 216.88,-55.25 216.88,-74.5"/>
<text text-anchor="middle" x="159.75" y="-61" font-family="Helvetica,sans-Serif" font-size="10.00">vulpes/utils/vmath.hpp</text>
</a>
</g>
</g>
<!-- Node8&#45;&gt;Node13 -->
<g id="edge21_Node000008_Node000013" class="edge">
<title>Node8&#45;&gt;Node13</title>
<g id="a_edge21_Node000008_Node000013"><a xlink:title=" ">
<path fill="none" stroke="#63b8ff" d="M156.08,-165.5C156.71,-148.25 158.13,-109.83 159.01,-86.06"/>
<polygon fill="#63b8ff" stroke="#63b8ff" points="162.49,-86.51 159.36,-76.39 155.5,-86.25 162.49,-86.51"/>
</a>
</g>
</g>
<!-- Node10&#45;&gt;Node4 -->
<g id="edge12_Node000010_Node000004" class="edge">
<title>Node10&#45;&gt;Node4</title>
<g id="a_edge12_Node000010_Node000004"><a xlink:title=" ">
<path fill="none" stroke="#63b8ff" d="M416.75,-110.25C416.75,-93 416.75,-54.58 416.75,-30.81"/>
<polygon fill="#63b8ff" stroke="#63b8ff" points="420.25,-31.14 416.75,-21.14 413.25,-31.14 420.25,-31.14"/>
</a>
</g>
</g>
<!-- Node11 -->
<g id="Node000011" class="node">
<title>Node11</title>
<g id="a_Node000011"><a xlink:title=" ">
<polygon fill="#e0e0e0" stroke="#999999" points="368.62,-74.5 330.88,-74.5 330.88,-55.25 368.62,-55.25 368.62,-74.5"/>
<text text-anchor="middle" x="349.75" y="-61" font-family="Helvetica,sans-Serif" font-size="10.00">array</text>
</a>
</g>
</g>
<!-- Node10&#45;&gt;Node11 -->
<g id="edge11_Node000010_Node000011" class="edge">
<title>Node10&#45;&gt;Node11</title>
<g id="a_edge11_Node000010_Node000011"><a xlink:title=" ">
<path fill="none" stroke="#63b8ff" d="M405.38,-110.09C395.7,-102.4 381.55,-91.15 369.94,-81.93"/>
<polygon fill="#63b8ff" stroke="#63b8ff" points="372.14,-79.2 362.13,-75.72 367.78,-84.68 372.14,-79.2"/>
</a>
</g>
</g>
<!-- Node12 -->
<g id="Node000012" class="node">
<title>Node12</title>
<g id="a_Node000012"><a xlink:title=" ">
<polygon fill="#e0e0e0" stroke="#999999" points="505.25,-74.5 462.25,-74.5 462.25,-55.25 505.25,-55.25 505.25,-74.5"/>
<text text-anchor="middle" x="483.75" y="-61" font-family="Helvetica,sans-Serif" font-size="10.00">vector</text>
</a>
</g>
</g>
<!-- Node10&#45;&gt;Node12 -->
<g id="edge13_Node000010_Node000012" class="edge">
<title>Node10&#45;&gt;Node12</title>
<g id="a_edge13_Node000010_Node000012"><a xlink:title=" ">
<path fill="none" stroke="#63b8ff" d="M428.12,-110.09C437.8,-102.4 451.95,-91.15 463.56,-81.93"/>
<polygon fill="#63b8ff" stroke="#63b8ff" points="465.72,-84.68 471.37,-75.72 461.36,-79.2 465.72,-84.68"/>
</a>
</g>
</g>
<!-- Node10&#45;&gt;Node13 -->
<g id="edge14_Node000010_Node000013" class="edge">
<title>Node10&#45;&gt;Node13</title>
<g id="a_edge14_Node000010_Node000013"><a xlink:title=" ">
<path fill="none" stroke="#63b8ff" d="M372.86,-110.03C329.16,-100.98 261.94,-87.05 214.71,-77.26"/>
<polygon fill="#63b8ff" stroke="#63b8ff" points="215.44,-73.84 204.94,-75.24 214.02,-80.69 215.44,-73.84"/>
</a>
</g>
</g>
<!-- Node13&#45;&gt;Node4 -->
<g id="edge16_Node000013_Node000004" class="edge">
<title>Node13&#45;&gt;Node4</title>
<g id="a_edge16_Node000013_Node000004"><a xlink:title=" ">
<path fill="none" stroke="#63b8ff" d="M203.64,-54.78C253.86,-44.38 335.12,-27.54 381.44,-17.94"/>
<polygon fill="#63b8ff" stroke="#63b8ff" points="381.86,-21.43 390.94,-15.97 380.44,-14.57 381.86,-21.43"/>
</a>
</g>
</g>
<!-- Node13&#45;&gt;Node9 -->
<g id="edge15_Node000013_Node000009" class="edge">
<title>Node13&#45;&gt;Node9</title>
<g id="a_edge15_Node000013_Node000009"><a xlink:title=" ">
<path fill="none" stroke="#63b8ff" d="M137.19,-54.84C115.98,-46.35 83.98,-33.54 59.87,-23.89"/>
<polygon fill="#63b8ff" stroke="#63b8ff" points="61.41,-20.73 50.83,-20.27 58.81,-27.23 61.41,-20.73"/>
</a>
</g>
</g>
<!-- Node14 -->
<g id="Node000014" class="node">
<title>Node14</title>
<g id="a_Node000014"><a xlink:title=" ">
<polygon fill="#e0e0e0" stroke="#999999" points="344.38,-19.25 299.12,-19.25 299.12,0 344.38,0 344.38,-19.25"/>
<text text-anchor="middle" x="321.75" y="-5.75" font-family="Helvetica,sans-Serif" font-size="10.00">cstdint</text>
</a>
</g>
</g>
<!-- Node13&#45;&gt;Node14 -->
<g id="edge17_Node000013_Node000014" class="edge">
<title>Node13&#45;&gt;Node14</title>
<g id="a_edge17_Node000013_Node000014"><a xlink:title=" ">
<path fill="none" stroke="#63b8ff" d="M187.23,-54.84C215.09,-45.69 258.23,-31.5 288.11,-21.68"/>
<polygon fill="#63b8ff" stroke="#63b8ff" points="289.01,-25.07 297.42,-18.62 286.83,-18.42 289.01,-25.07"/>
</a>
</g>
</g>
<!-- Node15 -->
<g id="Node000015" class="node">
<title>Node15</title>
<g id="a_Node000015"><a xlink:title=" ">
<polygon fill="#e0e0e0" stroke="#999999" points="110.38,-19.25 71.12,-19.25 71.12,0 110.38,0 110.38,-19.25"/>
<text text-anchor="middle" x="90.75" y="-5.75" font-family="Helvetica,sans-Serif" font-size="10.00">limits</text>
</a>
</g>
</g>
<!-- Node13&#45;&gt;Node15 -->
<g id="edge18_Node000013_Node000015" class="edge">
<title>Node13&#45;&gt;Node15</title>
<g id="a_edge18_Node000013_Node000015"><a xlink:title=" ">
<path fill="none" stroke="#63b8ff" d="M148.05,-54.84C137.97,-47.07 123.21,-35.67 111.19,-26.4"/>
<polygon fill="#63b8ff" stroke="#63b8ff" points="113.54,-23.79 103.48,-20.45 109.26,-29.33 113.54,-23.79"/>
</a>
</g>
</g>
<!-- Node16 -->
<g id="Node000016" class="node">
<title>Node16</title>
<g id="a_Node000016"><a xlink:title=" ">
<polygon fill="#e0e0e0" stroke="#999999" points="190.62,-19.25 128.88,-19.25 128.88,0 190.62,0 190.62,-19.25"/>
<text text-anchor="middle" x="159.75" y="-5.75" font-family="Helvetica,sans-Serif" font-size="10.00">type_traits</text>
</a>
</g>
</g>
<!-- Node13&#45;&gt;Node16 -->
<g id="edge19_Node000013_Node000016" class="edge">
<title>Node13&#45;&gt;Node16</title>
<g id="a_edge19_Node000013_Node000016"><a xlink:title=" ">
<path fill="none" stroke="#63b8ff" d="M159.75,-55.08C159.75,-48.57 159.75,-39.42 159.75,-31.12"/>
<polygon fill="#63b8ff" stroke="#63b8ff" points="163.25,-31.12 159.75,-21.12 156.25,-31.12 163.25,-31.12"/>
</a>
</g>
</g>
<!-- Node17 -->
<g id="Node000017" class="node">
<title>Node17</title>
<g id="a_Node000017"><a xlink:title=" ">
<polygon fill="#e0e0e0" stroke="#999999" points="280.88,-19.25 208.62,-19.25 208.62,0 280.88,0 280.88,-19.25"/>
<text text-anchor="middle" x="244.75" y="-5.75" font-family="Helvetica,sans-Serif" font-size="10.00">Eigen/Dense</text>
</a>
</g>
</g>
<!-- Node13&#45;&gt;Node17 -->
<g id="edge20_Node000013_Node000017" class="edge">
<title>Node13&#45;&gt;Node17</title>
<g id="a_edge20_Node000013_Node000017"><a xlink:title=" ">
<path fill="none" stroke="#63b8ff" d="M174.17,-54.84C186.87,-46.89 205.62,-35.14 220.61,-25.75"/>
<polygon fill="#63b8ff" stroke="#63b8ff" points="222.36,-28.78 228.98,-20.51 218.65,-22.85 222.36,-28.78"/>
</a>
</g>
</g>
<!-- Node18&#45;&gt;Node4 -->
<g id="edge27_Node000018_Node000004" class="edge">
<title>Node18&#45;&gt;Node4</title>
<g id="a_edge27_Node000018_Node000004"><a xlink:title=" ">
<path fill="none" stroke="#63b8ff" d="M393.59,-166.24C440.76,-159.43 495.54,-147.87 510.75,-129.75 532.06,-104.37 531.63,-83.15 513.75,-55.25 500.21,-34.12 473.86,-22.86 452.03,-16.93"/>
<polygon fill="#63b8ff" stroke="#63b8ff" points="453.14,-13.6 442.6,-14.66 451.5,-20.41 453.14,-13.6"/>
</a>
</g>
</g>
<!-- Node18&#45;&gt;Node9 -->
<g id="edge25_Node000018_Node000009" class="edge">
<title>Node18&#45;&gt;Node9</title>
<g id="a_edge25_Node000018_Node000009"><a xlink:title=" ">
<path fill="none" stroke="#63b8ff" d="M290.15,-165.25C245.8,-150.34 158.75,-117.99 93.75,-74.5 73.81,-61.16 54.34,-41.65 41.57,-27.71"/>
<polygon fill="#63b8ff" stroke="#63b8ff" points="44.5,-25.73 35.22,-20.6 39.27,-30.39 44.5,-25.73"/>
</a>
</g>
</g>
<!-- Node18&#45;&gt;Node10 -->
<g id="edge30_Node000018_Node000010" class="edge">
<title>Node18&#45;&gt;Node10</title>
<g id="a_edge30_Node000018_Node000010"><a xlink:title=" ">
<path fill="none" stroke="#63b8ff" d="M335.37,-165.34C350.44,-157.16 372.89,-144.96 390.4,-135.44"/>
<polygon fill="#63b8ff" stroke="#63b8ff" points="391.6,-138.77 398.71,-130.93 388.26,-132.62 391.6,-138.77"/>
</a>
</g>
</g>
<!-- Node18&#45;&gt;Node11 -->
<g id="edge26_Node000018_Node000011" class="edge">
<title>Node18&#45;&gt;Node11</title>
<g id="a_edge26_Node000018_Node000011"><a xlink:title=" ">
<path fill="none" stroke="#63b8ff" d="M321.29,-165.5C326.24,-148.17 337.29,-109.48 344.08,-85.74"/>
<polygon fill="#63b8ff" stroke="#63b8ff" points="347.38,-86.91 346.76,-76.33 340.65,-84.99 347.38,-86.91"/>
</a>
</g>
</g>
<!-- Node18&#45;&gt;Node12 -->
<g id="edge29_Node000018_Node000012" class="edge">
<title>Node18&#45;&gt;Node12</title>
<g id="a_edge29_Node000018_Node000012"><a xlink:title=" ">
<path fill="none" stroke="#63b8ff" d="M388.96,-165.33C431.74,-158.21 480.62,-146.65 493.75,-129.75 503.54,-117.15 499.37,-98.84 493.73,-85.05"/>
<polygon fill="#63b8ff" stroke="#63b8ff" points="496.96,-83.7 489.56,-76.13 490.62,-86.67 496.96,-83.7"/>
</a>
</g>
</g>
<!-- Node18&#45;&gt;Node13 -->
<g id="edge31_Node000018_Node000013" class="edge">
<title>Node18&#45;&gt;Node13</title>
<g id="a_edge31_Node000018_Node000013"><a xlink:title=" ">
<path fill="none" stroke="#63b8ff" d="M305.47,-165.31C278.28,-146.76 216,-104.26 182.34,-81.29"/>
<polygon fill="#63b8ff" stroke="#63b8ff" points="184.37,-78.44 174.13,-75.69 180.42,-84.22 184.37,-78.44"/>
</a>
</g>
</g>
<!-- Node18&#45;&gt;Node14 -->
<g id="edge28_Node000018_Node000014" class="edge">
<title>Node18&#45;&gt;Node14</title>
<g id="a_edge28_Node000018_Node000014"><a xlink:title=" ">
<path fill="none" stroke="#63b8ff" d="M318.91,-165.57C319.38,-140.25 320.72,-66.75 321.38,-30.84"/>
<polygon fill="#63b8ff" stroke="#63b8ff" points="324.88,-31.05 321.56,-20.99 317.88,-30.92 324.88,-31.05"/>
</a>
</g>
</g>
<!-- Node19 -->
<g id="Node000019" class="node">
<title>Node19</title>
<g id="a_Node000019"><a xlink:title=" ">
<polygon fill="#e0e0e0" stroke="#999999" points="622.25,-129.75 579.25,-129.75 579.25,-110.5 622.25,-110.5 622.25,-129.75"/>
<text text-anchor="middle" x="600.75" y="-116.25" font-family="Helvetica,sans-Serif" font-size="10.00">gmp.h</text>
</a>
</g>
</g>
<!-- Node18&#45;&gt;Node19 -->
<g id="edge24_Node000018_Node000019" class="edge">
<title>Node18&#45;&gt;Node19</title>
<g id="a_edge24_Node000018_Node000019"><a xlink:title=" ">
<path fill="none" stroke="#63b8ff" d="M373.64,-165.32C423.6,-156.86 499.34,-143.51 564.75,-129.75 565.91,-129.51 567.1,-129.25 568.29,-128.99"/>
<polygon fill="#63b8ff" stroke="#63b8ff" points="568.65,-132.5 577.62,-126.86 567.09,-125.67 568.65,-132.5"/>
</a>
</g>
</g>
</g>
</svg>

<g id="navigator" transform="translate(0 0)" fill="#404254">
  <rect fill="#f2f5e9" fill-opacity="0.5" stroke="#606060" stroke-width=".5" x="0" y="0" width="60" height="60"/>
  <use id="zoomplus" xlink:href="#zoomPlus" x="17" y="9" onmousedown="handleZoom(evt,'in')"/>
  <use id="zoomminus" xlink:href="#zoomMin" x="42" y="9" onmousedown="handleZoom(evt,'out')"/>
  <use id="reset" xlink:href="#resetDef" x="30" y="36" onmousedown="handleReset()"/>
   <use id="arrowup" xlink:href="#arrowUp" x="0" y="0" onmousedown="handlePan(0,-1)"/>
  <use id="arrowright" xlink:href="#arrowRight" x="0" y="0" onmousedown="handlePan(1,0)"/>
  <use id="arrowdown" xlink:href="#arrowDown" x="0" y="0" onmousedown="handlePan(0,1)"/>
  <use id="arrowleft" xlink:href="#arrowLeft" x="0" y="0" onmousedown="handlePan(-1,0)"/>
</g>
<svg viewBox="0 0 15 15" width="100%" height="30px" preserveAspectRatio="xMaxYMin meet">
 <g id="arrow_out" transform="scale(0.3 0.3)">
  <a xlink:href="qlibrary_8cpp__incl_org.svg" target="_base">
   <rect id="button" ry="5" rx="5" y="6" x="6" height="38" width="38"
        fill="#f2f5e9" fill-opacity="0.5" stroke="#606060" stroke-width="1.0"/>
   <path id="arrow"
     d="M 11.500037,31.436501 C 11.940474,20.09759 22.043105,11.32322 32.158766,21.979434 L 37.068811,17.246167 C 37.068811,17.246167 37.088388,32 37.088388,32 L 22.160133,31.978069 C 22.160133,31.978069 26.997745,27.140456 26.997745,27.140456 C 18.528582,18.264221 13.291696,25.230495 11.500037,31.436501 z"
     style="fill:#404040;"/>
  </a>
 </g>
</svg>

<style type='text/css'>
<![CDATA[
[data-mouse-over-selected='false'] { opacity: 0.7; }
[data-mouse-over-selected='true']  { opacity: 1.0; }
]]>
</style>
<script type="application/ecmascript"><![CDATA[
document.addEventListener('DOMContentLoaded', (event) => {
  highlightEdges();
  highlightAdjacentNodes();
});
]]></script>
</svg>
