<?xml version="1.0" encoding="UTF-8" standalone="no"?>
<!DOCTYPE svg PUBLIC "-//W3C//DTD SVG 1.1//EN"
 "http://www.w3.org/Graphics/SVG/1.1/DTD/svg11.dtd">
<!-- Generated by graphviz version 12.2.1 (20241206.2353)
 -->
<!-- Title: /Users/ilariomazzieri/Desktop/vulpes/vulpes/quadrature/qrule.hpp Pages: 1 -->
<svg width="460pt" height="160pt"
 viewBox="0.00 0.00 460.00 160.25" xmlns="http://www.w3.org/2000/svg" xmlns:xlink="http://www.w3.org/1999/xlink">
<g id="graph0" class="graph" transform="scale(1 1) rotate(0) translate(4 156.25)">
<title>/Users/ilariomazzieri/Desktop/vulpes/vulpes/quadrature/qrule.hpp</title>
<!-- Node1 -->
<g id="Node000001" class="node">
<title>Node1</title>
<g id="a_Node000001"><a xlink:title=" ">
<polygon fill="#999999" stroke="#666666" points="150.25,-152.25 31.5,-152.25 31.5,-110.5 150.25,-110.5 150.25,-152.25"/>
<text text-anchor="start" x="39.5" y="-138.75" font-family="Helvetica,sans-Serif" font-size="10.00">/Users/ilariomazzieri</text>
<text text-anchor="start" x="39.5" y="-127.5" font-family="Helvetica,sans-Serif" font-size="10.00">/Desktop/vulpes/vulpes</text>
<text text-anchor="middle" x="90.88" y="-116.25" font-family="Helvetica,sans-Serif" font-size="10.00">/quadrature/qrule.hpp</text>
</a>
</g>
</g>
<!-- Node2 -->
<g id="Node000002" class="node">
<title>Node2</title>
<g id="a_Node000002"><a xlink:title=" ">
<polygon fill="#e0e0e0" stroke="#999999" points="37.75,-74.5 0,-74.5 0,-55.25 37.75,-55.25 37.75,-74.5"/>
<text text-anchor="middle" x="18.88" y="-61" font-family="Helvetica,sans-Serif" font-size="10.00">array</text>
</a>
</g>
</g>
<!-- Node1&#45;&gt;Node2 -->
<g id="edge1_Node000001_Node000002" class="edge">
<title>Node1&#45;&gt;Node2</title>
<g id="a_edge1_Node000001_Node000002"><a xlink:title=" ">
<path fill="none" stroke="#63b8ff" d="M68.49,-110.32C58.48,-101.35 46.82,-90.91 37.32,-82.4"/>
<polygon fill="#63b8ff" stroke="#63b8ff" points="39.91,-80.02 30.13,-75.96 35.24,-85.23 39.91,-80.02"/>
</a>
</g>
</g>
<!-- Node3 -->
<g id="Node000003" class="node">
<title>Node3</title>
<g id="a_Node000003"><a xlink:title=" ">
<polygon fill="#e0e0e0" stroke="#999999" points="90,-19.25 41.75,-19.25 41.75,0 90,0 90,-19.25"/>
<text text-anchor="middle" x="65.88" y="-5.75" font-family="Helvetica,sans-Serif" font-size="10.00">cstddef</text>
</a>
</g>
</g>
<!-- Node1&#45;&gt;Node3 -->
<g id="edge2_Node000001_Node000003" class="edge">
<title>Node1&#45;&gt;Node3</title>
<g id="a_edge2_Node000001_Node000003"><a xlink:title=" ">
<path fill="none" stroke="#63b8ff" d="M86.63,-110.06C82,-87.87 74.63,-52.55 70.03,-30.52"/>
<polygon fill="#63b8ff" stroke="#63b8ff" points="73.52,-30.11 68.05,-21.04 66.67,-31.54 73.52,-30.11"/>
</a>
</g>
</g>
<!-- Node4 -->
<g id="Node000004" class="node">
<title>Node4</title>
<g id="a_Node000004"><a xlink:title=" ">
<polygon fill="#e0e0e0" stroke="#999999" points="137.38,-74.5 94.38,-74.5 94.38,-55.25 137.38,-55.25 137.38,-74.5"/>
<text text-anchor="middle" x="115.88" y="-61" font-family="Helvetica,sans-Serif" font-size="10.00">vector</text>
</a>
</g>
</g>
<!-- Node1&#45;&gt;Node4 -->
<g id="edge3_Node000001_Node000004" class="edge">
<title>Node1&#45;&gt;Node4</title>
<g id="a_edge3_Node000001_Node000004"><a xlink:title=" ">
<path fill="none" stroke="#63b8ff" d="M98.65,-110.32C101.69,-102.46 105.18,-93.47 108.21,-85.64"/>
<polygon fill="#63b8ff" stroke="#63b8ff" points="111.46,-86.95 111.81,-76.36 104.93,-84.42 111.46,-86.95"/>
</a>
</g>
</g>
<!-- Node5 -->
<g id="Node000005" class="node">
<title>Node5</title>
<g id="a_Node000005"><a xlink:href="vmath_8hpp.html" target="_top" xlink:title=" ">
<polygon fill="white" stroke="#666666" points="270,-74.5 155.75,-74.5 155.75,-55.25 270,-55.25 270,-74.5"/>
<text text-anchor="middle" x="212.88" y="-61" font-family="Helvetica,sans-Serif" font-size="10.00">vulpes/utils/vmath.hpp</text>
</a>
</g>
</g>
<!-- Node1&#45;&gt;Node5 -->
<g id="edge4_Node000001_Node000005" class="edge">
<title>Node1&#45;&gt;Node5</title>
<g id="a_edge4_Node000001_Node000005"><a xlink:title=" ">
<path fill="none" stroke="#63b8ff" d="M129.14,-110.14C147.49,-100.45 169.03,-89.06 185.67,-80.26"/>
<polygon fill="#63b8ff" stroke="#63b8ff" points="187.27,-83.37 194.48,-75.6 184,-77.18 187.27,-83.37"/>
</a>
</g>
</g>
<!-- Node5&#45;&gt;Node3 -->
<g id="edge6_Node000005_Node000003" class="edge">
<title>Node5&#45;&gt;Node3</title>
<g id="a_edge6_Node000005_Node000003"><a xlink:title=" ">
<path fill="none" stroke="#63b8ff" d="M187.94,-54.84C164.04,-46.18 127.73,-33.03 100.93,-23.32"/>
<polygon fill="#63b8ff" stroke="#63b8ff" points="102.46,-20.16 91.87,-20.04 100.08,-26.74 102.46,-20.16"/>
</a>
</g>
</g>
<!-- Node6 -->
<g id="Node000006" class="node">
<title>Node6</title>
<g id="a_Node000006"><a xlink:title=" ">
<polygon fill="#e0e0e0" stroke="#999999" points="161.62,-19.25 108.12,-19.25 108.12,0 161.62,0 161.62,-19.25"/>
<text text-anchor="middle" x="134.88" y="-5.75" font-family="Helvetica,sans-Serif" font-size="10.00">gmpxx.h</text>
</a>
</g>
</g>
<!-- Node5&#45;&gt;Node6 -->
<g id="edge5_Node000005_Node000006" class="edge">
<title>Node5&#45;&gt;Node6</title>
<g id="a_edge5_Node000005_Node000006"><a xlink:title=" ">
<path fill="none" stroke="#63b8ff" d="M199.64,-54.84C188.1,-46.96 171.11,-35.36 157.43,-26.02"/>
<polygon fill="#63b8ff" stroke="#63b8ff" points="159.65,-23.3 149.42,-20.56 155.71,-29.08 159.65,-23.3"/>
</a>
</g>
</g>
<!-- Node7 -->
<g id="Node000007" class="node">
<title>Node7</title>
<g id="a_Node000007"><a xlink:title=" ">
<polygon fill="#e0e0e0" stroke="#999999" points="224.5,-19.25 179.25,-19.25 179.25,0 224.5,0 224.5,-19.25"/>
<text text-anchor="middle" x="201.88" y="-5.75" font-family="Helvetica,sans-Serif" font-size="10.00">cstdint</text>
</a>
</g>
</g>
<!-- Node5&#45;&gt;Node7 -->
<g id="edge7_Node000005_Node000007" class="edge">
<title>Node5&#45;&gt;Node7</title>
<g id="a_edge7_Node000005_Node000007"><a xlink:title=" ">
<path fill="none" stroke="#63b8ff" d="M211.06,-55.08C209.7,-48.49 207.78,-39.21 206.05,-30.82"/>
<polygon fill="#63b8ff" stroke="#63b8ff" points="209.49,-30.18 204.04,-21.09 202.63,-31.59 209.49,-30.18"/>
</a>
</g>
</g>
<!-- Node8 -->
<g id="Node000008" class="node">
<title>Node8</title>
<g id="a_Node000008"><a xlink:title=" ">
<polygon fill="#e0e0e0" stroke="#999999" points="281.5,-19.25 242.25,-19.25 242.25,0 281.5,0 281.5,-19.25"/>
<text text-anchor="middle" x="261.88" y="-5.75" font-family="Helvetica,sans-Serif" font-size="10.00">limits</text>
</a>
</g>
</g>
<!-- Node5&#45;&gt;Node8 -->
<g id="edge8_Node000005_Node000008" class="edge">
<title>Node5&#45;&gt;Node8</title>
<g id="a_edge8_Node000005_Node000008"><a xlink:title=" ">
<path fill="none" stroke="#63b8ff" d="M220.97,-55.08C227.73,-47.73 237.6,-37.01 245.94,-27.94"/>
<polygon fill="#63b8ff" stroke="#63b8ff" points="248.39,-30.45 252.58,-20.72 243.24,-25.71 248.39,-30.45"/>
</a>
</g>
</g>
<!-- Node9 -->
<g id="Node000009" class="node">
<title>Node9</title>
<g id="a_Node000009"><a xlink:title=" ">
<polygon fill="#e0e0e0" stroke="#999999" points="361.75,-19.25 300,-19.25 300,0 361.75,0 361.75,-19.25"/>
<text text-anchor="middle" x="330.88" y="-5.75" font-family="Helvetica,sans-Serif" font-size="10.00">type_traits</text>
</a>
</g>
</g>
<!-- Node5&#45;&gt;Node9 -->
<g id="edge9_Node000005_Node000009" class="edge">
<title>Node5&#45;&gt;Node9</title>
<g id="a_edge9_Node000005_Node000009"><a xlink:title=" ">
<path fill="none" stroke="#63b8ff" d="M232.89,-54.84C251.37,-46.5 279.08,-34 300.32,-24.41"/>
<polygon fill="#63b8ff" stroke="#63b8ff" points="301.7,-27.63 309.38,-20.33 298.83,-21.25 301.7,-27.63"/>
</a>
</g>
</g>
<!-- Node10 -->
<g id="Node000010" class="node">
<title>Node10</title>
<g id="a_Node000010"><a xlink:title=" ">
<polygon fill="#e0e0e0" stroke="#999999" points="452,-19.25 379.75,-19.25 379.75,0 452,0 452,-19.25"/>
<text text-anchor="middle" x="415.88" y="-5.75" font-family="Helvetica,sans-Serif" font-size="10.00">Eigen/Dense</text>
</a>
</g>
</g>
<!-- Node5&#45;&gt;Node10 -->
<g id="edge10_Node000005_Node000010" class="edge">
<title>Node5&#45;&gt;Node10</title>
<g id="a_edge10_Node000005_Node000010"><a xlink:title=" ">
<path fill="none" stroke="#63b8ff" d="M247.31,-54.84C281.14,-45.97 332.96,-32.37 370.21,-22.6"/>
<polygon fill="#63b8ff" stroke="#63b8ff" points="371.02,-26.01 379.81,-20.09 369.25,-19.24 371.02,-26.01"/>
</a>
</g>
</g>
</g>
</svg>
