<?xml version="1.0" encoding="UTF-8" standalone="no"?>
<!DOCTYPE svg PUBLIC "-//W3C//DTD SVG 1.1//EN"
 "http://www.w3.org/Graphics/SVG/1.1/DTD/svg11.dtd">
<!-- Generated by graphviz version 12.2.1 (20241206.2353)
 -->
<!-- Title: /Users/ilariomazzieri/Desktop/vulpes/vulpes/quadrature/simplex.hpp Pages: 1 -->
<svg width="511pt" height="216pt"
 viewBox="0.00 0.00 511.12 215.50" xmlns="http://www.w3.org/2000/svg" xmlns:xlink="http://www.w3.org/1999/xlink">
<g id="graph0" class="graph" transform="scale(1 1) rotate(0) translate(4 211.5)">
<title>/Users/ilariomazzieri/Desktop/vulpes/vulpes/quadrature/simplex.hpp</title>
<!-- Node1 -->
<g id="Node000001" class="node">
<title>Node1</title>
<g id="a_Node000001"><a xlink:title=" ">
<polygon fill="#999999" stroke="#666666" points="255.62,-207.5 135.38,-207.5 135.38,-165.75 255.62,-165.75 255.62,-207.5"/>
<text text-anchor="start" x="143.38" y="-194" font-family="Helvetica,sans-Serif" font-size="10.00">/Users/ilariomazzieri</text>
<text text-anchor="start" x="143.38" y="-182.75" font-family="Helvetica,sans-Serif" font-size="10.00">/Desktop/vulpes/vulpes</text>
<text text-anchor="middle" x="195.5" y="-171.5" font-family="Helvetica,sans-Serif" font-size="10.00">/quadrature/simplex.hpp</text>
</a>
</g>
</g>
<!-- Node2 -->
<g id="Node000002" class="node">
<title>Node2</title>
<g id="a_Node000002"><a xlink:title=" ">
<polygon fill="#e0e0e0" stroke="#999999" points="43,-129.75 0,-129.75 0,-110.5 43,-110.5 43,-129.75"/>
<text text-anchor="middle" x="21.5" y="-116.25" font-family="Helvetica,sans-Serif" font-size="10.00">gmp.h</text>
</a>
</g>
</g>
<!-- Node1&#45;&gt;Node2 -->
<g id="edge1_Node000001_Node000002" class="edge">
<title>Node1&#45;&gt;Node2</title>
<g id="a_edge1_Node000001_Node000002"><a xlink:title=" ">
<path fill="none" stroke="#63b8ff" d="M140.92,-165.39C112.23,-154.76 78.04,-142.09 53.62,-133.03"/>
<polygon fill="#63b8ff" stroke="#63b8ff" points="55.15,-129.86 44.55,-129.67 52.71,-136.43 55.15,-129.86"/>
</a>
</g>
</g>
<!-- Node3 -->
<g id="Node000003" class="node">
<title>Node3</title>
<g id="a_Node000003"><a xlink:title=" ">
<polygon fill="#e0e0e0" stroke="#999999" points="129.25,-19.25 75.75,-19.25 75.75,0 129.25,0 129.25,-19.25"/>
<text text-anchor="middle" x="102.5" y="-5.75" font-family="Helvetica,sans-Serif" font-size="10.00">gmpxx.h</text>
</a>
</g>
</g>
<!-- Node1&#45;&gt;Node3 -->
<g id="edge2_Node000001_Node000003" class="edge">
<title>Node1&#45;&gt;Node3</title>
<g id="a_edge2_Node000001_Node000003"><a xlink:title=" ">
<path fill="none" stroke="#63b8ff" d="M170.4,-165.49C159.59,-155.69 147.6,-143.15 139.5,-129.75 120.32,-98.03 110.25,-55.47 105.68,-30.75"/>
<polygon fill="#63b8ff" stroke="#63b8ff" points="109.16,-30.36 104.03,-21.09 102.26,-31.54 109.16,-30.36"/>
</a>
</g>
</g>
<!-- Node4 -->
<g id="Node000004" class="node">
<title>Node4</title>
<g id="a_Node000004"><a xlink:title=" ">
<polygon fill="#e0e0e0" stroke="#999999" points="175.38,-74.5 137.62,-74.5 137.62,-55.25 175.38,-55.25 175.38,-74.5"/>
<text text-anchor="middle" x="156.5" y="-61" font-family="Helvetica,sans-Serif" font-size="10.00">array</text>
</a>
</g>
</g>
<!-- Node1&#45;&gt;Node4 -->
<g id="edge3_Node000001_Node000004" class="edge">
<title>Node1&#45;&gt;Node4</title>
<g id="a_edge3_Node000001_Node000004"><a xlink:title=" ">
<path fill="none" stroke="#63b8ff" d="M182.96,-165.36C177.11,-155.05 170.55,-142.11 166.5,-129.75 161.83,-115.51 159.31,-98.75 157.97,-85.97"/>
<polygon fill="#63b8ff" stroke="#63b8ff" points="161.48,-85.93 157.12,-76.27 154.51,-86.54 161.48,-85.93"/>
</a>
</g>
</g>
<!-- Node5 -->
<g id="Node000005" class="node">
<title>Node5</title>
<g id="a_Node000005"><a xlink:title=" ">
<polygon fill="#e0e0e0" stroke="#999999" points="211.62,-19.25 163.38,-19.25 163.38,0 211.62,0 211.62,-19.25"/>
<text text-anchor="middle" x="187.5" y="-5.75" font-family="Helvetica,sans-Serif" font-size="10.00">cstddef</text>
</a>
</g>
</g>
<!-- Node1&#45;&gt;Node5 -->
<g id="edge4_Node000001_Node000005" class="edge">
<title>Node1&#45;&gt;Node5</title>
<g id="a_edge4_Node000001_Node000005"><a xlink:title=" ">
<path fill="none" stroke="#63b8ff" d="M178.25,-165.62C161.44,-144.59 137.18,-109.72 128.5,-74.5 126.45,-66.19 124.69,-62.91 128.5,-55.25 134.74,-42.71 146.37,-32.76 157.66,-25.46"/>
<polygon fill="#63b8ff" stroke="#63b8ff" points="159.23,-28.6 166.06,-20.5 155.67,-22.57 159.23,-28.6"/>
</a>
</g>
</g>
<!-- Node6 -->
<g id="Node000006" class="node">
<title>Node6</title>
<g id="a_Node000006"><a xlink:title=" ">
<polygon fill="#e0e0e0" stroke="#999999" points="503.12,-19.25 457.88,-19.25 457.88,0 503.12,0 503.12,-19.25"/>
<text text-anchor="middle" x="480.5" y="-5.75" font-family="Helvetica,sans-Serif" font-size="10.00">cstdint</text>
</a>
</g>
</g>
<!-- Node1&#45;&gt;Node6 -->
<g id="edge5_Node000001_Node000006" class="edge">
<title>Node1&#45;&gt;Node6</title>
<g id="a_edge5_Node000001_Node000006"><a xlink:title=" ">
<path fill="none" stroke="#63b8ff" d="M255.75,-170.79C286.85,-161.63 324.64,-148.08 355.5,-129.75 386.95,-111.07 389.99,-99.7 416.5,-74.5 432.95,-58.86 451.24,-40.5 464.04,-27.49"/>
<polygon fill="#63b8ff" stroke="#63b8ff" points="466.38,-30.11 470.88,-20.52 461.38,-25.21 466.38,-30.11"/>
</a>
</g>
</g>
<!-- Node7 -->
<g id="Node000007" class="node">
<title>Node7</title>
<g id="a_Node000007"><a xlink:title=" ">
<polygon fill="#e0e0e0" stroke="#999999" points="275,-74.5 232,-74.5 232,-55.25 275,-55.25 275,-74.5"/>
<text text-anchor="middle" x="253.5" y="-61" font-family="Helvetica,sans-Serif" font-size="10.00">vector</text>
</a>
</g>
</g>
<!-- Node1&#45;&gt;Node7 -->
<g id="edge6_Node000001_Node000007" class="edge">
<title>Node1&#45;&gt;Node7</title>
<g id="a_edge6_Node000001_Node000007"><a xlink:title=" ">
<path fill="none" stroke="#63b8ff" d="M255.91,-173.68C280.28,-165.58 306.02,-152.09 320.5,-129.75 333.54,-109.64 308.64,-91.28 285.58,-79.46"/>
<polygon fill="#63b8ff" stroke="#63b8ff" points="287.16,-76.33 276.63,-75.16 284.13,-82.64 287.16,-76.33"/>
</a>
</g>
</g>
<!-- Node8 -->
<g id="Node000008" class="node">
<title>Node8</title>
<g id="a_Node000008"><a xlink:href="qrule_8hpp.html" target="_top" xlink:title=" ">
<polygon fill="white" stroke="#666666" points="311.5,-129.75 175.5,-129.75 175.5,-110.5 311.5,-110.5 311.5,-129.75"/>
<text text-anchor="middle" x="243.5" y="-116.25" font-family="Helvetica,sans-Serif" font-size="10.00">vulpes/quadrature/qrule.hpp</text>
</a>
</g>
</g>
<!-- Node1&#45;&gt;Node8 -->
<g id="edge7_Node000001_Node000008" class="edge">
<title>Node1&#45;&gt;Node8</title>
<g id="a_edge7_Node000001_Node000008"><a xlink:title=" ">
<path fill="none" stroke="#63b8ff" d="M210.42,-165.57C216.69,-157.16 223.91,-147.45 230.01,-139.25"/>
<polygon fill="#63b8ff" stroke="#63b8ff" points="232.68,-141.52 235.85,-131.41 227.07,-137.34 232.68,-141.52"/>
</a>
</g>
</g>
<!-- Node9 -->
<g id="Node000009" class="node">
<title>Node9</title>
<g id="a_Node000009"><a xlink:href="vmath_8hpp.html" target="_top" xlink:title=" ">
<polygon fill="white" stroke="#666666" points="407.62,-74.5 293.38,-74.5 293.38,-55.25 407.62,-55.25 407.62,-74.5"/>
<text text-anchor="middle" x="350.5" y="-61" font-family="Helvetica,sans-Serif" font-size="10.00">vulpes/utils/vmath.hpp</text>
</a>
</g>
</g>
<!-- Node1&#45;&gt;Node9 -->
<g id="edge18_Node000001_Node000009" class="edge">
<title>Node1&#45;&gt;Node9</title>
<g id="a_edge18_Node000001_Node000009"><a xlink:title=" ">
<path fill="none" stroke="#63b8ff" d="M255.98,-175.26C284.31,-167.37 316.2,-153.62 336.5,-129.75 346.75,-117.7 349.99,-99.84 350.81,-86.07"/>
<polygon fill="#63b8ff" stroke="#63b8ff" points="354.31,-86.43 350.99,-76.37 347.31,-86.3 354.31,-86.43"/>
</a>
</g>
</g>
<!-- Node8&#45;&gt;Node4 -->
<g id="edge8_Node000008_Node000004" class="edge">
<title>Node8&#45;&gt;Node4</title>
<g id="a_edge8_Node000008_Node000004"><a xlink:title=" ">
<path fill="none" stroke="#63b8ff" d="M228.74,-110.09C215.62,-102.06 196.18,-90.16 180.77,-80.73"/>
<polygon fill="#63b8ff" stroke="#63b8ff" points="182.98,-77.98 172.62,-75.74 179.32,-83.95 182.98,-77.98"/>
</a>
</g>
</g>
<!-- Node8&#45;&gt;Node5 -->
<g id="edge9_Node000008_Node000005" class="edge">
<title>Node8&#45;&gt;Node5</title>
<g id="a_edge9_Node000008_Node000005"><a xlink:title=" ">
<path fill="none" stroke="#63b8ff" d="M238.92,-110.25C229.89,-92.76 209.64,-53.52 197.42,-29.84"/>
<polygon fill="#63b8ff" stroke="#63b8ff" points="200.54,-28.25 192.84,-20.97 194.32,-31.46 200.54,-28.25"/>
</a>
</g>
</g>
<!-- Node8&#45;&gt;Node7 -->
<g id="edge10_Node000008_Node000007" class="edge">
<title>Node8&#45;&gt;Node7</title>
<g id="a_edge10_Node000008_Node000007"><a xlink:title=" ">
<path fill="none" stroke="#63b8ff" d="M245.15,-110.33C246.39,-103.74 248.13,-94.46 249.71,-86.07"/>
<polygon fill="#63b8ff" stroke="#63b8ff" points="253.13,-86.82 251.53,-76.35 246.25,-85.53 253.13,-86.82"/>
</a>
</g>
</g>
<!-- Node8&#45;&gt;Node9 -->
<g id="edge11_Node000008_Node000009" class="edge">
<title>Node8&#45;&gt;Node9</title>
<g id="a_edge11_Node000008_Node000009"><a xlink:title=" ">
<path fill="none" stroke="#63b8ff" d="M261.65,-110.09C278.18,-101.87 302.84,-89.59 322,-80.06"/>
<polygon fill="#63b8ff" stroke="#63b8ff" points="323.51,-83.22 330.9,-75.63 320.39,-76.95 323.51,-83.22"/>
</a>
</g>
</g>
<!-- Node9&#45;&gt;Node3 -->
<g id="edge12_Node000009_Node000003" class="edge">
<title>Node9&#45;&gt;Node3</title>
<g id="a_edge12_Node000009_Node000003"><a xlink:title=" ">
<path fill="none" stroke="#63b8ff" d="M308.15,-54.78C261.19,-44.7 186.1,-28.58 140.83,-18.85"/>
<polygon fill="#63b8ff" stroke="#63b8ff" points="141.71,-15.46 131.2,-16.79 140.24,-22.31 141.71,-15.46"/>
</a>
</g>
</g>
<!-- Node9&#45;&gt;Node5 -->
<g id="edge13_Node000009_Node000005" class="edge">
<title>Node9&#45;&gt;Node5</title>
<g id="a_edge13_Node000009_Node000005"><a xlink:title=" ">
<path fill="none" stroke="#63b8ff" d="M322.85,-54.84C295.3,-45.84 252.91,-31.99 222.91,-22.19"/>
<polygon fill="#63b8ff" stroke="#63b8ff" points="224.11,-18.9 213.52,-19.13 221.94,-25.56 224.11,-18.9"/>
</a>
</g>
</g>
<!-- Node9&#45;&gt;Node6 -->
<g id="edge14_Node000009_Node000006" class="edge">
<title>Node9&#45;&gt;Node6</title>
<g id="a_edge14_Node000009_Node000006"><a xlink:title=" ">
<path fill="none" stroke="#63b8ff" d="M372.55,-54.84C393.19,-46.39 424.28,-33.65 447.8,-24.02"/>
<polygon fill="#63b8ff" stroke="#63b8ff" points="449.01,-27.31 456.94,-20.28 446.36,-20.83 449.01,-27.31"/>
</a>
</g>
</g>
<!-- Node10 -->
<g id="Node000010" class="node">
<title>Node10</title>
<g id="a_Node000010"><a xlink:title=" ">
<polygon fill="#e0e0e0" stroke="#999999" points="269.12,-19.25 229.88,-19.25 229.88,0 269.12,0 269.12,-19.25"/>
<text text-anchor="middle" x="249.5" y="-5.75" font-family="Helvetica,sans-Serif" font-size="10.00">limits</text>
</a>
</g>
</g>
<!-- Node9&#45;&gt;Node10 -->
<g id="edge15_Node000009_Node000010" class="edge">
<title>Node9&#45;&gt;Node10</title>
<g id="a_edge15_Node000009_Node000010"><a xlink:title=" ">
<path fill="none" stroke="#63b8ff" d="M333.37,-54.84C317.84,-46.66 294.7,-34.46 276.66,-24.94"/>
<polygon fill="#63b8ff" stroke="#63b8ff" points="278.53,-21.98 268.06,-20.41 275.27,-28.17 278.53,-21.98"/>
</a>
</g>
</g>
<!-- Node11 -->
<g id="Node000011" class="node">
<title>Node11</title>
<g id="a_Node000011"><a xlink:title=" ">
<polygon fill="#e0e0e0" stroke="#999999" points="349.38,-19.25 287.62,-19.25 287.62,0 349.38,0 349.38,-19.25"/>
<text text-anchor="middle" x="318.5" y="-5.75" font-family="Helvetica,sans-Serif" font-size="10.00">type_traits</text>
</a>
</g>
</g>
<!-- Node9&#45;&gt;Node11 -->
<g id="edge16_Node000009_Node000011" class="edge">
<title>Node9&#45;&gt;Node11</title>
<g id="a_edge16_Node000009_Node000011"><a xlink:title=" ">
<path fill="none" stroke="#63b8ff" d="M345.22,-55.08C341.03,-48.11 335.02,-38.12 329.77,-29.37"/>
<polygon fill="#63b8ff" stroke="#63b8ff" points="332.83,-27.68 324.68,-20.91 326.83,-31.28 332.83,-27.68"/>
</a>
</g>
</g>
<!-- Node12 -->
<g id="Node000012" class="node">
<title>Node12</title>
<g id="a_Node000012"><a xlink:title=" ">
<polygon fill="#e0e0e0" stroke="#999999" points="439.62,-19.25 367.38,-19.25 367.38,0 439.62,0 439.62,-19.25"/>
<text text-anchor="middle" x="403.5" y="-5.75" font-family="Helvetica,sans-Serif" font-size="10.00">Eigen/Dense</text>
</a>
</g>
</g>
<!-- Node9&#45;&gt;Node12 -->
<g id="edge17_Node000009_Node000012" class="edge">
<title>Node9&#45;&gt;Node12</title>
<g id="a_edge17_Node000009_Node000012"><a xlink:title=" ">
<path fill="none" stroke="#63b8ff" d="M359.25,-55.08C366.65,-47.65 377.46,-36.79 386.55,-27.66"/>
<polygon fill="#63b8ff" stroke="#63b8ff" points="388.92,-30.24 393.49,-20.68 383.96,-25.3 388.92,-30.24"/>
</a>
</g>
</g>
</g>
</svg>
