<?xml version="1.0" encoding="UTF-8" standalone="no"?>
<!DOCTYPE svg PUBLIC "-//W3C//DTD SVG 1.1//EN"
 "http://www.w3.org/Graphics/SVG/1.1/DTD/svg11.dtd">
<!-- Generated by graphviz version 2.42.4 (0)
 -->
<!-- Title: /__w/vulpes/vulpes/vulpes/geometry/simplexify.hpp Pages: 1 -->
<svg width="1189pt" height="269pt"
 viewBox="0.00 0.00 1189.00 269.00" xmlns="http://www.w3.org/2000/svg" xmlns:xlink="http://www.w3.org/1999/xlink">
<g id="graph0" class="graph" transform="scale(1 1) rotate(0) translate(4 265)">
<title>/__w/vulpes/vulpes/vulpes/geometry/simplexify.hpp</title>
<!-- Node1 -->
<g id="Node000001" class="node">
<title>Node1</title>
<g id="a_Node000001"><a xlink:title=" ">
<polygon fill="#999999" stroke="#666666" points="868.5,-261 692.5,-261 692.5,-231 868.5,-231 868.5,-261"/>
<text text-anchor="start" x="700.5" y="-249" font-family="Helvetica,sans-Serif" font-size="10.00">/__w/vulpes/vulpes</text>
<text text-anchor="middle" x="780.5" y="-238" font-family="Helvetica,sans-Serif" font-size="10.00">/vulpes/geometry/simplexify.hpp</text>
</a>
</g>
</g>
<!-- Node2 -->
<g id="Node000002" class="node">
<title>Node2</title>
<g id="a_Node000002"><a xlink:href="integrator__simplexify_8hpp.html" target="_top" xlink:title=" ">
<polygon fill="white" stroke="#666666" points="444,-195 291,-195 291,-154 444,-154 444,-195"/>
<text text-anchor="start" x="299" y="-183" font-family="Helvetica,sans-Serif" font-size="10.00">/__w/vulpes/vulpes</text>
<text text-anchor="start" x="299" y="-172" font-family="Helvetica,sans-Serif" font-size="10.00">/vulpes/assemble/integrator</text>
<text text-anchor="middle" x="367.5" y="-161" font-family="Helvetica,sans-Serif" font-size="10.00">_simplexify.hpp</text>
</a>
</g>
</g>
<!-- Node1&#45;&gt;Node2 -->
<g id="edge1_Node000001_Node000002" class="edge">
<title>Node1&#45;&gt;Node2</title>
<g id="a_edge1_Node000001_Node000002"><a xlink:title=" ">
<path fill="none" stroke="#63b8ff" d="M686.77,-229.23C613.5,-216.9 512.9,-199.97 444.33,-188.43"/>
<polygon fill="#63b8ff" stroke="#63b8ff" points="686.48,-232.73 696.92,-230.94 687.64,-225.82 686.48,-232.73"/>
</a>
</g>
</g>
<!-- Node4 -->
<g id="Node000004" class="node">
<title>Node4</title>
<g id="a_Node000004"><a xlink:href="mesh__exporter_8hpp.html" target="_top" xlink:title=" ">
<polygon fill="white" stroke="#666666" points="799.5,-195 667.5,-195 667.5,-154 799.5,-154 799.5,-195"/>
<text text-anchor="start" x="675.5" y="-183" font-family="Helvetica,sans-Serif" font-size="10.00">/__w/vulpes/vulpes</text>
<text text-anchor="start" x="675.5" y="-172" font-family="Helvetica,sans-Serif" font-size="10.00">/vulpes/geometry/mesh</text>
<text text-anchor="middle" x="733.5" y="-161" font-family="Helvetica,sans-Serif" font-size="10.00">_exporter.hpp</text>
</a>
</g>
</g>
<!-- Node1&#45;&gt;Node4 -->
<g id="edge3_Node000001_Node000004" class="edge">
<title>Node1&#45;&gt;Node4</title>
<g id="a_edge3_Node000001_Node000004"><a xlink:title=" ">
<path fill="none" stroke="#63b8ff" d="M765.34,-222.59C759.35,-213.73 752.53,-203.63 746.74,-195.07"/>
<polygon fill="#63b8ff" stroke="#63b8ff" points="762.49,-224.61 770.99,-230.94 768.29,-220.69 762.49,-224.61"/>
</a>
</g>
</g>
<!-- Node12 -->
<g id="Node000012" class="node">
<title>Node12</title>
<g id="a_Node000012"><a xlink:href="cranknicolson_8hpp.html" target="_top" xlink:title=" ">
<polygon fill="white" stroke="#666666" points="1181,-118 1050,-118 1050,-77 1181,-77 1181,-118"/>
<text text-anchor="start" x="1058" y="-106" font-family="Helvetica,sans-Serif" font-size="10.00">/__w/vulpes/vulpes</text>
<text text-anchor="start" x="1058" y="-95" font-family="Helvetica,sans-Serif" font-size="10.00">/vulpes/timeintegration</text>
<text text-anchor="middle" x="1115.5" y="-84" font-family="Helvetica,sans-Serif" font-size="10.00">/cranknicolson.hpp</text>
</a>
</g>
</g>
<!-- Node1&#45;&gt;Node12 -->
<g id="edge14_Node000001_Node000012" class="edge">
<title>Node1&#45;&gt;Node12</title>
<g id="a_edge14_Node000001_Node000012"><a xlink:title=" ">
<path fill="none" stroke="#63b8ff" d="M794.21,-222.29C809.17,-198.27 832.82,-162.64 846.5,-154 920.64,-107.17 954.9,-137.05 1040.5,-118 1043.52,-117.33 1046.6,-116.62 1049.71,-115.89"/>
<polygon fill="#63b8ff" stroke="#63b8ff" points="791.2,-220.5 788.94,-230.85 797.16,-224.17 791.2,-220.5"/>
</a>
</g>
</g>
<!-- Node14 -->
<g id="Node000014" class="node">
<title>Node14</title>
<g id="a_Node000014"><a xlink:href="simplexify_8cpp.html" target="_top" xlink:title=" ">
<polygon fill="white" stroke="#666666" points="1031,-189.5 856,-189.5 856,-159.5 1031,-159.5 1031,-189.5"/>
<text text-anchor="start" x="864" y="-177.5" font-family="Helvetica,sans-Serif" font-size="10.00">/__w/vulpes/vulpes</text>
<text text-anchor="middle" x="943.5" y="-166.5" font-family="Helvetica,sans-Serif" font-size="10.00">/vulpes/geometry/simplexify.cpp</text>
</a>
</g>
</g>
<!-- Node1&#45;&gt;Node14 -->
<g id="edge13_Node000001_Node000014" class="edge">
<title>Node1&#45;&gt;Node14</title>
<g id="a_edge13_Node000001_Node000014"><a xlink:title=" ">
<path fill="none" stroke="#63b8ff" d="M822.81,-226.96C850.18,-215.29 885.28,-200.32 910.56,-189.54"/>
<polygon fill="#63b8ff" stroke="#63b8ff" points="821.31,-223.79 813.49,-230.94 824.06,-230.23 821.31,-223.79"/>
</a>
</g>
</g>
<!-- Node3 -->
<g id="Node000003" class="node">
<title>Node3</title>
<g id="a_Node000003"><a xlink:href="integrator__vem_8hpp.html" target="_top" xlink:title=" ">
<polygon fill="white" stroke="#666666" points="153,-118 0,-118 0,-77 153,-77 153,-118"/>
<text text-anchor="start" x="8" y="-106" font-family="Helvetica,sans-Serif" font-size="10.00">/__w/vulpes/vulpes</text>
<text text-anchor="start" x="8" y="-95" font-family="Helvetica,sans-Serif" font-size="10.00">/vulpes/assemble/integrator</text>
<text text-anchor="middle" x="76.5" y="-84" font-family="Helvetica,sans-Serif" font-size="10.00">_vem.hpp</text>
</a>
</g>
</g>
<!-- Node2&#45;&gt;Node3 -->
<g id="edge2_Node000002_Node000003" class="edge">
<title>Node2&#45;&gt;Node3</title>
<g id="a_edge2_Node000002_Node000003"><a xlink:title=" ">
<path fill="none" stroke="#63b8ff" d="M282.07,-151.48C240.97,-140.89 192.1,-128.29 152.32,-118.04"/>
<polygon fill="#63b8ff" stroke="#63b8ff" points="281.25,-154.88 291.8,-153.99 282.99,-148.11 281.25,-154.88"/>
</a>
</g>
</g>
<!-- Node5 -->
<g id="Node000005" class="node">
<title>Node5</title>
<g id="a_Node000005"><a xlink:href="gnn__agglomeration_8hpp.html" target="_top" xlink:title=" ">
<polygon fill="white" stroke="#666666" points="347.5,-118 171.5,-118 171.5,-77 347.5,-77 347.5,-118"/>
<text text-anchor="start" x="179.5" y="-106" font-family="Helvetica,sans-Serif" font-size="10.00">/__w/vulpes/vulpes</text>
<text text-anchor="start" x="179.5" y="-95" font-family="Helvetica,sans-Serif" font-size="10.00">/vulpes/geometry/agglomeration</text>
<text text-anchor="middle" x="259.5" y="-84" font-family="Helvetica,sans-Serif" font-size="10.00">/gnn_agglomeration.hpp</text>
</a>
</g>
</g>
<!-- Node4&#45;&gt;Node5 -->
<g id="edge4_Node000004_Node000005" class="edge">
<title>Node4&#45;&gt;Node5</title>
<g id="a_edge4_Node000004_Node000005"><a xlink:title=" ">
<path fill="none" stroke="#63b8ff" d="M657.27,-163.47C580.99,-153.15 460.36,-136.07 356.5,-118 353.62,-117.5 350.7,-116.98 347.75,-116.44"/>
<polygon fill="#63b8ff" stroke="#63b8ff" points="656.9,-166.95 667.27,-164.82 657.83,-160.01 656.9,-166.95"/>
</a>
</g>
</g>
<!-- Node7 -->
<g id="Node000007" class="node">
<title>Node7</title>
<g id="a_Node000007"><a xlink:href="kmeans__agglomeration_8cpp.html" target="_top" xlink:title=" ">
<polygon fill="white" stroke="#666666" points="541.5,-118 365.5,-118 365.5,-77 541.5,-77 541.5,-118"/>
<text text-anchor="start" x="373.5" y="-106" font-family="Helvetica,sans-Serif" font-size="10.00">/__w/vulpes/vulpes</text>
<text text-anchor="start" x="373.5" y="-95" font-family="Helvetica,sans-Serif" font-size="10.00">/vulpes/geometry/agglomeration</text>
<text text-anchor="middle" x="453.5" y="-84" font-family="Helvetica,sans-Serif" font-size="10.00">/kmeans_agglomeration.cpp</text>
</a>
</g>
</g>
<!-- Node4&#45;&gt;Node7 -->
<g id="edge6_Node000004_Node000007" class="edge">
<title>Node4&#45;&gt;Node7</title>
<g id="a_edge6_Node000004_Node000007"><a xlink:title=" ">
<path fill="none" stroke="#63b8ff" d="M657.61,-153.17C616.82,-142.25 566.77,-128.84 526.44,-118.04"/>
<polygon fill="#63b8ff" stroke="#63b8ff" points="656.93,-156.61 667.5,-155.82 658.74,-149.85 656.93,-156.61"/>
</a>
</g>
</g>
<!-- Node8 -->
<g id="Node000008" class="node">
<title>Node8</title>
<g id="a_Node000008"><a xlink:href="parmetis__agglomeration_8hpp.html" target="_top" xlink:title=" ">
<polygon fill="white" stroke="#666666" points="735.5,-118 559.5,-118 559.5,-77 735.5,-77 735.5,-118"/>
<text text-anchor="start" x="567.5" y="-106" font-family="Helvetica,sans-Serif" font-size="10.00">/__w/vulpes/vulpes</text>
<text text-anchor="start" x="567.5" y="-95" font-family="Helvetica,sans-Serif" font-size="10.00">/vulpes/geometry/agglomeration</text>
<text text-anchor="middle" x="647.5" y="-84" font-family="Helvetica,sans-Serif" font-size="10.00">/parmetis_agglomeration.hpp</text>
</a>
</g>
</g>
<!-- Node4&#45;&gt;Node8 -->
<g id="edge7_Node000004_Node000008" class="edge">
<title>Node4&#45;&gt;Node8</title>
<g id="a_edge7_Node000004_Node000008"><a xlink:title=" ">
<path fill="none" stroke="#63b8ff" d="M703.19,-147.07C692.25,-137.52 680.1,-126.93 669.94,-118.07"/>
<polygon fill="#63b8ff" stroke="#63b8ff" points="701.07,-149.86 710.9,-153.79 705.67,-144.58 701.07,-149.86"/>
</a>
</g>
</g>
<!-- Node10 -->
<g id="Node000010" class="node">
<title>Node10</title>
<g id="a_Node000010"><a xlink:href="mesh__2d_8cpp.html" target="_top" xlink:title=" ">
<polygon fill="white" stroke="#666666" points="885.5,-118 753.5,-118 753.5,-77 885.5,-77 885.5,-118"/>
<text text-anchor="start" x="761.5" y="-106" font-family="Helvetica,sans-Serif" font-size="10.00">/__w/vulpes/vulpes</text>
<text text-anchor="start" x="761.5" y="-95" font-family="Helvetica,sans-Serif" font-size="10.00">/vulpes/geometry/mesh</text>
<text text-anchor="middle" x="819.5" y="-84" font-family="Helvetica,sans-Serif" font-size="10.00">/mesh_2d.cpp</text>
</a>
</g>
</g>
<!-- Node4&#45;&gt;Node10 -->
<g id="edge9_Node000004_Node000010" class="edge">
<title>Node4&#45;&gt;Node10</title>
<g id="a_edge9_Node000004_Node000010"><a xlink:title=" ">
<path fill="none" stroke="#63b8ff" d="M763.81,-147.07C774.75,-137.52 786.9,-126.93 797.06,-118.07"/>
<polygon fill="#63b8ff" stroke="#63b8ff" points="761.33,-144.58 756.1,-153.79 765.93,-149.86 761.33,-144.58"/>
</a>
</g>
</g>
<!-- Node11 -->
<g id="Node000011" class="node">
<title>Node11</title>
<g id="a_Node000011"><a xlink:href="project__solution_8hpp.html" target="_top" xlink:title=" ">
<polygon fill="white" stroke="#666666" points="1031.5,-118 903.5,-118 903.5,-77 1031.5,-77 1031.5,-118"/>
<text text-anchor="start" x="911.5" y="-106" font-family="Helvetica,sans-Serif" font-size="10.00">/__w/vulpes/vulpes</text>
<text text-anchor="start" x="911.5" y="-95" font-family="Helvetica,sans-Serif" font-size="10.00">/vulpes/postprocessing</text>
<text text-anchor="middle" x="967.5" y="-84" font-family="Helvetica,sans-Serif" font-size="10.00">/project_solution.hpp</text>
</a>
</g>
</g>
<!-- Node4&#45;&gt;Node11 -->
<g id="edge10_Node000004_Node000011" class="edge">
<title>Node4&#45;&gt;Node11</title>
<g id="a_edge10_Node000004_Node000011"><a xlink:title=" ">
<path fill="none" stroke="#63b8ff" d="M804.29,-150.81C836.9,-140.36 875.22,-128.08 906.53,-118.04"/>
<polygon fill="#63b8ff" stroke="#63b8ff" points="802.82,-147.61 794.37,-153.99 804.96,-154.27 802.82,-147.61"/>
</a>
</g>
</g>
<!-- Node4&#45;&gt;Node12 -->
<g id="edge11_Node000004_Node000012" class="edge">
<title>Node4&#45;&gt;Node12</title>
<g id="a_edge11_Node000004_Node000012"><a xlink:title=" ">
<path fill="none" stroke="#63b8ff" d="M809.69,-154.78C810.97,-154.51 812.24,-154.25 813.5,-154 913.65,-133.89 940.51,-138.88 1040.5,-118 1043.53,-117.37 1046.62,-116.69 1049.74,-115.98"/>
<polygon fill="#63b8ff" stroke="#63b8ff" points="808.8,-151.39 799.76,-156.91 810.27,-158.23 808.8,-151.39"/>
</a>
</g>
</g>
<!-- Node6 -->
<g id="Node000006" class="node">
<title>Node6</title>
<g id="a_Node000006"><a xlink:href="gnn__agglomeration_8cpp.html" target="_top" xlink:title=" ">
<polygon fill="white" stroke="#666666" points="347.5,-41 171.5,-41 171.5,0 347.5,0 347.5,-41"/>
<text text-anchor="start" x="179.5" y="-29" font-family="Helvetica,sans-Serif" font-size="10.00">/__w/vulpes/vulpes</text>
<text text-anchor="start" x="179.5" y="-18" font-family="Helvetica,sans-Serif" font-size="10.00">/vulpes/geometry/agglomeration</text>
<text text-anchor="middle" x="259.5" y="-7" font-family="Helvetica,sans-Serif" font-size="10.00">/gnn_agglomeration.cpp</text>
</a>
</g>
</g>
<!-- Node5&#45;&gt;Node6 -->
<g id="edge5_Node000005_Node000006" class="edge">
<title>Node5&#45;&gt;Node6</title>
<g id="a_edge5_Node000005_Node000006"><a xlink:title=" ">
<path fill="none" stroke="#63b8ff" d="M259.5,-66.69C259.5,-58.08 259.5,-48.9 259.5,-41.07"/>
<polygon fill="#63b8ff" stroke="#63b8ff" points="256,-66.79 259.5,-76.79 263,-66.79 256,-66.79"/>
</a>
</g>
</g>
<!-- Node9 -->
<g id="Node000009" class="node">
<title>Node9</title>
<g id="a_Node000009"><a xlink:href="parmetis__agglomeration_8cpp.html" target="_top" xlink:title=" ">
<polygon fill="white" stroke="#666666" points="735.5,-41 559.5,-41 559.5,0 735.5,0 735.5,-41"/>
<text text-anchor="start" x="567.5" y="-29" font-family="Helvetica,sans-Serif" font-size="10.00">/__w/vulpes/vulpes</text>
<text text-anchor="start" x="567.5" y="-18" font-family="Helvetica,sans-Serif" font-size="10.00">/vulpes/geometry/agglomeration</text>
<text text-anchor="middle" x="647.5" y="-7" font-family="Helvetica,sans-Serif" font-size="10.00">/parmetis_agglomeration.cpp</text>
</a>
</g>
</g>
<!-- Node8&#45;&gt;Node9 -->
<g id="edge8_Node000008_Node000009" class="edge">
<title>Node8&#45;&gt;Node9</title>
<g id="a_edge8_Node000008_Node000009"><a xlink:title=" ">
<path fill="none" stroke="#63b8ff" d="M647.5,-66.69C647.5,-58.08 647.5,-48.9 647.5,-41.07"/>
<polygon fill="#63b8ff" stroke="#63b8ff" points="644,-66.79 647.5,-76.79 651,-66.79 644,-66.79"/>
</a>
</g>
</g>
<!-- Node13 -->
<g id="Node000013" class="node">
<title>Node13</title>
<g id="a_Node000013"><a xlink:href="cranknicolson_8cpp.html" target="_top" xlink:title=" ">
<polygon fill="white" stroke="#666666" points="1181,-41 1050,-41 1050,0 1181,0 1181,-41"/>
<text text-anchor="start" x="1058" y="-29" font-family="Helvetica,sans-Serif" font-size="10.00">/__w/vulpes/vulpes</text>
<text text-anchor="start" x="1058" y="-18" font-family="Helvetica,sans-Serif" font-size="10.00">/vulpes/timeintegration</text>
<text text-anchor="middle" x="1115.5" y="-7" font-family="Helvetica,sans-Serif" font-size="10.00">/cranknicolson.cpp</text>
</a>
</g>
</g>
<!-- Node12&#45;&gt;Node13 -->
<g id="edge12_Node000012_Node000013" class="edge">
<title>Node12&#45;&gt;Node13</title>
<g id="a_edge12_Node000012_Node000013"><a xlink:title=" ">
<path fill="none" stroke="#63b8ff" d="M1115.5,-66.69C1115.5,-58.08 1115.5,-48.9 1115.5,-41.07"/>
<polygon fill="#63b8ff" stroke="#63b8ff" points="1112,-66.79 1115.5,-76.79 1119,-66.79 1112,-66.79"/>
</a>
</g>
</g>
</g>
</svg>
