<?xml version="1.0" encoding="UTF-8" standalone="no"?>
<!DOCTYPE svg PUBLIC "-//W3C//DTD SVG 1.1//EN"
 "http://www.w3.org/Graphics/SVG/1.1/DTD/svg11.dtd">
<!-- Generated by graphviz version 12.2.1 (20241206.2353)
 -->
<!-- Title: /Users/ilariomazzieri/Desktop/vulpes/vulpes/quadrature/simplex.tet.cpp Pages: 1 -->
<svg width="450pt" height="271pt"
 viewBox="0.00 0.00 449.88 270.75" xmlns="http://www.w3.org/2000/svg" xmlns:xlink="http://www.w3.org/1999/xlink">

<svg id="main" version="1.1" xmlns="http://www.w3.org/2000/svg" xmlns:xlink="http://www.w3.org/1999/xlink" xml:space="preserve" onload="init(evt)">
<style type="text/css"><![CDATA[
.node, .edge {opacity: 0.7;}
.node.selected, .edge.selected {opacity: 1;}
.edge:hover path { stroke: red; }
.edge:hover polygon { stroke: red; fill: red; }
]]></style>
<script type="application/ecmascript" xlink:href="svg.min.js"/>
<svg id="graph" class="graph">
<g id="graph0" class="graph" transform="scale(1 1) rotate(0) translate(4 266.75)">
<title>/Users/ilariomazzieri/Desktop/vulpes/vulpes/quadrature/simplex.tet.cpp</title>
<!-- Node1 -->
<g id="Node000001" class="node">
<title>Node1</title>
<g id="a_Node000001"><a xlink:title=" ">
<polygon fill="#999999" stroke="#666666" points="242.38,-262.75 107.88,-262.75 107.88,-221 242.38,-221 242.38,-262.75"/>
<text text-anchor="start" x="115.88" y="-249.25" font-family="Helvetica,sans-Serif" font-size="10.00">/Users/ilariomazzieri</text>
<text text-anchor="start" x="115.88" y="-238" font-family="Helvetica,sans-Serif" font-size="10.00">/Desktop/vulpes/vulpes</text>
<text text-anchor="middle" x="175.12" y="-226.75" font-family="Helvetica,sans-Serif" font-size="10.00">/quadrature/simplex.tet.cpp</text>
</a>
</g>
</g>
<!-- Node2 -->
<g id="Node000002" class="node">
<title>Node2</title>
<g id="a_Node000002"><a xlink:href="simplex_8hpp.html" target="_top" xlink:title=" ">
<polygon fill="white" stroke="#666666" points="322.5,-185 173.75,-185 173.75,-165.75 322.5,-165.75 322.5,-185"/>
<text text-anchor="middle" x="248.12" y="-171.5" font-family="Helvetica,sans-Serif" font-size="10.00">vulpes/quadrature/simplex.hpp</text>
</a>
</g>
</g>
<!-- Node1&#45;&gt;Node2 -->
<g id="edge1_Node000001_Node000002" class="edge">
<title>Node1&#45;&gt;Node2</title>
<g id="a_edge1_Node000001_Node000002"><a xlink:title=" ">
<path fill="none" stroke="#63b8ff" d="M197.82,-220.82C207.97,-211.85 219.79,-201.41 229.42,-192.9"/>
<polygon fill="#63b8ff" stroke="#63b8ff" points="231.55,-195.69 236.73,-186.45 226.91,-190.45 231.55,-195.69"/>
</a>
</g>
</g>
<!-- Node6 -->
<g id="Node000006" class="node">
<title>Node6</title>
<g id="a_Node000006"><a xlink:title=" ">
<polygon fill="#e0e0e0" stroke="#999999" points="48.25,-19.25 0,-19.25 0,0 48.25,0 48.25,-19.25"/>
<text text-anchor="middle" x="24.12" y="-5.75" font-family="Helvetica,sans-Serif" font-size="10.00">cstddef</text>
</a>
</g>
</g>
<!-- Node1&#45;&gt;Node6 -->
<g id="edge21_Node000001_Node000006" class="edge">
<title>Node1&#45;&gt;Node6</title>
<g id="a_edge21_Node000001_Node000006"><a xlink:title=" ">
<path fill="none" stroke="#63b8ff" d="M129.23,-220.59C93.41,-202.22 45.58,-171.62 20.12,-129.75 1.46,-99.06 9.95,-55.21 17.35,-30.17"/>
<polygon fill="#63b8ff" stroke="#63b8ff" points="20.58,-31.55 20.3,-20.96 13.91,-29.41 20.58,-31.55"/>
</a>
</g>
</g>
<!-- Node9 -->
<g id="Node000009" class="node">
<title>Node9</title>
<g id="a_Node000009"><a xlink:href="qrule_8hpp.html" target="_top" xlink:title=" ">
<polygon fill="white" stroke="#666666" points="181.12,-129.75 45.12,-129.75 45.12,-110.5 181.12,-110.5 181.12,-129.75"/>
<text text-anchor="middle" x="113.12" y="-116.25" font-family="Helvetica,sans-Serif" font-size="10.00">vulpes/quadrature/qrule.hpp</text>
</a>
</g>
</g>
<!-- Node1&#45;&gt;Node9 -->
<g id="edge22_Node000001_Node000009" class="edge">
<title>Node1&#45;&gt;Node9</title>
<g id="a_edge22_Node000001_Node000009"><a xlink:title=" ">
<path fill="none" stroke="#63b8ff" d="M164.61,-220.56C152.96,-198.06 134.32,-162.06 122.95,-140.11"/>
<polygon fill="#63b8ff" stroke="#63b8ff" points="126.15,-138.67 118.44,-131.4 119.93,-141.89 126.15,-138.67"/>
</a>
</g>
</g>
<!-- Node14 -->
<g id="Node000014" class="node">
<title>Node14</title>
<g id="a_Node000014"><a xlink:title=" ">
<polygon fill="#e0e0e0" stroke="#999999" points="389.25,-185 341,-185 341,-165.75 389.25,-165.75 389.25,-185"/>
<text text-anchor="middle" x="365.12" y="-171.5" font-family="Helvetica,sans-Serif" font-size="10.00">cassert</text>
</a>
</g>
</g>
<!-- Node1&#45;&gt;Node14 -->
<g id="edge20_Node000001_Node000014" class="edge">
<title>Node1&#45;&gt;Node14</title>
<g id="a_edge20_Node000001_Node000014"><a xlink:title=" ">
<path fill="none" stroke="#63b8ff" d="M234.98,-220.56C266.2,-209.96 303.31,-197.36 329.9,-188.33"/>
<polygon fill="#63b8ff" stroke="#63b8ff" points="330.83,-191.71 339.17,-185.19 328.58,-185.09 330.83,-191.71"/>
</a>
</g>
</g>
<!-- Node3 -->
<g id="Node000003" class="node">
<title>Node3</title>
<g id="a_Node000003"><a xlink:title=" ">
<polygon fill="#e0e0e0" stroke="#999999" points="280.62,-129.75 237.62,-129.75 237.62,-110.5 280.62,-110.5 280.62,-129.75"/>
<text text-anchor="middle" x="259.12" y="-116.25" font-family="Helvetica,sans-Serif" font-size="10.00">gmp.h</text>
</a>
</g>
</g>
<!-- Node2&#45;&gt;Node3 -->
<g id="edge2_Node000002_Node000003" class="edge">
<title>Node2&#45;&gt;Node3</title>
<g id="a_edge2_Node000002_Node000003"><a xlink:title=" ">
<path fill="none" stroke="#63b8ff" d="M249.94,-165.58C251.3,-158.99 253.22,-149.71 254.95,-141.32"/>
<polygon fill="#63b8ff" stroke="#63b8ff" points="258.37,-142.09 256.96,-131.59 251.51,-140.68 258.37,-142.09"/>
</a>
</g>
</g>
<!-- Node4 -->
<g id="Node000004" class="node">
<title>Node4</title>
<g id="a_Node000004"><a xlink:title=" ">
<polygon fill="#e0e0e0" stroke="#999999" points="441.88,-19.25 388.38,-19.25 388.38,0 441.88,0 441.88,-19.25"/>
<text text-anchor="middle" x="415.12" y="-5.75" font-family="Helvetica,sans-Serif" font-size="10.00">gmpxx.h</text>
</a>
</g>
</g>
<!-- Node2&#45;&gt;Node4 -->
<g id="edge3_Node000002_Node000004" class="edge">
<title>Node2&#45;&gt;Node4</title>
<g id="a_edge3_Node000002_Node000004"><a xlink:title=" ">
<path fill="none" stroke="#63b8ff" d="M282.05,-165.31C303.22,-158.32 330,-146.9 349.12,-129.75 379.98,-102.09 399.52,-56.48 408.78,-30.45"/>
<polygon fill="#63b8ff" stroke="#63b8ff" points="412.04,-31.74 411.92,-21.14 405.4,-29.5 412.04,-31.74"/>
</a>
</g>
</g>
<!-- Node5 -->
<g id="Node000005" class="node">
<title>Node5</title>
<g id="a_Node000005"><a xlink:title=" ">
<polygon fill="#e0e0e0" stroke="#999999" points="296,-74.5 258.25,-74.5 258.25,-55.25 296,-55.25 296,-74.5"/>
<text text-anchor="middle" x="277.12" y="-61" font-family="Helvetica,sans-Serif" font-size="10.00">array</text>
</a>
</g>
</g>
<!-- Node2&#45;&gt;Node5 -->
<g id="edge4_Node000002_Node000005" class="edge">
<title>Node2&#45;&gt;Node5</title>
<g id="a_edge4_Node000002_Node000005"><a xlink:title=" ">
<path fill="none" stroke="#63b8ff" d="M260.74,-165.39C270.83,-157.36 284.24,-144.58 290.12,-129.75 295.81,-115.41 291.76,-98.24 286.73,-85.31"/>
<polygon fill="#63b8ff" stroke="#63b8ff" points="289.95,-83.94 282.69,-76.22 283.55,-86.78 289.95,-83.94"/>
</a>
</g>
</g>
<!-- Node2&#45;&gt;Node6 -->
<g id="edge5_Node000002_Node000006" class="edge">
<title>Node2&#45;&gt;Node6</title>
<g id="a_edge5_Node000002_Node000006"><a xlink:title=" ">
<path fill="none" stroke="#63b8ff" d="M173.4,-167.92C119.94,-161.66 54.35,-150.04 36.12,-129.75 11.77,-102.64 15.15,-56.79 19.69,-30.59"/>
<polygon fill="#63b8ff" stroke="#63b8ff" points="23.09,-31.44 21.61,-20.95 16.22,-30.08 23.09,-31.44"/>
</a>
</g>
</g>
<!-- Node7 -->
<g id="Node000007" class="node">
<title>Node7</title>
<g id="a_Node000007"><a xlink:title=" ">
<polygon fill="#e0e0e0" stroke="#999999" points="362.75,-19.25 317.5,-19.25 317.5,0 362.75,0 362.75,-19.25"/>
<text text-anchor="middle" x="340.12" y="-5.75" font-family="Helvetica,sans-Serif" font-size="10.00">cstdint</text>
</a>
</g>
</g>
<!-- Node2&#45;&gt;Node7 -->
<g id="edge6_Node000002_Node000007" class="edge">
<title>Node2&#45;&gt;Node7</title>
<g id="a_edge6_Node000002_Node000007"><a xlink:title=" ">
<path fill="none" stroke="#63b8ff" d="M269.14,-165.32C298.79,-151.11 350.96,-120.37 366.12,-74.5 371.34,-58.71 363.25,-41.26 354.75,-28.59"/>
<polygon fill="#63b8ff" stroke="#63b8ff" points="357.75,-26.76 348.99,-20.8 352.12,-30.92 357.75,-26.76"/>
</a>
</g>
</g>
<!-- Node8 -->
<g id="Node000008" class="node">
<title>Node8</title>
<g id="a_Node000008"><a xlink:title=" ">
<polygon fill="#e0e0e0" stroke="#999999" points="356.62,-74.5 313.62,-74.5 313.62,-55.25 356.62,-55.25 356.62,-74.5"/>
<text text-anchor="middle" x="335.12" y="-61" font-family="Helvetica,sans-Serif" font-size="10.00">vector</text>
</a>
</g>
</g>
<!-- Node2&#45;&gt;Node8 -->
<g id="edge7_Node000002_Node000008" class="edge">
<title>Node2&#45;&gt;Node8</title>
<g id="a_edge7_Node000002_Node000008"><a xlink:title=" ">
<path fill="none" stroke="#63b8ff" d="M263.31,-165.34C275.83,-157.28 293.38,-144.49 305.12,-129.75 315.65,-116.55 323.53,-99.05 328.57,-85.7"/>
<polygon fill="#63b8ff" stroke="#63b8ff" points="331.87,-86.88 331.89,-76.29 325.27,-84.56 331.87,-86.88"/>
</a>
</g>
</g>
<!-- Node2&#45;&gt;Node9 -->
<g id="edge8_Node000002_Node000009" class="edge">
<title>Node2&#45;&gt;Node9</title>
<g id="a_edge8_Node000002_Node000009"><a xlink:title=" ">
<path fill="none" stroke="#63b8ff" d="M225.22,-165.34C203.7,-156.85 171.21,-144.04 146.75,-134.39"/>
<polygon fill="#63b8ff" stroke="#63b8ff" points="148.13,-131.17 137.55,-130.76 145.56,-137.68 148.13,-131.17"/>
</a>
</g>
</g>
<!-- Node10 -->
<g id="Node000010" class="node">
<title>Node10</title>
<g id="a_Node000010"><a xlink:href="vmath_8hpp.html" target="_top" xlink:title=" ">
<polygon fill="white" stroke="#666666" points="240.25,-74.5 126,-74.5 126,-55.25 240.25,-55.25 240.25,-74.5"/>
<text text-anchor="middle" x="183.12" y="-61" font-family="Helvetica,sans-Serif" font-size="10.00">vulpes/utils/vmath.hpp</text>
</a>
</g>
</g>
<!-- Node2&#45;&gt;Node10 -->
<g id="edge19_Node000002_Node000010" class="edge">
<title>Node2&#45;&gt;Node10</title>
<g id="a_edge19_Node000002_Node000010"><a xlink:title=" ">
<path fill="none" stroke="#63b8ff" d="M242.81,-165.5C232.24,-147.85 208.39,-108.05 194.25,-84.45"/>
<polygon fill="#63b8ff" stroke="#63b8ff" points="197.44,-82.95 189.3,-76.18 191.43,-86.55 197.44,-82.95"/>
</a>
</g>
</g>
<!-- Node9&#45;&gt;Node5 -->
<g id="edge9_Node000009_Node000005" class="edge">
<title>Node9&#45;&gt;Node5</title>
<g id="a_edge9_Node000009_Node000005"><a xlink:title=" ">
<path fill="none" stroke="#63b8ff" d="M140.95,-110.09C170.44,-100.51 216.87,-85.44 247.16,-75.61"/>
<polygon fill="#63b8ff" stroke="#63b8ff" points="248.04,-79 256.47,-72.58 245.87,-72.34 248.04,-79"/>
</a>
</g>
</g>
<!-- Node9&#45;&gt;Node6 -->
<g id="edge10_Node000009_Node000006" class="edge">
<title>Node9&#45;&gt;Node6</title>
<g id="a_edge10_Node000009_Node000006"><a xlink:title=" ">
<path fill="none" stroke="#63b8ff" d="M105.84,-110.25C91.17,-92.36 57.84,-51.72 38.58,-28.25"/>
<polygon fill="#63b8ff" stroke="#63b8ff" points="41.52,-26.31 32.47,-20.8 36.1,-30.75 41.52,-26.31"/>
</a>
</g>
</g>
<!-- Node9&#45;&gt;Node8 -->
<g id="edge11_Node000009_Node000008" class="edge">
<title>Node9&#45;&gt;Node8</title>
<g id="a_edge11_Node000009_Node000008"><a xlink:title=" ">
<path fill="none" stroke="#63b8ff" d="M154.85,-110.08C191.48,-101.99 246.46,-89.51 302.39,-75.12"/>
<polygon fill="#63b8ff" stroke="#63b8ff" points="302.94,-78.59 311.74,-72.7 301.18,-71.82 302.94,-78.59"/>
</a>
</g>
</g>
<!-- Node9&#45;&gt;Node10 -->
<g id="edge12_Node000009_Node000010" class="edge">
<title>Node9&#45;&gt;Node10</title>
<g id="a_edge12_Node000009_Node000010"><a xlink:title=" ">
<path fill="none" stroke="#63b8ff" d="M125,-110.09C135.22,-102.32 150.2,-90.92 162.39,-81.65"/>
<polygon fill="#63b8ff" stroke="#63b8ff" points="164.38,-84.53 170.22,-75.69 160.14,-78.96 164.38,-84.53"/>
</a>
</g>
</g>
<!-- Node10&#45;&gt;Node4 -->
<g id="edge13_Node000010_Node000004" class="edge">
<title>Node10&#45;&gt;Node4</title>
<g id="a_edge13_Node000010_Node000004"><a xlink:title=" ">
<path fill="none" stroke="#63b8ff" d="M222.74,-54.78C265.9,-44.88 334.43,-29.15 376.99,-19.38"/>
<polygon fill="#63b8ff" stroke="#63b8ff" points="377.56,-22.84 386.53,-17.19 376,-16.01 377.56,-22.84"/>
</a>
</g>
</g>
<!-- Node10&#45;&gt;Node6 -->
<g id="edge14_Node000010_Node000006" class="edge">
<title>Node10&#45;&gt;Node6</title>
<g id="a_edge14_Node000010_Node000006"><a xlink:title=" ">
<path fill="none" stroke="#63b8ff" d="M156.15,-54.84C129.44,-45.9 88.41,-32.15 59.18,-22.37"/>
<polygon fill="#63b8ff" stroke="#63b8ff" points="60.64,-19.16 50.05,-19.31 58.42,-25.8 60.64,-19.16"/>
</a>
</g>
</g>
<!-- Node10&#45;&gt;Node7 -->
<g id="edge15_Node000010_Node000007" class="edge">
<title>Node10&#45;&gt;Node7</title>
<g id="a_edge15_Node000010_Node000007"><a xlink:title=" ">
<path fill="none" stroke="#63b8ff" d="M209.76,-54.84C236.48,-45.78 277.72,-31.79 306.64,-21.98"/>
<polygon fill="#63b8ff" stroke="#63b8ff" points="307.67,-25.33 316.01,-18.8 305.42,-18.7 307.67,-25.33"/>
</a>
</g>
</g>
<!-- Node11 -->
<g id="Node000011" class="node">
<title>Node11</title>
<g id="a_Node000011"><a xlink:title=" ">
<polygon fill="#e0e0e0" stroke="#999999" points="202.75,-19.25 163.5,-19.25 163.5,0 202.75,0 202.75,-19.25"/>
<text text-anchor="middle" x="183.12" y="-5.75" font-family="Helvetica,sans-Serif" font-size="10.00">limits</text>
</a>
</g>
</g>
<!-- Node10&#45;&gt;Node11 -->
<g id="edge16_Node000010_Node000011" class="edge">
<title>Node10&#45;&gt;Node11</title>
<g id="a_edge16_Node000010_Node000011"><a xlink:title=" ">
<path fill="none" stroke="#63b8ff" d="M183.12,-55.08C183.12,-48.57 183.12,-39.42 183.12,-31.12"/>
<polygon fill="#63b8ff" stroke="#63b8ff" points="186.63,-31.12 183.13,-21.12 179.63,-31.12 186.63,-31.12"/>
</a>
</g>
</g>
<!-- Node12 -->
<g id="Node000012" class="node">
<title>Node12</title>
<g id="a_Node000012"><a xlink:title=" ">
<polygon fill="#e0e0e0" stroke="#999999" points="283,-19.25 221.25,-19.25 221.25,0 283,0 283,-19.25"/>
<text text-anchor="middle" x="252.12" y="-5.75" font-family="Helvetica,sans-Serif" font-size="10.00">type_traits</text>
</a>
</g>
</g>
<!-- Node10&#45;&gt;Node12 -->
<g id="edge17_Node000010_Node000012" class="edge">
<title>Node10&#45;&gt;Node12</title>
<g id="a_edge17_Node000010_Node000012"><a xlink:title=" ">
<path fill="none" stroke="#63b8ff" d="M194.83,-54.84C204.9,-47.07 219.67,-35.67 231.69,-26.4"/>
<polygon fill="#63b8ff" stroke="#63b8ff" points="233.62,-29.33 239.39,-20.45 229.34,-23.79 233.62,-29.33"/>
</a>
</g>
</g>
<!-- Node13 -->
<g id="Node000013" class="node">
<title>Node13</title>
<g id="a_Node000013"><a xlink:title=" ">
<polygon fill="#e0e0e0" stroke="#999999" points="145.25,-19.25 73,-19.25 73,0 145.25,0 145.25,-19.25"/>
<text text-anchor="middle" x="109.12" y="-5.75" font-family="Helvetica,sans-Serif" font-size="10.00">Eigen/Dense</text>
</a>
</g>
</g>
<!-- Node10&#45;&gt;Node13 -->
<g id="edge18_Node000010_Node000013" class="edge">
<title>Node10&#45;&gt;Node13</title>
<g id="a_edge18_Node000010_Node000013"><a xlink:title=" ">
<path fill="none" stroke="#63b8ff" d="M170.57,-54.84C159.66,-46.99 143.62,-35.45 130.66,-26.12"/>
<polygon fill="#63b8ff" stroke="#63b8ff" points="132.88,-23.41 122.72,-20.41 128.79,-29.09 132.88,-23.41"/>
</a>
</g>
</g>
</g>
</svg>
</svg>

<style type='text/css'>
<![CDATA[
[data-mouse-over-selected='false'] { opacity: 0.7; }
[data-mouse-over-selected='true']  { opacity: 1.0; }
]]>
</style>
<script type="application/ecmascript"><![CDATA[
document.addEventListener('DOMContentLoaded', (event) => {
  highlightEdges();
  highlightAdjacentNodes();
});
]]></script>
</svg>
