<?xml version="1.0" encoding="UTF-8" standalone="no"?>
<!DOCTYPE svg PUBLIC "-//W3C//DTD SVG 1.1//EN"
 "http://www.w3.org/Graphics/SVG/1.1/DTD/svg11.dtd">
<!-- Generated by graphviz version 12.2.1 (20241206.2353)
 -->
<!-- Title: /Users/ilariomazzieri/Desktop/vulpes/vulpes/quadrature/simplex.hpp Pages: 1 -->
<svg width="712pt" height="283pt"
 viewBox="0.00 0.00 712.12 283.00" xmlns="http://www.w3.org/2000/svg" xmlns:xlink="http://www.w3.org/1999/xlink">
<g id="graph0" class="graph" transform="scale(1 1) rotate(0) translate(4 279)">
<title>/Users/ilariomazzieri/Desktop/vulpes/vulpes/quadrature/simplex.hpp</title>
<!-- Node1 -->
<g id="Node000001" class="node">
<title>Node1</title>
<g id="a_Node000001"><a xlink:title=" ">
<polygon fill="#999999" stroke="#666666" points="547.5,-275 427.25,-275 427.25,-233.25 547.5,-233.25 547.5,-275"/>
<text text-anchor="start" x="435.25" y="-261.5" font-family="Helvetica,sans-Serif" font-size="10.00">/Users/ilariomazzieri</text>
<text text-anchor="start" x="435.25" y="-250.25" font-family="Helvetica,sans-Serif" font-size="10.00">/Desktop/vulpes/vulpes</text>
<text text-anchor="middle" x="487.38" y="-239" font-family="Helvetica,sans-Serif" font-size="10.00">/quadrature/simplex.hpp</text>
</a>
</g>
</g>
<!-- Node2 -->
<g id="Node000002" class="node">
<title>Node2</title>
<g id="a_Node000002"><a xlink:href="qlibrary_8hpp.html" target="_top" xlink:title=" ">
<polygon fill="white" stroke="#666666" points="401.75,-197.25 283,-197.25 283,-155.5 401.75,-155.5 401.75,-197.25"/>
<text text-anchor="start" x="291" y="-183.75" font-family="Helvetica,sans-Serif" font-size="10.00">/Users/ilariomazzieri</text>
<text text-anchor="start" x="291" y="-172.5" font-family="Helvetica,sans-Serif" font-size="10.00">/Desktop/vulpes/vulpes</text>
<text text-anchor="middle" x="342.38" y="-161.25" font-family="Helvetica,sans-Serif" font-size="10.00">/quadrature/qlibrary.hpp</text>
</a>
</g>
</g>
<!-- Node1&#45;&gt;Node2 -->
<g id="edge1_Node000001_Node000002" class="edge">
<title>Node1&#45;&gt;Node2</title>
<g id="a_edge1_Node000001_Node000002"><a xlink:title=" ">
<path fill="none" stroke="#63b8ff" d="M438.45,-227.57C419.84,-217.85 398.91,-206.91 381.34,-197.73"/>
<polygon fill="#63b8ff" stroke="#63b8ff" points="436.69,-230.6 447.18,-232.12 439.93,-224.39 436.69,-230.6"/>
</a>
</g>
</g>
<!-- Node9 -->
<g id="Node000009" class="node">
<title>Node9</title>
<g id="a_Node000009"><a xlink:href="simplex_8tet_8cpp.html" target="_top" xlink:title=" ">
<polygon fill="white" stroke="#666666" points="554.62,-197.25 420.12,-197.25 420.12,-155.5 554.62,-155.5 554.62,-197.25"/>
<text text-anchor="start" x="428.12" y="-183.75" font-family="Helvetica,sans-Serif" font-size="10.00">/Users/ilariomazzieri</text>
<text text-anchor="start" x="428.12" y="-172.5" font-family="Helvetica,sans-Serif" font-size="10.00">/Desktop/vulpes/vulpes</text>
<text text-anchor="middle" x="487.38" y="-161.25" font-family="Helvetica,sans-Serif" font-size="10.00">/quadrature/simplex.tet.cpp</text>
</a>
</g>
</g>
<!-- Node1&#45;&gt;Node9 -->
<g id="edge8_Node000001_Node000009" class="edge">
<title>Node1&#45;&gt;Node9</title>
<g id="a_edge8_Node000001_Node000009"><a xlink:title=" ">
<path fill="none" stroke="#63b8ff" d="M487.38,-221.5C487.38,-213.46 487.38,-205.04 487.38,-197.73"/>
<polygon fill="#63b8ff" stroke="#63b8ff" points="483.88,-221.31 487.38,-231.31 490.88,-221.31 483.88,-221.31"/>
</a>
</g>
</g>
<!-- Node10 -->
<g id="Node000010" class="node">
<title>Node10</title>
<g id="a_Node000010"><a xlink:href="simplex_8tri_8cpp.html" target="_top" xlink:title=" ">
<polygon fill="white" stroke="#666666" points="704.12,-197.25 572.62,-197.25 572.62,-155.5 704.12,-155.5 704.12,-197.25"/>
<text text-anchor="start" x="580.62" y="-183.75" font-family="Helvetica,sans-Serif" font-size="10.00">/Users/ilariomazzieri</text>
<text text-anchor="start" x="580.62" y="-172.5" font-family="Helvetica,sans-Serif" font-size="10.00">/Desktop/vulpes/vulpes</text>
<text text-anchor="middle" x="638.38" y="-161.25" font-family="Helvetica,sans-Serif" font-size="10.00">/quadrature/simplex.tri.cpp</text>
</a>
</g>
</g>
<!-- Node1&#45;&gt;Node10 -->
<g id="edge9_Node000001_Node000010" class="edge">
<title>Node1&#45;&gt;Node10</title>
<g id="a_edge9_Node000001_Node000010"><a xlink:title=" ">
<path fill="none" stroke="#63b8ff" d="M538.05,-227.7C557.5,-217.95 579.42,-206.95 597.8,-197.73"/>
<polygon fill="#63b8ff" stroke="#63b8ff" points="536.56,-224.53 529.19,-232.15 539.7,-230.79 536.56,-224.53"/>
</a>
</g>
</g>
<!-- Node3 -->
<g id="Node000003" class="node">
<title>Node3</title>
<g id="a_Node000003"><a xlink:href="integrator__gauss_8hpp.html" target="_top" xlink:title=" ">
<polygon fill="white" stroke="#666666" points="154.75,-119.5 0,-119.5 0,-77.75 154.75,-77.75 154.75,-119.5"/>
<text text-anchor="start" x="8" y="-106" font-family="Helvetica,sans-Serif" font-size="10.00">/Users/ilariomazzieri</text>
<text text-anchor="start" x="8" y="-94.75" font-family="Helvetica,sans-Serif" font-size="10.00">/Desktop/vulpes/vulpes</text>
<text text-anchor="middle" x="77.38" y="-83.5" font-family="Helvetica,sans-Serif" font-size="10.00">/assemble/integrator_gauss.hpp</text>
</a>
</g>
</g>
<!-- Node2&#45;&gt;Node3 -->
<g id="edge2_Node000002_Node000003" class="edge">
<title>Node2&#45;&gt;Node3</title>
<g id="a_edge2_Node000002_Node000003"><a xlink:title=" ">
<path fill="none" stroke="#63b8ff" d="M271.54,-155.13C233.37,-144.22 186.42,-130.79 148.24,-119.88"/>
<polygon fill="#63b8ff" stroke="#63b8ff" points="270.54,-158.48 281.12,-157.86 272.47,-151.75 270.54,-158.48"/>
</a>
</g>
</g>
<!-- Node4 -->
<g id="Node000004" class="node">
<title>Node4</title>
<g id="a_Node000004"><a xlink:href="integrator__simplexify_8hpp.html" target="_top" xlink:title=" ">
<polygon fill="white" stroke="#666666" points="344,-119.5 172.75,-119.5 172.75,-77.75 344,-77.75 344,-119.5"/>
<text text-anchor="start" x="180.75" y="-106" font-family="Helvetica,sans-Serif" font-size="10.00">/Users/ilariomazzieri</text>
<text text-anchor="start" x="180.75" y="-94.75" font-family="Helvetica,sans-Serif" font-size="10.00">/Desktop/vulpes/vulpes</text>
<text text-anchor="middle" x="258.38" y="-83.5" font-family="Helvetica,sans-Serif" font-size="10.00">/assemble/integrator_simplexify.hpp</text>
</a>
</g>
</g>
<!-- Node2&#45;&gt;Node4 -->
<g id="edge3_Node000002_Node000004" class="edge">
<title>Node2&#45;&gt;Node4</title>
<g id="a_edge3_Node000002_Node000004"><a xlink:title=" ">
<path fill="none" stroke="#63b8ff" d="M311.62,-147.64C301.47,-138.48 290.37,-128.48 280.95,-119.98"/>
<polygon fill="#63b8ff" stroke="#63b8ff" points="308.97,-149.96 318.74,-154.06 313.66,-144.77 308.97,-149.96"/>
</a>
</g>
</g>
<!-- Node7 -->
<g id="Node000007" class="node">
<title>Node7</title>
<g id="a_Node000007"><a xlink:href="fe__vem_8hpp.html" target="_top" xlink:title=" ">
<polygon fill="white" stroke="#666666" points="491,-119.5 361.75,-119.5 361.75,-77.75 491,-77.75 491,-119.5"/>
<text text-anchor="start" x="369.75" y="-106" font-family="Helvetica,sans-Serif" font-size="10.00">/Users/ilariomazzieri</text>
<text text-anchor="start" x="369.75" y="-94.75" font-family="Helvetica,sans-Serif" font-size="10.00">/Desktop/vulpes/vulpes</text>
<text text-anchor="middle" x="426.38" y="-83.5" font-family="Helvetica,sans-Serif" font-size="10.00">/fe/fe_spaces/fe_vem.hpp</text>
</a>
</g>
</g>
<!-- Node2&#45;&gt;Node7 -->
<g id="edge6_Node000002_Node000007" class="edge">
<title>Node2&#45;&gt;Node7</title>
<g id="a_edge6_Node000002_Node000007"><a xlink:title=" ">
<path fill="none" stroke="#63b8ff" d="M373.13,-147.64C383.28,-138.48 394.38,-128.48 403.8,-119.98"/>
<polygon fill="#63b8ff" stroke="#63b8ff" points="371.09,-144.77 366.01,-154.06 375.78,-149.96 371.09,-144.77"/>
</a>
</g>
</g>
<!-- Node8 -->
<g id="Node000008" class="node">
<title>Node8</title>
<g id="a_Node000008"><a xlink:href="qlibrary_8cpp.html" target="_top" xlink:title=" ">
<polygon fill="white" stroke="#666666" points="627.75,-119.5 509,-119.5 509,-77.75 627.75,-77.75 627.75,-119.5"/>
<text text-anchor="start" x="517" y="-106" font-family="Helvetica,sans-Serif" font-size="10.00">/Users/ilariomazzieri</text>
<text text-anchor="start" x="517" y="-94.75" font-family="Helvetica,sans-Serif" font-size="10.00">/Desktop/vulpes/vulpes</text>
<text text-anchor="middle" x="568.38" y="-83.5" font-family="Helvetica,sans-Serif" font-size="10.00">/quadrature/qlibrary.cpp</text>
</a>
</g>
</g>
<!-- Node2&#45;&gt;Node8 -->
<g id="edge7_Node000002_Node000008" class="edge">
<title>Node2&#45;&gt;Node8</title>
<g id="a_edge7_Node000002_Node000008"><a xlink:title=" ">
<path fill="none" stroke="#63b8ff" d="M412.72,-151.8C443.53,-141.47 479.29,-129.49 508.76,-119.61"/>
<polygon fill="#63b8ff" stroke="#63b8ff" points="411.85,-148.4 403.48,-154.89 414.08,-155.03 411.85,-148.4"/>
</a>
</g>
</g>
<!-- Node5 -->
<g id="Node000005" class="node">
<title>Node5</title>
<g id="a_Node000005"><a xlink:href="dg__utils_8hpp.html" target="_top" xlink:title=" ">
<polygon fill="white" stroke="#666666" points="241.75,-41.75 123,-41.75 123,0 241.75,0 241.75,-41.75"/>
<text text-anchor="start" x="131" y="-28.25" font-family="Helvetica,sans-Serif" font-size="10.00">/Users/ilariomazzieri</text>
<text text-anchor="start" x="131" y="-17" font-family="Helvetica,sans-Serif" font-size="10.00">/Desktop/vulpes/vulpes</text>
<text text-anchor="middle" x="182.38" y="-5.75" font-family="Helvetica,sans-Serif" font-size="10.00">/assemble/dg_utils.hpp</text>
</a>
</g>
</g>
<!-- Node4&#45;&gt;Node5 -->
<g id="edge4_Node000004_Node000005" class="edge">
<title>Node4&#45;&gt;Node5</title>
<g id="a_edge4_Node000004_Node000005"><a xlink:title=" ">
<path fill="none" stroke="#63b8ff" d="M230,-69.34C220.96,-60.34 211.15,-50.56 202.8,-42.23"/>
<polygon fill="#63b8ff" stroke="#63b8ff" points="227.38,-71.68 236.94,-76.26 232.32,-66.72 227.38,-71.68"/>
</a>
</g>
</g>
<!-- Node6 -->
<g id="Node000006" class="node">
<title>Node6</title>
<g id="a_Node000006"><a xlink:href="integrator__vem_8hpp.html" target="_top" xlink:title=" ">
<polygon fill="white" stroke="#666666" points="407,-41.75 259.75,-41.75 259.75,0 407,0 407,-41.75"/>
<text text-anchor="start" x="267.75" y="-28.25" font-family="Helvetica,sans-Serif" font-size="10.00">/Users/ilariomazzieri</text>
<text text-anchor="start" x="267.75" y="-17" font-family="Helvetica,sans-Serif" font-size="10.00">/Desktop/vulpes/vulpes</text>
<text text-anchor="middle" x="333.38" y="-5.75" font-family="Helvetica,sans-Serif" font-size="10.00">/assemble/integrator_vem.hpp</text>
</a>
</g>
</g>
<!-- Node4&#45;&gt;Node6 -->
<g id="edge5_Node000004_Node000006" class="edge">
<title>Node4&#45;&gt;Node6</title>
<g id="a_edge5_Node000004_Node000006"><a xlink:title=" ">
<path fill="none" stroke="#63b8ff" d="M286.38,-69.34C295.3,-60.34 304.98,-50.56 313.22,-42.23"/>
<polygon fill="#63b8ff" stroke="#63b8ff" points="284.09,-66.68 279.54,-76.25 289.06,-71.61 284.09,-66.68"/>
</a>
</g>
</g>
</g>
</svg>
