<?xml version="1.0" encoding="UTF-8" standalone="no"?>
<!DOCTYPE svg PUBLIC "-//W3C//DTD SVG 1.1//EN"
 "http://www.w3.org/Graphics/SVG/1.1/DTD/svg11.dtd">
<!-- Generated by graphviz version 12.2.1 (20241206.2353)
 -->
<!-- Title: /Users/ilariomazzieri/Desktop/vulpes/vulpes/timeintegration/solvermfk.hpp Pages: 1 -->
<svg width="1487pt" height="448pt"
 viewBox="0.00 0.00 1486.79 447.75" xmlns="http://www.w3.org/2000/svg" xmlns:xlink="http://www.w3.org/1999/xlink">
<g id="graph0" class="graph" transform="scale(1 1) rotate(0) translate(4 443.75)">
<title>/Users/ilariomazzieri/Desktop/vulpes/vulpes/timeintegration/solvermfk.hpp</title>
<!-- Node1 -->
<g id="Node000001" class="node">
<title>Node1</title>
<g id="a_Node000001"><a xlink:title=" ">
<polygon fill="#999999" stroke="#666666" points="318.79,-439.75 171.54,-439.75 171.54,-398 318.79,-398 318.79,-439.75"/>
<text text-anchor="start" x="179.54" y="-426.25" font-family="Helvetica,sans-Serif" font-size="10.00">/Users/ilariomazzieri</text>
<text text-anchor="start" x="179.54" y="-415" font-family="Helvetica,sans-Serif" font-size="10.00">/Desktop/vulpes/vulpes</text>
<text text-anchor="middle" x="245.17" y="-403.75" font-family="Helvetica,sans-Serif" font-size="10.00">/timeintegration/solvermfk.hpp</text>
</a>
</g>
</g>
<!-- Node2 -->
<g id="Node000002" class="node">
<title>Node2</title>
<g id="a_Node000002"><a xlink:title=" ">
<polygon fill="#e0e0e0" stroke="#999999" points="75.79,-196.25 24.54,-196.25 24.54,-177 75.79,-177 75.79,-196.25"/>
<text text-anchor="middle" x="50.17" y="-182.75" font-family="Helvetica,sans-Serif" font-size="10.00">memory</text>
</a>
</g>
</g>
<!-- Node1&#45;&gt;Node2 -->
<g id="edge1_Node000001_Node000002" class="edge">
<title>Node1&#45;&gt;Node2</title>
<g id="a_edge1_Node000001_Node000002"><a xlink:title=" ">
<path fill="none" stroke="#63b8ff" d="M171.41,-400.55C145.21,-391.94 116.67,-379.51 94.17,-362 50.4,-327.93 45.75,-306.13 36.17,-251.5 33.55,-236.59 37.46,-219.87 41.81,-207.29"/>
<polygon fill="#63b8ff" stroke="#63b8ff" points="45.02,-208.68 45.36,-198.09 38.5,-206.15 45.02,-208.68"/>
</a>
</g>
</g>
<!-- Node3 -->
<g id="Node000003" class="node">
<title>Node3</title>
<g id="a_Node000003"><a xlink:href="linear__solver_8hpp.html" target="_top" xlink:title=" ">
<polygon fill="white" stroke="#666666" points="233.54,-362 102.79,-362 102.79,-342.75 233.54,-342.75 233.54,-362"/>
<text text-anchor="middle" x="168.17" y="-348.5" font-family="Helvetica,sans-Serif" font-size="10.00">vulpes/la/linear_solver.hpp</text>
</a>
</g>
</g>
<!-- Node1&#45;&gt;Node3 -->
<g id="edge2_Node000001_Node000003" class="edge">
<title>Node1&#45;&gt;Node3</title>
<g id="a_edge2_Node000001_Node000003"><a xlink:title=" ">
<path fill="none" stroke="#63b8ff" d="M221.23,-397.82C210.41,-388.76 197.8,-378.19 187.58,-369.64"/>
<polygon fill="#63b8ff" stroke="#63b8ff" points="190.07,-367.16 180.16,-363.42 185.58,-372.52 190.07,-367.16"/>
</a>
</g>
</g>
<!-- Node28 -->
<g id="Node000028" class="node">
<title>Node28</title>
<g id="a_Node000028"><a xlink:href="sparse__matrix_8hpp.html" target="_top" xlink:title=" ">
<polygon fill="white" stroke="#666666" points="391.29,-306.75 253.04,-306.75 253.04,-287.5 391.29,-287.5 391.29,-306.75"/>
<text text-anchor="middle" x="322.17" y="-293.25" font-family="Helvetica,sans-Serif" font-size="10.00">vulpes/la/sparse_matrix.hpp</text>
</a>
</g>
</g>
<!-- Node1&#45;&gt;Node28 -->
<g id="edge70_Node000001_Node000028" class="edge">
<title>Node1&#45;&gt;Node28</title>
<g id="a_edge70_Node000001_Node000028"><a xlink:title=" ">
<path fill="none" stroke="#63b8ff" d="M258.23,-397.56C272.83,-374.85 296.27,-338.4 310.35,-316.51"/>
<polygon fill="#63b8ff" stroke="#63b8ff" points="313.14,-318.63 315.61,-308.33 307.26,-314.85 313.14,-318.63"/>
</a>
</g>
</g>
<!-- Node29 -->
<g id="Node000029" class="node">
<title>Node29</title>
<g id="a_Node000029"><a xlink:href="vector_8hpp.html" target="_top" xlink:title=" ">
<polygon fill="white" stroke="#666666" points="520.67,-251.5 417.67,-251.5 417.67,-232.25 520.67,-232.25 520.67,-251.5"/>
<text text-anchor="middle" x="469.17" y="-238" font-family="Helvetica,sans-Serif" font-size="10.00">vulpes/la/vector.hpp</text>
</a>
</g>
</g>
<!-- Node1&#45;&gt;Node29 -->
<g id="edge71_Node000001_Node000029" class="edge">
<title>Node1&#45;&gt;Node29</title>
<g id="a_edge71_Node000001_Node000029"><a xlink:title=" ">
<path fill="none" stroke="#63b8ff" d="M290.43,-397.67C330.04,-378.4 387.46,-346.46 428.17,-306.75 441.58,-293.67 452.74,-275.41 460.02,-261.77"/>
<polygon fill="#63b8ff" stroke="#63b8ff" points="463.09,-263.45 464.49,-252.95 456.84,-260.29 463.09,-263.45"/>
</a>
</g>
</g>
<!-- Node4 -->
<g id="Node000004" class="node">
<title>Node4</title>
<g id="a_Node000004"><a xlink:title=" ">
<polygon fill="#e0e0e0" stroke="#999999" points="116.54,-251.5 51.79,-251.5 51.79,-232.25 116.54,-232.25 116.54,-251.5"/>
<text text-anchor="middle" x="84.17" y="-238" font-family="Helvetica,sans-Serif" font-size="10.00">petscmat.h</text>
</a>
</g>
</g>
<!-- Node3&#45;&gt;Node4 -->
<g id="edge3_Node000003_Node000004" class="edge">
<title>Node3&#45;&gt;Node4</title>
<g id="a_edge3_Node000003_Node000004"><a xlink:title=" ">
<path fill="none" stroke="#63b8ff" d="M140.52,-342.3C123.74,-335.3 103.44,-323.87 92.17,-306.75 83.79,-294.02 82.07,-276.72 82.29,-263.33"/>
<polygon fill="#63b8ff" stroke="#63b8ff" points="85.77,-263.67 82.85,-253.49 78.78,-263.27 85.77,-263.67"/>
</a>
</g>
</g>
<!-- Node5 -->
<g id="Node000005" class="node">
<title>Node5</title>
<g id="a_Node000005"><a xlink:title=" ">
<polygon fill="#e0e0e0" stroke="#999999" points="74.17,-141 10.17,-141 10.17,-121.75 74.17,-121.75 74.17,-141"/>
<text text-anchor="middle" x="42.17" y="-127.5" font-family="Helvetica,sans-Serif" font-size="10.00">petscsys.h</text>
</a>
</g>
</g>
<!-- Node3&#45;&gt;Node5 -->
<g id="edge4_Node000003_Node000005" class="edge">
<title>Node3&#45;&gt;Node5</title>
<g id="a_edge4_Node000003_Node000005"><a xlink:title=" ">
<path fill="none" stroke="#63b8ff" d="M124.19,-342.29C101.51,-335.69 74.79,-324.68 56.17,-306.75 11.76,-264 -12.95,-235.26 7.17,-177 10.64,-166.94 17.42,-157.43 24.09,-149.78"/>
<polygon fill="#63b8ff" stroke="#63b8ff" points="26.58,-152.25 30.91,-142.58 21.5,-147.44 26.58,-152.25"/>
</a>
</g>
</g>
<!-- Node6 -->
<g id="Node000006" class="node">
<title>Node6</title>
<g id="a_Node000006"><a xlink:href="boomer__amg_8hpp.html" target="_top" xlink:title=" ">
<polygon fill="white" stroke="#666666" points="234.67,-306.75 101.67,-306.75 101.67,-287.5 234.67,-287.5 234.67,-306.75"/>
<text text-anchor="middle" x="168.17" y="-293.25" font-family="Helvetica,sans-Serif" font-size="10.00">vulpes/la/boomer_amg.hpp</text>
</a>
</g>
</g>
<!-- Node3&#45;&gt;Node6 -->
<g id="edge5_Node000003_Node000006" class="edge">
<title>Node3&#45;&gt;Node6</title>
<g id="a_edge5_Node000003_Node000006"><a xlink:title=" ">
<path fill="none" stroke="#63b8ff" d="M168.17,-342.58C168.17,-336.07 168.17,-326.92 168.17,-318.62"/>
<polygon fill="#63b8ff" stroke="#63b8ff" points="171.67,-318.62 168.17,-308.62 164.67,-318.62 171.67,-318.62"/>
</a>
</g>
</g>
<!-- Node7 -->
<g id="Node000007" class="node">
<title>Node7</title>
<g id="a_Node000007"><a xlink:href="petsc__utils_8hpp.html" target="_top" xlink:title=" ">
<polygon fill="white" stroke="#666666" points="218.17,-196.25 94.17,-196.25 94.17,-177 218.17,-177 218.17,-196.25"/>
<text text-anchor="middle" x="156.17" y="-182.75" font-family="Helvetica,sans-Serif" font-size="10.00">vulpes/la/petsc_utils.hpp</text>
</a>
</g>
</g>
<!-- Node3&#45;&gt;Node7 -->
<g id="edge6_Node000003_Node000007" class="edge">
<title>Node3&#45;&gt;Node7</title>
<g id="a_edge6_Node000003_Node000007"><a xlink:title=" ">
<path fill="none" stroke="#63b8ff" d="M142.19,-342.3C123.46,-334.85 98.38,-322.88 80.17,-306.75 58.05,-287.15 51.76,-279.78 43.17,-251.5 40.68,-243.31 38.36,-239.32 43.17,-232.25 53.53,-217.01 69.99,-206.98 87.16,-200.37"/>
<polygon fill="#63b8ff" stroke="#63b8ff" points="88.15,-203.73 96.47,-197.17 85.88,-197.11 88.15,-203.73"/>
</a>
</g>
</g>
<!-- Node3&#45;&gt;Node28 -->
<g id="edge35_Node000003_Node000028" class="edge">
<title>Node3&#45;&gt;Node28</title>
<g id="a_edge35_Node000003_Node000028"><a xlink:title=" ">
<path fill="none" stroke="#63b8ff" d="M194.29,-342.34C219.29,-333.7 257.24,-320.57 285.31,-310.87"/>
<polygon fill="#63b8ff" stroke="#63b8ff" points="286.18,-314.27 294.49,-307.7 283.89,-307.66 286.18,-314.27"/>
</a>
</g>
</g>
<!-- Node3&#45;&gt;Node29 -->
<g id="edge69_Node000003_Node000029" class="edge">
<title>Node3&#45;&gt;Node29</title>
<g id="a_edge69_Node000003_Node000029"><a xlink:title=" ">
<path fill="none" stroke="#63b8ff" d="M234.04,-348.38C282.27,-343.94 348.11,-333.09 400.17,-306.75 422.15,-295.63 442.2,-275.41 454.95,-260.7"/>
<polygon fill="#63b8ff" stroke="#63b8ff" points="457.54,-263.06 461.26,-253.14 452.16,-258.58 457.54,-263.06"/>
</a>
</g>
</g>
<!-- Node7&#45;&gt;Node5 -->
<g id="edge7_Node000007_Node000005" class="edge">
<title>Node7&#45;&gt;Node5</title>
<g id="a_edge7_Node000007_Node000005"><a xlink:title=" ">
<path fill="none" stroke="#63b8ff" d="M136.83,-176.59C119.06,-168.29 92.45,-155.86 71.97,-146.29"/>
<polygon fill="#63b8ff" stroke="#63b8ff" points="73.52,-143.15 62.97,-142.09 70.55,-149.5 73.52,-143.15"/>
</a>
</g>
</g>
<!-- Node8 -->
<g id="Node000008" class="node">
<title>Node8</title>
<g id="a_Node000008"><a xlink:title=" ">
<polygon fill="#e0e0e0" stroke="#999999" points="143.17,-19.25 103.17,-19.25 103.17,0 143.17,0 143.17,-19.25"/>
<text text-anchor="middle" x="123.17" y="-5.75" font-family="Helvetica,sans-Serif" font-size="10.00">string</text>
</a>
</g>
</g>
<!-- Node7&#45;&gt;Node8 -->
<g id="edge8_Node000007_Node000008" class="edge">
<title>Node7&#45;&gt;Node8</title>
<g id="a_edge8_Node000007_Node000008"><a xlink:title=" ">
<path fill="none" stroke="#63b8ff" d="M154.49,-176.71C149.41,-149.8 134.17,-68.94 126.99,-30.87"/>
<polygon fill="#63b8ff" stroke="#63b8ff" points="130.46,-30.4 125.17,-21.22 123.58,-31.7 130.46,-30.4"/>
</a>
</g>
</g>
<!-- Node9 -->
<g id="Node000009" class="node">
<title>Node9</title>
<g id="a_Node000009"><a xlink:href="mpi__wrappers_8hpp.html" target="_top" xlink:title=" ">
<polygon fill="white" stroke="#666666" points="646.17,-141 498.17,-141 498.17,-121.75 646.17,-121.75 646.17,-141"/>
<text text-anchor="middle" x="572.17" y="-127.5" font-family="Helvetica,sans-Serif" font-size="10.00">vulpes/utils/mpi_wrappers.hpp</text>
</a>
</g>
</g>
<!-- Node7&#45;&gt;Node9 -->
<g id="edge9_Node000007_Node000009" class="edge">
<title>Node7&#45;&gt;Node9</title>
<g id="a_edge9_Node000007_Node000009"><a xlink:title=" ">
<path fill="none" stroke="#63b8ff" d="M218.45,-177.65C290.75,-168.4 410.27,-153.1 490.1,-142.88"/>
<polygon fill="#63b8ff" stroke="#63b8ff" points="490.11,-146.41 499.59,-141.67 489.22,-139.46 490.11,-146.41"/>
</a>
</g>
</g>
<!-- Node10 -->
<g id="Node000010" class="node">
<title>Node10</title>
<g id="a_Node000010"><a xlink:title=" ">
<polygon fill="#e0e0e0" stroke="#999999" points="592.17,-80.12 552.17,-80.12 552.17,-60.88 592.17,-60.88 592.17,-80.12"/>
<text text-anchor="middle" x="572.17" y="-66.62" font-family="Helvetica,sans-Serif" font-size="10.00">mpi.h</text>
</a>
</g>
</g>
<!-- Node9&#45;&gt;Node10 -->
<g id="edge10_Node000009_Node000010" class="edge">
<title>Node9&#45;&gt;Node10</title>
<g id="a_edge10_Node000009_Node000010"><a xlink:title=" ">
<path fill="none" stroke="#63b8ff" d="M572.17,-121.43C572.17,-113.65 572.17,-102.08 572.17,-92.03"/>
<polygon fill="#63b8ff" stroke="#63b8ff" points="575.67,-92.04 572.17,-82.04 568.67,-92.04 575.67,-92.04"/>
</a>
</g>
</g>
<!-- Node11 -->
<g id="Node000011" class="node">
<title>Node11</title>
<g id="a_Node000011"><a xlink:title=" ">
<polygon fill="#e0e0e0" stroke="#999999" points="658.29,-80.12 610.04,-80.12 610.04,-60.88 658.29,-60.88 658.29,-80.12"/>
<text text-anchor="middle" x="634.17" y="-66.62" font-family="Helvetica,sans-Serif" font-size="10.00">petsc.h</text>
</a>
</g>
</g>
<!-- Node9&#45;&gt;Node11 -->
<g id="edge11_Node000009_Node000011" class="edge">
<title>Node9&#45;&gt;Node11</title>
<g id="a_edge11_Node000009_Node000011"><a xlink:title=" ">
<path fill="none" stroke="#63b8ff" d="M581.59,-121.43C590.78,-112.7 605.01,-99.19 616.34,-88.43"/>
<polygon fill="#63b8ff" stroke="#63b8ff" points="618.73,-90.99 623.57,-81.57 613.9,-85.92 618.73,-90.99"/>
</a>
</g>
</g>
<!-- Node12 -->
<g id="Node000012" class="node">
<title>Node12</title>
<g id="a_Node000012"><a xlink:title=" ">
<polygon fill="#e0e0e0" stroke="#999999" points="702.29,-19.25 654.04,-19.25 654.04,0 702.29,0 702.29,-19.25"/>
<text text-anchor="middle" x="678.17" y="-5.75" font-family="Helvetica,sans-Serif" font-size="10.00">cassert</text>
</a>
</g>
</g>
<!-- Node9&#45;&gt;Node12 -->
<g id="edge12_Node000009_Node000012" class="edge">
<title>Node9&#45;&gt;Node12</title>
<g id="a_edge12_Node000009_Node000012"><a xlink:title=" ">
<path fill="none" stroke="#63b8ff" d="M563.43,-121.32C550.15,-106.43 527.94,-76.33 543.17,-55.25 549.22,-46.87 605.13,-30.36 643.07,-19.94"/>
<polygon fill="#63b8ff" stroke="#63b8ff" points="643.53,-23.44 652.26,-17.44 641.69,-16.69 643.53,-23.44"/>
</a>
</g>
</g>
<!-- Node13 -->
<g id="Node000013" class="node">
<title>Node13</title>
<g id="a_Node000013"><a xlink:title=" ">
<polygon fill="#e0e0e0" stroke="#999999" points="214.92,-19.25 161.42,-19.25 161.42,0 214.92,0 214.92,-19.25"/>
<text text-anchor="middle" x="188.17" y="-5.75" font-family="Helvetica,sans-Serif" font-size="10.00">iostream</text>
</a>
</g>
</g>
<!-- Node9&#45;&gt;Node13 -->
<g id="edge13_Node000009_Node000013" class="edge">
<title>Node9&#45;&gt;Node13</title>
<g id="a_edge13_Node000009_Node000013"><a xlink:title=" ">
<path fill="none" stroke="#63b8ff" d="M497.9,-124.82C449.47,-119.22 385.73,-108.02 333.17,-85.75 311.6,-76.61 310.56,-66.78 290.17,-55.25 268.73,-43.13 243.37,-32.02 223.3,-23.92"/>
<polygon fill="#63b8ff" stroke="#63b8ff" points="224.74,-20.72 214.16,-20.29 222.16,-27.23 224.74,-20.72"/>
</a>
</g>
</g>
<!-- Node14 -->
<g id="Node000014" class="node">
<title>Node14</title>
<g id="a_Node000014"><a xlink:title=" ">
<polygon fill="#e0e0e0" stroke="#999999" points="952.67,-19.25 909.67,-19.25 909.67,0 952.67,0 952.67,-19.25"/>
<text text-anchor="middle" x="931.17" y="-5.75" font-family="Helvetica,sans-Serif" font-size="10.00">vector</text>
</a>
</g>
</g>
<!-- Node9&#45;&gt;Node14 -->
<g id="edge14_Node000009_Node000014" class="edge">
<title>Node9&#45;&gt;Node14</title>
<g id="a_edge14_Node000009_Node000014"><a xlink:title=" ">
<path fill="none" stroke="#63b8ff" d="M641.46,-121.26C684.76,-114.32 741.21,-102.97 789.17,-85.75 833.16,-69.95 880.41,-42.64 907.8,-25.66"/>
<polygon fill="#63b8ff" stroke="#63b8ff" points="909.39,-28.8 915.99,-20.51 905.66,-22.87 909.39,-28.8"/>
</a>
</g>
</g>
<!-- Node15 -->
<g id="Node000015" class="node">
<title>Node15</title>
<g id="a_Node000015"><a xlink:title=" ">
<polygon fill="#e0e0e0" stroke="#999999" points="1110.29,-19.25 1038.04,-19.25 1038.04,0 1110.29,0 1110.29,-19.25"/>
<text text-anchor="middle" x="1074.17" y="-5.75" font-family="Helvetica,sans-Serif" font-size="10.00">Eigen/Dense</text>
</a>
</g>
</g>
<!-- Node9&#45;&gt;Node15 -->
<g id="edge15_Node000009_Node000015" class="edge">
<title>Node9&#45;&gt;Node15</title>
<g id="a_edge15_Node000009_Node000015"><a xlink:title=" ">
<path fill="none" stroke="#63b8ff" d="M641.36,-121.27C694.7,-113.62 770.11,-101.42 835.17,-85.75 908.61,-68.06 992.41,-39.8 1038.71,-23.45"/>
<polygon fill="#63b8ff" stroke="#63b8ff" points="1039.69,-26.81 1047.94,-20.17 1037.34,-20.22 1039.69,-26.81"/>
</a>
</g>
</g>
<!-- Node16 -->
<g id="Node000016" class="node">
<title>Node16</title>
<g id="a_Node000016"><a xlink:href="crs__map_8hpp.html" target="_top" xlink:title=" ">
<polygon fill="white" stroke="#666666" points="780.42,-85.75 675.92,-85.75 675.92,-55.25 780.42,-55.25 780.42,-85.75"/>
<text text-anchor="start" x="683.92" y="-72.25" font-family="Helvetica,sans-Serif" font-size="10.00">vulpes/datastructure</text>
<text text-anchor="middle" x="728.17" y="-61" font-family="Helvetica,sans-Serif" font-size="10.00">/crs_map.hpp</text>
</a>
</g>
</g>
<!-- Node9&#45;&gt;Node16 -->
<g id="edge16_Node000009_Node000016" class="edge">
<title>Node9&#45;&gt;Node16</title>
<g id="a_edge16_Node000009_Node000016"><a xlink:title=" ">
<path fill="none" stroke="#63b8ff" d="M596.2,-121.3C618.08,-113.05 651.08,-100.59 678.6,-90.21"/>
<polygon fill="#63b8ff" stroke="#63b8ff" points="679.7,-93.53 687.82,-86.73 677.23,-86.99 679.7,-93.53"/>
</a>
</g>
</g>
<!-- Node22 -->
<g id="Node000022" class="node">
<title>Node22</title>
<g id="a_Node000022"><a xlink:href="profiler_8hpp.html" target="_top" xlink:title=" ">
<polygon fill="white" stroke="#666666" points="458.04,-80.12 342.29,-80.12 342.29,-60.88 458.04,-60.88 458.04,-80.12"/>
<text text-anchor="middle" x="400.17" y="-66.62" font-family="Helvetica,sans-Serif" font-size="10.00">vulpes/utils/profiler.hpp</text>
</a>
</g>
</g>
<!-- Node9&#45;&gt;Node22 -->
<g id="edge24_Node000009_Node000022" class="edge">
<title>Node9&#45;&gt;Node22</title>
<g id="a_edge24_Node000009_Node000022"><a xlink:title=" ">
<path fill="none" stroke="#63b8ff" d="M545.67,-121.3C516.63,-111.36 469.84,-95.35 437.18,-84.17"/>
<polygon fill="#63b8ff" stroke="#63b8ff" points="438.72,-81 428.13,-81.07 436.46,-87.62 438.72,-81"/>
</a>
</g>
</g>
<!-- Node16&#45;&gt;Node12 -->
<g id="edge19_Node000016_Node000012" class="edge">
<title>Node16&#45;&gt;Node12</title>
<g id="a_edge19_Node000016_Node000012"><a xlink:title=" ">
<path fill="none" stroke="#63b8ff" d="M715.81,-54.95C709,-46.93 700.5,-36.92 693.3,-28.44"/>
<polygon fill="#63b8ff" stroke="#63b8ff" points="696,-26.21 686.86,-20.85 690.66,-30.74 696,-26.21"/>
</a>
</g>
</g>
<!-- Node16&#45;&gt;Node14 -->
<g id="edge23_Node000016_Node000014" class="edge">
<title>Node16&#45;&gt;Node14</title>
<g id="a_edge23_Node000016_Node000014"><a xlink:title=" ">
<path fill="none" stroke="#63b8ff" d="M778.87,-54.8C816.37,-43.92 866.34,-29.43 898.64,-20.06"/>
<polygon fill="#63b8ff" stroke="#63b8ff" points="899.19,-23.54 907.82,-17.4 897.24,-16.82 899.19,-23.54"/>
</a>
</g>
</g>
<!-- Node17 -->
<g id="Node000017" class="node">
<title>Node17</title>
<g id="a_Node000017"><a xlink:title=" ">
<polygon fill="#e0e0e0" stroke="#999999" points="636.04,-19.25 580.29,-19.25 580.29,0 636.04,0 636.04,-19.25"/>
<text text-anchor="middle" x="608.17" y="-5.75" font-family="Helvetica,sans-Serif" font-size="10.00">algorithm</text>
</a>
</g>
</g>
<!-- Node16&#45;&gt;Node17 -->
<g id="edge17_Node000016_Node000017" class="edge">
<title>Node16&#45;&gt;Node17</title>
<g id="a_edge17_Node000016_Node000017"><a xlink:title=" ">
<path fill="none" stroke="#63b8ff" d="M698.2,-54.8C679.4,-45.57 655.29,-33.75 636.76,-24.65"/>
<polygon fill="#63b8ff" stroke="#63b8ff" points="638.45,-21.58 627.93,-20.32 635.37,-27.87 638.45,-21.58"/>
</a>
</g>
</g>
<!-- Node18 -->
<g id="Node000018" class="node">
<title>Node18</title>
<g id="a_Node000018"><a xlink:title=" ">
<polygon fill="#e0e0e0" stroke="#999999" points="1016.04,-19.25 978.29,-19.25 978.29,0 1016.04,0 1016.04,-19.25"/>
<text text-anchor="middle" x="997.17" y="-5.75" font-family="Helvetica,sans-Serif" font-size="10.00">array</text>
</a>
</g>
</g>
<!-- Node16&#45;&gt;Node18 -->
<g id="edge18_Node000016_Node000018" class="edge">
<title>Node16&#45;&gt;Node18</title>
<g id="a_edge18_Node000016_Node000018"><a xlink:title=" ">
<path fill="none" stroke="#63b8ff" d="M780.78,-58.67C828.27,-48.79 900.02,-33.58 962.17,-19.25 963.77,-18.88 965.41,-18.5 967.07,-18.1"/>
<polygon fill="#63b8ff" stroke="#63b8ff" points="967.57,-21.58 976.47,-15.83 965.92,-14.78 967.57,-21.58"/>
</a>
</g>
</g>
<!-- Node19 -->
<g id="Node000019" class="node">
<title>Node19</title>
<g id="a_Node000019"><a xlink:title=" ">
<polygon fill="#e0e0e0" stroke="#999999" points="834.79,-19.25 783.54,-19.25 783.54,0 834.79,0 834.79,-19.25"/>
<text text-anchor="middle" x="809.17" y="-5.75" font-family="Helvetica,sans-Serif" font-size="10.00">ostream</text>
</a>
</g>
</g>
<!-- Node16&#45;&gt;Node19 -->
<g id="edge20_Node000016_Node000019" class="edge">
<title>Node16&#45;&gt;Node19</title>
<g id="a_edge20_Node000016_Node000019"><a xlink:title=" ">
<path fill="none" stroke="#63b8ff" d="M748.19,-54.95C760.17,-46.24 775.39,-35.18 787.63,-26.28"/>
<polygon fill="#63b8ff" stroke="#63b8ff" points="789.43,-29.3 795.46,-20.59 785.31,-23.64 789.43,-29.3"/>
</a>
</g>
</g>
<!-- Node20 -->
<g id="Node000020" class="node">
<title>Node20</title>
<g id="a_Node000020"><a xlink:title=" ">
<polygon fill="#e0e0e0" stroke="#999999" points="891.79,-19.25 852.54,-19.25 852.54,0 891.79,0 891.79,-19.25"/>
<text text-anchor="middle" x="872.17" y="-5.75" font-family="Helvetica,sans-Serif" font-size="10.00">utility</text>
</a>
</g>
</g>
<!-- Node16&#45;&gt;Node20 -->
<g id="edge21_Node000016_Node000020" class="edge">
<title>Node16&#45;&gt;Node20</title>
<g id="a_edge21_Node000016_Node000020"><a xlink:title=" ">
<path fill="none" stroke="#63b8ff" d="M764.13,-54.8C788.05,-45.02 819.1,-32.32 841.77,-23.05"/>
<polygon fill="#63b8ff" stroke="#63b8ff" points="842.83,-26.4 850.76,-19.38 840.18,-19.92 842.83,-26.4"/>
</a>
</g>
</g>
<!-- Node21 -->
<g id="Node000021" class="node">
<title>Node21</title>
<g id="a_Node000021"><a xlink:title=" ">
<polygon fill="#e0e0e0" stroke="#999999" points="765.79,-19.25 720.54,-19.25 720.54,0 765.79,0 765.79,-19.25"/>
<text text-anchor="middle" x="743.17" y="-5.75" font-family="Helvetica,sans-Serif" font-size="10.00">variant</text>
</a>
</g>
</g>
<!-- Node16&#45;&gt;Node21 -->
<g id="edge22_Node000016_Node000021" class="edge">
<title>Node16&#45;&gt;Node21</title>
<g id="a_edge22_Node000016_Node000021"><a xlink:title=" ">
<path fill="none" stroke="#63b8ff" d="M731.88,-54.95C733.74,-47.62 736.04,-38.62 738.07,-30.66"/>
<polygon fill="#63b8ff" stroke="#63b8ff" points="741.41,-31.72 740.48,-21.17 734.62,-29.99 741.41,-31.72"/>
</a>
</g>
</g>
<!-- Node22&#45;&gt;Node8 -->
<g id="edge30_Node000022_Node000008" class="edge">
<title>Node22&#45;&gt;Node8</title>
<g id="a_edge30_Node000022_Node000008"><a xlink:title=" ">
<path fill="none" stroke="#63b8ff" d="M348.57,-60.43C300.66,-51.7 227.13,-37.52 154.55,-19.67"/>
<polygon fill="#63b8ff" stroke="#63b8ff" points="155.41,-16.27 144.86,-17.25 153.71,-23.07 155.41,-16.27"/>
</a>
</g>
</g>
<!-- Node22&#45;&gt;Node13 -->
<g id="edge29_Node000022_Node000013" class="edge">
<title>Node22&#45;&gt;Node13</title>
<g id="a_edge29_Node000022_Node000013"><a xlink:title=" ">
<path fill="none" stroke="#63b8ff" d="M367.51,-60.43C329.37,-49.84 266.39,-32.35 226.11,-21.16"/>
<polygon fill="#63b8ff" stroke="#63b8ff" points="227.18,-17.83 216.61,-18.52 225.3,-24.57 227.18,-17.83"/>
</a>
</g>
</g>
<!-- Node22&#45;&gt;Node14 -->
<g id="edge33_Node000022_Node000014" class="edge">
<title>Node22&#45;&gt;Node14</title>
<g id="a_edge33_Node000022_Node000014"><a xlink:title=" ">
<path fill="none" stroke="#63b8ff" d="M458.25,-63.71C576.8,-51.88 839.84,-25.62 898.06,-18.86"/>
<polygon fill="#63b8ff" stroke="#63b8ff" points="898.36,-22.35 907.82,-17.59 897.46,-15.41 898.36,-22.35"/>
</a>
</g>
</g>
<!-- Node22&#45;&gt;Node17 -->
<g id="edge25_Node000022_Node000017" class="edge">
<title>Node22&#45;&gt;Node17</title>
<g id="a_edge25_Node000022_Node000017"><a xlink:title=" ">
<path fill="none" stroke="#63b8ff" d="M432.21,-60.43C469.03,-50.01 529.45,-32.91 569.03,-21.7"/>
<polygon fill="#63b8ff" stroke="#63b8ff" points="569.97,-25.08 578.64,-18.98 568.06,-18.34 569.97,-25.08"/>
</a>
</g>
</g>
<!-- Node22&#45;&gt;Node20 -->
<g id="edge32_Node000022_Node000020" class="edge">
<title>Node22&#45;&gt;Node20</title>
<g id="a_edge32_Node000022_Node000020"><a xlink:title=" ">
<path fill="none" stroke="#63b8ff" d="M458.34,-63.53C562.93,-52.7 777.2,-30.12 841.11,-19.35"/>
<polygon fill="#63b8ff" stroke="#63b8ff" points="841.42,-22.85 850.61,-17.58 840.14,-15.97 841.42,-22.85"/>
</a>
</g>
</g>
<!-- Node23 -->
<g id="Node000023" class="node">
<title>Node23</title>
<g id="a_Node000023"><a xlink:title=" ">
<polygon fill="#e0e0e0" stroke="#999999" points="277.79,-19.25 232.54,-19.25 232.54,0 277.79,0 277.79,-19.25"/>
<text text-anchor="middle" x="255.17" y="-5.75" font-family="Helvetica,sans-Serif" font-size="10.00">chrono</text>
</a>
</g>
</g>
<!-- Node22&#45;&gt;Node23 -->
<g id="edge26_Node000022_Node000023" class="edge">
<title>Node22&#45;&gt;Node23</title>
<g id="a_edge26_Node000022_Node000023"><a xlink:title=" ">
<path fill="none" stroke="#63b8ff" d="M377.83,-60.43C353.81,-50.68 315.39,-35.08 287.95,-23.93"/>
<polygon fill="#63b8ff" stroke="#63b8ff" points="289.28,-20.7 278.7,-20.18 286.65,-27.18 289.28,-20.7"/>
</a>
</g>
</g>
<!-- Node24 -->
<g id="Node000024" class="node">
<title>Node24</title>
<g id="a_Node000024"><a xlink:title=" ">
<polygon fill="#e0e0e0" stroke="#999999" points="1206.29,-19.25 1158.04,-19.25 1158.04,0 1206.29,0 1206.29,-19.25"/>
<text text-anchor="middle" x="1182.17" y="-5.75" font-family="Helvetica,sans-Serif" font-size="10.00">cstddef</text>
</a>
</g>
</g>
<!-- Node22&#45;&gt;Node24 -->
<g id="edge27_Node000022_Node000024" class="edge">
<title>Node22&#45;&gt;Node24</title>
<g id="a_edge27_Node000022_Node000024"><a xlink:title=" ">
<path fill="none" stroke="#63b8ff" d="M458.22,-63.22C484.19,-60.54 515.19,-57.52 543.17,-55.25 798.83,-34.53 863.93,-44.66 1119.17,-19.25 1128.03,-18.37 1137.56,-17.19 1146.46,-15.98"/>
<polygon fill="#63b8ff" stroke="#63b8ff" points="1146.77,-19.47 1156.19,-14.61 1145.8,-12.54 1146.77,-19.47"/>
</a>
</g>
</g>
<!-- Node25 -->
<g id="Node000025" class="node">
<title>Node25</title>
<g id="a_Node000025"><a xlink:title=" ">
<polygon fill="#e0e0e0" stroke="#999999" points="346.04,-19.25 296.29,-19.25 296.29,0 346.04,0 346.04,-19.25"/>
<text text-anchor="middle" x="321.17" y="-5.75" font-family="Helvetica,sans-Serif" font-size="10.00">iomanip</text>
</a>
</g>
</g>
<!-- Node22&#45;&gt;Node25 -->
<g id="edge28_Node000022_Node000025" class="edge">
<title>Node22&#45;&gt;Node25</title>
<g id="a_edge28_Node000022_Node000025"><a xlink:title=" ">
<path fill="none" stroke="#63b8ff" d="M388.17,-60.56C375.99,-51.48 356.88,-37.24 342.19,-26.29"/>
<polygon fill="#63b8ff" stroke="#63b8ff" points="344.6,-23.72 334.49,-20.56 340.42,-29.34 344.6,-23.72"/>
</a>
</g>
</g>
<!-- Node26 -->
<g id="Node000026" class="node">
<title>Node26</title>
<g id="a_Node000026"><a xlink:title=" ">
<polygon fill="#e0e0e0" stroke="#999999" points="446.54,-19.25 363.79,-19.25 363.79,0 446.54,0 446.54,-19.25"/>
<text text-anchor="middle" x="405.17" y="-5.75" font-family="Helvetica,sans-Serif" font-size="10.00">unordered_map</text>
</a>
</g>
</g>
<!-- Node22&#45;&gt;Node26 -->
<g id="edge31_Node000022_Node000026" class="edge">
<title>Node22&#45;&gt;Node26</title>
<g id="a_edge31_Node000022_Node000026"><a xlink:title=" ">
<path fill="none" stroke="#63b8ff" d="M400.93,-60.56C401.6,-52.69 402.59,-40.95 403.45,-30.82"/>
<polygon fill="#63b8ff" stroke="#63b8ff" points="406.92,-31.42 404.27,-21.16 399.94,-30.83 406.92,-31.42"/>
</a>
</g>
</g>
<!-- Node27 -->
<g id="Node000027" class="node">
<title>Node27</title>
<g id="a_Node000027"><a xlink:title=" ">
<polygon fill="#e0e0e0" stroke="#999999" points="562.04,-19.25 464.29,-19.25 464.29,0 562.04,0 562.04,-19.25"/>
<text text-anchor="middle" x="513.17" y="-5.75" font-family="Helvetica,sans-Serif" font-size="10.00">nlohmann/json.hpp</text>
</a>
</g>
</g>
<!-- Node22&#45;&gt;Node27 -->
<g id="edge34_Node000022_Node000027" class="edge">
<title>Node22&#45;&gt;Node27</title>
<g id="a_edge34_Node000022_Node000027"><a xlink:title=" ">
<path fill="none" stroke="#63b8ff" d="M417.33,-60.56C435.5,-51.09 464.44,-36.01 485.77,-24.9"/>
<polygon fill="#63b8ff" stroke="#63b8ff" points="487.25,-28.08 494.5,-20.35 484.02,-21.87 487.25,-28.08"/>
</a>
</g>
</g>
<!-- Node28&#45;&gt;Node2 -->
<g id="edge40_Node000028_Node000002" class="edge">
<title>Node28&#45;&gt;Node2</title>
<g id="a_edge40_Node000028_Node000002"><a xlink:title=" ">
<path fill="none" stroke="#63b8ff" d="M299.45,-287.06C251.45,-267.91 139.54,-223.28 83.46,-200.9"/>
<polygon fill="#63b8ff" stroke="#63b8ff" points="85.01,-197.75 74.42,-197.3 82.42,-204.26 85.01,-197.75"/>
</a>
</g>
</g>
<!-- Node28&#45;&gt;Node4 -->
<g id="edge36_Node000028_Node000004" class="edge">
<title>Node28&#45;&gt;Node4</title>
<g id="a_edge36_Node000028_Node000004"><a xlink:title=" ">
<path fill="none" stroke="#63b8ff" d="M281.53,-287.03C238.87,-277.49 172.03,-262.53 128.16,-252.72"/>
<polygon fill="#63b8ff" stroke="#63b8ff" points="128.98,-249.32 118.46,-250.55 127.46,-256.15 128.98,-249.32"/>
</a>
</g>
</g>
<!-- Node28&#45;&gt;Node5 -->
<g id="edge37_Node000028_Node000005" class="edge">
<title>Node28&#45;&gt;Node5</title>
<g id="a_edge37_Node000028_Node000005"><a xlink:title=" ">
<path fill="none" stroke="#63b8ff" d="M284.11,-287.06C252.18,-279.02 205.6,-266.29 166.17,-251.5 147.32,-244.43 143.88,-239.67 125.17,-232.25 77.35,-213.28 45.36,-237.9 15.17,-196.25 4.83,-181.99 15.12,-163.18 25.84,-149.67"/>
<polygon fill="#63b8ff" stroke="#63b8ff" points="28.2,-152.28 32.09,-142.43 22.91,-147.71 28.2,-152.28"/>
</a>
</g>
</g>
<!-- Node28&#45;&gt;Node7 -->
<g id="edge44_Node000028_Node000007" class="edge">
<title>Node28&#45;&gt;Node7</title>
<g id="a_edge44_Node000028_Node000007"><a xlink:title=" ">
<path fill="none" stroke="#63b8ff" d="M305.12,-287.06C289.1,-278.39 264.61,-264.71 244.17,-251.5 220.36,-236.11 194.2,-216.79 176.64,-203.45"/>
<polygon fill="#63b8ff" stroke="#63b8ff" points="179.11,-200.94 169.04,-197.64 174.86,-206.5 179.11,-200.94"/>
</a>
</g>
</g>
<!-- Node28&#45;&gt;Node8 -->
<g id="edge41_Node000028_Node000008" class="edge">
<title>Node28&#45;&gt;Node8</title>
<g id="a_edge41_Node000028_Node000008"><a xlink:title=" ">
<path fill="none" stroke="#63b8ff" d="M316,-287.27C288.2,-247.39 174.36,-84.07 135.92,-28.92"/>
<polygon fill="#63b8ff" stroke="#63b8ff" points="138.92,-27.11 130.33,-20.9 133.18,-31.11 138.92,-27.11"/>
</a>
</g>
</g>
<!-- Node28&#45;&gt;Node9 -->
<g id="edge68_Node000028_Node000009" class="edge">
<title>Node28&#45;&gt;Node9</title>
<g id="a_edge68_Node000028_Node000009"><a xlink:title=" ">
<path fill="none" stroke="#63b8ff" d="M333.77,-287.13C350.24,-274.46 381.48,-250.85 409.17,-232.25 456.9,-200.19 514.68,-165.78 547.05,-146.88"/>
<polygon fill="#63b8ff" stroke="#63b8ff" points="548.43,-150.13 555.31,-142.08 544.91,-144.08 548.43,-150.13"/>
</a>
</g>
</g>
<!-- Node28&#45;&gt;Node13 -->
<g id="edge39_Node000028_Node000013" class="edge">
<title>Node28&#45;&gt;Node13</title>
<g id="a_edge39_Node000028_Node000013"><a xlink:title=" ">
<path fill="none" stroke="#63b8ff" d="M318.66,-287.17C305.98,-255.09 260.8,-143.09 214.17,-55.25 209.6,-46.65 204.23,-37.31 199.56,-29.41"/>
<polygon fill="#63b8ff" stroke="#63b8ff" points="202.68,-27.81 194.54,-21.03 196.68,-31.41 202.68,-27.81"/>
</a>
</g>
</g>
<!-- Node28&#45;&gt;Node14 -->
<g id="edge43_Node000028_Node000014" class="edge">
<title>Node28&#45;&gt;Node14</title>
<g id="a_edge43_Node000028_Node000014"><a xlink:title=" ">
<path fill="none" stroke="#63b8ff" d="M391.77,-296.36C491.05,-295.28 678.45,-287.97 833.17,-251.5 898.28,-236.15 935.04,-251.21 973.17,-196.25 1009.68,-143.62 966.81,-64.25 943.84,-28.82"/>
<polygon fill="#63b8ff" stroke="#63b8ff" points="947.04,-27.3 938.56,-20.94 941.22,-31.2 947.04,-27.3"/>
</a>
</g>
</g>
<!-- Node28&#45;&gt;Node20 -->
<g id="edge42_Node000028_Node000020" class="edge">
<title>Node28&#45;&gt;Node20</title>
<g id="a_edge42_Node000028_Node000020"><a xlink:title=" ">
<path fill="none" stroke="#63b8ff" d="M391.66,-291.52C557.02,-279.63 960.17,-244.79 960.17,-187.62 960.17,-187.62 960.17,-187.62 960.17,-130.38 960.17,-85.8 920.08,-46.84 894.02,-26.23"/>
<polygon fill="#63b8ff" stroke="#63b8ff" points="896.44,-23.67 886.36,-20.4 892.2,-29.24 896.44,-23.67"/>
</a>
</g>
</g>
<!-- Node28&#45;&gt;Node24 -->
<g id="edge38_Node000028_Node000024" class="edge">
<title>Node28&#45;&gt;Node24</title>
<g id="a_edge38_Node000028_Node000024"><a xlink:title=" ">
<path fill="none" stroke="#63b8ff" d="M391.74,-295C552.78,-291.93 947.25,-281.48 1076.17,-251.5 1147.54,-234.9 1228.17,-260.9 1228.17,-187.62 1228.17,-187.62 1228.17,-187.62 1228.17,-130.38 1228.17,-92.48 1207.85,-52.06 1194.22,-29.21"/>
<polygon fill="#63b8ff" stroke="#63b8ff" points="1197.23,-27.42 1188.98,-20.78 1191.28,-31.12 1197.23,-27.42"/>
</a>
</g>
</g>
<!-- Node28&#45;&gt;Node29 -->
<g id="edge45_Node000028_Node000029" class="edge">
<title>Node28&#45;&gt;Node29</title>
<g id="a_edge45_Node000028_Node000029"><a xlink:title=" ">
<path fill="none" stroke="#63b8ff" d="M347.11,-287.09C370.86,-278.49 406.88,-265.44 433.63,-255.75"/>
<polygon fill="#63b8ff" stroke="#63b8ff" points="434.48,-259.16 442.69,-252.47 432.09,-252.58 434.48,-259.16"/>
</a>
</g>
</g>
<!-- Node31 -->
<g id="Node000031" class="node">
<title>Node31</title>
<g id="a_Node000031"><a xlink:href="qrule_8hpp.html" target="_top" xlink:title=" ">
<polygon fill="white" stroke="#666666" points="1200.17,-141 1064.17,-141 1064.17,-121.75 1200.17,-121.75 1200.17,-141"/>
<text text-anchor="middle" x="1132.17" y="-127.5" font-family="Helvetica,sans-Serif" font-size="10.00">vulpes/quadrature/qrule.hpp</text>
</a>
</g>
</g>
<!-- Node28&#45;&gt;Node31 -->
<g id="edge57_Node000028_Node000031" class="edge">
<title>Node28&#45;&gt;Node31</title>
<g id="a_edge57_Node000028_Node000031"><a xlink:title=" ">
<path fill="none" stroke="#63b8ff" d="M391.55,-295.31C562.41,-292.81 993.78,-283.38 1050.17,-251.5 1089.39,-229.33 1113.92,-179.71 1125.08,-152.01"/>
<polygon fill="#63b8ff" stroke="#63b8ff" points="1128.32,-153.32 1128.62,-142.73 1121.78,-150.83 1128.32,-153.32"/>
</a>
</g>
</g>
<!-- Node29&#45;&gt;Node2 -->
<g id="edge50_Node000029_Node000002" class="edge">
<title>Node29&#45;&gt;Node2</title>
<g id="a_edge50_Node000029_Node000002"><a xlink:title=" ">
<path fill="none" stroke="#63b8ff" d="M417.31,-236.94C345.41,-231.01 211.22,-218.31 87.28,-196.41"/>
<polygon fill="#63b8ff" stroke="#63b8ff" points="88.04,-192.99 77.57,-194.66 86.8,-199.88 88.04,-192.99"/>
</a>
</g>
</g>
<!-- Node29&#45;&gt;Node5 -->
<g id="edge46_Node000029_Node000005" class="edge">
<title>Node29&#45;&gt;Node5</title>
<g id="a_edge46_Node000029_Node000005"><a xlink:title=" ">
<path fill="none" stroke="#63b8ff" d="M435.56,-231.76C388.88,-219.16 301.74,-195.83 227.17,-177 178.83,-164.79 123.21,-151.47 85.68,-142.59"/>
<polygon fill="#63b8ff" stroke="#63b8ff" points="86.65,-139.23 76.11,-140.33 85.04,-146.04 86.65,-139.23"/>
</a>
</g>
</g>
<!-- Node29&#45;&gt;Node7 -->
<g id="edge55_Node000029_Node000007" class="edge">
<title>Node29&#45;&gt;Node7</title>
<g id="a_edge55_Node000029_Node000007"><a xlink:title=" ">
<path fill="none" stroke="#63b8ff" d="M417.48,-232.08C363.68,-222.93 279.3,-208.57 221.05,-198.66"/>
<polygon fill="#63b8ff" stroke="#63b8ff" points="221.7,-195.22 211.26,-197 220.53,-202.13 221.7,-195.22"/>
</a>
</g>
</g>
<!-- Node29&#45;&gt;Node8 -->
<g id="edge51_Node000029_Node000008" class="edge">
<title>Node29&#45;&gt;Node8</title>
<g id="a_edge51_Node000029_Node000008"><a xlink:title=" ">
<path fill="none" stroke="#63b8ff" d="M458.46,-232.02C424.25,-203.99 314.05,-115.47 214.17,-55.25 194.83,-43.59 172,-32.4 154.05,-24.15"/>
<polygon fill="#63b8ff" stroke="#63b8ff" points="155.51,-20.96 144.96,-20.03 152.63,-27.34 155.51,-20.96"/>
</a>
</g>
</g>
<!-- Node29&#45;&gt;Node9 -->
<g id="edge56_Node000029_Node000009" class="edge">
<title>Node29&#45;&gt;Node9</title>
<g id="a_edge56_Node000029_Node000009"><a xlink:title=" ">
<path fill="none" stroke="#63b8ff" d="M476.91,-232.06C487.9,-219.62 508.74,-196.26 527.17,-177 536.09,-167.68 546.28,-157.53 554.7,-149.27"/>
<polygon fill="#63b8ff" stroke="#63b8ff" points="556.92,-152.01 561.63,-142.52 552.03,-146.99 556.92,-152.01"/>
</a>
</g>
</g>
<!-- Node29&#45;&gt;Node14 -->
<g id="edge53_Node000029_Node000014" class="edge">
<title>Node29&#45;&gt;Node14</title>
<g id="a_edge53_Node000029_Node000014"><a xlink:title=" ">
<path fill="none" stroke="#63b8ff" d="M518.64,-231.8C554.07,-224.44 602.51,-212.59 643.17,-196.25 753.72,-151.81 867.59,-63.27 911.9,-26.85"/>
<polygon fill="#63b8ff" stroke="#63b8ff" points="913.88,-29.76 919.34,-20.68 909.41,-24.37 913.88,-29.76"/>
</a>
</g>
</g>
<!-- Node29&#45;&gt;Node15 -->
<g id="edge54_Node000029_Node000015" class="edge">
<title>Node29&#45;&gt;Node15</title>
<g id="a_edge54_Node000029_Node000015"><a xlink:title=" ">
<path fill="none" stroke="#63b8ff" d="M521.15,-233.17C563.98,-226.01 625.94,-213.81 678.17,-196.25 823.8,-147.29 986.62,-59.75 1048.47,-25.21"/>
<polygon fill="#63b8ff" stroke="#63b8ff" points="1050.17,-28.27 1057.17,-20.33 1046.74,-22.17 1050.17,-28.27"/>
</a>
</g>
</g>
<!-- Node29&#45;&gt;Node17 -->
<g id="edge48_Node000029_Node000017" class="edge">
<title>Node29&#45;&gt;Node17</title>
<g id="a_edge48_Node000029_Node000017"><a xlink:title=" ">
<path fill="none" stroke="#63b8ff" d="M469.38,-231.86C470.15,-211.49 473.59,-160.69 489.17,-121.75 502.43,-88.62 508.28,-79.82 534.17,-55.25 547.04,-43.03 563.82,-32.58 578.14,-24.87"/>
<polygon fill="#63b8ff" stroke="#63b8ff" points="579.42,-28.14 586.7,-20.44 576.21,-21.92 579.42,-28.14"/>
</a>
</g>
</g>
<!-- Node29&#45;&gt;Node20 -->
<g id="edge52_Node000029_Node000020" class="edge">
<title>Node29&#45;&gt;Node20</title>
<g id="a_edge52_Node000029_Node000020"><a xlink:title=" ">
<path fill="none" stroke="#63b8ff" d="M506.04,-231.75C534.81,-224.01 575.42,-211.71 609.17,-196.25 694.51,-157.15 714.05,-142.04 789.17,-85.75 813.58,-67.46 839.25,-43.36 855.47,-27.45"/>
<polygon fill="#63b8ff" stroke="#63b8ff" points="857.73,-30.14 862.36,-20.61 852.8,-25.17 857.73,-30.14"/>
</a>
</g>
</g>
<!-- Node29&#45;&gt;Node24 -->
<g id="edge49_Node000029_Node000024" class="edge">
<title>Node29&#45;&gt;Node24</title>
<g id="a_edge49_Node000029_Node000024"><a xlink:title=" ">
<path fill="none" stroke="#63b8ff" d="M521.16,-234.63C571.83,-227.82 650.72,-215.28 717.17,-196.25 887.66,-147.42 1081.75,-58.52 1153.53,-24.43"/>
<polygon fill="#63b8ff" stroke="#63b8ff" points="1154.72,-27.75 1162.24,-20.28 1151.7,-21.43 1154.72,-27.75"/>
</a>
</g>
</g>
<!-- Node30 -->
<g id="Node000030" class="node">
<title>Node30</title>
<g id="a_Node000030"><a xlink:title=" ">
<polygon fill="#e0e0e0" stroke="#999999" points="600.17,-196.25 536.17,-196.25 536.17,-177 600.17,-177 600.17,-196.25"/>
<text text-anchor="middle" x="568.17" y="-182.75" font-family="Helvetica,sans-Serif" font-size="10.00">petscvec.h</text>
</a>
</g>
</g>
<!-- Node29&#45;&gt;Node30 -->
<g id="edge47_Node000029_Node000030" class="edge">
<title>Node29&#45;&gt;Node30</title>
<g id="a_edge47_Node000029_Node000030"><a xlink:title=" ">
<path fill="none" stroke="#63b8ff" d="M485.96,-231.84C501.18,-223.66 523.86,-211.46 541.55,-201.94"/>
<polygon fill="#63b8ff" stroke="#63b8ff" points="542.81,-205.24 549.96,-197.42 539.49,-199.07 542.81,-205.24"/>
</a>
</g>
</g>
<!-- Node31&#45;&gt;Node14 -->
<g id="edge60_Node000031_Node000014" class="edge">
<title>Node31&#45;&gt;Node14</title>
<g id="a_edge60_Node000031_Node000014"><a xlink:title=" ">
<path fill="none" stroke="#63b8ff" d="M1113.38,-121.35C1096.4,-112.92 1070.95,-99.58 1050.17,-85.75 1032.14,-73.75 1030.16,-67.3 1012.17,-55.25 995.48,-44.07 975.75,-33.16 959.94,-24.93"/>
<polygon fill="#63b8ff" stroke="#63b8ff" points="961.56,-21.82 951.06,-20.37 958.36,-28.05 961.56,-21.82"/>
</a>
</g>
</g>
<!-- Node31&#45;&gt;Node18 -->
<g id="edge58_Node000031_Node000018" class="edge">
<title>Node31&#45;&gt;Node18</title>
<g id="a_edge58_Node000031_Node000018"><a xlink:title=" ">
<path fill="none" stroke="#63b8ff" d="M1122.69,-121.45C1107.54,-107.25 1076.86,-78.69 1050.17,-55.25 1039.35,-45.75 1027.06,-35.37 1017.03,-27.02"/>
<polygon fill="#63b8ff" stroke="#63b8ff" points="1019.34,-24.38 1009.41,-20.69 1014.87,-29.77 1019.34,-24.38"/>
</a>
</g>
</g>
<!-- Node31&#45;&gt;Node24 -->
<g id="edge59_Node000031_Node000024" class="edge">
<title>Node31&#45;&gt;Node24</title>
<g id="a_edge59_Node000031_Node000024"><a xlink:title=" ">
<path fill="none" stroke="#63b8ff" d="M1140.17,-121.46C1147.46,-112.89 1157.99,-99.28 1164.17,-85.75 1172.27,-68.02 1176.97,-46.22 1179.53,-30.67"/>
<polygon fill="#63b8ff" stroke="#63b8ff" points="1182.98,-31.21 1180.97,-20.81 1176.06,-30.2 1182.98,-31.21"/>
</a>
</g>
</g>
<!-- Node32 -->
<g id="Node000032" class="node">
<title>Node32</title>
<g id="a_Node000032"><a xlink:href="vmath_8hpp.html" target="_top" xlink:title=" ">
<polygon fill="white" stroke="#666666" points="1370.29,-80.12 1256.04,-80.12 1256.04,-60.88 1370.29,-60.88 1370.29,-80.12"/>
<text text-anchor="middle" x="1313.17" y="-66.62" font-family="Helvetica,sans-Serif" font-size="10.00">vulpes/utils/vmath.hpp</text>
</a>
</g>
</g>
<!-- Node31&#45;&gt;Node32 -->
<g id="edge61_Node000031_Node000032" class="edge">
<title>Node31&#45;&gt;Node32</title>
<g id="a_edge61_Node000031_Node000032"><a xlink:title=" ">
<path fill="none" stroke="#63b8ff" d="M1160.05,-121.3C1190.75,-111.32 1240.28,-95.21 1274.67,-84.02"/>
<polygon fill="#63b8ff" stroke="#63b8ff" points="1275.39,-87.47 1283.81,-81.05 1273.22,-80.81 1275.39,-87.47"/>
</a>
</g>
</g>
<!-- Node32&#45;&gt;Node15 -->
<g id="edge67_Node000032_Node000015" class="edge">
<title>Node32&#45;&gt;Node15</title>
<g id="a_edge67_Node000032_Node000015"><a xlink:title=" ">
<path fill="none" stroke="#63b8ff" d="M1276.35,-60.43C1234.82,-50.2 1167.18,-33.54 1121.69,-22.33"/>
<polygon fill="#63b8ff" stroke="#63b8ff" points="1122.66,-18.96 1112.11,-19.97 1120.98,-25.76 1122.66,-18.96"/>
</a>
</g>
</g>
<!-- Node32&#45;&gt;Node24 -->
<g id="edge63_Node000032_Node000024" class="edge">
<title>Node32&#45;&gt;Node24</title>
<g id="a_edge63_Node000032_Node000024"><a xlink:title=" ">
<path fill="none" stroke="#63b8ff" d="M1292.99,-60.43C1271.48,-50.76 1237.19,-35.35 1212.44,-24.23"/>
<polygon fill="#63b8ff" stroke="#63b8ff" points="1214.1,-21.14 1203.54,-20.23 1211.23,-27.52 1214.1,-21.14"/>
</a>
</g>
</g>
<!-- Node33 -->
<g id="Node000033" class="node">
<title>Node33</title>
<g id="a_Node000033"><a xlink:title=" ">
<polygon fill="#e0e0e0" stroke="#999999" points="1415.92,-19.25 1362.42,-19.25 1362.42,0 1415.92,0 1415.92,-19.25"/>
<text text-anchor="middle" x="1389.17" y="-5.75" font-family="Helvetica,sans-Serif" font-size="10.00">gmpxx.h</text>
</a>
</g>
</g>
<!-- Node32&#45;&gt;Node33 -->
<g id="edge62_Node000032_Node000033" class="edge">
<title>Node32&#45;&gt;Node33</title>
<g id="a_edge62_Node000032_Node000033"><a xlink:title=" ">
<path fill="none" stroke="#63b8ff" d="M1324.71,-60.56C1336.32,-51.57 1354.46,-37.51 1368.55,-26.6"/>
<polygon fill="#63b8ff" stroke="#63b8ff" points="1370.56,-29.47 1376.32,-20.58 1366.27,-23.94 1370.56,-29.47"/>
</a>
</g>
</g>
<!-- Node34 -->
<g id="Node000034" class="node">
<title>Node34</title>
<g id="a_Node000034"><a xlink:title=" ">
<polygon fill="#e0e0e0" stroke="#999999" points="1478.79,-19.25 1433.54,-19.25 1433.54,0 1478.79,0 1478.79,-19.25"/>
<text text-anchor="middle" x="1456.17" y="-5.75" font-family="Helvetica,sans-Serif" font-size="10.00">cstdint</text>
</a>
</g>
</g>
<!-- Node32&#45;&gt;Node34 -->
<g id="edge64_Node000032_Node000034" class="edge">
<title>Node32&#45;&gt;Node34</title>
<g id="a_edge64_Node000032_Node000034"><a xlink:title=" ">
<path fill="none" stroke="#63b8ff" d="M1335.2,-60.43C1358.89,-50.68 1396.78,-35.08 1423.84,-23.93"/>
<polygon fill="#63b8ff" stroke="#63b8ff" points="1425.03,-27.23 1432.95,-20.19 1422.37,-20.76 1425.03,-27.23"/>
</a>
</g>
</g>
<!-- Node35 -->
<g id="Node000035" class="node">
<title>Node35</title>
<g id="a_Node000035"><a xlink:title=" ">
<polygon fill="#e0e0e0" stroke="#999999" points="1263.79,-19.25 1224.54,-19.25 1224.54,0 1263.79,0 1263.79,-19.25"/>
<text text-anchor="middle" x="1244.17" y="-5.75" font-family="Helvetica,sans-Serif" font-size="10.00">limits</text>
</a>
</g>
</g>
<!-- Node32&#45;&gt;Node35 -->
<g id="edge65_Node000032_Node000035" class="edge">
<title>Node32&#45;&gt;Node35</title>
<g id="a_edge65_Node000032_Node000035"><a xlink:title=" ">
<path fill="none" stroke="#63b8ff" d="M1302.69,-60.56C1292.25,-51.65 1276,-37.78 1263.26,-26.92"/>
<polygon fill="#63b8ff" stroke="#63b8ff" points="1265.78,-24.46 1255.9,-20.63 1261.23,-29.79 1265.78,-24.46"/>
</a>
</g>
</g>
<!-- Node36 -->
<g id="Node000036" class="node">
<title>Node36</title>
<g id="a_Node000036"><a xlink:title=" ">
<polygon fill="#e0e0e0" stroke="#999999" points="1344.04,-19.25 1282.29,-19.25 1282.29,0 1344.04,0 1344.04,-19.25"/>
<text text-anchor="middle" x="1313.17" y="-5.75" font-family="Helvetica,sans-Serif" font-size="10.00">type_traits</text>
</a>
</g>
</g>
<!-- Node32&#45;&gt;Node36 -->
<g id="edge66_Node000032_Node000036" class="edge">
<title>Node32&#45;&gt;Node36</title>
<g id="a_edge66_Node000032_Node000036"><a xlink:title=" ">
<path fill="none" stroke="#63b8ff" d="M1313.17,-60.56C1313.17,-52.78 1313.17,-41.2 1313.17,-31.16"/>
<polygon fill="#63b8ff" stroke="#63b8ff" points="1316.67,-31.16 1313.17,-21.16 1309.67,-31.16 1316.67,-31.16"/>
</a>
</g>
</g>
</g>
</svg>
