<?xml version="1.0" encoding="UTF-8" standalone="no"?>
<!DOCTYPE svg PUBLIC "-//W3C//DTD SVG 1.1//EN"
 "http://www.w3.org/Graphics/SVG/1.1/DTD/svg11.dtd">
<!-- Generated by graphviz version 12.2.1 (20241206.2353)
 -->
<!-- Title: /Users/ilariomazzieri/Desktop/vulpes/vulpes/timeintegration/solvermfk.cpp Pages: 1 -->
<svg width="1466pt" height="514pt"
 viewBox="0.00 0.00 1465.62 514.25" xmlns="http://www.w3.org/2000/svg" xmlns:xlink="http://www.w3.org/1999/xlink">
<g id="graph0" class="graph" transform="scale(1 1) rotate(0) translate(4 510.25)">
<title>/Users/ilariomazzieri/Desktop/vulpes/vulpes/timeintegration/solvermfk.cpp</title>
<!-- Node1 -->
<g id="Node000001" class="node">
<title>Node1</title>
<g id="a_Node000001"><a xlink:title=" ">
<polygon fill="#999999" stroke="#666666" points="793.62,-506.25 646.38,-506.25 646.38,-464.5 793.62,-464.5 793.62,-506.25"/>
<text text-anchor="start" x="654.38" y="-492.75" font-family="Helvetica,sans-Serif" font-size="10.00">/Users/ilariomazzieri</text>
<text text-anchor="start" x="654.38" y="-481.5" font-family="Helvetica,sans-Serif" font-size="10.00">/Desktop/vulpes/vulpes</text>
<text text-anchor="middle" x="720" y="-470.25" font-family="Helvetica,sans-Serif" font-size="10.00">/timeintegration/solvermfk.cpp</text>
</a>
</g>
</g>
<!-- Node2 -->
<g id="Node000002" class="node">
<title>Node2</title>
<g id="a_Node000002"><a xlink:href="solvermfk_8hpp.html" target="_top" xlink:title=" ">
<polygon fill="white" stroke="#666666" points="775.62,-428.5 664.38,-428.5 664.38,-398 775.62,-398 775.62,-428.5"/>
<text text-anchor="start" x="672.38" y="-415" font-family="Helvetica,sans-Serif" font-size="10.00">vulpes/timeintegration</text>
<text text-anchor="middle" x="720" y="-403.75" font-family="Helvetica,sans-Serif" font-size="10.00">/solvermfk.hpp</text>
</a>
</g>
</g>
<!-- Node1&#45;&gt;Node2 -->
<g id="edge1_Node000001_Node000002" class="edge">
<title>Node1&#45;&gt;Node2</title>
<g id="a_edge1_Node000001_Node000002"><a xlink:title=" ">
<path fill="none" stroke="#63b8ff" d="M720,-464.09C720,-456.57 720,-447.94 720,-440"/>
<polygon fill="#63b8ff" stroke="#63b8ff" points="723.5,-440.21 720,-430.21 716.5,-440.21 723.5,-440.21"/>
</a>
</g>
</g>
<!-- Node14 -->
<g id="Node000014" class="node">
<title>Node14</title>
<g id="a_Node000014"><a xlink:title=" ">
<polygon fill="#e0e0e0" stroke="#999999" points="78.75,-19.25 25.25,-19.25 25.25,0 78.75,0 78.75,-19.25"/>
<text text-anchor="middle" x="52" y="-5.75" font-family="Helvetica,sans-Serif" font-size="10.00">iostream</text>
</a>
</g>
</g>
<!-- Node1&#45;&gt;Node14 -->
<g id="edge73_Node000001_Node000014" class="edge">
<title>Node1&#45;&gt;Node14</title>
<g id="a_edge73_Node000001_Node000014"><a xlink:title=" ">
<path fill="none" stroke="#63b8ff" d="M646,-478.63C462.26,-463.38 0,-418.53 0,-353.38 0,-353.38 0,-353.38 0,-130.38 0,-91.83 22.95,-51.65 38.36,-29.02"/>
<polygon fill="#63b8ff" stroke="#63b8ff" points="41.18,-31.08 44.11,-20.89 35.47,-27.03 41.18,-31.08"/>
</a>
</g>
</g>
<!-- Node21 -->
<g id="Node000021" class="node">
<title>Node21</title>
<g id="a_Node000021"><a xlink:title=" ">
<polygon fill="#e0e0e0" stroke="#999999" points="1029.62,-19.25 990.38,-19.25 990.38,0 1029.62,0 1029.62,-19.25"/>
<text text-anchor="middle" x="1010" y="-5.75" font-family="Helvetica,sans-Serif" font-size="10.00">utility</text>
</a>
</g>
</g>
<!-- Node1&#45;&gt;Node21 -->
<g id="edge74_Node000001_Node000021" class="edge">
<title>Node1&#45;&gt;Node21</title>
<g id="a_edge74_Node000001_Node000021"><a xlink:title=" ">
<path fill="none" stroke="#63b8ff" d="M793.95,-476.15C912.28,-460.92 1131,-423.3 1131,-353.38 1131,-353.38 1131,-353.38 1131,-185.62 1131,-116.41 1066.17,-54.76 1031.42,-26.69"/>
<polygon fill="#63b8ff" stroke="#63b8ff" points="1033.71,-24.03 1023.68,-20.61 1029.39,-29.54 1033.71,-24.03"/>
</a>
</g>
</g>
<!-- Node3 -->
<g id="Node000003" class="node">
<title>Node3</title>
<g id="a_Node000003"><a xlink:title=" ">
<polygon fill="#e0e0e0" stroke="#999999" points="956.62,-196.25 905.38,-196.25 905.38,-177 956.62,-177 956.62,-196.25"/>
<text text-anchor="middle" x="931" y="-182.75" font-family="Helvetica,sans-Serif" font-size="10.00">memory</text>
</a>
</g>
</g>
<!-- Node2&#45;&gt;Node3 -->
<g id="edge2_Node000002_Node000003" class="edge">
<title>Node2&#45;&gt;Node3</title>
<g id="a_edge2_Node000002_Node000003"><a xlink:title=" ">
<path fill="none" stroke="#63b8ff" d="M776.08,-404.11C853.15,-389.42 987.74,-350.2 1036,-251.5 1051.31,-220.19 1004.35,-202.83 968.34,-194.37"/>
<polygon fill="#63b8ff" stroke="#63b8ff" points="969.12,-190.96 958.6,-192.25 967.63,-197.8 969.12,-190.96"/>
</a>
</g>
</g>
<!-- Node4 -->
<g id="Node000004" class="node">
<title>Node4</title>
<g id="a_Node000004"><a xlink:href="linear__solver_8hpp.html" target="_top" xlink:title=" ">
<polygon fill="white" stroke="#666666" points="833.38,-362 702.62,-362 702.62,-342.75 833.38,-342.75 833.38,-362"/>
<text text-anchor="middle" x="768" y="-348.5" font-family="Helvetica,sans-Serif" font-size="10.00">vulpes/la/linear_solver.hpp</text>
</a>
</g>
</g>
<!-- Node2&#45;&gt;Node4 -->
<g id="edge3_Node000002_Node000004" class="edge">
<title>Node2&#45;&gt;Node4</title>
<g id="a_edge3_Node000002_Node000004"><a xlink:title=" ">
<path fill="none" stroke="#63b8ff" d="M731.87,-397.7C738.4,-389.68 746.57,-379.67 753.48,-371.19"/>
<polygon fill="#63b8ff" stroke="#63b8ff" points="756.04,-373.59 759.64,-363.62 750.61,-369.16 756.04,-373.59"/>
</a>
</g>
</g>
<!-- Node29 -->
<g id="Node000029" class="node">
<title>Node29</title>
<g id="a_Node000029"><a xlink:href="sparse__matrix_8hpp.html" target="_top" xlink:title=" ">
<polygon fill="white" stroke="#666666" points="740.12,-306.75 601.88,-306.75 601.88,-287.5 740.12,-287.5 740.12,-306.75"/>
<text text-anchor="middle" x="671" y="-293.25" font-family="Helvetica,sans-Serif" font-size="10.00">vulpes/la/sparse_matrix.hpp</text>
</a>
</g>
</g>
<!-- Node2&#45;&gt;Node29 -->
<g id="edge71_Node000002_Node000029" class="edge">
<title>Node2&#45;&gt;Node29</title>
<g id="a_edge71_Node000002_Node000029"><a xlink:title=" ">
<path fill="none" stroke="#63b8ff" d="M711.74,-397.55C706.35,-387.66 699.34,-374.24 694,-362 687.64,-347.43 681.6,-330.48 677.3,-317.7"/>
<polygon fill="#63b8ff" stroke="#63b8ff" points="680.69,-316.79 674.24,-308.38 674.04,-318.98 680.69,-316.79"/>
</a>
</g>
</g>
<!-- Node30 -->
<g id="Node000030" class="node">
<title>Node30</title>
<g id="a_Node000030"><a xlink:href="vector_8hpp.html" target="_top" xlink:title=" ">
<polygon fill="white" stroke="#666666" points="707.5,-251.5 604.5,-251.5 604.5,-232.25 707.5,-232.25 707.5,-251.5"/>
<text text-anchor="middle" x="656" y="-238" font-family="Helvetica,sans-Serif" font-size="10.00">vulpes/la/vector.hpp</text>
</a>
</g>
</g>
<!-- Node2&#45;&gt;Node30 -->
<g id="edge72_Node000002_Node000030" class="edge">
<title>Node2&#45;&gt;Node30</title>
<g id="a_edge72_Node000002_Node000030"><a xlink:title=" ">
<path fill="none" stroke="#63b8ff" d="M690.32,-397.66C659.48,-380.63 612.97,-349.31 593,-306.75 583.49,-286.49 604.51,-268.84 624.78,-257.26"/>
<polygon fill="#63b8ff" stroke="#63b8ff" points="626.31,-260.42 633.51,-252.64 623.03,-254.23 626.31,-260.42"/>
</a>
</g>
</g>
<!-- Node5 -->
<g id="Node000005" class="node">
<title>Node5</title>
<g id="a_Node000005"><a xlink:title=" ">
<polygon fill="#e0e0e0" stroke="#999999" points="1027.38,-251.5 962.62,-251.5 962.62,-232.25 1027.38,-232.25 1027.38,-251.5"/>
<text text-anchor="middle" x="995" y="-238" font-family="Helvetica,sans-Serif" font-size="10.00">petscmat.h</text>
</a>
</g>
</g>
<!-- Node4&#45;&gt;Node5 -->
<g id="edge4_Node000004_Node000005" class="edge">
<title>Node4&#45;&gt;Node5</title>
<g id="a_edge4_Node000004_Node000005"><a xlink:title=" ">
<path fill="none" stroke="#63b8ff" d="M833.74,-343.58C867.15,-337.38 907.28,-326.33 939,-306.75 957.58,-295.28 973.4,-275.71 983.44,-261.25"/>
<polygon fill="#63b8ff" stroke="#63b8ff" points="986.25,-263.34 988.85,-253.07 980.41,-259.48 986.25,-263.34"/>
</a>
</g>
</g>
<!-- Node6 -->
<g id="Node000006" class="node">
<title>Node6</title>
<g id="a_Node000006"><a xlink:title=" ">
<polygon fill="#e0e0e0" stroke="#999999" points="855,-141 791,-141 791,-121.75 855,-121.75 855,-141"/>
<text text-anchor="middle" x="823" y="-127.5" font-family="Helvetica,sans-Serif" font-size="10.00">petscsys.h</text>
</a>
</g>
</g>
<!-- Node4&#45;&gt;Node6 -->
<g id="edge5_Node000004_Node000006" class="edge">
<title>Node4&#45;&gt;Node6</title>
<g id="a_edge5_Node000004_Node000006"><a xlink:title=" ">
<path fill="none" stroke="#63b8ff" d="M833.72,-350.25C900.91,-344.94 1000.34,-324.43 1036,-251.5 1071.15,-179.6 938.46,-148.95 866.48,-137.82"/>
<polygon fill="#63b8ff" stroke="#63b8ff" points="867.39,-134.41 856.98,-136.42 866.36,-141.34 867.39,-134.41"/>
</a>
</g>
</g>
<!-- Node7 -->
<g id="Node000007" class="node">
<title>Node7</title>
<g id="a_Node000007"><a xlink:href="boomer__amg_8hpp.html" target="_top" xlink:title=" ">
<polygon fill="white" stroke="#666666" points="929.5,-306.75 796.5,-306.75 796.5,-287.5 929.5,-287.5 929.5,-306.75"/>
<text text-anchor="middle" x="863" y="-293.25" font-family="Helvetica,sans-Serif" font-size="10.00">vulpes/la/boomer_amg.hpp</text>
</a>
</g>
</g>
<!-- Node4&#45;&gt;Node7 -->
<g id="edge6_Node000004_Node000007" class="edge">
<title>Node4&#45;&gt;Node7</title>
<g id="a_edge6_Node000004_Node000007"><a xlink:title=" ">
<path fill="none" stroke="#63b8ff" d="M784.12,-342.34C798.58,-334.23 820.08,-322.18 836.98,-312.71"/>
<polygon fill="#63b8ff" stroke="#63b8ff" points="838.47,-315.89 845.49,-307.94 835.05,-309.78 838.47,-315.89"/>
</a>
</g>
</g>
<!-- Node8 -->
<g id="Node000008" class="node">
<title>Node8</title>
<g id="a_Node000008"><a xlink:href="petsc__utils_8hpp.html" target="_top" xlink:title=" ">
<polygon fill="white" stroke="#666666" points="462,-196.25 338,-196.25 338,-177 462,-177 462,-196.25"/>
<text text-anchor="middle" x="400" y="-182.75" font-family="Helvetica,sans-Serif" font-size="10.00">vulpes/la/petsc_utils.hpp</text>
</a>
</g>
</g>
<!-- Node4&#45;&gt;Node8 -->
<g id="edge7_Node000004_Node000008" class="edge">
<title>Node4&#45;&gt;Node8</title>
<g id="a_edge7_Node000004_Node000008"><a xlink:title=" ">
<path fill="none" stroke="#63b8ff" d="M715.35,-342.29C679.88,-335.13 632.54,-323.53 593,-306.75 525.7,-278.19 454.5,-228.39 420.46,-203.19"/>
<polygon fill="#63b8ff" stroke="#63b8ff" points="422.82,-200.59 412.71,-197.4 418.62,-206.19 422.82,-200.59"/>
</a>
</g>
</g>
<!-- Node4&#45;&gt;Node29 -->
<g id="edge36_Node000004_Node000029" class="edge">
<title>Node4&#45;&gt;Node29</title>
<g id="a_edge36_Node000004_Node000029"><a xlink:title=" ">
<path fill="none" stroke="#63b8ff" d="M751.55,-342.34C736.77,-334.23 714.82,-322.18 697.57,-312.71"/>
<polygon fill="#63b8ff" stroke="#63b8ff" points="699.31,-309.68 688.86,-307.93 695.94,-315.81 699.31,-309.68"/>
</a>
</g>
</g>
<!-- Node4&#45;&gt;Node30 -->
<g id="edge70_Node000004_Node000030" class="edge">
<title>Node4&#45;&gt;Node30</title>
<g id="a_edge70_Node000004_Node000030"><a xlink:title=" ">
<path fill="none" stroke="#63b8ff" d="M767.58,-342.46C766.5,-329.05 762.67,-303.52 749,-287.5 736.58,-272.95 718.34,-262.77 701.28,-255.85"/>
<polygon fill="#63b8ff" stroke="#63b8ff" points="702.89,-252.71 692.3,-252.48 700.44,-259.27 702.89,-252.71"/>
</a>
</g>
</g>
<!-- Node8&#45;&gt;Node6 -->
<g id="edge8_Node000008_Node000006" class="edge">
<title>Node8&#45;&gt;Node6</title>
<g id="a_edge8_Node000008_Node000006"><a xlink:title=" ">
<path fill="none" stroke="#63b8ff" d="M462.42,-177.77C549.13,-166.85 703.86,-147.37 779.27,-137.88"/>
<polygon fill="#63b8ff" stroke="#63b8ff" points="779.69,-141.36 789.17,-136.63 778.81,-134.41 779.69,-141.36"/>
</a>
</g>
</g>
<!-- Node9 -->
<g id="Node000009" class="node">
<title>Node9</title>
<g id="a_Node000009"><a xlink:title=" ">
<polygon fill="#e0e0e0" stroke="#999999" points="162,-19.25 122,-19.25 122,0 162,0 162,-19.25"/>
<text text-anchor="middle" x="142" y="-5.75" font-family="Helvetica,sans-Serif" font-size="10.00">string</text>
</a>
</g>
</g>
<!-- Node8&#45;&gt;Node9 -->
<g id="edge9_Node000008_Node000009" class="edge">
<title>Node8&#45;&gt;Node9</title>
<g id="a_edge9_Node000008_Node000009"><a xlink:title=" ">
<path fill="none" stroke="#63b8ff" d="M345.17,-176.53C316.34,-169.92 281.4,-158.91 254,-141 208.35,-111.17 170.8,-57.49 153.05,-29.22"/>
<polygon fill="#63b8ff" stroke="#63b8ff" points="156.05,-27.41 147.85,-20.7 150.08,-31.06 156.05,-27.41"/>
</a>
</g>
</g>
<!-- Node10 -->
<g id="Node000010" class="node">
<title>Node10</title>
<g id="a_Node000010"><a xlink:href="mpi__wrappers_8hpp.html" target="_top" xlink:title=" ">
<polygon fill="white" stroke="#666666" points="474,-141 326,-141 326,-121.75 474,-121.75 474,-141"/>
<text text-anchor="middle" x="400" y="-127.5" font-family="Helvetica,sans-Serif" font-size="10.00">vulpes/utils/mpi_wrappers.hpp</text>
</a>
</g>
</g>
<!-- Node8&#45;&gt;Node10 -->
<g id="edge10_Node000008_Node000010" class="edge">
<title>Node8&#45;&gt;Node10</title>
<g id="a_edge10_Node000008_Node000010"><a xlink:title=" ">
<path fill="none" stroke="#63b8ff" d="M400,-176.83C400,-170.32 400,-161.17 400,-152.87"/>
<polygon fill="#63b8ff" stroke="#63b8ff" points="403.5,-152.87 400,-142.87 396.5,-152.87 403.5,-152.87"/>
</a>
</g>
</g>
<!-- Node11 -->
<g id="Node000011" class="node">
<title>Node11</title>
<g id="a_Node000011"><a xlink:title=" ">
<polygon fill="#e0e0e0" stroke="#999999" points="419,-80.12 379,-80.12 379,-60.88 419,-60.88 419,-80.12"/>
<text text-anchor="middle" x="399" y="-66.62" font-family="Helvetica,sans-Serif" font-size="10.00">mpi.h</text>
</a>
</g>
</g>
<!-- Node10&#45;&gt;Node11 -->
<g id="edge11_Node000010_Node000011" class="edge">
<title>Node10&#45;&gt;Node11</title>
<g id="a_edge11_Node000010_Node000011"><a xlink:title=" ">
<path fill="none" stroke="#63b8ff" d="M399.85,-121.43C399.72,-113.65 399.52,-102.08 399.35,-92.03"/>
<polygon fill="#63b8ff" stroke="#63b8ff" points="402.85,-91.98 399.18,-82.04 395.85,-92.1 402.85,-91.98"/>
</a>
</g>
</g>
<!-- Node12 -->
<g id="Node000012" class="node">
<title>Node12</title>
<g id="a_Node000012"><a xlink:title=" ">
<polygon fill="#e0e0e0" stroke="#999999" points="485.12,-80.12 436.88,-80.12 436.88,-60.88 485.12,-60.88 485.12,-80.12"/>
<text text-anchor="middle" x="461" y="-66.62" font-family="Helvetica,sans-Serif" font-size="10.00">petsc.h</text>
</a>
</g>
</g>
<!-- Node10&#45;&gt;Node12 -->
<g id="edge12_Node000010_Node000012" class="edge">
<title>Node10&#45;&gt;Node12</title>
<g id="a_edge12_Node000010_Node000012"><a xlink:title=" ">
<path fill="none" stroke="#63b8ff" d="M409.26,-121.43C418.31,-112.7 432.31,-99.19 443.46,-88.43"/>
<polygon fill="#63b8ff" stroke="#63b8ff" points="445.79,-91.04 450.56,-81.58 440.93,-86 445.79,-91.04"/>
</a>
</g>
</g>
<!-- Node13 -->
<g id="Node000013" class="node">
<title>Node13</title>
<g id="a_Node000013"><a xlink:title=" ">
<polygon fill="#e0e0e0" stroke="#999999" points="361.12,-19.25 312.88,-19.25 312.88,0 361.12,0 361.12,-19.25"/>
<text text-anchor="middle" x="337" y="-5.75" font-family="Helvetica,sans-Serif" font-size="10.00">cassert</text>
</a>
</g>
</g>
<!-- Node10&#45;&gt;Node13 -->
<g id="edge13_Node000010_Node000013" class="edge">
<title>Node10&#45;&gt;Node13</title>
<g id="a_edge13_Node000010_Node000013"><a xlink:title=" ">
<path fill="none" stroke="#63b8ff" d="M393.3,-121.44C386.87,-112.64 377.11,-98.67 370,-85.75 359.93,-67.45 350.57,-45.47 344.41,-30.02"/>
<polygon fill="#63b8ff" stroke="#63b8ff" points="347.81,-29.11 340.92,-21.07 341.29,-31.66 347.81,-29.11"/>
</a>
</g>
</g>
<!-- Node10&#45;&gt;Node14 -->
<g id="edge14_Node000010_Node000014" class="edge">
<title>Node10&#45;&gt;Node14</title>
<g id="a_edge14_Node000010_Node000014"><a xlink:title=" ">
<path fill="none" stroke="#63b8ff" d="M373.56,-121.28C312.13,-100.14 159.65,-47.67 89.01,-23.36"/>
<polygon fill="#63b8ff" stroke="#63b8ff" points="90.43,-20.15 79.83,-20.2 88.15,-26.77 90.43,-20.15"/>
</a>
</g>
</g>
<!-- Node15 -->
<g id="Node000015" class="node">
<title>Node15</title>
<g id="a_Node000015"><a xlink:title=" ">
<polygon fill="#e0e0e0" stroke="#999999" points="294.5,-19.25 251.5,-19.25 251.5,0 294.5,0 294.5,-19.25"/>
<text text-anchor="middle" x="273" y="-5.75" font-family="Helvetica,sans-Serif" font-size="10.00">vector</text>
</a>
</g>
</g>
<!-- Node10&#45;&gt;Node15 -->
<g id="edge15_Node000010_Node000015" class="edge">
<title>Node10&#45;&gt;Node15</title>
<g id="a_edge15_Node000010_Node000015"><a xlink:title=" ">
<path fill="none" stroke="#63b8ff" d="M390.16,-121.56C380.22,-112.62 364.44,-98.33 351,-85.75 329.89,-65.98 305.99,-42.85 290.27,-27.53"/>
<polygon fill="#63b8ff" stroke="#63b8ff" points="292.73,-25.04 283.13,-20.56 287.84,-30.05 292.73,-25.04"/>
</a>
</g>
</g>
<!-- Node16 -->
<g id="Node000016" class="node">
<title>Node16</title>
<g id="a_Node000016"><a xlink:title=" ">
<polygon fill="#e0e0e0" stroke="#999999" points="1120.12,-19.25 1047.88,-19.25 1047.88,0 1120.12,0 1120.12,-19.25"/>
<text text-anchor="middle" x="1084" y="-5.75" font-family="Helvetica,sans-Serif" font-size="10.00">Eigen/Dense</text>
</a>
</g>
</g>
<!-- Node10&#45;&gt;Node16 -->
<g id="edge16_Node000010_Node000016" class="edge">
<title>Node10&#45;&gt;Node16</title>
<g id="a_edge16_Node000010_Node000016"><a xlink:title=" ">
<path fill="none" stroke="#63b8ff" d="M474.48,-126.62C559.98,-121.38 704.14,-109.67 826,-85.75 868.23,-77.46 983.62,-42.09 1044.76,-22.99"/>
<polygon fill="#63b8ff" stroke="#63b8ff" points="1045.58,-26.4 1054.07,-20.07 1043.49,-19.72 1045.58,-26.4"/>
</a>
</g>
</g>
<!-- Node17 -->
<g id="Node000017" class="node">
<title>Node17</title>
<g id="a_Node000017"><a xlink:href="crs__map_8hpp.html" target="_top" xlink:title=" ">
<polygon fill="white" stroke="#666666" points="645.25,-85.75 540.75,-85.75 540.75,-55.25 645.25,-55.25 645.25,-85.75"/>
<text text-anchor="start" x="548.75" y="-72.25" font-family="Helvetica,sans-Serif" font-size="10.00">vulpes/datastructure</text>
<text text-anchor="middle" x="593" y="-61" font-family="Helvetica,sans-Serif" font-size="10.00">/crs_map.hpp</text>
</a>
</g>
</g>
<!-- Node10&#45;&gt;Node17 -->
<g id="edge17_Node000010_Node000017" class="edge">
<title>Node10&#45;&gt;Node17</title>
<g id="a_edge17_Node000010_Node000017"><a xlink:title=" ">
<path fill="none" stroke="#63b8ff" d="M429.73,-121.3C457.4,-112.86 499.44,-100.04 533.92,-89.52"/>
<polygon fill="#63b8ff" stroke="#63b8ff" points="534.84,-92.9 543.38,-86.64 532.8,-86.21 534.84,-92.9"/>
</a>
</g>
</g>
<!-- Node23 -->
<g id="Node000023" class="node">
<title>Node23</title>
<g id="a_Node000023"><a xlink:href="profiler_8hpp.html" target="_top" xlink:title=" ">
<polygon fill="white" stroke="#666666" points="816.88,-80.12 701.12,-80.12 701.12,-60.88 816.88,-60.88 816.88,-80.12"/>
<text text-anchor="middle" x="759" y="-66.62" font-family="Helvetica,sans-Serif" font-size="10.00">vulpes/utils/profiler.hpp</text>
</a>
</g>
</g>
<!-- Node10&#45;&gt;Node23 -->
<g id="edge25_Node000010_Node000023" class="edge">
<title>Node10&#45;&gt;Node23</title>
<g id="a_edge25_Node000010_Node000023"><a xlink:title=" ">
<path fill="none" stroke="#63b8ff" d="M455.31,-121.3C519.21,-110.82 624.31,-93.59 692.58,-82.39"/>
<polygon fill="#63b8ff" stroke="#63b8ff" points="692.83,-85.9 702.14,-80.83 691.7,-78.99 692.83,-85.9"/>
</a>
</g>
</g>
<!-- Node17&#45;&gt;Node13 -->
<g id="edge20_Node000017_Node000013" class="edge">
<title>Node17&#45;&gt;Node13</title>
<g id="a_edge20_Node000017_Node000013"><a xlink:title=" ">
<path fill="none" stroke="#63b8ff" d="M540.62,-58.22C497.83,-48.89 435.5,-35.03 372.43,-19.78"/>
<polygon fill="#63b8ff" stroke="#63b8ff" points="373.5,-16.44 362.96,-17.48 371.85,-23.24 373.5,-16.44"/>
</a>
</g>
</g>
<!-- Node17&#45;&gt;Node15 -->
<g id="edge24_Node000017_Node000015" class="edge">
<title>Node17&#45;&gt;Node15</title>
<g id="a_edge24_Node000017_Node000015"><a xlink:title=" ">
<path fill="none" stroke="#63b8ff" d="M540.45,-57.89C535.91,-56.97 531.38,-56.08 527,-55.25 431.81,-37.3 404,-40.48 305.95,-19.45"/>
<polygon fill="#63b8ff" stroke="#63b8ff" points="306.93,-16.09 296.42,-17.38 305.44,-22.92 306.93,-16.09"/>
</a>
</g>
</g>
<!-- Node18 -->
<g id="Node000018" class="node">
<title>Node18</title>
<g id="a_Node000018"><a xlink:title=" ">
<polygon fill="#e0e0e0" stroke="#999999" points="567.88,-19.25 512.12,-19.25 512.12,0 567.88,0 567.88,-19.25"/>
<text text-anchor="middle" x="540" y="-5.75" font-family="Helvetica,sans-Serif" font-size="10.00">algorithm</text>
</a>
</g>
</g>
<!-- Node17&#45;&gt;Node18 -->
<g id="edge18_Node000017_Node000018" class="edge">
<title>Node17&#45;&gt;Node18</title>
<g id="a_edge18_Node000017_Node000018"><a xlink:title=" ">
<path fill="none" stroke="#63b8ff" d="M579.9,-54.95C572.61,-46.84 563.47,-36.7 555.79,-28.16"/>
<polygon fill="#63b8ff" stroke="#63b8ff" points="558.47,-25.92 549.18,-20.83 553.27,-30.6 558.47,-25.92"/>
</a>
</g>
</g>
<!-- Node19 -->
<g id="Node000019" class="node">
<title>Node19</title>
<g id="a_Node000019"><a xlink:title=" ">
<polygon fill="#e0e0e0" stroke="#999999" points="971.88,-19.25 934.12,-19.25 934.12,0 971.88,0 971.88,-19.25"/>
<text text-anchor="middle" x="953" y="-5.75" font-family="Helvetica,sans-Serif" font-size="10.00">array</text>
</a>
</g>
</g>
<!-- Node17&#45;&gt;Node19 -->
<g id="edge19_Node000017_Node000019" class="edge">
<title>Node17&#45;&gt;Node19</title>
<g id="a_edge19_Node000017_Node000019"><a xlink:title=" ">
<path fill="none" stroke="#63b8ff" d="M645.49,-61.76C726.65,-49.78 877.33,-27.41 922.82,-19.14"/>
<polygon fill="#63b8ff" stroke="#63b8ff" points="923.22,-22.63 932.34,-17.24 921.85,-15.76 923.22,-22.63"/>
</a>
</g>
</g>
<!-- Node20 -->
<g id="Node000020" class="node">
<title>Node20</title>
<g id="a_Node000020"><a xlink:title=" ">
<polygon fill="#e0e0e0" stroke="#999999" points="493.62,-19.25 442.38,-19.25 442.38,0 493.62,0 493.62,-19.25"/>
<text text-anchor="middle" x="468" y="-5.75" font-family="Helvetica,sans-Serif" font-size="10.00">ostream</text>
</a>
</g>
</g>
<!-- Node17&#45;&gt;Node20 -->
<g id="edge21_Node000017_Node000020" class="edge">
<title>Node17&#45;&gt;Node20</title>
<g id="a_edge21_Node000017_Node000020"><a xlink:title=" ">
<path fill="none" stroke="#63b8ff" d="M561.78,-54.8C542.1,-45.53 516.85,-33.63 497.51,-24.52"/>
<polygon fill="#63b8ff" stroke="#63b8ff" points="499.08,-21.39 488.54,-20.3 496.09,-27.73 499.08,-21.39"/>
</a>
</g>
</g>
<!-- Node17&#45;&gt;Node21 -->
<g id="edge22_Node000017_Node000021" class="edge">
<title>Node17&#45;&gt;Node21</title>
<g id="a_edge22_Node000017_Node000021"><a xlink:title=" ">
<path fill="none" stroke="#63b8ff" d="M645.64,-61.73C660.61,-59.58 676.94,-57.27 692,-55.25 816.78,-38.5 852.38,-45.38 979.22,-19.28"/>
<polygon fill="#63b8ff" stroke="#63b8ff" points="979.59,-22.78 988.66,-17.31 978.16,-15.93 979.59,-22.78"/>
</a>
</g>
</g>
<!-- Node22 -->
<g id="Node000022" class="node">
<title>Node22</title>
<g id="a_Node000022"><a xlink:title=" ">
<polygon fill="#e0e0e0" stroke="#999999" points="424.62,-19.25 379.38,-19.25 379.38,0 424.62,0 424.62,-19.25"/>
<text text-anchor="middle" x="402" y="-5.75" font-family="Helvetica,sans-Serif" font-size="10.00">variant</text>
</a>
</g>
</g>
<!-- Node17&#45;&gt;Node22 -->
<g id="edge23_Node000017_Node000022" class="edge">
<title>Node17&#45;&gt;Node22</title>
<g id="a_edge23_Node000017_Node000022"><a xlink:title=" ">
<path fill="none" stroke="#63b8ff" d="M545.3,-54.8C511.3,-44.32 466.41,-30.48 436,-21.11"/>
<polygon fill="#63b8ff" stroke="#63b8ff" points="437.14,-17.79 426.55,-18.19 435.08,-24.48 437.14,-17.79"/>
</a>
</g>
</g>
<!-- Node23&#45;&gt;Node9 -->
<g id="edge31_Node000023_Node000009" class="edge">
<title>Node23&#45;&gt;Node9</title>
<g id="a_edge31_Node000023_Node000009"><a xlink:title=" ">
<path fill="none" stroke="#63b8ff" d="M700.75,-61.09C685.55,-59.03 669.18,-56.94 654,-55.25 641.99,-53.91 283.68,-22.88 173.75,-13.37"/>
<polygon fill="#63b8ff" stroke="#63b8ff" points="174.24,-9.9 163.98,-12.53 173.64,-16.88 174.24,-9.9"/>
</a>
</g>
</g>
<!-- Node23&#45;&gt;Node14 -->
<g id="edge30_Node000023_Node000014" class="edge">
<title>Node23&#45;&gt;Node14</title>
<g id="a_edge30_Node000023_Node000014"><a xlink:title=" ">
<path fill="none" stroke="#63b8ff" d="M700.77,-60.87C685.57,-58.82 669.19,-56.78 654,-55.25 414.24,-31.03 352.69,-44.14 113,-19.25 105.58,-18.48 97.68,-17.49 90.11,-16.46"/>
<polygon fill="#63b8ff" stroke="#63b8ff" points="90.86,-13.03 80.47,-15.09 89.88,-19.96 90.86,-13.03"/>
</a>
</g>
</g>
<!-- Node23&#45;&gt;Node15 -->
<g id="edge34_Node000023_Node000015" class="edge">
<title>Node23&#45;&gt;Node15</title>
<g id="a_edge34_Node000023_Node000015"><a xlink:title=" ">
<path fill="none" stroke="#63b8ff" d="M700.73,-61.25C685.53,-59.19 669.16,-57.06 654,-55.25 502.36,-37.17 459.64,-47.79 306.15,-19.33"/>
<polygon fill="#63b8ff" stroke="#63b8ff" points="306.87,-15.9 296.39,-17.49 305.57,-22.78 306.87,-15.9"/>
</a>
</g>
</g>
<!-- Node23&#45;&gt;Node18 -->
<g id="edge26_Node000023_Node000018" class="edge">
<title>Node23&#45;&gt;Node18</title>
<g id="a_edge26_Node000023_Node000018"><a xlink:title=" ">
<path fill="none" stroke="#63b8ff" d="M725.26,-60.43C685.89,-49.85 620.89,-32.37 579.28,-21.18"/>
<polygon fill="#63b8ff" stroke="#63b8ff" points="580.23,-17.82 569.67,-18.6 578.41,-24.58 580.23,-17.82"/>
</a>
</g>
</g>
<!-- Node23&#45;&gt;Node21 -->
<g id="edge33_Node000023_Node000021" class="edge">
<title>Node23&#45;&gt;Node21</title>
<g id="a_edge33_Node000023_Node000021"><a xlink:title=" ">
<path fill="none" stroke="#63b8ff" d="M803.02,-60.44C845.68,-51.46 912.43,-36.88 979.34,-19.54"/>
<polygon fill="#63b8ff" stroke="#63b8ff" points="979.83,-23.04 988.62,-17.12 978.06,-16.26 979.83,-23.04"/>
</a>
</g>
</g>
<!-- Node24 -->
<g id="Node000024" class="node">
<title>Node24</title>
<g id="a_Node000024"><a xlink:title=" ">
<polygon fill="#e0e0e0" stroke="#999999" points="631.62,-19.25 586.38,-19.25 586.38,0 631.62,0 631.62,-19.25"/>
<text text-anchor="middle" x="609" y="-5.75" font-family="Helvetica,sans-Serif" font-size="10.00">chrono</text>
</a>
</g>
</g>
<!-- Node23&#45;&gt;Node24 -->
<g id="edge27_Node000023_Node000024" class="edge">
<title>Node23&#45;&gt;Node24</title>
<g id="a_edge27_Node000023_Node000024"><a xlink:title=" ">
<path fill="none" stroke="#63b8ff" d="M735.89,-60.43C710.93,-50.63 670.94,-34.94 642.53,-23.79"/>
<polygon fill="#63b8ff" stroke="#63b8ff" points="643.89,-20.56 633.3,-20.16 641.33,-27.07 643.89,-20.56"/>
</a>
</g>
</g>
<!-- Node25 -->
<g id="Node000025" class="node">
<title>Node25</title>
<g id="a_Node000025"><a xlink:title=" ">
<polygon fill="#e0e0e0" stroke="#999999" points="1186.12,-19.25 1137.88,-19.25 1137.88,0 1186.12,0 1186.12,-19.25"/>
<text text-anchor="middle" x="1162" y="-5.75" font-family="Helvetica,sans-Serif" font-size="10.00">cstddef</text>
</a>
</g>
</g>
<!-- Node23&#45;&gt;Node25 -->
<g id="edge28_Node000023_Node000025" class="edge">
<title>Node23&#45;&gt;Node25</title>
<g id="a_edge28_Node000023_Node000025"><a xlink:title=" ">
<path fill="none" stroke="#63b8ff" d="M817.36,-63.78C888.28,-56.33 1011.76,-41.8 1126.49,-19.54"/>
<polygon fill="#63b8ff" stroke="#63b8ff" points="1126.95,-23.02 1136.08,-17.65 1125.59,-16.15 1126.95,-23.02"/>
</a>
</g>
</g>
<!-- Node26 -->
<g id="Node000026" class="node">
<title>Node26</title>
<g id="a_Node000026"><a xlink:title=" ">
<polygon fill="#e0e0e0" stroke="#999999" points="699.88,-19.25 650.12,-19.25 650.12,0 699.88,0 699.88,-19.25"/>
<text text-anchor="middle" x="675" y="-5.75" font-family="Helvetica,sans-Serif" font-size="10.00">iomanip</text>
</a>
</g>
</g>
<!-- Node23&#45;&gt;Node26 -->
<g id="edge29_Node000023_Node000026" class="edge">
<title>Node23&#45;&gt;Node26</title>
<g id="a_edge29_Node000023_Node000026"><a xlink:title=" ">
<path fill="none" stroke="#63b8ff" d="M746.24,-60.56C733.17,-51.39 712.59,-36.97 696.9,-25.98"/>
<polygon fill="#63b8ff" stroke="#63b8ff" points="699.32,-23.39 689.12,-20.52 695.3,-29.13 699.32,-23.39"/>
</a>
</g>
</g>
<!-- Node27 -->
<g id="Node000027" class="node">
<title>Node27</title>
<g id="a_Node000027"><a xlink:title=" ">
<polygon fill="#e0e0e0" stroke="#999999" points="800.38,-19.25 717.62,-19.25 717.62,0 800.38,0 800.38,-19.25"/>
<text text-anchor="middle" x="759" y="-5.75" font-family="Helvetica,sans-Serif" font-size="10.00">unordered_map</text>
</a>
</g>
</g>
<!-- Node23&#45;&gt;Node27 -->
<g id="edge32_Node000023_Node000027" class="edge">
<title>Node23&#45;&gt;Node27</title>
<g id="a_edge32_Node000023_Node000027"><a xlink:title=" ">
<path fill="none" stroke="#63b8ff" d="M759,-60.56C759,-52.78 759,-41.2 759,-31.16"/>
<polygon fill="#63b8ff" stroke="#63b8ff" points="762.5,-31.16 759,-21.16 755.5,-31.16 762.5,-31.16"/>
</a>
</g>
</g>
<!-- Node28 -->
<g id="Node000028" class="node">
<title>Node28</title>
<g id="a_Node000028"><a xlink:title=" ">
<polygon fill="#e0e0e0" stroke="#999999" points="915.88,-19.25 818.12,-19.25 818.12,0 915.88,0 915.88,-19.25"/>
<text text-anchor="middle" x="867" y="-5.75" font-family="Helvetica,sans-Serif" font-size="10.00">nlohmann/json.hpp</text>
</a>
</g>
</g>
<!-- Node23&#45;&gt;Node28 -->
<g id="edge35_Node000023_Node000028" class="edge">
<title>Node23&#45;&gt;Node28</title>
<g id="a_edge35_Node000023_Node000028"><a xlink:title=" ">
<path fill="none" stroke="#63b8ff" d="M775.4,-60.56C792.69,-51.13 820.18,-36.15 840.54,-25.05"/>
<polygon fill="#63b8ff" stroke="#63b8ff" points="842.01,-28.23 849.11,-20.38 838.66,-22.09 842.01,-28.23"/>
</a>
</g>
</g>
<!-- Node29&#45;&gt;Node3 -->
<g id="edge41_Node000029_Node000003" class="edge">
<title>Node29&#45;&gt;Node3</title>
<g id="a_edge41_Node000029_Node000003"><a xlink:title=" ">
<path fill="none" stroke="#63b8ff" d="M720.14,-287.08C753.49,-279.91 798.06,-268.28 835,-251.5 863.27,-238.66 892.53,-217.93 911.2,-203.58"/>
<polygon fill="#63b8ff" stroke="#63b8ff" points="913.27,-206.41 918.98,-197.48 908.95,-200.9 913.27,-206.41"/>
</a>
</g>
</g>
<!-- Node29&#45;&gt;Node5 -->
<g id="edge37_Node000029_Node000005" class="edge">
<title>Node29&#45;&gt;Node5</title>
<g id="a_edge37_Node000029_Node000005"><a xlink:title=" ">
<path fill="none" stroke="#63b8ff" d="M730.73,-287C787.08,-278.28 873.87,-264.57 949,-251.5 949.68,-251.38 950.36,-251.26 951.04,-251.14"/>
<polygon fill="#63b8ff" stroke="#63b8ff" points="951.64,-254.59 960.86,-249.37 950.4,-247.7 951.64,-254.59"/>
</a>
</g>
</g>
<!-- Node29&#45;&gt;Node6 -->
<g id="edge38_Node000029_Node000006" class="edge">
<title>Node29&#45;&gt;Node6</title>
<g id="a_edge38_Node000029_Node000006"><a xlink:title=" ">
<path fill="none" stroke="#63b8ff" d="M688.15,-287.12C715.54,-271.91 769.18,-238.63 800,-196.25 809.55,-183.11 815.49,-165.61 818.93,-152.25"/>
<polygon fill="#63b8ff" stroke="#63b8ff" points="822.26,-153.39 821.08,-142.86 815.43,-151.82 822.26,-153.39"/>
</a>
</g>
</g>
<!-- Node29&#45;&gt;Node8 -->
<g id="edge45_Node000029_Node000008" class="edge">
<title>Node29&#45;&gt;Node8</title>
<g id="a_edge45_Node000029_Node000008"><a xlink:title=" ">
<path fill="none" stroke="#63b8ff" d="M648.36,-287.06C600.54,-267.91 489.04,-223.28 433.16,-200.9"/>
<polygon fill="#63b8ff" stroke="#63b8ff" points="434.75,-197.77 424.17,-197.3 432.15,-204.27 434.75,-197.77"/>
</a>
</g>
</g>
<!-- Node29&#45;&gt;Node9 -->
<g id="edge42_Node000029_Node000009" class="edge">
<title>Node29&#45;&gt;Node9</title>
<g id="a_edge42_Node000029_Node000009"><a xlink:title=" ">
<path fill="none" stroke="#63b8ff" d="M601.76,-295.83C494.89,-294.24 295.72,-286.52 235,-251.5 155.86,-205.86 143.79,-80.24 142.15,-30.9"/>
<polygon fill="#63b8ff" stroke="#63b8ff" points="145.66,-31.05 141.95,-21.13 138.66,-31.19 145.66,-31.05"/>
</a>
</g>
</g>
<!-- Node29&#45;&gt;Node10 -->
<g id="edge69_Node000029_Node000010" class="edge">
<title>Node29&#45;&gt;Node10</title>
<g id="a_edge69_Node000029_Node000010"><a xlink:title=" ">
<path fill="none" stroke="#63b8ff" d="M609.13,-287.04C520.01,-272.55 362.52,-241.18 329,-196.25 314.16,-176.37 340.92,-157.91 365.73,-146"/>
<polygon fill="#63b8ff" stroke="#63b8ff" points="367.05,-149.24 374.73,-141.93 364.17,-142.86 367.05,-149.24"/>
</a>
</g>
</g>
<!-- Node29&#45;&gt;Node14 -->
<g id="edge40_Node000029_Node000014" class="edge">
<title>Node29&#45;&gt;Node14</title>
<g id="a_edge40_Node000029_Node000014"><a xlink:title=" ">
<path fill="none" stroke="#63b8ff" d="M601.66,-296.53C488.76,-296.03 271.26,-289.91 206,-251.5 118.83,-200.19 72.85,-77.93 57.73,-30.19"/>
<polygon fill="#63b8ff" stroke="#63b8ff" points="61.11,-29.28 54.84,-20.73 54.41,-31.32 61.11,-29.28"/>
</a>
</g>
</g>
<!-- Node29&#45;&gt;Node15 -->
<g id="edge44_Node000029_Node000015" class="edge">
<title>Node29&#45;&gt;Node15</title>
<g id="a_edge44_Node000029_Node000015"><a xlink:title=" ">
<path fill="none" stroke="#63b8ff" d="M601.61,-294.48C470.41,-289.47 199,-269.24 199,-187.62 199,-187.62 199,-187.62 199,-130.38 199,-88.49 232.17,-49.01 254.09,-27.5"/>
<polygon fill="#63b8ff" stroke="#63b8ff" points="256.42,-30.11 261.3,-20.7 251.62,-25.02 256.42,-30.11"/>
</a>
</g>
</g>
<!-- Node29&#45;&gt;Node21 -->
<g id="edge43_Node000029_Node000021" class="edge">
<title>Node29&#45;&gt;Node21</title>
<g id="a_edge43_Node000029_Node000021"><a xlink:title=" ">
<path fill="none" stroke="#63b8ff" d="M697.03,-287.04C717.35,-279.28 745.77,-266.94 768,-251.5 866.92,-182.79 961.25,-71.42 995.97,-28.38"/>
<polygon fill="#63b8ff" stroke="#63b8ff" points="998.52,-30.8 1002.03,-20.81 993.05,-26.43 998.52,-30.8"/>
</a>
</g>
</g>
<!-- Node29&#45;&gt;Node25 -->
<g id="edge39_Node000029_Node000025" class="edge">
<title>Node29&#45;&gt;Node25</title>
<g id="a_edge39_Node000029_Node000025"><a xlink:title=" ">
<path fill="none" stroke="#63b8ff" d="M740.59,-290.04C788.22,-284.17 852.08,-272.87 905,-251.5 988.21,-217.9 1010.08,-203.99 1074,-141 1108.72,-106.79 1137.81,-56.9 1152.23,-29.83"/>
<polygon fill="#63b8ff" stroke="#63b8ff" points="1155.28,-31.57 1156.79,-21.08 1149.07,-28.33 1155.28,-31.57"/>
</a>
</g>
</g>
<!-- Node29&#45;&gt;Node30 -->
<g id="edge46_Node000029_Node000030" class="edge">
<title>Node29&#45;&gt;Node30</title>
<g id="a_edge46_Node000029_Node000030"><a xlink:title=" ">
<path fill="none" stroke="#63b8ff" d="M668.52,-287.33C666.65,-280.67 663.99,-271.24 661.61,-262.78"/>
<polygon fill="#63b8ff" stroke="#63b8ff" points="665.02,-261.99 658.94,-253.32 658.28,-263.89 665.02,-261.99"/>
</a>
</g>
</g>
<!-- Node32 -->
<g id="Node000032" class="node">
<title>Node32</title>
<g id="a_Node000032"><a xlink:href="qrule_8hpp.html" target="_top" xlink:title=" ">
<polygon fill="white" stroke="#666666" points="1065,-141 929,-141 929,-121.75 1065,-121.75 1065,-141"/>
<text text-anchor="middle" x="997" y="-127.5" font-family="Helvetica,sans-Serif" font-size="10.00">vulpes/quadrature/qrule.hpp</text>
</a>
</g>
</g>
<!-- Node29&#45;&gt;Node32 -->
<g id="edge58_Node000029_Node000032" class="edge">
<title>Node29&#45;&gt;Node32</title>
<g id="a_edge58_Node000029_Node000032"><a xlink:title=" ">
<path fill="none" stroke="#63b8ff" d="M730.29,-287.01C769.6,-279.89 821.88,-268.35 866,-251.5 913.43,-233.38 931.06,-233.09 966,-196.25 977.94,-183.66 986.12,-165.6 991.07,-151.9"/>
<polygon fill="#63b8ff" stroke="#63b8ff" points="994.31,-153.25 994.12,-142.66 987.66,-151.06 994.31,-153.25"/>
</a>
</g>
</g>
<!-- Node30&#45;&gt;Node3 -->
<g id="edge51_Node000030_Node000003" class="edge">
<title>Node30&#45;&gt;Node3</title>
<g id="a_edge51_Node000030_Node000003"><a xlink:title=" ">
<path fill="none" stroke="#63b8ff" d="M702.96,-231.78C756.93,-221.33 844.39,-204.4 893.84,-194.82"/>
<polygon fill="#63b8ff" stroke="#63b8ff" points="894.33,-198.29 903.48,-192.95 893,-191.42 894.33,-198.29"/>
</a>
</g>
</g>
<!-- Node30&#45;&gt;Node6 -->
<g id="edge47_Node000030_Node000006" class="edge">
<title>Node30&#45;&gt;Node6</title>
<g id="a_edge47_Node000030_Node000006"><a xlink:title=" ">
<path fill="none" stroke="#63b8ff" d="M698.53,-231.81C723.22,-225.01 753.92,-213.8 777,-196.25 792.8,-184.24 805.47,-165.31 813.48,-151.17"/>
<polygon fill="#63b8ff" stroke="#63b8ff" points="816.54,-152.88 818.17,-142.41 810.36,-149.58 816.54,-152.88"/>
</a>
</g>
</g>
<!-- Node30&#45;&gt;Node8 -->
<g id="edge56_Node000030_Node000008" class="edge">
<title>Node30&#45;&gt;Node8</title>
<g id="a_edge56_Node000030_Node000008"><a xlink:title=" ">
<path fill="none" stroke="#63b8ff" d="M612.28,-231.78C568.75,-222.73 501.79,-208.8 454.74,-199.01"/>
<polygon fill="#63b8ff" stroke="#63b8ff" points="455.52,-195.6 445.02,-196.99 454.1,-202.45 455.52,-195.6"/>
</a>
</g>
</g>
<!-- Node30&#45;&gt;Node9 -->
<g id="edge52_Node000030_Node000009" class="edge">
<title>Node30&#45;&gt;Node9</title>
<g id="a_edge52_Node000030_Node000009"><a xlink:title=" ">
<path fill="none" stroke="#63b8ff" d="M604.05,-239.46C538.46,-236.4 422.87,-226.73 329,-196.25 246.11,-169.33 214.01,-159.14 167,-85.75 156.12,-68.76 149.5,-46.56 145.83,-30.71"/>
<polygon fill="#63b8ff" stroke="#63b8ff" points="149.28,-30.12 143.8,-21.06 142.43,-31.56 149.28,-30.12"/>
</a>
</g>
</g>
<!-- Node30&#45;&gt;Node10 -->
<g id="edge57_Node000030_Node000010" class="edge">
<title>Node30&#45;&gt;Node10</title>
<g id="a_edge57_Node000030_Node000010"><a xlink:title=" ">
<path fill="none" stroke="#63b8ff" d="M649.65,-231.88C639.27,-217.88 617.26,-191.01 592,-177 559.46,-158.95 519.92,-148.18 485.21,-141.77"/>
<polygon fill="#63b8ff" stroke="#63b8ff" points="486.06,-138.37 475.61,-140.1 484.86,-145.26 486.06,-138.37"/>
</a>
</g>
</g>
<!-- Node30&#45;&gt;Node15 -->
<g id="edge54_Node000030_Node000015" class="edge">
<title>Node30&#45;&gt;Node15</title>
<g id="a_edge54_Node000030_Node000015"><a xlink:title=" ">
<path fill="none" stroke="#63b8ff" d="M620.64,-231.8C590.73,-223.71 546.96,-210.91 510,-196.25 492.03,-189.12 489.2,-183.52 471,-177 404.83,-153.29 369.03,-188.26 317,-141 285.26,-112.16 276.4,-59.66 273.94,-30.87"/>
<polygon fill="#63b8ff" stroke="#63b8ff" points="277.44,-30.73 273.29,-20.98 270.45,-31.19 277.44,-30.73"/>
</a>
</g>
</g>
<!-- Node30&#45;&gt;Node16 -->
<g id="edge55_Node000030_Node000016" class="edge">
<title>Node30&#45;&gt;Node16</title>
<g id="a_edge55_Node000030_Node000016"><a xlink:title=" ">
<path fill="none" stroke="#63b8ff" d="M663.5,-232.09C671.06,-223.16 683.02,-208.89 693,-196.25 718.67,-163.74 714.44,-144.59 749,-121.75 804.76,-84.9 831.35,-106.14 895,-85.75 952.23,-67.41 1016.9,-40.25 1053.83,-24.11"/>
<polygon fill="#63b8ff" stroke="#63b8ff" points="1054.79,-27.51 1062.53,-20.28 1051.97,-21.1 1054.79,-27.51"/>
</a>
</g>
</g>
<!-- Node30&#45;&gt;Node18 -->
<g id="edge49_Node000030_Node000018" class="edge">
<title>Node30&#45;&gt;Node18</title>
<g id="a_edge49_Node000030_Node000018"><a xlink:title=" ">
<path fill="none" stroke="#63b8ff" d="M657.14,-232.18C661.26,-199.49 674.05,-84.29 654,-55.25 645.09,-42.34 608.54,-29.48 579.19,-20.9"/>
<polygon fill="#63b8ff" stroke="#63b8ff" points="580.4,-17.61 569.83,-18.25 578.5,-24.34 580.4,-17.61"/>
</a>
</g>
</g>
<!-- Node30&#45;&gt;Node21 -->
<g id="edge53_Node000030_Node000021" class="edge">
<title>Node30&#45;&gt;Node21</title>
<g id="a_edge53_Node000030_Node000021"><a xlink:title=" ">
<path fill="none" stroke="#63b8ff" d="M659.66,-231.86C670.46,-205.46 701.97,-129.68 711,-121.75 751.24,-86.4 778.01,-109.53 826,-85.75 846.99,-75.34 848.02,-65.69 869,-55.25 879.04,-50.25 941.08,-31.28 979.44,-19.75"/>
<polygon fill="#63b8ff" stroke="#63b8ff" points="980.02,-23.23 988.59,-17 978,-16.52 980.02,-23.23"/>
</a>
</g>
</g>
<!-- Node30&#45;&gt;Node25 -->
<g id="edge50_Node000030_Node000025" class="edge">
<title>Node30&#45;&gt;Node25</title>
<g id="a_edge50_Node000030_Node000025"><a xlink:title=" ">
<path fill="none" stroke="#63b8ff" d="M668.69,-231.84C680.56,-223.19 698.57,-209.53 713,-196.25 746.21,-165.69 742.78,-144.07 782,-121.75 848.37,-83.98 876.52,-106.55 950,-85.75 1014.36,-67.53 1087.51,-40.06 1128.87,-23.87"/>
<polygon fill="#63b8ff" stroke="#63b8ff" points="1129.98,-27.2 1138,-20.28 1127.42,-20.68 1129.98,-27.2"/>
</a>
</g>
</g>
<!-- Node31 -->
<g id="Node000031" class="node">
<title>Node31</title>
<g id="a_Node000031"><a xlink:title=" ">
<polygon fill="#e0e0e0" stroke="#999999" points="583,-196.25 519,-196.25 519,-177 583,-177 583,-196.25"/>
<text text-anchor="middle" x="551" y="-182.75" font-family="Helvetica,sans-Serif" font-size="10.00">petscvec.h</text>
</a>
</g>
</g>
<!-- Node30&#45;&gt;Node31 -->
<g id="edge48_Node000030_Node000031" class="edge">
<title>Node30&#45;&gt;Node31</title>
<g id="a_edge48_Node000030_Node000031"><a xlink:title=" ">
<path fill="none" stroke="#63b8ff" d="M638.19,-231.84C621.97,-223.62 597.76,-211.34 578.97,-201.81"/>
<polygon fill="#63b8ff" stroke="#63b8ff" points="580.75,-198.79 570.25,-197.39 577.58,-205.03 580.75,-198.79"/>
</a>
</g>
</g>
<!-- Node32&#45;&gt;Node15 -->
<g id="edge61_Node000032_Node000015" class="edge">
<title>Node32&#45;&gt;Node15</title>
<g id="a_edge61_Node000032_Node000015"><a xlink:title=" ">
<path fill="none" stroke="#63b8ff" d="M928.76,-125.99C808.43,-117.95 567.83,-100.31 532,-85.75 511.94,-77.6 513.67,-64.31 494,-55.25 419.14,-20.76 390.1,-37.28 306.05,-19.46"/>
<polygon fill="#63b8ff" stroke="#63b8ff" points="306.96,-16.08 296.43,-17.31 305.43,-22.91 306.96,-16.08"/>
</a>
</g>
</g>
<!-- Node32&#45;&gt;Node19 -->
<g id="edge59_Node000032_Node000019" class="edge">
<title>Node32&#45;&gt;Node19</title>
<g id="a_edge59_Node000032_Node000019"><a xlink:title=" ">
<path fill="none" stroke="#63b8ff" d="M993.69,-121.37C986.62,-102.13 969.89,-56.6 960.23,-30.3"/>
<polygon fill="#63b8ff" stroke="#63b8ff" points="963.6,-29.33 956.87,-21.15 957.03,-31.74 963.6,-29.33"/>
</a>
</g>
</g>
<!-- Node32&#45;&gt;Node25 -->
<g id="edge60_Node000032_Node000025" class="edge">
<title>Node32&#45;&gt;Node25</title>
<g id="a_edge60_Node000032_Node000025"><a xlink:title=" ">
<path fill="none" stroke="#63b8ff" d="M1009.4,-121.37C1037.35,-101.09 1105.55,-51.6 1140.53,-26.21"/>
<polygon fill="#63b8ff" stroke="#63b8ff" points="1142.19,-29.33 1148.23,-20.62 1138.08,-23.66 1142.19,-29.33"/>
</a>
</g>
</g>
<!-- Node33 -->
<g id="Node000033" class="node">
<title>Node33</title>
<g id="a_Node000033"><a xlink:href="vmath_8hpp.html" target="_top" xlink:title=" ">
<polygon fill="white" stroke="#666666" points="1292.12,-80.12 1177.88,-80.12 1177.88,-60.88 1292.12,-60.88 1292.12,-80.12"/>
<text text-anchor="middle" x="1235" y="-66.62" font-family="Helvetica,sans-Serif" font-size="10.00">vulpes/utils/vmath.hpp</text>
</a>
</g>
</g>
<!-- Node32&#45;&gt;Node33 -->
<g id="edge62_Node000032_Node000033" class="edge">
<title>Node32&#45;&gt;Node33</title>
<g id="a_edge62_Node000032_Node000033"><a xlink:title=" ">
<path fill="none" stroke="#63b8ff" d="M1033.67,-121.3C1074.9,-111.11 1141.99,-94.51 1187.28,-83.31"/>
<polygon fill="#63b8ff" stroke="#63b8ff" points="1187.96,-86.74 1196.82,-80.94 1186.28,-79.95 1187.96,-86.74"/>
</a>
</g>
</g>
<!-- Node33&#45;&gt;Node16 -->
<g id="edge68_Node000033_Node000016" class="edge">
<title>Node33&#45;&gt;Node16</title>
<g id="a_edge68_Node000033_Node000016"><a xlink:title=" ">
<path fill="none" stroke="#63b8ff" d="M1211.74,-60.43C1186.69,-50.66 1146.59,-35.03 1118,-23.88"/>
<polygon fill="#63b8ff" stroke="#63b8ff" points="1119.29,-20.63 1108.7,-20.26 1116.74,-27.15 1119.29,-20.63"/>
</a>
</g>
</g>
<!-- Node33&#45;&gt;Node25 -->
<g id="edge64_Node000033_Node000025" class="edge">
<title>Node33&#45;&gt;Node25</title>
<g id="a_edge64_Node000033_Node000025"><a xlink:title=" ">
<path fill="none" stroke="#63b8ff" d="M1223.91,-60.56C1212.76,-51.57 1195.34,-37.51 1181.81,-26.6"/>
<polygon fill="#63b8ff" stroke="#63b8ff" points="1184.35,-24.15 1174.37,-20.6 1179.96,-29.6 1184.35,-24.15"/>
</a>
</g>
</g>
<!-- Node34 -->
<g id="Node000034" class="node">
<title>Node34</title>
<g id="a_Node000034"><a xlink:title=" ">
<polygon fill="#e0e0e0" stroke="#999999" points="1337.75,-19.25 1284.25,-19.25 1284.25,0 1337.75,0 1337.75,-19.25"/>
<text text-anchor="middle" x="1311" y="-5.75" font-family="Helvetica,sans-Serif" font-size="10.00">gmpxx.h</text>
</a>
</g>
</g>
<!-- Node33&#45;&gt;Node34 -->
<g id="edge63_Node000033_Node000034" class="edge">
<title>Node33&#45;&gt;Node34</title>
<g id="a_edge63_Node000033_Node000034"><a xlink:title=" ">
<path fill="none" stroke="#63b8ff" d="M1246.54,-60.56C1258.15,-51.57 1276.29,-37.51 1290.38,-26.6"/>
<polygon fill="#63b8ff" stroke="#63b8ff" points="1292.39,-29.47 1298.15,-20.58 1288.1,-23.94 1292.39,-29.47"/>
</a>
</g>
</g>
<!-- Node35 -->
<g id="Node000035" class="node">
<title>Node35</title>
<g id="a_Node000035"><a xlink:title=" ">
<polygon fill="#e0e0e0" stroke="#999999" points="1400.62,-19.25 1355.38,-19.25 1355.38,0 1400.62,0 1400.62,-19.25"/>
<text text-anchor="middle" x="1378" y="-5.75" font-family="Helvetica,sans-Serif" font-size="10.00">cstdint</text>
</a>
</g>
</g>
<!-- Node33&#45;&gt;Node35 -->
<g id="edge65_Node000033_Node000035" class="edge">
<title>Node33&#45;&gt;Node35</title>
<g id="a_edge65_Node000033_Node000035"><a xlink:title=" ">
<path fill="none" stroke="#63b8ff" d="M1257.03,-60.43C1280.72,-50.68 1318.61,-35.08 1345.68,-23.93"/>
<polygon fill="#63b8ff" stroke="#63b8ff" points="1346.87,-27.23 1354.78,-20.19 1344.2,-20.76 1346.87,-27.23"/>
</a>
</g>
</g>
<!-- Node36 -->
<g id="Node000036" class="node">
<title>Node36</title>
<g id="a_Node000036"><a xlink:title=" ">
<polygon fill="#e0e0e0" stroke="#999999" points="1457.62,-19.25 1418.38,-19.25 1418.38,0 1457.62,0 1457.62,-19.25"/>
<text text-anchor="middle" x="1438" y="-5.75" font-family="Helvetica,sans-Serif" font-size="10.00">limits</text>
</a>
</g>
</g>
<!-- Node33&#45;&gt;Node36 -->
<g id="edge66_Node000033_Node000036" class="edge">
<title>Node33&#45;&gt;Node36</title>
<g id="a_edge66_Node000033_Node000036"><a xlink:title=" ">
<path fill="none" stroke="#63b8ff" d="M1267.31,-60.42C1300.27,-51.12 1353.17,-36.07 1407.29,-20.02"/>
<polygon fill="#63b8ff" stroke="#63b8ff" points="1408.09,-23.43 1416.68,-17.23 1406.1,-16.72 1408.09,-23.43"/>
</a>
</g>
</g>
<!-- Node37 -->
<g id="Node000037" class="node">
<title>Node37</title>
<g id="a_Node000037"><a xlink:title=" ">
<polygon fill="#e0e0e0" stroke="#999999" points="1265.88,-19.25 1204.12,-19.25 1204.12,0 1265.88,0 1265.88,-19.25"/>
<text text-anchor="middle" x="1235" y="-5.75" font-family="Helvetica,sans-Serif" font-size="10.00">type_traits</text>
</a>
</g>
</g>
<!-- Node33&#45;&gt;Node37 -->
<g id="edge67_Node000033_Node000037" class="edge">
<title>Node33&#45;&gt;Node37</title>
<g id="a_edge67_Node000033_Node000037"><a xlink:title=" ">
<path fill="none" stroke="#63b8ff" d="M1235,-60.56C1235,-52.78 1235,-41.2 1235,-31.16"/>
<polygon fill="#63b8ff" stroke="#63b8ff" points="1238.5,-31.16 1235,-21.16 1231.5,-31.16 1238.5,-31.16"/>
</a>
</g>
</g>
</g>
</svg>
