<?xml version="1.0" encoding="UTF-8" standalone="no"?>
<!DOCTYPE svg PUBLIC "-//W3C//DTD SVG 1.1//EN"
 "http://www.w3.org/Graphics/SVG/1.1/DTD/svg11.dtd">
<!-- Generated by graphviz version 2.42.4 (0)
 -->
<!-- Title: /__w/vulpes/vulpes/vulpes/timeintegration/solvermfk.hpp Pages: 1 -->
<!--zoomable 445 -->

<svg id="main" version="1.1" xmlns="http://www.w3.org/2000/svg" xmlns:xlink="http://www.w3.org/1999/xlink" xml:space="preserve" onload="init(evt)">
<style type="text/css"><![CDATA[
.node, .edge {opacity: 0.7;}
.node.selected, .edge.selected {opacity: 1;}
.edge:hover path { stroke: red; }
.edge:hover polygon { stroke: red; fill: red; }
]]></style>

<defs>
  <circle id="rim" cx="0" cy="0" r="7"/>
  <circle id="rim2" cx="0" cy="0" r="3.5"/>
  <g id="zoomPlus">
    <use xlink:href="#rim" fill="#404040"><set attributeName="fill" to="#808080" begin="zoomplus.mouseover" end="zoomplus.mouseout"/></use>
    <path d="M-4,0h8M0,-4v8" fill="none" stroke="white" stroke-width="1.5" pointer-events="none"/>
  </g>
  <g id="zoomMin">
    <use xlink:href="#rim" fill="#404040"><set attributeName="fill" to="#808080" begin="zoomminus.mouseover" end="zoomminus.mouseout"/></use>
    <path d="M-4,0h8" fill="none" stroke="white" stroke-width="1.5" pointer-events="none"/>
  </g>
  <g id="arrowUp" transform="translate(30 24)">
    <use xlink:href="#rim"/>
    <path pointer-events="none" fill="none" stroke="white" stroke-width="1.5" d="M0,-3.0v7 M-2.5,-0.5L0,-3.0L2.5,-0.5"/>
  </g>
  <g id="arrowRight" transform="rotate(90) translate(36 -43)">
    <use xlink:href="#rim"/>
    <path pointer-events="none" fill="none" stroke="white" stroke-width="1.5" d="M0,-3.0v7 M-2.5,-0.5L0,-3.0L2.5,-0.5"/>
  </g>
  <g id="arrowDown" transform="rotate(180) translate(-30 -48)">
    <use xlink:href="#rim"/>
    <path pointer-events="none" fill="none" stroke="white" stroke-width="1.5" d="M0,-3.0v7 M-2.5,-0.5L0,-3.0L2.5,-0.5"/>
  </g>
  <g id="arrowLeft" transform="rotate(270) translate(-36 17)">
    <use xlink:href="#rim"/>
    <path pointer-events="none" fill="none" stroke="white" stroke-width="1.5" d="M0,-3.0v7 M-2.5,-0.5L0,-3.0L2.5,-0.5"/>
  </g>
  <g id="resetDef">
    <use xlink:href="#rim2" fill="#404040"><set attributeName="fill" to="#808080" begin="reset.mouseover" end="reset.mouseout"/></use>
  </g>
</defs>
<script type="application/ecmascript">
var viewWidth = 1579;
var viewHeight = 445;
var sectionId = 'dynsection-0';
</script>
<script type="application/ecmascript" xlink:href="svg.min.js"/>
<svg id="graph" class="graph">
<g id="viewport">
<title>/__w/vulpes/vulpes/vulpes/timeintegration/solvermfk.hpp</title>
<!-- Node1 -->
<g id="Node000001" class="node">
<title>Node1</title>
<g id="a_Node000001"><a xlink:title=" ">
<polygon fill="#999999" stroke="#666666" points="322.19,-437 191.19,-437 191.19,-396 322.19,-396 322.19,-437"/>
<text text-anchor="start" x="199.19" y="-425" font-family="Helvetica,sans-Serif" font-size="10.00">/__w/vulpes/vulpes</text>
<text text-anchor="start" x="199.19" y="-414" font-family="Helvetica,sans-Serif" font-size="10.00">/vulpes/timeintegration</text>
<text text-anchor="middle" x="256.69" y="-403" font-family="Helvetica,sans-Serif" font-size="10.00">/solvermfk.hpp</text>
</a>
</g>
</g>
<!-- Node2 -->
<g id="Node000002" class="node">
<title>Node2</title>
<g id="a_Node000002"><a xlink:title=" ">
<polygon fill="#e0e0e0" stroke="#999999" points="81.69,-195 23.69,-195 23.69,-176 81.69,-176 81.69,-195"/>
<text text-anchor="middle" x="52.69" y="-183" font-family="Helvetica,sans-Serif" font-size="10.00">memory</text>
</a>
</g>
</g>
<!-- Node1&#45;&gt;Node2 -->
<g id="edge1_Node000001_Node000002" class="edge">
<title>Node1&#45;&gt;Node2</title>
<g id="a_edge1_Node000001_Node000002"><a xlink:title=" ">
<path fill="none" stroke="#63b8ff" d="M190.8,-404.47C157.63,-396.4 118.28,-382.74 88.69,-360 45.66,-326.94 43.79,-303.66 35.69,-250 34.43,-241.65 34.16,-239.3 35.69,-231 37.36,-221.95 40.79,-212.36 44.13,-204.41"/>
<polygon fill="#63b8ff" stroke="#63b8ff" points="47.41,-205.65 48.32,-195.09 41.03,-202.78 47.41,-205.65"/>
</a>
</g>
</g>
<!-- Node3 -->
<g id="Node000003" class="node">
<title>Node3</title>
<g id="a_Node000003"><a xlink:href="linear__solver_8hpp.html" target="_top" xlink:title=" ">
<polygon fill="white" stroke="#666666" points="245.19,-360 98.19,-360 98.19,-341 245.19,-341 245.19,-360"/>
<text text-anchor="middle" x="171.69" y="-348" font-family="Helvetica,sans-Serif" font-size="10.00">vulpes/la/linear_solver.hpp</text>
</a>
</g>
</g>
<!-- Node1&#45;&gt;Node3 -->
<g id="edge2_Node000001_Node000003" class="edge">
<title>Node1&#45;&gt;Node3</title>
<g id="a_edge2_Node000001_Node000003"><a xlink:title=" ">
<path fill="none" stroke="#63b8ff" d="M230.72,-395.95C218.12,-386.46 203.21,-375.24 191.53,-366.44"/>
<polygon fill="#63b8ff" stroke="#63b8ff" points="193.42,-363.48 183.32,-360.26 189.21,-369.07 193.42,-363.48"/>
</a>
</g>
</g>
<!-- Node28 -->
<g id="Node000028" class="node">
<title>Node28</title>
<g id="a_Node000028"><a xlink:href="sparse__matrix_8hpp.html" target="_top" xlink:title=" ">
<polygon fill="white" stroke="#666666" points="419.19,-305 264.19,-305 264.19,-286 419.19,-286 419.19,-305"/>
<text text-anchor="middle" x="341.69" y="-293" font-family="Helvetica,sans-Serif" font-size="10.00">vulpes/la/sparse_matrix.hpp</text>
</a>
</g>
</g>
<!-- Node1&#45;&gt;Node28 -->
<g id="edge70_Node000001_Node000028" class="edge">
<title>Node1&#45;&gt;Node28</title>
<g id="a_edge70_Node000001_Node000028"><a xlink:title=" ">
<path fill="none" stroke="#63b8ff" d="M270.72,-395.85C287.15,-372.86 314.06,-335.18 329.59,-313.43"/>
<polygon fill="#63b8ff" stroke="#63b8ff" points="332.53,-315.35 335.49,-305.18 326.83,-311.28 332.53,-315.35"/>
</a>
</g>
</g>
<!-- Node29 -->
<g id="Node000029" class="node">
<title>Node29</title>
<g id="a_Node000029"><a xlink:href="vector_8hpp.html" target="_top" xlink:title=" ">
<polygon fill="white" stroke="#666666" points="543.19,-250 428.19,-250 428.19,-231 543.19,-231 543.19,-250"/>
<text text-anchor="middle" x="485.69" y="-238" font-family="Helvetica,sans-Serif" font-size="10.00">vulpes/la/vector.hpp</text>
</a>
</g>
</g>
<!-- Node1&#45;&gt;Node29 -->
<g id="edge71_Node000001_Node000029" class="edge">
<title>Node1&#45;&gt;Node29</title>
<g id="a_edge71_Node000001_Node000029"><a xlink:title=" ">
<path fill="none" stroke="#63b8ff" d="M310,-395.85C353.19,-377.73 413.3,-347.22 453.69,-305 465.94,-292.19 474.52,-273.77 479.69,-260.06"/>
<polygon fill="#63b8ff" stroke="#63b8ff" points="483.11,-260.88 483.11,-250.28 476.5,-258.57 483.11,-260.88"/>
</a>
</g>
</g>
<!-- Node4 -->
<g id="Node000004" class="node">
<title>Node4</title>
<g id="a_Node000004"><a xlink:title=" ">
<polygon fill="#e0e0e0" stroke="#999999" points="127.19,-250 56.19,-250 56.19,-231 127.19,-231 127.19,-250"/>
<text text-anchor="middle" x="91.69" y="-238" font-family="Helvetica,sans-Serif" font-size="10.00">petscmat.h</text>
</a>
</g>
</g>
<!-- Node3&#45;&gt;Node4 -->
<g id="edge3_Node000003_Node000004" class="edge">
<title>Node3&#45;&gt;Node4</title>
<g id="a_edge3_Node000003_Node000004"><a xlink:title=" ">
<path fill="none" stroke="#63b8ff" d="M138.67,-340.87C120.51,-334.26 99.52,-323.1 88.69,-305 80.63,-291.53 82.45,-273.44 85.66,-260.01"/>
<polygon fill="#63b8ff" stroke="#63b8ff" points="89.13,-260.61 88.5,-250.03 82.39,-258.69 89.13,-260.61"/>
</a>
</g>
</g>
<!-- Node5 -->
<g id="Node000005" class="node">
<title>Node5</title>
<g id="a_Node000005"><a xlink:title=" ">
<polygon fill="#e0e0e0" stroke="#999999" points="71.69,-140 3.69,-140 3.69,-121 71.69,-121 71.69,-140"/>
<text text-anchor="middle" x="37.69" y="-128" font-family="Helvetica,sans-Serif" font-size="10.00">petscsys.h</text>
</a>
</g>
</g>
<!-- Node3&#45;&gt;Node5 -->
<g id="edge4_Node000003_Node000005" class="edge">
<title>Node3&#45;&gt;Node5</title>
<g id="a_edge4_Node000003_Node000005"><a xlink:title=" ">
<path fill="none" stroke="#63b8ff" d="M123.65,-340.95C99.78,-334.55 72,-323.58 52.69,-305 8.83,-262.79 -11.55,-234.07 6.69,-176 9.92,-165.71 16.47,-155.72 22.72,-147.82"/>
<polygon fill="#63b8ff" stroke="#63b8ff" points="25.42,-150.04 29.21,-140.15 20.07,-145.52 25.42,-150.04"/>
</a>
</g>
</g>
<!-- Node6 -->
<g id="Node000006" class="node">
<title>Node6</title>
<g id="a_Node000006"><a xlink:href="boomer__amg_8hpp.html" target="_top" xlink:title=" ">
<polygon fill="white" stroke="#666666" points="246.19,-305 97.19,-305 97.19,-286 246.19,-286 246.19,-305"/>
<text text-anchor="middle" x="171.69" y="-293" font-family="Helvetica,sans-Serif" font-size="10.00">vulpes/la/boomer_amg.hpp</text>
</a>
</g>
</g>
<!-- Node3&#45;&gt;Node6 -->
<g id="edge5_Node000003_Node000006" class="edge">
<title>Node3&#45;&gt;Node6</title>
<g id="a_edge5_Node000003_Node000006"><a xlink:title=" ">
<path fill="none" stroke="#63b8ff" d="M171.69,-340.75C171.69,-333.8 171.69,-323.85 171.69,-315.13"/>
<polygon fill="#63b8ff" stroke="#63b8ff" points="175.19,-315.09 171.69,-305.09 168.19,-315.09 175.19,-315.09"/>
</a>
</g>
</g>
<!-- Node7 -->
<g id="Node000007" class="node">
<title>Node7</title>
<g id="a_Node000007"><a xlink:href="petsc__utils_8hpp.html" target="_top" xlink:title=" ">
<polygon fill="white" stroke="#666666" points="237.19,-195 100.19,-195 100.19,-176 237.19,-176 237.19,-195"/>
<text text-anchor="middle" x="168.69" y="-183" font-family="Helvetica,sans-Serif" font-size="10.00">vulpes/la/petsc_utils.hpp</text>
</a>
</g>
</g>
<!-- Node3&#45;&gt;Node7 -->
<g id="edge6_Node000003_Node000007" class="edge">
<title>Node3&#45;&gt;Node7</title>
<g id="a_edge6_Node000003_Node000007"><a xlink:title=" ">
<path fill="none" stroke="#63b8ff" d="M148.77,-340.94C104.21,-322.97 13.09,-279.02 46.69,-231 57.86,-215.03 75.39,-204.78 93.72,-198.19"/>
<polygon fill="#63b8ff" stroke="#63b8ff" points="94.92,-201.48 103.35,-195.07 92.76,-194.83 94.92,-201.48"/>
</a>
</g>
</g>
<!-- Node3&#45;&gt;Node28 -->
<g id="edge35_Node000003_Node000028" class="edge">
<title>Node3&#45;&gt;Node28</title>
<g id="a_edge35_Node000003_Node000028"><a xlink:title=" ">
<path fill="none" stroke="#63b8ff" d="M199,-340.98C227.54,-332.09 272.51,-318.07 304.33,-308.15"/>
<polygon fill="#63b8ff" stroke="#63b8ff" points="305.66,-311.4 314.16,-305.08 303.57,-304.72 305.66,-311.4"/>
</a>
</g>
</g>
<!-- Node3&#45;&gt;Node29 -->
<g id="edge69_Node000003_Node000029" class="edge">
<title>Node3&#45;&gt;Node29</title>
<g id="a_edge69_Node000003_Node000029"><a xlink:title=" ">
<path fill="none" stroke="#63b8ff" d="M245.43,-349.42C299.25,-346.45 372.33,-336.18 428.69,-305 448.47,-294.06 464.92,-273.6 474.98,-258.86"/>
<polygon fill="#63b8ff" stroke="#63b8ff" points="478.12,-260.45 480.64,-250.15 472.25,-256.63 478.12,-260.45"/>
</a>
</g>
</g>
<!-- Node7&#45;&gt;Node5 -->
<g id="edge7_Node000007_Node000005" class="edge">
<title>Node7&#45;&gt;Node5</title>
<g id="a_edge7_Node000007_Node000005"><a xlink:title=" ">
<path fill="none" stroke="#63b8ff" d="M147.64,-175.98C126.28,-167.34 92.98,-153.87 68.62,-144.02"/>
<polygon fill="#63b8ff" stroke="#63b8ff" points="69.7,-140.68 59.12,-140.17 67.08,-147.17 69.7,-140.68"/>
</a>
</g>
</g>
<!-- Node8 -->
<g id="Node000008" class="node">
<title>Node8</title>
<g id="a_Node000008"><a xlink:title=" ">
<polygon fill="#e0e0e0" stroke="#999999" points="143.69,-19 99.69,-19 99.69,0 143.69,0 143.69,-19"/>
<text text-anchor="middle" x="121.69" y="-7" font-family="Helvetica,sans-Serif" font-size="10.00">string</text>
</a>
</g>
</g>
<!-- Node7&#45;&gt;Node8 -->
<g id="edge8_Node000007_Node000008" class="edge">
<title>Node7&#45;&gt;Node8</title>
<g id="a_edge8_Node000007_Node000008"><a xlink:title=" ">
<path fill="none" stroke="#63b8ff" d="M166.29,-175.63C158.97,-148.52 136.77,-66.32 126.72,-29.13"/>
<polygon fill="#63b8ff" stroke="#63b8ff" points="130.01,-27.88 124.02,-19.14 123.25,-29.71 130.01,-27.88"/>
</a>
</g>
</g>
<!-- Node9 -->
<g id="Node000009" class="node">
<title>Node9</title>
<g id="a_Node000009"><a xlink:href="mpi__wrappers_8hpp.html" target="_top" xlink:title=" ">
<polygon fill="white" stroke="#666666" points="693.69,-140 527.69,-140 527.69,-121 693.69,-121 693.69,-140"/>
<text text-anchor="middle" x="610.69" y="-128" font-family="Helvetica,sans-Serif" font-size="10.00">vulpes/utils/mpi_wrappers.hpp</text>
</a>
</g>
</g>
<!-- Node7&#45;&gt;Node9 -->
<g id="edge9_Node000007_Node000009" class="edge">
<title>Node7&#45;&gt;Node9</title>
<g id="a_edge9_Node000007_Node000009"><a xlink:title=" ">
<path fill="none" stroke="#63b8ff" d="M237.27,-176.28C316.26,-166.81 445.9,-151.26 529.76,-141.2"/>
<polygon fill="#63b8ff" stroke="#63b8ff" points="530.24,-144.67 539.75,-140.01 529.41,-137.72 530.24,-144.67"/>
</a>
</g>
</g>
<!-- Node10 -->
<g id="Node000010" class="node">
<title>Node10</title>
<g id="a_Node000010"><a xlink:title=" ">
<polygon fill="#e0e0e0" stroke="#999999" points="632.69,-79.5 588.69,-79.5 588.69,-60.5 632.69,-60.5 632.69,-79.5"/>
<text text-anchor="middle" x="610.69" y="-67.5" font-family="Helvetica,sans-Serif" font-size="10.00">mpi.h</text>
</a>
</g>
</g>
<!-- Node9&#45;&gt;Node10 -->
<g id="edge10_Node000009_Node000010" class="edge">
<title>Node9&#45;&gt;Node10</title>
<g id="a_edge10_Node000009_Node000010"><a xlink:title=" ">
<path fill="none" stroke="#63b8ff" d="M610.69,-120.87C610.69,-112.75 610.69,-100.31 610.69,-89.89"/>
<polygon fill="#63b8ff" stroke="#63b8ff" points="614.19,-89.67 610.69,-79.67 607.19,-89.67 614.19,-89.67"/>
</a>
</g>
</g>
<!-- Node11 -->
<g id="Node000011" class="node">
<title>Node11</title>
<g id="a_Node000011"><a xlink:title=" ">
<polygon fill="#e0e0e0" stroke="#999999" points="702.69,-79.5 650.69,-79.5 650.69,-60.5 702.69,-60.5 702.69,-79.5"/>
<text text-anchor="middle" x="676.69" y="-67.5" font-family="Helvetica,sans-Serif" font-size="10.00">petsc.h</text>
</a>
</g>
</g>
<!-- Node9&#45;&gt;Node11 -->
<g id="edge11_Node000009_Node000011" class="edge">
<title>Node9&#45;&gt;Node11</title>
<g id="a_edge11_Node000009_Node000011"><a xlink:title=" ">
<path fill="none" stroke="#63b8ff" d="M620.43,-120.87C630.66,-111.8 646.97,-97.34 659.4,-86.32"/>
<polygon fill="#63b8ff" stroke="#63b8ff" points="661.75,-88.92 666.91,-79.67 657.1,-83.68 661.75,-88.92"/>
</a>
</g>
</g>
<!-- Node12 -->
<g id="Node000012" class="node">
<title>Node12</title>
<g id="a_Node000012"><a xlink:title=" ">
<polygon fill="#e0e0e0" stroke="#999999" points="755.69,-19 703.69,-19 703.69,0 755.69,0 755.69,-19"/>
<text text-anchor="middle" x="729.69" y="-7" font-family="Helvetica,sans-Serif" font-size="10.00">cassert</text>
</a>
</g>
</g>
<!-- Node9&#45;&gt;Node12 -->
<g id="edge12_Node000009_Node000012" class="edge">
<title>Node9&#45;&gt;Node12</title>
<g id="a_edge12_Node000009_Node000012"><a xlink:title=" ">
<path fill="none" stroke="#63b8ff" d="M601.95,-120.99C588.04,-106.39 563.93,-76.11 579.69,-55 583.19,-50.3 650.2,-31.7 693.46,-20.08"/>
<polygon fill="#63b8ff" stroke="#63b8ff" points="694.61,-23.4 703.36,-17.44 692.8,-16.64 694.61,-23.4"/>
</a>
</g>
</g>
<!-- Node13 -->
<g id="Node000013" class="node">
<title>Node13</title>
<g id="a_Node000013"><a xlink:title=" ">
<polygon fill="#e0e0e0" stroke="#999999" points="221.69,-19 161.69,-19 161.69,0 221.69,0 221.69,-19"/>
<text text-anchor="middle" x="191.69" y="-7" font-family="Helvetica,sans-Serif" font-size="10.00">iostream</text>
</a>
</g>
</g>
<!-- Node9&#45;&gt;Node13 -->
<g id="edge13_Node000009_Node000013" class="edge">
<title>Node9&#45;&gt;Node13</title>
<g id="a_edge13_Node000009_Node000013"><a xlink:title=" ">
<path fill="none" stroke="#63b8ff" d="M527.53,-124.04C476.21,-118.51 409.87,-107.38 354.69,-85 332.75,-76.11 331.7,-65.89 310.69,-55 284.81,-41.59 253.95,-30.17 230.14,-22.26"/>
<polygon fill="#63b8ff" stroke="#63b8ff" points="230.99,-18.85 220.4,-19.08 228.82,-25.51 230.99,-18.85"/>
</a>
</g>
</g>
<!-- Node14 -->
<g id="Node000014" class="node">
<title>Node14</title>
<g id="a_Node000014"><a xlink:title=" ">
<polygon fill="#e0e0e0" stroke="#999999" points="1028.19,-19 981.19,-19 981.19,0 1028.19,0 1028.19,-19"/>
<text text-anchor="middle" x="1004.69" y="-7" font-family="Helvetica,sans-Serif" font-size="10.00">vector</text>
</a>
</g>
</g>
<!-- Node9&#45;&gt;Node14 -->
<g id="edge14_Node000009_Node000014" class="edge">
<title>Node9&#45;&gt;Node14</title>
<g id="a_edge14_Node000009_Node000014"><a xlink:title=" ">
<path fill="none" stroke="#63b8ff" d="M682.14,-120.97C729.8,-114.1 793.44,-102.64 847.69,-85 897.14,-68.92 951.16,-40.73 981.19,-24.02"/>
<polygon fill="#63b8ff" stroke="#63b8ff" points="983.06,-26.98 990.06,-19.02 979.63,-20.88 983.06,-26.98"/>
</a>
</g>
</g>
<!-- Node15 -->
<g id="Node000015" class="node">
<title>Node15</title>
<g id="a_Node000015"><a xlink:title=" ">
<polygon fill="#e0e0e0" stroke="#999999" points="1184.19,-19 1107.19,-19 1107.19,0 1184.19,0 1184.19,-19"/>
<text text-anchor="middle" x="1145.69" y="-7" font-family="Helvetica,sans-Serif" font-size="10.00">Eigen/Dense</text>
</a>
</g>
</g>
<!-- Node9&#45;&gt;Node15 -->
<g id="edge15_Node000009_Node000015" class="edge">
<title>Node9&#45;&gt;Node15</title>
<g id="a_edge15_Node000009_Node000015"><a xlink:title=" ">
<path fill="none" stroke="#63b8ff" d="M683.2,-121C741.32,-113.51 824.76,-101.28 896.69,-85 974.75,-67.33 1064.18,-38.38 1111.75,-22.26"/>
<polygon fill="#63b8ff" stroke="#63b8ff" points="1112.91,-25.57 1121.24,-19.03 1110.65,-18.94 1112.91,-25.57"/>
</a>
</g>
</g>
<!-- Node16 -->
<g id="Node000016" class="node">
<title>Node16</title>
<g id="a_Node000016"><a xlink:href="crs__map_8hpp.html" target="_top" xlink:title=" ">
<polygon fill="white" stroke="#666666" points="838.19,-85 721.19,-85 721.19,-55 838.19,-55 838.19,-85"/>
<text text-anchor="start" x="729.19" y="-73" font-family="Helvetica,sans-Serif" font-size="10.00">vulpes/datastructure</text>
<text text-anchor="middle" x="779.69" y="-62" font-family="Helvetica,sans-Serif" font-size="10.00">/crs_map.hpp</text>
</a>
</g>
</g>
<!-- Node9&#45;&gt;Node16 -->
<g id="edge16_Node000009_Node000016" class="edge">
<title>Node9&#45;&gt;Node16</title>
<g id="a_edge16_Node000009_Node000016"><a xlink:title=" ">
<path fill="none" stroke="#63b8ff" d="M635.26,-120.99C659.8,-112.5 698.22,-99.2 729.26,-88.45"/>
<polygon fill="#63b8ff" stroke="#63b8ff" points="730.75,-91.64 739.06,-85.06 728.46,-85.03 730.75,-91.64"/>
</a>
</g>
</g>
<!-- Node22 -->
<g id="Node000022" class="node">
<title>Node22</title>
<g id="a_Node000022"><a xlink:href="profiler_8hpp.html" target="_top" xlink:title=" ">
<polygon fill="white" stroke="#666666" points="494.19,-79.5 363.19,-79.5 363.19,-60.5 494.19,-60.5 494.19,-79.5"/>
<text text-anchor="middle" x="428.69" y="-67.5" font-family="Helvetica,sans-Serif" font-size="10.00">vulpes/utils/profiler.hpp</text>
</a>
</g>
</g>
<!-- Node9&#45;&gt;Node22 -->
<g id="edge24_Node000009_Node000022" class="edge">
<title>Node9&#45;&gt;Node22</title>
<g id="a_edge24_Node000009_Node000022"><a xlink:title=" ">
<path fill="none" stroke="#63b8ff" d="M584.22,-120.99C552.82,-110.9 500.28,-94.01 465.07,-82.69"/>
<polygon fill="#63b8ff" stroke="#63b8ff" points="465.78,-79.24 455.18,-79.52 463.63,-85.91 465.78,-79.24"/>
</a>
</g>
</g>
<!-- Node16&#45;&gt;Node12 -->
<g id="edge19_Node000016_Node000012" class="edge">
<title>Node16&#45;&gt;Node12</title>
<g id="a_edge19_Node000016_Node000012"><a xlink:title=" ">
<path fill="none" stroke="#63b8ff" d="M767.58,-54.84C760.4,-46.43 751.26,-35.74 743.76,-26.96"/>
<polygon fill="#63b8ff" stroke="#63b8ff" points="746.34,-24.59 737.18,-19.27 741.02,-29.14 746.34,-24.59"/>
</a>
</g>
</g>
<!-- Node16&#45;&gt;Node14 -->
<g id="edge23_Node000016_Node000014" class="edge">
<title>Node16&#45;&gt;Node14</title>
<g id="a_edge23_Node000016_Node000014"><a xlink:title=" ">
<path fill="none" stroke="#63b8ff" d="M834.2,-54.97C870.53,-45.6 919.6,-32.9 970.97,-19.44"/>
<polygon fill="#63b8ff" stroke="#63b8ff" points="972.14,-22.75 980.93,-16.83 970.37,-15.98 972.14,-22.75"/>
</a>
</g>
</g>
<!-- Node17 -->
<g id="Node000017" class="node">
<title>Node17</title>
<g id="a_Node000017"><a xlink:title=" ">
<polygon fill="#e0e0e0" stroke="#999999" points="685.69,-19 621.69,-19 621.69,0 685.69,0 685.69,-19"/>
<text text-anchor="middle" x="653.69" y="-7" font-family="Helvetica,sans-Serif" font-size="10.00">algorithm</text>
</a>
</g>
</g>
<!-- Node16&#45;&gt;Node17 -->
<g id="edge17_Node000016_Node000017" class="edge">
<title>Node16&#45;&gt;Node17</title>
<g id="a_edge17_Node000016_Node000017"><a xlink:title=" ">
<path fill="none" stroke="#63b8ff" d="M749.51,-54.99C728.86,-45.4 701.69,-32.79 681.55,-23.44"/>
<polygon fill="#63b8ff" stroke="#63b8ff" points="682.84,-20.18 672.3,-19.14 679.89,-26.52 682.84,-20.18"/>
</a>
</g>
</g>
<!-- Node18 -->
<g id="Node000018" class="node">
<title>Node18</title>
<g id="a_Node000018"><a xlink:title=" ">
<polygon fill="#e0e0e0" stroke="#999999" points="1088.69,-19 1046.69,-19 1046.69,0 1088.69,0 1088.69,-19"/>
<text text-anchor="middle" x="1067.69" y="-7" font-family="Helvetica,sans-Serif" font-size="10.00">array</text>
</a>
</g>
</g>
<!-- Node16&#45;&gt;Node18 -->
<g id="edge18_Node000016_Node000018" class="edge">
<title>Node16&#45;&gt;Node18</title>
<g id="a_edge18_Node000016_Node000018"><a xlink:title=" ">
<path fill="none" stroke="#63b8ff" d="M838.4,-59.08C888.63,-50.27 963.05,-36.42 1036.55,-19.11"/>
<polygon fill="#63b8ff" stroke="#63b8ff" points="1037.52,-22.48 1046.44,-16.76 1035.9,-15.67 1037.52,-22.48"/>
</a>
</g>
</g>
<!-- Node19 -->
<g id="Node000019" class="node">
<title>Node19</title>
<g id="a_Node000019"><a xlink:title=" ">
<polygon fill="#e0e0e0" stroke="#999999" points="900.19,-19 843.19,-19 843.19,0 900.19,0 900.19,-19"/>
<text text-anchor="middle" x="871.69" y="-7" font-family="Helvetica,sans-Serif" font-size="10.00">ostream</text>
</a>
</g>
</g>
<!-- Node16&#45;&gt;Node19 -->
<g id="edge20_Node000016_Node000019" class="edge">
<title>Node16&#45;&gt;Node19</title>
<g id="a_edge20_Node000016_Node000019"><a xlink:title=" ">
<path fill="none" stroke="#63b8ff" d="M801.96,-54.84C816.35,-45.68 835.02,-33.82 849.42,-24.66"/>
<polygon fill="#63b8ff" stroke="#63b8ff" points="851.61,-27.41 858.17,-19.09 847.86,-21.51 851.61,-27.41"/>
</a>
</g>
</g>
<!-- Node20 -->
<g id="Node000020" class="node">
<title>Node20</title>
<g id="a_Node000020"><a xlink:title=" ">
<polygon fill="#e0e0e0" stroke="#999999" points="963.19,-19 918.19,-19 918.19,0 963.19,0 963.19,-19"/>
<text text-anchor="middle" x="940.69" y="-7" font-family="Helvetica,sans-Serif" font-size="10.00">utility</text>
</a>
</g>
</g>
<!-- Node16&#45;&gt;Node20 -->
<g id="edge21_Node000016_Node000020" class="edge">
<title>Node16&#45;&gt;Node20</title>
<g id="a_edge21_Node000016_Node000020"><a xlink:title=" ">
<path fill="none" stroke="#63b8ff" d="M818.25,-54.99C845.8,-44.98 882.45,-31.66 908.45,-22.21"/>
<polygon fill="#63b8ff" stroke="#63b8ff" points="909.65,-25.5 917.85,-18.8 907.25,-18.92 909.65,-25.5"/>
</a>
</g>
</g>
<!-- Node21 -->
<g id="Node000021" class="node">
<title>Node21</title>
<g id="a_Node000021"><a xlink:title=" ">
<polygon fill="#e0e0e0" stroke="#999999" points="825.19,-19 774.19,-19 774.19,0 825.19,0 825.19,-19"/>
<text text-anchor="middle" x="799.69" y="-7" font-family="Helvetica,sans-Serif" font-size="10.00">variant</text>
</a>
</g>
</g>
<!-- Node16&#45;&gt;Node21 -->
<g id="edge22_Node000016_Node000021" class="edge">
<title>Node16&#45;&gt;Node21</title>
<g id="a_edge22_Node000016_Node000021"><a xlink:title=" ">
<path fill="none" stroke="#63b8ff" d="M784.53,-54.84C787.2,-47.04 790.54,-37.27 793.4,-28.89"/>
<polygon fill="#63b8ff" stroke="#63b8ff" points="796.77,-29.86 796.69,-19.27 790.14,-27.6 796.77,-29.86"/>
</a>
</g>
</g>
<!-- Node22&#45;&gt;Node8 -->
<g id="edge30_Node000022_Node000008" class="edge">
<title>Node22&#45;&gt;Node8</title>
<g id="a_edge30_Node000022_Node000008"><a xlink:title=" ">
<path fill="none" stroke="#63b8ff" d="M373.41,-60.46C319.67,-51.83 235.55,-37.44 153.92,-19.12"/>
<polygon fill="#63b8ff" stroke="#63b8ff" points="154.51,-15.66 143.98,-16.87 152.96,-22.49 154.51,-15.66"/>
</a>
</g>
</g>
<!-- Node22&#45;&gt;Node13 -->
<g id="edge29_Node000022_Node000013" class="edge">
<title>Node22&#45;&gt;Node13</title>
<g id="a_edge29_Node000022_Node000013"><a xlink:title=" ">
<path fill="none" stroke="#63b8ff" d="M394.23,-60.49C351.14,-49.86 277.51,-31.68 231.9,-20.42"/>
<polygon fill="#63b8ff" stroke="#63b8ff" points="232.6,-16.99 222.05,-18 230.92,-23.79 232.6,-16.99"/>
</a>
</g>
</g>
<!-- Node22&#45;&gt;Node14 -->
<g id="edge33_Node000022_Node000014" class="edge">
<title>Node22&#45;&gt;Node14</title>
<g id="a_edge33_Node000022_Node000014"><a xlink:title=" ">
<path fill="none" stroke="#63b8ff" d="M494.47,-62.89C520.94,-60.43 551.77,-57.57 579.69,-55 751.11,-39.2 798.25,-49.23 971.08,-19.02"/>
<polygon fill="#63b8ff" stroke="#63b8ff" points="971.78,-22.45 981.02,-17.26 970.56,-15.56 971.78,-22.45"/>
</a>
</g>
</g>
<!-- Node22&#45;&gt;Node17 -->
<g id="edge25_Node000022_Node000017" class="edge">
<title>Node22&#45;&gt;Node17</title>
<g id="a_edge25_Node000022_Node000017"><a xlink:title=" ">
<path fill="none" stroke="#63b8ff" d="M461.4,-60.49C501.21,-50.15 568.46,-32.66 611.95,-21.35"/>
<polygon fill="#63b8ff" stroke="#63b8ff" points="612.86,-24.73 621.66,-18.83 611.1,-17.96 612.86,-24.73"/>
</a>
</g>
</g>
<!-- Node22&#45;&gt;Node20 -->
<g id="edge32_Node000022_Node000020" class="edge">
<title>Node22&#45;&gt;Node20</title>
<g id="a_edge32_Node000022_Node000020"><a xlink:title=" ">
<path fill="none" stroke="#63b8ff" d="M494.51,-62.76C609.78,-51.76 841.62,-29.22 907.99,-18.88"/>
<polygon fill="#63b8ff" stroke="#63b8ff" points="908.83,-22.29 918.1,-17.15 907.65,-15.39 908.83,-22.29"/>
</a>
</g>
</g>
<!-- Node23 -->
<g id="Node000023" class="node">
<title>Node23</title>
<g id="a_Node000023"><a xlink:title=" ">
<polygon fill="#e0e0e0" stroke="#999999" points="289.69,-19 239.69,-19 239.69,0 289.69,0 289.69,-19"/>
<text text-anchor="middle" x="264.69" y="-7" font-family="Helvetica,sans-Serif" font-size="10.00">chrono</text>
</a>
</g>
</g>
<!-- Node22&#45;&gt;Node23 -->
<g id="edge26_Node000022_Node000023" class="edge">
<title>Node22&#45;&gt;Node23</title>
<g id="a_edge26_Node000022_Node000023"><a xlink:title=" ">
<path fill="none" stroke="#63b8ff" d="M404.84,-60.49C376.78,-50.49 330.01,-33.8 298.29,-22.49"/>
<polygon fill="#63b8ff" stroke="#63b8ff" points="299.16,-19.08 288.56,-19.02 296.81,-25.67 299.16,-19.08"/>
</a>
</g>
</g>
<!-- Node24 -->
<g id="Node000024" class="node">
<title>Node24</title>
<g id="a_Node000024"><a xlink:title=" ">
<polygon fill="#e0e0e0" stroke="#999999" points="1273.19,-19 1220.19,-19 1220.19,0 1273.19,0 1273.19,-19"/>
<text text-anchor="middle" x="1246.69" y="-7" font-family="Helvetica,sans-Serif" font-size="10.00">cstddef</text>
</a>
</g>
</g>
<!-- Node22&#45;&gt;Node24 -->
<g id="edge27_Node000022_Node000024" class="edge">
<title>Node22&#45;&gt;Node24</title>
<g id="a_edge27_Node000022_Node000024"><a xlink:title=" ">
<path fill="none" stroke="#63b8ff" d="M494.43,-62.42C520.9,-59.89 551.73,-57.12 579.69,-55 852.27,-34.38 921.95,-48.68 1193.69,-19 1198.94,-18.43 1204.46,-17.69 1209.88,-16.89"/>
<polygon fill="#63b8ff" stroke="#63b8ff" points="1210.73,-20.3 1220.07,-15.31 1209.65,-13.39 1210.73,-20.3"/>
</a>
</g>
</g>
<!-- Node25 -->
<g id="Node000025" class="node">
<title>Node25</title>
<g id="a_Node000025"><a xlink:title=" ">
<polygon fill="#e0e0e0" stroke="#999999" points="363.69,-19 307.69,-19 307.69,0 363.69,0 363.69,-19"/>
<text text-anchor="middle" x="335.69" y="-7" font-family="Helvetica,sans-Serif" font-size="10.00">iomanip</text>
</a>
</g>
</g>
<!-- Node22&#45;&gt;Node25 -->
<g id="edge28_Node000022_Node000025" class="edge">
<title>Node22&#45;&gt;Node25</title>
<g id="a_edge28_Node000022_Node000025"><a xlink:title=" ">
<path fill="none" stroke="#63b8ff" d="M414.97,-60.37C399.99,-50.95 375.79,-35.73 358.06,-24.58"/>
<polygon fill="#63b8ff" stroke="#63b8ff" points="359.79,-21.53 349.47,-19.17 356.07,-27.45 359.79,-21.53"/>
</a>
</g>
</g>
<!-- Node26 -->
<g id="Node000026" class="node">
<title>Node26</title>
<g id="a_Node000026"><a xlink:title=" ">
<polygon fill="#e0e0e0" stroke="#999999" points="475.19,-19 382.19,-19 382.19,0 475.19,0 475.19,-19"/>
<text text-anchor="middle" x="428.69" y="-7" font-family="Helvetica,sans-Serif" font-size="10.00">unordered_map</text>
</a>
</g>
</g>
<!-- Node22&#45;&gt;Node26 -->
<g id="edge31_Node000022_Node000026" class="edge">
<title>Node22&#45;&gt;Node26</title>
<g id="a_edge31_Node000022_Node000026"><a xlink:title=" ">
<path fill="none" stroke="#63b8ff" d="M428.69,-60.37C428.69,-52.25 428.69,-39.81 428.69,-29.39"/>
<polygon fill="#63b8ff" stroke="#63b8ff" points="432.19,-29.17 428.69,-19.17 425.19,-29.17 432.19,-29.17"/>
</a>
</g>
</g>
<!-- Node27 -->
<g id="Node000027" class="node">
<title>Node27</title>
<g id="a_Node000027"><a xlink:title=" ">
<polygon fill="#e0e0e0" stroke="#999999" points="603.69,-19 493.69,-19 493.69,0 603.69,0 603.69,-19"/>
<text text-anchor="middle" x="548.69" y="-7" font-family="Helvetica,sans-Serif" font-size="10.00">nlohmann/json.hpp</text>
</a>
</g>
</g>
<!-- Node22&#45;&gt;Node27 -->
<g id="edge34_Node000022_Node000027" class="edge">
<title>Node22&#45;&gt;Node27</title>
<g id="a_edge34_Node000022_Node000027"><a xlink:title=" ">
<path fill="none" stroke="#63b8ff" d="M446.14,-60.49C466.04,-50.79 498.83,-34.81 521.96,-23.53"/>
<polygon fill="#63b8ff" stroke="#63b8ff" points="523.76,-26.54 531.22,-19.02 520.7,-20.25 523.76,-26.54"/>
</a>
</g>
</g>
<!-- Node28&#45;&gt;Node2 -->
<g id="edge40_Node000028_Node000002" class="edge">
<title>Node28&#45;&gt;Node2</title>
<g id="a_edge40_Node000028_Node000002"><a xlink:title=" ">
<path fill="none" stroke="#63b8ff" d="M318.53,-285.84C267.25,-266.68 144.02,-220.63 85.11,-198.62"/>
<polygon fill="#63b8ff" stroke="#63b8ff" points="86.15,-195.27 75.56,-195.05 83.7,-201.83 86.15,-195.27"/>
</a>
</g>
</g>
<!-- Node28&#45;&gt;Node4 -->
<g id="edge36_Node000028_Node000004" class="edge">
<title>Node28&#45;&gt;Node4</title>
<g id="a_edge36_Node000028_Node000004"><a xlink:title=" ">
<path fill="none" stroke="#63b8ff" d="M301.52,-285.98C256.64,-276.47 184.14,-261.1 137.2,-251.15"/>
<polygon fill="#63b8ff" stroke="#63b8ff" points="137.81,-247.7 127.3,-249.05 136.36,-254.55 137.81,-247.7"/>
</a>
</g>
</g>
<!-- Node28&#45;&gt;Node5 -->
<g id="edge37_Node000028_Node000005" class="edge">
<title>Node28&#45;&gt;Node5</title>
<g id="a_edge37_Node000028_Node000005"><a xlink:title=" ">
<path fill="none" stroke="#63b8ff" d="M301.44,-285.99C267.4,-278.25 217.61,-265.67 175.69,-250 157.63,-243.25 154.66,-237.97 136.69,-231 83.98,-210.55 48.54,-240.28 14.69,-195 4.21,-180.98 13.77,-161.71 23.57,-148.09"/>
<polygon fill="#63b8ff" stroke="#63b8ff" points="26.44,-150.1 29.83,-140.07 20.92,-145.8 26.44,-150.1"/>
</a>
</g>
</g>
<!-- Node28&#45;&gt;Node7 -->
<g id="edge44_Node000028_Node000007" class="edge">
<title>Node28&#45;&gt;Node7</title>
<g id="a_edge44_Node000028_Node000007"><a xlink:title=" ">
<path fill="none" stroke="#63b8ff" d="M323.12,-285.91C305.39,-277.48 278.13,-263.89 255.69,-250 231.18,-234.84 204.64,-214.91 187.41,-201.46"/>
<polygon fill="#63b8ff" stroke="#63b8ff" points="189.32,-198.51 179.3,-195.07 184.99,-204.01 189.32,-198.51"/>
</a>
</g>
</g>
<!-- Node28&#45;&gt;Node8 -->
<g id="edge41_Node000028_Node000008" class="edge">
<title>Node28&#45;&gt;Node8</title>
<g id="a_edge41_Node000028_Node000008"><a xlink:title=" ">
<path fill="none" stroke="#63b8ff" d="M334.86,-285.69C303.87,-245.68 176.14,-80.8 134.72,-27.32"/>
<polygon fill="#63b8ff" stroke="#63b8ff" points="137.32,-24.97 128.43,-19.21 131.79,-29.26 137.32,-24.97"/>
</a>
</g>
</g>
<!-- Node28&#45;&gt;Node9 -->
<g id="edge68_Node000028_Node000009" class="edge">
<title>Node28&#45;&gt;Node9</title>
<g id="a_edge68_Node000028_Node000009"><a xlink:title=" ">
<path fill="none" stroke="#63b8ff" d="M351.29,-285.6C365.53,-272.65 393.43,-248.27 419.69,-231 474.32,-195.07 543.44,-161.8 581.76,-144.32"/>
<polygon fill="#63b8ff" stroke="#63b8ff" points="583.59,-147.33 591.26,-140.02 580.71,-140.95 583.59,-147.33"/>
</a>
</g>
</g>
<!-- Node28&#45;&gt;Node13 -->
<g id="edge39_Node000028_Node000013" class="edge">
<title>Node28&#45;&gt;Node13</title>
<g id="a_edge39_Node000028_Node000013"><a xlink:title=" ">
<path fill="none" stroke="#63b8ff" d="M339.07,-285.61C329.16,-252.84 291.55,-136.38 234.69,-55 227.41,-44.59 217.69,-34.3 209.33,-26.25"/>
<polygon fill="#63b8ff" stroke="#63b8ff" points="211.55,-23.54 201.85,-19.28 206.78,-28.66 211.55,-23.54"/>
</a>
</g>
</g>
<!-- Node28&#45;&gt;Node14 -->
<g id="edge43_Node000028_Node000014" class="edge">
<title>Node28&#45;&gt;Node14</title>
<g id="a_edge43_Node000028_Node000014"><a xlink:title=" ">
<path fill="none" stroke="#63b8ff" d="M419.45,-295.4C527.17,-295.04 727.24,-288.51 892.69,-250 957.4,-234.94 993.84,-249.6 1031.69,-195 1067.61,-143.18 1033.24,-63.41 1014.75,-28.22"/>
<polygon fill="#63b8ff" stroke="#63b8ff" points="1017.67,-26.28 1009.82,-19.17 1011.53,-29.63 1017.67,-26.28"/>
</a>
</g>
</g>
<!-- Node28&#45;&gt;Node20 -->
<g id="edge42_Node000028_Node000020" class="edge">
<title>Node28&#45;&gt;Node20</title>
<g id="a_edge42_Node000028_Node000020"><a xlink:title=" ">
<path fill="none" stroke="#63b8ff" d="M419.35,-290.13C597.17,-279.1 1018.69,-246.61 1018.69,-186.5 1018.69,-186.5 1018.69,-186.5 1018.69,-129.5 1018.69,-86.38 982.42,-46.73 959.35,-25.87"/>
<polygon fill="#63b8ff" stroke="#63b8ff" points="961.37,-23 951.53,-19.07 956.77,-28.28 961.37,-23"/>
</a>
</g>
</g>
<!-- Node28&#45;&gt;Node24 -->
<g id="edge38_Node000028_Node000024" class="edge">
<title>Node28&#45;&gt;Node24</title>
<g id="a_edge38_Node000028_Node000024"><a xlink:title=" ">
<path fill="none" stroke="#63b8ff" d="M419.38,-292.64C605.92,-287.81 1068.58,-273.6 1134.69,-250 1212.89,-222.09 1248.04,-214 1285.69,-140 1305.03,-101.98 1277.27,-52.7 1259.53,-27.29"/>
<polygon fill="#63b8ff" stroke="#63b8ff" points="1262.26,-25.1 1253.55,-19.07 1256.6,-29.22 1262.26,-25.1"/>
</a>
</g>
</g>
<!-- Node28&#45;&gt;Node29 -->
<g id="edge45_Node000028_Node000029" class="edge">
<title>Node28&#45;&gt;Node29</title>
<g id="a_edge45_Node000028_Node000029"><a xlink:title=" ">
<path fill="none" stroke="#63b8ff" d="M364.82,-285.98C388.51,-277.27 425.56,-263.63 452.39,-253.75"/>
<polygon fill="#63b8ff" stroke="#63b8ff" points="453.96,-256.91 462.13,-250.17 451.54,-250.34 453.96,-256.91"/>
</a>
</g>
</g>
<!-- Node31 -->
<g id="Node000031" class="node">
<title>Node31</title>
<g id="a_Node000031"><a xlink:href="qrule_8hpp.html" target="_top" xlink:title=" ">
<polygon fill="white" stroke="#666666" points="1276.69,-140 1122.69,-140 1122.69,-121 1276.69,-121 1276.69,-140"/>
<text text-anchor="middle" x="1199.69" y="-128" font-family="Helvetica,sans-Serif" font-size="10.00">vulpes/quadrature/qrule.hpp</text>
</a>
</g>
</g>
<!-- Node28&#45;&gt;Node31 -->
<g id="edge57_Node000028_Node000031" class="edge">
<title>Node28&#45;&gt;Node31</title>
<g id="a_edge57_Node000028_Node000031"><a xlink:title=" ">
<path fill="none" stroke="#63b8ff" d="M419.35,-293.64C602.18,-291.09 1048.9,-281.65 1108.69,-250 1150.77,-227.72 1179.29,-176.47 1192.06,-149.25"/>
<polygon fill="#63b8ff" stroke="#63b8ff" points="1195.26,-150.66 1196.18,-140.1 1188.88,-147.78 1195.26,-150.66"/>
</a>
</g>
</g>
<!-- Node29&#45;&gt;Node2 -->
<g id="edge50_Node000029_Node000002" class="edge">
<title>Node29&#45;&gt;Node2</title>
<g id="a_edge50_Node000029_Node000002"><a xlink:title=" ">
<path fill="none" stroke="#63b8ff" d="M428.18,-234.98C353.08,-228.64 217.36,-215.7 92.23,-195.1"/>
<polygon fill="#63b8ff" stroke="#63b8ff" points="92.52,-191.6 82.08,-193.4 91.37,-198.5 92.52,-191.6"/>
</a>
</g>
</g>
<!-- Node29&#45;&gt;Node5 -->
<g id="edge46_Node000029_Node000005" class="edge">
<title>Node29&#45;&gt;Node5</title>
<g id="a_edge46_Node000029_Node000005"><a xlink:title=" ">
<path fill="none" stroke="#63b8ff" d="M455.63,-231C410.45,-218.33 322.26,-194.07 246.69,-176 190.02,-162.45 124.22,-148.78 81.83,-140.23"/>
<polygon fill="#63b8ff" stroke="#63b8ff" points="82.33,-136.76 71.83,-138.23 80.95,-143.63 82.33,-136.76"/>
</a>
</g>
</g>
<!-- Node29&#45;&gt;Node7 -->
<g id="edge55_Node000029_Node000007" class="edge">
<title>Node29&#45;&gt;Node7</title>
<g id="a_edge55_Node000029_Node000007"><a xlink:title=" ">
<path fill="none" stroke="#63b8ff" d="M434.76,-230.98C378.92,-221.65 289.36,-206.67 229.78,-196.71"/>
<polygon fill="#63b8ff" stroke="#63b8ff" points="230.2,-193.24 219.76,-195.04 229.04,-200.14 230.2,-193.24"/>
</a>
</g>
</g>
<!-- Node29&#45;&gt;Node8 -->
<g id="edge51_Node000029_Node000008" class="edge">
<title>Node29&#45;&gt;Node8</title>
<g id="a_edge51_Node000029_Node000008"><a xlink:title=" ">
<path fill="none" stroke="#63b8ff" d="M475.82,-230.75C443.33,-202.28 336,-110.94 234.69,-55 208.64,-40.62 176.97,-28.57 153.8,-20.65"/>
<polygon fill="#63b8ff" stroke="#63b8ff" points="154.71,-17.27 144.11,-17.41 152.49,-23.9 154.71,-17.27"/>
</a>
</g>
</g>
<!-- Node29&#45;&gt;Node9 -->
<g id="edge56_Node000029_Node000009" class="edge">
<title>Node29&#45;&gt;Node9</title>
<g id="a_edge56_Node000029_Node000009"><a xlink:title=" ">
<path fill="none" stroke="#63b8ff" d="M495.4,-230.8C509.18,-218.49 535.2,-195.35 557.69,-176 569.07,-166.2 581.97,-155.36 592.2,-146.84"/>
<polygon fill="#63b8ff" stroke="#63b8ff" points="594.62,-149.38 600.07,-140.29 590.14,-144 594.62,-149.38"/>
</a>
</g>
</g>
<!-- Node29&#45;&gt;Node14 -->
<g id="edge53_Node000029_Node000014" class="edge">
<title>Node29&#45;&gt;Node14</title>
<g id="a_edge53_Node000029_Node000014"><a xlink:title=" ">
<path fill="none" stroke="#63b8ff" d="M538.8,-230.93C578.57,-223.67 633.94,-211.75 680.69,-195 804.6,-150.61 936.08,-60.33 984.93,-25.07"/>
<polygon fill="#63b8ff" stroke="#63b8ff" points="987.04,-27.86 993.07,-19.15 982.92,-22.2 987.04,-27.86"/>
</a>
</g>
</g>
<!-- Node29&#45;&gt;Node15 -->
<g id="edge54_Node000029_Node000015" class="edge">
<title>Node29&#45;&gt;Node15</title>
<g id="a_edge54_Node000029_Node000015"><a xlink:title=" ">
<path fill="none" stroke="#63b8ff" d="M543.26,-232.02C590.73,-225 659.47,-212.9 717.69,-195 876.22,-146.26 1055.28,-57.29 1120.35,-23.76"/>
<polygon fill="#63b8ff" stroke="#63b8ff" points="1122.18,-26.75 1129.46,-19.04 1118.97,-20.53 1122.18,-26.75"/>
</a>
</g>
</g>
<!-- Node29&#45;&gt;Node17 -->
<g id="edge48_Node000029_Node000017" class="edge">
<title>Node29&#45;&gt;Node17</title>
<g id="a_edge48_Node000029_Node000017"><a xlink:title=" ">
<path fill="none" stroke="#63b8ff" d="M486.94,-230.75C490.08,-210.54 499.45,-159.37 518.69,-121 535.3,-87.86 541.34,-78.88 569.69,-55 585.41,-41.76 605.72,-30.87 622.43,-23.17"/>
<polygon fill="#63b8ff" stroke="#63b8ff" points="624.07,-26.28 631.79,-19.02 621.23,-19.88 624.07,-26.28"/>
</a>
</g>
</g>
<!-- Node29&#45;&gt;Node20 -->
<g id="edge52_Node000029_Node000020" class="edge">
<title>Node29&#45;&gt;Node20</title>
<g id="a_edge52_Node000029_Node000020"><a xlink:title=" ">
<path fill="none" stroke="#63b8ff" d="M525.71,-230.92C558.37,-223.31 605.37,-210.92 644.69,-195 739.8,-156.49 762.19,-141.75 847.69,-85 875.39,-66.61 904.96,-41.95 923.14,-26.14"/>
<polygon fill="#63b8ff" stroke="#63b8ff" points="925.88,-28.39 931.09,-19.16 921.26,-23.13 925.88,-28.39"/>
</a>
</g>
</g>
<!-- Node29&#45;&gt;Node24 -->
<g id="edge49_Node000029_Node000024" class="edge">
<title>Node29&#45;&gt;Node24</title>
<g id="a_edge49_Node000029_Node000024"><a xlink:title=" ">
<path fill="none" stroke="#63b8ff" d="M543.42,-233.38C598.96,-226.72 684.97,-214.35 757.69,-195 938.16,-146.97 1144.52,-56.91 1218.49,-23.45"/>
<polygon fill="#63b8ff" stroke="#63b8ff" points="1220.38,-26.44 1228.03,-19.12 1217.48,-20.07 1220.38,-26.44"/>
</a>
</g>
</g>
<!-- Node30 -->
<g id="Node000030" class="node">
<title>Node30</title>
<g id="a_Node000030"><a xlink:title=" ">
<polygon fill="#e0e0e0" stroke="#999999" points="635.19,-195 566.19,-195 566.19,-176 635.19,-176 635.19,-195"/>
<text text-anchor="middle" x="600.69" y="-183" font-family="Helvetica,sans-Serif" font-size="10.00">petscvec.h</text>
</a>
</g>
</g>
<!-- Node29&#45;&gt;Node30 -->
<g id="edge47_Node000029_Node000030" class="edge">
<title>Node29&#45;&gt;Node30</title>
<g id="a_edge47_Node000029_Node000030"><a xlink:title=" ">
<path fill="none" stroke="#63b8ff" d="M504.16,-230.98C522.66,-222.46 551.37,-209.23 572.67,-199.41"/>
<polygon fill="#63b8ff" stroke="#63b8ff" points="574.26,-202.53 581.88,-195.17 571.33,-196.18 574.26,-202.53"/>
</a>
</g>
</g>
<!-- Node31&#45;&gt;Node14 -->
<g id="edge60_Node000031_Node000014" class="edge">
<title>Node31&#45;&gt;Node14</title>
<g id="a_edge60_Node000031_Node000014"><a xlink:title=" ">
<path fill="none" stroke="#63b8ff" d="M1181.52,-120.97C1163.85,-112.46 1136.42,-98.73 1113.69,-85 1093.74,-72.95 1089.9,-68.18 1070.69,-55 1056.02,-44.94 1039.41,-33.74 1026.52,-25.09"/>
<polygon fill="#63b8ff" stroke="#63b8ff" points="1028.13,-21.96 1017.88,-19.3 1024.24,-27.78 1028.13,-21.96"/>
</a>
</g>
</g>
<!-- Node31&#45;&gt;Node18 -->
<g id="edge58_Node000031_Node000018" class="edge">
<title>Node31&#45;&gt;Node18</title>
<g id="a_edge58_Node000031_Node000018"><a xlink:title=" ">
<path fill="none" stroke="#63b8ff" d="M1190.19,-120.94C1168.14,-101.06 1113.16,-51.49 1084.96,-26.07"/>
<polygon fill="#63b8ff" stroke="#63b8ff" points="1087.22,-23.4 1077.45,-19.3 1082.54,-28.6 1087.22,-23.4"/>
</a>
</g>
</g>
<!-- Node31&#45;&gt;Node24 -->
<g id="edge59_Node000031_Node000024" class="edge">
<title>Node31&#45;&gt;Node24</title>
<g id="a_edge59_Node000031_Node000024"><a xlink:title=" ">
<path fill="none" stroke="#63b8ff" d="M1204.71,-120.84C1209.69,-112.02 1217.34,-97.85 1222.69,-85 1230.42,-66.42 1237.23,-44.42 1241.61,-29.16"/>
<polygon fill="#63b8ff" stroke="#63b8ff" points="1245.02,-29.96 1244.34,-19.39 1238.28,-28.07 1245.02,-29.96"/>
</a>
</g>
</g>
<!-- Node32 -->
<g id="Node000032" class="node">
<title>Node32</title>
<g id="a_Node000032"><a xlink:href="vmath_8hpp.html" target="_top" xlink:title=" ">
<polygon fill="white" stroke="#666666" points="1458.69,-79.5 1330.69,-79.5 1330.69,-60.5 1458.69,-60.5 1458.69,-79.5"/>
<text text-anchor="middle" x="1394.69" y="-67.5" font-family="Helvetica,sans-Serif" font-size="10.00">vulpes/utils/vmath.hpp</text>
</a>
</g>
</g>
<!-- Node31&#45;&gt;Node32 -->
<g id="edge61_Node000031_Node000032" class="edge">
<title>Node31&#45;&gt;Node32</title>
<g id="a_edge61_Node000031_Node000032"><a xlink:title=" ">
<path fill="none" stroke="#63b8ff" d="M1228.04,-120.99C1261.98,-110.81 1318.95,-93.72 1356.68,-82.4"/>
<polygon fill="#63b8ff" stroke="#63b8ff" points="1357.73,-85.74 1366.3,-79.52 1355.72,-79.04 1357.73,-85.74"/>
</a>
</g>
</g>
<!-- Node32&#45;&gt;Node15 -->
<g id="edge67_Node000032_Node000015" class="edge">
<title>Node32&#45;&gt;Node15</title>
<g id="a_edge67_Node000032_Node000015"><a xlink:title=" ">
<path fill="none" stroke="#63b8ff" d="M1358.48,-60.49C1314.41,-50.14 1239.92,-32.64 1191.79,-21.33"/>
<polygon fill="#63b8ff" stroke="#63b8ff" points="1192.47,-17.9 1181.94,-19.02 1190.87,-24.71 1192.47,-17.9"/>
</a>
</g>
</g>
<!-- Node32&#45;&gt;Node24 -->
<g id="edge63_Node000032_Node000024" class="edge">
<title>Node32&#45;&gt;Node24</title>
<g id="a_edge63_Node000032_Node000024"><a xlink:title=" ">
<path fill="none" stroke="#63b8ff" d="M1373.17,-60.49C1348.07,-50.57 1306.37,-34.09 1277.76,-22.78"/>
<polygon fill="#63b8ff" stroke="#63b8ff" points="1278.82,-19.44 1268.23,-19.02 1276.25,-25.95 1278.82,-19.44"/>
</a>
</g>
</g>
<!-- Node33 -->
<g id="Node000033" class="node">
<title>Node33</title>
<g id="a_Node000033"><a xlink:title=" ">
<polygon fill="#e0e0e0" stroke="#999999" points="1502.19,-19 1443.19,-19 1443.19,0 1502.19,0 1502.19,-19"/>
<text text-anchor="middle" x="1472.69" y="-7" font-family="Helvetica,sans-Serif" font-size="10.00">gmpxx.h</text>
</a>
</g>
</g>
<!-- Node32&#45;&gt;Node33 -->
<g id="edge62_Node000032_Node000033" class="edge">
<title>Node32&#45;&gt;Node33</title>
<g id="a_edge62_Node000032_Node000033"><a xlink:title=" ">
<path fill="none" stroke="#63b8ff" d="M1406.2,-60.37C1418.52,-51.12 1438.31,-36.28 1453.1,-25.19"/>
<polygon fill="#63b8ff" stroke="#63b8ff" points="1455.23,-27.97 1461.13,-19.17 1451.03,-22.37 1455.23,-27.97"/>
</a>
</g>
</g>
<!-- Node34 -->
<g id="Node000034" class="node">
<title>Node34</title>
<g id="a_Node000034"><a xlink:title=" ">
<polygon fill="#e0e0e0" stroke="#999999" points="1570.69,-19 1520.69,-19 1520.69,0 1570.69,0 1570.69,-19"/>
<text text-anchor="middle" x="1545.69" y="-7" font-family="Helvetica,sans-Serif" font-size="10.00">cstdint</text>
</a>
</g>
</g>
<!-- Node32&#45;&gt;Node34 -->
<g id="edge64_Node000032_Node000034" class="edge">
<title>Node32&#45;&gt;Node34</title>
<g id="a_edge64_Node000032_Node000034"><a xlink:title=" ">
<path fill="none" stroke="#63b8ff" d="M1416.64,-60.49C1442.37,-50.53 1485.17,-33.95 1514.37,-22.63"/>
<polygon fill="#63b8ff" stroke="#63b8ff" points="1515.64,-25.89 1523.7,-19.02 1513.12,-19.37 1515.64,-25.89"/>
</a>
</g>
</g>
<!-- Node35 -->
<g id="Node000035" class="node">
<title>Node35</title>
<g id="a_Node000035"><a xlink:title=" ">
<polygon fill="#e0e0e0" stroke="#999999" points="1337.69,-19 1293.69,-19 1293.69,0 1337.69,0 1337.69,-19"/>
<text text-anchor="middle" x="1315.69" y="-7" font-family="Helvetica,sans-Serif" font-size="10.00">limits</text>
</a>
</g>
</g>
<!-- Node32&#45;&gt;Node35 -->
<g id="edge65_Node000032_Node000035" class="edge">
<title>Node32&#45;&gt;Node35</title>
<g id="a_edge65_Node000032_Node000035"><a xlink:title=" ">
<path fill="none" stroke="#63b8ff" d="M1383.03,-60.37C1370.55,-51.12 1350.51,-36.28 1335.53,-25.19"/>
<polygon fill="#63b8ff" stroke="#63b8ff" points="1337.51,-22.31 1327.39,-19.17 1333.35,-27.93 1337.51,-22.31"/>
</a>
</g>
</g>
<!-- Node36 -->
<g id="Node000036" class="node">
<title>Node36</title>
<g id="a_Node000036"><a xlink:title=" ">
<polygon fill="#e0e0e0" stroke="#999999" points="1425.19,-19 1356.19,-19 1356.19,0 1425.19,0 1425.19,-19"/>
<text text-anchor="middle" x="1390.69" y="-7" font-family="Helvetica,sans-Serif" font-size="10.00">type_traits</text>
</a>
</g>
</g>
<!-- Node32&#45;&gt;Node36 -->
<g id="edge66_Node000032_Node000036" class="edge">
<title>Node32&#45;&gt;Node36</title>
<g id="a_edge66_Node000032_Node000036"><a xlink:title=" ">
<path fill="none" stroke="#63b8ff" d="M1394.1,-60.37C1393.54,-52.25 1392.69,-39.81 1391.98,-29.39"/>
<polygon fill="#63b8ff" stroke="#63b8ff" points="1395.45,-28.91 1391.28,-19.17 1388.47,-29.38 1395.45,-28.91"/>
</a>
</g>
</g>
</g>
</svg>

<g id="navigator" transform="translate(0 0)" fill="#404254">
  <rect fill="#f2f5e9" fill-opacity="0.5" stroke="#606060" stroke-width=".5" x="0" y="0" width="60" height="60"/>
  <use id="zoomplus" xlink:href="#zoomPlus" x="17" y="9" onmousedown="handleZoom(evt,'in')"/>
  <use id="zoomminus" xlink:href="#zoomMin" x="42" y="9" onmousedown="handleZoom(evt,'out')"/>
  <use id="reset" xlink:href="#resetDef" x="30" y="36" onmousedown="handleReset()"/>
   <use id="arrowup" xlink:href="#arrowUp" x="0" y="0" onmousedown="handlePan(0,-1)"/>
  <use id="arrowright" xlink:href="#arrowRight" x="0" y="0" onmousedown="handlePan(1,0)"/>
  <use id="arrowdown" xlink:href="#arrowDown" x="0" y="0" onmousedown="handlePan(0,1)"/>
  <use id="arrowleft" xlink:href="#arrowLeft" x="0" y="0" onmousedown="handlePan(-1,0)"/>
</g>
<svg viewBox="0 0 15 15" width="100%" height="30px" preserveAspectRatio="xMaxYMin meet">
 <g id="arrow_out" transform="scale(0.3 0.3)">
  <a xlink:href="solvermfk_8hpp__incl_org.svg" target="_base">
   <rect id="button" ry="5" rx="5" y="6" x="6" height="38" width="38"
        fill="#f2f5e9" fill-opacity="0.5" stroke="#606060" stroke-width="1.0"/>
   <path id="arrow"
     d="M 11.500037,31.436501 C 11.940474,20.09759 22.043105,11.32322 32.158766,21.979434 L 37.068811,17.246167 C 37.068811,17.246167 37.088388,32 37.088388,32 L 22.160133,31.978069 C 22.160133,31.978069 26.997745,27.140456 26.997745,27.140456 C 18.528582,18.264221 13.291696,25.230495 11.500037,31.436501 z"
     style="fill:#404040;"/>
  </a>
 </g>
</svg>

<style type='text/css'>
<![CDATA[
[data-mouse-over-selected='false'] { opacity: 0.7; }
[data-mouse-over-selected='true']  { opacity: 1.0; }
]]>
</style>
<script type="application/ecmascript"><![CDATA[
document.addEventListener('DOMContentLoaded', (event) => {
  highlightEdges();
  highlightAdjacentNodes();
});
]]></script>
</svg>
