<?xml version="1.0" encoding="UTF-8" standalone="no"?>
<!DOCTYPE svg PUBLIC "-//W3C//DTD SVG 1.1//EN"
 "http://www.w3.org/Graphics/SVG/1.1/DTD/svg11.dtd">
<!-- Generated by graphviz version 12.2.1 (20241206.2353)
 -->
<!-- Title: /Users/ilariomazzieri/Desktop/vulpes/vulpes/polynomials/sparse_polynomial.hpp Pages: 1 -->
<svg width="1203pt" height="305pt"
 viewBox="0.00 0.00 1202.87 304.50" xmlns="http://www.w3.org/2000/svg" xmlns:xlink="http://www.w3.org/1999/xlink">
<g id="graph0" class="graph" transform="scale(1 1) rotate(0) translate(4 300.5)">
<title>/Users/ilariomazzieri/Desktop/vulpes/vulpes/polynomials/sparse_polynomial.hpp</title>
<!-- Node1 -->
<g id="Node000001" class="node">
<title>Node1</title>
<g id="a_Node000001"><a xlink:title=" ">
<polygon fill="#999999" stroke="#666666" points="858.87,-296.5 685.37,-296.5 685.37,-254.75 858.87,-254.75 858.87,-296.5"/>
<text text-anchor="start" x="693.37" y="-283" font-family="Helvetica,sans-Serif" font-size="10.00">/Users/ilariomazzieri</text>
<text text-anchor="start" x="693.37" y="-271.75" font-family="Helvetica,sans-Serif" font-size="10.00">/Desktop/vulpes/vulpes</text>
<text text-anchor="middle" x="772.12" y="-260.5" font-family="Helvetica,sans-Serif" font-size="10.00">/polynomials/sparse_polynomial.hpp</text>
</a>
</g>
</g>
<!-- Node2 -->
<g id="Node000002" class="node">
<title>Node2</title>
<g id="a_Node000002"><a xlink:title=" ">
<polygon fill="#e0e0e0" stroke="#999999" points="883.99,-80.12 828.24,-80.12 828.24,-60.88 883.99,-60.88 883.99,-80.12"/>
<text text-anchor="middle" x="856.12" y="-66.62" font-family="Helvetica,sans-Serif" font-size="10.00">algorithm</text>
</a>
</g>
</g>
<!-- Node1&#45;&gt;Node2 -->
<g id="edge1_Node000001_Node000002" class="edge">
<title>Node1&#45;&gt;Node2</title>
<g id="a_edge1_Node000001_Node000002"><a xlink:title=" ">
<path fill="none" stroke="#63b8ff" d="M778.91,-254.54C789.07,-225.03 809.28,-168.4 830.12,-121.75 834.79,-111.29 840.6,-99.94 845.54,-90.67"/>
<polygon fill="#63b8ff" stroke="#63b8ff" points="848.58,-92.39 850.28,-81.94 842.43,-89.06 848.58,-92.39"/>
</a>
</g>
</g>
<!-- Node3 -->
<g id="Node000003" class="node">
<title>Node3</title>
<g id="a_Node000003"><a xlink:title=" ">
<polygon fill="#e0e0e0" stroke="#999999" points="85.24,-19.25 36.99,-19.25 36.99,0 85.24,0 85.24,-19.25"/>
<text text-anchor="middle" x="61.12" y="-5.75" font-family="Helvetica,sans-Serif" font-size="10.00">cstddef</text>
</a>
</g>
</g>
<!-- Node1&#45;&gt;Node3 -->
<g id="edge2_Node000001_Node000003" class="edge">
<title>Node1&#45;&gt;Node3</title>
<g id="a_edge2_Node000001_Node000003"><a xlink:title=" ">
<path fill="none" stroke="#63b8ff" d="M685.16,-275.47C529.65,-275.64 211.12,-269.53 114.12,-218.75 46.16,-183.18 30.1,-157.93 4.12,-85.75 -0.48,-73 -1.82,-67.44 4.12,-55.25 10.1,-42.97 21.28,-33.07 32.17,-25.74"/>
<polygon fill="#63b8ff" stroke="#63b8ff" points="33.95,-28.76 40.63,-20.54 30.28,-22.79 33.95,-28.76"/>
</a>
</g>
</g>
<!-- Node4 -->
<g id="Node000004" class="node">
<title>Node4</title>
<g id="a_Node000004"><a xlink:title=" ">
<polygon fill="#e0e0e0" stroke="#999999" points="72.74,-80.12 21.49,-80.12 21.49,-60.88 72.74,-60.88 72.74,-80.12"/>
<text text-anchor="middle" x="47.12" y="-66.62" font-family="Helvetica,sans-Serif" font-size="10.00">ostream</text>
</a>
</g>
</g>
<!-- Node1&#45;&gt;Node4 -->
<g id="edge3_Node000001_Node000004" class="edge">
<title>Node1&#45;&gt;Node4</title>
<g id="a_edge3_Node000001_Node000004"><a xlink:title=" ">
<path fill="none" stroke="#63b8ff" d="M684.99,-273.26C539.83,-269.88 255.44,-258.28 164.12,-218.75 123.23,-201.05 116.52,-187.38 89.12,-152.25 74.27,-133.22 62.19,-108.15 54.86,-91.02"/>
<polygon fill="#63b8ff" stroke="#63b8ff" points="58.19,-89.92 51.14,-82.01 51.71,-92.59 58.19,-89.92"/>
</a>
</g>
</g>
<!-- Node5 -->
<g id="Node000005" class="node">
<title>Node5</title>
<g id="a_Node000005"><a xlink:title=" ">
<polygon fill="#e0e0e0" stroke="#999999" points="1194.87,-213.12 1165.37,-213.12 1165.37,-193.88 1194.87,-193.88 1194.87,-213.12"/>
<text text-anchor="middle" x="1180.12" y="-199.62" font-family="Helvetica,sans-Serif" font-size="10.00">set</text>
</a>
</g>
</g>
<!-- Node1&#45;&gt;Node5 -->
<g id="edge4_Node000001_Node000005" class="edge">
<title>Node1&#45;&gt;Node5</title>
<g id="a_edge4_Node000001_Node000005"><a xlink:title=" ">
<path fill="none" stroke="#63b8ff" d="M859.23,-269.48C937.17,-263.07 1053.79,-249.02 1151.12,-218.75 1152.29,-218.38 1153.48,-217.97 1154.68,-217.53"/>
<polygon fill="#63b8ff" stroke="#63b8ff" points="1155.98,-220.78 1163.74,-213.57 1153.18,-214.37 1155.98,-220.78"/>
</a>
</g>
</g>
<!-- Node6 -->
<g id="Node000006" class="node">
<title>Node6</title>
<g id="a_Node000006"><a xlink:title=" ">
<polygon fill="#e0e0e0" stroke="#999999" points="1108.74,-80.12 1069.49,-80.12 1069.49,-60.88 1108.74,-60.88 1108.74,-80.12"/>
<text text-anchor="middle" x="1089.12" y="-66.62" font-family="Helvetica,sans-Serif" font-size="10.00">utility</text>
</a>
</g>
</g>
<!-- Node1&#45;&gt;Node6 -->
<g id="edge5_Node000001_Node000006" class="edge">
<title>Node1&#45;&gt;Node6</title>
<g id="a_edge5_Node000001_Node000006"><a xlink:title=" ">
<path fill="none" stroke="#63b8ff" d="M803.67,-254.41C867.21,-213.69 1009.31,-122.64 1065.55,-86.6"/>
<polygon fill="#63b8ff" stroke="#63b8ff" points="1067.21,-89.7 1073.74,-81.35 1063.43,-83.8 1067.21,-89.7"/>
</a>
</g>
</g>
<!-- Node7 -->
<g id="Node000007" class="node">
<title>Node7</title>
<g id="a_Node000007"><a xlink:title=" ">
<polygon fill="#e0e0e0" stroke="#999999" points="528.62,-19.25 485.62,-19.25 485.62,0 528.62,0 528.62,-19.25"/>
<text text-anchor="middle" x="507.12" y="-5.75" font-family="Helvetica,sans-Serif" font-size="10.00">vector</text>
</a>
</g>
</g>
<!-- Node1&#45;&gt;Node7 -->
<g id="edge6_Node000001_Node000007" class="edge">
<title>Node1&#45;&gt;Node7</title>
<g id="a_edge6_Node000001_Node000007"><a xlink:title=" ">
<path fill="none" stroke="#63b8ff" d="M859.18,-255.27C988.61,-222.79 1207.4,-151.3 1118.12,-55.25 1078.6,-12.75 662.36,-10.28 540.47,-10.48"/>
<polygon fill="#63b8ff" stroke="#63b8ff" points="540.49,-6.98 530.5,-10.5 540.5,-13.98 540.49,-6.98"/>
</a>
</g>
</g>
<!-- Node8 -->
<g id="Node000008" class="node">
<title>Node8</title>
<g id="a_Node000008"><a xlink:href="crs__map_8hpp.html" target="_top" xlink:title=" ">
<polygon fill="white" stroke="#666666" points="943.37,-152.25 838.87,-152.25 838.87,-121.75 943.37,-121.75 943.37,-152.25"/>
<text text-anchor="start" x="846.87" y="-138.75" font-family="Helvetica,sans-Serif" font-size="10.00">vulpes/datastructure</text>
<text text-anchor="middle" x="891.12" y="-127.5" font-family="Helvetica,sans-Serif" font-size="10.00">/crs_map.hpp</text>
</a>
</g>
</g>
<!-- Node1&#45;&gt;Node8 -->
<g id="edge7_Node000001_Node000008" class="edge">
<title>Node1&#45;&gt;Node8</title>
<g id="a_edge7_Node000001_Node000008"><a xlink:title=" ">
<path fill="none" stroke="#63b8ff" d="M790.96,-254.37C800.67,-243.84 812.64,-230.7 823.12,-218.75 839.78,-199.74 858.23,-177.78 871.7,-161.56"/>
<polygon fill="#63b8ff" stroke="#63b8ff" points="874.36,-163.84 878.04,-153.9 868.97,-159.37 874.36,-163.84"/>
</a>
</g>
</g>
<!-- Node12 -->
<g id="Node000012" class="node">
<title>Node12</title>
<g id="a_Node000012"><a xlink:href="monomial_8hpp.html" target="_top" xlink:title=" ">
<polygon fill="white" stroke="#666666" points="743.74,-152.25 644.49,-152.25 644.49,-121.75 743.74,-121.75 743.74,-152.25"/>
<text text-anchor="start" x="652.49" y="-138.75" font-family="Helvetica,sans-Serif" font-size="10.00">vulpes/polynomials</text>
<text text-anchor="middle" x="694.12" y="-127.5" font-family="Helvetica,sans-Serif" font-size="10.00">/monomial.hpp</text>
</a>
</g>
</g>
<!-- Node1&#45;&gt;Node12 -->
<g id="edge15_Node000001_Node000012" class="edge">
<title>Node1&#45;&gt;Node12</title>
<g id="a_edge15_Node000001_Node000012"><a xlink:title=" ">
<path fill="none" stroke="#63b8ff" d="M760.61,-254.47C746.6,-229.94 722.98,-188.55 707.98,-162.29"/>
<polygon fill="#63b8ff" stroke="#63b8ff" points="711.07,-160.64 703.08,-153.69 704.99,-164.11 711.07,-160.64"/>
</a>
</g>
</g>
<!-- Node16 -->
<g id="Node000016" class="node">
<title>Node16</title>
<g id="a_Node000016"><a xlink:href="vmath_8hpp.html" target="_top" xlink:title=" ">
<polygon fill="white" stroke="#666666" points="319.24,-80.12 204.99,-80.12 204.99,-60.88 319.24,-60.88 319.24,-80.12"/>
<text text-anchor="middle" x="262.12" y="-66.62" font-family="Helvetica,sans-Serif" font-size="10.00">vulpes/utils/vmath.hpp</text>
</a>
</g>
</g>
<!-- Node1&#45;&gt;Node16 -->
<g id="edge44_Node000001_Node000016" class="edge">
<title>Node1&#45;&gt;Node16</title>
<g id="a_edge44_Node000001_Node000016"><a xlink:title=" ">
<path fill="none" stroke="#63b8ff" d="M721.35,-254.41C617.32,-212.97 382.41,-119.41 295.38,-84.75"/>
<polygon fill="#63b8ff" stroke="#63b8ff" points="296.8,-81.55 286.21,-81.1 294.21,-88.05 296.8,-81.55"/>
</a>
</g>
</g>
<!-- Node21 -->
<g id="Node000021" class="node">
<title>Node21</title>
<g id="a_Node000021"><a xlink:href="polynomial1d_8hpp.html" target="_top" xlink:title=" ">
<polygon fill="white" stroke="#666666" points="272.74,-218.75 173.49,-218.75 173.49,-188.25 272.74,-188.25 272.74,-218.75"/>
<text text-anchor="start" x="181.49" y="-205.25" font-family="Helvetica,sans-Serif" font-size="10.00">vulpes/polynomials</text>
<text text-anchor="middle" x="223.12" y="-194" font-family="Helvetica,sans-Serif" font-size="10.00">/polynomial1d.hpp</text>
</a>
</g>
</g>
<!-- Node1&#45;&gt;Node21 -->
<g id="edge30_Node000001_Node000021" class="edge">
<title>Node1&#45;&gt;Node21</title>
<g id="a_edge30_Node000001_Node000021"><a xlink:title=" ">
<path fill="none" stroke="#63b8ff" d="M685.13,-263.51C573.3,-249.23 381.95,-224.79 284.32,-212.32"/>
<polygon fill="#63b8ff" stroke="#63b8ff" points="285.03,-208.88 274.67,-211.09 284.15,-215.82 285.03,-208.88"/>
</a>
</g>
</g>
<!-- Node8&#45;&gt;Node2 -->
<g id="edge8_Node000008_Node000002" class="edge">
<title>Node8&#45;&gt;Node2</title>
<g id="a_edge8_Node000008_Node000002"><a xlink:title=" ">
<path fill="none" stroke="#63b8ff" d="M883.17,-121.36C878.19,-112.18 871.72,-100.25 866.35,-90.36"/>
<polygon fill="#63b8ff" stroke="#63b8ff" points="869.47,-88.77 861.63,-81.65 863.32,-92.11 869.47,-88.77"/>
</a>
</g>
</g>
<!-- Node8&#45;&gt;Node4 -->
<g id="edge11_Node000008_Node000004" class="edge">
<title>Node8&#45;&gt;Node4</title>
<g id="a_edge11_Node000008_Node000004"><a xlink:title=" ">
<path fill="none" stroke="#63b8ff" d="M838.41,-130.08C812.7,-127.31 781.32,-124.12 753.12,-121.75 505.91,-101.01 443.4,-105.56 196.12,-85.75 158.04,-82.7 114.57,-78.45 84.45,-75.39"/>
<polygon fill="#63b8ff" stroke="#63b8ff" points="85.01,-71.93 74.71,-74.39 84.3,-78.9 85.01,-71.93"/>
</a>
</g>
</g>
<!-- Node8&#45;&gt;Node6 -->
<g id="edge12_Node000008_Node000006" class="edge">
<title>Node8&#45;&gt;Node6</title>
<g id="a_edge12_Node000008_Node000006"><a xlink:title=" ">
<path fill="none" stroke="#63b8ff" d="M943.66,-123.14C977.69,-114.16 1022.66,-101.07 1061.12,-85.75 1061.47,-85.61 1061.82,-85.47 1062.17,-85.32"/>
<polygon fill="#63b8ff" stroke="#63b8ff" points="1063.46,-88.58 1071.09,-81.23 1060.54,-82.22 1063.46,-88.58"/>
</a>
</g>
</g>
<!-- Node8&#45;&gt;Node7 -->
<g id="edge14_Node000008_Node000007" class="edge">
<title>Node8&#45;&gt;Node7</title>
<g id="a_edge14_Node000008_Node000007"><a xlink:title=" ">
<path fill="none" stroke="#63b8ff" d="M917.99,-121.44C944.89,-105.06 979.54,-77.8 959.12,-55.25 931.1,-24.33 640.4,-14.03 540.56,-11.39"/>
<polygon fill="#63b8ff" stroke="#63b8ff" points="540.7,-7.9 530.61,-11.14 540.52,-14.89 540.7,-7.9"/>
</a>
</g>
</g>
<!-- Node9 -->
<g id="Node000009" class="node">
<title>Node9</title>
<g id="a_Node000009"><a xlink:title=" ">
<polygon fill="#e0e0e0" stroke="#999999" points="809.99,-80.12 772.24,-80.12 772.24,-60.88 809.99,-60.88 809.99,-80.12"/>
<text text-anchor="middle" x="791.12" y="-66.62" font-family="Helvetica,sans-Serif" font-size="10.00">array</text>
</a>
</g>
</g>
<!-- Node8&#45;&gt;Node9 -->
<g id="edge9_Node000008_Node000009" class="edge">
<title>Node8&#45;&gt;Node9</title>
<g id="a_edge9_Node000008_Node000009"><a xlink:title=" ">
<path fill="none" stroke="#63b8ff" d="M868.42,-121.36C852.29,-110.96 830.7,-97.03 814.43,-86.54"/>
<polygon fill="#63b8ff" stroke="#63b8ff" points="816.66,-83.81 806.36,-81.33 812.86,-89.69 816.66,-83.81"/>
</a>
</g>
</g>
<!-- Node10 -->
<g id="Node000010" class="node">
<title>Node10</title>
<g id="a_Node000010"><a xlink:title=" ">
<polygon fill="#e0e0e0" stroke="#999999" points="950.24,-80.12 901.99,-80.12 901.99,-60.88 950.24,-60.88 950.24,-80.12"/>
<text text-anchor="middle" x="926.12" y="-66.62" font-family="Helvetica,sans-Serif" font-size="10.00">cassert</text>
</a>
</g>
</g>
<!-- Node8&#45;&gt;Node10 -->
<g id="edge10_Node000008_Node000010" class="edge">
<title>Node8&#45;&gt;Node10</title>
<g id="a_edge10_Node000008_Node000010"><a xlink:title=" ">
<path fill="none" stroke="#63b8ff" d="M899.06,-121.36C904.04,-112.18 910.51,-100.25 915.88,-90.36"/>
<polygon fill="#63b8ff" stroke="#63b8ff" points="918.91,-92.11 920.61,-81.65 912.76,-88.77 918.91,-92.11"/>
</a>
</g>
</g>
<!-- Node11 -->
<g id="Node000011" class="node">
<title>Node11</title>
<g id="a_Node000011"><a xlink:title=" ">
<polygon fill="#e0e0e0" stroke="#999999" points="1051.74,-80.12 1006.49,-80.12 1006.49,-60.88 1051.74,-60.88 1051.74,-80.12"/>
<text text-anchor="middle" x="1029.12" y="-66.62" font-family="Helvetica,sans-Serif" font-size="10.00">variant</text>
</a>
</g>
</g>
<!-- Node8&#45;&gt;Node11 -->
<g id="edge13_Node000008_Node000011" class="edge">
<title>Node8&#45;&gt;Node11</title>
<g id="a_edge13_Node000008_Node000011"><a xlink:title=" ">
<path fill="none" stroke="#63b8ff" d="M922.43,-121.36C945.53,-110.57 976.76,-95.97 999.45,-85.36"/>
<polygon fill="#63b8ff" stroke="#63b8ff" points="1000.89,-88.56 1008.47,-81.15 997.93,-82.21 1000.89,-88.56"/>
</a>
</g>
</g>
<!-- Node12&#45;&gt;Node2 -->
<g id="edge16_Node000012_Node000002" class="edge">
<title>Node12&#45;&gt;Node2</title>
<g id="a_edge16_Node000012_Node000002"><a xlink:title=" ">
<path fill="none" stroke="#63b8ff" d="M730.88,-121.36C758.61,-110.32 796.32,-95.31 823.1,-84.65"/>
<polygon fill="#63b8ff" stroke="#63b8ff" points="824.08,-88.02 832.08,-81.07 821.5,-81.52 824.08,-88.02"/>
</a>
</g>
</g>
<!-- Node12&#45;&gt;Node3 -->
<g id="edge20_Node000012_Node000003" class="edge">
<title>Node12&#45;&gt;Node3</title>
<g id="a_edge20_Node000012_Node000003"><a xlink:title=" ">
<path fill="none" stroke="#63b8ff" d="M644.14,-133.53C535.06,-127.73 278.82,-111.71 196.12,-85.75 173.37,-78.61 117.12,-45.16 84.86,-25.39"/>
<polygon fill="#63b8ff" stroke="#63b8ff" points="86.94,-22.56 76.59,-20.29 83.27,-28.52 86.94,-22.56"/>
</a>
</g>
</g>
<!-- Node12&#45;&gt;Node9 -->
<g id="edge17_Node000012_Node000009" class="edge">
<title>Node12&#45;&gt;Node9</title>
<g id="a_edge17_Node000012_Node000009"><a xlink:title=" ">
<path fill="none" stroke="#63b8ff" d="M716.13,-121.36C731.62,-111.06 752.33,-97.29 768.06,-86.83"/>
<polygon fill="#63b8ff" stroke="#63b8ff" points="769.92,-89.8 776.31,-81.35 766.04,-83.97 769.92,-89.8"/>
</a>
</g>
</g>
<!-- Node12&#45;&gt;Node10 -->
<g id="edge18_Node000012_Node000010" class="edge">
<title>Node12&#45;&gt;Node10</title>
<g id="a_edge18_Node000012_Node000010"><a xlink:title=" ">
<path fill="none" stroke="#63b8ff" d="M744.24,-125.68C784.87,-116.76 843.35,-102.66 893.12,-85.75 894.07,-85.43 895.04,-85.08 896.01,-84.73"/>
<polygon fill="#63b8ff" stroke="#63b8ff" points="897,-88.1 905.02,-81.17 894.43,-81.59 897,-88.1"/>
</a>
</g>
</g>
<!-- Node13 -->
<g id="Node000013" class="node">
<title>Node13</title>
<g id="a_Node000013"><a xlink:title=" ">
<polygon fill="#e0e0e0" stroke="#999999" points="616.62,-80.12 573.62,-80.12 573.62,-60.88 616.62,-60.88 616.62,-80.12"/>
<text text-anchor="middle" x="595.12" y="-66.62" font-family="Helvetica,sans-Serif" font-size="10.00">cmath</text>
</a>
</g>
</g>
<!-- Node12&#45;&gt;Node13 -->
<g id="edge19_Node000012_Node000013" class="edge">
<title>Node12&#45;&gt;Node13</title>
<g id="a_edge19_Node000012_Node000013"><a xlink:title=" ">
<path fill="none" stroke="#63b8ff" d="M671.65,-121.36C655.68,-110.96 634.3,-97.03 618.19,-86.54"/>
<polygon fill="#63b8ff" stroke="#63b8ff" points="620.5,-83.86 610.21,-81.34 616.68,-89.73 620.5,-83.86"/>
</a>
</g>
</g>
<!-- Node14 -->
<g id="Node000014" class="node">
<title>Node14</title>
<g id="a_Node000014"><a xlink:title=" ">
<polygon fill="#e0e0e0" stroke="#999999" points="446.99,-19.25 385.24,-19.25 385.24,0 446.99,0 446.99,-19.25"/>
<text text-anchor="middle" x="416.12" y="-5.75" font-family="Helvetica,sans-Serif" font-size="10.00">type_traits</text>
</a>
</g>
</g>
<!-- Node12&#45;&gt;Node14 -->
<g id="edge21_Node000012_Node000014" class="edge">
<title>Node12&#45;&gt;Node14</title>
<g id="a_edge21_Node000012_Node000014"><a xlink:title=" ">
<path fill="none" stroke="#63b8ff" d="M653.33,-121.25C627.74,-111.72 594.2,-98.71 565.12,-85.75 521.52,-66.32 472.32,-40.78 442.79,-25.05"/>
<polygon fill="#63b8ff" stroke="#63b8ff" points="444.65,-22.07 434.18,-20.44 441.34,-28.24 444.65,-22.07"/>
</a>
</g>
</g>
<!-- Node15 -->
<g id="Node000015" class="node">
<title>Node15</title>
<g id="a_Node000015"><a xlink:href="macros_8hpp.html" target="_top" xlink:title=" ">
<polygon fill="white" stroke="#666666" points="753.87,-80.12 634.37,-80.12 634.37,-60.88 753.87,-60.88 753.87,-80.12"/>
<text text-anchor="middle" x="694.12" y="-66.62" font-family="Helvetica,sans-Serif" font-size="10.00">vulpes/utils/macros.hpp</text>
</a>
</g>
</g>
<!-- Node12&#45;&gt;Node15 -->
<g id="edge22_Node000012_Node000015" class="edge">
<title>Node12&#45;&gt;Node15</title>
<g id="a_edge22_Node000012_Node000015"><a xlink:title=" ">
<path fill="none" stroke="#63b8ff" d="M694.12,-121.36C694.12,-112.58 694.12,-101.27 694.12,-91.65"/>
<polygon fill="#63b8ff" stroke="#63b8ff" points="697.62,-91.84 694.12,-81.84 690.62,-91.84 697.62,-91.84"/>
</a>
</g>
</g>
<!-- Node12&#45;&gt;Node16 -->
<g id="edge23_Node000012_Node000016" class="edge">
<title>Node12&#45;&gt;Node16</title>
<g id="a_edge23_Node000012_Node000016"><a xlink:title=" ">
<path fill="none" stroke="#63b8ff" d="M644.02,-128.7C628.36,-126.44 611.02,-123.97 595.12,-121.75 476.52,-105.22 446.06,-106.4 328.12,-85.75 323.18,-84.89 318.04,-83.91 312.92,-82.89"/>
<polygon fill="#63b8ff" stroke="#63b8ff" points="313.79,-79.49 303.29,-80.9 312.37,-86.35 313.79,-79.49"/>
</a>
</g>
</g>
<!-- Node16&#45;&gt;Node3 -->
<g id="edge25_Node000016_Node000003" class="edge">
<title>Node16&#45;&gt;Node3</title>
<g id="a_edge25_Node000016_Node000003"><a xlink:title=" ">
<path fill="none" stroke="#63b8ff" d="M231.15,-60.43C194.67,-49.74 134.21,-32.03 96.07,-20.86"/>
<polygon fill="#63b8ff" stroke="#63b8ff" points="97.51,-17.64 86.93,-18.19 95.54,-24.36 97.51,-17.64"/>
</a>
</g>
</g>
<!-- Node16&#45;&gt;Node14 -->
<g id="edge28_Node000016_Node000014" class="edge">
<title>Node16&#45;&gt;Node14</title>
<g id="a_edge28_Node000016_Node000014"><a xlink:title=" ">
<path fill="none" stroke="#63b8ff" d="M285.84,-60.43C311.5,-50.62 352.65,-34.89 381.82,-23.73"/>
<polygon fill="#63b8ff" stroke="#63b8ff" points="382.86,-27.09 390.95,-20.25 380.36,-20.55 382.86,-27.09"/>
</a>
</g>
</g>
<!-- Node17 -->
<g id="Node000017" class="node">
<title>Node17</title>
<g id="a_Node000017"><a xlink:title=" ">
<polygon fill="#e0e0e0" stroke="#999999" points="246.87,-19.25 193.37,-19.25 193.37,0 246.87,0 246.87,-19.25"/>
<text text-anchor="middle" x="220.12" y="-5.75" font-family="Helvetica,sans-Serif" font-size="10.00">gmpxx.h</text>
</a>
</g>
</g>
<!-- Node16&#45;&gt;Node17 -->
<g id="edge24_Node000016_Node000017" class="edge">
<title>Node16&#45;&gt;Node17</title>
<g id="a_edge24_Node000016_Node000017"><a xlink:title=" ">
<path fill="none" stroke="#63b8ff" d="M255.74,-60.56C249.75,-52.17 240.63,-39.38 233.11,-28.84"/>
<polygon fill="#63b8ff" stroke="#63b8ff" points="236.09,-26.99 227.43,-20.88 230.39,-31.06 236.09,-26.99"/>
</a>
</g>
</g>
<!-- Node18 -->
<g id="Node000018" class="node">
<title>Node18</title>
<g id="a_Node000018"><a xlink:title=" ">
<polygon fill="#e0e0e0" stroke="#999999" points="309.74,-19.25 264.49,-19.25 264.49,0 309.74,0 309.74,-19.25"/>
<text text-anchor="middle" x="287.12" y="-5.75" font-family="Helvetica,sans-Serif" font-size="10.00">cstdint</text>
</a>
</g>
</g>
<!-- Node16&#45;&gt;Node18 -->
<g id="edge26_Node000016_Node000018" class="edge">
<title>Node16&#45;&gt;Node18</title>
<g id="a_edge26_Node000016_Node000018"><a xlink:title=" ">
<path fill="none" stroke="#63b8ff" d="M265.91,-60.56C269.33,-52.52 274.46,-40.43 278.82,-30.16"/>
<polygon fill="#63b8ff" stroke="#63b8ff" points="282,-31.62 282.69,-21.04 275.56,-28.88 282,-31.62"/>
</a>
</g>
</g>
<!-- Node19 -->
<g id="Node000019" class="node">
<title>Node19</title>
<g id="a_Node000019"><a xlink:title=" ">
<polygon fill="#e0e0e0" stroke="#999999" points="366.74,-19.25 327.49,-19.25 327.49,0 366.74,0 366.74,-19.25"/>
<text text-anchor="middle" x="347.12" y="-5.75" font-family="Helvetica,sans-Serif" font-size="10.00">limits</text>
</a>
</g>
</g>
<!-- Node16&#45;&gt;Node19 -->
<g id="edge27_Node000016_Node000019" class="edge">
<title>Node16&#45;&gt;Node19</title>
<g id="a_edge27_Node000016_Node000019"><a xlink:title=" ">
<path fill="none" stroke="#63b8ff" d="M275.03,-60.56C288.26,-51.39 309.08,-36.97 324.95,-25.98"/>
<polygon fill="#63b8ff" stroke="#63b8ff" points="326.61,-29.08 332.84,-20.51 322.63,-23.33 326.61,-29.08"/>
</a>
</g>
</g>
<!-- Node20 -->
<g id="Node000020" class="node">
<title>Node20</title>
<g id="a_Node000020"><a xlink:title=" ">
<polygon fill="#e0e0e0" stroke="#999999" points="175.24,-19.25 102.99,-19.25 102.99,0 175.24,0 175.24,-19.25"/>
<text text-anchor="middle" x="139.12" y="-5.75" font-family="Helvetica,sans-Serif" font-size="10.00">Eigen/Dense</text>
</a>
</g>
</g>
<!-- Node16&#45;&gt;Node20 -->
<g id="edge29_Node000016_Node000020" class="edge">
<title>Node16&#45;&gt;Node20</title>
<g id="a_edge29_Node000016_Node000020"><a xlink:title=" ">
<path fill="none" stroke="#63b8ff" d="M243.17,-60.43C223.15,-50.85 191.35,-35.63 168.17,-24.53"/>
<polygon fill="#63b8ff" stroke="#63b8ff" points="169.78,-21.42 159.25,-20.26 166.76,-27.74 169.78,-21.42"/>
</a>
</g>
</g>
<!-- Node21&#45;&gt;Node3 -->
<g id="edge31_Node000021_Node000003" class="edge">
<title>Node21&#45;&gt;Node3</title>
<g id="a_edge31_Node000021_Node000003"><a xlink:title=" ">
<path fill="none" stroke="#63b8ff" d="M173.46,-192.67C120.69,-179.09 40.95,-148.75 12.12,-85.75 6.47,-73.42 6.64,-67.65 12.12,-55.25 17.28,-43.57 27.18,-33.63 36.73,-26.11"/>
<polygon fill="#63b8ff" stroke="#63b8ff" points="38.7,-29.01 44.76,-20.32 34.6,-23.33 38.7,-29.01"/>
</a>
</g>
</g>
<!-- Node21&#45;&gt;Node4 -->
<g id="edge32_Node000021_Node000004" class="edge">
<title>Node21&#45;&gt;Node4</title>
<g id="a_edge32_Node000021_Node000004"><a xlink:title=" ">
<path fill="none" stroke="#63b8ff" d="M187.94,-187.89C168.51,-179 144.46,-166.6 125.12,-152.25 100.02,-133.63 75.77,-106.67 61.14,-89.11"/>
<polygon fill="#63b8ff" stroke="#63b8ff" points="64.06,-87.14 55.02,-81.61 58.63,-91.57 64.06,-87.14"/>
</a>
</g>
</g>
<!-- Node21&#45;&gt;Node7 -->
<g id="edge33_Node000021_Node000007" class="edge">
<title>Node21&#45;&gt;Node7</title>
<g id="a_edge33_Node000021_Node000007"><a xlink:title=" ">
<path fill="none" stroke="#63b8ff" d="M273.05,-192.19C330.52,-177.84 424.15,-146.47 480.12,-85.75 494.19,-70.48 501.04,-47.36 504.3,-30.8"/>
<polygon fill="#63b8ff" stroke="#63b8ff" points="507.71,-31.59 505.9,-21.15 500.81,-30.44 507.71,-31.59"/>
</a>
</g>
</g>
<!-- Node21&#45;&gt;Node16 -->
<g id="edge43_Node000021_Node000016" class="edge">
<title>Node21&#45;&gt;Node16</title>
<g id="a_edge43_Node000021_Node000016"><a xlink:title=" ">
<path fill="none" stroke="#63b8ff" d="M229.65,-187.76C233.88,-177.85 239.28,-164.43 243.12,-152.25 249.52,-131.89 254.88,-108.04 258.26,-91.56"/>
<polygon fill="#63b8ff" stroke="#63b8ff" points="261.63,-92.55 260.14,-82.06 254.76,-91.19 261.63,-92.55"/>
</a>
</g>
</g>
<!-- Node22 -->
<g id="Node000022" class="node">
<title>Node22</title>
<g id="a_Node000022"><a xlink:href="polynomial_8hpp.html" target="_top" xlink:title=" ">
<polygon fill="white" stroke="#666666" points="233.74,-152.25 134.49,-152.25 134.49,-121.75 233.74,-121.75 233.74,-152.25"/>
<text text-anchor="start" x="142.49" y="-138.75" font-family="Helvetica,sans-Serif" font-size="10.00">vulpes/polynomials</text>
<text text-anchor="middle" x="184.12" y="-127.5" font-family="Helvetica,sans-Serif" font-size="10.00">/polynomial.hpp</text>
</a>
</g>
</g>
<!-- Node21&#45;&gt;Node22 -->
<g id="edge34_Node000021_Node000022" class="edge">
<title>Node21&#45;&gt;Node22</title>
<g id="a_edge34_Node000021_Node000022"><a xlink:title=" ">
<path fill="none" stroke="#63b8ff" d="M214.27,-187.86C209.68,-180.28 203.96,-170.81 198.73,-162.18"/>
<polygon fill="#63b8ff" stroke="#63b8ff" points="201.88,-160.62 193.71,-153.87 195.89,-164.24 201.88,-160.62"/>
</a>
</g>
</g>
<!-- Node22&#45;&gt;Node3 -->
<g id="edge35_Node000022_Node000003" class="edge">
<title>Node22&#45;&gt;Node3</title>
<g id="a_edge35_Node000022_Node000003"><a xlink:title=" ">
<path fill="none" stroke="#63b8ff" d="M170.01,-121.62C147.19,-98.36 102.29,-52.59 77.88,-27.71"/>
<polygon fill="#63b8ff" stroke="#63b8ff" points="80.45,-25.34 70.95,-20.65 75.46,-30.24 80.45,-25.34"/>
</a>
</g>
</g>
<!-- Node22&#45;&gt;Node4 -->
<g id="edge36_Node000022_Node000004" class="edge">
<title>Node22&#45;&gt;Node4</title>
<g id="a_edge36_Node000022_Node000004"><a xlink:title=" ">
<path fill="none" stroke="#63b8ff" d="M153.03,-121.36C130.1,-110.57 99.1,-95.97 76.56,-85.36"/>
<polygon fill="#63b8ff" stroke="#63b8ff" points="78.16,-82.25 67.62,-81.15 75.18,-88.58 78.16,-82.25"/>
</a>
</g>
</g>
<!-- Node22&#45;&gt;Node7 -->
<g id="edge37_Node000022_Node000007" class="edge">
<title>Node22&#45;&gt;Node7</title>
<g id="a_edge37_Node000022_Node000007"><a xlink:title=" ">
<path fill="none" stroke="#63b8ff" d="M234.09,-130.88C300.81,-123.33 414.7,-107.67 450.12,-85.75 471.93,-72.25 488.39,-47.13 497.88,-29.68"/>
<polygon fill="#63b8ff" stroke="#63b8ff" points="500.96,-31.35 502.41,-20.86 494.73,-28.16 500.96,-31.35"/>
</a>
</g>
</g>
<!-- Node22&#45;&gt;Node16 -->
<g id="edge42_Node000022_Node000016" class="edge">
<title>Node22&#45;&gt;Node16</title>
<g id="a_edge42_Node000022_Node000016"><a xlink:title=" ">
<path fill="none" stroke="#63b8ff" d="M201.82,-121.36C213.99,-111.29 230.17,-97.92 242.7,-87.56"/>
<polygon fill="#63b8ff" stroke="#63b8ff" points="244.8,-90.36 250.28,-81.29 240.34,-84.96 244.8,-90.36"/>
</a>
</g>
</g>
<!-- Node22&#45;&gt;Node20 -->
<g id="edge38_Node000022_Node000020" class="edge">
<title>Node22&#45;&gt;Node20</title>
<g id="a_edge38_Node000022_Node000020"><a xlink:title=" ">
<path fill="none" stroke="#63b8ff" d="M178.95,-121.62C170.9,-99.18 155.32,-55.78 146.22,-30.41"/>
<polygon fill="#63b8ff" stroke="#63b8ff" points="149.51,-29.22 142.84,-20.99 142.92,-31.59 149.51,-29.22"/>
</a>
</g>
</g>
<!-- Node23 -->
<g id="Node000023" class="node">
<title>Node23</title>
<g id="a_Node000023"><a xlink:href="datastructure_2tensor_8hpp.html" target="_top" xlink:title=" ">
<polygon fill="white" stroke="#666666" points="441.37,-85.75 336.87,-85.75 336.87,-55.25 441.37,-55.25 441.37,-85.75"/>
<text text-anchor="start" x="344.87" y="-72.25" font-family="Helvetica,sans-Serif" font-size="10.00">vulpes/datastructure</text>
<text text-anchor="middle" x="389.12" y="-61" font-family="Helvetica,sans-Serif" font-size="10.00">/tensor.hpp</text>
</a>
</g>
</g>
<!-- Node22&#45;&gt;Node23 -->
<g id="edge39_Node000022_Node000023" class="edge">
<title>Node22&#45;&gt;Node23</title>
<g id="a_edge39_Node000022_Node000023"><a xlink:title=" ">
<path fill="none" stroke="#63b8ff" d="M230.89,-121.28C260.81,-111.87 299.82,-99.6 331.62,-89.59"/>
<polygon fill="#63b8ff" stroke="#63b8ff" points="332.61,-92.95 341.1,-86.61 330.51,-86.27 332.61,-92.95"/>
</a>
</g>
</g>
<!-- Node23&#45;&gt;Node7 -->
<g id="edge41_Node000023_Node000007" class="edge">
<title>Node23&#45;&gt;Node7</title>
<g id="a_edge41_Node000023_Node000007"><a xlink:title=" ">
<path fill="none" stroke="#63b8ff" d="M418.59,-54.8C436.99,-45.61 460.56,-33.86 478.75,-24.78"/>
<polygon fill="#63b8ff" stroke="#63b8ff" points="480.28,-27.93 487.67,-20.33 477.15,-21.66 480.28,-27.93"/>
</a>
</g>
</g>
<!-- Node23&#45;&gt;Node14 -->
<g id="edge40_Node000023_Node000014" class="edge">
<title>Node23&#45;&gt;Node14</title>
<g id="a_edge40_Node000023_Node000014"><a xlink:title=" ">
<path fill="none" stroke="#63b8ff" d="M395.79,-54.95C399.23,-47.45 403.47,-38.2 407.19,-30.1"/>
<polygon fill="#63b8ff" stroke="#63b8ff" points="410.34,-31.63 411.32,-21.08 403.97,-28.71 410.34,-31.63"/>
</a>
</g>
</g>
</g>
</svg>
