<?xml version="1.0" encoding="UTF-8" standalone="no"?>
<!DOCTYPE svg PUBLIC "-//W3C//DTD SVG 1.1//EN"
 "http://www.w3.org/Graphics/SVG/1.1/DTD/svg11.dtd">
<!-- Generated by graphviz version 2.42.4 (0)
 -->
<!-- Title: /__w/vulpes/vulpes/vulpes/la/sparse_matrix.hpp Pages: 1 -->
<svg width="901pt" height="269pt"
 viewBox="0.00 0.00 901.00 269.00" xmlns="http://www.w3.org/2000/svg" xmlns:xlink="http://www.w3.org/1999/xlink">
<g id="graph0" class="graph" transform="scale(1 1) rotate(0) translate(4 265)">
<title>/__w/vulpes/vulpes/vulpes/la/sparse_matrix.hpp</title>
<!-- Node1 -->
<g id="Node000001" class="node">
<title>Node1</title>
<g id="a_Node000001"><a xlink:title=" ">
<polygon fill="#999999" stroke="#666666" points="505.5,-261 347.5,-261 347.5,-231 505.5,-231 505.5,-261"/>
<text text-anchor="start" x="355.5" y="-249" font-family="Helvetica,sans-Serif" font-size="10.00">/__w/vulpes/vulpes</text>
<text text-anchor="middle" x="426.5" y="-238" font-family="Helvetica,sans-Serif" font-size="10.00">/vulpes/la/sparse_matrix.hpp</text>
</a>
</g>
</g>
<!-- Node2 -->
<g id="Node000002" class="node">
<title>Node2</title>
<g id="a_Node000002"><a xlink:href="dg__utils_8hpp.html" target="_top" xlink:title=" ">
<polygon fill="white" stroke="#666666" points="130,-118 13,-118 13,-77 130,-77 130,-118"/>
<text text-anchor="start" x="21" y="-106" font-family="Helvetica,sans-Serif" font-size="10.00">/__w/vulpes/vulpes</text>
<text text-anchor="start" x="21" y="-95" font-family="Helvetica,sans-Serif" font-size="10.00">/vulpes/assemble/dg</text>
<text text-anchor="middle" x="71.5" y="-84" font-family="Helvetica,sans-Serif" font-size="10.00">_utils.hpp</text>
</a>
</g>
</g>
<!-- Node1&#45;&gt;Node2 -->
<g id="edge1_Node000001_Node000002" class="edge">
<title>Node1&#45;&gt;Node2</title>
<g id="a_edge1_Node000001_Node000002"><a xlink:title=" ">
<path fill="none" stroke="#63b8ff" d="M337.26,-240.35C287.41,-234.61 225.64,-222.09 176.5,-195 154.48,-182.86 155.82,-171.23 137.5,-154 124.3,-141.59 108.84,-128.51 96.2,-118.17"/>
<polygon fill="#63b8ff" stroke="#63b8ff" points="337.07,-243.85 347.38,-241.44 337.82,-236.89 337.07,-243.85"/>
</a>
</g>
</g>
<!-- Node3 -->
<g id="Node000003" class="node">
<title>Node3</title>
<g id="a_Node000003"><a xlink:href="linear__solver_8hpp.html" target="_top" xlink:title=" ">
<polygon fill="white" stroke="#666666" points="501.5,-189.5 351.5,-189.5 351.5,-159.5 501.5,-159.5 501.5,-189.5"/>
<text text-anchor="start" x="359.5" y="-177.5" font-family="Helvetica,sans-Serif" font-size="10.00">/__w/vulpes/vulpes</text>
<text text-anchor="middle" x="426.5" y="-166.5" font-family="Helvetica,sans-Serif" font-size="10.00">/vulpes/la/linear_solver.hpp</text>
</a>
</g>
</g>
<!-- Node1&#45;&gt;Node3 -->
<g id="edge2_Node000001_Node000003" class="edge">
<title>Node1&#45;&gt;Node3</title>
<g id="a_edge2_Node000001_Node000003"><a xlink:title=" ">
<path fill="none" stroke="#63b8ff" d="M426.5,-220.75C426.5,-210.31 426.5,-198.49 426.5,-189.54"/>
<polygon fill="#63b8ff" stroke="#63b8ff" points="423,-220.94 426.5,-230.94 430,-220.94 423,-220.94"/>
</a>
</g>
</g>
<!-- Node5 -->
<g id="Node000005" class="node">
<title>Node5</title>
<g id="a_Node000005"><a xlink:href="cranknicolson_8hpp.html" target="_top" xlink:title=" ">
<polygon fill="white" stroke="#666666" points="279,-118 148,-118 148,-77 279,-77 279,-118"/>
<text text-anchor="start" x="156" y="-106" font-family="Helvetica,sans-Serif" font-size="10.00">/__w/vulpes/vulpes</text>
<text text-anchor="start" x="156" y="-95" font-family="Helvetica,sans-Serif" font-size="10.00">/vulpes/timeintegration</text>
<text text-anchor="middle" x="213.5" y="-84" font-family="Helvetica,sans-Serif" font-size="10.00">/cranknicolson.hpp</text>
</a>
</g>
</g>
<!-- Node1&#45;&gt;Node5 -->
<g id="edge15_Node000001_Node000005" class="edge">
<title>Node1&#45;&gt;Node5</title>
<g id="a_edge15_Node000001_Node000005"><a xlink:title=" ">
<path fill="none" stroke="#63b8ff" d="M389.3,-225.77C374.17,-217.22 356.89,-206.49 342.5,-195 322.84,-179.31 323.03,-169.84 303.5,-154 286.96,-140.59 266.93,-127.93 249.97,-118.11"/>
<polygon fill="#63b8ff" stroke="#63b8ff" points="387.96,-229.02 398.4,-230.8 391.35,-222.9 387.96,-229.02"/>
</a>
</g>
</g>
<!-- Node7 -->
<g id="Node000007" class="node">
<title>Node7</title>
<g id="a_Node000007"><a xlink:href="imex_8hpp.html" target="_top" xlink:title=" ">
<polygon fill="white" stroke="#666666" points="595,-118 464,-118 464,-77 595,-77 595,-118"/>
<text text-anchor="start" x="472" y="-106" font-family="Helvetica,sans-Serif" font-size="10.00">/__w/vulpes/vulpes</text>
<text text-anchor="start" x="472" y="-95" font-family="Helvetica,sans-Serif" font-size="10.00">/vulpes/timeintegration</text>
<text text-anchor="middle" x="529.5" y="-84" font-family="Helvetica,sans-Serif" font-size="10.00">/dae/imex.hpp</text>
</a>
</g>
</g>
<!-- Node1&#45;&gt;Node7 -->
<g id="edge16_Node000001_Node000007" class="edge">
<title>Node1&#45;&gt;Node7</title>
<g id="a_edge16_Node000001_Node000007"><a xlink:title=" ">
<path fill="none" stroke="#63b8ff" d="M473.29,-226.22C487.2,-218.49 501.19,-208.2 510.5,-195 526.64,-172.11 529.9,-138.95 530.15,-118.06"/>
<polygon fill="#63b8ff" stroke="#63b8ff" points="471.47,-223.22 464.21,-230.93 474.7,-229.43 471.47,-223.22"/>
</a>
</g>
</g>
<!-- Node8 -->
<g id="Node000008" class="node">
<title>Node8</title>
<g id="a_Node000008"><a xlink:href="solverfkpp_8hpp.html" target="_top" xlink:title=" ">
<polygon fill="white" stroke="#666666" points="744,-118 613,-118 613,-77 744,-77 744,-118"/>
<text text-anchor="start" x="621" y="-106" font-family="Helvetica,sans-Serif" font-size="10.00">/__w/vulpes/vulpes</text>
<text text-anchor="start" x="621" y="-95" font-family="Helvetica,sans-Serif" font-size="10.00">/vulpes/timeintegration</text>
<text text-anchor="middle" x="678.5" y="-84" font-family="Helvetica,sans-Serif" font-size="10.00">/solverfkpp.hpp</text>
</a>
</g>
</g>
<!-- Node1&#45;&gt;Node8 -->
<g id="edge17_Node000001_Node000008" class="edge">
<title>Node1&#45;&gt;Node8</title>
<g id="a_edge17_Node000001_Node000008"><a xlink:title=" ">
<path fill="none" stroke="#63b8ff" d="M469.47,-226.7C489.08,-217.85 512.36,-206.64 532.5,-195 560.15,-179.02 564.92,-171.7 591.5,-154 609.69,-141.88 630.3,-128.71 646.9,-118.24"/>
<polygon fill="#63b8ff" stroke="#63b8ff" points="467.88,-223.57 460.17,-230.84 470.73,-229.97 467.88,-223.57"/>
</a>
</g>
</g>
<!-- Node10 -->
<g id="Node000010" class="node">
<title>Node10</title>
<g id="a_Node000010"><a xlink:href="solvermfk_8hpp.html" target="_top" xlink:title=" ">
<polygon fill="white" stroke="#666666" points="893,-118 762,-118 762,-77 893,-77 893,-118"/>
<text text-anchor="start" x="770" y="-106" font-family="Helvetica,sans-Serif" font-size="10.00">/__w/vulpes/vulpes</text>
<text text-anchor="start" x="770" y="-95" font-family="Helvetica,sans-Serif" font-size="10.00">/vulpes/timeintegration</text>
<text text-anchor="middle" x="827.5" y="-84" font-family="Helvetica,sans-Serif" font-size="10.00">/solvermfk.hpp</text>
</a>
</g>
</g>
<!-- Node1&#45;&gt;Node10 -->
<g id="edge18_Node000001_Node000010" class="edge">
<title>Node1&#45;&gt;Node10</title>
<g id="a_edge18_Node000001_Node000010"><a xlink:title=" ">
<path fill="none" stroke="#63b8ff" d="M495.17,-228.02C521.54,-220 551.32,-209.06 576.5,-195 601.29,-181.16 600.35,-167.17 625.5,-154 631.78,-150.71 705.42,-130.82 761.99,-115.78"/>
<polygon fill="#63b8ff" stroke="#63b8ff" points="493.85,-224.76 485.25,-230.95 495.84,-231.47 493.85,-224.76"/>
</a>
</g>
</g>
<!-- Node12 -->
<g id="Node000012" class="node">
<title>Node12</title>
<g id="a_Node000012"><a xlink:href="sparse__matrix_8cpp.html" target="_top" xlink:title=" ">
<polygon fill="white" stroke="#666666" points="791,-189.5 634,-189.5 634,-159.5 791,-159.5 791,-189.5"/>
<text text-anchor="start" x="642" y="-177.5" font-family="Helvetica,sans-Serif" font-size="10.00">/__w/vulpes/vulpes</text>
<text text-anchor="middle" x="712.5" y="-166.5" font-family="Helvetica,sans-Serif" font-size="10.00">/vulpes/la/sparse_matrix.cpp</text>
</a>
</g>
</g>
<!-- Node1&#45;&gt;Node12 -->
<g id="edge12_Node000001_Node000012" class="edge">
<title>Node1&#45;&gt;Node12</title>
<g id="a_edge12_Node000001_Node000012"><a xlink:title=" ">
<path fill="none" stroke="#63b8ff" d="M494.23,-228.54C543.07,-216.67 608.31,-200.82 654.71,-189.54"/>
<polygon fill="#63b8ff" stroke="#63b8ff" points="493.27,-225.17 484.38,-230.94 494.92,-231.98 493.27,-225.17"/>
</a>
</g>
</g>
<!-- Node13 -->
<g id="Node000013" class="node">
<title>Node13</title>
<g id="a_Node000013"><a xlink:href="vector__block__utils_8hpp.html" target="_top" xlink:title=" ">
<polygon fill="white" stroke="#666666" points="129,-195 0,-195 0,-154 129,-154 129,-195"/>
<text text-anchor="start" x="8" y="-183" font-family="Helvetica,sans-Serif" font-size="10.00">/__w/vulpes/vulpes</text>
<text text-anchor="start" x="8" y="-172" font-family="Helvetica,sans-Serif" font-size="10.00">/vulpes/la/vector_block</text>
<text text-anchor="middle" x="64.5" y="-161" font-family="Helvetica,sans-Serif" font-size="10.00">_utils.hpp</text>
</a>
</g>
</g>
<!-- Node1&#45;&gt;Node13 -->
<g id="edge13_Node000001_Node000013" class="edge">
<title>Node1&#45;&gt;Node13</title>
<g id="a_edge13_Node000001_Node000013"><a xlink:title=" ">
<path fill="none" stroke="#63b8ff" d="M337.37,-230.83C281.5,-221.56 208.08,-208.66 143.5,-195 138.8,-194.01 133.96,-192.93 129.09,-191.82"/>
<polygon fill="#63b8ff" stroke="#63b8ff" points="336.8,-234.28 347.24,-232.46 337.94,-227.38 336.8,-234.28"/>
</a>
</g>
</g>
<!-- Node14 -->
<g id="Node000014" class="node">
<title>Node14</title>
<g id="a_Node000014"><a xlink:href="io_8hpp.html" target="_top" xlink:title=" ">
<polygon fill="white" stroke="#666666" points="295,-189.5 186,-189.5 186,-159.5 295,-159.5 295,-189.5"/>
<text text-anchor="start" x="194" y="-177.5" font-family="Helvetica,sans-Serif" font-size="10.00">/__w/vulpes/vulpes</text>
<text text-anchor="middle" x="240.5" y="-166.5" font-family="Helvetica,sans-Serif" font-size="10.00">/vulpes/utils/io.hpp</text>
</a>
</g>
</g>
<!-- Node1&#45;&gt;Node14 -->
<g id="edge19_Node000001_Node000014" class="edge">
<title>Node1&#45;&gt;Node14</title>
<g id="a_edge19_Node000001_Node000014"><a xlink:title=" ">
<path fill="none" stroke="#63b8ff" d="M379.44,-227.42C348.04,-215.68 307.31,-200.47 278.08,-189.54"/>
<polygon fill="#63b8ff" stroke="#63b8ff" points="378.27,-230.71 388.86,-230.94 380.72,-224.16 378.27,-230.71"/>
</a>
</g>
</g>
<!-- Node3&#45;&gt;Node2 -->
<g id="edge3_Node000003_Node000002" class="edge">
<title>Node3&#45;&gt;Node2</title>
<g id="a_edge3_Node000003_Node000002"><a xlink:title=" ">
<path fill="none" stroke="#63b8ff" d="M341.35,-159.23C283.78,-149.06 206.21,-134.34 138.5,-118 135.79,-117.35 133.03,-116.65 130.24,-115.93"/>
<polygon fill="#63b8ff" stroke="#63b8ff" points="341.05,-162.73 351.5,-161.01 342.26,-155.84 341.05,-162.73"/>
</a>
</g>
</g>
<!-- Node4 -->
<g id="Node000004" class="node">
<title>Node4</title>
<g id="a_Node000004"><a xlink:href="linear__solver_8cpp.html" target="_top" xlink:title=" ">
<polygon fill="white" stroke="#666666" points="446,-112.5 297,-112.5 297,-82.5 446,-82.5 446,-112.5"/>
<text text-anchor="start" x="305" y="-100.5" font-family="Helvetica,sans-Serif" font-size="10.00">/__w/vulpes/vulpes</text>
<text text-anchor="middle" x="371.5" y="-89.5" font-family="Helvetica,sans-Serif" font-size="10.00">/vulpes/la/linear_solver.cpp</text>
</a>
</g>
</g>
<!-- Node3&#45;&gt;Node4 -->
<g id="edge4_Node000003_Node000004" class="edge">
<title>Node3&#45;&gt;Node4</title>
<g id="a_edge4_Node000003_Node000004"><a xlink:title=" ">
<path fill="none" stroke="#63b8ff" d="M410.17,-151.24C400.98,-138.7 389.78,-123.42 381.8,-112.54"/>
<polygon fill="#63b8ff" stroke="#63b8ff" points="407.42,-153.4 416.15,-159.39 413.06,-149.26 407.42,-153.4"/>
</a>
</g>
</g>
<!-- Node3&#45;&gt;Node5 -->
<g id="edge5_Node000003_Node000005" class="edge">
<title>Node3&#45;&gt;Node5</title>
<g id="a_edge5_Node000003_Node000005"><a xlink:title=" ">
<path fill="none" stroke="#63b8ff" d="M376.76,-155.99C344.5,-144.63 302.42,-129.81 269.06,-118.06"/>
<polygon fill="#63b8ff" stroke="#63b8ff" points="375.84,-159.37 386.44,-159.39 378.17,-152.77 375.84,-159.37"/>
</a>
</g>
</g>
<!-- Node3&#45;&gt;Node7 -->
<g id="edge7_Node000003_Node000007" class="edge">
<title>Node3&#45;&gt;Node7</title>
<g id="a_edge7_Node000003_Node000007"><a xlink:title=" ">
<path fill="none" stroke="#63b8ff" d="M454.23,-153.31C469.19,-142.41 487.58,-129.02 502.44,-118.2"/>
<polygon fill="#63b8ff" stroke="#63b8ff" points="451.9,-150.68 445.87,-159.39 456.02,-156.34 451.9,-150.68"/>
</a>
</g>
</g>
<!-- Node3&#45;&gt;Node8 -->
<g id="edge8_Node000003_Node000008" class="edge">
<title>Node3&#45;&gt;Node8</title>
<g id="a_edge8_Node000003_Node000008"><a xlink:title=" ">
<path fill="none" stroke="#63b8ff" d="M483.57,-156.51C521.92,-145.1 572.56,-130.03 612.62,-118.11"/>
<polygon fill="#63b8ff" stroke="#63b8ff" points="482.19,-153.27 473.6,-159.48 484.19,-159.98 482.19,-153.27"/>
</a>
</g>
</g>
<!-- Node3&#45;&gt;Node10 -->
<g id="edge10_Node000003_Node000010" class="edge">
<title>Node3&#45;&gt;Node10</title>
<g id="a_edge10_Node000003_Node000010"><a xlink:title=" ">
<path fill="none" stroke="#63b8ff" d="M511.52,-161.21C577.75,-151.11 671.86,-135.65 753.5,-118 756.23,-117.41 759,-116.79 761.81,-116.14"/>
<polygon fill="#63b8ff" stroke="#63b8ff" points="510.9,-157.76 501.54,-162.72 511.95,-164.68 510.9,-157.76"/>
</a>
</g>
</g>
<!-- Node6 -->
<g id="Node000006" class="node">
<title>Node6</title>
<g id="a_Node000006"><a xlink:href="cranknicolson_8cpp.html" target="_top" xlink:title=" ">
<polygon fill="white" stroke="#666666" points="279,-41 148,-41 148,0 279,0 279,-41"/>
<text text-anchor="start" x="156" y="-29" font-family="Helvetica,sans-Serif" font-size="10.00">/__w/vulpes/vulpes</text>
<text text-anchor="start" x="156" y="-18" font-family="Helvetica,sans-Serif" font-size="10.00">/vulpes/timeintegration</text>
<text text-anchor="middle" x="213.5" y="-7" font-family="Helvetica,sans-Serif" font-size="10.00">/cranknicolson.cpp</text>
</a>
</g>
</g>
<!-- Node5&#45;&gt;Node6 -->
<g id="edge6_Node000005_Node000006" class="edge">
<title>Node5&#45;&gt;Node6</title>
<g id="a_edge6_Node000005_Node000006"><a xlink:title=" ">
<path fill="none" stroke="#63b8ff" d="M213.5,-66.69C213.5,-58.08 213.5,-48.9 213.5,-41.07"/>
<polygon fill="#63b8ff" stroke="#63b8ff" points="210,-66.79 213.5,-76.79 217,-66.79 210,-66.79"/>
</a>
</g>
</g>
<!-- Node9 -->
<g id="Node000009" class="node">
<title>Node9</title>
<g id="a_Node000009"><a xlink:href="solverfkpp_8cpp.html" target="_top" xlink:title=" ">
<polygon fill="white" stroke="#666666" points="744,-41 613,-41 613,0 744,0 744,-41"/>
<text text-anchor="start" x="621" y="-29" font-family="Helvetica,sans-Serif" font-size="10.00">/__w/vulpes/vulpes</text>
<text text-anchor="start" x="621" y="-18" font-family="Helvetica,sans-Serif" font-size="10.00">/vulpes/timeintegration</text>
<text text-anchor="middle" x="678.5" y="-7" font-family="Helvetica,sans-Serif" font-size="10.00">/solverfkpp.cpp</text>
</a>
</g>
</g>
<!-- Node8&#45;&gt;Node9 -->
<g id="edge9_Node000008_Node000009" class="edge">
<title>Node8&#45;&gt;Node9</title>
<g id="a_edge9_Node000008_Node000009"><a xlink:title=" ">
<path fill="none" stroke="#63b8ff" d="M678.5,-66.69C678.5,-58.08 678.5,-48.9 678.5,-41.07"/>
<polygon fill="#63b8ff" stroke="#63b8ff" points="675,-66.79 678.5,-76.79 682,-66.79 675,-66.79"/>
</a>
</g>
</g>
<!-- Node11 -->
<g id="Node000011" class="node">
<title>Node11</title>
<g id="a_Node000011"><a xlink:href="solvermfk_8cpp.html" target="_top" xlink:title=" ">
<polygon fill="white" stroke="#666666" points="893,-41 762,-41 762,0 893,0 893,-41"/>
<text text-anchor="start" x="770" y="-29" font-family="Helvetica,sans-Serif" font-size="10.00">/__w/vulpes/vulpes</text>
<text text-anchor="start" x="770" y="-18" font-family="Helvetica,sans-Serif" font-size="10.00">/vulpes/timeintegration</text>
<text text-anchor="middle" x="827.5" y="-7" font-family="Helvetica,sans-Serif" font-size="10.00">/solvermfk.cpp</text>
</a>
</g>
</g>
<!-- Node10&#45;&gt;Node11 -->
<g id="edge11_Node000010_Node000011" class="edge">
<title>Node10&#45;&gt;Node11</title>
<g id="a_edge11_Node000010_Node000011"><a xlink:title=" ">
<path fill="none" stroke="#63b8ff" d="M827.5,-66.69C827.5,-58.08 827.5,-48.9 827.5,-41.07"/>
<polygon fill="#63b8ff" stroke="#63b8ff" points="824,-66.79 827.5,-76.79 831,-66.79 824,-66.79"/>
</a>
</g>
</g>
<!-- Node13&#45;&gt;Node2 -->
<g id="edge14_Node000013_Node000002" class="edge">
<title>Node13&#45;&gt;Node2</title>
<g id="a_edge14_Node000013_Node000002"><a xlink:title=" ">
<path fill="none" stroke="#63b8ff" d="M67.28,-143.69C68.09,-135.08 68.94,-125.9 69.67,-118.07"/>
<polygon fill="#63b8ff" stroke="#63b8ff" points="63.78,-143.51 66.34,-153.79 70.75,-144.16 63.78,-143.51"/>
</a>
</g>
</g>
<!-- Node14&#45;&gt;Node5 -->
<g id="edge20_Node000014_Node000005" class="edge">
<title>Node14&#45;&gt;Node5</title>
<g id="a_edge20_Node000014_Node000005"><a xlink:title=" ">
<path fill="none" stroke="#63b8ff" d="M231.99,-149.87C228.33,-139.69 224.09,-127.91 220.59,-118.2"/>
<polygon fill="#63b8ff" stroke="#63b8ff" points="228.74,-151.17 235.42,-159.39 235.33,-148.8 228.74,-151.17"/>
</a>
</g>
</g>
</g>
</svg>
