<?xml version="1.0" encoding="UTF-8" standalone="no"?>
<!DOCTYPE svg PUBLIC "-//W3C//DTD SVG 1.1//EN"
 "http://www.w3.org/Graphics/SVG/1.1/DTD/svg11.dtd">
<!-- Generated by graphviz version 2.42.4 (0)
 -->
<!-- Title: /__w/vulpes/vulpes/vulpes/la/sparse_matrix.cpp Pages: 1 -->
<svg width="1591pt" height="379pt"
 viewBox="0.00 0.00 1591.00 379.00" xmlns="http://www.w3.org/2000/svg" xmlns:xlink="http://www.w3.org/1999/xlink">
<g id="graph0" class="graph" transform="scale(1 1) rotate(0) translate(4 375)">
<title>/__w/vulpes/vulpes/vulpes/la/sparse_matrix.cpp</title>
<!-- Node1 -->
<g id="Node000001" class="node">
<title>Node1</title>
<g id="a_Node000001"><a xlink:title=" ">
<polygon fill="#999999" stroke="#666666" points="856.5,-371 699.5,-371 699.5,-341 856.5,-341 856.5,-371"/>
<text text-anchor="start" x="707.5" y="-359" font-family="Helvetica,sans-Serif" font-size="10.00">/__w/vulpes/vulpes</text>
<text text-anchor="middle" x="778" y="-348" font-family="Helvetica,sans-Serif" font-size="10.00">/vulpes/la/sparse_matrix.cpp</text>
</a>
</g>
</g>
<!-- Node2 -->
<g id="Node000002" class="node">
<title>Node2</title>
<g id="a_Node000002"><a xlink:href="sparse__matrix_8hpp.html" target="_top" xlink:title=" ">
<polygon fill="white" stroke="#666666" points="855.5,-305 700.5,-305 700.5,-286 855.5,-286 855.5,-305"/>
<text text-anchor="middle" x="778" y="-293" font-family="Helvetica,sans-Serif" font-size="10.00">vulpes/la/sparse_matrix.hpp</text>
</a>
</g>
</g>
<!-- Node1&#45;&gt;Node2 -->
<g id="edge1_Node000001_Node000002" class="edge">
<title>Node1&#45;&gt;Node2</title>
<g id="a_edge1_Node000001_Node000002"><a xlink:title=" ">
<path fill="none" stroke="#63b8ff" d="M778,-340.84C778,-333.21 778,-323.7 778,-315.45"/>
<polygon fill="#63b8ff" stroke="#63b8ff" points="781.5,-315.27 778,-305.27 774.5,-315.27 781.5,-315.27"/>
</a>
</g>
</g>
<!-- Node6 -->
<g id="Node000006" class="node">
<title>Node6</title>
<g id="a_Node000006"><a xlink:title=" ">
<polygon fill="#e0e0e0" stroke="#999999" points="1084,-19 1024,-19 1024,0 1084,0 1084,-19"/>
<text text-anchor="middle" x="1054" y="-7" font-family="Helvetica,sans-Serif" font-size="10.00">iostream</text>
</a>
</g>
</g>
<!-- Node1&#45;&gt;Node6 -->
<g id="edge63_Node000001_Node000006" class="edge">
<title>Node1&#45;&gt;Node6</title>
<g id="a_edge63_Node000001_Node000006"><a xlink:title=" ">
<path fill="none" stroke="#63b8ff" d="M856.77,-352.38C992.25,-345.72 1255,-322.37 1255,-241.5 1255,-241.5 1255,-241.5 1255,-184.5 1255,-155.04 1254.01,-144.31 1236,-121 1197.58,-71.28 1129.94,-38.87 1088.82,-22.7"/>
<polygon fill="#63b8ff" stroke="#63b8ff" points="1089.81,-19.34 1079.22,-19.03 1087.31,-25.87 1089.81,-19.34"/>
</a>
</g>
</g>
<!-- Node8 -->
<g id="Node000008" class="node">
<title>Node8</title>
<g id="a_Node000008"><a xlink:title=" ">
<polygon fill="#e0e0e0" stroke="#999999" points="98,-19 54,-19 54,0 98,0 98,-19"/>
<text text-anchor="middle" x="76" y="-7" font-family="Helvetica,sans-Serif" font-size="10.00">string</text>
</a>
</g>
</g>
<!-- Node1&#45;&gt;Node8 -->
<g id="edge64_Node000001_Node000008" class="edge">
<title>Node1&#45;&gt;Node8</title>
<g id="a_edge64_Node000001_Node000008"><a xlink:title=" ">
<path fill="none" stroke="#63b8ff" d="M699.28,-352.7C550.5,-347.74 233.51,-334.05 128,-305 66.77,-288.14 0,-305 0,-241.5 0,-241.5 0,-241.5 0,-129.5 0,-86.71 35.34,-46.94 57.82,-25.97"/>
<polygon fill="#63b8ff" stroke="#63b8ff" points="60.34,-28.42 65.43,-19.13 55.66,-23.21 60.34,-28.42"/>
</a>
</g>
</g>
<!-- Node9 -->
<g id="Node000009" class="node">
<title>Node9</title>
<g id="a_Node000009"><a xlink:title=" ">
<polygon fill="#e0e0e0" stroke="#999999" points="201.5,-19 156.5,-19 156.5,0 201.5,0 201.5,-19"/>
<text text-anchor="middle" x="179" y="-7" font-family="Helvetica,sans-Serif" font-size="10.00">utility</text>
</a>
</g>
</g>
<!-- Node1&#45;&gt;Node9 -->
<g id="edge65_Node000001_Node000009" class="edge">
<title>Node1&#45;&gt;Node9</title>
<g id="a_edge65_Node000001_Node000009"><a xlink:title=" ">
<path fill="none" stroke="#63b8ff" d="M699.37,-351.06C509.21,-340.47 40,-307.65 40,-241.5 40,-241.5 40,-241.5 40,-184.5 40,-111.12 116.39,-50.91 155.91,-24.67"/>
<polygon fill="#63b8ff" stroke="#63b8ff" points="158.15,-27.4 164.65,-19.03 154.35,-21.52 158.15,-27.4"/>
</a>
</g>
</g>
<!-- Node10 -->
<g id="Node000010" class="node">
<title>Node10</title>
<g id="a_Node000010"><a xlink:title=" ">
<polygon fill="#e0e0e0" stroke="#999999" points="1005.5,-19 958.5,-19 958.5,0 1005.5,0 1005.5,-19"/>
<text text-anchor="middle" x="982" y="-7" font-family="Helvetica,sans-Serif" font-size="10.00">vector</text>
</a>
</g>
</g>
<!-- Node1&#45;&gt;Node10 -->
<g id="edge66_Node000001_Node000010" class="edge">
<title>Node1&#45;&gt;Node10</title>
<g id="a_edge66_Node000001_Node000010"><a xlink:title=" ">
<path fill="none" stroke="#63b8ff" d="M811.24,-340.9C828.69,-332.33 849.58,-320.13 865,-305 946.77,-224.75 972.93,-80.18 979.84,-29.04"/>
<polygon fill="#63b8ff" stroke="#63b8ff" points="983.32,-29.47 981.1,-19.11 976.37,-28.59 983.32,-29.47"/>
</a>
</g>
</g>
<!-- Node3 -->
<g id="Node000003" class="node">
<title>Node3</title>
<g id="a_Node000003"><a xlink:title=" ">
<polygon fill="#e0e0e0" stroke="#999999" points="845.5,-250 774.5,-250 774.5,-231 845.5,-231 845.5,-250"/>
<text text-anchor="middle" x="810" y="-238" font-family="Helvetica,sans-Serif" font-size="10.00">petscmat.h</text>
</a>
</g>
</g>
<!-- Node2&#45;&gt;Node3 -->
<g id="edge2_Node000002_Node000003" class="edge">
<title>Node2&#45;&gt;Node3</title>
<g id="a_edge2_Node000002_Node000003"><a xlink:title=" ">
<path fill="none" stroke="#63b8ff" d="M783.28,-285.75C787.71,-278.42 794.16,-267.73 799.62,-258.7"/>
<polygon fill="#63b8ff" stroke="#63b8ff" points="802.64,-260.46 804.81,-250.09 796.65,-256.84 802.64,-260.46"/>
</a>
</g>
</g>
<!-- Node4 -->
<g id="Node000004" class="node">
<title>Node4</title>
<g id="a_Node000004"><a xlink:title=" ">
<polygon fill="#e0e0e0" stroke="#999999" points="766,-140 698,-140 698,-121 766,-121 766,-140"/>
<text text-anchor="middle" x="732" y="-128" font-family="Helvetica,sans-Serif" font-size="10.00">petscsys.h</text>
</a>
</g>
</g>
<!-- Node2&#45;&gt;Node4 -->
<g id="edge3_Node000002_Node000004" class="edge">
<title>Node2&#45;&gt;Node4</title>
<g id="a_edge3_Node000002_Node000004"><a xlink:title=" ">
<path fill="none" stroke="#63b8ff" d="M804.94,-285.91C831.77,-275.72 867.31,-256.8 855,-231 835.46,-190.07 789.95,-160.54 760.11,-144.74"/>
<polygon fill="#63b8ff" stroke="#63b8ff" points="761.52,-141.53 751.02,-140.09 758.33,-147.76 761.52,-141.53"/>
</a>
</g>
</g>
<!-- Node5 -->
<g id="Node000005" class="node">
<title>Node5</title>
<g id="a_Node000005"><a xlink:title=" ">
<polygon fill="#e0e0e0" stroke="#999999" points="1288.5,-19 1235.5,-19 1235.5,0 1288.5,0 1288.5,-19"/>
<text text-anchor="middle" x="1262" y="-7" font-family="Helvetica,sans-Serif" font-size="10.00">cstddef</text>
</a>
</g>
</g>
<!-- Node2&#45;&gt;Node5 -->
<g id="edge4_Node000002_Node000005" class="edge">
<title>Node2&#45;&gt;Node5</title>
<g id="a_edge4_Node000002_Node000005"><a xlink:title=" ">
<path fill="none" stroke="#63b8ff" d="M855.66,-292.18C918.88,-288.2 1009.51,-277.65 1084,-250 1169.42,-218.3 1199.95,-211.04 1257,-140 1281.3,-109.74 1283.28,-93.3 1277,-55 1275.53,-46.05 1272.51,-36.47 1269.56,-28.51"/>
<polygon fill="#63b8ff" stroke="#63b8ff" points="1272.79,-27.16 1265.86,-19.15 1266.28,-29.74 1272.79,-27.16"/>
</a>
</g>
</g>
<!-- Node2&#45;&gt;Node6 -->
<g id="edge5_Node000002_Node000006" class="edge">
<title>Node2&#45;&gt;Node6</title>
<g id="a_edge5_Node000002_Node000006"><a xlink:title=" ">
<path fill="none" stroke="#63b8ff" d="M819.91,-285.95C844.61,-279.31 875.35,-268.1 898,-250 976.78,-187.03 1028.8,-73.09 1046.89,-28.8"/>
<polygon fill="#63b8ff" stroke="#63b8ff" points="1050.21,-29.92 1050.67,-19.33 1043.71,-27.32 1050.21,-29.92"/>
</a>
</g>
</g>
<!-- Node7 -->
<g id="Node000007" class="node">
<title>Node7</title>
<g id="a_Node000007"><a xlink:title=" ">
<polygon fill="#e0e0e0" stroke="#999999" points="240,-195 182,-195 182,-176 240,-176 240,-195"/>
<text text-anchor="middle" x="211" y="-183" font-family="Helvetica,sans-Serif" font-size="10.00">memory</text>
</a>
</g>
</g>
<!-- Node2&#45;&gt;Node7 -->
<g id="edge6_Node000002_Node000007" class="edge">
<title>Node2&#45;&gt;Node7</title>
<g id="a_edge6_Node000002_Node000007"><a xlink:title=" ">
<path fill="none" stroke="#63b8ff" d="M702.94,-285.98C639.51,-278.26 546.42,-265.7 466,-250 388.71,-234.91 299.72,-211.3 249.94,-197.52"/>
<polygon fill="#63b8ff" stroke="#63b8ff" points="250.8,-194.13 240.23,-194.82 248.93,-200.87 250.8,-194.13"/>
</a>
</g>
</g>
<!-- Node2&#45;&gt;Node8 -->
<g id="edge7_Node000002_Node000008" class="edge">
<title>Node2&#45;&gt;Node8</title>
<g id="a_edge7_Node000002_Node000008"><a xlink:title=" ">
<path fill="none" stroke="#63b8ff" d="M700.35,-294.28C568.86,-292.9 308.51,-285.6 225,-250 131.59,-210.18 91.75,-77.75 79.98,-28.85"/>
<polygon fill="#63b8ff" stroke="#63b8ff" points="83.37,-27.99 77.73,-19.02 76.55,-29.55 83.37,-27.99"/>
</a>
</g>
</g>
<!-- Node2&#45;&gt;Node9 -->
<g id="edge8_Node000002_Node000009" class="edge">
<title>Node2&#45;&gt;Node9</title>
<g id="a_edge8_Node000002_Node000009"><a xlink:title=" ">
<path fill="none" stroke="#63b8ff" d="M700.36,-294.24C551.69,-291.86 235.92,-277.03 173,-195 153.44,-169.49 168.22,-70.67 175.53,-29.09"/>
<polygon fill="#63b8ff" stroke="#63b8ff" points="178.98,-29.67 177.32,-19.2 172.1,-28.42 178.98,-29.67"/>
</a>
</g>
</g>
<!-- Node2&#45;&gt;Node10 -->
<g id="edge9_Node000002_Node000010" class="edge">
<title>Node2&#45;&gt;Node10</title>
<g id="a_edge9_Node000002_Node000010"><a xlink:title=" ">
<path fill="none" stroke="#63b8ff" d="M806.09,-285.93C845.38,-272 912,-240.43 912,-186.5 912,-186.5 912,-186.5 912,-129.5 912,-87.63 944.59,-47.49 965.3,-26.22"/>
<polygon fill="#63b8ff" stroke="#63b8ff" points="967.92,-28.55 972.56,-19.02 962.99,-23.58 967.92,-28.55"/>
</a>
</g>
</g>
<!-- Node11 -->
<g id="Node000011" class="node">
<title>Node11</title>
<g id="a_Node000011"><a xlink:href="petsc__utils_8hpp.html" target="_top" xlink:title=" ">
<polygon fill="white" stroke="#666666" points="473.5,-195 336.5,-195 336.5,-176 473.5,-176 473.5,-195"/>
<text text-anchor="middle" x="405" y="-183" font-family="Helvetica,sans-Serif" font-size="10.00">vulpes/la/petsc_utils.hpp</text>
</a>
</g>
</g>
<!-- Node2&#45;&gt;Node11 -->
<g id="edge10_Node000002_Node000011" class="edge">
<title>Node2&#45;&gt;Node11</title>
<g id="a_edge10_Node000002_Node000011"><a xlink:title=" ">
<path fill="none" stroke="#63b8ff" d="M700.32,-289.57C645.47,-284.2 571,-273.06 509,-250 477.02,-238.11 444.05,-215.99 424.04,-201.26"/>
<polygon fill="#63b8ff" stroke="#63b8ff" points="425.9,-198.28 415.8,-195.07 421.69,-203.88 425.9,-198.28"/>
</a>
</g>
</g>
<!-- Node12 -->
<g id="Node000012" class="node">
<title>Node12</title>
<g id="a_Node000012"><a xlink:href="mpi__wrappers_8hpp.html" target="_top" xlink:title=" ">
<polygon fill="white" stroke="#666666" points="642,-140 476,-140 476,-121 642,-121 642,-140"/>
<text text-anchor="middle" x="559" y="-128" font-family="Helvetica,sans-Serif" font-size="10.00">vulpes/utils/mpi_wrappers.hpp</text>
</a>
</g>
</g>
<!-- Node2&#45;&gt;Node12 -->
<g id="edge62_Node000002_Node000012" class="edge">
<title>Node2&#45;&gt;Node12</title>
<g id="a_edge62_Node000002_Node000012"><a xlink:title=" ">
<path fill="none" stroke="#63b8ff" d="M770.42,-285.81C751.77,-264.84 701.5,-210.6 651,-176 632.14,-163.08 608.96,-151.89 590.59,-143.97"/>
<polygon fill="#63b8ff" stroke="#63b8ff" points="591.77,-140.67 581.2,-140.02 589.06,-147.12 591.77,-140.67"/>
</a>
</g>
</g>
<!-- Node27 -->
<g id="Node000027" class="node">
<title>Node27</title>
<g id="a_Node000027"><a xlink:href="vector_8hpp.html" target="_top" xlink:title=" ">
<polygon fill="white" stroke="#666666" points="632.5,-250 517.5,-250 517.5,-231 632.5,-231 632.5,-250"/>
<text text-anchor="middle" x="575" y="-238" font-family="Helvetica,sans-Serif" font-size="10.00">vulpes/la/vector.hpp</text>
</a>
</g>
</g>
<!-- Node2&#45;&gt;Node27 -->
<g id="edge39_Node000002_Node000027" class="edge">
<title>Node2&#45;&gt;Node27</title>
<g id="a_edge39_Node000002_Node000027"><a xlink:title=" ">
<path fill="none" stroke="#63b8ff" d="M745.38,-285.98C710.71,-276.93 655.74,-262.58 617.65,-252.64"/>
<polygon fill="#63b8ff" stroke="#63b8ff" points="618.43,-249.22 607.87,-250.08 616.66,-255.99 618.43,-249.22"/>
</a>
</g>
</g>
<!-- Node29 -->
<g id="Node000029" class="node">
<title>Node29</title>
<g id="a_Node000029"><a xlink:href="qrule_8hpp.html" target="_top" xlink:title=" ">
<polygon fill="white" stroke="#666666" points="1227,-140 1073,-140 1073,-121 1227,-121 1227,-140"/>
<text text-anchor="middle" x="1150" y="-128" font-family="Helvetica,sans-Serif" font-size="10.00">vulpes/quadrature/qrule.hpp</text>
</a>
</g>
</g>
<!-- Node2&#45;&gt;Node29 -->
<g id="edge51_Node000002_Node000029" class="edge">
<title>Node2&#45;&gt;Node29</title>
<g id="a_edge51_Node000002_Node000029"><a xlink:title=" ">
<path fill="none" stroke="#63b8ff" d="M855.6,-288.67C926.6,-282.18 1025.51,-269.91 1059,-250 1099.55,-225.89 1128.41,-176.23 1141.73,-149.49"/>
<polygon fill="#63b8ff" stroke="#63b8ff" points="1145.03,-150.7 1146.2,-140.17 1138.72,-147.67 1145.03,-150.7"/>
</a>
</g>
</g>
<!-- Node11&#45;&gt;Node4 -->
<g id="edge11_Node000011_Node000004" class="edge">
<title>Node11&#45;&gt;Node4</title>
<g id="a_edge11_Node000011_Node000004"><a xlink:title=" ">
<path fill="none" stroke="#63b8ff" d="M457.54,-175.98C521.37,-165.64 627.91,-148.37 687.75,-138.67"/>
<polygon fill="#63b8ff" stroke="#63b8ff" points="688.34,-142.12 697.65,-137.07 687.22,-135.21 688.34,-142.12"/>
</a>
</g>
</g>
<!-- Node11&#45;&gt;Node8 -->
<g id="edge12_Node000011_Node000008" class="edge">
<title>Node11&#45;&gt;Node8</title>
<g id="a_edge12_Node000011_Node000008"><a xlink:title=" ">
<path fill="none" stroke="#63b8ff" d="M388.68,-175.87C335.41,-147.69 166.25,-58.23 101.53,-24"/>
<polygon fill="#63b8ff" stroke="#63b8ff" points="102.89,-20.76 92.41,-19.18 99.62,-26.95 102.89,-20.76"/>
</a>
</g>
</g>
<!-- Node11&#45;&gt;Node12 -->
<g id="edge13_Node000011_Node000012" class="edge">
<title>Node11&#45;&gt;Node12</title>
<g id="a_edge13_Node000011_Node000012"><a xlink:title=" ">
<path fill="none" stroke="#63b8ff" d="M429.74,-175.98C455.37,-167.16 495.63,-153.31 524.41,-143.41"/>
<polygon fill="#63b8ff" stroke="#63b8ff" points="525.75,-146.65 534.06,-140.08 523.47,-140.03 525.75,-146.65"/>
</a>
</g>
</g>
<!-- Node12&#45;&gt;Node6 -->
<g id="edge17_Node000012_Node000006" class="edge">
<title>Node12&#45;&gt;Node6</title>
<g id="a_edge17_Node000012_Node000006"><a xlink:title=" ">
<path fill="none" stroke="#63b8ff" d="M620.77,-120.99C672.7,-113.29 748.69,-100.77 814,-85 888.87,-66.93 974.62,-38.35 1020.63,-22.35"/>
<polygon fill="#63b8ff" stroke="#63b8ff" points="1021.81,-25.65 1030.1,-19.04 1019.5,-19.04 1021.81,-25.65"/>
</a>
</g>
</g>
<!-- Node12&#45;&gt;Node10 -->
<g id="edge18_Node000012_Node000010" class="edge">
<title>Node12&#45;&gt;Node10</title>
<g id="a_edge18_Node000012_Node000010"><a xlink:title=" ">
<path fill="none" stroke="#63b8ff" d="M641.33,-120.98C683.71,-114.6 735.47,-103.63 779,-85 800.42,-75.83 800.92,-64.93 822,-55 827.82,-52.26 903.31,-31.71 948.49,-19.51"/>
<polygon fill="#63b8ff" stroke="#63b8ff" points="949.43,-22.88 958.17,-16.9 947.61,-16.12 949.43,-22.88"/>
</a>
</g>
</g>
<!-- Node13 -->
<g id="Node000013" class="node">
<title>Node13</title>
<g id="a_Node000013"><a xlink:title=" ">
<polygon fill="#e0e0e0" stroke="#999999" points="582,-79.5 538,-79.5 538,-60.5 582,-60.5 582,-79.5"/>
<text text-anchor="middle" x="560" y="-67.5" font-family="Helvetica,sans-Serif" font-size="10.00">mpi.h</text>
</a>
</g>
</g>
<!-- Node12&#45;&gt;Node13 -->
<g id="edge14_Node000012_Node000013" class="edge">
<title>Node12&#45;&gt;Node13</title>
<g id="a_edge14_Node000012_Node000013"><a xlink:title=" ">
<path fill="none" stroke="#63b8ff" d="M559.15,-120.87C559.29,-112.75 559.5,-100.31 559.68,-89.89"/>
<polygon fill="#63b8ff" stroke="#63b8ff" points="563.18,-89.73 559.85,-79.67 556.18,-89.61 563.18,-89.73"/>
</a>
</g>
</g>
<!-- Node14 -->
<g id="Node000014" class="node">
<title>Node14</title>
<g id="a_Node000014"><a xlink:title=" ">
<polygon fill="#e0e0e0" stroke="#999999" points="384,-79.5 332,-79.5 332,-60.5 384,-60.5 384,-79.5"/>
<text text-anchor="middle" x="358" y="-67.5" font-family="Helvetica,sans-Serif" font-size="10.00">petsc.h</text>
</a>
</g>
</g>
<!-- Node12&#45;&gt;Node14 -->
<g id="edge15_Node000012_Node000014" class="edge">
<title>Node12&#45;&gt;Node14</title>
<g id="a_edge15_Node000012_Node000014"><a xlink:title=" ">
<path fill="none" stroke="#63b8ff" d="M522.04,-120.92C488.15,-112.75 436.74,-99.55 393,-85 391.34,-84.45 389.63,-83.85 387.93,-83.24"/>
<polygon fill="#63b8ff" stroke="#63b8ff" points="388.8,-79.83 378.21,-79.56 386.32,-86.37 388.8,-79.83"/>
</a>
</g>
</g>
<!-- Node15 -->
<g id="Node000015" class="node">
<title>Node15</title>
<g id="a_Node000015"><a xlink:title=" ">
<polygon fill="#e0e0e0" stroke="#999999" points="272,-19 220,-19 220,0 272,0 272,-19"/>
<text text-anchor="middle" x="246" y="-7" font-family="Helvetica,sans-Serif" font-size="10.00">cassert</text>
</a>
</g>
</g>
<!-- Node12&#45;&gt;Node15 -->
<g id="edge16_Node000012_Node000015" class="edge">
<title>Node12&#45;&gt;Node15</title>
<g id="a_edge16_Node000012_Node000015"><a xlink:title=" ">
<path fill="none" stroke="#63b8ff" d="M475.99,-125.59C428.94,-120.57 370.21,-109.44 323,-85 295.99,-71.02 272.07,-44.51 258.32,-27.18"/>
<polygon fill="#63b8ff" stroke="#63b8ff" points="260.95,-24.86 252.08,-19.06 255.4,-29.13 260.95,-24.86"/>
</a>
</g>
</g>
<!-- Node16 -->
<g id="Node000016" class="node">
<title>Node16</title>
<g id="a_Node000016"><a xlink:title=" ">
<polygon fill="#e0e0e0" stroke="#999999" points="1179.5,-19 1102.5,-19 1102.5,0 1179.5,0 1179.5,-19"/>
<text text-anchor="middle" x="1141" y="-7" font-family="Helvetica,sans-Serif" font-size="10.00">Eigen/Dense</text>
</a>
</g>
</g>
<!-- Node12&#45;&gt;Node16 -->
<g id="edge19_Node000012_Node000016" class="edge">
<title>Node12&#45;&gt;Node16</title>
<g id="a_edge19_Node000012_Node000016"><a xlink:title=" ">
<path fill="none" stroke="#63b8ff" d="M642.28,-121.27C707.63,-114.03 800.66,-101.97 881,-85 962.88,-67.7 1056.77,-38.38 1106.26,-22.16"/>
<polygon fill="#63b8ff" stroke="#63b8ff" points="1107.43,-25.46 1115.84,-19 1105.24,-18.81 1107.43,-25.46"/>
</a>
</g>
</g>
<!-- Node17 -->
<g id="Node000017" class="node">
<title>Node17</title>
<g id="a_Node000017"><a xlink:href="crs__map_8hpp.html" target="_top" xlink:title=" ">
<polygon fill="white" stroke="#666666" points="519.5,-85 402.5,-85 402.5,-55 519.5,-55 519.5,-85"/>
<text text-anchor="start" x="410.5" y="-73" font-family="Helvetica,sans-Serif" font-size="10.00">vulpes/datastructure</text>
<text text-anchor="middle" x="461" y="-62" font-family="Helvetica,sans-Serif" font-size="10.00">/crs_map.hpp</text>
</a>
</g>
</g>
<!-- Node12&#45;&gt;Node17 -->
<g id="edge20_Node000012_Node000017" class="edge">
<title>Node12&#45;&gt;Node17</title>
<g id="a_edge20_Node000012_Node000017"><a xlink:title=" ">
<path fill="none" stroke="#63b8ff" d="M544.54,-120.87C531.12,-112.86 510.67,-100.65 493.36,-90.31"/>
<polygon fill="#63b8ff" stroke="#63b8ff" points="495.03,-87.23 484.64,-85.11 491.44,-93.25 495.03,-87.23"/>
</a>
</g>
</g>
<!-- Node22 -->
<g id="Node000022" class="node">
<title>Node22</title>
<g id="a_Node000022"><a xlink:href="profiler_8hpp.html" target="_top" xlink:title=" ">
<polygon fill="white" stroke="#666666" points="769.5,-79.5 638.5,-79.5 638.5,-60.5 769.5,-60.5 769.5,-79.5"/>
<text text-anchor="middle" x="704" y="-67.5" font-family="Helvetica,sans-Serif" font-size="10.00">vulpes/utils/profiler.hpp</text>
</a>
</g>
</g>
<!-- Node12&#45;&gt;Node22 -->
<g id="edge28_Node000012_Node000022" class="edge">
<title>Node12&#45;&gt;Node22</title>
<g id="a_edge28_Node000012_Node000022"><a xlink:title=" ">
<path fill="none" stroke="#63b8ff" d="M580.08,-120.99C604.68,-111.07 645.53,-94.59 673.56,-83.28"/>
<polygon fill="#63b8ff" stroke="#63b8ff" points="674.93,-86.5 682.89,-79.52 672.31,-80.01 674.93,-86.5"/>
</a>
</g>
</g>
<!-- Node17&#45;&gt;Node9 -->
<g id="edge25_Node000017_Node000009" class="edge">
<title>Node17&#45;&gt;Node9</title>
<g id="a_edge25_Node000017_Node000009"><a xlink:title=" ">
<path fill="none" stroke="#63b8ff" d="M402.4,-56.91C399.22,-56.26 396.07,-55.62 393,-55 315.33,-39.32 293.05,-37.7 211.88,-19.08"/>
<polygon fill="#63b8ff" stroke="#63b8ff" points="212.21,-15.56 201.68,-16.72 210.64,-22.38 212.21,-15.56"/>
</a>
</g>
</g>
<!-- Node17&#45;&gt;Node10 -->
<g id="edge27_Node000017_Node000010" class="edge">
<title>Node17&#45;&gt;Node10</title>
<g id="a_edge27_Node000017_Node000010"><a xlink:title=" ">
<path fill="none" stroke="#63b8ff" d="M519.53,-56.49C522.73,-55.95 525.9,-55.45 529,-55 711.58,-28.49 763.19,-50.43 948.27,-19.02"/>
<polygon fill="#63b8ff" stroke="#63b8ff" points="949.08,-22.43 958.34,-17.28 947.89,-15.53 949.08,-22.43"/>
</a>
</g>
</g>
<!-- Node17&#45;&gt;Node15 -->
<g id="edge23_Node000017_Node000015" class="edge">
<title>Node17&#45;&gt;Node15</title>
<g id="a_edge23_Node000017_Node000015"><a xlink:title=" ">
<path fill="none" stroke="#63b8ff" d="M409.5,-54.99C370.15,-44.28 316.92,-29.8 282.04,-20.3"/>
<polygon fill="#63b8ff" stroke="#63b8ff" points="282.84,-16.9 272.27,-17.65 281,-23.65 282.84,-16.9"/>
</a>
</g>
</g>
<!-- Node18 -->
<g id="Node000018" class="node">
<title>Node18</title>
<g id="a_Node000018"><a xlink:title=" ">
<polygon fill="#e0e0e0" stroke="#999999" points="499,-19 435,-19 435,0 499,0 499,-19"/>
<text text-anchor="middle" x="467" y="-7" font-family="Helvetica,sans-Serif" font-size="10.00">algorithm</text>
</a>
</g>
</g>
<!-- Node17&#45;&gt;Node18 -->
<g id="edge21_Node000017_Node000018" class="edge">
<title>Node17&#45;&gt;Node18</title>
<g id="a_edge21_Node000017_Node000018"><a xlink:title=" ">
<path fill="none" stroke="#63b8ff" d="M462.45,-54.84C463.23,-47.21 464.21,-37.7 465.06,-29.45"/>
<polygon fill="#63b8ff" stroke="#63b8ff" points="468.56,-29.57 466.1,-19.27 461.6,-28.86 468.56,-29.57"/>
</a>
</g>
</g>
<!-- Node19 -->
<g id="Node000019" class="node">
<title>Node19</title>
<g id="a_Node000019"><a xlink:title=" ">
<polygon fill="#e0e0e0" stroke="#999999" points="559,-19 517,-19 517,0 559,0 559,-19"/>
<text text-anchor="middle" x="538" y="-7" font-family="Helvetica,sans-Serif" font-size="10.00">array</text>
</a>
</g>
</g>
<!-- Node17&#45;&gt;Node19 -->
<g id="edge22_Node000017_Node000019" class="edge">
<title>Node17&#45;&gt;Node19</title>
<g id="a_edge22_Node000017_Node000019"><a xlink:title=" ">
<path fill="none" stroke="#63b8ff" d="M479.64,-54.84C491.39,-45.91 506.53,-34.41 518.45,-25.35"/>
<polygon fill="#63b8ff" stroke="#63b8ff" points="520.62,-28.1 526.46,-19.27 516.38,-22.53 520.62,-28.1"/>
</a>
</g>
</g>
<!-- Node20 -->
<g id="Node000020" class="node">
<title>Node20</title>
<g id="a_Node000020"><a xlink:title=" ">
<polygon fill="#e0e0e0" stroke="#999999" points="347.5,-19 290.5,-19 290.5,0 347.5,0 347.5,-19"/>
<text text-anchor="middle" x="319" y="-7" font-family="Helvetica,sans-Serif" font-size="10.00">ostream</text>
</a>
</g>
</g>
<!-- Node17&#45;&gt;Node20 -->
<g id="edge24_Node000017_Node000020" class="edge">
<title>Node17&#45;&gt;Node20</title>
<g id="a_edge24_Node000017_Node000020"><a xlink:title=" ">
<path fill="none" stroke="#63b8ff" d="M426.99,-54.99C403.4,-45.27 372.26,-32.44 349.48,-23.06"/>
<polygon fill="#63b8ff" stroke="#63b8ff" points="350.55,-19.71 339.97,-19.14 347.88,-26.18 350.55,-19.71"/>
</a>
</g>
</g>
<!-- Node21 -->
<g id="Node000021" class="node">
<title>Node21</title>
<g id="a_Node000021"><a xlink:title=" ">
<polygon fill="#e0e0e0" stroke="#999999" points="416.5,-19 365.5,-19 365.5,0 416.5,0 416.5,-19"/>
<text text-anchor="middle" x="391" y="-7" font-family="Helvetica,sans-Serif" font-size="10.00">variant</text>
</a>
</g>
</g>
<!-- Node17&#45;&gt;Node21 -->
<g id="edge26_Node000017_Node000021" class="edge">
<title>Node17&#45;&gt;Node21</title>
<g id="a_edge26_Node000017_Node000021"><a xlink:title=" ">
<path fill="none" stroke="#63b8ff" d="M444.05,-54.84C433.58,-46.09 420.14,-34.85 409.41,-25.88"/>
<polygon fill="#63b8ff" stroke="#63b8ff" points="411.41,-22.99 401.49,-19.27 406.92,-28.36 411.41,-22.99"/>
</a>
</g>
</g>
<!-- Node22&#45;&gt;Node5 -->
<g id="edge31_Node000022_Node000005" class="edge">
<title>Node22&#45;&gt;Node5</title>
<g id="a_edge31_Node000022_Node000005"><a xlink:title=" ">
<path fill="none" stroke="#63b8ff" d="M769.53,-62.52C862.76,-53.24 1039.02,-35.46 1189,-19 1200.75,-17.71 1213.56,-16.24 1225.11,-14.89"/>
<polygon fill="#63b8ff" stroke="#63b8ff" points="1225.79,-18.34 1235.31,-13.69 1224.97,-11.38 1225.79,-18.34"/>
</a>
</g>
</g>
<!-- Node22&#45;&gt;Node6 -->
<g id="edge33_Node000022_Node000006" class="edge">
<title>Node22&#45;&gt;Node6</title>
<g id="a_edge33_Node000022_Node000006"><a xlink:title=" ">
<path fill="none" stroke="#63b8ff" d="M763.21,-60.47C823.76,-51.53 920.77,-36.59 1013.93,-19.12"/>
<polygon fill="#63b8ff" stroke="#63b8ff" points="1014.62,-22.55 1023.8,-17.25 1013.32,-15.67 1014.62,-22.55"/>
</a>
</g>
</g>
<!-- Node22&#45;&gt;Node8 -->
<g id="edge34_Node000022_Node000008" class="edge">
<title>Node22&#45;&gt;Node8</title>
<g id="a_edge34_Node000022_Node000008"><a xlink:title=" ">
<path fill="none" stroke="#63b8ff" d="M639.22,-60.5C623.46,-58.56 606.63,-56.6 591,-55 394.05,-34.82 343.99,-38.77 147,-19 134.29,-17.72 120.33,-16.1 108.18,-14.62"/>
<polygon fill="#63b8ff" stroke="#63b8ff" points="108.4,-11.12 98.04,-13.36 107.54,-18.06 108.4,-11.12"/>
</a>
</g>
</g>
<!-- Node22&#45;&gt;Node9 -->
<g id="edge36_Node000022_Node000009" class="edge">
<title>Node22&#45;&gt;Node9</title>
<g id="a_edge36_Node000022_Node000009"><a xlink:title=" ">
<path fill="none" stroke="#63b8ff" d="M638.31,-60.54C622.81,-58.63 606.33,-56.68 591,-55 425.57,-36.92 379.73,-48.42 211.56,-18.78"/>
<polygon fill="#63b8ff" stroke="#63b8ff" points="212.08,-15.32 201.62,-17 210.85,-22.21 212.08,-15.32"/>
</a>
</g>
</g>
<!-- Node22&#45;&gt;Node10 -->
<g id="edge37_Node000022_Node000010" class="edge">
<title>Node22&#45;&gt;Node10</title>
<g id="a_edge37_Node000022_Node000010"><a xlink:title=" ">
<path fill="none" stroke="#63b8ff" d="M749.97,-60.5C797.39,-51.54 873.71,-36.6 948.25,-19.31"/>
<polygon fill="#63b8ff" stroke="#63b8ff" points="949.33,-22.65 958.27,-16.97 947.74,-15.84 949.33,-22.65"/>
</a>
</g>
</g>
<!-- Node22&#45;&gt;Node18 -->
<g id="edge29_Node000022_Node000018" class="edge">
<title>Node22&#45;&gt;Node18</title>
<g id="a_edge29_Node000022_Node000018"><a xlink:title=" ">
<path fill="none" stroke="#63b8ff" d="M669.54,-60.49C627.05,-50.01 554.86,-32.19 509.12,-20.9"/>
<polygon fill="#63b8ff" stroke="#63b8ff" points="509.77,-17.45 499.22,-18.45 508.09,-24.25 509.77,-17.45"/>
</a>
</g>
</g>
<!-- Node23 -->
<g id="Node000023" class="node">
<title>Node23</title>
<g id="a_Node000023"><a xlink:title=" ">
<polygon fill="#e0e0e0" stroke="#999999" points="755,-19 705,-19 705,0 755,0 755,-19"/>
<text text-anchor="middle" x="730" y="-7" font-family="Helvetica,sans-Serif" font-size="10.00">chrono</text>
</a>
</g>
</g>
<!-- Node22&#45;&gt;Node23 -->
<g id="edge30_Node000022_Node000023" class="edge">
<title>Node22&#45;&gt;Node23</title>
<g id="a_edge30_Node000022_Node000023"><a xlink:title=" ">
<path fill="none" stroke="#63b8ff" d="M707.84,-60.37C711.56,-51.99 717.33,-39.01 722.05,-28.39"/>
<polygon fill="#63b8ff" stroke="#63b8ff" points="725.28,-29.73 726.15,-19.17 718.89,-26.88 725.28,-29.73"/>
</a>
</g>
</g>
<!-- Node24 -->
<g id="Node000024" class="node">
<title>Node24</title>
<g id="a_Node000024"><a xlink:title=" ">
<polygon fill="#e0e0e0" stroke="#999999" points="829,-19 773,-19 773,0 829,0 829,-19"/>
<text text-anchor="middle" x="801" y="-7" font-family="Helvetica,sans-Serif" font-size="10.00">iomanip</text>
</a>
</g>
</g>
<!-- Node22&#45;&gt;Node24 -->
<g id="edge32_Node000022_Node000024" class="edge">
<title>Node22&#45;&gt;Node24</title>
<g id="a_edge32_Node000022_Node000024"><a xlink:title=" ">
<path fill="none" stroke="#63b8ff" d="M718.31,-60.37C734,-50.91 759.4,-35.59 777.91,-24.42"/>
<polygon fill="#63b8ff" stroke="#63b8ff" points="779.87,-27.33 786.63,-19.17 776.26,-21.33 779.87,-27.33"/>
</a>
</g>
</g>
<!-- Node25 -->
<g id="Node000025" class="node">
<title>Node25</title>
<g id="a_Node000025"><a xlink:title=" ">
<polygon fill="#e0e0e0" stroke="#999999" points="940.5,-19 847.5,-19 847.5,0 940.5,0 940.5,-19"/>
<text text-anchor="middle" x="894" y="-7" font-family="Helvetica,sans-Serif" font-size="10.00">unordered_map</text>
</a>
</g>
</g>
<!-- Node22&#45;&gt;Node25 -->
<g id="edge35_Node000022_Node000025" class="edge">
<title>Node22&#45;&gt;Node25</title>
<g id="a_edge35_Node000022_Node000025"><a xlink:title=" ">
<path fill="none" stroke="#63b8ff" d="M731.63,-60.49C764.55,-50.36 819.73,-33.37 856.49,-22.05"/>
<polygon fill="#63b8ff" stroke="#63b8ff" points="857.81,-25.3 866.34,-19.02 855.75,-18.61 857.81,-25.3"/>
</a>
</g>
</g>
<!-- Node26 -->
<g id="Node000026" class="node">
<title>Node26</title>
<g id="a_Node000026"><a xlink:title=" ">
<polygon fill="#e0e0e0" stroke="#999999" points="687,-19 577,-19 577,0 687,0 687,-19"/>
<text text-anchor="middle" x="632" y="-7" font-family="Helvetica,sans-Serif" font-size="10.00">nlohmann/json.hpp</text>
</a>
</g>
</g>
<!-- Node22&#45;&gt;Node26 -->
<g id="edge38_Node000022_Node000026" class="edge">
<title>Node22&#45;&gt;Node26</title>
<g id="a_edge38_Node000022_Node000026"><a xlink:title=" ">
<path fill="none" stroke="#63b8ff" d="M693.38,-60.37C682.1,-51.21 664.08,-36.56 650.47,-25.51"/>
<polygon fill="#63b8ff" stroke="#63b8ff" points="652.64,-22.76 642.67,-19.17 648.22,-28.19 652.64,-22.76"/>
</a>
</g>
</g>
<!-- Node27&#45;&gt;Node4 -->
<g id="edge40_Node000027_Node000004" class="edge">
<title>Node27&#45;&gt;Node4</title>
<g id="a_edge40_Node000027_Node000004"><a xlink:title=" ">
<path fill="none" stroke="#63b8ff" d="M608.38,-230.96C631.28,-223.95 661.48,-212.32 684,-195 700.38,-182.41 714,-162.86 722.49,-148.79"/>
<polygon fill="#63b8ff" stroke="#63b8ff" points="725.56,-150.48 727.53,-140.06 719.5,-146.98 725.56,-150.48"/>
</a>
</g>
</g>
<!-- Node27&#45;&gt;Node5 -->
<g id="edge43_Node000027_Node000005" class="edge">
<title>Node27&#45;&gt;Node5</title>
<g id="a_edge43_Node000027_Node000005"><a xlink:title=" ">
<path fill="none" stroke="#63b8ff" d="M632.77,-234.59C785.7,-221.05 1192.43,-181.49 1236,-140 1266.21,-111.23 1266.61,-57.95 1264.32,-29.52"/>
<polygon fill="#63b8ff" stroke="#63b8ff" points="1267.77,-28.92 1263.28,-19.32 1260.81,-29.62 1267.77,-28.92"/>
</a>
</g>
</g>
<!-- Node27&#45;&gt;Node7 -->
<g id="edge44_Node000027_Node000007" class="edge">
<title>Node27&#45;&gt;Node7</title>
<g id="a_edge44_Node000027_Node000007"><a xlink:title=" ">
<path fill="none" stroke="#63b8ff" d="M517.44,-232.53C453.08,-224.51 345.83,-210.43 254,-195 252.73,-194.79 251.45,-194.57 250.15,-194.34"/>
<polygon fill="#63b8ff" stroke="#63b8ff" points="250.57,-190.86 240.1,-192.49 249.3,-197.74 250.57,-190.86"/>
</a>
</g>
</g>
<!-- Node27&#45;&gt;Node8 -->
<g id="edge45_Node000027_Node000008" class="edge">
<title>Node27&#45;&gt;Node8</title>
<g id="a_edge45_Node000027_Node000008"><a xlink:title=" ">
<path fill="none" stroke="#63b8ff" d="M517.21,-233.57C448.61,-225.93 338.76,-211.65 301,-195 208.57,-154.25 123.25,-64.59 90.33,-27.29"/>
<polygon fill="#63b8ff" stroke="#63b8ff" points="92.66,-24.63 83.45,-19.38 87.38,-29.22 92.66,-24.63"/>
</a>
</g>
</g>
<!-- Node27&#45;&gt;Node9 -->
<g id="edge46_Node000027_Node000009" class="edge">
<title>Node27&#45;&gt;Node9</title>
<g id="a_edge46_Node000027_Node000009"><a xlink:title=" ">
<path fill="none" stroke="#63b8ff" d="M517.3,-233.87C454.37,-226.91 358.4,-213.66 327,-195 290.97,-173.59 218.32,-69.04 190.34,-27.53"/>
<polygon fill="#63b8ff" stroke="#63b8ff" points="193.13,-25.41 184.65,-19.05 187.31,-29.31 193.13,-25.41"/>
</a>
</g>
</g>
<!-- Node27&#45;&gt;Node10 -->
<g id="edge47_Node000027_Node000010" class="edge">
<title>Node27&#45;&gt;Node10</title>
<g id="a_edge47_Node000027_Node000010"><a xlink:title=" ">
<path fill="none" stroke="#63b8ff" d="M596.54,-230.89C613.1,-223.41 635.66,-211.22 651,-195 676.41,-168.14 660.45,-144.49 689,-121 733.65,-84.27 759.67,-104.76 814,-85 865.08,-66.42 922.58,-39.57 955.33,-23.69"/>
<polygon fill="#63b8ff" stroke="#63b8ff" points="957.22,-26.67 964.67,-19.14 954.15,-20.38 957.22,-26.67"/>
</a>
</g>
</g>
<!-- Node27&#45;&gt;Node11 -->
<g id="edge49_Node000027_Node000011" class="edge">
<title>Node27&#45;&gt;Node11</title>
<g id="a_edge49_Node000027_Node000011"><a xlink:title=" ">
<path fill="none" stroke="#63b8ff" d="M547.69,-230.98C519.15,-222.09 474.17,-208.07 442.36,-198.15"/>
<polygon fill="#63b8ff" stroke="#63b8ff" points="443.12,-194.72 432.53,-195.08 441.03,-201.4 443.12,-194.72"/>
</a>
</g>
</g>
<!-- Node27&#45;&gt;Node12 -->
<g id="edge50_Node000027_Node000012" class="edge">
<title>Node27&#45;&gt;Node12</title>
<g id="a_edge50_Node000027_Node000012"><a xlink:title=" ">
<path fill="none" stroke="#63b8ff" d="M572.38,-230.72C569.82,-221.81 566.03,-207.57 564,-195 561.59,-180.12 560.33,-163.09 559.68,-150.41"/>
<polygon fill="#63b8ff" stroke="#63b8ff" points="563.16,-150.02 559.23,-140.18 556.17,-150.32 563.16,-150.02"/>
</a>
</g>
</g>
<!-- Node27&#45;&gt;Node16 -->
<g id="edge48_Node000027_Node000016" class="edge">
<title>Node27&#45;&gt;Node16</title>
<g id="a_edge48_Node000027_Node000016"><a xlink:title=" ">
<path fill="none" stroke="#63b8ff" d="M602.27,-230.98C629.11,-222.44 671.17,-208.63 707,-195 862.35,-135.89 1044.25,-54.5 1112.89,-23.34"/>
<polygon fill="#63b8ff" stroke="#63b8ff" points="1114.52,-26.44 1122.18,-19.12 1111.62,-20.07 1114.52,-26.44"/>
</a>
</g>
</g>
<!-- Node27&#45;&gt;Node18 -->
<g id="edge42_Node000027_Node000018" class="edge">
<title>Node27&#45;&gt;Node18</title>
<g id="a_edge42_Node000027_Node000018"><a xlink:title=" ">
<path fill="none" stroke="#63b8ff" d="M563.31,-230.94C546.05,-218.42 512.59,-194.57 483,-176 413.72,-132.5 364.13,-155.71 323,-85 316.3,-73.47 315.09,-65.73 323,-55 329.26,-46.51 384.82,-31.05 425.06,-20.77"/>
<polygon fill="#63b8ff" stroke="#63b8ff" points="426.08,-24.12 434.91,-18.28 424.36,-17.34 426.08,-24.12"/>
</a>
</g>
</g>
<!-- Node28 -->
<g id="Node000028" class="node">
<title>Node28</title>
<g id="a_Node000028"><a xlink:title=" ">
<polygon fill="#e0e0e0" stroke="#999999" points="641.5,-195 572.5,-195 572.5,-176 641.5,-176 641.5,-195"/>
<text text-anchor="middle" x="607" y="-183" font-family="Helvetica,sans-Serif" font-size="10.00">petscvec.h</text>
</a>
</g>
</g>
<!-- Node27&#45;&gt;Node28 -->
<g id="edge41_Node000027_Node000028" class="edge">
<title>Node27&#45;&gt;Node28</title>
<g id="a_edge41_Node000027_Node000028"><a xlink:title=" ">
<path fill="none" stroke="#63b8ff" d="M580.28,-230.75C584.71,-223.42 591.16,-212.73 596.62,-203.7"/>
<polygon fill="#63b8ff" stroke="#63b8ff" points="599.64,-205.46 601.81,-195.09 593.65,-201.84 599.64,-205.46"/>
</a>
</g>
</g>
<!-- Node29&#45;&gt;Node5 -->
<g id="edge53_Node000029_Node000005" class="edge">
<title>Node29&#45;&gt;Node5</title>
<g id="a_edge53_Node000029_Node000005"><a xlink:title=" ">
<path fill="none" stroke="#63b8ff" d="M1158.05,-120.94C1176.61,-101.23 1222.62,-52.34 1246.72,-26.73"/>
<polygon fill="#63b8ff" stroke="#63b8ff" points="1249.41,-28.98 1253.72,-19.3 1244.31,-24.18 1249.41,-28.98"/>
</a>
</g>
</g>
<!-- Node29&#45;&gt;Node10 -->
<g id="edge54_Node000029_Node000010" class="edge">
<title>Node29&#45;&gt;Node10</title>
<g id="a_edge54_Node000029_Node000010"><a xlink:title=" ">
<path fill="none" stroke="#63b8ff" d="M1137.92,-120.94C1109.48,-100.8 1038.06,-50.21 1002.61,-25.1"/>
<polygon fill="#63b8ff" stroke="#63b8ff" points="1004.61,-22.23 994.43,-19.3 1000.56,-27.94 1004.61,-22.23"/>
</a>
</g>
</g>
<!-- Node29&#45;&gt;Node19 -->
<g id="edge52_Node000029_Node000019" class="edge">
<title>Node29&#45;&gt;Node19</title>
<g id="a_edge52_Node000029_Node000019"><a xlink:title=" ">
<path fill="none" stroke="#63b8ff" d="M1072.91,-128.42C948.21,-125.75 708.32,-116.56 630,-85 625.7,-83.27 581.68,-46.91 556.13,-25.64"/>
<polygon fill="#63b8ff" stroke="#63b8ff" points="558.17,-22.78 548.25,-19.07 553.69,-28.16 558.17,-22.78"/>
</a>
</g>
</g>
<!-- Node30 -->
<g id="Node000030" class="node">
<title>Node30</title>
<g id="a_Node000030"><a xlink:href="vmath_8hpp.html" target="_top" xlink:title=" ">
<polygon fill="white" stroke="#666666" points="1487,-79.5 1359,-79.5 1359,-60.5 1487,-60.5 1487,-79.5"/>
<text text-anchor="middle" x="1423" y="-67.5" font-family="Helvetica,sans-Serif" font-size="10.00">vulpes/utils/vmath.hpp</text>
</a>
</g>
</g>
<!-- Node29&#45;&gt;Node30 -->
<g id="edge55_Node000029_Node000030" class="edge">
<title>Node29&#45;&gt;Node30</title>
<g id="a_edge55_Node000029_Node000030"><a xlink:title=" ">
<path fill="none" stroke="#63b8ff" d="M1189.7,-120.99C1238.32,-110.57 1320.71,-92.92 1373.45,-81.62"/>
<polygon fill="#63b8ff" stroke="#63b8ff" points="1374.21,-85.03 1383.26,-79.52 1372.74,-78.19 1374.21,-85.03"/>
</a>
</g>
</g>
<!-- Node30&#45;&gt;Node5 -->
<g id="edge57_Node000030_Node000005" class="edge">
<title>Node30&#45;&gt;Node5</title>
<g id="a_edge57_Node000030_Node000005"><a xlink:title=" ">
<path fill="none" stroke="#63b8ff" d="M1399.59,-60.49C1372.05,-50.49 1326.13,-33.8 1294.99,-22.49"/>
<polygon fill="#63b8ff" stroke="#63b8ff" points="1296.03,-19.14 1285.44,-19.02 1293.64,-25.72 1296.03,-19.14"/>
</a>
</g>
</g>
<!-- Node30&#45;&gt;Node16 -->
<g id="edge61_Node000030_Node000016" class="edge">
<title>Node30&#45;&gt;Node16</title>
<g id="a_edge61_Node000030_Node000016"><a xlink:title=" ">
<path fill="none" stroke="#63b8ff" d="M1381.99,-60.49C1331.05,-49.93 1244.22,-31.91 1189.87,-20.64"/>
<polygon fill="#63b8ff" stroke="#63b8ff" points="1190.29,-17.15 1179.79,-18.55 1188.87,-24 1190.29,-17.15"/>
</a>
</g>
</g>
<!-- Node31 -->
<g id="Node000031" class="node">
<title>Node31</title>
<g id="a_Node000031"><a xlink:title=" ">
<polygon fill="#e0e0e0" stroke="#999999" points="1452.5,-19 1393.5,-19 1393.5,0 1452.5,0 1452.5,-19"/>
<text text-anchor="middle" x="1423" y="-7" font-family="Helvetica,sans-Serif" font-size="10.00">gmpxx.h</text>
</a>
</g>
</g>
<!-- Node30&#45;&gt;Node31 -->
<g id="edge56_Node000030_Node000031" class="edge">
<title>Node30&#45;&gt;Node31</title>
<g id="a_edge56_Node000030_Node000031"><a xlink:title=" ">
<path fill="none" stroke="#63b8ff" d="M1423,-60.37C1423,-52.25 1423,-39.81 1423,-29.39"/>
<polygon fill="#63b8ff" stroke="#63b8ff" points="1426.5,-29.17 1423,-19.17 1419.5,-29.17 1426.5,-29.17"/>
</a>
</g>
</g>
<!-- Node32 -->
<g id="Node000032" class="node">
<title>Node32</title>
<g id="a_Node000032"><a xlink:title=" ">
<polygon fill="#e0e0e0" stroke="#999999" points="1521,-19 1471,-19 1471,0 1521,0 1521,-19"/>
<text text-anchor="middle" x="1496" y="-7" font-family="Helvetica,sans-Serif" font-size="10.00">cstdint</text>
</a>
</g>
</g>
<!-- Node30&#45;&gt;Node32 -->
<g id="edge58_Node000030_Node000032" class="edge">
<title>Node30&#45;&gt;Node32</title>
<g id="a_edge58_Node000030_Node000032"><a xlink:title=" ">
<path fill="none" stroke="#63b8ff" d="M1433.77,-60.37C1445.2,-51.21 1463.48,-36.56 1477.28,-25.51"/>
<polygon fill="#63b8ff" stroke="#63b8ff" points="1479.57,-28.15 1485.18,-19.17 1475.19,-22.69 1479.57,-28.15"/>
</a>
</g>
</g>
<!-- Node33 -->
<g id="Node000033" class="node">
<title>Node33</title>
<g id="a_Node000033"><a xlink:title=" ">
<polygon fill="#e0e0e0" stroke="#999999" points="1583,-19 1539,-19 1539,0 1583,0 1583,-19"/>
<text text-anchor="middle" x="1561" y="-7" font-family="Helvetica,sans-Serif" font-size="10.00">limits</text>
</a>
</g>
</g>
<!-- Node30&#45;&gt;Node33 -->
<g id="edge59_Node000030_Node000033" class="edge">
<title>Node30&#45;&gt;Node33</title>
<g id="a_edge59_Node000030_Node000033"><a xlink:title=" ">
<path fill="none" stroke="#63b8ff" d="M1443.07,-60.49C1466.37,-50.62 1505.01,-34.23 1531.68,-22.93"/>
<polygon fill="#63b8ff" stroke="#63b8ff" points="1533.07,-26.14 1540.91,-19.02 1530.34,-19.7 1533.07,-26.14"/>
</a>
</g>
</g>
<!-- Node34 -->
<g id="Node000034" class="node">
<title>Node34</title>
<g id="a_Node000034"><a xlink:title=" ">
<polygon fill="#e0e0e0" stroke="#999999" points="1375.5,-19 1306.5,-19 1306.5,0 1375.5,0 1375.5,-19"/>
<text text-anchor="middle" x="1341" y="-7" font-family="Helvetica,sans-Serif" font-size="10.00">type_traits</text>
</a>
</g>
</g>
<!-- Node30&#45;&gt;Node34 -->
<g id="edge60_Node000030_Node000034" class="edge">
<title>Node30&#45;&gt;Node34</title>
<g id="a_edge60_Node000030_Node000034"><a xlink:title=" ">
<path fill="none" stroke="#63b8ff" d="M1410.9,-60.37C1397.94,-51.12 1377.14,-36.28 1361.6,-25.19"/>
<polygon fill="#63b8ff" stroke="#63b8ff" points="1363.32,-22.13 1353.15,-19.17 1359.26,-27.82 1363.32,-22.13"/>
</a>
</g>
</g>
</g>
</svg>
