<?xml version="1.0" encoding="UTF-8" standalone="no"?>
<!DOCTYPE svg PUBLIC "-//W3C//DTD SVG 1.1//EN"
 "http://www.w3.org/Graphics/SVG/1.1/DTD/svg11.dtd">
<!-- Generated by graphviz version 12.2.1 (20241206.2353)
 -->
<!-- Title: /Users/ilariomazzieri/Desktop/vulpes/vulpes/la/sparse_matrix.cpp Pages: 1 -->
<svg width="1495pt" height="393pt"
 viewBox="0.00 0.00 1494.62 392.50" xmlns="http://www.w3.org/2000/svg" xmlns:xlink="http://www.w3.org/1999/xlink">
<g id="graph0" class="graph" transform="scale(1 1) rotate(0) translate(4 388.5)">
<title>/Users/ilariomazzieri/Desktop/vulpes/vulpes/la/sparse_matrix.cpp</title>
<!-- Node1 -->
<g id="Node000001" class="node">
<title>Node1</title>
<g id="a_Node000001"><a xlink:title=" ">
<polygon fill="#999999" stroke="#666666" points="306.38,-384.5 187.62,-384.5 187.62,-342.75 306.38,-342.75 306.38,-384.5"/>
<text text-anchor="start" x="195.62" y="-371" font-family="Helvetica,sans-Serif" font-size="10.00">/Users/ilariomazzieri</text>
<text text-anchor="start" x="195.62" y="-359.75" font-family="Helvetica,sans-Serif" font-size="10.00">/Desktop/vulpes/vulpes</text>
<text text-anchor="middle" x="247" y="-348.5" font-family="Helvetica,sans-Serif" font-size="10.00">/la/sparse_matrix.cpp</text>
</a>
</g>
</g>
<!-- Node2 -->
<g id="Node000002" class="node">
<title>Node2</title>
<g id="a_Node000002"><a xlink:href="sparse__matrix_8hpp.html" target="_top" xlink:title=" ">
<polygon fill="white" stroke="#666666" points="525.12,-306.75 386.88,-306.75 386.88,-287.5 525.12,-287.5 525.12,-306.75"/>
<text text-anchor="middle" x="456" y="-293.25" font-family="Helvetica,sans-Serif" font-size="10.00">vulpes/la/sparse_matrix.hpp</text>
</a>
</g>
</g>
<!-- Node1&#45;&gt;Node2 -->
<g id="edge1_Node000001_Node000002" class="edge">
<title>Node1&#45;&gt;Node2</title>
<g id="a_edge1_Node000001_Node000002"><a xlink:title=" ">
<path fill="none" stroke="#63b8ff" d="M306.61,-344.23C341.53,-333.45 384.72,-320.12 415.66,-310.58"/>
<polygon fill="#63b8ff" stroke="#63b8ff" points="416.5,-313.98 425.02,-307.69 414.43,-307.29 416.5,-313.98"/>
</a>
</g>
</g>
<!-- Node8 -->
<g id="Node000008" class="node">
<title>Node8</title>
<g id="a_Node000008"><a xlink:title=" ">
<polygon fill="#e0e0e0" stroke="#999999" points="170,-19.25 130,-19.25 130,0 170,0 170,-19.25"/>
<text text-anchor="middle" x="150" y="-5.75" font-family="Helvetica,sans-Serif" font-size="10.00">string</text>
</a>
</g>
</g>
<!-- Node1&#45;&gt;Node8 -->
<g id="edge63_Node000001_Node000008" class="edge">
<title>Node1&#45;&gt;Node8</title>
<g id="a_edge63_Node000001_Node000008"><a xlink:title=" ">
<path fill="none" stroke="#63b8ff" d="M187.39,-354.31C125.61,-341.95 38,-312.19 38,-242.88 38,-242.88 38,-242.88 38,-185.62 38,-117.99 98.08,-55.56 130.23,-26.98"/>
<polygon fill="#63b8ff" stroke="#63b8ff" points="132.42,-29.71 137.71,-20.53 127.85,-24.42 132.42,-29.71"/>
</a>
</g>
</g>
<!-- Node9 -->
<g id="Node000009" class="node">
<title>Node9</title>
<g id="a_Node000009"><a xlink:title=" ">
<polygon fill="#e0e0e0" stroke="#999999" points="111.62,-19.25 72.38,-19.25 72.38,0 111.62,0 111.62,-19.25"/>
<text text-anchor="middle" x="92" y="-5.75" font-family="Helvetica,sans-Serif" font-size="10.00">utility</text>
</a>
</g>
</g>
<!-- Node1&#45;&gt;Node9 -->
<g id="edge64_Node000001_Node000009" class="edge">
<title>Node1&#45;&gt;Node9</title>
<g id="a_edge64_Node000001_Node000009"><a xlink:title=" ">
<path fill="none" stroke="#63b8ff" d="M187.21,-359.16C114.11,-351.32 0,-325.8 0,-242.88 0,-242.88 0,-242.88 0,-130.38 0,-85.31 41.48,-46.77 68.73,-26.32"/>
<polygon fill="#63b8ff" stroke="#63b8ff" points="70.73,-29.19 76.8,-20.5 66.64,-23.51 70.73,-29.19"/>
</a>
</g>
</g>
<!-- Node10 -->
<g id="Node000010" class="node">
<title>Node10</title>
<g id="a_Node000010"><a xlink:title=" ">
<polygon fill="#e0e0e0" stroke="#999999" points="923.5,-19.25 880.5,-19.25 880.5,0 923.5,0 923.5,-19.25"/>
<text text-anchor="middle" x="902" y="-5.75" font-family="Helvetica,sans-Serif" font-size="10.00">vector</text>
</a>
</g>
</g>
<!-- Node1&#45;&gt;Node10 -->
<g id="edge65_Node000001_Node000010" class="edge">
<title>Node1&#45;&gt;Node10</title>
<g id="a_edge65_Node000001_Node000010"><a xlink:title=" ">
<path fill="none" stroke="#63b8ff" d="M306.87,-359.48C486.1,-349.26 1006,-313.54 1006,-242.88 1006,-242.88 1006,-242.88 1006,-130.38 1006,-83.12 959.27,-45.41 928.46,-25.68"/>
<polygon fill="#63b8ff" stroke="#63b8ff" points="930.35,-22.74 920,-20.49 926.69,-28.7 930.35,-22.74"/>
</a>
</g>
</g>
<!-- Node3 -->
<g id="Node000003" class="node">
<title>Node3</title>
<g id="a_Node000003"><a xlink:title=" ">
<polygon fill="#e0e0e0" stroke="#999999" points="270.38,-251.5 205.62,-251.5 205.62,-232.25 270.38,-232.25 270.38,-251.5"/>
<text text-anchor="middle" x="238" y="-238" font-family="Helvetica,sans-Serif" font-size="10.00">petscmat.h</text>
</a>
</g>
</g>
<!-- Node2&#45;&gt;Node3 -->
<g id="edge2_Node000002_Node000003" class="edge">
<title>Node2&#45;&gt;Node3</title>
<g id="a_edge2_Node000002_Node000003"><a xlink:title=" ">
<path fill="none" stroke="#63b8ff" d="M419.02,-287.09C381.01,-277.81 321.87,-263.36 281.61,-253.53"/>
<polygon fill="#63b8ff" stroke="#63b8ff" points="282.54,-250.15 272,-251.18 280.88,-256.95 282.54,-250.15"/>
</a>
</g>
</g>
<!-- Node4 -->
<g id="Node000004" class="node">
<title>Node4</title>
<g id="a_Node000004"><a xlink:title=" ">
<polygon fill="#e0e0e0" stroke="#999999" points="338,-141 274,-141 274,-121.75 338,-121.75 338,-141"/>
<text text-anchor="middle" x="306" y="-127.5" font-family="Helvetica,sans-Serif" font-size="10.00">petscsys.h</text>
</a>
</g>
</g>
<!-- Node2&#45;&gt;Node4 -->
<g id="edge3_Node000002_Node000004" class="edge">
<title>Node2&#45;&gt;Node4</title>
<g id="a_edge3_Node000002_Node000004"><a xlink:title=" ">
<path fill="none" stroke="#63b8ff" d="M434.29,-287.05C402.88,-272.72 345.45,-241.72 317,-196.25 308.86,-183.24 306.27,-165.96 305.63,-152.65"/>
<polygon fill="#63b8ff" stroke="#63b8ff" points="309.13,-152.85 305.51,-142.89 302.13,-152.94 309.13,-152.85"/>
</a>
</g>
</g>
<!-- Node5 -->
<g id="Node000005" class="node">
<title>Node5</title>
<g id="a_Node000005"><a xlink:title=" ">
<polygon fill="#e0e0e0" stroke="#999999" points="1214.12,-19.25 1165.88,-19.25 1165.88,0 1214.12,0 1214.12,-19.25"/>
<text text-anchor="middle" x="1190" y="-5.75" font-family="Helvetica,sans-Serif" font-size="10.00">cstddef</text>
</a>
</g>
</g>
<!-- Node2&#45;&gt;Node5 -->
<g id="edge4_Node000002_Node000005" class="edge">
<title>Node2&#45;&gt;Node5</title>
<g id="a_edge4_Node000002_Node000005"><a xlink:title=" ">
<path fill="none" stroke="#63b8ff" d="M525.56,-293.71C716.74,-286.14 1236,-259.02 1236,-187.62 1236,-187.62 1236,-187.62 1236,-130.38 1236,-92.48 1215.68,-52.06 1202.05,-29.21"/>
<polygon fill="#63b8ff" stroke="#63b8ff" points="1205.06,-27.42 1196.81,-20.78 1199.11,-31.12 1205.06,-27.42"/>
</a>
</g>
</g>
<!-- Node6 -->
<g id="Node000006" class="node">
<title>Node6</title>
<g id="a_Node000006"><a xlink:title=" ">
<polygon fill="#e0e0e0" stroke="#999999" points="663.75,-19.25 610.25,-19.25 610.25,0 663.75,0 663.75,-19.25"/>
<text text-anchor="middle" x="637" y="-5.75" font-family="Helvetica,sans-Serif" font-size="10.00">iostream</text>
</a>
</g>
</g>
<!-- Node2&#45;&gt;Node6 -->
<g id="edge5_Node000002_Node000006" class="edge">
<title>Node2&#45;&gt;Node6</title>
<g id="a_edge5_Node000002_Node000006"><a xlink:title=" ">
<path fill="none" stroke="#63b8ff" d="M488.14,-287.1C527.07,-274.21 590.71,-246.35 617,-196.25 620.98,-188.67 619.63,-185.14 617,-177 610.93,-158.22 600.36,-158.37 591,-141 578.54,-117.88 574.74,-111.59 570,-85.75 567.55,-72.42 563.6,-67.2 570,-55.25 577.13,-41.93 590.19,-31.9 602.89,-24.76"/>
<polygon fill="#63b8ff" stroke="#63b8ff" points="604.23,-28.01 611.54,-20.34 601.04,-21.78 604.23,-28.01"/>
</a>
</g>
</g>
<!-- Node7 -->
<g id="Node000007" class="node">
<title>Node7</title>
<g id="a_Node000007"><a xlink:title=" ">
<polygon fill="#e0e0e0" stroke="#999999" points="193.62,-196.25 142.38,-196.25 142.38,-177 193.62,-177 193.62,-196.25"/>
<text text-anchor="middle" x="168" y="-182.75" font-family="Helvetica,sans-Serif" font-size="10.00">memory</text>
</a>
</g>
</g>
<!-- Node2&#45;&gt;Node7 -->
<g id="edge6_Node000002_Node000007" class="edge">
<title>Node2&#45;&gt;Node7</title>
<g id="a_edge6_Node000002_Node000007"><a xlink:title=" ">
<path fill="none" stroke="#63b8ff" d="M386.55,-291.44C320.13,-285.7 225.93,-273.85 197,-251.5 183.14,-240.8 175.71,-221.98 171.85,-207.53"/>
<polygon fill="#63b8ff" stroke="#63b8ff" points="175.35,-207.14 169.72,-198.17 168.52,-208.69 175.35,-207.14"/>
</a>
</g>
</g>
<!-- Node2&#45;&gt;Node8 -->
<g id="edge7_Node000002_Node000008" class="edge">
<title>Node2&#45;&gt;Node8</title>
<g id="a_edge7_Node000002_Node000008"><a xlink:title=" ">
<path fill="none" stroke="#63b8ff" d="M386.58,-290.65C316.09,-284.09 212.56,-271.44 178,-251.5 150.57,-235.68 143.61,-226.09 133,-196.25 124.85,-173.33 144.26,-171.52 154,-85.75 155.53,-72.28 154.61,-68.79 154,-55.25 153.64,-47.29 152.93,-38.54 152.21,-30.93"/>
<polygon fill="#63b8ff" stroke="#63b8ff" points="155.69,-30.59 151.19,-21.01 148.73,-31.31 155.69,-30.59"/>
</a>
</g>
</g>
<!-- Node2&#45;&gt;Node9 -->
<g id="edge8_Node000002_Node000009" class="edge">
<title>Node2&#45;&gt;Node9</title>
<g id="a_edge8_Node000002_Node000009"><a xlink:title=" ">
<path fill="none" stroke="#63b8ff" d="M386.51,-294.09C307.17,-290.42 183.73,-280.14 148,-251.5 80.33,-197.25 84.59,-78.63 89.39,-31.01"/>
<polygon fill="#63b8ff" stroke="#63b8ff" points="92.87,-31.41 90.53,-21.08 85.91,-30.61 92.87,-31.41"/>
</a>
</g>
</g>
<!-- Node2&#45;&gt;Node10 -->
<g id="edge9_Node000002_Node000010" class="edge">
<title>Node2&#45;&gt;Node10</title>
<g id="a_edge9_Node000002_Node000010"><a xlink:title=" ">
<path fill="none" stroke="#63b8ff" d="M525.43,-294.54C657.09,-289.65 930,-269.62 930,-187.62 930,-187.62 930,-187.62 930,-130.38 930,-94.19 917.73,-53.44 909.44,-30.02"/>
<polygon fill="#63b8ff" stroke="#63b8ff" points="912.81,-29.06 906.07,-20.89 906.25,-31.49 912.81,-29.06"/>
</a>
</g>
</g>
<!-- Node11 -->
<g id="Node000011" class="node">
<title>Node11</title>
<g id="a_Node000011"><a xlink:href="petsc__utils_8hpp.html" target="_top" xlink:title=" ">
<polygon fill="white" stroke="#666666" points="608,-196.25 484,-196.25 484,-177 608,-177 608,-196.25"/>
<text text-anchor="middle" x="546" y="-182.75" font-family="Helvetica,sans-Serif" font-size="10.00">vulpes/la/petsc_utils.hpp</text>
</a>
</g>
</g>
<!-- Node2&#45;&gt;Node11 -->
<g id="edge10_Node000002_Node000011" class="edge">
<title>Node2&#45;&gt;Node11</title>
<g id="a_edge10_Node000002_Node000011"><a xlink:title=" ">
<path fill="none" stroke="#63b8ff" d="M472.87,-287.04C486.27,-279.13 504.75,-266.57 517,-251.5 527.59,-238.48 535.18,-220.97 539.93,-207.57"/>
<polygon fill="#63b8ff" stroke="#63b8ff" points="543.25,-208.71 543.04,-198.11 536.59,-206.52 543.25,-208.71"/>
</a>
</g>
</g>
<!-- Node12 -->
<g id="Node000012" class="node">
<title>Node12</title>
<g id="a_Node000012"><a xlink:href="mpi__wrappers_8hpp.html" target="_top" xlink:title=" ">
<polygon fill="white" stroke="#666666" points="748,-141 600,-141 600,-121.75 748,-121.75 748,-141"/>
<text text-anchor="middle" x="674" y="-127.5" font-family="Helvetica,sans-Serif" font-size="10.00">vulpes/utils/mpi_wrappers.hpp</text>
</a>
</g>
</g>
<!-- Node2&#45;&gt;Node12 -->
<g id="edge62_Node000002_Node000012" class="edge">
<title>Node2&#45;&gt;Node12</title>
<g id="a_edge62_Node000002_Node000012"><a xlink:title=" ">
<path fill="none" stroke="#63b8ff" d="M525.45,-288.14C573.84,-281.14 632.71,-269.27 650,-251.5 675.79,-224.99 677.51,-178.92 676.04,-152.52"/>
<polygon fill="#63b8ff" stroke="#63b8ff" points="679.55,-152.51 675.27,-142.81 672.57,-153.06 679.55,-152.51"/>
</a>
</g>
</g>
<!-- Node27 -->
<g id="Node000027" class="node">
<title>Node27</title>
<g id="a_Node000027"><a xlink:href="vector_8hpp.html" target="_top" xlink:title=" ">
<polygon fill="white" stroke="#666666" points="507.5,-251.5 404.5,-251.5 404.5,-232.25 507.5,-232.25 507.5,-251.5"/>
<text text-anchor="middle" x="456" y="-238" font-family="Helvetica,sans-Serif" font-size="10.00">vulpes/la/vector.hpp</text>
</a>
</g>
</g>
<!-- Node2&#45;&gt;Node27 -->
<g id="edge39_Node000002_Node000027" class="edge">
<title>Node2&#45;&gt;Node27</title>
<g id="a_edge39_Node000002_Node000027"><a xlink:title=" ">
<path fill="none" stroke="#63b8ff" d="M456,-287.33C456,-280.82 456,-271.67 456,-263.37"/>
<polygon fill="#63b8ff" stroke="#63b8ff" points="459.5,-263.37 456,-253.37 452.5,-263.37 459.5,-263.37"/>
</a>
</g>
</g>
<!-- Node29 -->
<g id="Node000029" class="node">
<title>Node29</title>
<g id="a_Node000029"><a xlink:href="qrule_8hpp.html" target="_top" xlink:title=" ">
<polygon fill="white" stroke="#666666" points="1170,-141 1034,-141 1034,-121.75 1170,-121.75 1170,-141"/>
<text text-anchor="middle" x="1102" y="-127.5" font-family="Helvetica,sans-Serif" font-size="10.00">vulpes/quadrature/qrule.hpp</text>
</a>
</g>
</g>
<!-- Node2&#45;&gt;Node29 -->
<g id="edge51_Node000002_Node000029" class="edge">
<title>Node2&#45;&gt;Node29</title>
<g id="a_edge51_Node000002_Node000029"><a xlink:title=" ">
<path fill="none" stroke="#63b8ff" d="M525.21,-294.45C641.19,-290.87 869.4,-280.32 944,-251.5 1003.31,-228.59 1059.44,-176.54 1086,-149.46"/>
<polygon fill="#63b8ff" stroke="#63b8ff" points="1088.37,-152.04 1092.78,-142.41 1083.33,-147.19 1088.37,-152.04"/>
</a>
</g>
</g>
<!-- Node11&#45;&gt;Node4 -->
<g id="edge11_Node000011_Node000004" class="edge">
<title>Node11&#45;&gt;Node4</title>
<g id="a_edge11_Node000011_Node000004"><a xlink:title=" ">
<path fill="none" stroke="#63b8ff" d="M505.02,-176.53C461.66,-166.91 393.54,-151.8 349.32,-141.99"/>
<polygon fill="#63b8ff" stroke="#63b8ff" points="350.35,-138.63 339.83,-139.88 348.83,-145.46 350.35,-138.63"/>
</a>
</g>
</g>
<!-- Node11&#45;&gt;Node8 -->
<g id="edge12_Node000011_Node000008" class="edge">
<title>Node11&#45;&gt;Node8</title>
<g id="a_edge12_Node000011_Node000008"><a xlink:title=" ">
<path fill="none" stroke="#63b8ff" d="M518.47,-176.61C472.43,-161.04 377.51,-126.79 303,-85.75 282.48,-74.45 280.55,-66.51 260,-55.25 234.33,-41.19 203.29,-29 180.74,-20.93"/>
<polygon fill="#63b8ff" stroke="#63b8ff" points="182.13,-17.7 171.53,-17.7 179.81,-24.31 182.13,-17.7"/>
</a>
</g>
</g>
<!-- Node11&#45;&gt;Node12 -->
<g id="edge13_Node000011_Node000012" class="edge">
<title>Node11&#45;&gt;Node12</title>
<g id="a_edge13_Node000011_Node000012"><a xlink:title=" ">
<path fill="none" stroke="#63b8ff" d="M567.71,-176.59C588.03,-168.14 618.65,-155.4 641.81,-145.77"/>
<polygon fill="#63b8ff" stroke="#63b8ff" points="642.89,-149.11 650.78,-142.03 640.21,-142.64 642.89,-149.11"/>
</a>
</g>
</g>
<!-- Node12&#45;&gt;Node6 -->
<g id="edge17_Node000012_Node000006" class="edge">
<title>Node12&#45;&gt;Node6</title>
<g id="a_edge17_Node000012_Node000006"><a xlink:title=" ">
<path fill="none" stroke="#63b8ff" d="M630.99,-121.28C611.61,-114.8 590.53,-103.9 579,-85.75 571.73,-74.31 573.01,-67.41 579,-55.25 585.16,-42.73 596.71,-32.74 607.89,-25.41"/>
<polygon fill="#63b8ff" stroke="#63b8ff" points="609.41,-28.59 616.18,-20.44 605.81,-22.58 609.41,-28.59"/>
</a>
</g>
</g>
<!-- Node12&#45;&gt;Node10 -->
<g id="edge18_Node000012_Node000010" class="edge">
<title>Node12&#45;&gt;Node10</title>
<g id="a_edge18_Node000012_Node000010"><a xlink:title=" ">
<path fill="none" stroke="#63b8ff" d="M738.19,-121.29C769.15,-114.81 805.81,-103.9 835,-85.75 858.35,-71.23 878.31,-46.18 890.22,-29.03"/>
<polygon fill="#63b8ff" stroke="#63b8ff" points="893.08,-31.05 895.72,-20.79 887.25,-27.17 893.08,-31.05"/>
</a>
</g>
</g>
<!-- Node13 -->
<g id="Node000013" class="node">
<title>Node13</title>
<g id="a_Node000013"><a xlink:title=" ">
<polygon fill="#e0e0e0" stroke="#999999" points="704,-80.12 664,-80.12 664,-60.88 704,-60.88 704,-80.12"/>
<text text-anchor="middle" x="684" y="-66.62" font-family="Helvetica,sans-Serif" font-size="10.00">mpi.h</text>
</a>
</g>
</g>
<!-- Node12&#45;&gt;Node13 -->
<g id="edge14_Node000012_Node000013" class="edge">
<title>Node12&#45;&gt;Node13</title>
<g id="a_edge14_Node000012_Node000013"><a xlink:title=" ">
<path fill="none" stroke="#63b8ff" d="M675.52,-121.43C676.86,-113.57 678.85,-101.82 680.57,-91.7"/>
<polygon fill="#63b8ff" stroke="#63b8ff" points="683.99,-92.46 682.21,-82.02 677.09,-91.29 683.99,-92.46"/>
</a>
</g>
</g>
<!-- Node14 -->
<g id="Node000014" class="node">
<title>Node14</title>
<g id="a_Node000014"><a xlink:title=" ">
<polygon fill="#e0e0e0" stroke="#999999" points="646.12,-80.12 597.88,-80.12 597.88,-60.88 646.12,-60.88 646.12,-80.12"/>
<text text-anchor="middle" x="622" y="-66.62" font-family="Helvetica,sans-Serif" font-size="10.00">petsc.h</text>
</a>
</g>
</g>
<!-- Node12&#45;&gt;Node14 -->
<g id="edge15_Node000012_Node000014" class="edge">
<title>Node12&#45;&gt;Node14</title>
<g id="a_edge15_Node000012_Node000014"><a xlink:title=" ">
<path fill="none" stroke="#63b8ff" d="M666.1,-121.43C658.54,-112.87 646.93,-99.73 637.52,-89.07"/>
<polygon fill="#63b8ff" stroke="#63b8ff" points="640.22,-86.84 630.97,-81.66 634.97,-91.47 640.22,-86.84"/>
</a>
</g>
</g>
<!-- Node15 -->
<g id="Node000015" class="node">
<title>Node15</title>
<g id="a_Node000015"><a xlink:title=" ">
<polygon fill="#e0e0e0" stroke="#999999" points="730.12,-19.25 681.88,-19.25 681.88,0 730.12,0 730.12,-19.25"/>
<text text-anchor="middle" x="706" y="-5.75" font-family="Helvetica,sans-Serif" font-size="10.00">cassert</text>
</a>
</g>
</g>
<!-- Node12&#45;&gt;Node15 -->
<g id="edge16_Node000012_Node000015" class="edge">
<title>Node12&#45;&gt;Node15</title>
<g id="a_edge16_Node000012_Node000015"><a xlink:title=" ">
<path fill="none" stroke="#63b8ff" d="M638.47,-121.28C620.3,-114.64 599.78,-103.58 589,-85.75 581.99,-74.15 581.31,-66.41 589,-55.25 593.93,-48.09 638.36,-32.46 671.01,-21.74"/>
<polygon fill="#63b8ff" stroke="#63b8ff" points="671.69,-25.2 680.12,-18.78 669.53,-18.54 671.69,-25.2"/>
</a>
</g>
</g>
<!-- Node16 -->
<g id="Node000016" class="node">
<title>Node16</title>
<g id="a_Node000016"><a xlink:title=" ">
<polygon fill="#e0e0e0" stroke="#999999" points="1118.12,-19.25 1045.88,-19.25 1045.88,0 1118.12,0 1118.12,-19.25"/>
<text text-anchor="middle" x="1082" y="-5.75" font-family="Helvetica,sans-Serif" font-size="10.00">Eigen/Dense</text>
</a>
</g>
</g>
<!-- Node12&#45;&gt;Node16 -->
<g id="edge19_Node000012_Node000016" class="edge">
<title>Node12&#45;&gt;Node16</title>
<g id="a_edge19_Node000012_Node000016"><a xlink:title=" ">
<path fill="none" stroke="#63b8ff" d="M719.35,-121.26C758.48,-113.05 816.36,-100.11 866,-85.75 931.3,-66.86 1005.86,-39.64 1048.09,-23.68"/>
<polygon fill="#63b8ff" stroke="#63b8ff" points="1049.09,-27.04 1057.2,-20.22 1046.61,-20.5 1049.09,-27.04"/>
</a>
</g>
</g>
<!-- Node17 -->
<g id="Node000017" class="node">
<title>Node17</title>
<g id="a_Node000017"><a xlink:href="crs__map_8hpp.html" target="_top" xlink:title=" ">
<polygon fill="white" stroke="#666666" points="826.25,-85.75 721.75,-85.75 721.75,-55.25 826.25,-55.25 826.25,-85.75"/>
<text text-anchor="start" x="729.75" y="-72.25" font-family="Helvetica,sans-Serif" font-size="10.00">vulpes/datastructure</text>
<text text-anchor="middle" x="774" y="-61" font-family="Helvetica,sans-Serif" font-size="10.00">/crs_map.hpp</text>
</a>
</g>
</g>
<!-- Node12&#45;&gt;Node17 -->
<g id="edge20_Node000012_Node000017" class="edge">
<title>Node12&#45;&gt;Node17</title>
<g id="a_edge20_Node000012_Node000017"><a xlink:title=" ">
<path fill="none" stroke="#63b8ff" d="M689.19,-121.43C702.52,-113.58 722.42,-101.87 739.59,-91.76"/>
<polygon fill="#63b8ff" stroke="#63b8ff" points="741.17,-94.89 748.01,-86.8 737.62,-88.86 741.17,-94.89"/>
</a>
</g>
</g>
<!-- Node22 -->
<g id="Node000022" class="node">
<title>Node22</title>
<g id="a_Node000022"><a xlink:href="profiler_8hpp.html" target="_top" xlink:title=" ">
<polygon fill="white" stroke="#666666" points="427.88,-80.12 312.12,-80.12 312.12,-60.88 427.88,-60.88 427.88,-80.12"/>
<text text-anchor="middle" x="370" y="-66.62" font-family="Helvetica,sans-Serif" font-size="10.00">vulpes/utils/profiler.hpp</text>
</a>
</g>
</g>
<!-- Node12&#45;&gt;Node22 -->
<g id="edge28_Node000012_Node000022" class="edge">
<title>Node12&#45;&gt;Node22</title>
<g id="a_edge28_Node000012_Node000022"><a xlink:title=" ">
<path fill="none" stroke="#63b8ff" d="M627.17,-121.3C573.61,-110.93 485.89,-93.94 428.04,-82.74"/>
<polygon fill="#63b8ff" stroke="#63b8ff" points="428.86,-79.33 418.37,-80.87 427.53,-86.21 428.86,-79.33"/>
</a>
</g>
</g>
<!-- Node17&#45;&gt;Node9 -->
<g id="edge25_Node000017_Node000009" class="edge">
<title>Node17&#45;&gt;Node9</title>
<g id="a_edge25_Node000017_Node000009"><a xlink:title=" ">
<path fill="none" stroke="#63b8ff" d="M721.54,-56.65C718.66,-56.13 715.8,-55.66 713,-55.25 455.87,-17.67 382.64,-63.78 123.12,-19.15"/>
<polygon fill="#63b8ff" stroke="#63b8ff" points="123.77,-15.71 113.32,-17.43 122.56,-22.61 123.77,-15.71"/>
</a>
</g>
</g>
<!-- Node17&#45;&gt;Node10 -->
<g id="edge27_Node000017_Node000010" class="edge">
<title>Node17&#45;&gt;Node10</title>
<g id="a_edge27_Node000017_Node000010"><a xlink:title=" ">
<path fill="none" stroke="#63b8ff" d="M805.97,-54.8C826.21,-45.48 852.22,-33.52 872.06,-24.4"/>
<polygon fill="#63b8ff" stroke="#63b8ff" points="873.37,-27.65 880.99,-20.29 870.45,-21.29 873.37,-27.65"/>
</a>
</g>
</g>
<!-- Node17&#45;&gt;Node15 -->
<g id="edge23_Node000017_Node000015" class="edge">
<title>Node17&#45;&gt;Node15</title>
<g id="a_edge23_Node000017_Node000015"><a xlink:title=" ">
<path fill="none" stroke="#63b8ff" d="M757.19,-54.95C747.43,-46.5 735.12,-35.83 725.01,-27.08"/>
<polygon fill="#63b8ff" stroke="#63b8ff" points="727.48,-24.59 717.63,-20.69 722.9,-29.88 727.48,-24.59"/>
</a>
</g>
</g>
<!-- Node18 -->
<g id="Node000018" class="node">
<title>Node18</title>
<g id="a_Node000018"><a xlink:title=" ">
<polygon fill="#e0e0e0" stroke="#999999" points="591.88,-19.25 536.12,-19.25 536.12,0 591.88,0 591.88,-19.25"/>
<text text-anchor="middle" x="564" y="-5.75" font-family="Helvetica,sans-Serif" font-size="10.00">algorithm</text>
</a>
</g>
</g>
<!-- Node17&#45;&gt;Node18 -->
<g id="edge21_Node000017_Node000018" class="edge">
<title>Node17&#45;&gt;Node18</title>
<g id="a_edge21_Node000017_Node000018"><a xlink:title=" ">
<path fill="none" stroke="#63b8ff" d="M721.55,-54.8C684.77,-44.48 636.39,-30.92 603,-21.56"/>
<polygon fill="#63b8ff" stroke="#63b8ff" points="604.32,-18.29 593.74,-18.96 602.43,-25.03 604.32,-18.29"/>
</a>
</g>
</g>
<!-- Node19 -->
<g id="Node000019" class="node">
<title>Node19</title>
<g id="a_Node000019"><a xlink:title=" ">
<polygon fill="#e0e0e0" stroke="#999999" points="1003.88,-19.25 966.12,-19.25 966.12,0 1003.88,0 1003.88,-19.25"/>
<text text-anchor="middle" x="985" y="-5.75" font-family="Helvetica,sans-Serif" font-size="10.00">array</text>
</a>
</g>
</g>
<!-- Node17&#45;&gt;Node19 -->
<g id="edge22_Node000017_Node000019" class="edge">
<title>Node17&#45;&gt;Node19</title>
<g id="a_edge22_Node000017_Node000019"><a xlink:title=" ">
<path fill="none" stroke="#63b8ff" d="M826.7,-54.8C867.1,-43.52 921.42,-28.37 954.78,-19.06"/>
<polygon fill="#63b8ff" stroke="#63b8ff" points="955.5,-22.49 964.19,-16.43 953.62,-15.75 955.5,-22.49"/>
</a>
</g>
</g>
<!-- Node20 -->
<g id="Node000020" class="node">
<title>Node20</title>
<g id="a_Node000020"><a xlink:title=" ">
<polygon fill="#e0e0e0" stroke="#999999" points="799.62,-19.25 748.38,-19.25 748.38,0 799.62,0 799.62,-19.25"/>
<text text-anchor="middle" x="774" y="-5.75" font-family="Helvetica,sans-Serif" font-size="10.00">ostream</text>
</a>
</g>
</g>
<!-- Node17&#45;&gt;Node20 -->
<g id="edge24_Node000017_Node000020" class="edge">
<title>Node17&#45;&gt;Node20</title>
<g id="a_edge24_Node000017_Node000020"><a xlink:title=" ">
<path fill="none" stroke="#63b8ff" d="M774,-54.95C774,-47.71 774,-38.84 774,-30.94"/>
<polygon fill="#63b8ff" stroke="#63b8ff" points="777.5,-31.21 774,-21.21 770.5,-31.21 777.5,-31.21"/>
</a>
</g>
</g>
<!-- Node21 -->
<g id="Node000021" class="node">
<title>Node21</title>
<g id="a_Node000021"><a xlink:title=" ">
<polygon fill="#e0e0e0" stroke="#999999" points="862.62,-19.25 817.38,-19.25 817.38,0 862.62,0 862.62,-19.25"/>
<text text-anchor="middle" x="840" y="-5.75" font-family="Helvetica,sans-Serif" font-size="10.00">variant</text>
</a>
</g>
</g>
<!-- Node17&#45;&gt;Node21 -->
<g id="edge26_Node000017_Node000021" class="edge">
<title>Node17&#45;&gt;Node21</title>
<g id="a_edge26_Node000017_Node000021"><a xlink:title=" ">
<path fill="none" stroke="#63b8ff" d="M790.31,-54.95C799.69,-46.59 811.5,-36.05 821.25,-27.35"/>
<polygon fill="#63b8ff" stroke="#63b8ff" points="823.56,-29.98 828.7,-20.71 818.9,-24.75 823.56,-29.98"/>
</a>
</g>
</g>
<!-- Node22&#45;&gt;Node5 -->
<g id="edge31_Node000022_Node000005" class="edge">
<title>Node22&#45;&gt;Node5</title>
<g id="a_edge31_Node000022_Node000005"><a xlink:title=" ">
<path fill="none" stroke="#63b8ff" d="M428.17,-65.69C602.49,-54.28 1109.65,-21.01 1127,-19.25 1135.86,-18.35 1145.39,-17.16 1154.29,-15.96"/>
<polygon fill="#63b8ff" stroke="#63b8ff" points="1154.6,-19.45 1164.02,-14.59 1153.63,-12.51 1154.6,-19.45"/>
</a>
</g>
</g>
<!-- Node22&#45;&gt;Node6 -->
<g id="edge33_Node000022_Node000006" class="edge">
<title>Node22&#45;&gt;Node6</title>
<g id="a_edge33_Node000022_Node000006"><a xlink:title=" ">
<path fill="none" stroke="#63b8ff" d="M413.06,-60.41C457.23,-51.03 528.22,-35.78 598.99,-19.67"/>
<polygon fill="#63b8ff" stroke="#63b8ff" points="599.44,-23.16 608.41,-17.52 597.88,-16.34 599.44,-23.16"/>
</a>
</g>
</g>
<!-- Node22&#45;&gt;Node8 -->
<g id="edge34_Node000022_Node000008" class="edge">
<title>Node22&#45;&gt;Node8</title>
<g id="a_edge34_Node000022_Node000008"><a xlink:title=" ">
<path fill="none" stroke="#63b8ff" d="M334,-60.39C297.79,-51.15 240.08,-36.21 181.25,-19.82"/>
<polygon fill="#63b8ff" stroke="#63b8ff" points="182.29,-16.47 171.72,-17.15 180.4,-23.21 182.29,-16.47"/>
</a>
</g>
</g>
<!-- Node22&#45;&gt;Node9 -->
<g id="edge36_Node000022_Node000009" class="edge">
<title>Node22&#45;&gt;Node9</title>
<g id="a_edge36_Node000022_Node000009"><a xlink:title=" ">
<path fill="none" stroke="#63b8ff" d="M318.19,-60.45C269.99,-51.71 195.96,-37.5 122.7,-19.49"/>
<polygon fill="#63b8ff" stroke="#63b8ff" points="123.92,-16.18 113.37,-17.17 122.23,-22.98 123.92,-16.18"/>
</a>
</g>
</g>
<!-- Node22&#45;&gt;Node10 -->
<g id="edge37_Node000022_Node000010" class="edge">
<title>Node22&#45;&gt;Node10</title>
<g id="a_edge37_Node000022_Node000010"><a xlink:title=" ">
<path fill="none" stroke="#63b8ff" d="M428.08,-65.01C537.08,-56.38 769.63,-36.9 869,-19.46"/>
<polygon fill="#63b8ff" stroke="#63b8ff" points="869.47,-22.93 878.67,-17.67 868.2,-16.05 869.47,-22.93"/>
</a>
</g>
</g>
<!-- Node22&#45;&gt;Node18 -->
<g id="edge29_Node000022_Node000018" class="edge">
<title>Node22&#45;&gt;Node18</title>
<g id="a_edge29_Node000022_Node000018"><a xlink:title=" ">
<path fill="none" stroke="#63b8ff" d="M399.89,-60.43C433.41,-50.26 487.9,-33.72 524.81,-22.52"/>
<polygon fill="#63b8ff" stroke="#63b8ff" points="525.66,-25.92 534.21,-19.67 523.62,-19.22 525.66,-25.92"/>
</a>
</g>
</g>
<!-- Node23 -->
<g id="Node000023" class="node">
<title>Node23</title>
<g id="a_Node000023"><a xlink:title=" ">
<polygon fill="#e0e0e0" stroke="#999999" points="233.62,-19.25 188.38,-19.25 188.38,0 233.62,0 233.62,-19.25"/>
<text text-anchor="middle" x="211" y="-5.75" font-family="Helvetica,sans-Serif" font-size="10.00">chrono</text>
</a>
</g>
</g>
<!-- Node22&#45;&gt;Node23 -->
<g id="edge30_Node000022_Node000023" class="edge">
<title>Node22&#45;&gt;Node23</title>
<g id="a_edge30_Node000022_Node000023"><a xlink:title=" ">
<path fill="none" stroke="#63b8ff" d="M345.5,-60.43C318.43,-50.4 274.66,-34.2 244.44,-23.01"/>
<polygon fill="#63b8ff" stroke="#63b8ff" points="245.99,-19.85 235.39,-19.66 243.56,-26.41 245.99,-19.85"/>
</a>
</g>
</g>
<!-- Node24 -->
<g id="Node000024" class="node">
<title>Node24</title>
<g id="a_Node000024"><a xlink:title=" ">
<polygon fill="#e0e0e0" stroke="#999999" points="301.88,-19.25 252.12,-19.25 252.12,0 301.88,0 301.88,-19.25"/>
<text text-anchor="middle" x="277" y="-5.75" font-family="Helvetica,sans-Serif" font-size="10.00">iomanip</text>
</a>
</g>
</g>
<!-- Node22&#45;&gt;Node24 -->
<g id="edge32_Node000022_Node000024" class="edge">
<title>Node22&#45;&gt;Node24</title>
<g id="a_edge32_Node000022_Node000024"><a xlink:title=" ">
<path fill="none" stroke="#63b8ff" d="M355.88,-60.56C341.26,-51.31 318.18,-36.7 300.76,-25.67"/>
<polygon fill="#63b8ff" stroke="#63b8ff" points="302.86,-22.85 292.54,-20.46 299.11,-28.77 302.86,-22.85"/>
</a>
</g>
</g>
<!-- Node25 -->
<g id="Node000025" class="node">
<title>Node25</title>
<g id="a_Node000025"><a xlink:title=" ">
<polygon fill="#e0e0e0" stroke="#999999" points="402.38,-19.25 319.62,-19.25 319.62,0 402.38,0 402.38,-19.25"/>
<text text-anchor="middle" x="361" y="-5.75" font-family="Helvetica,sans-Serif" font-size="10.00">unordered_map</text>
</a>
</g>
</g>
<!-- Node22&#45;&gt;Node25 -->
<g id="edge35_Node000022_Node000025" class="edge">
<title>Node22&#45;&gt;Node25</title>
<g id="a_edge35_Node000022_Node000025"><a xlink:title=" ">
<path fill="none" stroke="#63b8ff" d="M368.63,-60.56C367.43,-52.69 365.64,-40.95 364.09,-30.82"/>
<polygon fill="#63b8ff" stroke="#63b8ff" points="367.58,-30.5 362.61,-21.15 360.66,-31.56 367.58,-30.5"/>
</a>
</g>
</g>
<!-- Node26 -->
<g id="Node000026" class="node">
<title>Node26</title>
<g id="a_Node000026"><a xlink:title=" ">
<polygon fill="#e0e0e0" stroke="#999999" points="517.88,-19.25 420.12,-19.25 420.12,0 517.88,0 517.88,-19.25"/>
<text text-anchor="middle" x="469" y="-5.75" font-family="Helvetica,sans-Serif" font-size="10.00">nlohmann/json.hpp</text>
</a>
</g>
</g>
<!-- Node22&#45;&gt;Node26 -->
<g id="edge38_Node000022_Node000026" class="edge">
<title>Node22&#45;&gt;Node26</title>
<g id="a_edge38_Node000022_Node000026"><a xlink:title=" ">
<path fill="none" stroke="#63b8ff" d="M385.04,-60.56C400.66,-51.26 425.39,-36.56 443.97,-25.51"/>
<polygon fill="#63b8ff" stroke="#63b8ff" points="445.72,-28.54 452.52,-20.42 442.14,-22.53 445.72,-28.54"/>
</a>
</g>
</g>
<!-- Node27&#45;&gt;Node4 -->
<g id="edge40_Node000027_Node000004" class="edge">
<title>Node27&#45;&gt;Node4</title>
<g id="a_edge40_Node000027_Node000004"><a xlink:title=" ">
<path fill="none" stroke="#63b8ff" d="M449.88,-232.02C440.31,-218.68 420.62,-193.26 399,-177 381.73,-164.01 360.09,-153.36 342.02,-145.72"/>
<polygon fill="#63b8ff" stroke="#63b8ff" points="343.57,-142.57 332.99,-142.04 340.93,-149.05 343.57,-142.57"/>
</a>
</g>
</g>
<!-- Node27&#45;&gt;Node5 -->
<g id="edge43_Node000027_Node000005" class="edge">
<title>Node27&#45;&gt;Node5</title>
<g id="a_edge43_Node000027_Node000005"><a xlink:title=" ">
<path fill="none" stroke="#63b8ff" d="M507.97,-241.7C658.05,-242.92 1087.29,-237.72 1179,-141 1207.05,-111.42 1201.18,-59.25 1195.16,-30.69"/>
<polygon fill="#63b8ff" stroke="#63b8ff" points="1198.62,-30.13 1192.94,-21.19 1191.81,-31.73 1198.62,-30.13"/>
</a>
</g>
</g>
<!-- Node27&#45;&gt;Node7 -->
<g id="edge44_Node000027_Node000007" class="edge">
<title>Node27&#45;&gt;Node7</title>
<g id="a_edge44_Node000027_Node000007"><a xlink:title=" ">
<path fill="none" stroke="#63b8ff" d="M404.13,-232.08C353.89,-223.43 275.59,-209.61 208,-196.25 206.99,-196.05 205.97,-195.85 204.95,-195.64"/>
<polygon fill="#63b8ff" stroke="#63b8ff" points="205.78,-192.24 195.28,-193.63 204.35,-199.09 205.78,-192.24"/>
</a>
</g>
</g>
<!-- Node27&#45;&gt;Node8 -->
<g id="edge45_Node000027_Node000008" class="edge">
<title>Node27&#45;&gt;Node8</title>
<g id="a_edge45_Node000027_Node000008"><a xlink:title=" ">
<path fill="none" stroke="#63b8ff" d="M408.05,-231.79C380,-224.99 344.75,-213.77 317,-196.25 295.83,-182.89 195.22,-58.84 192,-55.25 183.77,-46.05 174.37,-36.03 166.55,-27.81"/>
<polygon fill="#63b8ff" stroke="#63b8ff" points="169.31,-25.63 159.87,-20.82 164.25,-30.47 169.31,-25.63"/>
</a>
</g>
</g>
<!-- Node27&#45;&gt;Node9 -->
<g id="edge46_Node000027_Node000009" class="edge">
<title>Node27&#45;&gt;Node9</title>
<g id="a_edge46_Node000027_Node000009"><a xlink:title=" ">
<path fill="none" stroke="#63b8ff" d="M404.36,-233.11C371.3,-226.62 328.32,-215.27 294,-196.25 211.78,-150.69 136.27,-65.05 106,-28.21"/>
<polygon fill="#63b8ff" stroke="#63b8ff" points="108.96,-26.31 99.94,-20.74 103.52,-30.71 108.96,-26.31"/>
</a>
</g>
</g>
<!-- Node27&#45;&gt;Node10 -->
<g id="edge47_Node000027_Node000010" class="edge">
<title>Node27&#45;&gt;Node10</title>
<g id="a_edge47_Node000027_Node000010"><a xlink:title=" ">
<path fill="none" stroke="#63b8ff" d="M507.96,-235.27C594.05,-223.27 766.63,-187.36 866,-85.75 881.3,-70.11 891.09,-46.72 896.54,-30.2"/>
<polygon fill="#63b8ff" stroke="#63b8ff" points="899.76,-31.63 899.31,-21.04 893.06,-29.6 899.76,-31.63"/>
</a>
</g>
</g>
<!-- Node27&#45;&gt;Node11 -->
<g id="edge49_Node000027_Node000011" class="edge">
<title>Node27&#45;&gt;Node11</title>
<g id="a_edge49_Node000027_Node000011"><a xlink:title=" ">
<path fill="none" stroke="#63b8ff" d="M471.27,-231.84C484.84,-223.81 504.95,-211.91 520.9,-202.48"/>
<polygon fill="#63b8ff" stroke="#63b8ff" points="522.53,-205.58 529.36,-197.47 518.97,-199.55 522.53,-205.58"/>
</a>
</g>
</g>
<!-- Node27&#45;&gt;Node12 -->
<g id="edge50_Node000027_Node000012" class="edge">
<title>Node27&#45;&gt;Node12</title>
<g id="a_edge50_Node000027_Node000012"><a xlink:title=" ">
<path fill="none" stroke="#63b8ff" d="M507.99,-234.18C541.11,-228.12 583.87,-216.85 617,-196.25 635.69,-184.63 651.83,-165.08 662.11,-150.67"/>
<polygon fill="#63b8ff" stroke="#63b8ff" points="664.93,-152.75 667.67,-142.51 659.14,-148.81 664.93,-152.75"/>
</a>
</g>
</g>
<!-- Node27&#45;&gt;Node16 -->
<g id="edge48_Node000027_Node000016" class="edge">
<title>Node27&#45;&gt;Node16</title>
<g id="a_edge48_Node000027_Node000016"><a xlink:title=" ">
<path fill="none" stroke="#63b8ff" d="M507.92,-236.57C561.21,-231.09 646,-219.41 716,-196.25 852.9,-150.95 1002.11,-61.25 1058.59,-25.67"/>
<polygon fill="#63b8ff" stroke="#63b8ff" points="1060.19,-28.8 1066.76,-20.49 1056.44,-22.89 1060.19,-28.8"/>
</a>
</g>
</g>
<!-- Node27&#45;&gt;Node18 -->
<g id="edge42_Node000027_Node000018" class="edge">
<title>Node27&#45;&gt;Node18</title>
<g id="a_edge42_Node000027_Node000018"><a xlink:title=" ">
<path fill="none" stroke="#63b8ff" d="M454.53,-232.14C450.24,-203.72 440.42,-112.43 480,-55.25 490.79,-39.66 508.81,-29.07 525.39,-22.14"/>
<polygon fill="#63b8ff" stroke="#63b8ff" points="526.48,-25.47 534.58,-18.64 523.99,-18.93 526.48,-25.47"/>
</a>
</g>
</g>
<!-- Node28 -->
<g id="Node000028" class="node">
<title>Node28</title>
<g id="a_Node000028"><a xlink:title=" ">
<polygon fill="#e0e0e0" stroke="#999999" points="390,-196.25 326,-196.25 326,-177 390,-177 390,-196.25"/>
<text text-anchor="middle" x="358" y="-182.75" font-family="Helvetica,sans-Serif" font-size="10.00">petscvec.h</text>
</a>
</g>
</g>
<!-- Node27&#45;&gt;Node28 -->
<g id="edge41_Node000027_Node000028" class="edge">
<title>Node27&#45;&gt;Node28</title>
<g id="a_edge41_Node000027_Node000028"><a xlink:title=" ">
<path fill="none" stroke="#63b8ff" d="M439.38,-231.84C424.31,-223.66 401.86,-211.46 384.35,-201.94"/>
<polygon fill="#63b8ff" stroke="#63b8ff" points="386.49,-199.12 376.04,-197.43 383.15,-205.27 386.49,-199.12"/>
</a>
</g>
</g>
<!-- Node29&#45;&gt;Node5 -->
<g id="edge53_Node000029_Node000005" class="edge">
<title>Node29&#45;&gt;Node5</title>
<g id="a_edge53_Node000029_Node000005"><a xlink:title=" ">
<path fill="none" stroke="#63b8ff" d="M1108.61,-121.37C1123.01,-101.78 1157.43,-54.95 1176.57,-28.89"/>
<polygon fill="#63b8ff" stroke="#63b8ff" points="1179.31,-31.08 1182.41,-20.95 1173.67,-26.94 1179.31,-31.08"/>
</a>
</g>
</g>
<!-- Node29&#45;&gt;Node10 -->
<g id="edge54_Node000029_Node000010" class="edge">
<title>Node29&#45;&gt;Node10</title>
<g id="a_edge54_Node000029_Node000010"><a xlink:title=" ">
<path fill="none" stroke="#63b8ff" d="M1092.98,-121.29C1075.22,-103.54 1036.03,-65.12 1020,-55.25 993.11,-38.7 959.08,-26.64 934.48,-19.26"/>
<polygon fill="#63b8ff" stroke="#63b8ff" points="935.61,-15.94 925.03,-16.53 933.66,-22.66 935.61,-15.94"/>
</a>
</g>
</g>
<!-- Node29&#45;&gt;Node19 -->
<g id="edge52_Node000029_Node000019" class="edge">
<title>Node29&#45;&gt;Node19</title>
<g id="a_edge52_Node000029_Node000019"><a xlink:title=" ">
<path fill="none" stroke="#63b8ff" d="M1098.55,-121.58C1092.3,-106.54 1077.9,-75.53 1058,-55.25 1045.44,-42.45 1028.5,-31.8 1014.09,-24.12"/>
<polygon fill="#63b8ff" stroke="#63b8ff" points="1016,-21.16 1005.5,-19.75 1012.83,-27.4 1016,-21.16"/>
</a>
</g>
</g>
<!-- Node30 -->
<g id="Node000030" class="node">
<title>Node30</title>
<g id="a_Node000030"><a xlink:href="vmath_8hpp.html" target="_top" xlink:title=" ">
<polygon fill="white" stroke="#666666" points="1378.12,-80.12 1263.88,-80.12 1263.88,-60.88 1378.12,-60.88 1378.12,-80.12"/>
<text text-anchor="middle" x="1321" y="-66.62" font-family="Helvetica,sans-Serif" font-size="10.00">vulpes/utils/vmath.hpp</text>
</a>
</g>
</g>
<!-- Node29&#45;&gt;Node30 -->
<g id="edge55_Node000029_Node000030" class="edge">
<title>Node29&#45;&gt;Node30</title>
<g id="a_edge55_Node000029_Node000030"><a xlink:title=" ">
<path fill="none" stroke="#63b8ff" d="M1135.74,-121.3C1173.44,-111.17 1234.63,-94.72 1276.29,-83.52"/>
<polygon fill="#63b8ff" stroke="#63b8ff" points="1277.01,-86.95 1285.76,-80.97 1275.2,-80.19 1277.01,-86.95"/>
</a>
</g>
</g>
<!-- Node30&#45;&gt;Node5 -->
<g id="edge57_Node000030_Node000005" class="edge">
<title>Node30&#45;&gt;Node5</title>
<g id="a_edge57_Node000030_Node000005"><a xlink:title=" ">
<path fill="none" stroke="#63b8ff" d="M1300.82,-60.43C1279.31,-50.76 1245.02,-35.35 1220.28,-24.23"/>
<polygon fill="#63b8ff" stroke="#63b8ff" points="1221.93,-21.14 1211.37,-20.23 1219.06,-27.52 1221.93,-21.14"/>
</a>
</g>
</g>
<!-- Node30&#45;&gt;Node16 -->
<g id="edge61_Node000030_Node000016" class="edge">
<title>Node30&#45;&gt;Node16</title>
<g id="a_edge61_Node000030_Node000016"><a xlink:title=" ">
<path fill="none" stroke="#63b8ff" d="M1284.18,-60.43C1242.66,-50.2 1175.01,-33.54 1129.53,-22.33"/>
<polygon fill="#63b8ff" stroke="#63b8ff" points="1130.49,-18.96 1119.94,-19.97 1128.81,-25.76 1130.49,-18.96"/>
</a>
</g>
</g>
<!-- Node31 -->
<g id="Node000031" class="node">
<title>Node31</title>
<g id="a_Node000031"><a xlink:title=" ">
<polygon fill="#e0e0e0" stroke="#999999" points="1423.75,-19.25 1370.25,-19.25 1370.25,0 1423.75,0 1423.75,-19.25"/>
<text text-anchor="middle" x="1397" y="-5.75" font-family="Helvetica,sans-Serif" font-size="10.00">gmpxx.h</text>
</a>
</g>
</g>
<!-- Node30&#45;&gt;Node31 -->
<g id="edge56_Node000030_Node000031" class="edge">
<title>Node30&#45;&gt;Node31</title>
<g id="a_edge56_Node000030_Node000031"><a xlink:title=" ">
<path fill="none" stroke="#63b8ff" d="M1332.54,-60.56C1344.15,-51.57 1362.29,-37.51 1376.38,-26.6"/>
<polygon fill="#63b8ff" stroke="#63b8ff" points="1378.39,-29.47 1384.15,-20.58 1374.1,-23.94 1378.39,-29.47"/>
</a>
</g>
</g>
<!-- Node32 -->
<g id="Node000032" class="node">
<title>Node32</title>
<g id="a_Node000032"><a xlink:title=" ">
<polygon fill="#e0e0e0" stroke="#999999" points="1486.62,-19.25 1441.38,-19.25 1441.38,0 1486.62,0 1486.62,-19.25"/>
<text text-anchor="middle" x="1464" y="-5.75" font-family="Helvetica,sans-Serif" font-size="10.00">cstdint</text>
</a>
</g>
</g>
<!-- Node30&#45;&gt;Node32 -->
<g id="edge58_Node000030_Node000032" class="edge">
<title>Node30&#45;&gt;Node32</title>
<g id="a_edge58_Node000030_Node000032"><a xlink:title=" ">
<path fill="none" stroke="#63b8ff" d="M1343.03,-60.43C1366.72,-50.68 1404.61,-35.08 1431.68,-23.93"/>
<polygon fill="#63b8ff" stroke="#63b8ff" points="1432.87,-27.23 1440.78,-20.19 1430.2,-20.76 1432.87,-27.23"/>
</a>
</g>
</g>
<!-- Node33 -->
<g id="Node000033" class="node">
<title>Node33</title>
<g id="a_Node000033"><a xlink:title=" ">
<polygon fill="#e0e0e0" stroke="#999999" points="1271.62,-19.25 1232.38,-19.25 1232.38,0 1271.62,0 1271.62,-19.25"/>
<text text-anchor="middle" x="1252" y="-5.75" font-family="Helvetica,sans-Serif" font-size="10.00">limits</text>
</a>
</g>
</g>
<!-- Node30&#45;&gt;Node33 -->
<g id="edge59_Node000030_Node000033" class="edge">
<title>Node30&#45;&gt;Node33</title>
<g id="a_edge59_Node000030_Node000033"><a xlink:title=" ">
<path fill="none" stroke="#63b8ff" d="M1310.52,-60.56C1300.08,-51.65 1283.83,-37.78 1271.09,-26.92"/>
<polygon fill="#63b8ff" stroke="#63b8ff" points="1273.61,-24.46 1263.73,-20.63 1269.06,-29.79 1273.61,-24.46"/>
</a>
</g>
</g>
<!-- Node34 -->
<g id="Node000034" class="node">
<title>Node34</title>
<g id="a_Node000034"><a xlink:title=" ">
<polygon fill="#e0e0e0" stroke="#999999" points="1351.88,-19.25 1290.12,-19.25 1290.12,0 1351.88,0 1351.88,-19.25"/>
<text text-anchor="middle" x="1321" y="-5.75" font-family="Helvetica,sans-Serif" font-size="10.00">type_traits</text>
</a>
</g>
</g>
<!-- Node30&#45;&gt;Node34 -->
<g id="edge60_Node000030_Node000034" class="edge">
<title>Node30&#45;&gt;Node34</title>
<g id="a_edge60_Node000030_Node000034"><a xlink:title=" ">
<path fill="none" stroke="#63b8ff" d="M1321,-60.56C1321,-52.78 1321,-41.2 1321,-31.16"/>
<polygon fill="#63b8ff" stroke="#63b8ff" points="1324.5,-31.16 1321,-21.16 1317.5,-31.16 1324.5,-31.16"/>
</a>
</g>
</g>
</g>
</svg>
