<?xml version="1.0" encoding="UTF-8" standalone="no"?>
<!DOCTYPE svg PUBLIC "-//W3C//DTD SVG 1.1//EN"
 "http://www.w3.org/Graphics/SVG/1.1/DTD/svg11.dtd">
<!-- Generated by graphviz version 12.2.1 (20241206.2353)
 -->
<!-- Title: /Users/ilariomazzieri/Desktop/vulpes/vulpes/la/sparse_matrix.hpp Pages: 1 -->
<svg width="942pt" height="283pt"
 viewBox="0.00 0.00 942.00 283.00" xmlns="http://www.w3.org/2000/svg" xmlns:xlink="http://www.w3.org/1999/xlink">
<g id="graph0" class="graph" transform="scale(1 1) rotate(0) translate(4 279)">
<title>/Users/ilariomazzieri/Desktop/vulpes/vulpes/la/sparse_matrix.hpp</title>
<!-- Node1 -->
<g id="Node000001" class="node">
<title>Node1</title>
<g id="a_Node000001"><a xlink:title=" ">
<polygon fill="#999999" stroke="#666666" points="588.75,-275 470,-275 470,-233.25 588.75,-233.25 588.75,-275"/>
<text text-anchor="start" x="478" y="-261.5" font-family="Helvetica,sans-Serif" font-size="10.00">/Users/ilariomazzieri</text>
<text text-anchor="start" x="478" y="-250.25" font-family="Helvetica,sans-Serif" font-size="10.00">/Desktop/vulpes/vulpes</text>
<text text-anchor="middle" x="529.38" y="-239" font-family="Helvetica,sans-Serif" font-size="10.00">/la/sparse_matrix.hpp</text>
</a>
</g>
</g>
<!-- Node2 -->
<g id="Node000002" class="node">
<title>Node2</title>
<g id="a_Node000002"><a xlink:href="dg__utils_8hpp.html" target="_top" xlink:title=" ">
<polygon fill="white" stroke="#666666" points="118.75,-119.5 0,-119.5 0,-77.75 118.75,-77.75 118.75,-119.5"/>
<text text-anchor="start" x="8" y="-106" font-family="Helvetica,sans-Serif" font-size="10.00">/Users/ilariomazzieri</text>
<text text-anchor="start" x="8" y="-94.75" font-family="Helvetica,sans-Serif" font-size="10.00">/Desktop/vulpes/vulpes</text>
<text text-anchor="middle" x="59.38" y="-83.5" font-family="Helvetica,sans-Serif" font-size="10.00">/assemble/dg_utils.hpp</text>
</a>
</g>
</g>
<!-- Node1&#45;&gt;Node2 -->
<g id="edge1_Node000001_Node000002" class="edge">
<title>Node1&#45;&gt;Node2</title>
<g id="a_edge1_Node000001_Node000002"><a xlink:title=" ">
<path fill="none" stroke="#63b8ff" d="M458.9,-238.72C413.24,-228.7 352.73,-214.14 300.38,-197.25 230.35,-174.66 151.79,-141.26 103.96,-119.97"/>
<polygon fill="#63b8ff" stroke="#63b8ff" points="457.89,-242.08 468.4,-240.78 459.37,-235.24 457.89,-242.08"/>
</a>
</g>
</g>
<!-- Node3 -->
<g id="Node000003" class="node">
<title>Node3</title>
<g id="a_Node000003"><a xlink:href="linear__solver_8hpp.html" target="_top" xlink:title=" ">
<polygon fill="white" stroke="#666666" points="501.75,-197.25 383,-197.25 383,-155.5 501.75,-155.5 501.75,-197.25"/>
<text text-anchor="start" x="391" y="-183.75" font-family="Helvetica,sans-Serif" font-size="10.00">/Users/ilariomazzieri</text>
<text text-anchor="start" x="391" y="-172.5" font-family="Helvetica,sans-Serif" font-size="10.00">/Desktop/vulpes/vulpes</text>
<text text-anchor="middle" x="442.38" y="-161.25" font-family="Helvetica,sans-Serif" font-size="10.00">/la/linear_solver.hpp</text>
</a>
</g>
</g>
<!-- Node1&#45;&gt;Node3 -->
<g id="edge2_Node000001_Node000003" class="edge">
<title>Node1&#45;&gt;Node3</title>
<g id="a_edge2_Node000001_Node000003"><a xlink:title=" ">
<path fill="none" stroke="#63b8ff" d="M497.52,-225.39C487.01,-216.23 475.51,-206.23 465.75,-197.73"/>
<polygon fill="#63b8ff" stroke="#63b8ff" points="495.08,-227.9 504.92,-231.83 499.68,-222.63 495.08,-227.9"/>
</a>
</g>
</g>
<!-- Node5 -->
<g id="Node000005" class="node">
<title>Node5</title>
<g id="a_Node000005"><a xlink:href="cranknicolson_8hpp.html" target="_top" xlink:title=" ">
<polygon fill="white" stroke="#666666" points="301.62,-119.5 137.12,-119.5 137.12,-77.75 301.62,-77.75 301.62,-119.5"/>
<text text-anchor="start" x="145.12" y="-106" font-family="Helvetica,sans-Serif" font-size="10.00">/Users/ilariomazzieri</text>
<text text-anchor="start" x="145.12" y="-94.75" font-family="Helvetica,sans-Serif" font-size="10.00">/Desktop/vulpes/vulpes</text>
<text text-anchor="middle" x="219.38" y="-83.5" font-family="Helvetica,sans-Serif" font-size="10.00">/timeintegration/cranknicolson.hpp</text>
</a>
</g>
</g>
<!-- Node1&#45;&gt;Node5 -->
<g id="edge13_Node000001_Node000005" class="edge">
<title>Node1&#45;&gt;Node5</title>
<g id="a_edge13_Node000001_Node000005"><a xlink:title=" ">
<path fill="none" stroke="#63b8ff" d="M458.73,-231.26C431.79,-222 401.15,-210.32 374.38,-197.25 327.79,-174.51 277.69,-141.15 247.44,-119.91"/>
<polygon fill="#63b8ff" stroke="#63b8ff" points="457.6,-234.58 468.19,-234.46 459.84,-227.94 457.6,-234.58"/>
</a>
</g>
</g>
<!-- Node7 -->
<g id="Node000007" class="node">
<title>Node7</title>
<g id="a_Node000007"><a xlink:href="imex_8hpp.html" target="_top" xlink:title=" ">
<polygon fill="white" stroke="#666666" points="601.5,-119.5 457.25,-119.5 457.25,-77.75 601.5,-77.75 601.5,-119.5"/>
<text text-anchor="start" x="465.25" y="-106" font-family="Helvetica,sans-Serif" font-size="10.00">/Users/ilariomazzieri</text>
<text text-anchor="start" x="465.25" y="-94.75" font-family="Helvetica,sans-Serif" font-size="10.00">/Desktop/vulpes/vulpes</text>
<text text-anchor="middle" x="529.38" y="-83.5" font-family="Helvetica,sans-Serif" font-size="10.00">/timeintegration/dae/imex.hpp</text>
</a>
</g>
</g>
<!-- Node1&#45;&gt;Node7 -->
<g id="edge14_Node000001_Node000007" class="edge">
<title>Node1&#45;&gt;Node7</title>
<g id="a_edge14_Node000001_Node000007"><a xlink:title=" ">
<path fill="none" stroke="#63b8ff" d="M529.38,-221.76C529.38,-191.21 529.38,-145.67 529.38,-119.7"/>
<polygon fill="#63b8ff" stroke="#63b8ff" points="525.88,-221.54 529.38,-231.54 532.88,-221.54 525.88,-221.54"/>
</a>
</g>
</g>
<!-- Node8 -->
<g id="Node000008" class="node">
<title>Node8</title>
<g id="a_Node000008"><a xlink:href="solverfkpp_8hpp.html" target="_top" xlink:title=" ">
<polygon fill="white" stroke="#666666" points="769.12,-119.5 619.62,-119.5 619.62,-77.75 769.12,-77.75 769.12,-119.5"/>
<text text-anchor="start" x="627.62" y="-106" font-family="Helvetica,sans-Serif" font-size="10.00">/Users/ilariomazzieri</text>
<text text-anchor="start" x="627.62" y="-94.75" font-family="Helvetica,sans-Serif" font-size="10.00">/Desktop/vulpes/vulpes</text>
<text text-anchor="middle" x="694.38" y="-83.5" font-family="Helvetica,sans-Serif" font-size="10.00">/timeintegration/solverfkpp.hpp</text>
</a>
</g>
</g>
<!-- Node1&#45;&gt;Node8 -->
<g id="edge15_Node000001_Node000008" class="edge">
<title>Node1&#45;&gt;Node8</title>
<g id="a_edge15_Node000001_Node000008"><a xlink:title=" ">
<path fill="none" stroke="#63b8ff" d="M543.45,-222.82C554.29,-201.95 570.88,-174.63 591.38,-155.5 606.92,-140.99 626.93,-129.02 645.18,-119.93"/>
<polygon fill="#63b8ff" stroke="#63b8ff" points="540.34,-221.21 538.99,-231.71 546.6,-224.34 540.34,-221.21"/>
</a>
</g>
</g>
<!-- Node10 -->
<g id="Node000010" class="node">
<title>Node10</title>
<g id="a_Node000010"><a xlink:href="solvermfk_8hpp.html" target="_top" xlink:title=" ">
<polygon fill="white" stroke="#666666" points="934,-119.5 786.75,-119.5 786.75,-77.75 934,-77.75 934,-119.5"/>
<text text-anchor="start" x="794.75" y="-106" font-family="Helvetica,sans-Serif" font-size="10.00">/Users/ilariomazzieri</text>
<text text-anchor="start" x="794.75" y="-94.75" font-family="Helvetica,sans-Serif" font-size="10.00">/Desktop/vulpes/vulpes</text>
<text text-anchor="middle" x="860.38" y="-83.5" font-family="Helvetica,sans-Serif" font-size="10.00">/timeintegration/solvermfk.hpp</text>
</a>
</g>
</g>
<!-- Node1&#45;&gt;Node10 -->
<g id="edge16_Node000001_Node000010" class="edge">
<title>Node1&#45;&gt;Node10</title>
<g id="a_edge16_Node000001_Node000010"><a xlink:title=" ">
<path fill="none" stroke="#63b8ff" d="M560.87,-225.15C570.27,-216.44 580.45,-206.66 589.38,-197.25 606.04,-179.69 603.75,-168.18 624.38,-155.5 684.25,-118.68 710,-135.78 778.38,-119.5 781.08,-118.86 783.84,-118.2 786.62,-117.53"/>
<polygon fill="#63b8ff" stroke="#63b8ff" points="558.65,-222.45 553.63,-231.78 563.37,-227.61 558.65,-222.45"/>
</a>
</g>
</g>
<!-- Node12 -->
<g id="Node000012" class="node">
<title>Node12</title>
<g id="a_Node000012"><a xlink:href="sparse__matrix_8cpp.html" target="_top" xlink:title=" ">
<polygon fill="white" stroke="#666666" points="751.75,-197.25 633,-197.25 633,-155.5 751.75,-155.5 751.75,-197.25"/>
<text text-anchor="start" x="641" y="-183.75" font-family="Helvetica,sans-Serif" font-size="10.00">/Users/ilariomazzieri</text>
<text text-anchor="start" x="641" y="-172.5" font-family="Helvetica,sans-Serif" font-size="10.00">/Desktop/vulpes/vulpes</text>
<text text-anchor="middle" x="692.38" y="-161.25" font-family="Helvetica,sans-Serif" font-size="10.00">/la/sparse_matrix.cpp</text>
</a>
</g>
</g>
<!-- Node1&#45;&gt;Node12 -->
<g id="edge12_Node000001_Node000012" class="edge">
<title>Node1&#45;&gt;Node12</title>
<g id="a_edge12_Node000001_Node000012"><a xlink:title=" ">
<path fill="none" stroke="#63b8ff" d="M583.21,-228.11C604.42,-218.25 628.46,-207.08 648.57,-197.73"/>
<polygon fill="#63b8ff" stroke="#63b8ff" points="582.02,-224.8 574.43,-232.19 584.97,-231.15 582.02,-224.8"/>
</a>
</g>
</g>
<!-- Node3&#45;&gt;Node2 -->
<g id="edge3_Node000003_Node000002" class="edge">
<title>Node3&#45;&gt;Node2</title>
<g id="a_edge3_Node000003_Node000002"><a xlink:title=" ">
<path fill="none" stroke="#63b8ff" d="M371.53,-164.93C307.6,-155 211.18,-138.74 128.38,-119.5 125.34,-118.79 122.24,-118.04 119.11,-117.25"/>
<polygon fill="#63b8ff" stroke="#63b8ff" points="370.77,-168.36 381.18,-166.42 371.83,-161.44 370.77,-168.36"/>
</a>
</g>
</g>
<!-- Node4 -->
<g id="Node000004" class="node">
<title>Node4</title>
<g id="a_Node000004"><a xlink:href="linear__solver_8cpp.html" target="_top" xlink:title=" ">
<polygon fill="white" stroke="#666666" points="438.75,-119.5 320,-119.5 320,-77.75 438.75,-77.75 438.75,-119.5"/>
<text text-anchor="start" x="328" y="-106" font-family="Helvetica,sans-Serif" font-size="10.00">/Users/ilariomazzieri</text>
<text text-anchor="start" x="328" y="-94.75" font-family="Helvetica,sans-Serif" font-size="10.00">/Desktop/vulpes/vulpes</text>
<text text-anchor="middle" x="379.38" y="-83.5" font-family="Helvetica,sans-Serif" font-size="10.00">/la/linear_solver.cpp</text>
</a>
</g>
</g>
<!-- Node3&#45;&gt;Node4 -->
<g id="edge4_Node000003_Node000004" class="edge">
<title>Node3&#45;&gt;Node4</title>
<g id="a_edge4_Node000003_Node000004"><a xlink:title=" ">
<path fill="none" stroke="#63b8ff" d="M418.16,-146.26C410.87,-137.49 403.02,-128.05 396.3,-119.98"/>
<polygon fill="#63b8ff" stroke="#63b8ff" points="415.44,-148.46 424.52,-153.91 420.82,-143.99 415.44,-148.46"/>
</a>
</g>
</g>
<!-- Node3&#45;&gt;Node5 -->
<g id="edge5_Node000003_Node000005" class="edge">
<title>Node3&#45;&gt;Node5</title>
<g id="a_edge5_Node000003_Node000005"><a xlink:title=" ">
<path fill="none" stroke="#63b8ff" d="M371.87,-151.43C342.11,-141.32 307.82,-129.67 279.3,-119.98"/>
<polygon fill="#63b8ff" stroke="#63b8ff" points="370.59,-154.69 381.18,-154.59 372.84,-148.06 370.59,-154.69"/>
</a>
</g>
</g>
<!-- Node3&#45;&gt;Node7 -->
<g id="edge7_Node000003_Node000007" class="edge">
<title>Node3&#45;&gt;Node7</title>
<g id="a_edge7_Node000003_Node000007"><a xlink:title=" ">
<path fill="none" stroke="#63b8ff" d="M474.23,-147.64C484.74,-138.48 496.24,-128.48 506,-119.98"/>
<polygon fill="#63b8ff" stroke="#63b8ff" points="472.07,-144.88 466.83,-154.08 476.67,-150.15 472.07,-144.88"/>
</a>
</g>
</g>
<!-- Node3&#45;&gt;Node8 -->
<g id="edge8_Node000003_Node000008" class="edge">
<title>Node3&#45;&gt;Node8</title>
<g id="a_edge8_Node000003_Node000008"><a xlink:title=" ">
<path fill="none" stroke="#63b8ff" d="M512.89,-154.18C548.47,-143.48 591.44,-130.57 626.63,-119.99"/>
<polygon fill="#63b8ff" stroke="#63b8ff" points="512.11,-150.76 503.54,-156.99 514.13,-157.46 512.11,-150.76"/>
</a>
</g>
</g>
<!-- Node3&#45;&gt;Node10 -->
<g id="edge10_Node000003_Node000010" class="edge">
<title>Node3&#45;&gt;Node10</title>
<g id="a_edge10_Node000003_Node000010"><a xlink:title=" ">
<path fill="none" stroke="#63b8ff" d="M513.13,-165.15C581.31,-154.92 687.27,-138.09 778.38,-119.5 781.1,-118.94 783.88,-118.36 786.67,-117.76"/>
<polygon fill="#63b8ff" stroke="#63b8ff" points="512.97,-161.63 503.59,-166.57 514,-168.55 512.97,-161.63"/>
</a>
</g>
</g>
<!-- Node6 -->
<g id="Node000006" class="node">
<title>Node6</title>
<g id="a_Node000006"><a xlink:href="cranknicolson_8cpp.html" target="_top" xlink:title=" ">
<polygon fill="white" stroke="#666666" points="301.62,-41.75 137.12,-41.75 137.12,0 301.62,0 301.62,-41.75"/>
<text text-anchor="start" x="145.12" y="-28.25" font-family="Helvetica,sans-Serif" font-size="10.00">/Users/ilariomazzieri</text>
<text text-anchor="start" x="145.12" y="-17" font-family="Helvetica,sans-Serif" font-size="10.00">/Desktop/vulpes/vulpes</text>
<text text-anchor="middle" x="219.38" y="-5.75" font-family="Helvetica,sans-Serif" font-size="10.00">/timeintegration/cranknicolson.cpp</text>
</a>
</g>
</g>
<!-- Node5&#45;&gt;Node6 -->
<g id="edge6_Node000005_Node000006" class="edge">
<title>Node5&#45;&gt;Node6</title>
<g id="a_edge6_Node000005_Node000006"><a xlink:title=" ">
<path fill="none" stroke="#63b8ff" d="M219.38,-66C219.38,-57.96 219.38,-49.54 219.38,-42.23"/>
<polygon fill="#63b8ff" stroke="#63b8ff" points="215.88,-65.81 219.38,-75.81 222.88,-65.81 215.88,-65.81"/>
</a>
</g>
</g>
<!-- Node9 -->
<g id="Node000009" class="node">
<title>Node9</title>
<g id="a_Node000009"><a xlink:href="solverfkpp_8cpp.html" target="_top" xlink:title=" ">
<polygon fill="white" stroke="#666666" points="769.12,-41.75 619.62,-41.75 619.62,0 769.12,0 769.12,-41.75"/>
<text text-anchor="start" x="627.62" y="-28.25" font-family="Helvetica,sans-Serif" font-size="10.00">/Users/ilariomazzieri</text>
<text text-anchor="start" x="627.62" y="-17" font-family="Helvetica,sans-Serif" font-size="10.00">/Desktop/vulpes/vulpes</text>
<text text-anchor="middle" x="694.38" y="-5.75" font-family="Helvetica,sans-Serif" font-size="10.00">/timeintegration/solverfkpp.cpp</text>
</a>
</g>
</g>
<!-- Node8&#45;&gt;Node9 -->
<g id="edge9_Node000008_Node000009" class="edge">
<title>Node8&#45;&gt;Node9</title>
<g id="a_edge9_Node000008_Node000009"><a xlink:title=" ">
<path fill="none" stroke="#63b8ff" d="M694.38,-66C694.38,-57.96 694.38,-49.54 694.38,-42.23"/>
<polygon fill="#63b8ff" stroke="#63b8ff" points="690.88,-65.81 694.38,-75.81 697.88,-65.81 690.88,-65.81"/>
</a>
</g>
</g>
<!-- Node11 -->
<g id="Node000011" class="node">
<title>Node11</title>
<g id="a_Node000011"><a xlink:href="solvermfk_8cpp.html" target="_top" xlink:title=" ">
<polygon fill="white" stroke="#666666" points="934,-41.75 786.75,-41.75 786.75,0 934,0 934,-41.75"/>
<text text-anchor="start" x="794.75" y="-28.25" font-family="Helvetica,sans-Serif" font-size="10.00">/Users/ilariomazzieri</text>
<text text-anchor="start" x="794.75" y="-17" font-family="Helvetica,sans-Serif" font-size="10.00">/Desktop/vulpes/vulpes</text>
<text text-anchor="middle" x="860.38" y="-5.75" font-family="Helvetica,sans-Serif" font-size="10.00">/timeintegration/solvermfk.cpp</text>
</a>
</g>
</g>
<!-- Node10&#45;&gt;Node11 -->
<g id="edge11_Node000010_Node000011" class="edge">
<title>Node10&#45;&gt;Node11</title>
<g id="a_edge11_Node000010_Node000011"><a xlink:title=" ">
<path fill="none" stroke="#63b8ff" d="M860.38,-66C860.38,-57.96 860.38,-49.54 860.38,-42.23"/>
<polygon fill="#63b8ff" stroke="#63b8ff" points="856.88,-65.81 860.38,-75.81 863.88,-65.81 856.88,-65.81"/>
</a>
</g>
</g>
</g>
</svg>
