<?xml version="1.0" encoding="UTF-8" standalone="no"?>
<!DOCTYPE svg PUBLIC "-//W3C//DTD SVG 1.1//EN"
 "http://www.w3.org/Graphics/SVG/1.1/DTD/svg11.dtd">
<!-- Generated by graphviz version 2.42.4 (0)
 -->
<!-- Title: /__w/vulpes/vulpes/vulpes/la/sparse_matrix.cpp Pages: 1 -->
<svg width="1156pt" height="379pt"
 viewBox="0.00 0.00 1156.00 379.00" xmlns="http://www.w3.org/2000/svg" xmlns:xlink="http://www.w3.org/1999/xlink">
<g id="graph0" class="graph" transform="scale(1 1) rotate(0) translate(4 375)">
<title>/__w/vulpes/vulpes/vulpes/la/sparse_matrix.cpp</title>
<!-- Node1 -->
<g id="Node000001" class="node">
<title>Node1</title>
<g id="a_Node000001"><a xlink:title=" ">
<polygon fill="#999999" stroke="#666666" points="492.5,-371 335.5,-371 335.5,-341 492.5,-341 492.5,-371"/>
<text text-anchor="start" x="343.5" y="-359" font-family="Helvetica,sans-Serif" font-size="10.00">/__w/vulpes/vulpes</text>
<text text-anchor="middle" x="414" y="-348" font-family="Helvetica,sans-Serif" font-size="10.00">/vulpes/la/sparse_matrix.cpp</text>
</a>
</g>
</g>
<!-- Node2 -->
<g id="Node000002" class="node">
<title>Node2</title>
<g id="a_Node000002"><a xlink:href="sparse__matrix_8hpp.html" target="_top" xlink:title=" ">
<polygon fill="white" stroke="#666666" points="491.5,-305 336.5,-305 336.5,-286 491.5,-286 491.5,-305"/>
<text text-anchor="middle" x="414" y="-293" font-family="Helvetica,sans-Serif" font-size="10.00">vulpes/la/sparse_matrix.hpp</text>
</a>
</g>
</g>
<!-- Node1&#45;&gt;Node2 -->
<g id="edge1_Node000001_Node000002" class="edge">
<title>Node1&#45;&gt;Node2</title>
<g id="a_edge1_Node000001_Node000002"><a xlink:title=" ">
<path fill="none" stroke="#63b8ff" d="M414,-340.84C414,-333.21 414,-323.7 414,-315.45"/>
<polygon fill="#63b8ff" stroke="#63b8ff" points="417.5,-315.27 414,-305.27 410.5,-315.27 417.5,-315.27"/>
</a>
</g>
</g>
<!-- Node8 -->
<g id="Node000008" class="node">
<title>Node8</title>
<g id="a_Node000008"><a xlink:title=" ">
<polygon fill="#e0e0e0" stroke="#999999" points="123,-140 79,-140 79,-121 123,-121 123,-140"/>
<text text-anchor="middle" x="101" y="-128" font-family="Helvetica,sans-Serif" font-size="10.00">string</text>
</a>
</g>
</g>
<!-- Node1&#45;&gt;Node8 -->
<g id="edge49_Node000001_Node000008" class="edge">
<title>Node1&#45;&gt;Node8</title>
<g id="a_edge49_Node000001_Node000008"><a xlink:title=" ">
<path fill="none" stroke="#63b8ff" d="M335.28,-347.23C261.84,-336.38 152.83,-310.64 79,-250 51.58,-227.48 34.16,-208.24 49,-176 54.75,-163.52 65.91,-153.24 76.42,-145.71"/>
<polygon fill="#63b8ff" stroke="#63b8ff" points="78.57,-148.49 84.97,-140.05 74.7,-142.65 78.57,-148.49"/>
</a>
</g>
</g>
<!-- Node9 -->
<g id="Node000009" class="node">
<title>Node9</title>
<g id="a_Node000009"><a xlink:title=" ">
<polygon fill="#e0e0e0" stroke="#999999" points="619.5,-19 572.5,-19 572.5,0 619.5,0 619.5,-19"/>
<text text-anchor="middle" x="596" y="-7" font-family="Helvetica,sans-Serif" font-size="10.00">vector</text>
</a>
</g>
</g>
<!-- Node1&#45;&gt;Node9 -->
<g id="edge50_Node000001_Node000009" class="edge">
<title>Node1&#45;&gt;Node9</title>
<g id="a_edge50_Node000001_Node000009"><a xlink:title=" ">
<path fill="none" stroke="#63b8ff" d="M492.55,-350.99C681.9,-340.29 1148,-307.26 1148,-241.5 1148,-241.5 1148,-241.5 1148,-129.5 1148,-77.23 1105.32,-74.93 1057,-55 979.51,-23.04 722.46,-13.62 629.73,-11.23"/>
<polygon fill="#63b8ff" stroke="#63b8ff" points="629.59,-7.72 619.51,-10.97 629.42,-14.72 629.59,-7.72"/>
</a>
</g>
</g>
<!-- Node3 -->
<g id="Node000003" class="node">
<title>Node3</title>
<g id="a_Node000003"><a xlink:title=" ">
<polygon fill="#e0e0e0" stroke="#999999" points="752.5,-250 681.5,-250 681.5,-231 752.5,-231 752.5,-250"/>
<text text-anchor="middle" x="717" y="-238" font-family="Helvetica,sans-Serif" font-size="10.00">petscmat.h</text>
</a>
</g>
</g>
<!-- Node2&#45;&gt;Node3 -->
<g id="edge2_Node000002_Node000003" class="edge">
<title>Node2&#45;&gt;Node3</title>
<g id="a_edge2_Node000002_Node000003"><a xlink:title=" ">
<path fill="none" stroke="#63b8ff" d="M462.68,-285.98C520.16,-275.93 615.04,-259.34 671.22,-249.51"/>
<polygon fill="#63b8ff" stroke="#63b8ff" points="672,-252.92 681.25,-247.75 670.79,-246.03 672,-252.92"/>
</a>
</g>
</g>
<!-- Node4 -->
<g id="Node000004" class="node">
<title>Node4</title>
<g id="a_Node000004"><a xlink:title=" ">
<polygon fill="#e0e0e0" stroke="#999999" points="563,-140 495,-140 495,-121 563,-121 563,-140"/>
<text text-anchor="middle" x="529" y="-128" font-family="Helvetica,sans-Serif" font-size="10.00">petscsys.h</text>
</a>
</g>
</g>
<!-- Node2&#45;&gt;Node4 -->
<g id="edge3_Node000002_Node000004" class="edge">
<title>Node2&#45;&gt;Node4</title>
<g id="a_edge3_Node000002_Node000004"><a xlink:title=" ">
<path fill="none" stroke="#63b8ff" d="M431.32,-285.98C445.91,-278.15 466.64,-265.44 481,-250 507.73,-221.24 520.44,-175.64 525.74,-150.21"/>
<polygon fill="#63b8ff" stroke="#63b8ff" points="529.24,-150.56 527.68,-140.08 522.36,-149.24 529.24,-150.56"/>
</a>
</g>
</g>
<!-- Node5 -->
<g id="Node000005" class="node">
<title>Node5</title>
<g id="a_Node000005"><a xlink:title=" ">
<polygon fill="#e0e0e0" stroke="#999999" points="672.5,-140 619.5,-140 619.5,-121 672.5,-121 672.5,-140"/>
<text text-anchor="middle" x="646" y="-128" font-family="Helvetica,sans-Serif" font-size="10.00">cstddef</text>
</a>
</g>
</g>
<!-- Node2&#45;&gt;Node5 -->
<g id="edge4_Node000002_Node000005" class="edge">
<title>Node2&#45;&gt;Node5</title>
<g id="a_edge4_Node000002_Node000005"><a xlink:title=" ">
<path fill="none" stroke="#63b8ff" d="M456.21,-285.99C504.67,-274.02 583.21,-247.54 628,-195 638.57,-182.6 642.95,-164.39 644.76,-150.64"/>
<polygon fill="#63b8ff" stroke="#63b8ff" points="648.27,-150.66 645.75,-140.37 641.3,-149.99 648.27,-150.66"/>
</a>
</g>
</g>
<!-- Node6 -->
<g id="Node000006" class="node">
<title>Node6</title>
<g id="a_Node000006"><a xlink:title=" ">
<polygon fill="#e0e0e0" stroke="#999999" points="60,-79.5 0,-79.5 0,-60.5 60,-60.5 60,-79.5"/>
<text text-anchor="middle" x="30" y="-67.5" font-family="Helvetica,sans-Serif" font-size="10.00">iostream</text>
</a>
</g>
</g>
<!-- Node2&#45;&gt;Node6 -->
<g id="edge5_Node000002_Node000006" class="edge">
<title>Node2&#45;&gt;Node6</title>
<g id="a_edge5_Node000002_Node000006"><a xlink:title=" ">
<path fill="none" stroke="#63b8ff" d="M336.48,-292.21C250.81,-288.31 119.57,-277.86 79,-250 27.01,-214.3 25.88,-128.54 28.23,-90.14"/>
<polygon fill="#63b8ff" stroke="#63b8ff" points="31.74,-90.1 29.01,-79.86 24.76,-89.56 31.74,-90.1"/>
</a>
</g>
</g>
<!-- Node7 -->
<g id="Node000007" class="node">
<title>Node7</title>
<g id="a_Node000007"><a xlink:title=" ">
<polygon fill="#e0e0e0" stroke="#999999" points="129,-195 71,-195 71,-176 129,-176 129,-195"/>
<text text-anchor="middle" x="100" y="-183" font-family="Helvetica,sans-Serif" font-size="10.00">memory</text>
</a>
</g>
</g>
<!-- Node2&#45;&gt;Node7 -->
<g id="edge6_Node000002_Node000007" class="edge">
<title>Node2&#45;&gt;Node7</title>
<g id="a_edge6_Node000002_Node000007"><a xlink:title=" ">
<path fill="none" stroke="#63b8ff" d="M389.1,-285.94C333.33,-266.76 198.33,-220.32 134.51,-198.37"/>
<polygon fill="#63b8ff" stroke="#63b8ff" points="135.5,-195.01 124.9,-195.07 133.22,-201.63 135.5,-195.01"/>
</a>
</g>
</g>
<!-- Node2&#45;&gt;Node8 -->
<g id="edge7_Node000002_Node000008" class="edge">
<title>Node2&#45;&gt;Node8</title>
<g id="a_edge7_Node000002_Node000008"><a xlink:title=" ">
<path fill="none" stroke="#63b8ff" d="M336.43,-294.41C274.91,-291.66 188.1,-281.67 119,-250 84.91,-234.37 70.65,-229.08 55,-195 46.61,-176.73 63.2,-158.41 78.75,-146.18"/>
<polygon fill="#63b8ff" stroke="#63b8ff" points="81.12,-148.78 87.11,-140.05 76.98,-143.14 81.12,-148.78"/>
</a>
</g>
</g>
<!-- Node2&#45;&gt;Node9 -->
<g id="edge8_Node000002_Node000009" class="edge">
<title>Node2&#45;&gt;Node9</title>
<g id="a_edge8_Node000002_Node000009"><a xlink:title=" ">
<path fill="none" stroke="#63b8ff" d="M491.59,-294.14C594.05,-292.23 779.56,-283.86 934,-250 1015.23,-232.19 1110,-269.66 1110,-186.5 1110,-186.5 1110,-186.5 1110,-129.5 1110,-30.67 744.79,-13.9 630.06,-11.07"/>
<polygon fill="#63b8ff" stroke="#63b8ff" points="629.84,-7.56 619.76,-10.84 629.68,-14.56 629.84,-7.56"/>
</a>
</g>
</g>
<!-- Node10 -->
<g id="Node000010" class="node">
<title>Node10</title>
<g id="a_Node000010"><a xlink:href="petsc__utils_8hpp.html" target="_top" xlink:title=" ">
<polygon fill="white" stroke="#666666" points="322.5,-195 185.5,-195 185.5,-176 322.5,-176 322.5,-195"/>
<text text-anchor="middle" x="254" y="-183" font-family="Helvetica,sans-Serif" font-size="10.00">vulpes/la/petsc_utils.hpp</text>
</a>
</g>
</g>
<!-- Node2&#45;&gt;Node10 -->
<g id="edge9_Node000002_Node000010" class="edge">
<title>Node2&#45;&gt;Node10</title>
<g id="a_edge9_Node000002_Node000010"><a xlink:title=" ">
<path fill="none" stroke="#63b8ff" d="M401.35,-285.97C388.06,-277.02 366.56,-262.52 348,-250 323.03,-233.15 294.34,-213.76 275.29,-200.89"/>
<polygon fill="#63b8ff" stroke="#63b8ff" points="277.01,-197.83 266.77,-195.13 273.09,-203.63 277.01,-197.83"/>
</a>
</g>
</g>
<!-- Node11 -->
<g id="Node000011" class="node">
<title>Node11</title>
<g id="a_Node000011"><a xlink:href="mpi__wrappers_8hpp.html" target="_top" xlink:title=" ">
<polygon fill="white" stroke="#666666" points="364,-140 198,-140 198,-121 364,-121 364,-140"/>
<text text-anchor="middle" x="281" y="-128" font-family="Helvetica,sans-Serif" font-size="10.00">vulpes/utils/mpi_wrappers.hpp</text>
</a>
</g>
</g>
<!-- Node2&#45;&gt;Node11 -->
<g id="edge48_Node000002_Node000011" class="edge">
<title>Node2&#45;&gt;Node11</title>
<g id="a_edge48_Node000002_Node000011"><a xlink:title=" ">
<path fill="none" stroke="#63b8ff" d="M350.55,-285.95C258.72,-272.11 95.98,-241.55 62,-195 57.02,-188.18 56.66,-182.54 62,-176 78.17,-156.21 135.71,-145 187.75,-138.79"/>
<polygon fill="#63b8ff" stroke="#63b8ff" points="188.19,-142.26 197.73,-137.65 187.4,-135.3 188.19,-142.26"/>
</a>
</g>
</g>
<!-- Node22 -->
<g id="Node000022" class="node">
<title>Node22</title>
<g id="a_Node000022"><a xlink:href="vector_8hpp.html" target="_top" xlink:title=" ">
<polygon fill="white" stroke="#666666" points="471.5,-250 356.5,-250 356.5,-231 471.5,-231 471.5,-250"/>
<text text-anchor="middle" x="414" y="-238" font-family="Helvetica,sans-Serif" font-size="10.00">vulpes/la/vector.hpp</text>
</a>
</g>
</g>
<!-- Node2&#45;&gt;Node22 -->
<g id="edge27_Node000002_Node000022" class="edge">
<title>Node2&#45;&gt;Node22</title>
<g id="a_edge27_Node000002_Node000022"><a xlink:title=" ">
<path fill="none" stroke="#63b8ff" d="M414,-285.75C414,-278.8 414,-268.85 414,-260.13"/>
<polygon fill="#63b8ff" stroke="#63b8ff" points="417.5,-260.09 414,-250.09 410.5,-260.09 417.5,-260.09"/>
</a>
</g>
</g>
<!-- Node24 -->
<g id="Node000024" class="node">
<title>Node24</title>
<g id="a_Node000024"><a xlink:href="qrule_8hpp.html" target="_top" xlink:title=" ">
<polygon fill="white" stroke="#666666" points="925,-250 771,-250 771,-231 925,-231 925,-250"/>
<text text-anchor="middle" x="848" y="-238" font-family="Helvetica,sans-Serif" font-size="10.00">vulpes/quadrature/qrule.hpp</text>
</a>
</g>
</g>
<!-- Node2&#45;&gt;Node24 -->
<g id="edge37_Node000002_Node000024" class="edge">
<title>Node2&#45;&gt;Node24</title>
<g id="a_edge37_Node000002_Node000024"><a xlink:title=" ">
<path fill="none" stroke="#63b8ff" d="M483.73,-285.98C561.28,-276.51 686.35,-261.24 767.87,-251.29"/>
<polygon fill="#63b8ff" stroke="#63b8ff" points="768.58,-254.72 778.08,-250.04 767.73,-247.78 768.58,-254.72"/>
</a>
</g>
</g>
<!-- Node10&#45;&gt;Node4 -->
<g id="edge10_Node000010_Node000004" class="edge">
<title>Node10&#45;&gt;Node4</title>
<g id="a_edge10_Node000010_Node000004"><a xlink:title=" ">
<path fill="none" stroke="#63b8ff" d="M298.18,-175.98C349.46,-166.1 433.52,-149.9 484.8,-140.02"/>
<polygon fill="#63b8ff" stroke="#63b8ff" points="485.76,-143.4 494.92,-138.07 484.43,-136.52 485.76,-143.4"/>
</a>
</g>
</g>
<!-- Node10&#45;&gt;Node8 -->
<g id="edge11_Node000010_Node000008" class="edge">
<title>Node10&#45;&gt;Node8</title>
<g id="a_edge11_Node000010_Node000008"><a xlink:title=" ">
<path fill="none" stroke="#63b8ff" d="M229.42,-175.98C203.12,-166.88 161.33,-152.4 132.61,-142.45"/>
<polygon fill="#63b8ff" stroke="#63b8ff" points="133.63,-139.1 123.04,-139.13 131.34,-145.71 133.63,-139.1"/>
</a>
</g>
</g>
<!-- Node10&#45;&gt;Node11 -->
<g id="edge12_Node000010_Node000011" class="edge">
<title>Node10&#45;&gt;Node11</title>
<g id="a_edge12_Node000010_Node000011"><a xlink:title=" ">
<path fill="none" stroke="#63b8ff" d="M258.46,-175.75C262.12,-168.57 267.41,-158.18 271.95,-149.27"/>
<polygon fill="#63b8ff" stroke="#63b8ff" points="275.2,-150.59 276.62,-140.09 268.97,-147.41 275.2,-150.59"/>
</a>
</g>
</g>
<!-- Node11&#45;&gt;Node6 -->
<g id="edge16_Node000011_Node000006" class="edge">
<title>Node11&#45;&gt;Node6</title>
<g id="a_edge16_Node000011_Node000006"><a xlink:title=" ">
<path fill="none" stroke="#63b8ff" d="M244.5,-120.99C198.04,-110.17 118.06,-91.52 69.99,-80.32"/>
<polygon fill="#63b8ff" stroke="#63b8ff" points="70.77,-76.91 60.24,-78.05 69.18,-83.73 70.77,-76.91"/>
</a>
</g>
</g>
<!-- Node11&#45;&gt;Node9 -->
<g id="edge17_Node000011_Node000009" class="edge">
<title>Node11&#45;&gt;Node9</title>
<g id="a_edge17_Node000011_Node000009"><a xlink:title=" ">
<path fill="none" stroke="#63b8ff" d="M328.41,-120.97C360.49,-114.04 403.2,-102.5 438,-85 457.54,-75.18 457.88,-65.61 477,-55 504.46,-39.76 538.18,-27.7 562.71,-20.01"/>
<polygon fill="#63b8ff" stroke="#63b8ff" points="563.75,-23.35 572.29,-17.08 561.7,-16.66 563.75,-23.35"/>
</a>
</g>
</g>
<!-- Node12 -->
<g id="Node000012" class="node">
<title>Node12</title>
<g id="a_Node000012"><a xlink:title=" ">
<polygon fill="#e0e0e0" stroke="#999999" points="429,-79.5 385,-79.5 385,-60.5 429,-60.5 429,-79.5"/>
<text text-anchor="middle" x="407" y="-67.5" font-family="Helvetica,sans-Serif" font-size="10.00">mpi.h</text>
</a>
</g>
</g>
<!-- Node11&#45;&gt;Node12 -->
<g id="edge13_Node000011_Node000012" class="edge">
<title>Node11&#45;&gt;Node12</title>
<g id="a_edge13_Node000011_Node000012"><a xlink:title=" ">
<path fill="none" stroke="#63b8ff" d="M299.32,-120.99C320.41,-111.2 355.26,-95.02 379.58,-83.73"/>
<polygon fill="#63b8ff" stroke="#63b8ff" points="381.06,-86.9 388.66,-79.52 378.11,-80.55 381.06,-86.9"/>
</a>
</g>
</g>
<!-- Node13 -->
<g id="Node000013" class="node">
<title>Node13</title>
<g id="a_Node000013"><a xlink:title=" ">
<polygon fill="#e0e0e0" stroke="#999999" points="231,-79.5 179,-79.5 179,-60.5 231,-60.5 231,-79.5"/>
<text text-anchor="middle" x="205" y="-67.5" font-family="Helvetica,sans-Serif" font-size="10.00">petsc.h</text>
</a>
</g>
</g>
<!-- Node11&#45;&gt;Node13 -->
<g id="edge14_Node000011_Node000013" class="edge">
<title>Node11&#45;&gt;Node13</title>
<g id="a_edge14_Node000011_Node000013"><a xlink:title=" ">
<path fill="none" stroke="#63b8ff" d="M269.79,-120.87C257.89,-111.71 238.86,-97.06 224.49,-86.01"/>
<polygon fill="#63b8ff" stroke="#63b8ff" points="226.32,-82.99 216.26,-79.67 222.05,-88.54 226.32,-82.99"/>
</a>
</g>
</g>
<!-- Node14 -->
<g id="Node000014" class="node">
<title>Node14</title>
<g id="a_Node000014"><a xlink:title=" ">
<polygon fill="#e0e0e0" stroke="#999999" points="185,-19 133,-19 133,0 185,0 185,-19"/>
<text text-anchor="middle" x="159" y="-7" font-family="Helvetica,sans-Serif" font-size="10.00">cassert</text>
</a>
</g>
</g>
<!-- Node11&#45;&gt;Node14 -->
<g id="edge15_Node000011_Node000014" class="edge">
<title>Node11&#45;&gt;Node14</title>
<g id="a_edge15_Node000011_Node000014"><a xlink:title=" ">
<path fill="none" stroke="#63b8ff" d="M230.53,-120.93C208.69,-114.63 184.79,-103.74 170,-85 157.63,-69.32 156.1,-45.83 156.89,-29.43"/>
<polygon fill="#63b8ff" stroke="#63b8ff" points="160.38,-29.64 157.69,-19.39 153.4,-29.08 160.38,-29.64"/>
</a>
</g>
</g>
<!-- Node15 -->
<g id="Node000015" class="node">
<title>Node15</title>
<g id="a_Node000015"><a xlink:title=" ">
<polygon fill="#e0e0e0" stroke="#999999" points="562.5,-79.5 485.5,-79.5 485.5,-60.5 562.5,-60.5 562.5,-79.5"/>
<text text-anchor="middle" x="524" y="-67.5" font-family="Helvetica,sans-Serif" font-size="10.00">Eigen/Dense</text>
</a>
</g>
</g>
<!-- Node11&#45;&gt;Node15 -->
<g id="edge18_Node000011_Node000015" class="edge">
<title>Node11&#45;&gt;Node15</title>
<g id="a_edge18_Node000011_Node000015"><a xlink:title=" ">
<path fill="none" stroke="#63b8ff" d="M318.93,-120.95C357.33,-112.21 418.4,-98.1 471,-85 474.79,-84.06 478.72,-83.06 482.66,-82.04"/>
<polygon fill="#63b8ff" stroke="#63b8ff" points="483.57,-85.42 492.37,-79.51 481.81,-78.65 483.57,-85.42"/>
</a>
</g>
</g>
<!-- Node16 -->
<g id="Node000016" class="node">
<title>Node16</title>
<g id="a_Node000016"><a xlink:href="crs__map_8hpp.html" target="_top" xlink:title=" ">
<polygon fill="white" stroke="#666666" points="366.5,-85 249.5,-85 249.5,-55 366.5,-55 366.5,-85"/>
<text text-anchor="start" x="257.5" y="-73" font-family="Helvetica,sans-Serif" font-size="10.00">vulpes/datastructure</text>
<text text-anchor="middle" x="308" y="-62" font-family="Helvetica,sans-Serif" font-size="10.00">/crs_map.hpp</text>
</a>
</g>
</g>
<!-- Node11&#45;&gt;Node16 -->
<g id="edge19_Node000011_Node000016" class="edge">
<title>Node11&#45;&gt;Node16</title>
<g id="a_edge19_Node000011_Node000016"><a xlink:title=" ">
<path fill="none" stroke="#63b8ff" d="M284.98,-120.87C288.21,-113.89 292.9,-103.71 297.21,-94.38"/>
<polygon fill="#63b8ff" stroke="#63b8ff" points="300.47,-95.66 301.49,-85.11 294.12,-92.73 300.47,-95.66"/>
</a>
</g>
</g>
<!-- Node16&#45;&gt;Node9 -->
<g id="edge26_Node000016_Node000009" class="edge">
<title>Node16&#45;&gt;Node9</title>
<g id="a_edge26_Node000016_Node000009"><a xlink:title=" ">
<path fill="none" stroke="#63b8ff" d="M366.6,-56.9C369.78,-56.25 372.93,-55.62 376,-55 457.7,-38.6 478.55,-36.58 560,-19 560.75,-18.84 561.52,-18.67 562.28,-18.5"/>
<polygon fill="#63b8ff" stroke="#63b8ff" points="563.43,-21.83 572.4,-16.21 561.88,-15.01 563.43,-21.83"/>
</a>
</g>
</g>
<!-- Node16&#45;&gt;Node14 -->
<g id="edge22_Node000016_Node000014" class="edge">
<title>Node16&#45;&gt;Node14</title>
<g id="a_edge22_Node000016_Node000014"><a xlink:title=" ">
<path fill="none" stroke="#63b8ff" d="M272.31,-54.99C247.34,-45.18 214.3,-32.21 190.34,-22.81"/>
<polygon fill="#63b8ff" stroke="#63b8ff" points="191.59,-19.54 181,-19.14 189.03,-26.05 191.59,-19.54"/>
</a>
</g>
</g>
<!-- Node17 -->
<g id="Node000017" class="node">
<title>Node17</title>
<g id="a_Node000017"><a xlink:title=" ">
<polygon fill="#e0e0e0" stroke="#999999" points="410,-19 346,-19 346,0 410,0 410,-19"/>
<text text-anchor="middle" x="378" y="-7" font-family="Helvetica,sans-Serif" font-size="10.00">algorithm</text>
</a>
</g>
</g>
<!-- Node16&#45;&gt;Node17 -->
<g id="edge20_Node000016_Node000017" class="edge">
<title>Node16&#45;&gt;Node17</title>
<g id="a_edge20_Node000016_Node000017"><a xlink:title=" ">
<path fill="none" stroke="#63b8ff" d="M324.95,-54.84C335.42,-46.09 348.86,-34.85 359.59,-25.88"/>
<polygon fill="#63b8ff" stroke="#63b8ff" points="362.08,-28.36 367.51,-19.27 357.59,-22.99 362.08,-28.36"/>
</a>
</g>
</g>
<!-- Node18 -->
<g id="Node000018" class="node">
<title>Node18</title>
<g id="a_Node000018"><a xlink:title=" ">
<polygon fill="#e0e0e0" stroke="#999999" points="551,-19 509,-19 509,0 551,0 551,-19"/>
<text text-anchor="middle" x="530" y="-7" font-family="Helvetica,sans-Serif" font-size="10.00">array</text>
</a>
</g>
</g>
<!-- Node16&#45;&gt;Node18 -->
<g id="edge21_Node000016_Node000018" class="edge">
<title>Node16&#45;&gt;Node18</title>
<g id="a_edge21_Node000016_Node000018"><a xlink:title=" ">
<path fill="none" stroke="#63b8ff" d="M361.17,-54.99C404.26,-43.64 463.46,-28.03 499.1,-18.64"/>
<polygon fill="#63b8ff" stroke="#63b8ff" points="500.15,-21.99 508.92,-16.05 498.36,-15.22 500.15,-21.99"/>
</a>
</g>
</g>
<!-- Node19 -->
<g id="Node000019" class="node">
<title>Node19</title>
<g id="a_Node000019"><a xlink:title=" ">
<polygon fill="#e0e0e0" stroke="#999999" points="485.5,-19 428.5,-19 428.5,0 485.5,0 485.5,-19"/>
<text text-anchor="middle" x="457" y="-7" font-family="Helvetica,sans-Serif" font-size="10.00">ostream</text>
</a>
</g>
</g>
<!-- Node16&#45;&gt;Node19 -->
<g id="edge23_Node000016_Node000019" class="edge">
<title>Node16&#45;&gt;Node19</title>
<g id="a_edge23_Node000016_Node000019"><a xlink:title=" ">
<path fill="none" stroke="#63b8ff" d="M343.69,-54.99C368.66,-45.18 401.7,-32.21 425.66,-22.81"/>
<polygon fill="#63b8ff" stroke="#63b8ff" points="426.97,-26.05 435,-19.14 424.41,-19.54 426.97,-26.05"/>
</a>
</g>
</g>
<!-- Node20 -->
<g id="Node000020" class="node">
<title>Node20</title>
<g id="a_Node000020"><a xlink:title=" ">
<polygon fill="#e0e0e0" stroke="#999999" points="258.5,-19 213.5,-19 213.5,0 258.5,0 258.5,-19"/>
<text text-anchor="middle" x="236" y="-7" font-family="Helvetica,sans-Serif" font-size="10.00">utility</text>
</a>
</g>
</g>
<!-- Node16&#45;&gt;Node20 -->
<g id="edge24_Node000016_Node000020" class="edge">
<title>Node16&#45;&gt;Node20</title>
<g id="a_edge24_Node000016_Node000020"><a xlink:title=" ">
<path fill="none" stroke="#63b8ff" d="M290.57,-54.84C279.69,-46 265.7,-34.63 254.61,-25.62"/>
<polygon fill="#63b8ff" stroke="#63b8ff" points="256.76,-22.86 246.79,-19.27 252.34,-28.29 256.76,-22.86"/>
</a>
</g>
</g>
<!-- Node21 -->
<g id="Node000021" class="node">
<title>Node21</title>
<g id="a_Node000021"><a xlink:title=" ">
<polygon fill="#e0e0e0" stroke="#999999" points="327.5,-19 276.5,-19 276.5,0 327.5,0 327.5,-19"/>
<text text-anchor="middle" x="302" y="-7" font-family="Helvetica,sans-Serif" font-size="10.00">variant</text>
</a>
</g>
</g>
<!-- Node16&#45;&gt;Node21 -->
<g id="edge25_Node000016_Node000021" class="edge">
<title>Node16&#45;&gt;Node21</title>
<g id="a_edge25_Node000016_Node000021"><a xlink:title=" ">
<path fill="none" stroke="#63b8ff" d="M306.55,-54.84C305.77,-47.21 304.79,-37.7 303.94,-29.45"/>
<polygon fill="#63b8ff" stroke="#63b8ff" points="307.4,-28.86 302.9,-19.27 300.44,-29.57 307.4,-28.86"/>
</a>
</g>
</g>
<!-- Node22&#45;&gt;Node4 -->
<g id="edge28_Node000022_Node000004" class="edge">
<title>Node22&#45;&gt;Node4</title>
<g id="a_edge28_Node000022_Node000004"><a xlink:title=" ">
<path fill="none" stroke="#63b8ff" d="M434.86,-230.98C451.53,-223.4 474.72,-211.03 491,-195 504.28,-181.93 514.71,-163.28 521.25,-149.58"/>
<polygon fill="#63b8ff" stroke="#63b8ff" points="524.55,-150.79 525.49,-140.24 518.17,-147.9 524.55,-150.79"/>
</a>
</g>
</g>
<!-- Node22&#45;&gt;Node5 -->
<g id="edge30_Node000022_Node000005" class="edge">
<title>Node22&#45;&gt;Node5</title>
<g id="a_edge30_Node000022_Node000005"><a xlink:title=" ">
<path fill="none" stroke="#63b8ff" d="M471.66,-237.31C512.17,-233.24 565.88,-222.53 605,-195 620.89,-183.82 632.11,-164.33 638.75,-149.88"/>
<polygon fill="#63b8ff" stroke="#63b8ff" points="642.08,-151.02 642.78,-140.45 635.64,-148.27 642.08,-151.02"/>
</a>
</g>
</g>
<!-- Node22&#45;&gt;Node7 -->
<g id="edge31_Node000022_Node000007" class="edge">
<title>Node22&#45;&gt;Node7</title>
<g id="a_edge31_Node000022_Node000007"><a xlink:title=" ">
<path fill="none" stroke="#63b8ff" d="M358.89,-230.99C304.07,-222.39 217.6,-208.49 143,-195 141.74,-194.77 140.45,-194.54 139.16,-194.3"/>
<polygon fill="#63b8ff" stroke="#63b8ff" points="139.6,-190.82 129.12,-192.39 138.29,-197.69 139.6,-190.82"/>
</a>
</g>
</g>
<!-- Node22&#45;&gt;Node8 -->
<g id="edge32_Node000022_Node000008" class="edge">
<title>Node22&#45;&gt;Node8</title>
<g id="a_edge32_Node000022_Node000008"><a xlink:title=" ">
<path fill="none" stroke="#63b8ff" d="M356.16,-236.97C306.31,-232.9 233.52,-222.34 176,-195 151.82,-183.51 129.1,-162.24 115.14,-147.5"/>
<polygon fill="#63b8ff" stroke="#63b8ff" points="117.67,-145.09 108.33,-140.09 112.52,-149.82 117.67,-145.09"/>
</a>
</g>
</g>
<!-- Node22&#45;&gt;Node9 -->
<g id="edge33_Node000022_Node000009" class="edge">
<title>Node22&#45;&gt;Node9</title>
<g id="a_edge33_Node000022_Node000009"><a xlink:title=" ">
<path fill="none" stroke="#63b8ff" d="M442.86,-230.93C480.4,-218.06 544.42,-189.76 572,-140 591.7,-104.46 595.61,-55.86 596.17,-29.46"/>
<polygon fill="#63b8ff" stroke="#63b8ff" points="599.67,-29.33 596.23,-19.31 592.67,-29.29 599.67,-29.33"/>
</a>
</g>
</g>
<!-- Node22&#45;&gt;Node10 -->
<g id="edge35_Node000022_Node000010" class="edge">
<title>Node22&#45;&gt;Node10</title>
<g id="a_edge35_Node000022_Node000010"><a xlink:title=" ">
<path fill="none" stroke="#63b8ff" d="M388.29,-230.98C361.55,-222.13 319.47,-208.19 289.55,-198.28"/>
<polygon fill="#63b8ff" stroke="#63b8ff" points="290.5,-194.9 279.91,-195.08 288.3,-201.55 290.5,-194.9"/>
</a>
</g>
</g>
<!-- Node22&#45;&gt;Node11 -->
<g id="edge36_Node000022_Node000011" class="edge">
<title>Node22&#45;&gt;Node11</title>
<g id="a_edge36_Node000022_Node000011"><a xlink:title=" ">
<path fill="none" stroke="#63b8ff" d="M403.12,-230.66C380.4,-212.22 327.73,-169.45 299.56,-146.57"/>
<polygon fill="#63b8ff" stroke="#63b8ff" points="301.63,-143.75 291.66,-140.16 297.22,-149.18 301.63,-143.75"/>
</a>
</g>
</g>
<!-- Node22&#45;&gt;Node15 -->
<g id="edge34_Node000022_Node000015" class="edge">
<title>Node22&#45;&gt;Node15</title>
<g id="a_edge34_Node000022_Node000015"><a xlink:title=" ">
<path fill="none" stroke="#63b8ff" d="M424.7,-230.96C434.51,-222.67 448.84,-209.26 458,-195 477,-165.41 468.96,-151.76 486,-121 492.63,-109.02 501.9,-96.77 509.62,-87.39"/>
<polygon fill="#63b8ff" stroke="#63b8ff" points="512.37,-89.56 516.16,-79.67 507.03,-85.04 512.37,-89.56"/>
</a>
</g>
</g>
<!-- Node23 -->
<g id="Node000023" class="node">
<title>Node23</title>
<g id="a_Node000023"><a xlink:title=" ">
<polygon fill="#e0e0e0" stroke="#999999" points="448.5,-195 379.5,-195 379.5,-176 448.5,-176 448.5,-195"/>
<text text-anchor="middle" x="414" y="-183" font-family="Helvetica,sans-Serif" font-size="10.00">petscvec.h</text>
</a>
</g>
</g>
<!-- Node22&#45;&gt;Node23 -->
<g id="edge29_Node000022_Node000023" class="edge">
<title>Node22&#45;&gt;Node23</title>
<g id="a_edge29_Node000022_Node000023"><a xlink:title=" ">
<path fill="none" stroke="#63b8ff" d="M414,-230.75C414,-223.8 414,-213.85 414,-205.13"/>
<polygon fill="#63b8ff" stroke="#63b8ff" points="417.5,-205.09 414,-195.09 410.5,-205.09 417.5,-205.09"/>
</a>
</g>
</g>
<!-- Node24&#45;&gt;Node5 -->
<g id="edge39_Node000024_Node000005" class="edge">
<title>Node24&#45;&gt;Node5</title>
<g id="a_edge39_Node000024_Node000005"><a xlink:title=" ">
<path fill="none" stroke="#63b8ff" d="M817.58,-230.86C792.87,-223.21 757.56,-210.81 729,-195 704.4,-181.38 679.16,-160.98 663.08,-147"/>
<polygon fill="#63b8ff" stroke="#63b8ff" points="665.36,-144.35 655.55,-140.34 660.73,-149.59 665.36,-144.35"/>
</a>
</g>
</g>
<!-- Node24&#45;&gt;Node9 -->
<g id="edge40_Node000024_Node000009" class="edge">
<title>Node24&#45;&gt;Node9</title>
<g id="a_edge40_Node000024_Node000009"><a xlink:title=" ">
<path fill="none" stroke="#63b8ff" d="M897.72,-230.94C972.38,-215.94 1099.97,-180.68 1053,-121 999.96,-53.61 726.11,-22.4 629.66,-13.38"/>
<polygon fill="#63b8ff" stroke="#63b8ff" points="629.86,-9.89 619.58,-12.46 629.22,-16.86 629.86,-9.89"/>
</a>
</g>
</g>
<!-- Node24&#45;&gt;Node18 -->
<g id="edge38_Node000024_Node000018" class="edge">
<title>Node24&#45;&gt;Node18</title>
<g id="a_edge38_Node000024_Node000018"><a xlink:title=" ">
<path fill="none" stroke="#63b8ff" d="M832.83,-231C817.82,-222.41 794.35,-208.52 775,-195 731.7,-164.75 724.04,-152.98 682,-121 635.64,-85.73 580.02,-45.91 550.6,-25.04"/>
<polygon fill="#63b8ff" stroke="#63b8ff" points="552.53,-22.12 542.35,-19.2 548.49,-27.84 552.53,-22.12"/>
</a>
</g>
</g>
<!-- Node25 -->
<g id="Node000025" class="node">
<title>Node25</title>
<g id="a_Node000025"><a xlink:href="vmath_8hpp.html" target="_top" xlink:title=" ">
<polygon fill="white" stroke="#666666" points="912,-195 784,-195 784,-176 912,-176 912,-195"/>
<text text-anchor="middle" x="848" y="-183" font-family="Helvetica,sans-Serif" font-size="10.00">vulpes/utils/vmath.hpp</text>
</a>
</g>
</g>
<!-- Node24&#45;&gt;Node25 -->
<g id="edge41_Node000024_Node000025" class="edge">
<title>Node24&#45;&gt;Node25</title>
<g id="a_edge41_Node000024_Node000025"><a xlink:title=" ">
<path fill="none" stroke="#63b8ff" d="M848,-230.75C848,-223.8 848,-213.85 848,-205.13"/>
<polygon fill="#63b8ff" stroke="#63b8ff" points="851.5,-205.09 848,-195.09 844.5,-205.09 851.5,-205.09"/>
</a>
</g>
</g>
<!-- Node25&#45;&gt;Node5 -->
<g id="edge43_Node000025_Node000005" class="edge">
<title>Node25&#45;&gt;Node5</title>
<g id="a_edge43_Node000025_Node000005"><a xlink:title=" ">
<path fill="none" stroke="#63b8ff" d="M815.55,-175.98C779.25,-166.46 720.61,-151.08 682.68,-141.12"/>
<polygon fill="#63b8ff" stroke="#63b8ff" points="683.13,-137.62 672.57,-138.47 681.35,-144.39 683.13,-137.62"/>
</a>
</g>
</g>
<!-- Node25&#45;&gt;Node15 -->
<g id="edge47_Node000025_Node000015" class="edge">
<title>Node25&#45;&gt;Node15</title>
<g id="a_edge47_Node000025_Node000015"><a xlink:title=" ">
<path fill="none" stroke="#63b8ff" d="M826.92,-175.98C795.54,-163.4 734.58,-139.36 682,-121 641.56,-106.88 594.71,-92.27 562.59,-82.52"/>
<polygon fill="#63b8ff" stroke="#63b8ff" points="563.3,-79.07 552.71,-79.53 561.27,-85.77 563.3,-79.07"/>
</a>
</g>
</g>
<!-- Node26 -->
<g id="Node000026" class="node">
<title>Node26</title>
<g id="a_Node000026"><a xlink:title=" ">
<polygon fill="#e0e0e0" stroke="#999999" points="913.5,-140 854.5,-140 854.5,-121 913.5,-121 913.5,-140"/>
<text text-anchor="middle" x="884" y="-128" font-family="Helvetica,sans-Serif" font-size="10.00">gmpxx.h</text>
</a>
</g>
</g>
<!-- Node25&#45;&gt;Node26 -->
<g id="edge42_Node000025_Node000026" class="edge">
<title>Node25&#45;&gt;Node26</title>
<g id="a_edge42_Node000025_Node000026"><a xlink:title=" ">
<path fill="none" stroke="#63b8ff" d="M853.94,-175.75C858.98,-168.34 866.34,-157.5 872.51,-148.41"/>
<polygon fill="#63b8ff" stroke="#63b8ff" points="875.44,-150.33 878.17,-140.09 869.65,-146.39 875.44,-150.33"/>
</a>
</g>
</g>
<!-- Node27 -->
<g id="Node000027" class="node">
<title>Node27</title>
<g id="a_Node000027"><a xlink:title=" ">
<polygon fill="#e0e0e0" stroke="#999999" points="982,-140 932,-140 932,-121 982,-121 982,-140"/>
<text text-anchor="middle" x="957" y="-128" font-family="Helvetica,sans-Serif" font-size="10.00">cstdint</text>
</a>
</g>
</g>
<!-- Node25&#45;&gt;Node27 -->
<g id="edge44_Node000025_Node000027" class="edge">
<title>Node25&#45;&gt;Node27</title>
<g id="a_edge44_Node000025_Node000027"><a xlink:title=" ">
<path fill="none" stroke="#63b8ff" d="M865.51,-175.98C882.97,-167.5 910.01,-154.35 930.17,-144.54"/>
<polygon fill="#63b8ff" stroke="#63b8ff" points="931.71,-147.69 939.17,-140.17 928.64,-141.4 931.71,-147.69"/>
</a>
</g>
</g>
<!-- Node28 -->
<g id="Node000028" class="node">
<title>Node28</title>
<g id="a_Node000028"><a xlink:title=" ">
<polygon fill="#e0e0e0" stroke="#999999" points="1044,-140 1000,-140 1000,-121 1044,-121 1044,-140"/>
<text text-anchor="middle" x="1022" y="-128" font-family="Helvetica,sans-Serif" font-size="10.00">limits</text>
</a>
</g>
</g>
<!-- Node25&#45;&gt;Node28 -->
<g id="edge45_Node000025_Node000028" class="edge">
<title>Node25&#45;&gt;Node28</title>
<g id="a_edge45_Node000025_Node000028"><a xlink:title=" ">
<path fill="none" stroke="#63b8ff" d="M875.96,-175.98C907.08,-166.51 957.28,-151.21 989.96,-141.26"/>
<polygon fill="#63b8ff" stroke="#63b8ff" points="991.36,-144.49 999.91,-138.23 989.32,-137.79 991.36,-144.49"/>
</a>
</g>
</g>
<!-- Node29 -->
<g id="Node000029" class="node">
<title>Node29</title>
<g id="a_Node000029"><a xlink:title=" ">
<polygon fill="#e0e0e0" stroke="#999999" points="836.5,-140 767.5,-140 767.5,-121 836.5,-121 836.5,-140"/>
<text text-anchor="middle" x="802" y="-128" font-family="Helvetica,sans-Serif" font-size="10.00">type_traits</text>
</a>
</g>
</g>
<!-- Node25&#45;&gt;Node29 -->
<g id="edge46_Node000025_Node000029" class="edge">
<title>Node25&#45;&gt;Node29</title>
<g id="a_edge46_Node000025_Node000029"><a xlink:title=" ">
<path fill="none" stroke="#63b8ff" d="M840.4,-175.75C833.84,-168.18 824.18,-157.05 816.19,-147.84"/>
<polygon fill="#63b8ff" stroke="#63b8ff" points="818.65,-145.35 809.45,-140.09 813.37,-149.94 818.65,-145.35"/>
</a>
</g>
</g>
</g>
</svg>
