<?xml version="1.0" encoding="UTF-8" standalone="no"?>
<!DOCTYPE svg PUBLIC "-//W3C//DTD SVG 1.1//EN"
 "http://www.w3.org/Graphics/SVG/1.1/DTD/svg11.dtd">
<!-- Generated by graphviz version 2.42.4 (0)
 -->
<!-- Title: /__w/vulpes/vulpes/vulpes/la/sparse_matrix.hpp Pages: 1 -->
<!--zoomable 324 -->

<svg id="main" version="1.1" xmlns="http://www.w3.org/2000/svg" xmlns:xlink="http://www.w3.org/1999/xlink" xml:space="preserve" onload="init(evt)">
<style type="text/css"><![CDATA[
.node, .edge {opacity: 0.7;}
.node.selected, .edge.selected {opacity: 1;}
.edge:hover path { stroke: red; }
.edge:hover polygon { stroke: red; fill: red; }
]]></style>

<defs>
  <circle id="rim" cx="0" cy="0" r="7"/>
  <circle id="rim2" cx="0" cy="0" r="3.5"/>
  <g id="zoomPlus">
    <use xlink:href="#rim" fill="#404040"><set attributeName="fill" to="#808080" begin="zoomplus.mouseover" end="zoomplus.mouseout"/></use>
    <path d="M-4,0h8M0,-4v8" fill="none" stroke="white" stroke-width="1.5" pointer-events="none"/>
  </g>
  <g id="zoomMin">
    <use xlink:href="#rim" fill="#404040"><set attributeName="fill" to="#808080" begin="zoomminus.mouseover" end="zoomminus.mouseout"/></use>
    <path d="M-4,0h8" fill="none" stroke="white" stroke-width="1.5" pointer-events="none"/>
  </g>
  <g id="arrowUp" transform="translate(30 24)">
    <use xlink:href="#rim"/>
    <path pointer-events="none" fill="none" stroke="white" stroke-width="1.5" d="M0,-3.0v7 M-2.5,-0.5L0,-3.0L2.5,-0.5"/>
  </g>
  <g id="arrowRight" transform="rotate(90) translate(36 -43)">
    <use xlink:href="#rim"/>
    <path pointer-events="none" fill="none" stroke="white" stroke-width="1.5" d="M0,-3.0v7 M-2.5,-0.5L0,-3.0L2.5,-0.5"/>
  </g>
  <g id="arrowDown" transform="rotate(180) translate(-30 -48)">
    <use xlink:href="#rim"/>
    <path pointer-events="none" fill="none" stroke="white" stroke-width="1.5" d="M0,-3.0v7 M-2.5,-0.5L0,-3.0L2.5,-0.5"/>
  </g>
  <g id="arrowLeft" transform="rotate(270) translate(-36 17)">
    <use xlink:href="#rim"/>
    <path pointer-events="none" fill="none" stroke="white" stroke-width="1.5" d="M0,-3.0v7 M-2.5,-0.5L0,-3.0L2.5,-0.5"/>
  </g>
  <g id="resetDef">
    <use xlink:href="#rim2" fill="#404040"><set attributeName="fill" to="#808080" begin="reset.mouseover" end="reset.mouseout"/></use>
  </g>
</defs>
<script type="application/ecmascript">
var viewWidth = 1680;
var viewHeight = 324;
var sectionId = 'dynsection-0';
</script>
<script type="application/ecmascript" xlink:href="svg.min.js"/>
<svg id="graph" class="graph">
<g id="viewport">
<title>/__w/vulpes/vulpes/vulpes/la/sparse_matrix.hpp</title>
<!-- Node1 -->
<g id="Node000001" class="node">
<title>Node1</title>
<g id="a_Node000001"><a xlink:title=" ">
<polygon fill="#999999" stroke="#666666" points="472.5,-316 314.5,-316 314.5,-286 472.5,-286 472.5,-316"/>
<text text-anchor="start" x="322.5" y="-304" font-family="Helvetica,sans-Serif" font-size="10.00">/__w/vulpes/vulpes</text>
<text text-anchor="middle" x="393.5" y="-293" font-family="Helvetica,sans-Serif" font-size="10.00">/vulpes/la/sparse_matrix.hpp</text>
</a>
</g>
</g>
<!-- Node2 -->
<g id="Node000002" class="node">
<title>Node2</title>
<g id="a_Node000002"><a xlink:title=" ">
<polygon fill="#e0e0e0" stroke="#999999" points="71,-250 0,-250 0,-231 71,-231 71,-250"/>
<text text-anchor="middle" x="35.5" y="-238" font-family="Helvetica,sans-Serif" font-size="10.00">petscmat.h</text>
</a>
</g>
</g>
<!-- Node1&#45;&gt;Node2 -->
<g id="edge1_Node000001_Node000002" class="edge">
<title>Node1&#45;&gt;Node2</title>
<g id="a_edge1_Node000001_Node000002"><a xlink:title=" ">
<path fill="none" stroke="#63b8ff" d="M314.35,-287.32C252.12,-277.31 163.25,-262.92 85.5,-250 84.03,-249.76 82.54,-249.51 81.04,-249.26"/>
<polygon fill="#63b8ff" stroke="#63b8ff" points="81.45,-245.78 71,-247.57 80.28,-252.68 81.45,-245.78"/>
</a>
</g>
</g>
<!-- Node3 -->
<g id="Node000003" class="node">
<title>Node3</title>
<g id="a_Node000003"><a xlink:title=" ">
<polygon fill="#e0e0e0" stroke="#999999" points="206.5,-140 138.5,-140 138.5,-121 206.5,-121 206.5,-140"/>
<text text-anchor="middle" x="172.5" y="-128" font-family="Helvetica,sans-Serif" font-size="10.00">petscsys.h</text>
</a>
</g>
</g>
<!-- Node1&#45;&gt;Node3 -->
<g id="edge2_Node000001_Node000003" class="edge">
<title>Node1&#45;&gt;Node3</title>
<g id="a_edge2_Node000001_Node000003"><a xlink:title=" ">
<path fill="none" stroke="#63b8ff" d="M314.23,-287.74C259.73,-274.73 191.17,-248.28 156.5,-195 147.42,-181.04 153.96,-162.27 161.23,-148.77"/>
<polygon fill="#63b8ff" stroke="#63b8ff" points="164.34,-150.39 166.43,-140 158.32,-146.81 164.34,-150.39"/>
</a>
</g>
</g>
<!-- Node4 -->
<g id="Node000004" class="node">
<title>Node4</title>
<g id="a_Node000004"><a xlink:title=" ">
<polygon fill="#e0e0e0" stroke="#999999" points="1366,-19 1313,-19 1313,0 1366,0 1366,-19"/>
<text text-anchor="middle" x="1339.5" y="-7" font-family="Helvetica,sans-Serif" font-size="10.00">cstddef</text>
</a>
</g>
</g>
<!-- Node1&#45;&gt;Node4 -->
<g id="edge3_Node000001_Node000004" class="edge">
<title>Node1&#45;&gt;Node4</title>
<g id="a_edge3_Node000001_Node000004"><a xlink:title=" ">
<path fill="none" stroke="#63b8ff" d="M472.54,-298.37C640.96,-294.33 1030.28,-281.77 1158.5,-250 1274.75,-221.2 1339.35,-240.5 1404.5,-140 1429.8,-100.98 1384.66,-50.78 1357.62,-25.9"/>
<polygon fill="#63b8ff" stroke="#63b8ff" points="1359.71,-23.07 1349.91,-19.03 1355.05,-28.29 1359.71,-23.07"/>
</a>
</g>
</g>
<!-- Node5 -->
<g id="Node000005" class="node">
<title>Node5</title>
<g id="a_Node000005"><a xlink:title=" ">
<polygon fill="#e0e0e0" stroke="#999999" points="331.5,-19 271.5,-19 271.5,0 331.5,0 331.5,-19"/>
<text text-anchor="middle" x="301.5" y="-7" font-family="Helvetica,sans-Serif" font-size="10.00">iostream</text>
</a>
</g>
</g>
<!-- Node1&#45;&gt;Node5 -->
<g id="edge4_Node000001_Node000005" class="edge">
<title>Node1&#45;&gt;Node5</title>
<g id="a_edge4_Node000001_Node000005"><a xlink:title=" ">
<path fill="none" stroke="#63b8ff" d="M379.74,-285.94C361.47,-265.73 331.5,-226.47 331.5,-186.5 331.5,-186.5 331.5,-186.5 331.5,-129.5 331.5,-92.9 317.99,-51.83 309.1,-28.78"/>
<polygon fill="#63b8ff" stroke="#63b8ff" points="312.26,-27.25 305.3,-19.27 305.76,-29.85 312.26,-27.25"/>
</a>
</g>
</g>
<!-- Node6 -->
<g id="Node000006" class="node">
<title>Node6</title>
<g id="a_Node000006"><a xlink:title=" ">
<polygon fill="#e0e0e0" stroke="#999999" points="455.5,-195 397.5,-195 397.5,-176 455.5,-176 455.5,-195"/>
<text text-anchor="middle" x="426.5" y="-183" font-family="Helvetica,sans-Serif" font-size="10.00">memory</text>
</a>
</g>
</g>
<!-- Node1&#45;&gt;Node6 -->
<g id="edge5_Node000001_Node000006" class="edge">
<title>Node1&#45;&gt;Node6</title>
<g id="a_edge5_Node000001_Node000006"><a xlink:title=" ">
<path fill="none" stroke="#63b8ff" d="M397.68,-285.63C403.64,-265.12 414.59,-227.47 421.14,-204.93"/>
<polygon fill="#63b8ff" stroke="#63b8ff" points="424.53,-205.81 423.96,-195.23 417.81,-203.85 424.53,-205.81"/>
</a>
</g>
</g>
<!-- Node7 -->
<g id="Node000007" class="node">
<title>Node7</title>
<g id="a_Node000007"><a xlink:title=" ">
<polygon fill="#e0e0e0" stroke="#999999" points="253.5,-19 209.5,-19 209.5,0 253.5,0 253.5,-19"/>
<text text-anchor="middle" x="231.5" y="-7" font-family="Helvetica,sans-Serif" font-size="10.00">string</text>
</a>
</g>
</g>
<!-- Node1&#45;&gt;Node7 -->
<g id="edge6_Node000001_Node000007" class="edge">
<title>Node1&#45;&gt;Node7</title>
<g id="a_edge6_Node000001_Node000007"><a xlink:title=" ">
<path fill="none" stroke="#63b8ff" d="M316.25,-285.92C229.15,-267.8 99.5,-233.01 99.5,-186.5 99.5,-186.5 99.5,-186.5 99.5,-129.5 99.5,-75.6 160.97,-39.85 200.01,-22.57"/>
<polygon fill="#63b8ff" stroke="#63b8ff" points="201.57,-25.72 209.41,-18.58 198.83,-19.27 201.57,-25.72"/>
</a>
</g>
</g>
<!-- Node8 -->
<g id="Node000008" class="node">
<title>Node8</title>
<g id="a_Node000008"><a xlink:title=" ">
<polygon fill="#e0e0e0" stroke="#999999" points="395,-19 350,-19 350,0 395,0 395,-19"/>
<text text-anchor="middle" x="372.5" y="-7" font-family="Helvetica,sans-Serif" font-size="10.00">utility</text>
</a>
</g>
</g>
<!-- Node1&#45;&gt;Node8 -->
<g id="edge7_Node000001_Node000008" class="edge">
<title>Node1&#45;&gt;Node8</title>
<g id="a_edge7_Node000001_Node000008"><a xlink:title=" ">
<path fill="none" stroke="#63b8ff" d="M388.53,-285.87C381.5,-264.6 369.5,-222.95 369.5,-186.5 369.5,-186.5 369.5,-186.5 369.5,-129.5 369.5,-94.14 370.84,-52.89 371.73,-29.42"/>
<polygon fill="#63b8ff" stroke="#63b8ff" points="375.24,-29.29 372.13,-19.16 368.24,-29.01 375.24,-29.29"/>
</a>
</g>
</g>
<!-- Node9 -->
<g id="Node000009" class="node">
<title>Node9</title>
<g id="a_Node000009"><a xlink:title=" ">
<polygon fill="#e0e0e0" stroke="#999999" points="1139,-19 1092,-19 1092,0 1139,0 1139,-19"/>
<text text-anchor="middle" x="1115.5" y="-7" font-family="Helvetica,sans-Serif" font-size="10.00">vector</text>
</a>
</g>
</g>
<!-- Node1&#45;&gt;Node9 -->
<g id="edge8_Node000001_Node000009" class="edge">
<title>Node1&#45;&gt;Node9</title>
<g id="a_edge8_Node000001_Node000009"><a xlink:title=" ">
<path fill="none" stroke="#63b8ff" d="M472.64,-295.61C658.54,-284.24 1107.5,-250.2 1107.5,-186.5 1107.5,-186.5 1107.5,-186.5 1107.5,-129.5 1107.5,-94.07 1111.07,-52.85 1113.44,-29.4"/>
<polygon fill="#63b8ff" stroke="#63b8ff" points="1116.96,-29.46 1114.52,-19.15 1109.99,-28.73 1116.96,-29.46"/>
</a>
</g>
</g>
<!-- Node10 -->
<g id="Node000010" class="node">
<title>Node10</title>
<g id="a_Node000010"><a xlink:href="petsc__utils_8hpp.html" target="_top" xlink:title=" ">
<polygon fill="white" stroke="#666666" points="303,-195 166,-195 166,-176 303,-176 303,-195"/>
<text text-anchor="middle" x="234.5" y="-183" font-family="Helvetica,sans-Serif" font-size="10.00">vulpes/la/petsc_utils.hpp</text>
</a>
</g>
</g>
<!-- Node1&#45;&gt;Node10 -->
<g id="edge9_Node000001_Node000010" class="edge">
<title>Node1&#45;&gt;Node10</title>
<g id="a_edge9_Node000001_Node000010"><a xlink:title=" ">
<path fill="none" stroke="#63b8ff" d="M371.27,-285.97C355.97,-276.16 335.27,-262.62 317.5,-250 294.95,-233.99 269.83,-214.53 253.19,-201.41"/>
<polygon fill="#63b8ff" stroke="#63b8ff" points="255.33,-198.64 245.32,-195.18 250.99,-204.13 255.33,-198.64"/>
</a>
</g>
</g>
<!-- Node11 -->
<g id="Node000011" class="node">
<title>Node11</title>
<g id="a_Node000011"><a xlink:href="mpi__wrappers_8hpp.html" target="_top" xlink:title=" ">
<polygon fill="white" stroke="#666666" points="791.5,-140 625.5,-140 625.5,-121 791.5,-121 791.5,-140"/>
<text text-anchor="middle" x="708.5" y="-128" font-family="Helvetica,sans-Serif" font-size="10.00">vulpes/utils/mpi_wrappers.hpp</text>
</a>
</g>
</g>
<!-- Node1&#45;&gt;Node11 -->
<g id="edge61_Node000001_Node000011" class="edge">
<title>Node1&#45;&gt;Node11</title>
<g id="a_edge61_Node000001_Node000011"><a xlink:title=" ">
<path fill="none" stroke="#63b8ff" d="M472.66,-295.49C546.09,-289.69 648.28,-276.93 677.5,-250 705.42,-224.27 709.48,-176.77 709.37,-150.4"/>
<polygon fill="#63b8ff" stroke="#63b8ff" points="712.87,-150.13 709.12,-140.22 705.87,-150.3 712.87,-150.13"/>
</a>
</g>
</g>
<!-- Node26 -->
<g id="Node000026" class="node">
<title>Node26</title>
<g id="a_Node000026"><a xlink:href="vector_8hpp.html" target="_top" xlink:title=" ">
<polygon fill="white" stroke="#666666" points="668,-250 553,-250 553,-231 668,-231 668,-250"/>
<text text-anchor="middle" x="610.5" y="-238" font-family="Helvetica,sans-Serif" font-size="10.00">vulpes/la/vector.hpp</text>
</a>
</g>
</g>
<!-- Node1&#45;&gt;Node26 -->
<g id="edge38_Node000001_Node000026" class="edge">
<title>Node1&#45;&gt;Node26</title>
<g id="a_edge38_Node000001_Node000026"><a xlink:title=" ">
<path fill="none" stroke="#63b8ff" d="M445.48,-285.99C483.25,-275.8 533.71,-262.2 568.84,-252.73"/>
<polygon fill="#63b8ff" stroke="#63b8ff" points="570.03,-256.04 578.77,-250.05 568.2,-249.28 570.03,-256.04"/>
</a>
</g>
</g>
<!-- Node28 -->
<g id="Node000028" class="node">
<title>Node28</title>
<g id="a_Node000028"><a xlink:href="qrule_8hpp.html" target="_top" xlink:title=" ">
<polygon fill="white" stroke="#666666" points="1395.5,-140 1241.5,-140 1241.5,-121 1395.5,-121 1395.5,-140"/>
<text text-anchor="middle" x="1318.5" y="-128" font-family="Helvetica,sans-Serif" font-size="10.00">vulpes/quadrature/qrule.hpp</text>
</a>
</g>
</g>
<!-- Node1&#45;&gt;Node28 -->
<g id="edge50_Node000001_Node000028" class="edge">
<title>Node1&#45;&gt;Node28</title>
<g id="a_edge50_Node000001_Node000028"><a xlink:title=" ">
<path fill="none" stroke="#63b8ff" d="M472.54,-298.63C635.01,-295.15 1001.36,-283.72 1121.5,-250 1194.87,-229.41 1268.38,-173.61 1301.01,-146.58"/>
<polygon fill="#63b8ff" stroke="#63b8ff" points="1303.35,-149.19 1308.75,-140.07 1298.85,-143.83 1303.35,-149.19"/>
</a>
</g>
</g>
<!-- Node10&#45;&gt;Node3 -->
<g id="edge10_Node000010_Node000003" class="edge">
<title>Node10&#45;&gt;Node3</title>
<g id="a_edge10_Node000010_Node000003"><a xlink:title=" ">
<path fill="none" stroke="#63b8ff" d="M224.54,-175.98C215.37,-168.15 201.56,-156.34 190.47,-146.86"/>
<polygon fill="#63b8ff" stroke="#63b8ff" points="192.52,-144.01 182.64,-140.17 187.97,-149.33 192.52,-144.01"/>
</a>
</g>
</g>
<!-- Node10&#45;&gt;Node7 -->
<g id="edge11_Node000010_Node000007" class="edge">
<title>Node10&#45;&gt;Node7</title>
<g id="a_edge11_Node000010_Node000007"><a xlink:title=" ">
<path fill="none" stroke="#63b8ff" d="M234.35,-175.63C233.88,-148.64 232.47,-67.03 231.83,-29.61"/>
<polygon fill="#63b8ff" stroke="#63b8ff" points="235.32,-29.08 231.65,-19.14 228.32,-29.2 235.32,-29.08"/>
</a>
</g>
</g>
<!-- Node10&#45;&gt;Node11 -->
<g id="edge12_Node000010_Node000011" class="edge">
<title>Node10&#45;&gt;Node11</title>
<g id="a_edge12_Node000010_Node000011"><a xlink:title=" ">
<path fill="none" stroke="#63b8ff" d="M303.17,-176.82C387.5,-167.39 530.6,-151.39 622.25,-141.14"/>
<polygon fill="#63b8ff" stroke="#63b8ff" points="622.79,-144.61 632.34,-140.02 622.01,-137.65 622.79,-144.61"/>
</a>
</g>
</g>
<!-- Node11&#45;&gt;Node5 -->
<g id="edge16_Node000011_Node000005" class="edge">
<title>Node11&#45;&gt;Node5</title>
<g id="a_edge16_Node000011_Node000005"><a xlink:title=" ">
<path fill="none" stroke="#63b8ff" d="M665.08,-120.94C626.31,-112.92 568.13,-99.94 518.5,-85 481.74,-73.93 473.75,-67.64 437.5,-55 404.07,-43.35 365.72,-30.88 338.28,-22.11"/>
<polygon fill="#63b8ff" stroke="#63b8ff" points="339.29,-18.76 328.7,-19.06 337.16,-25.43 339.29,-18.76"/>
</a>
</g>
</g>
<!-- Node11&#45;&gt;Node9 -->
<g id="edge17_Node000011_Node000009" class="edge">
<title>Node11&#45;&gt;Node9</title>
<g id="a_edge17_Node000011_Node000009"><a xlink:title=" ">
<path fill="none" stroke="#63b8ff" d="M791.61,-127.98C854.35,-124.33 941.46,-113.85 1012.5,-85 1017.16,-83.11 1067.33,-46.19 1095.9,-25.05"/>
<polygon fill="#63b8ff" stroke="#63b8ff" points="1098.04,-27.82 1103.99,-19.05 1093.87,-22.19 1098.04,-27.82"/>
</a>
</g>
</g>
<!-- Node12 -->
<g id="Node000012" class="node">
<title>Node12</title>
<g id="a_Node000012"><a xlink:title=" ">
<polygon fill="#e0e0e0" stroke="#999999" points="571.5,-79.5 527.5,-79.5 527.5,-60.5 571.5,-60.5 571.5,-79.5"/>
<text text-anchor="middle" x="549.5" y="-67.5" font-family="Helvetica,sans-Serif" font-size="10.00">mpi.h</text>
</a>
</g>
</g>
<!-- Node11&#45;&gt;Node12 -->
<g id="edge13_Node000011_Node000012" class="edge">
<title>Node11&#45;&gt;Node12</title>
<g id="a_edge13_Node000011_Node000012"><a xlink:title=" ">
<path fill="none" stroke="#63b8ff" d="M681.77,-120.98C655.69,-112.49 615.03,-98.77 580.5,-85 579.33,-84.53 578.13,-84.05 576.93,-83.55"/>
<polygon fill="#63b8ff" stroke="#63b8ff" points="578.31,-80.33 567.74,-79.57 575.53,-86.75 578.31,-80.33"/>
</a>
</g>
</g>
<!-- Node13 -->
<g id="Node000013" class="node">
<title>Node13</title>
<g id="a_Node000013"><a xlink:title=" ">
<polygon fill="#e0e0e0" stroke="#999999" points="791.5,-79.5 739.5,-79.5 739.5,-60.5 791.5,-60.5 791.5,-79.5"/>
<text text-anchor="middle" x="765.5" y="-67.5" font-family="Helvetica,sans-Serif" font-size="10.00">petsc.h</text>
</a>
</g>
</g>
<!-- Node11&#45;&gt;Node13 -->
<g id="edge14_Node000011_Node000013" class="edge">
<title>Node11&#45;&gt;Node13</title>
<g id="a_edge14_Node000011_Node000013"><a xlink:title=" ">
<path fill="none" stroke="#63b8ff" d="M716.91,-120.87C725.58,-111.97 739.3,-97.89 749.96,-86.95"/>
<polygon fill="#63b8ff" stroke="#63b8ff" points="752.58,-89.27 757.05,-79.67 747.57,-84.39 752.58,-89.27"/>
</a>
</g>
</g>
<!-- Node14 -->
<g id="Node000014" class="node">
<title>Node14</title>
<g id="a_Node000014"><a xlink:title=" ">
<polygon fill="#e0e0e0" stroke="#999999" points="929.5,-19 877.5,-19 877.5,0 929.5,0 929.5,-19"/>
<text text-anchor="middle" x="903.5" y="-7" font-family="Helvetica,sans-Serif" font-size="10.00">cassert</text>
</a>
</g>
</g>
<!-- Node11&#45;&gt;Node14 -->
<g id="edge15_Node000011_Node000014" class="edge">
<title>Node11&#45;&gt;Node14</title>
<g id="a_edge15_Node000011_Node000014"><a xlink:title=" ">
<path fill="none" stroke="#63b8ff" d="M728.77,-120.93C747.77,-112.61 776.74,-99.19 800.5,-85 831.36,-66.57 864.65,-41.43 884.79,-25.58"/>
<polygon fill="#63b8ff" stroke="#63b8ff" points="887.16,-28.17 892.81,-19.21 882.8,-22.69 887.16,-28.17"/>
</a>
</g>
</g>
<!-- Node15 -->
<g id="Node000015" class="node">
<title>Node15</title>
<g id="a_Node000015"><a xlink:title=" ">
<polygon fill="#e0e0e0" stroke="#999999" points="1295,-19 1218,-19 1218,0 1295,0 1295,-19"/>
<text text-anchor="middle" x="1256.5" y="-7" font-family="Helvetica,sans-Serif" font-size="10.00">Eigen/Dense</text>
</a>
</g>
</g>
<!-- Node11&#45;&gt;Node15 -->
<g id="edge18_Node000011_Node000015" class="edge">
<title>Node11&#45;&gt;Node15</title>
<g id="a_edge18_Node000011_Node000015"><a xlink:title=" ">
<path fill="none" stroke="#63b8ff" d="M791.6,-123.54C860.78,-117.4 961.52,-105.72 1047.5,-85 1113.61,-69.07 1187.93,-39.68 1227.7,-22.97"/>
<polygon fill="#63b8ff" stroke="#63b8ff" points="1229.2,-26.14 1237.04,-19.01 1226.47,-19.69 1229.2,-26.14"/>
</a>
</g>
</g>
<!-- Node16 -->
<g id="Node000016" class="node">
<title>Node16</title>
<g id="a_Node000016"><a xlink:href="crs__map_8hpp.html" target="_top" xlink:title=" ">
<polygon fill="white" stroke="#666666" points="1003,-85 886,-85 886,-55 1003,-55 1003,-85"/>
<text text-anchor="start" x="894" y="-73" font-family="Helvetica,sans-Serif" font-size="10.00">vulpes/datastructure</text>
<text text-anchor="middle" x="944.5" y="-62" font-family="Helvetica,sans-Serif" font-size="10.00">/crs_map.hpp</text>
</a>
</g>
</g>
<!-- Node11&#45;&gt;Node16 -->
<g id="edge19_Node000011_Node000016" class="edge">
<title>Node11&#45;&gt;Node16</title>
<g id="a_edge19_Node000011_Node000016"><a xlink:title=" ">
<path fill="none" stroke="#63b8ff" d="M742.82,-120.99C778.12,-112.24 834,-98.39 878,-87.48"/>
<polygon fill="#63b8ff" stroke="#63b8ff" points="878.9,-90.87 887.76,-85.06 877.21,-84.07 878.9,-90.87"/>
</a>
</g>
</g>
<!-- Node21 -->
<g id="Node000021" class="node">
<title>Node21</title>
<g id="a_Node000021"><a xlink:href="profiler_8hpp.html" target="_top" xlink:title=" ">
<polygon fill="white" stroke="#666666" points="721,-79.5 590,-79.5 590,-60.5 721,-60.5 721,-79.5"/>
<text text-anchor="middle" x="655.5" y="-67.5" font-family="Helvetica,sans-Serif" font-size="10.00">vulpes/utils/profiler.hpp</text>
</a>
</g>
</g>
<!-- Node11&#45;&gt;Node21 -->
<g id="edge27_Node000011_Node000021" class="edge">
<title>Node11&#45;&gt;Node21</title>
<g id="a_edge27_Node000011_Node000021"><a xlink:title=" ">
<path fill="none" stroke="#63b8ff" d="M700.68,-120.87C692.69,-112.05 680.11,-98.16 670.24,-87.27"/>
<polygon fill="#63b8ff" stroke="#63b8ff" points="672.66,-84.73 663.35,-79.67 667.47,-89.43 672.66,-84.73"/>
</a>
</g>
</g>
<!-- Node16&#45;&gt;Node8 -->
<g id="edge24_Node000016_Node000008" class="edge">
<title>Node16&#45;&gt;Node8</title>
<g id="a_edge24_Node000016_Node000008"><a xlink:title=" ">
<path fill="none" stroke="#63b8ff" d="M885.66,-63.2C859.57,-60.64 828.51,-57.63 800.5,-55 627.82,-38.76 580.27,-49.38 405.19,-18.79"/>
<polygon fill="#63b8ff" stroke="#63b8ff" points="405.58,-15.31 395.12,-17.01 404.36,-22.2 405.58,-15.31"/>
</a>
</g>
</g>
<!-- Node16&#45;&gt;Node9 -->
<g id="edge26_Node000016_Node000009" class="edge">
<title>Node16&#45;&gt;Node9</title>
<g id="a_edge26_Node000016_Node000009"><a xlink:title=" ">
<path fill="none" stroke="#63b8ff" d="M985.46,-54.99C1015.03,-44.87 1054.45,-31.38 1082.12,-21.92"/>
<polygon fill="#63b8ff" stroke="#63b8ff" points="1083.41,-25.18 1091.73,-18.63 1081.14,-18.56 1083.41,-25.18"/>
</a>
</g>
</g>
<!-- Node16&#45;&gt;Node14 -->
<g id="edge22_Node000016_Node000014" class="edge">
<title>Node16&#45;&gt;Node14</title>
<g id="a_edge22_Node000016_Node000014"><a xlink:title=" ">
<path fill="none" stroke="#63b8ff" d="M934.58,-54.84C928.81,-46.61 921.5,-36.18 915.42,-27.51"/>
<polygon fill="#63b8ff" stroke="#63b8ff" points="918.25,-25.45 909.64,-19.27 912.52,-29.46 918.25,-25.45"/>
</a>
</g>
</g>
<!-- Node17 -->
<g id="Node000017" class="node">
<title>Node17</title>
<g id="a_Node000017"><a xlink:title=" ">
<polygon fill="#e0e0e0" stroke="#999999" points="859.5,-19 795.5,-19 795.5,0 859.5,0 859.5,-19"/>
<text text-anchor="middle" x="827.5" y="-7" font-family="Helvetica,sans-Serif" font-size="10.00">algorithm</text>
</a>
</g>
</g>
<!-- Node16&#45;&gt;Node17 -->
<g id="edge20_Node000016_Node000017" class="edge">
<title>Node16&#45;&gt;Node17</title>
<g id="a_edge20_Node000016_Node000017"><a xlink:title=" ">
<path fill="none" stroke="#63b8ff" d="M916.48,-54.99C897.48,-45.49 872.53,-33.02 853.89,-23.69"/>
<polygon fill="#63b8ff" stroke="#63b8ff" points="855.29,-20.48 844.78,-19.14 852.16,-26.74 855.29,-20.48"/>
</a>
</g>
</g>
<!-- Node18 -->
<g id="Node000018" class="node">
<title>Node18</title>
<g id="a_Node000018"><a xlink:title=" ">
<polygon fill="#e0e0e0" stroke="#999999" points="1199.5,-19 1157.5,-19 1157.5,0 1199.5,0 1199.5,-19"/>
<text text-anchor="middle" x="1178.5" y="-7" font-family="Helvetica,sans-Serif" font-size="10.00">array</text>
</a>
</g>
</g>
<!-- Node16&#45;&gt;Node18 -->
<g id="edge21_Node000016_Node000018" class="edge">
<title>Node16&#45;&gt;Node18</title>
<g id="a_edge21_Node000016_Node000018"><a xlink:title=" ">
<path fill="none" stroke="#63b8ff" d="M1003.12,-55.22C1041.65,-46.03 1093.41,-33.42 1147.46,-19.21"/>
<polygon fill="#63b8ff" stroke="#63b8ff" points="1148.45,-22.57 1157.22,-16.63 1146.66,-15.8 1148.45,-22.57"/>
</a>
</g>
</g>
<!-- Node19 -->
<g id="Node000019" class="node">
<title>Node19</title>
<g id="a_Node000019"><a xlink:title=" ">
<polygon fill="#e0e0e0" stroke="#999999" points="1005,-19 948,-19 948,0 1005,0 1005,-19"/>
<text text-anchor="middle" x="976.5" y="-7" font-family="Helvetica,sans-Serif" font-size="10.00">ostream</text>
</a>
</g>
</g>
<!-- Node16&#45;&gt;Node19 -->
<g id="edge23_Node000016_Node000019" class="edge">
<title>Node16&#45;&gt;Node19</title>
<g id="a_edge23_Node000016_Node000019"><a xlink:title=" ">
<path fill="none" stroke="#63b8ff" d="M952.25,-54.84C956.65,-46.78 962.21,-36.62 966.9,-28.06"/>
<polygon fill="#63b8ff" stroke="#63b8ff" points="969.98,-29.72 971.7,-19.27 963.84,-26.36 969.98,-29.72"/>
</a>
</g>
</g>
<!-- Node20 -->
<g id="Node000020" class="node">
<title>Node20</title>
<g id="a_Node000020"><a xlink:title=" ">
<polygon fill="#e0e0e0" stroke="#999999" points="1074,-19 1023,-19 1023,0 1074,0 1074,-19"/>
<text text-anchor="middle" x="1048.5" y="-7" font-family="Helvetica,sans-Serif" font-size="10.00">variant</text>
</a>
</g>
</g>
<!-- Node16&#45;&gt;Node20 -->
<g id="edge25_Node000016_Node000020" class="edge">
<title>Node16&#45;&gt;Node20</title>
<g id="a_edge25_Node000016_Node000020"><a xlink:title=" ">
<path fill="none" stroke="#63b8ff" d="M969.41,-54.99C985.99,-45.66 1007.66,-33.47 1024.13,-24.21"/>
<polygon fill="#63b8ff" stroke="#63b8ff" points="1026.14,-27.09 1033.14,-19.14 1022.71,-20.99 1026.14,-27.09"/>
</a>
</g>
</g>
<!-- Node21&#45;&gt;Node4 -->
<g id="edge30_Node000021_Node000004" class="edge">
<title>Node21&#45;&gt;Node4</title>
<g id="a_edge30_Node000021_Node000004"><a xlink:title=" ">
<path fill="none" stroke="#63b8ff" d="M696.23,-60.46C707.31,-58.4 719.33,-56.39 730.5,-55 980.82,-23.9 1049.96,-56.43 1302.62,-19.02"/>
<polygon fill="#63b8ff" stroke="#63b8ff" points="1303.47,-22.43 1312.84,-17.48 1302.43,-15.51 1303.47,-22.43"/>
</a>
</g>
</g>
<!-- Node21&#45;&gt;Node5 -->
<g id="edge32_Node000021_Node000005" class="edge">
<title>Node21&#45;&gt;Node5</title>
<g id="a_edge32_Node000021_Node000005"><a xlink:title=" ">
<path fill="none" stroke="#63b8ff" d="M611.13,-60.45C601.07,-58.58 590.43,-56.67 580.5,-55 477.25,-37.63 448.27,-38.43 341.57,-19.09"/>
<polygon fill="#63b8ff" stroke="#63b8ff" points="342.16,-15.64 331.69,-17.29 340.9,-22.53 342.16,-15.64"/>
</a>
</g>
</g>
<!-- Node21&#45;&gt;Node7 -->
<g id="edge33_Node000021_Node000007" class="edge">
<title>Node21&#45;&gt;Node7</title>
<g id="a_edge33_Node000021_Node000007"><a xlink:title=" ">
<path fill="none" stroke="#63b8ff" d="M612.75,-60.47C602.23,-58.52 590.98,-56.57 580.5,-55 442.99,-34.41 403.92,-45.37 263.59,-18.93"/>
<polygon fill="#63b8ff" stroke="#63b8ff" points="264.23,-15.49 253.75,-17.05 262.92,-22.36 264.23,-15.49"/>
</a>
</g>
</g>
<!-- Node21&#45;&gt;Node8 -->
<g id="edge35_Node000021_Node000008" class="edge">
<title>Node21&#45;&gt;Node8</title>
<g id="a_edge35_Node000021_Node000008"><a xlink:title=" ">
<path fill="none" stroke="#63b8ff" d="M611.04,-60.49C553.86,-49.5 456.7,-30.61 405.16,-19"/>
<polygon fill="#63b8ff" stroke="#63b8ff" points="405.71,-15.54 395.18,-16.71 404.15,-22.36 405.71,-15.54"/>
</a>
</g>
</g>
<!-- Node21&#45;&gt;Node9 -->
<g id="edge36_Node000021_Node000009" class="edge">
<title>Node21&#45;&gt;Node9</title>
<g id="a_edge36_Node000021_Node000009"><a xlink:title=" ">
<path fill="none" stroke="#63b8ff" d="M697.84,-60.46C708.47,-58.49 719.88,-56.53 730.5,-55 883.39,-32.97 926.6,-46.74 1081.92,-19.03"/>
<polygon fill="#63b8ff" stroke="#63b8ff" points="1082.61,-22.46 1091.83,-17.23 1081.36,-15.57 1082.61,-22.46"/>
</a>
</g>
</g>
<!-- Node21&#45;&gt;Node17 -->
<g id="edge28_Node000021_Node000017" class="edge">
<title>Node21&#45;&gt;Node17</title>
<g id="a_edge28_Node000021_Node000017"><a xlink:title=" ">
<path fill="none" stroke="#63b8ff" d="M680.51,-60.49C710.06,-50.44 759.41,-33.66 792.69,-22.34"/>
<polygon fill="#63b8ff" stroke="#63b8ff" points="794.12,-25.55 802.46,-19.02 791.87,-18.92 794.12,-25.55"/>
</a>
</g>
</g>
<!-- Node22 -->
<g id="Node000022" class="node">
<title>Node22</title>
<g id="a_Node000022"><a xlink:title=" ">
<polygon fill="#e0e0e0" stroke="#999999" points="777.5,-19 727.5,-19 727.5,0 777.5,0 777.5,-19"/>
<text text-anchor="middle" x="752.5" y="-7" font-family="Helvetica,sans-Serif" font-size="10.00">chrono</text>
</a>
</g>
</g>
<!-- Node21&#45;&gt;Node22 -->
<g id="edge29_Node000021_Node000022" class="edge">
<title>Node21&#45;&gt;Node22</title>
<g id="a_edge29_Node000021_Node000022"><a xlink:title=" ">
<path fill="none" stroke="#63b8ff" d="M669.81,-60.37C685.5,-50.91 710.9,-35.59 729.41,-24.42"/>
<polygon fill="#63b8ff" stroke="#63b8ff" points="731.37,-27.33 738.13,-19.17 727.76,-21.33 731.37,-27.33"/>
</a>
</g>
</g>
<!-- Node23 -->
<g id="Node000023" class="node">
<title>Node23</title>
<g id="a_Node000023"><a xlink:title=" ">
<polygon fill="#e0e0e0" stroke="#999999" points="469.5,-19 413.5,-19 413.5,0 469.5,0 469.5,-19"/>
<text text-anchor="middle" x="441.5" y="-7" font-family="Helvetica,sans-Serif" font-size="10.00">iomanip</text>
</a>
</g>
</g>
<!-- Node21&#45;&gt;Node23 -->
<g id="edge31_Node000021_Node000023" class="edge">
<title>Node21&#45;&gt;Node23</title>
<g id="a_edge31_Node000021_Node000023"><a xlink:title=" ">
<path fill="none" stroke="#63b8ff" d="M624.38,-60.49C585.94,-49.98 520.56,-32.11 479.28,-20.83"/>
<polygon fill="#63b8ff" stroke="#63b8ff" points="480.15,-17.44 469.58,-18.18 478.31,-24.19 480.15,-17.44"/>
</a>
</g>
</g>
<!-- Node24 -->
<g id="Node000024" class="node">
<title>Node24</title>
<g id="a_Node000024"><a xlink:title=" ">
<polygon fill="#e0e0e0" stroke="#999999" points="581,-19 488,-19 488,0 581,0 581,-19"/>
<text text-anchor="middle" x="534.5" y="-7" font-family="Helvetica,sans-Serif" font-size="10.00">unordered_map</text>
</a>
</g>
</g>
<!-- Node21&#45;&gt;Node24 -->
<g id="edge34_Node000021_Node000024" class="edge">
<title>Node21&#45;&gt;Node24</title>
<g id="a_edge34_Node000021_Node000024"><a xlink:title=" ">
<path fill="none" stroke="#63b8ff" d="M637.91,-60.49C617.74,-50.75 584.48,-34.66 561.14,-23.38"/>
<polygon fill="#63b8ff" stroke="#63b8ff" points="562.64,-20.22 552.12,-19.02 559.6,-26.52 562.64,-20.22"/>
</a>
</g>
</g>
<!-- Node25 -->
<g id="Node000025" class="node">
<title>Node25</title>
<g id="a_Node000025"><a xlink:title=" ">
<polygon fill="#e0e0e0" stroke="#999999" points="709.5,-19 599.5,-19 599.5,0 709.5,0 709.5,-19"/>
<text text-anchor="middle" x="654.5" y="-7" font-family="Helvetica,sans-Serif" font-size="10.00">nlohmann/json.hpp</text>
</a>
</g>
</g>
<!-- Node21&#45;&gt;Node25 -->
<g id="edge37_Node000021_Node000025" class="edge">
<title>Node21&#45;&gt;Node25</title>
<g id="a_edge37_Node000021_Node000025"><a xlink:title=" ">
<path fill="none" stroke="#63b8ff" d="M655.35,-60.37C655.21,-52.25 655,-39.81 654.82,-29.39"/>
<polygon fill="#63b8ff" stroke="#63b8ff" points="658.32,-29.11 654.65,-19.17 651.32,-29.23 658.32,-29.11"/>
</a>
</g>
</g>
<!-- Node26&#45;&gt;Node3 -->
<g id="edge39_Node000026_Node000003" class="edge">
<title>Node26&#45;&gt;Node3</title>
<g id="a_edge39_Node000026_Node000003"><a xlink:title=" ">
<path fill="none" stroke="#63b8ff" d="M590.35,-230.85C569.57,-221.92 536.24,-207.56 507.5,-195 488.35,-186.63 484.56,-181.85 464.5,-176 378.99,-151.07 275.1,-139.49 217.13,-134.61"/>
<polygon fill="#63b8ff" stroke="#63b8ff" points="217.1,-131.1 206.85,-133.78 216.54,-138.08 217.1,-131.1"/>
</a>
</g>
</g>
<!-- Node26&#45;&gt;Node4 -->
<g id="edge42_Node000026_Node000004" class="edge">
<title>Node26&#45;&gt;Node4</title>
<g id="a_edge42_Node000026_Node000004"><a xlink:title=" ">
<path fill="none" stroke="#63b8ff" d="M668.26,-234.01C725.04,-227.74 813.81,-215.59 888.5,-195 1056.4,-148.71 1245.93,-57.55 1313.71,-23.63"/>
<polygon fill="#63b8ff" stroke="#63b8ff" points="1315.45,-26.67 1322.81,-19.05 1312.3,-20.42 1315.45,-26.67"/>
</a>
</g>
</g>
<!-- Node26&#45;&gt;Node6 -->
<g id="edge43_Node000026_Node000006" class="edge">
<title>Node26&#45;&gt;Node6</title>
<g id="a_edge43_Node000026_Node000006"><a xlink:title=" ">
<path fill="none" stroke="#63b8ff" d="M580.94,-230.98C549.59,-221.96 499.94,-207.65 465.43,-197.71"/>
<polygon fill="#63b8ff" stroke="#63b8ff" points="466.26,-194.31 455.69,-194.91 464.33,-201.04 466.26,-194.31"/>
</a>
</g>
</g>
<!-- Node26&#45;&gt;Node7 -->
<g id="edge44_Node000026_Node000007" class="edge">
<title>Node26&#45;&gt;Node7</title>
<g id="a_edge44_Node000026_Node000007"><a xlink:title=" ">
<path fill="none" stroke="#63b8ff" d="M596.11,-230.8C538.65,-196.09 325.43,-67.25 254.57,-24.44"/>
<polygon fill="#63b8ff" stroke="#63b8ff" points="256.28,-21.38 245.91,-19.21 252.66,-27.37 256.28,-21.38"/>
</a>
</g>
</g>
<!-- Node26&#45;&gt;Node8 -->
<g id="edge45_Node000026_Node000008" class="edge">
<title>Node26&#45;&gt;Node8</title>
<g id="a_edge45_Node000026_Node000008"><a xlink:title=" ">
<path fill="none" stroke="#63b8ff" d="M616.92,-230.82C625.46,-218.15 638.36,-194.12 628.5,-176 603.1,-129.33 460.01,-54.04 399.51,-23.75"/>
<polygon fill="#63b8ff" stroke="#63b8ff" points="400.72,-20.44 390.21,-19.12 397.61,-26.71 400.72,-20.44"/>
</a>
</g>
</g>
<!-- Node26&#45;&gt;Node9 -->
<g id="edge46_Node000026_Node000009" class="edge">
<title>Node26&#45;&gt;Node9</title>
<g id="a_edge46_Node000026_Node000009"><a xlink:title=" ">
<path fill="none" stroke="#63b8ff" d="M658.5,-231C743.12,-214.25 921.78,-170.95 1047.5,-85 1070.68,-69.16 1091.49,-43.94 1103.81,-27.3"/>
<polygon fill="#63b8ff" stroke="#63b8ff" points="1106.75,-29.22 1109.75,-19.06 1101.07,-25.13 1106.75,-29.22"/>
</a>
</g>
</g>
<!-- Node26&#45;&gt;Node10 -->
<g id="edge48_Node000026_Node000010" class="edge">
<title>Node26&#45;&gt;Node10</title>
<g id="a_edge48_Node000026_Node000010"><a xlink:title=" ">
<path fill="none" stroke="#63b8ff" d="M552.98,-231.39C486.42,-222.01 376.78,-206.56 305.1,-196.45"/>
<polygon fill="#63b8ff" stroke="#63b8ff" points="305.2,-192.93 294.81,-195 304.22,-199.86 305.2,-192.93"/>
</a>
</g>
</g>
<!-- Node26&#45;&gt;Node11 -->
<g id="edge49_Node000026_Node000011" class="edge">
<title>Node26&#45;&gt;Node11</title>
<g id="a_edge49_Node000026_Node000011"><a xlink:title=" ">
<path fill="none" stroke="#63b8ff" d="M621.66,-230.93C632.43,-222.4 648.91,-208.64 661.5,-195 674.97,-180.4 688.25,-161.99 697.23,-148.76"/>
<polygon fill="#63b8ff" stroke="#63b8ff" points="700.32,-150.43 702.96,-140.17 694.5,-146.55 700.32,-150.43"/>
</a>
</g>
</g>
<!-- Node26&#45;&gt;Node15 -->
<g id="edge47_Node000026_Node000015" class="edge">
<title>Node26&#45;&gt;Node15</title>
<g id="a_edge47_Node000026_Node000015"><a xlink:title=" ">
<path fill="none" stroke="#63b8ff" d="M668.03,-232.03C716.31,-224.97 786.76,-212.78 846.5,-195 967.15,-159.1 993.33,-138.02 1107.5,-85 1151.33,-64.64 1201.43,-39.12 1230.94,-23.85"/>
<polygon fill="#63b8ff" stroke="#63b8ff" points="1232.85,-26.8 1240.11,-19.08 1229.63,-20.58 1232.85,-26.8"/>
</a>
</g>
</g>
<!-- Node26&#45;&gt;Node17 -->
<g id="edge41_Node000026_Node000017" class="edge">
<title>Node26&#45;&gt;Node17</title>
<g id="a_edge41_Node000026_Node000017"><a xlink:title=" ">
<path fill="none" stroke="#63b8ff" d="M645.98,-230.9C689.4,-218.45 761.9,-191.1 800.5,-140 825.45,-106.97 828.65,-56.25 828.36,-29.13"/>
<polygon fill="#63b8ff" stroke="#63b8ff" points="831.86,-28.97 828.08,-19.07 824.86,-29.17 831.86,-28.97"/>
</a>
</g>
</g>
<!-- Node27 -->
<g id="Node000027" class="node">
<title>Node27</title>
<g id="a_Node000027"><a xlink:title=" ">
<polygon fill="#e0e0e0" stroke="#999999" points="619,-195 550,-195 550,-176 619,-176 619,-195"/>
<text text-anchor="middle" x="584.5" y="-183" font-family="Helvetica,sans-Serif" font-size="10.00">petscvec.h</text>
</a>
</g>
</g>
<!-- Node26&#45;&gt;Node27 -->
<g id="edge40_Node000026_Node000027" class="edge">
<title>Node26&#45;&gt;Node27</title>
<g id="a_edge40_Node000026_Node000027"><a xlink:title=" ">
<path fill="none" stroke="#63b8ff" d="M606.21,-230.75C602.69,-223.57 597.59,-213.18 593.22,-204.27"/>
<polygon fill="#63b8ff" stroke="#63b8ff" points="596.26,-202.53 588.71,-195.09 589.98,-205.61 596.26,-202.53"/>
</a>
</g>
</g>
<!-- Node28&#45;&gt;Node4 -->
<g id="edge52_Node000028_Node000004" class="edge">
<title>Node28&#45;&gt;Node4</title>
<g id="a_edge52_Node000028_Node000004"><a xlink:title=" ">
<path fill="none" stroke="#63b8ff" d="M1320.01,-120.94C1323.37,-101.91 1331.53,-55.69 1336.15,-29.47"/>
<polygon fill="#63b8ff" stroke="#63b8ff" points="1339.66,-29.76 1337.95,-19.3 1332.76,-28.54 1339.66,-29.76"/>
</a>
</g>
</g>
<!-- Node28&#45;&gt;Node9 -->
<g id="edge53_Node000028_Node000009" class="edge">
<title>Node28&#45;&gt;Node9</title>
<g id="a_edge53_Node000028_Node000009"><a xlink:title=" ">
<path fill="none" stroke="#63b8ff" d="M1298.94,-120.85C1280.25,-112.36 1251.45,-98.74 1227.5,-85 1194.21,-65.9 1157.5,-40.62 1135.48,-24.96"/>
<polygon fill="#63b8ff" stroke="#63b8ff" points="1137.44,-22.06 1127.27,-19.08 1133.36,-27.75 1137.44,-22.06"/>
</a>
</g>
</g>
<!-- Node28&#45;&gt;Node18 -->
<g id="edge51_Node000028_Node000018" class="edge">
<title>Node28&#45;&gt;Node18</title>
<g id="a_edge51_Node000028_Node000018"><a xlink:title=" ">
<path fill="none" stroke="#63b8ff" d="M1308.43,-120.94C1285.04,-101.06 1226.72,-51.49 1196.82,-26.07"/>
<polygon fill="#63b8ff" stroke="#63b8ff" points="1198.74,-23.11 1188.85,-19.3 1194.21,-28.45 1198.74,-23.11"/>
</a>
</g>
</g>
<!-- Node29 -->
<g id="Node000029" class="node">
<title>Node29</title>
<g id="a_Node000029"><a xlink:href="vmath_8hpp.html" target="_top" xlink:title=" ">
<polygon fill="white" stroke="#666666" points="1554.5,-79.5 1426.5,-79.5 1426.5,-60.5 1554.5,-60.5 1554.5,-79.5"/>
<text text-anchor="middle" x="1490.5" y="-67.5" font-family="Helvetica,sans-Serif" font-size="10.00">vulpes/utils/vmath.hpp</text>
</a>
</g>
</g>
<!-- Node28&#45;&gt;Node29 -->
<g id="edge54_Node000028_Node000029" class="edge">
<title>Node28&#45;&gt;Node29</title>
<g id="a_edge54_Node000028_Node000029"><a xlink:title=" ">
<path fill="none" stroke="#63b8ff" d="M1343.51,-120.99C1373.06,-110.94 1422.41,-94.16 1455.69,-82.84"/>
<polygon fill="#63b8ff" stroke="#63b8ff" points="1457.12,-86.05 1465.46,-79.52 1454.87,-79.42 1457.12,-86.05"/>
</a>
</g>
</g>
<!-- Node29&#45;&gt;Node4 -->
<g id="edge56_Node000029_Node000004" class="edge">
<title>Node29&#45;&gt;Node4</title>
<g id="a_edge56_Node000029_Node000004"><a xlink:title=" ">
<path fill="none" stroke="#63b8ff" d="M1468.54,-60.49C1442.82,-50.53 1400.02,-33.95 1370.82,-22.63"/>
<polygon fill="#63b8ff" stroke="#63b8ff" points="1372.07,-19.37 1361.48,-19.02 1369.54,-25.89 1372.07,-19.37"/>
</a>
</g>
</g>
<!-- Node29&#45;&gt;Node15 -->
<g id="edge60_Node000029_Node000015" class="edge">
<title>Node29&#45;&gt;Node15</title>
<g id="a_edge60_Node000029_Node000015"><a xlink:title=" ">
<path fill="none" stroke="#63b8ff" d="M1456.47,-60.49C1415.23,-50.18 1345.64,-32.78 1300.39,-21.47"/>
<polygon fill="#63b8ff" stroke="#63b8ff" points="1301.12,-18.05 1290.57,-19.02 1299.42,-24.84 1301.12,-18.05"/>
</a>
</g>
</g>
<!-- Node30 -->
<g id="Node000030" class="node">
<title>Node30</title>
<g id="a_Node000030"><a xlink:title=" ">
<polygon fill="#e0e0e0" stroke="#999999" points="1672,-19 1613,-19 1613,0 1672,0 1672,-19"/>
<text text-anchor="middle" x="1642.5" y="-7" font-family="Helvetica,sans-Serif" font-size="10.00">gmpxx.h</text>
</a>
</g>
</g>
<!-- Node29&#45;&gt;Node30 -->
<g id="edge55_Node000029_Node000030" class="edge">
<title>Node29&#45;&gt;Node30</title>
<g id="a_edge55_Node000029_Node000030"><a xlink:title=" ">
<path fill="none" stroke="#63b8ff" d="M1512.6,-60.49C1538.49,-50.53 1581.58,-33.95 1610.97,-22.63"/>
<polygon fill="#63b8ff" stroke="#63b8ff" points="1612.3,-25.88 1620.37,-19.02 1609.78,-19.34 1612.3,-25.88"/>
</a>
</g>
</g>
<!-- Node31 -->
<g id="Node000031" class="node">
<title>Node31</title>
<g id="a_Node000031"><a xlink:title=" ">
<polygon fill="#e0e0e0" stroke="#999999" points="1445.5,-19 1395.5,-19 1395.5,0 1445.5,0 1445.5,-19"/>
<text text-anchor="middle" x="1420.5" y="-7" font-family="Helvetica,sans-Serif" font-size="10.00">cstdint</text>
</a>
</g>
</g>
<!-- Node29&#45;&gt;Node31 -->
<g id="edge57_Node000029_Node000031" class="edge">
<title>Node29&#45;&gt;Node31</title>
<g id="a_edge57_Node000029_Node000031"><a xlink:title=" ">
<path fill="none" stroke="#63b8ff" d="M1480.17,-60.37C1469.31,-51.3 1452.01,-36.84 1438.83,-25.82"/>
<polygon fill="#63b8ff" stroke="#63b8ff" points="1440.79,-22.89 1430.87,-19.17 1436.3,-28.27 1440.79,-22.89"/>
</a>
</g>
</g>
<!-- Node32 -->
<g id="Node000032" class="node">
<title>Node32</title>
<g id="a_Node000032"><a xlink:title=" ">
<polygon fill="#e0e0e0" stroke="#999999" points="1507.5,-19 1463.5,-19 1463.5,0 1507.5,0 1507.5,-19"/>
<text text-anchor="middle" x="1485.5" y="-7" font-family="Helvetica,sans-Serif" font-size="10.00">limits</text>
</a>
</g>
</g>
<!-- Node29&#45;&gt;Node32 -->
<g id="edge58_Node000029_Node000032" class="edge">
<title>Node29&#45;&gt;Node32</title>
<g id="a_edge58_Node000029_Node000032"><a xlink:title=" ">
<path fill="none" stroke="#63b8ff" d="M1489.76,-60.37C1489.07,-52.25 1488,-39.81 1487.11,-29.39"/>
<polygon fill="#63b8ff" stroke="#63b8ff" points="1490.58,-28.83 1486.24,-19.17 1483.61,-29.43 1490.58,-28.83"/>
</a>
</g>
</g>
<!-- Node33 -->
<g id="Node000033" class="node">
<title>Node33</title>
<g id="a_Node000033"><a xlink:title=" ">
<polygon fill="#e0e0e0" stroke="#999999" points="1595,-19 1526,-19 1526,0 1595,0 1595,-19"/>
<text text-anchor="middle" x="1560.5" y="-7" font-family="Helvetica,sans-Serif" font-size="10.00">type_traits</text>
</a>
</g>
</g>
<!-- Node29&#45;&gt;Node33 -->
<g id="edge59_Node000029_Node000033" class="edge">
<title>Node29&#45;&gt;Node33</title>
<g id="a_edge59_Node000029_Node000033"><a xlink:title=" ">
<path fill="none" stroke="#63b8ff" d="M1500.83,-60.37C1511.69,-51.3 1528.99,-36.84 1542.17,-25.82"/>
<polygon fill="#63b8ff" stroke="#63b8ff" points="1544.7,-28.27 1550.13,-19.17 1540.21,-22.89 1544.7,-28.27"/>
</a>
</g>
</g>
</g>
</svg>

<g id="navigator" transform="translate(0 0)" fill="#404254">
  <rect fill="#f2f5e9" fill-opacity="0.5" stroke="#606060" stroke-width=".5" x="0" y="0" width="60" height="60"/>
  <use id="zoomplus" xlink:href="#zoomPlus" x="17" y="9" onmousedown="handleZoom(evt,'in')"/>
  <use id="zoomminus" xlink:href="#zoomMin" x="42" y="9" onmousedown="handleZoom(evt,'out')"/>
  <use id="reset" xlink:href="#resetDef" x="30" y="36" onmousedown="handleReset()"/>
   <use id="arrowup" xlink:href="#arrowUp" x="0" y="0" onmousedown="handlePan(0,-1)"/>
  <use id="arrowright" xlink:href="#arrowRight" x="0" y="0" onmousedown="handlePan(1,0)"/>
  <use id="arrowdown" xlink:href="#arrowDown" x="0" y="0" onmousedown="handlePan(0,1)"/>
  <use id="arrowleft" xlink:href="#arrowLeft" x="0" y="0" onmousedown="handlePan(-1,0)"/>
</g>
<svg viewBox="0 0 15 15" width="100%" height="30px" preserveAspectRatio="xMaxYMin meet">
 <g id="arrow_out" transform="scale(0.3 0.3)">
  <a xlink:href="sparse__matrix_8hpp__incl_org.svg" target="_base">
   <rect id="button" ry="5" rx="5" y="6" x="6" height="38" width="38"
        fill="#f2f5e9" fill-opacity="0.5" stroke="#606060" stroke-width="1.0"/>
   <path id="arrow"
     d="M 11.500037,31.436501 C 11.940474,20.09759 22.043105,11.32322 32.158766,21.979434 L 37.068811,17.246167 C 37.068811,17.246167 37.088388,32 37.088388,32 L 22.160133,31.978069 C 22.160133,31.978069 26.997745,27.140456 26.997745,27.140456 C 18.528582,18.264221 13.291696,25.230495 11.500037,31.436501 z"
     style="fill:#404040;"/>
  </a>
 </g>
</svg>

<style type='text/css'>
<![CDATA[
[data-mouse-over-selected='false'] { opacity: 0.7; }
[data-mouse-over-selected='true']  { opacity: 1.0; }
]]>
</style>
<script type="application/ecmascript"><![CDATA[
document.addEventListener('DOMContentLoaded', (event) => {
  highlightEdges();
  highlightAdjacentNodes();
});
]]></script>
</svg>
