<?xml version="1.0" encoding="UTF-8" standalone="no"?>
<!DOCTYPE svg PUBLIC "-//W3C//DTD SVG 1.1//EN"
 "http://www.w3.org/Graphics/SVG/1.1/DTD/svg11.dtd">
<!-- Generated by graphviz version 2.42.4 (0)
 -->
<!-- Title: /__w/vulpes/vulpes/vulpes/la/sparse_matrix.cpp Pages: 1 -->
<!--zoomable 379 -->

<svg id="main" version="1.1" xmlns="http://www.w3.org/2000/svg" xmlns:xlink="http://www.w3.org/1999/xlink" xml:space="preserve" onload="init(evt)">
<style type="text/css"><![CDATA[
.node, .edge {opacity: 0.7;}
.node.selected, .edge.selected {opacity: 1;}
.edge:hover path { stroke: red; }
.edge:hover polygon { stroke: red; fill: red; }
]]></style>

<defs>
  <circle id="rim" cx="0" cy="0" r="7"/>
  <circle id="rim2" cx="0" cy="0" r="3.5"/>
  <g id="zoomPlus">
    <use xlink:href="#rim" fill="#404040"><set attributeName="fill" to="#808080" begin="zoomplus.mouseover" end="zoomplus.mouseout"/></use>
    <path d="M-4,0h8M0,-4v8" fill="none" stroke="white" stroke-width="1.5" pointer-events="none"/>
  </g>
  <g id="zoomMin">
    <use xlink:href="#rim" fill="#404040"><set attributeName="fill" to="#808080" begin="zoomminus.mouseover" end="zoomminus.mouseout"/></use>
    <path d="M-4,0h8" fill="none" stroke="white" stroke-width="1.5" pointer-events="none"/>
  </g>
  <g id="arrowUp" transform="translate(30 24)">
    <use xlink:href="#rim"/>
    <path pointer-events="none" fill="none" stroke="white" stroke-width="1.5" d="M0,-3.0v7 M-2.5,-0.5L0,-3.0L2.5,-0.5"/>
  </g>
  <g id="arrowRight" transform="rotate(90) translate(36 -43)">
    <use xlink:href="#rim"/>
    <path pointer-events="none" fill="none" stroke="white" stroke-width="1.5" d="M0,-3.0v7 M-2.5,-0.5L0,-3.0L2.5,-0.5"/>
  </g>
  <g id="arrowDown" transform="rotate(180) translate(-30 -48)">
    <use xlink:href="#rim"/>
    <path pointer-events="none" fill="none" stroke="white" stroke-width="1.5" d="M0,-3.0v7 M-2.5,-0.5L0,-3.0L2.5,-0.5"/>
  </g>
  <g id="arrowLeft" transform="rotate(270) translate(-36 17)">
    <use xlink:href="#rim"/>
    <path pointer-events="none" fill="none" stroke="white" stroke-width="1.5" d="M0,-3.0v7 M-2.5,-0.5L0,-3.0L2.5,-0.5"/>
  </g>
  <g id="resetDef">
    <use xlink:href="#rim2" fill="#404040"><set attributeName="fill" to="#808080" begin="reset.mouseover" end="reset.mouseout"/></use>
  </g>
</defs>
<script type="application/ecmascript">
var viewWidth = 1568;
var viewHeight = 379;
var sectionId = 'dynsection-0';
</script>
<script type="application/ecmascript" xlink:href="svg.min.js"/>
<svg id="graph" class="graph">
<g id="viewport">
<title>/__w/vulpes/vulpes/vulpes/la/sparse_matrix.cpp</title>
<!-- Node1 -->
<g id="Node000001" class="node">
<title>Node1</title>
<g id="a_Node000001"><a xlink:title=" ">
<polygon fill="#999999" stroke="#666666" points="331.5,-371 174.5,-371 174.5,-341 331.5,-341 331.5,-371"/>
<text text-anchor="start" x="182.5" y="-359" font-family="Helvetica,sans-Serif" font-size="10.00">/__w/vulpes/vulpes</text>
<text text-anchor="middle" x="253" y="-348" font-family="Helvetica,sans-Serif" font-size="10.00">/vulpes/la/sparse_matrix.cpp</text>
</a>
</g>
</g>
<!-- Node2 -->
<g id="Node000002" class="node">
<title>Node2</title>
<g id="a_Node000002"><a xlink:href="sparse__matrix_8hpp.html" target="_top" xlink:title=" ">
<polygon fill="white" stroke="#666666" points="545.5,-305 390.5,-305 390.5,-286 545.5,-286 545.5,-305"/>
<text text-anchor="middle" x="468" y="-293" font-family="Helvetica,sans-Serif" font-size="10.00">vulpes/la/sparse_matrix.hpp</text>
</a>
</g>
</g>
<!-- Node1&#45;&gt;Node2 -->
<g id="edge1_Node000001_Node000002" class="edge">
<title>Node1&#45;&gt;Node2</title>
<g id="a_edge1_Node000001_Node000002"><a xlink:title=" ">
<path fill="none" stroke="#63b8ff" d="M304.5,-340.99C341.92,-330.8 391.91,-317.2 426.73,-307.73"/>
<polygon fill="#63b8ff" stroke="#63b8ff" points="427.83,-311.06 436.56,-305.05 426,-304.3 427.83,-311.06"/>
</a>
</g>
</g>
<!-- Node8 -->
<g id="Node000008" class="node">
<title>Node8</title>
<g id="a_Node000008"><a xlink:title=" ">
<polygon fill="#e0e0e0" stroke="#999999" points="142,-19 98,-19 98,0 142,0 142,-19"/>
<text text-anchor="middle" x="120" y="-7" font-family="Helvetica,sans-Serif" font-size="10.00">string</text>
</a>
</g>
</g>
<!-- Node1&#45;&gt;Node8 -->
<g id="edge63_Node000001_Node000008" class="edge">
<title>Node1&#45;&gt;Node8</title>
<g id="a_edge63_Node000001_Node000008"><a xlink:title=" ">
<path fill="none" stroke="#63b8ff" d="M174.47,-345.61C113.05,-333.36 38,-305.34 38,-241.5 38,-241.5 38,-241.5 38,-184.5 38,-121.55 82.46,-56.97 105.9,-27.28"/>
<polygon fill="#63b8ff" stroke="#63b8ff" points="108.85,-29.2 112.43,-19.23 103.42,-24.79 108.85,-29.2"/>
</a>
</g>
</g>
<!-- Node9 -->
<g id="Node000009" class="node">
<title>Node9</title>
<g id="a_Node000009"><a xlink:title=" ">
<polygon fill="#e0e0e0" stroke="#999999" points="79.5,-19 34.5,-19 34.5,0 79.5,0 79.5,-19"/>
<text text-anchor="middle" x="57" y="-7" font-family="Helvetica,sans-Serif" font-size="10.00">utility</text>
</a>
</g>
</g>
<!-- Node1&#45;&gt;Node9 -->
<g id="edge64_Node000001_Node000009" class="edge">
<title>Node1&#45;&gt;Node9</title>
<g id="a_edge64_Node000001_Node000009"><a xlink:title=" ">
<path fill="none" stroke="#63b8ff" d="M174.34,-351.73C100.07,-343.92 0,-319.01 0,-241.5 0,-241.5 0,-241.5 0,-129.5 0,-89.64 26.34,-48.98 43.21,-27.03"/>
<polygon fill="#63b8ff" stroke="#63b8ff" points="46.05,-29.07 49.55,-19.07 40.58,-24.71 46.05,-29.07"/>
</a>
</g>
</g>
<!-- Node10 -->
<g id="Node000010" class="node">
<title>Node10</title>
<g id="a_Node000010"><a xlink:title=" ">
<polygon fill="#e0e0e0" stroke="#999999" points="963.5,-19 916.5,-19 916.5,0 963.5,0 963.5,-19"/>
<text text-anchor="middle" x="940" y="-7" font-family="Helvetica,sans-Serif" font-size="10.00">vector</text>
</a>
</g>
</g>
<!-- Node1&#45;&gt;Node10 -->
<g id="edge65_Node000001_Node000010" class="edge">
<title>Node1&#45;&gt;Node10</title>
<g id="a_edge65_Node000001_Node000010"><a xlink:title=" ">
<path fill="none" stroke="#63b8ff" d="M331.7,-351.82C531.02,-342.73 1040,-312.55 1040,-241.5 1040,-241.5 1040,-241.5 1040,-129.5 1040,-82.3 993.32,-44.05 963.75,-24.55"/>
<polygon fill="#63b8ff" stroke="#63b8ff" points="965.51,-21.52 955.19,-19.11 961.75,-27.43 965.51,-21.52"/>
</a>
</g>
</g>
<!-- Node3 -->
<g id="Node000003" class="node">
<title>Node3</title>
<g id="a_Node000003"><a xlink:title=" ">
<polygon fill="#e0e0e0" stroke="#999999" points="275.5,-250 204.5,-250 204.5,-231 275.5,-231 275.5,-250"/>
<text text-anchor="middle" x="240" y="-238" font-family="Helvetica,sans-Serif" font-size="10.00">petscmat.h</text>
</a>
</g>
</g>
<!-- Node2&#45;&gt;Node3 -->
<g id="edge2_Node000002_Node000003" class="edge">
<title>Node2&#45;&gt;Node3</title>
<g id="a_edge2_Node000002_Node000003"><a xlink:title=" ">
<path fill="none" stroke="#63b8ff" d="M431.37,-285.98C391.75,-276.77 328.51,-262.08 285.68,-252.12"/>
<polygon fill="#63b8ff" stroke="#63b8ff" points="286.32,-248.67 275.79,-249.82 284.74,-255.49 286.32,-248.67"/>
</a>
</g>
</g>
<!-- Node4 -->
<g id="Node000004" class="node">
<title>Node4</title>
<g id="a_Node000004"><a xlink:title=" ">
<polygon fill="#e0e0e0" stroke="#999999" points="338,-140 270,-140 270,-121 338,-121 338,-140"/>
<text text-anchor="middle" x="304" y="-128" font-family="Helvetica,sans-Serif" font-size="10.00">petscsys.h</text>
</a>
</g>
</g>
<!-- Node2&#45;&gt;Node4 -->
<g id="edge3_Node000002_Node000004" class="edge">
<title>Node2&#45;&gt;Node4</title>
<g id="a_edge3_Node000002_Node000004"><a xlink:title=" ">
<path fill="none" stroke="#63b8ff" d="M447.6,-286C416.11,-271.83 355.86,-240.38 323,-195 313.4,-181.75 308.61,-163.63 306.24,-150.13"/>
<polygon fill="#63b8ff" stroke="#63b8ff" points="309.68,-149.48 304.77,-140.1 302.75,-150.5 309.68,-149.48"/>
</a>
</g>
</g>
<!-- Node5 -->
<g id="Node000005" class="node">
<title>Node5</title>
<g id="a_Node000005"><a xlink:title=" ">
<polygon fill="#e0e0e0" stroke="#999999" points="1264.5,-19 1211.5,-19 1211.5,0 1264.5,0 1264.5,-19"/>
<text text-anchor="middle" x="1238" y="-7" font-family="Helvetica,sans-Serif" font-size="10.00">cstddef</text>
</a>
</g>
</g>
<!-- Node2&#45;&gt;Node5 -->
<g id="edge4_Node000002_Node000005" class="edge">
<title>Node2&#45;&gt;Node5</title>
<g id="a_edge4_Node000002_Node000005"><a xlink:title=" ">
<path fill="none" stroke="#63b8ff" d="M545.51,-292.35C749.92,-285.65 1288,-260.94 1288,-186.5 1288,-186.5 1288,-186.5 1288,-129.5 1288,-90.68 1265.1,-49.9 1250.3,-27.59"/>
<polygon fill="#63b8ff" stroke="#63b8ff" points="1253.09,-25.48 1244.54,-19.22 1247.32,-29.45 1253.09,-25.48"/>
</a>
</g>
</g>
<!-- Node6 -->
<g id="Node000006" class="node">
<title>Node6</title>
<g id="a_Node000006"><a xlink:title=" ">
<polygon fill="#e0e0e0" stroke="#999999" points="684,-19 624,-19 624,0 684,0 684,-19"/>
<text text-anchor="middle" x="654" y="-7" font-family="Helvetica,sans-Serif" font-size="10.00">iostream</text>
</a>
</g>
</g>
<!-- Node2&#45;&gt;Node6 -->
<g id="edge5_Node000002_Node000006" class="edge">
<title>Node2&#45;&gt;Node6</title>
<g id="a_edge5_Node000002_Node000006"><a xlink:title=" ">
<path fill="none" stroke="#63b8ff" d="M504.18,-285.93C546.39,-273.74 614.07,-246.89 643,-195 647.11,-187.62 646.18,-183.82 643,-176 634.61,-155.32 620.85,-158.24 608,-140 592.31,-117.74 587.16,-111.53 581,-85 577.98,-72.01 574.47,-66.63 581,-55 589.11,-40.56 604.01,-30.26 618.25,-23.22"/>
<polygon fill="#63b8ff" stroke="#63b8ff" points="619.77,-26.38 627.43,-19.06 616.88,-20 619.77,-26.38"/>
</a>
</g>
</g>
<!-- Node7 -->
<g id="Node000007" class="node">
<title>Node7</title>
<g id="a_Node000007"><a xlink:title=" ">
<polygon fill="#e0e0e0" stroke="#999999" points="200,-195 142,-195 142,-176 200,-176 200,-195"/>
<text text-anchor="middle" x="171" y="-183" font-family="Helvetica,sans-Serif" font-size="10.00">memory</text>
</a>
</g>
</g>
<!-- Node2&#45;&gt;Node7 -->
<g id="edge6_Node000002_Node000007" class="edge">
<title>Node2&#45;&gt;Node7</title>
<g id="a_edge6_Node000002_Node000007"><a xlink:title=" ">
<path fill="none" stroke="#63b8ff" d="M390.19,-290.39C320.25,-285.19 224.18,-273.86 195,-250 181.61,-239.05 175.69,-219.78 173.07,-205.34"/>
<polygon fill="#63b8ff" stroke="#63b8ff" points="176.47,-204.44 171.6,-195.03 169.54,-205.43 176.47,-204.44"/>
</a>
</g>
</g>
<!-- Node2&#45;&gt;Node8 -->
<g id="edge7_Node000002_Node000008" class="edge">
<title>Node2&#45;&gt;Node8</title>
<g id="a_edge7_Node000002_Node000008"><a xlink:title=" ">
<path fill="none" stroke="#63b8ff" d="M390.48,-288.88C317.17,-282.46 213.28,-270.14 178,-250 100.58,-205.81 142.41,-143.42 131,-55 129.88,-46.32 127.69,-36.88 125.56,-28.94"/>
<polygon fill="#63b8ff" stroke="#63b8ff" points="128.9,-27.91 122.79,-19.25 122.17,-29.83 128.9,-27.91"/>
</a>
</g>
</g>
<!-- Node2&#45;&gt;Node9 -->
<g id="edge8_Node000002_Node000009" class="edge">
<title>Node2&#45;&gt;Node9</title>
<g id="a_edge8_Node000002_Node000009"><a xlink:title=" ">
<path fill="none" stroke="#63b8ff" d="M390.2,-292.29C308.36,-288.48 186.48,-278.13 150,-250 78.04,-194.51 61.71,-75.65 58.05,-29.43"/>
<polygon fill="#63b8ff" stroke="#63b8ff" points="61.53,-29.07 57.36,-19.33 54.55,-29.54 61.53,-29.07"/>
</a>
</g>
</g>
<!-- Node2&#45;&gt;Node10 -->
<g id="edge9_Node000002_Node000010" class="edge">
<title>Node2&#45;&gt;Node10</title>
<g id="a_edge9_Node000002_Node000010"><a xlink:title=" ">
<path fill="none" stroke="#63b8ff" d="M545.77,-293.48C685.36,-289.53 964,-271.05 964,-186.5 964,-186.5 964,-186.5 964,-129.5 964,-93.28 953.18,-52.05 946.07,-28.87"/>
<polygon fill="#63b8ff" stroke="#63b8ff" points="949.31,-27.51 942.94,-19.04 942.64,-29.63 949.31,-27.51"/>
</a>
</g>
</g>
<!-- Node11 -->
<g id="Node000011" class="node">
<title>Node11</title>
<g id="a_Node000011"><a xlink:href="petsc__utils_8hpp.html" target="_top" xlink:title=" ">
<polygon fill="white" stroke="#666666" points="633.5,-195 496.5,-195 496.5,-176 633.5,-176 633.5,-195"/>
<text text-anchor="middle" x="565" y="-183" font-family="Helvetica,sans-Serif" font-size="10.00">vulpes/la/petsc_utils.hpp</text>
</a>
</g>
</g>
<!-- Node2&#45;&gt;Node11 -->
<g id="edge10_Node000002_Node000011" class="edge">
<title>Node2&#45;&gt;Node11</title>
<g id="a_edge10_Node000002_Node000011"><a xlink:title=" ">
<path fill="none" stroke="#63b8ff" d="M486.2,-285.92C500.93,-278.23 521.39,-265.74 535,-250 546.45,-236.75 554.5,-218.39 559.35,-204.81"/>
<polygon fill="#63b8ff" stroke="#63b8ff" points="562.73,-205.74 562.57,-195.14 556.09,-203.53 562.73,-205.74"/>
</a>
</g>
</g>
<!-- Node12 -->
<g id="Node000012" class="node">
<title>Node12</title>
<g id="a_Node000012"><a xlink:href="mpi__wrappers_8hpp.html" target="_top" xlink:title=" ">
<polygon fill="white" stroke="#666666" points="783,-140 617,-140 617,-121 783,-121 783,-140"/>
<text text-anchor="middle" x="700" y="-128" font-family="Helvetica,sans-Serif" font-size="10.00">vulpes/utils/mpi_wrappers.hpp</text>
</a>
</g>
</g>
<!-- Node2&#45;&gt;Node12 -->
<g id="edge62_Node000002_Node000012" class="edge">
<title>Node2&#45;&gt;Node12</title>
<g id="a_edge62_Node000002_Node000012"><a xlink:title=" ">
<path fill="none" stroke="#63b8ff" d="M545.67,-286.76C596.89,-280.05 657.76,-268.44 676,-250 702.36,-223.35 703.62,-176.22 701.98,-150.15"/>
<polygon fill="#63b8ff" stroke="#63b8ff" points="705.46,-149.76 701.12,-140.09 698.48,-150.35 705.46,-149.76"/>
</a>
</g>
</g>
<!-- Node27 -->
<g id="Node000027" class="node">
<title>Node27</title>
<g id="a_Node000027"><a xlink:href="vector_8hpp.html" target="_top" xlink:title=" ">
<polygon fill="white" stroke="#666666" points="525.5,-250 410.5,-250 410.5,-231 525.5,-231 525.5,-250"/>
<text text-anchor="middle" x="468" y="-238" font-family="Helvetica,sans-Serif" font-size="10.00">vulpes/la/vector.hpp</text>
</a>
</g>
</g>
<!-- Node2&#45;&gt;Node27 -->
<g id="edge39_Node000002_Node000027" class="edge">
<title>Node2&#45;&gt;Node27</title>
<g id="a_edge39_Node000002_Node000027"><a xlink:title=" ">
<path fill="none" stroke="#63b8ff" d="M468,-285.75C468,-278.8 468,-268.85 468,-260.13"/>
<polygon fill="#63b8ff" stroke="#63b8ff" points="471.5,-260.09 468,-250.09 464.5,-260.09 471.5,-260.09"/>
</a>
</g>
</g>
<!-- Node29 -->
<g id="Node000029" class="node">
<title>Node29</title>
<g id="a_Node000029"><a xlink:href="qrule_8hpp.html" target="_top" xlink:title=" ">
<polygon fill="white" stroke="#666666" points="1222,-140 1068,-140 1068,-121 1222,-121 1222,-140"/>
<text text-anchor="middle" x="1145" y="-128" font-family="Helvetica,sans-Serif" font-size="10.00">vulpes/quadrature/qrule.hpp</text>
</a>
</g>
</g>
<!-- Node2&#45;&gt;Node29 -->
<g id="edge51_Node000002_Node000029" class="edge">
<title>Node2&#45;&gt;Node29</title>
<g id="a_edge51_Node000002_Node000029"><a xlink:title=" ">
<path fill="none" stroke="#63b8ff" d="M545.62,-292.69C668.23,-288.99 900.73,-278.39 978,-250 1040.87,-226.9 1101.65,-173.62 1129.37,-147.09"/>
<polygon fill="#63b8ff" stroke="#63b8ff" points="1131.85,-149.56 1136.58,-140.07 1126.97,-144.54 1131.85,-149.56"/>
</a>
</g>
</g>
<!-- Node11&#45;&gt;Node4 -->
<g id="edge11_Node000011_Node000004" class="edge">
<title>Node11&#45;&gt;Node4</title>
<g id="a_edge11_Node000011_Node000004"><a xlink:title=" ">
<path fill="none" stroke="#63b8ff" d="M523.07,-175.98C475.17,-166.26 397.15,-150.42 348.29,-140.49"/>
<polygon fill="#63b8ff" stroke="#63b8ff" points="348.83,-137.03 338.33,-138.47 347.43,-143.89 348.83,-137.03"/>
</a>
</g>
</g>
<!-- Node11&#45;&gt;Node8 -->
<g id="edge12_Node000011_Node000008" class="edge">
<title>Node11&#45;&gt;Node8</title>
<g id="a_edge12_Node000011_Node000008"><a xlink:title=" ">
<path fill="none" stroke="#63b8ff" d="M534.83,-175.93C484.38,-161.02 380.41,-127.75 299,-85 278.37,-74.17 276.85,-65.4 256,-55 237.62,-45.83 186.22,-29.93 152.14,-19.83"/>
<polygon fill="#63b8ff" stroke="#63b8ff" points="152.76,-16.36 142.18,-16.9 150.78,-23.08 152.76,-16.36"/>
</a>
</g>
</g>
<!-- Node11&#45;&gt;Node12 -->
<g id="edge13_Node000011_Node000012" class="edge">
<title>Node11&#45;&gt;Node12</title>
<g id="a_edge13_Node000011_Node000012"><a xlink:title=" ">
<path fill="none" stroke="#63b8ff" d="M586.69,-175.98C608.8,-167.3 643.32,-153.75 668.45,-143.88"/>
<polygon fill="#63b8ff" stroke="#63b8ff" points="669.89,-147.08 677.92,-140.17 667.33,-140.57 669.89,-147.08"/>
</a>
</g>
</g>
<!-- Node12&#45;&gt;Node6 -->
<g id="edge17_Node000012_Node000006" class="edge">
<title>Node12&#45;&gt;Node6</title>
<g id="a_edge17_Node000012_Node000006"><a xlink:title=" ">
<path fill="none" stroke="#63b8ff" d="M646.88,-120.97C625.83,-114.7 603.65,-103.83 591,-85 583.56,-73.93 584.87,-66.84 591,-55 598.04,-41.41 611.34,-31.09 623.92,-23.82"/>
<polygon fill="#63b8ff" stroke="#63b8ff" points="625.67,-26.86 632.85,-19.07 622.38,-20.68 625.67,-26.86"/>
</a>
</g>
</g>
<!-- Node12&#45;&gt;Node10 -->
<g id="edge18_Node000012_Node000010" class="edge">
<title>Node12&#45;&gt;Node10</title>
<g id="a_edge18_Node000012_Node000010"><a xlink:title=" ">
<path fill="none" stroke="#63b8ff" d="M765.46,-120.92C798.23,-114.54 837.52,-103.59 869,-85 893.79,-70.36 915.51,-44.63 928.19,-27.57"/>
<polygon fill="#63b8ff" stroke="#63b8ff" points="931.28,-29.28 934.28,-19.11 925.6,-25.19 931.28,-29.28"/>
</a>
</g>
</g>
<!-- Node13 -->
<g id="Node000013" class="node">
<title>Node13</title>
<g id="a_Node000013"><a xlink:title=" ">
<polygon fill="#e0e0e0" stroke="#999999" points="724,-79.5 680,-79.5 680,-60.5 724,-60.5 724,-79.5"/>
<text text-anchor="middle" x="702" y="-67.5" font-family="Helvetica,sans-Serif" font-size="10.00">mpi.h</text>
</a>
</g>
</g>
<!-- Node12&#45;&gt;Node13 -->
<g id="edge14_Node000012_Node000013" class="edge">
<title>Node12&#45;&gt;Node13</title>
<g id="a_edge14_Node000012_Node000013"><a xlink:title=" ">
<path fill="none" stroke="#63b8ff" d="M700.3,-120.87C700.57,-112.75 701,-100.31 701.35,-89.89"/>
<polygon fill="#63b8ff" stroke="#63b8ff" points="704.86,-89.78 701.7,-79.67 697.86,-89.54 704.86,-89.78"/>
</a>
</g>
</g>
<!-- Node14 -->
<g id="Node000014" class="node">
<title>Node14</title>
<g id="a_Node000014"><a xlink:title=" ">
<polygon fill="#e0e0e0" stroke="#999999" points="662,-79.5 610,-79.5 610,-60.5 662,-60.5 662,-79.5"/>
<text text-anchor="middle" x="636" y="-67.5" font-family="Helvetica,sans-Serif" font-size="10.00">petsc.h</text>
</a>
</g>
</g>
<!-- Node12&#45;&gt;Node14 -->
<g id="edge15_Node000012_Node000014" class="edge">
<title>Node12&#45;&gt;Node14</title>
<g id="a_edge15_Node000012_Node000014"><a xlink:title=" ">
<path fill="none" stroke="#63b8ff" d="M690.56,-120.87C680.73,-111.88 665.11,-97.61 653.11,-86.64"/>
<polygon fill="#63b8ff" stroke="#63b8ff" points="655.22,-83.83 645.48,-79.67 650.5,-89 655.22,-83.83"/>
</a>
</g>
</g>
<!-- Node15 -->
<g id="Node000015" class="node">
<title>Node15</title>
<g id="a_Node000015"><a xlink:title=" ">
<polygon fill="#e0e0e0" stroke="#999999" points="754,-19 702,-19 702,0 754,0 754,-19"/>
<text text-anchor="middle" x="728" y="-7" font-family="Helvetica,sans-Serif" font-size="10.00">cassert</text>
</a>
</g>
</g>
<!-- Node12&#45;&gt;Node15 -->
<g id="edge16_Node000012_Node000015" class="edge">
<title>Node12&#45;&gt;Node15</title>
<g id="a_edge16_Node000012_Node000015"><a xlink:title=" ">
<path fill="none" stroke="#63b8ff" d="M655.24,-120.92C635.05,-114.58 613.08,-103.67 601,-85 593.76,-73.8 593.29,-65.88 601,-55 606.51,-47.23 656.59,-31.29 692.18,-20.75"/>
<polygon fill="#63b8ff" stroke="#63b8ff" points="693.18,-24.1 701.79,-17.93 691.21,-17.38 693.18,-24.1"/>
</a>
</g>
</g>
<!-- Node16 -->
<g id="Node000016" class="node">
<title>Node16</title>
<g id="a_Node000016"><a xlink:title=" ">
<polygon fill="#e0e0e0" stroke="#999999" points="1154.5,-19 1077.5,-19 1077.5,0 1154.5,0 1154.5,-19"/>
<text text-anchor="middle" x="1116" y="-7" font-family="Helvetica,sans-Serif" font-size="10.00">Eigen/Dense</text>
</a>
</g>
</g>
<!-- Node12&#45;&gt;Node16 -->
<g id="edge19_Node000012_Node000016" class="edge">
<title>Node12&#45;&gt;Node16</title>
<g id="a_edge19_Node000012_Node000016"><a xlink:title=" ">
<path fill="none" stroke="#63b8ff" d="M745.24,-120.96C786.02,-112.89 847.46,-99.85 900,-85 966.61,-66.17 1042.78,-38.39 1084.52,-22.62"/>
<polygon fill="#63b8ff" stroke="#63b8ff" points="1085.77,-25.89 1093.88,-19.06 1083.28,-19.34 1085.77,-25.89"/>
</a>
</g>
</g>
<!-- Node17 -->
<g id="Node000017" class="node">
<title>Node17</title>
<g id="a_Node000017"><a xlink:href="crs__map_8hpp.html" target="_top" xlink:title=" ">
<polygon fill="white" stroke="#666666" points="859.5,-85 742.5,-85 742.5,-55 859.5,-55 859.5,-85"/>
<text text-anchor="start" x="750.5" y="-73" font-family="Helvetica,sans-Serif" font-size="10.00">vulpes/datastructure</text>
<text text-anchor="middle" x="801" y="-62" font-family="Helvetica,sans-Serif" font-size="10.00">/crs_map.hpp</text>
</a>
</g>
</g>
<!-- Node12&#45;&gt;Node17 -->
<g id="edge20_Node000012_Node000017" class="edge">
<title>Node12&#45;&gt;Node17</title>
<g id="a_edge20_Node000012_Node000017"><a xlink:title=" ">
<path fill="none" stroke="#63b8ff" d="M714.9,-120.87C728.73,-112.86 749.81,-100.65 767.65,-90.31"/>
<polygon fill="#63b8ff" stroke="#63b8ff" points="769.73,-93.16 776.63,-85.11 766.22,-87.1 769.73,-93.16"/>
</a>
</g>
</g>
<!-- Node22 -->
<g id="Node000022" class="node">
<title>Node22</title>
<g id="a_Node000022"><a xlink:href="profiler_8hpp.html" target="_top" xlink:title=" ">
<polygon fill="white" stroke="#666666" points="439.5,-79.5 308.5,-79.5 308.5,-60.5 439.5,-60.5 439.5,-79.5"/>
<text text-anchor="middle" x="374" y="-67.5" font-family="Helvetica,sans-Serif" font-size="10.00">vulpes/utils/profiler.hpp</text>
</a>
</g>
</g>
<!-- Node12&#45;&gt;Node22 -->
<g id="edge28_Node000012_Node000022" class="edge">
<title>Node12&#45;&gt;Node22</title>
<g id="a_edge28_Node000012_Node000022"><a xlink:title=" ">
<path fill="none" stroke="#63b8ff" d="M652.6,-120.99C594.05,-110.49 494.51,-92.62 431.61,-81.34"/>
<polygon fill="#63b8ff" stroke="#63b8ff" points="431.92,-77.84 421.46,-79.52 430.68,-84.73 431.92,-77.84"/>
</a>
</g>
</g>
<!-- Node17&#45;&gt;Node9 -->
<g id="edge25_Node000017_Node000009" class="edge">
<title>Node17&#45;&gt;Node9</title>
<g id="a_edge25_Node000017_Node000009"><a xlink:title=" ">
<path fill="none" stroke="#63b8ff" d="M742.49,-56.38C739.29,-55.87 736.11,-55.4 733,-55 452.06,-18.43 373.93,-62.96 89.8,-18.73"/>
<polygon fill="#63b8ff" stroke="#63b8ff" points="90.03,-15.22 79.6,-17.11 88.93,-22.13 90.03,-15.22"/>
</a>
</g>
</g>
<!-- Node17&#45;&gt;Node10 -->
<g id="edge27_Node000017_Node000010" class="edge">
<title>Node17&#45;&gt;Node10</title>
<g id="a_edge27_Node000017_Node000010"><a xlink:title=" ">
<path fill="none" stroke="#63b8ff" d="M834.29,-54.99C857.38,-45.27 887.87,-32.44 910.16,-23.06"/>
<polygon fill="#63b8ff" stroke="#63b8ff" points="911.61,-26.24 919.47,-19.14 908.9,-19.79 911.61,-26.24"/>
</a>
</g>
</g>
<!-- Node17&#45;&gt;Node15 -->
<g id="edge23_Node000017_Node000015" class="edge">
<title>Node17&#45;&gt;Node15</title>
<g id="a_edge23_Node000017_Node000015"><a xlink:title=" ">
<path fill="none" stroke="#63b8ff" d="M783.33,-54.84C772.3,-46 758.11,-34.63 746.87,-25.62"/>
<polygon fill="#63b8ff" stroke="#63b8ff" points="748.93,-22.79 738.94,-19.27 744.55,-28.25 748.93,-22.79"/>
</a>
</g>
</g>
<!-- Node18 -->
<g id="Node000018" class="node">
<title>Node18</title>
<g id="a_Node000018"><a xlink:title=" ">
<polygon fill="#e0e0e0" stroke="#999999" points="606,-19 542,-19 542,0 606,0 606,-19"/>
<text text-anchor="middle" x="574" y="-7" font-family="Helvetica,sans-Serif" font-size="10.00">algorithm</text>
</a>
</g>
</g>
<!-- Node17&#45;&gt;Node18 -->
<g id="edge21_Node000017_Node000018" class="edge">
<title>Node17&#45;&gt;Node18</title>
<g id="a_edge21_Node000017_Node000018"><a xlink:title=" ">
<path fill="none" stroke="#63b8ff" d="M746.63,-54.99C706.58,-44.67 652.92,-30.84 616.11,-21.35"/>
<polygon fill="#63b8ff" stroke="#63b8ff" points="616.76,-17.91 606.2,-18.8 615.01,-24.68 616.76,-17.91"/>
</a>
</g>
</g>
<!-- Node19 -->
<g id="Node000019" class="node">
<title>Node19</title>
<g id="a_Node000019"><a xlink:title=" ">
<polygon fill="#e0e0e0" stroke="#999999" points="1042,-19 1000,-19 1000,0 1042,0 1042,-19"/>
<text text-anchor="middle" x="1021" y="-7" font-family="Helvetica,sans-Serif" font-size="10.00">array</text>
</a>
</g>
</g>
<!-- Node17&#45;&gt;Node19 -->
<g id="edge22_Node000017_Node000019" class="edge">
<title>Node17&#45;&gt;Node19</title>
<g id="a_edge22_Node000017_Node000019"><a xlink:title=" ">
<path fill="none" stroke="#63b8ff" d="M853.7,-54.99C896.27,-43.67 954.74,-28.12 990.09,-18.72"/>
<polygon fill="#63b8ff" stroke="#63b8ff" points="991.08,-22.08 999.84,-16.13 989.28,-15.31 991.08,-22.08"/>
</a>
</g>
</g>
<!-- Node20 -->
<g id="Node000020" class="node">
<title>Node20</title>
<g id="a_Node000020"><a xlink:title=" ">
<polygon fill="#e0e0e0" stroke="#999999" points="829.5,-19 772.5,-19 772.5,0 829.5,0 829.5,-19"/>
<text text-anchor="middle" x="801" y="-7" font-family="Helvetica,sans-Serif" font-size="10.00">ostream</text>
</a>
</g>
</g>
<!-- Node17&#45;&gt;Node20 -->
<g id="edge24_Node000017_Node000020" class="edge">
<title>Node17&#45;&gt;Node20</title>
<g id="a_edge24_Node000017_Node000020"><a xlink:title=" ">
<path fill="none" stroke="#63b8ff" d="M801,-54.84C801,-47.21 801,-37.7 801,-29.45"/>
<polygon fill="#63b8ff" stroke="#63b8ff" points="804.5,-29.27 801,-19.27 797.5,-29.27 804.5,-29.27"/>
</a>
</g>
</g>
<!-- Node21 -->
<g id="Node000021" class="node">
<title>Node21</title>
<g id="a_Node000021"><a xlink:title=" ">
<polygon fill="#e0e0e0" stroke="#999999" points="898.5,-19 847.5,-19 847.5,0 898.5,0 898.5,-19"/>
<text text-anchor="middle" x="873" y="-7" font-family="Helvetica,sans-Serif" font-size="10.00">variant</text>
</a>
</g>
</g>
<!-- Node17&#45;&gt;Node21 -->
<g id="edge26_Node000017_Node000021" class="edge">
<title>Node17&#45;&gt;Node21</title>
<g id="a_edge26_Node000017_Node000021"><a xlink:title=" ">
<path fill="none" stroke="#63b8ff" d="M818.43,-54.84C829.31,-46 843.3,-34.63 854.39,-25.62"/>
<polygon fill="#63b8ff" stroke="#63b8ff" points="856.66,-28.29 862.21,-19.27 852.24,-22.86 856.66,-28.29"/>
</a>
</g>
</g>
<!-- Node22&#45;&gt;Node5 -->
<g id="edge31_Node000022_Node000005" class="edge">
<title>Node22&#45;&gt;Node5</title>
<g id="a_edge31_Node000022_Node000005"><a xlink:title=" ">
<path fill="none" stroke="#63b8ff" d="M439.5,-64.95C622.51,-53.61 1128.17,-22.19 1164,-19 1176.15,-17.92 1189.4,-16.48 1201.29,-15.09"/>
<polygon fill="#63b8ff" stroke="#63b8ff" points="1201.8,-18.56 1211.32,-13.9 1200.97,-11.61 1201.8,-18.56"/>
</a>
</g>
</g>
<!-- Node22&#45;&gt;Node6 -->
<g id="edge33_Node000022_Node000006" class="edge">
<title>Node22&#45;&gt;Node6</title>
<g id="a_edge33_Node000022_Node000006"><a xlink:title=" ">
<path fill="none" stroke="#63b8ff" d="M415.82,-60.46C461.84,-51.02 538.28,-35.27 613.63,-19.28"/>
<polygon fill="#63b8ff" stroke="#63b8ff" points="614.72,-22.62 623.77,-17.12 613.26,-15.78 614.72,-22.62"/>
</a>
</g>
</g>
<!-- Node22&#45;&gt;Node8 -->
<g id="edge34_Node000022_Node000008" class="edge">
<title>Node22&#45;&gt;Node8</title>
<g id="a_edge34_Node000022_Node000008"><a xlink:title=" ">
<path fill="none" stroke="#63b8ff" d="M333.17,-60.45C290.36,-51.35 220.92,-36.21 152.03,-19.17"/>
<polygon fill="#63b8ff" stroke="#63b8ff" points="152.87,-15.77 142.32,-16.75 151.18,-22.56 152.87,-15.77"/>
</a>
</g>
</g>
<!-- Node22&#45;&gt;Node9 -->
<g id="edge36_Node000022_Node000009" class="edge">
<title>Node22&#45;&gt;Node9</title>
<g id="a_edge36_Node000022_Node000009"><a xlink:title=" ">
<path fill="none" stroke="#63b8ff" d="M316.94,-60.47C261.34,-51.82 174.26,-37.4 89.46,-18.93"/>
<polygon fill="#63b8ff" stroke="#63b8ff" points="90.19,-15.51 79.67,-16.78 88.68,-22.34 90.19,-15.51"/>
</a>
</g>
</g>
<!-- Node22&#45;&gt;Node10 -->
<g id="edge37_Node000022_Node000010" class="edge">
<title>Node22&#45;&gt;Node10</title>
<g id="a_edge37_Node000022_Node000010"><a xlink:title=" ">
<path fill="none" stroke="#63b8ff" d="M439.51,-64.24C557.56,-55.43 802.67,-36.1 906.18,-19.01"/>
<polygon fill="#63b8ff" stroke="#63b8ff" points="907.07,-22.41 916.33,-17.26 905.88,-15.51 907.07,-22.41"/>
</a>
</g>
</g>
<!-- Node22&#45;&gt;Node18 -->
<g id="edge29_Node000022_Node000018" class="edge">
<title>Node22&#45;&gt;Node18</title>
<g id="a_edge29_Node000022_Node000018"><a xlink:title=" ">
<path fill="none" stroke="#63b8ff" d="M403.08,-60.49C437.89,-50.31 496.32,-33.22 535.01,-21.9"/>
<polygon fill="#63b8ff" stroke="#63b8ff" points="536.27,-25.18 544.88,-19.02 534.3,-18.46 536.27,-25.18"/>
</a>
</g>
</g>
<!-- Node23 -->
<g id="Node000023" class="node">
<title>Node23</title>
<g id="a_Node000023"><a xlink:title=" ">
<polygon fill="#e0e0e0" stroke="#999999" points="210,-19 160,-19 160,0 210,0 210,-19"/>
<text text-anchor="middle" x="185" y="-7" font-family="Helvetica,sans-Serif" font-size="10.00">chrono</text>
</a>
</g>
</g>
<!-- Node22&#45;&gt;Node23 -->
<g id="edge30_Node000022_Node000023" class="edge">
<title>Node22&#45;&gt;Node23</title>
<g id="a_edge30_Node000022_Node000023"><a xlink:title=" ">
<path fill="none" stroke="#63b8ff" d="M346.52,-60.49C313.02,-50.12 256.36,-32.59 219.83,-21.28"/>
<polygon fill="#63b8ff" stroke="#63b8ff" points="220.69,-17.88 210.1,-18.27 218.62,-24.57 220.69,-17.88"/>
</a>
</g>
</g>
<!-- Node24 -->
<g id="Node000024" class="node">
<title>Node24</title>
<g id="a_Node000024"><a xlink:title=" ">
<polygon fill="#e0e0e0" stroke="#999999" points="284,-19 228,-19 228,0 284,0 284,-19"/>
<text text-anchor="middle" x="256" y="-7" font-family="Helvetica,sans-Serif" font-size="10.00">iomanip</text>
</a>
</g>
</g>
<!-- Node22&#45;&gt;Node24 -->
<g id="edge32_Node000022_Node000024" class="edge">
<title>Node22&#45;&gt;Node24</title>
<g id="a_edge32_Node000022_Node000024"><a xlink:title=" ">
<path fill="none" stroke="#63b8ff" d="M356.84,-60.49C337.27,-50.79 305.03,-34.81 282.28,-23.53"/>
<polygon fill="#63b8ff" stroke="#63b8ff" points="283.69,-20.32 273.18,-19.02 280.58,-26.59 283.69,-20.32"/>
</a>
</g>
</g>
<!-- Node25 -->
<g id="Node000025" class="node">
<title>Node25</title>
<g id="a_Node000025"><a xlink:title=" ">
<polygon fill="#e0e0e0" stroke="#999999" points="395.5,-19 302.5,-19 302.5,0 395.5,0 395.5,-19"/>
<text text-anchor="middle" x="349" y="-7" font-family="Helvetica,sans-Serif" font-size="10.00">unordered_map</text>
</a>
</g>
</g>
<!-- Node22&#45;&gt;Node25 -->
<g id="edge35_Node000022_Node000025" class="edge">
<title>Node22&#45;&gt;Node25</title>
<g id="a_edge35_Node000022_Node000025"><a xlink:title=" ">
<path fill="none" stroke="#63b8ff" d="M370.31,-60.37C366.73,-51.99 361.18,-39.01 356.65,-28.39"/>
<polygon fill="#63b8ff" stroke="#63b8ff" points="359.85,-26.99 352.7,-19.17 353.42,-29.74 359.85,-26.99"/>
</a>
</g>
</g>
<!-- Node26 -->
<g id="Node000026" class="node">
<title>Node26</title>
<g id="a_Node000026"><a xlink:title=" ">
<polygon fill="#e0e0e0" stroke="#999999" points="524,-19 414,-19 414,0 524,0 524,-19"/>
<text text-anchor="middle" x="469" y="-7" font-family="Helvetica,sans-Serif" font-size="10.00">nlohmann/json.hpp</text>
</a>
</g>
</g>
<!-- Node22&#45;&gt;Node26 -->
<g id="edge38_Node000022_Node000026" class="edge">
<title>Node22&#45;&gt;Node26</title>
<g id="a_edge38_Node000022_Node000026"><a xlink:title=" ">
<path fill="none" stroke="#63b8ff" d="M388.02,-60.37C403.31,-50.95 428.03,-35.73 446.14,-24.58"/>
<polygon fill="#63b8ff" stroke="#63b8ff" points="448.25,-27.39 454.92,-19.17 444.57,-21.43 448.25,-27.39"/>
</a>
</g>
</g>
<!-- Node27&#45;&gt;Node4 -->
<g id="edge40_Node000027_Node000004" class="edge">
<title>Node27&#45;&gt;Node4</title>
<g id="a_edge40_Node000027_Node000004"><a xlink:title=" ">
<path fill="none" stroke="#63b8ff" d="M461.83,-230.57C452.16,-217.15 432.21,-191.66 410,-176 389.72,-161.7 364.14,-150.8 343.19,-143.36"/>
<polygon fill="#63b8ff" stroke="#63b8ff" points="344.22,-140.02 333.63,-140.09 341.95,-146.64 344.22,-140.02"/>
</a>
</g>
</g>
<!-- Node27&#45;&gt;Node5 -->
<g id="edge43_Node000027_Node000005" class="edge">
<title>Node27&#45;&gt;Node5</title>
<g id="a_edge43_Node000027_Node000005"><a xlink:title=" ">
<path fill="none" stroke="#63b8ff" d="M525.7,-236.17C695.25,-225.8 1183.06,-191.71 1231,-140 1258.97,-109.83 1250.58,-56.74 1243.48,-28.83"/>
<polygon fill="#63b8ff" stroke="#63b8ff" points="1246.85,-27.87 1240.81,-19.16 1240.1,-29.73 1246.85,-27.87"/>
</a>
</g>
</g>
<!-- Node27&#45;&gt;Node7 -->
<g id="edge44_Node000027_Node000007" class="edge">
<title>Node27&#45;&gt;Node7</title>
<g id="a_edge44_Node000027_Node000007"><a xlink:title=" ">
<path fill="none" stroke="#63b8ff" d="M417.34,-230.96C366.03,-222.23 284.42,-208.13 214,-195 212.74,-194.76 211.45,-194.52 210.16,-194.28"/>
<polygon fill="#63b8ff" stroke="#63b8ff" points="210.61,-190.8 200.13,-192.35 209.29,-197.67 210.61,-190.8"/>
</a>
</g>
</g>
<!-- Node27&#45;&gt;Node8 -->
<g id="edge45_Node000027_Node000008" class="edge">
<title>Node27&#45;&gt;Node8</title>
<g id="a_edge45_Node000027_Node000008"><a xlink:title=" ">
<path fill="none" stroke="#63b8ff" d="M423.2,-230.97C393.48,-224.08 354.34,-212.6 323,-195 310.65,-188.06 188.48,-72.85 169,-55 158.38,-45.27 146.42,-34.41 136.97,-25.85"/>
<polygon fill="#63b8ff" stroke="#63b8ff" points="139.18,-23.12 129.42,-19.01 134.48,-28.31 139.18,-23.12"/>
</a>
</g>
</g>
<!-- Node27&#45;&gt;Node9 -->
<g id="edge46_Node000027_Node000009" class="edge">
<title>Node27&#45;&gt;Node9</title>
<g id="a_edge46_Node000027_Node000009"><a xlink:title=" ">
<path fill="none" stroke="#63b8ff" d="M412.89,-230.97C378.37,-224.24 333.65,-212.93 297,-195 202.64,-148.84 109.32,-62.28 72.94,-26.56"/>
<polygon fill="#63b8ff" stroke="#63b8ff" points="75.25,-23.92 65.69,-19.36 70.32,-28.89 75.25,-23.92"/>
</a>
</g>
</g>
<!-- Node27&#45;&gt;Node10 -->
<g id="edge47_Node000027_Node000010" class="edge">
<title>Node27&#45;&gt;Node10</title>
<g id="a_edge47_Node000027_Node000010"><a xlink:title=" ">
<path fill="none" stroke="#63b8ff" d="M525.69,-234.13C616.94,-222.66 794.96,-187.78 900,-85 916.18,-69.17 927.38,-45.37 933.73,-28.96"/>
<polygon fill="#63b8ff" stroke="#63b8ff" points="937.08,-29.99 937.21,-19.39 930.5,-27.59 937.08,-29.99"/>
</a>
</g>
</g>
<!-- Node27&#45;&gt;Node11 -->
<g id="edge49_Node000027_Node000011" class="edge">
<title>Node27&#45;&gt;Node11</title>
<g id="a_edge49_Node000027_Node000011"><a xlink:title=" ">
<path fill="none" stroke="#63b8ff" d="M483.58,-230.98C498.77,-222.69 522.1,-209.94 539.9,-200.22"/>
<polygon fill="#63b8ff" stroke="#63b8ff" points="542.03,-203.04 549.13,-195.17 538.68,-196.89 542.03,-203.04"/>
</a>
</g>
</g>
<!-- Node27&#45;&gt;Node12 -->
<g id="edge50_Node000027_Node000012" class="edge">
<title>Node27&#45;&gt;Node12</title>
<g id="a_edge50_Node000027_Node000012"><a xlink:title=" ">
<path fill="none" stroke="#63b8ff" d="M525.67,-233.5C561.49,-227.75 607.33,-216.58 643,-195 662.13,-183.42 678.52,-163.42 688.75,-148.96"/>
<polygon fill="#63b8ff" stroke="#63b8ff" points="691.83,-150.64 694.54,-140.39 686.04,-146.71 691.83,-150.64"/>
</a>
</g>
</g>
<!-- Node27&#45;&gt;Node16 -->
<g id="edge48_Node000027_Node000016" class="edge">
<title>Node27&#45;&gt;Node16</title>
<g id="a_edge48_Node000027_Node000016"><a xlink:title=" ">
<path fill="none" stroke="#63b8ff" d="M525.62,-235.41C582.68,-230.17 672,-218.76 746,-195 885.55,-150.2 1037.87,-59.49 1093.82,-24.61"/>
<polygon fill="#63b8ff" stroke="#63b8ff" points="1095.93,-27.42 1102.54,-19.13 1092.21,-21.49 1095.93,-27.42"/>
</a>
</g>
</g>
<!-- Node27&#45;&gt;Node18 -->
<g id="edge42_Node000027_Node000018" class="edge">
<title>Node27&#45;&gt;Node18</title>
<g id="a_edge42_Node000027_Node000018"><a xlink:title=" ">
<path fill="none" stroke="#63b8ff" d="M466.57,-230.83C462.39,-202.63 452.89,-111.99 492,-55 502.09,-40.29 518.68,-30 534.31,-23.05"/>
<polygon fill="#63b8ff" stroke="#63b8ff" points="535.92,-26.17 543.84,-19.15 533.26,-19.7 535.92,-26.17"/>
</a>
</g>
</g>
<!-- Node28 -->
<g id="Node000028" class="node">
<title>Node28</title>
<g id="a_Node000028"><a xlink:title=" ">
<polygon fill="#e0e0e0" stroke="#999999" points="401.5,-195 332.5,-195 332.5,-176 401.5,-176 401.5,-195"/>
<text text-anchor="middle" x="367" y="-183" font-family="Helvetica,sans-Serif" font-size="10.00">petscvec.h</text>
</a>
</g>
</g>
<!-- Node27&#45;&gt;Node28 -->
<g id="edge41_Node000027_Node000028" class="edge">
<title>Node27&#45;&gt;Node28</title>
<g id="a_edge41_Node000027_Node000028"><a xlink:title=" ">
<path fill="none" stroke="#63b8ff" d="M451.77,-230.98C435.82,-222.61 411.22,-209.7 392.62,-199.95"/>
<polygon fill="#63b8ff" stroke="#63b8ff" points="394,-196.72 383.52,-195.17 390.75,-202.92 394,-196.72"/>
</a>
</g>
</g>
<!-- Node29&#45;&gt;Node5 -->
<g id="edge53_Node000029_Node000005" class="edge">
<title>Node29&#45;&gt;Node5</title>
<g id="a_edge53_Node000029_Node000005"><a xlink:title=" ">
<path fill="none" stroke="#63b8ff" d="M1151.69,-120.94C1166.96,-101.4 1204.64,-53.18 1224.79,-27.4"/>
<polygon fill="#63b8ff" stroke="#63b8ff" points="1227.72,-29.34 1231.12,-19.3 1222.21,-25.03 1227.72,-29.34"/>
</a>
</g>
</g>
<!-- Node29&#45;&gt;Node10 -->
<g id="edge54_Node000029_Node000010" class="edge">
<title>Node29&#45;&gt;Node10</title>
<g id="a_edge54_Node000029_Node000010"><a xlink:title=" ">
<path fill="none" stroke="#63b8ff" d="M1134.78,-120.83C1112.89,-102.3 1062.77,-60.13 1054,-55 1028.44,-40.05 996.92,-28.19 973.51,-20.49"/>
<polygon fill="#63b8ff" stroke="#63b8ff" points="974.28,-17.06 963.69,-17.34 972.15,-23.73 974.28,-17.06"/>
</a>
</g>
</g>
<!-- Node29&#45;&gt;Node19 -->
<g id="edge52_Node000029_Node000019" class="edge">
<title>Node29&#45;&gt;Node19</title>
<g id="a_edge52_Node000029_Node000019"><a xlink:title=" ">
<path fill="none" stroke="#63b8ff" d="M1140.36,-120.86C1132.12,-106.06 1113.71,-75.48 1092,-55 1078.93,-42.67 1061.95,-31.88 1047.87,-24.02"/>
<polygon fill="#63b8ff" stroke="#63b8ff" points="1049.13,-20.72 1038.67,-19.05 1045.81,-26.88 1049.13,-20.72"/>
</a>
</g>
</g>
<!-- Node30 -->
<g id="Node000030" class="node">
<title>Node30</title>
<g id="a_Node000030"><a xlink:href="vmath_8hpp.html" target="_top" xlink:title=" ">
<polygon fill="white" stroke="#666666" points="1444,-79.5 1316,-79.5 1316,-60.5 1444,-60.5 1444,-79.5"/>
<text text-anchor="middle" x="1380" y="-67.5" font-family="Helvetica,sans-Serif" font-size="10.00">vulpes/utils/vmath.hpp</text>
</a>
</g>
</g>
<!-- Node29&#45;&gt;Node30 -->
<g id="edge55_Node000029_Node000030" class="edge">
<title>Node29&#45;&gt;Node30</title>
<g id="a_edge55_Node000029_Node000030"><a xlink:title=" ">
<path fill="none" stroke="#63b8ff" d="M1179.17,-120.99C1220.59,-110.68 1290.48,-93.28 1335.92,-81.97"/>
<polygon fill="#63b8ff" stroke="#63b8ff" points="1336.93,-85.33 1345.79,-79.52 1335.24,-78.54 1336.93,-85.33"/>
</a>
</g>
</g>
<!-- Node30&#45;&gt;Node5 -->
<g id="edge57_Node000030_Node000005" class="edge">
<title>Node30&#45;&gt;Node5</title>
<g id="a_edge57_Node000030_Node000005"><a xlink:title=" ">
<path fill="none" stroke="#63b8ff" d="M1359.35,-60.49C1335.37,-50.62 1295.61,-34.23 1268.17,-22.93"/>
<polygon fill="#63b8ff" stroke="#63b8ff" points="1269.25,-19.59 1258.67,-19.02 1266.59,-26.06 1269.25,-19.59"/>
</a>
</g>
</g>
<!-- Node30&#45;&gt;Node16 -->
<g id="edge61_Node000030_Node000016" class="edge">
<title>Node30&#45;&gt;Node16</title>
<g id="a_edge61_Node000030_Node000016"><a xlink:title=" ">
<path fill="none" stroke="#63b8ff" d="M1341.61,-60.49C1294.69,-50.1 1215.25,-32.49 1164.24,-21.19"/>
<polygon fill="#63b8ff" stroke="#63b8ff" points="1164.95,-17.76 1154.43,-19.02 1163.44,-24.6 1164.95,-17.76"/>
</a>
</g>
</g>
<!-- Node31 -->
<g id="Node000031" class="node">
<title>Node31</title>
<g id="a_Node000031"><a xlink:title=" ">
<polygon fill="#e0e0e0" stroke="#999999" points="1491.5,-19 1432.5,-19 1432.5,0 1491.5,0 1491.5,-19"/>
<text text-anchor="middle" x="1462" y="-7" font-family="Helvetica,sans-Serif" font-size="10.00">gmpxx.h</text>
</a>
</g>
</g>
<!-- Node30&#45;&gt;Node31 -->
<g id="edge56_Node000030_Node000031" class="edge">
<title>Node30&#45;&gt;Node31</title>
<g id="a_edge56_Node000030_Node000031"><a xlink:title=" ">
<path fill="none" stroke="#63b8ff" d="M1392.1,-60.37C1405.06,-51.12 1425.86,-36.28 1441.4,-25.19"/>
<polygon fill="#63b8ff" stroke="#63b8ff" points="1443.74,-27.82 1449.85,-19.17 1439.68,-22.13 1443.74,-27.82"/>
</a>
</g>
</g>
<!-- Node32 -->
<g id="Node000032" class="node">
<title>Node32</title>
<g id="a_Node000032"><a xlink:title=" ">
<polygon fill="#e0e0e0" stroke="#999999" points="1560,-19 1510,-19 1510,0 1560,0 1560,-19"/>
<text text-anchor="middle" x="1535" y="-7" font-family="Helvetica,sans-Serif" font-size="10.00">cstdint</text>
</a>
</g>
</g>
<!-- Node30&#45;&gt;Node32 -->
<g id="edge58_Node000030_Node000032" class="edge">
<title>Node30&#45;&gt;Node32</title>
<g id="a_edge58_Node000030_Node000032"><a xlink:title=" ">
<path fill="none" stroke="#63b8ff" d="M1402.54,-60.49C1428.94,-50.53 1472.88,-33.95 1502.85,-22.63"/>
<polygon fill="#63b8ff" stroke="#63b8ff" points="1504.31,-25.82 1512.43,-19.02 1501.84,-19.27 1504.31,-25.82"/>
</a>
</g>
</g>
<!-- Node33 -->
<g id="Node000033" class="node">
<title>Node33</title>
<g id="a_Node000033"><a xlink:title=" ">
<polygon fill="#e0e0e0" stroke="#999999" points="1327,-19 1283,-19 1283,0 1327,0 1327,-19"/>
<text text-anchor="middle" x="1305" y="-7" font-family="Helvetica,sans-Serif" font-size="10.00">limits</text>
</a>
</g>
</g>
<!-- Node30&#45;&gt;Node33 -->
<g id="edge59_Node000030_Node000033" class="edge">
<title>Node30&#45;&gt;Node33</title>
<g id="a_edge59_Node000030_Node000033"><a xlink:title=" ">
<path fill="none" stroke="#63b8ff" d="M1368.93,-60.37C1357.19,-51.21 1338.41,-36.56 1324.24,-25.51"/>
<polygon fill="#63b8ff" stroke="#63b8ff" points="1326.15,-22.56 1316.11,-19.17 1321.84,-28.08 1326.15,-22.56"/>
</a>
</g>
</g>
<!-- Node34 -->
<g id="Node000034" class="node">
<title>Node34</title>
<g id="a_Node000034"><a xlink:title=" ">
<polygon fill="#e0e0e0" stroke="#999999" points="1414.5,-19 1345.5,-19 1345.5,0 1414.5,0 1414.5,-19"/>
<text text-anchor="middle" x="1380" y="-7" font-family="Helvetica,sans-Serif" font-size="10.00">type_traits</text>
</a>
</g>
</g>
<!-- Node30&#45;&gt;Node34 -->
<g id="edge60_Node000030_Node000034" class="edge">
<title>Node30&#45;&gt;Node34</title>
<g id="a_edge60_Node000030_Node000034"><a xlink:title=" ">
<path fill="none" stroke="#63b8ff" d="M1380,-60.37C1380,-52.25 1380,-39.81 1380,-29.39"/>
<polygon fill="#63b8ff" stroke="#63b8ff" points="1383.5,-29.17 1380,-19.17 1376.5,-29.17 1383.5,-29.17"/>
</a>
</g>
</g>
</g>
</svg>

<g id="navigator" transform="translate(0 0)" fill="#404254">
  <rect fill="#f2f5e9" fill-opacity="0.5" stroke="#606060" stroke-width=".5" x="0" y="0" width="60" height="60"/>
  <use id="zoomplus" xlink:href="#zoomPlus" x="17" y="9" onmousedown="handleZoom(evt,'in')"/>
  <use id="zoomminus" xlink:href="#zoomMin" x="42" y="9" onmousedown="handleZoom(evt,'out')"/>
  <use id="reset" xlink:href="#resetDef" x="30" y="36" onmousedown="handleReset()"/>
   <use id="arrowup" xlink:href="#arrowUp" x="0" y="0" onmousedown="handlePan(0,-1)"/>
  <use id="arrowright" xlink:href="#arrowRight" x="0" y="0" onmousedown="handlePan(1,0)"/>
  <use id="arrowdown" xlink:href="#arrowDown" x="0" y="0" onmousedown="handlePan(0,1)"/>
  <use id="arrowleft" xlink:href="#arrowLeft" x="0" y="0" onmousedown="handlePan(-1,0)"/>
</g>
<svg viewBox="0 0 15 15" width="100%" height="30px" preserveAspectRatio="xMaxYMin meet">
 <g id="arrow_out" transform="scale(0.3 0.3)">
  <a xlink:href="sparse__matrix_8cpp__incl_org.svg" target="_base">
   <rect id="button" ry="5" rx="5" y="6" x="6" height="38" width="38"
        fill="#f2f5e9" fill-opacity="0.5" stroke="#606060" stroke-width="1.0"/>
   <path id="arrow"
     d="M 11.500037,31.436501 C 11.940474,20.09759 22.043105,11.32322 32.158766,21.979434 L 37.068811,17.246167 C 37.068811,17.246167 37.088388,32 37.088388,32 L 22.160133,31.978069 C 22.160133,31.978069 26.997745,27.140456 26.997745,27.140456 C 18.528582,18.264221 13.291696,25.230495 11.500037,31.436501 z"
     style="fill:#404040;"/>
  </a>
 </g>
</svg>

<style type='text/css'>
<![CDATA[
[data-mouse-over-selected='false'] { opacity: 0.7; }
[data-mouse-over-selected='true']  { opacity: 1.0; }
]]>
</style>
<script type="application/ecmascript"><![CDATA[
document.addEventListener('DOMContentLoaded', (event) => {
  highlightEdges();
  highlightAdjacentNodes();
});
]]></script>
</svg>
