<?xml version="1.0" encoding="UTF-8" standalone="no"?>
<!DOCTYPE svg PUBLIC "-//W3C//DTD SVG 1.1//EN"
 "http://www.w3.org/Graphics/SVG/1.1/DTD/svg11.dtd">
<!-- Generated by graphviz version 2.42.4 (0)
 -->
<!-- Title: /__w/vulpes/vulpes/vulpes/la/sparse_matrix.hpp Pages: 1 -->
<!--zoomable 258 -->

<svg id="main" version="1.1" xmlns="http://www.w3.org/2000/svg" xmlns:xlink="http://www.w3.org/1999/xlink" xml:space="preserve" onload="init(evt)">
<style type="text/css"><![CDATA[
.node, .edge {opacity: 0.7;}
.node.selected, .edge.selected {opacity: 1;}
.edge:hover path { stroke: red; }
.edge:hover polygon { stroke: red; fill: red; }
]]></style>

<defs>
  <circle id="rim" cx="0" cy="0" r="7"/>
  <circle id="rim2" cx="0" cy="0" r="3.5"/>
  <g id="zoomPlus">
    <use xlink:href="#rim" fill="#404040"><set attributeName="fill" to="#808080" begin="zoomplus.mouseover" end="zoomplus.mouseout"/></use>
    <path d="M-4,0h8M0,-4v8" fill="none" stroke="white" stroke-width="1.5" pointer-events="none"/>
  </g>
  <g id="zoomMin">
    <use xlink:href="#rim" fill="#404040"><set attributeName="fill" to="#808080" begin="zoomminus.mouseover" end="zoomminus.mouseout"/></use>
    <path d="M-4,0h8" fill="none" stroke="white" stroke-width="1.5" pointer-events="none"/>
  </g>
  <g id="arrowUp" transform="translate(30 24)">
    <use xlink:href="#rim"/>
    <path pointer-events="none" fill="none" stroke="white" stroke-width="1.5" d="M0,-3.0v7 M-2.5,-0.5L0,-3.0L2.5,-0.5"/>
  </g>
  <g id="arrowRight" transform="rotate(90) translate(36 -43)">
    <use xlink:href="#rim"/>
    <path pointer-events="none" fill="none" stroke="white" stroke-width="1.5" d="M0,-3.0v7 M-2.5,-0.5L0,-3.0L2.5,-0.5"/>
  </g>
  <g id="arrowDown" transform="rotate(180) translate(-30 -48)">
    <use xlink:href="#rim"/>
    <path pointer-events="none" fill="none" stroke="white" stroke-width="1.5" d="M0,-3.0v7 M-2.5,-0.5L0,-3.0L2.5,-0.5"/>
  </g>
  <g id="arrowLeft" transform="rotate(270) translate(-36 17)">
    <use xlink:href="#rim"/>
    <path pointer-events="none" fill="none" stroke="white" stroke-width="1.5" d="M0,-3.0v7 M-2.5,-0.5L0,-3.0L2.5,-0.5"/>
  </g>
  <g id="resetDef">
    <use xlink:href="#rim2" fill="#404040"><set attributeName="fill" to="#808080" begin="reset.mouseover" end="reset.mouseout"/></use>
  </g>
</defs>
<script type="application/ecmascript">
var viewWidth = 888;
var viewHeight = 258;
var sectionId = 'dynsection-1';
</script>
<script type="application/ecmascript" xlink:href="svg.min.js"/>
<svg id="graph" class="graph">
<g id="viewport">
<title>/__w/vulpes/vulpes/vulpes/la/sparse_matrix.hpp</title>
<!-- Node1 -->
<g id="Node000001" class="node">
<title>Node1</title>
<g id="a_Node000001"><a xlink:title=" ">
<polygon fill="#999999" stroke="#666666" points="552.5,-250 394.5,-250 394.5,-220 552.5,-220 552.5,-250"/>
<text text-anchor="start" x="402.5" y="-238" font-family="Helvetica,sans-Serif" font-size="10.00">/__w/vulpes/vulpes</text>
<text text-anchor="middle" x="473.5" y="-227" font-family="Helvetica,sans-Serif" font-size="10.00">/vulpes/la/sparse_matrix.hpp</text>
</a>
</g>
</g>
<!-- Node2 -->
<g id="Node000002" class="node">
<title>Node2</title>
<g id="a_Node000002"><a xlink:href="dg__utils_8hpp.html" target="_top" xlink:title=" ">
<polygon fill="white" stroke="#666666" points="117,-118 0,-118 0,-77 117,-77 117,-118"/>
<text text-anchor="start" x="8" y="-106" font-family="Helvetica,sans-Serif" font-size="10.00">/__w/vulpes/vulpes</text>
<text text-anchor="start" x="8" y="-95" font-family="Helvetica,sans-Serif" font-size="10.00">/vulpes/assemble/dg</text>
<text text-anchor="middle" x="58.5" y="-84" font-family="Helvetica,sans-Serif" font-size="10.00">_utils.hpp</text>
</a>
</g>
</g>
<!-- Node1&#45;&gt;Node2 -->
<g id="edge1_Node000001_Node000002" class="edge">
<title>Node1&#45;&gt;Node2</title>
<g id="a_edge1_Node000001_Node000002"><a xlink:title=" ">
<path fill="none" stroke="#63b8ff" d="M384.41,-226.98C328.17,-220.4 254.83,-207.83 193.5,-184 151.61,-167.72 108.68,-137.81 82.79,-118.03"/>
<polygon fill="#63b8ff" stroke="#63b8ff" points="384.02,-230.45 394.35,-228.1 384.8,-223.5 384.02,-230.45"/>
</a>
</g>
</g>
<!-- Node3 -->
<g id="Node000003" class="node">
<title>Node3</title>
<g id="a_Node000003"><a xlink:href="linear__solver_8hpp.html" target="_top" xlink:title=" ">
<polygon fill="white" stroke="#666666" points="497.5,-184 347.5,-184 347.5,-154 497.5,-154 497.5,-184"/>
<text text-anchor="start" x="355.5" y="-172" font-family="Helvetica,sans-Serif" font-size="10.00">/__w/vulpes/vulpes</text>
<text text-anchor="middle" x="422.5" y="-161" font-family="Helvetica,sans-Serif" font-size="10.00">/vulpes/la/linear_solver.hpp</text>
</a>
</g>
</g>
<!-- Node1&#45;&gt;Node3 -->
<g id="edge2_Node000001_Node000003" class="edge">
<title>Node1&#45;&gt;Node3</title>
<g id="a_edge2_Node000001_Node000003"><a xlink:title=" ">
<path fill="none" stroke="#63b8ff" d="M455.82,-211.81C448.51,-202.64 440.25,-192.28 433.79,-184.16"/>
<polygon fill="#63b8ff" stroke="#63b8ff" points="453.21,-214.16 462.18,-219.8 458.69,-209.79 453.21,-214.16"/>
</a>
</g>
</g>
<!-- Node5 -->
<g id="Node000005" class="node">
<title>Node5</title>
<g id="a_Node000005"><a xlink:href="cranknicolson_8hpp.html" target="_top" xlink:title=" ">
<polygon fill="white" stroke="#666666" points="266,-118 135,-118 135,-77 266,-77 266,-118"/>
<text text-anchor="start" x="143" y="-106" font-family="Helvetica,sans-Serif" font-size="10.00">/__w/vulpes/vulpes</text>
<text text-anchor="start" x="143" y="-95" font-family="Helvetica,sans-Serif" font-size="10.00">/vulpes/timeintegration</text>
<text text-anchor="middle" x="200.5" y="-84" font-family="Helvetica,sans-Serif" font-size="10.00">/cranknicolson.hpp</text>
</a>
</g>
</g>
<!-- Node1&#45;&gt;Node5 -->
<g id="edge13_Node000001_Node000005" class="edge">
<title>Node1&#45;&gt;Node5</title>
<g id="a_edge13_Node000001_Node000005"><a xlink:title=" ">
<path fill="none" stroke="#63b8ff" d="M384.31,-228.18C317.53,-221.85 233.85,-209.08 210.5,-184 194.21,-166.5 194.37,-137.48 196.79,-118.17"/>
<polygon fill="#63b8ff" stroke="#63b8ff" points="384.18,-231.68 394.45,-229.1 384.81,-224.71 384.18,-231.68"/>
</a>
</g>
</g>
<!-- Node7 -->
<g id="Node000007" class="node">
<title>Node7</title>
<g id="a_Node000007"><a xlink:href="imex_8hpp.html" target="_top" xlink:title=" ">
<polygon fill="white" stroke="#666666" points="582,-118 451,-118 451,-77 582,-77 582,-118"/>
<text text-anchor="start" x="459" y="-106" font-family="Helvetica,sans-Serif" font-size="10.00">/__w/vulpes/vulpes</text>
<text text-anchor="start" x="459" y="-95" font-family="Helvetica,sans-Serif" font-size="10.00">/vulpes/timeintegration</text>
<text text-anchor="middle" x="516.5" y="-84" font-family="Helvetica,sans-Serif" font-size="10.00">/dae/imex.hpp</text>
</a>
</g>
</g>
<!-- Node1&#45;&gt;Node7 -->
<g id="edge14_Node000001_Node000007" class="edge">
<title>Node1&#45;&gt;Node7</title>
<g id="a_edge14_Node000001_Node000007"><a xlink:title=" ">
<path fill="none" stroke="#63b8ff" d="M491.63,-211.42C497.3,-203.23 502.99,-193.61 506.5,-184 514.39,-162.38 516.41,-135.83 516.76,-118.11"/>
<polygon fill="#63b8ff" stroke="#63b8ff" points="488.67,-209.54 485.59,-219.68 494.32,-213.67 488.67,-209.54"/>
</a>
</g>
</g>
<!-- Node8 -->
<g id="Node000008" class="node">
<title>Node8</title>
<g id="a_Node000008"><a xlink:href="solverfkpp_8hpp.html" target="_top" xlink:title=" ">
<polygon fill="white" stroke="#666666" points="731,-118 600,-118 600,-77 731,-77 731,-118"/>
<text text-anchor="start" x="608" y="-106" font-family="Helvetica,sans-Serif" font-size="10.00">/__w/vulpes/vulpes</text>
<text text-anchor="start" x="608" y="-95" font-family="Helvetica,sans-Serif" font-size="10.00">/vulpes/timeintegration</text>
<text text-anchor="middle" x="665.5" y="-84" font-family="Helvetica,sans-Serif" font-size="10.00">/solverfkpp.hpp</text>
</a>
</g>
</g>
<!-- Node1&#45;&gt;Node8 -->
<g id="edge15_Node000001_Node000008" class="edge">
<title>Node1&#45;&gt;Node8</title>
<g id="a_edge15_Node000001_Node000008"><a xlink:title=" ">
<path fill="none" stroke="#63b8ff" d="M501.92,-213.94C538.41,-188.19 601.33,-143.79 637.57,-118.21"/>
<polygon fill="#63b8ff" stroke="#63b8ff" points="499.84,-211.13 493.68,-219.76 503.87,-216.85 499.84,-211.13"/>
</a>
</g>
</g>
<!-- Node10 -->
<g id="Node000010" class="node">
<title>Node10</title>
<g id="a_Node000010"><a xlink:href="solvermfk_8hpp.html" target="_top" xlink:title=" ">
<polygon fill="white" stroke="#666666" points="880,-118 749,-118 749,-77 880,-77 880,-118"/>
<text text-anchor="start" x="757" y="-106" font-family="Helvetica,sans-Serif" font-size="10.00">/__w/vulpes/vulpes</text>
<text text-anchor="start" x="757" y="-95" font-family="Helvetica,sans-Serif" font-size="10.00">/vulpes/timeintegration</text>
<text text-anchor="middle" x="814.5" y="-84" font-family="Helvetica,sans-Serif" font-size="10.00">/solvermfk.hpp</text>
</a>
</g>
</g>
<!-- Node1&#45;&gt;Node10 -->
<g id="edge16_Node000001_Node000010" class="edge">
<title>Node1&#45;&gt;Node10</title>
<g id="a_edge16_Node000001_Node000010"><a xlink:title=" ">
<path fill="none" stroke="#63b8ff" d="M518.41,-215.74C538.24,-207.04 561.53,-195.93 581.5,-184 600.58,-172.6 601.61,-163.9 621.5,-154 633.22,-148.17 697.67,-130.06 748.91,-116.1"/>
<polygon fill="#63b8ff" stroke="#63b8ff" points="516.78,-212.63 508.98,-219.81 519.55,-219.06 516.78,-212.63"/>
</a>
</g>
</g>
<!-- Node12 -->
<g id="Node000012" class="node">
<title>Node12</title>
<g id="a_Node000012"><a xlink:href="sparse__matrix_8cpp.html" target="_top" xlink:title=" ">
<polygon fill="white" stroke="#666666" points="787,-184 630,-184 630,-154 787,-154 787,-184"/>
<text text-anchor="start" x="638" y="-172" font-family="Helvetica,sans-Serif" font-size="10.00">/__w/vulpes/vulpes</text>
<text text-anchor="middle" x="708.5" y="-161" font-family="Helvetica,sans-Serif" font-size="10.00">/vulpes/la/sparse_matrix.cpp</text>
</a>
</g>
</g>
<!-- Node1&#45;&gt;Node12 -->
<g id="edge12_Node000001_Node000012" class="edge">
<title>Node1&#45;&gt;Node12</title>
<g id="a_edge12_Node000001_Node000012"><a xlink:title=" ">
<path fill="none" stroke="#63b8ff" d="M534.99,-217.25C572.96,-206.91 621.11,-193.8 657.05,-184.01"/>
<polygon fill="#63b8ff" stroke="#63b8ff" points="533.8,-213.95 525.07,-219.95 535.64,-220.7 533.8,-213.95"/>
</a>
</g>
</g>
<!-- Node13 -->
<g id="Node000013" class="node">
<title>Node13</title>
<g id="a_Node000013"><a xlink:href="io_8hpp.html" target="_top" xlink:title=" ">
<polygon fill="white" stroke="#666666" points="329,-184 220,-184 220,-154 329,-154 329,-184"/>
<text text-anchor="start" x="228" y="-172" font-family="Helvetica,sans-Serif" font-size="10.00">/__w/vulpes/vulpes</text>
<text text-anchor="middle" x="274.5" y="-161" font-family="Helvetica,sans-Serif" font-size="10.00">/vulpes/utils/io.hpp</text>
</a>
</g>
</g>
<!-- Node1&#45;&gt;Node13 -->
<g id="edge17_Node000001_Node000013" class="edge">
<title>Node1&#45;&gt;Node13</title>
<g id="a_edge17_Node000001_Node000013"><a xlink:title=" ">
<path fill="none" stroke="#63b8ff" d="M420.19,-216.86C388.24,-206.58 348.12,-193.68 318.07,-184.01"/>
<polygon fill="#63b8ff" stroke="#63b8ff" points="419.24,-220.23 429.83,-219.95 421.38,-213.56 419.24,-220.23"/>
</a>
</g>
</g>
<!-- Node3&#45;&gt;Node2 -->
<g id="edge3_Node000003_Node000002" class="edge">
<title>Node3&#45;&gt;Node2</title>
<g id="a_edge3_Node000003_Node000002"><a xlink:title=" ">
<path fill="none" stroke="#63b8ff" d="M337.31,-153.91C253.28,-139.97 135.88,-120.38 125.5,-118 122.78,-117.38 120.01,-116.71 117.22,-116.01"/>
<polygon fill="#63b8ff" stroke="#63b8ff" points="336.95,-157.4 347.39,-155.58 338.1,-150.49 336.95,-157.4"/>
</a>
</g>
</g>
<!-- Node4 -->
<g id="Node000004" class="node">
<title>Node4</title>
<g id="a_Node000004"><a xlink:href="linear__solver_8cpp.html" target="_top" xlink:title=" ">
<polygon fill="white" stroke="#666666" points="433,-112.5 284,-112.5 284,-82.5 433,-82.5 433,-112.5"/>
<text text-anchor="start" x="292" y="-100.5" font-family="Helvetica,sans-Serif" font-size="10.00">/__w/vulpes/vulpes</text>
<text text-anchor="middle" x="358.5" y="-89.5" font-family="Helvetica,sans-Serif" font-size="10.00">/vulpes/la/linear_solver.cpp</text>
</a>
</g>
</g>
<!-- Node3&#45;&gt;Node4 -->
<g id="edge4_Node000003_Node000004" class="edge">
<title>Node3&#45;&gt;Node4</title>
<g id="a_edge4_Node000003_Node000004"><a xlink:title=" ">
<path fill="none" stroke="#63b8ff" d="M402.56,-146.35C392.41,-135.33 380.36,-122.24 371.43,-112.54"/>
<polygon fill="#63b8ff" stroke="#63b8ff" points="400.2,-148.95 409.55,-153.94 405.35,-144.21 400.2,-148.95"/>
</a>
</g>
</g>
<!-- Node3&#45;&gt;Node5 -->
<g id="edge5_Node000003_Node000005" class="edge">
<title>Node3&#45;&gt;Node5</title>
<g id="a_edge5_Node000003_Node000005"><a xlink:title=" ">
<path fill="none" stroke="#63b8ff" d="M368.01,-150.94C336.24,-141 296.07,-128.42 263.02,-118.07"/>
<polygon fill="#63b8ff" stroke="#63b8ff" points="366.99,-154.29 377.57,-153.94 369.08,-147.61 366.99,-154.29"/>
</a>
</g>
</g>
<!-- Node3&#45;&gt;Node7 -->
<g id="edge7_Node000003_Node000007" class="edge">
<title>Node3&#45;&gt;Node7</title>
<g id="a_edge7_Node000003_Node000007"><a xlink:title=" ">
<path fill="none" stroke="#63b8ff" d="M449.85,-147.77C462.51,-138.42 477.48,-127.35 490.03,-118.07"/>
<polygon fill="#63b8ff" stroke="#63b8ff" points="447.48,-145.18 441.52,-153.94 451.64,-150.8 447.48,-145.18"/>
</a>
</g>
</g>
<!-- Node3&#45;&gt;Node8 -->
<g id="edge8_Node000003_Node000008" class="edge">
<title>Node3&#45;&gt;Node8</title>
<g id="a_edge8_Node000003_Node000008"><a xlink:title=" ">
<path fill="none" stroke="#63b8ff" d="M481.48,-151.13C517.23,-140.91 562.91,-127.84 599.81,-117.29"/>
<polygon fill="#63b8ff" stroke="#63b8ff" points="480.33,-147.82 471.67,-153.94 482.25,-154.55 480.33,-147.82"/>
</a>
</g>
</g>
<!-- Node3&#45;&gt;Node10 -->
<g id="edge10_Node000003_Node000010" class="edge">
<title>Node3&#45;&gt;Node10</title>
<g id="a_edge10_Node000003_Node000010"><a xlink:title=" ">
<path fill="none" stroke="#63b8ff" d="M507.83,-156.98C572.11,-148.11 662.23,-134.42 740.5,-118 743.23,-117.43 746.01,-116.82 748.82,-116.18"/>
<polygon fill="#63b8ff" stroke="#63b8ff" points="507.18,-153.54 497.75,-158.37 508.13,-160.48 507.18,-153.54"/>
</a>
</g>
</g>
<!-- Node6 -->
<g id="Node000006" class="node">
<title>Node6</title>
<g id="a_Node000006"><a xlink:href="cranknicolson_8cpp.html" target="_top" xlink:title=" ">
<polygon fill="white" stroke="#666666" points="266,-41 135,-41 135,0 266,0 266,-41"/>
<text text-anchor="start" x="143" y="-29" font-family="Helvetica,sans-Serif" font-size="10.00">/__w/vulpes/vulpes</text>
<text text-anchor="start" x="143" y="-18" font-family="Helvetica,sans-Serif" font-size="10.00">/vulpes/timeintegration</text>
<text text-anchor="middle" x="200.5" y="-7" font-family="Helvetica,sans-Serif" font-size="10.00">/cranknicolson.cpp</text>
</a>
</g>
</g>
<!-- Node5&#45;&gt;Node6 -->
<g id="edge6_Node000005_Node000006" class="edge">
<title>Node5&#45;&gt;Node6</title>
<g id="a_edge6_Node000005_Node000006"><a xlink:title=" ">
<path fill="none" stroke="#63b8ff" d="M200.5,-66.69C200.5,-58.08 200.5,-48.9 200.5,-41.07"/>
<polygon fill="#63b8ff" stroke="#63b8ff" points="197,-66.79 200.5,-76.79 204,-66.79 197,-66.79"/>
</a>
</g>
</g>
<!-- Node9 -->
<g id="Node000009" class="node">
<title>Node9</title>
<g id="a_Node000009"><a xlink:href="solverfkpp_8cpp.html" target="_top" xlink:title=" ">
<polygon fill="white" stroke="#666666" points="731,-41 600,-41 600,0 731,0 731,-41"/>
<text text-anchor="start" x="608" y="-29" font-family="Helvetica,sans-Serif" font-size="10.00">/__w/vulpes/vulpes</text>
<text text-anchor="start" x="608" y="-18" font-family="Helvetica,sans-Serif" font-size="10.00">/vulpes/timeintegration</text>
<text text-anchor="middle" x="665.5" y="-7" font-family="Helvetica,sans-Serif" font-size="10.00">/solverfkpp.cpp</text>
</a>
</g>
</g>
<!-- Node8&#45;&gt;Node9 -->
<g id="edge9_Node000008_Node000009" class="edge">
<title>Node8&#45;&gt;Node9</title>
<g id="a_edge9_Node000008_Node000009"><a xlink:title=" ">
<path fill="none" stroke="#63b8ff" d="M665.5,-66.69C665.5,-58.08 665.5,-48.9 665.5,-41.07"/>
<polygon fill="#63b8ff" stroke="#63b8ff" points="662,-66.79 665.5,-76.79 669,-66.79 662,-66.79"/>
</a>
</g>
</g>
<!-- Node11 -->
<g id="Node000011" class="node">
<title>Node11</title>
<g id="a_Node000011"><a xlink:href="solvermfk_8cpp.html" target="_top" xlink:title=" ">
<polygon fill="white" stroke="#666666" points="880,-41 749,-41 749,0 880,0 880,-41"/>
<text text-anchor="start" x="757" y="-29" font-family="Helvetica,sans-Serif" font-size="10.00">/__w/vulpes/vulpes</text>
<text text-anchor="start" x="757" y="-18" font-family="Helvetica,sans-Serif" font-size="10.00">/vulpes/timeintegration</text>
<text text-anchor="middle" x="814.5" y="-7" font-family="Helvetica,sans-Serif" font-size="10.00">/solvermfk.cpp</text>
</a>
</g>
</g>
<!-- Node10&#45;&gt;Node11 -->
<g id="edge11_Node000010_Node000011" class="edge">
<title>Node10&#45;&gt;Node11</title>
<g id="a_edge11_Node000010_Node000011"><a xlink:title=" ">
<path fill="none" stroke="#63b8ff" d="M814.5,-66.69C814.5,-58.08 814.5,-48.9 814.5,-41.07"/>
<polygon fill="#63b8ff" stroke="#63b8ff" points="811,-66.79 814.5,-76.79 818,-66.79 811,-66.79"/>
</a>
</g>
</g>
<!-- Node13&#45;&gt;Node5 -->
<g id="edge18_Node000013_Node000005" class="edge">
<title>Node13&#45;&gt;Node5</title>
<g id="a_edge18_Node000013_Node000005"><a xlink:title=" ">
<path fill="none" stroke="#63b8ff" d="M252.1,-146.96C242.32,-137.78 230.93,-127.08 221.34,-118.07"/>
<polygon fill="#63b8ff" stroke="#63b8ff" points="249.84,-149.64 259.52,-153.94 254.63,-144.54 249.84,-149.64"/>
</a>
</g>
</g>
</g>
</svg>

<g id="navigator" transform="translate(0 0)" fill="#404254">
  <rect fill="#f2f5e9" fill-opacity="0.5" stroke="#606060" stroke-width=".5" x="0" y="0" width="60" height="60"/>
  <use id="zoomplus" xlink:href="#zoomPlus" x="17" y="9" onmousedown="handleZoom(evt,'in')"/>
  <use id="zoomminus" xlink:href="#zoomMin" x="42" y="9" onmousedown="handleZoom(evt,'out')"/>
  <use id="reset" xlink:href="#resetDef" x="30" y="36" onmousedown="handleReset()"/>
   <use id="arrowup" xlink:href="#arrowUp" x="0" y="0" onmousedown="handlePan(0,-1)"/>
  <use id="arrowright" xlink:href="#arrowRight" x="0" y="0" onmousedown="handlePan(1,0)"/>
  <use id="arrowdown" xlink:href="#arrowDown" x="0" y="0" onmousedown="handlePan(0,1)"/>
  <use id="arrowleft" xlink:href="#arrowLeft" x="0" y="0" onmousedown="handlePan(-1,0)"/>
</g>
<svg viewBox="0 0 15 15" width="100%" height="30px" preserveAspectRatio="xMaxYMin meet">
 <g id="arrow_out" transform="scale(0.3 0.3)">
  <a xlink:href="sparse__matrix_8hpp__dep__incl_org.svg" target="_base">
   <rect id="button" ry="5" rx="5" y="6" x="6" height="38" width="38"
        fill="#f2f5e9" fill-opacity="0.5" stroke="#606060" stroke-width="1.0"/>
   <path id="arrow"
     d="M 11.500037,31.436501 C 11.940474,20.09759 22.043105,11.32322 32.158766,21.979434 L 37.068811,17.246167 C 37.068811,17.246167 37.088388,32 37.088388,32 L 22.160133,31.978069 C 22.160133,31.978069 26.997745,27.140456 26.997745,27.140456 C 18.528582,18.264221 13.291696,25.230495 11.500037,31.436501 z"
     style="fill:#404040;"/>
  </a>
 </g>
</svg>

<style type='text/css'>
<![CDATA[
[data-mouse-over-selected='false'] { opacity: 0.7; }
[data-mouse-over-selected='true']  { opacity: 1.0; }
]]>
</style>
<script type="application/ecmascript"><![CDATA[
document.addEventListener('DOMContentLoaded', (event) => {
  highlightEdges();
  highlightAdjacentNodes();
});
]]></script>
</svg>
