<?xml version="1.0" encoding="UTF-8" standalone="no"?>
<!DOCTYPE svg PUBLIC "-//W3C//DTD SVG 1.1//EN"
 "http://www.w3.org/Graphics/SVG/1.1/DTD/svg11.dtd">
<!-- Generated by graphviz version 12.2.1 (20241206.2353)
 -->
<!-- Title: /Users/ilariomazzieri/Desktop/vulpes/vulpes/la/sparse_matrix.hpp Pages: 1 -->
<svg width="1574pt" height="337pt"
 viewBox="0.00 0.00 1574.12 337.25" xmlns="http://www.w3.org/2000/svg" xmlns:xlink="http://www.w3.org/1999/xlink">
<g id="graph0" class="graph" transform="scale(1 1) rotate(0) translate(4 333.25)">
<title>/Users/ilariomazzieri/Desktop/vulpes/vulpes/la/sparse_matrix.hpp</title>
<!-- Node1 -->
<g id="Node000001" class="node">
<title>Node1</title>
<g id="a_Node000001"><a xlink:title=" ">
<polygon fill="#999999" stroke="#666666" points="430.75,-329.25 312,-329.25 312,-287.5 430.75,-287.5 430.75,-329.25"/>
<text text-anchor="start" x="320" y="-315.75" font-family="Helvetica,sans-Serif" font-size="10.00">/Users/ilariomazzieri</text>
<text text-anchor="start" x="320" y="-304.5" font-family="Helvetica,sans-Serif" font-size="10.00">/Desktop/vulpes/vulpes</text>
<text text-anchor="middle" x="371.38" y="-293.25" font-family="Helvetica,sans-Serif" font-size="10.00">/la/sparse_matrix.hpp</text>
</a>
</g>
</g>
<!-- Node2 -->
<g id="Node000002" class="node">
<title>Node2</title>
<g id="a_Node000002"><a xlink:title=" ">
<polygon fill="#e0e0e0" stroke="#999999" points="64.75,-251.5 0,-251.5 0,-232.25 64.75,-232.25 64.75,-251.5"/>
<text text-anchor="middle" x="32.38" y="-238" font-family="Helvetica,sans-Serif" font-size="10.00">petscmat.h</text>
</a>
</g>
</g>
<!-- Node1&#45;&gt;Node2 -->
<g id="edge1_Node000001_Node000002" class="edge">
<title>Node1&#45;&gt;Node2</title>
<g id="a_edge1_Node000001_Node000002"><a xlink:title=" ">
<path fill="none" stroke="#63b8ff" d="M311.55,-295.99C244.05,-283.15 135.88,-262.57 75.94,-251.16"/>
<polygon fill="#63b8ff" stroke="#63b8ff" points="76.93,-247.79 66.46,-249.36 75.63,-254.67 76.93,-247.79"/>
</a>
</g>
</g>
<!-- Node3 -->
<g id="Node000003" class="node">
<title>Node3</title>
<g id="a_Node000003"><a xlink:title=" ">
<polygon fill="#e0e0e0" stroke="#999999" points="195.38,-141 131.38,-141 131.38,-121.75 195.38,-121.75 195.38,-141"/>
<text text-anchor="middle" x="163.38" y="-127.5" font-family="Helvetica,sans-Serif" font-size="10.00">petscsys.h</text>
</a>
</g>
</g>
<!-- Node1&#45;&gt;Node3 -->
<g id="edge2_Node000001_Node000003" class="edge">
<title>Node1&#45;&gt;Node3</title>
<g id="a_edge2_Node000001_Node000003"><a xlink:title=" ">
<path fill="none" stroke="#63b8ff" d="M311.63,-295.74C258.7,-281.93 184.54,-253.18 149.38,-196.25 140.98,-182.67 146.04,-164.73 152.29,-151.33"/>
<polygon fill="#63b8ff" stroke="#63b8ff" points="155.29,-153.14 156.86,-142.66 149.1,-149.88 155.29,-153.14"/>
</a>
</g>
</g>
<!-- Node4 -->
<g id="Node000004" class="node">
<title>Node4</title>
<g id="a_Node000004"><a xlink:title=" ">
<polygon fill="#e0e0e0" stroke="#999999" points="1284.5,-19.25 1236.25,-19.25 1236.25,0 1284.5,0 1284.5,-19.25"/>
<text text-anchor="middle" x="1260.38" y="-5.75" font-family="Helvetica,sans-Serif" font-size="10.00">cstddef</text>
</a>
</g>
</g>
<!-- Node1&#45;&gt;Node4 -->
<g id="edge3_Node000001_Node000004" class="edge">
<title>Node1&#45;&gt;Node4</title>
<g id="a_edge3_Node000001_Node000004"><a xlink:title=" ">
<path fill="none" stroke="#63b8ff" d="M431.25,-305.49C579.86,-300.35 962.45,-284.26 1085.38,-251.5 1196.12,-221.98 1257.11,-237.86 1318.38,-141 1342.42,-102.98 1303.17,-53.3 1278.32,-27.63"/>
<polygon fill="#63b8ff" stroke="#63b8ff" points="1280.89,-25.25 1271.33,-20.68 1275.95,-30.21 1280.89,-25.25"/>
</a>
</g>
</g>
<!-- Node5 -->
<g id="Node000005" class="node">
<title>Node5</title>
<g id="a_Node000005"><a xlink:title=" ">
<polygon fill="#e0e0e0" stroke="#999999" points="315.12,-19.25 261.62,-19.25 261.62,0 315.12,0 315.12,-19.25"/>
<text text-anchor="middle" x="288.38" y="-5.75" font-family="Helvetica,sans-Serif" font-size="10.00">iostream</text>
</a>
</g>
</g>
<!-- Node1&#45;&gt;Node5 -->
<g id="edge4_Node000001_Node000005" class="edge">
<title>Node1&#45;&gt;Node5</title>
<g id="a_edge4_Node000001_Node000005"><a xlink:title=" ">
<path fill="none" stroke="#63b8ff" d="M353.73,-287.33C335.72,-264.74 310.38,-226.12 310.38,-187.62 310.38,-187.62 310.38,-187.62 310.38,-130.38 310.38,-94.72 300.82,-54.06 294.31,-30.47"/>
<polygon fill="#63b8ff" stroke="#63b8ff" points="297.71,-29.63 291.58,-20.99 290.98,-31.57 297.71,-29.63"/>
</a>
</g>
</g>
<!-- Node6 -->
<g id="Node000006" class="node">
<title>Node6</title>
<g id="a_Node000006"><a xlink:title=" ">
<polygon fill="#e0e0e0" stroke="#999999" points="428,-196.25 376.75,-196.25 376.75,-177 428,-177 428,-196.25"/>
<text text-anchor="middle" x="402.38" y="-182.75" font-family="Helvetica,sans-Serif" font-size="10.00">memory</text>
</a>
</g>
</g>
<!-- Node1&#45;&gt;Node6 -->
<g id="edge5_Node000001_Node000006" class="edge">
<title>Node1&#45;&gt;Node6</title>
<g id="a_edge5_Node000001_Node000006"><a xlink:title=" ">
<path fill="none" stroke="#63b8ff" d="M376.63,-287.06C382.38,-264.87 391.52,-229.55 397.22,-207.52"/>
<polygon fill="#63b8ff" stroke="#63b8ff" points="400.57,-208.58 399.68,-198.02 393.79,-206.82 400.57,-208.58"/>
</a>
</g>
</g>
<!-- Node7 -->
<g id="Node000007" class="node">
<title>Node7</title>
<g id="a_Node000007"><a xlink:title=" ">
<polygon fill="#e0e0e0" stroke="#999999" points="243.38,-19.25 203.38,-19.25 203.38,0 243.38,0 243.38,-19.25"/>
<text text-anchor="middle" x="223.38" y="-5.75" font-family="Helvetica,sans-Serif" font-size="10.00">string</text>
</a>
</g>
</g>
<!-- Node1&#45;&gt;Node7 -->
<g id="edge6_Node000001_Node000007" class="edge">
<title>Node1&#45;&gt;Node7</title>
<g id="a_edge6_Node000001_Node000007"><a xlink:title=" ">
<path fill="none" stroke="#63b8ff" d="M311.52,-307.03C229.54,-303.05 92.38,-282.24 92.38,-187.62 92.38,-187.62 92.38,-187.62 92.38,-130.38 92.38,-76.3 153.94,-40.09 192.66,-22.66"/>
<polygon fill="#63b8ff" stroke="#63b8ff" points="193.72,-26.01 201.52,-18.84 190.95,-19.59 193.72,-26.01"/>
</a>
</g>
</g>
<!-- Node8 -->
<g id="Node000008" class="node">
<title>Node8</title>
<g id="a_Node000008"><a xlink:title=" ">
<polygon fill="#e0e0e0" stroke="#999999" points="372,-19.25 332.75,-19.25 332.75,0 372,0 372,-19.25"/>
<text text-anchor="middle" x="352.38" y="-5.75" font-family="Helvetica,sans-Serif" font-size="10.00">utility</text>
</a>
</g>
</g>
<!-- Node1&#45;&gt;Node8 -->
<g id="edge7_Node000001_Node000008" class="edge">
<title>Node1&#45;&gt;Node8</title>
<g id="a_edge7_Node000001_Node000008"><a xlink:title=" ">
<path fill="none" stroke="#63b8ff" d="M365.09,-287.26C358.28,-263.65 348.38,-223.19 348.38,-187.62 348.38,-187.62 348.38,-187.62 348.38,-130.38 348.38,-95.45 350.1,-54.82 351.28,-31"/>
<polygon fill="#63b8ff" stroke="#63b8ff" points="354.77,-31.31 351.79,-21.15 347.78,-30.95 354.77,-31.31"/>
</a>
</g>
</g>
<!-- Node9 -->
<g id="Node000009" class="node">
<title>Node9</title>
<g id="a_Node000009"><a xlink:title=" ">
<polygon fill="#e0e0e0" stroke="#999999" points="1053.88,-19.25 1010.88,-19.25 1010.88,0 1053.88,0 1053.88,-19.25"/>
<text text-anchor="middle" x="1032.38" y="-5.75" font-family="Helvetica,sans-Serif" font-size="10.00">vector</text>
</a>
</g>
</g>
<!-- Node1&#45;&gt;Node9 -->
<g id="edge8_Node000001_Node000009" class="edge">
<title>Node1&#45;&gt;Node9</title>
<g id="a_edge8_Node000001_Node000009"><a xlink:title=" ">
<path fill="none" stroke="#63b8ff" d="M431.2,-302.82C593.91,-289.62 1032.38,-248.42 1032.38,-187.62 1032.38,-187.62 1032.38,-187.62 1032.38,-130.38 1032.38,-95.47 1032.38,-54.84 1032.38,-31.01"/>
<polygon fill="#63b8ff" stroke="#63b8ff" points="1035.88,-31.15 1032.38,-21.15 1028.88,-31.15 1035.88,-31.15"/>
</a>
</g>
</g>
<!-- Node10 -->
<g id="Node000010" class="node">
<title>Node10</title>
<g id="a_Node000010"><a xlink:href="petsc__utils_8hpp.html" target="_top" xlink:title=" ">
<polygon fill="white" stroke="#666666" points="282.38,-196.25 158.38,-196.25 158.38,-177 282.38,-177 282.38,-196.25"/>
<text text-anchor="middle" x="220.38" y="-182.75" font-family="Helvetica,sans-Serif" font-size="10.00">vulpes/la/petsc_utils.hpp</text>
</a>
</g>
</g>
<!-- Node1&#45;&gt;Node10 -->
<g id="edge9_Node000001_Node000010" class="edge">
<title>Node1&#45;&gt;Node10</title>
<g id="a_edge9_Node000001_Node000010"><a xlink:title=" ">
<path fill="none" stroke="#63b8ff" d="M343.3,-287.06C329.09,-276.63 311.65,-263.59 296.38,-251.5 276.45,-235.73 254.28,-216.94 239.05,-203.84"/>
<polygon fill="#63b8ff" stroke="#63b8ff" points="241.54,-201.37 231.69,-197.49 236.97,-206.67 241.54,-201.37"/>
</a>
</g>
</g>
<!-- Node11 -->
<g id="Node000011" class="node">
<title>Node11</title>
<g id="a_Node000011"><a xlink:href="mpi__wrappers_8hpp.html" target="_top" xlink:title=" ">
<polygon fill="white" stroke="#666666" points="730.38,-141 582.38,-141 582.38,-121.75 730.38,-121.75 730.38,-141"/>
<text text-anchor="middle" x="656.38" y="-127.5" font-family="Helvetica,sans-Serif" font-size="10.00">vulpes/utils/mpi_wrappers.hpp</text>
</a>
</g>
</g>
<!-- Node1&#45;&gt;Node11 -->
<g id="edge61_Node000001_Node000011" class="edge">
<title>Node1&#45;&gt;Node11</title>
<g id="a_edge61_Node000001_Node000011"><a xlink:title=" ">
<path fill="none" stroke="#63b8ff" d="M431,-303.18C502.28,-296.84 615.47,-282.16 643.38,-251.5 667.93,-224.53 664.95,-178.63 660.63,-152.38"/>
<polygon fill="#63b8ff" stroke="#63b8ff" points="664.1,-151.9 658.8,-142.73 657.23,-153.2 664.1,-151.9"/>
</a>
</g>
</g>
<!-- Node26 -->
<g id="Node000026" class="node">
<title>Node26</title>
<g id="a_Node000026"><a xlink:href="vector_8hpp.html" target="_top" xlink:title=" ">
<polygon fill="white" stroke="#666666" points="633.88,-251.5 530.88,-251.5 530.88,-232.25 633.88,-232.25 633.88,-251.5"/>
<text text-anchor="middle" x="582.38" y="-238" font-family="Helvetica,sans-Serif" font-size="10.00">vulpes/la/vector.hpp</text>
</a>
</g>
</g>
<!-- Node1&#45;&gt;Node26 -->
<g id="edge38_Node000001_Node000026" class="edge">
<title>Node1&#45;&gt;Node26</title>
<g id="a_edge38_Node000001_Node000026"><a xlink:title=" ">
<path fill="none" stroke="#63b8ff" d="M430.99,-289.15C466.38,-278.33 510.31,-264.9 541.72,-255.3"/>
<polygon fill="#63b8ff" stroke="#63b8ff" points="542.7,-258.66 551.24,-252.39 540.65,-251.97 542.7,-258.66"/>
</a>
</g>
</g>
<!-- Node28 -->
<g id="Node000028" class="node">
<title>Node28</title>
<g id="a_Node000028"><a xlink:href="qrule_8hpp.html" target="_top" xlink:title=" ">
<polygon fill="white" stroke="#666666" points="1309.38,-141 1173.38,-141 1173.38,-121.75 1309.38,-121.75 1309.38,-141"/>
<text text-anchor="middle" x="1241.38" y="-127.5" font-family="Helvetica,sans-Serif" font-size="10.00">vulpes/quadrature/qrule.hpp</text>
</a>
</g>
</g>
<!-- Node1&#45;&gt;Node28 -->
<g id="edge50_Node000001_Node000028" class="edge">
<title>Node1&#45;&gt;Node28</title>
<g id="a_edge50_Node000001_Node000028"><a xlink:title=" ">
<path fill="none" stroke="#63b8ff" d="M431.13,-305.27C573.85,-299.77 931.23,-283.2 1046.38,-251.5 1118.44,-231.66 1190.05,-176.5 1222.84,-148.76"/>
<polygon fill="#63b8ff" stroke="#63b8ff" points="1224.94,-151.57 1230.23,-142.39 1220.37,-146.26 1224.94,-151.57"/>
</a>
</g>
</g>
<!-- Node10&#45;&gt;Node3 -->
<g id="edge10_Node000010_Node000003" class="edge">
<title>Node10&#45;&gt;Node3</title>
<g id="a_edge10_Node000010_Node000003"><a xlink:title=" ">
<path fill="none" stroke="#63b8ff" d="M210.71,-176.59C202.63,-169.05 190.91,-158.1 181.15,-148.98"/>
<polygon fill="#63b8ff" stroke="#63b8ff" points="183.7,-146.58 174.01,-142.31 178.93,-151.69 183.7,-146.58"/>
</a>
</g>
</g>
<!-- Node10&#45;&gt;Node7 -->
<g id="edge11_Node000010_Node000007" class="edge">
<title>Node10&#45;&gt;Node7</title>
<g id="a_edge11_Node000010_Node000007"><a xlink:title=" ">
<path fill="none" stroke="#63b8ff" d="M220.53,-176.71C220.99,-149.8 222.38,-68.94 223.03,-30.87"/>
<polygon fill="#63b8ff" stroke="#63b8ff" points="226.52,-31.31 223.19,-21.25 219.52,-31.19 226.52,-31.31"/>
</a>
</g>
</g>
<!-- Node10&#45;&gt;Node11 -->
<g id="edge12_Node000010_Node000011" class="edge">
<title>Node10&#45;&gt;Node11</title>
<g id="a_edge12_Node000010_Node000011"><a xlink:title=" ">
<path fill="none" stroke="#63b8ff" d="M282.84,-178C358.37,-168.77 485.87,-153.2 570.57,-142.85"/>
<polygon fill="#63b8ff" stroke="#63b8ff" points="570.97,-146.33 580.47,-141.65 570.12,-139.38 570.97,-146.33"/>
</a>
</g>
</g>
<!-- Node11&#45;&gt;Node5 -->
<g id="edge16_Node000011_Node000005" class="edge">
<title>Node11&#45;&gt;Node5</title>
<g id="a_edge16_Node000011_Node000005"><a xlink:title=" ">
<path fill="none" stroke="#63b8ff" d="M614.96,-121.31C579.24,-113.14 526.46,-100.21 481.38,-85.75 465.59,-80.68 372.34,-43.91 321.46,-23.76"/>
<polygon fill="#63b8ff" stroke="#63b8ff" points="322.99,-20.6 312.4,-20.17 320.41,-27.11 322.99,-20.6"/>
</a>
</g>
</g>
<!-- Node11&#45;&gt;Node9 -->
<g id="edge17_Node000011_Node000009" class="edge">
<title>Node11&#45;&gt;Node9</title>
<g id="a_edge17_Node000011_Node000009"><a xlink:title=" ">
<path fill="none" stroke="#63b8ff" d="M730.85,-128.78C789.22,-125.16 871.33,-114.71 937.38,-85.75 945.87,-82.02 987.79,-47.74 1013.02,-26.8"/>
<polygon fill="#63b8ff" stroke="#63b8ff" points="1015.16,-29.57 1020.6,-20.48 1010.68,-24.19 1015.16,-29.57"/>
</a>
</g>
</g>
<!-- Node12 -->
<g id="Node000012" class="node">
<title>Node12</title>
<g id="a_Node000012"><a xlink:title=" ">
<polygon fill="#e0e0e0" stroke="#999999" points="530.38,-80.12 490.38,-80.12 490.38,-60.88 530.38,-60.88 530.38,-80.12"/>
<text text-anchor="middle" x="510.38" y="-66.62" font-family="Helvetica,sans-Serif" font-size="10.00">mpi.h</text>
</a>
</g>
</g>
<!-- Node11&#45;&gt;Node12 -->
<g id="edge13_Node000011_Node000012" class="edge">
<title>Node11&#45;&gt;Node12</title>
<g id="a_edge13_Node000011_Node000012"><a xlink:title=" ">
<path fill="none" stroke="#63b8ff" d="M630.54,-121.3C606.65,-112.72 570.27,-99.2 539.38,-85.75 539.03,-85.6 538.68,-85.45 538.33,-85.29"/>
<polygon fill="#63b8ff" stroke="#63b8ff" points="539.96,-82.19 529.42,-81.14 537.01,-88.54 539.96,-82.19"/>
</a>
</g>
</g>
<!-- Node13 -->
<g id="Node000013" class="node">
<title>Node13</title>
<g id="a_Node000013"><a xlink:title=" ">
<polygon fill="#e0e0e0" stroke="#999999" points="730.5,-80.12 682.25,-80.12 682.25,-60.88 730.5,-60.88 730.5,-80.12"/>
<text text-anchor="middle" x="706.38" y="-66.62" font-family="Helvetica,sans-Serif" font-size="10.00">petsc.h</text>
</a>
</g>
</g>
<!-- Node11&#45;&gt;Node13 -->
<g id="edge14_Node000011_Node000013" class="edge">
<title>Node11&#45;&gt;Node13</title>
<g id="a_edge14_Node000011_Node000013"><a xlink:title=" ">
<path fill="none" stroke="#63b8ff" d="M663.97,-121.43C671.24,-112.87 682.4,-99.73 691.45,-89.07"/>
<polygon fill="#63b8ff" stroke="#63b8ff" points="693.92,-91.57 697.73,-81.68 688.59,-87.04 693.92,-91.57"/>
</a>
</g>
</g>
<!-- Node14 -->
<g id="Node000014" class="node">
<title>Node14</title>
<g id="a_Node000014"><a xlink:title=" ">
<polygon fill="#e0e0e0" stroke="#999999" points="860.5,-19.25 812.25,-19.25 812.25,0 860.5,0 860.5,-19.25"/>
<text text-anchor="middle" x="836.38" y="-5.75" font-family="Helvetica,sans-Serif" font-size="10.00">cassert</text>
</a>
</g>
</g>
<!-- Node11&#45;&gt;Node14 -->
<g id="edge15_Node000011_Node000014" class="edge">
<title>Node11&#45;&gt;Node14</title>
<g id="a_edge15_Node000011_Node000014"><a xlink:title=" ">
<path fill="none" stroke="#63b8ff" d="M675.34,-121.3C692.5,-112.84 718.25,-99.48 739.38,-85.75 767.8,-67.29 798.36,-42.75 817.42,-26.83"/>
<polygon fill="#63b8ff" stroke="#63b8ff" points="819.49,-29.66 824.88,-20.54 814.98,-24.31 819.49,-29.66"/>
</a>
</g>
</g>
<!-- Node15 -->
<g id="Node000015" class="node">
<title>Node15</title>
<g id="a_Node000015"><a xlink:title=" ">
<polygon fill="#e0e0e0" stroke="#999999" points="1199.5,-19.25 1127.25,-19.25 1127.25,0 1199.5,0 1199.5,-19.25"/>
<text text-anchor="middle" x="1163.38" y="-5.75" font-family="Helvetica,sans-Serif" font-size="10.00">Eigen/Dense</text>
</a>
</g>
</g>
<!-- Node11&#45;&gt;Node15 -->
<g id="edge18_Node000011_Node000015" class="edge">
<title>Node11&#45;&gt;Node15</title>
<g id="a_edge18_Node000011_Node000015"><a xlink:title=" ">
<path fill="none" stroke="#63b8ff" d="M730.6,-124.67C794.84,-118.6 889.81,-106.85 970.38,-85.75 1030.37,-70.04 1097.13,-41.4 1134.3,-24.38"/>
<polygon fill="#63b8ff" stroke="#63b8ff" points="1135.43,-27.71 1143.04,-20.34 1132.49,-21.36 1135.43,-27.71"/>
</a>
</g>
</g>
<!-- Node16 -->
<g id="Node000016" class="node">
<title>Node16</title>
<g id="a_Node000016"><a xlink:href="crs__map_8hpp.html" target="_top" xlink:title=" ">
<polygon fill="white" stroke="#666666" points="928.62,-85.75 824.12,-85.75 824.12,-55.25 928.62,-55.25 928.62,-85.75"/>
<text text-anchor="start" x="832.12" y="-72.25" font-family="Helvetica,sans-Serif" font-size="10.00">vulpes/datastructure</text>
<text text-anchor="middle" x="876.38" y="-61" font-family="Helvetica,sans-Serif" font-size="10.00">/crs_map.hpp</text>
</a>
</g>
</g>
<!-- Node11&#45;&gt;Node16 -->
<g id="edge19_Node000011_Node000016" class="edge">
<title>Node11&#45;&gt;Node16</title>
<g id="a_edge19_Node000011_Node000016"><a xlink:title=" ">
<path fill="none" stroke="#63b8ff" d="M690.27,-121.3C722.88,-112.58 772.99,-99.17 813.01,-88.46"/>
<polygon fill="#63b8ff" stroke="#63b8ff" points="813.79,-91.87 822.54,-85.91 811.98,-85.11 813.79,-91.87"/>
</a>
</g>
</g>
<!-- Node21 -->
<g id="Node000021" class="node">
<title>Node21</title>
<g id="a_Node000021"><a xlink:href="profiler_8hpp.html" target="_top" xlink:title=" ">
<polygon fill="white" stroke="#666666" points="664.25,-80.12 548.5,-80.12 548.5,-60.88 664.25,-60.88 664.25,-80.12"/>
<text text-anchor="middle" x="606.38" y="-66.62" font-family="Helvetica,sans-Serif" font-size="10.00">vulpes/utils/profiler.hpp</text>
</a>
</g>
</g>
<!-- Node11&#45;&gt;Node21 -->
<g id="edge27_Node000011_Node000021" class="edge">
<title>Node11&#45;&gt;Node21</title>
<g id="a_edge27_Node000011_Node000021"><a xlink:title=" ">
<path fill="none" stroke="#63b8ff" d="M648.78,-121.43C641.51,-112.87 630.35,-99.73 621.3,-89.07"/>
<polygon fill="#63b8ff" stroke="#63b8ff" points="624.16,-87.04 615.02,-81.68 618.83,-91.57 624.16,-87.04"/>
</a>
</g>
</g>
<!-- Node16&#45;&gt;Node8 -->
<g id="edge24_Node000016_Node000008" class="edge">
<title>Node16&#45;&gt;Node8</title>
<g id="a_edge24_Node000016_Node000008"><a xlink:title=" ">
<path fill="none" stroke="#63b8ff" d="M823.68,-63.98C798.22,-61.32 767.21,-58.1 739.38,-55.25 583.86,-39.34 540.22,-49.69 383.22,-19.23"/>
<polygon fill="#63b8ff" stroke="#63b8ff" points="384.19,-15.85 373.7,-17.36 382.84,-22.72 384.19,-15.85"/>
</a>
</g>
</g>
<!-- Node16&#45;&gt;Node9 -->
<g id="edge26_Node000016_Node000009" class="edge">
<title>Node16&#45;&gt;Node9</title>
<g id="a_edge26_Node000016_Node000009"><a xlink:title=" ">
<path fill="none" stroke="#63b8ff" d="M915.34,-54.8C941.48,-44.93 975.5,-32.09 1000.12,-22.8"/>
<polygon fill="#63b8ff" stroke="#63b8ff" points="1001.17,-26.14 1009.29,-19.34 998.7,-19.59 1001.17,-26.14"/>
</a>
</g>
</g>
<!-- Node16&#45;&gt;Node14 -->
<g id="edge22_Node000016_Node000014" class="edge">
<title>Node16&#45;&gt;Node14</title>
<g id="a_edge22_Node000016_Node000014"><a xlink:title=" ">
<path fill="none" stroke="#63b8ff" d="M866.49,-54.95C861.16,-47.1 854.53,-37.35 848.85,-28.99"/>
<polygon fill="#63b8ff" stroke="#63b8ff" points="851.91,-27.26 843.39,-20.95 846.12,-31.19 851.91,-27.26"/>
</a>
</g>
</g>
<!-- Node17 -->
<g id="Node000017" class="node">
<title>Node17</title>
<g id="a_Node000017"><a xlink:title=" ">
<polygon fill="#e0e0e0" stroke="#999999" points="794.25,-19.25 738.5,-19.25 738.5,0 794.25,0 794.25,-19.25"/>
<text text-anchor="middle" x="766.38" y="-5.75" font-family="Helvetica,sans-Serif" font-size="10.00">algorithm</text>
</a>
</g>
</g>
<!-- Node16&#45;&gt;Node17 -->
<g id="edge20_Node000016_Node000017" class="edge">
<title>Node16&#45;&gt;Node17</title>
<g id="a_edge20_Node000016_Node000017"><a xlink:title=" ">
<path fill="none" stroke="#63b8ff" d="M848.9,-54.8C831.83,-45.66 809.98,-33.97 793.06,-24.91"/>
<polygon fill="#63b8ff" stroke="#63b8ff" points="795.05,-22 784.58,-20.37 791.74,-28.17 795.05,-22"/>
</a>
</g>
</g>
<!-- Node18 -->
<g id="Node000018" class="node">
<title>Node18</title>
<g id="a_Node000018"><a xlink:title=" ">
<polygon fill="#e0e0e0" stroke="#999999" points="1109.25,-19.25 1071.5,-19.25 1071.5,0 1109.25,0 1109.25,-19.25"/>
<text text-anchor="middle" x="1090.38" y="-5.75" font-family="Helvetica,sans-Serif" font-size="10.00">array</text>
</a>
</g>
</g>
<!-- Node16&#45;&gt;Node18 -->
<g id="edge21_Node000016_Node000018" class="edge">
<title>Node16&#45;&gt;Node18</title>
<g id="a_edge21_Node000016_Node000018"><a xlink:title=" ">
<path fill="none" stroke="#63b8ff" d="M928.95,-56.07C963.96,-46.97 1011.22,-34.39 1060.38,-20.05"/>
<polygon fill="#63b8ff" stroke="#63b8ff" points="1061.17,-23.46 1069.78,-17.29 1059.2,-16.75 1061.17,-23.46"/>
</a>
</g>
</g>
<!-- Node19 -->
<g id="Node000019" class="node">
<title>Node19</title>
<g id="a_Node000019"><a xlink:title=" ">
<polygon fill="#e0e0e0" stroke="#999999" points="930,-19.25 878.75,-19.25 878.75,0 930,0 930,-19.25"/>
<text text-anchor="middle" x="904.38" y="-5.75" font-family="Helvetica,sans-Serif" font-size="10.00">ostream</text>
</a>
</g>
</g>
<!-- Node16&#45;&gt;Node19 -->
<g id="edge23_Node000016_Node000019" class="edge">
<title>Node16&#45;&gt;Node19</title>
<g id="a_edge23_Node000016_Node000019"><a xlink:title=" ">
<path fill="none" stroke="#63b8ff" d="M883.3,-54.95C886.86,-47.45 891.26,-38.2 895.12,-30.1"/>
<polygon fill="#63b8ff" stroke="#63b8ff" points="898.27,-31.6 899.41,-21.07 891.95,-28.6 898.27,-31.6"/>
</a>
</g>
</g>
<!-- Node20 -->
<g id="Node000020" class="node">
<title>Node20</title>
<g id="a_Node000020"><a xlink:title=" ">
<polygon fill="#e0e0e0" stroke="#999999" points="993,-19.25 947.75,-19.25 947.75,0 993,0 993,-19.25"/>
<text text-anchor="middle" x="970.38" y="-5.75" font-family="Helvetica,sans-Serif" font-size="10.00">variant</text>
</a>
</g>
</g>
<!-- Node16&#45;&gt;Node20 -->
<g id="edge25_Node000016_Node000020" class="edge">
<title>Node16&#45;&gt;Node20</title>
<g id="a_edge25_Node000016_Node000020"><a xlink:title=" ">
<path fill="none" stroke="#63b8ff" d="M899.61,-54.95C913.79,-46.07 931.87,-34.74 946.21,-25.76"/>
<polygon fill="#63b8ff" stroke="#63b8ff" points="947.98,-28.78 954.6,-20.5 944.27,-22.85 947.98,-28.78"/>
</a>
</g>
</g>
<!-- Node21&#45;&gt;Node4 -->
<g id="edge30_Node000021_Node000004" class="edge">
<title>Node21&#45;&gt;Node4</title>
<g id="a_edge30_Node000021_Node000004"><a xlink:title=" ">
<path fill="none" stroke="#63b8ff" d="M644.47,-60.42C653.88,-58.45 663.95,-56.56 673.38,-55.25 909.41,-22.38 971.66,-46.78 1208.38,-19.25 1213.72,-18.63 1219.35,-17.84 1224.85,-16.99"/>
<polygon fill="#63b8ff" stroke="#63b8ff" points="1225.04,-20.5 1234.35,-15.44 1223.92,-13.59 1225.04,-20.5"/>
</a>
</g>
</g>
<!-- Node21&#45;&gt;Node5 -->
<g id="edge32_Node000021_Node000005" class="edge">
<title>Node21&#45;&gt;Node5</title>
<g id="a_edge32_Node000021_Node000005"><a xlink:title=" ">
<path fill="none" stroke="#63b8ff" d="M564.97,-60.39C556.52,-58.62 547.67,-56.82 539.38,-55.25 447.3,-37.79 420.65,-38.8 326.64,-19.8"/>
<polygon fill="#63b8ff" stroke="#63b8ff" points="327.44,-16.4 316.94,-17.82 326.04,-23.25 327.44,-16.4"/>
</a>
</g>
</g>
<!-- Node21&#45;&gt;Node7 -->
<g id="edge33_Node000021_Node000007" class="edge">
<title>Node21&#45;&gt;Node7</title>
<g id="a_edge33_Node000021_Node000007"><a xlink:title=" ">
<path fill="none" stroke="#63b8ff" d="M566.45,-60.43C557.56,-58.57 548.17,-56.73 539.38,-55.25 416.2,-34.46 380.21,-45.02 255.04,-19.5"/>
<polygon fill="#63b8ff" stroke="#63b8ff" points="255.85,-16.09 245.35,-17.48 254.42,-22.94 255.85,-16.09"/>
</a>
</g>
</g>
<!-- Node21&#45;&gt;Node8 -->
<g id="edge35_Node000021_Node000008" class="edge">
<title>Node21&#45;&gt;Node8</title>
<g id="a_edge35_Node000021_Node000008"><a xlink:title=" ">
<path fill="none" stroke="#63b8ff" d="M564.18,-60.44C513.34,-49.47 429.85,-31.25 383.29,-19.57"/>
<polygon fill="#63b8ff" stroke="#63b8ff" points="384.31,-16.22 373.76,-17.12 382.57,-23 384.31,-16.22"/>
</a>
</g>
</g>
<!-- Node21&#45;&gt;Node9 -->
<g id="edge36_Node000021_Node000009" class="edge">
<title>Node21&#45;&gt;Node9</title>
<g id="a_edge36_Node000021_Node000009"><a xlink:title=" ">
<path fill="none" stroke="#63b8ff" d="M645.93,-60.4C654.92,-58.52 664.45,-56.68 673.38,-55.25 815.06,-32.49 856.06,-46.93 999.56,-19.51"/>
<polygon fill="#63b8ff" stroke="#63b8ff" points="999.89,-23.01 1009.04,-17.66 998.56,-16.14 999.89,-23.01"/>
</a>
</g>
</g>
<!-- Node21&#45;&gt;Node17 -->
<g id="edge28_Node000021_Node000017" class="edge">
<title>Node21&#45;&gt;Node17</title>
<g id="a_edge28_Node000021_Node000017"><a xlink:title=" ">
<path fill="none" stroke="#63b8ff" d="M631.02,-60.43C657.8,-50.58 700.81,-34.75 731.15,-23.59"/>
<polygon fill="#63b8ff" stroke="#63b8ff" points="732.1,-26.97 740.28,-20.23 729.68,-20.4 732.1,-26.97"/>
</a>
</g>
</g>
<!-- Node22 -->
<g id="Node000022" class="node">
<title>Node22</title>
<g id="a_Node000022"><a xlink:title=" ">
<polygon fill="#e0e0e0" stroke="#999999" points="720,-19.25 674.75,-19.25 674.75,0 720,0 720,-19.25"/>
<text text-anchor="middle" x="697.38" y="-5.75" font-family="Helvetica,sans-Serif" font-size="10.00">chrono</text>
</a>
</g>
</g>
<!-- Node21&#45;&gt;Node22 -->
<g id="edge29_Node000021_Node000022" class="edge">
<title>Node21&#45;&gt;Node22</title>
<g id="a_edge29_Node000021_Node000022"><a xlink:title=" ">
<path fill="none" stroke="#63b8ff" d="M620.2,-60.56C634.49,-51.31 657.08,-36.7 674.13,-25.67"/>
<polygon fill="#63b8ff" stroke="#63b8ff" points="675.66,-28.84 682.15,-20.47 671.86,-22.97 675.66,-28.84"/>
</a>
</g>
</g>
<!-- Node23 -->
<g id="Node000023" class="node">
<title>Node23</title>
<g id="a_Node000023"><a xlink:title=" ">
<polygon fill="#e0e0e0" stroke="#999999" points="440.25,-19.25 390.5,-19.25 390.5,0 440.25,0 440.25,-19.25"/>
<text text-anchor="middle" x="415.38" y="-5.75" font-family="Helvetica,sans-Serif" font-size="10.00">iomanip</text>
</a>
</g>
</g>
<!-- Node21&#45;&gt;Node23 -->
<g id="edge31_Node000021_Node000023" class="edge">
<title>Node21&#45;&gt;Node23</title>
<g id="a_edge31_Node000021_Node000023"><a xlink:title=" ">
<path fill="none" stroke="#63b8ff" d="M576.95,-60.43C543.09,-49.99 487.51,-32.86 451.17,-21.66"/>
<polygon fill="#63b8ff" stroke="#63b8ff" points="452.6,-18.44 442.01,-18.83 450.53,-25.13 452.6,-18.44"/>
</a>
</g>
</g>
<!-- Node24 -->
<g id="Node000024" class="node">
<title>Node24</title>
<g id="a_Node000024"><a xlink:title=" ">
<polygon fill="#e0e0e0" stroke="#999999" points="540.75,-19.25 458,-19.25 458,0 540.75,0 540.75,-19.25"/>
<text text-anchor="middle" x="499.38" y="-5.75" font-family="Helvetica,sans-Serif" font-size="10.00">unordered_map</text>
</a>
</g>
</g>
<!-- Node21&#45;&gt;Node24 -->
<g id="edge34_Node000021_Node000024" class="edge">
<title>Node21&#45;&gt;Node24</title>
<g id="a_edge34_Node000021_Node000024"><a xlink:title=" ">
<path fill="none" stroke="#63b8ff" d="M590.12,-60.56C573,-51.13 545.76,-36.15 525.59,-25.05"/>
<polygon fill="#63b8ff" stroke="#63b8ff" points="527.55,-22.13 517.1,-20.38 524.18,-28.27 527.55,-22.13"/>
</a>
</g>
</g>
<!-- Node25 -->
<g id="Node000025" class="node">
<title>Node25</title>
<g id="a_Node000025"><a xlink:title=" ">
<polygon fill="#e0e0e0" stroke="#999999" points="656.25,-19.25 558.5,-19.25 558.5,0 656.25,0 656.25,-19.25"/>
<text text-anchor="middle" x="607.38" y="-5.75" font-family="Helvetica,sans-Serif" font-size="10.00">nlohmann/json.hpp</text>
</a>
</g>
</g>
<!-- Node21&#45;&gt;Node25 -->
<g id="edge37_Node000021_Node000025" class="edge">
<title>Node21&#45;&gt;Node25</title>
<g id="a_edge37_Node000021_Node000025"><a xlink:title=" ">
<path fill="none" stroke="#63b8ff" d="M606.53,-60.56C606.66,-52.78 606.86,-41.2 607.03,-31.16"/>
<polygon fill="#63b8ff" stroke="#63b8ff" points="610.53,-31.22 607.2,-21.16 603.53,-31.1 610.53,-31.22"/>
</a>
</g>
</g>
<!-- Node26&#45;&gt;Node3 -->
<g id="edge39_Node000026_Node000003" class="edge">
<title>Node26&#45;&gt;Node3</title>
<g id="a_edge39_Node000026_Node000003"><a xlink:title=" ">
<path fill="none" stroke="#63b8ff" d="M561.64,-231.87C541.02,-222.89 508.48,-208.69 480.38,-196.25 461.23,-187.78 457.43,-183.01 437.38,-177 358.02,-153.22 261.7,-141.25 206.98,-135.96"/>
<polygon fill="#63b8ff" stroke="#63b8ff" points="207.41,-132.48 197.13,-135.04 206.76,-139.45 207.41,-132.48"/>
</a>
</g>
</g>
<!-- Node26&#45;&gt;Node4 -->
<g id="edge42_Node000026_Node000004" class="edge">
<title>Node26&#45;&gt;Node4</title>
<g id="a_edge42_Node000026_Node000004"><a xlink:title=" ">
<path fill="none" stroke="#63b8ff" d="M634.06,-234.96C684.39,-228.4 762.71,-216.03 828.38,-196.25 987.19,-148.4 1166.05,-59.57 1233.08,-24.96"/>
<polygon fill="#63b8ff" stroke="#63b8ff" points="1234.61,-28.11 1241.87,-20.39 1231.38,-21.89 1234.61,-28.11"/>
</a>
</g>
</g>
<!-- Node26&#45;&gt;Node6 -->
<g id="edge43_Node000026_Node000006" class="edge">
<title>Node26&#45;&gt;Node6</title>
<g id="a_edge43_Node000026_Node000006"><a xlink:title=" ">
<path fill="none" stroke="#63b8ff" d="M551.84,-231.84C520.66,-222.62 472.25,-208.29 439.02,-198.46"/>
<polygon fill="#63b8ff" stroke="#63b8ff" points="440.41,-195.23 429.83,-195.75 438.42,-201.94 440.41,-195.23"/>
</a>
</g>
</g>
<!-- Node26&#45;&gt;Node7 -->
<g id="edge44_Node000026_Node000007" class="edge">
<title>Node26&#45;&gt;Node7</title>
<g id="a_edge44_Node000026_Node000007"><a xlink:title=" ">
<path fill="none" stroke="#63b8ff" d="M568.3,-231.85C513.68,-196.81 315.34,-69.61 246.84,-25.67"/>
<polygon fill="#63b8ff" stroke="#63b8ff" points="248.93,-22.86 238.62,-20.41 245.15,-28.75 248.93,-22.86"/>
</a>
</g>
</g>
<!-- Node26&#45;&gt;Node8 -->
<g id="edge45_Node000026_Node000008" class="edge">
<title>Node26&#45;&gt;Node8</title>
<g id="a_edge45_Node000026_Node000008"><a xlink:title=" ">
<path fill="none" stroke="#63b8ff" d="M587.64,-232.09C594.59,-219.28 604.88,-195.02 595.38,-177 583.2,-153.91 435.78,-61.77 376.67,-25.45"/>
<polygon fill="#63b8ff" stroke="#63b8ff" points="378.67,-22.57 368.31,-20.33 375.01,-28.54 378.67,-22.57"/>
</a>
</g>
</g>
<!-- Node26&#45;&gt;Node9 -->
<g id="edge46_Node000026_Node000009" class="edge">
<title>Node26&#45;&gt;Node9</title>
<g id="a_edge46_Node000026_Node000009"><a xlink:title=" ">
<path fill="none" stroke="#63b8ff" d="M623.79,-231.78C698.74,-213.8 859.41,-168.13 970.38,-85.75 991.51,-70.06 1009.87,-45.67 1021.01,-28.96"/>
<polygon fill="#63b8ff" stroke="#63b8ff" points="1023.69,-31.27 1026.16,-20.97 1017.8,-27.48 1023.69,-31.27"/>
</a>
</g>
</g>
<!-- Node26&#45;&gt;Node10 -->
<g id="edge48_Node000026_Node000010" class="edge">
<title>Node26&#45;&gt;Node10</title>
<g id="a_edge48_Node000026_Node000010"><a xlink:title=" ">
<path fill="none" stroke="#63b8ff" d="M530.51,-233.25C468.25,-224.09 363.46,-208.67 293.13,-198.33"/>
<polygon fill="#63b8ff" stroke="#63b8ff" points="294.05,-194.92 283.64,-196.93 293.03,-201.85 294.05,-194.92"/>
</a>
</g>
</g>
<!-- Node26&#45;&gt;Node11 -->
<g id="edge49_Node000026_Node000011" class="edge">
<title>Node26&#45;&gt;Node11</title>
<g id="a_edge49_Node000026_Node000011"><a xlink:title=" ">
<path fill="none" stroke="#63b8ff" d="M593.81,-231.97C603.94,-223.62 618.6,-210.33 628.38,-196.25 637.89,-182.54 645.28,-165.08 650.07,-151.88"/>
<polygon fill="#63b8ff" stroke="#63b8ff" points="653.31,-153.21 653.23,-142.62 646.69,-150.95 653.31,-153.21"/>
</a>
</g>
</g>
<!-- Node26&#45;&gt;Node15 -->
<g id="edge47_Node000026_Node000015" class="edge">
<title>Node26&#45;&gt;Node15</title>
<g id="a_edge47_Node000026_Node000015"><a xlink:title=" ">
<path fill="none" stroke="#63b8ff" d="M634.27,-232.45C675.95,-224.99 735.69,-212.73 786.38,-196.25 898.44,-159.82 922.66,-139.77 1027.38,-85.75 1066.31,-65.66 1110.59,-40.82 1137.76,-25.34"/>
<polygon fill="#63b8ff" stroke="#63b8ff" points="1139.36,-28.46 1146.31,-20.46 1135.89,-22.38 1139.36,-28.46"/>
</a>
</g>
</g>
<!-- Node26&#45;&gt;Node17 -->
<g id="edge41_Node000026_Node000017" class="edge">
<title>Node26&#45;&gt;Node17</title>
<g id="a_edge41_Node000026_Node000017"><a xlink:title=" ">
<path fill="none" stroke="#63b8ff" d="M608.42,-231.77C643.92,-217.95 706.8,-188.19 739.38,-141 762.61,-107.34 766.63,-57.91 766.89,-30.6"/>
<polygon fill="#63b8ff" stroke="#63b8ff" points="770.39,-30.93 766.81,-20.96 763.39,-30.99 770.39,-30.93"/>
</a>
</g>
</g>
<!-- Node27 -->
<g id="Node000027" class="node">
<title>Node27</title>
<g id="a_Node000027"><a xlink:title=" ">
<polygon fill="#e0e0e0" stroke="#999999" points="586.38,-196.25 522.38,-196.25 522.38,-177 586.38,-177 586.38,-196.25"/>
<text text-anchor="middle" x="554.38" y="-182.75" font-family="Helvetica,sans-Serif" font-size="10.00">petscvec.h</text>
</a>
</g>
</g>
<!-- Node26&#45;&gt;Node27 -->
<g id="edge40_Node000026_Node000027" class="edge">
<title>Node26&#45;&gt;Node27</title>
<g id="a_edge40_Node000026_Node000027"><a xlink:title=" ">
<path fill="none" stroke="#63b8ff" d="M577.75,-232.08C574.13,-225.19 568.95,-215.34 564.38,-206.66"/>
<polygon fill="#63b8ff" stroke="#63b8ff" points="567.56,-205.17 559.8,-197.95 561.36,-208.43 567.56,-205.17"/>
</a>
</g>
</g>
<!-- Node28&#45;&gt;Node4 -->
<g id="edge52_Node000028_Node000004" class="edge">
<title>Node28&#45;&gt;Node4</title>
<g id="a_edge52_Node000028_Node000004"><a xlink:title=" ">
<path fill="none" stroke="#63b8ff" d="M1242.8,-121.37C1245.83,-102.3 1252.95,-57.41 1257.14,-31.01"/>
<polygon fill="#63b8ff" stroke="#63b8ff" points="1260.58,-31.65 1258.69,-21.23 1253.67,-30.55 1260.58,-31.65"/>
</a>
</g>
</g>
<!-- Node28&#45;&gt;Node9 -->
<g id="edge53_Node000028_Node000009" class="edge">
<title>Node28&#45;&gt;Node9</title>
<g id="a_edge53_Node000028_Node000009"><a xlink:title=" ">
<path fill="none" stroke="#63b8ff" d="M1218.92,-121.25C1198.93,-112.85 1169.11,-99.62 1144.38,-85.75 1111.43,-67.28 1075.54,-42.26 1053.49,-26.28"/>
<polygon fill="#63b8ff" stroke="#63b8ff" points="1055.76,-23.6 1045.62,-20.52 1051.62,-29.25 1055.76,-23.6"/>
</a>
</g>
</g>
<!-- Node28&#45;&gt;Node18 -->
<g id="edge51_Node000028_Node000018" class="edge">
<title>Node28&#45;&gt;Node18</title>
<g id="a_edge51_Node000028_Node000018"><a xlink:title=" ">
<path fill="none" stroke="#63b8ff" d="M1230.03,-121.37C1204.67,-101.26 1143.1,-52.44 1110.85,-26.86"/>
<polygon fill="#63b8ff" stroke="#63b8ff" points="1113.05,-24.14 1103.04,-20.67 1108.7,-29.63 1113.05,-24.14"/>
</a>
</g>
</g>
<!-- Node29 -->
<g id="Node000029" class="node">
<title>Node29</title>
<g id="a_Node000029"><a xlink:href="vmath_8hpp.html" target="_top" xlink:title=" ">
<polygon fill="white" stroke="#666666" points="1475.5,-80.12 1361.25,-80.12 1361.25,-60.88 1475.5,-60.88 1475.5,-80.12"/>
<text text-anchor="middle" x="1418.38" y="-66.62" font-family="Helvetica,sans-Serif" font-size="10.00">vulpes/utils/vmath.hpp</text>
</a>
</g>
</g>
<!-- Node28&#45;&gt;Node29 -->
<g id="edge54_Node000028_Node000029" class="edge">
<title>Node28&#45;&gt;Node29</title>
<g id="a_edge54_Node000028_Node000029"><a xlink:title=" ">
<path fill="none" stroke="#63b8ff" d="M1268.64,-121.3C1298.53,-111.36 1346.68,-95.35 1380.28,-84.17"/>
<polygon fill="#63b8ff" stroke="#63b8ff" points="1381.26,-87.54 1389.64,-81.06 1379.05,-80.89 1381.26,-87.54"/>
</a>
</g>
</g>
<!-- Node29&#45;&gt;Node4 -->
<g id="edge56_Node000029_Node000004" class="edge">
<title>Node29&#45;&gt;Node4</title>
<g id="a_edge56_Node000029_Node000004"><a xlink:title=" ">
<path fill="none" stroke="#63b8ff" d="M1394.03,-60.43C1367.59,-50.58 1325.12,-34.75 1295.16,-23.59"/>
<polygon fill="#63b8ff" stroke="#63b8ff" points="1296.75,-20.45 1286.16,-20.23 1294.31,-27.01 1296.75,-20.45"/>
</a>
</g>
</g>
<!-- Node29&#45;&gt;Node15 -->
<g id="edge60_Node000029_Node000015" class="edge">
<title>Node29&#45;&gt;Node15</title>
<g id="a_edge60_Node000029_Node000015"><a xlink:title=" ">
<path fill="none" stroke="#63b8ff" d="M1379.09,-60.43C1333.82,-49.98 1259.45,-32.81 1210.95,-21.61"/>
<polygon fill="#63b8ff" stroke="#63b8ff" points="1211.82,-18.22 1201.29,-19.38 1210.24,-25.04 1211.82,-18.22"/>
</a>
</g>
</g>
<!-- Node30 -->
<g id="Node000030" class="node">
<title>Node30</title>
<g id="a_Node000030"><a xlink:title=" ">
<polygon fill="#e0e0e0" stroke="#999999" points="1566.12,-19.25 1512.62,-19.25 1512.62,0 1566.12,0 1566.12,-19.25"/>
<text text-anchor="middle" x="1539.38" y="-5.75" font-family="Helvetica,sans-Serif" font-size="10.00">gmpxx.h</text>
</a>
</g>
</g>
<!-- Node29&#45;&gt;Node30 -->
<g id="edge55_Node000029_Node000030" class="edge">
<title>Node29&#45;&gt;Node30</title>
<g id="a_edge55_Node000029_Node000030"><a xlink:title=" ">
<path fill="none" stroke="#63b8ff" d="M1437.02,-60.43C1456.7,-50.85 1487.99,-35.63 1510.79,-24.53"/>
<polygon fill="#63b8ff" stroke="#63b8ff" points="1512.09,-27.79 1519.55,-20.27 1509.03,-21.5 1512.09,-27.79"/>
</a>
</g>
</g>
<!-- Node31 -->
<g id="Node000031" class="node">
<title>Node31</title>
<g id="a_Node000031"><a xlink:title=" ">
<polygon fill="#e0e0e0" stroke="#999999" points="1357,-19.25 1311.75,-19.25 1311.75,0 1357,0 1357,-19.25"/>
<text text-anchor="middle" x="1334.38" y="-5.75" font-family="Helvetica,sans-Serif" font-size="10.00">cstdint</text>
</a>
</g>
</g>
<!-- Node29&#45;&gt;Node31 -->
<g id="edge57_Node000029_Node000031" class="edge">
<title>Node29&#45;&gt;Node31</title>
<g id="a_edge57_Node000029_Node000031"><a xlink:title=" ">
<path fill="none" stroke="#63b8ff" d="M1405.62,-60.56C1392.54,-51.39 1371.96,-36.97 1356.28,-25.98"/>
<polygon fill="#63b8ff" stroke="#63b8ff" points="1358.69,-23.39 1348.49,-20.52 1354.67,-29.13 1358.69,-23.39"/>
</a>
</g>
</g>
<!-- Node32 -->
<g id="Node000032" class="node">
<title>Node32</title>
<g id="a_Node000032"><a xlink:title=" ">
<polygon fill="#e0e0e0" stroke="#999999" points="1414,-19.25 1374.75,-19.25 1374.75,0 1414,0 1414,-19.25"/>
<text text-anchor="middle" x="1394.38" y="-5.75" font-family="Helvetica,sans-Serif" font-size="10.00">limits</text>
</a>
</g>
</g>
<!-- Node29&#45;&gt;Node32 -->
<g id="edge58_Node000029_Node000032" class="edge">
<title>Node29&#45;&gt;Node32</title>
<g id="a_edge58_Node000029_Node000032"><a xlink:title=" ">
<path fill="none" stroke="#63b8ff" d="M1414.73,-60.56C1411.45,-52.52 1406.52,-40.43 1402.34,-30.16"/>
<polygon fill="#63b8ff" stroke="#63b8ff" points="1405.64,-28.99 1398.63,-21.05 1399.16,-31.63 1405.64,-28.99"/>
</a>
</g>
</g>
<!-- Node33 -->
<g id="Node000033" class="node">
<title>Node33</title>
<g id="a_Node000033"><a xlink:title=" ">
<polygon fill="#e0e0e0" stroke="#999999" points="1494.25,-19.25 1432.5,-19.25 1432.5,0 1494.25,0 1494.25,-19.25"/>
<text text-anchor="middle" x="1463.38" y="-5.75" font-family="Helvetica,sans-Serif" font-size="10.00">type_traits</text>
</a>
</g>
</g>
<!-- Node29&#45;&gt;Node33 -->
<g id="edge59_Node000029_Node000033" class="edge">
<title>Node29&#45;&gt;Node33</title>
<g id="a_edge59_Node000029_Node000033"><a xlink:title=" ">
<path fill="none" stroke="#63b8ff" d="M1425.21,-60.56C1431.69,-52.09 1441.6,-39.12 1449.7,-28.52"/>
<polygon fill="#63b8ff" stroke="#63b8ff" points="1452.27,-30.92 1455.56,-20.85 1446.7,-26.67 1452.27,-30.92"/>
</a>
</g>
</g>
</g>
</svg>
