<?xml version="1.0" encoding="UTF-8" standalone="no"?>
<!DOCTYPE svg PUBLIC "-//W3C//DTD SVG 1.1//EN"
 "http://www.w3.org/Graphics/SVG/1.1/DTD/svg11.dtd">
<!-- Generated by graphviz version 12.2.1 (20241206.2353)
 -->
<!-- Title: vulpes::scipy::BaseMinkowskiDistPp&lt; Dist1D, Dim &gt; Pages: 1 -->
<!--zoomable 137 -->

<svg id="main" version="1.1" xmlns="http://www.w3.org/2000/svg" xmlns:xlink="http://www.w3.org/1999/xlink" xml:space="preserve" onload="init(evt)">
<style type="text/css"><![CDATA[
.node, .edge {opacity: 0.7;}
.node.selected, .edge.selected {opacity: 1;}
.edge:hover path { stroke: red; }
.edge:hover polygon { stroke: red; fill: red; }
]]></style>

<defs>
  <circle id="rim" cx="0" cy="0" r="7"/>
  <circle id="rim2" cx="0" cy="0" r="3.5"/>
  <g id="zoomPlus">
    <use xlink:href="#rim" fill="#404040"><set attributeName="fill" to="#808080" begin="zoomplus.mouseover" end="zoomplus.mouseout"/></use>
    <path d="M-4,0h8M0,-4v8" fill="none" stroke="white" stroke-width="1.5" pointer-events="none"/>
  </g>
  <g id="zoomMin">
    <use xlink:href="#rim" fill="#404040"><set attributeName="fill" to="#808080" begin="zoomminus.mouseover" end="zoomminus.mouseout"/></use>
    <path d="M-4,0h8" fill="none" stroke="white" stroke-width="1.5" pointer-events="none"/>
  </g>
  <g id="arrowUp" transform="translate(30 24)">
    <use xlink:href="#rim"/>
    <path pointer-events="none" fill="none" stroke="white" stroke-width="1.5" d="M0,-3.0v7 M-2.5,-0.5L0,-3.0L2.5,-0.5"/>
  </g>
  <g id="arrowRight" transform="rotate(90) translate(36 -43)">
    <use xlink:href="#rim"/>
    <path pointer-events="none" fill="none" stroke="white" stroke-width="1.5" d="M0,-3.0v7 M-2.5,-0.5L0,-3.0L2.5,-0.5"/>
  </g>
  <g id="arrowDown" transform="rotate(180) translate(-30 -48)">
    <use xlink:href="#rim"/>
    <path pointer-events="none" fill="none" stroke="white" stroke-width="1.5" d="M0,-3.0v7 M-2.5,-0.5L0,-3.0L2.5,-0.5"/>
  </g>
  <g id="arrowLeft" transform="rotate(270) translate(-36 17)">
    <use xlink:href="#rim"/>
    <path pointer-events="none" fill="none" stroke="white" stroke-width="1.5" d="M0,-3.0v7 M-2.5,-0.5L0,-3.0L2.5,-0.5"/>
  </g>
  <g id="resetDef">
    <use xlink:href="#rim2" fill="#404040"><set attributeName="fill" to="#808080" begin="reset.mouseover" end="reset.mouseout"/></use>
  </g>
</defs>
<script type="application/ecmascript">
var viewWidth = 504;
var viewHeight = 137;
var sectionId = 'dynsection-0';
</script>
<script type="application/ecmascript" xlink:href="svg.min.js"/>
<svg id="graph" class="graph">
<g id="viewport">
<title>vulpes::scipy::BaseMinkowskiDistPp&lt; Dist1D, Dim &gt;</title>
<!-- Node1 -->
<g id="Node000001" class="node">
<title>Node1</title>
<g id="a_Node000001"><a xlink:title=" ">
<polygon fill="#999999" stroke="#666666" points="148.75,-79.5 0,-79.5 0,-49 148.75,-49 148.75,-79.5"/>
<text text-anchor="start" x="8" y="-66" font-family="Helvetica,sans-Serif" font-size="10.00">vulpes::scipy::BaseMinkowski</text>
<text text-anchor="middle" x="74.38" y="-54.75" font-family="Helvetica,sans-Serif" font-size="10.00">DistPp&lt; Dist1D, Dim &gt;</text>
</a>
</g>
</g>
<!-- Node2 -->
<g id="Node000002" class="node">
<title>Node2</title>
<g id="a_Node000002"><a xlink:href="structvulpes_1_1scipy_1_1BaseMinkowskiDistP1.html" target="_top" xlink:title=" ">
<polygon fill="white" stroke="#666666" points="333.5,-128.5 184.75,-128.5 184.75,-98 333.5,-98 333.5,-128.5"/>
<text text-anchor="start" x="192.75" y="-115" font-family="Helvetica,sans-Serif" font-size="10.00">vulpes::scipy::BaseMinkowski</text>
<text text-anchor="middle" x="259.12" y="-103.75" font-family="Helvetica,sans-Serif" font-size="10.00">DistP1&lt; Dist1D, Dim &gt;</text>
</a>
</g>
</g>
<!-- Node1&#45;&gt;Node2 -->
<g id="edge1_Node000001_Node000002" class="edge">
<title>Node1&#45;&gt;Node2</title>
<g id="a_edge1_Node000001_Node000002"><a xlink:title=" ">
<path fill="none" stroke="#63b8ff" d="M144.98,-82.91C162.99,-87.74 182.19,-92.89 199.57,-97.55"/>
<polygon fill="#63b8ff" stroke="#63b8ff" points="145.98,-79.56 135.41,-80.35 144.17,-86.32 145.98,-79.56"/>
</a>
</g>
</g>
<!-- Node3 -->
<g id="Node000003" class="node">
<title>Node3</title>
<g id="a_Node000003"><a xlink:href="structvulpes_1_1scipy_1_1BaseMinkowskiDistP2.html" target="_top" xlink:title=" ">
<polygon fill="white" stroke="#666666" points="333.5,-79.5 184.75,-79.5 184.75,-49 333.5,-49 333.5,-79.5"/>
<text text-anchor="start" x="192.75" y="-66" font-family="Helvetica,sans-Serif" font-size="10.00">vulpes::scipy::BaseMinkowski</text>
<text text-anchor="middle" x="259.12" y="-54.75" font-family="Helvetica,sans-Serif" font-size="10.00">DistP2&lt; Dist1D, Dim &gt;</text>
</a>
</g>
</g>
<!-- Node1&#45;&gt;Node3 -->
<g id="edge2_Node000001_Node000003" class="edge">
<title>Node1&#45;&gt;Node3</title>
<g id="a_edge2_Node000001_Node000003"><a xlink:title=" ">
<path fill="none" stroke="#63b8ff" d="M160.69,-64.25C168.59,-64.25 176.56,-64.25 184.34,-64.25"/>
<polygon fill="#63b8ff" stroke="#63b8ff" points="160.69,-60.75 150.69,-64.25 160.69,-67.75 160.69,-60.75"/>
</a>
</g>
</g>
<!-- Node5 -->
<g id="Node000005" class="node">
<title>Node5</title>
<g id="a_Node000005"><a xlink:href="structvulpes_1_1scipy_1_1BaseMinkowskiDistPinf.html" target="_top" xlink:title=" ">
<polygon fill="white" stroke="#666666" points="333.5,-30.5 184.75,-30.5 184.75,0 333.5,0 333.5,-30.5"/>
<text text-anchor="start" x="192.75" y="-17" font-family="Helvetica,sans-Serif" font-size="10.00">vulpes::scipy::BaseMinkowski</text>
<text text-anchor="middle" x="259.12" y="-5.75" font-family="Helvetica,sans-Serif" font-size="10.00">DistPinf&lt; Dist1D, Dim &gt;</text>
</a>
</g>
</g>
<!-- Node1&#45;&gt;Node5 -->
<g id="edge4_Node000001_Node000005" class="edge">
<title>Node1&#45;&gt;Node5</title>
<g id="a_edge4_Node000001_Node000005"><a xlink:title=" ">
<path fill="none" stroke="#63b8ff" d="M144.98,-45.59C162.99,-40.76 182.19,-35.61 199.57,-30.95"/>
<polygon fill="#63b8ff" stroke="#63b8ff" points="144.17,-42.18 135.41,-48.15 145.98,-48.94 144.17,-42.18"/>
</a>
</g>
</g>
<!-- Node4 -->
<g id="Node000004" class="node">
<title>Node4</title>
<g id="a_Node000004"><a xlink:href="structvulpes_1_1scipy_1_1MinkowskiDistP2.html" target="_top" xlink:title=" ">
<polygon fill="white" stroke="#666666" points="495.75,-79.5 369.5,-79.5 369.5,-49 495.75,-49 495.75,-79.5"/>
<text text-anchor="start" x="377.5" y="-66" font-family="Helvetica,sans-Serif" font-size="10.00">vulpes::scipy::Minkowski</text>
<text text-anchor="middle" x="432.62" y="-54.75" font-family="Helvetica,sans-Serif" font-size="10.00">DistP2&lt; Dim &gt;</text>
</a>
</g>
</g>
<!-- Node3&#45;&gt;Node4 -->
<g id="edge3_Node000003_Node000004" class="edge">
<title>Node3&#45;&gt;Node4</title>
<g id="a_edge3_Node000003_Node000004"><a xlink:title=" ">
<path fill="none" stroke="#63b8ff" d="M345.17,-64.25C353.2,-64.25 361.24,-64.25 369,-64.25"/>
<polygon fill="#63b8ff" stroke="#63b8ff" points="345.37,-60.75 335.37,-64.25 345.37,-67.75 345.37,-60.75"/>
</a>
</g>
</g>
</g>
</svg>

<g id="navigator" transform="translate(0 0)" fill="#404254">
  <rect fill="#f2f5e9" fill-opacity="0.5" stroke="#606060" stroke-width=".5" x="0" y="0" width="60" height="60"/>
  <use id="zoomplus" xlink:href="#zoomPlus" x="17" y="9" onmousedown="handleZoom(evt,'in')"/>
  <use id="zoomminus" xlink:href="#zoomMin" x="42" y="9" onmousedown="handleZoom(evt,'out')"/>
  <use id="reset" xlink:href="#resetDef" x="30" y="36" onmousedown="handleReset()"/>
   <use id="arrowup" xlink:href="#arrowUp" x="0" y="0" onmousedown="handlePan(0,-1)"/>
  <use id="arrowright" xlink:href="#arrowRight" x="0" y="0" onmousedown="handlePan(1,0)"/>
  <use id="arrowdown" xlink:href="#arrowDown" x="0" y="0" onmousedown="handlePan(0,1)"/>
  <use id="arrowleft" xlink:href="#arrowLeft" x="0" y="0" onmousedown="handlePan(-1,0)"/>
</g>
<svg viewBox="0 0 15 15" width="100%" height="30px" preserveAspectRatio="xMaxYMin meet">
 <g id="arrow_out" transform="scale(0.3 0.3)">
  <a xlink:href="structvulpes_1_1scipy_1_1BaseMinkowskiDistPp__inherit__graph_org.svg" target="_base">
   <rect id="button" ry="5" rx="5" y="6" x="6" height="38" width="38"
        fill="#f2f5e9" fill-opacity="0.5" stroke="#606060" stroke-width="1.0"/>
   <path id="arrow"
     d="M 11.500037,31.436501 C 11.940474,20.09759 22.043105,11.32322 32.158766,21.979434 L 37.068811,17.246167 C 37.068811,17.246167 37.088388,32 37.088388,32 L 22.160133,31.978069 C 22.160133,31.978069 26.997745,27.140456 26.997745,27.140456 C 18.528582,18.264221 13.291696,25.230495 11.500037,31.436501 z"
     style="fill:#404040;"/>
  </a>
 </g>
</svg>

<style type='text/css'>
<![CDATA[
[data-mouse-over-selected='false'] { opacity: 0.7; }
[data-mouse-over-selected='true']  { opacity: 1.0; }
]]>
</style>
<script type="application/ecmascript"><![CDATA[
document.addEventListener('DOMContentLoaded', (event) => {
  highlightEdges();
  highlightAdjacentNodes();
});
]]></script>
</svg>
