<?xml version="1.0" encoding="UTF-8" standalone="no"?>
<!DOCTYPE svg PUBLIC "-//W3C//DTD SVG 1.1//EN"
 "http://www.w3.org/Graphics/SVG/1.1/DTD/svg11.dtd">
<!-- Generated by graphviz version 12.2.1 (20241206.2353)
 -->
<!-- Title: vulpes::timeintegration::CeschinoKunzmann4IMEX Pages: 1 -->
<svg width="162pt" height="194pt"
 viewBox="0.00 0.00 162.00 194.00" xmlns="http://www.w3.org/2000/svg" xmlns:xlink="http://www.w3.org/1999/xlink">
<g id="graph0" class="graph" transform="scale(1 1) rotate(0) translate(4 190)">
<title>vulpes::timeintegration::CeschinoKunzmann4IMEX</title>
<!-- Node1 -->
<g id="Node000001" class="node">
<title>Node1</title>
<g id="a_Node000001"><a xlink:title=" ">
<polygon fill="#999999" stroke="#666666" points="146.88,-30.5 7.12,-30.5 7.12,0 146.88,0 146.88,-30.5"/>
<text text-anchor="start" x="15.12" y="-17" font-family="Helvetica,sans-Serif" font-size="10.00">vulpes::timeintegration</text>
<text text-anchor="middle" x="77" y="-5.75" font-family="Helvetica,sans-Serif" font-size="10.00">::CeschinoKunzmann4IMEX</text>
</a>
</g>
</g>
<!-- Node2 -->
<g id="Node000002" class="node">
<title>Node2</title>
<g id="a_Node000002"><a xlink:href="structvulpes_1_1timeintegration_1_1ImplicitButcherIMEX.html" target="_top" xlink:title=" ">
<polygon fill="white" stroke="#666666" points="140.5,-108.25 13.5,-108.25 13.5,-66.5 140.5,-66.5 140.5,-108.25"/>
<text text-anchor="start" x="21.5" y="-94.75" font-family="Helvetica,sans-Serif" font-size="10.00">vulpes::timeintegration</text>
<text text-anchor="start" x="21.5" y="-83.5" font-family="Helvetica,sans-Serif" font-size="10.00">::ImplicitButcherIMEX</text>
<text text-anchor="middle" x="77" y="-72.25" font-family="Helvetica,sans-Serif" font-size="10.00">&lt; CeschinoKunzmann4 &gt;</text>
</a>
</g>
</g>
<!-- Node2&#45;&gt;Node1 -->
<g id="edge1_Node000001_Node000002" class="edge">
<title>Node2&#45;&gt;Node1</title>
<g id="a_edge1_Node000001_Node000002"><a xlink:title=" ">
<path fill="none" stroke="#63b8ff" d="M77,-54.63C77,-46.27 77,-37.65 77,-30.7"/>
<polygon fill="#63b8ff" stroke="#63b8ff" points="73.5,-54.58 77,-64.58 80.5,-54.58 73.5,-54.58"/>
</a>
</g>
</g>
<!-- Node3 -->
<g id="Node000003" class="node">
<title>Node3</title>
<g id="a_Node000003"><a xlink:href="structvulpes_1_1timeintegration_1_1ButcherTableIMEX.html" target="_top" xlink:title=" ">
<polygon fill="white" stroke="#666666" points="154,-186 0,-186 0,-144.25 154,-144.25 154,-186"/>
<text text-anchor="start" x="8" y="-172.5" font-family="Helvetica,sans-Serif" font-size="10.00">vulpes::timeintegration</text>
<text text-anchor="start" x="8" y="-161.25" font-family="Helvetica,sans-Serif" font-size="10.00">::ButcherTableIMEX&lt; Ceschino</text>
<text text-anchor="middle" x="77" y="-150" font-family="Helvetica,sans-Serif" font-size="10.00">Kunzmann4::n_stages+1 &gt;</text>
</a>
</g>
</g>
<!-- Node3&#45;&gt;Node2 -->
<g id="edge2_Node000002_Node000003" class="edge">
<title>Node3&#45;&gt;Node2</title>
<g id="a_edge2_Node000002_Node000003"><a xlink:title=" ">
<path fill="none" stroke="#63b8ff" d="M77,-132.5C77,-124.46 77,-116.04 77,-108.73"/>
<polygon fill="#63b8ff" stroke="#63b8ff" points="73.5,-132.31 77,-142.31 80.5,-132.31 73.5,-132.31"/>
</a>
</g>
</g>
</g>
</svg>
