<?xml version="1.0" encoding="UTF-8" standalone="no"?>
<!DOCTYPE svg PUBLIC "-//W3C//DTD SVG 1.1//EN"
 "http://www.w3.org/Graphics/SVG/1.1/DTD/svg11.dtd">
<!-- Generated by graphviz version 12.2.1 (20241206.2353)
 -->
<!-- Title: vulpes::scipy::ckdtree&lt; Dim &gt; Pages: 1 -->
<svg width="192pt" height="108pt"
 viewBox="0.00 0.00 192.00 108.25" xmlns="http://www.w3.org/2000/svg" xmlns:xlink="http://www.w3.org/1999/xlink">
<g id="graph0" class="graph" transform="scale(1 1) rotate(0) translate(4 104.25)">
<title>vulpes::scipy::ckdtree&lt; Dim &gt;</title>
<!-- Node1 -->
<g id="Node000001" class="node">
<title>Node1</title>
<g id="a_Node000001"><a xlink:title=" ">
<polygon fill="#999999" stroke="#666666" points="122.5,-30.5 10.5,-30.5 10.5,0 122.5,0 122.5,-30.5"/>
<text text-anchor="start" x="18.5" y="-17" font-family="Helvetica,sans-Serif" font-size="10.00">vulpes::scipy::ckdtree</text>
<text text-anchor="middle" x="66.5" y="-5.75" font-family="Helvetica,sans-Serif" font-size="10.00">&lt; Dim &gt;</text>
</a>
</g>
</g>
<!-- Node2 -->
<g id="Node000002" class="node">
<title>Node2</title>
<g id="a_Node000002"><a xlink:href="structvulpes_1_1scipy_1_1ckdtreenode.html" target="_top" xlink:title=" ">
<polygon fill="white" stroke="#666666" points="133,-98.62 0,-98.62 0,-79.38 133,-79.38 133,-98.62"/>
<text text-anchor="middle" x="66.5" y="-85.12" font-family="Helvetica,sans-Serif" font-size="10.00">vulpes::scipy::ckdtreenode</text>
</a>
</g>
</g>
<!-- Node2&#45;&gt;Node1 -->
<g id="edge1_Node000001_Node000002" class="edge">
<title>Node2&#45;&gt;Node1</title>
<g id="a_edge1_Node000001_Node000002"><a xlink:title=" ">
<path fill="none" stroke="#9a32cd" stroke-dasharray="5,2" d="M66.5,-67.62C66.5,-55.94 66.5,-41.56 66.5,-30.99"/>
<polygon fill="#9a32cd" stroke="#9a32cd" points="63,-67.4 66.5,-77.4 70,-67.4 63,-67.4"/>
</a>
</g>
<text text-anchor="middle" x="78.88" y="-50.25" font-family="Helvetica,sans-Serif" font-size="10.00" fill="grey"> ctree</text>
</g>
<!-- Node2&#45;&gt;Node2 -->
<g id="edge2_Node000002_Node000002" class="edge">
<title>Node2&#45;&gt;Node2</title>
<g id="a_edge2_Node000002_Node000002"><a xlink:title=" ">
<path fill="none" stroke="#9a32cd" stroke-dasharray="5,2" d="M144.6,-93.27C148.62,-92.22 151,-90.79 151,-89 151,-85.9 143.88,-83.9 133.44,-83.01"/>
<polygon fill="#9a32cd" stroke="#9a32cd" points="144.29,-89.78 134.94,-94.76 145.35,-96.7 144.29,-89.78"/>
</a>
</g>
<text text-anchor="middle" x="167.5" y="-90.75" font-family="Helvetica,sans-Serif" font-size="10.00" fill="grey"> greater</text>
<text text-anchor="middle" x="167.5" y="-79.5" font-family="Helvetica,sans-Serif" font-size="10.00" fill="grey">less</text>
</g>
</g>
</svg>
