<?xml version="1.0" encoding="UTF-8" standalone="no"?>
<!DOCTYPE svg PUBLIC "-//W3C//DTD SVG 1.1//EN"
 "http://www.w3.org/Graphics/SVG/1.1/DTD/svg11.dtd">
<!-- Generated by graphviz version 12.2.1 (20241206.2353)
 -->
<!-- Title: vulpes::scipy::RectRectDistanceTracker&lt; MinMaxDist, Dim &gt; Pages: 1 -->
<svg width="298pt" height="128pt"
 viewBox="0.00 0.00 298.00 127.50" xmlns="http://www.w3.org/2000/svg" xmlns:xlink="http://www.w3.org/1999/xlink">
<g id="graph0" class="graph" transform="scale(1 1) rotate(0) translate(4 123.5)">
<title>vulpes::scipy::RectRectDistanceTracker&lt; MinMaxDist, Dim &gt;</title>
<!-- Node1 -->
<g id="Node000001" class="node">
<title>Node1</title>
<g id="a_Node000001"><a xlink:title=" ">
<polygon fill="#999999" stroke="#666666" points="219.38,-30.5 58.62,-30.5 58.62,0 219.38,0 219.38,-30.5"/>
<text text-anchor="start" x="66.62" y="-17" font-family="Helvetica,sans-Serif" font-size="10.00">vulpes::scipy::RectRectDistance</text>
<text text-anchor="middle" x="139" y="-5.75" font-family="Helvetica,sans-Serif" font-size="10.00">Tracker&lt; MinMaxDist, Dim &gt;</text>
</a>
</g>
</g>
<!-- Node2 -->
<g id="Node000002" class="node">
<title>Node2</title>
<g id="a_Node000002"><a xlink:href="structvulpes_1_1scipy_1_1Rectangle.html" target="_top" xlink:title=" ">
<polygon fill="white" stroke="#666666" points="124,-119.5 0,-119.5 0,-89 124,-89 124,-119.5"/>
<text text-anchor="start" x="8" y="-106" font-family="Helvetica,sans-Serif" font-size="10.00">vulpes::scipy::Rectangle</text>
<text text-anchor="middle" x="62" y="-94.75" font-family="Helvetica,sans-Serif" font-size="10.00">&lt; Dim &gt;</text>
</a>
</g>
</g>
<!-- Node2&#45;&gt;Node1 -->
<g id="edge1_Node000001_Node000002" class="edge">
<title>Node2&#45;&gt;Node1</title>
<g id="a_edge1_Node000001_Node000002"><a xlink:title=" ">
<path fill="none" stroke="#9a32cd" stroke-dasharray="5,2" d="M82.32,-80.29C96.15,-64.66 114.06,-44.43 126.01,-30.93"/>
<polygon fill="#9a32cd" stroke="#9a32cd" points="79.72,-77.94 75.72,-87.75 84.97,-82.58 79.72,-77.94"/>
</a>
</g>
<text text-anchor="middle" x="122.04" y="-61.5" font-family="Helvetica,sans-Serif" font-size="10.00" fill="grey"> rect1</text>
<text text-anchor="middle" x="122.04" y="-50.25" font-family="Helvetica,sans-Serif" font-size="10.00" fill="grey">rect2</text>
</g>
<!-- Node3 -->
<g id="Node000003" class="node">
<title>Node3</title>
<g id="a_Node000003"><a xlink:href="structvulpes_1_1scipy_1_1RR__stack__item.html" target="_top" xlink:title=" ">
<polygon fill="white" stroke="#666666" points="290,-113.88 142,-113.88 142,-94.62 290,-94.62 290,-113.88"/>
<text text-anchor="middle" x="216" y="-100.38" font-family="Helvetica,sans-Serif" font-size="10.00">vulpes::scipy::RR_stack_item</text>
</a>
</g>
</g>
<!-- Node3&#45;&gt;Node1 -->
<g id="edge2_Node000001_Node000003" class="edge">
<title>Node3&#45;&gt;Node1</title>
<g id="a_edge2_Node000001_Node000003"><a xlink:title=" ">
<path fill="none" stroke="#9a32cd" stroke-dasharray="5,2" d="M200.52,-85.76C186.23,-69.62 165.27,-45.93 151.88,-30.8"/>
<polygon fill="#9a32cd" stroke="#9a32cd" points="197.8,-87.97 207.05,-93.13 203.04,-83.33 197.8,-87.97"/>
</a>
</g>
<text text-anchor="middle" x="200.16" y="-55.88" font-family="Helvetica,sans-Serif" font-size="10.00" fill="grey"> stack</text>
</g>
</g>
</svg>
