<?xml version="1.0" encoding="UTF-8" standalone="no"?>
<!DOCTYPE svg PUBLIC "-//W3C//DTD SVG 1.1//EN"
 "http://www.w3.org/Graphics/SVG/1.1/DTD/svg11.dtd">
<!-- Generated by graphviz version 12.2.1 (20241206.2353)
 -->
<!-- Title: /Users/ilariomazzieri/Desktop/vulpes/vulpes/datastructure/tensor.cpp Pages: 1 -->
<svg width="190pt" height="172pt"
 viewBox="0.00 0.00 189.50 171.50" xmlns="http://www.w3.org/2000/svg" xmlns:xlink="http://www.w3.org/1999/xlink">
<g id="graph0" class="graph" transform="scale(1 1) rotate(0) translate(4 167.5)">
<title>/Users/ilariomazzieri/Desktop/vulpes/vulpes/datastructure/tensor.cpp</title>
<!-- Node1 -->
<g id="Node000001" class="node">
<title>Node1</title>
<g id="a_Node000001"><a xlink:title=" ">
<polygon fill="#999999" stroke="#666666" points="173.88,-163.5 49.88,-163.5 49.88,-121.75 173.88,-121.75 173.88,-163.5"/>
<text text-anchor="start" x="57.88" y="-150" font-family="Helvetica,sans-Serif" font-size="10.00">/Users/ilariomazzieri</text>
<text text-anchor="start" x="57.88" y="-138.75" font-family="Helvetica,sans-Serif" font-size="10.00">/Desktop/vulpes/vulpes</text>
<text text-anchor="middle" x="111.88" y="-127.5" font-family="Helvetica,sans-Serif" font-size="10.00">/datastructure/tensor.cpp</text>
</a>
</g>
</g>
<!-- Node2 -->
<g id="Node000002" class="node">
<title>Node2</title>
<g id="a_Node000002"><a xlink:href="datastructure_2tensor_8hpp.html" target="_top" xlink:title=" ">
<polygon fill="white" stroke="#666666" points="118.12,-85.75 13.62,-85.75 13.62,-55.25 118.12,-55.25 118.12,-85.75"/>
<text text-anchor="start" x="21.62" y="-72.25" font-family="Helvetica,sans-Serif" font-size="10.00">vulpes/datastructure</text>
<text text-anchor="middle" x="65.88" y="-61" font-family="Helvetica,sans-Serif" font-size="10.00">/tensor.hpp</text>
</a>
</g>
</g>
<!-- Node1&#45;&gt;Node2 -->
<g id="edge1_Node000001_Node000002" class="edge">
<title>Node1&#45;&gt;Node2</title>
<g id="a_edge1_Node000001_Node000002"><a xlink:title=" ">
<path fill="none" stroke="#63b8ff" d="M98.57,-121.34C93.29,-113.29 87.17,-103.96 81.67,-95.57"/>
<polygon fill="#63b8ff" stroke="#63b8ff" points="84.6,-93.66 76.18,-87.22 78.74,-97.5 84.6,-93.66"/>
</a>
</g>
</g>
<!-- Node5 -->
<g id="Node000005" class="node">
<title>Node5</title>
<g id="a_Node000005"><a xlink:title=" ">
<polygon fill="#e0e0e0" stroke="#999999" points="181.5,-80.12 136.25,-80.12 136.25,-60.88 181.5,-60.88 181.5,-80.12"/>
<text text-anchor="middle" x="158.88" y="-66.62" font-family="Helvetica,sans-Serif" font-size="10.00">cstdint</text>
</a>
</g>
</g>
<!-- Node1&#45;&gt;Node5 -->
<g id="edge4_Node000001_Node000005" class="edge">
<title>Node1&#45;&gt;Node5</title>
<g id="a_edge4_Node000001_Node000005"><a xlink:title=" ">
<path fill="none" stroke="#63b8ff" d="M125.47,-121.34C132.16,-111.36 140.16,-99.42 146.65,-89.73"/>
<polygon fill="#63b8ff" stroke="#63b8ff" points="149.47,-91.81 152.13,-81.56 143.66,-87.92 149.47,-91.81"/>
</a>
</g>
</g>
<!-- Node3 -->
<g id="Node000003" class="node">
<title>Node3</title>
<g id="a_Node000003"><a xlink:title=" ">
<polygon fill="#e0e0e0" stroke="#999999" points="61.75,-19.25 0,-19.25 0,0 61.75,0 61.75,-19.25"/>
<text text-anchor="middle" x="30.88" y="-5.75" font-family="Helvetica,sans-Serif" font-size="10.00">type_traits</text>
</a>
</g>
</g>
<!-- Node2&#45;&gt;Node3 -->
<g id="edge2_Node000002_Node000003" class="edge">
<title>Node2&#45;&gt;Node3</title>
<g id="a_edge2_Node000002_Node000003"><a xlink:title=" ">
<path fill="none" stroke="#63b8ff" d="M57.22,-54.95C52.66,-47.28 47.01,-37.77 42.12,-29.54"/>
<polygon fill="#63b8ff" stroke="#63b8ff" points="45.16,-27.81 37.04,-21 39.15,-31.39 45.16,-27.81"/>
</a>
</g>
</g>
<!-- Node4 -->
<g id="Node000004" class="node">
<title>Node4</title>
<g id="a_Node000004"><a xlink:title=" ">
<polygon fill="#e0e0e0" stroke="#999999" points="122.38,-19.25 79.38,-19.25 79.38,0 122.38,0 122.38,-19.25"/>
<text text-anchor="middle" x="100.88" y="-5.75" font-family="Helvetica,sans-Serif" font-size="10.00">vector</text>
</a>
</g>
</g>
<!-- Node2&#45;&gt;Node4 -->
<g id="edge3_Node000002_Node000004" class="edge">
<title>Node2&#45;&gt;Node4</title>
<g id="a_edge3_Node000002_Node000004"><a xlink:title=" ">
<path fill="none" stroke="#63b8ff" d="M74.53,-54.95C79.09,-47.28 84.74,-37.77 89.63,-29.54"/>
<polygon fill="#63b8ff" stroke="#63b8ff" points="92.6,-31.39 94.71,-21 86.59,-27.81 92.6,-31.39"/>
</a>
</g>
</g>
</g>
</svg>
