<?xml version="1.0" encoding="UTF-8" standalone="no"?>
<!DOCTYPE svg PUBLIC "-//W3C//DTD SVG 1.1//EN"
 "http://www.w3.org/Graphics/SVG/1.1/DTD/svg11.dtd">
<!-- Generated by graphviz version 2.42.4 (0)
 -->
<!-- Title: /__w/vulpes/vulpes/vulpes/datastructure/tensor.hpp Pages: 1 -->
<svg width="1583pt" height="588pt"
 viewBox="0.00 0.00 1583.00 588.00" xmlns="http://www.w3.org/2000/svg" xmlns:xlink="http://www.w3.org/1999/xlink">
<g id="graph0" class="graph" transform="scale(1 1) rotate(0) translate(4 584)">
<title>/__w/vulpes/vulpes/vulpes/datastructure/tensor.hpp</title>
<!-- Node1 -->
<g id="Node000001" class="node">
<title>Node1</title>
<g id="a_Node000001"><a xlink:title=" ">
<polygon fill="#999999" stroke="#666666" points="967.5,-580 847.5,-580 847.5,-539 967.5,-539 967.5,-580"/>
<text text-anchor="start" x="855.5" y="-568" font-family="Helvetica,sans-Serif" font-size="10.00">/__w/vulpes/vulpes</text>
<text text-anchor="start" x="855.5" y="-557" font-family="Helvetica,sans-Serif" font-size="10.00">/vulpes/datastructure</text>
<text text-anchor="middle" x="907.5" y="-546" font-family="Helvetica,sans-Serif" font-size="10.00">/tensor.hpp</text>
</a>
</g>
</g>
<!-- Node2 -->
<g id="Node000002" class="node">
<title>Node2</title>
<g id="a_Node000002"><a xlink:href="tensor_8cpp.html" target="_top" xlink:title=" ">
<polygon fill="white" stroke="#666666" points="721.5,-503 601.5,-503 601.5,-462 721.5,-462 721.5,-503"/>
<text text-anchor="start" x="609.5" y="-491" font-family="Helvetica,sans-Serif" font-size="10.00">/__w/vulpes/vulpes</text>
<text text-anchor="start" x="609.5" y="-480" font-family="Helvetica,sans-Serif" font-size="10.00">/vulpes/datastructure</text>
<text text-anchor="middle" x="661.5" y="-469" font-family="Helvetica,sans-Serif" font-size="10.00">/tensor.cpp</text>
</a>
</g>
</g>
<!-- Node1&#45;&gt;Node2 -->
<g id="edge1_Node000001_Node000002" class="edge">
<title>Node1&#45;&gt;Node2</title>
<g id="a_edge1_Node000001_Node000002"><a xlink:title=" ">
<path fill="none" stroke="#63b8ff" d="M837.73,-537.23C801.21,-526.1 756.94,-512.6 721.91,-501.92"/>
<polygon fill="#63b8ff" stroke="#63b8ff" points="836.74,-540.58 847.32,-540.15 838.78,-533.89 836.74,-540.58"/>
</a>
</g>
</g>
<!-- Node3 -->
<g id="Node000003" class="node">
<title>Node3</title>
<g id="a_Node000003"><a xlink:href="polynomial_8hpp.html" target="_top" xlink:title=" ">
<polygon fill="white" stroke="#666666" points="855,-503 740,-503 740,-462 855,-462 855,-503"/>
<text text-anchor="start" x="748" y="-491" font-family="Helvetica,sans-Serif" font-size="10.00">/__w/vulpes/vulpes</text>
<text text-anchor="start" x="748" y="-480" font-family="Helvetica,sans-Serif" font-size="10.00">/vulpes/polynomials</text>
<text text-anchor="middle" x="797.5" y="-469" font-family="Helvetica,sans-Serif" font-size="10.00">/polynomial.hpp</text>
</a>
</g>
</g>
<!-- Node1&#45;&gt;Node3 -->
<g id="edge2_Node000001_Node000003" class="edge">
<title>Node1&#45;&gt;Node3</title>
<g id="a_edge2_Node000001_Node000003"><a xlink:title=" ">
<path fill="none" stroke="#63b8ff" d="M870.24,-533.09C855.9,-523.32 839.78,-512.32 826.35,-503.17"/>
<polygon fill="#63b8ff" stroke="#63b8ff" points="868.65,-536.25 878.89,-538.99 872.6,-530.47 868.65,-536.25"/>
</a>
</g>
</g>
<!-- Node24 -->
<g id="Node000024" class="node">
<title>Node24</title>
<g id="a_Node000024"><a xlink:href="polynomial2d_8hpp.html" target="_top" xlink:title=" ">
<polygon fill="white" stroke="#666666" points="988,-426 873,-426 873,-385 988,-385 988,-426"/>
<text text-anchor="start" x="881" y="-414" font-family="Helvetica,sans-Serif" font-size="10.00">/__w/vulpes/vulpes</text>
<text text-anchor="start" x="881" y="-403" font-family="Helvetica,sans-Serif" font-size="10.00">/vulpes/polynomials</text>
<text text-anchor="middle" x="930.5" y="-392" font-family="Helvetica,sans-Serif" font-size="10.00">/polynomial2d.hpp</text>
</a>
</g>
</g>
<!-- Node1&#45;&gt;Node24 -->
<g id="edge41_Node000001_Node000024" class="edge">
<title>Node1&#45;&gt;Node24</title>
<g id="a_edge41_Node000001_Node000024"><a xlink:title=" ">
<path fill="none" stroke="#63b8ff" d="M911.97,-528.98C916.54,-498.76 923.52,-452.64 927.48,-426.47"/>
<polygon fill="#63b8ff" stroke="#63b8ff" points="908.5,-528.53 910.46,-538.94 915.42,-529.58 908.5,-528.53"/>
</a>
</g>
</g>
<!-- Node25 -->
<g id="Node000025" class="node">
<title>Node25</title>
<g id="a_Node000025"><a xlink:href="polynomial3d_8hpp.html" target="_top" xlink:title=" ">
<polygon fill="white" stroke="#666666" points="855,-426 740,-426 740,-385 855,-385 855,-426"/>
<text text-anchor="start" x="748" y="-414" font-family="Helvetica,sans-Serif" font-size="10.00">/__w/vulpes/vulpes</text>
<text text-anchor="start" x="748" y="-403" font-family="Helvetica,sans-Serif" font-size="10.00">/vulpes/polynomials</text>
<text text-anchor="middle" x="797.5" y="-392" font-family="Helvetica,sans-Serif" font-size="10.00">/polynomial3d.hpp</text>
</a>
</g>
</g>
<!-- Node1&#45;&gt;Node25 -->
<g id="edge42_Node000001_Node000025" class="edge">
<title>Node1&#45;&gt;Node25</title>
<g id="a_edge42_Node000001_Node000025"><a xlink:title=" ">
<path fill="none" stroke="#63b8ff" d="M897.96,-529.04C890.55,-508.92 878.94,-482.32 863.5,-462 853.18,-448.41 838.96,-435.92 826.36,-426.24"/>
<polygon fill="#63b8ff" stroke="#63b8ff" points="894.72,-530.37 901.36,-538.63 901.32,-528.03 894.72,-530.37"/>
</a>
</g>
</g>
<!-- Node26 -->
<g id="Node000026" class="node">
<title>Node26</title>
<g id="a_Node000026"><a xlink:href="frugal_8hpp.html" target="_top" xlink:title=" ">
<polygon fill="white" stroke="#666666" points="1167,-420.5 1006,-420.5 1006,-390.5 1167,-390.5 1167,-420.5"/>
<text text-anchor="start" x="1014" y="-408.5" font-family="Helvetica,sans-Serif" font-size="10.00">/__w/vulpes/vulpes</text>
<text text-anchor="middle" x="1086.5" y="-397.5" font-family="Helvetica,sans-Serif" font-size="10.00">/vulpes/quadrature/frugal.hpp</text>
</a>
</g>
</g>
<!-- Node1&#45;&gt;Node26 -->
<g id="edge43_Node000001_Node000026" class="edge">
<title>Node1&#45;&gt;Node26</title>
<g id="a_edge43_Node000001_Node000026"><a xlink:title=" ">
<path fill="none" stroke="#63b8ff" d="M938.26,-532.38C976.39,-500 1039.98,-446 1069.93,-420.57"/>
<polygon fill="#63b8ff" stroke="#63b8ff" points="935.89,-529.8 930.53,-538.94 940.42,-535.13 935.89,-529.8"/>
</a>
</g>
</g>
<!-- Node27 -->
<g id="Node000027" class="node">
<title>Node27</title>
<g id="a_Node000027"><a xlink:href="qfree_8hpp.html" target="_top" xlink:title=" ">
<polygon fill="white" stroke="#666666" points="1352.5,-497.5 1194.5,-497.5 1194.5,-467.5 1352.5,-467.5 1352.5,-497.5"/>
<text text-anchor="start" x="1202.5" y="-485.5" font-family="Helvetica,sans-Serif" font-size="10.00">/__w/vulpes/vulpes</text>
<text text-anchor="middle" x="1273.5" y="-474.5" font-family="Helvetica,sans-Serif" font-size="10.00">/vulpes/quadrature/qfree.hpp</text>
</a>
</g>
</g>
<!-- Node1&#45;&gt;Node27 -->
<g id="edge44_Node000001_Node000027" class="edge">
<title>Node1&#45;&gt;Node27</title>
<g id="a_edge44_Node000001_Node000027"><a xlink:title=" ">
<path fill="none" stroke="#63b8ff" d="M977.35,-544.19C1042.8,-530.78 1140.03,-510.85 1205.03,-497.53"/>
<polygon fill="#63b8ff" stroke="#63b8ff" points="976.62,-540.76 967.53,-546.2 978.03,-547.62 976.62,-540.76"/>
</a>
</g>
</g>
<!-- Node4 -->
<g id="Node000004" class="node">
<title>Node4</title>
<g id="a_Node000004"><a xlink:href="dof__policy_8hpp.html" target="_top" xlink:title=" ">
<polygon fill="white" stroke="#666666" points="589,-420.5 452,-420.5 452,-390.5 589,-390.5 589,-420.5"/>
<text text-anchor="start" x="460" y="-408.5" font-family="Helvetica,sans-Serif" font-size="10.00">/__w/vulpes/vulpes</text>
<text text-anchor="middle" x="520.5" y="-397.5" font-family="Helvetica,sans-Serif" font-size="10.00">/vulpes/fe/dof_policy.hpp</text>
</a>
</g>
</g>
<!-- Node3&#45;&gt;Node4 -->
<g id="edge3_Node000003_Node000004" class="edge">
<title>Node3&#45;&gt;Node4</title>
<g id="a_edge3_Node000003_Node000004"><a xlink:title=" ">
<path fill="none" stroke="#63b8ff" d="M729.99,-461.89C671.5,-445.71 615.2,-430.93 574.99,-420.5"/>
<polygon fill="#63b8ff" stroke="#63b8ff" points="729.21,-465.3 739.78,-464.6 731.08,-458.56 729.21,-465.3"/>
</a>
</g>
</g>
<!-- Node5 -->
<g id="Node000005" class="node">
<title>Node5</title>
<g id="a_Node000005"><a xlink:href="fe__space_8hpp.html" target="_top" xlink:title=" ">
<polygon fill="white" stroke="#666666" points="488.5,-343.5 356.5,-343.5 356.5,-313.5 488.5,-313.5 488.5,-343.5"/>
<text text-anchor="start" x="364.5" y="-331.5" font-family="Helvetica,sans-Serif" font-size="10.00">/__w/vulpes/vulpes</text>
<text text-anchor="middle" x="422.5" y="-320.5" font-family="Helvetica,sans-Serif" font-size="10.00">/vulpes/fe/fe_space.hpp</text>
</a>
</g>
</g>
<!-- Node3&#45;&gt;Node5 -->
<g id="edge27_Node000003_Node000005" class="edge">
<title>Node3&#45;&gt;Node5</title>
<g id="a_edge27_Node000003_Node000005"><a xlink:title=" ">
<path fill="none" stroke="#63b8ff" d="M729.99,-462.34C652.33,-450.62 487.86,-467.87 442.5,-426 419.62,-404.88 419.16,-365.02 420.81,-343.73"/>
<polygon fill="#63b8ff" stroke="#63b8ff" points="729.44,-465.8 739.9,-464.11 730.67,-458.91 729.44,-465.8"/>
</a>
</g>
</g>
<!-- Node20 -->
<g id="Node000020" class="node">
<title>Node20</title>
<g id="a_Node000020"><a xlink:href="polynomial1d_8hpp.html" target="_top" xlink:title=" ">
<polygon fill="white" stroke="#666666" points="722,-426 607,-426 607,-385 722,-385 722,-426"/>
<text text-anchor="start" x="615" y="-414" font-family="Helvetica,sans-Serif" font-size="10.00">/__w/vulpes/vulpes</text>
<text text-anchor="start" x="615" y="-403" font-family="Helvetica,sans-Serif" font-size="10.00">/vulpes/polynomials</text>
<text text-anchor="middle" x="664.5" y="-392" font-family="Helvetica,sans-Serif" font-size="10.00">/polynomial1d.hpp</text>
</a>
</g>
</g>
<!-- Node3&#45;&gt;Node20 -->
<g id="edge28_Node000003_Node000020" class="edge">
<title>Node3&#45;&gt;Node20</title>
<g id="a_edge28_Node000003_Node000020"><a xlink:title=" ">
<path fill="none" stroke="#63b8ff" d="M753.91,-456.92C736.22,-446.95 716.07,-435.58 699.39,-426.17"/>
<polygon fill="#63b8ff" stroke="#63b8ff" points="752.47,-460.13 762.9,-461.99 755.91,-454.03 752.47,-460.13"/>
</a>
</g>
</g>
<!-- Node3&#45;&gt;Node24 -->
<g id="edge37_Node000003_Node000024" class="edge">
<title>Node3&#45;&gt;Node24</title>
<g id="a_edge37_Node000003_Node000024"><a xlink:title=" ">
<path fill="none" stroke="#63b8ff" d="M841.09,-456.92C858.78,-446.95 878.93,-435.58 895.61,-426.17"/>
<polygon fill="#63b8ff" stroke="#63b8ff" points="839.09,-454.03 832.1,-461.99 842.53,-460.13 839.09,-454.03"/>
</a>
</g>
</g>
<!-- Node3&#45;&gt;Node25 -->
<g id="edge39_Node000003_Node000025" class="edge">
<title>Node3&#45;&gt;Node25</title>
<g id="a_edge39_Node000003_Node000025"><a xlink:title=" ">
<path fill="none" stroke="#63b8ff" d="M797.5,-451.69C797.5,-443.08 797.5,-433.9 797.5,-426.07"/>
<polygon fill="#63b8ff" stroke="#63b8ff" points="794,-451.79 797.5,-461.79 801,-451.79 794,-451.79"/>
</a>
</g>
</g>
<!-- Node4&#45;&gt;Node5 -->
<g id="edge4_Node000004_Node000005" class="edge">
<title>Node4&#45;&gt;Node5</title>
<g id="a_edge4_Node000004_Node000005"><a xlink:title=" ">
<path fill="none" stroke="#63b8ff" d="M493.75,-384.03C476.96,-371.18 455.75,-354.94 440.85,-343.54"/>
<polygon fill="#63b8ff" stroke="#63b8ff" points="492,-387.09 502.07,-390.39 496.25,-381.54 492,-387.09"/>
</a>
</g>
</g>
<!-- Node6 -->
<g id="Node000006" class="node">
<title>Node6</title>
<g id="a_Node000006"><a xlink:href="integrator__gauss_8hpp.html" target="_top" xlink:title=" ">
<polygon fill="white" stroke="#666666" points="153,-41 0,-41 0,0 153,0 153,-41"/>
<text text-anchor="start" x="8" y="-29" font-family="Helvetica,sans-Serif" font-size="10.00">/__w/vulpes/vulpes</text>
<text text-anchor="start" x="8" y="-18" font-family="Helvetica,sans-Serif" font-size="10.00">/vulpes/assemble/integrator</text>
<text text-anchor="middle" x="76.5" y="-7" font-family="Helvetica,sans-Serif" font-size="10.00">_gauss.hpp</text>
</a>
</g>
</g>
<!-- Node5&#45;&gt;Node6 -->
<g id="edge5_Node000005_Node000006" class="edge">
<title>Node5&#45;&gt;Node6</title>
<g id="a_edge5_Node000005_Node000006"><a xlink:title=" ">
<path fill="none" stroke="#63b8ff" d="M346.37,-327.71C246.46,-326.18 79.24,-316.77 40.5,-272 -17.57,-204.88 38.42,-87.72 64.62,-41.28"/>
<polygon fill="#63b8ff" stroke="#63b8ff" points="346.37,-331.21 356.41,-327.84 346.46,-324.21 346.37,-331.21"/>
</a>
</g>
</g>
<!-- Node7 -->
<g id="Node000007" class="node">
<title>Node7</title>
<g id="a_Node000007"><a xlink:href="integrator__qfree_8hpp.html" target="_top" xlink:title=" ">
<polygon fill="white" stroke="#666666" points="695,-41 542,-41 542,0 695,0 695,-41"/>
<text text-anchor="start" x="550" y="-29" font-family="Helvetica,sans-Serif" font-size="10.00">/__w/vulpes/vulpes</text>
<text text-anchor="start" x="550" y="-18" font-family="Helvetica,sans-Serif" font-size="10.00">/vulpes/assemble/integrator</text>
<text text-anchor="middle" x="618.5" y="-7" font-family="Helvetica,sans-Serif" font-size="10.00">_qfree.hpp</text>
</a>
</g>
</g>
<!-- Node5&#45;&gt;Node7 -->
<g id="edge6_Node000005_Node000007" class="edge">
<title>Node5&#45;&gt;Node7</title>
<g id="a_edge6_Node000005_Node000007"><a xlink:title=" ">
<path fill="none" stroke="#63b8ff" d="M453.19,-307.69C468.79,-297.38 487.91,-284.37 504.5,-272 526.15,-255.86 585.56,-218.7 598.5,-195 625.81,-144.96 623.79,-74.85 620.8,-41.13"/>
<polygon fill="#63b8ff" stroke="#63b8ff" points="450.9,-305.01 444.46,-313.42 454.74,-310.86 450.9,-305.01"/>
</a>
</g>
</g>
<!-- Node8 -->
<g id="Node000008" class="node">
<title>Node8</title>
<g id="a_Node000008"><a xlink:href="integrator__simplexify_8hpp.html" target="_top" xlink:title=" ">
<polygon fill="white" stroke="#666666" points="514,-41 361,-41 361,0 514,0 514,-41"/>
<text text-anchor="start" x="369" y="-29" font-family="Helvetica,sans-Serif" font-size="10.00">/__w/vulpes/vulpes</text>
<text text-anchor="start" x="369" y="-18" font-family="Helvetica,sans-Serif" font-size="10.00">/vulpes/assemble/integrator</text>
<text text-anchor="middle" x="437.5" y="-7" font-family="Helvetica,sans-Serif" font-size="10.00">_simplexify.hpp</text>
</a>
</g>
</g>
<!-- Node5&#45;&gt;Node8 -->
<g id="edge7_Node000005_Node000008" class="edge">
<title>Node5&#45;&gt;Node8</title>
<g id="a_edge7_Node000005_Node000008"><a xlink:title=" ">
<path fill="none" stroke="#63b8ff" d="M364.67,-310.1C289.01,-283.97 170.4,-229.49 209.5,-154 240.19,-94.75 309.84,-60.02 364.14,-41.09"/>
<polygon fill="#63b8ff" stroke="#63b8ff" points="363.99,-313.56 374.58,-313.45 366.23,-306.93 363.99,-313.56"/>
</a>
</g>
</g>
<!-- Node9 -->
<g id="Node000009" class="node">
<title>Node9</title>
<g id="a_Node000009"><a xlink:href="dof__handler_8hpp.html" target="_top" xlink:title=" ">
<polygon fill="white" stroke="#666666" points="590,-189.5 433,-189.5 433,-159.5 590,-159.5 590,-189.5"/>
<text text-anchor="start" x="441" y="-177.5" font-family="Helvetica,sans-Serif" font-size="10.00">/__w/vulpes/vulpes</text>
<text text-anchor="middle" x="511.5" y="-166.5" font-family="Helvetica,sans-Serif" font-size="10.00">/vulpes/dofs/dof_handler.hpp</text>
</a>
</g>
</g>
<!-- Node5&#45;&gt;Node9 -->
<g id="edge8_Node000005_Node000009" class="edge">
<title>Node5&#45;&gt;Node9</title>
<g id="a_edge8_Node000005_Node000009"><a xlink:title=" ">
<path fill="none" stroke="#63b8ff" d="M449.86,-307.01C461.02,-297.44 473.22,-285.24 481.5,-272 498.05,-245.52 506.09,-209.21 509.45,-189.54"/>
<polygon fill="#63b8ff" stroke="#63b8ff" points="447.49,-304.43 441.99,-313.48 451.94,-309.83 447.49,-304.43"/>
</a>
</g>
</g>
<!-- Node12 -->
<g id="Node000012" class="node">
<title>Node12</title>
<g id="a_Node000012"><a xlink:href="fe__expression_8hpp.html" target="_top" xlink:title=" ">
<polygon fill="white" stroke="#666666" points="376,-189.5 219,-189.5 219,-159.5 376,-159.5 376,-189.5"/>
<text text-anchor="start" x="227" y="-177.5" font-family="Helvetica,sans-Serif" font-size="10.00">/__w/vulpes/vulpes</text>
<text text-anchor="middle" x="297.5" y="-166.5" font-family="Helvetica,sans-Serif" font-size="10.00">/vulpes/fe/fe_expression.hpp</text>
</a>
</g>
</g>
<!-- Node5&#45;&gt;Node12 -->
<g id="edge14_Node000005_Node000012" class="edge">
<title>Node5&#45;&gt;Node12</title>
<g id="a_edge14_Node000005_Node000012"><a xlink:title=" ">
<path fill="none" stroke="#63b8ff" d="M375.59,-308.86C358.37,-299.97 340.04,-287.77 327.5,-272 307.96,-247.42 301.08,-210.03 298.71,-189.77"/>
<polygon fill="#63b8ff" stroke="#63b8ff" points="374.48,-312.21 385,-313.46 377.56,-305.92 374.48,-312.21"/>
</a>
</g>
</g>
<!-- Node13 -->
<g id="Node000013" class="node">
<title>Node13</title>
<g id="a_Node000013"><a xlink:href="fe__lagrange__simplex_8hpp.html" target="_top" xlink:title=" ">
<polygon fill="white" stroke="#666666" points="936,-272 793,-272 793,-231 936,-231 936,-272"/>
<text text-anchor="start" x="801" y="-260" font-family="Helvetica,sans-Serif" font-size="10.00">/__w/vulpes/vulpes</text>
<text text-anchor="start" x="801" y="-249" font-family="Helvetica,sans-Serif" font-size="10.00">/vulpes/fe/fe_spaces</text>
<text text-anchor="middle" x="864.5" y="-238" font-family="Helvetica,sans-Serif" font-size="10.00">/fe_lagrange_simplex.hpp</text>
</a>
</g>
</g>
<!-- Node5&#45;&gt;Node13 -->
<g id="edge16_Node000005_Node000013" class="edge">
<title>Node5&#45;&gt;Node13</title>
<g id="a_edge16_Node000005_Node000013"><a xlink:title=" ">
<path fill="none" stroke="#63b8ff" d="M482.84,-311.09C487.78,-309.97 492.71,-308.92 497.5,-308 623.31,-283.83 657.47,-295.03 783.5,-272 786.49,-271.45 789.53,-270.87 792.6,-270.25"/>
<polygon fill="#63b8ff" stroke="#63b8ff" points="481.65,-307.78 472.73,-313.49 483.26,-314.59 481.65,-307.78"/>
</a>
</g>
</g>
<!-- Node15 -->
<g id="Node000015" class="node">
<title>Node15</title>
<g id="a_Node000015"><a xlink:href="fe__lagrange__tensor_8hpp.html" target="_top" xlink:title=" ">
<polygon fill="white" stroke="#666666" points="780.5,-195 646.5,-195 646.5,-154 780.5,-154 780.5,-195"/>
<text text-anchor="start" x="654.5" y="-183" font-family="Helvetica,sans-Serif" font-size="10.00">/__w/vulpes/vulpes</text>
<text text-anchor="start" x="654.5" y="-172" font-family="Helvetica,sans-Serif" font-size="10.00">/vulpes/fe/fe_spaces</text>
<text text-anchor="middle" x="713.5" y="-161" font-family="Helvetica,sans-Serif" font-size="10.00">/fe_lagrange_tensor.hpp</text>
</a>
</g>
</g>
<!-- Node5&#45;&gt;Node15 -->
<g id="edge20_Node000005_Node000015" class="edge">
<title>Node5&#45;&gt;Node15</title>
<g id="a_edge20_Node000005_Node000015"><a xlink:title=" ">
<path fill="none" stroke="#63b8ff" d="M478.25,-310.17C504.74,-300.76 536.27,-287.8 562.5,-272 586.53,-257.52 587.35,-246.86 610.5,-231 629.94,-217.68 652.91,-205.04 672.22,-195.19"/>
<polygon fill="#63b8ff" stroke="#63b8ff" points="477.03,-306.89 468.73,-313.48 479.33,-313.5 477.03,-306.89"/>
</a>
</g>
</g>
<!-- Node16 -->
<g id="Node000016" class="node">
<title>Node16</title>
<g id="a_Node000016"><a xlink:href="fe__modal__simplex_8hpp.html" target="_top" xlink:title=" ">
<polygon fill="white" stroke="#666666" points="930,-195 799,-195 799,-154 930,-154 930,-195"/>
<text text-anchor="start" x="807" y="-183" font-family="Helvetica,sans-Serif" font-size="10.00">/__w/vulpes/vulpes</text>
<text text-anchor="start" x="807" y="-172" font-family="Helvetica,sans-Serif" font-size="10.00">/vulpes/fe/fe_spaces</text>
<text text-anchor="middle" x="864.5" y="-161" font-family="Helvetica,sans-Serif" font-size="10.00">/fe_modal_simplex.hpp</text>
</a>
</g>
</g>
<!-- Node5&#45;&gt;Node16 -->
<g id="edge21_Node000005_Node000016" class="edge">
<title>Node5&#45;&gt;Node16</title>
<g id="a_edge21_Node000005_Node000016"><a xlink:title=" ">
<path fill="none" stroke="#63b8ff" d="M486.91,-310.74C529.5,-299.03 580.96,-283.5 600.5,-272 623.26,-258.61 620.35,-243.7 643.5,-231 702.1,-198.86 724.71,-211.41 789.5,-195 792.5,-194.24 795.57,-193.46 798.66,-192.67"/>
<polygon fill="#63b8ff" stroke="#63b8ff" points="485.87,-307.4 477.14,-313.4 487.71,-314.15 485.87,-307.4"/>
</a>
</g>
</g>
<!-- Node17 -->
<g id="Node000017" class="node">
<title>Node17</title>
<g id="a_Node000017"><a xlink:href="fe__modal__tensor_8hpp.html" target="_top" xlink:title=" ">
<polygon fill="white" stroke="#666666" points="774.5,-272 652.5,-272 652.5,-231 774.5,-231 774.5,-272"/>
<text text-anchor="start" x="660.5" y="-260" font-family="Helvetica,sans-Serif" font-size="10.00">/__w/vulpes/vulpes</text>
<text text-anchor="start" x="660.5" y="-249" font-family="Helvetica,sans-Serif" font-size="10.00">/vulpes/fe/fe_spaces</text>
<text text-anchor="middle" x="713.5" y="-238" font-family="Helvetica,sans-Serif" font-size="10.00">/fe_modal_tensor.hpp</text>
</a>
</g>
</g>
<!-- Node5&#45;&gt;Node17 -->
<g id="edge22_Node000005_Node000017" class="edge">
<title>Node5&#45;&gt;Node17</title>
<g id="a_edge22_Node000005_Node000017"><a xlink:title=" ">
<path fill="none" stroke="#63b8ff" d="M486.48,-310.85C490.21,-309.88 493.9,-308.93 497.5,-308 560.13,-291.86 575.87,-288.14 638.5,-272 642.93,-270.86 647.51,-269.68 652.11,-268.48"/>
<polygon fill="#63b8ff" stroke="#63b8ff" points="485.37,-307.52 476.57,-313.41 487.13,-314.29 485.37,-307.52"/>
</a>
</g>
</g>
<!-- Node18 -->
<g id="Node000018" class="node">
<title>Node18</title>
<g id="a_Node000018"><a xlink:href="fe__scaled__monomials_8hpp.html" target="_top" xlink:title=" ">
<polygon fill="white" stroke="#666666" points="197,-272 50,-272 50,-231 197,-231 197,-272"/>
<text text-anchor="start" x="58" y="-260" font-family="Helvetica,sans-Serif" font-size="10.00">/__w/vulpes/vulpes</text>
<text text-anchor="start" x="58" y="-249" font-family="Helvetica,sans-Serif" font-size="10.00">/vulpes/fe/fe_spaces</text>
<text text-anchor="middle" x="123.5" y="-238" font-family="Helvetica,sans-Serif" font-size="10.00">/fe_scaled_monomials.hpp</text>
</a>
</g>
</g>
<!-- Node5&#45;&gt;Node18 -->
<g id="edge23_Node000005_Node000018" class="edge">
<title>Node5&#45;&gt;Node18</title>
<g id="a_edge23_Node000005_Node000018"><a xlink:title=" ">
<path fill="none" stroke="#63b8ff" d="M356.81,-311.02C309.66,-299.19 246.07,-283.25 197.19,-270.98"/>
<polygon fill="#63b8ff" stroke="#63b8ff" points="356.06,-314.44 366.61,-313.48 357.76,-307.65 356.06,-314.44"/>
</a>
</g>
</g>
<!-- Node19 -->
<g id="Node000019" class="node">
<title>Node19</title>
<g id="a_Node000019"><a xlink:href="fe__values_8hpp.html" target="_top" xlink:title=" ">
<polygon fill="white" stroke="#666666" points="472.5,-266.5 336.5,-266.5 336.5,-236.5 472.5,-236.5 472.5,-266.5"/>
<text text-anchor="start" x="344.5" y="-254.5" font-family="Helvetica,sans-Serif" font-size="10.00">/__w/vulpes/vulpes</text>
<text text-anchor="middle" x="404.5" y="-243.5" font-family="Helvetica,sans-Serif" font-size="10.00">/vulpes/fe/fe_values.hpp</text>
</a>
</g>
</g>
<!-- Node5&#45;&gt;Node19 -->
<g id="edge24_Node000005_Node000019" class="edge">
<title>Node5&#45;&gt;Node19</title>
<g id="a_edge24_Node000005_Node000019"><a xlink:title=" ">
<path fill="none" stroke="#63b8ff" d="M416.72,-303.41C413.8,-291.24 410.36,-276.9 407.87,-266.54"/>
<polygon fill="#63b8ff" stroke="#63b8ff" points="413.38,-304.49 419.11,-313.39 420.18,-302.85 413.38,-304.49"/>
</a>
</g>
</g>
<!-- Node10 -->
<g id="Node000010" class="node">
<title>Node10</title>
<g id="a_Node000010"><a xlink:href="integrator__base_8hpp.html" target="_top" xlink:title=" ">
<polygon fill="white" stroke="#666666" points="481,-118 328,-118 328,-77 481,-77 481,-118"/>
<text text-anchor="start" x="336" y="-106" font-family="Helvetica,sans-Serif" font-size="10.00">/__w/vulpes/vulpes</text>
<text text-anchor="start" x="336" y="-95" font-family="Helvetica,sans-Serif" font-size="10.00">/vulpes/assemble/integrator</text>
<text text-anchor="middle" x="404.5" y="-84" font-family="Helvetica,sans-Serif" font-size="10.00">_base.hpp</text>
</a>
</g>
</g>
<!-- Node9&#45;&gt;Node10 -->
<g id="edge9_Node000009_Node000010" class="edge">
<title>Node9&#45;&gt;Node10</title>
<g id="a_edge9_Node000009_Node000010"><a xlink:title=" ">
<path fill="none" stroke="#63b8ff" d="M483.12,-153.61C467.5,-142.66 448.19,-129.12 432.61,-118.2"/>
<polygon fill="#63b8ff" stroke="#63b8ff" points="481.18,-156.52 491.37,-159.39 485.19,-150.79 481.18,-156.52"/>
</a>
</g>
</g>
<!-- Node10&#45;&gt;Node6 -->
<g id="edge10_Node000010_Node000006" class="edge">
<title>Node10&#45;&gt;Node6</title>
<g id="a_edge10_Node000010_Node000006"><a xlink:title=" ">
<path fill="none" stroke="#63b8ff" d="M317.56,-76.62C266.45,-64.93 202.42,-50.29 153.2,-39.04"/>
<polygon fill="#63b8ff" stroke="#63b8ff" points="317.07,-80.1 327.6,-78.92 318.63,-73.27 317.07,-80.1"/>
</a>
</g>
</g>
<!-- Node10&#45;&gt;Node7 -->
<g id="edge11_Node000010_Node000007" class="edge">
<title>Node10&#45;&gt;Node7</title>
<g id="a_edge11_Node000010_Node000007"><a xlink:title=" ">
<path fill="none" stroke="#63b8ff" d="M469.63,-73.67C499.37,-63.25 534.23,-51.03 562.74,-41.04"/>
<polygon fill="#63b8ff" stroke="#63b8ff" points="468.45,-70.38 460.17,-76.99 470.76,-76.99 468.45,-70.38"/>
</a>
</g>
</g>
<!-- Node10&#45;&gt;Node8 -->
<g id="edge12_Node000010_Node000008" class="edge">
<title>Node10&#45;&gt;Node8</title>
<g id="a_edge12_Node000010_Node000008"><a xlink:title=" ">
<path fill="none" stroke="#63b8ff" d="M417.24,-67.55C421.14,-58.69 425.33,-49.15 428.89,-41.07"/>
<polygon fill="#63b8ff" stroke="#63b8ff" points="413.99,-66.23 413.17,-76.79 420.4,-69.05 413.99,-66.23"/>
</a>
</g>
</g>
<!-- Node11 -->
<g id="Node000011" class="node">
<title>Node11</title>
<g id="a_Node000011"><a xlink:href="integrator__vem__moment_8hpp.html" target="_top" xlink:title=" ">
<polygon fill="white" stroke="#666666" points="343,-41 190,-41 190,0 343,0 343,-41"/>
<text text-anchor="start" x="198" y="-29" font-family="Helvetica,sans-Serif" font-size="10.00">/__w/vulpes/vulpes</text>
<text text-anchor="start" x="198" y="-18" font-family="Helvetica,sans-Serif" font-size="10.00">/vulpes/assemble/integrator</text>
<text text-anchor="middle" x="266.5" y="-7" font-family="Helvetica,sans-Serif" font-size="10.00">_vem_moment.hpp</text>
</a>
</g>
</g>
<!-- Node10&#45;&gt;Node11 -->
<g id="edge13_Node000010_Node000011" class="edge">
<title>Node10&#45;&gt;Node11</title>
<g id="a_edge13_Node000010_Node000011"><a xlink:title=" ">
<path fill="none" stroke="#63b8ff" d="M359.78,-72.19C341.3,-62.15 320.17,-50.67 302.7,-41.17"/>
<polygon fill="#63b8ff" stroke="#63b8ff" points="358.14,-75.29 368.6,-76.99 361.49,-69.14 358.14,-75.29"/>
</a>
</g>
</g>
<!-- Node12&#45;&gt;Node10 -->
<g id="edge15_Node000012_Node000010" class="edge">
<title>Node12&#45;&gt;Node10</title>
<g id="a_edge15_Node000012_Node000010"><a xlink:title=" ">
<path fill="none" stroke="#63b8ff" d="M325.88,-153.61C341.5,-142.66 360.81,-129.12 376.39,-118.2"/>
<polygon fill="#63b8ff" stroke="#63b8ff" points="323.81,-150.79 317.63,-159.39 327.82,-156.52 323.81,-150.79"/>
</a>
</g>
</g>
<!-- Node14 -->
<g id="Node000014" class="node">
<title>Node14</title>
<g id="a_Node000014"><a xlink:href="fe__lagrange__simplex_8cpp.html" target="_top" xlink:title=" ">
<polygon fill="white" stroke="#666666" points="1090.5,-195 948.5,-195 948.5,-154 1090.5,-154 1090.5,-195"/>
<text text-anchor="start" x="956.5" y="-183" font-family="Helvetica,sans-Serif" font-size="10.00">/__w/vulpes/vulpes</text>
<text text-anchor="start" x="956.5" y="-172" font-family="Helvetica,sans-Serif" font-size="10.00">/vulpes/fe/fe_spaces</text>
<text text-anchor="middle" x="1019.5" y="-161" font-family="Helvetica,sans-Serif" font-size="10.00">/fe_lagrange_simplex.cpp</text>
</a>
</g>
</g>
<!-- Node13&#45;&gt;Node14 -->
<g id="edge17_Node000013_Node000014" class="edge">
<title>Node13&#45;&gt;Node14</title>
<g id="a_edge17_Node000013_Node000014"><a xlink:title=" ">
<path fill="none" stroke="#63b8ff" d="M913.92,-226.59C934.96,-216.41 959.18,-204.69 979.11,-195.04"/>
<polygon fill="#63b8ff" stroke="#63b8ff" points="912.3,-223.48 904.82,-230.99 915.35,-229.79 912.3,-223.48"/>
</a>
</g>
</g>
<!-- Node13&#45;&gt;Node15 -->
<g id="edge18_Node000013_Node000015" class="edge">
<title>Node13&#45;&gt;Node15</title>
<g id="a_edge18_Node000013_Node000015"><a xlink:title=" ">
<path fill="none" stroke="#63b8ff" d="M816.08,-226.45C795.65,-216.3 772.18,-204.64 752.84,-195.04"/>
<polygon fill="#63b8ff" stroke="#63b8ff" points="814.71,-229.68 825.22,-230.99 817.82,-223.41 814.71,-229.68"/>
</a>
</g>
</g>
<!-- Node13&#45;&gt;Node16 -->
<g id="edge19_Node000013_Node000016" class="edge">
<title>Node13&#45;&gt;Node16</title>
<g id="a_edge19_Node000013_Node000016"><a xlink:title=" ">
<path fill="none" stroke="#63b8ff" d="M864.5,-220.69C864.5,-212.08 864.5,-202.9 864.5,-195.07"/>
<polygon fill="#63b8ff" stroke="#63b8ff" points="861,-220.79 864.5,-230.79 868,-220.79 861,-220.79"/>
</a>
</g>
</g>
<!-- Node19&#45;&gt;Node10 -->
<g id="edge25_Node000019_Node000010" class="edge">
<title>Node19&#45;&gt;Node10</title>
<g id="a_edge25_Node000019_Node000010"><a xlink:title=" ">
<path fill="none" stroke="#63b8ff" d="M404.5,-226.46C404.5,-196.51 404.5,-145.93 404.5,-118.18"/>
<polygon fill="#63b8ff" stroke="#63b8ff" points="401,-226.47 404.5,-236.47 408,-226.47 401,-226.47"/>
</a>
</g>
</g>
<!-- Node19&#45;&gt;Node12 -->
<g id="edge26_Node000019_Node000012" class="edge">
<title>Node19&#45;&gt;Node12</title>
<g id="a_edge26_Node000019_Node000012"><a xlink:title=" ">
<path fill="none" stroke="#63b8ff" d="M376.04,-230.55C357.6,-217.63 334.02,-201.1 317.54,-189.54"/>
<polygon fill="#63b8ff" stroke="#63b8ff" points="374.18,-233.52 384.37,-236.39 378.19,-227.79 374.18,-233.52"/>
</a>
</g>
</g>
<!-- Node20&#45;&gt;Node17 -->
<g id="edge29_Node000020_Node000017" class="edge">
<title>Node20&#45;&gt;Node17</title>
<g id="a_edge29_Node000020_Node000017"><a xlink:title=" ">
<path fill="none" stroke="#63b8ff" d="M673.89,-375.37C683.63,-345.16 698.59,-298.76 707.06,-272.47"/>
<polygon fill="#63b8ff" stroke="#63b8ff" points="670.54,-374.35 670.81,-384.94 677.21,-376.5 670.54,-374.35"/>
</a>
</g>
</g>
<!-- Node21 -->
<g id="Node000021" class="node">
<title>Node21</title>
<g id="a_Node000021"><a xlink:href="ndpolynomial_8hpp.html" target="_top" xlink:title=" ">
<polygon fill="white" stroke="#666666" points="989,-349 874,-349 874,-308 989,-308 989,-349"/>
<text text-anchor="start" x="882" y="-337" font-family="Helvetica,sans-Serif" font-size="10.00">/__w/vulpes/vulpes</text>
<text text-anchor="start" x="882" y="-326" font-family="Helvetica,sans-Serif" font-size="10.00">/vulpes/polynomials</text>
<text text-anchor="middle" x="931.5" y="-315" font-family="Helvetica,sans-Serif" font-size="10.00">/ndpolynomial.hpp</text>
</a>
</g>
</g>
<!-- Node20&#45;&gt;Node21 -->
<g id="edge30_Node000020_Node000021" class="edge">
<title>Node20&#45;&gt;Node21</title>
<g id="a_edge30_Node000020_Node000021"><a xlink:title=" ">
<path fill="none" stroke="#63b8ff" d="M732,-384.61C791.52,-367.96 808.13,-364.77 864.5,-349 867.53,-348.15 870.64,-347.27 873.78,-346.38"/>
<polygon fill="#63b8ff" stroke="#63b8ff" points="730.75,-381.32 722.07,-387.4 732.64,-388.06 730.75,-381.32"/>
</a>
</g>
</g>
<!-- Node22 -->
<g id="Node000022" class="node">
<title>Node22</title>
<g id="a_Node000022"><a xlink:href="sparse__polynomial_8hpp.html" target="_top" xlink:title=" ">
<polygon fill="white" stroke="#666666" points="856,-349 723,-349 723,-308 856,-308 856,-349"/>
<text text-anchor="start" x="731" y="-337" font-family="Helvetica,sans-Serif" font-size="10.00">/__w/vulpes/vulpes</text>
<text text-anchor="start" x="731" y="-326" font-family="Helvetica,sans-Serif" font-size="10.00">/vulpes/polynomials</text>
<text text-anchor="middle" x="789.5" y="-315" font-family="Helvetica,sans-Serif" font-size="10.00">/sparse_polynomial.hpp</text>
</a>
</g>
</g>
<!-- Node20&#45;&gt;Node22 -->
<g id="edge34_Node000020_Node000022" class="edge">
<title>Node20&#45;&gt;Node22</title>
<g id="a_edge34_Node000020_Node000022"><a xlink:title=" ">
<path fill="none" stroke="#63b8ff" d="M705.93,-379.64C722.44,-369.74 741.17,-358.5 756.71,-349.17"/>
<polygon fill="#63b8ff" stroke="#63b8ff" points="703.79,-376.84 697.02,-384.99 707.39,-382.85 703.79,-376.84"/>
</a>
</g>
</g>
<!-- Node23 -->
<g id="Node000023" class="node">
<title>Node23</title>
<g id="a_Node000023"><a xlink:href="gauss_8cpp.html" target="_top" xlink:title=" ">
<polygon fill="white" stroke="#666666" points="666.5,-343.5 506.5,-343.5 506.5,-313.5 666.5,-313.5 666.5,-343.5"/>
<text text-anchor="start" x="514.5" y="-331.5" font-family="Helvetica,sans-Serif" font-size="10.00">/__w/vulpes/vulpes</text>
<text text-anchor="middle" x="586.5" y="-320.5" font-family="Helvetica,sans-Serif" font-size="10.00">/vulpes/quadrature/gauss.cpp</text>
</a>
</g>
</g>
<!-- Node20&#45;&gt;Node23 -->
<g id="edge36_Node000020_Node000023" class="edge">
<title>Node20&#45;&gt;Node23</title>
<g id="a_edge36_Node000020_Node000023"><a xlink:title=" ">
<path fill="none" stroke="#63b8ff" d="M636.49,-377.57C624.65,-366.18 611.34,-353.39 601.44,-343.86"/>
<polygon fill="#63b8ff" stroke="#63b8ff" points="634.37,-380.39 644.01,-384.79 639.22,-375.34 634.37,-380.39"/>
</a>
</g>
</g>
<!-- Node21&#45;&gt;Node13 -->
<g id="edge32_Node000021_Node000013" class="edge">
<title>Node21&#45;&gt;Node13</title>
<g id="a_edge32_Node000021_Node000013"><a xlink:title=" ">
<path fill="none" stroke="#63b8ff" d="M907.14,-300.23C898.81,-290.91 889.66,-280.67 881.99,-272.07"/>
<polygon fill="#63b8ff" stroke="#63b8ff" points="904.62,-302.67 913.9,-307.79 909.84,-298.01 904.62,-302.67"/>
</a>
</g>
</g>
<!-- Node21&#45;&gt;Node14 -->
<g id="edge31_Node000021_Node000014" class="edge">
<title>Node21&#45;&gt;Node14</title>
<g id="a_edge31_Node000021_Node000014"><a xlink:title=" ">
<path fill="none" stroke="#63b8ff" d="M947.91,-299.15C965.38,-268.97 992.59,-221.98 1007.94,-195.47"/>
<polygon fill="#63b8ff" stroke="#63b8ff" points="944.81,-297.53 942.82,-307.94 950.86,-301.04 944.81,-297.53"/>
</a>
</g>
</g>
<!-- Node21&#45;&gt;Node16 -->
<g id="edge33_Node000021_Node000016" class="edge">
<title>Node21&#45;&gt;Node16</title>
<g id="a_edge33_Node000021_Node000016"><a xlink:title=" ">
<path fill="none" stroke="#63b8ff" d="M944.54,-298.32C951.43,-278.32 956.44,-251.75 945.5,-231 937.47,-215.77 923.17,-203.92 908.8,-195.15"/>
<polygon fill="#63b8ff" stroke="#63b8ff" points="941.2,-297.24 940.95,-307.84 947.75,-299.71 941.2,-297.24"/>
</a>
</g>
</g>
<!-- Node22&#45;&gt;Node17 -->
<g id="edge35_Node000022_Node000017" class="edge">
<title>Node22&#45;&gt;Node17</title>
<g id="a_edge35_Node000022_Node000017"><a xlink:title=" ">
<path fill="none" stroke="#63b8ff" d="M762.15,-300.51C752.63,-291.11 742.13,-280.76 733.33,-272.07"/>
<polygon fill="#63b8ff" stroke="#63b8ff" points="759.96,-303.26 769.53,-307.79 764.87,-298.28 759.96,-303.26"/>
</a>
</g>
</g>
<!-- Node24&#45;&gt;Node21 -->
<g id="edge38_Node000024_Node000021" class="edge">
<title>Node24&#45;&gt;Node21</title>
<g id="a_edge38_Node000024_Node000021"><a xlink:title=" ">
<path fill="none" stroke="#63b8ff" d="M930.9,-374.69C931.01,-366.08 931.13,-356.9 931.24,-349.07"/>
<polygon fill="#63b8ff" stroke="#63b8ff" points="927.4,-374.75 930.76,-384.79 934.4,-374.84 927.4,-374.75"/>
</a>
</g>
</g>
<!-- Node25&#45;&gt;Node21 -->
<g id="edge40_Node000025_Node000021" class="edge">
<title>Node25&#45;&gt;Node21</title>
<g id="a_edge40_Node000025_Node000021"><a xlink:title=" ">
<path fill="none" stroke="#63b8ff" d="M841.42,-379.92C859.24,-369.95 879.54,-358.58 896.35,-349.17"/>
<polygon fill="#63b8ff" stroke="#63b8ff" points="839.37,-377.05 832.36,-384.99 842.79,-383.16 839.37,-377.05"/>
</a>
</g>
</g>
<!-- Node27&#45;&gt;Node7 -->
<g id="edge45_Node000027_Node000007" class="edge">
<title>Node27&#45;&gt;Node7</title>
<g id="a_edge45_Node000027_Node000007"><a xlink:title=" ">
<path fill="none" stroke="#63b8ff" d="M1324,-462.89C1341.18,-454.17 1358.95,-442.09 1370.5,-426 1396,-390.49 1389.5,-373.21 1389.5,-329.5 1389.5,-329.5 1389.5,-329.5 1389.5,-173.5 1389.5,-32.98 890.26,-20.18 695.25,-20.55"/>
<polygon fill="#63b8ff" stroke="#63b8ff" points="1322.07,-459.93 1314.55,-467.38 1325.08,-466.24 1322.07,-459.93"/>
</a>
</g>
</g>
<!-- Node27&#45;&gt;Node26 -->
<g id="edge49_Node000027_Node000026" class="edge">
<title>Node27&#45;&gt;Node26</title>
<g id="a_edge49_Node000027_Node000026"><a xlink:title=" ">
<path fill="none" stroke="#63b8ff" d="M1228.94,-463.63C1196.04,-450.43 1151.9,-432.73 1121.52,-420.54"/>
<polygon fill="#63b8ff" stroke="#63b8ff" points="1227.74,-466.92 1238.33,-467.39 1230.35,-460.42 1227.74,-466.92"/>
</a>
</g>
</g>
<!-- Node28 -->
<g id="Node000028" class="node">
<title>Node28</title>
<g id="a_Node000028"><a xlink:href="simplexify_8hpp.html" target="_top" xlink:title=" ">
<polygon fill="white" stroke="#666666" points="1361.5,-420.5 1185.5,-420.5 1185.5,-390.5 1361.5,-390.5 1361.5,-420.5"/>
<text text-anchor="start" x="1193.5" y="-408.5" font-family="Helvetica,sans-Serif" font-size="10.00">/__w/vulpes/vulpes</text>
<text text-anchor="middle" x="1273.5" y="-397.5" font-family="Helvetica,sans-Serif" font-size="10.00">/vulpes/geometry/simplexify.hpp</text>
</a>
</g>
</g>
<!-- Node27&#45;&gt;Node28 -->
<g id="edge46_Node000027_Node000028" class="edge">
<title>Node27&#45;&gt;Node28</title>
<g id="a_edge46_Node000027_Node000028"><a xlink:title=" ">
<path fill="none" stroke="#63b8ff" d="M1273.5,-457.04C1273.5,-444.95 1273.5,-430.79 1273.5,-420.54"/>
<polygon fill="#63b8ff" stroke="#63b8ff" points="1270,-457.39 1273.5,-467.39 1277,-457.39 1270,-457.39"/>
</a>
</g>
</g>
<!-- Node30 -->
<g id="Node000030" class="node">
<title>Node30</title>
<g id="a_Node000030"><a xlink:href="qfree_8cpp.html" target="_top" xlink:title=" ">
<polygon fill="white" stroke="#666666" points="1575,-420.5 1418,-420.5 1418,-390.5 1575,-390.5 1575,-420.5"/>
<text text-anchor="start" x="1426" y="-408.5" font-family="Helvetica,sans-Serif" font-size="10.00">/__w/vulpes/vulpes</text>
<text text-anchor="middle" x="1496.5" y="-397.5" font-family="Helvetica,sans-Serif" font-size="10.00">/vulpes/quadrature/qfree.cpp</text>
</a>
</g>
</g>
<!-- Node27&#45;&gt;Node30 -->
<g id="edge50_Node000027_Node000030" class="edge">
<title>Node27&#45;&gt;Node30</title>
<g id="a_edge50_Node000027_Node000030"><a xlink:title=" ">
<path fill="none" stroke="#63b8ff" d="M1324.86,-464.22C1364.23,-450.99 1417.87,-432.95 1454.64,-420.58"/>
<polygon fill="#63b8ff" stroke="#63b8ff" points="1323.55,-460.98 1315.18,-467.48 1325.78,-467.61 1323.55,-460.98"/>
</a>
</g>
</g>
<!-- Node28&#45;&gt;Node8 -->
<g id="edge47_Node000028_Node000008" class="edge">
<title>Node28&#45;&gt;Node8</title>
<g id="a_edge47_Node000028_Node000008"><a xlink:title=" ">
<path fill="none" stroke="#63b8ff" d="M1227.64,-385.88C1210.07,-376.89 1191.02,-364.62 1177.5,-349 1116.4,-278.43 1171.28,-213.67 1099.5,-154 901.9,10.26 784.35,-91.94 532.5,-41 526.56,-39.8 520.41,-38.55 514.23,-37.29"/>
<polygon fill="#63b8ff" stroke="#63b8ff" points="1226.14,-389.04 1236.66,-390.29 1229.21,-382.75 1226.14,-389.04"/>
</a>
</g>
</g>
<!-- Node29 -->
<g id="Node000029" class="node">
<title>Node29</title>
<g id="a_Node000029"><a xlink:href="simplexify_8cpp.html" target="_top" xlink:title=" ">
<polygon fill="white" stroke="#666666" points="1361,-343.5 1186,-343.5 1186,-313.5 1361,-313.5 1361,-343.5"/>
<text text-anchor="start" x="1194" y="-331.5" font-family="Helvetica,sans-Serif" font-size="10.00">/__w/vulpes/vulpes</text>
<text text-anchor="middle" x="1273.5" y="-320.5" font-family="Helvetica,sans-Serif" font-size="10.00">/vulpes/geometry/simplexify.cpp</text>
</a>
</g>
</g>
<!-- Node28&#45;&gt;Node29 -->
<g id="edge48_Node000028_Node000029" class="edge">
<title>Node28&#45;&gt;Node29</title>
<g id="a_edge48_Node000028_Node000029"><a xlink:title=" ">
<path fill="none" stroke="#63b8ff" d="M1273.5,-380.04C1273.5,-367.95 1273.5,-353.79 1273.5,-343.54"/>
<polygon fill="#63b8ff" stroke="#63b8ff" points="1270,-380.39 1273.5,-390.39 1277,-380.39 1270,-380.39"/>
</a>
</g>
</g>
</g>
</svg>
