<?xml version="1.0" encoding="UTF-8" standalone="no"?>
<!DOCTYPE svg PUBLIC "-//W3C//DTD SVG 1.1//EN"
 "http://www.w3.org/Graphics/SVG/1.1/DTD/svg11.dtd">
<!-- Generated by graphviz version 12.2.1 (20241206.2353)
 -->
<!-- Title: /Users/ilariomazzieri/Desktop/vulpes/vulpes/geometry/traits.hpp Pages: 1 -->
<svg width="146pt" height="105pt"
 viewBox="0.00 0.00 146.25 105.00" xmlns="http://www.w3.org/2000/svg" xmlns:xlink="http://www.w3.org/1999/xlink">
<g id="graph0" class="graph" transform="scale(1 1) rotate(0) translate(4 101)">
<title>/Users/ilariomazzieri/Desktop/vulpes/vulpes/geometry/traits.hpp</title>
<!-- Node1 -->
<g id="Node000001" class="node">
<title>Node1</title>
<g id="a_Node000001"><a xlink:title=" ">
<polygon fill="#999999" stroke="#666666" points="122.5,-97 3.75,-97 3.75,-55.25 122.5,-55.25 122.5,-97"/>
<text text-anchor="start" x="11.75" y="-83.5" font-family="Helvetica,sans-Serif" font-size="10.00">/Users/ilariomazzieri</text>
<text text-anchor="start" x="11.75" y="-72.25" font-family="Helvetica,sans-Serif" font-size="10.00">/Desktop/vulpes/vulpes</text>
<text text-anchor="middle" x="63.12" y="-61" font-family="Helvetica,sans-Serif" font-size="10.00">/geometry/traits.hpp</text>
</a>
</g>
</g>
<!-- Node2 -->
<g id="Node000002" class="node">
<title>Node2</title>
<g id="a_Node000002"><a xlink:title=" ">
<polygon fill="#e0e0e0" stroke="#999999" points="48.25,-19.25 0,-19.25 0,0 48.25,0 48.25,-19.25"/>
<text text-anchor="middle" x="24.12" y="-5.75" font-family="Helvetica,sans-Serif" font-size="10.00">cstddef</text>
</a>
</g>
</g>
<!-- Node1&#45;&gt;Node2 -->
<g id="edge1_Node000001_Node000002" class="edge">
<title>Node1&#45;&gt;Node2</title>
<g id="a_edge1_Node000001_Node000002"><a xlink:title=" ">
<path fill="none" stroke="#63b8ff" d="M51,-55.07C46.02,-46.84 40.3,-37.37 35.41,-29.29"/>
<polygon fill="#63b8ff" stroke="#63b8ff" points="38.56,-27.74 30.39,-20.99 32.57,-31.36 38.56,-27.74"/>
</a>
</g>
</g>
<!-- Node3 -->
<g id="Node000003" class="node">
<title>Node3</title>
<g id="a_Node000003"><a xlink:title=" ">
<polygon fill="#e0e0e0" stroke="#999999" points="138.25,-19.25 66,-19.25 66,0 138.25,0 138.25,-19.25"/>
<text text-anchor="middle" x="102.12" y="-5.75" font-family="Helvetica,sans-Serif" font-size="10.00">Eigen/Dense</text>
</a>
</g>
</g>
<!-- Node1&#45;&gt;Node3 -->
<g id="edge2_Node000001_Node000003" class="edge">
<title>Node1&#45;&gt;Node3</title>
<g id="a_edge2_Node000001_Node000003"><a xlink:title=" ">
<path fill="none" stroke="#63b8ff" d="M75.25,-55.07C80.23,-46.84 85.95,-37.37 90.84,-29.29"/>
<polygon fill="#63b8ff" stroke="#63b8ff" points="93.68,-31.36 95.86,-20.99 87.69,-27.74 93.68,-31.36"/>
</a>
</g>
</g>
</g>
</svg>
