<?xml version="1.0" encoding="UTF-8" standalone="no"?>
<!DOCTYPE svg PUBLIC "-//W3C//DTD SVG 1.1//EN"
 "http://www.w3.org/Graphics/SVG/1.1/DTD/svg11.dtd">
<!-- Generated by graphviz version 2.42.4 (0)
 -->
<!-- Title: /__w/vulpes/vulpes/vulpes/la/vector.hpp Pages: 1 -->
<svg width="621pt" height="258pt"
 viewBox="0.00 0.00 620.50 258.00" xmlns="http://www.w3.org/2000/svg" xmlns:xlink="http://www.w3.org/1999/xlink">
<g id="graph0" class="graph" transform="scale(1 1) rotate(0) translate(4 254)">
<title>/__w/vulpes/vulpes/vulpes/la/vector.hpp</title>
<!-- Node1 -->
<g id="Node000001" class="node">
<title>Node1</title>
<g id="a_Node000001"><a xlink:title=" ">
<polygon fill="#999999" stroke="#666666" points="379.5,-250 261.5,-250 261.5,-220 379.5,-220 379.5,-250"/>
<text text-anchor="start" x="269.5" y="-238" font-family="Helvetica,sans-Serif" font-size="10.00">/__w/vulpes/vulpes</text>
<text text-anchor="middle" x="320.5" y="-227" font-family="Helvetica,sans-Serif" font-size="10.00">/vulpes/la/vector.hpp</text>
</a>
</g>
</g>
<!-- Node2 -->
<g id="Node000002" class="node">
<title>Node2</title>
<g id="a_Node000002"><a xlink:href="dg__utils_8hpp.html" target="_top" xlink:title=" ">
<polygon fill="white" stroke="#666666" points="117,-107 0,-107 0,-66 117,-66 117,-107"/>
<text text-anchor="start" x="8" y="-95" font-family="Helvetica,sans-Serif" font-size="10.00">/__w/vulpes/vulpes</text>
<text text-anchor="start" x="8" y="-84" font-family="Helvetica,sans-Serif" font-size="10.00">/vulpes/assemble/dg</text>
<text text-anchor="middle" x="58.5" y="-73" font-family="Helvetica,sans-Serif" font-size="10.00">_utils.hpp</text>
</a>
</g>
</g>
<!-- Node1&#45;&gt;Node2 -->
<g id="edge1_Node000001_Node000002" class="edge">
<title>Node1&#45;&gt;Node2</title>
<g id="a_edge1_Node000001_Node000002"><a xlink:title=" ">
<path fill="none" stroke="#63b8ff" d="M251.28,-228.26C211.58,-222.19 162.46,-209.69 125.5,-184 97.53,-164.56 77.54,-129.42 67.02,-107.33"/>
<polygon fill="#63b8ff" stroke="#63b8ff" points="251.02,-231.76 261.42,-229.71 252.01,-224.83 251.02,-231.76"/>
</a>
</g>
</g>
<!-- Node3 -->
<g id="Node000003" class="node">
<title>Node3</title>
<g id="a_Node000003"><a xlink:href="linear__solver_8hpp.html" target="_top" xlink:title=" ">
<polygon fill="white" stroke="#666666" points="460.5,-101.5 310.5,-101.5 310.5,-71.5 460.5,-71.5 460.5,-101.5"/>
<text text-anchor="start" x="318.5" y="-89.5" font-family="Helvetica,sans-Serif" font-size="10.00">/__w/vulpes/vulpes</text>
<text text-anchor="middle" x="385.5" y="-78.5" font-family="Helvetica,sans-Serif" font-size="10.00">/vulpes/la/linear_solver.hpp</text>
</a>
</g>
</g>
<!-- Node1&#45;&gt;Node3 -->
<g id="edge2_Node000001_Node000003" class="edge">
<title>Node1&#45;&gt;Node3</title>
<g id="a_edge2_Node000001_Node000003"><a xlink:title=" ">
<path fill="none" stroke="#63b8ff" d="M322.37,-209.58C324.57,-190.64 329.31,-164.15 339.5,-143 347.1,-127.22 360.15,-112.1 370.41,-101.64"/>
<polygon fill="#63b8ff" stroke="#63b8ff" points="318.86,-209.46 321.35,-219.76 325.83,-210.16 318.86,-209.46"/>
</a>
</g>
</g>
<!-- Node5 -->
<g id="Node000005" class="node">
<title>Node5</title>
<g id="a_Node000005"><a xlink:href="sparse__matrix_8hpp.html" target="_top" xlink:title=" ">
<polygon fill="white" stroke="#666666" points="292.5,-178.5 134.5,-178.5 134.5,-148.5 292.5,-148.5 292.5,-178.5"/>
<text text-anchor="start" x="142.5" y="-166.5" font-family="Helvetica,sans-Serif" font-size="10.00">/__w/vulpes/vulpes</text>
<text text-anchor="middle" x="213.5" y="-155.5" font-family="Helvetica,sans-Serif" font-size="10.00">/vulpes/la/sparse_matrix.hpp</text>
</a>
</g>
</g>
<!-- Node1&#45;&gt;Node5 -->
<g id="edge4_Node000001_Node000005" class="edge">
<title>Node1&#45;&gt;Node5</title>
<g id="a_edge4_Node000001_Node000005"><a xlink:title=" ">
<path fill="none" stroke="#63b8ff" d="M290.1,-214.25C272.56,-202.86 250.92,-188.81 235.12,-178.54"/>
<polygon fill="#63b8ff" stroke="#63b8ff" points="288.55,-217.42 298.85,-219.94 292.37,-211.55 288.55,-217.42"/>
</a>
</g>
</g>
<!-- Node7 -->
<g id="Node000007" class="node">
<title>Node7</title>
<g id="a_Node000007"><a xlink:href="vector_8cpp.html" target="_top" xlink:title=" ">
<polygon fill="white" stroke="#666666" points="466,-178.5 349,-178.5 349,-148.5 466,-148.5 466,-178.5"/>
<text text-anchor="start" x="357" y="-166.5" font-family="Helvetica,sans-Serif" font-size="10.00">/__w/vulpes/vulpes</text>
<text text-anchor="middle" x="407.5" y="-155.5" font-family="Helvetica,sans-Serif" font-size="10.00">/vulpes/la/vector.cpp</text>
</a>
</g>
</g>
<!-- Node1&#45;&gt;Node7 -->
<g id="edge8_Node000001_Node000007" class="edge">
<title>Node1&#45;&gt;Node7</title>
<g id="a_edge8_Node000001_Node000007"><a xlink:title=" ">
<path fill="none" stroke="#63b8ff" d="M346.01,-213.63C360.12,-202.35 377.31,-188.62 389.92,-178.54"/>
<polygon fill="#63b8ff" stroke="#63b8ff" points="343.73,-210.96 338.11,-219.94 348.1,-216.43 343.73,-210.96"/>
</a>
</g>
</g>
<!-- Node8 -->
<g id="Node000008" class="node">
<title>Node8</title>
<g id="a_Node000008"><a xlink:href="project__solution_8hpp.html" target="_top" xlink:title=" ">
<polygon fill="white" stroke="#666666" points="612.5,-184 484.5,-184 484.5,-143 612.5,-143 612.5,-184"/>
<text text-anchor="start" x="492.5" y="-172" font-family="Helvetica,sans-Serif" font-size="10.00">/__w/vulpes/vulpes</text>
<text text-anchor="start" x="492.5" y="-161" font-family="Helvetica,sans-Serif" font-size="10.00">/vulpes/postprocessing</text>
<text text-anchor="middle" x="548.5" y="-150" font-family="Helvetica,sans-Serif" font-size="10.00">/project_solution.hpp</text>
</a>
</g>
</g>
<!-- Node1&#45;&gt;Node8 -->
<g id="edge9_Node000001_Node000008" class="edge">
<title>Node1&#45;&gt;Node8</title>
<g id="a_edge9_Node000001_Node000008"><a xlink:title=" ">
<path fill="none" stroke="#63b8ff" d="M376.47,-216.94C409.09,-207 450.35,-194.42 484.29,-184.07"/>
<polygon fill="#63b8ff" stroke="#63b8ff" points="375.18,-213.67 366.64,-219.94 377.23,-220.37 375.18,-213.67"/>
</a>
</g>
</g>
<!-- Node4 -->
<g id="Node000004" class="node">
<title>Node4</title>
<g id="a_Node000004"><a xlink:href="linear__solver_8cpp.html" target="_top" xlink:title=" ">
<polygon fill="white" stroke="#666666" points="460,-30 311,-30 311,0 460,0 460,-30"/>
<text text-anchor="start" x="319" y="-18" font-family="Helvetica,sans-Serif" font-size="10.00">/__w/vulpes/vulpes</text>
<text text-anchor="middle" x="385.5" y="-7" font-family="Helvetica,sans-Serif" font-size="10.00">/vulpes/la/linear_solver.cpp</text>
</a>
</g>
</g>
<!-- Node3&#45;&gt;Node4 -->
<g id="edge3_Node000003_Node000004" class="edge">
<title>Node3&#45;&gt;Node4</title>
<g id="a_edge3_Node000003_Node000004"><a xlink:title=" ">
<path fill="none" stroke="#63b8ff" d="M385.5,-61.25C385.5,-50.81 385.5,-38.99 385.5,-30.04"/>
<polygon fill="#63b8ff" stroke="#63b8ff" points="382,-61.44 385.5,-71.44 389,-61.44 382,-61.44"/>
</a>
</g>
</g>
<!-- Node5&#45;&gt;Node2 -->
<g id="edge5_Node000005_Node000002" class="edge">
<title>Node5&#45;&gt;Node2</title>
<g id="a_edge5_Node000005_Node000002"><a xlink:title=" ">
<path fill="none" stroke="#63b8ff" d="M175.16,-143.95C151.98,-132.73 122.47,-118.45 98.93,-107.06"/>
<polygon fill="#63b8ff" stroke="#63b8ff" points="173.82,-147.19 184.35,-148.39 176.87,-140.89 173.82,-147.19"/>
</a>
</g>
</g>
<!-- Node5&#45;&gt;Node3 -->
<g id="edge6_Node000005_Node000003" class="edge">
<title>Node5&#45;&gt;Node3</title>
<g id="a_edge6_Node000005_Node000003"><a xlink:title=" ">
<path fill="none" stroke="#63b8ff" d="M255.27,-144.29C285.44,-131.13 325.59,-113.62 353.29,-101.54"/>
<polygon fill="#63b8ff" stroke="#63b8ff" points="253.62,-141.19 245.85,-148.39 256.42,-147.6 253.62,-141.19"/>
</a>
</g>
</g>
<!-- Node6 -->
<g id="Node000006" class="node">
<title>Node6</title>
<g id="a_Node000006"><a xlink:href="sparse__matrix_8cpp.html" target="_top" xlink:title=" ">
<polygon fill="white" stroke="#666666" points="292,-101.5 135,-101.5 135,-71.5 292,-71.5 292,-101.5"/>
<text text-anchor="start" x="143" y="-89.5" font-family="Helvetica,sans-Serif" font-size="10.00">/__w/vulpes/vulpes</text>
<text text-anchor="middle" x="213.5" y="-78.5" font-family="Helvetica,sans-Serif" font-size="10.00">/vulpes/la/sparse_matrix.cpp</text>
</a>
</g>
</g>
<!-- Node5&#45;&gt;Node6 -->
<g id="edge7_Node000005_Node000006" class="edge">
<title>Node5&#45;&gt;Node6</title>
<g id="a_edge7_Node000005_Node000006"><a xlink:title=" ">
<path fill="none" stroke="#63b8ff" d="M213.5,-138.04C213.5,-125.95 213.5,-111.79 213.5,-101.54"/>
<polygon fill="#63b8ff" stroke="#63b8ff" points="210,-138.39 213.5,-148.39 217,-138.39 210,-138.39"/>
</a>
</g>
</g>
</g>
</svg>
