<?xml version="1.0" encoding="UTF-8" standalone="no"?>
<!DOCTYPE svg PUBLIC "-//W3C//DTD SVG 1.1//EN"
 "http://www.w3.org/Graphics/SVG/1.1/DTD/svg11.dtd">
<!-- Generated by graphviz version 12.2.1 (20241206.2353)
 -->
<!-- Title: /Users/ilariomazzieri/Desktop/vulpes/vulpes/la/vector.cpp Pages: 1 -->
<svg width="1000pt" height="337pt"
 viewBox="0.00 0.00 1000.00 337.25" xmlns="http://www.w3.org/2000/svg" xmlns:xlink="http://www.w3.org/1999/xlink">
<g id="graph0" class="graph" transform="scale(1 1) rotate(0) translate(4 333.25)">
<title>/Users/ilariomazzieri/Desktop/vulpes/vulpes/la/vector.cpp</title>
<!-- Node1 -->
<g id="Node000001" class="node">
<title>Node1</title>
<g id="a_Node000001"><a xlink:title=" ">
<polygon fill="#999999" stroke="#666666" points="577.38,-329.25 458.62,-329.25 458.62,-287.5 577.38,-287.5 577.38,-329.25"/>
<text text-anchor="start" x="466.62" y="-315.75" font-family="Helvetica,sans-Serif" font-size="10.00">/Users/ilariomazzieri</text>
<text text-anchor="start" x="466.62" y="-304.5" font-family="Helvetica,sans-Serif" font-size="10.00">/Desktop/vulpes/vulpes</text>
<text text-anchor="middle" x="518" y="-293.25" font-family="Helvetica,sans-Serif" font-size="10.00">/la/vector.cpp</text>
</a>
</g>
</g>
<!-- Node2 -->
<g id="Node000002" class="node">
<title>Node2</title>
<g id="a_Node000002"><a xlink:href="vector_8hpp.html" target="_top" xlink:title=" ">
<polygon fill="white" stroke="#666666" points="569.5,-251.5 466.5,-251.5 466.5,-232.25 569.5,-232.25 569.5,-251.5"/>
<text text-anchor="middle" x="518" y="-238" font-family="Helvetica,sans-Serif" font-size="10.00">vulpes/la/vector.hpp</text>
</a>
</g>
</g>
<!-- Node1&#45;&gt;Node2 -->
<g id="edge1_Node000001_Node000002" class="edge">
<title>Node1&#45;&gt;Node2</title>
<g id="a_edge1_Node000001_Node000002"><a xlink:title=" ">
<path fill="none" stroke="#63b8ff" d="M518,-287.32C518,-279.65 518,-270.89 518,-263.2"/>
<polygon fill="#63b8ff" stroke="#63b8ff" points="521.5,-263.46 518,-253.46 514.5,-263.46 521.5,-263.46"/>
</a>
</g>
</g>
<!-- Node8 -->
<g id="Node000008" class="node">
<title>Node8</title>
<g id="a_Node000008"><a xlink:title=" ">
<polygon fill="#e0e0e0" stroke="#999999" points="992,-19.25 952,-19.25 952,0 992,0 992,-19.25"/>
<text text-anchor="middle" x="972" y="-5.75" font-family="Helvetica,sans-Serif" font-size="10.00">string</text>
</a>
</g>
</g>
<!-- Node1&#45;&gt;Node8 -->
<g id="edge42_Node000001_Node000008" class="edge">
<title>Node1&#45;&gt;Node8</title>
<g id="a_edge42_Node000001_Node000008"><a xlink:title=" ">
<path fill="none" stroke="#63b8ff" d="M577.74,-304.22C701.62,-296.05 975,-268.82 975,-187.62 975,-187.62 975,-187.62 975,-130.38 975,-95.46 973.71,-54.83 972.82,-31"/>
<polygon fill="#63b8ff" stroke="#63b8ff" points="976.32,-31.01 972.44,-21.15 969.33,-31.28 976.32,-31.01"/>
</a>
</g>
</g>
<!-- Node9 -->
<g id="Node000009" class="node">
<title>Node9</title>
<g id="a_Node000009"><a xlink:title=" ">
<polygon fill="#e0e0e0" stroke="#999999" points="57.62,-19.25 18.38,-19.25 18.38,0 57.62,0 57.62,-19.25"/>
<text text-anchor="middle" x="38" y="-5.75" font-family="Helvetica,sans-Serif" font-size="10.00">utility</text>
</a>
</g>
</g>
<!-- Node1&#45;&gt;Node9 -->
<g id="edge43_Node000001_Node000009" class="edge">
<title>Node1&#45;&gt;Node9</title>
<g id="a_edge43_Node000001_Node000009"><a xlink:title=" ">
<path fill="none" stroke="#63b8ff" d="M458.33,-306.07C322.12,-301.49 0,-280.79 0,-187.62 0,-187.62 0,-187.62 0,-130.38 0,-93.43 16.64,-52.95 27.89,-29.79"/>
<polygon fill="#63b8ff" stroke="#63b8ff" points="30.96,-31.48 32.35,-20.98 24.71,-28.32 30.96,-31.48"/>
</a>
</g>
</g>
<!-- Node10 -->
<g id="Node000010" class="node">
<title>Node10</title>
<g id="a_Node000010"><a xlink:title=" ">
<polygon fill="#e0e0e0" stroke="#999999" points="118.5,-19.25 75.5,-19.25 75.5,0 118.5,0 118.5,-19.25"/>
<text text-anchor="middle" x="97" y="-5.75" font-family="Helvetica,sans-Serif" font-size="10.00">vector</text>
</a>
</g>
</g>
<!-- Node1&#45;&gt;Node10 -->
<g id="edge44_Node000001_Node000010" class="edge">
<title>Node1&#45;&gt;Node10</title>
<g id="a_edge44_Node000001_Node000010"><a xlink:title=" ">
<path fill="none" stroke="#63b8ff" d="M458.4,-290.46C399.19,-272.19 307.07,-239.76 235,-196.25 202.83,-176.83 198.01,-167.13 171,-141 146.98,-117.77 136.64,-114.73 120,-85.75 110.03,-68.39 103.93,-46.24 100.54,-30.5"/>
<polygon fill="#63b8ff" stroke="#63b8ff" points="104.03,-30.1 98.68,-20.95 97.16,-31.44 104.03,-30.1"/>
</a>
</g>
</g>
<!-- Node17 -->
<g id="Node000017" class="node">
<title>Node17</title>
<g id="a_Node000017"><a xlink:title=" ">
<polygon fill="#e0e0e0" stroke="#999999" points="933.75,-19.25 880.25,-19.25 880.25,0 933.75,0 933.75,-19.25"/>
<text text-anchor="middle" x="907" y="-5.75" font-family="Helvetica,sans-Serif" font-size="10.00">iostream</text>
</a>
</g>
</g>
<!-- Node1&#45;&gt;Node17 -->
<g id="edge41_Node000001_Node000017" class="edge">
<title>Node1&#45;&gt;Node17</title>
<g id="a_edge41_Node000001_Node000017"><a xlink:title=" ">
<path fill="none" stroke="#63b8ff" d="M577.8,-300.76C649.71,-290.04 770.62,-262.87 850,-196.25 900.01,-154.29 906.97,-69.6 907.4,-30.83"/>
<polygon fill="#63b8ff" stroke="#63b8ff" points="910.9,-30.87 907.35,-20.89 903.9,-30.91 910.9,-30.87"/>
</a>
</g>
</g>
<!-- Node3 -->
<g id="Node000003" class="node">
<title>Node3</title>
<g id="a_Node000003"><a xlink:title=" ">
<polygon fill="#e0e0e0" stroke="#999999" points="871,-141 807,-141 807,-121.75 871,-121.75 871,-141"/>
<text text-anchor="middle" x="839" y="-127.5" font-family="Helvetica,sans-Serif" font-size="10.00">petscsys.h</text>
</a>
</g>
</g>
<!-- Node2&#45;&gt;Node3 -->
<g id="edge2_Node000002_Node000003" class="edge">
<title>Node2&#45;&gt;Node3</title>
<g id="a_edge2_Node000002_Node000003"><a xlink:title=" ">
<path fill="none" stroke="#63b8ff" d="M569.95,-240.82C649.39,-239.56 795.6,-232.26 831,-196.25 842.15,-184.91 843.38,-166.44 842.27,-152.27"/>
<polygon fill="#63b8ff" stroke="#63b8ff" points="845.78,-152.2 841.07,-142.71 838.84,-153.07 845.78,-152.2"/>
</a>
</g>
</g>
<!-- Node4 -->
<g id="Node000004" class="node">
<title>Node4</title>
<g id="a_Node000004"><a xlink:title=" ">
<polygon fill="#e0e0e0" stroke="#999999" points="752,-196.25 688,-196.25 688,-177 752,-177 752,-196.25"/>
<text text-anchor="middle" x="720" y="-182.75" font-family="Helvetica,sans-Serif" font-size="10.00">petscvec.h</text>
</a>
</g>
</g>
<!-- Node2&#45;&gt;Node4 -->
<g id="edge3_Node000002_Node000004" class="edge">
<title>Node2&#45;&gt;Node4</title>
<g id="a_edge3_Node000002_Node000004"><a xlink:title=" ">
<path fill="none" stroke="#63b8ff" d="M552.27,-231.84C586.54,-222.81 639.38,-208.88 676.57,-199.07"/>
<polygon fill="#63b8ff" stroke="#63b8ff" points="677.33,-202.49 686.11,-196.56 675.55,-195.72 677.33,-202.49"/>
</a>
</g>
</g>
<!-- Node5 -->
<g id="Node000005" class="node">
<title>Node5</title>
<g id="a_Node000005"><a xlink:title=" ">
<polygon fill="#e0e0e0" stroke="#999999" points="317.88,-19.25 262.12,-19.25 262.12,0 317.88,0 317.88,-19.25"/>
<text text-anchor="middle" x="290" y="-5.75" font-family="Helvetica,sans-Serif" font-size="10.00">algorithm</text>
</a>
</g>
</g>
<!-- Node2&#45;&gt;Node5 -->
<g id="edge4_Node000002_Node000005" class="edge">
<title>Node2&#45;&gt;Node5</title>
<g id="a_edge4_Node000002_Node000005"><a xlink:title=" ">
<path fill="none" stroke="#63b8ff" d="M466.11,-235.31C386.21,-223.61 235.56,-188.39 171,-85.75 163.78,-74.28 163.28,-66.39 171,-55.25 180.46,-41.6 219.93,-28.58 250.86,-20.16"/>
<polygon fill="#63b8ff" stroke="#63b8ff" points="251.55,-23.6 260.33,-17.66 249.76,-16.83 251.55,-23.6"/>
</a>
</g>
</g>
<!-- Node6 -->
<g id="Node000006" class="node">
<title>Node6</title>
<g id="a_Node000006"><a xlink:title=" ">
<polygon fill="#e0e0e0" stroke="#999999" points="862.12,-19.25 813.88,-19.25 813.88,0 862.12,0 862.12,-19.25"/>
<text text-anchor="middle" x="838" y="-5.75" font-family="Helvetica,sans-Serif" font-size="10.00">cstddef</text>
</a>
</g>
</g>
<!-- Node2&#45;&gt;Node6 -->
<g id="edge5_Node000002_Node000006" class="edge">
<title>Node2&#45;&gt;Node6</title>
<g id="a_edge5_Node000002_Node000006"><a xlink:title=" ">
<path fill="none" stroke="#63b8ff" d="M518.46,-232C519.6,-218.63 523.51,-193.17 537,-177 594.46,-108.13 638.83,-129.72 717,-85.75 751.89,-66.13 791.03,-41.28 815.1,-25.67"/>
<polygon fill="#63b8ff" stroke="#63b8ff" points="816.71,-28.8 823.17,-20.41 812.88,-22.93 816.71,-28.8"/>
</a>
</g>
</g>
<!-- Node7 -->
<g id="Node000007" class="node">
<title>Node7</title>
<g id="a_Node000007"><a xlink:title=" ">
<polygon fill="#e0e0e0" stroke="#999999" points="821.62,-196.25 770.38,-196.25 770.38,-177 821.62,-177 821.62,-196.25"/>
<text text-anchor="middle" x="796" y="-182.75" font-family="Helvetica,sans-Serif" font-size="10.00">memory</text>
</a>
</g>
</g>
<!-- Node2&#45;&gt;Node7 -->
<g id="edge6_Node000002_Node000007" class="edge">
<title>Node2&#45;&gt;Node7</title>
<g id="a_edge6_Node000002_Node000007"><a xlink:title=" ">
<path fill="none" stroke="#63b8ff" d="M569.85,-232.28C616.76,-224.3 687.99,-211.66 759.1,-196.55"/>
<polygon fill="#63b8ff" stroke="#63b8ff" points="759.52,-200.04 768.57,-194.52 758.06,-193.2 759.52,-200.04"/>
</a>
</g>
</g>
<!-- Node2&#45;&gt;Node8 -->
<g id="edge7_Node000002_Node000008" class="edge">
<title>Node2&#45;&gt;Node8</title>
<g id="a_edge7_Node000002_Node000008"><a xlink:title=" ">
<path fill="none" stroke="#63b8ff" d="M569.94,-239.09C651.36,-235.44 804.46,-224.89 850,-196.25 913.76,-156.14 951.25,-69.17 965.43,-30.2"/>
<polygon fill="#63b8ff" stroke="#63b8ff" points="968.66,-31.58 968.66,-20.98 962.05,-29.27 968.66,-31.58"/>
</a>
</g>
</g>
<!-- Node2&#45;&gt;Node9 -->
<g id="edge8_Node000002_Node000009" class="edge">
<title>Node2&#45;&gt;Node9</title>
<g id="a_edge8_Node000002_Node000009"><a xlink:title=" ">
<path fill="none" stroke="#63b8ff" d="M466.23,-241.11C407.53,-239.52 310.24,-231.15 235,-196.25 150.47,-157.05 78.7,-67.21 50.64,-28.7"/>
<polygon fill="#63b8ff" stroke="#63b8ff" points="53.73,-27 45.06,-20.91 48.03,-31.08 53.73,-27"/>
</a>
</g>
</g>
<!-- Node2&#45;&gt;Node10 -->
<g id="edge9_Node000002_Node000010" class="edge">
<title>Node2&#45;&gt;Node10</title>
<g id="a_edge9_Node000002_Node000010"><a xlink:title=" ">
<path fill="none" stroke="#63b8ff" d="M466.03,-238.46C414.79,-234.49 335.19,-223.99 272,-196.25 191.73,-161.01 130.97,-69.3 107.54,-29.51"/>
<polygon fill="#63b8ff" stroke="#63b8ff" points="110.59,-27.79 102.57,-20.86 104.52,-31.27 110.59,-27.79"/>
</a>
</g>
</g>
<!-- Node11 -->
<g id="Node000011" class="node">
<title>Node11</title>
<g id="a_Node000011"><a xlink:title=" ">
<polygon fill="#e0e0e0" stroke="#999999" points="252.12,-80.12 179.88,-80.12 179.88,-60.88 252.12,-60.88 252.12,-80.12"/>
<text text-anchor="middle" x="216" y="-66.62" font-family="Helvetica,sans-Serif" font-size="10.00">Eigen/Dense</text>
</a>
</g>
</g>
<!-- Node2&#45;&gt;Node11 -->
<g id="edge10_Node000002_Node000011" class="edge">
<title>Node2&#45;&gt;Node11</title>
<g id="a_edge10_Node000002_Node000011"><a xlink:title=" ">
<path fill="none" stroke="#63b8ff" d="M501.76,-231.77C452.18,-203.96 302.44,-119.98 241.86,-86"/>
<polygon fill="#63b8ff" stroke="#63b8ff" points="243.7,-83.03 233.27,-81.19 240.28,-89.13 243.7,-83.03"/>
</a>
</g>
</g>
<!-- Node12 -->
<g id="Node000012" class="node">
<title>Node12</title>
<g id="a_Node000012"><a xlink:href="petsc__utils_8hpp.html" target="_top" xlink:title=" ">
<polygon fill="white" stroke="#666666" points="670,-196.25 546,-196.25 546,-177 670,-177 670,-196.25"/>
<text text-anchor="middle" x="608" y="-182.75" font-family="Helvetica,sans-Serif" font-size="10.00">vulpes/la/petsc_utils.hpp</text>
</a>
</g>
</g>
<!-- Node2&#45;&gt;Node12 -->
<g id="edge11_Node000002_Node000012" class="edge">
<title>Node2&#45;&gt;Node12</title>
<g id="a_edge11_Node000002_Node000012"><a xlink:title=" ">
<path fill="none" stroke="#63b8ff" d="M533.27,-231.84C546.84,-223.81 566.95,-211.91 582.9,-202.48"/>
<polygon fill="#63b8ff" stroke="#63b8ff" points="584.53,-205.58 591.36,-197.47 580.97,-199.55 584.53,-205.58"/>
</a>
</g>
</g>
<!-- Node13 -->
<g id="Node000013" class="node">
<title>Node13</title>
<g id="a_Node000013"><a xlink:href="mpi__wrappers_8hpp.html" target="_top" xlink:title=" ">
<polygon fill="white" stroke="#666666" points="559,-141 411,-141 411,-121.75 559,-121.75 559,-141"/>
<text text-anchor="middle" x="485" y="-127.5" font-family="Helvetica,sans-Serif" font-size="10.00">vulpes/utils/mpi_wrappers.hpp</text>
</a>
</g>
</g>
<!-- Node2&#45;&gt;Node13 -->
<g id="edge40_Node000002_Node000013" class="edge">
<title>Node2&#45;&gt;Node13</title>
<g id="a_edge40_Node000002_Node000013"><a xlink:title=" ">
<path fill="none" stroke="#63b8ff" d="M515.17,-232C512.32,-223 507.8,-208.67 504,-196.25 499.49,-181.49 494.52,-164.77 490.8,-152.14"/>
<polygon fill="#63b8ff" stroke="#63b8ff" points="494.27,-151.54 488.09,-142.94 487.55,-153.52 494.27,-151.54"/>
</a>
</g>
</g>
<!-- Node12&#45;&gt;Node3 -->
<g id="edge12_Node000012_Node000003" class="edge">
<title>Node12&#45;&gt;Node3</title>
<g id="a_edge12_Node000012_Node000003"><a xlink:title=" ">
<path fill="none" stroke="#63b8ff" d="M647.45,-176.53C688.64,-167.04 753.07,-152.18 795.66,-142.36"/>
<polygon fill="#63b8ff" stroke="#63b8ff" points="796.36,-145.8 805.32,-140.14 794.79,-138.98 796.36,-145.8"/>
</a>
</g>
</g>
<!-- Node12&#45;&gt;Node8 -->
<g id="edge13_Node000012_Node000008" class="edge">
<title>Node12&#45;&gt;Node8</title>
<g id="a_edge13_Node000012_Node000008"><a xlink:title=" ">
<path fill="none" stroke="#63b8ff" d="M626.8,-176.58C686.35,-147.96 871.04,-59.16 942.94,-24.6"/>
<polygon fill="#63b8ff" stroke="#63b8ff" points="944.23,-27.86 951.73,-20.37 941.2,-21.55 944.23,-27.86"/>
</a>
</g>
</g>
<!-- Node12&#45;&gt;Node13 -->
<g id="edge14_Node000012_Node000013" class="edge">
<title>Node12&#45;&gt;Node13</title>
<g id="a_edge14_Node000012_Node000013"><a xlink:title=" ">
<path fill="none" stroke="#63b8ff" d="M587.13,-176.59C567.7,-168.18 538.46,-155.52 516.24,-145.9"/>
<polygon fill="#63b8ff" stroke="#63b8ff" points="517.92,-142.81 507.36,-142.05 515.14,-149.24 517.92,-142.81"/>
</a>
</g>
</g>
<!-- Node13&#45;&gt;Node10 -->
<g id="edge19_Node000013_Node000010" class="edge">
<title>Node13&#45;&gt;Node10</title>
<g id="a_edge19_Node000013_Node000010"><a xlink:title=" ">
<path fill="none" stroke="#63b8ff" d="M416.25,-121.32C380.04,-114.74 335.67,-103.73 299,-85.75 279.56,-76.22 280.31,-65.05 261,-55.25 209.12,-28.93 188.75,-34.93 129.96,-19.92"/>
<polygon fill="#63b8ff" stroke="#63b8ff" points="130.97,-16.57 120.4,-17.37 129.16,-23.33 130.97,-16.57"/>
</a>
</g>
</g>
<!-- Node13&#45;&gt;Node11 -->
<g id="edge20_Node000013_Node000011" class="edge">
<title>Node13&#45;&gt;Node11</title>
<g id="a_edge20_Node000013_Node000011"><a xlink:title=" ">
<path fill="none" stroke="#63b8ff" d="M434.74,-121.27C390.2,-112.93 323.49,-99.78 266,-85.75 263.24,-85.08 260.4,-84.35 257.54,-83.6"/>
<polygon fill="#63b8ff" stroke="#63b8ff" points="258.6,-80.26 248.03,-81.01 256.76,-87.02 258.6,-80.26"/>
</a>
</g>
</g>
<!-- Node14 -->
<g id="Node000014" class="node">
<title>Node14</title>
<g id="a_Node000014"><a xlink:title=" ">
<polygon fill="#e0e0e0" stroke="#999999" points="508,-80.12 468,-80.12 468,-60.88 508,-60.88 508,-80.12"/>
<text text-anchor="middle" x="488" y="-66.62" font-family="Helvetica,sans-Serif" font-size="10.00">mpi.h</text>
</a>
</g>
</g>
<!-- Node13&#45;&gt;Node14 -->
<g id="edge15_Node000013_Node000014" class="edge">
<title>Node13&#45;&gt;Node14</title>
<g id="a_edge15_Node000013_Node000014"><a xlink:title=" ">
<path fill="none" stroke="#63b8ff" d="M485.46,-121.43C485.86,-113.57 486.45,-101.82 486.97,-91.7"/>
<polygon fill="#63b8ff" stroke="#63b8ff" points="490.45,-92.2 487.46,-82.04 483.46,-91.85 490.45,-92.2"/>
</a>
</g>
</g>
<!-- Node15 -->
<g id="Node000015" class="node">
<title>Node15</title>
<g id="a_Node000015"><a xlink:title=" ">
<polygon fill="#e0e0e0" stroke="#999999" points="574.12,-80.12 525.88,-80.12 525.88,-60.88 574.12,-60.88 574.12,-80.12"/>
<text text-anchor="middle" x="550" y="-66.62" font-family="Helvetica,sans-Serif" font-size="10.00">petsc.h</text>
</a>
</g>
</g>
<!-- Node13&#45;&gt;Node15 -->
<g id="edge16_Node000013_Node000015" class="edge">
<title>Node13&#45;&gt;Node15</title>
<g id="a_edge16_Node000013_Node000015"><a xlink:title=" ">
<path fill="none" stroke="#63b8ff" d="M494.87,-121.43C504.61,-112.62 519.72,-98.93 531.66,-88.11"/>
<polygon fill="#63b8ff" stroke="#63b8ff" points="533.85,-90.85 538.91,-81.54 529.15,-85.66 533.85,-90.85"/>
</a>
</g>
</g>
<!-- Node16 -->
<g id="Node000016" class="node">
<title>Node16</title>
<g id="a_Node000016"><a xlink:title=" ">
<polygon fill="#e0e0e0" stroke="#999999" points="448.12,-19.25 399.88,-19.25 399.88,0 448.12,0 448.12,-19.25"/>
<text text-anchor="middle" x="424" y="-5.75" font-family="Helvetica,sans-Serif" font-size="10.00">cassert</text>
</a>
</g>
</g>
<!-- Node13&#45;&gt;Node16 -->
<g id="edge17_Node000013_Node000016" class="edge">
<title>Node13&#45;&gt;Node16</title>
<g id="a_edge17_Node000013_Node000016"><a xlink:title=" ">
<path fill="none" stroke="#63b8ff" d="M479.37,-121.28C473.93,-112.36 465.56,-98.3 459,-85.75 449.22,-67.05 439.17,-45.13 432.35,-29.81"/>
<polygon fill="#63b8ff" stroke="#63b8ff" points="435.68,-28.67 428.45,-20.93 429.27,-31.49 435.68,-28.67"/>
</a>
</g>
</g>
<!-- Node13&#45;&gt;Node17 -->
<g id="edge18_Node000013_Node000017" class="edge">
<title>Node13&#45;&gt;Node17</title>
<g id="a_edge18_Node000013_Node000017"><a xlink:title=" ">
<path fill="none" stroke="#63b8ff" d="M549.27,-121.31C596.27,-113.89 661.28,-101.97 717,-85.75 775.43,-68.74 840.88,-40.79 877.7,-24.2"/>
<polygon fill="#63b8ff" stroke="#63b8ff" points="878.69,-27.59 886.35,-20.27 875.8,-21.22 878.69,-27.59"/>
</a>
</g>
</g>
<!-- Node18 -->
<g id="Node000018" class="node">
<title>Node18</title>
<g id="a_Node000018"><a xlink:href="crs__map_8hpp.html" target="_top" xlink:title=" ">
<polygon fill="white" stroke="#666666" points="412.25,-85.75 307.75,-85.75 307.75,-55.25 412.25,-55.25 412.25,-85.75"/>
<text text-anchor="start" x="315.75" y="-72.25" font-family="Helvetica,sans-Serif" font-size="10.00">vulpes/datastructure</text>
<text text-anchor="middle" x="360" y="-61" font-family="Helvetica,sans-Serif" font-size="10.00">/crs_map.hpp</text>
</a>
</g>
</g>
<!-- Node13&#45;&gt;Node18 -->
<g id="edge21_Node000013_Node000018" class="edge">
<title>Node13&#45;&gt;Node18</title>
<g id="a_edge21_Node000013_Node000018"><a xlink:title=" ">
<path fill="none" stroke="#63b8ff" d="M465.74,-121.3C448.68,-113.27 423.17,-101.25 401.48,-91.04"/>
<polygon fill="#63b8ff" stroke="#63b8ff" points="403.11,-87.93 392.57,-86.84 400.12,-94.27 403.11,-87.93"/>
</a>
</g>
</g>
<!-- Node22 -->
<g id="Node000022" class="node">
<title>Node22</title>
<g id="a_Node000022"><a xlink:href="profiler_8hpp.html" target="_top" xlink:title=" ">
<polygon fill="white" stroke="#666666" points="707.88,-80.12 592.12,-80.12 592.12,-60.88 707.88,-60.88 707.88,-80.12"/>
<text text-anchor="middle" x="650" y="-66.62" font-family="Helvetica,sans-Serif" font-size="10.00">vulpes/utils/profiler.hpp</text>
</a>
</g>
</g>
<!-- Node13&#45;&gt;Node22 -->
<g id="edge29_Node000013_Node000022" class="edge">
<title>Node13&#45;&gt;Node22</title>
<g id="a_edge29_Node000013_Node000022"><a xlink:title=" ">
<path fill="none" stroke="#63b8ff" d="M510.42,-121.3C538.16,-111.41 582.78,-95.49 614.08,-84.32"/>
<polygon fill="#63b8ff" stroke="#63b8ff" points="614.88,-87.75 623.13,-81.09 612.53,-81.15 614.88,-87.75"/>
</a>
</g>
</g>
<!-- Node18&#45;&gt;Node5 -->
<g id="edge22_Node000018_Node000005" class="edge">
<title>Node18&#45;&gt;Node5</title>
<g id="a_edge22_Node000018_Node000005"><a xlink:title=" ">
<path fill="none" stroke="#63b8ff" d="M342.7,-54.95C332.65,-46.5 319.97,-35.83 309.57,-27.08"/>
<polygon fill="#63b8ff" stroke="#63b8ff" points="311.86,-24.43 301.95,-20.68 307.35,-29.79 311.86,-24.43"/>
</a>
</g>
</g>
<!-- Node18&#45;&gt;Node9 -->
<g id="edge26_Node000018_Node000009" class="edge">
<title>Node18&#45;&gt;Node9</title>
<g id="a_edge26_Node000018_Node000009"><a xlink:title=" ">
<path fill="none" stroke="#63b8ff" d="M307.54,-61.37C240.43,-50.84 126.77,-32.51 69.17,-19.72"/>
<polygon fill="#63b8ff" stroke="#63b8ff" points="70.11,-16.34 59.58,-17.5 68.53,-23.16 70.11,-16.34"/>
</a>
</g>
</g>
<!-- Node18&#45;&gt;Node10 -->
<g id="edge28_Node000018_Node000010" class="edge">
<title>Node18&#45;&gt;Node10</title>
<g id="a_edge28_Node000018_Node000010"><a xlink:title=" ">
<path fill="none" stroke="#63b8ff" d="M307.4,-58.14C302.87,-57.16 298.35,-56.19 294,-55.25 223.26,-39.99 202.55,-37.92 130,-19.89"/>
<polygon fill="#63b8ff" stroke="#63b8ff" points="130.93,-16.51 120.38,-17.48 129.23,-23.3 130.93,-16.51"/>
</a>
</g>
</g>
<!-- Node18&#45;&gt;Node16 -->
<g id="edge24_Node000018_Node000016" class="edge">
<title>Node18&#45;&gt;Node16</title>
<g id="a_edge24_Node000018_Node000016"><a xlink:title=" ">
<path fill="none" stroke="#63b8ff" d="M375.82,-54.95C384.91,-46.59 396.36,-36.05 405.82,-27.35"/>
<polygon fill="#63b8ff" stroke="#63b8ff" points="408.03,-30.07 413.02,-20.73 403.29,-24.92 408.03,-30.07"/>
</a>
</g>
</g>
<!-- Node19 -->
<g id="Node000019" class="node">
<title>Node19</title>
<g id="a_Node000019"><a xlink:title=" ">
<polygon fill="#e0e0e0" stroke="#999999" points="173.88,-19.25 136.12,-19.25 136.12,0 173.88,0 173.88,-19.25"/>
<text text-anchor="middle" x="155" y="-5.75" font-family="Helvetica,sans-Serif" font-size="10.00">array</text>
</a>
</g>
</g>
<!-- Node18&#45;&gt;Node19 -->
<g id="edge23_Node000018_Node000019" class="edge">
<title>Node18&#45;&gt;Node19</title>
<g id="a_edge23_Node000018_Node000019"><a xlink:title=" ">
<path fill="none" stroke="#63b8ff" d="M307.63,-54.96C274.91,-45.8 231.62,-33.55 185.17,-19.85"/>
<polygon fill="#63b8ff" stroke="#63b8ff" points="186.3,-16.53 175.71,-17.05 184.31,-23.24 186.3,-16.53"/>
</a>
</g>
</g>
<!-- Node20 -->
<g id="Node000020" class="node">
<title>Node20</title>
<g id="a_Node000020"><a xlink:title=" ">
<polygon fill="#e0e0e0" stroke="#999999" points="243.62,-19.25 192.38,-19.25 192.38,0 243.62,0 243.62,-19.25"/>
<text text-anchor="middle" x="218" y="-5.75" font-family="Helvetica,sans-Serif" font-size="10.00">ostream</text>
</a>
</g>
</g>
<!-- Node18&#45;&gt;Node20 -->
<g id="edge25_Node000018_Node000020" class="edge">
<title>Node18&#45;&gt;Node20</title>
<g id="a_edge25_Node000018_Node000020"><a xlink:title=" ">
<path fill="none" stroke="#63b8ff" d="M324.53,-54.8C301.76,-45.35 272.43,-33.19 250.31,-24.02"/>
<polygon fill="#63b8ff" stroke="#63b8ff" points="251.75,-20.83 241.18,-20.23 249.07,-27.3 251.75,-20.83"/>
</a>
</g>
</g>
<!-- Node21 -->
<g id="Node000021" class="node">
<title>Node21</title>
<g id="a_Node000021"><a xlink:title=" ">
<polygon fill="#e0e0e0" stroke="#999999" points="381.62,-19.25 336.38,-19.25 336.38,0 381.62,0 381.62,-19.25"/>
<text text-anchor="middle" x="359" y="-5.75" font-family="Helvetica,sans-Serif" font-size="10.00">variant</text>
</a>
</g>
</g>
<!-- Node18&#45;&gt;Node21 -->
<g id="edge27_Node000018_Node000021" class="edge">
<title>Node18&#45;&gt;Node21</title>
<g id="a_edge27_Node000018_Node000021"><a xlink:title=" ">
<path fill="none" stroke="#63b8ff" d="M359.75,-54.95C359.63,-47.71 359.48,-38.84 359.35,-30.94"/>
<polygon fill="#63b8ff" stroke="#63b8ff" points="362.85,-31.15 359.18,-21.21 355.85,-31.27 362.85,-31.15"/>
</a>
</g>
</g>
<!-- Node22&#45;&gt;Node5 -->
<g id="edge30_Node000022_Node000005" class="edge">
<title>Node22&#45;&gt;Node5</title>
<g id="a_edge30_Node000022_Node000005"><a xlink:title=" ">
<path fill="none" stroke="#63b8ff" d="M609.34,-60.38C600.67,-58.57 591.55,-56.76 583,-55.25 473.39,-35.91 441.9,-40.02 329.37,-19.54"/>
<polygon fill="#63b8ff" stroke="#63b8ff" points="330.18,-16.13 319.72,-17.75 328.91,-23.01 330.18,-16.13"/>
</a>
</g>
</g>
<!-- Node22&#45;&gt;Node6 -->
<g id="edge32_Node000022_Node000006" class="edge">
<title>Node22&#45;&gt;Node6</title>
<g id="a_edge32_Node000022_Node000006"><a xlink:title=" ">
<path fill="none" stroke="#63b8ff" d="M678.96,-60.43C712.24,-50.01 766.83,-32.91 802.6,-21.71"/>
<polygon fill="#63b8ff" stroke="#63b8ff" points="803.56,-25.08 812.05,-18.75 801.47,-18.4 803.56,-25.08"/>
</a>
</g>
</g>
<!-- Node22&#45;&gt;Node8 -->
<g id="edge35_Node000022_Node000008" class="edge">
<title>Node22&#45;&gt;Node8</title>
<g id="a_edge35_Node000022_Node000008"><a xlink:title=" ">
<path fill="none" stroke="#63b8ff" d="M708.23,-61.6C765.21,-53.41 854.63,-39.31 940.77,-19.54"/>
<polygon fill="#63b8ff" stroke="#63b8ff" points="941.38,-22.99 950.33,-17.31 939.79,-16.17 941.38,-22.99"/>
</a>
</g>
</g>
<!-- Node22&#45;&gt;Node9 -->
<g id="edge37_Node000022_Node000009" class="edge">
<title>Node22&#45;&gt;Node9</title>
<g id="a_edge37_Node000022_Node000009"><a xlink:title=" ">
<path fill="none" stroke="#63b8ff" d="M611.9,-60.43C602.5,-58.46 592.42,-56.57 583,-55.25 358.58,-23.73 294.5,-60.22 69.25,-19.47"/>
<polygon fill="#63b8ff" stroke="#63b8ff" points="70.01,-16.05 59.54,-17.68 68.74,-22.93 70.01,-16.05"/>
</a>
</g>
</g>
<!-- Node22&#45;&gt;Node10 -->
<g id="edge38_Node000022_Node000010" class="edge">
<title>Node22&#45;&gt;Node10</title>
<g id="a_edge38_Node000022_Node000010"><a xlink:title=" ">
<path fill="none" stroke="#63b8ff" d="M611.54,-60.42C602.24,-58.47 592.3,-56.6 583,-55.25 385.45,-26.57 329.06,-54.47 129.97,-19.45"/>
<polygon fill="#63b8ff" stroke="#63b8ff" points="130.79,-16.04 120.32,-17.72 129.55,-22.93 130.79,-16.04"/>
</a>
</g>
</g>
<!-- Node22&#45;&gt;Node17 -->
<g id="edge34_Node000022_Node000017" class="edge">
<title>Node22&#45;&gt;Node17</title>
<g id="a_edge34_Node000022_Node000017"><a xlink:title=" ">
<path fill="none" stroke="#63b8ff" d="M690.76,-60.38C732.88,-50.92 800.82,-35.58 868.95,-19.71"/>
<polygon fill="#63b8ff" stroke="#63b8ff" points="869.46,-23.18 878.41,-17.5 867.87,-16.37 869.46,-23.18"/>
</a>
</g>
</g>
<!-- Node23 -->
<g id="Node000023" class="node">
<title>Node23</title>
<g id="a_Node000023"><a xlink:title=" ">
<polygon fill="#e0e0e0" stroke="#999999" points="795.62,-19.25 750.38,-19.25 750.38,0 795.62,0 795.62,-19.25"/>
<text text-anchor="middle" x="773" y="-5.75" font-family="Helvetica,sans-Serif" font-size="10.00">chrono</text>
</a>
</g>
</g>
<!-- Node22&#45;&gt;Node23 -->
<g id="edge31_Node000022_Node000023" class="edge">
<title>Node22&#45;&gt;Node23</title>
<g id="a_edge31_Node000022_Node000023"><a xlink:title=" ">
<path fill="none" stroke="#63b8ff" d="M668.95,-60.43C688.96,-50.85 720.76,-35.63 743.95,-24.53"/>
<polygon fill="#63b8ff" stroke="#63b8ff" points="745.36,-27.74 752.87,-20.26 742.33,-21.42 745.36,-27.74"/>
</a>
</g>
</g>
<!-- Node24 -->
<g id="Node000024" class="node">
<title>Node24</title>
<g id="a_Node000024"><a xlink:title=" ">
<polygon fill="#e0e0e0" stroke="#999999" points="515.88,-19.25 466.12,-19.25 466.12,0 515.88,0 515.88,-19.25"/>
<text text-anchor="middle" x="491" y="-5.75" font-family="Helvetica,sans-Serif" font-size="10.00">iomanip</text>
</a>
</g>
</g>
<!-- Node22&#45;&gt;Node24 -->
<g id="edge33_Node000022_Node000024" class="edge">
<title>Node22&#45;&gt;Node24</title>
<g id="a_edge33_Node000022_Node000024"><a xlink:title=" ">
<path fill="none" stroke="#63b8ff" d="M625.5,-60.43C598.89,-50.58 556.16,-34.75 526.01,-23.59"/>
<polygon fill="#63b8ff" stroke="#63b8ff" points="527.54,-20.42 516.94,-20.23 525.1,-26.99 527.54,-20.42"/>
</a>
</g>
</g>
<!-- Node25 -->
<g id="Node000025" class="node">
<title>Node25</title>
<g id="a_Node000025"><a xlink:title=" ">
<polygon fill="#e0e0e0" stroke="#999999" points="616.38,-19.25 533.62,-19.25 533.62,0 616.38,0 616.38,-19.25"/>
<text text-anchor="middle" x="575" y="-5.75" font-family="Helvetica,sans-Serif" font-size="10.00">unordered_map</text>
</a>
</g>
</g>
<!-- Node22&#45;&gt;Node25 -->
<g id="edge36_Node000022_Node000025" class="edge">
<title>Node22&#45;&gt;Node25</title>
<g id="a_edge36_Node000022_Node000025"><a xlink:title=" ">
<path fill="none" stroke="#63b8ff" d="M638.61,-60.56C627.16,-51.57 609.25,-37.51 595.35,-26.6"/>
<polygon fill="#63b8ff" stroke="#63b8ff" points="597.72,-24.01 587.69,-20.59 593.39,-29.51 597.72,-24.01"/>
</a>
</g>
</g>
<!-- Node26 -->
<g id="Node000026" class="node">
<title>Node26</title>
<g id="a_Node000026"><a xlink:title=" ">
<polygon fill="#e0e0e0" stroke="#999999" points="731.88,-19.25 634.12,-19.25 634.12,0 731.88,0 731.88,-19.25"/>
<text text-anchor="middle" x="683" y="-5.75" font-family="Helvetica,sans-Serif" font-size="10.00">nlohmann/json.hpp</text>
</a>
</g>
</g>
<!-- Node22&#45;&gt;Node26 -->
<g id="edge39_Node000022_Node000026" class="edge">
<title>Node22&#45;&gt;Node26</title>
<g id="a_edge39_Node000022_Node000026"><a xlink:title=" ">
<path fill="none" stroke="#63b8ff" d="M655.01,-60.56C659.62,-52.35 666.59,-39.91 672.42,-29.5"/>
<polygon fill="#63b8ff" stroke="#63b8ff" points="675.36,-31.41 677.2,-20.97 669.26,-27.98 675.36,-31.41"/>
</a>
</g>
</g>
</g>
</svg>
