<?xml version="1.0" encoding="UTF-8" standalone="no"?>
<!DOCTYPE svg PUBLIC "-//W3C//DTD SVG 1.1//EN"
 "http://www.w3.org/Graphics/SVG/1.1/DTD/svg11.dtd">
<!-- Generated by graphviz version 2.42.4 (0)
 -->
<!-- Title: /__w/vulpes/vulpes/vulpes/la/vector_block_utils.hpp Pages: 1 -->
<svg width="1636pt" height="390pt"
 viewBox="0.00 0.00 1635.50 390.00" xmlns="http://www.w3.org/2000/svg" xmlns:xlink="http://www.w3.org/1999/xlink">
<g id="graph0" class="graph" transform="scale(1 1) rotate(0) translate(4 386)">
<title>/__w/vulpes/vulpes/vulpes/la/vector_block_utils.hpp</title>
<!-- Node1 -->
<g id="Node000001" class="node">
<title>Node1</title>
<g id="a_Node000001"><a xlink:title=" ">
<polygon fill="#999999" stroke="#666666" points="554,-382 425,-382 425,-341 554,-341 554,-382"/>
<text text-anchor="start" x="433" y="-370" font-family="Helvetica,sans-Serif" font-size="10.00">/__w/vulpes/vulpes</text>
<text text-anchor="start" x="433" y="-359" font-family="Helvetica,sans-Serif" font-size="10.00">/vulpes/la/vector_block</text>
<text text-anchor="middle" x="489.5" y="-348" font-family="Helvetica,sans-Serif" font-size="10.00">_utils.hpp</text>
</a>
</g>
</g>
<!-- Node2 -->
<g id="Node000002" class="node">
<title>Node2</title>
<g id="a_Node000002"><a xlink:title=" ">
<polygon fill="#e0e0e0" stroke="#999999" points="823.5,-140 755.5,-140 755.5,-121 823.5,-121 823.5,-140"/>
<text text-anchor="middle" x="789.5" y="-128" font-family="Helvetica,sans-Serif" font-size="10.00">petscsys.h</text>
</a>
</g>
</g>
<!-- Node1&#45;&gt;Node2 -->
<g id="edge1_Node000001_Node000002" class="edge">
<title>Node1&#45;&gt;Node2</title>
<g id="a_edge1_Node000001_Node000002"><a xlink:title=" ">
<path fill="none" stroke="#63b8ff" d="M518.04,-340.8C531.77,-330.76 548.12,-317.95 561.5,-305 592.13,-275.36 590.16,-258.76 622.5,-231 666.51,-193.22 726.68,-161.33 761.49,-144.44"/>
<polygon fill="#63b8ff" stroke="#63b8ff" points="763.09,-147.56 770.6,-140.08 760.07,-141.24 763.09,-147.56"/>
</a>
</g>
</g>
<!-- Node3 -->
<g id="Node000003" class="node">
<title>Node3</title>
<g id="a_Node000003"><a xlink:title=" ">
<polygon fill="#e0e0e0" stroke="#999999" points="338.5,-19 296.5,-19 296.5,0 338.5,0 338.5,-19"/>
<text text-anchor="middle" x="317.5" y="-7" font-family="Helvetica,sans-Serif" font-size="10.00">array</text>
</a>
</g>
</g>
<!-- Node1&#45;&gt;Node3 -->
<g id="edge2_Node000001_Node000003" class="edge">
<title>Node1&#45;&gt;Node3</title>
<g id="a_edge2_Node000001_Node000003"><a xlink:title=" ">
<path fill="none" stroke="#63b8ff" d="M424.78,-351.49C363.08,-338.82 279.5,-309.18 279.5,-241.5 279.5,-241.5 279.5,-241.5 279.5,-129.5 279.5,-92.07 296.77,-51.03 308.02,-28.25"/>
<polygon fill="#63b8ff" stroke="#63b8ff" points="311.24,-29.65 312.69,-19.15 305.01,-26.46 311.24,-29.65"/>
</a>
</g>
</g>
<!-- Node4 -->
<g id="Node000004" class="node">
<title>Node4</title>
<g id="a_Node000004"><a xlink:title=" ">
<polygon fill="#e0e0e0" stroke="#999999" points="719.5,-19 667.5,-19 667.5,0 719.5,0 719.5,-19"/>
<text text-anchor="middle" x="693.5" y="-7" font-family="Helvetica,sans-Serif" font-size="10.00">cassert</text>
</a>
</g>
</g>
<!-- Node1&#45;&gt;Node4 -->
<g id="edge3_Node000001_Node000004" class="edge">
<title>Node1&#45;&gt;Node4</title>
<g id="a_edge3_Node000001_Node000004"><a xlink:title=" ">
<path fill="none" stroke="#63b8ff" d="M424.75,-344.83C391.95,-333.18 361.53,-314.34 374.5,-286 407,-214.98 607.09,-70.85 672.69,-24.91"/>
<polygon fill="#63b8ff" stroke="#63b8ff" points="674.83,-27.69 681.03,-19.1 670.82,-21.95 674.83,-27.69"/>
</a>
</g>
</g>
<!-- Node5 -->
<g id="Node000005" class="node">
<title>Node5</title>
<g id="a_Node000005"><a xlink:title=" ">
<polygon fill="#e0e0e0" stroke="#999999" points="431,-305 384,-305 384,-286 431,-286 431,-305"/>
<text text-anchor="middle" x="407.5" y="-293" font-family="Helvetica,sans-Serif" font-size="10.00">cmath</text>
</a>
</g>
</g>
<!-- Node1&#45;&gt;Node5 -->
<g id="edge4_Node000001_Node000005" class="edge">
<title>Node1&#45;&gt;Node5</title>
<g id="a_edge4_Node000001_Node000005"><a xlink:title=" ">
<path fill="none" stroke="#63b8ff" d="M464.45,-340.95C452.29,-331.46 437.91,-320.24 426.65,-311.44"/>
<polygon fill="#63b8ff" stroke="#63b8ff" points="428.76,-308.65 418.72,-305.26 424.45,-314.17 428.76,-308.65"/>
</a>
</g>
</g>
<!-- Node6 -->
<g id="Node000006" class="node">
<title>Node6</title>
<g id="a_Node000006"><a xlink:title=" ">
<polygon fill="#e0e0e0" stroke="#999999" points="476,-19 423,-19 423,0 476,0 476,-19"/>
<text text-anchor="middle" x="449.5" y="-7" font-family="Helvetica,sans-Serif" font-size="10.00">cstddef</text>
</a>
</g>
</g>
<!-- Node1&#45;&gt;Node6 -->
<g id="edge5_Node000001_Node000006" class="edge">
<title>Node1&#45;&gt;Node6</title>
<g id="a_edge5_Node000001_Node000006"><a xlink:title=" ">
<path fill="none" stroke="#63b8ff" d="M424.97,-348.92C396.26,-340.87 363.94,-327.38 341.5,-305 320.14,-283.69 317.5,-271.67 317.5,-241.5 317.5,-241.5 317.5,-241.5 317.5,-184.5 317.5,-112.54 390.05,-51.64 427.58,-24.96"/>
<polygon fill="#63b8ff" stroke="#63b8ff" points="429.64,-27.78 435.87,-19.21 425.66,-22.03 429.64,-27.78"/>
</a>
</g>
</g>
<!-- Node7 -->
<g id="Node000007" class="node">
<title>Node7</title>
<g id="a_Node000007"><a xlink:title=" ">
<polygon fill="#e0e0e0" stroke="#999999" points="553,-305 488,-305 488,-286 553,-286 553,-305"/>
<text text-anchor="middle" x="520.5" y="-293" font-family="Helvetica,sans-Serif" font-size="10.00">functional</text>
</a>
</g>
</g>
<!-- Node1&#45;&gt;Node7 -->
<g id="edge6_Node000001_Node000007" class="edge">
<title>Node1&#45;&gt;Node7</title>
<g id="a_edge6_Node000001_Node000007"><a xlink:title=" ">
<path fill="none" stroke="#63b8ff" d="M498.97,-340.95C503.07,-332.48 507.84,-322.64 511.85,-314.37"/>
<polygon fill="#63b8ff" stroke="#63b8ff" points="515.05,-315.79 516.26,-305.26 508.75,-312.73 515.05,-315.79"/>
</a>
</g>
</g>
<!-- Node8 -->
<g id="Node000008" class="node">
<title>Node8</title>
<g id="a_Node000008"><a xlink:title=" ">
<polygon fill="#e0e0e0" stroke="#999999" points="1565.5,-19 1505.5,-19 1505.5,0 1565.5,0 1565.5,-19"/>
<text text-anchor="middle" x="1535.5" y="-7" font-family="Helvetica,sans-Serif" font-size="10.00">iostream</text>
</a>
</g>
</g>
<!-- Node1&#45;&gt;Node8 -->
<g id="edge7_Node000001_Node000008" class="edge">
<title>Node1&#45;&gt;Node8</title>
<g id="a_edge7_Node000001_Node000008"><a xlink:title=" ">
<path fill="none" stroke="#63b8ff" d="M554.12,-360.24C787.7,-358.45 1574.5,-344.78 1574.5,-241.5 1574.5,-241.5 1574.5,-241.5 1574.5,-184.5 1574.5,-126.35 1553.5,-59.85 1542.32,-28.56"/>
<polygon fill="#63b8ff" stroke="#63b8ff" points="1545.56,-27.22 1538.83,-19.04 1538.98,-29.63 1545.56,-27.22"/>
</a>
</g>
</g>
<!-- Node9 -->
<g id="Node000009" class="node">
<title>Node9</title>
<g id="a_Node000009"><a xlink:title=" ">
<polygon fill="#e0e0e0" stroke="#999999" points="649,-19 602,-19 602,0 649,0 649,-19"/>
<text text-anchor="middle" x="625.5" y="-7" font-family="Helvetica,sans-Serif" font-size="10.00">vector</text>
</a>
</g>
</g>
<!-- Node1&#45;&gt;Node9 -->
<g id="edge8_Node000001_Node000009" class="edge">
<title>Node1&#45;&gt;Node9</title>
<g id="a_edge8_Node000001_Node000009"><a xlink:title=" ">
<path fill="none" stroke="#63b8ff" d="M482.43,-340.69C478.02,-325.56 473.97,-304.27 478.5,-286 504.93,-179.35 581.65,-68.89 612.46,-27.5"/>
<polygon fill="#63b8ff" stroke="#63b8ff" points="615.4,-29.42 618.62,-19.33 609.81,-25.2 615.4,-29.42"/>
</a>
</g>
</g>
<!-- Node10 -->
<g id="Node000010" class="node">
<title>Node10</title>
<g id="a_Node000010"><a xlink:href="sparse__matrix_8hpp.html" target="_top" xlink:title=" ">
<polygon fill="white" stroke="#666666" points="847,-305 692,-305 692,-286 847,-286 847,-305"/>
<text text-anchor="middle" x="769.5" y="-293" font-family="Helvetica,sans-Serif" font-size="10.00">vulpes/la/sparse_matrix.hpp</text>
</a>
</g>
</g>
<!-- Node1&#45;&gt;Node10 -->
<g id="edge9_Node000001_Node000010" class="edge">
<title>Node1&#45;&gt;Node10</title>
<g id="a_edge9_Node000001_Node000010"><a xlink:title=" ">
<path fill="none" stroke="#63b8ff" d="M554.09,-345.74C605.44,-334 676.08,-317.85 722.26,-307.3"/>
<polygon fill="#63b8ff" stroke="#63b8ff" points="723.33,-310.64 732.29,-305 721.77,-303.82 723.33,-310.64"/>
</a>
</g>
</g>
<!-- Node29 -->
<g id="Node000029" class="node">
<title>Node29</title>
<g id="a_Node000029"><a xlink:href="vector_8hpp.html" target="_top" xlink:title=" ">
<polygon fill="white" stroke="#666666" points="1131,-250 1016,-250 1016,-231 1131,-231 1131,-250"/>
<text text-anchor="middle" x="1073.5" y="-238" font-family="Helvetica,sans-Serif" font-size="10.00">vulpes/la/vector.hpp</text>
</a>
</g>
</g>
<!-- Node1&#45;&gt;Node29 -->
<g id="edge71_Node000001_Node000029" class="edge">
<title>Node1&#45;&gt;Node29</title>
<g id="a_edge71_Node000001_Node000029"><a xlink:title=" ">
<path fill="none" stroke="#63b8ff" d="M554.29,-353.38C628,-344.66 751.73,-328.14 856.5,-305 921.79,-290.58 996.27,-267.23 1038.8,-253.23"/>
<polygon fill="#63b8ff" stroke="#63b8ff" points="1040.01,-256.52 1048.4,-250.05 1037.8,-249.87 1040.01,-256.52"/>
</a>
</g>
</g>
<!-- Node10&#45;&gt;Node2 -->
<g id="edge11_Node000010_Node000002" class="edge">
<title>Node10&#45;&gt;Node2</title>
<g id="a_edge11_Node000010_Node000002"><a xlink:title=" ">
<path fill="none" stroke="#63b8ff" d="M768.72,-285.77C767.18,-265.99 764.52,-216.38 772.5,-176 774.28,-166.97 777.73,-157.39 781.05,-149.44"/>
<polygon fill="#63b8ff" stroke="#63b8ff" points="784.34,-150.66 785.2,-140.1 777.94,-147.82 784.34,-150.66"/>
</a>
</g>
</g>
<!-- Node10&#45;&gt;Node6 -->
<g id="edge12_Node000010_Node000006" class="edge">
<title>Node10&#45;&gt;Node6</title>
<g id="a_edge12_Node000010_Node000006"><a xlink:title=" ">
<path fill="none" stroke="#63b8ff" d="M697.74,-285.94C667.99,-279.67 634.45,-268.81 608.5,-250 566.16,-219.31 486.59,-78.37 459.12,-28.25"/>
<polygon fill="#63b8ff" stroke="#63b8ff" points="462.07,-26.36 454.21,-19.25 455.92,-29.71 462.07,-26.36"/>
</a>
</g>
</g>
<!-- Node10&#45;&gt;Node8 -->
<g id="edge13_Node000010_Node000008" class="edge">
<title>Node10&#45;&gt;Node8</title>
<g id="a_edge13_Node000010_Node000008"><a xlink:title=" ">
<path fill="none" stroke="#63b8ff" d="M847.17,-291.04C1035.01,-281.63 1498.5,-251.79 1498.5,-186.5 1498.5,-186.5 1498.5,-186.5 1498.5,-129.5 1498.5,-92.16 1515.31,-51.09 1526.27,-28.28"/>
<polygon fill="#63b8ff" stroke="#63b8ff" points="1529.49,-29.68 1530.81,-19.17 1523.22,-26.56 1529.49,-29.68"/>
</a>
</g>
</g>
<!-- Node10&#45;&gt;Node9 -->
<g id="edge17_Node000010_Node000009" class="edge">
<title>Node10&#45;&gt;Node9</title>
<g id="a_edge17_Node000010_Node000009"><a xlink:title=" ">
<path fill="none" stroke="#63b8ff" d="M691.89,-289.36C665.6,-283.45 638.79,-271.95 622.5,-250 572.24,-182.28 603.5,-71.54 618.66,-28.45"/>
<polygon fill="#63b8ff" stroke="#63b8ff" points="621.96,-29.61 622.1,-19.02 615.38,-27.21 621.96,-29.61"/>
</a>
</g>
</g>
<!-- Node11 -->
<g id="Node000011" class="node">
<title>Node11</title>
<g id="a_Node000011"><a xlink:title=" ">
<polygon fill="#e0e0e0" stroke="#999999" points="703,-250 632,-250 632,-231 703,-231 703,-250"/>
<text text-anchor="middle" x="667.5" y="-238" font-family="Helvetica,sans-Serif" font-size="10.00">petscmat.h</text>
</a>
</g>
</g>
<!-- Node10&#45;&gt;Node11 -->
<g id="edge10_Node000010_Node000011" class="edge">
<title>Node10&#45;&gt;Node11</title>
<g id="a_edge10_Node000010_Node000011"><a xlink:title=" ">
<path fill="none" stroke="#63b8ff" d="M753.11,-285.98C736.93,-277.57 711.93,-264.59 693.12,-254.81"/>
<polygon fill="#63b8ff" stroke="#63b8ff" points="694.67,-251.68 684.19,-250.17 691.45,-257.89 694.67,-251.68"/>
</a>
</g>
</g>
<!-- Node12 -->
<g id="Node000012" class="node">
<title>Node12</title>
<g id="a_Node000012"><a xlink:title=" ">
<polygon fill="#e0e0e0" stroke="#999999" points="872.5,-195 814.5,-195 814.5,-176 872.5,-176 872.5,-195"/>
<text text-anchor="middle" x="843.5" y="-183" font-family="Helvetica,sans-Serif" font-size="10.00">memory</text>
</a>
</g>
</g>
<!-- Node10&#45;&gt;Node12 -->
<g id="edge14_Node000010_Node000012" class="edge">
<title>Node10&#45;&gt;Node12</title>
<g id="a_edge14_Node000010_Node000012"><a xlink:title=" ">
<path fill="none" stroke="#63b8ff" d="M783.24,-285.82C794.9,-277.81 811.33,-264.92 821.5,-250 830.74,-236.44 836.47,-218.62 839.75,-205.31"/>
<polygon fill="#63b8ff" stroke="#63b8ff" points="843.21,-205.9 841.96,-195.38 836.37,-204.38 843.21,-205.9"/>
</a>
</g>
</g>
<!-- Node13 -->
<g id="Node000013" class="node">
<title>Node13</title>
<g id="a_Node000013"><a xlink:title=" ">
<polygon fill="#e0e0e0" stroke="#999999" points="1627.5,-19 1583.5,-19 1583.5,0 1627.5,0 1627.5,-19"/>
<text text-anchor="middle" x="1605.5" y="-7" font-family="Helvetica,sans-Serif" font-size="10.00">string</text>
</a>
</g>
</g>
<!-- Node10&#45;&gt;Node13 -->
<g id="edge15_Node000010_Node000013" class="edge">
<title>Node10&#45;&gt;Node13</title>
<g id="a_edge15_Node000010_Node000013"><a xlink:title=" ">
<path fill="none" stroke="#63b8ff" d="M847.3,-292.63C1055.99,-286.57 1612.5,-263.23 1612.5,-186.5 1612.5,-186.5 1612.5,-186.5 1612.5,-129.5 1612.5,-94.09 1609.37,-52.86 1607.3,-29.4"/>
<polygon fill="#63b8ff" stroke="#63b8ff" points="1610.76,-28.79 1606.36,-19.15 1603.79,-29.43 1610.76,-28.79"/>
</a>
</g>
</g>
<!-- Node14 -->
<g id="Node000014" class="node">
<title>Node14</title>
<g id="a_Node000014"><a xlink:title=" ">
<polygon fill="#e0e0e0" stroke="#999999" points="927,-19 882,-19 882,0 927,0 927,-19"/>
<text text-anchor="middle" x="904.5" y="-7" font-family="Helvetica,sans-Serif" font-size="10.00">utility</text>
</a>
</g>
</g>
<!-- Node10&#45;&gt;Node14 -->
<g id="edge16_Node000010_Node000014" class="edge">
<title>Node10&#45;&gt;Node14</title>
<g id="a_edge16_Node000010_Node000014"><a xlink:title=" ">
<path fill="none" stroke="#63b8ff" d="M764.29,-285.69C748.59,-257.89 705.34,-170.94 746.5,-121 799.77,-56.36 878.23,-149.64 931.5,-85 945.38,-68.16 931.69,-43.59 919.27,-27.33"/>
<polygon fill="#63b8ff" stroke="#63b8ff" points="921.72,-24.79 912.68,-19.25 916.29,-29.21 921.72,-24.79"/>
</a>
</g>
</g>
<!-- Node15 -->
<g id="Node000015" class="node">
<title>Node15</title>
<g id="a_Node000015"><a xlink:href="petsc__utils_8hpp.html" target="_top" xlink:title=" ">
<polygon fill="white" stroke="#666666" points="1142,-195 1005,-195 1005,-176 1142,-176 1142,-195"/>
<text text-anchor="middle" x="1073.5" y="-183" font-family="Helvetica,sans-Serif" font-size="10.00">vulpes/la/petsc_utils.hpp</text>
</a>
</g>
</g>
<!-- Node10&#45;&gt;Node15 -->
<g id="edge18_Node000010_Node000015" class="edge">
<title>Node10&#45;&gt;Node15</title>
<g id="a_edge18_Node000010_Node000015"><a xlink:title=" ">
<path fill="none" stroke="#63b8ff" d="M793.61,-285.94C847.49,-266.79 977.77,-220.51 1039.71,-198.51"/>
<polygon fill="#63b8ff" stroke="#63b8ff" points="1041.14,-201.71 1049.39,-195.07 1038.79,-195.12 1041.14,-201.71"/>
</a>
</g>
</g>
<!-- Node16 -->
<g id="Node000016" class="node">
<title>Node16</title>
<g id="a_Node000016"><a xlink:href="mpi__wrappers_8hpp.html" target="_top" xlink:title=" ">
<polygon fill="white" stroke="#666666" points="1153.5,-140 987.5,-140 987.5,-121 1153.5,-121 1153.5,-140"/>
<text text-anchor="middle" x="1070.5" y="-128" font-family="Helvetica,sans-Serif" font-size="10.00">vulpes/utils/mpi_wrappers.hpp</text>
</a>
</g>
</g>
<!-- Node10&#45;&gt;Node16 -->
<g id="edge70_Node000010_Node000016" class="edge">
<title>Node10&#45;&gt;Node16</title>
<g id="a_edge70_Node000010_Node000016"><a xlink:title=" ">
<path fill="none" stroke="#63b8ff" d="M771.84,-285.91C779.13,-259.3 801.2,-179.78 805.5,-176 830.75,-153.81 911.54,-142.5 977.34,-136.85"/>
<polygon fill="#63b8ff" stroke="#63b8ff" points="977.67,-140.34 987.35,-136.03 977.09,-133.36 977.67,-140.34"/>
</a>
</g>
</g>
<!-- Node10&#45;&gt;Node29 -->
<g id="edge47_Node000010_Node000029" class="edge">
<title>Node10&#45;&gt;Node29</title>
<g id="a_edge47_Node000010_Node000029"><a xlink:title=" ">
<path fill="none" stroke="#63b8ff" d="M818.34,-285.98C871.78,-276.67 957.42,-261.74 1014.56,-251.78"/>
<polygon fill="#63b8ff" stroke="#63b8ff" points="1015.28,-255.2 1024.53,-250.04 1014.07,-248.31 1015.28,-255.2"/>
</a>
</g>
</g>
<!-- Node31 -->
<g id="Node000031" class="node">
<title>Node31</title>
<g id="a_Node000031"><a xlink:href="qrule_8hpp.html" target="_top" xlink:title=" ">
<polygon fill="white" stroke="#666666" points="499.5,-140 345.5,-140 345.5,-121 499.5,-121 499.5,-140"/>
<text text-anchor="middle" x="422.5" y="-128" font-family="Helvetica,sans-Serif" font-size="10.00">vulpes/quadrature/qrule.hpp</text>
</a>
</g>
</g>
<!-- Node10&#45;&gt;Node31 -->
<g id="edge59_Node000010_Node000031" class="edge">
<title>Node10&#45;&gt;Node31</title>
<g id="a_edge59_Node000010_Node000031"><a xlink:title=" ">
<path fill="none" stroke="#63b8ff" d="M691.99,-288.92C648.76,-283.35 595.02,-272.22 551.5,-250 501.59,-224.51 456.69,-174.32 435.45,-148.19"/>
<polygon fill="#63b8ff" stroke="#63b8ff" points="437.92,-145.68 428.96,-140.03 432.45,-150.04 437.92,-145.68"/>
</a>
</g>
</g>
<!-- Node15&#45;&gt;Node2 -->
<g id="edge19_Node000015_Node000002" class="edge">
<title>Node15&#45;&gt;Node2</title>
<g id="a_edge19_Node000015_Node000002"><a xlink:title=" ">
<path fill="none" stroke="#63b8ff" d="M1027.87,-175.98C974.51,-166.03 886.77,-149.65 833.93,-139.79"/>
<polygon fill="#63b8ff" stroke="#63b8ff" points="834.32,-136.3 823.85,-137.91 833.04,-143.19 834.32,-136.3"/>
</a>
</g>
</g>
<!-- Node15&#45;&gt;Node13 -->
<g id="edge20_Node000015_Node000013" class="edge">
<title>Node15&#45;&gt;Node13</title>
<g id="a_edge20_Node000015_Node000013"><a xlink:title=" ">
<path fill="none" stroke="#63b8ff" d="M1106.24,-175.98C1167.35,-159.84 1302.69,-123.03 1414.5,-85 1472.5,-65.27 1538.85,-38.39 1576.1,-22.9"/>
<polygon fill="#63b8ff" stroke="#63b8ff" points="1577.48,-26.11 1585.36,-19.03 1574.79,-19.65 1577.48,-26.11"/>
</a>
</g>
</g>
<!-- Node15&#45;&gt;Node16 -->
<g id="edge21_Node000015_Node000016" class="edge">
<title>Node15&#45;&gt;Node16</title>
<g id="a_edge21_Node000015_Node000016"><a xlink:title=" ">
<path fill="none" stroke="#63b8ff" d="M1073,-175.75C1072.61,-168.8 1072.05,-158.85 1071.55,-150.13"/>
<polygon fill="#63b8ff" stroke="#63b8ff" points="1075.05,-149.88 1070.99,-140.09 1068.06,-150.27 1075.05,-149.88"/>
</a>
</g>
</g>
<!-- Node16&#45;&gt;Node4 -->
<g id="edge24_Node000016_Node000004" class="edge">
<title>Node16&#45;&gt;Node4</title>
<g id="a_edge24_Node000016_Node000004"><a xlink:title=" ">
<path fill="none" stroke="#63b8ff" d="M993.3,-120.99C925.07,-112.74 831.16,-99.39 796.5,-85 787.3,-81.18 739.89,-45.72 712.71,-25.13"/>
<polygon fill="#63b8ff" stroke="#63b8ff" points="714.75,-22.29 704.67,-19.03 710.51,-27.86 714.75,-22.29"/>
</a>
</g>
</g>
<!-- Node16&#45;&gt;Node8 -->
<g id="edge25_Node000016_Node000008" class="edge">
<title>Node16&#45;&gt;Node8</title>
<g id="a_edge25_Node000016_Node000008"><a xlink:title=" ">
<path fill="none" stroke="#63b8ff" d="M1153.52,-122.55C1212.62,-116.22 1293.48,-104.77 1362.5,-85 1417.15,-69.35 1477.35,-40.6 1510.37,-23.76"/>
<polygon fill="#63b8ff" stroke="#63b8ff" points="1512.03,-26.84 1519.32,-19.14 1508.83,-20.62 1512.03,-26.84"/>
</a>
</g>
</g>
<!-- Node16&#45;&gt;Node9 -->
<g id="edge26_Node000016_Node000009" class="edge">
<title>Node16&#45;&gt;Node9</title>
<g id="a_edge26_Node000016_Node000009"><a xlink:title=" ">
<path fill="none" stroke="#63b8ff" d="M987.19,-122.81C907.48,-115.52 793.51,-102.52 752.5,-85 732.71,-76.55 732.66,-66.54 714.5,-55 695.43,-42.89 672.62,-31.53 654.86,-23.33"/>
<polygon fill="#63b8ff" stroke="#63b8ff" points="656.13,-20.06 645.57,-19.11 653.23,-26.43 656.13,-20.06"/>
</a>
</g>
</g>
<!-- Node17 -->
<g id="Node000017" class="node">
<title>Node17</title>
<g id="a_Node000017"><a xlink:title=" ">
<polygon fill="#e0e0e0" stroke="#999999" points="1092.5,-79.5 1048.5,-79.5 1048.5,-60.5 1092.5,-60.5 1092.5,-79.5"/>
<text text-anchor="middle" x="1070.5" y="-67.5" font-family="Helvetica,sans-Serif" font-size="10.00">mpi.h</text>
</a>
</g>
</g>
<!-- Node16&#45;&gt;Node17 -->
<g id="edge22_Node000016_Node000017" class="edge">
<title>Node16&#45;&gt;Node17</title>
<g id="a_edge22_Node000016_Node000017"><a xlink:title=" ">
<path fill="none" stroke="#63b8ff" d="M1070.5,-120.87C1070.5,-112.75 1070.5,-100.31 1070.5,-89.89"/>
<polygon fill="#63b8ff" stroke="#63b8ff" points="1074,-89.67 1070.5,-79.67 1067,-89.67 1074,-89.67"/>
</a>
</g>
</g>
<!-- Node18 -->
<g id="Node000018" class="node">
<title>Node18</title>
<g id="a_Node000018"><a xlink:title=" ">
<polygon fill="#e0e0e0" stroke="#999999" points="1030.5,-79.5 978.5,-79.5 978.5,-60.5 1030.5,-60.5 1030.5,-79.5"/>
<text text-anchor="middle" x="1004.5" y="-67.5" font-family="Helvetica,sans-Serif" font-size="10.00">petsc.h</text>
</a>
</g>
</g>
<!-- Node16&#45;&gt;Node18 -->
<g id="edge23_Node000016_Node000018" class="edge">
<title>Node16&#45;&gt;Node18</title>
<g id="a_edge23_Node000016_Node000018"><a xlink:title=" ">
<path fill="none" stroke="#63b8ff" d="M1060.76,-120.87C1050.53,-111.8 1034.21,-97.34 1021.78,-86.32"/>
<polygon fill="#63b8ff" stroke="#63b8ff" points="1024.08,-83.68 1014.28,-79.67 1019.44,-88.92 1024.08,-83.68"/>
</a>
</g>
</g>
<!-- Node19 -->
<g id="Node000019" class="node">
<title>Node19</title>
<g id="a_Node000019"><a xlink:title=" ">
<polygon fill="#e0e0e0" stroke="#999999" points="1487,-19 1410,-19 1410,0 1487,0 1487,-19"/>
<text text-anchor="middle" x="1448.5" y="-7" font-family="Helvetica,sans-Serif" font-size="10.00">Eigen/Dense</text>
</a>
</g>
</g>
<!-- Node16&#45;&gt;Node19 -->
<g id="edge27_Node000016_Node000019" class="edge">
<title>Node16&#45;&gt;Node19</title>
<g id="a_edge27_Node000016_Node000019"><a xlink:title=" ">
<path fill="none" stroke="#63b8ff" d="M1153.78,-124.33C1205.37,-118.9 1272.12,-107.78 1327.5,-85 1349.05,-76.13 1350.8,-67.45 1370.5,-55 1387.85,-44.03 1407.99,-32.57 1423.46,-24.03"/>
<polygon fill="#63b8ff" stroke="#63b8ff" points="1425.33,-26.99 1432.42,-19.12 1421.96,-20.86 1425.33,-26.99"/>
</a>
</g>
</g>
<!-- Node20 -->
<g id="Node000020" class="node">
<title>Node20</title>
<g id="a_Node000020"><a xlink:href="crs__map_8hpp.html" target="_top" xlink:title=" ">
<polygon fill="white" stroke="#666666" points="922,-85 805,-85 805,-55 922,-55 922,-85"/>
<text text-anchor="start" x="813" y="-73" font-family="Helvetica,sans-Serif" font-size="10.00">vulpes/datastructure</text>
<text text-anchor="middle" x="863.5" y="-62" font-family="Helvetica,sans-Serif" font-size="10.00">/crs_map.hpp</text>
</a>
</g>
</g>
<!-- Node16&#45;&gt;Node20 -->
<g id="edge28_Node000016_Node000020" class="edge">
<title>Node16&#45;&gt;Node20</title>
<g id="a_edge28_Node000016_Node000020"><a xlink:title=" ">
<path fill="none" stroke="#63b8ff" d="M1040.4,-120.99C1009.83,-112.35 961.66,-98.74 923.3,-87.9"/>
<polygon fill="#63b8ff" stroke="#63b8ff" points="923.84,-84.42 913.27,-85.06 921.94,-91.15 923.84,-84.42"/>
</a>
</g>
</g>
<!-- Node24 -->
<g id="Node000024" class="node">
<title>Node24</title>
<g id="a_Node000024"><a xlink:href="profiler_8hpp.html" target="_top" xlink:title=" ">
<polygon fill="white" stroke="#666666" points="1318,-79.5 1187,-79.5 1187,-60.5 1318,-60.5 1318,-79.5"/>
<text text-anchor="middle" x="1252.5" y="-67.5" font-family="Helvetica,sans-Serif" font-size="10.00">vulpes/utils/profiler.hpp</text>
</a>
</g>
</g>
<!-- Node16&#45;&gt;Node24 -->
<g id="edge36_Node000016_Node000024" class="edge">
<title>Node16&#45;&gt;Node24</title>
<g id="a_edge36_Node000016_Node000024"><a xlink:title=" ">
<path fill="none" stroke="#63b8ff" d="M1096.96,-120.99C1128.37,-110.9 1180.9,-94.01 1216.12,-82.69"/>
<polygon fill="#63b8ff" stroke="#63b8ff" points="1217.55,-85.91 1226,-79.52 1215.41,-79.24 1217.55,-85.91"/>
</a>
</g>
</g>
<!-- Node20&#45;&gt;Node3 -->
<g id="edge30_Node000020_Node000003" class="edge">
<title>Node20&#45;&gt;Node3</title>
<g id="a_edge30_Node000020_Node000003"><a xlink:title=" ">
<path fill="none" stroke="#63b8ff" d="M804.81,-62.71C689.53,-50.36 437.08,-23.31 348.76,-13.85"/>
<polygon fill="#63b8ff" stroke="#63b8ff" points="348.9,-10.34 338.59,-12.76 348.16,-17.3 348.9,-10.34"/>
</a>
</g>
</g>
<!-- Node20&#45;&gt;Node4 -->
<g id="edge31_Node000020_Node000004" class="edge">
<title>Node20&#45;&gt;Node4</title>
<g id="a_edge31_Node000020_Node000004"><a xlink:title=" ">
<path fill="none" stroke="#63b8ff" d="M822.78,-54.99C793.91,-45.05 755.59,-31.86 728.17,-22.43"/>
<polygon fill="#63b8ff" stroke="#63b8ff" points="729.2,-19.08 718.61,-19.14 726.92,-25.7 729.2,-19.08"/>
</a>
</g>
</g>
<!-- Node20&#45;&gt;Node9 -->
<g id="edge35_Node000020_Node000009" class="edge">
<title>Node20&#45;&gt;Node9</title>
<g id="a_edge35_Node000020_Node000009"><a xlink:title=" ">
<path fill="none" stroke="#63b8ff" d="M805.13,-54.97C766.41,-45.62 714.21,-32.92 659.22,-19.16"/>
<polygon fill="#63b8ff" stroke="#63b8ff" points="659.83,-15.7 649.28,-16.67 658.13,-22.49 659.83,-15.7"/>
</a>
</g>
</g>
<!-- Node20&#45;&gt;Node14 -->
<g id="edge33_Node000020_Node000014" class="edge">
<title>Node20&#45;&gt;Node14</title>
<g id="a_edge33_Node000020_Node000014"><a xlink:title=" ">
<path fill="none" stroke="#63b8ff" d="M873.42,-54.84C879.19,-46.61 886.5,-36.18 892.58,-27.51"/>
<polygon fill="#63b8ff" stroke="#63b8ff" points="895.48,-29.46 898.36,-19.27 889.75,-25.45 895.48,-29.46"/>
</a>
</g>
</g>
<!-- Node21 -->
<g id="Node000021" class="node">
<title>Node21</title>
<g id="a_Node000021"><a xlink:title=" ">
<polygon fill="#e0e0e0" stroke="#999999" points="1009.5,-19 945.5,-19 945.5,0 1009.5,0 1009.5,-19"/>
<text text-anchor="middle" x="977.5" y="-7" font-family="Helvetica,sans-Serif" font-size="10.00">algorithm</text>
</a>
</g>
</g>
<!-- Node20&#45;&gt;Node21 -->
<g id="edge29_Node000020_Node000021" class="edge">
<title>Node20&#45;&gt;Node21</title>
<g id="a_edge29_Node000020_Node000021"><a xlink:title=" ">
<path fill="none" stroke="#63b8ff" d="M890.81,-54.99C909.15,-45.58 933.18,-33.24 951.29,-23.95"/>
<polygon fill="#63b8ff" stroke="#63b8ff" points="953.37,-26.82 960.66,-19.14 950.17,-20.59 953.37,-26.82"/>
</a>
</g>
</g>
<!-- Node22 -->
<g id="Node000022" class="node">
<title>Node22</title>
<g id="a_Node000022"><a xlink:title=" ">
<polygon fill="#e0e0e0" stroke="#999999" points="864,-19 807,-19 807,0 864,0 864,-19"/>
<text text-anchor="middle" x="835.5" y="-7" font-family="Helvetica,sans-Serif" font-size="10.00">ostream</text>
</a>
</g>
</g>
<!-- Node20&#45;&gt;Node22 -->
<g id="edge32_Node000020_Node000022" class="edge">
<title>Node20&#45;&gt;Node22</title>
<g id="a_edge32_Node000020_Node000022"><a xlink:title=" ">
<path fill="none" stroke="#63b8ff" d="M856.72,-54.84C852.91,-46.87 848.11,-36.84 844.04,-28.33"/>
<polygon fill="#63b8ff" stroke="#63b8ff" points="847.17,-26.77 839.7,-19.27 840.86,-29.8 847.17,-26.77"/>
</a>
</g>
</g>
<!-- Node23 -->
<g id="Node000023" class="node">
<title>Node23</title>
<g id="a_Node000023"><a xlink:title=" ">
<polygon fill="#e0e0e0" stroke="#999999" points="789,-19 738,-19 738,0 789,0 789,-19"/>
<text text-anchor="middle" x="763.5" y="-7" font-family="Helvetica,sans-Serif" font-size="10.00">variant</text>
</a>
</g>
</g>
<!-- Node20&#45;&gt;Node23 -->
<g id="edge34_Node000020_Node000023" class="edge">
<title>Node20&#45;&gt;Node23</title>
<g id="a_edge34_Node000020_Node000023"><a xlink:title=" ">
<path fill="none" stroke="#63b8ff" d="M839.55,-54.99C823.61,-45.66 802.77,-33.47 786.94,-24.21"/>
<polygon fill="#63b8ff" stroke="#63b8ff" points="788.67,-21.17 778.27,-19.14 785.13,-27.21 788.67,-21.17"/>
</a>
</g>
</g>
<!-- Node24&#45;&gt;Node6 -->
<g id="edge39_Node000024_Node000006" class="edge">
<title>Node24&#45;&gt;Node6</title>
<g id="a_edge39_Node000024_Node000006"><a xlink:title=" ">
<path fill="none" stroke="#63b8ff" d="M1186.75,-62.55C1160.28,-60.05 1129.45,-57.25 1101.5,-55 867.45,-36.17 585.7,-18.7 486.35,-12.7"/>
<polygon fill="#63b8ff" stroke="#63b8ff" points="486.41,-9.2 476.22,-12.09 485.99,-16.19 486.41,-9.2"/>
</a>
</g>
</g>
<!-- Node24&#45;&gt;Node8 -->
<g id="edge41_Node000024_Node000008" class="edge">
<title>Node24&#45;&gt;Node8</title>
<g id="a_edge41_Node000024_Node000008"><a xlink:title=" ">
<path fill="none" stroke="#63b8ff" d="M1294.85,-60.49C1341.54,-51.07 1419.15,-35.3 1495.49,-19.19"/>
<polygon fill="#63b8ff" stroke="#63b8ff" points="1496.21,-22.62 1505.27,-17.13 1494.77,-15.77 1496.21,-22.62"/>
</a>
</g>
</g>
<!-- Node24&#45;&gt;Node9 -->
<g id="edge45_Node000024_Node000009" class="edge">
<title>Node24&#45;&gt;Node9</title>
<g id="a_edge45_Node000024_Node000009"><a xlink:title=" ">
<path fill="none" stroke="#63b8ff" d="M1186.74,-62.74C1160.26,-60.26 1129.43,-57.43 1101.5,-55 907.97,-38.17 855.05,-51.3 659.23,-18.8"/>
<polygon fill="#63b8ff" stroke="#63b8ff" points="659.63,-15.32 649.19,-17.12 658.47,-22.23 659.63,-15.32"/>
</a>
</g>
</g>
<!-- Node24&#45;&gt;Node13 -->
<g id="edge42_Node000024_Node000013" class="edge">
<title>Node24&#45;&gt;Node13</title>
<g id="a_edge42_Node000024_Node000013"><a xlink:title=" ">
<path fill="none" stroke="#63b8ff" d="M1318.27,-61.01C1381.4,-52.84 1479.55,-38.82 1573.29,-19.05"/>
<polygon fill="#63b8ff" stroke="#63b8ff" points="1574.17,-22.44 1583.22,-16.93 1572.71,-15.6 1574.17,-22.44"/>
</a>
</g>
</g>
<!-- Node24&#45;&gt;Node14 -->
<g id="edge44_Node000024_Node000014" class="edge">
<title>Node24&#45;&gt;Node14</title>
<g id="a_edge44_Node000024_Node000014"><a xlink:title=" ">
<path fill="none" stroke="#63b8ff" d="M1186.78,-60.61C1124.87,-52.24 1029.37,-38.18 937.21,-18.95"/>
<polygon fill="#63b8ff" stroke="#63b8ff" points="937.66,-15.47 927.16,-16.83 936.22,-22.32 937.66,-15.47"/>
</a>
</g>
</g>
<!-- Node24&#45;&gt;Node21 -->
<g id="edge37_Node000024_Node000021" class="edge">
<title>Node24&#45;&gt;Node21</title>
<g id="a_edge37_Node000024_Node000021"><a xlink:title=" ">
<path fill="none" stroke="#63b8ff" d="M1212.51,-60.49C1161.12,-49.56 1072.28,-30.66 1019.79,-19.5"/>
<polygon fill="#63b8ff" stroke="#63b8ff" points="1020.31,-16.03 1009.8,-17.37 1018.86,-22.88 1020.31,-16.03"/>
</a>
</g>
</g>
<!-- Node25 -->
<g id="Node000025" class="node">
<title>Node25</title>
<g id="a_Node000025"><a xlink:title=" ">
<polygon fill="#e0e0e0" stroke="#999999" points="1391.5,-19 1341.5,-19 1341.5,0 1391.5,0 1391.5,-19"/>
<text text-anchor="middle" x="1366.5" y="-7" font-family="Helvetica,sans-Serif" font-size="10.00">chrono</text>
</a>
</g>
</g>
<!-- Node24&#45;&gt;Node25 -->
<g id="edge38_Node000024_Node000025" class="edge">
<title>Node24&#45;&gt;Node25</title>
<g id="a_edge38_Node000024_Node000025"><a xlink:title=" ">
<path fill="none" stroke="#63b8ff" d="M1269.32,-60.37C1288.1,-50.73 1318.7,-35.03 1340.55,-23.81"/>
<polygon fill="#63b8ff" stroke="#63b8ff" points="1342.31,-26.85 1349.61,-19.17 1339.11,-20.62 1342.31,-26.85"/>
</a>
</g>
</g>
<!-- Node26 -->
<g id="Node000026" class="node">
<title>Node26</title>
<g id="a_Node000026"><a xlink:title=" ">
<polygon fill="#e0e0e0" stroke="#999999" points="1083.5,-19 1027.5,-19 1027.5,0 1083.5,0 1083.5,-19"/>
<text text-anchor="middle" x="1055.5" y="-7" font-family="Helvetica,sans-Serif" font-size="10.00">iomanip</text>
</a>
</g>
</g>
<!-- Node24&#45;&gt;Node26 -->
<g id="edge40_Node000024_Node000026" class="edge">
<title>Node24&#45;&gt;Node26</title>
<g id="a_edge40_Node000024_Node000026"><a xlink:title=" ">
<path fill="none" stroke="#63b8ff" d="M1223.85,-60.49C1189.37,-50.25 1131.36,-33.03 1093.25,-21.71"/>
<polygon fill="#63b8ff" stroke="#63b8ff" points="1094.12,-18.32 1083.54,-18.83 1092.13,-25.03 1094.12,-18.32"/>
</a>
</g>
</g>
<!-- Node27 -->
<g id="Node000027" class="node">
<title>Node27</title>
<g id="a_Node000027"><a xlink:title=" ">
<polygon fill="#e0e0e0" stroke="#999999" points="1195,-19 1102,-19 1102,0 1195,0 1195,-19"/>
<text text-anchor="middle" x="1148.5" y="-7" font-family="Helvetica,sans-Serif" font-size="10.00">unordered_map</text>
</a>
</g>
</g>
<!-- Node24&#45;&gt;Node27 -->
<g id="edge43_Node000024_Node000027" class="edge">
<title>Node24&#45;&gt;Node27</title>
<g id="a_edge43_Node000024_Node000027"><a xlink:title=" ">
<path fill="none" stroke="#63b8ff" d="M1237.15,-60.37C1220.18,-50.82 1192.6,-35.31 1172.71,-24.12"/>
<polygon fill="#63b8ff" stroke="#63b8ff" points="1174.34,-21.02 1163.91,-19.17 1170.91,-27.12 1174.34,-21.02"/>
</a>
</g>
</g>
<!-- Node28 -->
<g id="Node000028" class="node">
<title>Node28</title>
<g id="a_Node000028"><a xlink:title=" ">
<polygon fill="#e0e0e0" stroke="#999999" points="1323.5,-19 1213.5,-19 1213.5,0 1323.5,0 1323.5,-19"/>
<text text-anchor="middle" x="1268.5" y="-7" font-family="Helvetica,sans-Serif" font-size="10.00">nlohmann/json.hpp</text>
</a>
</g>
</g>
<!-- Node24&#45;&gt;Node28 -->
<g id="edge46_Node000024_Node000028" class="edge">
<title>Node24&#45;&gt;Node28</title>
<g id="a_edge46_Node000024_Node000028"><a xlink:title=" ">
<path fill="none" stroke="#63b8ff" d="M1254.86,-60.37C1257.11,-52.16 1260.56,-39.54 1263.43,-29.05"/>
<polygon fill="#63b8ff" stroke="#63b8ff" points="1266.87,-29.74 1266.13,-19.17 1260.12,-27.89 1266.87,-29.74"/>
</a>
</g>
</g>
<!-- Node29&#45;&gt;Node2 -->
<g id="edge48_Node000029_Node000002" class="edge">
<title>Node29&#45;&gt;Node2</title>
<g id="a_edge48_Node000029_Node000002"><a xlink:title=" ">
<path fill="none" stroke="#63b8ff" d="M1039.59,-230.92C1009.07,-222.84 963.21,-209.79 924.5,-195 903.58,-187.01 849.32,-160.84 816.31,-144.69"/>
<polygon fill="#63b8ff" stroke="#63b8ff" points="817.73,-141.49 807.21,-140.23 814.65,-147.78 817.73,-141.49"/>
</a>
</g>
</g>
<!-- Node29&#45;&gt;Node6 -->
<g id="edge51_Node000029_Node000006" class="edge">
<title>Node29&#45;&gt;Node6</title>
<g id="a_edge51_Node000029_Node000006"><a xlink:title=" ">
<path fill="none" stroke="#63b8ff" d="M1051.51,-230.91C1030.07,-222.36 996.67,-208.59 968.5,-195 906.53,-165.09 896.98,-145.02 832.5,-121 762.16,-94.8 739.8,-105.17 667.5,-85 600.27,-66.24 523.4,-38.44 481.27,-22.64"/>
<polygon fill="#63b8ff" stroke="#63b8ff" points="482.42,-19.33 471.83,-19.08 479.95,-25.88 482.42,-19.33"/>
</a>
</g>
</g>
<!-- Node29&#45;&gt;Node9 -->
<g id="edge55_Node000029_Node000009" class="edge">
<title>Node29&#45;&gt;Node9</title>
<g id="a_edge55_Node000029_Node000009"><a xlink:title=" ">
<path fill="none" stroke="#63b8ff" d="M1056.82,-230.85C1040.9,-222.38 1016.46,-208.75 996.5,-195 953.58,-165.42 952.78,-142.94 905.5,-121 827.14,-84.64 792.6,-121.92 714.5,-85 684.44,-70.79 656.16,-43.95 639.85,-26.66"/>
<polygon fill="#63b8ff" stroke="#63b8ff" points="642.19,-24.04 632.85,-19.04 637.03,-28.77 642.19,-24.04"/>
</a>
</g>
</g>
<!-- Node29&#45;&gt;Node12 -->
<g id="edge52_Node000029_Node000012" class="edge">
<title>Node29&#45;&gt;Node12</title>
<g id="a_edge52_Node000029_Node000012"><a xlink:title=" ">
<path fill="none" stroke="#63b8ff" d="M1036.55,-230.98C994.34,-221.26 925.59,-205.42 882.53,-195.49"/>
<polygon fill="#63b8ff" stroke="#63b8ff" points="883.23,-192.06 872.7,-193.23 881.66,-198.89 883.23,-192.06"/>
</a>
</g>
</g>
<!-- Node29&#45;&gt;Node13 -->
<g id="edge53_Node000029_Node000013" class="edge">
<title>Node29&#45;&gt;Node13</title>
<g id="a_edge53_Node000029_Node000013"><a xlink:title=" ">
<path fill="none" stroke="#63b8ff" d="M1131.34,-239.02C1229.15,-237.26 1422.19,-229.38 1479.5,-195 1545.19,-155.59 1584.52,-67.17 1599.06,-28.82"/>
<polygon fill="#63b8ff" stroke="#63b8ff" points="1602.5,-29.62 1602.64,-19.03 1595.92,-27.22 1602.5,-29.62"/>
</a>
</g>
</g>
<!-- Node29&#45;&gt;Node14 -->
<g id="edge54_Node000029_Node000014" class="edge">
<title>Node29&#45;&gt;Node14</title>
<g id="a_edge54_Node000029_Node000014"><a xlink:title=" ">
<path fill="none" stroke="#63b8ff" d="M1113.7,-230.87C1133.19,-224.45 1154.86,-213.48 1166.5,-195 1173.28,-184.24 1176.24,-152.67 1162.5,-121 1158.53,-111.84 1110.17,-59.96 1101.5,-55 1039.03,-19.25 1011.73,-35.18 937.04,-18.93"/>
<polygon fill="#63b8ff" stroke="#63b8ff" points="937.72,-15.5 927.19,-16.66 936.15,-22.32 937.72,-15.5"/>
</a>
</g>
</g>
<!-- Node29&#45;&gt;Node15 -->
<g id="edge57_Node000029_Node000015" class="edge">
<title>Node29&#45;&gt;Node15</title>
<g id="a_edge57_Node000029_Node000015"><a xlink:title=" ">
<path fill="none" stroke="#63b8ff" d="M1073.5,-230.75C1073.5,-223.8 1073.5,-213.85 1073.5,-205.13"/>
<polygon fill="#63b8ff" stroke="#63b8ff" points="1077,-205.09 1073.5,-195.09 1070,-205.09 1077,-205.09"/>
</a>
</g>
</g>
<!-- Node29&#45;&gt;Node16 -->
<g id="edge58_Node000029_Node000016" class="edge">
<title>Node29&#45;&gt;Node16</title>
<g id="a_edge58_Node000029_Node000016"><a xlink:title=" ">
<path fill="none" stroke="#63b8ff" d="M1100.61,-230.91C1128.63,-220.47 1166.35,-201.1 1151.5,-176 1142.64,-161.02 1126.74,-150.74 1111.36,-143.88"/>
<polygon fill="#63b8ff" stroke="#63b8ff" points="1112.5,-140.56 1101.92,-140.03 1109.86,-147.04 1112.5,-140.56"/>
</a>
</g>
</g>
<!-- Node29&#45;&gt;Node19 -->
<g id="edge56_Node000029_Node000019" class="edge">
<title>Node29&#45;&gt;Node19</title>
<g id="a_edge56_Node000029_Node000019"><a xlink:title=" ">
<path fill="none" stroke="#63b8ff" d="M1129.75,-230.94C1162.81,-224.33 1204.64,-213.15 1238.5,-195 1323.63,-149.36 1403.33,-63.16 1434.58,-27.06"/>
<polygon fill="#63b8ff" stroke="#63b8ff" points="1437.3,-29.26 1441.14,-19.39 1431.98,-24.71 1437.3,-29.26"/>
</a>
</g>
</g>
<!-- Node29&#45;&gt;Node21 -->
<g id="edge50_Node000029_Node000021" class="edge">
<title>Node29&#45;&gt;Node21</title>
<g id="a_edge50_Node000029_Node000021"><a xlink:title=" ">
<path fill="none" stroke="#63b8ff" d="M1131.02,-238.23C1163.44,-234.18 1201.53,-223.14 1222.5,-195 1233.01,-180.89 1226.21,-146.11 1211.5,-121 1200.11,-101.55 1154.36,-65.65 1134.5,-55 1114.69,-44.37 1059.12,-29.82 1019.72,-20.3"/>
<polygon fill="#63b8ff" stroke="#63b8ff" points="1020.38,-16.85 1009.84,-17.93 1018.75,-23.66 1020.38,-16.85"/>
</a>
</g>
</g>
<!-- Node30 -->
<g id="Node000030" class="node">
<title>Node30</title>
<g id="a_Node000030"><a xlink:title=" ">
<polygon fill="#e0e0e0" stroke="#999999" points="1470,-195 1401,-195 1401,-176 1470,-176 1470,-195"/>
<text text-anchor="middle" x="1435.5" y="-183" font-family="Helvetica,sans-Serif" font-size="10.00">petscvec.h</text>
</a>
</g>
</g>
<!-- Node29&#45;&gt;Node30 -->
<g id="edge49_Node000029_Node000030" class="edge">
<title>Node29&#45;&gt;Node30</title>
<g id="a_edge49_Node000029_Node000030"><a xlink:title=" ">
<path fill="none" stroke="#63b8ff" d="M1131.27,-231.82C1194.14,-223.35 1297.59,-209.03 1386.5,-195 1387.97,-194.77 1389.46,-194.53 1390.96,-194.29"/>
<polygon fill="#63b8ff" stroke="#63b8ff" points="1391.7,-197.71 1400.99,-192.62 1390.55,-190.81 1391.7,-197.71"/>
</a>
</g>
</g>
<!-- Node31&#45;&gt;Node3 -->
<g id="edge60_Node000031_Node000003" class="edge">
<title>Node31&#45;&gt;Node3</title>
<g id="a_edge60_Node000031_Node000003"><a xlink:title=" ">
<path fill="none" stroke="#63b8ff" d="M414.95,-120.94C397.63,-101.31 354.79,-52.76 332.12,-27.07"/>
<polygon fill="#63b8ff" stroke="#63b8ff" points="334.51,-24.48 325.27,-19.3 329.26,-29.12 334.51,-24.48"/>
</a>
</g>
</g>
<!-- Node31&#45;&gt;Node6 -->
<g id="edge61_Node000031_Node000006" class="edge">
<title>Node31&#45;&gt;Node6</title>
<g id="a_edge61_Node000031_Node000006"><a xlink:title=" ">
<path fill="none" stroke="#63b8ff" d="M424.44,-120.94C428.78,-101.82 439.34,-55.27 445.27,-29.12"/>
<polygon fill="#63b8ff" stroke="#63b8ff" points="448.7,-29.83 447.5,-19.3 441.88,-28.28 448.7,-29.83"/>
</a>
</g>
</g>
<!-- Node31&#45;&gt;Node9 -->
<g id="edge62_Node000031_Node000009" class="edge">
<title>Node31&#45;&gt;Node9</title>
<g id="a_edge62_Node000031_Node000009"><a xlink:title=" ">
<path fill="none" stroke="#63b8ff" d="M437.1,-120.94C471.84,-100.58 559.66,-49.1 601.98,-24.29"/>
<polygon fill="#63b8ff" stroke="#63b8ff" points="603.9,-27.22 610.76,-19.14 600.36,-21.18 603.9,-27.22"/>
</a>
</g>
</g>
<!-- Node32 -->
<g id="Node000032" class="node">
<title>Node32</title>
<g id="a_Node000032"><a xlink:href="vmath_8hpp.html" target="_top" xlink:title=" ">
<polygon fill="white" stroke="#666666" points="251.5,-79.5 123.5,-79.5 123.5,-60.5 251.5,-60.5 251.5,-79.5"/>
<text text-anchor="middle" x="187.5" y="-67.5" font-family="Helvetica,sans-Serif" font-size="10.00">vulpes/utils/vmath.hpp</text>
</a>
</g>
</g>
<!-- Node31&#45;&gt;Node32 -->
<g id="edge63_Node000031_Node000032" class="edge">
<title>Node31&#45;&gt;Node32</title>
<g id="a_edge63_Node000031_Node000032"><a xlink:title=" ">
<path fill="none" stroke="#63b8ff" d="M388.33,-120.99C346.91,-110.68 277.02,-93.28 231.58,-81.97"/>
<polygon fill="#63b8ff" stroke="#63b8ff" points="232.26,-78.54 221.71,-79.52 230.57,-85.33 232.26,-78.54"/>
</a>
</g>
</g>
<!-- Node32&#45;&gt;Node6 -->
<g id="edge65_Node000032_Node000006" class="edge">
<title>Node32&#45;&gt;Node6</title>
<g id="a_edge65_Node000032_Node000006"><a xlink:title=" ">
<path fill="none" stroke="#63b8ff" d="M225.6,-60.49C275.81,-49.28 363.56,-29.69 412.98,-18.66"/>
<polygon fill="#63b8ff" stroke="#63b8ff" points="413.92,-22.03 422.91,-16.44 412.39,-15.2 413.92,-22.03"/>
</a>
</g>
</g>
<!-- Node32&#45;&gt;Node19 -->
<g id="edge69_Node000032_Node000019" class="edge">
<title>Node32&#45;&gt;Node19</title>
<g id="a_edge69_Node000032_Node000019"><a xlink:title=" ">
<path fill="none" stroke="#63b8ff" d="M251.64,-67.49C465.61,-62.29 1154.7,-44.07 1399.52,-18.9"/>
<polygon fill="#63b8ff" stroke="#63b8ff" points="1400.22,-22.35 1409.79,-17.81 1399.48,-15.39 1400.22,-22.35"/>
</a>
</g>
</g>
<!-- Node33 -->
<g id="Node000033" class="node">
<title>Node33</title>
<g id="a_Node000033"><a xlink:title=" ">
<polygon fill="#e0e0e0" stroke="#999999" points="146,-19 87,-19 87,0 146,0 146,-19"/>
<text text-anchor="middle" x="116.5" y="-7" font-family="Helvetica,sans-Serif" font-size="10.00">gmpxx.h</text>
</a>
</g>
</g>
<!-- Node32&#45;&gt;Node33 -->
<g id="edge64_Node000032_Node000033" class="edge">
<title>Node32&#45;&gt;Node33</title>
<g id="a_edge64_Node000032_Node000033"><a xlink:title=" ">
<path fill="none" stroke="#63b8ff" d="M177.02,-60.37C166.01,-51.3 148.46,-36.84 135.09,-25.82"/>
<polygon fill="#63b8ff" stroke="#63b8ff" points="136.96,-22.83 127.02,-19.17 132.51,-28.23 136.96,-22.83"/>
</a>
</g>
</g>
<!-- Node34 -->
<g id="Node000034" class="node">
<title>Node34</title>
<g id="a_Node000034"><a xlink:title=" ">
<polygon fill="#e0e0e0" stroke="#999999" points="214.5,-19 164.5,-19 164.5,0 214.5,0 214.5,-19"/>
<text text-anchor="middle" x="189.5" y="-7" font-family="Helvetica,sans-Serif" font-size="10.00">cstdint</text>
</a>
</g>
</g>
<!-- Node32&#45;&gt;Node34 -->
<g id="edge66_Node000032_Node000034" class="edge">
<title>Node32&#45;&gt;Node34</title>
<g id="a_edge66_Node000032_Node000034"><a xlink:title=" ">
<path fill="none" stroke="#63b8ff" d="M187.8,-60.37C188.07,-52.25 188.5,-39.81 188.85,-29.39"/>
<polygon fill="#63b8ff" stroke="#63b8ff" points="192.36,-29.28 189.2,-19.17 185.36,-29.04 192.36,-29.28"/>
</a>
</g>
</g>
<!-- Node35 -->
<g id="Node000035" class="node">
<title>Node35</title>
<g id="a_Node000035"><a xlink:title=" ">
<polygon fill="#e0e0e0" stroke="#999999" points="276.5,-19 232.5,-19 232.5,0 276.5,0 276.5,-19"/>
<text text-anchor="middle" x="254.5" y="-7" font-family="Helvetica,sans-Serif" font-size="10.00">limits</text>
</a>
</g>
</g>
<!-- Node32&#45;&gt;Node35 -->
<g id="edge67_Node000032_Node000035" class="edge">
<title>Node32&#45;&gt;Node35</title>
<g id="a_edge67_Node000032_Node000035"><a xlink:title=" ">
<path fill="none" stroke="#63b8ff" d="M197.39,-60.37C207.78,-51.3 224.34,-36.84 236.95,-25.82"/>
<polygon fill="#63b8ff" stroke="#63b8ff" points="239.34,-28.38 244.57,-19.17 234.74,-23.11 239.34,-28.38"/>
</a>
</g>
</g>
<!-- Node36 -->
<g id="Node000036" class="node">
<title>Node36</title>
<g id="a_Node000036"><a xlink:title=" ">
<polygon fill="#e0e0e0" stroke="#999999" points="69,-19 0,-19 0,0 69,0 69,-19"/>
<text text-anchor="middle" x="34.5" y="-7" font-family="Helvetica,sans-Serif" font-size="10.00">type_traits</text>
</a>
</g>
</g>
<!-- Node32&#45;&gt;Node36 -->
<g id="edge68_Node000032_Node000036" class="edge">
<title>Node32&#45;&gt;Node36</title>
<g id="a_edge68_Node000032_Node000036"><a xlink:title=" ">
<path fill="none" stroke="#63b8ff" d="M165.25,-60.49C139.19,-50.53 95.82,-33.95 66.23,-22.63"/>
<polygon fill="#63b8ff" stroke="#63b8ff" points="67.36,-19.32 56.77,-19.02 64.86,-25.86 67.36,-19.32"/>
</a>
</g>
</g>
</g>
</svg>
