<?xml version="1.0" encoding="UTF-8" standalone="no"?>
<!DOCTYPE svg PUBLIC "-//W3C//DTD SVG 1.1//EN"
 "http://www.w3.org/Graphics/SVG/1.1/DTD/svg11.dtd">
<!-- Generated by graphviz version 2.42.4 (0)
 -->
<!-- Title: /__w/vulpes/vulpes/vulpes/la/vector.hpp Pages: 1 -->
<svg width="1535pt" height="489pt"
 viewBox="0.00 0.00 1534.50 489.00" xmlns="http://www.w3.org/2000/svg" xmlns:xlink="http://www.w3.org/1999/xlink">
<g id="graph0" class="graph" transform="scale(1 1) rotate(0) translate(4 485)">
<title>/__w/vulpes/vulpes/vulpes/la/vector.hpp</title>
<!-- Node1 -->
<g id="Node000001" class="node">
<title>Node1</title>
<g id="a_Node000001"><a xlink:title=" ">
<polygon fill="#999999" stroke="#666666" points="1125.5,-481 1007.5,-481 1007.5,-451 1125.5,-451 1125.5,-481"/>
<text text-anchor="start" x="1015.5" y="-469" font-family="Helvetica,sans-Serif" font-size="10.00">/__w/vulpes/vulpes</text>
<text text-anchor="middle" x="1066.5" y="-458" font-family="Helvetica,sans-Serif" font-size="10.00">/vulpes/la/vector.hpp</text>
</a>
</g>
</g>
<!-- Node2 -->
<g id="Node000002" class="node">
<title>Node2</title>
<g id="a_Node000002"><a xlink:href="dg__utils_8hpp.html" target="_top" xlink:title=" ">
<polygon fill="white" stroke="#666666" points="579,-272 462,-272 462,-231 579,-231 579,-272"/>
<text text-anchor="start" x="470" y="-260" font-family="Helvetica,sans-Serif" font-size="10.00">/__w/vulpes/vulpes</text>
<text text-anchor="start" x="470" y="-249" font-family="Helvetica,sans-Serif" font-size="10.00">/vulpes/assemble/dg</text>
<text text-anchor="middle" x="520.5" y="-238" font-family="Helvetica,sans-Serif" font-size="10.00">_utils.hpp</text>
</a>
</g>
</g>
<!-- Node1&#45;&gt;Node2 -->
<g id="edge1_Node000001_Node000002" class="edge">
<title>Node1&#45;&gt;Node2</title>
<g id="a_edge1_Node000001_Node000002"><a xlink:title=" ">
<path fill="none" stroke="#63b8ff" d="M997.42,-460.02C908.27,-452.8 758.65,-437.74 708.5,-415 633.46,-380.97 565.74,-307.26 536.19,-272.03"/>
<polygon fill="#63b8ff" stroke="#63b8ff" points="997.2,-463.52 1007.45,-460.82 997.76,-456.54 997.2,-463.52"/>
</a>
</g>
</g>
<!-- Node3 -->
<g id="Node000003" class="node">
<title>Node3</title>
<g id="a_Node000003"><a xlink:href="fe__expr__func_8hpp.html" target="_top" xlink:title=" ">
<polygon fill="white" stroke="#666666" points="488,-415 347,-415 347,-374 488,-374 488,-415"/>
<text text-anchor="start" x="355" y="-403" font-family="Helvetica,sans-Serif" font-size="10.00">/__w/vulpes/vulpes</text>
<text text-anchor="start" x="355" y="-392" font-family="Helvetica,sans-Serif" font-size="10.00">/vulpes/fe/fe_expressions</text>
<text text-anchor="middle" x="417.5" y="-381" font-family="Helvetica,sans-Serif" font-size="10.00">/fe_expr_func.hpp</text>
</a>
</g>
</g>
<!-- Node1&#45;&gt;Node3 -->
<g id="edge2_Node000001_Node000003" class="edge">
<title>Node1&#45;&gt;Node3</title>
<g id="a_edge2_Node000001_Node000003"><a xlink:title=" ">
<path fill="none" stroke="#63b8ff" d="M997.26,-460.79C893.36,-454 691.1,-438.9 520.5,-415 510.05,-413.54 499.04,-411.73 488.27,-409.82"/>
<polygon fill="#63b8ff" stroke="#63b8ff" points="997.1,-464.29 1007.3,-461.44 997.55,-457.3 997.1,-464.29"/>
</a>
</g>
</g>
<!-- Node12 -->
<g id="Node000012" class="node">
<title>Node12</title>
<g id="a_Node000012"><a xlink:href="linear__solver_8hpp.html" target="_top" xlink:title=" ">
<polygon fill="white" stroke="#666666" points="840.5,-338 690.5,-338 690.5,-308 840.5,-308 840.5,-338"/>
<text text-anchor="start" x="698.5" y="-326" font-family="Helvetica,sans-Serif" font-size="10.00">/__w/vulpes/vulpes</text>
<text text-anchor="middle" x="765.5" y="-315" font-family="Helvetica,sans-Serif" font-size="10.00">/vulpes/la/linear_solver.hpp</text>
</a>
</g>
</g>
<!-- Node1&#45;&gt;Node12 -->
<g id="edge14_Node000001_Node000012" class="edge">
<title>Node1&#45;&gt;Node12</title>
<g id="a_edge14_Node000001_Node000012"><a xlink:title=" ">
<path fill="none" stroke="#63b8ff" d="M997.38,-451.96C963.22,-443.97 922.03,-431.96 887.5,-415 845.05,-394.14 802.32,-357.96 780.45,-338.09"/>
<polygon fill="#63b8ff" stroke="#63b8ff" points="996.75,-455.41 1007.28,-454.21 998.31,-448.58 996.75,-455.41"/>
</a>
</g>
</g>
<!-- Node14 -->
<g id="Node000014" class="node">
<title>Node14</title>
<g id="a_Node000014"><a xlink:href="cranknicolson_8hpp.html" target="_top" xlink:title=" ">
<polygon fill="white" stroke="#666666" points="728,-272 597,-272 597,-231 728,-231 728,-272"/>
<text text-anchor="start" x="605" y="-260" font-family="Helvetica,sans-Serif" font-size="10.00">/__w/vulpes/vulpes</text>
<text text-anchor="start" x="605" y="-249" font-family="Helvetica,sans-Serif" font-size="10.00">/vulpes/timeintegration</text>
<text text-anchor="middle" x="662.5" y="-238" font-family="Helvetica,sans-Serif" font-size="10.00">/cranknicolson.hpp</text>
</a>
</g>
</g>
<!-- Node1&#45;&gt;Node14 -->
<g id="edge34_Node000001_Node000014" class="edge">
<title>Node1&#45;&gt;Node14</title>
<g id="a_edge34_Node000001_Node000014"><a xlink:title=" ">
<path fill="none" stroke="#63b8ff" d="M997.24,-454.13C891.55,-435.87 698.44,-395.33 662.5,-338 650.12,-318.25 652.93,-290.57 656.95,-272.11"/>
<polygon fill="#63b8ff" stroke="#63b8ff" points="996.74,-457.6 1007.18,-455.83 997.92,-450.7 996.74,-457.6"/>
</a>
</g>
</g>
<!-- Node16 -->
<g id="Node000016" class="node">
<title>Node16</title>
<g id="a_Node000016"><a xlink:href="imex_8hpp.html" target="_top" xlink:title=" ">
<polygon fill="white" stroke="#666666" points="1193,-272 1062,-272 1062,-231 1193,-231 1193,-272"/>
<text text-anchor="start" x="1070" y="-260" font-family="Helvetica,sans-Serif" font-size="10.00">/__w/vulpes/vulpes</text>
<text text-anchor="start" x="1070" y="-249" font-family="Helvetica,sans-Serif" font-size="10.00">/vulpes/timeintegration</text>
<text text-anchor="middle" x="1127.5" y="-238" font-family="Helvetica,sans-Serif" font-size="10.00">/dae/imex.hpp</text>
</a>
</g>
</g>
<!-- Node1&#45;&gt;Node16 -->
<g id="edge35_Node000001_Node000016" class="edge">
<title>Node1&#45;&gt;Node16</title>
<g id="a_edge35_Node000001_Node000016"><a xlink:title=" ">
<path fill="none" stroke="#63b8ff" d="M1105.68,-445.44C1117.09,-437.64 1128.17,-427.5 1134.5,-415 1158.15,-368.26 1143.85,-303.93 1134.18,-272.05"/>
<polygon fill="#63b8ff" stroke="#63b8ff" points="1103.55,-442.64 1096.96,-450.94 1107.29,-448.56 1103.55,-442.64"/>
</a>
</g>
</g>
<!-- Node17 -->
<g id="Node000017" class="node">
<title>Node17</title>
<g id="a_Node000017"><a xlink:href="solverfkpp_8hpp.html" target="_top" xlink:title=" ">
<polygon fill="white" stroke="#666666" points="1342,-272 1211,-272 1211,-231 1342,-231 1342,-272"/>
<text text-anchor="start" x="1219" y="-260" font-family="Helvetica,sans-Serif" font-size="10.00">/__w/vulpes/vulpes</text>
<text text-anchor="start" x="1219" y="-249" font-family="Helvetica,sans-Serif" font-size="10.00">/vulpes/timeintegration</text>
<text text-anchor="middle" x="1276.5" y="-238" font-family="Helvetica,sans-Serif" font-size="10.00">/solverfkpp.hpp</text>
</a>
</g>
</g>
<!-- Node1&#45;&gt;Node17 -->
<g id="edge36_Node000001_Node000017" class="edge">
<title>Node1&#45;&gt;Node17</title>
<g id="a_edge36_Node000001_Node000017"><a xlink:title=" ">
<path fill="none" stroke="#63b8ff" d="M1106.76,-446.23C1122.29,-437.91 1139.62,-427.23 1153.5,-415 1203.14,-371.26 1245.89,-304.71 1265.33,-272.02"/>
<polygon fill="#63b8ff" stroke="#63b8ff" points="1105.13,-443.14 1097.86,-450.85 1108.35,-449.35 1105.13,-443.14"/>
</a>
</g>
</g>
<!-- Node19 -->
<g id="Node000019" class="node">
<title>Node19</title>
<g id="a_Node000019"><a xlink:href="solvermfk_8hpp.html" target="_top" xlink:title=" ">
<polygon fill="white" stroke="#666666" points="1044,-272 913,-272 913,-231 1044,-231 1044,-272"/>
<text text-anchor="start" x="921" y="-260" font-family="Helvetica,sans-Serif" font-size="10.00">/__w/vulpes/vulpes</text>
<text text-anchor="start" x="921" y="-249" font-family="Helvetica,sans-Serif" font-size="10.00">/vulpes/timeintegration</text>
<text text-anchor="middle" x="978.5" y="-238" font-family="Helvetica,sans-Serif" font-size="10.00">/solvermfk.hpp</text>
</a>
</g>
</g>
<!-- Node1&#45;&gt;Node19 -->
<g id="edge37_Node000001_Node000019" class="edge">
<title>Node1&#45;&gt;Node19</title>
<g id="a_edge37_Node000001_Node000019"><a xlink:title=" ">
<path fill="none" stroke="#63b8ff" d="M1068.37,-440.49C1069.65,-407.56 1067.49,-348.48 1040.5,-308 1031.36,-294.3 1018.07,-281.79 1006.13,-272.14"/>
<polygon fill="#63b8ff" stroke="#63b8ff" points="1064.87,-440.42 1067.83,-450.59 1071.86,-440.79 1064.87,-440.42"/>
</a>
</g>
</g>
<!-- Node21 -->
<g id="Node000021" class="node">
<title>Node21</title>
<g id="a_Node000021"><a xlink:href="sparse__matrix_8hpp.html" target="_top" xlink:title=" ">
<polygon fill="white" stroke="#666666" points="1054.5,-409.5 896.5,-409.5 896.5,-379.5 1054.5,-379.5 1054.5,-409.5"/>
<text text-anchor="start" x="904.5" y="-397.5" font-family="Helvetica,sans-Serif" font-size="10.00">/__w/vulpes/vulpes</text>
<text text-anchor="middle" x="975.5" y="-386.5" font-family="Helvetica,sans-Serif" font-size="10.00">/vulpes/la/sparse_matrix.hpp</text>
</a>
</g>
</g>
<!-- Node1&#45;&gt;Node21 -->
<g id="edge24_Node000001_Node000021" class="edge">
<title>Node1&#45;&gt;Node21</title>
<g id="a_edge24_Node000001_Node000021"><a xlink:title=" ">
<path fill="none" stroke="#63b8ff" d="M1039.82,-444.63C1025.06,-433.35 1007.08,-419.62 993.89,-409.54"/>
<polygon fill="#63b8ff" stroke="#63b8ff" points="1038.01,-447.65 1048.08,-450.94 1042.26,-442.08 1038.01,-447.65"/>
</a>
</g>
</g>
<!-- Node23 -->
<g id="Node000023" class="node">
<title>Node23</title>
<g id="a_Node000023"><a xlink:href="vector_8cpp.html" target="_top" xlink:title=" ">
<polygon fill="white" stroke="#666666" points="1380,-409.5 1263,-409.5 1263,-379.5 1380,-379.5 1380,-409.5"/>
<text text-anchor="start" x="1271" y="-397.5" font-family="Helvetica,sans-Serif" font-size="10.00">/__w/vulpes/vulpes</text>
<text text-anchor="middle" x="1321.5" y="-386.5" font-family="Helvetica,sans-Serif" font-size="10.00">/vulpes/la/vector.cpp</text>
</a>
</g>
</g>
<!-- Node1&#45;&gt;Node23 -->
<g id="edge32_Node000001_Node000023" class="edge">
<title>Node1&#45;&gt;Node23</title>
<g id="a_edge32_Node000001_Node000023"><a xlink:title=" ">
<path fill="none" stroke="#63b8ff" d="M1127.98,-448.24C1171.41,-436.41 1228.95,-420.72 1269.97,-409.54"/>
<polygon fill="#63b8ff" stroke="#63b8ff" points="1126.83,-444.93 1118.1,-450.94 1128.67,-451.68 1126.83,-444.93"/>
</a>
</g>
</g>
<!-- Node24 -->
<g id="Node000024" class="node">
<title>Node24</title>
<g id="a_Node000024"><a xlink:href="project__solution_8hpp.html" target="_top" xlink:title=" ">
<polygon fill="white" stroke="#666666" points="1526.5,-415 1398.5,-415 1398.5,-374 1526.5,-374 1526.5,-415"/>
<text text-anchor="start" x="1406.5" y="-403" font-family="Helvetica,sans-Serif" font-size="10.00">/__w/vulpes/vulpes</text>
<text text-anchor="start" x="1406.5" y="-392" font-family="Helvetica,sans-Serif" font-size="10.00">/vulpes/postprocessing</text>
<text text-anchor="middle" x="1462.5" y="-381" font-family="Helvetica,sans-Serif" font-size="10.00">/project_solution.hpp</text>
</a>
</g>
</g>
<!-- Node1&#45;&gt;Node24 -->
<g id="edge33_Node000001_Node000024" class="edge">
<title>Node1&#45;&gt;Node24</title>
<g id="a_edge33_Node000001_Node000024"><a xlink:title=" ">
<path fill="none" stroke="#63b8ff" d="M1136.01,-456.44C1201.69,-447.83 1302.79,-433.24 1389.5,-415 1392.45,-414.38 1395.46,-413.71 1398.5,-413.01"/>
<polygon fill="#63b8ff" stroke="#63b8ff" points="1135.25,-453.01 1125.78,-457.77 1136.15,-459.95 1135.25,-453.01"/>
</a>
</g>
</g>
<!-- Node4 -->
<g id="Node000004" class="node">
<title>Node4</title>
<g id="a_Node000004"><a xlink:href="fe__expression_8hpp.html" target="_top" xlink:title=" ">
<polygon fill="white" stroke="#666666" points="464,-338 307,-338 307,-308 464,-308 464,-338"/>
<text text-anchor="start" x="315" y="-326" font-family="Helvetica,sans-Serif" font-size="10.00">/__w/vulpes/vulpes</text>
<text text-anchor="middle" x="385.5" y="-315" font-family="Helvetica,sans-Serif" font-size="10.00">/vulpes/fe/fe_expression.hpp</text>
</a>
</g>
</g>
<!-- Node3&#45;&gt;Node4 -->
<g id="edge3_Node000003_Node000004" class="edge">
<title>Node3&#45;&gt;Node4</title>
<g id="a_edge3_Node000003_Node000004"><a xlink:title=" ">
<path fill="none" stroke="#63b8ff" d="M404.16,-364.53C399.94,-355.37 395.47,-345.66 391.96,-338.04"/>
<polygon fill="#63b8ff" stroke="#63b8ff" points="401.05,-366.15 408.42,-373.77 407.41,-363.22 401.05,-366.15"/>
</a>
</g>
</g>
<!-- Node4&#45;&gt;Node2 -->
<g id="edge4_Node000004_Node000002" class="edge">
<title>Node4&#45;&gt;Node2</title>
<g id="a_edge4_Node000004_Node000002"><a xlink:title=" ">
<path fill="none" stroke="#63b8ff" d="M421.93,-303.24C440.68,-293.59 463.51,-281.84 482.48,-272.07"/>
<polygon fill="#63b8ff" stroke="#63b8ff" points="420.11,-300.25 412.82,-307.94 423.31,-306.47 420.11,-300.25"/>
</a>
</g>
</g>
<!-- Node5 -->
<g id="Node000005" class="node">
<title>Node5</title>
<g id="a_Node000005"><a xlink:href="integrator__base_8hpp.html" target="_top" xlink:title=" ">
<polygon fill="white" stroke="#666666" points="324,-195 171,-195 171,-154 324,-154 324,-195"/>
<text text-anchor="start" x="179" y="-183" font-family="Helvetica,sans-Serif" font-size="10.00">/__w/vulpes/vulpes</text>
<text text-anchor="start" x="179" y="-172" font-family="Helvetica,sans-Serif" font-size="10.00">/vulpes/assemble/integrator</text>
<text text-anchor="middle" x="247.5" y="-161" font-family="Helvetica,sans-Serif" font-size="10.00">_base.hpp</text>
</a>
</g>
</g>
<!-- Node4&#45;&gt;Node5 -->
<g id="edge5_Node000004_Node000005" class="edge">
<title>Node4&#45;&gt;Node5</title>
<g id="a_edge5_Node000004_Node000005"><a xlink:title=" ">
<path fill="none" stroke="#63b8ff" d="M354.96,-302.11C342.95,-293.57 329.45,-283.02 318.5,-272 294.75,-248.09 272.63,-215.8 259.58,-195.31"/>
<polygon fill="#63b8ff" stroke="#63b8ff" points="353.17,-305.13 363.38,-307.95 357.16,-299.37 353.17,-305.13"/>
</a>
</g>
</g>
<!-- Node10 -->
<g id="Node000010" class="node">
<title>Node10</title>
<g id="a_Node000010"><a xlink:href="integrator__traits_8hpp.html" target="_top" xlink:title=" ">
<polygon fill="white" stroke="#666666" points="271,-272 118,-272 118,-231 271,-231 271,-272"/>
<text text-anchor="start" x="126" y="-260" font-family="Helvetica,sans-Serif" font-size="10.00">/__w/vulpes/vulpes</text>
<text text-anchor="start" x="126" y="-249" font-family="Helvetica,sans-Serif" font-size="10.00">/vulpes/assemble/integrator</text>
<text text-anchor="middle" x="194.5" y="-238" font-family="Helvetica,sans-Serif" font-size="10.00">_traits.hpp</text>
</a>
</g>
</g>
<!-- Node4&#45;&gt;Node10 -->
<g id="edge11_Node000004_Node000010" class="edge">
<title>Node4&#45;&gt;Node10</title>
<g id="a_edge11_Node000004_Node000010"><a xlink:title=" ">
<path fill="none" stroke="#63b8ff" d="M337.2,-304.42C310.1,-294.56 276.23,-282.24 248.29,-272.07"/>
<polygon fill="#63b8ff" stroke="#63b8ff" points="336.25,-307.81 346.85,-307.94 338.65,-301.23 336.25,-307.81"/>
</a>
</g>
</g>
<!-- Node11 -->
<g id="Node000011" class="node">
<title>Node11</title>
<g id="a_Node000011"><a xlink:href="fe__vem_8hpp.html" target="_top" xlink:title=" ">
<polygon fill="white" stroke="#666666" points="443.5,-272 327.5,-272 327.5,-231 443.5,-231 443.5,-272"/>
<text text-anchor="start" x="335.5" y="-260" font-family="Helvetica,sans-Serif" font-size="10.00">/__w/vulpes/vulpes</text>
<text text-anchor="start" x="335.5" y="-249" font-family="Helvetica,sans-Serif" font-size="10.00">/vulpes/fe/fe_spaces</text>
<text text-anchor="middle" x="385.5" y="-238" font-family="Helvetica,sans-Serif" font-size="10.00">/fe_vem.hpp</text>
</a>
</g>
</g>
<!-- Node4&#45;&gt;Node11 -->
<g id="edge13_Node000004_Node000011" class="edge">
<title>Node4&#45;&gt;Node11</title>
<g id="a_edge13_Node000004_Node000011"><a xlink:title=" ">
<path fill="none" stroke="#63b8ff" d="M385.5,-297.91C385.5,-289.47 385.5,-280.1 385.5,-272.07"/>
<polygon fill="#63b8ff" stroke="#63b8ff" points="382,-297.94 385.5,-307.94 389,-297.94 382,-297.94"/>
</a>
</g>
</g>
<!-- Node6 -->
<g id="Node000006" class="node">
<title>Node6</title>
<g id="a_Node000006"><a xlink:href="integrator__gauss_8hpp.html" target="_top" xlink:title=" ">
<polygon fill="white" stroke="#666666" points="153,-118 0,-118 0,-77 153,-77 153,-118"/>
<text text-anchor="start" x="8" y="-106" font-family="Helvetica,sans-Serif" font-size="10.00">/__w/vulpes/vulpes</text>
<text text-anchor="start" x="8" y="-95" font-family="Helvetica,sans-Serif" font-size="10.00">/vulpes/assemble/integrator</text>
<text text-anchor="middle" x="76.5" y="-84" font-family="Helvetica,sans-Serif" font-size="10.00">_gauss.hpp</text>
</a>
</g>
</g>
<!-- Node5&#45;&gt;Node6 -->
<g id="edge6_Node000005_Node000006" class="edge">
<title>Node5&#45;&gt;Node6</title>
<g id="a_edge6_Node000005_Node000006"><a xlink:title=" ">
<path fill="none" stroke="#63b8ff" d="M193.6,-149.86C170.25,-139.62 143.25,-127.77 121.06,-118.04"/>
<polygon fill="#63b8ff" stroke="#63b8ff" points="192.45,-153.18 203.02,-153.99 195.27,-146.77 192.45,-153.18"/>
</a>
</g>
</g>
<!-- Node7 -->
<g id="Node000007" class="node">
<title>Node7</title>
<g id="a_Node000007"><a xlink:href="integrator__qfree_8hpp.html" target="_top" xlink:title=" ">
<polygon fill="white" stroke="#666666" points="495,-118 342,-118 342,-77 495,-77 495,-118"/>
<text text-anchor="start" x="350" y="-106" font-family="Helvetica,sans-Serif" font-size="10.00">/__w/vulpes/vulpes</text>
<text text-anchor="start" x="350" y="-95" font-family="Helvetica,sans-Serif" font-size="10.00">/vulpes/assemble/integrator</text>
<text text-anchor="middle" x="418.5" y="-84" font-family="Helvetica,sans-Serif" font-size="10.00">_qfree.hpp</text>
</a>
</g>
</g>
<!-- Node5&#45;&gt;Node7 -->
<g id="edge7_Node000005_Node000007" class="edge">
<title>Node5&#45;&gt;Node7</title>
<g id="a_edge7_Node000005_Node000007"><a xlink:title=" ">
<path fill="none" stroke="#63b8ff" d="M301.4,-149.86C324.75,-139.62 351.75,-127.77 373.94,-118.04"/>
<polygon fill="#63b8ff" stroke="#63b8ff" points="299.73,-146.77 291.98,-153.99 302.55,-153.18 299.73,-146.77"/>
</a>
</g>
</g>
<!-- Node9 -->
<g id="Node000009" class="node">
<title>Node9</title>
<g id="a_Node000009"><a xlink:href="integrator__simplexify_8hpp.html" target="_top" xlink:title=" ">
<polygon fill="white" stroke="#666666" points="324,-118 171,-118 171,-77 324,-77 324,-118"/>
<text text-anchor="start" x="179" y="-106" font-family="Helvetica,sans-Serif" font-size="10.00">/__w/vulpes/vulpes</text>
<text text-anchor="start" x="179" y="-95" font-family="Helvetica,sans-Serif" font-size="10.00">/vulpes/assemble/integrator</text>
<text text-anchor="middle" x="247.5" y="-84" font-family="Helvetica,sans-Serif" font-size="10.00">_simplexify.hpp</text>
</a>
</g>
</g>
<!-- Node5&#45;&gt;Node9 -->
<g id="edge9_Node000005_Node000009" class="edge">
<title>Node5&#45;&gt;Node9</title>
<g id="a_edge9_Node000005_Node000009"><a xlink:title=" ">
<path fill="none" stroke="#63b8ff" d="M247.5,-143.69C247.5,-135.08 247.5,-125.9 247.5,-118.07"/>
<polygon fill="#63b8ff" stroke="#63b8ff" points="244,-143.79 247.5,-153.79 251,-143.79 244,-143.79"/>
</a>
</g>
</g>
<!-- Node8 -->
<g id="Node000008" class="node">
<title>Node8</title>
<g id="a_Node000008"><a xlink:href="integrator__vem_8hpp.html" target="_top" xlink:title=" ">
<polygon fill="white" stroke="#666666" points="409,-41 256,-41 256,0 409,0 409,-41"/>
<text text-anchor="start" x="264" y="-29" font-family="Helvetica,sans-Serif" font-size="10.00">/__w/vulpes/vulpes</text>
<text text-anchor="start" x="264" y="-18" font-family="Helvetica,sans-Serif" font-size="10.00">/vulpes/assemble/integrator</text>
<text text-anchor="middle" x="332.5" y="-7" font-family="Helvetica,sans-Serif" font-size="10.00">_vem.hpp</text>
</a>
</g>
</g>
<!-- Node7&#45;&gt;Node8 -->
<g id="edge8_Node000007_Node000008" class="edge">
<title>Node7&#45;&gt;Node8</title>
<g id="a_edge8_Node000007_Node000008"><a xlink:title=" ">
<path fill="none" stroke="#63b8ff" d="M388.19,-70.07C377.25,-60.52 365.1,-49.93 354.94,-41.07"/>
<polygon fill="#63b8ff" stroke="#63b8ff" points="386.07,-72.86 395.9,-76.79 390.67,-67.58 386.07,-72.86"/>
</a>
</g>
</g>
<!-- Node9&#45;&gt;Node8 -->
<g id="edge10_Node000009_Node000008" class="edge">
<title>Node9&#45;&gt;Node8</title>
<g id="a_edge10_Node000009_Node000008"><a xlink:title=" ">
<path fill="none" stroke="#63b8ff" d="M277.45,-70.07C288.27,-60.52 300.28,-49.93 310.32,-41.07"/>
<polygon fill="#63b8ff" stroke="#63b8ff" points="275.02,-67.55 269.83,-76.79 279.65,-72.8 275.02,-67.55"/>
</a>
</g>
</g>
<!-- Node10&#45;&gt;Node5 -->
<g id="edge12_Node000010_Node000005" class="edge">
<title>Node10&#45;&gt;Node5</title>
<g id="a_edge12_Node000010_Node000005"><a xlink:title=" ">
<path fill="none" stroke="#63b8ff" d="M214.36,-222.39C220.79,-213.3 227.78,-203.41 233.67,-195.07"/>
<polygon fill="#63b8ff" stroke="#63b8ff" points="211.34,-220.61 208.43,-230.79 217.05,-224.65 211.34,-220.61"/>
</a>
</g>
</g>
<!-- Node12&#45;&gt;Node2 -->
<g id="edge15_Node000012_Node000002" class="edge">
<title>Node12&#45;&gt;Node2</title>
<g id="a_edge15_Node000012_Node000002"><a xlink:title=" ">
<path fill="none" stroke="#63b8ff" d="M704.92,-305.13C670.47,-295.51 626.54,-283.17 587.5,-272 584.82,-271.23 582.08,-270.45 579.32,-269.65"/>
<polygon fill="#63b8ff" stroke="#63b8ff" points="704.25,-308.58 714.83,-307.9 706.14,-301.84 704.25,-308.58"/>
</a>
</g>
</g>
<!-- Node13 -->
<g id="Node000013" class="node">
<title>Node13</title>
<g id="a_Node000013"><a xlink:href="linear__solver_8cpp.html" target="_top" xlink:title=" ">
<polygon fill="white" stroke="#666666" points="895,-266.5 746,-266.5 746,-236.5 895,-236.5 895,-266.5"/>
<text text-anchor="start" x="754" y="-254.5" font-family="Helvetica,sans-Serif" font-size="10.00">/__w/vulpes/vulpes</text>
<text text-anchor="middle" x="820.5" y="-243.5" font-family="Helvetica,sans-Serif" font-size="10.00">/vulpes/la/linear_solver.cpp</text>
</a>
</g>
</g>
<!-- Node12&#45;&gt;Node13 -->
<g id="edge16_Node000012_Node000013" class="edge">
<title>Node12&#45;&gt;Node13</title>
<g id="a_edge16_Node000012_Node000013"><a xlink:title=" ">
<path fill="none" stroke="#63b8ff" d="M782.89,-300.03C791.56,-289.07 801.79,-276.15 809.39,-266.54"/>
<polygon fill="#63b8ff" stroke="#63b8ff" points="780.09,-297.92 776.63,-307.94 785.58,-302.27 780.09,-297.92"/>
</a>
</g>
</g>
<!-- Node12&#45;&gt;Node14 -->
<g id="edge17_Node000012_Node000014" class="edge">
<title>Node12&#45;&gt;Node14</title>
<g id="a_edge17_Node000012_Node000014"><a xlink:title=" ">
<path fill="none" stroke="#63b8ff" d="M736.32,-302.31C722.29,-292.84 705.52,-281.53 691.51,-272.07"/>
<polygon fill="#63b8ff" stroke="#63b8ff" points="734.41,-305.24 744.66,-307.94 738.32,-299.44 734.41,-305.24"/>
</a>
</g>
</g>
<!-- Node12&#45;&gt;Node16 -->
<g id="edge19_Node000012_Node000016" class="edge">
<title>Node12&#45;&gt;Node16</title>
<g id="a_edge19_Node000012_Node000016"><a xlink:title=" ">
<path fill="none" stroke="#63b8ff" d="M850.97,-307.54C928.6,-294.35 1033.9,-276.28 1053.5,-272 1056.23,-271.41 1059,-270.78 1061.8,-270.12"/>
<polygon fill="#63b8ff" stroke="#63b8ff" points="849.97,-304.16 840.69,-309.29 851.14,-311.07 849.97,-304.16"/>
</a>
</g>
</g>
<!-- Node12&#45;&gt;Node17 -->
<g id="edge20_Node000012_Node000017" class="edge">
<title>Node12&#45;&gt;Node17</title>
<g id="a_edge20_Node000012_Node000017"><a xlink:title=" ">
<path fill="none" stroke="#63b8ff" d="M850.58,-307.92C1007.55,-287.55 1050.52,-299.6 1202.5,-272 1205.25,-271.5 1208.04,-270.95 1210.85,-270.37"/>
<polygon fill="#63b8ff" stroke="#63b8ff" points="850.03,-304.47 840.57,-309.25 850.94,-311.41 850.03,-304.47"/>
</a>
</g>
</g>
<!-- Node12&#45;&gt;Node19 -->
<g id="edge22_Node000012_Node000019" class="edge">
<title>Node12&#45;&gt;Node19</title>
<g id="a_edge22_Node000012_Node000019"><a xlink:title=" ">
<path fill="none" stroke="#63b8ff" d="M818.18,-304.81C848.59,-294.89 886.94,-282.37 918.51,-272.07"/>
<polygon fill="#63b8ff" stroke="#63b8ff" points="817.02,-301.51 808.6,-307.94 819.2,-308.16 817.02,-301.51"/>
</a>
</g>
</g>
<!-- Node15 -->
<g id="Node000015" class="node">
<title>Node15</title>
<g id="a_Node000015"><a xlink:href="cranknicolson_8cpp.html" target="_top" xlink:title=" ">
<polygon fill="white" stroke="#666666" points="728,-195 597,-195 597,-154 728,-154 728,-195"/>
<text text-anchor="start" x="605" y="-183" font-family="Helvetica,sans-Serif" font-size="10.00">/__w/vulpes/vulpes</text>
<text text-anchor="start" x="605" y="-172" font-family="Helvetica,sans-Serif" font-size="10.00">/vulpes/timeintegration</text>
<text text-anchor="middle" x="662.5" y="-161" font-family="Helvetica,sans-Serif" font-size="10.00">/cranknicolson.cpp</text>
</a>
</g>
</g>
<!-- Node14&#45;&gt;Node15 -->
<g id="edge18_Node000014_Node000015" class="edge">
<title>Node14&#45;&gt;Node15</title>
<g id="a_edge18_Node000014_Node000015"><a xlink:title=" ">
<path fill="none" stroke="#63b8ff" d="M662.5,-220.69C662.5,-212.08 662.5,-202.9 662.5,-195.07"/>
<polygon fill="#63b8ff" stroke="#63b8ff" points="659,-220.79 662.5,-230.79 666,-220.79 659,-220.79"/>
</a>
</g>
</g>
<!-- Node18 -->
<g id="Node000018" class="node">
<title>Node18</title>
<g id="a_Node000018"><a xlink:href="solverfkpp_8cpp.html" target="_top" xlink:title=" ">
<polygon fill="white" stroke="#666666" points="1342,-195 1211,-195 1211,-154 1342,-154 1342,-195"/>
<text text-anchor="start" x="1219" y="-183" font-family="Helvetica,sans-Serif" font-size="10.00">/__w/vulpes/vulpes</text>
<text text-anchor="start" x="1219" y="-172" font-family="Helvetica,sans-Serif" font-size="10.00">/vulpes/timeintegration</text>
<text text-anchor="middle" x="1276.5" y="-161" font-family="Helvetica,sans-Serif" font-size="10.00">/solverfkpp.cpp</text>
</a>
</g>
</g>
<!-- Node17&#45;&gt;Node18 -->
<g id="edge21_Node000017_Node000018" class="edge">
<title>Node17&#45;&gt;Node18</title>
<g id="a_edge21_Node000017_Node000018"><a xlink:title=" ">
<path fill="none" stroke="#63b8ff" d="M1276.5,-220.69C1276.5,-212.08 1276.5,-202.9 1276.5,-195.07"/>
<polygon fill="#63b8ff" stroke="#63b8ff" points="1273,-220.79 1276.5,-230.79 1280,-220.79 1273,-220.79"/>
</a>
</g>
</g>
<!-- Node20 -->
<g id="Node000020" class="node">
<title>Node20</title>
<g id="a_Node000020"><a xlink:href="solvermfk_8cpp.html" target="_top" xlink:title=" ">
<polygon fill="white" stroke="#666666" points="1044,-195 913,-195 913,-154 1044,-154 1044,-195"/>
<text text-anchor="start" x="921" y="-183" font-family="Helvetica,sans-Serif" font-size="10.00">/__w/vulpes/vulpes</text>
<text text-anchor="start" x="921" y="-172" font-family="Helvetica,sans-Serif" font-size="10.00">/vulpes/timeintegration</text>
<text text-anchor="middle" x="978.5" y="-161" font-family="Helvetica,sans-Serif" font-size="10.00">/solvermfk.cpp</text>
</a>
</g>
</g>
<!-- Node19&#45;&gt;Node20 -->
<g id="edge23_Node000019_Node000020" class="edge">
<title>Node19&#45;&gt;Node20</title>
<g id="a_edge23_Node000019_Node000020"><a xlink:title=" ">
<path fill="none" stroke="#63b8ff" d="M978.5,-220.69C978.5,-212.08 978.5,-202.9 978.5,-195.07"/>
<polygon fill="#63b8ff" stroke="#63b8ff" points="975,-220.79 978.5,-230.79 982,-220.79 975,-220.79"/>
</a>
</g>
</g>
<!-- Node21&#45;&gt;Node2 -->
<g id="edge25_Node000021_Node000002" class="edge">
<title>Node21&#45;&gt;Node2</title>
<g id="a_edge25_Node000021_Node000002"><a xlink:title=" ">
<path fill="none" stroke="#63b8ff" d="M886.17,-386.42C822.27,-379.28 735.1,-365.22 662.5,-338 618.98,-321.68 573.86,-291.93 546.47,-272.18"/>
<polygon fill="#63b8ff" stroke="#63b8ff" points="885.9,-389.91 896.22,-387.51 886.65,-382.96 885.9,-389.91"/>
</a>
</g>
</g>
<!-- Node21&#45;&gt;Node12 -->
<g id="edge26_Node000021_Node000012" class="edge">
<title>Node21&#45;&gt;Node12</title>
<g id="a_edge26_Node000021_Node000012"><a xlink:title=" ">
<path fill="none" stroke="#63b8ff" d="M923.28,-376.22C887.71,-364.45 841.22,-349.06 807.93,-338.04"/>
<polygon fill="#63b8ff" stroke="#63b8ff" points="922.41,-379.62 933,-379.44 924.61,-372.97 922.41,-379.62"/>
</a>
</g>
</g>
<!-- Node21&#45;&gt;Node14 -->
<g id="edge28_Node000021_Node000014" class="edge">
<title>Node21&#45;&gt;Node14</title>
<g id="a_edge28_Node000021_Node000014"><a xlink:title=" ">
<path fill="none" stroke="#63b8ff" d="M886.48,-387.35C810.89,-380.27 710.25,-365.84 681.5,-338 663.91,-320.97 660.93,-291.54 661.14,-272.05"/>
<polygon fill="#63b8ff" stroke="#63b8ff" points="886.22,-390.84 896.5,-388.26 886.86,-383.87 886.22,-390.84"/>
</a>
</g>
</g>
<!-- Node21&#45;&gt;Node16 -->
<g id="edge29_Node000021_Node000016" class="edge">
<title>Node21&#45;&gt;Node16</title>
<g id="a_edge29_Node000021_Node000016"><a xlink:title=" ">
<path fill="none" stroke="#63b8ff" d="M1000.6,-372.77C1012.82,-362.5 1027.61,-349.81 1040.5,-338 1064.39,-316.11 1090.8,-289.85 1108.18,-272.25"/>
<polygon fill="#63b8ff" stroke="#63b8ff" points="998.04,-370.35 992.62,-379.44 1002.53,-375.72 998.04,-370.35"/>
</a>
</g>
</g>
<!-- Node21&#45;&gt;Node17 -->
<g id="edge30_Node000021_Node000017" class="edge">
<title>Node21&#45;&gt;Node17</title>
<g id="a_edge30_Node000021_Node000017"><a xlink:title=" ">
<path fill="none" stroke="#63b8ff" d="M1014.83,-375.07C1071.72,-348.43 1176.49,-299.35 1234.71,-272.08"/>
<polygon fill="#63b8ff" stroke="#63b8ff" points="1013.03,-372.05 1005.46,-379.46 1016,-378.39 1013.03,-372.05"/>
</a>
</g>
</g>
<!-- Node21&#45;&gt;Node19 -->
<g id="edge31_Node000021_Node000019" class="edge">
<title>Node21&#45;&gt;Node19</title>
<g id="a_edge31_Node000021_Node000019"><a xlink:title=" ">
<path fill="none" stroke="#63b8ff" d="M1001.25,-372.44C1010.78,-363.02 1020.47,-351.09 1025.5,-338 1030.28,-325.55 1030.09,-320.52 1025.5,-308 1020.5,-294.37 1010.51,-281.78 1001.02,-272.06"/>
<polygon fill="#63b8ff" stroke="#63b8ff" points="998.68,-370.05 993.74,-379.42 1003.44,-375.18 998.68,-370.05"/>
</a>
</g>
</g>
<!-- Node22 -->
<g id="Node000022" class="node">
<title>Node22</title>
<g id="a_Node000022"><a xlink:href="sparse__matrix_8cpp.html" target="_top" xlink:title=" ">
<polygon fill="white" stroke="#666666" points="1016,-338 859,-338 859,-308 1016,-308 1016,-338"/>
<text text-anchor="start" x="867" y="-326" font-family="Helvetica,sans-Serif" font-size="10.00">/__w/vulpes/vulpes</text>
<text text-anchor="middle" x="937.5" y="-315" font-family="Helvetica,sans-Serif" font-size="10.00">/vulpes/la/sparse_matrix.cpp</text>
</a>
</g>
</g>
<!-- Node21&#45;&gt;Node22 -->
<g id="edge27_Node000021_Node000022" class="edge">
<title>Node21&#45;&gt;Node22</title>
<g id="a_edge27_Node000021_Node000022"><a xlink:title=" ">
<path fill="none" stroke="#63b8ff" d="M962.96,-370.56C957.08,-359.82 950.28,-347.36 945.18,-338.04"/>
<polygon fill="#63b8ff" stroke="#63b8ff" points="959.94,-372.34 967.81,-379.44 966.08,-368.98 959.94,-372.34"/>
</a>
</g>
</g>
</g>
</svg>
