<?xml version="1.0" encoding="UTF-8" standalone="no"?>
<!DOCTYPE svg PUBLIC "-//W3C//DTD SVG 1.1//EN"
 "http://www.w3.org/Graphics/SVG/1.1/DTD/svg11.dtd">
<!-- Generated by graphviz version 2.42.4 (0)
 -->
<!-- Title: /__w/vulpes/vulpes/vulpes/la/vector.hpp Pages: 1 -->
<!--zoomable 500 -->

<svg id="main" version="1.1" xmlns="http://www.w3.org/2000/svg" xmlns:xlink="http://www.w3.org/1999/xlink" xml:space="preserve" onload="init(evt)">
<style type="text/css"><![CDATA[
.node, .edge {opacity: 0.7;}
.node.selected, .edge.selected {opacity: 1;}
.edge:hover path { stroke: red; }
.edge:hover polygon { stroke: red; fill: red; }
]]></style>

<defs>
  <circle id="rim" cx="0" cy="0" r="7"/>
  <circle id="rim2" cx="0" cy="0" r="3.5"/>
  <g id="zoomPlus">
    <use xlink:href="#rim" fill="#404040"><set attributeName="fill" to="#808080" begin="zoomplus.mouseover" end="zoomplus.mouseout"/></use>
    <path d="M-4,0h8M0,-4v8" fill="none" stroke="white" stroke-width="1.5" pointer-events="none"/>
  </g>
  <g id="zoomMin">
    <use xlink:href="#rim" fill="#404040"><set attributeName="fill" to="#808080" begin="zoomminus.mouseover" end="zoomminus.mouseout"/></use>
    <path d="M-4,0h8" fill="none" stroke="white" stroke-width="1.5" pointer-events="none"/>
  </g>
  <g id="arrowUp" transform="translate(30 24)">
    <use xlink:href="#rim"/>
    <path pointer-events="none" fill="none" stroke="white" stroke-width="1.5" d="M0,-3.0v7 M-2.5,-0.5L0,-3.0L2.5,-0.5"/>
  </g>
  <g id="arrowRight" transform="rotate(90) translate(36 -43)">
    <use xlink:href="#rim"/>
    <path pointer-events="none" fill="none" stroke="white" stroke-width="1.5" d="M0,-3.0v7 M-2.5,-0.5L0,-3.0L2.5,-0.5"/>
  </g>
  <g id="arrowDown" transform="rotate(180) translate(-30 -48)">
    <use xlink:href="#rim"/>
    <path pointer-events="none" fill="none" stroke="white" stroke-width="1.5" d="M0,-3.0v7 M-2.5,-0.5L0,-3.0L2.5,-0.5"/>
  </g>
  <g id="arrowLeft" transform="rotate(270) translate(-36 17)">
    <use xlink:href="#rim"/>
    <path pointer-events="none" fill="none" stroke="white" stroke-width="1.5" d="M0,-3.0v7 M-2.5,-0.5L0,-3.0L2.5,-0.5"/>
  </g>
  <g id="resetDef">
    <use xlink:href="#rim2" fill="#404040"><set attributeName="fill" to="#808080" begin="reset.mouseover" end="reset.mouseout"/></use>
  </g>
</defs>
<script type="application/ecmascript">
var viewWidth = 1740;
var viewHeight = 500;
var sectionId = 'dynsection-1';
</script>
<script type="application/ecmascript" xlink:href="svg.min.js"/>
<svg id="graph" class="graph">
<g id="viewport">
<title>/__w/vulpes/vulpes/vulpes/la/vector.hpp</title>
<!-- Node1 -->
<g id="Node000001" class="node">
<title>Node1</title>
<g id="a_Node000001"><a xlink:title=" ">
<polygon fill="#999999" stroke="#666666" points="1249.5,-492 1131.5,-492 1131.5,-462 1249.5,-462 1249.5,-492"/>
<text text-anchor="start" x="1139.5" y="-480" font-family="Helvetica,sans-Serif" font-size="10.00">/__w/vulpes/vulpes</text>
<text text-anchor="middle" x="1190.5" y="-469" font-family="Helvetica,sans-Serif" font-size="10.00">/vulpes/la/vector.hpp</text>
</a>
</g>
</g>
<!-- Node2 -->
<g id="Node000002" class="node">
<title>Node2</title>
<g id="a_Node000002"><a xlink:href="dg__utils_8hpp.html" target="_top" xlink:title=" ">
<polygon fill="white" stroke="#666666" points="639,-41 522,-41 522,0 639,0 639,-41"/>
<text text-anchor="start" x="530" y="-29" font-family="Helvetica,sans-Serif" font-size="10.00">/__w/vulpes/vulpes</text>
<text text-anchor="start" x="530" y="-18" font-family="Helvetica,sans-Serif" font-size="10.00">/vulpes/assemble/dg</text>
<text text-anchor="middle" x="580.5" y="-7" font-family="Helvetica,sans-Serif" font-size="10.00">_utils.hpp</text>
</a>
</g>
</g>
<!-- Node1&#45;&gt;Node2 -->
<g id="edge1_Node000001_Node000002" class="edge">
<title>Node1&#45;&gt;Node2</title>
<g id="a_edge1_Node000001_Node000002"><a xlink:title=" ">
<path fill="none" stroke="#63b8ff" d="M1259.68,-465.6C1333.36,-450.14 1439.5,-413.33 1439.5,-329.5 1439.5,-329.5 1439.5,-329.5 1439.5,-173.5 1439.5,-92.05 832.91,-40.15 639.2,-25.66"/>
<polygon fill="#63b8ff" stroke="#63b8ff" points="1258.62,-462.24 1249.51,-467.64 1260,-469.11 1258.62,-462.24"/>
</a>
</g>
</g>
<!-- Node3 -->
<g id="Node000003" class="node">
<title>Node3</title>
<g id="a_Node000003"><a xlink:href="fe__expr__func_8hpp.html" target="_top" xlink:title=" ">
<polygon fill="white" stroke="#666666" points="474,-426 333,-426 333,-385 474,-385 474,-426"/>
<text text-anchor="start" x="341" y="-414" font-family="Helvetica,sans-Serif" font-size="10.00">/__w/vulpes/vulpes</text>
<text text-anchor="start" x="341" y="-403" font-family="Helvetica,sans-Serif" font-size="10.00">/vulpes/fe/fe_expressions</text>
<text text-anchor="middle" x="403.5" y="-392" font-family="Helvetica,sans-Serif" font-size="10.00">/fe_expr_func.hpp</text>
</a>
</g>
</g>
<!-- Node1&#45;&gt;Node3 -->
<g id="edge2_Node000001_Node000003" class="edge">
<title>Node1&#45;&gt;Node3</title>
<g id="a_edge2_Node000001_Node000003"><a xlink:title=" ">
<path fill="none" stroke="#63b8ff" d="M1121.36,-471.95C1003.3,-464.75 755.34,-448.33 546.5,-426 522.96,-423.48 497.31,-420.17 474.32,-416.98"/>
<polygon fill="#63b8ff" stroke="#63b8ff" points="1121.16,-475.45 1131.35,-472.56 1121.58,-468.46 1121.16,-475.45"/>
</a>
</g>
</g>
<!-- Node12 -->
<g id="Node000012" class="node">
<title>Node12</title>
<g id="a_Node000012"><a xlink:href="linear__solver_8hpp.html" target="_top" xlink:title=" ">
<polygon fill="white" stroke="#666666" points="1131.5,-343.5 981.5,-343.5 981.5,-313.5 1131.5,-313.5 1131.5,-343.5"/>
<text text-anchor="start" x="989.5" y="-331.5" font-family="Helvetica,sans-Serif" font-size="10.00">/__w/vulpes/vulpes</text>
<text text-anchor="middle" x="1056.5" y="-320.5" font-family="Helvetica,sans-Serif" font-size="10.00">/vulpes/la/linear_solver.hpp</text>
</a>
</g>
</g>
<!-- Node1&#45;&gt;Node12 -->
<g id="edge15_Node000001_Node000012" class="edge">
<title>Node1&#45;&gt;Node12</title>
<g id="a_edge15_Node000001_Node000012"><a xlink:title=" ">
<path fill="none" stroke="#63b8ff" d="M1170.77,-454.42C1142.98,-424.04 1093.08,-369.49 1069.51,-343.72"/>
<polygon fill="#63b8ff" stroke="#63b8ff" points="1168.32,-456.94 1177.65,-461.95 1173.48,-452.21 1168.32,-456.94"/>
</a>
</g>
</g>
<!-- Node14 -->
<g id="Node000014" class="node">
<title>Node14</title>
<g id="a_Node000014"><a xlink:href="cranknicolson_8hpp.html" target="_top" xlink:title=" ">
<polygon fill="white" stroke="#666666" points="1411,-272 1280,-272 1280,-231 1411,-231 1411,-272"/>
<text text-anchor="start" x="1288" y="-260" font-family="Helvetica,sans-Serif" font-size="10.00">/__w/vulpes/vulpes</text>
<text text-anchor="start" x="1288" y="-249" font-family="Helvetica,sans-Serif" font-size="10.00">/vulpes/timeintegration</text>
<text text-anchor="middle" x="1345.5" y="-238" font-family="Helvetica,sans-Serif" font-size="10.00">/cranknicolson.hpp</text>
</a>
</g>
</g>
<!-- Node1&#45;&gt;Node14 -->
<g id="edge40_Node000001_Node000014" class="edge">
<title>Node1&#45;&gt;Node14</title>
<g id="a_edge40_Node000001_Node000014"><a xlink:title=" ">
<path fill="none" stroke="#63b8ff" d="M1243.35,-458.27C1289.97,-439.39 1354.7,-404.49 1382.5,-349 1395.36,-323.33 1377.69,-292.05 1362.63,-272.2"/>
<polygon fill="#63b8ff" stroke="#63b8ff" points="1242.02,-455.03 1233.99,-461.94 1244.58,-461.54 1242.02,-455.03"/>
</a>
</g>
</g>
<!-- Node16 -->
<g id="Node000016" class="node">
<title>Node16</title>
<g id="a_Node000016"><a xlink:href="imex_8hpp.html" target="_top" xlink:title=" ">
<polygon fill="white" stroke="#666666" points="908,-272 777,-272 777,-231 908,-231 908,-272"/>
<text text-anchor="start" x="785" y="-260" font-family="Helvetica,sans-Serif" font-size="10.00">/__w/vulpes/vulpes</text>
<text text-anchor="start" x="785" y="-249" font-family="Helvetica,sans-Serif" font-size="10.00">/vulpes/timeintegration</text>
<text text-anchor="middle" x="842.5" y="-238" font-family="Helvetica,sans-Serif" font-size="10.00">/dae/imex.hpp</text>
</a>
</g>
</g>
<!-- Node1&#45;&gt;Node16 -->
<g id="edge41_Node000001_Node000016" class="edge">
<title>Node1&#45;&gt;Node16</title>
<g id="a_edge41_Node000001_Node000016"><a xlink:title=" ">
<path fill="none" stroke="#63b8ff" d="M1121.16,-471.61C1035.74,-465.21 896.42,-451.24 851.5,-426 799.49,-396.78 764.79,-363.17 787.5,-308 793.28,-293.95 804.53,-281.57 815.36,-272.09"/>
<polygon fill="#63b8ff" stroke="#63b8ff" points="1121.07,-475.12 1131.3,-472.36 1121.58,-468.13 1121.07,-475.12"/>
</a>
</g>
</g>
<!-- Node17 -->
<g id="Node000017" class="node">
<title>Node17</title>
<g id="a_Node000017"><a xlink:href="solverfkpp_8hpp.html" target="_top" xlink:title=" ">
<polygon fill="white" stroke="#666666" points="759,-272 628,-272 628,-231 759,-231 759,-272"/>
<text text-anchor="start" x="636" y="-260" font-family="Helvetica,sans-Serif" font-size="10.00">/__w/vulpes/vulpes</text>
<text text-anchor="start" x="636" y="-249" font-family="Helvetica,sans-Serif" font-size="10.00">/vulpes/timeintegration</text>
<text text-anchor="middle" x="693.5" y="-238" font-family="Helvetica,sans-Serif" font-size="10.00">/solverfkpp.hpp</text>
</a>
</g>
</g>
<!-- Node1&#45;&gt;Node17 -->
<g id="edge42_Node000001_Node000017" class="edge">
<title>Node1&#45;&gt;Node17</title>
<g id="a_edge42_Node000001_Node000017"><a xlink:title=" ">
<path fill="none" stroke="#63b8ff" d="M1121.07,-474.47C1022.34,-471.09 847.55,-460.3 795.5,-426 739.19,-388.9 709.81,-309.12 698.76,-272.11"/>
<polygon fill="#63b8ff" stroke="#63b8ff" points="1121.15,-477.97 1131.26,-474.8 1121.38,-470.98 1121.15,-477.97"/>
</a>
</g>
</g>
<!-- Node19 -->
<g id="Node000019" class="node">
<title>Node19</title>
<g id="a_Node000019"><a xlink:href="solvermfk_8hpp.html" target="_top" xlink:title=" ">
<polygon fill="white" stroke="#666666" points="1262,-272 1131,-272 1131,-231 1262,-231 1262,-272"/>
<text text-anchor="start" x="1139" y="-260" font-family="Helvetica,sans-Serif" font-size="10.00">/__w/vulpes/vulpes</text>
<text text-anchor="start" x="1139" y="-249" font-family="Helvetica,sans-Serif" font-size="10.00">/vulpes/timeintegration</text>
<text text-anchor="middle" x="1196.5" y="-238" font-family="Helvetica,sans-Serif" font-size="10.00">/solvermfk.hpp</text>
</a>
</g>
</g>
<!-- Node1&#45;&gt;Node19 -->
<g id="edge43_Node000001_Node000019" class="edge">
<title>Node1&#45;&gt;Node19</title>
<g id="a_edge43_Node000001_Node000019"><a xlink:title=" ">
<path fill="none" stroke="#63b8ff" d="M1191.16,-451.44C1192.36,-406.79 1194.87,-313.15 1195.97,-272.28"/>
<polygon fill="#63b8ff" stroke="#63b8ff" points="1187.65,-451.59 1190.88,-461.68 1194.65,-451.78 1187.65,-451.59"/>
</a>
</g>
</g>
<!-- Node21 -->
<g id="Node000021" class="node">
<title>Node21</title>
<g id="a_Node000021"><a xlink:href="sparse__matrix_8hpp.html" target="_top" xlink:title=" ">
<polygon fill="white" stroke="#666666" points="1018.5,-420.5 860.5,-420.5 860.5,-390.5 1018.5,-390.5 1018.5,-420.5"/>
<text text-anchor="start" x="868.5" y="-408.5" font-family="Helvetica,sans-Serif" font-size="10.00">/__w/vulpes/vulpes</text>
<text text-anchor="middle" x="939.5" y="-397.5" font-family="Helvetica,sans-Serif" font-size="10.00">/vulpes/la/sparse_matrix.hpp</text>
</a>
</g>
</g>
<!-- Node1&#45;&gt;Node21 -->
<g id="edge25_Node000001_Node000021" class="edge">
<title>Node1&#45;&gt;Node21</title>
<g id="a_edge25_Node000001_Node000021"><a xlink:title=" ">
<path fill="none" stroke="#63b8ff" d="M1129.98,-459.24C1087.24,-447.41 1030.6,-431.72 990.22,-420.54"/>
<polygon fill="#63b8ff" stroke="#63b8ff" points="1129.14,-462.64 1139.71,-461.94 1131,-455.89 1129.14,-462.64"/>
</a>
</g>
</g>
<!-- Node23 -->
<g id="Node000023" class="node">
<title>Node23</title>
<g id="a_Node000023"><a xlink:href="vector__block__utils_8hpp.html" target="_top" xlink:title=" ">
<polygon fill="white" stroke="#666666" points="597,-349 468,-349 468,-308 597,-308 597,-349"/>
<text text-anchor="start" x="476" y="-337" font-family="Helvetica,sans-Serif" font-size="10.00">/__w/vulpes/vulpes</text>
<text text-anchor="start" x="476" y="-326" font-family="Helvetica,sans-Serif" font-size="10.00">/vulpes/la/vector_block</text>
<text text-anchor="middle" x="532.5" y="-315" font-family="Helvetica,sans-Serif" font-size="10.00">_utils.hpp</text>
</a>
</g>
</g>
<!-- Node1&#45;&gt;Node23 -->
<g id="edge38_Node000001_Node000023" class="edge">
<title>Node1&#45;&gt;Node23</title>
<g id="a_edge38_Node000001_Node000023"><a xlink:title=" ">
<path fill="none" stroke="#63b8ff" d="M1121.2,-476.66C987.23,-476.86 698.25,-471.77 611.5,-426 578.95,-408.82 554.79,-371.91 542.23,-349.04"/>
<polygon fill="#63b8ff" stroke="#63b8ff" points="1121.36,-480.16 1131.35,-476.63 1121.34,-473.16 1121.36,-480.16"/>
</a>
</g>
</g>
<!-- Node24 -->
<g id="Node000024" class="node">
<title>Node24</title>
<g id="a_Node000024"><a xlink:href="io_8hpp.html" target="_top" xlink:title=" ">
<polygon fill="white" stroke="#666666" points="1373,-343.5 1264,-343.5 1264,-313.5 1373,-313.5 1373,-343.5"/>
<text text-anchor="start" x="1272" y="-331.5" font-family="Helvetica,sans-Serif" font-size="10.00">/__w/vulpes/vulpes</text>
<text text-anchor="middle" x="1318.5" y="-320.5" font-family="Helvetica,sans-Serif" font-size="10.00">/vulpes/utils/io.hpp</text>
</a>
</g>
</g>
<!-- Node1&#45;&gt;Node24 -->
<g id="edge44_Node000001_Node000024" class="edge">
<title>Node1&#45;&gt;Node24</title>
<g id="a_edge44_Node000001_Node000024"><a xlink:title=" ">
<path fill="none" stroke="#63b8ff" d="M1217.45,-455.53C1227.97,-446.94 1239.81,-436.52 1249.5,-426 1274.2,-399.18 1297.73,-363.32 1309.9,-343.74"/>
<polygon fill="#63b8ff" stroke="#63b8ff" points="1214.99,-453.01 1209.35,-461.98 1219.35,-458.48 1214.99,-453.01"/>
</a>
</g>
</g>
<!-- Node25 -->
<g id="Node000025" class="node">
<title>Node25</title>
<g id="a_Node000025"><a xlink:href="vector_8cpp.html" target="_top" xlink:title=" ">
<polygon fill="white" stroke="#666666" points="1585,-420.5 1468,-420.5 1468,-390.5 1585,-390.5 1585,-420.5"/>
<text text-anchor="start" x="1476" y="-408.5" font-family="Helvetica,sans-Serif" font-size="10.00">/__w/vulpes/vulpes</text>
<text text-anchor="middle" x="1526.5" y="-397.5" font-family="Helvetica,sans-Serif" font-size="10.00">/vulpes/la/vector.cpp</text>
</a>
</g>
</g>
<!-- Node1&#45;&gt;Node25 -->
<g id="edge37_Node000001_Node000025" class="edge">
<title>Node1&#45;&gt;Node25</title>
<g id="a_edge37_Node000001_Node000025"><a xlink:title=" ">
<path fill="none" stroke="#63b8ff" d="M1259.52,-464.3C1312.73,-454.94 1388.05,-440.94 1453.5,-426 1460.79,-424.34 1468.45,-422.45 1475.96,-420.51"/>
<polygon fill="#63b8ff" stroke="#63b8ff" points="1258.76,-460.88 1249.51,-466.05 1259.97,-467.78 1258.76,-460.88"/>
</a>
</g>
</g>
<!-- Node26 -->
<g id="Node000026" class="node">
<title>Node26</title>
<g id="a_Node000026"><a xlink:href="project__solution_8hpp.html" target="_top" xlink:title=" ">
<polygon fill="white" stroke="#666666" points="1731.5,-426 1603.5,-426 1603.5,-385 1731.5,-385 1731.5,-426"/>
<text text-anchor="start" x="1611.5" y="-414" font-family="Helvetica,sans-Serif" font-size="10.00">/__w/vulpes/vulpes</text>
<text text-anchor="start" x="1611.5" y="-403" font-family="Helvetica,sans-Serif" font-size="10.00">/vulpes/postprocessing</text>
<text text-anchor="middle" x="1667.5" y="-392" font-family="Helvetica,sans-Serif" font-size="10.00">/project_solution.hpp</text>
</a>
</g>
</g>
<!-- Node1&#45;&gt;Node26 -->
<g id="edge39_Node000001_Node000026" class="edge">
<title>Node1&#45;&gt;Node26</title>
<g id="a_edge39_Node000001_Node000026"><a xlink:title=" ">
<path fill="none" stroke="#63b8ff" d="M1259.84,-470.35C1340.68,-463.09 1478.07,-448.64 1594.5,-426 1597.33,-425.45 1600.22,-424.85 1603.13,-424.21"/>
<polygon fill="#63b8ff" stroke="#63b8ff" points="1259.43,-466.87 1249.78,-471.24 1260.05,-473.84 1259.43,-466.87"/>
</a>
</g>
</g>
<!-- Node4 -->
<g id="Node000004" class="node">
<title>Node4</title>
<g id="a_Node000004"><a xlink:href="fe__expression_8hpp.html" target="_top" xlink:title=" ">
<polygon fill="white" stroke="#666666" points="450,-343.5 293,-343.5 293,-313.5 450,-313.5 450,-343.5"/>
<text text-anchor="start" x="301" y="-331.5" font-family="Helvetica,sans-Serif" font-size="10.00">/__w/vulpes/vulpes</text>
<text text-anchor="middle" x="371.5" y="-320.5" font-family="Helvetica,sans-Serif" font-size="10.00">/vulpes/fe/fe_expression.hpp</text>
</a>
</g>
</g>
<!-- Node3&#45;&gt;Node4 -->
<g id="edge3_Node000003_Node000004" class="edge">
<title>Node3&#45;&gt;Node4</title>
<g id="a_edge3_Node000003_Node000004"><a xlink:title=" ">
<path fill="none" stroke="#63b8ff" d="M391.03,-375.27C386.43,-364.49 381.42,-352.75 377.63,-343.86"/>
<polygon fill="#63b8ff" stroke="#63b8ff" points="387.95,-376.97 395.09,-384.79 394.39,-374.22 387.95,-376.97"/>
</a>
</g>
</g>
<!-- Node4&#45;&gt;Node2 -->
<g id="edge4_Node000004_Node000002" class="edge">
<title>Node4&#45;&gt;Node2</title>
<g id="a_edge4_Node000004_Node000002"><a xlink:title=" ">
<path fill="none" stroke="#63b8ff" d="M391.95,-305.92C401.07,-295.91 411.71,-283.66 420.5,-272 482.31,-189.99 544.71,-84.11 569.43,-41.03"/>
<polygon fill="#63b8ff" stroke="#63b8ff" points="389.24,-303.69 385.03,-313.41 394.39,-308.44 389.24,-303.69"/>
</a>
</g>
</g>
<!-- Node5 -->
<g id="Node000005" class="node">
<title>Node5</title>
<g id="a_Node000005"><a xlink:href="integrator__base_8hpp.html" target="_top" xlink:title=" ">
<polygon fill="white" stroke="#666666" points="395,-195 242,-195 242,-154 395,-154 395,-195"/>
<text text-anchor="start" x="250" y="-183" font-family="Helvetica,sans-Serif" font-size="10.00">/__w/vulpes/vulpes</text>
<text text-anchor="start" x="250" y="-172" font-family="Helvetica,sans-Serif" font-size="10.00">/vulpes/assemble/integrator</text>
<text text-anchor="middle" x="318.5" y="-161" font-family="Helvetica,sans-Serif" font-size="10.00">_base.hpp</text>
</a>
</g>
</g>
<!-- Node4&#45;&gt;Node5 -->
<g id="edge5_Node000004_Node000005" class="edge">
<title>Node4&#45;&gt;Node5</title>
<g id="a_edge5_Node000004_Node000005"><a xlink:title=" ">
<path fill="none" stroke="#63b8ff" d="M388.81,-305.21C402.2,-285.04 416.46,-254.93 403.5,-231 395.19,-215.66 380.6,-203.88 365.82,-195.21"/>
<polygon fill="#63b8ff" stroke="#63b8ff" points="385.9,-303.26 383.01,-313.45 391.62,-307.28 385.9,-303.26"/>
</a>
</g>
</g>
<!-- Node10 -->
<g id="Node000010" class="node">
<title>Node10</title>
<g id="a_Node000010"><a xlink:href="integrator__traits_8hpp.html" target="_top" xlink:title=" ">
<polygon fill="white" stroke="#666666" points="395,-272 242,-272 242,-231 395,-231 395,-272"/>
<text text-anchor="start" x="250" y="-260" font-family="Helvetica,sans-Serif" font-size="10.00">/__w/vulpes/vulpes</text>
<text text-anchor="start" x="250" y="-249" font-family="Helvetica,sans-Serif" font-size="10.00">/vulpes/assemble/integrator</text>
<text text-anchor="middle" x="318.5" y="-238" font-family="Helvetica,sans-Serif" font-size="10.00">_traits.hpp</text>
</a>
</g>
</g>
<!-- Node4&#45;&gt;Node10 -->
<g id="edge12_Node000004_Node000010" class="edge">
<title>Node4&#45;&gt;Node10</title>
<g id="a_edge12_Node000004_Node000010"><a xlink:title=" ">
<path fill="none" stroke="#63b8ff" d="M355.7,-305.14C348.3,-294.67 339.57,-282.31 332.42,-272.2"/>
<polygon fill="#63b8ff" stroke="#63b8ff" points="352.9,-307.25 361.53,-313.39 358.62,-303.21 352.9,-307.25"/>
</a>
</g>
</g>
<!-- Node11 -->
<g id="Node000011" class="node">
<title>Node11</title>
<g id="a_Node000011"><a xlink:href="fe__vem_8hpp.html" target="_top" xlink:title=" ">
<polygon fill="white" stroke="#666666" points="223.5,-272 107.5,-272 107.5,-231 223.5,-231 223.5,-272"/>
<text text-anchor="start" x="115.5" y="-260" font-family="Helvetica,sans-Serif" font-size="10.00">/__w/vulpes/vulpes</text>
<text text-anchor="start" x="115.5" y="-249" font-family="Helvetica,sans-Serif" font-size="10.00">/vulpes/fe/fe_spaces</text>
<text text-anchor="middle" x="165.5" y="-238" font-family="Helvetica,sans-Serif" font-size="10.00">/fe_vem.hpp</text>
</a>
</g>
</g>
<!-- Node4&#45;&gt;Node11 -->
<g id="edge14_Node000004_Node000011" class="edge">
<title>Node4&#45;&gt;Node11</title>
<g id="a_edge14_Node000004_Node000011"><a xlink:title=" ">
<path fill="none" stroke="#63b8ff" d="M322.99,-309.84C291.84,-298.5 251.35,-283.76 219.23,-272.06"/>
<polygon fill="#63b8ff" stroke="#63b8ff" points="322.16,-313.26 332.75,-313.39 324.55,-306.68 322.16,-313.26"/>
</a>
</g>
</g>
<!-- Node6 -->
<g id="Node000006" class="node">
<title>Node6</title>
<g id="a_Node000006"><a xlink:href="integrator__gauss_8hpp.html" target="_top" xlink:title=" ">
<polygon fill="white" stroke="#666666" points="495,-118 342,-118 342,-77 495,-77 495,-118"/>
<text text-anchor="start" x="350" y="-106" font-family="Helvetica,sans-Serif" font-size="10.00">/__w/vulpes/vulpes</text>
<text text-anchor="start" x="350" y="-95" font-family="Helvetica,sans-Serif" font-size="10.00">/vulpes/assemble/integrator</text>
<text text-anchor="middle" x="418.5" y="-84" font-family="Helvetica,sans-Serif" font-size="10.00">_gauss.hpp</text>
</a>
</g>
</g>
<!-- Node5&#45;&gt;Node6 -->
<g id="edge6_Node000005_Node000006" class="edge">
<title>Node5&#45;&gt;Node6</title>
<g id="a_edge6_Node000005_Node000006"><a xlink:title=" ">
<path fill="none" stroke="#63b8ff" d="M352.75,-147.82C365.68,-138.11 380.18,-127.24 392.27,-118.17"/>
<polygon fill="#63b8ff" stroke="#63b8ff" points="350.41,-145.19 344.51,-153.99 354.61,-150.79 350.41,-145.19"/>
</a>
</g>
</g>
<!-- Node7 -->
<g id="Node000007" class="node">
<title>Node7</title>
<g id="a_Node000007"><a xlink:href="integrator__qfree_8hpp.html" target="_top" xlink:title=" ">
<polygon fill="white" stroke="#666666" points="153,-118 0,-118 0,-77 153,-77 153,-118"/>
<text text-anchor="start" x="8" y="-106" font-family="Helvetica,sans-Serif" font-size="10.00">/__w/vulpes/vulpes</text>
<text text-anchor="start" x="8" y="-95" font-family="Helvetica,sans-Serif" font-size="10.00">/vulpes/assemble/integrator</text>
<text text-anchor="middle" x="76.5" y="-84" font-family="Helvetica,sans-Serif" font-size="10.00">_qfree.hpp</text>
</a>
</g>
</g>
<!-- Node5&#45;&gt;Node7 -->
<g id="edge7_Node000005_Node000007" class="edge">
<title>Node5&#45;&gt;Node7</title>
<g id="a_edge7_Node000005_Node000007"><a xlink:title=" ">
<path fill="none" stroke="#63b8ff" d="M245.72,-150.94C211.9,-140.46 172.07,-128.12 139.56,-118.04"/>
<polygon fill="#63b8ff" stroke="#63b8ff" points="244.96,-154.37 255.55,-153.99 247.03,-147.69 244.96,-154.37"/>
</a>
</g>
</g>
<!-- Node9 -->
<g id="Node000009" class="node">
<title>Node9</title>
<g id="a_Node000009"><a xlink:href="integrator__simplexify_8hpp.html" target="_top" xlink:title=" ">
<polygon fill="white" stroke="#666666" points="324,-118 171,-118 171,-77 324,-77 324,-118"/>
<text text-anchor="start" x="179" y="-106" font-family="Helvetica,sans-Serif" font-size="10.00">/__w/vulpes/vulpes</text>
<text text-anchor="start" x="179" y="-95" font-family="Helvetica,sans-Serif" font-size="10.00">/vulpes/assemble/integrator</text>
<text text-anchor="middle" x="247.5" y="-84" font-family="Helvetica,sans-Serif" font-size="10.00">_simplexify.hpp</text>
</a>
</g>
</g>
<!-- Node5&#45;&gt;Node9 -->
<g id="edge9_Node000005_Node000009" class="edge">
<title>Node5&#45;&gt;Node9</title>
<g id="a_edge9_Node000005_Node000009"><a xlink:title=" ">
<path fill="none" stroke="#63b8ff" d="M292.95,-146.51C284.05,-137.11 274.25,-126.76 266.03,-118.07"/>
<polygon fill="#63b8ff" stroke="#63b8ff" points="290.43,-148.94 299.85,-153.79 295.51,-144.13 290.43,-148.94"/>
</a>
</g>
</g>
<!-- Node8 -->
<g id="Node000008" class="node">
<title>Node8</title>
<g id="a_Node000008"><a xlink:href="integrator__vem_8hpp.html" target="_top" xlink:title=" ">
<polygon fill="white" stroke="#666666" points="239,-41 86,-41 86,0 239,0 239,-41"/>
<text text-anchor="start" x="94" y="-29" font-family="Helvetica,sans-Serif" font-size="10.00">/__w/vulpes/vulpes</text>
<text text-anchor="start" x="94" y="-18" font-family="Helvetica,sans-Serif" font-size="10.00">/vulpes/assemble/integrator</text>
<text text-anchor="middle" x="162.5" y="-7" font-family="Helvetica,sans-Serif" font-size="10.00">_vem.hpp</text>
</a>
</g>
</g>
<!-- Node7&#45;&gt;Node8 -->
<g id="edge8_Node000007_Node000008" class="edge">
<title>Node7&#45;&gt;Node8</title>
<g id="a_edge8_Node000007_Node000008"><a xlink:title=" ">
<path fill="none" stroke="#63b8ff" d="M106.81,-70.07C117.75,-60.52 129.9,-49.93 140.06,-41.07"/>
<polygon fill="#63b8ff" stroke="#63b8ff" points="104.33,-67.58 99.1,-76.79 108.93,-72.86 104.33,-67.58"/>
</a>
</g>
</g>
<!-- Node9&#45;&gt;Node2 -->
<g id="edge10_Node000009_Node000002" class="edge">
<title>Node9&#45;&gt;Node2</title>
<g id="a_edge10_Node000009_Node000002"><a xlink:title=" ">
<path fill="none" stroke="#63b8ff" d="M334.23,-76.61C403.89,-60.84 473.85,-45.22 521.85,-34.53"/>
<polygon fill="#63b8ff" stroke="#63b8ff" points="333.39,-73.21 324.41,-78.84 334.93,-80.04 333.39,-73.21"/>
</a>
</g>
</g>
<!-- Node9&#45;&gt;Node8 -->
<g id="edge11_Node000009_Node000008" class="edge">
<title>Node9&#45;&gt;Node8</title>
<g id="a_edge11_Node000009_Node000008"><a xlink:title=" ">
<path fill="none" stroke="#63b8ff" d="M217.55,-70.07C206.73,-60.52 194.72,-49.93 184.68,-41.07"/>
<polygon fill="#63b8ff" stroke="#63b8ff" points="215.35,-72.8 225.17,-76.79 219.98,-67.55 215.35,-72.8"/>
</a>
</g>
</g>
<!-- Node10&#45;&gt;Node5 -->
<g id="edge13_Node000010_Node000005" class="edge">
<title>Node10&#45;&gt;Node5</title>
<g id="a_edge13_Node000010_Node000005"><a xlink:title=" ">
<path fill="none" stroke="#63b8ff" d="M318.5,-220.69C318.5,-212.08 318.5,-202.9 318.5,-195.07"/>
<polygon fill="#63b8ff" stroke="#63b8ff" points="315,-220.79 318.5,-230.79 322,-220.79 315,-220.79"/>
</a>
</g>
</g>
<!-- Node12&#45;&gt;Node2 -->
<g id="edge16_Node000012_Node000002" class="edge">
<title>Node12&#45;&gt;Node2</title>
<g id="a_edge16_Node000012_Node000002"><a xlink:title=" ">
<path fill="none" stroke="#63b8ff" d="M1072.76,-304.79C1085.4,-284.1 1098.46,-253.44 1083.5,-231 982.48,-79.49 748.97,-37.38 639.34,-25.81"/>
<polygon fill="#63b8ff" stroke="#63b8ff" points="1069.78,-302.96 1067.28,-313.26 1075.65,-306.77 1069.78,-302.96"/>
</a>
</g>
</g>
<!-- Node13 -->
<g id="Node000013" class="node">
<title>Node13</title>
<g id="a_Node000013"><a xlink:href="linear__solver_8cpp.html" target="_top" xlink:title=" ">
<polygon fill="white" stroke="#666666" points="1075,-266.5 926,-266.5 926,-236.5 1075,-236.5 1075,-266.5"/>
<text text-anchor="start" x="934" y="-254.5" font-family="Helvetica,sans-Serif" font-size="10.00">/__w/vulpes/vulpes</text>
<text text-anchor="middle" x="1000.5" y="-243.5" font-family="Helvetica,sans-Serif" font-size="10.00">/vulpes/la/linear_solver.cpp</text>
</a>
</g>
</g>
<!-- Node12&#45;&gt;Node13 -->
<g id="edge17_Node000012_Node000013" class="edge">
<title>Node12&#45;&gt;Node13</title>
<g id="a_edge17_Node000012_Node000013"><a xlink:title=" ">
<path fill="none" stroke="#63b8ff" d="M1039.88,-305.24C1030.52,-292.7 1019.11,-277.42 1010.99,-266.54"/>
<polygon fill="#63b8ff" stroke="#63b8ff" points="1037.18,-307.47 1045.97,-313.39 1042.79,-303.29 1037.18,-307.47"/>
</a>
</g>
</g>
<!-- Node12&#45;&gt;Node14 -->
<g id="edge18_Node000012_Node000014" class="edge">
<title>Node12&#45;&gt;Node14</title>
<g id="a_edge18_Node000012_Node000014"><a xlink:title=" ">
<path fill="none" stroke="#63b8ff" d="M1121.01,-310.94C1163.73,-299.95 1220.97,-285.18 1271.5,-272 1274.2,-271.3 1276.95,-270.58 1279.74,-269.85"/>
<polygon fill="#63b8ff" stroke="#63b8ff" points="1120.12,-307.55 1111.31,-313.43 1121.86,-314.33 1120.12,-307.55"/>
</a>
</g>
</g>
<!-- Node12&#45;&gt;Node16 -->
<g id="edge20_Node000012_Node000016" class="edge">
<title>Node12&#45;&gt;Node16</title>
<g id="a_edge20_Node000012_Node000016"><a xlink:title=" ">
<path fill="none" stroke="#63b8ff" d="M1006.78,-310.08C974.38,-298.72 932.03,-283.88 898.45,-272.11"/>
<polygon fill="#63b8ff" stroke="#63b8ff" points="1005.9,-313.48 1016.5,-313.48 1008.22,-306.87 1005.9,-313.48"/>
</a>
</g>
</g>
<!-- Node12&#45;&gt;Node17 -->
<g id="edge21_Node000012_Node000017" class="edge">
<title>Node12&#45;&gt;Node17</title>
<g id="a_edge21_Node000012_Node000017"><a xlink:title=" ">
<path fill="none" stroke="#63b8ff" d="M987.04,-311.26C981.79,-310.13 976.56,-309.03 971.5,-308 881.27,-289.7 857.42,-291.75 767.5,-272 764.77,-271.4 762,-270.77 759.2,-270.12"/>
<polygon fill="#63b8ff" stroke="#63b8ff" points="986.62,-314.75 997.14,-313.48 988.12,-307.92 986.62,-314.75"/>
</a>
</g>
</g>
<!-- Node12&#45;&gt;Node19 -->
<g id="edge23_Node000012_Node000019" class="edge">
<title>Node12&#45;&gt;Node19</title>
<g id="a_edge23_Node000012_Node000019"><a xlink:title=" ">
<path fill="none" stroke="#63b8ff" d="M1091.69,-308.65C1112.54,-297.48 1138.91,-283.35 1159.98,-272.06"/>
<polygon fill="#63b8ff" stroke="#63b8ff" points="1089.99,-305.59 1082.83,-313.39 1093.3,-311.76 1089.99,-305.59"/>
</a>
</g>
</g>
<!-- Node15 -->
<g id="Node000015" class="node">
<title>Node15</title>
<g id="a_Node000015"><a xlink:href="cranknicolson_8cpp.html" target="_top" xlink:title=" ">
<polygon fill="white" stroke="#666666" points="1411,-195 1280,-195 1280,-154 1411,-154 1411,-195"/>
<text text-anchor="start" x="1288" y="-183" font-family="Helvetica,sans-Serif" font-size="10.00">/__w/vulpes/vulpes</text>
<text text-anchor="start" x="1288" y="-172" font-family="Helvetica,sans-Serif" font-size="10.00">/vulpes/timeintegration</text>
<text text-anchor="middle" x="1345.5" y="-161" font-family="Helvetica,sans-Serif" font-size="10.00">/cranknicolson.cpp</text>
</a>
</g>
</g>
<!-- Node14&#45;&gt;Node15 -->
<g id="edge19_Node000014_Node000015" class="edge">
<title>Node14&#45;&gt;Node15</title>
<g id="a_edge19_Node000014_Node000015"><a xlink:title=" ">
<path fill="none" stroke="#63b8ff" d="M1345.5,-220.69C1345.5,-212.08 1345.5,-202.9 1345.5,-195.07"/>
<polygon fill="#63b8ff" stroke="#63b8ff" points="1342,-220.79 1345.5,-230.79 1349,-220.79 1342,-220.79"/>
</a>
</g>
</g>
<!-- Node18 -->
<g id="Node000018" class="node">
<title>Node18</title>
<g id="a_Node000018"><a xlink:href="solverfkpp_8cpp.html" target="_top" xlink:title=" ">
<polygon fill="white" stroke="#666666" points="759,-195 628,-195 628,-154 759,-154 759,-195"/>
<text text-anchor="start" x="636" y="-183" font-family="Helvetica,sans-Serif" font-size="10.00">/__w/vulpes/vulpes</text>
<text text-anchor="start" x="636" y="-172" font-family="Helvetica,sans-Serif" font-size="10.00">/vulpes/timeintegration</text>
<text text-anchor="middle" x="693.5" y="-161" font-family="Helvetica,sans-Serif" font-size="10.00">/solverfkpp.cpp</text>
</a>
</g>
</g>
<!-- Node17&#45;&gt;Node18 -->
<g id="edge22_Node000017_Node000018" class="edge">
<title>Node17&#45;&gt;Node18</title>
<g id="a_edge22_Node000017_Node000018"><a xlink:title=" ">
<path fill="none" stroke="#63b8ff" d="M693.5,-220.69C693.5,-212.08 693.5,-202.9 693.5,-195.07"/>
<polygon fill="#63b8ff" stroke="#63b8ff" points="690,-220.79 693.5,-230.79 697,-220.79 690,-220.79"/>
</a>
</g>
</g>
<!-- Node20 -->
<g id="Node000020" class="node">
<title>Node20</title>
<g id="a_Node000020"><a xlink:href="solvermfk_8cpp.html" target="_top" xlink:title=" ">
<polygon fill="white" stroke="#666666" points="1262,-195 1131,-195 1131,-154 1262,-154 1262,-195"/>
<text text-anchor="start" x="1139" y="-183" font-family="Helvetica,sans-Serif" font-size="10.00">/__w/vulpes/vulpes</text>
<text text-anchor="start" x="1139" y="-172" font-family="Helvetica,sans-Serif" font-size="10.00">/vulpes/timeintegration</text>
<text text-anchor="middle" x="1196.5" y="-161" font-family="Helvetica,sans-Serif" font-size="10.00">/solvermfk.cpp</text>
</a>
</g>
</g>
<!-- Node19&#45;&gt;Node20 -->
<g id="edge24_Node000019_Node000020" class="edge">
<title>Node19&#45;&gt;Node20</title>
<g id="a_edge24_Node000019_Node000020"><a xlink:title=" ">
<path fill="none" stroke="#63b8ff" d="M1196.5,-220.69C1196.5,-212.08 1196.5,-202.9 1196.5,-195.07"/>
<polygon fill="#63b8ff" stroke="#63b8ff" points="1193,-220.79 1196.5,-230.79 1200,-220.79 1193,-220.79"/>
</a>
</g>
</g>
<!-- Node21&#45;&gt;Node2 -->
<g id="edge26_Node000021_Node000002" class="edge">
<title>Node21&#45;&gt;Node2</title>
<g id="a_edge26_Node000021_Node000002"><a xlink:title=" ">
<path fill="none" stroke="#63b8ff" d="M850.2,-395.18C773.81,-381.91 668.52,-349.77 618.5,-272 593.87,-233.71 584.23,-93.56 581.44,-41.31"/>
<polygon fill="#63b8ff" stroke="#63b8ff" points="849.87,-398.68 860.31,-396.86 851.02,-391.77 849.87,-398.68"/>
</a>
</g>
</g>
<!-- Node21&#45;&gt;Node12 -->
<g id="edge27_Node000021_Node000012" class="edge">
<title>Node21&#45;&gt;Node12</title>
<g id="a_edge27_Node000021_Node000012"><a xlink:title=" ">
<path fill="none" stroke="#63b8ff" d="M970.07,-384.9C990.32,-371.93 1016.4,-355.21 1034.59,-343.54"/>
<polygon fill="#63b8ff" stroke="#63b8ff" points="968.04,-382.05 961.51,-390.39 971.81,-387.94 968.04,-382.05"/>
</a>
</g>
</g>
<!-- Node21&#45;&gt;Node14 -->
<g id="edge31_Node000021_Node000014" class="edge">
<title>Node21&#45;&gt;Node14</title>
<g id="a_edge31_Node000021_Node000014"><a xlink:title=" ">
<path fill="none" stroke="#63b8ff" d="M1028.63,-388.91C1072.24,-379.82 1125.01,-366.64 1170.5,-349 1198.81,-338.03 1270.19,-296.96 1312.53,-272.07"/>
<polygon fill="#63b8ff" stroke="#63b8ff" points="1027.71,-385.52 1018.62,-390.96 1029.11,-392.38 1027.71,-385.52"/>
</a>
</g>
</g>
<!-- Node21&#45;&gt;Node16 -->
<g id="edge32_Node000021_Node000016" class="edge">
<title>Node21&#45;&gt;Node16</title>
<g id="a_edge32_Node000021_Node000016"><a xlink:title=" ">
<path fill="none" stroke="#63b8ff" d="M850.72,-388.4C829.52,-380.18 809.34,-367.76 796.5,-349 779.62,-324.34 802.17,-292.53 821.22,-272.32"/>
<polygon fill="#63b8ff" stroke="#63b8ff" points="849.58,-391.71 860.17,-391.78 851.93,-385.12 849.58,-391.71"/>
</a>
</g>
</g>
<!-- Node21&#45;&gt;Node17 -->
<g id="edge33_Node000021_Node000017" class="edge">
<title>Node21&#45;&gt;Node17</title>
<g id="a_edge33_Node000021_Node000017"><a xlink:title=" ">
<path fill="none" stroke="#63b8ff" d="M873.25,-387.43C845.43,-378.5 813.56,-365.86 787.5,-349 754.9,-327.91 725.06,-293.59 708.1,-272.07"/>
<polygon fill="#63b8ff" stroke="#63b8ff" points="872.32,-390.81 882.9,-390.43 874.39,-384.12 872.32,-390.81"/>
</a>
</g>
</g>
<!-- Node21&#45;&gt;Node19 -->
<g id="edge34_Node000021_Node000019" class="edge">
<title>Node21&#45;&gt;Node19</title>
<g id="a_edge34_Node000021_Node000019"><a xlink:title=" ">
<path fill="none" stroke="#63b8ff" d="M1028.75,-394.99C1066.27,-387.37 1108.53,-373.67 1140.5,-349 1166.11,-329.24 1182.14,-294.19 1190.19,-272.22"/>
<polygon fill="#63b8ff" stroke="#63b8ff" points="1027.98,-391.57 1018.81,-396.89 1029.29,-398.45 1027.98,-391.57"/>
</a>
</g>
</g>
<!-- Node22 -->
<g id="Node000022" class="node">
<title>Node22</title>
<g id="a_Node000022"><a xlink:href="sparse__matrix_8cpp.html" target="_top" xlink:title=" ">
<polygon fill="white" stroke="#666666" points="963,-343.5 806,-343.5 806,-313.5 963,-313.5 963,-343.5"/>
<text text-anchor="start" x="814" y="-331.5" font-family="Helvetica,sans-Serif" font-size="10.00">/__w/vulpes/vulpes</text>
<text text-anchor="middle" x="884.5" y="-320.5" font-family="Helvetica,sans-Serif" font-size="10.00">/vulpes/la/sparse_matrix.cpp</text>
</a>
</g>
</g>
<!-- Node21&#45;&gt;Node22 -->
<g id="edge28_Node000021_Node000022" class="edge">
<title>Node21&#45;&gt;Node22</title>
<g id="a_edge28_Node000021_Node000022"><a xlink:title=" ">
<path fill="none" stroke="#63b8ff" d="M923.17,-382.24C913.98,-369.7 902.78,-354.42 894.8,-343.54"/>
<polygon fill="#63b8ff" stroke="#63b8ff" points="920.42,-384.4 929.15,-390.39 926.06,-380.26 920.42,-384.4"/>
</a>
</g>
</g>
<!-- Node21&#45;&gt;Node23 -->
<g id="edge29_Node000021_Node000023" class="edge">
<title>Node21&#45;&gt;Node23</title>
<g id="a_edge29_Node000021_Node000023"><a xlink:title=" ">
<path fill="none" stroke="#63b8ff" d="M853.32,-388.62C776.71,-374.5 666.41,-354.18 597.14,-341.41"/>
<polygon fill="#63b8ff" stroke="#63b8ff" points="852.96,-392.11 863.42,-390.48 854.22,-385.23 852.96,-392.11"/>
</a>
</g>
</g>
<!-- Node21&#45;&gt;Node24 -->
<g id="edge35_Node000021_Node000024" class="edge">
<title>Node21&#45;&gt;Node24</title>
<g id="a_edge35_Node000021_Node000024"><a xlink:title=" ">
<path fill="none" stroke="#63b8ff" d="M1020.48,-388.48C1093.92,-373.94 1200.16,-352.92 1263.96,-340.29"/>
<polygon fill="#63b8ff" stroke="#63b8ff" points="1019.47,-385.11 1010.34,-390.48 1020.83,-391.97 1019.47,-385.11"/>
</a>
</g>
</g>
<!-- Node23&#45;&gt;Node2 -->
<g id="edge30_Node000023_Node000002" class="edge">
<title>Node23&#45;&gt;Node2</title>
<g id="a_edge30_Node000023_Node000002"><a xlink:title=" ">
<path fill="none" stroke="#63b8ff" d="M537.13,-297.97C546.85,-235.99 569.17,-93.73 577.39,-41.34"/>
<polygon fill="#63b8ff" stroke="#63b8ff" points="533.67,-297.47 535.58,-307.89 540.58,-298.56 533.67,-297.47"/>
</a>
</g>
</g>
<!-- Node24&#45;&gt;Node14 -->
<g id="edge36_Node000024_Node000014" class="edge">
<title>Node24&#45;&gt;Node14</title>
<g id="a_edge36_Node000024_Node000014"><a xlink:title=" ">
<path fill="none" stroke="#63b8ff" d="M1327.01,-303.87C1330.67,-293.69 1334.91,-281.91 1338.41,-272.2"/>
<polygon fill="#63b8ff" stroke="#63b8ff" points="1323.67,-302.8 1323.58,-313.39 1330.26,-305.17 1323.67,-302.8"/>
</a>
</g>
</g>
</g>
</svg>

<g id="navigator" transform="translate(0 0)" fill="#404254">
  <rect fill="#f2f5e9" fill-opacity="0.5" stroke="#606060" stroke-width=".5" x="0" y="0" width="60" height="60"/>
  <use id="zoomplus" xlink:href="#zoomPlus" x="17" y="9" onmousedown="handleZoom(evt,'in')"/>
  <use id="zoomminus" xlink:href="#zoomMin" x="42" y="9" onmousedown="handleZoom(evt,'out')"/>
  <use id="reset" xlink:href="#resetDef" x="30" y="36" onmousedown="handleReset()"/>
   <use id="arrowup" xlink:href="#arrowUp" x="0" y="0" onmousedown="handlePan(0,-1)"/>
  <use id="arrowright" xlink:href="#arrowRight" x="0" y="0" onmousedown="handlePan(1,0)"/>
  <use id="arrowdown" xlink:href="#arrowDown" x="0" y="0" onmousedown="handlePan(0,1)"/>
  <use id="arrowleft" xlink:href="#arrowLeft" x="0" y="0" onmousedown="handlePan(-1,0)"/>
</g>
<svg viewBox="0 0 15 15" width="100%" height="30px" preserveAspectRatio="xMaxYMin meet">
 <g id="arrow_out" transform="scale(0.3 0.3)">
  <a xlink:href="vector_8hpp__dep__incl_org.svg" target="_base">
   <rect id="button" ry="5" rx="5" y="6" x="6" height="38" width="38"
        fill="#f2f5e9" fill-opacity="0.5" stroke="#606060" stroke-width="1.0"/>
   <path id="arrow"
     d="M 11.500037,31.436501 C 11.940474,20.09759 22.043105,11.32322 32.158766,21.979434 L 37.068811,17.246167 C 37.068811,17.246167 37.088388,32 37.088388,32 L 22.160133,31.978069 C 22.160133,31.978069 26.997745,27.140456 26.997745,27.140456 C 18.528582,18.264221 13.291696,25.230495 11.500037,31.436501 z"
     style="fill:#404040;"/>
  </a>
 </g>
</svg>

<style type='text/css'>
<![CDATA[
[data-mouse-over-selected='false'] { opacity: 0.7; }
[data-mouse-over-selected='true']  { opacity: 1.0; }
]]>
</style>
<script type="application/ecmascript"><![CDATA[
document.addEventListener('DOMContentLoaded', (event) => {
  highlightEdges();
  highlightAdjacentNodes();
});
]]></script>
</svg>
