<?xml version="1.0" encoding="UTF-8" standalone="no"?>
<!DOCTYPE svg PUBLIC "-//W3C//DTD SVG 1.1//EN"
 "http://www.w3.org/Graphics/SVG/1.1/DTD/svg11.dtd">
<!-- Generated by graphviz version 12.2.1 (20241206.2353)
 -->
<!-- Title: /Users/ilariomazzieri/Desktop/vulpes/vulpes/la/vector.hpp Pages: 1 -->
<svg width="1066pt" height="282pt"
 viewBox="0.00 0.00 1065.62 282.00" xmlns="http://www.w3.org/2000/svg" xmlns:xlink="http://www.w3.org/1999/xlink">
<g id="graph0" class="graph" transform="scale(1 1) rotate(0) translate(4 278)">
<title>/Users/ilariomazzieri/Desktop/vulpes/vulpes/la/vector.hpp</title>
<!-- Node1 -->
<g id="Node000001" class="node">
<title>Node1</title>
<g id="a_Node000001"><a xlink:title=" ">
<polygon fill="#999999" stroke="#666666" points="565.38,-274 446.62,-274 446.62,-232.25 565.38,-232.25 565.38,-274"/>
<text text-anchor="start" x="454.62" y="-260.5" font-family="Helvetica,sans-Serif" font-size="10.00">/Users/ilariomazzieri</text>
<text text-anchor="start" x="454.62" y="-249.25" font-family="Helvetica,sans-Serif" font-size="10.00">/Desktop/vulpes/vulpes</text>
<text text-anchor="middle" x="506" y="-238" font-family="Helvetica,sans-Serif" font-size="10.00">/la/vector.hpp</text>
</a>
</g>
</g>
<!-- Node2 -->
<g id="Node000002" class="node">
<title>Node2</title>
<g id="a_Node000002"><a xlink:title=" ">
<polygon fill="#e0e0e0" stroke="#999999" points="114,-141 50,-141 50,-121.75 114,-121.75 114,-141"/>
<text text-anchor="middle" x="82" y="-127.5" font-family="Helvetica,sans-Serif" font-size="10.00">petscsys.h</text>
</a>
</g>
</g>
<!-- Node1&#45;&gt;Node2 -->
<g id="edge1_Node000001_Node000002" class="edge">
<title>Node1&#45;&gt;Node2</title>
<g id="a_edge1_Node000001_Node000002"><a xlink:title=" ">
<path fill="none" stroke="#63b8ff" d="M446.5,-248.67C334.41,-241.55 101.01,-223.59 77,-196.25 66.56,-184.37 69.26,-165.98 73.73,-151.98"/>
<polygon fill="#63b8ff" stroke="#63b8ff" points="76.89,-153.5 77.11,-142.91 70.34,-151.05 76.89,-153.5"/>
</a>
</g>
</g>
<!-- Node3 -->
<g id="Node000003" class="node">
<title>Node3</title>
<g id="a_Node000003"><a xlink:title=" ">
<polygon fill="#e0e0e0" stroke="#999999" points="988,-196.25 924,-196.25 924,-177 988,-177 988,-196.25"/>
<text text-anchor="middle" x="956" y="-182.75" font-family="Helvetica,sans-Serif" font-size="10.00">petscvec.h</text>
</a>
</g>
</g>
<!-- Node1&#45;&gt;Node3 -->
<g id="edge2_Node000001_Node000003" class="edge">
<title>Node1&#45;&gt;Node3</title>
<g id="a_edge2_Node000001_Node000003"><a xlink:title=" ">
<path fill="none" stroke="#63b8ff" d="M565.69,-244.78C644.64,-234.85 788.05,-216.1 910,-196.25 910.84,-196.11 911.69,-195.97 912.55,-195.83"/>
<polygon fill="#63b8ff" stroke="#63b8ff" points="913.12,-199.28 922.37,-194.11 911.92,-192.39 913.12,-199.28"/>
</a>
</g>
</g>
<!-- Node4 -->
<g id="Node000004" class="node">
<title>Node4</title>
<g id="a_Node000004"><a xlink:title=" ">
<polygon fill="#e0e0e0" stroke="#999999" points="177.88,-19.25 122.12,-19.25 122.12,0 177.88,0 177.88,-19.25"/>
<text text-anchor="middle" x="150" y="-5.75" font-family="Helvetica,sans-Serif" font-size="10.00">algorithm</text>
</a>
</g>
</g>
<!-- Node1&#45;&gt;Node4 -->
<g id="edge3_Node000001_Node000004" class="edge">
<title>Node1&#45;&gt;Node4</title>
<g id="a_edge3_Node000001_Node000004"><a xlink:title=" ">
<path fill="none" stroke="#63b8ff" d="M460.87,-231.77C401.5,-203.78 295.51,-149.56 217,-85.75 195.89,-68.59 175.67,-44.52 163.07,-28.29"/>
<polygon fill="#63b8ff" stroke="#63b8ff" points="166.02,-26.38 157.19,-20.53 160.45,-30.61 166.02,-26.38"/>
</a>
</g>
</g>
<!-- Node5 -->
<g id="Node000005" class="node">
<title>Node5</title>
<g id="a_Node000005"><a xlink:title=" ">
<polygon fill="#e0e0e0" stroke="#999999" points="974.12,-19.25 925.88,-19.25 925.88,0 974.12,0 974.12,-19.25"/>
<text text-anchor="middle" x="950" y="-5.75" font-family="Helvetica,sans-Serif" font-size="10.00">cstddef</text>
</a>
</g>
</g>
<!-- Node1&#45;&gt;Node5 -->
<g id="edge4_Node000001_Node000005" class="edge">
<title>Node1&#45;&gt;Node5</title>
<g id="a_edge4_Node000001_Node000005"><a xlink:title=" ">
<path fill="none" stroke="#63b8ff" d="M565.76,-244.23C613.88,-236.36 682.44,-221.69 738,-196.25 826.2,-155.87 904.95,-66.68 935.98,-28.52"/>
<polygon fill="#63b8ff" stroke="#63b8ff" points="938.67,-30.76 942.18,-20.76 933.2,-26.39 938.67,-30.76"/>
</a>
</g>
</g>
<!-- Node6 -->
<g id="Node000006" class="node">
<title>Node6</title>
<g id="a_Node000006"><a xlink:title=" ">
<polygon fill="#e0e0e0" stroke="#999999" points="1057.62,-196.25 1006.38,-196.25 1006.38,-177 1057.62,-177 1057.62,-196.25"/>
<text text-anchor="middle" x="1032" y="-182.75" font-family="Helvetica,sans-Serif" font-size="10.00">memory</text>
</a>
</g>
</g>
<!-- Node1&#45;&gt;Node6 -->
<g id="edge5_Node000001_Node000006" class="edge">
<title>Node1&#45;&gt;Node6</title>
<g id="a_edge5_Node000001_Node000006"><a xlink:title=" ">
<path fill="none" stroke="#63b8ff" d="M565.69,-247.82C656.38,-240.73 834.45,-224.67 995.04,-196.37"/>
<polygon fill="#63b8ff" stroke="#63b8ff" points="995.37,-199.87 1004.6,-194.67 994.14,-192.98 995.37,-199.87"/>
</a>
</g>
</g>
<!-- Node7 -->
<g id="Node000007" class="node">
<title>Node7</title>
<g id="a_Node000007"><a xlink:title=" ">
<polygon fill="#e0e0e0" stroke="#999999" points="40,-19.25 0,-19.25 0,0 40,0 40,-19.25"/>
<text text-anchor="middle" x="20" y="-5.75" font-family="Helvetica,sans-Serif" font-size="10.00">string</text>
</a>
</g>
</g>
<!-- Node1&#45;&gt;Node7 -->
<g id="edge6_Node000001_Node000007" class="edge">
<title>Node1&#45;&gt;Node7</title>
<g id="a_edge6_Node000001_Node000007"><a xlink:title=" ">
<path fill="none" stroke="#63b8ff" d="M446.33,-251.59C340.4,-249.51 125.08,-239.88 66,-196.25 14.06,-157.89 14.49,-70.68 17.69,-30.98"/>
<polygon fill="#63b8ff" stroke="#63b8ff" points="21.16,-31.48 18.65,-21.19 14.19,-30.8 21.16,-31.48"/>
</a>
</g>
</g>
<!-- Node8 -->
<g id="Node000008" class="node">
<title>Node8</title>
<g id="a_Node000008"><a xlink:title=" ">
<polygon fill="#e0e0e0" stroke="#999999" points="427.62,-19.25 388.38,-19.25 388.38,0 427.62,0 427.62,-19.25"/>
<text text-anchor="middle" x="408" y="-5.75" font-family="Helvetica,sans-Serif" font-size="10.00">utility</text>
</a>
</g>
</g>
<!-- Node1&#45;&gt;Node8 -->
<g id="edge7_Node000001_Node000008" class="edge">
<title>Node1&#45;&gt;Node8</title>
<g id="a_edge7_Node000001_Node000008"><a xlink:title=" ">
<path fill="none" stroke="#63b8ff" d="M485.96,-231.98C466.48,-211.1 437.74,-176.6 423,-141 407.86,-104.44 406.36,-57.49 406.96,-31.07"/>
<polygon fill="#63b8ff" stroke="#63b8ff" points="410.46,-31.22 407.33,-21.09 403.46,-30.96 410.46,-31.22"/>
</a>
</g>
</g>
<!-- Node9 -->
<g id="Node000009" class="node">
<title>Node9</title>
<g id="a_Node000009"><a xlink:title=" ">
<polygon fill="#e0e0e0" stroke="#999999" points="836.5,-19.25 793.5,-19.25 793.5,0 836.5,0 836.5,-19.25"/>
<text text-anchor="middle" x="815" y="-5.75" font-family="Helvetica,sans-Serif" font-size="10.00">vector</text>
</a>
</g>
</g>
<!-- Node1&#45;&gt;Node9 -->
<g id="edge8_Node000001_Node000009" class="edge">
<title>Node1&#45;&gt;Node9</title>
<g id="a_edge8_Node000001_Node000009"><a xlink:title=" ">
<path fill="none" stroke="#63b8ff" d="M565.56,-242.07C644.24,-225.22 779.75,-183.03 839,-85.75 849.87,-67.91 839.26,-44.65 828.91,-28.77"/>
<polygon fill="#63b8ff" stroke="#63b8ff" points="831.88,-26.91 823.25,-20.76 826.16,-30.95 831.88,-26.91"/>
</a>
</g>
</g>
<!-- Node10 -->
<g id="Node000010" class="node">
<title>Node10</title>
<g id="a_Node000010"><a xlink:title=" ">
<polygon fill="#e0e0e0" stroke="#999999" points="830.12,-80.12 757.88,-80.12 757.88,-60.88 830.12,-60.88 830.12,-80.12"/>
<text text-anchor="middle" x="794" y="-66.62" font-family="Helvetica,sans-Serif" font-size="10.00">Eigen/Dense</text>
</a>
</g>
</g>
<!-- Node1&#45;&gt;Node10 -->
<g id="edge9_Node000001_Node000010" class="edge">
<title>Node1&#45;&gt;Node10</title>
<g id="a_edge9_Node000001_Node000010"><a xlink:title=" ">
<path fill="none" stroke="#63b8ff" d="M538.48,-231.76C596.83,-195.16 718.14,-119.08 769.83,-86.66"/>
<polygon fill="#63b8ff" stroke="#63b8ff" points="771.58,-89.69 778.2,-81.41 767.86,-83.76 771.58,-89.69"/>
</a>
</g>
</g>
<!-- Node11 -->
<g id="Node000011" class="node">
<title>Node11</title>
<g id="a_Node000011"><a xlink:href="petsc__utils_8hpp.html" target="_top" xlink:title=" ">
<polygon fill="white" stroke="#666666" points="210,-196.25 86,-196.25 86,-177 210,-177 210,-196.25"/>
<text text-anchor="middle" x="148" y="-182.75" font-family="Helvetica,sans-Serif" font-size="10.00">vulpes/la/petsc_utils.hpp</text>
</a>
</g>
</g>
<!-- Node1&#45;&gt;Node11 -->
<g id="edge10_Node000001_Node000011" class="edge">
<title>Node1&#45;&gt;Node11</title>
<g id="a_edge10_Node000001_Node000011"><a xlink:title=" ">
<path fill="none" stroke="#63b8ff" d="M446.48,-241.4C380.89,-229.58 275.89,-210.67 209.51,-198.71"/>
<polygon fill="#63b8ff" stroke="#63b8ff" points="210.35,-195.3 199.88,-196.97 209.11,-202.19 210.35,-195.3"/>
</a>
</g>
</g>
<!-- Node12 -->
<g id="Node000012" class="node">
<title>Node12</title>
<g id="a_Node000012"><a xlink:href="mpi__wrappers_8hpp.html" target="_top" xlink:title=" ">
<polygon fill="white" stroke="#666666" points="580,-141 432,-141 432,-121.75 580,-121.75 580,-141"/>
<text text-anchor="middle" x="506" y="-127.5" font-family="Helvetica,sans-Serif" font-size="10.00">vulpes/utils/mpi_wrappers.hpp</text>
</a>
</g>
</g>
<!-- Node1&#45;&gt;Node12 -->
<g id="edge39_Node000001_Node000012" class="edge">
<title>Node1&#45;&gt;Node12</title>
<g id="a_edge39_Node000001_Node000012"><a xlink:title=" ">
<path fill="none" stroke="#63b8ff" d="M506,-231.81C506,-209.72 506,-174.63 506,-152.58"/>
<polygon fill="#63b8ff" stroke="#63b8ff" points="509.5,-152.82 506,-142.82 502.5,-152.82 509.5,-152.82"/>
</a>
</g>
</g>
<!-- Node11&#45;&gt;Node2 -->
<g id="edge11_Node000011_Node000002" class="edge">
<title>Node11&#45;&gt;Node2</title>
<g id="a_edge11_Node000011_Node000002"><a xlink:title=" ">
<path fill="none" stroke="#63b8ff" d="M136.8,-176.59C127.26,-168.9 113.33,-157.65 101.89,-148.43"/>
<polygon fill="#63b8ff" stroke="#63b8ff" points="104.19,-145.78 94.21,-142.23 99.79,-151.23 104.19,-145.78"/>
</a>
</g>
</g>
<!-- Node11&#45;&gt;Node7 -->
<g id="edge12_Node000011_Node000007" class="edge">
<title>Node11&#45;&gt;Node7</title>
<g id="a_edge12_Node000011_Node000007"><a xlink:title=" ">
<path fill="none" stroke="#63b8ff" d="M145.71,-176.88C142.12,-164.11 134.39,-139.91 123,-121.75 99.29,-83.95 61.78,-47.45 39.16,-27.13"/>
<polygon fill="#63b8ff" stroke="#63b8ff" points="41.69,-24.69 31.88,-20.69 37.05,-29.93 41.69,-24.69"/>
</a>
</g>
</g>
<!-- Node11&#45;&gt;Node12 -->
<g id="edge13_Node000011_Node000012" class="edge">
<title>Node11&#45;&gt;Node12</title>
<g id="a_edge13_Node000011_Node000012"><a xlink:title=" ">
<path fill="none" stroke="#63b8ff" d="M209.14,-176.53C271.34,-167.28 367.73,-152.94 433.69,-143.13"/>
<polygon fill="#63b8ff" stroke="#63b8ff" points="433.94,-146.63 443.32,-141.7 432.91,-139.71 433.94,-146.63"/>
</a>
</g>
</g>
<!-- Node12&#45;&gt;Node9 -->
<g id="edge18_Node000012_Node000009" class="edge">
<title>Node12&#45;&gt;Node9</title>
<g id="a_edge18_Node000012_Node000009"><a xlink:title=" ">
<path fill="none" stroke="#63b8ff" d="M558.83,-121.28C592.55,-114.27 636.6,-102.84 673,-85.75 694.21,-75.79 695.67,-66.9 716,-55.25 737.43,-42.97 762.86,-31.57 782.58,-23.37"/>
<polygon fill="#63b8ff" stroke="#63b8ff" points="783.83,-26.64 791.76,-19.61 781.18,-20.16 783.83,-26.64"/>
</a>
</g>
</g>
<!-- Node12&#45;&gt;Node10 -->
<g id="edge19_Node000012_Node000010" class="edge">
<title>Node12&#45;&gt;Node10</title>
<g id="a_edge19_Node000012_Node000010"><a xlink:title=" ">
<path fill="none" stroke="#63b8ff" d="M562.57,-121.28C610.99,-113.14 682.42,-100.27 744,-85.75 746.91,-85.06 749.9,-84.32 752.9,-83.54"/>
<polygon fill="#63b8ff" stroke="#63b8ff" points="753.51,-87 762.25,-81.01 751.68,-80.24 753.51,-87"/>
</a>
</g>
</g>
<!-- Node13 -->
<g id="Node000013" class="node">
<title>Node13</title>
<g id="a_Node000013"><a xlink:title=" ">
<polygon fill="#e0e0e0" stroke="#999999" points="464,-80.12 424,-80.12 424,-60.88 464,-60.88 464,-80.12"/>
<text text-anchor="middle" x="444" y="-66.62" font-family="Helvetica,sans-Serif" font-size="10.00">mpi.h</text>
</a>
</g>
</g>
<!-- Node12&#45;&gt;Node13 -->
<g id="edge14_Node000012_Node000013" class="edge">
<title>Node12&#45;&gt;Node13</title>
<g id="a_edge14_Node000012_Node000013"><a xlink:title=" ">
<path fill="none" stroke="#63b8ff" d="M496.58,-121.43C487.39,-112.7 473.16,-99.19 461.83,-88.43"/>
<polygon fill="#63b8ff" stroke="#63b8ff" points="464.26,-85.92 454.6,-81.57 459.44,-90.99 464.26,-85.92"/>
</a>
</g>
</g>
<!-- Node14 -->
<g id="Node000014" class="node">
<title>Node14</title>
<g id="a_Node000014"><a xlink:title=" ">
<polygon fill="#e0e0e0" stroke="#999999" points="530.12,-80.12 481.88,-80.12 481.88,-60.88 530.12,-60.88 530.12,-80.12"/>
<text text-anchor="middle" x="506" y="-66.62" font-family="Helvetica,sans-Serif" font-size="10.00">petsc.h</text>
</a>
</g>
</g>
<!-- Node12&#45;&gt;Node14 -->
<g id="edge15_Node000012_Node000014" class="edge">
<title>Node12&#45;&gt;Node14</title>
<g id="a_edge15_Node000012_Node000014"><a xlink:title=" ">
<path fill="none" stroke="#63b8ff" d="M506,-121.43C506,-113.65 506,-102.08 506,-92.03"/>
<polygon fill="#63b8ff" stroke="#63b8ff" points="509.5,-92.04 506,-82.04 502.5,-92.04 509.5,-92.04"/>
</a>
</g>
</g>
<!-- Node15 -->
<g id="Node000015" class="node">
<title>Node15</title>
<g id="a_Node000015"><a xlink:title=" ">
<polygon fill="#e0e0e0" stroke="#999999" points="370.12,-19.25 321.88,-19.25 321.88,0 370.12,0 370.12,-19.25"/>
<text text-anchor="middle" x="346" y="-5.75" font-family="Helvetica,sans-Serif" font-size="10.00">cassert</text>
</a>
</g>
</g>
<!-- Node12&#45;&gt;Node15 -->
<g id="edge16_Node000012_Node000015" class="edge">
<title>Node12&#45;&gt;Node15</title>
<g id="a_edge16_Node000012_Node000015"><a xlink:title=" ">
<path fill="none" stroke="#63b8ff" d="M481.43,-121.26C462.28,-113.48 435.58,-101.13 415,-85.75 392.92,-69.24 372.17,-45.03 359.31,-28.59"/>
<polygon fill="#63b8ff" stroke="#63b8ff" points="362.14,-26.53 353.29,-20.7 356.57,-30.77 362.14,-26.53"/>
</a>
</g>
</g>
<!-- Node16 -->
<g id="Node000016" class="node">
<title>Node16</title>
<g id="a_Node000016"><a xlink:title=" ">
<polygon fill="#e0e0e0" stroke="#999999" points="907.75,-19.25 854.25,-19.25 854.25,0 907.75,0 907.75,-19.25"/>
<text text-anchor="middle" x="881" y="-5.75" font-family="Helvetica,sans-Serif" font-size="10.00">iostream</text>
</a>
</g>
</g>
<!-- Node12&#45;&gt;Node16 -->
<g id="edge17_Node000012_Node000016" class="edge">
<title>Node12&#45;&gt;Node16</title>
<g id="a_edge17_Node000012_Node000016"><a xlink:title=" ">
<path fill="none" stroke="#63b8ff" d="M580.35,-121.94C619.9,-115.53 668.57,-104.49 709,-85.75 729.28,-76.35 729.26,-65.75 749,-55.25 765.55,-46.45 810.44,-31.95 843.29,-21.88"/>
<polygon fill="#63b8ff" stroke="#63b8ff" points="843.91,-25.34 852.46,-19.08 841.88,-18.65 843.91,-25.34"/>
</a>
</g>
</g>
<!-- Node17 -->
<g id="Node000017" class="node">
<title>Node17</title>
<g id="a_Node000017"><a xlink:href="crs__map_8hpp.html" target="_top" xlink:title=" ">
<polygon fill="white" stroke="#666666" points="330.25,-85.75 225.75,-85.75 225.75,-55.25 330.25,-55.25 330.25,-85.75"/>
<text text-anchor="start" x="233.75" y="-72.25" font-family="Helvetica,sans-Serif" font-size="10.00">vulpes/datastructure</text>
<text text-anchor="middle" x="278" y="-61" font-family="Helvetica,sans-Serif" font-size="10.00">/crs_map.hpp</text>
</a>
</g>
</g>
<!-- Node12&#45;&gt;Node17 -->
<g id="edge20_Node000012_Node000017" class="edge">
<title>Node12&#45;&gt;Node17</title>
<g id="a_edge20_Node000012_Node000017"><a xlink:title=" ">
<path fill="none" stroke="#63b8ff" d="M470.87,-121.3C436.47,-112.42 383.28,-98.69 341.46,-87.89"/>
<polygon fill="#63b8ff" stroke="#63b8ff" points="342.57,-84.56 332.01,-85.45 340.82,-91.34 342.57,-84.56"/>
</a>
</g>
</g>
<!-- Node21 -->
<g id="Node000021" class="node">
<title>Node21</title>
<g id="a_Node000021"><a xlink:href="profiler_8hpp.html" target="_top" xlink:title=" ">
<polygon fill="white" stroke="#666666" points="663.88,-80.12 548.12,-80.12 548.12,-60.88 663.88,-60.88 663.88,-80.12"/>
<text text-anchor="middle" x="606" y="-66.62" font-family="Helvetica,sans-Serif" font-size="10.00">vulpes/utils/profiler.hpp</text>
</a>
</g>
</g>
<!-- Node12&#45;&gt;Node21 -->
<g id="edge28_Node000012_Node000021" class="edge">
<title>Node12&#45;&gt;Node21</title>
<g id="a_edge28_Node000012_Node000021"><a xlink:title=" ">
<path fill="none" stroke="#63b8ff" d="M521.19,-121.43C537.05,-112.1 562.18,-97.3 580.98,-86.23"/>
<polygon fill="#63b8ff" stroke="#63b8ff" points="582.52,-89.38 589.36,-81.29 578.97,-83.35 582.52,-89.38"/>
</a>
</g>
</g>
<!-- Node17&#45;&gt;Node4 -->
<g id="edge21_Node000017_Node000004" class="edge">
<title>Node17&#45;&gt;Node4</title>
<g id="a_edge21_Node000017_Node000004"><a xlink:title=" ">
<path fill="none" stroke="#63b8ff" d="M246.03,-54.8C225.79,-45.48 199.78,-33.52 179.94,-24.4"/>
<polygon fill="#63b8ff" stroke="#63b8ff" points="181.55,-21.29 171.01,-20.29 178.63,-27.65 181.55,-21.29"/>
</a>
</g>
</g>
<!-- Node17&#45;&gt;Node8 -->
<g id="edge25_Node000017_Node000008" class="edge">
<title>Node17&#45;&gt;Node8</title>
<g id="a_edge25_Node000017_Node000008"><a xlink:title=" ">
<path fill="none" stroke="#63b8ff" d="M310.47,-54.8C331.03,-45.48 357.44,-33.52 377.59,-24.4"/>
<polygon fill="#63b8ff" stroke="#63b8ff" points="379.02,-27.59 386.68,-20.28 376.13,-21.22 379.02,-27.59"/>
</a>
</g>
</g>
<!-- Node17&#45;&gt;Node9 -->
<g id="edge27_Node000017_Node000009" class="edge">
<title>Node17&#45;&gt;Node9</title>
<g id="a_edge27_Node000017_Node000009"><a xlink:title=" ">
<path fill="none" stroke="#63b8ff" d="M330.69,-63.94C356.15,-61.27 387.16,-58.05 415,-55.25 575.7,-39.07 620.7,-49.7 781.86,-19.55"/>
<polygon fill="#63b8ff" stroke="#63b8ff" points="782.5,-22.99 791.67,-17.69 781.19,-16.11 782.5,-22.99"/>
</a>
</g>
</g>
<!-- Node17&#45;&gt;Node15 -->
<g id="edge23_Node000017_Node000015" class="edge">
<title>Node17&#45;&gt;Node15</title>
<g id="a_edge23_Node000017_Node000015"><a xlink:title=" ">
<path fill="none" stroke="#63b8ff" d="M294.81,-54.95C304.57,-46.5 316.88,-35.83 326.99,-27.08"/>
<polygon fill="#63b8ff" stroke="#63b8ff" points="329.1,-29.88 334.37,-20.69 324.52,-24.59 329.1,-29.88"/>
</a>
</g>
</g>
<!-- Node18 -->
<g id="Node000018" class="node">
<title>Node18</title>
<g id="a_Node000018"><a xlink:title=" ">
<polygon fill="#e0e0e0" stroke="#999999" points="233.88,-19.25 196.12,-19.25 196.12,0 233.88,0 233.88,-19.25"/>
<text text-anchor="middle" x="215" y="-5.75" font-family="Helvetica,sans-Serif" font-size="10.00">array</text>
</a>
</g>
</g>
<!-- Node17&#45;&gt;Node18 -->
<g id="edge22_Node000017_Node000018" class="edge">
<title>Node17&#45;&gt;Node18</title>
<g id="a_edge22_Node000017_Node000018"><a xlink:title=" ">
<path fill="none" stroke="#63b8ff" d="M262.43,-54.95C253.48,-46.59 242.21,-36.05 232.9,-27.35"/>
<polygon fill="#63b8ff" stroke="#63b8ff" points="235.51,-25.01 225.82,-20.73 230.73,-30.12 235.51,-25.01"/>
</a>
</g>
</g>
<!-- Node19 -->
<g id="Node000019" class="node">
<title>Node19</title>
<g id="a_Node000019"><a xlink:title=" ">
<polygon fill="#e0e0e0" stroke="#999999" points="303.62,-19.25 252.38,-19.25 252.38,0 303.62,0 303.62,-19.25"/>
<text text-anchor="middle" x="278" y="-5.75" font-family="Helvetica,sans-Serif" font-size="10.00">ostream</text>
</a>
</g>
</g>
<!-- Node17&#45;&gt;Node19 -->
<g id="edge24_Node000017_Node000019" class="edge">
<title>Node17&#45;&gt;Node19</title>
<g id="a_edge24_Node000017_Node000019"><a xlink:title=" ">
<path fill="none" stroke="#63b8ff" d="M278,-54.95C278,-47.71 278,-38.84 278,-30.94"/>
<polygon fill="#63b8ff" stroke="#63b8ff" points="281.5,-31.21 278,-21.21 274.5,-31.21 281.5,-31.21"/>
</a>
</g>
</g>
<!-- Node20 -->
<g id="Node000020" class="node">
<title>Node20</title>
<g id="a_Node000020"><a xlink:title=" ">
<polygon fill="#e0e0e0" stroke="#999999" points="103.62,-19.25 58.38,-19.25 58.38,0 103.62,0 103.62,-19.25"/>
<text text-anchor="middle" x="81" y="-5.75" font-family="Helvetica,sans-Serif" font-size="10.00">variant</text>
</a>
</g>
</g>
<!-- Node17&#45;&gt;Node20 -->
<g id="edge26_Node000017_Node000020" class="edge">
<title>Node17&#45;&gt;Node20</title>
<g id="a_edge26_Node000017_Node000020"><a xlink:title=" ">
<path fill="none" stroke="#63b8ff" d="M228.8,-54.8C193.27,-44.18 146.22,-30.12 114.85,-20.74"/>
<polygon fill="#63b8ff" stroke="#63b8ff" points="116.08,-17.46 105.5,-17.95 114.08,-24.16 116.08,-17.46"/>
</a>
</g>
</g>
<!-- Node21&#45;&gt;Node4 -->
<g id="edge29_Node000021_Node000004" class="edge">
<title>Node21&#45;&gt;Node4</title>
<g id="a_edge29_Node000021_Node000004"><a xlink:title=" ">
<path fill="none" stroke="#63b8ff" d="M566.81,-60.43C557.71,-58.53 548.05,-56.67 539,-55.25 387.28,-31.43 344.12,-44.5 189.53,-19.46"/>
<polygon fill="#63b8ff" stroke="#63b8ff" points="190.14,-16.01 179.7,-17.84 189,-22.92 190.14,-16.01"/>
</a>
</g>
</g>
<!-- Node21&#45;&gt;Node5 -->
<g id="edge31_Node000021_Node000005" class="edge">
<title>Node21&#45;&gt;Node5</title>
<g id="a_edge31_Node000021_Node000005"><a xlink:title=" ">
<path fill="none" stroke="#63b8ff" d="M664.2,-61.79C724.52,-53.42 821.75,-38.87 914.55,-19.6"/>
<polygon fill="#63b8ff" stroke="#63b8ff" points="915.01,-23.08 924.07,-17.6 913.57,-16.23 915.01,-23.08"/>
</a>
</g>
</g>
<!-- Node21&#45;&gt;Node7 -->
<g id="edge34_Node000021_Node000007" class="edge">
<title>Node21&#45;&gt;Node7</title>
<g id="a_edge34_Node000021_Node000007"><a xlink:title=" ">
<path fill="none" stroke="#63b8ff" d="M567.54,-60.38C558.24,-58.44 548.3,-56.57 539,-55.25 326.51,-24.99 265.85,-57.46 51.77,-19.36"/>
<polygon fill="#63b8ff" stroke="#63b8ff" points="52.42,-15.92 41.95,-17.58 51.17,-22.81 52.42,-15.92"/>
</a>
</g>
</g>
<!-- Node21&#45;&gt;Node8 -->
<g id="edge36_Node000021_Node000008" class="edge">
<title>Node21&#45;&gt;Node8</title>
<g id="a_edge36_Node000021_Node000008"><a xlink:title=" ">
<path fill="none" stroke="#63b8ff" d="M575.5,-60.43C538.34,-49.38 475.92,-30.82 438.68,-19.75"/>
<polygon fill="#63b8ff" stroke="#63b8ff" points="440.02,-16.5 429.44,-17 438.03,-23.2 440.02,-16.5"/>
</a>
</g>
</g>
<!-- Node21&#45;&gt;Node9 -->
<g id="edge37_Node000021_Node000009" class="edge">
<title>Node21&#45;&gt;Node9</title>
<g id="a_edge37_Node000021_Node000009"><a xlink:title=" ">
<path fill="none" stroke="#63b8ff" d="M638.68,-60.39C672.41,-50.98 726.82,-35.75 782.31,-20"/>
<polygon fill="#63b8ff" stroke="#63b8ff" points="782.93,-23.47 791.59,-17.37 781.02,-16.73 782.93,-23.47"/>
</a>
</g>
</g>
<!-- Node21&#45;&gt;Node16 -->
<g id="edge33_Node000021_Node000016" class="edge">
<title>Node21&#45;&gt;Node16</title>
<g id="a_edge33_Node000021_Node000016"><a xlink:title=" ">
<path fill="none" stroke="#63b8ff" d="M651.67,-60.44C697.67,-51.2 770.96,-36.17 842.83,-19.92"/>
<polygon fill="#63b8ff" stroke="#63b8ff" points="843.44,-23.37 852.41,-17.74 841.89,-16.54 843.44,-23.37"/>
</a>
</g>
</g>
<!-- Node22 -->
<g id="Node000022" class="node">
<title>Node22</title>
<g id="a_Node000022"><a xlink:title=" ">
<polygon fill="#e0e0e0" stroke="#999999" points="775.62,-19.25 730.38,-19.25 730.38,0 775.62,0 775.62,-19.25"/>
<text text-anchor="middle" x="753" y="-5.75" font-family="Helvetica,sans-Serif" font-size="10.00">chrono</text>
</a>
</g>
</g>
<!-- Node21&#45;&gt;Node22 -->
<g id="edge30_Node000021_Node000022" class="edge">
<title>Node21&#45;&gt;Node22</title>
<g id="a_edge30_Node000021_Node000022"><a xlink:title=" ">
<path fill="none" stroke="#63b8ff" d="M628.65,-60.43C653.1,-50.63 692.3,-34.94 720.14,-23.79"/>
<polygon fill="#63b8ff" stroke="#63b8ff" points="721.18,-27.14 729.16,-20.17 718.58,-20.64 721.18,-27.14"/>
</a>
</g>
</g>
<!-- Node23 -->
<g id="Node000023" class="node">
<title>Node23</title>
<g id="a_Node000023"><a xlink:title=" ">
<polygon fill="#e0e0e0" stroke="#999999" points="495.88,-19.25 446.12,-19.25 446.12,0 495.88,0 495.88,-19.25"/>
<text text-anchor="middle" x="471" y="-5.75" font-family="Helvetica,sans-Serif" font-size="10.00">iomanip</text>
</a>
</g>
</g>
<!-- Node21&#45;&gt;Node23 -->
<g id="edge32_Node000021_Node000023" class="edge">
<title>Node21&#45;&gt;Node23</title>
<g id="a_edge32_Node000021_Node000023"><a xlink:title=" ">
<path fill="none" stroke="#63b8ff" d="M585.2,-60.43C562.94,-50.72 527.38,-35.21 501.86,-24.08"/>
<polygon fill="#63b8ff" stroke="#63b8ff" points="503.55,-21 492.99,-20.21 500.75,-27.42 503.55,-21"/>
</a>
</g>
</g>
<!-- Node24 -->
<g id="Node000024" class="node">
<title>Node24</title>
<g id="a_Node000024"><a xlink:title=" ">
<polygon fill="#e0e0e0" stroke="#999999" points="596.38,-19.25 513.62,-19.25 513.62,0 596.38,0 596.38,-19.25"/>
<text text-anchor="middle" x="555" y="-5.75" font-family="Helvetica,sans-Serif" font-size="10.00">unordered_map</text>
</a>
</g>
</g>
<!-- Node21&#45;&gt;Node24 -->
<g id="edge35_Node000021_Node000024" class="edge">
<title>Node21&#45;&gt;Node24</title>
<g id="a_edge35_Node000021_Node000024"><a xlink:title=" ">
<path fill="none" stroke="#63b8ff" d="M598.25,-60.56C590.84,-52 579.45,-38.85 570.22,-28.2"/>
<polygon fill="#63b8ff" stroke="#63b8ff" points="573,-26.06 563.81,-20.8 567.71,-30.65 573,-26.06"/>
</a>
</g>
</g>
<!-- Node25 -->
<g id="Node000025" class="node">
<title>Node25</title>
<g id="a_Node000025"><a xlink:title=" ">
<polygon fill="#e0e0e0" stroke="#999999" points="711.88,-19.25 614.12,-19.25 614.12,0 711.88,0 711.88,-19.25"/>
<text text-anchor="middle" x="663" y="-5.75" font-family="Helvetica,sans-Serif" font-size="10.00">nlohmann/json.hpp</text>
</a>
</g>
</g>
<!-- Node21&#45;&gt;Node25 -->
<g id="edge38_Node000021_Node000025" class="edge">
<title>Node21&#45;&gt;Node25</title>
<g id="a_edge38_Node000021_Node000025"><a xlink:title=" ">
<path fill="none" stroke="#63b8ff" d="M614.66,-60.56C623.03,-51.91 635.93,-38.59 646.3,-27.87"/>
<polygon fill="#63b8ff" stroke="#63b8ff" points="648.77,-30.36 653.21,-20.74 643.74,-25.49 648.77,-30.36"/>
</a>
</g>
</g>
</g>
</svg>
