<?xml version="1.0" encoding="UTF-8" standalone="no"?>
<!DOCTYPE svg PUBLIC "-//W3C//DTD SVG 1.1//EN"
 "http://www.w3.org/Graphics/SVG/1.1/DTD/svg11.dtd">
<!-- Generated by graphviz version 12.2.1 (20241206.2353)
 -->
<!-- Title: /Users/ilariomazzieri/Desktop/vulpes/vulpes/la/vector_block_utils.hpp Pages: 1 -->
<svg width="1544pt" height="393pt"
 viewBox="0.00 0.00 1543.88 392.50" xmlns="http://www.w3.org/2000/svg" xmlns:xlink="http://www.w3.org/1999/xlink">
<g id="graph0" class="graph" transform="scale(1 1) rotate(0) translate(4 388.5)">
<title>/Users/ilariomazzieri/Desktop/vulpes/vulpes/la/vector_block_utils.hpp</title>
<!-- Node1 -->
<g id="Node000001" class="node">
<title>Node1</title>
<g id="a_Node000001"><a xlink:title=" ">
<polygon fill="#999999" stroke="#666666" points="523.38,-384.5 396.38,-384.5 396.38,-342.75 523.38,-342.75 523.38,-384.5"/>
<text text-anchor="start" x="404.38" y="-371" font-family="Helvetica,sans-Serif" font-size="10.00">/Users/ilariomazzieri</text>
<text text-anchor="start" x="404.38" y="-359.75" font-family="Helvetica,sans-Serif" font-size="10.00">/Desktop/vulpes/vulpes</text>
<text text-anchor="middle" x="459.88" y="-348.5" font-family="Helvetica,sans-Serif" font-size="10.00">/la/vector_block_utils.hpp</text>
</a>
</g>
</g>
<!-- Node2 -->
<g id="Node000002" class="node">
<title>Node2</title>
<g id="a_Node000002"><a xlink:title=" ">
<polygon fill="#e0e0e0" stroke="#999999" points="804.88,-141 740.88,-141 740.88,-121.75 804.88,-121.75 804.88,-141"/>
<text text-anchor="middle" x="772.88" y="-127.5" font-family="Helvetica,sans-Serif" font-size="10.00">petscsys.h</text>
</a>
</g>
</g>
<!-- Node1&#45;&gt;Node2 -->
<g id="edge1_Node000001_Node000002" class="edge">
<title>Node1&#45;&gt;Node2</title>
<g id="a_edge1_Node000001_Node000002"><a xlink:title=" ">
<path fill="none" stroke="#63b8ff" d="M487.31,-342.29C500,-332.26 514.88,-319.59 526.88,-306.75 554.79,-276.87 549.91,-258.96 580.88,-232.25 628.31,-191.34 695.39,-161.36 736.41,-145.42"/>
<polygon fill="#63b8ff" stroke="#63b8ff" points="737.48,-148.76 745.59,-141.93 735,-142.21 737.48,-148.76"/>
</a>
</g>
</g>
<!-- Node3 -->
<g id="Node000003" class="node">
<title>Node3</title>
<g id="a_Node000003"><a xlink:title=" ">
<polygon fill="#e0e0e0" stroke="#999999" points="312.75,-19.25 275,-19.25 275,0 312.75,0 312.75,-19.25"/>
<text text-anchor="middle" x="293.88" y="-5.75" font-family="Helvetica,sans-Serif" font-size="10.00">array</text>
</a>
</g>
</g>
<!-- Node1&#45;&gt;Node3 -->
<g id="edge2_Node000001_Node000003" class="edge">
<title>Node1&#45;&gt;Node3</title>
<g id="a_edge2_Node000001_Node000003"><a xlink:title=" ">
<path fill="none" stroke="#63b8ff" d="M395.89,-352.58C336.06,-339.12 255.88,-308.79 255.88,-242.88 255.88,-242.88 255.88,-242.88 255.88,-130.38 255.88,-93.43 272.51,-52.95 283.77,-29.79"/>
<polygon fill="#63b8ff" stroke="#63b8ff" points="286.83,-31.48 288.22,-20.98 280.59,-28.32 286.83,-31.48"/>
</a>
</g>
</g>
<!-- Node4 -->
<g id="Node000004" class="node">
<title>Node4</title>
<g id="a_Node000004"><a xlink:title=" ">
<polygon fill="#e0e0e0" stroke="#999999" points="698,-19.25 649.75,-19.25 649.75,0 698,0 698,-19.25"/>
<text text-anchor="middle" x="673.88" y="-5.75" font-family="Helvetica,sans-Serif" font-size="10.00">cassert</text>
</a>
</g>
</g>
<!-- Node1&#45;&gt;Node4 -->
<g id="edge3_Node000001_Node000004" class="edge">
<title>Node1&#45;&gt;Node4</title>
<g id="a_edge3_Node000001_Node000004"><a xlink:title=" ">
<path fill="none" stroke="#63b8ff" d="M396.16,-345.11C365.83,-333.01 338.58,-314.23 350.88,-287.5 412.98,-152.47 577.03,-58.64 644.38,-24.68"/>
<polygon fill="#63b8ff" stroke="#63b8ff" points="645.57,-28 652.97,-20.42 642.46,-21.72 645.57,-28"/>
</a>
</g>
</g>
<!-- Node5 -->
<g id="Node000005" class="node">
<title>Node5</title>
<g id="a_Node000005"><a xlink:title=" ">
<polygon fill="#e0e0e0" stroke="#999999" points="403.38,-306.75 360.38,-306.75 360.38,-287.5 403.38,-287.5 403.38,-306.75"/>
<text text-anchor="middle" x="381.88" y="-293.25" font-family="Helvetica,sans-Serif" font-size="10.00">cmath</text>
</a>
</g>
</g>
<!-- Node1&#45;&gt;Node5 -->
<g id="edge4_Node000001_Node000005" class="edge">
<title>Node1&#45;&gt;Node5</title>
<g id="a_edge4_Node000001_Node000005"><a xlink:title=" ">
<path fill="none" stroke="#63b8ff" d="M435.62,-342.57C424.67,-333.51 411.89,-322.94 401.54,-314.39"/>
<polygon fill="#63b8ff" stroke="#63b8ff" points="403.95,-311.84 394.01,-308.16 399.49,-317.23 403.95,-311.84"/>
</a>
</g>
</g>
<!-- Node6 -->
<g id="Node000006" class="node">
<title>Node6</title>
<g id="a_Node000006"><a xlink:title=" ">
<polygon fill="#e0e0e0" stroke="#999999" points="436,-19.25 387.75,-19.25 387.75,0 436,0 436,-19.25"/>
<text text-anchor="middle" x="411.88" y="-5.75" font-family="Helvetica,sans-Serif" font-size="10.00">cstddef</text>
</a>
</g>
</g>
<!-- Node1&#45;&gt;Node6 -->
<g id="edge5_Node000001_Node000006" class="edge">
<title>Node1&#45;&gt;Node6</title>
<g id="a_edge5_Node000001_Node000006"><a xlink:title=" ">
<path fill="none" stroke="#63b8ff" d="M396.11,-349.77C369.01,-341.47 338.88,-328.08 317.88,-306.75 296.6,-285.14 293.88,-273.2 293.88,-242.88 293.88,-242.88 293.88,-242.88 293.88,-185.62 293.88,-116.96 357.1,-55.06 390.99,-26.8"/>
<polygon fill="#63b8ff" stroke="#63b8ff" points="392.95,-29.72 398.52,-20.7 388.54,-24.28 392.95,-29.72"/>
</a>
</g>
</g>
<!-- Node7 -->
<g id="Node000007" class="node">
<title>Node7</title>
<g id="a_Node000007"><a xlink:title=" ">
<polygon fill="#e0e0e0" stroke="#999999" points="517.88,-306.75 459.88,-306.75 459.88,-287.5 517.88,-287.5 517.88,-306.75"/>
<text text-anchor="middle" x="488.88" y="-293.25" font-family="Helvetica,sans-Serif" font-size="10.00">functional</text>
</a>
</g>
</g>
<!-- Node1&#45;&gt;Node7 -->
<g id="edge6_Node000001_Node000007" class="edge">
<title>Node1&#45;&gt;Node7</title>
<g id="a_edge6_Node000001_Node000007"><a xlink:title=" ">
<path fill="none" stroke="#63b8ff" d="M468.89,-342.57C472.47,-334.62 476.56,-325.51 480.11,-317.61"/>
<polygon fill="#63b8ff" stroke="#63b8ff" points="483.27,-319.13 484.18,-308.58 476.88,-316.26 483.27,-319.13"/>
</a>
</g>
</g>
<!-- Node8 -->
<g id="Node000008" class="node">
<title>Node8</title>
<g id="a_Node000008"><a xlink:title=" ">
<polygon fill="#e0e0e0" stroke="#999999" points="1471.62,-19.25 1418.12,-19.25 1418.12,0 1471.62,0 1471.62,-19.25"/>
<text text-anchor="middle" x="1444.88" y="-5.75" font-family="Helvetica,sans-Serif" font-size="10.00">iostream</text>
</a>
</g>
</g>
<!-- Node1&#45;&gt;Node8 -->
<g id="edge7_Node000001_Node000008" class="edge">
<title>Node1&#45;&gt;Node8</title>
<g id="a_edge7_Node000001_Node000008"><a xlink:title=" ">
<path fill="none" stroke="#63b8ff" d="M523.63,-362C749.47,-358.96 1497.88,-341.46 1497.88,-242.88 1497.88,-242.88 1497.88,-242.88 1497.88,-185.62 1497.88,-126.54 1469.85,-60.85 1454.56,-29.41"/>
<polygon fill="#63b8ff" stroke="#63b8ff" points="1457.86,-28.18 1450.26,-20.8 1451.6,-31.31 1457.86,-28.18"/>
</a>
</g>
</g>
<!-- Node9 -->
<g id="Node000009" class="node">
<title>Node9</title>
<g id="a_Node000009"><a xlink:title=" ">
<polygon fill="#e0e0e0" stroke="#999999" points="631.38,-19.25 588.38,-19.25 588.38,0 631.38,0 631.38,-19.25"/>
<text text-anchor="middle" x="609.88" y="-5.75" font-family="Helvetica,sans-Serif" font-size="10.00">vector</text>
</a>
</g>
</g>
<!-- Node1&#45;&gt;Node9 -->
<g id="edge8_Node000001_Node000009" class="edge">
<title>Node1&#45;&gt;Node9</title>
<g id="a_edge8_Node000001_Node000009"><a xlink:title=" ">
<path fill="none" stroke="#63b8ff" d="M453.55,-342.3C449.74,-327.05 446.41,-305.75 450.88,-287.5 478.56,-174.45 506.84,-151.78 571.88,-55.25 578.25,-45.79 586.33,-36.05 593.4,-28.1"/>
<polygon fill="#63b8ff" stroke="#63b8ff" points="595.89,-30.57 600.05,-20.82 590.72,-25.84 595.89,-30.57"/>
</a>
</g>
</g>
<!-- Node10 -->
<g id="Node000010" class="node">
<title>Node10</title>
<g id="a_Node000010"><a xlink:href="sparse__matrix_8hpp.html" target="_top" xlink:title=" ">
<polygon fill="white" stroke="#666666" points="789,-306.75 650.75,-306.75 650.75,-287.5 789,-287.5 789,-306.75"/>
<text text-anchor="middle" x="719.88" y="-293.25" font-family="Helvetica,sans-Serif" font-size="10.00">vulpes/la/sparse_matrix.hpp</text>
</a>
</g>
</g>
<!-- Node1&#45;&gt;Node10 -->
<g id="edge9_Node000001_Node000010" class="edge">
<title>Node1&#45;&gt;Node10</title>
<g id="a_edge9_Node000001_Node000010"><a xlink:title=" ">
<path fill="none" stroke="#63b8ff" d="M523.81,-346.76C569.68,-335.39 630.48,-320.3 672.15,-309.97"/>
<polygon fill="#63b8ff" stroke="#63b8ff" points="672.77,-313.42 681.63,-307.61 671.08,-306.62 672.77,-313.42"/>
</a>
</g>
</g>
<!-- Node29 -->
<g id="Node000029" class="node">
<title>Node29</title>
<g id="a_Node000029"><a xlink:href="vector_8hpp.html" target="_top" xlink:title=" ">
<polygon fill="white" stroke="#666666" points="1065.38,-251.5 962.38,-251.5 962.38,-232.25 1065.38,-232.25 1065.38,-251.5"/>
<text text-anchor="middle" x="1013.88" y="-238" font-family="Helvetica,sans-Serif" font-size="10.00">vulpes/la/vector.hpp</text>
</a>
</g>
</g>
<!-- Node1&#45;&gt;Node29 -->
<g id="edge71_Node000001_Node000029" class="edge">
<title>Node1&#45;&gt;Node29</title>
<g id="a_edge71_Node000001_Node000029"><a xlink:title=" ">
<path fill="none" stroke="#63b8ff" d="M523.56,-354.49C591.85,-345.22 703.24,-328.48 797.88,-306.75 861.38,-292.17 933.71,-269.51 976.49,-255.47"/>
<polygon fill="#63b8ff" stroke="#63b8ff" points="977.39,-258.86 985.78,-252.4 975.19,-252.21 977.39,-258.86"/>
</a>
</g>
</g>
<!-- Node10&#45;&gt;Node2 -->
<g id="edge11_Node000010_Node000002" class="edge">
<title>Node10&#45;&gt;Node2</title>
<g id="a_edge11_Node000010_Node000002"><a xlink:title=" ">
<path fill="none" stroke="#63b8ff" d="M718.18,-287.23C714.71,-266.69 708.49,-214.82 725.88,-177 731.04,-165.77 740.42,-155.96 749.46,-148.42"/>
<polygon fill="#63b8ff" stroke="#63b8ff" points="751.56,-151.22 757.35,-142.34 747.29,-145.67 751.56,-151.22"/>
</a>
</g>
</g>
<!-- Node10&#45;&gt;Node6 -->
<g id="edge12_Node000010_Node000006" class="edge">
<title>Node10&#45;&gt;Node6</title>
<g id="a_edge12_Node000010_Node000006"><a xlink:title=" ">
<path fill="none" stroke="#63b8ff" d="M651.91,-287.08C623.52,-280.71 591.48,-269.88 566.88,-251.5 525.48,-220.59 449.17,-81.17 421.89,-29.75"/>
<polygon fill="#63b8ff" stroke="#63b8ff" points="425.05,-28.23 417.29,-21.02 418.86,-31.5 425.05,-28.23"/>
</a>
</g>
</g>
<!-- Node10&#45;&gt;Node8 -->
<g id="edge13_Node000010_Node000008" class="edge">
<title>Node10&#45;&gt;Node8</title>
<g id="a_edge13_Node000010_Node000008"><a xlink:title=" ">
<path fill="none" stroke="#63b8ff" d="M789.43,-292.61C966.76,-282.73 1421.88,-251.17 1421.88,-187.62 1421.88,-187.62 1421.88,-187.62 1421.88,-130.38 1421.88,-94.66 1431.86,-54.02 1438.67,-30.45"/>
<polygon fill="#63b8ff" stroke="#63b8ff" points="1441.99,-31.56 1441.53,-20.98 1435.29,-29.54 1441.99,-31.56"/>
</a>
</g>
</g>
<!-- Node10&#45;&gt;Node9 -->
<g id="edge17_Node000010_Node000009" class="edge">
<title>Node10&#45;&gt;Node9</title>
<g id="a_edge17_Node000010_Node000009"><a xlink:title=" ">
<path fill="none" stroke="#63b8ff" d="M650.39,-290.8C624.26,-285.01 597,-273.62 580.88,-251.5 530.98,-183.08 577.33,-73.58 599.54,-29.71"/>
<polygon fill="#63b8ff" stroke="#63b8ff" points="602.59,-31.42 604.13,-20.94 596.39,-28.18 602.59,-31.42"/>
</a>
</g>
</g>
<!-- Node11 -->
<g id="Node000011" class="node">
<title>Node11</title>
<g id="a_Node000011"><a xlink:title=" ">
<polygon fill="#e0e0e0" stroke="#999999" points="654.25,-251.5 589.5,-251.5 589.5,-232.25 654.25,-232.25 654.25,-251.5"/>
<text text-anchor="middle" x="621.88" y="-238" font-family="Helvetica,sans-Serif" font-size="10.00">petscmat.h</text>
</a>
</g>
</g>
<!-- Node10&#45;&gt;Node11 -->
<g id="edge10_Node000010_Node000011" class="edge">
<title>Node10&#45;&gt;Node11</title>
<g id="a_edge10_Node000010_Node000011"><a xlink:title=" ">
<path fill="none" stroke="#63b8ff" d="M703.25,-287.09C688.19,-278.91 665.73,-266.71 648.22,-257.19"/>
<polygon fill="#63b8ff" stroke="#63b8ff" points="650.37,-254.37 639.91,-252.68 647.03,-260.52 650.37,-254.37"/>
</a>
</g>
</g>
<!-- Node12 -->
<g id="Node000012" class="node">
<title>Node12</title>
<g id="a_Node000012"><a xlink:title=" ">
<polygon fill="#e0e0e0" stroke="#999999" points="819.5,-196.25 768.25,-196.25 768.25,-177 819.5,-177 819.5,-196.25"/>
<text text-anchor="middle" x="793.88" y="-182.75" font-family="Helvetica,sans-Serif" font-size="10.00">memory</text>
</a>
</g>
</g>
<!-- Node10&#45;&gt;Node12 -->
<g id="edge14_Node000010_Node000012" class="edge">
<title>Node10&#45;&gt;Node12</title>
<g id="a_edge14_Node000010_Node000012"><a xlink:title=" ">
<path fill="none" stroke="#63b8ff" d="M734.08,-287.1C745.72,-279.05 761.85,-266.26 771.88,-251.5 780.86,-238.27 786.52,-221 789.84,-207.76"/>
<polygon fill="#63b8ff" stroke="#63b8ff" points="793.25,-208.55 792.02,-198.03 786.42,-207.03 793.25,-208.55"/>
</a>
</g>
</g>
<!-- Node13 -->
<g id="Node000013" class="node">
<title>Node13</title>
<g id="a_Node000013"><a xlink:title=" ">
<polygon fill="#e0e0e0" stroke="#999999" points="1529.88,-19.25 1489.88,-19.25 1489.88,0 1529.88,0 1529.88,-19.25"/>
<text text-anchor="middle" x="1509.88" y="-5.75" font-family="Helvetica,sans-Serif" font-size="10.00">string</text>
</a>
</g>
</g>
<!-- Node10&#45;&gt;Node13 -->
<g id="edge15_Node000010_Node000013" class="edge">
<title>Node10&#45;&gt;Node13</title>
<g id="a_edge15_Node000010_Node000013"><a xlink:title=" ">
<path fill="none" stroke="#63b8ff" d="M789.45,-294.14C986.78,-287.6 1535.88,-262.65 1535.88,-187.62 1535.88,-187.62 1535.88,-187.62 1535.88,-130.38 1535.88,-94.49 1524.59,-53.9 1516.89,-30.39"/>
<polygon fill="#63b8ff" stroke="#63b8ff" points="1520.2,-29.26 1513.66,-20.93 1513.57,-31.52 1520.2,-29.26"/>
</a>
</g>
</g>
<!-- Node14 -->
<g id="Node000014" class="node">
<title>Node14</title>
<g id="a_Node000014"><a xlink:title=" ">
<polygon fill="#e0e0e0" stroke="#999999" points="887.5,-19.25 848.25,-19.25 848.25,0 887.5,0 887.5,-19.25"/>
<text text-anchor="middle" x="867.88" y="-5.75" font-family="Helvetica,sans-Serif" font-size="10.00">utility</text>
</a>
</g>
</g>
<!-- Node10&#45;&gt;Node14 -->
<g id="edge16_Node000010_Node000014" class="edge">
<title>Node10&#45;&gt;Node14</title>
<g id="a_edge16_Node000010_Node000014"><a xlink:title=" ">
<path fill="none" stroke="#63b8ff" d="M716.95,-287.21C708.11,-258.35 685.01,-166.7 731.88,-121.75 780.42,-75.19 837.35,-138.67 878.88,-85.75 891.3,-69.91 884.98,-46.23 877.87,-29.7"/>
<polygon fill="#63b8ff" stroke="#63b8ff" points="881.15,-28.46 873.68,-20.95 874.84,-31.48 881.15,-28.46"/>
</a>
</g>
</g>
<!-- Node15 -->
<g id="Node000015" class="node">
<title>Node15</title>
<g id="a_Node000015"><a xlink:href="petsc__utils_8hpp.html" target="_top" xlink:title=" ">
<polygon fill="white" stroke="#666666" points="1075.88,-196.25 951.88,-196.25 951.88,-177 1075.88,-177 1075.88,-196.25"/>
<text text-anchor="middle" x="1013.88" y="-182.75" font-family="Helvetica,sans-Serif" font-size="10.00">vulpes/la/petsc_utils.hpp</text>
</a>
</g>
</g>
<!-- Node10&#45;&gt;Node15 -->
<g id="edge18_Node000010_Node000015" class="edge">
<title>Node10&#45;&gt;Node15</title>
<g id="a_edge18_Node000010_Node000015"><a xlink:title=" ">
<path fill="none" stroke="#63b8ff" d="M744.44,-287.06C796.53,-267.83 918.28,-222.9 978.65,-200.62"/>
<polygon fill="#63b8ff" stroke="#63b8ff" points="979.59,-204.01 987.76,-197.26 977.16,-197.44 979.59,-204.01"/>
</a>
</g>
</g>
<!-- Node16 -->
<g id="Node000016" class="node">
<title>Node16</title>
<g id="a_Node000016"><a xlink:href="mpi__wrappers_8hpp.html" target="_top" xlink:title=" ">
<polygon fill="white" stroke="#666666" points="1085.88,-141 937.88,-141 937.88,-121.75 1085.88,-121.75 1085.88,-141"/>
<text text-anchor="middle" x="1011.88" y="-127.5" font-family="Helvetica,sans-Serif" font-size="10.00">vulpes/utils/mpi_wrappers.hpp</text>
</a>
</g>
</g>
<!-- Node10&#45;&gt;Node16 -->
<g id="edge70_Node000010_Node000016" class="edge">
<title>Node10&#45;&gt;Node16</title>
<g id="a_edge70_Node000010_Node000016"><a xlink:title=" ">
<path fill="none" stroke="#63b8ff" d="M721.6,-287.06C726.57,-261.87 741.7,-191.9 758.88,-177 783.59,-155.56 863.05,-144.04 926.4,-138.11"/>
<polygon fill="#63b8ff" stroke="#63b8ff" points="926.47,-141.62 936.12,-137.24 925.85,-134.65 926.47,-141.62"/>
</a>
</g>
</g>
<!-- Node10&#45;&gt;Node29 -->
<g id="edge47_Node000010_Node000029" class="edge">
<title>Node10&#45;&gt;Node29</title>
<g id="a_edge47_Node000010_Node000029"><a xlink:title=" ">
<path fill="none" stroke="#63b8ff" d="M770.08,-287.03C820.61,-277.88 898.6,-263.75 952.71,-253.95"/>
<polygon fill="#63b8ff" stroke="#63b8ff" points="953.17,-257.43 962.39,-252.2 951.92,-250.54 953.17,-257.43"/>
</a>
</g>
</g>
<!-- Node31 -->
<g id="Node000031" class="node">
<title>Node31</title>
<g id="a_Node000031"><a xlink:href="qrule_8hpp.html" target="_top" xlink:title=" ">
<polygon fill="white" stroke="#666666" points="457.88,-141 321.88,-141 321.88,-121.75 457.88,-121.75 457.88,-141"/>
<text text-anchor="middle" x="389.88" y="-127.5" font-family="Helvetica,sans-Serif" font-size="10.00">vulpes/quadrature/qrule.hpp</text>
</a>
</g>
</g>
<!-- Node10&#45;&gt;Node31 -->
<g id="edge59_Node000010_Node000031" class="edge">
<title>Node10&#45;&gt;Node31</title>
<g id="a_edge59_Node000010_Node000031"><a xlink:title=" ">
<path fill="none" stroke="#63b8ff" d="M650.26,-291.33C607.64,-286.03 553.16,-274.9 509.88,-251.5 463.14,-226.24 422.51,-177.16 402.71,-150.56"/>
<polygon fill="#63b8ff" stroke="#63b8ff" points="405.56,-148.53 396.85,-142.49 399.89,-152.64 405.56,-148.53"/>
</a>
</g>
</g>
<!-- Node15&#45;&gt;Node2 -->
<g id="edge19_Node000015_Node000002" class="edge">
<title>Node15&#45;&gt;Node2</title>
<g id="a_edge19_Node000015_Node000002"><a xlink:title=" ">
<path fill="none" stroke="#63b8ff" d="M972.72,-176.53C929.19,-166.91 860.78,-151.8 816.38,-141.99"/>
<polygon fill="#63b8ff" stroke="#63b8ff" points="817.36,-138.62 806.84,-139.88 815.85,-145.45 817.36,-138.62"/>
</a>
</g>
</g>
<!-- Node15&#45;&gt;Node13 -->
<g id="edge20_Node000015_Node000013" class="edge">
<title>Node15&#45;&gt;Node13</title>
<g id="a_edge20_Node000015_Node000013"><a xlink:title=" ">
<path fill="none" stroke="#63b8ff" d="M1047.99,-176.55C1107.67,-160.35 1234.59,-124.53 1338.88,-85.75 1389.88,-66.78 1447.51,-40.39 1481.15,-24.47"/>
<polygon fill="#63b8ff" stroke="#63b8ff" points="1482.3,-27.8 1489.82,-20.34 1479.29,-21.48 1482.3,-27.8"/>
</a>
</g>
</g>
<!-- Node15&#45;&gt;Node16 -->
<g id="edge21_Node000015_Node000016" class="edge">
<title>Node15&#45;&gt;Node16</title>
<g id="a_edge21_Node000015_Node000016"><a xlink:title=" ">
<path fill="none" stroke="#63b8ff" d="M1013.54,-176.83C1013.3,-170.24 1012.95,-160.96 1012.63,-152.57"/>
<polygon fill="#63b8ff" stroke="#63b8ff" points="1016.14,-152.73 1012.27,-142.87 1009.15,-153 1016.14,-152.73"/>
</a>
</g>
</g>
<!-- Node16&#45;&gt;Node4 -->
<g id="edge24_Node000016_Node000004" class="edge">
<title>Node16&#45;&gt;Node4</title>
<g id="a_edge24_Node000016_Node000004"><a xlink:title=" ">
<path fill="none" stroke="#63b8ff" d="M937.5,-122C873.93,-114 787.97,-100.94 756.88,-85.75 728.73,-72 703.13,-45.79 688.02,-28.26"/>
<polygon fill="#63b8ff" stroke="#63b8ff" points="690.82,-26.15 681.73,-20.71 685.44,-30.63 690.82,-26.15"/>
</a>
</g>
</g>
<!-- Node16&#45;&gt;Node8 -->
<g id="edge25_Node000016_Node000008" class="edge">
<title>Node16&#45;&gt;Node8</title>
<g id="a_edge25_Node000016_Node000008"><a xlink:title=" ">
<path fill="none" stroke="#63b8ff" d="M1086.13,-124.07C1142.23,-117.94 1220.62,-106.42 1286.88,-85.75 1336.16,-70.38 1389.64,-42.3 1420.03,-25.17"/>
<polygon fill="#63b8ff" stroke="#63b8ff" points="1421.51,-28.36 1428.46,-20.35 1418.04,-22.28 1421.51,-28.36"/>
</a>
</g>
</g>
<!-- Node16&#45;&gt;Node9 -->
<g id="edge26_Node000016_Node000009" class="edge">
<title>Node16&#45;&gt;Node9</title>
<g id="a_edge26_Node000016_Node000009"><a xlink:title=" ">
<path fill="none" stroke="#63b8ff" d="M937.58,-123.72C862.73,-116.22 752.87,-102.82 713.88,-85.75 694.04,-77.07 693.3,-68.1 675.88,-55.25 662.08,-45.08 646.19,-34.3 633.45,-25.89"/>
<polygon fill="#63b8ff" stroke="#63b8ff" points="635.56,-23.09 625.28,-20.53 631.72,-28.94 635.56,-23.09"/>
</a>
</g>
</g>
<!-- Node17 -->
<g id="Node000017" class="node">
<title>Node17</title>
<g id="a_Node000017"><a xlink:title=" ">
<polygon fill="#e0e0e0" stroke="#999999" points="1031.88,-80.12 991.88,-80.12 991.88,-60.88 1031.88,-60.88 1031.88,-80.12"/>
<text text-anchor="middle" x="1011.88" y="-66.62" font-family="Helvetica,sans-Serif" font-size="10.00">mpi.h</text>
</a>
</g>
</g>
<!-- Node16&#45;&gt;Node17 -->
<g id="edge22_Node000016_Node000017" class="edge">
<title>Node16&#45;&gt;Node17</title>
<g id="a_edge22_Node000016_Node000017"><a xlink:title=" ">
<path fill="none" stroke="#63b8ff" d="M1011.88,-121.43C1011.88,-113.65 1011.88,-102.08 1011.88,-92.03"/>
<polygon fill="#63b8ff" stroke="#63b8ff" points="1015.38,-92.04 1011.88,-82.04 1008.38,-92.04 1015.38,-92.04"/>
</a>
</g>
</g>
<!-- Node18 -->
<g id="Node000018" class="node">
<title>Node18</title>
<g id="a_Node000018"><a xlink:title=" ">
<polygon fill="#e0e0e0" stroke="#999999" points="974,-80.12 925.75,-80.12 925.75,-60.88 974,-60.88 974,-80.12"/>
<text text-anchor="middle" x="949.88" y="-66.62" font-family="Helvetica,sans-Serif" font-size="10.00">petsc.h</text>
</a>
</g>
</g>
<!-- Node16&#45;&gt;Node18 -->
<g id="edge23_Node000016_Node000018" class="edge">
<title>Node16&#45;&gt;Node18</title>
<g id="a_edge23_Node000016_Node000018"><a xlink:title=" ">
<path fill="none" stroke="#63b8ff" d="M1002.46,-121.43C993.26,-112.7 979.04,-99.19 967.7,-88.43"/>
<polygon fill="#63b8ff" stroke="#63b8ff" points="970.14,-85.92 960.48,-81.57 965.32,-90.99 970.14,-85.92"/>
</a>
</g>
</g>
<!-- Node19 -->
<g id="Node000019" class="node">
<title>Node19</title>
<g id="a_Node000019"><a xlink:title=" ">
<polygon fill="#e0e0e0" stroke="#999999" points="1400,-19.25 1327.75,-19.25 1327.75,0 1400,0 1400,-19.25"/>
<text text-anchor="middle" x="1363.88" y="-5.75" font-family="Helvetica,sans-Serif" font-size="10.00">Eigen/Dense</text>
</a>
</g>
</g>
<!-- Node16&#45;&gt;Node19 -->
<g id="edge27_Node000016_Node000019" class="edge">
<title>Node16&#45;&gt;Node19</title>
<g id="a_edge27_Node000016_Node000019"><a xlink:title=" ">
<path fill="none" stroke="#63b8ff" d="M1086.15,-124.82C1134.58,-119.22 1198.31,-108.02 1250.88,-85.75 1272.45,-76.61 1274.43,-68.33 1293.88,-55.25 1308.93,-45.12 1326.11,-34.16 1339.68,-25.64"/>
<polygon fill="#63b8ff" stroke="#63b8ff" points="1341.35,-28.72 1347.98,-20.45 1337.64,-22.78 1341.35,-28.72"/>
</a>
</g>
</g>
<!-- Node20 -->
<g id="Node000020" class="node">
<title>Node20</title>
<g id="a_Node000020"><a xlink:href="crs__map_8hpp.html" target="_top" xlink:title=" ">
<polygon fill="white" stroke="#666666" points="870.12,-85.75 765.62,-85.75 765.62,-55.25 870.12,-55.25 870.12,-85.75"/>
<text text-anchor="start" x="773.62" y="-72.25" font-family="Helvetica,sans-Serif" font-size="10.00">vulpes/datastructure</text>
<text text-anchor="middle" x="817.88" y="-61" font-family="Helvetica,sans-Serif" font-size="10.00">/crs_map.hpp</text>
</a>
</g>
</g>
<!-- Node16&#45;&gt;Node20 -->
<g id="edge28_Node000016_Node000020" class="edge">
<title>Node16&#45;&gt;Node20</title>
<g id="a_edge28_Node000016_Node000020"><a xlink:title=" ">
<path fill="none" stroke="#63b8ff" d="M981.99,-121.3C954.17,-112.86 911.92,-100.04 877.26,-89.52"/>
<polygon fill="#63b8ff" stroke="#63b8ff" points="878.33,-86.19 867.74,-86.63 876.3,-92.89 878.33,-86.19"/>
</a>
</g>
</g>
<!-- Node24 -->
<g id="Node000024" class="node">
<title>Node24</title>
<g id="a_Node000024"><a xlink:href="profiler_8hpp.html" target="_top" xlink:title=" ">
<polygon fill="white" stroke="#666666" points="1241.75,-80.12 1126,-80.12 1126,-60.88 1241.75,-60.88 1241.75,-80.12"/>
<text text-anchor="middle" x="1183.88" y="-66.62" font-family="Helvetica,sans-Serif" font-size="10.00">vulpes/utils/profiler.hpp</text>
</a>
</g>
</g>
<!-- Node16&#45;&gt;Node24 -->
<g id="edge36_Node000016_Node000024" class="edge">
<title>Node16&#45;&gt;Node24</title>
<g id="a_edge36_Node000016_Node000024"><a xlink:title=" ">
<path fill="none" stroke="#63b8ff" d="M1038.37,-121.3C1067.41,-111.36 1114.21,-95.35 1146.86,-84.17"/>
<polygon fill="#63b8ff" stroke="#63b8ff" points="1147.59,-87.62 1155.91,-81.07 1145.32,-81 1147.59,-87.62"/>
</a>
</g>
</g>
<!-- Node20&#45;&gt;Node3 -->
<g id="edge30_Node000020_Node000003" class="edge">
<title>Node20&#45;&gt;Node3</title>
<g id="a_edge30_Node000020_Node000003"><a xlink:title=" ">
<path fill="none" stroke="#63b8ff" d="M765.23,-63.59C656.65,-51.39 410.79,-23.76 324.5,-14.07"/>
<polygon fill="#63b8ff" stroke="#63b8ff" points="325.02,-10.6 314.7,-12.96 324.24,-17.56 325.02,-10.6"/>
</a>
</g>
</g>
<!-- Node20&#45;&gt;Node4 -->
<g id="edge31_Node000020_Node000004" class="edge">
<title>Node20&#45;&gt;Node4</title>
<g id="a_edge31_Node000020_Node000004"><a xlink:title=" ">
<path fill="none" stroke="#63b8ff" d="M781.91,-54.8C758.71,-45.31 728.8,-33.08 706.33,-23.89"/>
<polygon fill="#63b8ff" stroke="#63b8ff" points="707.94,-20.77 697.36,-20.23 705.29,-27.25 707.94,-20.77"/>
</a>
</g>
</g>
<!-- Node20&#45;&gt;Node9 -->
<g id="edge35_Node000020_Node000009" class="edge">
<title>Node20&#45;&gt;Node9</title>
<g id="a_edge35_Node000020_Node000009"><a xlink:title=" ">
<path fill="none" stroke="#63b8ff" d="M765.92,-54.8C727.28,-43.86 675.72,-29.26 642.65,-19.9"/>
<polygon fill="#63b8ff" stroke="#63b8ff" points="643.81,-16.59 633.24,-17.24 641.9,-23.33 643.81,-16.59"/>
</a>
</g>
</g>
<!-- Node20&#45;&gt;Node14 -->
<g id="edge33_Node000020_Node000014" class="edge">
<title>Node20&#45;&gt;Node14</title>
<g id="a_edge33_Node000020_Node000014"><a xlink:title=" ">
<path fill="none" stroke="#63b8ff" d="M830.23,-54.95C837.04,-46.93 845.55,-36.92 852.75,-28.44"/>
<polygon fill="#63b8ff" stroke="#63b8ff" points="855.38,-30.74 859.19,-20.85 850.05,-26.21 855.38,-30.74"/>
</a>
</g>
</g>
<!-- Node21 -->
<g id="Node000021" class="node">
<title>Node21</title>
<g id="a_Node000021"><a xlink:title=" ">
<polygon fill="#e0e0e0" stroke="#999999" points="961.75,-19.25 906,-19.25 906,0 961.75,0 961.75,-19.25"/>
<text text-anchor="middle" x="933.88" y="-5.75" font-family="Helvetica,sans-Serif" font-size="10.00">algorithm</text>
</a>
</g>
</g>
<!-- Node20&#45;&gt;Node21 -->
<g id="edge29_Node000020_Node000021" class="edge">
<title>Node20&#45;&gt;Node21</title>
<g id="a_edge29_Node000020_Node000021"><a xlink:title=" ">
<path fill="none" stroke="#63b8ff" d="M846.85,-54.8C864.94,-45.61 888.1,-33.86 905.99,-24.78"/>
<polygon fill="#63b8ff" stroke="#63b8ff" points="907.4,-27.99 914.74,-20.34 904.23,-21.74 907.4,-27.99"/>
</a>
</g>
</g>
<!-- Node22 -->
<g id="Node000022" class="node">
<title>Node22</title>
<g id="a_Node000022"><a xlink:title=" ">
<polygon fill="#e0e0e0" stroke="#999999" points="830.5,-19.25 779.25,-19.25 779.25,0 830.5,0 830.5,-19.25"/>
<text text-anchor="middle" x="804.88" y="-5.75" font-family="Helvetica,sans-Serif" font-size="10.00">ostream</text>
</a>
</g>
</g>
<!-- Node20&#45;&gt;Node22 -->
<g id="edge32_Node000020_Node000022" class="edge">
<title>Node20&#45;&gt;Node22</title>
<g id="a_edge32_Node000020_Node000022"><a xlink:title=" ">
<path fill="none" stroke="#63b8ff" d="M814.66,-54.95C813.06,-47.71 811.1,-38.84 809.36,-30.94"/>
<polygon fill="#63b8ff" stroke="#63b8ff" points="812.78,-30.19 807.21,-21.18 805.94,-31.7 812.78,-30.19"/>
</a>
</g>
</g>
<!-- Node23 -->
<g id="Node000023" class="node">
<title>Node23</title>
<g id="a_Node000023"><a xlink:title=" ">
<polygon fill="#e0e0e0" stroke="#999999" points="761.5,-19.25 716.25,-19.25 716.25,0 761.5,0 761.5,-19.25"/>
<text text-anchor="middle" x="738.88" y="-5.75" font-family="Helvetica,sans-Serif" font-size="10.00">variant</text>
</a>
</g>
</g>
<!-- Node20&#45;&gt;Node23 -->
<g id="edge34_Node000020_Node000023" class="edge">
<title>Node20&#45;&gt;Node23</title>
<g id="a_edge34_Node000020_Node000023"><a xlink:title=" ">
<path fill="none" stroke="#63b8ff" d="M798.35,-54.95C786.78,-46.33 772.12,-35.4 760.24,-26.55"/>
<polygon fill="#63b8ff" stroke="#63b8ff" points="762.38,-23.77 752.27,-20.61 758.19,-29.39 762.38,-23.77"/>
</a>
</g>
</g>
<!-- Node24&#45;&gt;Node6 -->
<g id="edge39_Node000024_Node000006" class="edge">
<title>Node24&#45;&gt;Node6</title>
<g id="a_edge39_Node000024_Node000006"><a xlink:title=" ">
<path fill="none" stroke="#63b8ff" d="M1125.81,-63.34C1099.84,-60.68 1068.84,-57.64 1040.88,-55.25 815.45,-36.03 544.07,-18.76 447.84,-12.82"/>
<polygon fill="#63b8ff" stroke="#63b8ff" points="448.18,-9.33 437.98,-12.21 447.75,-16.32 448.18,-9.33"/>
</a>
</g>
</g>
<!-- Node24&#45;&gt;Node8 -->
<g id="edge41_Node000024_Node000008" class="edge">
<title>Node24&#45;&gt;Node8</title>
<g id="a_edge41_Node000024_Node000008"><a xlink:title=" ">
<path fill="none" stroke="#63b8ff" d="M1225.39,-60.43C1268.28,-51.01 1337.45,-35.71 1406.66,-19.74"/>
<polygon fill="#63b8ff" stroke="#63b8ff" points="1407.33,-23.17 1416.28,-17.51 1405.75,-16.35 1407.33,-23.17"/>
</a>
</g>
</g>
<!-- Node24&#45;&gt;Node9 -->
<g id="edge45_Node000024_Node000009" class="edge">
<title>Node24&#45;&gt;Node9</title>
<g id="a_edge45_Node000024_Node000009"><a xlink:title=" ">
<path fill="none" stroke="#63b8ff" d="M1125.79,-63.58C1099.82,-60.97 1068.82,-57.9 1040.88,-55.25 866.82,-38.75 818.44,-50.79 642.97,-19.29"/>
<polygon fill="#63b8ff" stroke="#63b8ff" points="643.73,-15.87 633.26,-17.52 642.48,-22.75 643.73,-15.87"/>
</a>
</g>
</g>
<!-- Node24&#45;&gt;Node13 -->
<g id="edge42_Node000024_Node000013" class="edge">
<title>Node24&#45;&gt;Node13</title>
<g id="a_edge42_Node000024_Node000013"><a xlink:title=" ">
<path fill="none" stroke="#63b8ff" d="M1242.06,-61.79C1299.77,-53.66 1390.88,-39.56 1478.46,-19.57"/>
<polygon fill="#63b8ff" stroke="#63b8ff" points="1479.25,-22.98 1488.2,-17.31 1477.67,-16.16 1479.25,-22.98"/>
</a>
</g>
</g>
<!-- Node24&#45;&gt;Node14 -->
<g id="edge44_Node000024_Node000014" class="edge">
<title>Node24&#45;&gt;Node14</title>
<g id="a_edge44_Node000024_Node000014"><a xlink:title=" ">
<path fill="none" stroke="#63b8ff" d="M1125.76,-61.34C1069.94,-53.06 983.08,-38.98 898.82,-19.47"/>
<polygon fill="#63b8ff" stroke="#63b8ff" points="899.77,-16.09 889.24,-17.22 898.17,-22.91 899.77,-16.09"/>
</a>
</g>
</g>
<!-- Node24&#45;&gt;Node21 -->
<g id="edge37_Node000024_Node000021" class="edge">
<title>Node24&#45;&gt;Node21</title>
<g id="a_edge37_Node000024_Node000021"><a xlink:title=" ">
<path fill="none" stroke="#63b8ff" d="M1145.36,-60.43C1098.54,-49.4 1019.98,-30.9 972.92,-19.82"/>
<polygon fill="#63b8ff" stroke="#63b8ff" points="973.97,-16.47 963.43,-17.59 972.36,-23.29 973.97,-16.47"/>
</a>
</g>
</g>
<!-- Node25 -->
<g id="Node000025" class="node">
<title>Node25</title>
<g id="a_Node000025"><a xlink:title=" ">
<polygon fill="#e0e0e0" stroke="#999999" points="1309.5,-19.25 1264.25,-19.25 1264.25,0 1309.5,0 1309.5,-19.25"/>
<text text-anchor="middle" x="1286.88" y="-5.75" font-family="Helvetica,sans-Serif" font-size="10.00">chrono</text>
</a>
</g>
</g>
<!-- Node24&#45;&gt;Node25 -->
<g id="edge38_Node000024_Node000025" class="edge">
<title>Node24&#45;&gt;Node25</title>
<g id="a_edge38_Node000024_Node000025"><a xlink:title=" ">
<path fill="none" stroke="#63b8ff" d="M1199.52,-60.56C1215.85,-51.22 1241.74,-36.42 1261.1,-25.36"/>
<polygon fill="#63b8ff" stroke="#63b8ff" points="1262.83,-28.4 1269.77,-20.4 1259.35,-22.33 1262.83,-28.4"/>
</a>
</g>
</g>
<!-- Node26 -->
<g id="Node000026" class="node">
<title>Node26</title>
<g id="a_Node000026"><a xlink:title=" ">
<polygon fill="#e0e0e0" stroke="#999999" points="1029.75,-19.25 980,-19.25 980,0 1029.75,0 1029.75,-19.25"/>
<text text-anchor="middle" x="1004.88" y="-5.75" font-family="Helvetica,sans-Serif" font-size="10.00">iomanip</text>
</a>
</g>
</g>
<!-- Node24&#45;&gt;Node26 -->
<g id="edge40_Node000024_Node000026" class="edge">
<title>Node24&#45;&gt;Node26</title>
<g id="a_edge40_Node000024_Node000026"><a xlink:title=" ">
<path fill="none" stroke="#63b8ff" d="M1156.3,-60.43C1125.37,-50.26 1075.1,-33.72 1041.04,-22.52"/>
<polygon fill="#63b8ff" stroke="#63b8ff" points="1042.2,-19.22 1031.6,-19.42 1040.01,-25.87 1042.2,-19.22"/>
</a>
</g>
</g>
<!-- Node27 -->
<g id="Node000027" class="node">
<title>Node27</title>
<g id="a_Node000027"><a xlink:title=" ">
<polygon fill="#e0e0e0" stroke="#999999" points="1130.25,-19.25 1047.5,-19.25 1047.5,0 1130.25,0 1130.25,-19.25"/>
<text text-anchor="middle" x="1088.88" y="-5.75" font-family="Helvetica,sans-Serif" font-size="10.00">unordered_map</text>
</a>
</g>
</g>
<!-- Node24&#45;&gt;Node27 -->
<g id="edge43_Node000024_Node000027" class="edge">
<title>Node24&#45;&gt;Node27</title>
<g id="a_edge43_Node000024_Node000027"><a xlink:title=" ">
<path fill="none" stroke="#63b8ff" d="M1169.45,-60.56C1154.52,-51.31 1130.94,-36.7 1113.14,-25.67"/>
<polygon fill="#63b8ff" stroke="#63b8ff" points="1115.07,-22.74 1104.73,-20.45 1111.38,-28.69 1115.07,-22.74"/>
</a>
</g>
</g>
<!-- Node28 -->
<g id="Node000028" class="node">
<title>Node28</title>
<g id="a_Node000028"><a xlink:title=" ">
<polygon fill="#e0e0e0" stroke="#999999" points="1245.75,-19.25 1148,-19.25 1148,0 1245.75,0 1245.75,-19.25"/>
<text text-anchor="middle" x="1196.88" y="-5.75" font-family="Helvetica,sans-Serif" font-size="10.00">nlohmann/json.hpp</text>
</a>
</g>
</g>
<!-- Node24&#45;&gt;Node28 -->
<g id="edge46_Node000024_Node000028" class="edge">
<title>Node24&#45;&gt;Node28</title>
<g id="a_edge46_Node000024_Node000028"><a xlink:title=" ">
<path fill="none" stroke="#63b8ff" d="M1185.85,-60.56C1187.59,-52.69 1190.18,-40.95 1192.41,-30.82"/>
<polygon fill="#63b8ff" stroke="#63b8ff" points="1195.82,-31.65 1194.56,-21.13 1188.98,-30.14 1195.82,-31.65"/>
</a>
</g>
</g>
<!-- Node29&#45;&gt;Node2 -->
<g id="edge48_Node000029_Node000002" class="edge">
<title>Node29&#45;&gt;Node2</title>
<g id="a_edge48_Node000029_Node000002"><a xlink:title=" ">
<path fill="none" stroke="#63b8ff" d="M975.46,-231.8C946.28,-224.2 905.56,-212.06 871.88,-196.25 843.18,-182.78 812.94,-162.21 793.55,-148.07"/>
<polygon fill="#63b8ff" stroke="#63b8ff" points="795.8,-145.38 785.68,-142.24 791.63,-151 795.8,-145.38"/>
</a>
</g>
</g>
<!-- Node29&#45;&gt;Node6 -->
<g id="edge51_Node000029_Node000006" class="edge">
<title>Node29&#45;&gt;Node6</title>
<g id="a_edge51_Node000029_Node000006"><a xlink:title=" ">
<path fill="none" stroke="#63b8ff" d="M992.06,-231.78C972.66,-223.39 943.75,-210.17 919.88,-196.25 870.13,-167.24 866.76,-144.53 813.88,-121.75 740.14,-90 714.42,-106.5 636.88,-85.75 568.44,-67.44 490.38,-39.81 446.53,-23.66"/>
<polygon fill="#63b8ff" stroke="#63b8ff" points="447.9,-20.44 437.31,-20.24 445.47,-27 447.9,-20.44"/>
</a>
</g>
</g>
<!-- Node29&#45;&gt;Node9 -->
<g id="edge55_Node000029_Node000009" class="edge">
<title>Node29&#45;&gt;Node9</title>
<g id="a_edge55_Node000029_Node000009"><a xlink:title=" ">
<path fill="none" stroke="#63b8ff" d="M997.09,-231.78C982.23,-223.39 960.27,-210.17 942.88,-196.25 906.44,-167.09 910.13,-143.57 868.88,-121.75 791.75,-80.95 751.72,-128.89 675.88,-85.75 652.01,-72.17 632.44,-46.69 620.97,-29.2"/>
<polygon fill="#63b8ff" stroke="#63b8ff" points="623.98,-27.42 615.71,-20.81 618.05,-31.14 623.98,-27.42"/>
</a>
</g>
</g>
<!-- Node29&#45;&gt;Node12 -->
<g id="edge52_Node000029_Node000012" class="edge">
<title>Node29&#45;&gt;Node12</title>
<g id="a_edge52_Node000029_Node000012"><a xlink:title=" ">
<path fill="none" stroke="#63b8ff" d="M976.55,-231.84C935.97,-222.02 871.48,-206.41 830.98,-196.6"/>
<polygon fill="#63b8ff" stroke="#63b8ff" points="831.99,-193.25 821.45,-194.3 830.34,-200.05 831.99,-193.25"/>
</a>
</g>
</g>
<!-- Node29&#45;&gt;Node13 -->
<g id="edge53_Node000029_Node000013" class="edge">
<title>Node29&#45;&gt;Node13</title>
<g id="a_edge53_Node000029_Node000013"><a xlink:title=" ">
<path fill="none" stroke="#63b8ff" d="M1065.52,-240.6C1158.28,-239.21 1348.54,-231.93 1402.88,-196.25 1463.48,-156.45 1493.82,-69.66 1504.86,-30.5"/>
<polygon fill="#63b8ff" stroke="#63b8ff" points="1508.18,-31.6 1507.38,-21.04 1501.42,-29.79 1508.18,-31.6"/>
</a>
</g>
</g>
<!-- Node29&#45;&gt;Node14 -->
<g id="edge54_Node000029_Node000014" class="edge">
<title>Node29&#45;&gt;Node14</title>
<g id="a_edge54_Node000029_Node000014"><a xlink:title=" ">
<path fill="none" stroke="#63b8ff" d="M1050.66,-231.84C1069.15,-225.24 1089.9,-214.21 1100.88,-196.25 1108.14,-184.36 1106.93,-150.65 1094.88,-121.75 1087.55,-104.18 1056.93,-65.47 1040.88,-55.25 988.16,-21.69 963.2,-35.03 898.92,-19.55"/>
<polygon fill="#63b8ff" stroke="#63b8ff" points="899.83,-16.17 889.28,-17.06 898.08,-22.94 899.83,-16.17"/>
</a>
</g>
</g>
<!-- Node29&#45;&gt;Node15 -->
<g id="edge57_Node000029_Node000015" class="edge">
<title>Node29&#45;&gt;Node15</title>
<g id="a_edge57_Node000029_Node000015"><a xlink:title=" ">
<path fill="none" stroke="#63b8ff" d="M1013.88,-232.08C1013.88,-225.57 1013.88,-216.42 1013.88,-208.12"/>
<polygon fill="#63b8ff" stroke="#63b8ff" points="1017.38,-208.12 1013.88,-198.12 1010.38,-208.12 1017.38,-208.12"/>
</a>
</g>
</g>
<!-- Node29&#45;&gt;Node16 -->
<g id="edge58_Node000029_Node000016" class="edge">
<title>Node29&#45;&gt;Node16</title>
<g id="a_edge58_Node000029_Node000016"><a xlink:title=" ">
<path fill="none" stroke="#63b8ff" d="M1038.56,-231.84C1064.08,-220.98 1098.42,-201.15 1084.88,-177 1077.18,-163.27 1063.34,-153.26 1049.77,-146.24"/>
<polygon fill="#63b8ff" stroke="#63b8ff" points="1051.46,-143.17 1040.92,-142.09 1048.48,-149.51 1051.46,-143.17"/>
</a>
</g>
</g>
<!-- Node29&#45;&gt;Node19 -->
<g id="edge56_Node000029_Node000019" class="edge">
<title>Node29&#45;&gt;Node19</title>
<g id="a_edge56_Node000029_Node000019"><a xlink:title=" ">
<path fill="none" stroke="#63b8ff" d="M1065.83,-232.85C1097.93,-226.32 1139.11,-215.03 1171.88,-196.25 1250.93,-150.95 1321.76,-65.81 1350.4,-28.69"/>
<polygon fill="#63b8ff" stroke="#63b8ff" points="1353.15,-30.85 1356.42,-20.78 1347.58,-26.62 1353.15,-30.85"/>
</a>
</g>
</g>
<!-- Node29&#45;&gt;Node21 -->
<g id="edge50_Node000029_Node000021" class="edge">
<title>Node29&#45;&gt;Node21</title>
<g id="a_edge50_Node000029_Node000021"><a xlink:title=" ">
<path fill="none" stroke="#63b8ff" d="M1065.57,-239.2C1097.16,-235.16 1135.31,-224.27 1155.88,-196.25 1167.33,-180.64 1155.02,-144.58 1141.88,-121.75 1120.78,-85.12 1110.1,-77.03 1073.88,-55.25 1056.76,-44.96 1008.22,-30.57 973.09,-20.94"/>
<polygon fill="#63b8ff" stroke="#63b8ff" points="974.24,-17.62 963.67,-18.38 972.41,-24.38 974.24,-17.62"/>
</a>
</g>
</g>
<!-- Node30 -->
<g id="Node000030" class="node">
<title>Node30</title>
<g id="a_Node000030"><a xlink:title=" ">
<polygon fill="#e0e0e0" stroke="#999999" points="1393.88,-196.25 1329.88,-196.25 1329.88,-177 1393.88,-177 1393.88,-196.25"/>
<text text-anchor="middle" x="1361.88" y="-182.75" font-family="Helvetica,sans-Serif" font-size="10.00">petscvec.h</text>
</a>
</g>
</g>
<!-- Node29&#45;&gt;Node30 -->
<g id="edge49_Node000029_Node000030" class="edge">
<title>Node29&#45;&gt;Node30</title>
<g id="a_edge49_Node000029_Node000030"><a xlink:title=" ">
<path fill="none" stroke="#63b8ff" d="M1065.81,-233.82C1126.05,-225.5 1228.32,-210.92 1315.88,-196.25 1316.72,-196.11 1317.57,-195.97 1318.42,-195.82"/>
<polygon fill="#63b8ff" stroke="#63b8ff" points="1319.01,-199.27 1328.24,-194.08 1317.79,-192.38 1319.01,-199.27"/>
</a>
</g>
</g>
<!-- Node31&#45;&gt;Node3 -->
<g id="edge60_Node000031_Node000003" class="edge">
<title>Node31&#45;&gt;Node3</title>
<g id="a_edge60_Node000031_Node000003"><a xlink:title=" ">
<path fill="none" stroke="#63b8ff" d="M382.66,-121.37C366.88,-101.7 329.07,-54.53 308.24,-28.55"/>
<polygon fill="#63b8ff" stroke="#63b8ff" points="311.11,-26.52 302.12,-20.91 305.65,-30.9 311.11,-26.52"/>
</a>
</g>
</g>
<!-- Node31&#45;&gt;Node6 -->
<g id="edge61_Node000031_Node000006" class="edge">
<title>Node31&#45;&gt;Node6</title>
<g id="a_edge61_Node000031_Node000006"><a xlink:title=" ">
<path fill="none" stroke="#63b8ff" d="M391.53,-121.37C395.03,-102.3 403.28,-57.41 408.13,-31.01"/>
<polygon fill="#63b8ff" stroke="#63b8ff" points="411.56,-31.69 409.93,-21.22 404.68,-30.42 411.56,-31.69"/>
</a>
</g>
</g>
<!-- Node31&#45;&gt;Node9 -->
<g id="edge62_Node000031_Node000009" class="edge">
<title>Node31&#45;&gt;Node9</title>
<g id="a_edge62_Node000031_Node000009"><a xlink:title=" ">
<path fill="none" stroke="#63b8ff" d="M406.41,-121.37C444.24,-100.79 537.34,-50.11 583.31,-25.08"/>
<polygon fill="#63b8ff" stroke="#63b8ff" points="584.71,-28.31 591.82,-20.45 581.36,-22.16 584.71,-28.31"/>
</a>
</g>
</g>
<!-- Node32 -->
<g id="Node000032" class="node">
<title>Node32</title>
<g id="a_Node000032"><a xlink:href="vmath_8hpp.html" target="_top" xlink:title=" ">
<polygon fill="white" stroke="#666666" points="228,-80.12 113.75,-80.12 113.75,-60.88 228,-60.88 228,-80.12"/>
<text text-anchor="middle" x="170.88" y="-66.62" font-family="Helvetica,sans-Serif" font-size="10.00">vulpes/utils/vmath.hpp</text>
</a>
</g>
</g>
<!-- Node31&#45;&gt;Node32 -->
<g id="edge63_Node000031_Node000032" class="edge">
<title>Node31&#45;&gt;Node32</title>
<g id="a_edge63_Node000031_Node000032"><a xlink:title=" ">
<path fill="none" stroke="#63b8ff" d="M356.14,-121.3C318.44,-111.17 257.24,-94.72 215.58,-83.52"/>
<polygon fill="#63b8ff" stroke="#63b8ff" points="216.68,-80.19 206.11,-80.97 214.86,-86.95 216.68,-80.19"/>
</a>
</g>
</g>
<!-- Node32&#45;&gt;Node6 -->
<g id="edge65_Node000032_Node000006" class="edge">
<title>Node32&#45;&gt;Node6</title>
<g id="a_edge65_Node000032_Node000006"><a xlink:title=" ">
<path fill="none" stroke="#63b8ff" d="M208,-60.43C253.92,-49.21 331.5,-30.26 376.56,-19.25"/>
<polygon fill="#63b8ff" stroke="#63b8ff" points="377.19,-22.7 386.08,-16.93 375.53,-15.9 377.19,-22.7"/>
</a>
</g>
</g>
<!-- Node32&#45;&gt;Node19 -->
<g id="edge69_Node000032_Node000019" class="edge">
<title>Node32&#45;&gt;Node19</title>
<g id="a_edge69_Node000032_Node000019"><a xlink:title=" ">
<path fill="none" stroke="#63b8ff" d="M228.41,-68.09C426.82,-63.06 1082.54,-44.99 1316.45,-19.32"/>
<polygon fill="#63b8ff" stroke="#63b8ff" points="1316.55,-22.83 1326.09,-18.22 1315.76,-15.87 1316.55,-22.83"/>
</a>
</g>
</g>
<!-- Node33 -->
<g id="Node000033" class="node">
<title>Node33</title>
<g id="a_Node000033"><a xlink:title=" ">
<polygon fill="#e0e0e0" stroke="#999999" points="133.62,-19.25 80.12,-19.25 80.12,0 133.62,0 133.62,-19.25"/>
<text text-anchor="middle" x="106.88" y="-5.75" font-family="Helvetica,sans-Serif" font-size="10.00">gmpxx.h</text>
</a>
</g>
</g>
<!-- Node32&#45;&gt;Node33 -->
<g id="edge64_Node000032_Node000033" class="edge">
<title>Node32&#45;&gt;Node33</title>
<g id="a_edge64_Node000032_Node000033"><a xlink:title=" ">
<path fill="none" stroke="#63b8ff" d="M161.15,-60.56C151.57,-51.74 136.69,-38.05 124.93,-27.23"/>
<polygon fill="#63b8ff" stroke="#63b8ff" points="127.53,-24.87 117.8,-20.68 122.79,-30.02 127.53,-24.87"/>
</a>
</g>
</g>
<!-- Node34 -->
<g id="Node000034" class="node">
<title>Node34</title>
<g id="a_Node000034"><a xlink:title=" ">
<polygon fill="#e0e0e0" stroke="#999999" points="196.5,-19.25 151.25,-19.25 151.25,0 196.5,0 196.5,-19.25"/>
<text text-anchor="middle" x="173.88" y="-5.75" font-family="Helvetica,sans-Serif" font-size="10.00">cstdint</text>
</a>
</g>
</g>
<!-- Node32&#45;&gt;Node34 -->
<g id="edge66_Node000032_Node000034" class="edge">
<title>Node32&#45;&gt;Node34</title>
<g id="a_edge66_Node000032_Node000034"><a xlink:title=" ">
<path fill="none" stroke="#63b8ff" d="M171.33,-60.56C171.73,-52.69 172.33,-40.95 172.85,-30.82"/>
<polygon fill="#63b8ff" stroke="#63b8ff" points="176.32,-31.33 173.34,-21.16 169.33,-30.97 176.32,-31.33"/>
</a>
</g>
</g>
<!-- Node35 -->
<g id="Node000035" class="node">
<title>Node35</title>
<g id="a_Node000035"><a xlink:title=" ">
<polygon fill="#e0e0e0" stroke="#999999" points="253.5,-19.25 214.25,-19.25 214.25,0 253.5,0 253.5,-19.25"/>
<text text-anchor="middle" x="233.88" y="-5.75" font-family="Helvetica,sans-Serif" font-size="10.00">limits</text>
</a>
</g>
</g>
<!-- Node32&#45;&gt;Node35 -->
<g id="edge67_Node000032_Node000035" class="edge">
<title>Node32&#45;&gt;Node35</title>
<g id="a_edge67_Node000032_Node000035"><a xlink:title=" ">
<path fill="none" stroke="#63b8ff" d="M180.44,-60.56C189.88,-51.74 204.53,-38.05 216.1,-27.23"/>
<polygon fill="#63b8ff" stroke="#63b8ff" points="218.19,-30.07 223.11,-20.68 213.41,-24.96 218.19,-30.07"/>
</a>
</g>
</g>
<!-- Node36 -->
<g id="Node000036" class="node">
<title>Node36</title>
<g id="a_Node000036"><a xlink:title=" ">
<polygon fill="#e0e0e0" stroke="#999999" points="61.75,-19.25 0,-19.25 0,0 61.75,0 61.75,-19.25"/>
<text text-anchor="middle" x="30.88" y="-5.75" font-family="Helvetica,sans-Serif" font-size="10.00">type_traits</text>
</a>
</g>
</g>
<!-- Node32&#45;&gt;Node36 -->
<g id="edge68_Node000032_Node000036" class="edge">
<title>Node32&#45;&gt;Node36</title>
<g id="a_edge68_Node000032_Node000036"><a xlink:title=" ">
<path fill="none" stroke="#63b8ff" d="M149.31,-60.43C126.12,-50.68 89.02,-35.08 62.52,-23.93"/>
<polygon fill="#63b8ff" stroke="#63b8ff" points="64.21,-20.85 53.63,-20.2 61.49,-27.3 64.21,-20.85"/>
</a>
</g>
</g>
</g>
</svg>
