<?xml version="1.0" encoding="UTF-8" standalone="no"?>
<!DOCTYPE svg PUBLIC "-//W3C//DTD SVG 1.1//EN"
 "http://www.w3.org/Graphics/SVG/1.1/DTD/svg11.dtd">
<!-- Generated by graphviz version 12.2.1 (20241206.2353)
 -->
<!-- Title: /Users/ilariomazzieri/Desktop/vulpes/vulpes/la/vector.hpp Pages: 1 -->
<svg width="1549pt" height="528pt"
 viewBox="0.00 0.00 1548.75 527.50" xmlns="http://www.w3.org/2000/svg" xmlns:xlink="http://www.w3.org/1999/xlink">
<g id="graph0" class="graph" transform="scale(1 1) rotate(0) translate(4 523.5)">
<title>/Users/ilariomazzieri/Desktop/vulpes/vulpes/la/vector.hpp</title>
<!-- Node1 -->
<g id="Node000001" class="node">
<title>Node1</title>
<g id="a_Node000001"><a xlink:title=" ">
<polygon fill="#999999" stroke="#666666" points="1071.75,-519.5 953,-519.5 953,-477.75 1071.75,-477.75 1071.75,-519.5"/>
<text text-anchor="start" x="961" y="-506" font-family="Helvetica,sans-Serif" font-size="10.00">/Users/ilariomazzieri</text>
<text text-anchor="start" x="961" y="-494.75" font-family="Helvetica,sans-Serif" font-size="10.00">/Desktop/vulpes/vulpes</text>
<text text-anchor="middle" x="1012.38" y="-483.5" font-family="Helvetica,sans-Serif" font-size="10.00">/la/vector.hpp</text>
</a>
</g>
</g>
<!-- Node2 -->
<g id="Node000002" class="node">
<title>Node2</title>
<g id="a_Node000002"><a xlink:href="dg__utils_8hpp.html" target="_top" xlink:title=" ">
<polygon fill="white" stroke="#666666" points="638.75,-41.75 520,-41.75 520,0 638.75,0 638.75,-41.75"/>
<text text-anchor="start" x="528" y="-28.25" font-family="Helvetica,sans-Serif" font-size="10.00">/Users/ilariomazzieri</text>
<text text-anchor="start" x="528" y="-17" font-family="Helvetica,sans-Serif" font-size="10.00">/Desktop/vulpes/vulpes</text>
<text text-anchor="middle" x="579.38" y="-5.75" font-family="Helvetica,sans-Serif" font-size="10.00">/assemble/dg_utils.hpp</text>
</a>
</g>
</g>
<!-- Node1&#45;&gt;Node2 -->
<g id="edge1_Node000001_Node000002" class="edge">
<title>Node1&#45;&gt;Node2</title>
<g id="a_edge1_Node000001_Node000002"><a xlink:title=" ">
<path fill="none" stroke="#63b8ff" d="M941.47,-485.77C818.67,-463.2 579.38,-409.41 579.38,-332.88 579.38,-332.88 579.38,-332.88 579.38,-175.38 579.38,-127.67 579.38,-71.63 579.38,-42.24"/>
<polygon fill="#63b8ff" stroke="#63b8ff" points="940.67,-489.18 951.13,-487.52 941.92,-482.29 940.67,-489.18"/>
</a>
</g>
</g>
<!-- Node3 -->
<g id="Node000003" class="node">
<title>Node3</title>
<g id="a_Node000003"><a xlink:href="fe__expr__func_8hpp.html" target="_top" xlink:title=" ">
<polygon fill="white" stroke="#666666" points="533.12,-441.75 401.62,-441.75 401.62,-388.75 533.12,-388.75 533.12,-441.75"/>
<text text-anchor="start" x="409.62" y="-428.25" font-family="Helvetica,sans-Serif" font-size="10.00">/Users/ilariomazzieri</text>
<text text-anchor="start" x="409.62" y="-417" font-family="Helvetica,sans-Serif" font-size="10.00">/Desktop/vulpes/vulpes</text>
<text text-anchor="start" x="409.62" y="-405.75" font-family="Helvetica,sans-Serif" font-size="10.00">/fe/fe_expressions/fe_expr</text>
<text text-anchor="middle" x="467.38" y="-394.5" font-family="Helvetica,sans-Serif" font-size="10.00">_func.hpp</text>
</a>
</g>
</g>
<!-- Node1&#45;&gt;Node3 -->
<g id="edge2_Node000001_Node000003" class="edge">
<title>Node1&#45;&gt;Node3</title>
<g id="a_edge2_Node000001_Node000003"><a xlink:title=" ">
<path fill="none" stroke="#63b8ff" d="M941.45,-491.63C852.92,-483.5 697.09,-467.01 565.38,-441.75 555.02,-439.76 544.13,-437.31 533.53,-434.71"/>
<polygon fill="#63b8ff" stroke="#63b8ff" points="940.91,-495.1 951.19,-492.52 941.55,-488.13 940.91,-495.1"/>
</a>
</g>
</g>
<!-- Node12 -->
<g id="Node000012" class="node">
<title>Node12</title>
<g id="a_Node000012"><a xlink:href="linear__solver_8hpp.html" target="_top" xlink:title=" ">
<polygon fill="white" stroke="#666666" points="1115.75,-352.75 997,-352.75 997,-311 1115.75,-311 1115.75,-352.75"/>
<text text-anchor="start" x="1005" y="-339.25" font-family="Helvetica,sans-Serif" font-size="10.00">/Users/ilariomazzieri</text>
<text text-anchor="start" x="1005" y="-328" font-family="Helvetica,sans-Serif" font-size="10.00">/Desktop/vulpes/vulpes</text>
<text text-anchor="middle" x="1056.38" y="-316.75" font-family="Helvetica,sans-Serif" font-size="10.00">/la/linear_solver.hpp</text>
</a>
</g>
</g>
<!-- Node1&#45;&gt;Node12 -->
<g id="edge15_Node000001_Node000012" class="edge">
<title>Node1&#45;&gt;Node12</title>
<g id="a_edge15_Node000001_Node000012"><a xlink:title=" ">
<path fill="none" stroke="#63b8ff" d="M1027.73,-466.97C1031.3,-458.92 1034.81,-450.13 1037.38,-441.75 1046.63,-411.47 1051.85,-375 1054.39,-352.89"/>
<polygon fill="#63b8ff" stroke="#63b8ff" points="1024.56,-465.48 1023.53,-476.02 1030.91,-468.43 1024.56,-465.48"/>
</a>
</g>
</g>
<!-- Node14 -->
<g id="Node000014" class="node">
<title>Node14</title>
<g id="a_Node000014"><a xlink:href="cranknicolson_8hpp.html" target="_top" xlink:title=" ">
<polygon fill="white" stroke="#666666" points="771.62,-275 607.12,-275 607.12,-233.25 771.62,-233.25 771.62,-275"/>
<text text-anchor="start" x="615.12" y="-261.5" font-family="Helvetica,sans-Serif" font-size="10.00">/Users/ilariomazzieri</text>
<text text-anchor="start" x="615.12" y="-250.25" font-family="Helvetica,sans-Serif" font-size="10.00">/Desktop/vulpes/vulpes</text>
<text text-anchor="middle" x="689.38" y="-239" font-family="Helvetica,sans-Serif" font-size="10.00">/timeintegration/cranknicolson.hpp</text>
</a>
</g>
</g>
<!-- Node1&#45;&gt;Node14 -->
<g id="edge35_Node000001_Node000014" class="edge">
<title>Node1&#45;&gt;Node14</title>
<g id="a_edge35_Node000001_Node000014"><a xlink:title=" ">
<path fill="none" stroke="#63b8ff" d="M941.66,-488.11C903.89,-480.36 858.15,-466.46 823.38,-441.75 760.62,-397.16 716.33,-313.73 698.33,-275.37"/>
<polygon fill="#63b8ff" stroke="#63b8ff" points="940.63,-491.47 951.11,-489.94 941.96,-484.6 940.63,-491.47"/>
</a>
</g>
</g>
<!-- Node16 -->
<g id="Node000016" class="node">
<title>Node16</title>
<g id="a_Node000016"><a xlink:href="imex_8hpp.html" target="_top" xlink:title=" ">
<polygon fill="white" stroke="#666666" points="933.5,-275 789.25,-275 789.25,-233.25 933.5,-233.25 933.5,-275"/>
<text text-anchor="start" x="797.25" y="-261.5" font-family="Helvetica,sans-Serif" font-size="10.00">/Users/ilariomazzieri</text>
<text text-anchor="start" x="797.25" y="-250.25" font-family="Helvetica,sans-Serif" font-size="10.00">/Desktop/vulpes/vulpes</text>
<text text-anchor="middle" x="861.38" y="-239" font-family="Helvetica,sans-Serif" font-size="10.00">/timeintegration/dae/imex.hpp</text>
</a>
</g>
</g>
<!-- Node1&#45;&gt;Node16 -->
<g id="edge36_Node000001_Node000016" class="edge">
<title>Node1&#45;&gt;Node16</title>
<g id="a_edge36_Node000001_Node000016"><a xlink:title=" ">
<path fill="none" stroke="#63b8ff" d="M944.12,-472.78C893.93,-450.23 830.17,-411.42 804.38,-352.75 796.91,-335.76 797.19,-328.11 804.38,-311 810.22,-297.07 821.43,-284.88 832.36,-275.46"/>
<polygon fill="#63b8ff" stroke="#63b8ff" points="942.65,-475.96 953.22,-476.74 945.45,-469.54 942.65,-475.96"/>
</a>
</g>
</g>
<!-- Node17 -->
<g id="Node000017" class="node">
<title>Node17</title>
<g id="a_Node000017"><a xlink:href="solverfkpp_8hpp.html" target="_top" xlink:title=" ">
<polygon fill="white" stroke="#666666" points="1313.12,-275 1163.62,-275 1163.62,-233.25 1313.12,-233.25 1313.12,-275"/>
<text text-anchor="start" x="1171.62" y="-261.5" font-family="Helvetica,sans-Serif" font-size="10.00">/Users/ilariomazzieri</text>
<text text-anchor="start" x="1171.62" y="-250.25" font-family="Helvetica,sans-Serif" font-size="10.00">/Desktop/vulpes/vulpes</text>
<text text-anchor="middle" x="1238.38" y="-239" font-family="Helvetica,sans-Serif" font-size="10.00">/timeintegration/solverfkpp.hpp</text>
</a>
</g>
</g>
<!-- Node1&#45;&gt;Node17 -->
<g id="edge37_Node000001_Node000017" class="edge">
<title>Node1&#45;&gt;Node17</title>
<g id="a_edge37_Node000001_Node000017"><a xlink:title=" ">
<path fill="none" stroke="#63b8ff" d="M1042.95,-469.77C1073.65,-441.32 1121.8,-395.41 1160.38,-352.75 1183.65,-327 1208.3,-295.3 1223.52,-275.15"/>
<polygon fill="#63b8ff" stroke="#63b8ff" points="1040.86,-466.93 1035.89,-476.28 1045.61,-472.07 1040.86,-466.93"/>
</a>
</g>
</g>
<!-- Node19 -->
<g id="Node000019" class="node">
<title>Node19</title>
<g id="a_Node000019"><a xlink:href="solvermfk_8hpp.html" target="_top" xlink:title=" ">
<polygon fill="white" stroke="#666666" points="1478,-275 1330.75,-275 1330.75,-233.25 1478,-233.25 1478,-275"/>
<text text-anchor="start" x="1338.75" y="-261.5" font-family="Helvetica,sans-Serif" font-size="10.00">/Users/ilariomazzieri</text>
<text text-anchor="start" x="1338.75" y="-250.25" font-family="Helvetica,sans-Serif" font-size="10.00">/Desktop/vulpes/vulpes</text>
<text text-anchor="middle" x="1404.38" y="-239" font-family="Helvetica,sans-Serif" font-size="10.00">/timeintegration/solvermfk.hpp</text>
</a>
</g>
</g>
<!-- Node1&#45;&gt;Node19 -->
<g id="edge38_Node000001_Node000019" class="edge">
<title>Node1&#45;&gt;Node19</title>
<g id="a_edge38_Node000001_Node000019"><a xlink:title=" ">
<path fill="none" stroke="#63b8ff" d="M1059.35,-472.13C1076.2,-462.79 1095.26,-451.99 1112.38,-441.75 1209.44,-383.68 1321.42,-310.25 1374.06,-275.34"/>
<polygon fill="#63b8ff" stroke="#63b8ff" points="1058.11,-468.82 1051.04,-476.71 1061.49,-474.95 1058.11,-468.82"/>
</a>
</g>
</g>
<!-- Node21 -->
<g id="Node000021" class="node">
<title>Node21</title>
<g id="a_Node000021"><a xlink:href="sparse__matrix_8hpp.html" target="_top" xlink:title=" ">
<polygon fill="white" stroke="#666666" points="1028.75,-436.12 910,-436.12 910,-394.38 1028.75,-394.38 1028.75,-436.12"/>
<text text-anchor="start" x="918" y="-422.62" font-family="Helvetica,sans-Serif" font-size="10.00">/Users/ilariomazzieri</text>
<text text-anchor="start" x="918" y="-411.38" font-family="Helvetica,sans-Serif" font-size="10.00">/Desktop/vulpes/vulpes</text>
<text text-anchor="middle" x="969.38" y="-400.12" font-family="Helvetica,sans-Serif" font-size="10.00">/la/sparse_matrix.hpp</text>
</a>
</g>
</g>
<!-- Node1&#45;&gt;Node21 -->
<g id="edge25_Node000001_Node000021" class="edge">
<title>Node1&#45;&gt;Node21</title>
<g id="a_edge25_Node000001_Node000021"><a xlink:title=" ">
<path fill="none" stroke="#63b8ff" d="M996.49,-467.57C991.01,-457.19 985,-445.81 980.03,-436.42"/>
<polygon fill="#63b8ff" stroke="#63b8ff" points="993.27,-468.97 1001.04,-476.17 999.46,-465.69 993.27,-468.97"/>
</a>
</g>
</g>
<!-- Node23 -->
<g id="Node000023" class="node">
<title>Node23</title>
<g id="a_Node000023"><a xlink:href="vector_8cpp.html" target="_top" xlink:title=" ">
<polygon fill="white" stroke="#666666" points="1403.75,-436.12 1285,-436.12 1285,-394.38 1403.75,-394.38 1403.75,-436.12"/>
<text text-anchor="start" x="1293" y="-422.62" font-family="Helvetica,sans-Serif" font-size="10.00">/Users/ilariomazzieri</text>
<text text-anchor="start" x="1293" y="-411.38" font-family="Helvetica,sans-Serif" font-size="10.00">/Desktop/vulpes/vulpes</text>
<text text-anchor="middle" x="1344.38" y="-400.12" font-family="Helvetica,sans-Serif" font-size="10.00">/la/vector.cpp</text>
</a>
</g>
</g>
<!-- Node1&#45;&gt;Node23 -->
<g id="edge33_Node000001_Node000023" class="edge">
<title>Node1&#45;&gt;Node23</title>
<g id="a_edge33_Node000001_Node000023"><a xlink:title=" ">
<path fill="none" stroke="#63b8ff" d="M1083.22,-484.79C1135.61,-474.71 1208.46,-459.45 1271.38,-441.75 1276.93,-440.19 1282.68,-438.43 1288.4,-436.59"/>
<polygon fill="#63b8ff" stroke="#63b8ff" points="1082.69,-481.33 1073.52,-486.64 1084,-488.21 1082.69,-481.33"/>
</a>
</g>
</g>
<!-- Node24 -->
<g id="Node000024" class="node">
<title>Node24</title>
<g id="a_Node000024"><a xlink:href="project__solution_8hpp.html" target="_top" xlink:title=" ">
<polygon fill="white" stroke="#666666" points="1540.75,-441.75 1422,-441.75 1422,-388.75 1540.75,-388.75 1540.75,-441.75"/>
<text text-anchor="start" x="1430" y="-428.25" font-family="Helvetica,sans-Serif" font-size="10.00">/Users/ilariomazzieri</text>
<text text-anchor="start" x="1430" y="-417" font-family="Helvetica,sans-Serif" font-size="10.00">/Desktop/vulpes/vulpes</text>
<text text-anchor="start" x="1430" y="-405.75" font-family="Helvetica,sans-Serif" font-size="10.00">/postprocessing/project</text>
<text text-anchor="middle" x="1481.38" y="-394.5" font-family="Helvetica,sans-Serif" font-size="10.00">_solution.hpp</text>
</a>
</g>
</g>
<!-- Node1&#45;&gt;Node24 -->
<g id="edge34_Node000001_Node000024" class="edge">
<title>Node1&#45;&gt;Node24</title>
<g id="a_edge34_Node000001_Node000024"><a xlink:title=" ">
<path fill="none" stroke="#63b8ff" d="M1083.11,-492.37C1163.74,-485.33 1299.04,-470.25 1412.38,-441.75 1415.47,-440.97 1418.62,-440.1 1421.78,-439.17"/>
<polygon fill="#63b8ff" stroke="#63b8ff" points="1083.28,-488.85 1073.61,-493.19 1083.87,-495.82 1083.28,-488.85"/>
</a>
</g>
</g>
<!-- Node4 -->
<g id="Node000004" class="node">
<title>Node4</title>
<g id="a_Node000004"><a xlink:href="fe__expression_8hpp.html" target="_top" xlink:title=" ">
<polygon fill="white" stroke="#666666" points="507.75,-352.75 389,-352.75 389,-311 507.75,-311 507.75,-352.75"/>
<text text-anchor="start" x="397" y="-339.25" font-family="Helvetica,sans-Serif" font-size="10.00">/Users/ilariomazzieri</text>
<text text-anchor="start" x="397" y="-328" font-family="Helvetica,sans-Serif" font-size="10.00">/Desktop/vulpes/vulpes</text>
<text text-anchor="middle" x="448.38" y="-316.75" font-family="Helvetica,sans-Serif" font-size="10.00">/fe/fe_expression.hpp</text>
</a>
</g>
</g>
<!-- Node3&#45;&gt;Node4 -->
<g id="edge3_Node000003_Node000004" class="edge">
<title>Node3&#45;&gt;Node4</title>
<g id="a_edge3_Node000003_Node000004"><a xlink:title=" ">
<path fill="none" stroke="#63b8ff" d="M458.76,-377.36C456.81,-368.99 454.8,-360.41 453.08,-353.04"/>
<polygon fill="#63b8ff" stroke="#63b8ff" points="455.34,-378.09 461.02,-387.03 462.15,-376.49 455.34,-378.09"/>
</a>
</g>
</g>
<!-- Node4&#45;&gt;Node2 -->
<g id="edge4_Node000004_Node000002" class="edge">
<title>Node4&#45;&gt;Node2</title>
<g id="a_edge4_Node000004_Node000002"><a xlink:title=" ">
<path fill="none" stroke="#63b8ff" d="M494.61,-303.93C505.11,-295.84 515.26,-286.12 522.38,-275 570.74,-199.43 544.91,-165.11 565.38,-77.75 568.16,-65.87 571.47,-52.62 574.17,-42.01"/>
<polygon fill="#63b8ff" stroke="#63b8ff" points="492.64,-301.03 486.57,-309.72 496.73,-306.71 492.64,-301.03"/>
</a>
</g>
</g>
<!-- Node5 -->
<g id="Node000005" class="node">
<title>Node5</title>
<g id="a_Node000005"><a xlink:href="integrator__base_8hpp.html" target="_top" xlink:title=" ">
<polygon fill="white" stroke="#666666" points="323.12,-197.25 173.62,-197.25 173.62,-155.5 323.12,-155.5 323.12,-197.25"/>
<text text-anchor="start" x="181.62" y="-183.75" font-family="Helvetica,sans-Serif" font-size="10.00">/Users/ilariomazzieri</text>
<text text-anchor="start" x="181.62" y="-172.5" font-family="Helvetica,sans-Serif" font-size="10.00">/Desktop/vulpes/vulpes</text>
<text text-anchor="middle" x="248.38" y="-161.25" font-family="Helvetica,sans-Serif" font-size="10.00">/assemble/integrator_base.hpp</text>
</a>
</g>
</g>
<!-- Node4&#45;&gt;Node5 -->
<g id="edge5_Node000004_Node000005" class="edge">
<title>Node4&#45;&gt;Node5</title>
<g id="a_edge5_Node000004_Node000005"><a xlink:title=" ">
<path fill="none" stroke="#63b8ff" d="M377.33,-324.16C313.77,-316.52 227.46,-301.5 206.38,-275 187.77,-251.61 209.53,-218.73 228.02,-197.73"/>
<polygon fill="#63b8ff" stroke="#63b8ff" points="376.67,-327.61 387.01,-325.29 377.48,-320.66 376.67,-327.61"/>
</a>
</g>
</g>
<!-- Node10 -->
<g id="Node000010" class="node">
<title>Node10</title>
<g id="a_Node000010"><a xlink:href="integrator__traits_8hpp.html" target="_top" xlink:title=" ">
<polygon fill="white" stroke="#666666" points="365.5,-275 215.25,-275 215.25,-233.25 365.5,-233.25 365.5,-275"/>
<text text-anchor="start" x="223.25" y="-261.5" font-family="Helvetica,sans-Serif" font-size="10.00">/Users/ilariomazzieri</text>
<text text-anchor="start" x="223.25" y="-250.25" font-family="Helvetica,sans-Serif" font-size="10.00">/Desktop/vulpes/vulpes</text>
<text text-anchor="middle" x="290.38" y="-239" font-family="Helvetica,sans-Serif" font-size="10.00">/assemble/integrator_traits.hpp</text>
</a>
</g>
</g>
<!-- Node4&#45;&gt;Node10 -->
<g id="edge12_Node000004_Node000010" class="edge">
<title>Node4&#45;&gt;Node10</title>
<g id="a_edge12_Node000004_Node000010"><a xlink:title=" ">
<path fill="none" stroke="#63b8ff" d="M395.91,-305.72C375.42,-295.9 352.24,-284.79 332.83,-275.48"/>
<polygon fill="#63b8ff" stroke="#63b8ff" points="394.14,-308.75 404.67,-309.92 397.16,-302.44 394.14,-308.75"/>
</a>
</g>
</g>
<!-- Node11 -->
<g id="Node000011" class="node">
<title>Node11</title>
<g id="a_Node000011"><a xlink:href="fe__vem_8hpp.html" target="_top" xlink:title=" ">
<polygon fill="white" stroke="#666666" points="513,-275 383.75,-275 383.75,-233.25 513,-233.25 513,-275"/>
<text text-anchor="start" x="391.75" y="-261.5" font-family="Helvetica,sans-Serif" font-size="10.00">/Users/ilariomazzieri</text>
<text text-anchor="start" x="391.75" y="-250.25" font-family="Helvetica,sans-Serif" font-size="10.00">/Desktop/vulpes/vulpes</text>
<text text-anchor="middle" x="448.38" y="-239" font-family="Helvetica,sans-Serif" font-size="10.00">/fe/fe_spaces/fe_vem.hpp</text>
</a>
</g>
</g>
<!-- Node4&#45;&gt;Node11 -->
<g id="edge14_Node000004_Node000011" class="edge">
<title>Node4&#45;&gt;Node11</title>
<g id="a_edge14_Node000004_Node000011"><a xlink:title=" ">
<path fill="none" stroke="#63b8ff" d="M448.38,-299.25C448.38,-291.21 448.38,-282.79 448.38,-275.48"/>
<polygon fill="#63b8ff" stroke="#63b8ff" points="444.88,-299.06 448.38,-309.06 451.88,-299.06 444.88,-299.06"/>
</a>
</g>
</g>
<!-- Node6 -->
<g id="Node000006" class="node">
<title>Node6</title>
<g id="a_Node000006"><a xlink:href="integrator__gauss_8hpp.html" target="_top" xlink:title=" ">
<polygon fill="white" stroke="#666666" points="154.75,-119.5 0,-119.5 0,-77.75 154.75,-77.75 154.75,-119.5"/>
<text text-anchor="start" x="8" y="-106" font-family="Helvetica,sans-Serif" font-size="10.00">/Users/ilariomazzieri</text>
<text text-anchor="start" x="8" y="-94.75" font-family="Helvetica,sans-Serif" font-size="10.00">/Desktop/vulpes/vulpes</text>
<text text-anchor="middle" x="77.38" y="-83.5" font-family="Helvetica,sans-Serif" font-size="10.00">/assemble/integrator_gauss.hpp</text>
</a>
</g>
</g>
<!-- Node5&#45;&gt;Node6 -->
<g id="edge6_Node000005_Node000006" class="edge">
<title>Node5&#45;&gt;Node6</title>
<g id="a_edge6_Node000005_Node000006"><a xlink:title=" ">
<path fill="none" stroke="#63b8ff" d="M192.2,-150.49C169.88,-140.6 144.52,-129.37 123.33,-119.98"/>
<polygon fill="#63b8ff" stroke="#63b8ff" points="190.61,-153.61 201.17,-154.46 193.44,-147.21 190.61,-153.61"/>
</a>
</g>
</g>
<!-- Node7 -->
<g id="Node000007" class="node">
<title>Node7</title>
<g id="a_Node000007"><a xlink:href="integrator__qfree_8hpp.html" target="_top" xlink:title=" ">
<polygon fill="white" stroke="#666666" points="323.5,-119.5 173.25,-119.5 173.25,-77.75 323.5,-77.75 323.5,-119.5"/>
<text text-anchor="start" x="181.25" y="-106" font-family="Helvetica,sans-Serif" font-size="10.00">/Users/ilariomazzieri</text>
<text text-anchor="start" x="181.25" y="-94.75" font-family="Helvetica,sans-Serif" font-size="10.00">/Desktop/vulpes/vulpes</text>
<text text-anchor="middle" x="248.38" y="-83.5" font-family="Helvetica,sans-Serif" font-size="10.00">/assemble/integrator_qfree.hpp</text>
</a>
</g>
</g>
<!-- Node5&#45;&gt;Node7 -->
<g id="edge7_Node000005_Node000007" class="edge">
<title>Node5&#45;&gt;Node7</title>
<g id="a_edge7_Node000005_Node000007"><a xlink:title=" ">
<path fill="none" stroke="#63b8ff" d="M248.38,-143.75C248.38,-135.71 248.38,-127.29 248.38,-119.98"/>
<polygon fill="#63b8ff" stroke="#63b8ff" points="244.88,-143.56 248.38,-153.56 251.88,-143.56 244.88,-143.56"/>
</a>
</g>
</g>
<!-- Node9 -->
<g id="Node000009" class="node">
<title>Node9</title>
<g id="a_Node000009"><a xlink:href="integrator__simplexify_8hpp.html" target="_top" xlink:title=" ">
<polygon fill="white" stroke="#666666" points="513,-119.5 341.75,-119.5 341.75,-77.75 513,-77.75 513,-119.5"/>
<text text-anchor="start" x="349.75" y="-106" font-family="Helvetica,sans-Serif" font-size="10.00">/Users/ilariomazzieri</text>
<text text-anchor="start" x="349.75" y="-94.75" font-family="Helvetica,sans-Serif" font-size="10.00">/Desktop/vulpes/vulpes</text>
<text text-anchor="middle" x="427.38" y="-83.5" font-family="Helvetica,sans-Serif" font-size="10.00">/assemble/integrator_simplexify.hpp</text>
</a>
</g>
</g>
<!-- Node5&#45;&gt;Node9 -->
<g id="edge9_Node000005_Node000009" class="edge">
<title>Node5&#45;&gt;Node9</title>
<g id="a_edge9_Node000005_Node000009"><a xlink:title=" ">
<path fill="none" stroke="#63b8ff" d="M306.86,-150.63C330.3,-140.7 356.98,-129.41 379.27,-119.98"/>
<polygon fill="#63b8ff" stroke="#63b8ff" points="305.58,-147.36 297.74,-154.49 308.31,-153.81 305.58,-147.36"/>
</a>
</g>
</g>
<!-- Node8 -->
<g id="Node000008" class="node">
<title>Node8</title>
<g id="a_Node000008"><a xlink:href="integrator__vem_8hpp.html" target="_top" xlink:title=" ">
<polygon fill="white" stroke="#666666" points="412,-41.75 264.75,-41.75 264.75,0 412,0 412,-41.75"/>
<text text-anchor="start" x="272.75" y="-28.25" font-family="Helvetica,sans-Serif" font-size="10.00">/Users/ilariomazzieri</text>
<text text-anchor="start" x="272.75" y="-17" font-family="Helvetica,sans-Serif" font-size="10.00">/Desktop/vulpes/vulpes</text>
<text text-anchor="middle" x="338.38" y="-5.75" font-family="Helvetica,sans-Serif" font-size="10.00">/assemble/integrator_vem.hpp</text>
</a>
</g>
</g>
<!-- Node7&#45;&gt;Node8 -->
<g id="edge8_Node000007_Node000008" class="edge">
<title>Node7&#45;&gt;Node8</title>
<g id="a_edge8_Node000007_Node000008"><a xlink:title=" ">
<path fill="none" stroke="#63b8ff" d="M281,-70.16C291.97,-60.94 303.99,-50.81 314.19,-42.23"/>
<polygon fill="#63b8ff" stroke="#63b8ff" points="279.05,-67.23 273.65,-76.35 283.56,-72.59 279.05,-67.23"/>
</a>
</g>
</g>
<!-- Node9&#45;&gt;Node2 -->
<g id="edge10_Node000009_Node000002" class="edge">
<title>Node9&#45;&gt;Node2</title>
<g id="a_edge10_Node000009_Node000002"><a xlink:title=" ">
<path fill="none" stroke="#63b8ff" d="M478.39,-72.2C497.96,-62.45 520.03,-51.45 538.53,-42.23"/>
<polygon fill="#63b8ff" stroke="#63b8ff" points="476.85,-69.06 469.46,-76.65 479.97,-75.32 476.85,-69.06"/>
</a>
</g>
</g>
<!-- Node9&#45;&gt;Node8 -->
<g id="edge11_Node000009_Node000008" class="edge">
<title>Node9&#45;&gt;Node8</title>
<g id="a_edge11_Node000009_Node000008"><a xlink:title=" ">
<path fill="none" stroke="#63b8ff" d="M394.79,-69.89C384.03,-60.73 372.28,-50.73 362.29,-42.23"/>
<polygon fill="#63b8ff" stroke="#63b8ff" points="392.49,-72.53 402.37,-76.34 397.03,-67.2 392.49,-72.53"/>
</a>
</g>
</g>
<!-- Node10&#45;&gt;Node5 -->
<g id="edge13_Node000010_Node000005" class="edge">
<title>Node10&#45;&gt;Node5</title>
<g id="a_edge13_Node000010_Node000005"><a xlink:title=" ">
<path fill="none" stroke="#63b8ff" d="M273.62,-222.9C268.93,-214.45 263.95,-205.46 259.66,-197.73"/>
<polygon fill="#63b8ff" stroke="#63b8ff" points="270.48,-224.45 278.39,-231.5 276.6,-221.06 270.48,-224.45"/>
</a>
</g>
</g>
<!-- Node12&#45;&gt;Node2 -->
<g id="edge16_Node000012_Node000002" class="edge">
<title>Node12&#45;&gt;Node2</title>
<g id="a_edge16_Node000012_Node000002"><a xlink:title=" ">
<path fill="none" stroke="#63b8ff" d="M1095.71,-303.06C1104.08,-295.05 1111.77,-285.57 1116.38,-275 1123.78,-257.99 1123.05,-250.56 1116.38,-233.25 1082.79,-146.21 1057.81,-121.43 975.38,-77.75 918.32,-47.52 735.13,-31.72 639.21,-25.34"/>
<polygon fill="#63b8ff" stroke="#63b8ff" points="1093.51,-300.33 1088.33,-309.57 1098.14,-305.58 1093.51,-300.33"/>
</a>
</g>
</g>
<!-- Node13 -->
<g id="Node000013" class="node">
<title>Node13</title>
<g id="a_Node000013"><a xlink:href="linear__solver_8cpp.html" target="_top" xlink:title=" ">
<polygon fill="white" stroke="#666666" points="1107.75,-275 989,-275 989,-233.25 1107.75,-233.25 1107.75,-275"/>
<text text-anchor="start" x="997" y="-261.5" font-family="Helvetica,sans-Serif" font-size="10.00">/Users/ilariomazzieri</text>
<text text-anchor="start" x="997" y="-250.25" font-family="Helvetica,sans-Serif" font-size="10.00">/Desktop/vulpes/vulpes</text>
<text text-anchor="middle" x="1048.38" y="-239" font-family="Helvetica,sans-Serif" font-size="10.00">/la/linear_solver.cpp</text>
</a>
</g>
</g>
<!-- Node12&#45;&gt;Node13 -->
<g id="edge17_Node000012_Node000013" class="edge">
<title>Node12&#45;&gt;Node13</title>
<g id="a_edge17_Node000012_Node000013"><a xlink:title=" ">
<path fill="none" stroke="#63b8ff" d="M1053.04,-299.25C1052.19,-291.21 1051.3,-282.79 1050.52,-275.48"/>
<polygon fill="#63b8ff" stroke="#63b8ff" points="1049.54,-299.49 1054.07,-309.07 1056.5,-298.76 1049.54,-299.49"/>
</a>
</g>
</g>
<!-- Node12&#45;&gt;Node14 -->
<g id="edge18_Node000012_Node000014" class="edge">
<title>Node12&#45;&gt;Node14</title>
<g id="a_edge18_Node000012_Node000014"><a xlink:title=" ">
<path fill="none" stroke="#63b8ff" d="M985.38,-316.81C929.6,-305.69 849.97,-289.64 780.38,-275 777.53,-274.4 774.63,-273.79 771.7,-273.16"/>
<polygon fill="#63b8ff" stroke="#63b8ff" points="984.58,-320.22 995.07,-318.74 985.95,-313.36 984.58,-320.22"/>
</a>
</g>
</g>
<!-- Node12&#45;&gt;Node16 -->
<g id="edge20_Node000012_Node000016" class="edge">
<title>Node12&#45;&gt;Node16</title>
<g id="a_edge20_Node000012_Node000016"><a xlink:title=" ">
<path fill="none" stroke="#63b8ff" d="M993.7,-306.53C967.91,-296.51 938.39,-285.04 913.78,-275.48"/>
<polygon fill="#63b8ff" stroke="#63b8ff" points="992.12,-309.67 1002.71,-310.03 994.65,-303.14 992.12,-309.67"/>
</a>
</g>
</g>
<!-- Node12&#45;&gt;Node17 -->
<g id="edge21_Node000012_Node000017" class="edge">
<title>Node12&#45;&gt;Node17</title>
<g id="a_edge21_Node000012_Node000017"><a xlink:title=" ">
<path fill="none" stroke="#63b8ff" d="M1115.52,-306.26C1139.43,-296.31 1166.7,-284.96 1189.47,-275.48"/>
<polygon fill="#63b8ff" stroke="#63b8ff" points="1114.43,-302.92 1106.55,-309.99 1117.12,-309.38 1114.43,-302.92"/>
</a>
</g>
</g>
<!-- Node12&#45;&gt;Node19 -->
<g id="edge23_Node000012_Node000019" class="edge">
<title>Node12&#45;&gt;Node19</title>
<g id="a_edge23_Node000012_Node000019"><a xlink:title=" ">
<path fill="none" stroke="#63b8ff" d="M1127.29,-316.6C1180.95,-305.64 1256.42,-289.92 1322.38,-275 1325.09,-274.39 1327.85,-273.75 1330.64,-273.11"/>
<polygon fill="#63b8ff" stroke="#63b8ff" points="1126.76,-313.13 1117.66,-318.56 1128.16,-319.99 1126.76,-313.13"/>
</a>
</g>
</g>
<!-- Node15 -->
<g id="Node000015" class="node">
<title>Node15</title>
<g id="a_Node000015"><a xlink:href="cranknicolson_8cpp.html" target="_top" xlink:title=" ">
<polygon fill="white" stroke="#666666" points="771.62,-197.25 607.12,-197.25 607.12,-155.5 771.62,-155.5 771.62,-197.25"/>
<text text-anchor="start" x="615.12" y="-183.75" font-family="Helvetica,sans-Serif" font-size="10.00">/Users/ilariomazzieri</text>
<text text-anchor="start" x="615.12" y="-172.5" font-family="Helvetica,sans-Serif" font-size="10.00">/Desktop/vulpes/vulpes</text>
<text text-anchor="middle" x="689.38" y="-161.25" font-family="Helvetica,sans-Serif" font-size="10.00">/timeintegration/cranknicolson.cpp</text>
</a>
</g>
</g>
<!-- Node14&#45;&gt;Node15 -->
<g id="edge19_Node000014_Node000015" class="edge">
<title>Node14&#45;&gt;Node15</title>
<g id="a_edge19_Node000014_Node000015"><a xlink:title=" ">
<path fill="none" stroke="#63b8ff" d="M689.38,-221.5C689.38,-213.46 689.38,-205.04 689.38,-197.73"/>
<polygon fill="#63b8ff" stroke="#63b8ff" points="685.88,-221.31 689.38,-231.31 692.88,-221.31 685.88,-221.31"/>
</a>
</g>
</g>
<!-- Node18 -->
<g id="Node000018" class="node">
<title>Node18</title>
<g id="a_Node000018"><a xlink:href="solverfkpp_8cpp.html" target="_top" xlink:title=" ">
<polygon fill="white" stroke="#666666" points="1313.12,-197.25 1163.62,-197.25 1163.62,-155.5 1313.12,-155.5 1313.12,-197.25"/>
<text text-anchor="start" x="1171.62" y="-183.75" font-family="Helvetica,sans-Serif" font-size="10.00">/Users/ilariomazzieri</text>
<text text-anchor="start" x="1171.62" y="-172.5" font-family="Helvetica,sans-Serif" font-size="10.00">/Desktop/vulpes/vulpes</text>
<text text-anchor="middle" x="1238.38" y="-161.25" font-family="Helvetica,sans-Serif" font-size="10.00">/timeintegration/solverfkpp.cpp</text>
</a>
</g>
</g>
<!-- Node17&#45;&gt;Node18 -->
<g id="edge22_Node000017_Node000018" class="edge">
<title>Node17&#45;&gt;Node18</title>
<g id="a_edge22_Node000017_Node000018"><a xlink:title=" ">
<path fill="none" stroke="#63b8ff" d="M1238.38,-221.5C1238.38,-213.46 1238.38,-205.04 1238.38,-197.73"/>
<polygon fill="#63b8ff" stroke="#63b8ff" points="1234.88,-221.31 1238.38,-231.31 1241.88,-221.31 1234.88,-221.31"/>
</a>
</g>
</g>
<!-- Node20 -->
<g id="Node000020" class="node">
<title>Node20</title>
<g id="a_Node000020"><a xlink:href="solvermfk_8cpp.html" target="_top" xlink:title=" ">
<polygon fill="white" stroke="#666666" points="1478,-197.25 1330.75,-197.25 1330.75,-155.5 1478,-155.5 1478,-197.25"/>
<text text-anchor="start" x="1338.75" y="-183.75" font-family="Helvetica,sans-Serif" font-size="10.00">/Users/ilariomazzieri</text>
<text text-anchor="start" x="1338.75" y="-172.5" font-family="Helvetica,sans-Serif" font-size="10.00">/Desktop/vulpes/vulpes</text>
<text text-anchor="middle" x="1404.38" y="-161.25" font-family="Helvetica,sans-Serif" font-size="10.00">/timeintegration/solvermfk.cpp</text>
</a>
</g>
</g>
<!-- Node19&#45;&gt;Node20 -->
<g id="edge24_Node000019_Node000020" class="edge">
<title>Node19&#45;&gt;Node20</title>
<g id="a_edge24_Node000019_Node000020"><a xlink:title=" ">
<path fill="none" stroke="#63b8ff" d="M1404.38,-221.5C1404.38,-213.46 1404.38,-205.04 1404.38,-197.73"/>
<polygon fill="#63b8ff" stroke="#63b8ff" points="1400.88,-221.31 1404.38,-231.31 1407.88,-221.31 1400.88,-221.31"/>
</a>
</g>
</g>
<!-- Node21&#45;&gt;Node2 -->
<g id="edge26_Node000021_Node000002" class="edge">
<title>Node21&#45;&gt;Node2</title>
<g id="a_edge26_Node000021_Node000002"><a xlink:title=" ">
<path fill="none" stroke="#63b8ff" d="M972.49,-382.76C974.67,-344.15 972.93,-278.31 942.38,-233.25 869.33,-125.5 721.66,-65.25 638.95,-38.64"/>
<polygon fill="#63b8ff" stroke="#63b8ff" points="969.01,-382.31 971.8,-392.53 976,-382.8 969.01,-382.31"/>
</a>
</g>
</g>
<!-- Node21&#45;&gt;Node12 -->
<g id="edge27_Node000021_Node000012" class="edge">
<title>Node21&#45;&gt;Node12</title>
<g id="a_edge27_Node000021_Node000012"><a xlink:title=" ">
<path fill="none" stroke="#63b8ff" d="M999.1,-386.45C1010.82,-375.48 1024.04,-363.12 1034.82,-353.04"/>
<polygon fill="#63b8ff" stroke="#63b8ff" points="996.9,-383.71 991.99,-393.1 1001.68,-388.83 996.9,-383.71"/>
</a>
</g>
</g>
<!-- Node21&#45;&gt;Node14 -->
<g id="edge29_Node000021_Node000014" class="edge">
<title>Node21&#45;&gt;Node14</title>
<g id="a_edge29_Node000021_Node000014"><a xlink:title=" ">
<path fill="none" stroke="#63b8ff" d="M898.98,-394.02C868.76,-383.84 833.73,-369.96 804.38,-352.75 767.32,-331.03 730.55,-297.07 708.9,-275.47"/>
<polygon fill="#63b8ff" stroke="#63b8ff" points="897.84,-397.33 908.43,-397.13 900.03,-390.68 897.84,-397.33"/>
</a>
</g>
</g>
<!-- Node21&#45;&gt;Node16 -->
<g id="edge30_Node000021_Node000016" class="edge">
<title>Node21&#45;&gt;Node16</title>
<g id="a_edge30_Node000021_Node000016"><a xlink:title=" ">
<path fill="none" stroke="#63b8ff" d="M898.89,-404.37C867.52,-396.07 833.43,-380.82 814.38,-352.75 797.36,-327.7 820.34,-295.54 839.73,-275.13"/>
<polygon fill="#63b8ff" stroke="#63b8ff" points="897.82,-407.71 908.37,-406.67 899.47,-400.91 897.82,-407.71"/>
</a>
</g>
</g>
<!-- Node21&#45;&gt;Node17 -->
<g id="edge31_Node000021_Node000017" class="edge">
<title>Node21&#45;&gt;Node17</title>
<g id="a_edge31_Node000021_Node000017"><a xlink:title=" ">
<path fill="none" stroke="#63b8ff" d="M1039.83,-392.92C1067.38,-382.92 1098.52,-369.48 1124.38,-352.75 1146.74,-338.28 1147.33,-328.54 1167.38,-311 1181.42,-298.71 1197.75,-285.77 1211.21,-275.45"/>
<polygon fill="#63b8ff" stroke="#63b8ff" points="1038.75,-389.59 1030.49,-396.22 1041.08,-396.19 1038.75,-389.59"/>
</a>
</g>
</g>
<!-- Node21&#45;&gt;Node19 -->
<g id="edge32_Node000021_Node000019" class="edge">
<title>Node21&#45;&gt;Node19</title>
<g id="a_edge32_Node000021_Node000019"><a xlink:title=" ">
<path fill="none" stroke="#63b8ff" d="M1040.17,-394.31C1076.58,-383.34 1121.37,-368.73 1160.38,-352.75 1198.59,-337.1 1205.34,-327.08 1243.38,-311 1274.58,-297.81 1310.08,-285.24 1339.78,-275.37"/>
<polygon fill="#63b8ff" stroke="#63b8ff" points="1039.19,-390.95 1030.61,-397.16 1041.19,-397.65 1039.19,-390.95"/>
</a>
</g>
</g>
<!-- Node22 -->
<g id="Node000022" class="node">
<title>Node22</title>
<g id="a_Node000022"><a xlink:href="sparse__matrix_8cpp.html" target="_top" xlink:title=" ">
<polygon fill="white" stroke="#666666" points="941.75,-352.75 823,-352.75 823,-311 941.75,-311 941.75,-352.75"/>
<text text-anchor="start" x="831" y="-339.25" font-family="Helvetica,sans-Serif" font-size="10.00">/Users/ilariomazzieri</text>
<text text-anchor="start" x="831" y="-328" font-family="Helvetica,sans-Serif" font-size="10.00">/Desktop/vulpes/vulpes</text>
<text text-anchor="middle" x="882.38" y="-316.75" font-family="Helvetica,sans-Serif" font-size="10.00">/la/sparse_matrix.cpp</text>
</a>
</g>
</g>
<!-- Node21&#45;&gt;Node22 -->
<g id="edge28_Node000021_Node000022" class="edge">
<title>Node21&#45;&gt;Node22</title>
<g id="a_edge28_Node000021_Node000022"><a xlink:title=" ">
<path fill="none" stroke="#63b8ff" d="M939.65,-386.45C927.93,-375.48 914.71,-363.12 903.93,-353.04"/>
<polygon fill="#63b8ff" stroke="#63b8ff" points="937.07,-388.83 946.76,-393.1 941.85,-383.71 937.07,-388.83"/>
</a>
</g>
</g>
</g>
</svg>
