<?xml version="1.0" encoding="UTF-8" standalone="no"?>
<!DOCTYPE svg PUBLIC "-//W3C//DTD SVG 1.1//EN"
 "http://www.w3.org/Graphics/SVG/1.1/DTD/svg11.dtd">
<!-- Generated by graphviz version 2.42.4 (0)
 -->
<!-- Title: /__w/vulpes/vulpes/vulpes/la/vector.cpp Pages: 1 -->
<svg width="1069pt" height="324pt"
 viewBox="0.00 0.00 1068.50 324.00" xmlns="http://www.w3.org/2000/svg" xmlns:xlink="http://www.w3.org/1999/xlink">
<g id="graph0" class="graph" transform="scale(1 1) rotate(0) translate(4 320)">
<title>/__w/vulpes/vulpes/vulpes/la/vector.cpp</title>
<!-- Node1 -->
<g id="Node000001" class="node">
<title>Node1</title>
<g id="a_Node000001"><a xlink:title=" ">
<polygon fill="#999999" stroke="#666666" points="342,-316 225,-316 225,-286 342,-286 342,-316"/>
<text text-anchor="start" x="233" y="-304" font-family="Helvetica,sans-Serif" font-size="10.00">/__w/vulpes/vulpes</text>
<text text-anchor="middle" x="283.5" y="-293" font-family="Helvetica,sans-Serif" font-size="10.00">/vulpes/la/vector.cpp</text>
</a>
</g>
</g>
<!-- Node2 -->
<g id="Node000002" class="node">
<title>Node2</title>
<g id="a_Node000002"><a xlink:href="vector_8hpp.html" target="_top" xlink:title=" ">
<polygon fill="white" stroke="#666666" points="587,-250 472,-250 472,-231 587,-231 587,-250"/>
<text text-anchor="middle" x="529.5" y="-238" font-family="Helvetica,sans-Serif" font-size="10.00">vulpes/la/vector.hpp</text>
</a>
</g>
</g>
<!-- Node1&#45;&gt;Node2 -->
<g id="edge1_Node000001_Node000002" class="edge">
<title>Node1&#45;&gt;Node2</title>
<g id="a_edge1_Node000001_Node000002"><a xlink:title=" ">
<path fill="none" stroke="#63b8ff" d="M342.11,-286.06C385.47,-275.75 443.71,-261.9 483.69,-252.39"/>
<polygon fill="#63b8ff" stroke="#63b8ff" points="484.52,-255.79 493.44,-250.08 482.9,-248.98 484.52,-255.79"/>
</a>
</g>
</g>
<!-- Node8 -->
<g id="Node000008" class="node">
<title>Node8</title>
<g id="a_Node000008"><a xlink:title=" ">
<polygon fill="#e0e0e0" stroke="#999999" points="1060.5,-19 1016.5,-19 1016.5,0 1060.5,0 1060.5,-19"/>
<text text-anchor="middle" x="1038.5" y="-7" font-family="Helvetica,sans-Serif" font-size="10.00">string</text>
</a>
</g>
</g>
<!-- Node1&#45;&gt;Node8 -->
<g id="edge41_Node000001_Node000008" class="edge">
<title>Node1&#45;&gt;Node8</title>
<g id="a_edge41_Node000001_Node000008"><a xlink:title=" ">
<path fill="none" stroke="#63b8ff" d="M342.26,-297.17C517.53,-287.97 1024.5,-255.4 1024.5,-186.5 1024.5,-186.5 1024.5,-186.5 1024.5,-129.5 1024.5,-93.75 1030.81,-52.36 1034.96,-29.02"/>
<polygon fill="#63b8ff" stroke="#63b8ff" points="1038.41,-29.59 1036.78,-19.12 1031.53,-28.32 1038.41,-29.59"/>
</a>
</g>
</g>
<!-- Node9 -->
<g id="Node000009" class="node">
<title>Node9</title>
<g id="a_Node000009"><a xlink:title=" ">
<polygon fill="#e0e0e0" stroke="#999999" points="110,-19 65,-19 65,0 110,0 110,-19"/>
<text text-anchor="middle" x="87.5" y="-7" font-family="Helvetica,sans-Serif" font-size="10.00">utility</text>
</a>
</g>
</g>
<!-- Node1&#45;&gt;Node9 -->
<g id="edge42_Node000001_Node000009" class="edge">
<title>Node1&#45;&gt;Node9</title>
<g id="a_edge42_Node000001_Node000009"><a xlink:title=" ">
<path fill="none" stroke="#63b8ff" d="M273.78,-285.64C240.98,-237.2 134.48,-79.9 99.07,-27.59"/>
<polygon fill="#63b8ff" stroke="#63b8ff" points="101.82,-25.41 93.32,-19.09 96.03,-29.34 101.82,-25.41"/>
</a>
</g>
</g>
<!-- Node10 -->
<g id="Node000010" class="node">
<title>Node10</title>
<g id="a_Node000010"><a xlink:title=" ">
<polygon fill="#e0e0e0" stroke="#999999" points="47,-19 0,-19 0,0 47,0 47,-19"/>
<text text-anchor="middle" x="23.5" y="-7" font-family="Helvetica,sans-Serif" font-size="10.00">vector</text>
</a>
</g>
</g>
<!-- Node1&#45;&gt;Node10 -->
<g id="edge43_Node000001_Node000010" class="edge">
<title>Node1&#45;&gt;Node10</title>
<g id="a_edge43_Node000001_Node000010"><a xlink:title=" ">
<path fill="none" stroke="#63b8ff" d="M224.8,-299.72C146.46,-295.89 17.5,-276 17.5,-186.5 17.5,-186.5 17.5,-186.5 17.5,-129.5 17.5,-94.11 20.18,-52.87 21.96,-29.41"/>
<polygon fill="#63b8ff" stroke="#63b8ff" points="25.47,-29.4 22.76,-19.15 18.49,-28.85 25.47,-29.4"/>
</a>
</g>
</g>
<!-- Node3 -->
<g id="Node000003" class="node">
<title>Node3</title>
<g id="a_Node000003"><a xlink:title=" ">
<polygon fill="#e0e0e0" stroke="#999999" points="803.5,-140 735.5,-140 735.5,-121 803.5,-121 803.5,-140"/>
<text text-anchor="middle" x="769.5" y="-128" font-family="Helvetica,sans-Serif" font-size="10.00">petscsys.h</text>
</a>
</g>
</g>
<!-- Node2&#45;&gt;Node3 -->
<g id="edge2_Node000002_Node000003" class="edge">
<title>Node2&#45;&gt;Node3</title>
<g id="a_edge2_Node000002_Node000003"><a xlink:title=" ">
<path fill="none" stroke="#63b8ff" d="M587.12,-236.42C648.95,-231.82 741.42,-220.73 764.5,-195 775.22,-183.05 775.39,-164.23 773.53,-150.18"/>
<polygon fill="#63b8ff" stroke="#63b8ff" points="776.94,-149.39 771.76,-140.15 770.05,-150.6 776.94,-149.39"/>
</a>
</g>
</g>
<!-- Node4 -->
<g id="Node000004" class="node">
<title>Node4</title>
<g id="a_Node000004"><a xlink:title=" ">
<polygon fill="#e0e0e0" stroke="#999999" points="523,-195 454,-195 454,-176 523,-176 523,-195"/>
<text text-anchor="middle" x="488.5" y="-183" font-family="Helvetica,sans-Serif" font-size="10.00">petscvec.h</text>
</a>
</g>
</g>
<!-- Node2&#45;&gt;Node4 -->
<g id="edge3_Node000002_Node000004" class="edge">
<title>Node2&#45;&gt;Node4</title>
<g id="a_edge3_Node000002_Node000004"><a xlink:title=" ">
<path fill="none" stroke="#63b8ff" d="M522.73,-230.75C516.94,-223.26 508.44,-212.28 501.36,-203.13"/>
<polygon fill="#63b8ff" stroke="#63b8ff" points="504.03,-200.86 495.14,-195.09 498.49,-205.14 504.03,-200.86"/>
</a>
</g>
</g>
<!-- Node5 -->
<g id="Node000005" class="node">
<title>Node5</title>
<g id="a_Node000005"><a xlink:title=" ">
<polygon fill="#e0e0e0" stroke="#999999" points="920.5,-19 856.5,-19 856.5,0 920.5,0 920.5,-19"/>
<text text-anchor="middle" x="888.5" y="-7" font-family="Helvetica,sans-Serif" font-size="10.00">algorithm</text>
</a>
</g>
</g>
<!-- Node2&#45;&gt;Node5 -->
<g id="edge4_Node000002_Node000005" class="edge">
<title>Node2&#45;&gt;Node5</title>
<g id="a_edge4_Node000002_Node000005"><a xlink:title=" ">
<path fill="none" stroke="#63b8ff" d="M587.22,-236.55C657.85,-231.88 772.18,-220.54 805.5,-195 860.07,-153.18 879.71,-67.44 885.94,-29.4"/>
<polygon fill="#63b8ff" stroke="#63b8ff" points="889.44,-29.63 887.46,-19.23 882.52,-28.6 889.44,-29.63"/>
</a>
</g>
</g>
<!-- Node6 -->
<g id="Node000006" class="node">
<title>Node6</title>
<g id="a_Node000006"><a xlink:title=" ">
<polygon fill="#e0e0e0" stroke="#999999" points="457,-19 404,-19 404,0 457,0 457,-19"/>
<text text-anchor="middle" x="430.5" y="-7" font-family="Helvetica,sans-Serif" font-size="10.00">cstddef</text>
</a>
</g>
</g>
<!-- Node2&#45;&gt;Node6 -->
<g id="edge5_Node000002_Node000006" class="edge">
<title>Node2&#45;&gt;Node6</title>
<g id="a_edge5_Node000002_Node000006"><a xlink:title=" ">
<path fill="none" stroke="#63b8ff" d="M498.08,-230.94C478.33,-224.12 453.62,-212.71 437.5,-195 393.85,-147.06 375.72,-116.42 396.5,-55 400.06,-44.47 407.22,-34.48 414.05,-26.63"/>
<polygon fill="#63b8ff" stroke="#63b8ff" points="416.63,-29.01 420.89,-19.31 411.51,-24.23 416.63,-29.01"/>
</a>
</g>
</g>
<!-- Node7 -->
<g id="Node000007" class="node">
<title>Node7</title>
<g id="a_Node000007"><a xlink:title=" ">
<polygon fill="#e0e0e0" stroke="#999999" points="599.5,-195 541.5,-195 541.5,-176 599.5,-176 599.5,-195"/>
<text text-anchor="middle" x="570.5" y="-183" font-family="Helvetica,sans-Serif" font-size="10.00">memory</text>
</a>
</g>
</g>
<!-- Node2&#45;&gt;Node7 -->
<g id="edge6_Node000002_Node000007" class="edge">
<title>Node2&#45;&gt;Node7</title>
<g id="a_edge6_Node000002_Node000007"><a xlink:title=" ">
<path fill="none" stroke="#63b8ff" d="M536.27,-230.75C542.06,-223.26 550.56,-212.28 557.64,-203.13"/>
<polygon fill="#63b8ff" stroke="#63b8ff" points="560.51,-205.14 563.86,-195.09 554.97,-200.86 560.51,-205.14"/>
</a>
</g>
</g>
<!-- Node2&#45;&gt;Node8 -->
<g id="edge7_Node000002_Node000008" class="edge">
<title>Node2&#45;&gt;Node8</title>
<g id="a_edge7_Node000002_Node000008"><a xlink:title=" ">
<path fill="none" stroke="#63b8ff" d="M587.21,-234.81C661.7,-228.1 786.72,-214.38 828.5,-195 916.54,-154.17 995.17,-64.55 1025.38,-27.28"/>
<polygon fill="#63b8ff" stroke="#63b8ff" points="1028.18,-29.37 1031.69,-19.38 1022.71,-25.01 1028.18,-29.37"/>
</a>
</g>
</g>
<!-- Node2&#45;&gt;Node9 -->
<g id="edge8_Node000002_Node000009" class="edge">
<title>Node2&#45;&gt;Node9</title>
<g id="a_edge8_Node000002_Node000009"><a xlink:title=" ">
<path fill="none" stroke="#63b8ff" d="M504.85,-230.89C481.68,-222.54 446.21,-209.1 416.5,-195 297.59,-138.57 162.6,-57.02 110.07,-24.58"/>
<polygon fill="#63b8ff" stroke="#63b8ff" points="111.59,-21.4 101.25,-19.11 107.91,-27.35 111.59,-21.4"/>
</a>
</g>
</g>
<!-- Node2&#45;&gt;Node10 -->
<g id="edge9_Node000002_Node000010" class="edge">
<title>Node2&#45;&gt;Node10</title>
<g id="a_edge9_Node000002_Node000010"><a xlink:title=" ">
<path fill="none" stroke="#63b8ff" d="M493.01,-230.93C461.6,-223.07 415.35,-210.34 376.5,-195 246.08,-143.5 100.8,-57.83 46.02,-24.43"/>
<polygon fill="#63b8ff" stroke="#63b8ff" points="47.8,-21.42 37.45,-19.18 44.14,-27.39 47.8,-21.42"/>
</a>
</g>
</g>
<!-- Node11 -->
<g id="Node000011" class="node">
<title>Node11</title>
<g id="a_Node000011"><a xlink:title=" ">
<polygon fill="#e0e0e0" stroke="#999999" points="841,-79.5 764,-79.5 764,-60.5 841,-60.5 841,-79.5"/>
<text text-anchor="middle" x="802.5" y="-67.5" font-family="Helvetica,sans-Serif" font-size="10.00">Eigen/Dense</text>
</a>
</g>
</g>
<!-- Node2&#45;&gt;Node11 -->
<g id="edge10_Node000002_Node000011" class="edge">
<title>Node2&#45;&gt;Node11</title>
<g id="a_edge10_Node000002_Node000011"><a xlink:title=" ">
<path fill="none" stroke="#63b8ff" d="M587.27,-235.14C652.03,-229.26 751.98,-216.92 782.5,-195 811.33,-174.3 816,-156.32 812.5,-121 811.46,-110.49 809.22,-98.92 807.12,-89.55"/>
<polygon fill="#63b8ff" stroke="#63b8ff" points="810.51,-88.7 804.8,-79.77 803.7,-90.31 810.51,-88.7"/>
</a>
</g>
</g>
<!-- Node12 -->
<g id="Node000012" class="node">
<title>Node12</title>
<g id="a_Node000012"><a xlink:href="petsc__utils_8hpp.html" target="_top" xlink:title=" ">
<polygon fill="white" stroke="#666666" points="755,-195 618,-195 618,-176 755,-176 755,-195"/>
<text text-anchor="middle" x="686.5" y="-183" font-family="Helvetica,sans-Serif" font-size="10.00">vulpes/la/petsc_utils.hpp</text>
</a>
</g>
</g>
<!-- Node2&#45;&gt;Node12 -->
<g id="edge11_Node000002_Node000012" class="edge">
<title>Node2&#45;&gt;Node12</title>
<g id="a_edge11_Node000002_Node000012"><a xlink:title=" ">
<path fill="none" stroke="#63b8ff" d="M554.72,-230.98C580.86,-222.16 621.9,-208.31 651.23,-198.41"/>
<polygon fill="#63b8ff" stroke="#63b8ff" points="652.72,-201.6 661.08,-195.08 650.48,-194.96 652.72,-201.6"/>
</a>
</g>
</g>
<!-- Node13 -->
<g id="Node000013" class="node">
<title>Node13</title>
<g id="a_Node000013"><a xlink:href="mpi__wrappers_8hpp.html" target="_top" xlink:title=" ">
<polygon fill="white" stroke="#666666" points="603.5,-140 437.5,-140 437.5,-121 603.5,-121 603.5,-140"/>
<text text-anchor="middle" x="520.5" y="-128" font-family="Helvetica,sans-Serif" font-size="10.00">vulpes/utils/mpi_wrappers.hpp</text>
</a>
</g>
</g>
<!-- Node2&#45;&gt;Node13 -->
<g id="edge40_Node000002_Node000013" class="edge">
<title>Node2&#45;&gt;Node13</title>
<g id="a_edge40_Node000002_Node000013"><a xlink:title=" ">
<path fill="none" stroke="#63b8ff" d="M496.1,-230.98C477.72,-224.4 456.48,-213.24 445.5,-195 432.39,-173.22 459.94,-155.29 485.26,-144.1"/>
<polygon fill="#63b8ff" stroke="#63b8ff" points="486.88,-147.22 494.77,-140.15 484.19,-140.75 486.88,-147.22"/>
</a>
</g>
</g>
<!-- Node12&#45;&gt;Node3 -->
<g id="edge12_Node000012_Node000003" class="edge">
<title>Node12&#45;&gt;Node3</title>
<g id="a_edge12_Node000012_Node000003"><a xlink:title=" ">
<path fill="none" stroke="#63b8ff" d="M699.84,-175.98C712.59,-167.84 732.05,-155.41 747.17,-145.76"/>
<polygon fill="#63b8ff" stroke="#63b8ff" points="749.38,-148.5 755.92,-140.17 745.61,-142.6 749.38,-148.5"/>
</a>
</g>
</g>
<!-- Node12&#45;&gt;Node8 -->
<g id="edge13_Node000012_Node000008" class="edge">
<title>Node12&#45;&gt;Node8</title>
<g id="a_edge13_Node000012_Node000008"><a xlink:title=" ">
<path fill="none" stroke="#63b8ff" d="M689.67,-175.68C695.06,-161.92 707.35,-135.42 726.5,-121 772.34,-86.47 796.21,-103.59 850.5,-85 907.43,-65.51 972.39,-38.72 1009.12,-23.15"/>
<polygon fill="#63b8ff" stroke="#63b8ff" points="1010.87,-26.21 1018.7,-19.07 1008.13,-19.77 1010.87,-26.21"/>
</a>
</g>
</g>
<!-- Node12&#45;&gt;Node13 -->
<g id="edge14_Node000012_Node000013" class="edge">
<title>Node12&#45;&gt;Node13</title>
<g id="a_edge14_Node000012_Node000013"><a xlink:title=" ">
<path fill="none" stroke="#63b8ff" d="M659.83,-175.98C631.96,-167.09 588.05,-153.07 556.98,-143.15"/>
<polygon fill="#63b8ff" stroke="#63b8ff" points="557.97,-139.79 547.38,-140.08 555.84,-146.46 557.97,-139.79"/>
</a>
</g>
</g>
<!-- Node13&#45;&gt;Node10 -->
<g id="edge19_Node000013_Node000010" class="edge">
<title>Node13&#45;&gt;Node10</title>
<g id="a_edge19_Node000013_Node000010"><a xlink:title=" ">
<path fill="none" stroke="#63b8ff" d="M437.42,-122.01C376.66,-115.37 292.61,-103.75 220.5,-85 158.45,-68.87 88.99,-39.89 51.37,-23.22"/>
<polygon fill="#63b8ff" stroke="#63b8ff" points="52.64,-19.96 42.08,-19.07 49.78,-26.35 52.64,-19.96"/>
</a>
</g>
</g>
<!-- Node13&#45;&gt;Node11 -->
<g id="edge20_Node000013_Node000011" class="edge">
<title>Node13&#45;&gt;Node11</title>
<g id="a_edge20_Node000013_Node000011"><a xlink:title=" ">
<path fill="none" stroke="#63b8ff" d="M569.39,-120.97C615.89,-112.63 687.72,-99.15 749.5,-85 753.41,-84.11 757.46,-83.13 761.51,-82.12"/>
<polygon fill="#63b8ff" stroke="#63b8ff" points="762.66,-85.43 771.48,-79.56 760.92,-78.65 762.66,-85.43"/>
</a>
</g>
</g>
<!-- Node14 -->
<g id="Node000014" class="node">
<title>Node14</title>
<g id="a_Node000014"><a xlink:title=" ">
<polygon fill="#e0e0e0" stroke="#999999" points="449.5,-79.5 405.5,-79.5 405.5,-60.5 449.5,-60.5 449.5,-79.5"/>
<text text-anchor="middle" x="427.5" y="-67.5" font-family="Helvetica,sans-Serif" font-size="10.00">mpi.h</text>
</a>
</g>
</g>
<!-- Node13&#45;&gt;Node14 -->
<g id="edge15_Node000013_Node000014" class="edge">
<title>Node13&#45;&gt;Node14</title>
<g id="a_edge15_Node000013_Node000014"><a xlink:title=" ">
<path fill="none" stroke="#63b8ff" d="M506.78,-120.87C491.8,-111.45 467.61,-96.23 449.88,-85.08"/>
<polygon fill="#63b8ff" stroke="#63b8ff" points="451.61,-82.03 441.28,-79.67 447.88,-87.95 451.61,-82.03"/>
</a>
</g>
</g>
<!-- Node15 -->
<g id="Node000015" class="node">
<title>Node15</title>
<g id="a_Node000015"><a xlink:title=" ">
<polygon fill="#e0e0e0" stroke="#999999" points="519.5,-79.5 467.5,-79.5 467.5,-60.5 519.5,-60.5 519.5,-79.5"/>
<text text-anchor="middle" x="493.5" y="-67.5" font-family="Helvetica,sans-Serif" font-size="10.00">petsc.h</text>
</a>
</g>
</g>
<!-- Node13&#45;&gt;Node15 -->
<g id="edge16_Node000013_Node000015" class="edge">
<title>Node13&#45;&gt;Node15</title>
<g id="a_edge16_Node000013_Node000015"><a xlink:title=" ">
<path fill="none" stroke="#63b8ff" d="M516.52,-120.87C512.65,-112.49 506.66,-99.51 501.76,-88.89"/>
<polygon fill="#63b8ff" stroke="#63b8ff" points="504.87,-87.28 497.5,-79.67 498.51,-90.21 504.87,-87.28"/>
</a>
</g>
</g>
<!-- Node16 -->
<g id="Node000016" class="node">
<title>Node16</title>
<g id="a_Node000016"><a xlink:title=" ">
<polygon fill="#e0e0e0" stroke="#999999" points="385.5,-19 333.5,-19 333.5,0 385.5,0 385.5,-19"/>
<text text-anchor="middle" x="359.5" y="-7" font-family="Helvetica,sans-Serif" font-size="10.00">cassert</text>
</a>
</g>
</g>
<!-- Node13&#45;&gt;Node16 -->
<g id="edge17_Node000013_Node000016" class="edge">
<title>Node13&#45;&gt;Node16</title>
<g id="a_edge17_Node000013_Node000016"><a xlink:title=" ">
<path fill="none" stroke="#63b8ff" d="M525.05,-120.62C532.12,-105.47 543.43,-74.37 528.5,-55 526.43,-52.31 444.83,-31.68 395.79,-19.47"/>
<polygon fill="#63b8ff" stroke="#63b8ff" points="396.41,-16.02 385.86,-17 394.72,-22.81 396.41,-16.02"/>
</a>
</g>
</g>
<!-- Node17 -->
<g id="Node000017" class="node">
<title>Node17</title>
<g id="a_Node000017"><a xlink:title=" ">
<polygon fill="#e0e0e0" stroke="#999999" points="998.5,-19 938.5,-19 938.5,0 998.5,0 998.5,-19"/>
<text text-anchor="middle" x="968.5" y="-7" font-family="Helvetica,sans-Serif" font-size="10.00">iostream</text>
</a>
</g>
</g>
<!-- Node13&#45;&gt;Node17 -->
<g id="edge18_Node000013_Node000017" class="edge">
<title>Node13&#45;&gt;Node17</title>
<g id="a_edge18_Node000013_Node000017"><a xlink:title=" ">
<path fill="none" stroke="#63b8ff" d="M591.4,-120.97C629.75,-114.51 677.19,-103.48 716.5,-85 736.29,-75.7 735.62,-64.11 755.5,-55 824.48,-23.38 850.23,-34.44 928.47,-19.12"/>
<polygon fill="#63b8ff" stroke="#63b8ff" points="929.18,-22.55 938.27,-17.12 927.77,-15.69 929.18,-22.55"/>
</a>
</g>
</g>
<!-- Node18 -->
<g id="Node000018" class="node">
<title>Node18</title>
<g id="a_Node000018"><a xlink:href="crs__map_8hpp.html" target="_top" xlink:title=" ">
<polygon fill="white" stroke="#666666" points="347,-85 230,-85 230,-55 347,-55 347,-85"/>
<text text-anchor="start" x="238" y="-73" font-family="Helvetica,sans-Serif" font-size="10.00">vulpes/datastructure</text>
<text text-anchor="middle" x="288.5" y="-62" font-family="Helvetica,sans-Serif" font-size="10.00">/crs_map.hpp</text>
</a>
</g>
</g>
<!-- Node13&#45;&gt;Node18 -->
<g id="edge21_Node000013_Node000018" class="edge">
<title>Node13&#45;&gt;Node18</title>
<g id="a_edge21_Node000013_Node000018"><a xlink:title=" ">
<path fill="none" stroke="#63b8ff" d="M486.77,-120.99C452.14,-112.26 397.36,-98.45 354.15,-87.55"/>
<polygon fill="#63b8ff" stroke="#63b8ff" points="354.83,-84.12 344.28,-85.06 353.12,-90.9 354.83,-84.12"/>
</a>
</g>
</g>
<!-- Node22 -->
<g id="Node000022" class="node">
<title>Node22</title>
<g id="a_Node000022"><a xlink:href="profiler_8hpp.html" target="_top" xlink:title=" ">
<polygon fill="white" stroke="#666666" points="707,-79.5 576,-79.5 576,-60.5 707,-60.5 707,-79.5"/>
<text text-anchor="middle" x="641.5" y="-67.5" font-family="Helvetica,sans-Serif" font-size="10.00">vulpes/utils/profiler.hpp</text>
</a>
</g>
</g>
<!-- Node13&#45;&gt;Node22 -->
<g id="edge29_Node000013_Node000022" class="edge">
<title>Node13&#45;&gt;Node22</title>
<g id="a_edge29_Node000013_Node000022"><a xlink:title=" ">
<path fill="none" stroke="#63b8ff" d="M538.09,-120.99C558.26,-111.25 591.52,-95.16 614.86,-83.88"/>
<polygon fill="#63b8ff" stroke="#63b8ff" points="616.4,-87.02 623.88,-79.52 613.36,-80.72 616.4,-87.02"/>
</a>
</g>
</g>
<!-- Node18&#45;&gt;Node5 -->
<g id="edge22_Node000018_Node000005" class="edge">
<title>Node18&#45;&gt;Node5</title>
<g id="a_edge22_Node000018_Node000005"><a xlink:title=" ">
<path fill="none" stroke="#63b8ff" d="M347.01,-60.88C363.04,-58.8 380.42,-56.68 396.5,-55 593.27,-34.41 646.73,-47.04 846.41,-18.98"/>
<polygon fill="#63b8ff" stroke="#63b8ff" points="846.93,-22.44 856.34,-17.56 845.94,-15.51 846.93,-22.44"/>
</a>
</g>
</g>
<!-- Node18&#45;&gt;Node9 -->
<g id="edge26_Node000018_Node000009" class="edge">
<title>Node18&#45;&gt;Node9</title>
<g id="a_edge26_Node000018_Node000009"><a xlink:title=" ">
<path fill="none" stroke="#63b8ff" d="M240.36,-54.99C203.15,-44.16 152.67,-29.47 120.08,-19.98"/>
<polygon fill="#63b8ff" stroke="#63b8ff" points="120.75,-16.53 110.17,-17.1 118.8,-23.25 120.75,-16.53"/>
</a>
</g>
</g>
<!-- Node18&#45;&gt;Node10 -->
<g id="edge28_Node000018_Node000010" class="edge">
<title>Node18&#45;&gt;Node10</title>
<g id="a_edge28_Node000018_Node000010"><a xlink:title=" ">
<path fill="none" stroke="#63b8ff" d="M229.91,-57.24C184.99,-48.04 121.23,-34.58 57.11,-19.31"/>
<polygon fill="#63b8ff" stroke="#63b8ff" points="57.77,-15.87 47.23,-16.94 56.14,-22.67 57.77,-15.87"/>
</a>
</g>
</g>
<!-- Node18&#45;&gt;Node16 -->
<g id="edge24_Node000018_Node000016" class="edge">
<title>Node18&#45;&gt;Node16</title>
<g id="a_edge24_Node000018_Node000016"><a xlink:title=" ">
<path fill="none" stroke="#63b8ff" d="M305.69,-54.84C316.31,-46.09 329.94,-34.85 340.83,-25.88"/>
<polygon fill="#63b8ff" stroke="#63b8ff" points="343.37,-28.33 348.86,-19.27 338.92,-22.92 343.37,-28.33"/>
</a>
</g>
</g>
<!-- Node19 -->
<g id="Node000019" class="node">
<title>Node19</title>
<g id="a_Node000019"><a xlink:title=" ">
<polygon fill="#e0e0e0" stroke="#999999" points="239.5,-19 197.5,-19 197.5,0 239.5,0 239.5,-19"/>
<text text-anchor="middle" x="218.5" y="-7" font-family="Helvetica,sans-Serif" font-size="10.00">array</text>
</a>
</g>
</g>
<!-- Node18&#45;&gt;Node19 -->
<g id="edge23_Node000018_Node000019" class="edge">
<title>Node18&#45;&gt;Node19</title>
<g id="a_edge23_Node000018_Node000019"><a xlink:title=" ">
<path fill="none" stroke="#63b8ff" d="M271.55,-54.84C261.08,-46.09 247.64,-34.85 236.91,-25.88"/>
<polygon fill="#63b8ff" stroke="#63b8ff" points="238.91,-22.99 228.99,-19.27 234.42,-28.36 238.91,-22.99"/>
</a>
</g>
</g>
<!-- Node20 -->
<g id="Node000020" class="node">
<title>Node20</title>
<g id="a_Node000020"><a xlink:title=" ">
<polygon fill="#e0e0e0" stroke="#999999" points="315,-19 258,-19 258,0 315,0 315,-19"/>
<text text-anchor="middle" x="286.5" y="-7" font-family="Helvetica,sans-Serif" font-size="10.00">ostream</text>
</a>
</g>
</g>
<!-- Node18&#45;&gt;Node20 -->
<g id="edge25_Node000018_Node000020" class="edge">
<title>Node18&#45;&gt;Node20</title>
<g id="a_edge25_Node000018_Node000020"><a xlink:title=" ">
<path fill="none" stroke="#63b8ff" d="M288.02,-54.84C287.76,-47.21 287.43,-37.7 287.15,-29.45"/>
<polygon fill="#63b8ff" stroke="#63b8ff" points="290.64,-29.14 286.8,-19.27 283.64,-29.38 290.64,-29.14"/>
</a>
</g>
</g>
<!-- Node21 -->
<g id="Node000021" class="node">
<title>Node21</title>
<g id="a_Node000021"><a xlink:title=" ">
<polygon fill="#e0e0e0" stroke="#999999" points="179,-19 128,-19 128,0 179,0 179,-19"/>
<text text-anchor="middle" x="153.5" y="-7" font-family="Helvetica,sans-Serif" font-size="10.00">variant</text>
</a>
</g>
</g>
<!-- Node18&#45;&gt;Node21 -->
<g id="edge27_Node000018_Node000021" class="edge">
<title>Node18&#45;&gt;Node21</title>
<g id="a_edge27_Node000018_Node000021"><a xlink:title=" ">
<path fill="none" stroke="#63b8ff" d="M256.16,-54.99C233.84,-45.31 204.4,-32.56 182.77,-23.18"/>
<polygon fill="#63b8ff" stroke="#63b8ff" points="184,-19.9 173.44,-19.14 181.22,-26.33 184,-19.9"/>
</a>
</g>
</g>
<!-- Node22&#45;&gt;Node5 -->
<g id="edge30_Node000022_Node000005" class="edge">
<title>Node22&#45;&gt;Node5</title>
<g id="a_edge30_Node000022_Node000005"><a xlink:title=" ">
<path fill="none" stroke="#63b8ff" d="M677.42,-60.49C722.29,-49.87 798.95,-31.71 846.5,-20.45"/>
<polygon fill="#63b8ff" stroke="#63b8ff" points="847.55,-23.8 856.47,-18.09 845.93,-16.98 847.55,-23.8"/>
</a>
</g>
</g>
<!-- Node22&#45;&gt;Node6 -->
<g id="edge32_Node000022_Node000006" class="edge">
<title>Node22&#45;&gt;Node6</title>
<g id="a_edge32_Node000022_Node000006"><a xlink:title=" ">
<path fill="none" stroke="#63b8ff" d="M610.82,-60.49C572.68,-49.92 507.65,-31.89 466.99,-20.62"/>
<polygon fill="#63b8ff" stroke="#63b8ff" points="467.78,-17.2 457.21,-17.9 465.91,-23.95 467.78,-17.2"/>
</a>
</g>
</g>
<!-- Node22&#45;&gt;Node8 -->
<g id="edge35_Node000022_Node000008" class="edge">
<title>Node22&#45;&gt;Node8</title>
<g id="a_edge35_Node000022_Node000008"><a xlink:title=" ">
<path fill="none" stroke="#63b8ff" d="M707.2,-60.5C797.71,-48.73 954.67,-28.05 1006.38,-18.86"/>
<polygon fill="#63b8ff" stroke="#63b8ff" points="1007.07,-22.29 1016.23,-16.98 1005.76,-15.42 1007.07,-22.29"/>
</a>
</g>
</g>
<!-- Node22&#45;&gt;Node9 -->
<g id="edge37_Node000022_Node000009" class="edge">
<title>Node22&#45;&gt;Node9</title>
<g id="a_edge37_Node000022_Node000009"><a xlink:title=" ">
<path fill="none" stroke="#63b8ff" d="M576.12,-60.5C560.52,-58.58 543.93,-56.63 528.5,-55 349.88,-36.1 300.33,-50.77 120.16,-19"/>
<polygon fill="#63b8ff" stroke="#63b8ff" points="120.54,-15.51 110.08,-17.2 119.31,-22.4 120.54,-15.51"/>
</a>
</g>
</g>
<!-- Node22&#45;&gt;Node10 -->
<g id="edge38_Node000022_Node000010" class="edge">
<title>Node22&#45;&gt;Node10</title>
<g id="a_edge38_Node000022_Node000010"><a xlink:title=" ">
<path fill="none" stroke="#63b8ff" d="M577.02,-60.48C561.17,-58.53 544.24,-56.57 528.5,-55 321.99,-34.36 265.14,-53.59 57.18,-18.99"/>
<polygon fill="#63b8ff" stroke="#63b8ff" points="57.6,-15.51 47.16,-17.3 56.44,-22.42 57.6,-15.51"/>
</a>
</g>
</g>
<!-- Node22&#45;&gt;Node17 -->
<g id="edge34_Node000022_Node000017" class="edge">
<title>Node22&#45;&gt;Node17</title>
<g id="a_edge34_Node000022_Node000017"><a xlink:title=" ">
<path fill="none" stroke="#63b8ff" d="M690.15,-60.47C700.5,-58.66 711.36,-56.76 721.5,-55 810.77,-39.46 835.74,-37.14 928.22,-19.18"/>
<polygon fill="#63b8ff" stroke="#63b8ff" points="929.15,-22.57 938.29,-17.22 927.81,-15.7 929.15,-22.57"/>
</a>
</g>
</g>
<!-- Node23 -->
<g id="Node000023" class="node">
<title>Node23</title>
<g id="a_Node000023"><a xlink:title=" ">
<polygon fill="#e0e0e0" stroke="#999999" points="764.5,-19 714.5,-19 714.5,0 764.5,0 764.5,-19"/>
<text text-anchor="middle" x="739.5" y="-7" font-family="Helvetica,sans-Serif" font-size="10.00">chrono</text>
</a>
</g>
</g>
<!-- Node22&#45;&gt;Node23 -->
<g id="edge31_Node000022_Node000023" class="edge">
<title>Node22&#45;&gt;Node23</title>
<g id="a_edge31_Node000022_Node000023"><a xlink:title=" ">
<path fill="none" stroke="#63b8ff" d="M655.96,-60.37C671.81,-50.91 697.47,-35.59 716.18,-24.42"/>
<polygon fill="#63b8ff" stroke="#63b8ff" points="718.19,-27.3 724.98,-19.17 714.6,-21.29 718.19,-27.3"/>
</a>
</g>
</g>
<!-- Node24 -->
<g id="Node000024" class="node">
<title>Node24</title>
<g id="a_Node000024"><a xlink:title=" ">
<polygon fill="#e0e0e0" stroke="#999999" points="838.5,-19 782.5,-19 782.5,0 838.5,0 838.5,-19"/>
<text text-anchor="middle" x="810.5" y="-7" font-family="Helvetica,sans-Serif" font-size="10.00">iomanip</text>
</a>
</g>
</g>
<!-- Node22&#45;&gt;Node24 -->
<g id="edge33_Node000022_Node000024" class="edge">
<title>Node22&#45;&gt;Node24</title>
<g id="a_edge33_Node000022_Node000024"><a xlink:title=" ">
<path fill="none" stroke="#63b8ff" d="M666.07,-60.49C695.11,-50.44 743.6,-33.66 776.3,-22.34"/>
<polygon fill="#63b8ff" stroke="#63b8ff" points="777.59,-25.6 785.9,-19.02 775.3,-18.98 777.59,-25.6"/>
</a>
</g>
</g>
<!-- Node25 -->
<g id="Node000025" class="node">
<title>Node25</title>
<g id="a_Node000025"><a xlink:title=" ">
<polygon fill="#e0e0e0" stroke="#999999" points="568,-19 475,-19 475,0 568,0 568,-19"/>
<text text-anchor="middle" x="521.5" y="-7" font-family="Helvetica,sans-Serif" font-size="10.00">unordered_map</text>
</a>
</g>
</g>
<!-- Node22&#45;&gt;Node25 -->
<g id="edge36_Node000022_Node000025" class="edge">
<title>Node22&#45;&gt;Node25</title>
<g id="a_edge36_Node000022_Node000025"><a xlink:title=" ">
<path fill="none" stroke="#63b8ff" d="M624.05,-60.49C604.14,-50.79 571.36,-34.81 548.23,-23.53"/>
<polygon fill="#63b8ff" stroke="#63b8ff" points="549.49,-20.25 538.97,-19.02 546.43,-26.54 549.49,-20.25"/>
</a>
</g>
</g>
<!-- Node26 -->
<g id="Node000026" class="node">
<title>Node26</title>
<g id="a_Node000026"><a xlink:title=" ">
<polygon fill="#e0e0e0" stroke="#999999" points="696.5,-19 586.5,-19 586.5,0 696.5,0 696.5,-19"/>
<text text-anchor="middle" x="641.5" y="-7" font-family="Helvetica,sans-Serif" font-size="10.00">nlohmann/json.hpp</text>
</a>
</g>
</g>
<!-- Node22&#45;&gt;Node26 -->
<g id="edge39_Node000022_Node000026" class="edge">
<title>Node22&#45;&gt;Node26</title>
<g id="a_edge39_Node000022_Node000026"><a xlink:title=" ">
<path fill="none" stroke="#63b8ff" d="M641.5,-60.37C641.5,-52.25 641.5,-39.81 641.5,-29.39"/>
<polygon fill="#63b8ff" stroke="#63b8ff" points="645,-29.17 641.5,-19.17 638,-29.17 645,-29.17"/>
</a>
</g>
</g>
</g>
</svg>
