<?xml version="1.0" encoding="UTF-8" standalone="no"?>
<!DOCTYPE svg PUBLIC "-//W3C//DTD SVG 1.1//EN"
 "http://www.w3.org/Graphics/SVG/1.1/DTD/svg11.dtd">
<!-- Generated by graphviz version 2.42.4 (0)
 -->
<!-- Title: /__w/vulpes/vulpes/vulpes/la/vector.cpp Pages: 1 -->
<svg width="670pt" height="324pt"
 viewBox="0.00 0.00 670.00 324.00" xmlns="http://www.w3.org/2000/svg" xmlns:xlink="http://www.w3.org/1999/xlink">
<g id="graph0" class="graph" transform="scale(1 1) rotate(0) translate(4 320)">
<title>/__w/vulpes/vulpes/vulpes/la/vector.cpp</title>
<!-- Node1 -->
<g id="Node000001" class="node">
<title>Node1</title>
<g id="a_Node000001"><a xlink:title=" ">
<polygon fill="#999999" stroke="#666666" points="117,-316 0,-316 0,-286 117,-286 117,-316"/>
<text text-anchor="start" x="8" y="-304" font-family="Helvetica,sans-Serif" font-size="10.00">/__w/vulpes/vulpes</text>
<text text-anchor="middle" x="58.5" y="-293" font-family="Helvetica,sans-Serif" font-size="10.00">/vulpes/la/vector.cpp</text>
</a>
</g>
</g>
<!-- Node2 -->
<g id="Node000002" class="node">
<title>Node2</title>
<g id="a_Node000002"><a xlink:href="vector_8hpp.html" target="_top" xlink:title=" ">
<polygon fill="white" stroke="#666666" points="387,-250 272,-250 272,-231 387,-231 387,-250"/>
<text text-anchor="middle" x="329.5" y="-238" font-family="Helvetica,sans-Serif" font-size="10.00">vulpes/la/vector.hpp</text>
</a>
</g>
</g>
<!-- Node1&#45;&gt;Node2 -->
<g id="edge1_Node000001_Node000002" class="edge">
<title>Node1&#45;&gt;Node2</title>
<g id="a_edge1_Node000001_Node000002"><a xlink:title=" ">
<path fill="none" stroke="#63b8ff" d="M117.3,-287.31C165.93,-276.81 234.21,-262.07 280.06,-252.17"/>
<polygon fill="#63b8ff" stroke="#63b8ff" points="281.02,-255.55 290.06,-250.01 279.54,-248.7 281.02,-255.55"/>
</a>
</g>
</g>
<!-- Node7 -->
<g id="Node000007" class="node">
<title>Node7</title>
<g id="a_Node000007"><a xlink:title=" ">
<polygon fill="#e0e0e0" stroke="#999999" points="106.5,-140 62.5,-140 62.5,-121 106.5,-121 106.5,-140"/>
<text text-anchor="middle" x="84.5" y="-128" font-family="Helvetica,sans-Serif" font-size="10.00">string</text>
</a>
</g>
</g>
<!-- Node1&#45;&gt;Node7 -->
<g id="edge28_Node000001_Node000007" class="edge">
<title>Node1&#45;&gt;Node7</title>
<g id="a_edge28_Node000001_Node000007"><a xlink:title=" ">
<path fill="none" stroke="#63b8ff" d="M60.67,-285.92C65.34,-255.65 76.35,-184.35 81.6,-150.27"/>
<polygon fill="#63b8ff" stroke="#63b8ff" points="85.08,-150.67 83.15,-140.25 78.16,-149.6 85.08,-150.67"/>
</a>
</g>
</g>
<!-- Node8 -->
<g id="Node000008" class="node">
<title>Node8</title>
<g id="a_Node000008"><a xlink:title=" ">
<polygon fill="#e0e0e0" stroke="#999999" points="164,-19 117,-19 117,0 164,0 164,-19"/>
<text text-anchor="middle" x="140.5" y="-7" font-family="Helvetica,sans-Serif" font-size="10.00">vector</text>
</a>
</g>
</g>
<!-- Node1&#45;&gt;Node8 -->
<g id="edge29_Node000001_Node000008" class="edge">
<title>Node1&#45;&gt;Node8</title>
<g id="a_edge29_Node000001_Node000008"><a xlink:title=" ">
<path fill="none" stroke="#63b8ff" d="M50.44,-285.82C39.29,-264.82 20.5,-223.9 20.5,-186.5 20.5,-186.5 20.5,-186.5 20.5,-129.5 20.5,-78.33 76.2,-41.65 111.7,-23.46"/>
<polygon fill="#63b8ff" stroke="#63b8ff" points="113.26,-26.6 120.68,-19.03 110.17,-20.32 113.26,-26.6"/>
</a>
</g>
</g>
<!-- Node3 -->
<g id="Node000003" class="node">
<title>Node3</title>
<g id="a_Node000003"><a xlink:title=" ">
<polygon fill="#e0e0e0" stroke="#999999" points="244.5,-140 176.5,-140 176.5,-121 244.5,-121 244.5,-140"/>
<text text-anchor="middle" x="210.5" y="-128" font-family="Helvetica,sans-Serif" font-size="10.00">petscsys.h</text>
</a>
</g>
</g>
<!-- Node2&#45;&gt;Node3 -->
<g id="edge2_Node000002_Node000003" class="edge">
<title>Node2&#45;&gt;Node3</title>
<g id="a_edge2_Node000002_Node000003"><a xlink:title=" ">
<path fill="none" stroke="#63b8ff" d="M271.92,-236.33C242.83,-231.46 209.88,-220.23 191.5,-195 181.48,-181.24 189.38,-162.19 197.83,-148.55"/>
<polygon fill="#63b8ff" stroke="#63b8ff" points="200.85,-150.35 203.56,-140.11 195.05,-146.42 200.85,-150.35"/>
</a>
</g>
</g>
<!-- Node4 -->
<g id="Node000004" class="node">
<title>Node4</title>
<g id="a_Node000004"><a xlink:title=" ">
<polygon fill="#e0e0e0" stroke="#999999" points="425,-195 356,-195 356,-176 425,-176 425,-195"/>
<text text-anchor="middle" x="390.5" y="-183" font-family="Helvetica,sans-Serif" font-size="10.00">petscvec.h</text>
</a>
</g>
</g>
<!-- Node2&#45;&gt;Node4 -->
<g id="edge3_Node000002_Node000004" class="edge">
<title>Node2&#45;&gt;Node4</title>
<g id="a_edge3_Node000002_Node000004"><a xlink:title=" ">
<path fill="none" stroke="#63b8ff" d="M339.3,-230.98C348.32,-223.15 361.91,-211.34 372.82,-201.86"/>
<polygon fill="#63b8ff" stroke="#63b8ff" points="375.27,-204.37 380.52,-195.17 370.68,-199.09 375.27,-204.37"/>
</a>
</g>
</g>
<!-- Node5 -->
<g id="Node000005" class="node">
<title>Node5</title>
<g id="a_Node000005"><a xlink:title=" ">
<polygon fill="#e0e0e0" stroke="#999999" points="573,-195 520,-195 520,-176 573,-176 573,-195"/>
<text text-anchor="middle" x="546.5" y="-183" font-family="Helvetica,sans-Serif" font-size="10.00">cstddef</text>
</a>
</g>
</g>
<!-- Node2&#45;&gt;Node5 -->
<g id="edge4_Node000002_Node000005" class="edge">
<title>Node2&#45;&gt;Node5</title>
<g id="a_edge4_Node000002_Node000005"><a xlink:title=" ">
<path fill="none" stroke="#63b8ff" d="M364.36,-230.98C404.35,-221.22 469.59,-205.29 510.17,-195.37"/>
<polygon fill="#63b8ff" stroke="#63b8ff" points="511.04,-198.76 519.93,-192.99 509.38,-191.96 511.04,-198.76"/>
</a>
</g>
</g>
<!-- Node6 -->
<g id="Node000006" class="node">
<title>Node6</title>
<g id="a_Node000006"><a xlink:title=" ">
<polygon fill="#e0e0e0" stroke="#999999" points="649.5,-195 591.5,-195 591.5,-176 649.5,-176 649.5,-195"/>
<text text-anchor="middle" x="620.5" y="-183" font-family="Helvetica,sans-Serif" font-size="10.00">memory</text>
</a>
</g>
</g>
<!-- Node2&#45;&gt;Node6 -->
<g id="edge5_Node000002_Node000006" class="edge">
<title>Node2&#45;&gt;Node6</title>
<g id="a_edge5_Node000002_Node000006"><a xlink:title=" ">
<path fill="none" stroke="#63b8ff" d="M381.96,-231C431.02,-222.88 506.56,-209.97 581.41,-195.14"/>
<polygon fill="#63b8ff" stroke="#63b8ff" points="582.36,-198.52 591.48,-193.13 580.99,-191.66 582.36,-198.52"/>
</a>
</g>
</g>
<!-- Node2&#45;&gt;Node7 -->
<g id="edge6_Node000002_Node000007" class="edge">
<title>Node2&#45;&gt;Node7</title>
<g id="a_edge6_Node000002_Node000007"><a xlink:title=" ">
<path fill="none" stroke="#63b8ff" d="M271.56,-239.67C226.45,-237.06 164.34,-227.13 120.5,-195 105.35,-183.9 95.67,-164.36 90.21,-149.89"/>
<polygon fill="#63b8ff" stroke="#63b8ff" points="93.39,-148.35 86.84,-140.02 86.76,-150.62 93.39,-148.35"/>
</a>
</g>
</g>
<!-- Node2&#45;&gt;Node8 -->
<g id="edge7_Node000002_Node000008" class="edge">
<title>Node2&#45;&gt;Node8</title>
<g id="a_edge7_Node000002_Node000008"><a xlink:title=" ">
<path fill="none" stroke="#63b8ff" d="M271.85,-234.92C241.84,-229.64 206.68,-218.48 183.5,-195 138.67,-149.59 137.09,-67.05 138.96,-29.73"/>
<polygon fill="#63b8ff" stroke="#63b8ff" points="142.48,-29.51 139.63,-19.31 135.49,-29.06 142.48,-29.51"/>
</a>
</g>
</g>
<!-- Node9 -->
<g id="Node000009" class="node">
<title>Node9</title>
<g id="a_Node000009"><a xlink:title=" ">
<polygon fill="#e0e0e0" stroke="#999999" points="662,-79.5 585,-79.5 585,-60.5 662,-60.5 662,-79.5"/>
<text text-anchor="middle" x="623.5" y="-67.5" font-family="Helvetica,sans-Serif" font-size="10.00">Eigen/Dense</text>
</a>
</g>
</g>
<!-- Node2&#45;&gt;Node9 -->
<g id="edge8_Node000002_Node000009" class="edge">
<title>Node2&#45;&gt;Node9</title>
<g id="a_edge8_Node000002_Node000009"><a xlink:title=" ">
<path fill="none" stroke="#63b8ff" d="M359.03,-230.95C383.91,-223.2 420.05,-210.6 449.5,-195 510.66,-162.6 575.1,-111.56 605.55,-86.26"/>
<polygon fill="#63b8ff" stroke="#63b8ff" points="608.12,-88.67 613.54,-79.56 603.62,-83.31 608.12,-88.67"/>
</a>
</g>
</g>
<!-- Node10 -->
<g id="Node000010" class="node">
<title>Node10</title>
<g id="a_Node000010"><a xlink:href="petsc__utils_8hpp.html" target="_top" xlink:title=" ">
<polygon fill="white" stroke="#666666" points="338,-195 201,-195 201,-176 338,-176 338,-195"/>
<text text-anchor="middle" x="269.5" y="-183" font-family="Helvetica,sans-Serif" font-size="10.00">vulpes/la/petsc_utils.hpp</text>
</a>
</g>
</g>
<!-- Node2&#45;&gt;Node10 -->
<g id="edge9_Node000002_Node000010" class="edge">
<title>Node2&#45;&gt;Node10</title>
<g id="a_edge9_Node000002_Node000010"><a xlink:title=" ">
<path fill="none" stroke="#63b8ff" d="M319.86,-230.98C310.99,-223.15 297.63,-211.34 286.89,-201.86"/>
<polygon fill="#63b8ff" stroke="#63b8ff" points="289.13,-199.17 279.32,-195.17 284.49,-204.41 289.13,-199.17"/>
</a>
</g>
</g>
<!-- Node11 -->
<g id="Node000011" class="node">
<title>Node11</title>
<g id="a_Node000011"><a xlink:href="mpi__wrappers_8hpp.html" target="_top" xlink:title=" ">
<polygon fill="white" stroke="#666666" points="442.5,-140 276.5,-140 276.5,-121 442.5,-121 442.5,-140"/>
<text text-anchor="middle" x="359.5" y="-128" font-family="Helvetica,sans-Serif" font-size="10.00">vulpes/utils/mpi_wrappers.hpp</text>
</a>
</g>
</g>
<!-- Node2&#45;&gt;Node11 -->
<g id="edge27_Node000002_Node000011" class="edge">
<title>Node2&#45;&gt;Node11</title>
<g id="a_edge27_Node000002_Node000011"><a xlink:title=" ">
<path fill="none" stroke="#63b8ff" d="M378.35,-230.95C399,-224.65 421.12,-213.77 433.5,-195 447.62,-173.61 419.15,-155.31 393.53,-143.92"/>
<polygon fill="#63b8ff" stroke="#63b8ff" points="394.88,-140.7 384.31,-140.05 392.17,-147.15 394.88,-140.7"/>
</a>
</g>
</g>
<!-- Node10&#45;&gt;Node3 -->
<g id="edge10_Node000010_Node000003" class="edge">
<title>Node10&#45;&gt;Node3</title>
<g id="a_edge10_Node000010_Node000003"><a xlink:title=" ">
<path fill="none" stroke="#63b8ff" d="M260.02,-175.98C251.3,-168.15 238.16,-156.34 227.6,-146.86"/>
<polygon fill="#63b8ff" stroke="#63b8ff" points="229.93,-144.25 220.15,-140.17 225.25,-149.46 229.93,-144.25"/>
</a>
</g>
</g>
<!-- Node10&#45;&gt;Node7 -->
<g id="edge11_Node000010_Node000007" class="edge">
<title>Node10&#45;&gt;Node7</title>
<g id="a_edge11_Node000010_Node000007"><a xlink:title=" ">
<path fill="none" stroke="#63b8ff" d="M239.78,-175.98C205.94,-166.29 150.88,-150.52 116.23,-140.59"/>
<polygon fill="#63b8ff" stroke="#63b8ff" points="117.18,-137.22 106.6,-137.83 115.25,-143.95 117.18,-137.22"/>
</a>
</g>
</g>
<!-- Node10&#45;&gt;Node11 -->
<g id="edge12_Node000010_Node000011" class="edge">
<title>Node10&#45;&gt;Node11</title>
<g id="a_edge12_Node000010_Node000011"><a xlink:title=" ">
<path fill="none" stroke="#63b8ff" d="M283.96,-175.98C297.92,-167.77 319.29,-155.18 335.75,-145.49"/>
<polygon fill="#63b8ff" stroke="#63b8ff" points="337.94,-148.26 344.78,-140.17 334.38,-142.23 337.94,-148.26"/>
</a>
</g>
</g>
<!-- Node11&#45;&gt;Node8 -->
<g id="edge17_Node000011_Node000008" class="edge">
<title>Node11&#45;&gt;Node8</title>
<g id="a_edge17_Node000011_Node000008"><a xlink:title=" ">
<path fill="none" stroke="#63b8ff" d="M334.46,-120.94C312.63,-113.01 280.49,-100.17 254.5,-85 235.61,-73.98 233.6,-67.27 215.5,-55 199.15,-43.92 179.99,-32.58 165.13,-24.12"/>
<polygon fill="#63b8ff" stroke="#63b8ff" points="166.49,-20.87 156.06,-19.01 163.05,-26.97 166.49,-20.87"/>
</a>
</g>
</g>
<!-- Node11&#45;&gt;Node9 -->
<g id="edge18_Node000011_Node000009" class="edge">
<title>Node11&#45;&gt;Node9</title>
<g id="a_edge18_Node000011_Node000009"><a xlink:title=" ">
<path fill="none" stroke="#63b8ff" d="M406.52,-120.95C450.44,-112.69 517.72,-99.35 575.5,-85 578.89,-84.16 582.4,-83.24 585.9,-82.28"/>
<polygon fill="#63b8ff" stroke="#63b8ff" points="587.01,-85.6 595.68,-79.53 585.11,-78.87 587.01,-85.6"/>
</a>
</g>
</g>
<!-- Node12 -->
<g id="Node000012" class="node">
<title>Node12</title>
<g id="a_Node000012"><a xlink:title=" ">
<polygon fill="#e0e0e0" stroke="#999999" points="206.5,-79.5 162.5,-79.5 162.5,-60.5 206.5,-60.5 206.5,-79.5"/>
<text text-anchor="middle" x="184.5" y="-67.5" font-family="Helvetica,sans-Serif" font-size="10.00">mpi.h</text>
</a>
</g>
</g>
<!-- Node11&#45;&gt;Node12 -->
<g id="edge13_Node000011_Node000012" class="edge">
<title>Node11&#45;&gt;Node12</title>
<g id="a_edge13_Node000011_Node000012"><a xlink:title=" ">
<path fill="none" stroke="#63b8ff" d="M331.11,-120.97C302.9,-112.36 258.48,-98.45 220.5,-85 218.85,-84.42 217.16,-83.8 215.46,-83.18"/>
<polygon fill="#63b8ff" stroke="#63b8ff" points="216.33,-79.77 205.74,-79.51 213.86,-86.32 216.33,-79.77"/>
</a>
</g>
</g>
<!-- Node13 -->
<g id="Node000013" class="node">
<title>Node13</title>
<g id="a_Node000013"><a xlink:title=" ">
<polygon fill="#e0e0e0" stroke="#999999" points="488.5,-79.5 436.5,-79.5 436.5,-60.5 488.5,-60.5 488.5,-79.5"/>
<text text-anchor="middle" x="462.5" y="-67.5" font-family="Helvetica,sans-Serif" font-size="10.00">petsc.h</text>
</a>
</g>
</g>
<!-- Node11&#45;&gt;Node13 -->
<g id="edge14_Node000011_Node000013" class="edge">
<title>Node11&#45;&gt;Node13</title>
<g id="a_edge14_Node000011_Node000013"><a xlink:title=" ">
<path fill="none" stroke="#63b8ff" d="M374.7,-120.87C391.51,-111.32 418.82,-95.81 438.52,-84.62"/>
<polygon fill="#63b8ff" stroke="#63b8ff" points="440.27,-87.65 447.24,-79.67 436.82,-81.56 440.27,-87.65"/>
</a>
</g>
</g>
<!-- Node14 -->
<g id="Node000014" class="node">
<title>Node14</title>
<g id="a_Node000014"><a xlink:title=" ">
<polygon fill="#e0e0e0" stroke="#999999" points="239.5,-19 187.5,-19 187.5,0 239.5,0 239.5,-19"/>
<text text-anchor="middle" x="213.5" y="-7" font-family="Helvetica,sans-Serif" font-size="10.00">cassert</text>
</a>
</g>
</g>
<!-- Node11&#45;&gt;Node14 -->
<g id="edge15_Node000011_Node000014" class="edge">
<title>Node11&#45;&gt;Node14</title>
<g id="a_edge15_Node000011_Node000014"><a xlink:title=" ">
<path fill="none" stroke="#63b8ff" d="M344.64,-120.86C330.49,-112.39 308.85,-98.77 291.5,-85 268.27,-66.56 243.93,-42.42 228.74,-26.69"/>
<polygon fill="#63b8ff" stroke="#63b8ff" points="231.13,-24.12 221.69,-19.31 226.06,-28.96 231.13,-24.12"/>
</a>
</g>
</g>
<!-- Node15 -->
<g id="Node000015" class="node">
<title>Node15</title>
<g id="a_Node000015"><a xlink:title=" ">
<polygon fill="#e0e0e0" stroke="#999999" points="566.5,-79.5 506.5,-79.5 506.5,-60.5 566.5,-60.5 566.5,-79.5"/>
<text text-anchor="middle" x="536.5" y="-67.5" font-family="Helvetica,sans-Serif" font-size="10.00">iostream</text>
</a>
</g>
</g>
<!-- Node11&#45;&gt;Node15 -->
<g id="edge16_Node000011_Node000015" class="edge">
<title>Node11&#45;&gt;Node15</title>
<g id="a_edge16_Node000011_Node000015"><a xlink:title=" ">
<path fill="none" stroke="#63b8ff" d="M386.82,-120.98C414.72,-112.21 459.25,-98.03 497.5,-85 499.39,-84.36 501.33,-83.69 503.28,-83.01"/>
<polygon fill="#63b8ff" stroke="#63b8ff" points="504.77,-86.19 513.03,-79.56 502.44,-79.59 504.77,-86.19"/>
</a>
</g>
</g>
<!-- Node16 -->
<g id="Node000016" class="node">
<title>Node16</title>
<g id="a_Node000016"><a xlink:href="crs__map_8hpp.html" target="_top" xlink:title=" ">
<polygon fill="white" stroke="#666666" points="418,-85 301,-85 301,-55 418,-55 418,-85"/>
<text text-anchor="start" x="309" y="-73" font-family="Helvetica,sans-Serif" font-size="10.00">vulpes/datastructure</text>
<text text-anchor="middle" x="359.5" y="-62" font-family="Helvetica,sans-Serif" font-size="10.00">/crs_map.hpp</text>
</a>
</g>
</g>
<!-- Node11&#45;&gt;Node16 -->
<g id="edge19_Node000011_Node000016" class="edge">
<title>Node11&#45;&gt;Node16</title>
<g id="a_edge19_Node000011_Node000016"><a xlink:title=" ">
<path fill="none" stroke="#63b8ff" d="M359.5,-120.87C359.5,-114.11 359.5,-104.35 359.5,-95.26"/>
<polygon fill="#63b8ff" stroke="#63b8ff" points="363,-95.11 359.5,-85.11 356,-95.11 363,-95.11"/>
</a>
</g>
</g>
<!-- Node16&#45;&gt;Node8 -->
<g id="edge26_Node000016_Node000008" class="edge">
<title>Node16&#45;&gt;Node8</title>
<g id="a_edge26_Node000016_Node000008"><a xlink:title=" ">
<path fill="none" stroke="#63b8ff" d="M307.04,-54.99C265.7,-43.94 209.3,-28.88 173.89,-19.42"/>
<polygon fill="#63b8ff" stroke="#63b8ff" points="174.62,-15.99 164.06,-16.79 172.82,-22.76 174.62,-15.99"/>
</a>
</g>
</g>
<!-- Node16&#45;&gt;Node14 -->
<g id="edge22_Node000016_Node000014" class="edge">
<title>Node16&#45;&gt;Node14</title>
<g id="a_edge22_Node000016_Node000014"><a xlink:title=" ">
<path fill="none" stroke="#63b8ff" d="M324.53,-54.99C300.17,-45.23 267.97,-32.33 244.53,-22.93"/>
<polygon fill="#63b8ff" stroke="#63b8ff" points="245.65,-19.61 235.06,-19.14 243.04,-26.11 245.65,-19.61"/>
</a>
</g>
</g>
<!-- Node17 -->
<g id="Node000017" class="node">
<title>Node17</title>
<g id="a_Node000017"><a xlink:title=" ">
<polygon fill="#e0e0e0" stroke="#999999" points="391.5,-19 327.5,-19 327.5,0 391.5,0 391.5,-19"/>
<text text-anchor="middle" x="359.5" y="-7" font-family="Helvetica,sans-Serif" font-size="10.00">algorithm</text>
</a>
</g>
</g>
<!-- Node16&#45;&gt;Node17 -->
<g id="edge20_Node000016_Node000017" class="edge">
<title>Node16&#45;&gt;Node17</title>
<g id="a_edge20_Node000016_Node000017"><a xlink:title=" ">
<path fill="none" stroke="#63b8ff" d="M359.5,-54.84C359.5,-47.21 359.5,-37.7 359.5,-29.45"/>
<polygon fill="#63b8ff" stroke="#63b8ff" points="363,-29.27 359.5,-19.27 356,-29.27 363,-29.27"/>
</a>
</g>
</g>
<!-- Node18 -->
<g id="Node000018" class="node">
<title>Node18</title>
<g id="a_Node000018"><a xlink:title=" ">
<polygon fill="#e0e0e0" stroke="#999999" points="451.5,-19 409.5,-19 409.5,0 451.5,0 451.5,-19"/>
<text text-anchor="middle" x="430.5" y="-7" font-family="Helvetica,sans-Serif" font-size="10.00">array</text>
</a>
</g>
</g>
<!-- Node16&#45;&gt;Node18 -->
<g id="edge21_Node000016_Node000018" class="edge">
<title>Node16&#45;&gt;Node18</title>
<g id="a_edge21_Node000016_Node000018"><a xlink:title=" ">
<path fill="none" stroke="#63b8ff" d="M376.69,-54.84C387.31,-46.09 400.94,-34.85 411.83,-25.88"/>
<polygon fill="#63b8ff" stroke="#63b8ff" points="414.37,-28.33 419.86,-19.27 409.92,-22.92 414.37,-28.33"/>
</a>
</g>
</g>
<!-- Node19 -->
<g id="Node000019" class="node">
<title>Node19</title>
<g id="a_Node000019"><a xlink:title=" ">
<polygon fill="#e0e0e0" stroke="#999999" points="527,-19 470,-19 470,0 527,0 527,-19"/>
<text text-anchor="middle" x="498.5" y="-7" font-family="Helvetica,sans-Serif" font-size="10.00">ostream</text>
</a>
</g>
</g>
<!-- Node16&#45;&gt;Node19 -->
<g id="edge23_Node000016_Node000019" class="edge">
<title>Node16&#45;&gt;Node19</title>
<g id="a_edge23_Node000016_Node000019"><a xlink:title=" ">
<path fill="none" stroke="#63b8ff" d="M392.79,-54.99C415.88,-45.27 446.37,-32.44 468.66,-23.06"/>
<polygon fill="#63b8ff" stroke="#63b8ff" points="470.11,-26.24 477.97,-19.14 467.4,-19.79 470.11,-26.24"/>
</a>
</g>
</g>
<!-- Node20 -->
<g id="Node000020" class="node">
<title>Node20</title>
<g id="a_Node000020"><a xlink:title=" ">
<polygon fill="#e0e0e0" stroke="#999999" points="590,-19 545,-19 545,0 590,0 590,-19"/>
<text text-anchor="middle" x="567.5" y="-7" font-family="Helvetica,sans-Serif" font-size="10.00">utility</text>
</a>
</g>
</g>
<!-- Node16&#45;&gt;Node20 -->
<g id="edge24_Node000016_Node000020" class="edge">
<title>Node16&#45;&gt;Node20</title>
<g id="a_edge24_Node000016_Node000020"><a xlink:title=" ">
<path fill="none" stroke="#63b8ff" d="M409.32,-54.99C448.31,-44.02 501.4,-29.09 535.07,-19.62"/>
<polygon fill="#63b8ff" stroke="#63b8ff" points="536.18,-22.95 544.86,-16.87 534.28,-16.21 536.18,-22.95"/>
</a>
</g>
</g>
<!-- Node21 -->
<g id="Node000021" class="node">
<title>Node21</title>
<g id="a_Node000021"><a xlink:title=" ">
<polygon fill="#e0e0e0" stroke="#999999" points="309,-19 258,-19 258,0 309,0 309,-19"/>
<text text-anchor="middle" x="283.5" y="-7" font-family="Helvetica,sans-Serif" font-size="10.00">variant</text>
</a>
</g>
</g>
<!-- Node16&#45;&gt;Node21 -->
<g id="edge25_Node000016_Node000021" class="edge">
<title>Node16&#45;&gt;Node21</title>
<g id="a_edge25_Node000016_Node000021"><a xlink:title=" ">
<path fill="none" stroke="#63b8ff" d="M341.1,-54.84C329.62,-46 314.85,-34.63 303.14,-25.62"/>
<polygon fill="#63b8ff" stroke="#63b8ff" points="304.95,-22.59 294.89,-19.27 300.68,-28.14 304.95,-22.59"/>
</a>
</g>
</g>
</g>
</svg>
