<?xml version="1.0" encoding="UTF-8" standalone="no"?>
<!DOCTYPE svg PUBLIC "-//W3C//DTD SVG 1.1//EN"
 "http://www.w3.org/Graphics/SVG/1.1/DTD/svg11.dtd">
<!-- Generated by graphviz version 2.42.4 (0)
 -->
<!-- Title: /__w/vulpes/vulpes/vulpes/utils/vvutils.hpp Pages: 1 -->
<!--zoomable 786 -->

<svg id="main" version="1.1" xmlns="http://www.w3.org/2000/svg" xmlns:xlink="http://www.w3.org/1999/xlink" xml:space="preserve" onload="init(evt)">
<style type="text/css"><![CDATA[
.node, .edge {opacity: 0.7;}
.node.selected, .edge.selected {opacity: 1;}
.edge:hover path { stroke: red; }
.edge:hover polygon { stroke: red; fill: red; }
]]></style>

<defs>
  <circle id="rim" cx="0" cy="0" r="7"/>
  <circle id="rim2" cx="0" cy="0" r="3.5"/>
  <g id="zoomPlus">
    <use xlink:href="#rim" fill="#404040"><set attributeName="fill" to="#808080" begin="zoomplus.mouseover" end="zoomplus.mouseout"/></use>
    <path d="M-4,0h8M0,-4v8" fill="none" stroke="white" stroke-width="1.5" pointer-events="none"/>
  </g>
  <g id="zoomMin">
    <use xlink:href="#rim" fill="#404040"><set attributeName="fill" to="#808080" begin="zoomminus.mouseover" end="zoomminus.mouseout"/></use>
    <path d="M-4,0h8" fill="none" stroke="white" stroke-width="1.5" pointer-events="none"/>
  </g>
  <g id="arrowUp" transform="translate(30 24)">
    <use xlink:href="#rim"/>
    <path pointer-events="none" fill="none" stroke="white" stroke-width="1.5" d="M0,-3.0v7 M-2.5,-0.5L0,-3.0L2.5,-0.5"/>
  </g>
  <g id="arrowRight" transform="rotate(90) translate(36 -43)">
    <use xlink:href="#rim"/>
    <path pointer-events="none" fill="none" stroke="white" stroke-width="1.5" d="M0,-3.0v7 M-2.5,-0.5L0,-3.0L2.5,-0.5"/>
  </g>
  <g id="arrowDown" transform="rotate(180) translate(-30 -48)">
    <use xlink:href="#rim"/>
    <path pointer-events="none" fill="none" stroke="white" stroke-width="1.5" d="M0,-3.0v7 M-2.5,-0.5L0,-3.0L2.5,-0.5"/>
  </g>
  <g id="arrowLeft" transform="rotate(270) translate(-36 17)">
    <use xlink:href="#rim"/>
    <path pointer-events="none" fill="none" stroke="white" stroke-width="1.5" d="M0,-3.0v7 M-2.5,-0.5L0,-3.0L2.5,-0.5"/>
  </g>
  <g id="resetDef">
    <use xlink:href="#rim2" fill="#404040"><set attributeName="fill" to="#808080" begin="reset.mouseover" end="reset.mouseout"/></use>
  </g>
</defs>
<script type="application/ecmascript">
var viewWidth = 1749;
var viewHeight = 786;
var sectionId = 'dynsection-1';
</script>
<script type="application/ecmascript" xlink:href="svg.min.js"/>
<svg id="graph" class="graph">
<g id="viewport">
<title>/__w/vulpes/vulpes/vulpes/utils/vvutils.hpp</title>
<!-- Node1 -->
<g id="Node000001" class="node">
<title>Node1</title>
<g id="a_Node000001"><a xlink:title=" ">
<polygon fill="#999999" stroke="#666666" points="1457.26,-778 1324.26,-778 1324.26,-748 1457.26,-748 1457.26,-778"/>
<text text-anchor="start" x="1332.26" y="-766" font-family="Helvetica,sans-Serif" font-size="10.00">/__w/vulpes/vulpes</text>
<text text-anchor="middle" x="1390.76" y="-755" font-family="Helvetica,sans-Serif" font-size="10.00">/vulpes/utils/vvutils.hpp</text>
</a>
</g>
</g>
<!-- Node2 -->
<g id="Node000002" class="node">
<title>Node2</title>
<g id="a_Node000002"><a xlink:href="dof__handler_8hpp.html" target="_top" xlink:title=" ">
<polygon fill="white" stroke="#666666" points="194.26,-563.5 37.26,-563.5 37.26,-533.5 194.26,-533.5 194.26,-563.5"/>
<text text-anchor="start" x="45.26" y="-551.5" font-family="Helvetica,sans-Serif" font-size="10.00">/__w/vulpes/vulpes</text>
<text text-anchor="middle" x="115.76" y="-540.5" font-family="Helvetica,sans-Serif" font-size="10.00">/vulpes/dofs/dof_handler.hpp</text>
</a>
</g>
</g>
<!-- Node1&#45;&gt;Node2 -->
<g id="edge1_Node000001_Node000002" class="edge">
<title>Node1&#45;&gt;Node2</title>
<g id="a_edge1_Node000001_Node000002"><a xlink:title=" ">
<path fill="none" stroke="#63b8ff" d="M1314.02,-757.73C1210.29,-751.28 1019.77,-737.08 858.76,-712 597.83,-671.36 291.11,-595.04 169.41,-563.59"/>
<polygon fill="#63b8ff" stroke="#63b8ff" points="1313.9,-761.23 1324.09,-758.34 1314.33,-754.24 1313.9,-761.23"/>
</a>
</g>
</g>
<!-- Node5 -->
<g id="Node000005" class="node">
<title>Node5</title>
<g id="a_Node000005"><a xlink:href="dof__policy_8hpp.html" target="_top" xlink:title=" ">
<polygon fill="white" stroke="#666666" points="1005.26,-706.5 868.26,-706.5 868.26,-676.5 1005.26,-676.5 1005.26,-706.5"/>
<text text-anchor="start" x="876.26" y="-694.5" font-family="Helvetica,sans-Serif" font-size="10.00">/__w/vulpes/vulpes</text>
<text text-anchor="middle" x="936.76" y="-683.5" font-family="Helvetica,sans-Serif" font-size="10.00">/vulpes/fe/dof_policy.hpp</text>
</a>
</g>
</g>
<!-- Node1&#45;&gt;Node5 -->
<g id="edge4_Node000001_Node000005" class="edge">
<title>Node1&#45;&gt;Node5</title>
<g id="a_edge4_Node000001_Node000005"><a xlink:title=" ">
<path fill="none" stroke="#63b8ff" d="M1314.25,-750.29C1227.79,-737.05 1088.33,-715.7 1005.3,-702.99"/>
<polygon fill="#63b8ff" stroke="#63b8ff" points="1313.85,-753.77 1324.26,-751.82 1314.91,-746.85 1313.85,-753.77"/>
</a>
</g>
</g>
<!-- Node15 -->
<g id="Node000015" class="node">
<title>Node15</title>
<g id="a_Node000015"><a xlink:href="fe__vem_8hpp.html" target="_top" xlink:title=" ">
<polygon fill="white" stroke="#666666" points="1400.76,-272 1284.76,-272 1284.76,-231 1400.76,-231 1400.76,-272"/>
<text text-anchor="start" x="1292.76" y="-260" font-family="Helvetica,sans-Serif" font-size="10.00">/__w/vulpes/vulpes</text>
<text text-anchor="start" x="1292.76" y="-249" font-family="Helvetica,sans-Serif" font-size="10.00">/vulpes/fe/fe_spaces</text>
<text text-anchor="middle" x="1342.76" y="-238" font-family="Helvetica,sans-Serif" font-size="10.00">/fe_vem.hpp</text>
</a>
</g>
</g>
<!-- Node1&#45;&gt;Node15 -->
<g id="edge41_Node000001_Node000015" class="edge">
<title>Node1&#45;&gt;Node15</title>
<g id="a_edge41_Node000001_Node000015"><a xlink:title=" ">
<path fill="none" stroke="#63b8ff" d="M1390.76,-737.92C1390.76,-709.85 1390.76,-662.06 1390.76,-621 1390.76,-621 1390.76,-621 1390.76,-393.5 1390.76,-348.25 1368.33,-298.97 1354.14,-272.32"/>
<polygon fill="#63b8ff" stroke="#63b8ff" points="1387.26,-737.99 1390.76,-747.99 1394.26,-737.99 1387.26,-737.99"/>
</a>
</g>
</g>
<!-- Node25 -->
<g id="Node000025" class="node">
<title>Node25</title>
<g id="a_Node000025"><a xlink:href="mesher_8hpp.html" target="_top" xlink:title=" ">
<polygon fill="white" stroke="#666666" points="1580.76,-706.5 1418.76,-706.5 1418.76,-676.5 1580.76,-676.5 1580.76,-706.5"/>
<text text-anchor="start" x="1426.76" y="-694.5" font-family="Helvetica,sans-Serif" font-size="10.00">/__w/vulpes/vulpes</text>
<text text-anchor="middle" x="1499.76" y="-683.5" font-family="Helvetica,sans-Serif" font-size="10.00">/vulpes/geometry/mesher.hpp</text>
</a>
</g>
</g>
<!-- Node1&#45;&gt;Node25 -->
<g id="edge42_Node000001_Node000025" class="edge">
<title>Node1&#45;&gt;Node25</title>
<g id="a_edge42_Node000001_Node000025"><a xlink:title=" ">
<path fill="none" stroke="#63b8ff" d="M1421.73,-742.25C1439.6,-730.86 1461.64,-716.81 1477.74,-706.54"/>
<polygon fill="#63b8ff" stroke="#63b8ff" points="1419.37,-739.61 1412.82,-747.94 1423.14,-745.51 1419.37,-739.61"/>
</a>
</g>
</g>
<!-- Node26 -->
<g id="Node000026" class="node">
<title>Node26</title>
<g id="a_Node000026"><a xlink:href="parallel__mesh_8hpp.html" target="_top" xlink:title=" ">
<polygon fill="white" stroke="#666666" points="1740.76,-712 1598.76,-712 1598.76,-671 1740.76,-671 1740.76,-712"/>
<text text-anchor="start" x="1606.76" y="-700" font-family="Helvetica,sans-Serif" font-size="10.00">/__w/vulpes/vulpes</text>
<text text-anchor="start" x="1606.76" y="-689" font-family="Helvetica,sans-Serif" font-size="10.00">/vulpes/geometry/parallel</text>
<text text-anchor="middle" x="1669.76" y="-678" font-family="Helvetica,sans-Serif" font-size="10.00">_mesh.hpp</text>
</a>
</g>
</g>
<!-- Node1&#45;&gt;Node26 -->
<g id="edge43_Node000001_Node000026" class="edge">
<title>Node1&#45;&gt;Node26</title>
<g id="a_edge43_Node000001_Node000026"><a xlink:title=" ">
<path fill="none" stroke="#63b8ff" d="M1456.96,-745.51C1499.65,-734.88 1555.14,-721.05 1598.75,-710.19"/>
<polygon fill="#63b8ff" stroke="#63b8ff" points="1456.08,-742.12 1447.22,-747.94 1457.77,-748.91 1456.08,-742.12"/>
</a>
</g>
</g>
<!-- Node3 -->
<g id="Node000003" class="node">
<title>Node3</title>
<g id="a_Node000003"><a xlink:href="dg__utils_8hpp.html" target="_top" xlink:title=" ">
<polygon fill="white" stroke="#666666" points="868.26,-272 751.26,-272 751.26,-231 868.26,-231 868.26,-272"/>
<text text-anchor="start" x="759.26" y="-260" font-family="Helvetica,sans-Serif" font-size="10.00">/__w/vulpes/vulpes</text>
<text text-anchor="start" x="759.26" y="-249" font-family="Helvetica,sans-Serif" font-size="10.00">/vulpes/assemble/dg</text>
<text text-anchor="middle" x="809.76" y="-238" font-family="Helvetica,sans-Serif" font-size="10.00">_utils.hpp</text>
</a>
</g>
</g>
<!-- Node2&#45;&gt;Node3 -->
<g id="edge2_Node000002_Node000003" class="edge">
<title>Node2&#45;&gt;Node3</title>
<g id="a_edge2_Node000002_Node000003"><a xlink:title=" ">
<path fill="none" stroke="#63b8ff" d="M135.71,-525.72C160.39,-498.95 200.21,-456.38 208.76,-451 388.29,-338.09 638.72,-282.6 751.1,-262.13"/>
<polygon fill="#63b8ff" stroke="#63b8ff" points="133.08,-523.41 128.89,-533.14 138.23,-528.15 133.08,-523.41"/>
</a>
</g>
</g>
<!-- Node4 -->
<g id="Node000004" class="node">
<title>Node4</title>
<g id="a_Node000004"><a xlink:href="project__solution_8hpp.html" target="_top" xlink:title=" ">
<polygon fill="white" stroke="#666666" points="156.76,-492 28.76,-492 28.76,-451 156.76,-451 156.76,-492"/>
<text text-anchor="start" x="36.76" y="-480" font-family="Helvetica,sans-Serif" font-size="10.00">/__w/vulpes/vulpes</text>
<text text-anchor="start" x="36.76" y="-469" font-family="Helvetica,sans-Serif" font-size="10.00">/vulpes/postprocessing</text>
<text text-anchor="middle" x="92.76" y="-458" font-family="Helvetica,sans-Serif" font-size="10.00">/project_solution.hpp</text>
</a>
</g>
</g>
<!-- Node2&#45;&gt;Node4 -->
<g id="edge3_Node000002_Node000004" class="edge">
<title>Node2&#45;&gt;Node4</title>
<g id="a_edge3_Node000002_Node000004"><a xlink:title=" ">
<path fill="none" stroke="#63b8ff" d="M108.42,-523.55C105.32,-513.44 101.75,-501.81 98.81,-492.2"/>
<polygon fill="#63b8ff" stroke="#63b8ff" points="105.16,-524.86 111.44,-533.39 111.85,-522.81 105.16,-524.86"/>
</a>
</g>
</g>
<!-- Node6 -->
<g id="Node000006" class="node">
<title>Node6</title>
<g id="a_Node000006"><a xlink:href="fe__space_8hpp.html" target="_top" xlink:title=" ">
<polygon fill="white" stroke="#666666" points="704.76,-635 572.76,-635 572.76,-605 704.76,-605 704.76,-635"/>
<text text-anchor="start" x="580.76" y="-623" font-family="Helvetica,sans-Serif" font-size="10.00">/__w/vulpes/vulpes</text>
<text text-anchor="middle" x="638.76" y="-612" font-family="Helvetica,sans-Serif" font-size="10.00">/vulpes/fe/fe_space.hpp</text>
</a>
</g>
</g>
<!-- Node5&#45;&gt;Node6 -->
<g id="edge5_Node000005_Node000006" class="edge">
<title>Node5&#45;&gt;Node6</title>
<g id="a_edge5_Node000005_Node000006"><a xlink:title=" ">
<path fill="none" stroke="#63b8ff" d="M866.51,-674.12C815.58,-662.24 747.43,-646.34 698.98,-635.04"/>
<polygon fill="#63b8ff" stroke="#63b8ff" points="865.93,-677.57 876.46,-676.44 867.52,-670.76 865.93,-677.57"/>
</a>
</g>
</g>
<!-- Node6&#45;&gt;Node2 -->
<g id="edge11_Node000006_Node000002" class="edge">
<title>Node6&#45;&gt;Node2</title>
<g id="a_edge11_Node000006_Node000002"><a xlink:title=" ">
<path fill="none" stroke="#63b8ff" d="M562.62,-612.26C476.45,-604.14 332.03,-589.05 208.76,-569 199.08,-567.42 188.87,-565.53 178.9,-563.54"/>
<polygon fill="#63b8ff" stroke="#63b8ff" points="562.29,-615.74 572.58,-613.19 562.95,-608.77 562.29,-615.74"/>
</a>
</g>
</g>
<!-- Node7 -->
<g id="Node000007" class="node">
<title>Node7</title>
<g id="a_Node000007"><a xlink:href="integrator__gauss_8hpp.html" target="_top" xlink:title=" ">
<polygon fill="white" stroke="#666666" points="1272.26,-118 1119.26,-118 1119.26,-77 1272.26,-77 1272.26,-118"/>
<text text-anchor="start" x="1127.26" y="-106" font-family="Helvetica,sans-Serif" font-size="10.00">/__w/vulpes/vulpes</text>
<text text-anchor="start" x="1127.26" y="-95" font-family="Helvetica,sans-Serif" font-size="10.00">/vulpes/assemble/integrator</text>
<text text-anchor="middle" x="1195.76" y="-84" font-family="Helvetica,sans-Serif" font-size="10.00">_gauss.hpp</text>
</a>
</g>
</g>
<!-- Node6&#45;&gt;Node7 -->
<g id="edge6_Node000006_Node000007" class="edge">
<title>Node6&#45;&gt;Node7</title>
<g id="a_edge6_Node000006_Node000007"><a xlink:title=" ">
<path fill="none" stroke="#63b8ff" d="M715.28,-618.05C863.47,-615.39 1184.13,-605.49 1287.76,-569 1359.39,-543.78 1428.76,-548.44 1428.76,-472.5 1428.76,-472.5 1428.76,-472.5 1428.76,-250.5 1428.76,-174.31 1340.29,-134.3 1272.38,-114.81"/>
<polygon fill="#63b8ff" stroke="#63b8ff" points="714.86,-614.55 704.92,-618.23 714.98,-621.55 714.86,-614.55"/>
</a>
</g>
</g>
<!-- Node8 -->
<g id="Node000008" class="node">
<title>Node8</title>
<g id="a_Node000008"><a xlink:href="integrator__qfree_8hpp.html" target="_top" xlink:title=" ">
<polygon fill="white" stroke="#666666" points="609.26,-118 456.26,-118 456.26,-77 609.26,-77 609.26,-118"/>
<text text-anchor="start" x="464.26" y="-106" font-family="Helvetica,sans-Serif" font-size="10.00">/__w/vulpes/vulpes</text>
<text text-anchor="start" x="464.26" y="-95" font-family="Helvetica,sans-Serif" font-size="10.00">/vulpes/assemble/integrator</text>
<text text-anchor="middle" x="532.76" y="-84" font-family="Helvetica,sans-Serif" font-size="10.00">_qfree.hpp</text>
</a>
</g>
</g>
<!-- Node6&#45;&gt;Node8 -->
<g id="edge7_Node000006_Node000008" class="edge">
<title>Node6&#45;&gt;Node8</title>
<g id="a_edge7_Node000006_Node000008"><a xlink:title=" ">
<path fill="none" stroke="#63b8ff" d="M562.53,-618.27C497.8,-615 403.87,-603.85 329.76,-569 271.82,-541.74 222.76,-536.54 222.76,-472.5 222.76,-472.5 222.76,-472.5 222.76,-250.5 222.76,-197.6 370.12,-145.39 461.64,-118.07"/>
<polygon fill="#63b8ff" stroke="#63b8ff" points="562.52,-621.77 572.67,-618.73 562.83,-614.78 562.52,-621.77"/>
</a>
</g>
</g>
<!-- Node10 -->
<g id="Node000010" class="node">
<title>Node10</title>
<g id="a_Node000010"><a xlink:href="integrator__simplexify_8hpp.html" target="_top" xlink:title=" ">
<polygon fill="white" stroke="#666666" points="438.26,-118 285.26,-118 285.26,-77 438.26,-77 438.26,-118"/>
<text text-anchor="start" x="293.26" y="-106" font-family="Helvetica,sans-Serif" font-size="10.00">/__w/vulpes/vulpes</text>
<text text-anchor="start" x="293.26" y="-95" font-family="Helvetica,sans-Serif" font-size="10.00">/vulpes/assemble/integrator</text>
<text text-anchor="middle" x="361.76" y="-84" font-family="Helvetica,sans-Serif" font-size="10.00">_simplexify.hpp</text>
</a>
</g>
</g>
<!-- Node6&#45;&gt;Node10 -->
<g id="edge9_Node000006_Node000010" class="edge">
<title>Node6&#45;&gt;Node10</title>
<g id="a_edge9_Node000006_Node000010"><a xlink:title=" ">
<path fill="none" stroke="#63b8ff" d="M562.17,-617.56C407.29,-613.95 68.14,-602.31 27.76,-569 -6.59,-540.66 0.76,-517.04 0.76,-472.5 0.76,-472.5 0.76,-472.5 0.76,-250.5 0.76,-128.1 179.24,-102.68 285.21,-98.37"/>
<polygon fill="#63b8ff" stroke="#63b8ff" points="562.47,-621.07 572.55,-617.79 562.63,-614.07 562.47,-621.07"/>
</a>
</g>
</g>
<!-- Node11 -->
<g id="Node000011" class="node">
<title>Node11</title>
<g id="a_Node000011"><a xlink:href="fe__expr__base_8hpp.html" target="_top" xlink:title=" ">
<polygon fill="white" stroke="#666666" points="1077.26,-492 936.26,-492 936.26,-451 1077.26,-451 1077.26,-492"/>
<text text-anchor="start" x="944.26" y="-480" font-family="Helvetica,sans-Serif" font-size="10.00">/__w/vulpes/vulpes</text>
<text text-anchor="start" x="944.26" y="-469" font-family="Helvetica,sans-Serif" font-size="10.00">/vulpes/fe/fe_expressions</text>
<text text-anchor="middle" x="1006.76" y="-458" font-family="Helvetica,sans-Serif" font-size="10.00">/fe_expr_base.hpp</text>
</a>
</g>
</g>
<!-- Node6&#45;&gt;Node11 -->
<g id="edge12_Node000006_Node000011" class="edge">
<title>Node6&#45;&gt;Node11</title>
<g id="a_edge12_Node000006_Node000011"><a xlink:title=" ">
<path fill="none" stroke="#63b8ff" d="M715.06,-608.17C757.85,-600.47 811.54,-588.04 856.76,-569 904.42,-548.93 953.74,-513.98 982.26,-492.1"/>
<polygon fill="#63b8ff" stroke="#63b8ff" points="714.24,-604.76 704.99,-609.93 715.44,-611.66 714.24,-604.76"/>
</a>
</g>
</g>
<!-- Node6&#45;&gt;Node15 -->
<g id="edge35_Node000006_Node000015" class="edge">
<title>Node6&#45;&gt;Node15</title>
<g id="a_edge35_Node000006_Node000015"><a xlink:title=" ">
<path fill="none" stroke="#63b8ff" d="M715.13,-619.3C899.29,-617.97 1352.76,-601.58 1352.76,-472.5 1352.76,-472.5 1352.76,-472.5 1352.76,-393.5 1352.76,-350.06 1347.98,-299.29 1345.03,-272.09"/>
<polygon fill="#63b8ff" stroke="#63b8ff" points="714.95,-615.8 704.98,-619.36 715,-622.8 714.95,-615.8"/>
</a>
</g>
</g>
<!-- Node19 -->
<g id="Node000019" class="node">
<title>Node19</title>
<g id="a_Node000019"><a xlink:href="fe__lagrange__simplex_8hpp.html" target="_top" xlink:title=" ">
<polygon fill="white" stroke="#666666" points="515.26,-569 372.26,-569 372.26,-528 515.26,-528 515.26,-569"/>
<text text-anchor="start" x="380.26" y="-557" font-family="Helvetica,sans-Serif" font-size="10.00">/__w/vulpes/vulpes</text>
<text text-anchor="start" x="380.26" y="-546" font-family="Helvetica,sans-Serif" font-size="10.00">/vulpes/fe/fe_spaces</text>
<text text-anchor="middle" x="443.76" y="-535" font-family="Helvetica,sans-Serif" font-size="10.00">/fe_lagrange_simplex.hpp</text>
</a>
</g>
</g>
<!-- Node6&#45;&gt;Node19 -->
<g id="edge28_Node000006_Node000019" class="edge">
<title>Node6&#45;&gt;Node19</title>
<g id="a_edge28_Node000006_Node000019"><a xlink:title=" ">
<path fill="none" stroke="#63b8ff" d="M589.81,-601.55C562.09,-591.67 527.33,-579.28 498.68,-569.07"/>
<polygon fill="#63b8ff" stroke="#63b8ff" points="588.71,-604.88 599.3,-604.94 591.06,-598.28 588.71,-604.88"/>
</a>
</g>
</g>
<!-- Node21 -->
<g id="Node000021" class="node">
<title>Node21</title>
<g id="a_Node000021"><a xlink:href="fe__lagrange__tensor_8hpp.html" target="_top" xlink:title=" ">
<polygon fill="white" stroke="#666666" points="694.76,-492 560.76,-492 560.76,-451 694.76,-451 694.76,-492"/>
<text text-anchor="start" x="568.76" y="-480" font-family="Helvetica,sans-Serif" font-size="10.00">/__w/vulpes/vulpes</text>
<text text-anchor="start" x="568.76" y="-469" font-family="Helvetica,sans-Serif" font-size="10.00">/vulpes/fe/fe_spaces</text>
<text text-anchor="middle" x="627.76" y="-458" font-family="Helvetica,sans-Serif" font-size="10.00">/fe_lagrange_tensor.hpp</text>
</a>
</g>
</g>
<!-- Node6&#45;&gt;Node21 -->
<g id="edge32_Node000006_Node000021" class="edge">
<title>Node6&#45;&gt;Node21</title>
<g id="a_edge32_Node000006_Node000021"><a xlink:title=" ">
<path fill="none" stroke="#63b8ff" d="M653.54,-596.22C658.07,-587.98 662.47,-578.39 664.76,-569 669.09,-551.3 670.05,-545.44 664.76,-528 660.8,-514.92 652.63,-502.11 644.98,-492.09"/>
<polygon fill="#63b8ff" stroke="#63b8ff" points="650.51,-594.47 648.46,-604.86 656.55,-598.01 650.51,-594.47"/>
</a>
</g>
</g>
<!-- Node22 -->
<g id="Node000022" class="node">
<title>Node22</title>
<g id="a_Node000022"><a xlink:href="fe__modal__simplex_8hpp.html" target="_top" xlink:title=" ">
<polygon fill="white" stroke="#666666" points="382.26,-492 251.26,-492 251.26,-451 382.26,-451 382.26,-492"/>
<text text-anchor="start" x="259.26" y="-480" font-family="Helvetica,sans-Serif" font-size="10.00">/__w/vulpes/vulpes</text>
<text text-anchor="start" x="259.26" y="-469" font-family="Helvetica,sans-Serif" font-size="10.00">/vulpes/fe/fe_spaces</text>
<text text-anchor="middle" x="316.76" y="-458" font-family="Helvetica,sans-Serif" font-size="10.00">/fe_modal_simplex.hpp</text>
</a>
</g>
</g>
<!-- Node6&#45;&gt;Node22 -->
<g id="edge33_Node000006_Node000022" class="edge">
<title>Node6&#45;&gt;Node22</title>
<g id="a_edge33_Node000006_Node000022"><a xlink:title=" ">
<path fill="none" stroke="#63b8ff" d="M562.44,-612.96C491.87,-606.01 393.42,-592.43 362.76,-569 337.99,-550.07 325.92,-514.42 320.55,-492.16"/>
<polygon fill="#63b8ff" stroke="#63b8ff" points="562.35,-616.47 572.64,-613.94 563.02,-609.5 562.35,-616.47"/>
</a>
</g>
</g>
<!-- Node23 -->
<g id="Node000023" class="node">
<title>Node23</title>
<g id="a_Node000023"><a xlink:href="fe__modal__tensor_8hpp.html" target="_top" xlink:title=" ">
<polygon fill="white" stroke="#666666" points="655.76,-569 533.76,-569 533.76,-528 655.76,-528 655.76,-569"/>
<text text-anchor="start" x="541.76" y="-557" font-family="Helvetica,sans-Serif" font-size="10.00">/__w/vulpes/vulpes</text>
<text text-anchor="start" x="541.76" y="-546" font-family="Helvetica,sans-Serif" font-size="10.00">/vulpes/fe/fe_spaces</text>
<text text-anchor="middle" x="594.76" y="-535" font-family="Helvetica,sans-Serif" font-size="10.00">/fe_modal_tensor.hpp</text>
</a>
</g>
</g>
<!-- Node6&#45;&gt;Node23 -->
<g id="edge34_Node000006_Node000023" class="edge">
<title>Node6&#45;&gt;Node23</title>
<g id="a_edge34_Node000006_Node000023"><a xlink:title=" ">
<path fill="none" stroke="#63b8ff" d="M624.4,-596.31C618.83,-587.52 612.52,-577.55 607.16,-569.07"/>
<polygon fill="#63b8ff" stroke="#63b8ff" points="621.55,-598.36 629.86,-604.94 627.47,-594.61 621.55,-598.36"/>
</a>
</g>
</g>
<!-- Node24 -->
<g id="Node000024" class="node">
<title>Node24</title>
<g id="a_Node000024"><a xlink:href="fe__values_8hpp.html" target="_top" xlink:title=" ">
<polygon fill="white" stroke="#666666" points="847.76,-563.5 711.76,-563.5 711.76,-533.5 847.76,-533.5 847.76,-563.5"/>
<text text-anchor="start" x="719.76" y="-551.5" font-family="Helvetica,sans-Serif" font-size="10.00">/__w/vulpes/vulpes</text>
<text text-anchor="middle" x="779.76" y="-540.5" font-family="Helvetica,sans-Serif" font-size="10.00">/vulpes/fe/fe_values.hpp</text>
</a>
</g>
</g>
<!-- Node6&#45;&gt;Node24 -->
<g id="edge36_Node000006_Node000024" class="edge">
<title>Node6&#45;&gt;Node24</title>
<g id="a_edge36_Node000006_Node000024"><a xlink:title=" ">
<path fill="none" stroke="#63b8ff" d="M676.3,-600.5C699.83,-588.9 729.69,-574.18 751.27,-563.54"/>
<polygon fill="#63b8ff" stroke="#63b8ff" points="674.72,-597.38 667.3,-604.94 677.82,-603.65 674.72,-597.38"/>
</a>
</g>
</g>
<!-- Node9 -->
<g id="Node000009" class="node">
<title>Node9</title>
<g id="a_Node000009"><a xlink:href="integrator__vem_8hpp.html" target="_top" xlink:title=" ">
<polygon fill="white" stroke="#666666" points="523.26,-41 370.26,-41 370.26,0 523.26,0 523.26,-41"/>
<text text-anchor="start" x="378.26" y="-29" font-family="Helvetica,sans-Serif" font-size="10.00">/__w/vulpes/vulpes</text>
<text text-anchor="start" x="378.26" y="-18" font-family="Helvetica,sans-Serif" font-size="10.00">/vulpes/assemble/integrator</text>
<text text-anchor="middle" x="446.76" y="-7" font-family="Helvetica,sans-Serif" font-size="10.00">_vem.hpp</text>
</a>
</g>
</g>
<!-- Node8&#45;&gt;Node9 -->
<g id="edge8_Node000008_Node000009" class="edge">
<title>Node8&#45;&gt;Node9</title>
<g id="a_edge8_Node000008_Node000009"><a xlink:title=" ">
<path fill="none" stroke="#63b8ff" d="M502.46,-70.07C491.51,-60.52 479.36,-49.93 469.21,-41.07"/>
<polygon fill="#63b8ff" stroke="#63b8ff" points="500.33,-72.86 510.17,-76.79 504.93,-67.58 500.33,-72.86"/>
</a>
</g>
</g>
<!-- Node10&#45;&gt;Node9 -->
<g id="edge10_Node000010_Node000009" class="edge">
<title>Node10&#45;&gt;Node9</title>
<g id="a_edge10_Node000010_Node000009"><a xlink:title=" ">
<path fill="none" stroke="#63b8ff" d="M391.72,-70.07C402.54,-60.52 414.55,-49.93 424.58,-41.07"/>
<polygon fill="#63b8ff" stroke="#63b8ff" points="389.28,-67.55 384.1,-76.79 393.91,-72.8 389.28,-67.55"/>
</a>
</g>
</g>
<!-- Node12 -->
<g id="Node000012" class="node">
<title>Node12</title>
<g id="a_Node000012"><a xlink:href="fe__expression_8hpp.html" target="_top" xlink:title=" ">
<polygon fill="white" stroke="#666666" points="1140.26,-338 983.26,-338 983.26,-308 1140.26,-308 1140.26,-338"/>
<text text-anchor="start" x="991.26" y="-326" font-family="Helvetica,sans-Serif" font-size="10.00">/__w/vulpes/vulpes</text>
<text text-anchor="middle" x="1061.76" y="-315" font-family="Helvetica,sans-Serif" font-size="10.00">/vulpes/fe/fe_expression.hpp</text>
</a>
</g>
</g>
<!-- Node11&#45;&gt;Node12 -->
<g id="edge13_Node000011_Node000012" class="edge">
<title>Node11&#45;&gt;Node12</title>
<g id="a_edge13_Node000011_Node000012"><a xlink:title=" ">
<path fill="none" stroke="#63b8ff" d="M1087.47,-466.21C1163.58,-460.28 1269.76,-446.47 1295.76,-415 1342.76,-358.13 1225.33,-336.68 1140.35,-328.67"/>
<polygon fill="#63b8ff" stroke="#63b8ff" points="1087.13,-462.73 1077.41,-466.96 1087.65,-469.71 1087.13,-462.73"/>
</a>
</g>
</g>
<!-- Node16 -->
<g id="Node000016" class="node">
<title>Node16</title>
<g id="a_Node000016"><a xlink:href="fe__expr__basis_8hpp.html" target="_top" xlink:title=" ">
<polygon fill="white" stroke="#666666" points="968.26,-415 827.26,-415 827.26,-374 968.26,-374 968.26,-415"/>
<text text-anchor="start" x="835.26" y="-403" font-family="Helvetica,sans-Serif" font-size="10.00">/__w/vulpes/vulpes</text>
<text text-anchor="start" x="835.26" y="-392" font-family="Helvetica,sans-Serif" font-size="10.00">/vulpes/fe/fe_expressions</text>
<text text-anchor="middle" x="897.76" y="-381" font-family="Helvetica,sans-Serif" font-size="10.00">/fe_expr_basis.hpp</text>
</a>
</g>
</g>
<!-- Node11&#45;&gt;Node16 -->
<g id="edge22_Node000011_Node000016" class="edge">
<title>Node11&#45;&gt;Node16</title>
<g id="a_edge22_Node000011_Node000016"><a xlink:title=" ">
<path fill="none" stroke="#63b8ff" d="M969.84,-445.09C955.64,-435.32 939.66,-424.32 926.36,-415.17"/>
<polygon fill="#63b8ff" stroke="#63b8ff" points="968.19,-448.21 978.41,-450.99 972.16,-442.44 968.19,-448.21"/>
</a>
</g>
</g>
<!-- Node17 -->
<g id="Node000017" class="node">
<title>Node17</title>
<g id="a_Node000017"><a xlink:href="fe__expr__func_8hpp.html" target="_top" xlink:title=" ">
<polygon fill="white" stroke="#666666" points="1127.26,-415 986.26,-415 986.26,-374 1127.26,-374 1127.26,-415"/>
<text text-anchor="start" x="994.26" y="-403" font-family="Helvetica,sans-Serif" font-size="10.00">/__w/vulpes/vulpes</text>
<text text-anchor="start" x="994.26" y="-392" font-family="Helvetica,sans-Serif" font-size="10.00">/vulpes/fe/fe_expressions</text>
<text text-anchor="middle" x="1056.76" y="-381" font-family="Helvetica,sans-Serif" font-size="10.00">/fe_expr_func.hpp</text>
</a>
</g>
</g>
<!-- Node11&#45;&gt;Node17 -->
<g id="edge24_Node000011_Node000017" class="edge">
<title>Node11&#45;&gt;Node17</title>
<g id="a_edge24_Node000011_Node000017"><a xlink:title=" ">
<path fill="none" stroke="#63b8ff" d="M1025.5,-442.39C1031.57,-433.3 1038.16,-423.41 1043.72,-415.07"/>
<polygon fill="#63b8ff" stroke="#63b8ff" points="1022.54,-440.53 1019.9,-450.79 1028.36,-444.42 1022.54,-440.53"/>
</a>
</g>
</g>
<!-- Node18 -->
<g id="Node000018" class="node">
<title>Node18</title>
<g id="a_Node000018"><a xlink:href="fe__expr__op_8hpp.html" target="_top" xlink:title=" ">
<polygon fill="white" stroke="#666666" points="1286.26,-415 1145.26,-415 1145.26,-374 1286.26,-374 1286.26,-415"/>
<text text-anchor="start" x="1153.26" y="-403" font-family="Helvetica,sans-Serif" font-size="10.00">/__w/vulpes/vulpes</text>
<text text-anchor="start" x="1153.26" y="-392" font-family="Helvetica,sans-Serif" font-size="10.00">/vulpes/fe/fe_expressions</text>
<text text-anchor="middle" x="1215.76" y="-381" font-family="Helvetica,sans-Serif" font-size="10.00">/fe_expr_op.hpp</text>
</a>
</g>
</g>
<!-- Node11&#45;&gt;Node18 -->
<g id="edge26_Node000011_Node000018" class="edge">
<title>Node11&#45;&gt;Node18</title>
<g id="a_edge26_Node000011_Node000018"><a xlink:title=" ">
<path fill="none" stroke="#63b8ff" d="M1070.75,-447.54C1099.71,-437.15 1133.58,-424.99 1161.31,-415.04"/>
<polygon fill="#63b8ff" stroke="#63b8ff" points="1069.36,-444.32 1061.13,-450.99 1071.73,-450.91 1069.36,-444.32"/>
</a>
</g>
</g>
<!-- Node12&#45;&gt;Node3 -->
<g id="edge14_Node000012_Node000003" class="edge">
<title>Node12&#45;&gt;Node3</title>
<g id="a_edge14_Node000012_Node000003"><a xlink:title=" ">
<path fill="none" stroke="#63b8ff" d="M998.83,-305.31C963,-295.73 917.32,-283.38 876.76,-272 874.08,-271.25 871.34,-270.47 868.57,-269.69"/>
<polygon fill="#63b8ff" stroke="#63b8ff" points="998.1,-308.74 1008.66,-307.94 999.9,-301.98 998.1,-308.74"/>
</a>
</g>
</g>
<!-- Node13 -->
<g id="Node000013" class="node">
<title>Node13</title>
<g id="a_Node000013"><a xlink:href="integrator__base_8hpp.html" target="_top" xlink:title=" ">
<polygon fill="white" stroke="#666666" points="919.26,-195 766.26,-195 766.26,-154 919.26,-154 919.26,-195"/>
<text text-anchor="start" x="774.26" y="-183" font-family="Helvetica,sans-Serif" font-size="10.00">/__w/vulpes/vulpes</text>
<text text-anchor="start" x="774.26" y="-172" font-family="Helvetica,sans-Serif" font-size="10.00">/vulpes/assemble/integrator</text>
<text text-anchor="middle" x="842.76" y="-161" font-family="Helvetica,sans-Serif" font-size="10.00">_base.hpp</text>
</a>
</g>
</g>
<!-- Node12&#45;&gt;Node13 -->
<g id="edge15_Node000012_Node000013" class="edge">
<title>Node12&#45;&gt;Node13</title>
<g id="a_edge15_Node000012_Node000013"><a xlink:title=" ">
<path fill="none" stroke="#63b8ff" d="M1065.06,-297.69C1066.39,-277.42 1064.73,-249.03 1048.76,-231 1031.42,-211.42 970.5,-196.55 919.38,-187.15"/>
<polygon fill="#63b8ff" stroke="#63b8ff" points="1061.57,-297.44 1064.12,-307.73 1068.54,-298.1 1061.57,-297.44"/>
</a>
</g>
</g>
<!-- Node14 -->
<g id="Node000014" class="node">
<title>Node14</title>
<g id="a_Node000014"><a xlink:href="integrator__traits_8hpp.html" target="_top" xlink:title=" ">
<polygon fill="white" stroke="#666666" points="1039.26,-272 886.26,-272 886.26,-231 1039.26,-231 1039.26,-272"/>
<text text-anchor="start" x="894.26" y="-260" font-family="Helvetica,sans-Serif" font-size="10.00">/__w/vulpes/vulpes</text>
<text text-anchor="start" x="894.26" y="-249" font-family="Helvetica,sans-Serif" font-size="10.00">/vulpes/assemble/integrator</text>
<text text-anchor="middle" x="962.76" y="-238" font-family="Helvetica,sans-Serif" font-size="10.00">_traits.hpp</text>
</a>
</g>
</g>
<!-- Node12&#45;&gt;Node14 -->
<g id="edge19_Node000012_Node000014" class="edge">
<title>Node12&#45;&gt;Node14</title>
<g id="a_edge19_Node000012_Node000014"><a xlink:title=" ">
<path fill="none" stroke="#63b8ff" d="M1033.34,-302.04C1019.93,-292.63 1003.99,-281.44 990.65,-272.07"/>
<polygon fill="#63b8ff" stroke="#63b8ff" points="1031.54,-305.05 1041.73,-307.94 1035.56,-299.33 1031.54,-305.05"/>
</a>
</g>
</g>
<!-- Node12&#45;&gt;Node15 -->
<g id="edge21_Node000012_Node000015" class="edge">
<title>Node12&#45;&gt;Node15</title>
<g id="a_edge21_Node000012_Node000015"><a xlink:title=" ">
<path fill="none" stroke="#63b8ff" d="M1128.51,-305.49C1175.97,-293.75 1239.11,-278.14 1284.54,-266.9"/>
<polygon fill="#63b8ff" stroke="#63b8ff" points="1127.5,-302.14 1118.63,-307.94 1129.18,-308.93 1127.5,-302.14"/>
</a>
</g>
</g>
<!-- Node13&#45;&gt;Node7 -->
<g id="edge16_Node000013_Node000007" class="edge">
<title>Node13&#45;&gt;Node7</title>
<g id="a_edge16_Node000013_Node000007"><a xlink:title=" ">
<path fill="none" stroke="#63b8ff" d="M929.25,-155.12C987.31,-142.79 1063.1,-126.69 1119.01,-114.81"/>
<polygon fill="#63b8ff" stroke="#63b8ff" points="928.41,-151.72 919.36,-157.23 929.87,-158.57 928.41,-151.72"/>
</a>
</g>
</g>
<!-- Node13&#45;&gt;Node8 -->
<g id="edge17_Node000013_Node000008" class="edge">
<title>Node13&#45;&gt;Node8</title>
<g id="a_edge17_Node000013_Node000008"><a xlink:title=" ">
<path fill="none" stroke="#63b8ff" d="M756.16,-152.55C710.04,-141.39 653.82,-127.79 609.32,-117.02"/>
<polygon fill="#63b8ff" stroke="#63b8ff" points="755.59,-156.01 766.14,-154.96 757.24,-149.21 755.59,-156.01"/>
</a>
</g>
</g>
<!-- Node13&#45;&gt;Node10 -->
<g id="edge18_Node000013_Node000010" class="edge">
<title>Node13&#45;&gt;Node10</title>
<g id="a_edge18_Node000013_Node000010"><a xlink:title=" ">
<path fill="none" stroke="#63b8ff" d="M756.08,-163.54C675.62,-153.77 552.66,-137.53 446.76,-118 444.08,-117.51 441.36,-116.98 438.61,-116.44"/>
<polygon fill="#63b8ff" stroke="#63b8ff" points="755.82,-167.03 766.16,-164.75 756.66,-160.08 755.82,-167.03"/>
</a>
</g>
</g>
<!-- Node14&#45;&gt;Node13 -->
<g id="edge20_Node000014_Node000013" class="edge">
<title>Node14&#45;&gt;Node13</title>
<g id="a_edge20_Node000014_Node000013"><a xlink:title=" ">
<path fill="none" stroke="#63b8ff" d="M923,-225.64C907.14,-215.74 889.16,-204.5 874.24,-195.17"/>
<polygon fill="#63b8ff" stroke="#63b8ff" points="921.21,-228.66 931.55,-230.99 924.92,-222.72 921.21,-228.66"/>
</a>
</g>
</g>
<!-- Node16&#45;&gt;Node12 -->
<g id="edge23_Node000016_Node000012" class="edge">
<title>Node16&#45;&gt;Node12</title>
<g id="a_edge23_Node000016_Node000012"><a xlink:title=" ">
<path fill="none" stroke="#63b8ff" d="M953.29,-369.97C978.35,-359.35 1007.11,-347.16 1028.72,-338"/>
<polygon fill="#63b8ff" stroke="#63b8ff" points="951.73,-366.83 943.88,-373.96 954.46,-373.28 951.73,-366.83"/>
</a>
</g>
</g>
<!-- Node17&#45;&gt;Node12 -->
<g id="edge25_Node000017_Node000012" class="edge">
<title>Node17&#45;&gt;Node12</title>
<g id="a_edge25_Node000017_Node000012"><a xlink:title=" ">
<path fill="none" stroke="#63b8ff" d="M1058.91,-363.66C1059.55,-354.76 1060.22,-345.42 1060.75,-338.04"/>
<polygon fill="#63b8ff" stroke="#63b8ff" points="1055.41,-363.54 1058.18,-373.77 1062.39,-364.05 1055.41,-363.54"/>
</a>
</g>
</g>
<!-- Node18&#45;&gt;Node12 -->
<g id="edge27_Node000018_Node000012" class="edge">
<title>Node18&#45;&gt;Node12</title>
<g id="a_edge27_Node000018_Node000012"><a xlink:title=" ">
<path fill="none" stroke="#63b8ff" d="M1163.04,-369.71C1139.74,-359.19 1113.13,-347.18 1093.04,-338.11"/>
<polygon fill="#63b8ff" stroke="#63b8ff" points="1161.9,-373.03 1172.46,-373.96 1164.78,-366.65 1161.9,-373.03"/>
</a>
</g>
</g>
<!-- Node20 -->
<g id="Node000020" class="node">
<title>Node20</title>
<g id="a_Node000020"><a xlink:href="fe__lagrange__simplex_8cpp.html" target="_top" xlink:title=" ">
<polygon fill="white" stroke="#666666" points="542.76,-492 400.76,-492 400.76,-451 542.76,-451 542.76,-492"/>
<text text-anchor="start" x="408.76" y="-480" font-family="Helvetica,sans-Serif" font-size="10.00">/__w/vulpes/vulpes</text>
<text text-anchor="start" x="408.76" y="-469" font-family="Helvetica,sans-Serif" font-size="10.00">/vulpes/fe/fe_spaces</text>
<text text-anchor="middle" x="471.76" y="-458" font-family="Helvetica,sans-Serif" font-size="10.00">/fe_lagrange_simplex.cpp</text>
</a>
</g>
</g>
<!-- Node19&#45;&gt;Node20 -->
<g id="edge29_Node000019_Node000020" class="edge">
<title>Node19&#45;&gt;Node20</title>
<g id="a_edge29_Node000019_Node000020"><a xlink:title=" ">
<path fill="none" stroke="#63b8ff" d="M454.68,-518.26C457.96,-509.48 461.47,-500.07 464.46,-492.07"/>
<polygon fill="#63b8ff" stroke="#63b8ff" points="451.34,-517.2 451.12,-527.79 457.9,-519.65 451.34,-517.2"/>
</a>
</g>
</g>
<!-- Node19&#45;&gt;Node21 -->
<g id="edge30_Node000019_Node000021" class="edge">
<title>Node19&#45;&gt;Node21</title>
<g id="a_edge30_Node000019_Node000021"><a xlink:title=" ">
<path fill="none" stroke="#63b8ff" d="M501.1,-524.13C526.37,-513.83 555.73,-501.86 579.82,-492.04"/>
<polygon fill="#63b8ff" stroke="#63b8ff" points="499.57,-520.97 491.63,-527.99 502.21,-527.46 499.57,-520.97"/>
</a>
</g>
</g>
<!-- Node19&#45;&gt;Node22 -->
<g id="edge31_Node000019_Node000022" class="edge">
<title>Node19&#45;&gt;Node22</title>
<g id="a_edge31_Node000019_Node000022"><a xlink:title=" ">
<path fill="none" stroke="#63b8ff" d="M401.68,-522.64C384.9,-512.74 365.87,-501.5 350.08,-492.17"/>
<polygon fill="#63b8ff" stroke="#63b8ff" points="400.34,-525.92 410.73,-527.99 403.9,-519.89 400.34,-525.92"/>
</a>
</g>
</g>
<!-- Node24&#45;&gt;Node3 -->
<g id="edge37_Node000024_Node000003" class="edge">
<title>Node24&#45;&gt;Node3</title>
<g id="a_edge37_Node000024_Node000003"><a xlink:title=" ">
<path fill="none" stroke="#63b8ff" d="M777.12,-523.3C773.04,-479.63 767.37,-385.06 784.76,-308 787.58,-295.53 793.32,-282.45 798.59,-272.12"/>
<polygon fill="#63b8ff" stroke="#63b8ff" points="773.66,-523.89 778.13,-533.5 780.63,-523.2 773.66,-523.89"/>
</a>
</g>
</g>
<!-- Node24&#45;&gt;Node11 -->
<g id="edge40_Node000024_Node000011" class="edge">
<title>Node24&#45;&gt;Node11</title>
<g id="a_edge40_Node000024_Node000011"><a xlink:title=" ">
<path fill="none" stroke="#63b8ff" d="M832.06,-530.22C866.49,-518.85 911.64,-503.93 947.42,-492.11"/>
<polygon fill="#63b8ff" stroke="#63b8ff" points="830.59,-527.02 822.2,-533.48 832.79,-533.67 830.59,-527.02"/>
</a>
</g>
</g>
<!-- Node24&#45;&gt;Node13 -->
<g id="edge38_Node000024_Node000013" class="edge">
<title>Node24&#45;&gt;Node13</title>
<g id="a_edge38_Node000024_Node000013"><a xlink:title=" ">
<path fill="none" stroke="#63b8ff" d="M765.26,-524.6C748.38,-495.69 722.76,-443.86 722.76,-395.5 722.76,-395.5 722.76,-395.5 722.76,-322 722.76,-280.68 717.19,-264.21 741.76,-231 753.31,-215.4 770.61,-203.65 787.64,-195.08"/>
<polygon fill="#63b8ff" stroke="#63b8ff" points="762.46,-526.72 770.61,-533.49 768.45,-523.12 762.46,-526.72"/>
</a>
</g>
</g>
<!-- Node24&#45;&gt;Node14 -->
<g id="edge39_Node000024_Node000014" class="edge">
<title>Node24&#45;&gt;Node14</title>
<g id="a_edge39_Node000024_Node000014"><a xlink:title=" ">
<path fill="none" stroke="#63b8ff" d="M783.1,-523.26C789.14,-481.7 802.66,-398.94 817.76,-374 844.9,-329.19 894.51,-293.05 928.05,-272.18"/>
<polygon fill="#63b8ff" stroke="#63b8ff" points="779.61,-522.95 781.66,-533.34 786.54,-523.93 779.61,-522.95"/>
</a>
</g>
</g>
</g>
</svg>

<g id="navigator" transform="translate(0 0)" fill="#404254">
  <rect fill="#f2f5e9" fill-opacity="0.5" stroke="#606060" stroke-width=".5" x="0" y="0" width="60" height="60"/>
  <use id="zoomplus" xlink:href="#zoomPlus" x="17" y="9" onmousedown="handleZoom(evt,'in')"/>
  <use id="zoomminus" xlink:href="#zoomMin" x="42" y="9" onmousedown="handleZoom(evt,'out')"/>
  <use id="reset" xlink:href="#resetDef" x="30" y="36" onmousedown="handleReset()"/>
   <use id="arrowup" xlink:href="#arrowUp" x="0" y="0" onmousedown="handlePan(0,-1)"/>
  <use id="arrowright" xlink:href="#arrowRight" x="0" y="0" onmousedown="handlePan(1,0)"/>
  <use id="arrowdown" xlink:href="#arrowDown" x="0" y="0" onmousedown="handlePan(0,1)"/>
  <use id="arrowleft" xlink:href="#arrowLeft" x="0" y="0" onmousedown="handlePan(-1,0)"/>
</g>
<svg viewBox="0 0 15 15" width="100%" height="30px" preserveAspectRatio="xMaxYMin meet">
 <g id="arrow_out" transform="scale(0.3 0.3)">
  <a xlink:href="vvutils_8hpp__dep__incl_org.svg" target="_base">
   <rect id="button" ry="5" rx="5" y="6" x="6" height="38" width="38"
        fill="#f2f5e9" fill-opacity="0.5" stroke="#606060" stroke-width="1.0"/>
   <path id="arrow"
     d="M 11.500037,31.436501 C 11.940474,20.09759 22.043105,11.32322 32.158766,21.979434 L 37.068811,17.246167 C 37.068811,17.246167 37.088388,32 37.088388,32 L 22.160133,31.978069 C 22.160133,31.978069 26.997745,27.140456 26.997745,27.140456 C 18.528582,18.264221 13.291696,25.230495 11.500037,31.436501 z"
     style="fill:#404040;"/>
  </a>
 </g>
</svg>

<style type='text/css'>
<![CDATA[
[data-mouse-over-selected='false'] { opacity: 0.7; }
[data-mouse-over-selected='true']  { opacity: 1.0; }
]]>
</style>
<script type="application/ecmascript"><![CDATA[
document.addEventListener('DOMContentLoaded', (event) => {
  highlightEdges();
  highlightAdjacentNodes();
});
]]></script>
</svg>
