<?xml version="1.0" encoding="UTF-8" standalone="no"?>
<!DOCTYPE svg PUBLIC "-//W3C//DTD SVG 1.1//EN"
 "http://www.w3.org/Graphics/SVG/1.1/DTD/svg11.dtd">
<!-- Generated by graphviz version 2.43.0 (0)
 -->
<!-- Title: /__w/vulpes/vulpes/vulpes/utils/vvutils.hpp Pages: 1 -->
<svg width="1007pt" height="489pt"
 viewBox="0.00 0.00 1007.00 489.00" xmlns="http://www.w3.org/2000/svg" xmlns:xlink="http://www.w3.org/1999/xlink">
<g id="graph0" class="graph" transform="scale(1 1) rotate(0) translate(4 485)">
<title>/__w/vulpes/vulpes/vulpes/utils/vvutils.hpp</title>
<!-- Node1 -->
<g id="Node000001" class="node">
<title>Node1</title>
<g id="a_Node000001"><a xlink:title=" ">
<polygon fill="#999999" stroke="#666666" points="472,-481 339,-481 339,-451 472,-451 472,-481"/>
<text text-anchor="start" x="347" y="-469" font-family="Helvetica,sans-Serif" font-size="10.00">/__w/vulpes/vulpes</text>
<text text-anchor="middle" x="405.5" y="-458" font-family="Helvetica,sans-Serif" font-size="10.00">/vulpes/utils/vvutils.hpp</text>
</a>
</g>
</g>
<!-- Node2 -->
<g id="Node000002" class="node">
<title>Node2</title>
<g id="a_Node000002"><a xlink:href="dof__handler_8hpp.html" target="_top" xlink:title=" ">
<polygon fill="white" stroke="#666666" points="157,-266.5 0,-266.5 0,-236.5 157,-236.5 157,-266.5"/>
<text text-anchor="start" x="8" y="-254.5" font-family="Helvetica,sans-Serif" font-size="10.00">/__w/vulpes/vulpes</text>
<text text-anchor="middle" x="78.5" y="-243.5" font-family="Helvetica,sans-Serif" font-size="10.00">/vulpes/dofs/dof_handler.hpp</text>
</a>
</g>
</g>
<!-- Node1&#45;&gt;Node2 -->
<g id="edge1_Node000001_Node000002" class="edge">
<title>Node1&#45;&gt;Node2</title>
<g id="a_edge1_Node000001_Node000002"><a xlink:title=" ">
<path fill="none" stroke="#63b8ff" d="M374.76,-445.37C360.38,-436.18 343.05,-425.06 327.5,-415 243.2,-360.47 143.26,-295 100.11,-266.69"/>
<polygon fill="#63b8ff" stroke="#63b8ff" points="372.97,-448.39 383.28,-450.82 376.74,-442.49 372.97,-448.39"/>
</a>
</g>
</g>
<!-- Node8 -->
<g id="Node000008" class="node">
<title>Node8</title>
<g id="a_Node000008"><a xlink:href="dof__policy_8hpp.html" target="_top" xlink:title=" ">
<polygon fill="white" stroke="#666666" points="474,-409.5 337,-409.5 337,-379.5 474,-379.5 474,-409.5"/>
<text text-anchor="start" x="345" y="-397.5" font-family="Helvetica,sans-Serif" font-size="10.00">/__w/vulpes/vulpes</text>
<text text-anchor="middle" x="405.5" y="-386.5" font-family="Helvetica,sans-Serif" font-size="10.00">/vulpes/fe/dof_policy.hpp</text>
</a>
</g>
</g>
<!-- Node1&#45;&gt;Node8 -->
<g id="edge7_Node000001_Node000008" class="edge">
<title>Node1&#45;&gt;Node8</title>
<g id="a_edge7_Node000001_Node000008"><a xlink:title=" ">
<path fill="none" stroke="#63b8ff" d="M405.5,-440.75C405.5,-430.31 405.5,-418.49 405.5,-409.54"/>
<polygon fill="#63b8ff" stroke="#63b8ff" points="402,-440.94 405.5,-450.94 409,-440.94 402,-440.94"/>
</a>
</g>
</g>
<!-- Node18 -->
<g id="Node000018" class="node">
<title>Node18</title>
<g id="a_Node000018"><a xlink:href="parallel__mesh_8hpp.html" target="_top" xlink:title=" ">
<polygon fill="white" stroke="#666666" points="634.5,-415 492.5,-415 492.5,-374 634.5,-374 634.5,-415"/>
<text text-anchor="start" x="500.5" y="-403" font-family="Helvetica,sans-Serif" font-size="10.00">/__w/vulpes/vulpes</text>
<text text-anchor="start" x="500.5" y="-392" font-family="Helvetica,sans-Serif" font-size="10.00">/vulpes/geometry/parallel</text>
<text text-anchor="middle" x="563.5" y="-381" font-family="Helvetica,sans-Serif" font-size="10.00">_mesh.hpp</text>
</a>
</g>
</g>
<!-- Node1&#45;&gt;Node18 -->
<g id="edge26_Node000001_Node000018" class="edge">
<title>Node1&#45;&gt;Node18</title>
<g id="a_edge26_Node000001_Node000018"><a xlink:title=" ">
<path fill="none" stroke="#63b8ff" d="M446.64,-446.9C468.85,-437.13 496.29,-425.06 519,-415.07"/>
<polygon fill="#63b8ff" stroke="#63b8ff" points="445.22,-443.71 437.47,-450.94 448.04,-450.11 445.22,-443.71"/>
</a>
</g>
</g>
<!-- Node3 -->
<g id="Node000003" class="node">
<title>Node3</title>
<g id="a_Node000003"><a xlink:href="integrator__base_8hpp.html" target="_top" xlink:title=" ">
<polygon fill="white" stroke="#666666" points="407,-118 254,-118 254,-77 407,-77 407,-118"/>
<text text-anchor="start" x="262" y="-106" font-family="Helvetica,sans-Serif" font-size="10.00">/__w/vulpes/vulpes</text>
<text text-anchor="start" x="262" y="-95" font-family="Helvetica,sans-Serif" font-size="10.00">/vulpes/assemble/integrator</text>
<text text-anchor="middle" x="330.5" y="-84" font-family="Helvetica,sans-Serif" font-size="10.00">_base.hpp</text>
</a>
</g>
</g>
<!-- Node2&#45;&gt;Node3 -->
<g id="edge2_Node000002_Node000003" class="edge">
<title>Node2&#45;&gt;Node3</title>
<g id="a_edge2_Node000002_Node000003"><a xlink:title=" ">
<path fill="none" stroke="#63b8ff" d="M109.57,-230.9C140.93,-211.21 190.85,-180.11 234.5,-154 254.82,-141.84 277.78,-128.56 296.14,-118.03"/>
<polygon fill="#63b8ff" stroke="#63b8ff" points="107.45,-228.1 100.85,-236.39 111.18,-234.03 107.45,-228.1"/>
</a>
</g>
</g>
<!-- Node4 -->
<g id="Node000004" class="node">
<title>Node4</title>
<g id="a_Node000004"><a xlink:href="integrator__gauss_8hpp.html" target="_top" xlink:title=" ">
<polygon fill="white" stroke="#666666" points="999,-41 846,-41 846,0 999,0 999,-41"/>
<text text-anchor="start" x="854" y="-29" font-family="Helvetica,sans-Serif" font-size="10.00">/__w/vulpes/vulpes</text>
<text text-anchor="start" x="854" y="-18" font-family="Helvetica,sans-Serif" font-size="10.00">/vulpes/assemble/integrator</text>
<text text-anchor="middle" x="922.5" y="-7" font-family="Helvetica,sans-Serif" font-size="10.00">_gauss.hpp</text>
</a>
</g>
</g>
<!-- Node3&#45;&gt;Node4 -->
<g id="edge3_Node000003_Node000004" class="edge">
<title>Node3&#45;&gt;Node4</title>
<g id="a_edge3_Node000003_Node000004"><a xlink:title=" ">
<path fill="none" stroke="#63b8ff" d="M417.52,-85.48C533.16,-70.82 735.69,-45.17 845.85,-31.21"/>
<polygon fill="#63b8ff" stroke="#63b8ff" points="416.77,-82.04 407.29,-86.77 417.65,-88.99 416.77,-82.04"/>
</a>
</g>
</g>
<!-- Node5 -->
<g id="Node000005" class="node">
<title>Node5</title>
<g id="a_Node000005"><a xlink:href="integrator__qfree_8hpp.html" target="_top" xlink:title=" ">
<polygon fill="white" stroke="#666666" points="262,-41 109,-41 109,0 262,0 262,-41"/>
<text text-anchor="start" x="117" y="-29" font-family="Helvetica,sans-Serif" font-size="10.00">/__w/vulpes/vulpes</text>
<text text-anchor="start" x="117" y="-18" font-family="Helvetica,sans-Serif" font-size="10.00">/vulpes/assemble/integrator</text>
<text text-anchor="middle" x="185.5" y="-7" font-family="Helvetica,sans-Serif" font-size="10.00">_qfree.hpp</text>
</a>
</g>
</g>
<!-- Node3&#45;&gt;Node5 -->
<g id="edge4_Node000003_Node000005" class="edge">
<title>Node3&#45;&gt;Node5</title>
<g id="a_edge4_Node000003_Node000005"><a xlink:title=" ">
<path fill="none" stroke="#63b8ff" d="M283.74,-72.31C264.18,-62.2 241.76,-50.6 223.28,-41.04"/>
<polygon fill="#63b8ff" stroke="#63b8ff" points="282.29,-75.5 292.78,-76.99 285.51,-69.29 282.29,-75.5"/>
</a>
</g>
</g>
<!-- Node6 -->
<g id="Node000006" class="node">
<title>Node6</title>
<g id="a_Node000006"><a xlink:href="integrator__simplexify_8hpp.html" target="_top" xlink:title=" ">
<polygon fill="white" stroke="#666666" points="679,-41 526,-41 526,0 679,0 679,-41"/>
<text text-anchor="start" x="534" y="-29" font-family="Helvetica,sans-Serif" font-size="10.00">/__w/vulpes/vulpes</text>
<text text-anchor="start" x="534" y="-18" font-family="Helvetica,sans-Serif" font-size="10.00">/vulpes/assemble/integrator</text>
<text text-anchor="middle" x="602.5" y="-7" font-family="Helvetica,sans-Serif" font-size="10.00">_simplexify.hpp</text>
</a>
</g>
</g>
<!-- Node3&#45;&gt;Node6 -->
<g id="edge5_Node000003_Node000006" class="edge">
<title>Node3&#45;&gt;Node6</title>
<g id="a_edge5_Node000003_Node000006"><a xlink:title=" ">
<path fill="none" stroke="#63b8ff" d="M411.32,-74.21C449.54,-63.68 494.76,-51.21 531.63,-41.04"/>
<polygon fill="#63b8ff" stroke="#63b8ff" points="409.96,-70.96 401.25,-76.99 411.83,-77.71 409.96,-70.96"/>
</a>
</g>
</g>
<!-- Node7 -->
<g id="Node000007" class="node">
<title>Node7</title>
<g id="a_Node000007"><a xlink:href="integrator__vem__moment_8hpp.html" target="_top" xlink:title=" ">
<polygon fill="white" stroke="#666666" points="433,-41 280,-41 280,0 433,0 433,-41"/>
<text text-anchor="start" x="288" y="-29" font-family="Helvetica,sans-Serif" font-size="10.00">/__w/vulpes/vulpes</text>
<text text-anchor="start" x="288" y="-18" font-family="Helvetica,sans-Serif" font-size="10.00">/vulpes/assemble/integrator</text>
<text text-anchor="middle" x="356.5" y="-7" font-family="Helvetica,sans-Serif" font-size="10.00">_vem_moment.hpp</text>
</a>
</g>
</g>
<!-- Node3&#45;&gt;Node7 -->
<g id="edge6_Node000003_Node000007" class="edge">
<title>Node3&#45;&gt;Node7</title>
<g id="a_edge6_Node000003_Node000007"><a xlink:title=" ">
<path fill="none" stroke="#63b8ff" d="M340.64,-67.26C343.68,-58.48 346.94,-49.07 349.71,-41.07"/>
<polygon fill="#63b8ff" stroke="#63b8ff" points="337.3,-66.2 337.33,-76.79 343.91,-68.49 337.3,-66.2"/>
</a>
</g>
</g>
<!-- Node9 -->
<g id="Node000009" class="node">
<title>Node9</title>
<g id="a_Node000009"><a xlink:href="fe__space_8hpp.html" target="_top" xlink:title=" ">
<polygon fill="white" stroke="#666666" points="531.5,-338 399.5,-338 399.5,-308 531.5,-308 531.5,-338"/>
<text text-anchor="start" x="407.5" y="-326" font-family="Helvetica,sans-Serif" font-size="10.00">/__w/vulpes/vulpes</text>
<text text-anchor="middle" x="465.5" y="-315" font-family="Helvetica,sans-Serif" font-size="10.00">/vulpes/fe/fe_space.hpp</text>
</a>
</g>
</g>
<!-- Node8&#45;&gt;Node9 -->
<g id="edge8_Node000008_Node000009" class="edge">
<title>Node8&#45;&gt;Node9</title>
<g id="a_edge8_Node000008_Node000009"><a xlink:title=" ">
<path fill="none" stroke="#63b8ff" d="M424.19,-371.85C433.71,-360.83 445,-347.74 453.38,-338.04"/>
<polygon fill="#63b8ff" stroke="#63b8ff" points="421.53,-369.58 417.64,-379.44 426.83,-374.15 421.53,-369.58"/>
</a>
</g>
</g>
<!-- Node9&#45;&gt;Node2 -->
<g id="edge12_Node000009_Node000002" class="edge">
<title>Node9&#45;&gt;Node2</title>
<g id="a_edge12_Node000009_Node000002"><a xlink:title=" ">
<path fill="none" stroke="#63b8ff" d="M389.34,-309.87C329.9,-300.2 245.31,-286.01 171.5,-272 162.5,-270.29 153.04,-268.41 143.73,-266.51"/>
<polygon fill="#63b8ff" stroke="#63b8ff" points="388.97,-313.35 399.4,-311.5 390.09,-306.44 388.97,-313.35"/>
</a>
</g>
</g>
<!-- Node9&#45;&gt;Node4 -->
<g id="edge9_Node000009_Node000004" class="edge">
<title>Node9&#45;&gt;Node4</title>
<g id="a_edge9_Node000009_Node000004"><a xlink:title=" ">
<path fill="none" stroke="#63b8ff" d="M541.75,-319.88C674.52,-315.39 936.71,-302.71 964.5,-272 1024.41,-205.79 963.26,-87.59 935.09,-41.07"/>
<polygon fill="#63b8ff" stroke="#63b8ff" points="541.53,-316.38 531.65,-320.21 541.76,-323.38 541.53,-316.38"/>
</a>
</g>
</g>
<!-- Node9&#45;&gt;Node5 -->
<g id="edge10_Node000009_Node000005" class="edge">
<title>Node9&#45;&gt;Node5</title>
<g id="a_edge10_Node000009_Node000005"><a xlink:title=" ">
<path fill="none" stroke="#63b8ff" d="M389.03,-317.44C320.97,-311.66 228.57,-298.97 204.5,-272 145.69,-206.1 168.03,-87.72 179.94,-41.11"/>
<polygon fill="#63b8ff" stroke="#63b8ff" points="389.05,-320.96 399.3,-318.28 389.62,-313.98 389.05,-320.96"/>
</a>
</g>
</g>
<!-- Node9&#45;&gt;Node6 -->
<g id="edge11_Node000009_Node000006" class="edge">
<title>Node9&#45;&gt;Node6</title>
<g id="a_edge11_Node000009_Node000006"><a xlink:title=" ">
<path fill="none" stroke="#63b8ff" d="M541.91,-319.45C669.44,-314.41 914.37,-301.03 940.5,-272 1034.33,-167.78 797.29,-78.98 672.91,-41.1"/>
<polygon fill="#63b8ff" stroke="#63b8ff" points="541.67,-315.96 531.81,-319.85 541.94,-322.95 541.67,-315.96"/>
</a>
</g>
</g>
<!-- Node10 -->
<g id="Node000010" class="node">
<title>Node10</title>
<g id="a_Node000010"><a xlink:href="fe__expression_8hpp.html" target="_top" xlink:title=" ">
<polygon fill="white" stroke="#666666" points="409,-189.5 252,-189.5 252,-159.5 409,-159.5 409,-189.5"/>
<text text-anchor="start" x="260" y="-177.5" font-family="Helvetica,sans-Serif" font-size="10.00">/__w/vulpes/vulpes</text>
<text text-anchor="middle" x="330.5" y="-166.5" font-family="Helvetica,sans-Serif" font-size="10.00">/vulpes/fe/fe_expression.hpp</text>
</a>
</g>
</g>
<!-- Node9&#45;&gt;Node10 -->
<g id="edge13_Node000009_Node000010" class="edge">
<title>Node9&#45;&gt;Node10</title>
<g id="a_edge13_Node000009_Node000010"><a xlink:title=" ">
<path fill="none" stroke="#63b8ff" d="M445.62,-300.42C417.62,-270.04 367.35,-215.49 343.6,-189.72"/>
<polygon fill="#63b8ff" stroke="#63b8ff" points="443.21,-302.97 452.56,-307.95 448.35,-298.23 443.21,-302.97"/>
</a>
</g>
</g>
<!-- Node11 -->
<g id="Node000011" class="node">
<title>Node11</title>
<g id="a_Node000011"><a xlink:href="fe__lagrange__simplex_8hpp.html" target="_top" xlink:title=" ">
<polygon fill="white" stroke="#666666" points="587,-272 444,-272 444,-231 587,-231 587,-272"/>
<text text-anchor="start" x="452" y="-260" font-family="Helvetica,sans-Serif" font-size="10.00">/__w/vulpes/vulpes</text>
<text text-anchor="start" x="452" y="-249" font-family="Helvetica,sans-Serif" font-size="10.00">/vulpes/fe/fe_spaces</text>
<text text-anchor="middle" x="515.5" y="-238" font-family="Helvetica,sans-Serif" font-size="10.00">/fe_lagrange_simplex.hpp</text>
</a>
</g>
</g>
<!-- Node9&#45;&gt;Node11 -->
<g id="edge15_Node000009_Node000011" class="edge">
<title>Node9&#45;&gt;Node11</title>
<g id="a_edge15_Node000009_Node000011"><a xlink:title=" ">
<path fill="none" stroke="#63b8ff" d="M481.62,-299.59C488,-290.73 495.26,-280.63 501.42,-272.07"/>
<polygon fill="#63b8ff" stroke="#63b8ff" points="478.62,-297.77 475.62,-307.94 484.3,-301.86 478.62,-297.77"/>
</a>
</g>
</g>
<!-- Node13 -->
<g id="Node000013" class="node">
<title>Node13</title>
<g id="a_Node000013"><a xlink:href="fe__lagrange__tensor_8hpp.html" target="_top" xlink:title=" ">
<polygon fill="white" stroke="#666666" points="561.5,-195 427.5,-195 427.5,-154 561.5,-154 561.5,-195"/>
<text text-anchor="start" x="435.5" y="-183" font-family="Helvetica,sans-Serif" font-size="10.00">/__w/vulpes/vulpes</text>
<text text-anchor="start" x="435.5" y="-172" font-family="Helvetica,sans-Serif" font-size="10.00">/vulpes/fe/fe_spaces</text>
<text text-anchor="middle" x="494.5" y="-161" font-family="Helvetica,sans-Serif" font-size="10.00">/fe_lagrange_tensor.hpp</text>
</a>
</g>
</g>
<!-- Node9&#45;&gt;Node13 -->
<g id="edge19_Node000009_Node000013" class="edge">
<title>Node9&#45;&gt;Node13</title>
<g id="a_edge19_Node000009_Node000013"><a xlink:title=" ">
<path fill="none" stroke="#63b8ff" d="M447.85,-299.47C442.47,-291.29 437.25,-281.67 434.5,-272 429.51,-254.47 427.2,-247.7 434.5,-231 440.75,-216.7 452.71,-204.44 464.31,-195.11"/>
<polygon fill="#63b8ff" stroke="#63b8ff" points="445.03,-301.55 453.64,-307.72 450.76,-297.53 445.03,-301.55"/>
</a>
</g>
</g>
<!-- Node14 -->
<g id="Node000014" class="node">
<title>Node14</title>
<g id="a_Node000014"><a xlink:href="fe__modal__simplex_8hpp.html" target="_top" xlink:title=" ">
<polygon fill="white" stroke="#666666" points="871,-195 740,-195 740,-154 871,-154 871,-195"/>
<text text-anchor="start" x="748" y="-183" font-family="Helvetica,sans-Serif" font-size="10.00">/__w/vulpes/vulpes</text>
<text text-anchor="start" x="748" y="-172" font-family="Helvetica,sans-Serif" font-size="10.00">/vulpes/fe/fe_spaces</text>
<text text-anchor="middle" x="805.5" y="-161" font-family="Helvetica,sans-Serif" font-size="10.00">/fe_modal_simplex.hpp</text>
</a>
</g>
</g>
<!-- Node9&#45;&gt;Node14 -->
<g id="edge20_Node000009_Node000014" class="edge">
<title>Node9&#45;&gt;Node14</title>
<g id="a_edge20_Node000009_Node000014"><a xlink:title=" ">
<path fill="none" stroke="#63b8ff" d="M526.65,-304.75C549.36,-296.77 574.65,-285.92 595.5,-272 616.41,-258.03 613.22,-244.4 634.5,-231 652.46,-219.69 699.6,-204.73 739.84,-193.2"/>
<polygon fill="#63b8ff" stroke="#63b8ff" points="525.44,-301.46 517.1,-307.99 527.69,-308.09 525.44,-301.46"/>
</a>
</g>
</g>
<!-- Node15 -->
<g id="Node000015" class="node">
<title>Node15</title>
<g id="a_Node000015"><a xlink:href="fe__modal__tensor_8hpp.html" target="_top" xlink:title=" ">
<polygon fill="white" stroke="#666666" points="765.5,-272 643.5,-272 643.5,-231 765.5,-231 765.5,-272"/>
<text text-anchor="start" x="651.5" y="-260" font-family="Helvetica,sans-Serif" font-size="10.00">/__w/vulpes/vulpes</text>
<text text-anchor="start" x="651.5" y="-249" font-family="Helvetica,sans-Serif" font-size="10.00">/vulpes/fe/fe_spaces</text>
<text text-anchor="middle" x="704.5" y="-238" font-family="Helvetica,sans-Serif" font-size="10.00">/fe_modal_tensor.hpp</text>
</a>
</g>
</g>
<!-- Node9&#45;&gt;Node15 -->
<g id="edge21_Node000009_Node000015" class="edge">
<title>Node9&#45;&gt;Node15</title>
<g id="a_edge21_Node000009_Node000015"><a xlink:title=" ">
<path fill="none" stroke="#63b8ff" d="M523.81,-305.04C560.08,-294.5 606.67,-280.95 643.45,-270.25"/>
<polygon fill="#63b8ff" stroke="#63b8ff" points="522.49,-301.78 513.87,-307.94 524.44,-308.5 522.49,-301.78"/>
</a>
</g>
</g>
<!-- Node16 -->
<g id="Node000016" class="node">
<title>Node16</title>
<g id="a_Node000016"><a xlink:href="fe__scaled__monomials_8hpp.html" target="_top" xlink:title=" ">
<polygon fill="white" stroke="#666666" points="931,-272 784,-272 784,-231 931,-231 931,-272"/>
<text text-anchor="start" x="792" y="-260" font-family="Helvetica,sans-Serif" font-size="10.00">/__w/vulpes/vulpes</text>
<text text-anchor="start" x="792" y="-249" font-family="Helvetica,sans-Serif" font-size="10.00">/vulpes/fe/fe_spaces</text>
<text text-anchor="middle" x="857.5" y="-238" font-family="Helvetica,sans-Serif" font-size="10.00">/fe_scaled_monomials.hpp</text>
</a>
</g>
</g>
<!-- Node9&#45;&gt;Node16 -->
<g id="edge22_Node000009_Node000016" class="edge">
<title>Node9&#45;&gt;Node16</title>
<g id="a_edge22_Node000009_Node000016"><a xlink:title=" ">
<path fill="none" stroke="#63b8ff" d="M541.95,-311.16C604.64,-301.9 695.6,-287.63 774.5,-272 777.55,-271.4 780.66,-270.76 783.79,-270.1"/>
<polygon fill="#63b8ff" stroke="#63b8ff" points="541.13,-307.74 531.74,-312.66 542.15,-314.67 541.13,-307.74"/>
</a>
</g>
</g>
<!-- Node17 -->
<g id="Node000017" class="node">
<title>Node17</title>
<g id="a_Node000017"><a xlink:href="fe__values_8hpp.html" target="_top" xlink:title=" ">
<polygon fill="white" stroke="#666666" points="349.5,-266.5 213.5,-266.5 213.5,-236.5 349.5,-236.5 349.5,-266.5"/>
<text text-anchor="start" x="221.5" y="-254.5" font-family="Helvetica,sans-Serif" font-size="10.00">/__w/vulpes/vulpes</text>
<text text-anchor="middle" x="281.5" y="-243.5" font-family="Helvetica,sans-Serif" font-size="10.00">/vulpes/fe/fe_values.hpp</text>
</a>
</g>
</g>
<!-- Node9&#45;&gt;Node17 -->
<g id="edge23_Node000009_Node000017" class="edge">
<title>Node9&#45;&gt;Node17</title>
<g id="a_edge23_Node000009_Node000017"><a xlink:title=" ">
<path fill="none" stroke="#63b8ff" d="M418.54,-304.26C387.54,-292.55 347.47,-277.42 318.68,-266.54"/>
<polygon fill="#63b8ff" stroke="#63b8ff" points="417.67,-307.68 428.26,-307.94 420.15,-301.13 417.67,-307.68"/>
</a>
</g>
</g>
<!-- Node10&#45;&gt;Node3 -->
<g id="edge14_Node000010_Node000003" class="edge">
<title>Node10&#45;&gt;Node3</title>
<g id="a_edge14_Node000010_Node000003"><a xlink:title=" ">
<path fill="none" stroke="#63b8ff" d="M330.5,-149.23C330.5,-139.2 330.5,-127.71 330.5,-118.2"/>
<polygon fill="#63b8ff" stroke="#63b8ff" points="327,-149.39 330.5,-159.39 334,-149.39 327,-149.39"/>
</a>
</g>
</g>
<!-- Node12 -->
<g id="Node000012" class="node">
<title>Node12</title>
<g id="a_Node000012"><a xlink:href="fe__lagrange__simplex_8cpp.html" target="_top" xlink:title=" ">
<polygon fill="white" stroke="#666666" points="721.5,-195 579.5,-195 579.5,-154 721.5,-154 721.5,-195"/>
<text text-anchor="start" x="587.5" y="-183" font-family="Helvetica,sans-Serif" font-size="10.00">/__w/vulpes/vulpes</text>
<text text-anchor="start" x="587.5" y="-172" font-family="Helvetica,sans-Serif" font-size="10.00">/vulpes/fe/fe_spaces</text>
<text text-anchor="middle" x="650.5" y="-161" font-family="Helvetica,sans-Serif" font-size="10.00">/fe_lagrange_simplex.cpp</text>
</a>
</g>
</g>
<!-- Node11&#45;&gt;Node12 -->
<g id="edge16_Node000011_Node000012" class="edge">
<title>Node11&#45;&gt;Node12</title>
<g id="a_edge16_Node000011_Node000012"><a xlink:title=" ">
<path fill="none" stroke="#63b8ff" d="M559.75,-225.92C577.7,-215.95 598.15,-204.58 615.09,-195.17"/>
<polygon fill="#63b8ff" stroke="#63b8ff" points="557.66,-223.07 550.62,-230.99 561.06,-229.19 557.66,-223.07"/>
</a>
</g>
</g>
<!-- Node11&#45;&gt;Node13 -->
<g id="edge17_Node000011_Node000013" class="edge">
<title>Node11&#45;&gt;Node13</title>
<g id="a_edge17_Node000011_Node000013"><a xlink:title=" ">
<path fill="none" stroke="#63b8ff" d="M507.23,-220.98C504.8,-212.28 502.19,-202.98 499.98,-195.07"/>
<polygon fill="#63b8ff" stroke="#63b8ff" points="503.92,-222.11 509.98,-230.79 510.66,-220.22 503.92,-222.11"/>
</a>
</g>
</g>
<!-- Node11&#45;&gt;Node14 -->
<g id="edge18_Node000011_Node000014" class="edge">
<title>Node11&#45;&gt;Node14</title>
<g id="a_edge18_Node000011_Node000014"><a xlink:title=" ">
<path fill="none" stroke="#63b8ff" d="M596.93,-229.52C637.14,-219.14 686.37,-206.43 730.5,-195 733.5,-194.22 736.56,-193.43 739.65,-192.63"/>
<polygon fill="#63b8ff" stroke="#63b8ff" points="595.98,-226.14 587.17,-232.03 597.73,-232.92 595.98,-226.14"/>
</a>
</g>
</g>
<!-- Node17&#45;&gt;Node3 -->
<g id="edge24_Node000017_Node000003" class="edge">
<title>Node17&#45;&gt;Node3</title>
<g id="a_edge24_Node000017_Node000003"><a xlink:title=" ">
<path fill="none" stroke="#63b8ff" d="M261.46,-228.35C245.9,-208.34 229.06,-178.37 242.5,-154 251.05,-138.5 265.95,-126.73 281.08,-118.11"/>
<polygon fill="#63b8ff" stroke="#63b8ff" points="258.91,-230.76 267.95,-236.28 264.32,-226.32 258.91,-230.76"/>
</a>
</g>
</g>
<!-- Node17&#45;&gt;Node10 -->
<g id="edge25_Node000017_Node000010" class="edge">
<title>Node17&#45;&gt;Node10</title>
<g id="a_edge25_Node000017_Node000010"><a xlink:title=" ">
<path fill="none" stroke="#63b8ff" d="M296.28,-227.88C304.43,-215.41 314.29,-200.32 321.32,-189.54"/>
<polygon fill="#63b8ff" stroke="#63b8ff" points="293.26,-226.11 290.72,-236.39 299.12,-229.94 293.26,-226.11"/>
</a>
</g>
</g>
</g>
</svg>
