<?xml version="1.0" encoding="UTF-8" standalone="no"?>
<!DOCTYPE svg PUBLIC "-//W3C//DTD SVG 1.1//EN"
 "http://www.w3.org/Graphics/SVG/1.1/DTD/svg11.dtd">
<!-- Generated by graphviz version 2.42.4 (0)
 -->
<!-- Title: /__w/vulpes/vulpes/vulpes/utils/vvutils.hpp Pages: 1 -->
<svg width="410pt" height="93pt"
 viewBox="0.00 0.00 409.50 93.00" xmlns="http://www.w3.org/2000/svg" xmlns:xlink="http://www.w3.org/1999/xlink">

<svg id="main" version="1.1" xmlns="http://www.w3.org/2000/svg" xmlns:xlink="http://www.w3.org/1999/xlink" xml:space="preserve" onload="init(evt)">
<style type="text/css"><![CDATA[
.node, .edge {opacity: 0.7;}
.node.selected, .edge.selected {opacity: 1;}
.edge:hover path { stroke: red; }
.edge:hover polygon { stroke: red; fill: red; }
]]></style>
<script type="application/ecmascript" xlink:href="svg.min.js"/>
<svg id="graph" class="graph">
<g id="graph0" class="graph" transform="scale(1 1) rotate(0) translate(4 89)">
<title>/__w/vulpes/vulpes/vulpes/utils/vvutils.hpp</title>
<!-- Node1 -->
<g id="Node000001" class="node">
<title>Node1</title>
<g id="a_Node000001"><a xlink:title=" ">
<polygon fill="#999999" stroke="#666666" points="282.5,-85 149.5,-85 149.5,-55 282.5,-55 282.5,-85"/>
<text text-anchor="start" x="157.5" y="-73" font-family="Helvetica,sans-Serif" font-size="10.00">/__w/vulpes/vulpes</text>
<text text-anchor="middle" x="216" y="-62" font-family="Helvetica,sans-Serif" font-size="10.00">/vulpes/utils/vvutils.hpp</text>
</a>
</g>
</g>
<!-- Node2 -->
<g id="Node000002" class="node">
<title>Node2</title>
<g id="a_Node000002"><a xlink:title=" ">
<polygon fill="#e0e0e0" stroke="#999999" points="64,-19 0,-19 0,0 64,0 64,-19"/>
<text text-anchor="middle" x="32" y="-7" font-family="Helvetica,sans-Serif" font-size="10.00">algorithm</text>
</a>
</g>
</g>
<!-- Node1&#45;&gt;Node2 -->
<g id="edge1_Node000001_Node000002" class="edge">
<title>Node1&#45;&gt;Node2</title>
<g id="a_edge1_Node000001_Node000002"><a xlink:title=" ">
<path fill="none" stroke="#63b8ff" d="M171.93,-54.99C140.31,-44.94 98.22,-31.55 68.48,-22.1"/>
<polygon fill="#63b8ff" stroke="#63b8ff" points="69.49,-18.75 58.9,-19.05 67.37,-25.42 69.49,-18.75"/>
</a>
</g>
</g>
<!-- Node3 -->
<g id="Node000003" class="node">
<title>Node3</title>
<g id="a_Node000003"><a xlink:title=" ">
<polygon fill="#e0e0e0" stroke="#999999" points="135.5,-19 82.5,-19 82.5,0 135.5,0 135.5,-19"/>
<text text-anchor="middle" x="109" y="-7" font-family="Helvetica,sans-Serif" font-size="10.00">iterator</text>
</a>
</g>
</g>
<!-- Node1&#45;&gt;Node3 -->
<g id="edge2_Node000001_Node000003" class="edge">
<title>Node1&#45;&gt;Node3</title>
<g id="a_edge2_Node000001_Node000003"><a xlink:title=" ">
<path fill="none" stroke="#63b8ff" d="M190.37,-54.99C173.16,-45.58 150.6,-33.24 133.6,-23.95"/>
<polygon fill="#63b8ff" stroke="#63b8ff" points="135.25,-20.87 124.8,-19.14 131.9,-27.01 135.25,-20.87"/>
</a>
</g>
</g>
<!-- Node4 -->
<g id="Node000004" class="node">
<title>Node4</title>
<g id="a_Node000004"><a xlink:title=" ">
<polygon fill="#e0e0e0" stroke="#999999" points="210.5,-19 153.5,-19 153.5,0 210.5,0 210.5,-19"/>
<text text-anchor="middle" x="182" y="-7" font-family="Helvetica,sans-Serif" font-size="10.00">ostream</text>
</a>
</g>
</g>
<!-- Node1&#45;&gt;Node4 -->
<g id="edge3_Node000001_Node000004" class="edge">
<title>Node1&#45;&gt;Node4</title>
<g id="a_edge3_Node000001_Node000004"><a xlink:title=" ">
<path fill="none" stroke="#63b8ff" d="M207.77,-54.84C203.09,-46.78 197.18,-36.62 192.2,-28.06"/>
<polygon fill="#63b8ff" stroke="#63b8ff" points="195.15,-26.15 187.09,-19.27 189.09,-29.67 195.15,-26.15"/>
</a>
</g>
</g>
<!-- Node5 -->
<g id="Node000005" class="node">
<title>Node5</title>
<g id="a_Node000005"><a xlink:title=" ">
<polygon fill="#e0e0e0" stroke="#999999" points="273,-19 229,-19 229,0 273,0 273,-19"/>
<text text-anchor="middle" x="251" y="-7" font-family="Helvetica,sans-Serif" font-size="10.00">string</text>
</a>
</g>
</g>
<!-- Node1&#45;&gt;Node5 -->
<g id="edge4_Node000001_Node000005" class="edge">
<title>Node1&#45;&gt;Node5</title>
<g id="a_edge4_Node000001_Node000005"><a xlink:title=" ">
<path fill="none" stroke="#63b8ff" d="M224.47,-54.84C229.29,-46.78 235.37,-36.62 240.5,-28.06"/>
<polygon fill="#63b8ff" stroke="#63b8ff" points="243.62,-29.64 245.76,-19.27 237.62,-26.05 243.62,-29.64"/>
</a>
</g>
</g>
<!-- Node6 -->
<g id="Node000006" class="node">
<title>Node6</title>
<g id="a_Node000006"><a xlink:title=" ">
<polygon fill="#e0e0e0" stroke="#999999" points="336.5,-19 291.5,-19 291.5,0 336.5,0 336.5,-19"/>
<text text-anchor="middle" x="314" y="-7" font-family="Helvetica,sans-Serif" font-size="10.00">utility</text>
</a>
</g>
</g>
<!-- Node1&#45;&gt;Node6 -->
<g id="edge5_Node000001_Node000006" class="edge">
<title>Node1&#45;&gt;Node6</title>
<g id="a_edge5_Node000001_Node000006"><a xlink:title=" ">
<path fill="none" stroke="#63b8ff" d="M239.72,-54.84C255.2,-45.6 275.32,-33.59 290.71,-24.4"/>
<polygon fill="#63b8ff" stroke="#63b8ff" points="292.81,-27.23 299.6,-19.09 289.22,-21.21 292.81,-27.23"/>
</a>
</g>
</g>
<!-- Node7 -->
<g id="Node000007" class="node">
<title>Node7</title>
<g id="a_Node000007"><a xlink:title=" ">
<polygon fill="#e0e0e0" stroke="#999999" points="401.5,-19 354.5,-19 354.5,0 401.5,0 401.5,-19"/>
<text text-anchor="middle" x="378" y="-7" font-family="Helvetica,sans-Serif" font-size="10.00">vector</text>
</a>
</g>
</g>
<!-- Node1&#45;&gt;Node7 -->
<g id="edge6_Node000001_Node000007" class="edge">
<title>Node1&#45;&gt;Node7</title>
<g id="a_edge6_Node000001_Node000007"><a xlink:title=" ">
<path fill="none" stroke="#63b8ff" d="M254.8,-54.99C282.19,-45.1 318.52,-31.98 344.61,-22.56"/>
<polygon fill="#63b8ff" stroke="#63b8ff" points="345.86,-25.83 354.08,-19.14 343.48,-19.24 345.86,-25.83"/>
</a>
</g>
</g>
</g>
</svg>
</svg>

<style type='text/css'>
<![CDATA[
[data-mouse-over-selected='false'] { opacity: 0.7; }
[data-mouse-over-selected='true']  { opacity: 1.0; }
]]>
</style>
<script type="application/ecmascript"><![CDATA[
document.addEventListener('DOMContentLoaded', (event) => {
  highlightEdges();
  highlightAdjacentNodes();
});
]]></script>
</svg>
